<?xml version="1.0" encoding="utf-8"?>
<!-- Generator: Adobe Illustrator 16.0.0, SVG Export Plug-In . SVG Version: 6.00 Build 0)  -->
<!DOCTYPE svg PUBLIC "-//W3C//DTD SVG 1.1//EN" "http://www.w3.org/Graphics/SVG/1.1/DTD/svg11.dtd">
<svg version="1.1" id="Camada_1" xmlns="http://www.w3.org/2000/svg" xmlns:xlink="http://www.w3.org/1999/xlink" x="0px" y="0px"
	 width="612.5px" height="700px" viewBox="233.75 0 612.5 700" enable-background="new 233.75 0 612.5 700" xml:space="preserve">
<path fill="#636362" d="M408.75,0c24.199,0,43.75,19.551,43.75,43.75V87.5h175V43.75C627.5,19.551,647.051,0,671.25,0
	S715,19.551,715,43.75V87.5h65.625c36.23,0,65.625,29.395,65.625,65.625v65.625h-612.5v-65.625c0-36.23,29.395-65.625,65.625-65.625
	H365V43.75C365,19.551,384.551,0,408.75,0z M233.75,262.5h612.5v371.875c0,36.23-29.395,65.625-65.625,65.625h-481.25
	c-36.23,0-65.625-29.395-65.625-65.625V262.5z M321.25,371.875v43.75c0,12.03,9.844,21.875,21.875,21.875h43.75
	c12.031,0,21.875-9.845,21.875-21.875v-43.75c0-12.031-9.844-21.875-21.875-21.875h-43.75
	C331.094,350,321.25,359.844,321.25,371.875z M496.25,371.875v43.75c0,12.03,9.844,21.875,21.875,21.875h43.75
	c12.031,0,21.875-9.845,21.875-21.875v-43.75c0-12.031-9.844-21.875-21.875-21.875h-43.75
	C506.094,350,496.25,359.844,496.25,371.875z M693.125,350c-12.031,0-21.875,9.844-21.875,21.875v43.75
	c0,12.03,9.844,21.875,21.875,21.875h43.75c12.031,0,21.875-9.845,21.875-21.875v-43.75c0-12.031-9.844-21.875-21.875-21.875
	H693.125z M321.25,546.875v43.75c0,12.031,9.844,21.875,21.875,21.875h43.75c12.031,0,21.875-9.844,21.875-21.875v-43.75
	c0-12.031-9.844-21.875-21.875-21.875h-43.75C331.094,525,321.25,534.844,321.25,546.875z M518.125,525
	c-12.031,0-21.875,9.844-21.875,21.875v43.75c0,12.031,9.844,21.875,21.875,21.875h43.75c12.031,0,21.875-9.844,21.875-21.875
	v-43.75c0-12.031-9.844-21.875-21.875-21.875H518.125z M671.25,546.875v43.75c0,12.031,9.844,21.875,21.875,21.875h43.75
	c12.031,0,21.875-9.844,21.875-21.875v-43.75c0-12.031-9.844-21.875-21.875-21.875h-43.75
	C681.094,525,671.25,534.844,671.25,546.875z"/>
</svg>
