<?xml version="1.0" encoding="utf-8"?>
<!-- Generator: Adobe Illustrator 16.0.0, SVG Export Plug-In . SVG Version: 6.00 Build 0)  -->
<!DOCTYPE svg PUBLIC "-//W3C//DTD SVG 1.1//EN" "http://www.w3.org/Graphics/SVG/1.1/DTD/svg11.dtd">
<svg version="1.1" id="Camada_1" xmlns="http://www.w3.org/2000/svg" xmlns:xlink="http://www.w3.org/1999/xlink" x="0px" y="0px"
	 width="205.833px" height="150px" viewBox="0 0 205.833 150" enable-background="new 0 0 205.833 150" xml:space="preserve">
<g id="Camada_1_1_" display="none">
	<rect x="-7.202" display="inline" fill="none" stroke="#FFFFFF" stroke-miterlimit="10" width="400" height="150"/>
	<rect x="-34.944" y="-22.74" display="inline" fill="#BFBEBE" width="468.131" height="221.464"/>
</g>
<g>
	<g>
		<path fill="#404040" d="M17.816,74.465c5.615,0,8.832,2.773,8.832,7.662c0,5.143-3.217,8.111-8.832,8.111h-4.385v6.307H8.447
			v-22.08H17.816z M13.431,86.07h4.133c2.775,0,4.354-1.262,4.354-3.784c0-2.459-1.578-3.69-4.354-3.69h-4.133V86.07z"/>
		<path fill="#404040" d="M49.363,87.303c0,5.836-3.818,9.463-9.905,9.463c-6.122,0-10.033-3.627-10.033-9.463V74.465h4.984v12.838
			c0,3.186,2.083,5.109,5.049,5.109c2.965,0,4.922-1.924,4.922-5.109V74.465h4.983V87.303z"/>
		<path fill="#404040" d="M72.708,77.963l-2.901,3.535c-1.514-1.736-3.694-2.873-5.743-2.873c-3.786,0-6.719,2.934-6.719,6.783
			c0,3.852,2.933,6.816,6.719,6.816c1.987,0,4.166-1.013,5.743-2.588l2.933,3.184c-2.334,2.4-5.709,3.945-8.93,3.945
			c-6.592,0-11.577-4.89-11.577-11.295c0-6.373,5.081-11.171,11.768-11.171C67.189,74.301,70.533,75.725,72.708,77.963z"/>
	</g>
	<g>
		<path fill="#404040" d="M26.703,107.622l-2.767,3.373c-1.443-1.656-3.518-2.74-5.473-2.74c-3.609,0-6.406,2.8-6.406,6.468
			c0,3.67,2.797,6.496,6.406,6.496c1.895,0,3.969-0.964,5.473-2.468l2.797,3.037c-2.226,2.287-5.443,3.76-8.511,3.76
			c-6.286,0-11.038-4.659-11.038-10.769c0-6.073,4.843-10.645,11.219-10.645C21.439,104.133,24.628,105.488,26.703,107.622z"/>
		<path fill="#404040" d="M44.986,125.336h-4.601v-2.316c-1.144,1.599-2.887,2.498-5.082,2.498c-4.602,0-7.64-3.34-7.64-8.33
			c0-4.903,2.977-8.18,7.488-8.209c2.288,0,4.06,0.9,5.233,2.523v-2.346h4.601L44.986,125.336L44.986,125.336z M40.386,117.848
			v-1.082c-0.241-2.346-1.806-3.94-4-3.94c-2.406,0-4.058,1.868-4.088,4.481c0.03,2.646,1.653,4.48,4.088,4.48
			C38.58,121.788,40.145,120.195,40.386,117.848z"/>
		<path fill="#404040" d="M54.099,112.072c1.113-1.981,2.947-3.063,5.353-3.094v4.357c-3.308-0.299-5.353,1.475-5.353,4.211v7.789
			h-4.632v-16.18h4.632V112.072z"/>
		<path fill="#404040" d="M66.609,112.072c1.114-1.981,2.947-3.063,5.354-3.094v4.357c-3.31-0.299-5.354,1.475-5.354,4.211v7.789
			h-4.633v-16.18h4.633V112.072L66.609,112.072z"/>
		<path fill="#404040" d="M86.337,119.803l2.646,2.408c-1.864,2.193-4.329,3.307-7.277,3.307c-5.143,0-8.602-3.307-8.602-8.24
			c0-4.873,3.218-8.241,8.3-8.27c4.692-0.029,7.79,2.826,7.97,7.457l-11.188,2.947c0.692,1.564,2.076,2.496,3.85,2.496
			C83.598,121.909,85.104,121.186,86.337,119.803z M77.735,116.645l7.098-1.924c-0.511-1.564-1.624-2.285-3.189-2.285
			C79.33,112.436,77.854,113.909,77.735,116.645z"/>
		<path fill="#404040" d="M97.493,104.557c0,1.502-1.02,2.586-2.495,2.586c-1.474,0-2.498-1.084-2.498-2.586
			c0-1.504,1.023-2.588,2.498-2.588S97.493,103.053,97.493,104.557z M92.681,125.336v-16.18h4.632v16.18H92.681z"/>
		<path fill="#404040" d="M106.395,112.072c1.114-1.981,2.947-3.063,5.354-3.094v4.357c-3.31-0.299-5.354,1.475-5.354,4.211v7.789
			h-4.63v-16.18h4.63V112.072z"/>
		<path fill="#404040" d="M130.214,125.336h-4.604v-2.316c-1.141,1.599-2.886,2.498-5.08,2.498c-4.602,0-7.64-3.34-7.64-8.33
			c0-4.903,2.976-8.18,7.489-8.209c2.285,0,4.06,0.9,5.23,2.523v-2.346h4.604L130.214,125.336L130.214,125.336z M125.611,117.848
			v-1.082c-0.238-2.346-1.802-3.94-3.997-3.94c-2.407,0-4.062,1.868-4.093,4.481c0.032,2.646,1.656,4.48,4.093,4.48
			C123.809,121.788,125.373,120.195,125.611,117.848z"/>
		<path fill="#404040" d="M146.484,110.752l-1.595,3.156c-1.773-0.99-3.579-1.564-4.931-1.564c-1.083,0-1.866,0.359-1.866,1.203
			c0,2.438,8.542,1.203,8.512,6.92c0,3.307-2.917,5.051-6.585,5.051c-2.616,0-5.172-0.783-7.008-2.256l1.504-3.127
			c1.684,1.291,3.848,2.016,5.623,2.016c1.173,0,2.046-0.393,2.046-1.264c0-2.586-8.391-1.203-8.391-6.889
			c0-3.336,2.855-5.051,6.376-5.051C142.394,108.947,144.68,109.609,146.484,110.752z"/>
	</g>
	<g>
		<path fill="#EAB81C" d="M135.605,94.547c-4.337-0.563-8.775-0.646-13.147-0.518c0.878,0.213,1.767,0.461,2.669,0.752
			c8.317,2.688,15.026,2.477,20.233,0.393C142.33,95.202,139.083,95,135.605,94.547z"/>
		<path fill="#EAB81C" d="M85.754,91.917c2.499,3.599,6.074,3.888,10.652,3.258c-2.118-0.135-4.053-0.428-5.755-0.946
			C88.678,93.773,87.026,93.036,85.754,91.917z"/>
		<path fill="#EAB81C" d="M143.018,30.912c6.224-1.052,12.272-1.114,17.96-0.385c-7.627-5.165-17.109-7.778-27.283-5.999
			c-30.394,5.316-49.173,34.123-50.786,55.041c0.55-5.207,3.029-10.89,6.968-16.229C99.247,49.059,117.589,35.215,143.018,30.912z"
			/>
		<path fill="#EAB81C" d="M98.644,94.818c-0.77,0.136-1.516,0.259-2.237,0.355c7.167,0.463,16.446-0.857,26.052-1.145
			c-1.844-0.447-3.632-0.738-5.362-0.9C110.249,93.855,103.937,94.682,98.644,94.818z"/>
		<path fill="#EAB81C" d="M145.36,95.174c4.076-0.029,7.754-0.48,11.043-1.295c-2.277-0.174-4.656-0.438-7.134-0.791
			C148.076,93.909,146.773,94.611,145.36,95.174z"/>
		<path fill="#EAB81C" d="M199.766,62.397c-0.673-14.79-17.091-29.09-38.788-31.87c10.814,7.323,17.893,19.774,17.893,32.12
			c0,15.365-6.954,27.389-22.466,31.232C188.244,96.309,200.633,81.473,199.766,62.397z"/>
		<path fill="#EAB81C" d="M82.804,82.997c-0.019,0.631-0.018,1.256,0.01,1.862c0.149,3.252,1.184,5.515,2.939,7.058
			c-0.353-0.513-0.685-1.086-0.994-1.733C83.563,88.413,82.879,86.07,82.804,82.997z"/>
		<path fill="#DB8D20" d="M89.877,63.338c-3.939,5.34-6.418,11.023-6.968,16.23c-0.067,0.885-0.105,1.754-0.109,2.606
			c0.002,0.188,0.01,0.38,0.019,0.563C83.081,76.797,85.496,70.022,89.877,63.338z"/>
		<path fill="#DB8D20" d="M147.95,92.893c-10.443-1.613-21.182-0.789-30.854,0.236c1.73,0.162,3.518,0.453,5.362,0.9
			c4.372-0.129,8.81-0.045,13.147,0.518c3.479,0.453,6.725,0.654,9.755,0.627c1.413-0.563,2.716-1.266,3.909-2.086
			C148.832,93.023,148.395,92.961,147.95,92.893z"/>
		<path fill="#DB8D20" d="M90.651,94.227c1.702,0.521,3.637,0.813,5.755,0.947c0.721-0.098,1.467-0.221,2.237-0.355
			C95.616,94.896,92.921,94.747,90.651,94.227z"/>
		<path fill="#DB8D20" d="M84.76,90.182c0.31,0.648,0.642,1.223,0.994,1.734c1.272,1.119,2.924,1.857,4.897,2.311
			C88.131,93.458,86.117,92.189,84.76,90.182z"/>
		<path fill="#DB8D20" d="M83.25,85.747c-0.234-0.972-0.374-1.976-0.431-3.009c-0.004,0.084-0.009,0.173-0.014,0.259
			c0.075,3.073,0.759,5.416,1.956,7.187C84.18,88.971,83.676,87.512,83.25,85.747z"/>
		<path fill="#DB8D20" d="M178.87,62.647c0-12.346-7.078-24.797-17.893-32.12c-5.688-0.729-11.736-0.667-17.96,0.385
			c-25.428,4.304-43.771,18.147-53.141,32.427c7.258-9.824,19.471-18.479,33.737-20.826c19.504-3.211,35.822,12.74,35.822,28.455
			c0,8.684-3.262,17.371-10.167,22.121c2.479,0.354,4.857,0.617,7.134,0.791C171.916,90.036,178.87,78.012,178.87,62.647z"/>
		<path fill="#DB8D20" d="M98.644,94.818c5.293-0.137,11.605-0.963,18.453-1.688C109.922,92.456,103.746,93.926,98.644,94.818z"/>
		<path fill="#CF631E" d="M83.25,85.747c0.427,1.767,0.93,3.226,1.51,4.437c1.357,2.008,3.372,3.274,5.892,4.045
			c2.27,0.52,4.964,0.67,7.992,0.592c5.103-0.893,11.278-2.363,18.453-1.689c9.672-1.025,20.411-1.85,30.854-0.236
			c0.444,0.068,0.881,0.131,1.319,0.195c6.904-4.75,10.167-13.438,10.167-22.121c0-15.715-16.317-31.666-35.822-28.455
			c-14.267,2.347-26.479,11.002-33.737,20.826c-4.381,6.684-6.796,13.459-7.059,19.4C82.875,83.771,83.015,84.775,83.25,85.747z
			 M94.844,78.557c2.211,0,4.007,1.793,4.007,4.006s-1.795,4.008-4.007,4.008c-2.213,0-4.008-1.795-4.008-4.008
			S92.631,78.557,94.844,78.557z"/>
	</g>
</g>
<g id="LOGOS_BRANCAS" display="none">
	<g display="inline">
		<g>
			<path fill="#FFFFFF" d="M16.281,91.531c5.615,0,8.833,2.773,8.833,7.664c0,5.144-3.218,8.109-8.833,8.109h-4.385v6.307H6.912
				v-22.08H16.281z M11.896,103.139h4.133c2.774,0,4.353-1.263,4.353-3.787c0-2.459-1.579-3.689-4.353-3.689h-4.133V103.139z"/>
			<path fill="#FFFFFF" d="M47.828,104.369c0,5.838-3.818,9.465-9.905,9.465c-6.122,0-10.032-3.627-10.032-9.465V91.531h4.984
				v12.838c0,3.188,2.083,5.111,5.048,5.111c2.965,0,4.922-1.926,4.922-5.111V91.531h4.983V104.369z"/>
			<path fill="#FFFFFF" d="M71.174,95.029l-2.901,3.535c-1.514-1.735-3.694-2.873-5.744-2.873c-3.785,0-6.719,2.936-6.719,6.783
				c0,3.852,2.934,6.815,6.719,6.815c1.988,0,4.166-1.011,5.744-2.587l2.933,3.186c-2.334,2.398-5.71,3.944-8.93,3.944
				c-6.592,0-11.577-4.89-11.577-11.295c0-6.373,5.081-11.169,11.768-11.169C65.654,91.37,68.998,92.792,71.174,95.029z"/>
		</g>
		<g>
			<path fill="#FFFFFF" d="M25.168,124.689l-2.768,3.369c-1.442-1.654-3.518-2.738-5.472-2.738c-3.609,0-6.407,2.799-6.407,6.468
				c0,3.671,2.798,6.496,6.407,6.496c1.894,0,3.969-0.964,5.472-2.468l2.797,3.037c-2.225,2.287-5.443,3.76-8.511,3.76
				c-6.286,0-11.038-4.66-11.038-10.766c0-6.076,4.843-10.646,11.219-10.646C19.904,121.201,23.094,122.555,25.168,124.689z"/>
			<path fill="#FFFFFF" d="M43.452,142.402h-4.601v-2.315c-1.144,1.597-2.887,2.497-5.082,2.497c-4.601,0-7.64-3.338-7.64-8.33
				c0-4.902,2.977-8.18,7.488-8.208c2.288,0,4.06,0.899,5.234,2.522v-2.346h4.601V142.402z M38.851,134.915v-1.081
				c-0.241-2.346-1.806-3.941-4.001-3.941c-2.405,0-4.059,1.867-4.088,4.48c0.029,2.646,1.653,4.48,4.088,4.48
				C37.045,138.854,38.61,137.262,38.851,134.915z"/>
			<path fill="#FFFFFF" d="M52.563,129.139c1.113-1.982,2.947-3.064,5.353-3.094v4.357c-3.308-0.301-5.353,1.476-5.353,4.211v7.789
				h-4.632v-16.18h4.632V129.139z"/>
			<path fill="#FFFFFF" d="M65.074,129.139c1.114-1.982,2.947-3.064,5.354-3.094v4.357c-3.31-0.301-5.354,1.476-5.354,4.211v7.789
				h-4.633v-16.18h4.633V129.139L65.074,129.139z"/>
			<path fill="#FFFFFF" d="M84.802,136.87l2.646,2.405c-1.864,2.195-4.329,3.309-7.277,3.309c-5.143,0-8.602-3.309-8.602-8.238
				c0-4.871,3.218-8.242,8.3-8.271c4.691-0.028,7.791,2.826,7.97,7.457l-11.187,2.947c0.691,1.564,2.075,2.496,3.849,2.496
				C82.063,138.975,83.569,138.252,84.802,136.87z M76.201,133.711l7.098-1.924c-0.511-1.563-1.624-2.286-3.19-2.286
				C77.795,129.501,76.319,130.975,76.201,133.711z"/>
			<path fill="#FFFFFF" d="M95.958,121.624c0,1.502-1.02,2.585-2.495,2.585c-1.474,0-2.497-1.083-2.497-2.585
				c0-1.504,1.023-2.587,2.497-2.587C94.938,119.037,95.958,120.12,95.958,121.624z M91.146,142.402v-16.18h4.631v16.18H91.146z"/>
			<path fill="#FFFFFF" d="M104.86,129.139c1.114-1.982,2.947-3.064,5.354-3.094v4.357c-3.31-0.301-5.354,1.476-5.354,4.211v7.789
				h-4.63v-16.18h4.63V129.139z"/>
			<path fill="#FFFFFF" d="M128.68,142.402h-4.603v-2.315c-1.142,1.597-2.886,2.497-5.081,2.497c-4.602,0-7.64-3.338-7.64-8.33
				c0-4.902,2.977-8.18,7.49-8.208c2.284,0,4.059,0.899,5.231,2.522v-2.346h4.603V142.402z M124.077,134.915v-1.081
				c-0.239-2.346-1.803-3.941-3.998-3.941c-2.407,0-4.062,1.867-4.093,4.48c0.031,2.646,1.656,4.48,4.093,4.48
				C122.274,138.854,123.837,137.262,124.077,134.915z"/>
			<path fill="#FFFFFF" d="M144.949,127.818l-1.594,3.156c-1.774-0.99-3.58-1.563-4.932-1.563c-1.083,0-1.866,0.359-1.866,1.201
				c0,2.439,8.541,1.203,8.511,6.92c0,3.307-2.917,5.051-6.585,5.051c-2.616,0-5.172-0.781-7.008-2.255l1.503-3.126
				c1.684,1.29,3.848,2.014,5.624,2.014c1.172,0,2.046-0.392,2.046-1.264c0-2.585-8.391-1.202-8.391-6.889
				c0-3.336,2.855-5.051,6.375-5.051C140.858,126.014,143.145,126.676,144.949,127.818z"/>
		</g>
		<g>
			<path fill="#FFFFFF" d="M93.486,95.244c-2.324,0-4.215,1.891-4.215,4.215s1.892,4.215,4.215,4.215
				c2.325,0,4.216-1.891,4.216-4.215S95.812,95.244,93.486,95.244z M93.486,103.227c-2.078,0-3.768-1.69-3.768-3.769
				s1.69-3.769,3.768-3.769c2.078,0,3.768,1.69,3.768,3.769S95.564,103.227,93.486,103.227z"/>
			<path fill="#FFFFFF" d="M198.23,79.357c-0.367-8.088-5.477-16.269-14.017-22.442c-6.991-5.054-15.581-8.318-24.745-9.5
				c-6.28-4.256-13.488-6.547-20.938-6.547c-2.117,0-4.263,0.188-6.381,0.559c-31.387,5.487-49.334,35.213-50.792,55.313
				c-0.012,0.126-0.016,0.248-0.025,0.373c-0.008,0.119-0.017,0.238-0.023,0.357c-0.017,0.287-0.03,0.574-0.035,0.858
				c-0.01,0.339-0.016,0.675-0.016,1.007c0,0.174,0.008,0.335,0.012,0.503c-0.022,0.647-0.021,1.288,0.009,1.919
				c0.154,3.368,1.265,5.639,2.961,7.161c1.733,2.492,4.122,3.589,7.48,3.589c1.035,0,2.129-0.1,3.286-0.257
				c1.077,0.065,2.18,0.091,3.292,0.091c3.555,0,7.489-0.287,11.653-0.592c3.592-0.264,7.278-0.531,11.022-0.643
				c0.874,0.213,1.743,0.455,2.61,0.736c4.087,1.318,7.958,1.988,11.508,1.988c0.001,0,0.001,0,0.002,0
				c3.179,0,6.119-0.539,8.766-1.592c4.005-0.035,7.685-0.461,11.018-1.285c2.251,0.17,4.428,0.26,6.514,0.26
				c0.002,0,0.002,0,0.004,0c13.275,0,23.213-3.355,29.537-9.973C196.112,95.825,198.636,88.256,198.23,79.357z M132.228,41.867
				c2.093-0.367,4.214-0.552,6.304-0.552c7.361,0,14.099,2.267,19.806,5.957c-2.167-0.238-4.363-0.36-6.576-0.36
				c-3.428,0-6.901,0.294-10.323,0.873c-17.49,2.96-33.439,10.919-44.908,22.414c-3.199,3.206-5.955,6.594-8.213,10.038
				c-0.452,0.615-0.889,1.236-1.309,1.869c-1.927,2.906-3.381,5.859-4.349,8.734C86.763,71.421,104.033,46.797,132.228,41.867z
				 M143.329,111.803c-0.002,0-0.004,0-0.005,0c-2.895,0-5.991-0.211-9.201-0.628c-2.956-0.384-6.128-0.569-9.7-0.569
				c-1.137,0-2.269,0.021-3.396,0.054c-1.11-0.271-2.23-0.487-3.361-0.654c5.108-0.514,10.526-0.938,15.971-0.938
				c4.625,0,8.785,0.297,12.72,0.904c0.246,0.036,0.487,0.068,0.731,0.105c-1.048,0.673-2.156,1.25-3.327,1.72
				C143.615,111.797,143.475,111.803,143.329,111.803z M146.424,109.527c-3.958-0.61-8.141-0.907-12.789-0.907
				c-6.179,0-12.318,0.541-18.006,1.146c-1.204-0.113-2.423-0.175-3.668-0.175c-4.663,0-8.843,0.774-12.531,1.459
				c-0.745,0.138-1.461,0.271-2.155,0.394c-0.498,0.013-0.99,0.021-1.467,0.021c-2.614,0-4.825-0.219-6.668-0.675
				c-2.319-0.763-4.268-2.019-5.587-4.048c-0.525-1.137-0.997-2.508-1.397-4.165c-0.234-0.968-0.367-1.987-0.416-3.039
				c0.295-5.761,2.68-12.509,7.072-19.22c7.879-10.625,20.447-18.408,33.372-20.535c1.657-0.273,3.337-0.412,4.992-0.412
				c17.418,0,30.434,15.065,30.434,28.537c0,6.748-1.947,12.975-5.48,17.531c-1.306,1.685-2.809,3.105-4.483,4.267
				C147.238,109.646,146.834,109.591,146.424,109.527z M112.925,110.055c-0.563,0.063-1.129,0.125-1.68,0.188
				c-3.714,0.412-7.285,0.807-10.559,1.031c3.376-0.617,7.139-1.235,11.275-1.235C112.285,110.038,112.604,110.048,112.925,110.055z
				 M152.481,105.714c3.595-4.636,5.574-10.96,5.574-17.808c0-7.063-3.271-14.315-8.973-19.895
				c-5.989-5.861-13.77-9.088-21.908-9.088c-1.679,0-3.383,0.141-5.065,0.417c-10.934,1.8-21.613,7.614-29.462,15.765
				c9.88-12.041,26.331-23.066,48.868-26.879c3.396-0.575,6.845-0.866,10.248-0.866c2.5,0,4.975,0.164,7.413,0.468
				c10.871,7.425,17.794,20.058,17.794,31.79c0,9.594-2.78,17.567-8.04,23.06c-3.62,3.778-8.334,6.395-14.086,7.828
				c-2.122-0.16-4.309-0.396-6.557-0.706C149.841,108.666,151.249,107.305,152.481,105.714z M91.722,112.063
				c-2.071,0-4.14-0.351-5.919-2.033c1.055,0.598,2.243,1.015,3.511,1.301c1.063,0.318,2.192,0.548,3.372,0.703
				C92.359,112.05,92.037,112.063,91.722,112.063z M109.92,111.305c-4.156,0.303-8.082,0.59-11.621,0.59
				c-0.321,0-0.641-0.002-0.959-0.008c4.132-0.111,8.917-0.642,13.953-1.201c1.407-0.156,2.861-0.315,4.338-0.473
				c1.215,0.113,2.415,0.279,3.599,0.51C116.074,110.855,112.963,111.082,109.92,111.305z M135.093,113.387
				c-3.502-0.002-7.328-0.662-11.37-1.969c-0.386-0.125-0.773-0.238-1.16-0.352c0.618-0.01,1.238-0.016,1.859-0.016
				c3.552,0,6.707,0.186,9.642,0.566c2.953,0.384,5.802,0.586,8.497,0.617c-2.293,0.762-4.793,1.15-7.466,1.15
				C135.095,113.387,135.094,113.387,135.093,113.387z M144.941,111.775c0.983-0.457,1.918-0.996,2.81-1.603
				c1.921,0.272,3.801,0.493,5.635,0.659C150.771,111.378,147.954,111.693,144.941,111.775z M190.609,100.936
				c-6.235,6.524-16.063,9.834-29.212,9.834c0,0-0.003,0-0.004,0c-1.679,0-3.417-0.058-5.205-0.168
				c5.275-1.511,9.65-4.051,13.065-7.615c5.34-5.575,8.164-13.656,8.164-23.368c0-9.44-4.117-19.132-11.294-26.592
				c-1.824-1.896-3.782-3.581-5.845-5.054c8.765,1.262,16.963,4.456,23.673,9.306c8.429,6.094,13.47,14.149,13.832,22.101
				C198.183,88.152,195.701,95.605,190.609,100.936z"/>
		</g>
	</g>
	<g display="inline">
		<g>
			<path fill="#FFFFFF" d="M227.695,133.045v9.145h-4.411v-24.832c2.941-0.125,4.661-0.187,5.157-0.187
				c3.922,0,6.792,0.601,8.608,1.806c1.812,1.201,2.721,3.086,2.721,5.64c0,5.7-3.356,8.551-10.077,8.551
				C229.198,133.167,228.527,133.124,227.695,133.045z M227.695,121.17v7.956c0.746,0.079,1.332,0.118,1.761,0.118
				c2.014,0,3.485-0.335,4.41-1.006c0.929-0.676,1.395-1.768,1.395-3.284c0-2.577-2.078-3.87-6.227-3.87
				C228.57,121.084,228.125,121.113,227.695,121.17z"/>
			<path fill="#FFFFFF" d="M242.979,117.339h4.41v16.847c0,1.332,0.403,2.418,1.221,3.254c0.813,0.838,1.935,1.254,3.354,1.254
				c1.595,0,2.838-0.41,3.728-1.228c0.888-0.821,1.33-1.946,1.33-3.366v-16.761h4.412v17.099c0,2.558-0.858,4.556-2.572,6.002
				c-1.712,1.449-3.997,2.174-6.86,2.174c-2.883,0-5.106-0.709-6.672-2.12c-1.57-1.416-2.351-3.437-2.351-6.072V117.339z"/>
			<path fill="#FFFFFF" d="M282.854,118.66l-1.815,3.652c-0.979-0.987-2.564-1.478-4.746-1.478c-2.071,0-3.77,0.866-5.09,2.601
				c-1.324,1.74-1.984,3.938-1.984,6.592c0,2.66,0.611,4.768,1.838,6.326c1.23,1.562,2.867,2.34,4.914,2.34
				c2.341,0,4.171-0.834,5.492-2.51l2.057,3.563c-1.8,1.909-4.438,2.866-7.907,2.866c-3.472,0-6.17-1.145-8.089-3.43
				c-1.921-2.281-2.885-5.396-2.885-9.347c0-3.672,1.066-6.75,3.193-9.216c2.135-2.473,4.862-3.707,8.188-3.707
				C278.869,116.916,281.143,117.498,282.854,118.66z"/>
			<path fill="#FFFFFF" d="M319.328,142.209h-4.277l-2.578-13.4l-5.004,13.721h-1.576l-5.004-13.721l-2.68,13.4h-4.258l5-24.87
				h2.344l5.377,16.741l5.258-16.741h2.328L319.328,142.209z"/>
			<path fill="#FFFFFF" d="M322.227,142.189V127.5h-2.324v-3.479h6.614v18.168H322.227z M324.416,116.982
				c0.681,0,1.262,0.24,1.734,0.722c0.484,0.479,0.725,1.06,0.725,1.739c0,0.677-0.238,1.256-0.725,1.736
				c-0.475,0.48-1.055,0.721-1.734,0.721c-0.678,0-1.263-0.239-1.738-0.721c-0.482-0.48-0.723-1.061-0.723-1.736
				c0-0.68,0.239-1.26,0.723-1.739C323.153,117.223,323.738,116.982,324.416,116.982z"/>
			<path fill="#FFFFFF" d="M342.451,142.189v-10.5c0-1.549-0.304-2.68-0.895-3.394c-0.598-0.71-1.563-1.067-2.909-1.067
				c-0.622,0-1.289,0.176-1.994,0.524c-0.706,0.349-1.255,0.787-1.653,1.306v13.131h-4.237v-18.168h3.055l0.778,1.701
				c1.154-1.361,2.854-2.041,5.104-2.041c2.16,0,3.864,0.65,5.11,1.945c1.253,1.293,1.878,3.1,1.878,5.419v11.144H342.451z"/>
			<path fill="#FFFFFF" d="M360.681,140.373c-0.383,0.639-1.061,1.154-2.014,1.551c-0.949,0.405-1.955,0.605-2.992,0.605
				c-1.957,0-3.494-0.49-4.613-1.469s-1.68-2.367-1.68-4.162c0-2.104,0.791-3.748,2.365-4.934c1.582-1.195,3.816-1.783,6.726-1.783
				c0.499,0,1.085,0.078,1.764,0.252c0-2.138-1.35-3.205-4.05-3.205c-1.598,0-2.93,0.268-4.006,0.801l-0.914-3.295
				c1.458-0.7,3.191-1.053,5.207-1.053c2.771,0,4.799,0.633,6.087,1.894c1.29,1.263,1.937,3.647,1.937,7.165v3.886
				c0,2.419,0.484,3.942,1.457,4.562c-0.351,0.611-0.742,0.989-1.17,1.125c-0.43,0.146-0.921,0.219-1.475,0.219
				c-0.609,0-1.16-0.227-1.646-0.682C361.179,141.398,360.852,140.904,360.681,140.373z M360.271,133.639
				c-0.723-0.144-1.268-0.218-1.628-0.218c-3.343,0-5.021,1.095-5.021,3.29c0,1.627,0.943,2.441,2.834,2.441
				c2.539,0,3.813-1.274,3.813-3.815L360.271,133.639L360.271,133.639z"/>
			<path fill="#FFFFFF" d="M367.259,141.02l1.512-3.373c1.264,1.004,2.695,1.506,4.294,1.506c1.647,0,2.474-0.586,2.474-1.764
				c0-0.689-0.248-1.255-0.748-1.697c-0.494-0.437-1.461-0.957-2.899-1.561c-3.13-1.302-4.7-3.123-4.7-5.461
				c0-1.568,0.6-2.8,1.803-3.672c1.197-0.876,2.729-1.316,4.598-1.316c1.884,0,3.664,0.426,5.324,1.272l-1.223,3.29
				c-0.927-0.787-2.219-1.186-3.865-1.186c-1.479,0-2.225,0.588-2.225,1.764c0,0.465,0.246,0.882,0.73,1.256
				c0.484,0.373,1.524,0.873,3.119,1.5c1.594,0.629,2.744,1.391,3.441,2.281c0.704,0.896,1.055,1.975,1.055,3.24
				c0,1.687-0.625,3.01-1.875,3.978c-1.25,0.967-2.949,1.452-5.098,1.452c-1.211,0-2.18-0.098-2.907-0.301
				C369.339,142.031,368.399,141.628,367.259,141.02z"/>
		</g>
		<g>
			<g>
				<path fill="#FFFFFF" d="M263.824,65.394l-0.089-0.215c-0.253-0.619-0.546-1.217-0.854-1.807c0.209,0,0.412,0,0.625,0h0.229h0.56
					h0.146l-0.059-0.139c-0.131-0.319-0.254-0.647-0.325-0.99c-0.063-0.323-0.073-0.656-0.08-0.989v-0.098h-0.104h-0.138h-0.646
					c-0.229,0-0.455,0-0.682,0c0.03-0.508,0.102-1.016,0.192-1.518l0.019-0.122H262.5h-0.942h-0.028c-0.326,0-0.643,0-0.968,0
					h-0.085l-0.016,0.08c-0.096,0.519-0.166,1.035-0.198,1.56c-0.233,0-0.461,0-0.693,0c-0.264,0-0.526,0-0.79,0h-0.102v0.104
					c0,0.34,0.023,0.685,0.084,1.024c0.074,0.351,0.197,0.696,0.338,1.022l0.023,0.067h0.074c0.26,0,0.521,0,0.785,0
					c0.244,0,0.485,0,0.73,0c0.303,0.58,0.588,1.165,0.844,1.764c0.049,0.115,0.087,0.222,0.135,0.333
					c0.279,0.72,0.533,1.445,0.809,2.166l0.025,0.063h0.07c0.32,0,0.646,0,0.963,0h0.176h0.799h0.147l-0.052-0.138
					C264.355,66.84,264.102,66.119,263.824,65.394z M262.943,67.009c-0.253-0.705-0.494-1.412-0.791-2.096
					c-0.181-0.438-0.386-0.86-0.595-1.288c-0.14-0.29-0.287-0.588-0.418-0.878l-0.027-0.065h-0.063c-0.266,0-0.523,0-0.791,0
					c-0.237,0-0.473,0-0.709,0c-0.076-0.274-0.131-0.555-0.174-0.837c0.228,0,0.459,0,0.68,0c0.266,0,0.521,0,0.789,0h0.105
					l-0.008-0.104c-0.008-0.511,0.02-1.026,0.08-1.535h0.535h0.271c-0.063,0.512-0.097,1.026-0.088,1.537l0.01,0.103h0.101
					c0.259,0,0.524,0,0.784,0c0.236,0,0.468,0,0.697,0c0.035,0.282,0.094,0.558,0.166,0.837c-0.22,0-0.441,0-0.658,0
					c-0.262,0-0.524,0-0.789,0h-0.155l0.065,0.144c0.32,0.729,0.701,1.43,1.009,2.164c0.276,0.662,0.518,1.343,0.766,2.02
					C263.472,67.009,263.208,67.009,262.943,67.009z"/>
				<path fill="#FFFFFF" d="M338.701,67.699h0.801h0.164c0.321,0,0.648,0,0.974,0h0.063l0.029-0.063
					c0.279-0.721,0.527-1.446,0.809-2.166c0.283-0.715,0.627-1.412,0.985-2.097c0.242,0,0.485,0,0.729,0h0.369h0.414h0.069
					l0.026-0.067c0.139-0.326,0.262-0.671,0.336-1.022c0.064-0.339,0.078-0.684,0.085-1.024v-0.103h-0.103c-0.263,0-0.521,0-0.787,0
					h-0.041h-0.653c-0.033-0.524-0.106-1.041-0.199-1.56l-0.017-0.08h-0.084c-0.328,0-0.646,0-0.971,0c-0.32,0-0.646,0-0.97,0
					h-0.126l0.027,0.122c0.092,0.501,0.16,1.01,0.191,1.518c-0.228,0-0.449,0-0.68,0H339.5h-0.143h-0.107v0.098
					c-0.004,0.333-0.024,0.666-0.08,0.989c-0.066,0.343-0.188,0.671-0.319,0.99l-0.06,0.139h0.156h0.553h0.229
					c0.208,0,0.415,0,0.621,0c-0.311,0.59-0.6,1.188-0.852,1.81l-0.09,0.212c-0.277,0.721-0.535,1.446-0.812,2.167l-0.054,0.138
					H338.701z M340.265,64.99c0.313-0.734,0.688-1.436,1.011-2.164l0.06-0.144h-0.151c-0.265,0-0.526,0-0.787,0
					c-0.226,0-0.438,0-0.657,0c0.069-0.279,0.125-0.555,0.158-0.837c0.234,0,0.471,0,0.702,0c0.265,0,0.524,0,0.789,0h0.095
					l0.006-0.103c0.012-0.511-0.014-1.025-0.076-1.537c0.265,0,0.53,0,0.797,0c0.065,0.508,0.097,1.023,0.08,1.535v0.104h0.099
					c0.271,0,0.53,0,0.791,0h0.446h0.229c-0.037,0.282-0.091,0.563-0.166,0.837h-0.063h-0.652c-0.26,0-0.521,0-0.786,0h-0.069
					l-0.021,0.065c-0.325,0.725-0.701,1.425-1.014,2.166c-0.293,0.684-0.537,1.391-0.791,2.096c-0.266,0-0.529,0-0.789,0
					C339.748,66.333,339.987,65.652,340.265,64.99z"/>
				<path fill="#FFFFFF" d="M311.985,89.947c-1.31-0.699-2.385-1.696-3.231-2.883c-0.262-0.358-0.494-0.73-0.705-1.125
					c-0.971-1.771-1.473-3.823-1.473-5.844c0-2.017,0.502-4.072,1.473-5.847c0.211-0.386,0.443-0.766,0.705-1.121
					c0.848-1.182,1.924-2.184,3.231-2.884c0.261-0.136,0.521-0.264,0.789-0.375l0.153-0.061L312.81,69.7
					c-0.271-0.242-0.542-0.464-0.824-0.688c-0.662-0.513-1.363-0.974-2.095-1.377l-0.06-0.035l-0.049,0.044
					c-0.373,0.268-0.711,0.573-1.029,0.903c-0.252,0.266-0.479,0.541-0.705,0.833c-0.745,0.979-1.323,2.094-1.76,3.193
					c-0.605,1.536-0.99,3.164-1.184,4.816c-0.105,0.896-0.161,1.807-0.161,2.705c0,0.896,0.056,1.803,0.161,2.705
					c0.193,1.653,0.577,3.286,1.184,4.816c0.437,1.102,1.015,2.218,1.76,3.195c0.226,0.285,0.453,0.563,0.705,0.826
					c0.318,0.336,0.656,0.643,1.029,0.913l0.049,0.035l0.06-0.024c0.731-0.408,1.433-0.873,2.095-1.387
					c0.282-0.219,0.555-0.445,0.824-0.686l0.119-0.108l-0.154-0.06C312.505,90.211,312.246,90.084,311.985,89.947z"/>
				<path fill="#FFFFFF" d="M305.105,88.584c-0.896-2.779-1.261-5.828-1.261-8.488c0-2.664,0.364-5.709,1.261-8.493
					c0.572-1.802,1.374-3.492,2.438-4.892l0.086-0.115l-0.131-0.047c-0.783-0.282-1.582-0.505-2.393-0.668
					c-0.493-0.105-0.992-0.18-1.493-0.236c-0.376-0.044-0.751-0.071-1.126-0.089l-0.107-0.008v29.099l0.107-0.008
					c0.375-0.021,0.75-0.05,1.126-0.095c0.501-0.056,1-0.136,1.493-0.233c0.811-0.162,1.609-0.386,2.393-0.67l0.131-0.047
					l-0.086-0.111C306.479,92.085,305.678,90.391,305.105,88.584z"/>
				<path fill="#FFFFFF" d="M262.923,95.71L262.923,95.71l-0.146-0.172l-0.003,0.003c-0.356-0.385-0.771-0.693-1.216-0.928
					c-0.541-0.273-1.129-0.436-1.745-0.467c-1.165-0.056-2.312,0.383-3.153,1.181l-0.047,0.038
					c-0.707,0.689-1.177,1.588-1.334,2.563c-0.031,0.19-0.051,0.375-0.063,0.563c-0.049,1.158,0.336,2.32,1.082,3.203l-0.004,0.002
					l0.103,0.115c1.044,1.156,2.606,1.685,4.129,1.342c0.361-0.076,0.71-0.203,1.032-0.368c0.365-0.188,0.699-0.427,1.001-0.707
					l0.006-0.011l0.083-0.068l-0.005-0.003c0.497-0.49,0.868-1.073,1.093-1.722c0.149-0.438,0.242-0.896,0.26-1.365
					c0.031-0.602-0.063-1.204-0.26-1.773C263.546,96.613,263.279,96.131,262.923,95.71z M262.037,101.402l-0.064,0.06
					c-0.129,0.118-0.271,0.231-0.414,0.331c-0.365,0.247-0.773,0.43-1.202,0.518c-1.222,0.272-2.46-0.137-3.304-1.039l0.004-0.004
					l-0.073-0.074l-0.024-0.035c-0.623-0.719-0.943-1.678-0.905-2.627c0.012-0.152,0.024-0.307,0.053-0.455
					c0.132-0.795,0.509-1.528,1.089-2.084l0.047-0.04c0.682-0.634,1.598-0.981,2.525-0.938c0.65,0.027,1.266,0.238,1.792,0.596
					c0.239,0.162,0.462,0.357,0.659,0.584l0.086,0.104h0.003c0.595,0.71,0.894,1.644,0.854,2.573
					C263.119,99.824,262.731,100.73,262.037,101.402z"/>
				<path fill="#FFFFFF" d="M340.606,90.962l0.022-0.004c0.182-0.006,0.359-0.028,0.541-0.06c0.936-0.168,1.783-0.637,2.427-1.336
					l0.009,0.006l0.02-0.028l0.067-0.087c0.778-0.893,1.177-2.077,1.126-3.256c-0.053-1.088-0.471-2.113-1.193-2.912
					c-0.067-0.082-0.147-0.153-0.221-0.229l-0.044-0.041c-0.844-0.783-1.985-1.215-3.134-1.156
					c-0.247,0.006-0.489,0.039-0.725,0.092c-0.894,0.201-1.701,0.677-2.313,1.375l-0.078,0.076l0.004,0.002
					c-0.495,0.593-0.831,1.293-0.983,2.049c-0.316,1.54,0.146,3.15,1.27,4.259h-0.005l0.09,0.074
					c0.563,0.536,1.267,0.901,2.019,1.073C339.862,90.943,340.231,90.977,340.606,90.962z M337.96,89.061v0.008
					c-0.898-0.895-1.268-2.198-1.017-3.437c0.128-0.603,0.396-1.165,0.786-1.639l0.01,0.014l0.073-0.108
					c0.448-0.508,1.039-0.879,1.688-1.06c0.244-0.065,0.498-0.108,0.763-0.128c0.924-0.036,1.84,0.307,2.521,0.932v0.006
					l0.057,0.052c0.33,0.313,0.596,0.685,0.783,1.089c0.213,0.451,0.334,0.943,0.35,1.447c0.033,0.617-0.09,1.232-0.35,1.787
					c-0.148,0.309-0.332,0.601-0.557,0.858l-0.045,0.048c-0.521,0.586-1.223,0.98-1.996,1.117c-0.145,0.027-0.292,0.043-0.441,0.051
					l-0.043,0.002c-0.355,0.01-0.703-0.033-1.041-0.129c-0.545-0.154-1.049-0.434-1.461-0.824L337.96,89.061z"/>
				<path fill="#FFFFFF" d="M334.423,93.055l-0.016,0.012c-0.783-0.705-1.811-1.112-2.875-1.112c-0.066,0-0.129,0-0.195,0.006
					h-0.041v0.004c-0.172,0.009-0.334,0.028-0.506,0.058c-0.973,0.172-1.834,0.664-2.492,1.4l-0.034,0.047
					c-0.775,0.891-1.169,2.07-1.123,3.25c0.007,0.184,0.03,0.375,0.062,0.564c0.162,0.986,0.639,1.896,1.367,2.589l0.01,0.01l0,0
					c0.688,0.644,1.547,1.05,2.48,1.159c0.158,0.012,0.316,0.021,0.473,0.021c0.063,0,0.123,0,0.188,0
					c1.185-0.056,2.283-0.592,3.064-1.485l0.006-0.013c0.629-0.719,1.019-1.612,1.113-2.563c0.02-0.225,0.03-0.456,0.02-0.684
					c-0.049-1.203-0.551-2.342-1.422-3.17L334.423,93.055z M335.069,96.908c-0.079,0.768-0.389,1.488-0.887,2.07L334.162,99
					c-0.636,0.721-1.521,1.158-2.483,1.2c-0.05,0.002-0.099,0.002-0.146,0.002c-0.125,0-0.253-0.009-0.386-0.021
					c-0.739-0.084-1.426-0.396-1.972-0.912l0,0l-0.041-0.029c-0.594-0.565-0.975-1.301-1.105-2.104
					c-0.025-0.15-0.041-0.304-0.049-0.457c-0.043-0.951,0.281-1.91,0.896-2.634l0.043-0.048c0.535-0.59,1.229-0.99,2.009-1.133
					c0.136-0.014,0.272-0.032,0.407-0.043h0.035c0.051-0.004,0.11-0.004,0.16-0.004c0.881,0,1.739,0.346,2.387,0.949l0.01,0.014
					c0.713,0.674,1.117,1.596,1.158,2.574C335.089,96.54,335.087,96.725,335.069,96.908z"/>
				<path fill="#FFFFFF" d="M351.189,98.301c-0.018-0.311-0.046-0.619-0.096-0.93c-0.281-1.702-1.092-3.26-2.336-4.454l-0.103-0.101
					l-0.004,0.004c-0.269-0.248-0.56-0.477-0.856-0.684c-0.111-0.07-0.213-0.146-0.322-0.212c-0.372-0.222-0.756-0.415-1.155-0.573
					c1.171-1.496,1.761-3.404,1.679-5.303c-0.092-2.033-0.926-3.958-2.389-5.377l0.003-0.005l-0.11-0.097
					c-0.551-0.523-1.189-0.952-1.875-1.285c-1.098-0.521-2.314-0.789-3.543-0.729c-0.195,0.01-0.389,0.025-0.58,0.051
					c-1.806,0.229-3.448,1.115-4.66,2.49l0,0l-0.088,0.086l0.004,0.006c-0.364,0.43-0.687,0.892-0.953,1.389
					c-0.088,0.164-0.172,0.334-0.249,0.509c-0.31,0.694-0.521,1.429-0.624,2.181c-0.271-0.158-0.521-0.349-0.74-0.58
					c-0.293-0.309-0.513-0.672-0.658-1.064l-0.017-0.063l0.017-0.063c0.029-0.07,0.045-0.135,0.063-0.199
					c0.03-0.128,0.06-0.261,0.082-0.396c0.071-0.448,0.058-0.939-0.146-1.346c-0.072-0.154-0.173-0.299-0.307-0.418l-0.039-0.039
					c-0.587-0.513-1.436-0.402-2.104-0.133c-0.322,0.129-0.635,0.301-0.924,0.492l-4.619-4.365l0.887-10.895
					c0.311-0.23,0.621-0.46,0.934-0.688c1.309-0.966,2.631-1.905,3.993-2.801c0.717-0.467,1.442-0.931,2.179-1.362
					c0.441-0.252,0.889-0.495,1.34-0.726c0.61-0.307,1.269-0.611,1.93-0.792c0.025,0.01,0.056,0.019,0.089,0.022
					c0.891,0.119,3.017,0.415,2.854,1.704c-0.105,0.823-0.924,1.988-1.383,2.688c-1.098,1.669-2.662,3.911-1.468,5.93
					c-0.054,0.084-0.093,0.171-0.128,0.262c-0.148,0.381,0.031,0.833,0.415,0.987c0.038,0.017,0.083,0.029,0.124,0.038
					c0.081,0.767,0.316,1.423,0.607,2.136c0.457,1.104,0.639,1.816,0.346,3.006c-0.045,0.224,0.082,0.463,0.31,0.521
					c0.229,0.056,0.46-0.09,0.505-0.315c0.344-1.404,0.145-2.244-0.389-3.547c-0.305-0.747-0.53-1.39-0.571-2.204
					c0.009-0.02,0.021-0.04,0.026-0.061c0.027-0.082,0.09-0.144,0.158-0.189c0.037,0.946,0.283,1.675,0.64,2.552
					c0.458,1.106,0.638,1.816,0.353,3.008c-0.054,0.223,0.078,0.463,0.301,0.52c0.231,0.063,0.457-0.089,0.514-0.314
					c0.338-1.406,0.146-2.239-0.393-3.547c-0.342-0.829-0.567-1.505-0.578-2.408c0.115-0.01,0.234-0.01,0.353-0.01
					c0.021,0.985,0.265,1.728,0.638,2.634c0.455,1.106,0.639,1.814,0.35,3.01c-0.057,0.22,0.078,0.46,0.307,0.522
					c0.23,0.056,0.45-0.088,0.51-0.317c0.338-1.404,0.15-2.242-0.391-3.547c-0.318-0.774-0.549-1.428-0.574-2.262
					c0.106,0.007,0.215,0.016,0.322,0.026c0.014,1.006,0.262,1.764,0.643,2.689c0.076,0.196,0.15,0.378,0.215,0.554
					c0.291,0.817,0.373,1.468,0.132,2.454c-0.052,0.224,0.075,0.463,0.307,0.521c0.229,0.062,0.456-0.09,0.513-0.315
					c0.338-1.406,0.144-2.239-0.396-3.547c-0.286-0.692-0.491-1.285-0.556-1.999c-0.01-0.102-0.021-0.196-0.021-0.287h0.021
					l0.3,0.018c0.007,1.045,0.256,1.808,0.649,2.771c0.455,1.105,0.639,1.811,0.344,3.005c-0.051,0.224,0.084,0.46,0.311,0.519
					c0.223,0.064,0.452-0.082,0.506-0.314c0.342-1.402,0.146-2.242-0.392-3.55c-0.341-0.823-0.565-1.497-0.574-2.396
					c0.072,0.004,0.146,0.004,0.22,0.004c0.053,0.891,0.295,1.604,0.633,2.42c0.455,1.105,0.638,1.814,0.35,3.006
					c-0.055,0.228,0.074,0.463,0.307,0.521c0.229,0.063,0.454-0.085,0.506-0.31c0.338-1.409,0.147-2.247-0.392-3.557
					c-0.293-0.711-0.517-1.348-0.563-2.125c0.097-0.012,0.195-0.024,0.289-0.042c0.07,0.814,0.313,1.494,0.619,2.245
					c0.459,1.109,0.637,1.818,0.35,3.009c-0.055,0.228,0.084,0.464,0.311,0.521c0.127,0.037,0.256,0,0.354-0.075
					c0.076-0.06,0.132-0.14,0.154-0.236c0.284-1.174,0.189-1.947-0.154-2.933c-0.067-0.198-0.147-0.399-0.236-0.618
					c-0.297-0.72-0.523-1.356-0.57-2.14c0.063-0.026,0.121-0.049,0.18-0.077c0.095,0.716,0.322,1.339,0.595,2.01l0.034,0.073
					c0.43,1.063,0.601,1.763,0.316,2.931c-0.052,0.229,0.076,0.461,0.307,0.519c0.229,0.063,0.455-0.086,0.511-0.308
					c0.337-1.404,0.144-2.243-0.396-3.549c-0.313-0.773-0.543-1.429-0.574-2.269c0.176-0.189,0.314-0.407,0.425-0.646
					c0.171-0.37,0.022-0.825-0.349-1.011c-0.076-0.04-0.156-0.063-0.24-0.069c-0.1-0.013-0.201,0-0.297,0.029
					c-0.055-0.48,0.078-0.962,0.297-1.417c0.25-0.523,0.601-1.012,0.898-1.444c0.461-0.647,0.916-1.307,1.233-2.041
					c1.131-2.6-0.353-4.828-2.134-6.645l-0.027-0.03c-0.051-0.057-0.107-0.101-0.182-0.128c-1.271-0.453-2.604-0.651-3.914-0.439
					c-0.342,0.055-0.678,0.14-1.014,0.249c-1.505,0.508-2.728,1.539-3.729,2.749c-0.778,0.177-1.548,0.52-2.257,0.879
					c-0.323,0.162-0.647,0.338-0.971,0.521l-0.127,0.07c-2.015,0.052-6.511,0.015-6.511,0.015l0.388-4.712h-15.924
					c-0.189-0.357-0.363-0.722-0.523-1.093l9.522-9.022l3.945,4.483c0.007,0.01,0.007,0.019,0.017,0.025
					c0.159,0.18,0.424,0.188,0.598,0.029l0.822-0.776l0.791-0.75c0.178-0.16,0.418-0.24,0.659-0.228
					c0.052,0.005,0.097,0.007,0.146,0.02h0.024c0.181,0.045,0.353,0.145,0.481,0.288l0.039,0.047c0.158,0.195,0.24,0.444,0.224,0.69
					v0.019c-0.015,0.25-0.119,0.491-0.3,0.669l-0.444,0.421l-1.142,1.08l-0.006,0.002c-0.17,0.16-0.182,0.432-0.028,0.608
					l4.767,5.409l0.006,0.004c0.15,0.179,0.42,0.191,0.592,0.029l6.617-6.269c0.174-0.164,0.186-0.434,0.031-0.612l-4.664-5.288
					l-0.104-0.122c-0.155-0.176-0.427-0.188-0.595-0.03l-1.807,1.71l-0.025,0.026c-0.18,0.162-0.424,0.241-0.666,0.23h-0.02
					c-0.242-0.013-0.462-0.125-0.629-0.304l-0.008-0.01l-0.064-0.083c-0.133-0.185-0.201-0.418-0.195-0.645
					c0.019-0.256,0.115-0.502,0.304-0.681l1.812-1.728c0.17-0.152,0.184-0.429,0.031-0.604l-1.646-1.869l-0.016-0.016
					c-0.164-0.191-0.248-0.45-0.234-0.709c0.012-0.252,0.111-0.495,0.293-0.678l0.097-0.082c0.169-0.128,0.374-0.196,0.591-0.196
					l0.02,0.004c0.246,0.013,0.477,0.119,0.647,0.293l1.669,1.893v0.005c0.141,0.163,0.383,0.189,0.549,0.064
					c0.02-0.009,0.029-0.022,0.047-0.039l1.832-1.732c0.184-0.158,0.42-0.242,0.666-0.23c0.043,0,0.092,0.007,0.139,0.019
					c0.197,0.039,0.367,0.142,0.507,0.289l0.074,0.085c0.137,0.188,0.202,0.419,0.192,0.652v0.023
					c-0.014,0.243-0.115,0.481-0.295,0.651l-0.015,0.02l-1.802,1.702l-0.008,0.007c-0.168,0.16-0.176,0.431-0.022,0.606l4.763,5.406
					l0.004,0.01c0.148,0.176,0.422,0.191,0.598,0.029l6.76-6.416c0.172-0.156,0.189-0.428,0.033-0.607l-4.77-5.413
					c-0.152-0.174-0.423-0.19-0.597-0.021l-0.138,0.129l-1.439,1.363l-0.074,0.054l0.008,0.008c-0.174,0.136-0.4,0.21-0.627,0.201
					h-0.018c-0.236-0.02-0.447-0.125-0.616-0.289h0.009l-0.061-0.064c-0.159-0.189-0.241-0.444-0.229-0.693
					c0.01-0.258,0.113-0.501,0.297-0.688l1.668-1.581l-0.006-0.01c0.101-0.16,0.086-0.379-0.039-0.527l-3.978-4.508l0.726-0.686
					l0.08-0.067l-0.004-0.008c0.172-0.203,0.276-0.466,0.293-0.74c0.014-0.307-0.092-0.606-0.283-0.84h-0.006l-0.955-1.08
					l-0.004-0.013c-0.203-0.227-0.482-0.357-0.779-0.371c-0.284-0.014-0.573,0.083-0.791,0.273l-0.033,0.029l-25.033,23.717
					c-0.507-2.793-0.313-5.642,0.439-8.372l0.078-0.268h7.088c0.109,0,0.219-0.051,0.298-0.131c0.954-0.993,1.528-2.131,1.639-3.512
					c0.087-1.082-0.13-2.153-0.356-3.202c-0.129-0.575-0.407-1.648-0.166-2.196c0.043-0.098,0.048-0.2,0.021-0.298
					c-0.069-0.228-0.296-0.361-0.524-0.29c-0.24,0.078-0.461,0.211-0.655,0.379c0,0,0,0.007-0.007,0.01
					c-0.182-0.498-0.396-0.984-0.639-1.453c0.312-0.906,0.092-1.779-0.173-2.665c-0.097-0.339-0.336-1.016-0.141-1.336
					c0.106-0.187-0.021-0.385-0.203-0.456c-0.086-0.029-0.181-0.036-0.265-0.014c-0.012,0-0.023,0.007-0.032,0.01
					c-0.104,0.026-0.207,0.057-0.302,0.109c-0.021,0.003-0.031,0.013-0.049,0.02c-0.078-0.167-0.16-0.33-0.246-0.493v-0.385
					c0.201-0.871,0.013-1.697-0.199-2.54c-0.096-0.359-0.309-1.058-0.137-1.404l0.041-0.125c0-0.034-0.008-0.071-0.024-0.105
					c-0.054-0.173-0.249-0.255-0.418-0.21c-0.183,0.051-0.354,0.14-0.509,0.254c-0.026,0.024-0.055,0.042-0.084,0.066
					c-0.021,0.03-0.051,0.049-0.075,0.079l-0.007,0.003l-0.014,0.016c-0.131,0.132-0.238,0.287-0.314,0.454
					c-0.02,0.033-0.032,0.06-0.049,0.1c-0.088,0.204-0.137,0.418-0.141,0.631v0.008v0.052c0,0.073,0.004,0.149,0.026,0.217
					c-0.002,0.005-0.009,0.005-0.015,0.011c-0.647-1.501-1.576-2.862-2.742-3.977c-0.229-0.22-0.459-0.425-0.704-0.626
					c-0.495-0.39-1.015-0.749-1.579-1.058c-0.338-0.189-0.693-0.361-1.053-0.509c-0.076-0.226-0.18-0.44-0.312-0.632
					c-0.358-0.518-0.909-0.891-1.493-1.143c-0.184-0.077-0.373-0.148-0.558-0.195v-2.92h2.146V9.613h-2.146V7.386h-2.838v2.228
					h-2.089h-0.059v2.938h0.059h2.089v2.916c-0.195,0.058-0.4,0.132-0.595,0.215c-0.588,0.259-1.146,0.652-1.494,1.175
					c-0.113,0.175-0.2,0.364-0.268,0.564c-0.379,0.157-0.744,0.333-1.098,0.528c-0.563,0.31-1.088,0.668-1.577,1.064
					c-1.506,1.215-2.676,2.806-3.45,4.597c-0.003-0.006-0.007-0.006-0.01-0.011c0.007-0.039,0.018-0.078,0.021-0.115l0.004-0.102
					c0-0.458-0.186-0.919-0.508-1.245c-0.037-0.044-0.086-0.088-0.133-0.13c-0.082-0.063-0.166-0.12-0.258-0.17
					c-0.088-0.045-0.182-0.08-0.277-0.107l-0.033-0.019l-0.016,0.005c-0.064-0.012-0.141-0.005-0.207,0.02
					c-0.164,0.07-0.256,0.258-0.172,0.425c0.18,0.346-0.029,1.044-0.126,1.404c-0.217,0.845-0.403,1.669-0.202,2.542v0.387
					c-0.087,0.159-0.168,0.322-0.244,0.489c-0.123-0.061-0.248-0.106-0.377-0.138c-0.188-0.04-0.42,0.025-0.49,0.214
					c-0.035,0.086-0.024,0.176,0.021,0.255c0.188,0.316-0.05,0.998-0.146,1.336c-0.268,0.885-0.485,1.758-0.174,2.665
					c-0.242,0.469-0.455,0.956-0.644,1.453c-0.083-0.073-0.181-0.149-0.274-0.214c-0.115-0.069-0.234-0.123-0.357-0.169
					l-0.021-0.003l-0.107-0.036v0.016c-0.068-0.006-0.135,0.009-0.188,0.039c-0.215,0.096-0.306,0.357-0.21,0.567
					c0.239,0.548-0.037,1.622-0.164,2.196c-0.23,1.049-0.441,2.114-0.357,3.193c0.107,1.37,0.673,2.511,1.619,3.501
					c0.076,0.089,0.191,0.15,0.315,0.15h3.226h3.865l0.076,0.266c0.746,2.731,0.943,5.581,0.439,8.374l-25.063-23.739
					c-0.214-0.188-0.503-0.295-0.791-0.281c-0.303,0.013-0.581,0.144-0.782,0.371l-0.012,0.007l-1.001,1.142l0.003,0.004
					c-0.165,0.22-0.251,0.499-0.24,0.777c0.014,0.277,0.119,0.54,0.299,0.743l-0.01,0.011l0.082,0.065l0.723,0.685l-3.973,4.512
					c-0.144,0.156-0.144,0.406-0.009,0.568l1.61,1.534l0.037,0.029c0.172,0.182,0.27,0.417,0.277,0.664v0.006
					c0.01,0.25-0.066,0.502-0.227,0.693l-0.051,0.055c-0.156,0.166-0.369,0.274-0.604,0.291l-0.034,0.007
					c-0.244,0.009-0.48-0.074-0.666-0.23l-1.462-1.395l-0.144-0.13c-0.176-0.168-0.442-0.153-0.596,0.021l-4.764,5.413
					c-0.156,0.179-0.148,0.451,0.025,0.607l6.765,6.416c0.173,0.162,0.438,0.147,0.595-0.032l4.766-5.413
					c0.158-0.176,0.148-0.447-0.025-0.606l-1.794-1.705l-0.035-0.033c-0.173-0.172-0.271-0.405-0.28-0.648v-0.02
					c-0.014-0.229,0.051-0.462,0.192-0.655l0.056-0.064l0.006-0.006l0.006-0.009c0.129-0.147,0.308-0.25,0.506-0.289
					c0.053-0.009,0.1-0.019,0.145-0.019c0.243-0.012,0.477,0.064,0.655,0.221l1.841,1.741c0.016,0.017,0.026,0.03,0.043,0.039
					c0.174,0.125,0.413,0.099,0.551-0.064l1.648-1.872l0.029-0.025c0.164-0.175,0.395-0.28,0.642-0.293l0.021-0.004
					c0.229,0,0.457,0.081,0.638,0.234l0.062,0.063c0.174,0.172,0.269,0.413,0.283,0.658c0.01,0.257-0.068,0.509-0.23,0.7
					l-1.67,1.895c-0.149,0.175-0.144,0.452,0.025,0.604l1.807,1.712l0.033,0.033c0.174,0.175,0.27,0.414,0.278,0.664
					c0.007,0.252-0.073,0.507-0.233,0.704l-0.052,0.06c-0.163,0.16-0.38,0.265-0.614,0.278h-0.022
					c-0.24,0.011-0.476-0.068-0.66-0.234l-0.026-0.022l-1.801-1.71c-0.174-0.159-0.441-0.146-0.597,0.03l-4.769,5.411
					c-0.151,0.177-0.14,0.448,0.03,0.611l6.622,6.269c0.166,0.162,0.438,0.15,0.592-0.029l4.766-5.413
					c0.154-0.176,0.146-0.448-0.025-0.608l-1.576-1.494l-0.021-0.017c-0.176-0.169-0.274-0.399-0.29-0.642l-0.003-0.039
					c-0.012-0.246,0.063-0.495,0.216-0.683l0.055-0.064c0.134-0.144,0.306-0.239,0.503-0.278c0.039-0.013,0.09-0.015,0.135-0.02
					c0.252-0.012,0.488,0.068,0.674,0.234l0.785,0.749l0.817,0.772c0.177,0.159,0.445,0.151,0.599-0.025
					c0.01-0.01,0.013-0.019,0.025-0.032l3.941-4.48l9.521,9.022c-0.16,0.371-0.338,0.735-0.527,1.093H277.96l0.383,4.712
					c-0.641,0.02-4.979,0.023-6.512-0.015l-0.129-0.077c-0.313-0.176-0.638-0.352-0.965-0.514c-0.708-0.36-1.484-0.703-2.262-0.879
					c-0.996-1.21-2.223-2.241-3.723-2.749c-0.338-0.109-0.676-0.194-1.014-0.249c-0.725-0.12-1.453-0.113-2.178-0.004
					c-0.59,0.089-1.17,0.243-1.742,0.443c-0.074,0.027-0.135,0.071-0.182,0.132c-1.793,1.821-3.293,4.055-2.157,6.668
					c0.142,0.334,0.315,0.654,0.506,0.962c0.229,0.371,0.478,0.73,0.724,1.082c0.56,0.809,1.32,1.825,1.196,2.861
					c-0.175-0.058-0.368-0.045-0.536,0.04c-0.365,0.187-0.516,0.641-0.343,1.011c0.108,0.239,0.246,0.454,0.425,0.646
					c-0.035,0.84-0.264,1.496-0.578,2.269c-0.541,1.307-0.731,2.146-0.391,3.549c0.051,0.222,0.275,0.371,0.504,0.308
					c0.227-0.058,0.362-0.289,0.309-0.519c-0.287-1.193-0.103-1.901,0.352-3.004c0.275-0.671,0.504-1.294,0.593-2.01
					c0.058,0.028,0.12,0.051,0.181,0.077c-0.047,0.784-0.27,1.419-0.565,2.14c-0.537,1.308-0.735,2.145-0.394,3.552
					c0.059,0.225,0.281,0.372,0.51,0.311c0.224-0.057,0.359-0.293,0.306-0.521c-0.288-1.19-0.104-1.9,0.349-3.009
					c0.314-0.751,0.553-1.431,0.619-2.245c0.105,0.019,0.199,0.031,0.291,0.042c-0.041,0.777-0.27,1.414-0.563,2.125
					c-0.539,1.31-0.732,2.148-0.395,3.557c0.055,0.225,0.273,0.373,0.508,0.31c0.226-0.058,0.356-0.293,0.312-0.521
					c-0.253-1.015-0.153-1.68,0.165-2.542c0.054-0.144,0.113-0.302,0.182-0.465c0.336-0.816,0.578-1.53,0.631-2.42
					c0.078,0,0.148,0,0.219-0.004c-0.006,0.899-0.232,1.573-0.574,2.396c-0.206,0.508-0.364,0.943-0.456,1.37
					c-0.134,0.593-0.14,1.167,0,1.877c0.019,0.104,0.041,0.201,0.063,0.304c0.06,0.229,0.285,0.378,0.51,0.313
					c0.225-0.059,0.357-0.295,0.306-0.519c-0.287-1.195-0.104-1.9,0.351-3.005c0.396-0.963,0.64-1.726,0.645-2.771l0.305-0.018
					h0.018c0,0.1-0.008,0.196-0.018,0.292c-0.064,0.713-0.27,1.303-0.563,1.993c-0.529,1.309-0.725,2.141-0.387,3.547
					c0.055,0.227,0.283,0.377,0.506,0.314c0.232-0.057,0.359-0.297,0.303-0.52c-0.227-0.978-0.148-1.637,0.143-2.451
					c0.063-0.179,0.137-0.36,0.211-0.557c0.381-0.925,0.629-1.683,0.643-2.689c0.105-0.01,0.214-0.019,0.328-0.026
					c-0.033,0.834-0.26,1.488-0.575,2.262c-0.542,1.306-0.731,2.143-0.396,3.547c0.057,0.229,0.28,0.373,0.51,0.316
					c0.226-0.062,0.357-0.303,0.299-0.521c-0.28-1.196-0.098-1.904,0.354-3.01c0.377-0.906,0.618-1.649,0.643-2.634
					c0.119,0,0.23,0.003,0.348,0.013c-0.005,0.9-0.234,1.576-0.577,2.405c-0.534,1.309-0.729,2.141-0.396,3.55
					c0.059,0.227,0.289,0.373,0.521,0.313c0.226-0.057,0.354-0.297,0.298-0.52c-0.287-1.192-0.104-1.901,0.352-3.008
					c0.361-0.877,0.604-1.606,0.639-2.552c0.072,0.045,0.135,0.107,0.159,0.189c0.009,0.021,0.021,0.041,0.03,0.061
					c-0.043,0.814-0.262,1.458-0.571,2.204c-0.539,1.304-0.735,2.144-0.397,3.547c0.059,0.227,0.284,0.371,0.514,0.315
					c0.229-0.06,0.357-0.298,0.306-0.521c-0.292-1.189-0.106-1.902,0.353-3.006c0.291-0.713,0.524-1.37,0.608-2.136
					c0.037-0.009,0.082-0.021,0.116-0.038c0.391-0.154,0.564-0.606,0.421-0.983c-0.039-0.095-0.077-0.182-0.125-0.266
					c1.192-2.02-0.377-4.261-1.474-5.93c-0.461-0.7-1.277-1.866-1.385-2.688c-0.162-1.289,1.967-1.585,2.858-1.707
					c0.028,0,0.062-0.009,0.085-0.019c0.66,0.181,1.32,0.485,1.938,0.792c0.445,0.23,0.89,0.473,1.328,0.726
					c0.742,0.432,1.465,0.895,2.186,1.362c0.854,0.566,1.703,1.148,2.535,1.744c0.806,0.572,1.601,1.155,2.387,1.746l0.691,8.519
					l0.194,2.375l-0.194,0.182l-3.078,2.925l-1.344,1.261c-0.291-0.191-0.602-0.363-0.927-0.492
					c-0.684-0.273-1.542-0.385-2.13,0.157l-0.004,0.007h-0.006c-0.133,0.127-0.236,0.271-0.313,0.43
					c-0.193,0.408-0.207,0.894-0.14,1.342c0.017,0.137,0.048,0.27,0.081,0.396c0.023,0.065,0.042,0.129,0.059,0.199l0.023,0.063
					l-0.023,0.063c-0.141,0.395-0.355,0.757-0.652,1.064c-0.219,0.231-0.465,0.422-0.741,0.58c-0.104-0.752-0.312-1.485-0.618-2.181
					c-0.082-0.175-0.162-0.345-0.256-0.509c-0.281-0.518-0.613-1.008-1.004-1.448l-0.016-0.019v-0.002l-0.016-0.012
					c-1.215-1.375-2.855-2.262-4.658-2.49c-0.193-0.024-0.387-0.041-0.586-0.051c-0.529-0.021-1.064,0.01-1.592,0.103
					c-1.42,0.254-2.76,0.918-3.818,1.907h-0.007l-0.114,0.113l0,0c-1.453,1.416-2.291,3.34-2.377,5.369
					c-0.088,1.896,0.504,3.805,1.682,5.301c-0.399,0.16-0.795,0.354-1.155,0.574c-0.106,0.066-0.22,0.143-0.331,0.211
					c-0.316,0.225-0.624,0.467-0.909,0.729l-0.1,0.095l0.004,0.001c-1.22,1.185-2.017,2.729-2.293,4.41
					c-0.05,0.323-0.085,0.649-0.101,0.976c-0.088,2.039,0.603,4.094,1.959,5.639l0.088,0.103v-0.007
					c1.343,1.48,3.18,2.377,5.174,2.473c0.781,0.037,1.557-0.053,2.3-0.265c0.774-0.214,1.512-0.552,2.178-1.003
					c0.339-0.227,0.667-0.482,0.968-0.768l0.047-0.045c0.615-0.592,1.139-1.281,1.529-2.037c0.049-0.097,0.1-0.188,0.139-0.287
					c1.395,1.396,3.312,2.213,5.279,2.216c0.111,0,0.225-0.003,0.331-0.003c0.427-0.023,0.849-0.082,1.259-0.17
					c1.16-0.256,2.228-0.784,3.131-1.537c0.127-0.104,0.252-0.215,0.377-0.329l0.054-0.048c1.233-1.188,2.043-2.74,2.325-4.438
					c0.052-0.318,0.084-0.646,0.098-0.974c0.089-2.048-0.611-4.097-1.96-5.636l-0.045-0.055c-0.265-0.295-0.55-0.572-0.849-0.818
					c-0.648-0.537-1.383-0.959-2.18-1.252c-0.22-0.084-0.447-0.153-0.67-0.211c-0.033-0.008-0.064-0.019-0.099-0.025
					c0.177-0.266,0.386-0.512,0.631-0.721c0.33-0.279,0.715-0.479,1.138-0.594c0.366,0.17,0.77,0.297,1.18,0.319
					c0.056,0,0.104,0,0.162,0c0.09,0,0.18-0.009,0.27-0.024c0.245-0.047,0.473-0.144,0.667-0.297l0.012,0.01l0.078-0.086
					l0.022-0.026c0.562-0.562,0.52-1.449,0.326-2.158c-0.097-0.354-0.235-0.69-0.396-1.011l1.937-1.84l0.586-0.557l1.14,13.926
					c0.056,0.666,0.192,1.317,0.403,1.947c1.336,3.895,5.502,6.99,9.621,8.19c1.2,0.354,2.397,0.536,3.519,0.536h13.284h0.422
					c0.094,0,0.188,0,0.283,0c1.039-0.028,2.138-0.215,3.231-0.536c4.788-1.392,9.638-5.349,10.033-10.138l1.133-13.926l2.524,2.395
					c-0.125,0.24-0.231,0.492-0.315,0.754c-0.032,0.084-0.058,0.171-0.079,0.258c-0.16,0.576-0.211,1.273,0.079,1.816
					c0.052,0.106,0.119,0.211,0.208,0.304l-0.018,0.017l0.097,0.059l0.019,0.021c0.203,0.182,0.447,0.295,0.715,0.342
					c0.092,0.018,0.182,0.025,0.277,0.025c0.457,0.016,0.924-0.128,1.334-0.318c0.424,0.113,0.809,0.313,1.139,0.594
					c0.246,0.207,0.455,0.453,0.634,0.72c-0.039,0.008-0.065,0.019-0.095,0.026c-0.225,0.057-0.457,0.125-0.672,0.211
					c-1.18,0.431-2.22,1.148-3.043,2.088l-0.047,0.046c-0.197,0.229-0.382,0.473-0.548,0.723c-0.983,1.427-1.472,3.165-1.399,4.903
					l0.008,0.041c0.013,0.311,0.051,0.619,0.095,0.934c0.194,1.158,0.634,2.262,1.298,3.221c0.301,0.443,0.646,0.859,1.049,1.229
					l0.045,0.05c0.983,0.92,2.176,1.564,3.49,1.852c0.416,0.093,0.834,0.146,1.258,0.17c0.109,0,0.221,0.003,0.33,0.003
					c1.977-0.003,3.893-0.82,5.281-2.216c0.045,0.099,0.09,0.191,0.135,0.287c0.389,0.733,0.887,1.404,1.48,1.981l-0.016,0.015
					l0.115,0.082c0.303,0.285,0.629,0.545,0.973,0.771c1.211,0.817,2.652,1.272,4.123,1.272c0.115,0,0.229,0,0.345-0.006
					c1.997-0.096,3.829-0.992,5.169-2.463l0.007,0.008l0.077-0.101l0.029-0.034c1.336-1.541,2.039-3.584,1.945-5.617L351.189,98.301
					z M343.375,68.749c0.041-0.091,0.151-0.139,0.25-0.094l0.006,0.003c0.101,0.049,0.135,0.173,0.093,0.272
					c-0.034,0.064-0.063,0.128-0.099,0.182c-0.774,1.306-2.715,1.188-4.123,1.063l-0.446-0.03c-0.656-0.053-1.336-0.12-1.993-0.077
					c-0.544,0.032-1.21,0.155-1.428,0.723c-0.039,0.102-0.148,0.158-0.248,0.113c-0.1-0.039-0.15-0.16-0.114-0.259
					c0.04-0.118,0.099-0.228,0.172-0.327c0.033-0.019,0.058-0.037,0.082-0.065c0.746-0.742,2.597-0.519,3.558-0.441h0.002h0.016
					l0.402,0.034c1.25,0.105,3.226,0.231,3.801-0.958C343.328,68.847,343.35,68.802,343.375,68.749z M338.75,57.041
					c0.246-0.081,0.498-0.15,0.752-0.196c1.188-0.223,2.396-0.051,3.549,0.349c0.197,0.201,0.392,0.407,0.574,0.623
					c1.273,1.462,2.166,3.191,1.295,5.169c-0.121,0.275-0.27,0.539-0.426,0.796c-0.203,0.333-0.426,0.653-0.647,0.973l-0.222,0.319
					c-0.725,1.052-1.4,2.167-1.056,3.497c-0.409,0.658-2.14,0.532-3.067,0.454l-0.342-0.032h-0.021
					c-1.128-0.091-2.697-0.259-3.716,0.328c-0.5-1.498,0.854-3.406,1.638-4.599c0.558-0.85,1.386-2.037,1.517-3.058
					c0.211-1.695-1.468-2.281-2.822-2.542C336.582,58.205,337.568,57.443,338.75,57.041z M324.828,61.315l0.532,0.013
					c1.515,0.032,3.039,0.029,4.558,0.007c-1.56,0.978-3.072,2.032-4.558,3.119c-0.282,0.205-0.563,0.409-0.838,0.612
					L324.828,61.315z M267.85,70.904c-0.097,0.045-0.209-0.011-0.245-0.113c-0.227-0.568-0.891-0.691-1.428-0.723
					c-0.666-0.043-1.342,0.021-2,0.077l-0.441,0.03c-0.666,0.058-1.453,0.115-2.178,0.025c-0.878-0.115-1.66-0.449-2.043-1.271
					c-0.049-0.099-0.01-0.223,0.087-0.272c0.103-0.048,0.214-0.003,0.258,0.091c0.021,0.053,0.05,0.098,0.07,0.14
					c0.29,0.59,0.915,0.856,1.628,0.963c0.725,0.105,1.542,0.046,2.178-0.005l0.396-0.034h0.012h0.008l0,0
					c0.958-0.078,2.813-0.301,3.557,0.441c0.025,0.028,0.051,0.046,0.082,0.065c0.073,0.099,0.129,0.208,0.174,0.327
					C268,70.744,267.955,70.865,267.85,70.904z M264.662,61.666c0.125,1.021,0.957,2.206,1.516,3.058
					c0.779,1.193,2.138,3.101,1.635,4.599c-1.023-0.587-2.59-0.419-3.723-0.328h-0.016l-0.339,0.032
					c-0.586,0.048-1.487,0.117-2.178,0c-0.408-0.074-0.735-0.209-0.89-0.454c0.377-1.466-0.482-2.668-1.276-3.816
					c-0.397-0.564-0.795-1.137-1.073-1.773c-1.001-2.261,0.316-4.204,1.867-5.789c0.445-0.157,0.91-0.278,1.372-0.352
					c0.726-0.124,1.452-0.126,2.178,0.003c0.249,0.046,0.502,0.115,0.748,0.196c1.181,0.402,2.175,1.164,2.994,2.083
					C266.126,59.385,264.441,59.971,264.662,61.666z M276.417,63.405c-1.019-0.718-2.051-1.412-3.104-2.07
					c1.038,0.013,2.064,0.022,3.104,0.013c0.66-0.003,1.326-0.013,1.988-0.033l0.305,3.751
					C277.955,64.503,277.189,63.947,276.417,63.405z M337.474,35.206l-1.354,1.278l0.002,0.006c-0.31,0.329-0.484,0.761-0.511,1.21
					v0.011c-0.016,0.475,0.147,0.947,0.454,1.312l0.072,0.094l0.009-0.004c0.317,0.323,0.731,0.515,1.187,0.536
					c0.459,0.024,0.918-0.146,1.264-0.453l0.031-0.032l0.873-0.822l0.396-0.38l4.208,4.773l-6.148,5.825l-4.209-4.776l1.56-1.471
					v-0.009c0.291-0.297,0.469-0.696,0.514-1.112h0.003l0.004-0.115c0.025-0.47-0.133-0.941-0.435-1.307l-0.067-0.073
					c-0.248-0.269-0.576-0.457-0.936-0.534c-0.094-0.016-0.178-0.026-0.27-0.028c-0.468-0.025-0.924,0.137-1.271,0.448l-1.315,1.245
					l-0.214,0.202l-1.428-1.626l-0.009,0.006c-0.309-0.32-0.723-0.515-1.174-0.533c-0.012,0-0.025,0-0.035,0
					c-0.447-0.014-0.889,0.153-1.225,0.45l-0.111,0.103h0.011c-0.319,0.333-0.498,0.767-0.521,1.227
					c-0.017,0.455,0.125,0.91,0.412,1.271v0.005l1.422,1.617l-1.563,1.489l0,0c-0.312,0.331-0.491,0.764-0.509,1.217l-0.008,0.016
					c-0.012,0.464,0.141,0.937,0.44,1.297l0.058,0.065c0.316,0.345,0.752,0.549,1.219,0.574c0.463,0.016,0.923-0.146,1.263-0.453
					l0.036-0.033l1.495-1.413l0.44,0.506l3.756,4.268l-6,5.685l-4.203-4.773l0.275-0.252l1.066-1.02V50.72
					c0.316-0.33,0.494-0.768,0.516-1.225c0.018-0.459-0.129-0.914-0.414-1.275h0.006l-0.086-0.096
					c-0.254-0.274-0.58-0.466-0.945-0.539c-0.049-0.01-0.098-0.017-0.144-0.027c-0.045-0.005-0.087-0.005-0.127-0.005
					c-0.454-0.026-0.897,0.13-1.237,0.424l-0.002-0.007l-0.256,0.25l-1.078,1.021l-3.682-4.183l14.814-14.032L337.474,35.206z
					 M333.23,27.55c0.057-0.042,0.124-0.064,0.188-0.064c0.076,0.007,0.146,0.036,0.199,0.085l0.975,1.109
					c0.041,0.059,0.064,0.132,0.06,0.212c-0.001,0.069-0.026,0.146-0.075,0.202l-28.139,26.648h-2.973L333.23,27.55z
					 M308.412,55.743h-0.363h-0.369l0.369-0.341l0.14-0.134C308.259,55.424,308.337,55.584,308.412,55.743z M302.779,55.219
					l-0.552,0.524h-0.589h-0.631l-0.555-0.524c1.109-4.044,0.698-8.047-0.832-11.844c-0.187-0.462-0.388-0.917-0.607-1.367h5.205
					c-0.217,0.451-0.42,0.911-0.606,1.367C302.076,47.171,301.673,51.174,302.779,55.219z M296.037,42.007h2.092h0.035
					c0.617,1.25,1.111,2.53,1.459,3.848c0.758,2.824,0.854,5.767,0.131,8.7l-0.131-0.126l-1.494-1.408l-1.784-1.693
					C296.985,48.276,296.833,45.015,296.037,42.007z M303.612,45.855c0.353-1.311,0.843-2.598,1.46-3.848h0.033h2.096
					c-0.799,3.007-0.949,6.269-0.313,9.321l-1.783,1.69l-1.493,1.411l-0.132,0.126C302.757,51.622,302.854,48.683,303.612,45.855z
					 M311.264,25.985c0.012-0.006,0.021-0.01,0.028-0.02c0.297-0.257,0.379-0.737,0.379-1.118v-0.039v-0.022
					c0-0.173,0.021-0.364,0.109-0.514c0.055-0.081,0.129-0.151,0.204-0.211c0.046-0.038,0.086-0.071,0.134-0.097
					c0.127-0.088,0.178-0.251,0.102-0.389v-0.01l-0.006-0.016c-0.006-0.009,0,0.006-0.006-0.009l-0.006-0.01l-0.009-0.023
					c-0.012-0.038-0.024-0.082-0.024-0.126v-0.02c0.002-0.151,0.039-0.305,0.094-0.444c0.009-0.023,0.02-0.043,0.033-0.063
					c0.014-0.033,0.021-0.056,0.041-0.084c0.033,0.314,0.119,0.632,0.201,0.937c0.198,0.772,0.385,1.549,0.174,2.342h-0.728h-0.813
					C311.207,26.029,311.233,26.01,311.264,25.985z M298.914,11.687v-1.214h2.144V8.251h1.159v2.221h2.146v1.214h-2.146v3.62
					c-0.195-0.015-0.385-0.025-0.577-0.029h-0.005c-0.191,0-0.387,0.014-0.577,0.029v-3.62L298.914,11.687L298.914,11.687z
					 M299.623,16.624c0.61-0.339,1.371-0.479,2.012-0.479h0.005c0.627,0,1.378,0.135,1.974,0.46
					c0.219,0.114,0.412,0.251,0.588,0.423c-0.197-0.053-0.389-0.098-0.588-0.14c-0.648-0.129-1.31-0.206-1.974-0.206h-0.021
					c-0.673,0-1.345,0.075-1.996,0.206c-0.181,0.039-0.365,0.081-0.543,0.124C299.234,16.856,299.423,16.732,299.623,16.624z
					 M295.187,20.144c0.861-0.798,1.857-1.453,2.941-1.9c0.479-0.199,0.977-0.363,1.494-0.474c0.637-0.144,1.306-0.217,1.996-0.217
					h0.021c0.685,0,1.339,0.077,1.974,0.217c0.512,0.111,1.014,0.275,1.493,0.474c1.083,0.447,2.082,1.102,2.942,1.9
					c0.244,0.228,0.479,0.467,0.705,0.723c0.955,1.069,1.721,2.344,2.232,3.728c-0.006,0.061-0.006,0.125-0.006,0.192v0.096
					c0,0.176-0.023,0.485-0.145,0.607c-0.16-0.142-0.186-0.506-0.18-0.703l0,0c0-0.387-0.144-0.751-0.4-1.039
					c-0.043-0.048-0.086-0.096-0.129-0.138c0.002-0.044,0.014-0.089,0.018-0.126h0.002v-0.102c0-0.445-0.303-0.731-0.611-0.999
					c-0.08-0.063-0.322-0.264-0.33-0.371c0-0.177-0.164-0.301-0.326-0.305c-0.045-0.003-0.084,0.004-0.125,0.019
					c-0.125,0.038-0.229,0.143-0.236,0.287c-0.001,0.107-0.243,0.308-0.323,0.371c-0.054,0.049-0.097,0.094-0.146,0.139
					c-0.248,0.228-0.469,0.488-0.469,0.86c0,0.076,0.004,0.155,0.027,0.228c-0.104,0.09-0.191,0.194-0.266,0.309
					c-0.024,0.039-0.049,0.072-0.068,0.107c-0.129,0.23-0.199,0.487-0.199,0.744v0.062c0.004,0.249-0.074,0.512-0.314,0.622v0.004
					c-0.074,0.032-0.153,0.051-0.225,0.051c-0.074,0-0.15-0.019-0.22-0.051c-0.229-0.105-0.315-0.351-0.323-0.595
					C306,24.838,306,24.809,306,24.783c0-0.383-0.147-0.747-0.396-1.035c-0.043-0.048-0.088-0.096-0.137-0.138
					c0.016-0.073,0.023-0.15,0.023-0.228l0,0c0-0.336-0.169-0.573-0.385-0.791c-0.076-0.067-0.15-0.138-0.23-0.208
					c-0.076-0.063-0.326-0.264-0.326-0.371c-0.006-0.177-0.159-0.301-0.332-0.305c-0.18-0.003-0.35,0.122-0.35,0.305
					c-0.009,0.082-0.15,0.222-0.255,0.312l-0.073,0.06c-0.312,0.268-0.619,0.554-0.619,0.999c0,0.076,0.006,0.155,0.029,0.228
					c-0.105,0.09-0.191,0.194-0.264,0.309c-0.027,0.039-0.053,0.072-0.07,0.107c-0.129,0.23-0.197,0.483-0.197,0.743l-0.01,0.066
					l0.01,0.009c-0.01,0.272-0.164,0.48-0.42,0.581c-0.119,0.039-0.233,0.058-0.354,0.062l-0.006-0.004
					c-0.119,0.004-0.239-0.016-0.354-0.058c-0.291-0.101-0.47-0.328-0.47-0.642c0-0.383-0.144-0.747-0.396-1.035
					c-0.041-0.048-0.09-0.096-0.135-0.138c0.01-0.044,0.016-0.089,0.023-0.126h0.007v-0.102c0-0.445-0.313-0.731-0.626-0.999
					l-0.068-0.06c-0.104-0.089-0.248-0.228-0.252-0.307c-0.008-0.181-0.16-0.306-0.33-0.31c-0.181-0.003-0.349,0.122-0.357,0.305
					c0,0.107-0.249,0.308-0.328,0.371c-0.072,0.071-0.15,0.142-0.227,0.208c-0.211,0.218-0.387,0.454-0.387,0.791
					c0,0.076,0.01,0.155,0.031,0.228c-0.104,0.09-0.195,0.194-0.27,0.309c-0.023,0.039-0.047,0.072-0.073,0.107
					c-0.13,0.234-0.191,0.489-0.191,0.761v0.042l0.005,0.034c-0.005,0.24-0.093,0.489-0.328,0.601
					c-0.066,0.026-0.141,0.045-0.217,0.045c-0.072,0-0.146-0.02-0.211-0.051c-0.246-0.111-0.33-0.377-0.328-0.629v-0.007v-0.003
					v-0.026v-0.006c0-0.387-0.146-0.751-0.398-1.039c-0.041-0.048-0.086-0.096-0.135-0.138c0.014-0.044,0.02-0.089,0.023-0.126
					h0.006v-0.102c0-0.373-0.217-0.633-0.47-0.86c-0.048-0.045-0.103-0.089-0.146-0.139c-0.078-0.063-0.324-0.264-0.328-0.367
					c-0.006-0.181-0.162-0.306-0.334-0.31c-0.178-0.003-0.35,0.122-0.354,0.305c-0.001,0.107-0.249,0.308-0.329,0.371
					c-0.299,0.268-0.611,0.554-0.611,0.999c0,0.076,0.01,0.155,0.021,0.228c-0.096,0.09-0.186,0.194-0.26,0.309
					c-0.024,0.039-0.049,0.072-0.067,0.107c-0.133,0.234-0.204,0.489-0.204,0.757v0.026c0,0.192-0.025,0.539-0.175,0.681
					c-0.128-0.132-0.149-0.473-0.149-0.636v-0.032v-0.01c0-0.01,0-0.019,0-0.019c0-0.074,0-0.137-0.004-0.198
					C292.88,22.889,293.896,21.349,295.187,20.144z M307.761,24.809v-0.051c0.005-0.154,0.047-0.303,0.121-0.441
					c0.017-0.025,0.031-0.047,0.043-0.071c0.035-0.054,0.08-0.102,0.123-0.147c0.049-0.053,0.102-0.098,0.162-0.134
					c0.129-0.088,0.179-0.261,0.105-0.405l-0.011-0.013l-0.005-0.006l-0.008-0.016l-0.006-0.017
					c-0.015-0.038-0.027-0.082-0.027-0.126c0-0.2,0.275-0.417,0.406-0.532l0.086-0.08c0.039-0.033,0.078-0.067,0.107-0.105
					c0.068,0.064,0.13,0.122,0.203,0.185c0.13,0.115,0.4,0.332,0.4,0.532l0,0c0,0.03-0.006,0.062-0.016,0.095l-0.002,0.019l0,0
					c-0.011,0.025-0.02,0.05-0.031,0.069c-0.088,0.148-0.025,0.321,0.111,0.406c0.032,0.025,0.066,0.049,0.096,0.074
					c0.039,0.032,0.066,0.063,0.1,0.095c0.148,0.182,0.244,0.403,0.244,0.642c-0.004,0.406,0.093,0.924,0.427,1.192
					c0.032,0.029,0.075,0.05,0.108,0.074h-3.494c0.013-0.006,0.037-0.013,0.053-0.024l0.015-0.006c0.468-0.226,0.691-0.69,0.691-1.2
					L307.761,24.809z M303.667,23.588V23.56l-0.022-0.013v-0.006l-0.011-0.01v-0.01l-0.004-0.013
					c-0.008-0.016-0.016-0.043-0.019-0.071c-0.002-0.017-0.003-0.035-0.003-0.055c0-0.017,0.001-0.037,0.003-0.052
					c0.041-0.182,0.271-0.374,0.399-0.479c0.064-0.063,0.129-0.121,0.197-0.185c0.06,0.064,0.129,0.122,0.191,0.185
					c0.139,0.115,0.404,0.332,0.404,0.532v0.024c0,0.021-0.008,0.044-0.014,0.071l-0.009,0.019v0.001
					c-0.004,0.023-0.017,0.049-0.026,0.068c-0.082,0.148-0.025,0.321,0.115,0.406c0.034,0.025,0.064,0.049,0.094,0.074
					c0.035,0.032,0.066,0.063,0.099,0.095c0.008,0.017,0.026,0.032,0.041,0.048c0.13,0.169,0.2,0.377,0.2,0.594
					c0,0.017,0,0.033,0,0.052c-0.008,0.019,0,0.022,0,0.038c0,0.502,0.236,0.944,0.707,1.156c0.015,0.01,0.031,0.018,0.045,0.02
					h-3.928c0.041-0.01,0.086-0.03,0.125-0.042c0.541-0.211,0.865-0.649,0.849-1.225v-0.005c0-0.159,0.043-0.323,0.124-0.46
					c0.009-0.025,0.021-0.044,0.042-0.071c0.073-0.111,0.173-0.21,0.286-0.282c0.021-0.017,0.039-0.036,0.057-0.05
					C303.696,23.824,303.718,23.7,303.667,23.588z M297.925,24.783c0-0.165,0.039-0.322,0.121-0.466
					c0.017-0.025,0.029-0.047,0.041-0.071c0.021-0.02,0.031-0.041,0.041-0.058c0.076-0.09,0.154-0.163,0.244-0.224
					c0.135-0.091,0.182-0.265,0.104-0.405l-0.006-0.004c-0.009-0.006-0.009-0.009-0.013-0.019l-0.004-0.006
					c0-0.01,0-0.01-0.002-0.023c-0.021-0.038-0.023-0.082-0.023-0.126c0-0.2,0.267-0.417,0.404-0.532
					c0.058-0.063,0.127-0.121,0.189-0.185c0.066,0.064,0.137,0.122,0.197,0.185c0.129,0.105,0.357,0.297,0.4,0.479
					c0.004,0.015,0.004,0.035,0.004,0.052v0.011l0,0c0,0.019-0.004,0.033-0.004,0.055v0.006l-0.018,0.042v0.012
					c-0.008,0.013-0.018,0.039-0.025,0.056c-0.064,0.12-0.043,0.254,0.043,0.35c0.018,0.019,0.043,0.043,0.067,0.054
					c0.035,0.022,0.067,0.052,0.097,0.077c0.034,0.032,0.071,0.063,0.094,0.095c0.156,0.182,0.248,0.403,0.248,0.646
					c0.004,0.591,0.356,1.031,0.908,1.23c0.033,0.008,0.066,0.022,0.104,0.032h-3.966c0.013-0.002,0.027-0.01,0.041-0.02
					c0.477-0.212,0.711-0.667,0.711-1.175v-0.014v-0.03V24.783z M293.815,23.56c-0.013-0.023,0.004,0.004-0.013-0.019v-0.01
					c0-0.01-0.012-0.01-0.012-0.016c-0.016-0.045-0.021-0.089-0.021-0.133c0-0.2,0.268-0.417,0.408-0.532
					c0.063-0.063,0.127-0.121,0.188-0.185c0.069,0.064,0.133,0.122,0.2,0.185c0.134,0.115,0.405,0.332,0.405,0.532V23.4l0,0
					c0,0.026-0.008,0.048-0.016,0.069l-0.012,0.038c-0.003,0.013-0.02,0.039-0.021,0.056c-0.086,0.145-0.027,0.318,0.109,0.4
					c0.035,0.026,0.064,0.056,0.102,0.081c0.013,0.019,0.039,0.038,0.053,0.052c0.014,0.011,0.023,0.032,0.044,0.043
					c0.153,0.18,0.24,0.4,0.241,0.642l-0.001,0.023v0.023c-0.003,0.51,0.224,0.978,0.706,1.196c0.015,0.011,0.035,0.018,0.054,0.024
					h-3.498c0.035-0.024,0.073-0.045,0.11-0.074c0.324-0.267,0.426-0.765,0.426-1.166l0.001-0.067c0-0.152,0.044-0.297,0.114-0.425
					c0.021-0.025,0.029-0.047,0.049-0.071c0.07-0.111,0.17-0.21,0.29-0.282C293.85,23.873,293.898,23.7,293.815,23.56z
					 M290.691,23.707c0.082-0.305,0.17-0.623,0.208-0.941c0.104,0.187,0.164,0.4,0.164,0.616v0.021
					c-0.005,0.024-0.005,0.046-0.01,0.067l-0.013,0.026v0.012c-0.01,0.017-0.017,0.039-0.025,0.058
					c-0.08,0.148-0.027,0.321,0.109,0.406c0.039,0.025,0.082,0.054,0.119,0.09c0.082,0.058,0.153,0.127,0.207,0.211
					c0.088,0.15,0.115,0.335,0.115,0.514c0,0.013,0.004,0,0.004,0.009l-0.004,0.043v0.004c-0.006,0.388,0.08,0.888,0.4,1.142
					c0.029,0.024,0.063,0.043,0.092,0.063h-1.535C290.313,25.256,290.494,24.479,290.691,23.707z M290.722,26.603h21.791
					c0.174,0.308,0.338,0.624,0.477,0.947c-0.188,0.27-0.303,0.595-0.303,0.93v0.098h0.006c0,0.039,0.006,0.071,0.02,0.102
					c-0.137,0.099-0.262,0.212-0.358,0.343c-0.117,0.17-0.185,0.354-0.214,0.55c-0.031-0.146-0.078-0.282-0.153-0.407
					c-0.015-0.029-0.028-0.051-0.048-0.08l-0.01-0.011c-0.018-0.033-0.045-0.062-0.067-0.093c-0.079-0.106-0.176-0.204-0.282-0.29
					c0.012-0.068,0.022-0.146,0.022-0.211c0-0.457-0.373-0.737-0.701-0.987c-0.067-0.051-0.353-0.259-0.36-0.344
					c-0.004-0.206-0.221-0.321-0.412-0.321c-0.176,0.003-0.381,0.124-0.383,0.325c-0.01,0.087-0.289,0.288-0.361,0.339
					c-0.239,0.183-0.504,0.384-0.629,0.654c-0.045,0.1-0.072,0.209-0.072,0.333v0.098h0.009c0,0.039,0.009,0.075,0.019,0.114
					c-0.047,0.038-0.094,0.079-0.142,0.125l-0.015,0.015c-0.268,0.268-0.436,0.613-0.438,0.998v0.009
					c0,0.153-0.016,0.39-0.066,0.584c-0.021,0.07-0.043,0.14-0.073,0.189c-0.116-0.194-0.144-0.524-0.151-0.729v-0.14l0,0
					c-0.019-0.236-0.1-0.454-0.229-0.647c-0.021-0.04-0.047-0.075-0.073-0.113c-0.08-0.106-0.18-0.204-0.289-0.29
					c0.019-0.068,0.03-0.146,0.03-0.211c0-0.457-0.377-0.737-0.704-0.987c-0.067-0.051-0.354-0.259-0.354-0.344
					c-0.016-0.206-0.227-0.321-0.416-0.321c-0.184,0.003-0.385,0.124-0.385,0.325c-0.01,0.067-0.191,0.213-0.298,0.293l-0.065,0.046
					c-0.326,0.25-0.699,0.53-0.699,0.987v0.098h0.004c0.008,0.039,0.013,0.075,0.023,0.114c-0.049,0.038-0.1,0.079-0.143,0.125
					l-0.018,0.015c-0.269,0.272-0.441,0.623-0.441,1.01l0.008,0.045c-0.008,0.168-0.016,0.396-0.068,0.581
					c-0.049-0.185-0.062-0.413-0.062-0.585v-0.14h-0.011c-0.004-0.063-0.012-0.125-0.021-0.178c-0.035-0.17-0.105-0.327-0.197-0.469
					c-0.024-0.04-0.049-0.075-0.07-0.113c-0.088-0.106-0.184-0.204-0.295-0.29c0.021-0.068,0.029-0.146,0.029-0.211
					c0-0.457-0.377-0.737-0.703-0.987c-0.068-0.051-0.357-0.259-0.357-0.344c-0.006-0.197-0.197-0.31-0.379-0.321h-0.032
					c-0.183,0.003-0.383,0.12-0.394,0.321c0,0.085-0.285,0.292-0.354,0.344c-0.323,0.25-0.702,0.53-0.702,0.987v0.011l0.004,0.008
					c0,0.063,0.004,0.13,0.025,0.192c-0.053,0.038-0.098,0.079-0.141,0.125c-0.008,0.005-0.01,0.007-0.016,0.015
					c-0.203,0.201-0.349,0.454-0.408,0.725c-0.023,0.094-0.033,0.19-0.033,0.285v0.045c0,0.168-0.012,0.396-0.063,0.581
					c-0.054-0.185-0.064-0.413-0.064-0.585v-0.14h-0.008c-0.019-0.236-0.095-0.454-0.223-0.647c-0.021-0.04-0.048-0.075-0.078-0.113
					c-0.078-0.106-0.178-0.204-0.287-0.29c0.02-0.068,0.025-0.146,0.025-0.211c0-0.457-0.371-0.737-0.702-0.987l-0.062-0.046
					c-0.104-0.082-0.293-0.23-0.293-0.298c-0.008-0.206-0.225-0.321-0.412-0.321c-0.184,0.003-0.379,0.12-0.393,0.321
					c-0.004,0.085-0.287,0.292-0.355,0.344c-0.325,0.25-0.701,0.53-0.701,0.987v0.098h0.007c0,0.039,0.011,0.075,0.021,0.114
					c-0.045,0.038-0.096,0.079-0.145,0.126c-0.006,0.004-0.009,0.006-0.01,0.014c-0.273,0.272-0.439,0.623-0.439,1.01l0.004,0.045
					c-0.004,0.198-0.035,0.536-0.145,0.728c-0.036-0.052-0.063-0.118-0.08-0.192c-0.052-0.178-0.064-0.396-0.07-0.541v-0.14l0,0
					c-0.023-0.236-0.097-0.454-0.227-0.647c-0.027-0.04-0.053-0.075-0.078-0.113c-0.08-0.106-0.178-0.204-0.283-0.29
					c0.016-0.068,0.024-0.146,0.024-0.211c0-0.457-0.375-0.737-0.703-0.987c-0.069-0.051-0.353-0.259-0.356-0.344
					c-0.013-0.206-0.224-0.321-0.414-0.321c-0.181,0.003-0.377,0.12-0.389,0.321c-0.003,0.085-0.286,0.292-0.355,0.344
					c-0.326,0.25-0.701,0.53-0.701,0.987v0.011V28.5c0,0.063,0.015,0.13,0.023,0.194c-0.048,0.036-0.096,0.078-0.139,0.123
					c-0.005,0.005-0.014,0.007-0.021,0.015c-0.098,0.102-0.177,0.214-0.252,0.335c-0.067,0.125-0.121,0.261-0.15,0.403
					c-0.03-0.198-0.098-0.376-0.217-0.546c-0.096-0.13-0.223-0.245-0.354-0.343c0.02-0.065,0.023-0.134,0.023-0.2v-0.104l0,0
					c-0.012-0.111-0.029-0.226-0.064-0.331c-0.025-0.093-0.061-0.181-0.104-0.265c-0.035-0.084-0.084-0.157-0.133-0.229
					C290.388,27.227,290.548,26.911,290.722,26.603z M289.36,28.807c0.089-0.286,0.185-0.576,0.222-0.873
					c0.021,0.029,0.041,0.064,0.059,0.102c0.027,0.052,0.054,0.11,0.064,0.167c0.025,0.078,0.035,0.153,0.041,0.232v0.045
					c0,0.035-0.006,0.073-0.016,0.104l-0.008,0.011l-0.01,0.02l-0.017,0.025c-0.104,0.157-0.03,0.339,0.119,0.428
					c0.136,0.081,0.278,0.172,0.37,0.297c0.1,0.139,0.127,0.314,0.127,0.477v0.103h0.002c0.006,0.366,0.064,0.887,0.286,1.164
					c0.12,0.154,0.289,0.241,0.487,0.241c0.057,0,0.107-0.002,0.156-0.019c0.135-0.032,0.248-0.112,0.336-0.223
					c0.221-0.276,0.276-0.798,0.281-1.164l0,0v-0.103c0-0.224,0.102-0.428,0.258-0.586c0.004-0.001,0.004-0.008,0.016-0.011
					c0.029-0.029,0.061-0.062,0.092-0.083l0.011-0.01c0.04-0.026,0.07-0.052,0.109-0.075h-0.007c0.166-0.087,0.25-0.27,0.141-0.437
					c-0.01-0.016-0.021-0.042-0.029-0.063l-0.006-0.013c-0.008-0.019-0.011-0.039-0.013-0.062l0.002-0.021
					c0-0.18,0.313-0.4,0.438-0.499c0.074-0.056,0.146-0.109,0.221-0.169c0.068,0.061,0.144,0.114,0.212,0.169
					c0.126,0.099,0.448,0.318,0.448,0.499c0,0.035-0.014,0.073-0.026,0.104l-0.006,0.031l-0.026,0.025
					c-0.104,0.157-0.025,0.339,0.127,0.428c0.117,0.07,0.23,0.163,0.314,0.275c0.016,0.02,0.029,0.039,0.045,0.063
					c0.076,0.115,0.122,0.253,0.132,0.397v0.083c0.007,0.421,0.104,0.974,0.433,1.271c0.123,0.104,0.276,0.173,0.439,0.192
					c0.023,0,0.051,0,0.08,0c0.189,0,0.365-0.066,0.512-0.192c0.319-0.279,0.413-0.801,0.43-1.213h0.004v-0.103
					c0-0.224,0.096-0.425,0.254-0.586c0-0.001,0.008-0.008,0.016-0.016c0.034-0.035,0.064-0.06,0.104-0.091
					c0.033-0.03,0.067-0.052,0.104-0.073c0.162-0.085,0.243-0.268,0.143-0.436c-0.016-0.016-0.023-0.042-0.035-0.063v-0.013
					c-0.01-0.019-0.015-0.042-0.019-0.063v-0.02c0-0.18,0.315-0.4,0.44-0.499c0.074-0.056,0.146-0.109,0.215-0.169
					c0.074,0.061,0.146,0.114,0.223,0.169c0.129,0.099,0.436,0.318,0.436,0.499c0,0.041-0.008,0.083-0.019,0.117l-0.015,0.026
					l-0.01,0.016c-0.102,0.144-0.043,0.311,0.082,0.406c0.016,0.009,0.022,0.016,0.035,0.021c0.121,0.07,0.229,0.163,0.313,0.275
					c0.017,0.02,0.032,0.039,0.049,0.063c0.076,0.115,0.123,0.253,0.13,0.397v0.083c0.01,0.396,0.082,0.954,0.368,1.248
					c0.136,0.143,0.312,0.215,0.502,0.215c0.029,0,0.063,0,0.097-0.002c0.155-0.021,0.289-0.094,0.407-0.213
					c0.272-0.278,0.351-0.798,0.359-1.19h0.005v-0.103c0-0.224,0.096-0.425,0.251-0.586c0,0,0.005-0.006,0.015-0.016
					c0.033-0.035,0.072-0.06,0.108-0.091c0.032-0.03,0.065-0.049,0.101-0.073c0.162-0.085,0.248-0.268,0.139-0.436
					c-0.014-0.016-0.022-0.042-0.032-0.063v-0.01c-0.011-0.022-0.015-0.045-0.015-0.067V28.48c0-0.18,0.311-0.4,0.438-0.499
					c0.075-0.056,0.146-0.109,0.22-0.169l0.021,0.018c0.063,0.049,0.127,0.104,0.192,0.152c0.125,0.099,0.443,0.318,0.443,0.499
					c0,0.041-0.01,0.075-0.025,0.117l-0.011,0.026l-0.012,0.016c-0.104,0.157-0.034,0.339,0.118,0.428
					c0.123,0.07,0.23,0.163,0.314,0.275c0.018,0.02,0.027,0.039,0.047,0.063c0.084,0.125,0.131,0.265,0.131,0.419v0.013v0.003
					c0,0.012,0,0.021,0.006,0.031c0,0.393,0.068,0.968,0.363,1.261c0.11,0.117,0.254,0.189,0.404,0.213
					c0.032,0.002,0.064,0.002,0.1,0.002c0.195,0,0.365-0.072,0.498-0.215c0.289-0.293,0.363-0.852,0.365-1.248V29.84
					c0-0.224,0.102-0.428,0.254-0.587l0.014-0.01c0.031-0.033,0.068-0.064,0.109-0.096c0.034-0.03,0.064-0.052,0.104-0.073
					l0.041-0.014l0.001-0.01l0.009-0.006c0.13-0.095,0.178-0.263,0.087-0.4c-0.013-0.021-0.024-0.048-0.036-0.069v-0.013
					c-0.008-0.019-0.014-0.042-0.015-0.062l0.001-0.021c0-0.18,0.313-0.4,0.438-0.499c0.076-0.056,0.15-0.109,0.219-0.169
					c0.066,0.061,0.143,0.114,0.215,0.169c0.132,0.099,0.445,0.318,0.445,0.499c0,0.035-0.011,0.073-0.021,0.107l-0.02,0.036
					l-0.011,0.016c-0.103,0.157-0.032,0.339,0.121,0.428c0.123,0.07,0.233,0.163,0.312,0.275c0.018,0.02,0.035,0.041,0.05,0.063
					c0.077,0.115,0.125,0.253,0.13,0.397v0.141h0.005c0.021,0.386,0.099,0.862,0.367,1.152c0.149,0.165,0.354,0.252,0.583,0.252
					c0.021,0,0.047,0,0.072,0c0.162-0.019,0.313-0.087,0.44-0.192c0.116-0.102,0.201-0.236,0.265-0.383
					c0.125-0.291,0.158-0.636,0.158-0.92v-0.006c0-0.23,0.104-0.434,0.26-0.593l0.017-0.01c0.028-0.029,0.062-0.062,0.088-0.083
					l0.013-0.01c0.039-0.026,0.071-0.055,0.111-0.076l0.041-0.02V29.05c0.13-0.1,0.184-0.263,0.096-0.406
					c-0.012-0.021-0.022-0.048-0.037-0.072l0,0v-0.004c-0.006-0.025-0.013-0.044-0.015-0.068v-0.02c0-0.18,0.315-0.4,0.446-0.499
					c0.07-0.056,0.14-0.109,0.211-0.169c0.068,0.061,0.143,0.114,0.215,0.169c0.129,0.099,0.441,0.318,0.441,0.499
					c0,0.035-0.002,0.073-0.021,0.107l-0.015,0.036l0,0l-0.01,0.016c-0.109,0.157-0.031,0.339,0.119,0.428
					c0.116,0.07,0.23,0.163,0.311,0.275c0.015,0.02,0.031,0.035,0.045,0.054V29.4c0.081,0.121,0.129,0.259,0.139,0.403v0.141l0,0
					c0.008,0.366,0.067,0.887,0.288,1.164c0.091,0.11,0.201,0.19,0.331,0.223c0.053,0.017,0.107,0.019,0.16,0.019
					c0.197,0,0.367-0.087,0.486-0.241c0.219-0.276,0.275-0.798,0.283-1.164h0.008v-0.103c0-0.163,0.021-0.338,0.125-0.477
					c0.086-0.125,0.231-0.216,0.363-0.297c0.152-0.085,0.229-0.269,0.127-0.422c-0.016-0.021-0.027-0.048-0.041-0.072l0,0V28.57
					c-0.004-0.025-0.011-0.047-0.011-0.069V28.48c0-0.199,0.062-0.39,0.164-0.549c0.041,0.296,0.138,0.59,0.22,0.876
					c0.284,0.949,0.516,1.858-0.027,2.766c-0.006,0.006-0.014,0.015-0.016,0.026h-24.424c0-0.011-0.006-0.02-0.01-0.026
					C288.85,30.665,289.076,29.756,289.36,28.807z M288.566,32.355l0.031-0.068h9.529h6.979h9.529l0.029,0.068
					c0.137,0.307,0.252,0.621,0.356,0.939c-0.071,0.125-0.138,0.253-0.194,0.386c-0.02,0.055-0.039,0.102-0.06,0.16
					c-0.104,0.291-0.161,0.607-0.177,0.916l0,0v0.109c0,0.123,0.016,0.243,0.043,0.365c-0.184,0.163-0.324,0.344-0.439,0.559
					c-0.204,0.377-0.266,0.801-0.266,1.227v0.105h0.002v0.002c0,0.273-0.027,0.836-0.223,1.036
					c-0.235-0.219-0.273-0.833-0.273-1.141l0,0c0-0.556-0.169-1.105-0.498-1.549c-0.066-0.08-0.127-0.157-0.199-0.232l0.004-0.007
					c0.016-0.09,0.028-0.176,0.033-0.259l0,0v-0.106c0-0.639-0.373-1.046-0.789-1.477l0,0c-0.13-0.133-0.438-0.431-0.443-0.618
					c-0.008-0.221-0.183-0.41-0.404-0.416c-0.237-0.006-0.426,0.182-0.436,0.416c-0.002,0.187-0.312,0.484-0.445,0.618
					c-0.412,0.431-0.787,0.838-0.787,1.477c0,0.124,0.013,0.253,0.043,0.372c-0.146,0.146-0.264,0.312-0.369,0.487
					c-0.025,0.05-0.055,0.106-0.079,0.163c-0.162,0.319-0.243,0.67-0.249,1.025h-0.01v0.209h0.01
					c-0.007,0.137-0.02,0.288-0.063,0.431c-0.063,0.227-0.182,0.431-0.387,0.546l-0.006,0.006c-0.087,0.048-0.193,0.077-0.293,0.077
					h-0.02c-0.096-0.003-0.189-0.028-0.27-0.073c-0.352-0.182-0.453-0.617-0.453-0.975c0.004-0.038,0.004-0.077,0.004-0.118v-0.104
					h-0.004c-0.019-0.52-0.188-1.025-0.502-1.443c-0.061-0.08-0.129-0.157-0.199-0.232l0.006-0.007
					c0.019-0.09,0.029-0.176,0.037-0.259h0.004v-0.106c0-0.639-0.379-1.046-0.795-1.477c-0.129-0.133-0.438-0.431-0.447-0.618
					c-0.006-0.197-0.137-0.369-0.323-0.407c-0.033-0.003-0.054-0.009-0.076-0.009c-0.235-0.006-0.429,0.185-0.437,0.416
					c-0.004,0.187-0.313,0.484-0.441,0.618c-0.201,0.209-0.393,0.41-0.539,0.634c-0.15,0.24-0.259,0.512-0.259,0.843
					c0,0.124,0.021,0.253,0.048,0.372c-0.141,0.146-0.268,0.312-0.365,0.487c-0.031,0.05-0.063,0.106-0.082,0.163
					c-0.156,0.319-0.242,0.67-0.252,1.025h-0.005v0.209c-0.012,0.403-0.194,0.753-0.577,0.926c-0.148,0.066-0.308,0.096-0.47,0.096
					h-0.012c-0.154,0-0.319-0.024-0.464-0.089c-0.432-0.179-0.637-0.582-0.637-1.038c0-0.556-0.177-1.103-0.506-1.546
					c-0.061-0.08-0.129-0.157-0.199-0.232v-0.014c0.024-0.083,0.035-0.17,0.039-0.252h0.002v-0.106c0-0.331-0.097-0.603-0.252-0.843
					c-0.145-0.224-0.334-0.425-0.543-0.634c-0.127-0.133-0.431-0.422-0.44-0.616c-0.003-0.223-0.179-0.412-0.408-0.417
					c-0.026,0-0.063,0-0.103,0.009c-0.184,0.044-0.321,0.21-0.326,0.407c-0.004,0.187-0.319,0.484-0.445,0.618
					c-0.422,0.431-0.792,0.838-0.792,1.477c0,0.124,0.015,0.253,0.046,0.372c-0.146,0.146-0.268,0.312-0.369,0.487
					c-0.029,0.05-0.051,0.106-0.08,0.163c-0.152,0.319-0.24,0.67-0.256,1.025l0,0v0.209l0,0v0.011c0,0.359-0.105,0.795-0.449,0.977
					c-0.08,0.048-0.174,0.07-0.27,0.073h-0.018c-0.102,0-0.205-0.024-0.289-0.077c-0.359-0.188-0.457-0.648-0.457-1.021v-0.067
					c0-0.556-0.172-1.103-0.504-1.546c-0.063-0.08-0.127-0.157-0.196-0.232l0.006-0.014c0.017-0.083,0.033-0.17,0.038-0.252h0.003
					v-0.106c0-0.639-0.372-1.046-0.794-1.477c-0.129-0.133-0.438-0.422-0.446-0.616c-0.002-0.223-0.182-0.412-0.407-0.417
					c-0.234-0.006-0.425,0.185-0.427,0.416c-0.009,0.187-0.323,0.484-0.45,0.618l0,0c-0.414,0.431-0.787,0.838-0.787,1.477
					c0,0.124,0.014,0.253,0.041,0.372c-0.142,0.146-0.265,0.312-0.367,0.487c-0.026,0.05-0.06,0.106-0.084,0.163
					c-0.153,0.319-0.234,0.67-0.25,1.025h-0.004v0.209c-0.004,0.31-0.054,0.838-0.27,1.038c-0.195-0.205-0.225-0.773-0.225-1.038
					V37.08v-0.028c0.004-0.005,0.004-0.016,0.004-0.035c0-0.426-0.059-0.85-0.262-1.227c-0.117-0.215-0.266-0.396-0.438-0.559
					v-0.006c0.02-0.083,0.029-0.17,0.035-0.252h0.003v-0.106c0-0.542-0.149-1.108-0.431-1.571
					C288.314,32.977,288.435,32.662,288.566,32.355z M288.197,41.139c-1.619-1.778-1.419-3.595-0.939-5.79
					c0.115-0.505,0.234-1.02,0.273-1.539c0.184,0.318,0.272,0.698,0.272,1.056v0.038c-0.005,0.043-0.005,0.081-0.017,0.119
					l-0.013,0.041v0.016c-0.01,0.032-0.026,0.067-0.039,0.103c-0.09,0.188-0.036,0.421,0.138,0.54
					c0.166,0.137,0.332,0.284,0.432,0.48c0.13,0.245,0.156,0.542,0.156,0.814c0,0.012,0,0.019,0,0.029V37.1v0.006
					c0,0.548,0.093,1.316,0.513,1.707c0.159,0.146,0.354,0.23,0.569,0.23c0.209-0.003,0.398-0.103,0.543-0.243
					c0.433-0.407,0.545-1.179,0.547-1.743v-0.078c0.004-0.244,0.062-0.489,0.166-0.71c0.023-0.038,0.039-0.072,0.056-0.102
					c0.104-0.179,0.229-0.335,0.39-0.458l0.002-0.003c0.154-0.124,0.205-0.347,0.114-0.529v0.006c-0.019-0.042,0,0-0.016-0.042
					l-0.009-0.018c0-0.004,0-0.014-0.004-0.021v-0.006c-0.027-0.077-0.033-0.153-0.033-0.23c0-0.325,0.326-0.647,0.535-0.866
					c0.095-0.093,0.19-0.188,0.283-0.288c0.08,0.1,0.174,0.195,0.269,0.288c0.211,0.218,0.542,0.541,0.542,0.866v0.038
					c0,0.043-0.006,0.081-0.02,0.119l-0.011,0.041v0.016c-0.011,0.032-0.024,0.067-0.043,0.103c-0.088,0.188-0.032,0.415,0.136,0.54
					h0.006c0.047,0.035,0.088,0.077,0.129,0.121c0.049,0.049,0.092,0.1,0.129,0.154c0.225,0.291,0.34,0.649,0.34,1.014v0.04v0.028
					c-0.01,0.71,0.24,1.438,0.898,1.793c0.207,0.111,0.434,0.169,0.672,0.169h0.021c0.227,0,0.453-0.058,0.648-0.166
					c0.652-0.342,0.912-1.059,0.908-1.754v-0.017l-0.002-0.048v-0.069c0.006-0.25,0.063-0.493,0.168-0.719
					c0.021-0.038,0.043-0.072,0.057-0.102c0.1-0.179,0.23-0.335,0.385-0.458c0.158-0.127,0.209-0.346,0.122-0.532v0.006
					c-0.019-0.042-0.005-0.006-0.015-0.042l-0.011-0.018c-0.006-0.019-0.006-0.007-0.006-0.007v-0.007l-0.003-0.013
					c-0.021-0.077-0.033-0.153-0.033-0.23c0-0.325,0.33-0.646,0.539-0.866c0.063-0.061,0.125-0.127,0.184-0.188l0.09-0.1
					c0.092,0.1,0.183,0.195,0.275,0.288c0.211,0.218,0.547,0.541,0.547,0.866v0.038c-0.006,0.043-0.013,0.081-0.021,0.119
					l-0.01,0.041v0.016c-0.014,0.032-0.028,0.067-0.041,0.103c-0.086,0.188-0.033,0.415,0.137,0.54l0,0
					c0.048,0.035,0.083,0.077,0.13,0.121c0.045,0.049,0.093,0.1,0.129,0.154c0.117,0.149,0.204,0.324,0.259,0.501
					c0.053,0.166,0.069,0.342,0.069,0.518c0.011,0.815,0.401,1.518,1.173,1.84c0.239,0.102,0.516,0.154,0.774,0.154h0.021
					c0.273-0.006,0.549-0.065,0.797-0.177c0.726-0.322,1.082-0.99,1.082-1.777v-0.083c0-0.158,0.027-0.322,0.074-0.475
					c0.021-0.076,0.055-0.154,0.088-0.23c0.02-0.038,0.041-0.072,0.059-0.102c0.101-0.179,0.232-0.335,0.383-0.458
					c0.16-0.121,0.211-0.346,0.123-0.526v-0.006c-0.016-0.036,0,0.006-0.014-0.036l-0.011-0.022v-0.007v-0.003l-0.007-0.013
					c-0.023-0.077-0.037-0.153-0.037-0.23c0-0.325,0.333-0.646,0.542-0.866c0.095-0.093,0.187-0.188,0.276-0.288
					c0.025,0.036,0.058,0.061,0.091,0.098c0.056,0.063,0.114,0.129,0.183,0.19c0.211,0.218,0.541,0.541,0.541,0.866v0.038
					c0,0.043-0.01,0.085-0.019,0.125l-0.005,0.035l-0.006,0.013c-0.008,0.032-0.024,0.064-0.043,0.106
					c-0.086,0.188-0.031,0.415,0.14,0.54c0.045,0.035,0.091,0.077,0.131,0.121c0.048,0.049,0.089,0.1,0.136,0.154
					c0.207,0.284,0.316,0.626,0.33,0.977v0.042c0,0.029,0,0.054,0,0.08c-0.002,0.016-0.002,0.028,0,0.038
					c0,0.698,0.254,1.406,0.9,1.742c0.201,0.108,0.425,0.166,0.654,0.166h0.021c0.235,0,0.468-0.058,0.675-0.169l0.01-0.01
					l0.019-0.006c0.633-0.358,0.878-1.077,0.876-1.777v-0.022l-0.007-0.083c0.009-0.245,0.067-0.484,0.173-0.706
					c0.018-0.038,0.036-0.072,0.057-0.102c0.098-0.179,0.228-0.335,0.383-0.458c0.156-0.121,0.211-0.346,0.123-0.526v-0.006
					c-0.01-0.014-0.013-0.025-0.013-0.036l-0.019-0.022v-0.007V35.11l-0.006-0.013c-0.021-0.077-0.033-0.153-0.033-0.23
					c0-0.325,0.335-0.647,0.545-0.866c0.092-0.093,0.186-0.188,0.271-0.288c0.088,0.1,0.176,0.195,0.271,0.288
					c0.217,0.218,0.545,0.541,0.545,0.866v0.038c0,0.045-0.009,0.085-0.019,0.125l-0.004,0.035l-0.006,0.009
					c-0.007,0.036-0.025,0.068-0.039,0.11c-0.084,0.182-0.041,0.399,0.114,0.523l0.021,0.017c0.049,0.035,0.092,0.077,0.133,0.121
					c0.049,0.049,0.089,0.1,0.13,0.154c0.219,0.291,0.334,0.649,0.334,1.019c-0.003,0.576,0.104,1.367,0.538,1.783
					c0.152,0.14,0.339,0.233,0.553,0.243c0.217,0,0.409-0.083,0.566-0.23c0.009-0.007,0.02-0.019,0.031-0.022
					c0.39-0.4,0.479-1.137,0.479-1.678v-0.055v-0.041c0-0.272,0.03-0.569,0.155-0.814c0.106-0.2,0.275-0.355,0.455-0.494
					c0.151-0.121,0.203-0.35,0.115-0.532l0,0c-0.019-0.036,0,0.006-0.016-0.036l-0.012-0.022v-0.007V35.11l-0.004-0.015
					c-0.024-0.075-0.035-0.151-0.035-0.229l-0.004-0.048c0.004-0.23,0.052-0.462,0.129-0.686c0.015-0.036,0.027-0.071,0.041-0.109
					c0.029-0.074,0.064-0.144,0.1-0.211c0.045,0.517,0.167,1.038,0.275,1.537c0.488,2.194,0.683,4.012-0.937,5.79H288.197z
					 M281.625,48.041l-1.053,1.198l-1.076-1.021l-0.271-0.261v0.006c-0.344-0.287-0.78-0.437-1.223-0.411
					c-0.088,0-0.182,0.015-0.272,0.032c-0.37,0.073-0.701,0.271-0.957,0.553l-0.026,0.029c-0.143,0.166-0.252,0.35-0.328,0.552
					c-0.094,0.246-0.14,0.512-0.127,0.776c0.01,0.211,0.051,0.417,0.127,0.607c0.09,0.243,0.229,0.46,0.414,0.646l0,0l1.31,1.246
					l-1.724,1.962l-2.476,2.811l-2.246-2.125l-3.756-3.56l3.756-4.268l0.442-0.506l1.494,1.41l0.072,0.083l0.01-0.012
					c0.336,0.284,0.774,0.434,1.216,0.415c0.479-0.022,0.923-0.24,1.239-0.591l0.043-0.045c0.076-0.096,0.146-0.201,0.203-0.309
					c0.162-0.3,0.248-0.642,0.229-0.988v-0.016l0,0c-0.011-0.297-0.088-0.581-0.229-0.833c-0.084-0.15-0.192-0.298-0.32-0.424
					l-0.028-0.036l-1.497-1.413l1.369-1.553l0.021-0.029c0.309-0.361,0.465-0.837,0.441-1.31c-0.02-0.482-0.222-0.939-0.563-1.278
					l-0.047-0.045c-0.346-0.303-0.787-0.47-1.242-0.456c-0.008,0-0.016,0-0.028,0c-0.446,0.019-0.86,0.213-1.174,0.527h-0.005
					l-1.434,1.626l-0.216-0.202l-1.351-1.284l-0.004,0.01c-0.342-0.292-0.778-0.444-1.227-0.418
					c-0.085,0.002-0.178,0.012-0.27,0.028c-0.363,0.077-0.688,0.265-0.937,0.537l-0.062,0.07c-0.313,0.362-0.469,0.837-0.444,1.307
					l0.007,0.115h0.001c0.044,0.431,0.229,0.834,0.534,1.138v0.003l1.536,1.451l-4.201,4.776l-1.547-1.466l-2.179-2.058
					l-2.424-2.301l2.424-2.753l1.775-2.021l0.402,0.38l0.869,0.822l0.007,0.009c0.349,0.32,0.817,0.5,1.286,0.476
					c0.467-0.021,0.89-0.226,1.216-0.567l0.01,0.002l0.05-0.061c0.303-0.357,0.463-0.836,0.443-1.312V37.7
					c-0.023-0.466-0.211-0.918-0.545-1.252l0,0l-1.313-1.242l3.683-4.183l2.256,2.14l4.722,4.468l3.077,2.917l2.13,2.019
					l2.629,2.489L281.625,48.041z M268.679,29.111l-0.016-0.015c-0.055-0.054-0.082-0.128-0.084-0.204
					c-0.004-0.081,0.019-0.157,0.068-0.221l0.951-1.083l0.023-0.025c0.053-0.046,0.117-0.071,0.188-0.078
					c0.073,0,0.147,0.022,0.2,0.068l29.754,28.189h-2.975L268.679,29.111z M295.553,55.743h-0.366h-0.366
					c0.076-0.159,0.151-0.319,0.226-0.476l0.142,0.134L295.553,55.743z M277.041,86.834l-0.002,0.006l-0.025,0.023
					c-0.088,0.076-0.195,0.117-0.305,0.136c-0.057,0.011-0.104,0.015-0.152,0.015c-0.049,0.004-0.092,0-0.139,0
					c-0.326-0.023-0.668-0.154-0.951-0.293l-0.137-0.072l-0.142,0.033c-0.603,0.139-1.146,0.404-1.626,0.807
					c-0.48,0.41-0.846,0.928-1.123,1.49l-0.254,0.519l0.561,0.099l0.016,0.006c0.195,0.032,0.396,0.076,0.598,0.121
					c0.204,0.063,0.4,0.119,0.598,0.198c0.934,0.343,1.767,0.89,2.461,1.589c0.086,0.081,0.162,0.176,0.248,0.262l0.035,0.045
					c1.202,1.373,1.814,3.197,1.733,5.01v0.02c-0.015,0.285-0.044,0.569-0.097,0.854c-0.231,1.441-0.895,2.768-1.92,3.809
					c-0.051,0.055-0.107,0.104-0.154,0.152l-0.049,0.05c-0.871,0.813-1.938,1.384-3.104,1.646c-0.364,0.08-0.739,0.127-1.118,0.144
					c-0.098,0.003-0.195,0.01-0.296,0.01c-1.893-0.007-3.719-0.854-4.974-2.276l-0.03-0.033l-0.03-0.035l-0.524-0.617l-0.226,0.643
					l-0.017,0.039c-0.046,0.14-0.108,0.27-0.163,0.41c-0.061,0.127-0.124,0.266-0.195,0.393c-0.353,0.681-0.818,1.301-1.367,1.828
					l-0.047,0.045c-0.129,0.113-0.25,0.228-0.388,0.336c-0.647,0.515-1.394,0.91-2.178,1.156c-0.726,0.229-1.487,0.336-2.252,0.297
					c-1.772-0.084-3.411-0.879-4.603-2.189h0.004l-0.1-0.104c-1.191-1.373-1.809-3.195-1.732-5.01v-0.02
					c0.014-0.282,0.045-0.566,0.09-0.852c0.246-1.485,0.945-2.856,2.027-3.912l0,0l0.106-0.101c0.255-0.237,0.522-0.454,0.805-0.647
					c0.095-0.066,0.19-0.129,0.293-0.184c0.481-0.301,1.019-0.537,1.566-0.699l0.659-0.19l-0.467-0.521l-0.067-0.066l-0.048-0.051
					l-0.032-0.045c-1.196-1.377-1.813-3.193-1.731-5.006c0.076-1.809,0.815-3.519,2.112-4.779h0.004l0.075-0.075l0.07-0.065l0,0
					c0.902-0.835,2.025-1.4,3.219-1.637c0.509-0.105,1.029-0.141,1.553-0.117c0.208,0.008,0.418,0.025,0.625,0.061
					c1.533,0.217,2.938,0.978,3.984,2.142v0.002l0.07,0.067l0.066,0.086l0.002-0.002c0.323,0.38,0.596,0.787,0.831,1.224
					c0.087,0.146,0.16,0.3,0.231,0.456c0.353,0.786,0.562,1.637,0.615,2.496l0.033,0.59l0.538-0.221
					c0.573-0.234,1.101-0.571,1.528-1.025l0.059-0.061c0.405-0.45,0.689-0.971,0.862-1.545l0.047-0.143l-0.05-0.142l-0.01-0.011
					c-0.03-0.105-0.068-0.215-0.097-0.32l-0.003-0.014c-0.029-0.099-0.046-0.197-0.066-0.297c-0.047-0.313-0.055-0.76,0.192-0.992
					l0.013-0.016c0.316-0.287,0.908-0.126,1.262,0.016c0.324,0.127,0.638,0.312,0.92,0.518c0.025,0.031,0.053,0.061,0.08,0.085
					c0.197,0.147,0.385,0.308,0.563,0.478c0.034,0.037,0.072,0.076,0.104,0.108c0.113,0.104,0.216,0.216,0.314,0.329l0.014,0.01
					l0.004,0.012c0.015,0.008,0.02,0.018,0.021,0.026c0.201,0.224,0.378,0.456,0.552,0.705l0.035,0.052l0.008,0.01
					c0.033,0.055,0.063,0.104,0.099,0.156h0.002c0.024,0.051,0.06,0.104,0.09,0.153c0.017,0.026,0.033,0.056,0.06,0.083
					c0.006,0.01,0.017,0.018,0.025,0.021c0.171,0.32,0.313,0.654,0.412,1C277.248,85.902,277.352,86.527,277.041,86.834z
					 M277.117,83.527c-0.188-0.28-0.396-0.545-0.613-0.793c0,0-0.515-0.543-0.744-0.748l4.021-3.805l0.209,2.615L277.117,83.527z
					 M321.05,95.73c-0.352,4.267-4.737,7.826-9.064,9.18c-1.107,0.35-2.201,0.55-3.232,0.578
					c-0.096,0.004-13.988,0.004-13.988,0.004c-1.104,0-2.303-0.206-3.52-0.582c-4.322-1.354-8.717-4.913-9.063-9.18l-0.559-6.777
					l-2.619-32.216h45.225l-0.491,6.077L321.05,95.73z M323.242,80.797l0.215-2.615l4.018,3.805c-0.254,0.22-1.17,1.261-1.354,1.541
					L323.242,80.797z M350.354,98.385c0.083,1.809-0.532,3.625-1.717,4.992h-0.009l-0.039,0.061
					c-1.193,1.351-2.856,2.168-4.657,2.25c-0.103,0.006-0.206,0.006-0.308,0.006c-1.494,0-2.957-0.527-4.123-1.459
					c-0.139-0.107-0.273-0.23-0.401-0.348l-0.047-0.046c-0.552-0.522-1.013-1.138-1.358-1.813c-0.066-0.127-0.136-0.266-0.189-0.395
					c-0.066-0.141-0.119-0.271-0.168-0.408l-0.012-0.039l-0.228-0.651l-0.472,0.557l-0.058,0.069l-0.032,0.035l-0.024,0.033
					c-1.252,1.424-3.081,2.271-4.979,2.276c-0.096,0-0.193-0.007-0.293-0.01c-0.371-0.017-0.75-0.063-1.119-0.144
					c-1.162-0.262-2.23-0.832-3.104-1.647l-0.045-0.048c-0.705-0.666-1.246-1.467-1.609-2.35c-0.218-0.514-0.377-1.056-0.467-1.611
					c-0.046-0.277-0.076-0.551-0.093-0.83l0,0v-0.041c-0.048-1.064,0.146-2.129,0.56-3.107c0.286-0.689,0.68-1.337,1.18-1.908
					l0.037-0.049c0.737-0.826,1.66-1.463,2.703-1.84c0.194-0.079,0.394-0.137,0.598-0.197c0.197-0.045,0.396-0.09,0.601-0.121
					l0.569-0.104l-0.252-0.519c-0.279-0.563-0.646-1.08-1.127-1.49c-0.476-0.401-1.021-0.668-1.631-0.807l-0.136-0.033l-0.134,0.072
					c-0.326,0.157-0.725,0.307-1.092,0.293c-0.053,0-0.102-0.004-0.148-0.015c-0.111-0.019-0.217-0.06-0.309-0.136l-0.016-0.014
					l-0.021-0.019c-0.304-0.312-0.199-0.935-0.104-1.313c0.104-0.347,0.25-0.681,0.416-1.002c0.018-0.004,0.021-0.012,0.027-0.021
					c0.021-0.028,0.047-0.056,0.059-0.083c0.03-0.051,0.062-0.104,0.092-0.15l0.002-0.004c0.031-0.051,0.064-0.102,0.098-0.156
					l0.006-0.006c0.182-0.269,0.379-0.523,0.59-0.768c0.006-0.002,0.016-0.012,0.019-0.02l0.021-0.023
					c0.1-0.11,0.199-0.223,0.311-0.326c0.035-0.033,0.07-0.07,0.107-0.109c0.18-0.168,0.358-0.328,0.559-0.477
					c0.033-0.023,0.059-0.055,0.082-0.085c0.287-0.206,0.596-0.39,0.921-0.519c0.358-0.145,0.944-0.303,1.264-0.015l0.009,0.011
					c0.252,0.237,0.243,0.68,0.19,0.996c-0.015,0.1-0.033,0.201-0.058,0.299l-0.01,0.012c-0.029,0.111-0.06,0.221-0.1,0.33
					l-0.051,0.144l0.039,0.142c0.178,0.574,0.463,1.096,0.861,1.547l0.057,0.06c0.437,0.454,0.959,0.791,1.533,1.024l0.545,0.222
					l0.031-0.59c0.055-0.86,0.266-1.71,0.613-2.496c0.072-0.156,0.145-0.31,0.227-0.456c0.236-0.445,0.531-0.863,0.854-1.244
					l0.008,0.003l0.05-0.071l0.063-0.063h-0.005c1.054-1.166,2.453-1.928,3.994-2.146c0.197-0.029,0.404-0.049,0.619-0.057
					c1.223-0.057,2.44,0.243,3.504,0.837c0.479,0.263,0.922,0.591,1.324,0.972l0.104,0.098l0,0c1.287,1.261,2.027,2.97,2.107,4.77
					c0.078,1.813-0.539,3.629-1.729,5.002l-0.061,0.063l-0.027,0.036l-0.536,0.586l0.659,0.189c0.554,0.164,1.08,0.399,1.572,0.7
					c0.098,0.054,0.198,0.116,0.291,0.183c0.277,0.193,0.553,0.408,0.801,0.643l0.127,0.118l0,0
					c1.063,1.051,1.764,2.415,2.011,3.899c0.045,0.285,0.073,0.569,0.084,0.853v0.017H350.354z"/>
				<path fill="#FFFFFF" d="M347.958,97.928c-0.16-0.979-0.631-1.882-1.353-2.568l-0.05-0.049c-0.794-0.738-1.854-1.166-2.932-1.166
					c-0.066,0-0.138,0.004-0.201,0.004c-1.166,0.059-2.235,0.582-3.01,1.445l-0.092,0.096l0.006,0.002
					c-0.363,0.428-0.642,0.922-0.826,1.443c-0.203,0.569-0.297,1.174-0.271,1.773c0.021,0.47,0.111,0.926,0.271,1.365
					c0.229,0.647,0.593,1.23,1.088,1.725v0.005l0.101,0.087c0.57,0.531,1.257,0.896,2.013,1.063c0.31,0.072,0.615,0.103,0.922,0.103
					c1.192,0,2.33-0.497,3.16-1.39h0.004l0.123-0.139l0,0c0.758-0.89,1.16-2.064,1.104-3.236
					C348.009,98.303,347.987,98.119,347.958,97.928z M346.287,101.152L346.287,101.152l-0.063,0.076
					c-0.68,0.748-1.616,1.17-2.6,1.17c-0.252,0-0.5-0.03-0.746-0.088c-0.612-0.135-1.176-0.43-1.635-0.863l-0.109-0.114l0,0
					c-0.651-0.657-1.026-1.536-1.063-2.463c-0.04-0.948,0.278-1.903,0.894-2.626l0.013,0.006l0.034-0.059
					c0.628-0.705,1.496-1.133,2.451-1.18c0.053,0,0.107-0.005,0.162-0.005c0.881,0,1.73,0.341,2.377,0.945l0.043,0.046
					c0.576,0.557,0.953,1.283,1.084,2.076c0.021,0.148,0.045,0.303,0.045,0.455C347.22,99.48,346.9,100.428,346.287,101.152z"/>
				<path fill="#FFFFFF" d="M311.985,76.479c0.544-0.229,1.136-0.357,1.746-0.357c1.353,0,2.663,0.604,3.479,1.697l0.256,0.334
					l-0.072-0.418c-0.424-2.344-1.465-4.521-2.982-6.363l-0.041-0.052l-0.061,0.018c-0.846,0.254-1.623,0.632-2.324,1.103
					c-1.438,0.974-2.554,2.362-3.232,3.957c-0.363,0.859-0.607,1.779-0.705,2.729c-0.028,0.319-0.051,0.646-0.051,0.972
					c0,0.325,0.021,0.646,0.051,0.969c0.098,0.947,0.342,1.871,0.705,2.73c0.68,1.594,1.795,2.98,3.232,3.951
					c0.701,0.475,1.479,0.852,2.324,1.109l0.061,0.013l0.041-0.052c1.519-1.84,2.56-4.014,2.982-6.362l0.072-0.421l-0.256,0.346
					c-0.815,1.086-2.127,1.691-3.479,1.691c-0.61,0-1.202-0.127-1.746-0.362c-1.438-0.604-2.504-1.938-2.504-3.612
					C309.481,78.422,310.546,77.083,311.985,76.479z"/>
				<path fill="#FFFFFF" d="M271.898,91.959c-0.064-0.006-0.135-0.006-0.202-0.006c-1.06,0-2.095,0.408-2.882,1.119l-0.007-0.008
					l-0.077,0.086c-0.871,0.826-1.37,1.968-1.423,3.166c-0.015,0.228,0,0.459,0.022,0.684c0.098,0.925,0.459,1.796,1.061,2.505
					l-0.008,0.005l0.068,0.075c0.783,0.89,1.883,1.421,3.066,1.476c0.054,0,0.113,0,0.178,0c0.167,0,0.321-0.01,0.479-0.021
					c0.922-0.106,1.773-0.507,2.449-1.134h0.002l0.039-0.035c0.731-0.691,1.201-1.602,1.367-2.59
					c0.032-0.188,0.049-0.381,0.059-0.564c0.051-1.183-0.353-2.367-1.131-3.259l-0.047-0.06c-0.652-0.717-1.508-1.207-2.466-1.379
					c-0.176-0.035-0.354-0.051-0.528-0.062L271.898,91.959L271.898,91.959z M274.31,93.998l0.043,0.048
					c0.622,0.724,0.941,1.683,0.896,2.634c-0.002,0.153-0.019,0.307-0.045,0.457c-0.131,0.805-0.519,1.543-1.108,2.104l-0.035,0.029
					c-0.542,0.508-1.229,0.828-1.978,0.912c-0.125,0.012-0.258,0.021-0.388,0.021c-0.047,0-0.096,0-0.144-0.002
					c-0.963-0.042-1.846-0.479-2.479-1.2l-0.036-0.031c-0.492-0.582-0.795-1.302-0.873-2.061c-0.021-0.184-0.021-0.368-0.02-0.553
					c0.044-0.979,0.453-1.9,1.162-2.574l0.029-0.035c0.646-0.588,1.488-0.928,2.359-0.928c0.061,0,0.107,0,0.167,0.004h0.039
					c0.138,0.011,0.271,0.029,0.399,0.044C273.083,93.01,273.787,93.414,274.31,93.998z"/>
				<path fill="#FFFFFF" d="M266.082,83.371l-0.026-0.033l-0.022-0.021c-0.611-0.688-1.41-1.162-2.297-1.364
					c-0.236-0.054-0.479-0.086-0.725-0.093c-0.498-0.025-0.984,0.039-1.453,0.186c-0.615,0.189-1.191,0.518-1.667,0.956h-0.003
					l-0.072,0.073c-0.855,0.82-1.346,1.941-1.395,3.125c-0.058,1.189,0.35,2.378,1.136,3.273l0.039,0.043
					c0.528,0.59,1.204,1.028,1.962,1.258c0.165,0.055,0.33,0.097,0.509,0.125c0.175,0.031,0.362,0.055,0.539,0.061h0.026
					c0.367,0.018,0.742-0.016,1.104-0.098c0.739-0.172,1.438-0.535,1.997-1.053h0.009l0.049-0.059
					c1.156-1.104,1.639-2.736,1.315-4.297C266.945,84.684,266.6,83.964,266.082,83.371z M265.285,89.061L265.285,89.061
					l-0.111,0.104c-0.41,0.38-0.904,0.658-1.438,0.813c-0.353,0.096-0.719,0.139-1.088,0.125c-0.147-0.011-0.292-0.025-0.442-0.054
					c-0.226-0.039-0.438-0.101-0.646-0.183c-0.516-0.2-0.982-0.526-1.359-0.948l-0.047-0.047c-0.617-0.722-0.941-1.679-0.898-2.634
					c0.052-0.951,0.437-1.855,1.123-2.526l0.108-0.095h-0.008c0.323-0.286,0.685-0.51,1.081-0.662
					c0.445-0.174,0.928-0.26,1.412-0.241c0.26,0.019,0.518,0.062,0.766,0.128c0.641,0.182,1.213,0.542,1.669,1.049l0.095,0.102
					c0.395,0.479,0.662,1.041,0.789,1.644C266.539,86.87,266.171,88.167,265.285,89.061z"/>
				<path fill="#FFFFFF" d="M295.187,81.081c0.036-0.326,0.051-0.656,0.051-0.983c0-0.33-0.015-0.666-0.051-0.99
					c-0.284-2.703-1.727-5.171-3.941-6.667c-0.697-0.471-1.479-0.848-2.318-1.103l-0.063-0.018l-0.048,0.052
					c-1.517,1.844-2.558,4.02-2.974,6.363l-0.072,0.418l0.253-0.334c0.817-1.094,2.128-1.697,3.478-1.697
					c0.613,0,1.205,0.129,1.744,0.357c1.438,0.604,2.512,1.942,2.512,3.617c0,1.676-1.068,3.014-2.512,3.619
					c-0.539,0.23-1.131,0.355-1.744,0.355c-1.35,0-2.66-0.604-3.478-1.69l-0.253-0.346l0.072,0.421
					c0.416,2.35,1.465,4.523,2.978,6.363l0.044,0.051l0.063-0.014c0.843-0.258,1.621-0.635,2.318-1.104
					C293.46,86.26,294.902,83.787,295.187,81.081z"/>
				<path fill="#FFFFFF" d="M298.128,82.811c0.113-0.902,0.162-1.816,0.162-2.715c0-0.902-0.049-1.812-0.162-2.715
					c-0.192-1.648-0.578-3.274-1.189-4.807c-0.432-1.099-1.011-2.22-1.752-3.194c-0.498-0.662-1.08-1.255-1.736-1.735l-0.045-0.044
					l-0.061,0.035c-0.733,0.403-1.438,0.865-2.1,1.377c-0.279,0.223-0.555,0.446-0.822,0.688l-0.117,0.108l0.15,0.061
					c0.271,0.111,0.539,0.239,0.789,0.375c1.703,0.911,3.027,2.337,3.94,4.004c0.972,1.772,1.474,3.831,1.474,5.847
					c0,2.021-0.502,4.073-1.474,5.844c-0.913,1.672-2.237,3.097-3.94,4.008c-0.25,0.138-0.519,0.265-0.789,0.377l-0.15,0.061
					l0.117,0.108c0.269,0.239,0.543,0.463,0.822,0.685c0.66,0.514,1.365,0.979,2.1,1.387l0.061,0.024l0.045-0.034
					c0.656-0.482,1.238-1.08,1.736-1.74c0.74-0.979,1.32-2.094,1.752-3.195C297.55,86.087,297.936,84.458,298.128,82.811z"/>
				<path fill="#FFFFFF" d="M299.623,65.645c-0.502,0.056-0.992,0.131-1.494,0.236c-0.811,0.163-1.613,0.387-2.396,0.668
					l-0.127,0.047l0.082,0.115c1.063,1.395,1.865,3.086,2.438,4.883c0.896,2.785,1.26,5.833,1.26,8.501
					c0,2.666-0.362,5.713-1.26,8.494c-0.573,1.803-1.375,3.494-2.438,4.893l-0.082,0.111l0.127,0.045
					c0.788,0.285,1.585,0.508,2.396,0.672c0.502,0.098,0.992,0.178,1.494,0.232c0.371,0.046,0.748,0.072,1.123,0.096l0.105,0.006
					V65.548l-0.105,0.008C300.371,65.574,299.994,65.601,299.623,65.645z"/>
			</g>
		</g>
	</g>
</g>
<g id="Camada_2" display="none">
</g>
</svg>
