<?xml version="1.0" encoding="utf-8"?>
<!-- Generator: Adobe Illustrator 16.0.0, SVG Export Plug-In . SVG Version: 6.00 Build 0)  -->
<!DOCTYPE svg PUBLIC "-//W3C//DTD SVG 1.1//EN" "http://www.w3.org/Graphics/SVG/1.1/DTD/svg11.dtd">
<svg version="1.1" id="Camada_1" xmlns="http://www.w3.org/2000/svg" xmlns:xlink="http://www.w3.org/1999/xlink" x="0px" y="0px"
	 width="500px" height="500px" viewBox="0 0 500 500" enable-background="new 0 0 500 500" xml:space="preserve">
<g>
	<path fill="#999999" d="M306.353,450.25c3.544,0,6.214-2.764,6.214-6.428c0-3.594-2.388-6.104-5.81-6.104h-0.079
		c-2.649,0-6.379,1.992-6.379,6.424C300.299,448.65,303.561,450.25,306.353,450.25"/>
	<path fill="#999999" d="M150.511,443.375c-1.347,0.18-2.126,0.629-2.126,2.395v22.725c0,14.799-5.377,16.795-10.636,16.795
		c-4.638,0-10.801-1.682-10.801-16.227v-20.873c0-3.809-0.176-5.139-2.164-5.139c-1.848,0-8.345,0.398-10.01,0.648l-0.283,0.041
		l0.028,0.285c0.163,1.707,0.242,5.1,0.242,10.371v15.148c0,17.271,7.298,26.031,21.69,26.031c10.228,0,22.419-4.77,22.419-27.482
		v-11.529c0-6.99,0.09-10.135,0.243-13.199l0.016-0.314h-0.314C157.24,443.051,152.964,443.131,150.511,443.375"/>
	<path fill="#999999" d="M195.846,450.508c4.717,0,8.348,1.246,10.092,1.99l0.077,0.02c1.262,0.168,2.426-0.221,3.367-1.119
		c1.219-1.162,1.906-3.096,1.754-4.928l-0.008-0.102l-0.067-0.074c-1.245-1.396-7.17-4.131-15.215-4.131
		c-17.853,0-29.388,10.115-29.388,25.768c0,16.793,11.439,27.645,29.146,27.645c5.11,0,9.236-2.643,11.453-4.061l0.295-0.189
		l0.045-0.033c1.612-1.521,2.682-4.109,3.009-7.285l0.021-0.207l-0.614-0.305l-0.632,0.178c-2.084,0.594-5.961,1.697-11.065,1.697
		c-11.384,0-18.739-7.131-18.739-18.162C179.376,453.404,188.332,450.508,195.846,450.508"/>
	<path fill="#999999" d="M290.868,474.018l-3.89-28.047l-0.001-0.002c-0.32-2.154-0.844-2.918-1.998-2.918
		c-2.051,0-8.719,0.459-10.124,1.336l-0.143,0.088v1.156c-3.354,8.105-8.159,20.127-11.53,29.18l-10.329-27.607
		c-1.176-3.357-1.721-4.256-3.281-4.152c-4.156,0-7.227,0.67-9.466,1.156l-0.915,0.197l0.19,1.52
		c-2.279,13.734-4.436,27.596-6.011,37.725c-0.54,3.461-0.999,6.414-1.355,8.666l-0.032,0.207l0.183,0.102
		c1.36,0.764,5.881,2.227,8.493,2.227c1.143,0,1.594-1.756,1.838-3.094c1.115-9.107,2.873-25.611,3.754-35.191
		c1.407,4.498,3.333,10.576,5.2,16.473c2.689,8.486,5.227,16.498,6.179,19.654l0.063,0.213h0.224c1.598,0,3.499-0.213,5.812-0.648
		c2.115-0.424,2.944-1.129,3.549-3.025c4.022-12.07,8.379-25.242,10.658-32.785l1.559,16.756c0.759,8.537,1.238,13.223,1.623,16.986
		l0.077,0.752c0.168,1.846,1.373,3.91,2.731,3.91c1.619,0,6.6-1.408,8.726-2.01l0.934-0.26l-0.045-0.268
		C292.816,487.996,291.892,481.672,290.868,474.018"/>
	<path fill="#999999" d="M311.237,456.184c-1.979,0-7.841,0.49-9.962,1.059l-0.249,0.064l0.028,0.258
		c0.139,1.311,0.321,3.67,0.321,8.998v13.787c0,4.326-0.137,9.904-0.218,13.238l-0.031,1.262h0.309c4.245,0,7.203-0.109,8.785-0.324
		c2.227-0.258,3.02-2.16,3.02-3.855v-29.107C313.24,456.988,312.94,456.184,311.237,456.184"/>
	<path fill="#999999" d="M357.156,480.43v-9.514c0-9.953-4.334-15.215-12.534-15.215c-3.956,0-7.681,2.406-10.838,4.854
		c-0.836-3.223-2.694-4.854-5.529-4.854c-3.164,0-6.276,2.613-7.09,4.957l-0.018,0.91l0.143,0.088
		c1.099,0.686,1.398,1.496,1.398,3.777v13.143c0,4.256-0.075,10.842-0.244,15.961l-0.01,0.313h0.311
		c2.138,0,4.038-0.568,5.874-1.117c1.241-0.373,2.41-0.723,3.645-0.91c1.987-0.258,2.287-0.752,2.287-2.314v-23.951
		c1.626-1.148,3.017-1.953,5.614-1.953c3.019,0,5.129,2.529,5.129,6.152v20.641c0,1.434,0.671,3.453,2.165,3.453
		c2.61,0,5.047-0.781,7.004-1.408c1.08-0.344,2.012-0.643,2.662-0.699l0.289-0.025l-0.014-0.291
		C357.25,489.561,357.156,484.852,357.156,480.43"/>
	<path fill="#999999" d="M397.624,485.219c-0.289,0.07-0.852,0.07-1.224,0.07c-1.783,0-2.616-0.928-2.616-1.553
		c0-3.025,0.103-6.023,0.192-8.666c0.07-2.098,0.132-3.908,0.132-5.363c0-9.676-7.027-14.006-13.993-14.006
		c-5.594,0-11.623,2.73-15.401,5.291l-0.127,0.086l-0.004,0.154c-0.031,1.012,0.068,3.508,1.679,4.789
		c0.924,0.73,2.147,0.902,3.686,0.49l0.208-0.092c1.58-0.709,4.224-1.896,6.799-1.896c3.51,0,5.777,2.035,5.777,5.184v0.715
		c-0.945,0.172-2.55,0.463-3.894,0.684c-5.463,1.168-15.633,3.346-15.633,11.984c0,6.406,5.125,12.242,10.753,12.242
		c3.351,0,6.457-2.734,9.08-5.512c1.154,2.223,3.48,5.512,7.124,5.512c5.845,0,7.917-5.117,7.917-9.498l-0.164-0.688
		L397.624,485.219z M382.569,481.719c0,1.309-0.196,2.094-0.622,2.592c-1.037,0.875-1.806,1.141-3.289,1.141
		c-2.11,0-4.238-1.203-4.238-3.895v-0.08c0-0.941,0.595-4.059,8.149-4.902V481.719z"/>
	<path fill="#999999" d="M422.154,471.945l-0.012-0.008c-0.547-0.271-1.297-0.627-2.103-1.008c-1.585-0.748-3.378-1.6-4.278-2.125
		c-1.617-0.965-2.607-1.621-2.607-2.887c0-1.316,1.312-2.201,3.265-2.201c1.716,0,3.602,0.422,5.305,1.186l0.101,0.025
		c1.09,0.08,2.023-0.25,2.769-0.99c1.35-1.336,1.708-3.6,1.605-5.135l-0.009-0.143l-0.115-0.082
		c-2.733-1.965-5.751-2.877-9.493-2.877h-0.081c-6.78,0-14.076,3.779-14.076,12.072c0,3.914,2.092,7.389,5.754,9.537
		c1.085,0.559,2.152,1.102,3.198,1.631c1.062,0.537,2.101,1.066,3.119,1.592c2.16,1.158,2.595,1.992,2.595,2.959
		c0,1.479-1.373,2.361-3.671,2.361c-4.011,0-7.961-2.25-9.077-2.938l-0.194-0.121l-0.169,0.156
		c-1.175,1.092-2.362,3.318-2.362,5.461c0,1.648,1.177,2.604,2.336,3.322l0.685,0.404c2.278,1.348,5.4,3.193,8.055,3.193
		c7.595,0,15.453-5.211,15.453-13.934C428.144,477.27,426.184,474.178,422.154,471.945"/>
	<path fill="#999999" d="M86.24,443.162c-6.08,0-11.883,0.65-14.113,1.063l-0.269,0.049l0.024,0.271
		c0.326,3.729,0.326,7.076,0.326,10.953v36.852c0,1.564,0.792,3.227,2.263,3.227c2.222,0,8.497-0.234,10.052-0.664l0.231-0.064
		l-0.012-0.242c-0.161-3.244-0.245-6.961-0.245-11.041v-5.771c2.32,0.193,4.963-0.334,6.741-0.691
		c7.241-1.457,12.301-4.793,15.04-9.92c1.365-2.553,2.086-5.438,2.086-8.344C108.365,445.063,97.732,443.162,86.24,443.162
		 M87.383,468.301c-0.296,0-1.604-0.055-2.886-0.109v-17.152c0.826-0.119,1.795-0.119,2.396-0.119c4.337,0,8.771,0.922,8.771,7.756
		C95.665,467.049,90.477,468.301,87.383,468.301"/>
	<path fill="#999999" d="M376.148,421.68c7.867,0,14.672-3.975,21.88-8.186c8.019-4.688,16.312-9.531,27.033-9.531
		c1.184,0,2.261-0.699,2.742-1.781c0.481-1.08,0.277-2.348-0.516-3.225l-12.206-13.488l8.64-18.799
		c0.451-0.979,0.341-2.129-0.292-3.004c-0.629-0.871-1.69-1.342-2.837-1.217c-2.724,0.281-15.026,2.068-23.119,7.711
		c-0.04-10.916-0.688-16.029-0.696-16.1c-0.01-0.063-0.015-0.121-0.015-0.182c0-3.209-6.368-3.826-6.431-3.828
		c-10.667-0.865-21.834,0.494-34.142,4.16c-11.044,3.289-21.954,8.078-32.504,12.709c-4.919,2.158-10.005,4.393-15.096,6.465
		c-18.679,7.604-37.261,11.301-56.813,11.301c-19.542,0-38.121-3.697-56.797-11.301c-5.032-2.049-10.126-4.283-15.05-6.447
		l-0.074-0.031c-10.544-4.627-21.445-9.412-32.479-12.697c-12.329-3.672-23.495-5.027-34.14-4.16
		c-0.063,0.006-6.433,0.631-6.433,3.83c0,0.063-0.002,0.121-0.011,0.186c-0.011,0.072-0.77,5.832-0.699,18.621
		c-8.917-6.584-26.549-8.566-27.3-8.648c-0.848-0.092-1.678,0.279-2.176,0.969s-0.586,1.594-0.23,2.369l9.2,20.02l-13.039,14.41
		c-0.628,0.693-0.787,1.689-0.407,2.541c0.38,0.857,1.228,1.406,2.164,1.406c11.364,0,20.087,5.098,28.521,10.025
		c7.408,4.328,14.405,8.418,22.394,8.418c10.47,0,15.483-4.982,15.807-9.92c0.024-0.381,0.012-0.752-0.018-1.119
		c0.047-0.559,0.085-1.244,0.106-1.68c0.217-4.141,0.614-10.188,0.753-14.754c0.151-1.586,0.259-3.072,0.261-4.385
		c7.779,2.408,15.232,5.318,22.183,8.145c26.677,10.846,55.403,21.438,87.462,21.438c14.237,0,28.863-2.088,44.712-6.387
		c15.205-4.121,30.152-9.92,42.769-15.051c6.766-2.75,13.999-5.578,21.519-7.941c-0.034,1.031-0.104,2.309-0.183,3.748
		c-0.173,3.156-0.382,6.994-0.307,10.102c-0.081,1.959-0.073,4.693-0.049,5.08c0.186,2.822,1.841,5.482,4.543,7.307
		C367.596,420.676,371.528,421.68,376.148,421.68 M396.732,391.861c0,0,2.942,4.906-11.729,8.998
		c-1.952,0.484-4.2,1.008-6.805,1.611c-0.084,0.018-0.172,0.035-0.257,0.053c-0.593,0.119-1.2,0.238-1.83,0.355
		c-3.696,0.688-13.431,3.215-13.431,3.215c0.052-6.012,0.457-8.975,0.615-14.316c0.407-0.123,0.811-0.248,1.221-0.365
		c2.766-0.799,5.44-1.482,8.059-2.029c11.175-2.332,18.763-2.936,22.512,0.359C395.752,390.328,396.31,391.02,396.732,391.861
		 M133.913,419.242c-3.033,1.5-6.619,1.729-9.944,1.555c-15.979-0.822-26.423-18.277-48.623-18.277l13.004-14.943l-9.055-21.244
		c0,0,10.809,2.369,14.426,3.588c4.573,1.543,10.541,3.703,12.398,5.289c0.02,1.564,0.053,3.221,0.101,4.971
		c0.01,0.621,0.021,1.26,0.035,1.908c0.023,1.816,0.035,3.809,0.112,5.707c-0.733,0.625-1.549,1.523-2.002,2.811
		c-0.987,2.809-0.173,5.855,1.601,8.164c2.345,3.051,6.59,4.398,10.086,5.613c4.361,1.518,8.853,2.664,13.406,3.43
		c3.307,0.555,8.05,1.494,8.491,5.57C138.241,416.055,136.136,418.143,133.913,419.242 M139.062,408.73
		c-0.889-0.949-2.036-1.691-3.379-2.146c-0.475-0.203-0.997-0.365-1.574-0.475c-6.563-1.254-13.737-3.055-19.051-5.117
		c-3.317-1.291-5.91-2.684-7.168-4.111c-1.359-1.543-1.466-3.156-1.466-3.156c-0.02-0.303-0.005-0.582,0.028-0.84
		c0.091-0.721,0.332-1.258,0.438-1.482c1.05-2.246,3.671-3.211,4.957-3.625c1.257-0.236,2.602-0.367,3.968-0.367
		c0.383,0,0.749,0.01,1.095,0.029c6.973,0.387,14.216,1.688,22.145,3.973c0.396,0.113,0.785,0.236,1.178,0.354
		C140.183,394.48,139.975,398.33,139.062,408.73 M338.496,398.625c-12.56,5.107-27.436,10.881-42.534,14.973
		c-15.676,4.252-30.129,6.314-44.187,6.314c-31.693,0-60.211-10.516-86.704-21.287c-7.913-3.219-16.474-6.553-25.46-9.143
		c-2.521-0.725-4.969-1.348-7.368-1.881c-4.403-0.977-8.626-1.639-12.741-1.988c-2.237-0.266-4.321-0.369-6.177-0.26
		c-1.893,0.111-3.548,0.449-4.881,1.074c-0.934-22.115,0.327-31.996,0.34-32.094c0.02-0.148,0.03-0.301,0.03-0.455
		c0-0.729,2.629-1.666,4.59-1.832c10.424-0.836,21.351,0.496,33.4,4.084c10.921,3.254,21.775,8.018,32.271,12.623l0.065,0.029
		c4.927,2.162,10.021,4.396,15.084,6.461c18.922,7.703,37.753,11.449,57.568,11.449c19.802,0,38.63-3.746,57.556-11.449
		c5.064-2.064,10.151-4.299,15.072-6.455l0.072-0.033c10.492-4.605,21.34-9.369,32.27-12.623c12.063-3.596,22.99-4.93,33.404-4.086
		c1.917,0.162,4.588,1.115,4.588,1.832c0,0.143,0.009,0.295,0.029,0.451c0.011,0.07,0.749,5.805,0.681,18.383
		c-0.021,3.949-0.121,8.57-0.349,13.91c-0.279-0.104-0.546-0.209-0.808-0.309c-0.913-0.354-1.75-0.672-2.676-0.813
		c-1.612-0.387-3.705-0.404-5.77-0.404c-4.952,0.301-10.857,1.541-17.619,3.238c-1.409,0.354-2.834,0.729-4.286,1.146
		C354.99,392.066,346.422,395.404,338.496,398.625 M362.741,412.037c-0.33-1.865,0.429-3.498,2.175-4.25
		c1.043-0.449,3.724-1.23,4.791-1.432c3.834-0.719,22.986-4.516,27.339-8.498c2.568-2.336,3.71-6.453,0.749-9.055
		c-0.228-0.201-0.483-0.395-0.596-0.676c-0.083-0.205-0.079-0.436-0.072-0.66c0.134-4.92,0.319-9.844,0.344-14.768
		c7.846-5.246,19.864-7.832,22.544-8.111c0.54-0.053,1.097,0.186,1.425,0.635c0.325,0.449,0.38,1.041,0.148,1.547l-9.646,19.088
		l12.714,13.139c0.409,0.453,0.514,1.105,0.265,1.662c-0.248,0.557-0.803,0.918-1.414,0.918c-11.114,0-17.785,4.324-25.977,9.109
		c-7.027,4.107-13.666,7.984-21.142,7.984c-4.329,0-7.979-0.916-10.551-2.654C364.413,415.057,363.053,413.799,362.741,412.037"/>
	<path fill="#999999" d="M139.943,379.41c-0.289-0.08-0.435-0.121-0.727-0.203c-0.135,2.801-0.803,3.322-2.317,2.912
		c-1.179-0.316-1.775-0.473-2.983-0.779c-1.359-0.346-1.739-0.492-1.759-2.525c-0.032-3.232-0.008-4.879,0.024-8.162
		c1.33,0.32,1.986,0.484,3.28,0.826c1.604,0.422,2.162,1.762,2.154,3.738c0.296,0.08,0.442,0.123,0.736,0.201
		c0.009-3.072,0.031-4.615,0.037-7.689c-0.292-0.082-0.439-0.125-0.731-0.207c-0.159,1.162-0.34,2.717-2.183,2.229
		c-1.294-0.34-1.948-0.506-3.278-0.828c0.025-2.926,0.043-4.393,0.01-7.275c-0.02-1.742,0.334-1.799,1.683-1.459
		c0.843,0.211,1.26,0.318,2.085,0.541c1.746,0.467,2.856,1.549,2.874,4.469c0.29,0.084,0.436,0.127,0.723,0.213
		c-0.046-2.168-0.076-3.254-0.179-5.412c-4.913-1.445-7.482-2.09-13.046-3.125c0.01,0.309,0.015,0.463,0.023,0.773
		c2.687,1.033,2.768,1.047,2.785,4.641c0.037,7.795-0.249,11.977,0.007,19.568c4.518,1.049,6.659,1.619,10.806,2.814
		C139.927,382.572,139.928,381.52,139.943,379.41"/>
	<path fill="#999999" d="M154.895,365.691c-0.674-0.305-1.012-0.457-1.689-0.754c-1.407,3.24-2.18,4.779-3.764,7.941
		c-1.398-4.367-2.091-6.58-3.626-11.014c-1.819-0.703-2.743-1.045-4.635-1.701c-0.002,0.32-0.004,0.479-0.006,0.799
		c2.024,1.146,2.283,1.771,3.115,4.215c1.26,3.754,1.847,5.625,3.044,9.348c-2.186,4.188-3.352,6.348-5.478,10.652
		c0.707,0.242,1.058,0.363,1.755,0.609c1.735-3.662,2.672-5.484,4.472-9.039c1.511,4.828,2.26,7.197,3.907,12.143
		c1.197,0.465,1.79,0.699,2.972,1.168c-2.056-6.154-2.966-9.035-4.845-15.02C152.129,371.307,153.117,369.523,154.895,365.691"/>
	<path fill="#999999" d="M170.119,374.33c2.052,1.008,2.569,3.676,2.695,4.871c1.096,0.521,1.646,0.785,2.758,1.309
		c-0.286-2.859-1.764-6.09-5.28-7.818c-5.024-2.471-6.169,2.619-6.236,8.955c-0.081,7.672,1.779,13.287,6.527,15.262
		c2.291,0.953,4.168,0.725,4.747,0.6c-0.016-0.934-0.025-1.393-0.038-2.291c-0.598,0.418-2.008,1.09-4.023,0.252
		c-4.47-1.861-4.74-9.734-4.715-13.537C166.576,378.434,167.031,372.813,170.119,374.33"/>
	<path fill="#999999" d="M183.735,377.137c-5.306-2.352-6.499,1.928-6.451,8.898c0.053,6.938,1.643,12.422,6.823,14.398
		c5.104,1.949,6.718-2.375,6.632-8.879C190.653,384.959,188.823,379.389,183.735,377.137 M184.07,398.707
		c-3.732-1.43-4.144-7.566-4.184-11.541c-0.04-4.328,0.098-9.98,3.887-8.303c3.715,1.646,4.1,7.551,4.154,11.611
		C187.98,394.445,187.876,400.162,184.07,398.707"/>
	<path fill="#999999" d="M206.439,391.984c-0.018-5.557-5.913-7.877-8.022-8.611c-2.77-0.965-4.104-1.463-6.69-2.48
		c0.005,0.326,0.008,0.488,0.013,0.807c2.454,1.508,2.541,1.654,2.582,4.891c0.091,7.025,0.099,9.207,0.215,17.188
		c1.166,0.393,1.756,0.586,2.949,0.971c-0.05-4.627-0.065-6.395-0.101-10.127c0.682,0.232,1.023,0.346,1.717,0.57
		c2.002,4.355,3.022,6.367,5.061,11.596c1.323,0.381,1.909,0.547,3.186,0.885c-2.058-5.455-3.063-7.498-5.192-12.037
		C204.426,395.955,206.45,395.523,206.439,391.984 M198.95,393.746c-0.636-0.211-0.953-0.318-1.579-0.531
		c-0.021-2.137-0.029-3.188-0.054-5.5c-0.022-2.34-0.049-3.039,1.847-2.385c2.375,0.816,4.222,2.582,4.228,5.93
		C203.396,394.732,200.765,394.348,198.95,393.746"/>
	<path fill="#999999" d="M215.988,388.367c-3.138-0.639-4.681-1.002-7.695-1.826c0.002,0.328,0.003,0.49,0.004,0.811
		c2.505,1.229,2.607,1.383,2.627,4.563c0.043,6.896,0.068,8.768,0.109,16.797c1.663,0.404,2.498,0.594,4.176,0.949
		c5.486,1.168,10.279,0.213,10.271-8.992C225.473,392.42,221.368,389.461,215.988,388.367 M216.043,408.129
		c-1.944-0.4-1.947-1.377-1.955-2.656c-0.04-6.025-0.067-7.883-0.108-13.98c-0.011-1.563,0.657-1.689,2.301-1.359
		c5.328,1.078,6.002,4.967,6.025,10.127C222.331,406.145,221.173,409.186,216.043,408.129"/>
	<path fill="#999999" d="M226.378,391.039c2.682,0.947,2.772,1.105,2.679,4.295c-0.201,6.922-0.244,8.703-0.489,16.83
		c4.573,0.639,6.88,0.873,11.519,1.172c0.139-2.213,0.203-3.193,0.328-5.053c-0.328-0.021-0.492-0.033-0.819-0.053
		c-0.293,2.492-1.115,3.258-2.771,3.119c-1.29-0.109-1.934-0.168-3.218-0.305c-1.446-0.15-1.815-0.334-1.751-2.199
		c0.101-2.971,0.144-4.221,0.231-6.82c1.416,0.156,2.127,0.229,3.551,0.355c1.767,0.156,2.378,1.113,2.306,2.73
		c0.329,0.023,0.494,0.035,0.824,0.059c0.113-2.514,0.167-3.654,0.283-6.197c-0.333-0.021-0.499-0.033-0.832-0.057
		c-0.224,0.984-0.49,2.271-2.525,2.09c-1.429-0.125-2.14-0.197-3.56-0.354c0.077-2.33,0.118-3.479,0.208-6.146
		c0.055-1.611,0.446-1.748,1.936-1.607c0.931,0.09,1.396,0.129,2.33,0.203c1.975,0.156,3.201,1.076,3.083,3.641
		c0.335,0.02,0.503,0.027,0.838,0.049c0.055-1.9,0.083-2.898,0.152-5.162c-5.779-0.309-8.659-0.586-14.279-1.408
		C226.39,390.553,226.386,390.717,226.378,391.039"/>
	<path fill="#999999" d="M251.722,393.611c2.758,0.461,2.843,0.621,2.696,3.857c-0.314,7.029-0.434,8.729-0.778,17.059
		c4.685-0.195,7.033-0.379,11.732-0.914c0.148-2.279,0.219-3.279,0.357-5.178c-0.329,0.039-0.494,0.059-0.824,0.096
		c-0.314,2.564-1.151,3.496-2.83,3.654c-1.309,0.123-1.962,0.178-3.271,0.277c-1.47,0.107-1.849-0.012-1.757-1.908
		c0.145-3.027,0.212-4.283,0.347-6.908c1.439-0.1,2.157-0.156,3.593-0.283c1.781-0.16,2.377,0.693,2.285,2.324
		c0.332-0.033,0.498-0.051,0.829-0.088c0.143-2.543,0.212-3.688,0.356-6.26c-0.333,0.033-0.499,0.053-0.832,0.088
		c-0.232,1.029-0.513,2.363-2.562,2.551c-1.438,0.125-2.157,0.184-3.598,0.283c0.12-2.354,0.181-3.51,0.31-6.23
		c0.077-1.637,0.478-1.854,1.975-1.979c0.936-0.078,1.402-0.119,2.334-0.209c1.971-0.191,3.174,0.533,3.032,3.137
		c0.332-0.041,0.499-0.059,0.83-0.098c0.069-1.924,0.105-2.938,0.185-5.254c-5.68,0.693-8.581,0.93-14.377,1.146
		C251.741,393.113,251.736,393.281,251.722,393.611"/>
	<path fill="#999999" d="M277.275,391.256c2.608-0.502,3.084,1.816,3.177,2.881c1.365-0.289,2.044-0.443,3.392-0.762
		c-0.211-2.578-1.767-4.869-6.227-3.998c-6.375,1.246-8.362,7.152-8.679,12.617c-0.383,6.613,1.689,11.484,7.72,10.381
		c2.912-0.531,5.334-2.123,6.08-2.67c0.036-0.979,0.055-1.443,0.089-2.342c-0.782,0.836-2.621,2.529-5.175,3.012
		c-5.664,1.076-5.632-6.277-5.444-9.596C272.381,397.725,273.346,392.01,277.275,391.256"/>
	<path fill="#999999" d="M293.141,387.293c2.396-0.75,2.913,1.523,3.05,2.572c1.224-0.418,1.835-0.633,3.061-1.07
		c-0.309-2.549-1.793-4.717-5.863-3.422c-5.815,1.854-7.627,7.982-7.803,13.451c-0.212,6.621,1.954,11.309,7.941,9.584
		c2.89-0.834,4.825-2.555,5.469-3.154c-0.001-0.994-0.003-1.465-0.007-2.371c-0.665,0.895-2.035,2.668-4.555,3.416
		c-5.589,1.66-5.795-5.693-5.729-9.01C288.767,394.234,289.531,388.424,293.141,387.293"/>
	<path fill="#999999" d="M312.252,396.098c0.054,3.178-1.399,4.082-3.044,4.705c-0.897,0.342-1.346,0.512-2.24,0.842
		c-1.742,0.646-1.733,0.512-1.758-2.074c-0.072-7.744-0.24-9.262-0.301-18.209c-2.132,1.148-3.2,1.719-5.333,2.83
		c0.001,0.344,0.002,0.512,0.004,0.844c2.471-0.383,2.544-0.248,2.581,2.539c0.097,7.184,0.226,8.781,0.217,17.57
		c4.201-1.453,6.318-2.256,10.575-3.918c0.028-2.398,0.031-3.443,0.028-5.418C312.69,395.924,312.542,395.98,312.252,396.098"/>
	<path fill="#999999" d="M326.031,390.498c-0.071,2.707-0.788,3.891-2.293,4.51c-1.174,0.48-1.761,0.723-2.931,1.199
		c-1.319,0.537-1.654,0.525-1.692-1.469c-0.061-3.172-0.115-4.471-0.229-7.121c1.259-0.516,1.89-0.773,3.151-1.295
		c1.565-0.645,2.192,0.041,2.266,1.709c0.295-0.123,0.441-0.182,0.734-0.303c-0.118-2.596-0.194-3.74-0.336-6.238
		c-0.29,0.119-0.436,0.18-0.726,0.299c-0.102,1.045-0.213,2.408-2.006,3.146c-1.26,0.518-1.888,0.775-3.144,1.289
		c-0.105-2.352-0.164-3.486-0.26-6.121c-0.058-1.586,0.272-1.9,1.554-2.406c0.798-0.316,1.197-0.475,1.997-0.789
		c1.691-0.67,2.794-0.295,2.928,2.186c0.288-0.117,0.434-0.178,0.724-0.293c-0.132-1.818-0.197-2.762-0.308-4.893
		c-4.905,1.902-7.349,2.871-12.228,4.744c0.007,0.338,0.011,0.502,0.016,0.828c2.357-0.354,2.43-0.225,2.537,2.959
		c0.234,6.91,0.453,8.631,0.479,17.48c4.197-1.674,6.306-2.551,10.538-4.285c0.01-2.41,0.001-3.465-0.034-5.441
		C326.474,390.313,326.326,390.377,326.031,390.498"/>
	<path fill="#999999" d="M331.278,376.119c-0.135-2.023,0.918-3.541,2.284-4.064c2.013-0.77,3.995-0.451,4.726-0.311
		c-0.07-0.922-0.104-1.398-0.165-2.4c-0.682,0.078-2.385,0.246-4.16,0.912c-3.626,1.359-5.683,4.549-5.476,7.887
		c0.397,6.402,8.959,1.9,9.224,7.316c0.15,3.043-1.498,4.879-3.174,5.557c-2.126,0.861-4.282,0.129-5.121-0.18
		c0.031,1.164,0.045,1.775,0.063,3.084c0.561-0.025,2.615,0.002,4.664-0.826c3.672-1.488,6.7-5.268,6.425-9.869
		C340.156,376.338,331.589,380.844,331.278,376.119"/>
	<path fill="#999999" d="M340.022,368.818c0.021,0.295,0.029,0.439,0.05,0.725c2.543-0.498,2.619-0.41,2.846,2.064
		c0.583,6.369,1.021,8.172,1.184,17.104c1.174-0.447,1.761-0.666,2.935-1.098c-0.219-11.297-0.968-12.363-1.624-21.486
		C343.252,367.184,342.175,367.721,340.022,368.818"/>
	<path fill="#999999" d="M357.806,362.895c-1.977,0.588-4.148,0.893-6.114,1.52c0.023,0.281,0.036,0.418,0.061,0.695
		c1.062-0.15,2.032-0.404,2.154,0.783c0.021,0.205-0.16,1.318-0.264,1.854c-1.405,6.891-1.973,9.129-3.916,18.891
		c0.662-0.236,0.992-0.352,1.652-0.58c0.73-3.719,1.047-5.26,1.639-8.137c2.71-0.926,4.064-1.367,6.776-2.186
		c1.012,2.373,1.5,3.666,2.362,6.906c1.104-0.311,1.655-0.459,2.76-0.746C361.035,371.746,360.396,369.887,357.806,362.895
		 M353.349,376.326c0.818-3.887,1.728-6.408,2.479-10.078c1.494,3.096,2.347,5.039,3.387,8.182
		C356.866,375.148,355.695,375.529,353.349,376.326"/>
	<path fill="#999999" d="M366.095,364.354c0.734,5.928,1.279,7.887,1.42,16.893c4.224-1.008,6.33-1.424,10.518-1.988
		c0.022-2.49,0.003-3.588-0.069-5.623c-0.297,0.043-0.445,0.064-0.739,0.111c-0.018,2.748-0.739,3.779-2.243,4.037
		c-1.171,0.201-1.758,0.313-2.932,0.545c-1.32,0.266-1.651,0.189-1.747-1.838c-0.152-3.229-0.285-4.547-0.569-7.094
		c1.286-0.297,1.932-0.439,3.221-0.705c1.598-0.328,2.289,0.461,2.431,2.139c0.299-0.053,0.449-0.08,0.746-0.131
		c-0.221-2.615-0.367-3.742-0.65-6.039c-0.3,0.057-0.449,0.086-0.748,0.143c-0.05,0.932-0.091,2.176-1.932,2.559
		c-1.289,0.268-1.933,0.41-3.222,0.711c-0.266-2.213-0.416-3.23-0.68-5.455c-0.162-1.342,0.175-1.561,1.51-1.852
		c0.833-0.18,1.251-0.27,2.086-0.438c1.768-0.361,2.956,0.064,3.222,2.25c0.3-0.053,0.451-0.08,0.75-0.135
		c-0.228-1.611-0.342-2.418-0.538-4.16c-5.162,0.902-7.718,1.482-12.79,2.801c0.024,0.27,0.038,0.4,0.064,0.664
		C365.685,361.561,365.758,361.621,366.095,364.354"/>
	<path fill="#999999" d="M263.123,282.033c-0.521-1.092-3.017-5.9-3.745-6.912c-0.326-0.455-0.608-0.941-0.958-1.377
		c-1.234-1.545-1.031-3.166-0.875-3.611c0.516-1.48,1.351-3.963,2.825-9.848c0.715-2.854,0.8-4.357,0.859-4.865
		c0.255-2.18,0.415-3.553,0.199-5.394c-0.135-1.127-0.407-3.264-1.755-5.628c-1.397-2.457-3.17-3.781-3.546-4.055
		c-0.488-0.355-1.363-0.982-2.669-1.456c-0.354-0.128-2.156-0.759-4.583-0.552c-3.127,0.268-5.261,1.754-6.057,2.323
		c-0.493,0.353-2.383,1.756-3.824,4.33c-1.398,2.491-1.622,4.732-1.755,6.218c-0.157,1.771-0.366,4.115,0.759,6.736
		c0.857,1.994,2.168,3.404,2.629,3.893c0.659,0.695,1.281,1.213,1.753,1.574c0.301-0.508,0.782-1.213,1.507-1.932
		c1.584-1.566,2.4-1.836,3.835-1.895c0.561-0.023,1.414,0.217,1.96,0.469c0.091,0.041,0.167,0.141,0.254,0.209
		c0.458-0.926,0.583-2.9,0.583-3.859c0-1.377-0.062-2.213-0.394-2.949c-0.156-0.346-0.374-0.686-0.377-0.688
		c-0.258-0.396-0.547-0.844-1.022-1.166c-0.219-0.146-0.376-0.203-0.542-0.262c-0.272-0.098-0.641-0.229-0.947-0.664
		c-0.462-0.664-0.369-1.384-0.335-1.657c0.147-1.146,0.975-1.825,1.29-2.045c0.016-0.01,0.025-0.016,0.041-0.025
		c0.384-0.215,1.422-0.689,2.677-0.357c1.073,0.28,1.663,0.985,1.883,1.251c0.757,0.901,0.928,1.873,1.029,2.71
		c0.127,1.053,0.337,3.873-0.456,7.32l-0.05,0.223c-0.146,0.652-0.326,1.459-0.827,2.32c-0.215,0.371-0.385,0.623-0.523,0.828
		c-0.096,0.143-0.197,0.229-0.213,0.328c-0.326,2.074-0.301,15.223-0.167,17.35c0.049,0.756,0.119,8.934,0.2,10.744
		c0.015,0.369,0.05,1.576-0.64,2.051c-0.457,0.314-1.053,0.258-1.224,0.236c-0.798-0.086-1.344-0.576-1.554-0.77
		c-2.997-2.768-4.375-7.084-4.375-7.084c-0.787-2.469-1.682-5.982-2.076-10.383c-3.082,3.891-5.625,8.705-7.152,14.422
		c-1.309,4.904-0.615,9.625,0.396,13.932c0.002,0.01,0.304,1.355,0.591,2.58c0.824-0.213,1.734-0.264,2.582-0.131
		c0.035-0.053,0.065-0.105,0.112-0.154c0.012-0.014,0.026-0.027,0.042-0.043c0.391-0.361,0.984-0.975,1.611-1.623l0.017-0.016
		c1.185-1.225,2.525-2.609,3.443-3.316c0.314-0.24,0.781-0.232,1.086,0.014c0.312,0.252,0.405,0.695,0.222,1.051
		c-0.056,0.107-0.288,0.404-0.584,0.779c-0.162,0.205-0.336,0.426-0.494,0.635c0.046-0.043,0.093-0.088,0.142-0.133
		c0.414-0.381,0.843-0.775,0.979-0.865c0.266-0.176,0.631-0.15,0.867,0.059l0.042,0.039c0.221,0.232,0.259,0.582,0.09,0.854
		c-2.716,4.328-3.804,5.779-4.331,6.27c0.004,0.117,0.005,0.225,0.005,0.307c-0.001,0.975-0.273,1.732-0.452,2.234
		c-0.26,0.729-0.559,1.242-0.873,1.787c-0.194,0.334-0.413,0.662-0.626,0.979c-0.576,0.861-1.123,1.676-1.264,2.707
		c-0.121,0.871,0.114,1.695,0.36,2.568c0.106,0.371,0.215,0.754,0.293,1.139c0.138,0.684,0.25,1.727,0.272,2.92
		c0.444,0.193,0.919,0.383,1.426,0.564c0.382,0.135,0.75,0.254,1.108,0.359c0.709-1.387,1.57-2.641,2.518-3.582
		c1.434-1.424,1.471-2.48,1.213-4.555c-0.058-0.461-0.159-0.9-0.261-1.326c-0.246-1.043-0.499-2.125-0.049-3.422
		c0.256-0.744,0.693-1.416,1.19-2.076c0.565-0.748,1.497-1.477,1.793-1.701c0.031-0.516,0.276-2.199,0.527-3.604
		c0.569-3.199,0.833-3.637,1.58-3.691l0.063-0.004c0.745,0,0.967,0.297,1.835,3.691c0.279,1.084,0.679,2.77,0.775,3.365
		c0.257,0.469,0.513,0.939,0.774,1.412c0.167,0.305,0.334,0.604,0.501,0.902c0.475,0.869,0.597,1.604,0.63,2.076
		c0.045,0.678,0.014,1.404-0.414,2.734c-0.173,0.531-0.336,1.035-0.384,1.561c-0.115,1.221,0.314,2.648,1.207,4.016
		c0.205,0.314,0.449,0.639,0.769,1.02c1.051,1.246,2.047,2.518,2.812,3.973c0.275-0.047,0.578-0.119,0.701-0.145
		c0.244-0.055,0.657-0.178,1.049-0.311l0.028-0.004c-0.012-1.754,0.255-3.395,0.44-4.32c0.08-0.385,0.188-0.768,0.293-1.141
		c0.249-0.871,0.481-1.695,0.362-2.566c-0.143-1.029-0.688-1.846-1.266-2.707c-0.212-0.316-0.432-0.645-0.624-0.979
		c-0.316-0.545-0.666-1.039-0.872-1.785c-0.362-1.299-0.24-2.398,0.005-3.234c-0.462-0.572-1.342-2.043-3.309-5.842
		c-0.103-0.197-0.053-0.436,0.119-0.576c0.089-0.07,0.196-0.105,0.301-0.105c0.105,0,0.208,0.035,0.295,0.102
		c0.374,0.293,0.998,0.92,1.672,1.65c-0.568-1.02-1.071-1.955-1.229-2.332c-0.112-0.271-0.02-0.582,0.223-0.748
		c0.108-0.076,0.234-0.111,0.361-0.111c0.153,0,0.308,0.053,0.427,0.162c0.849,0.773,2.064,2.256,3.139,3.563
		c0.407,0.496,0.796,0.969,1.119,1.346c0.632-0.084,1.309-0.049,1.979,0.098c0.001-0.023,0.001-0.039,0.002-0.063
		c0.002-0.115,0.205-0.768,0.465-1.537C264.908,301.885,268.119,292.521,263.123,282.033 M245.127,259.111
		c-0.18,0.59-0.726,0.998-1.325,0.998c-0.268,0-0.532-0.08-0.764-0.232c-1.748-1.148-2.886-2.986-3.04-4.912
		c-0.082-1.02,0.185-1.988,0.792-2.879c0.085-0.125,0.177-0.248,0.267-0.371c0.252-0.34,0.488-0.66,0.491-0.916
		c0.008-0.748,0.611-1.335,1.375-1.335c0.382,0,0.752,0.15,1.016,0.414c0.258,0.258,0.399,0.604,0.396,0.978
		c-0.007,0.607-0.197,1.119-0.438,1.564c0.779,0.457,1.438,1.381,1.379,2.66c-0.031,0.662-0.473,2.084-0.625,2.559
		C245.102,257.988,245.295,258.564,245.127,259.111 M246.859,298.537c-0.382,0.398-0.881,0.609-1.446,0.609
		c-0.115,0-0.229-0.008-0.343-0.025c-0.743-0.105-1.23-0.541-1.608-1.09c-1.309-1.891,1.865-6.189,2.313-6.588
		c0.172-0.154,0.398-0.236,0.625-0.236c0.099,0,0.195,0.014,0.287,0.047c0.316,0.102,0.553,0.367,0.619,0.688
		C247.693,293.826,248.148,297.191,246.859,298.537 M252.374,298.955c-0.368,0.338-0.854,0.525-1.365,0.525
		c-0.082,0-0.169-0.006-0.255-0.016c-0.694-0.082-1.368-0.49-1.758-1.068c-0.964-1.42-0.435-2.842-0.011-3.984
		c0.192-0.521,0.374-1.008,0.424-1.457c0.042-0.367,0.339-0.65,0.708-0.68c0.609-0.047,0.971,0.436,1.146,0.67
		c0.039,0.055,0.067,0.094,0.095,0.123c0.42,0.439,1.529,2.078,1.696,2.898C253.256,296.961,253.125,298.27,252.374,298.955
		 M257.618,298.656c-0.079,0.023-0.156,0.041-0.237,0.057c-0.925,0.16-1.896-0.264-2.42-1.057c-0.667-1.012-0.895-2.152-1.095-3.16
		c-0.173-0.869-0.336-1.686-0.738-2.379c-0.206-0.357-0.133-0.818,0.175-1.094c0.307-0.277,0.777-0.303,1.118-0.068
		c0.773,0.539,4.644,3.354,4.602,5.898C259.008,297.711,258.457,298.418,257.618,298.656"/>
	<path fill="#999999" d="M422.019,300.275c-2.32-3.016-7.132-4.057-10.338-1.994c-0.534-2.498-3.964-19.748-4.777-26.299
		c20.188-2.355-12.286-33.586-13.252-12.904c-5.926,0.039-21.242-0.803-24.897-0.971c3.962-8.869-6.762-13.762-13.265-7.974
		c-1.491-1.095-9.442-6.605-14.033-9.826c-0.002-8.079-0.008-16.276-0.015-24.224c14.129,1.771,26.948,0.346,40.109-5.975
		c4.472,7.599,13.103,3.609,11.619-3.453c7.724-6.438,20.446-17.465,24.696-26.643c1.478-3.212-2.001-5.459-4.702-3.497
		c1.162-2.107,1.358-5.593-2.11-5.986c0.685-2.353-1.052-6.751-4.033-5.384c0.589-2.196-1.929-5.088-4.112-4.258
		c0.591-1.176-0.665-8.584-4.744-6.264c0.107-2.459-3.185-6.766-6.156-5.383c0.118-2.363-0.524-5.301-4.502-5.746
		c-2.337,0-3.229,3.52-4.258,7.596c-2.027,7.648-6.516,14.975-11.301,21.301c-4.683-2.371-12.571,4.271-8.782,8.594
		c-3.529,3.117-12.753,5.455-21.756,6.076c-0.011-14.992-0.029-22.916,0.025-27.86h-45.401c6.436-4.624,27.879-20.085,34.02-24.306
		c0.187,0.328,3.909,5.508,5.763,7.909c1.707-1.177,4.899-3.333,6.144-4.241c0.813,1.137,1.972,2.812,3.118,4.505
		c-1.219,0.858-4.889,3.442-6.046,4.259c1.749,2.423,9.561,13.242,11.31,15.666c2.018-1.42,5.437-3.828,7.454-5.249
		c-0.813-1.125-4.76-6.595-5.653-7.831l5.012-3.529c0.916,1.271,4.816,6.674,5.653,7.83c2.329-1.641,8.407-5.922,10.737-7.564
		c-1.744-2.426-6.354-8.995-8.985-12.371c-1.104,0.779-4.643,3.271-5.802,4.089l-4.061-5.626c2.13-1.525,3.979-2.805,5.889-4.064
		c-0.821-1.141-3.299-4.57-4.157-5.762c2.414-1.697,4.523-3.184,5.924-4.173c1.182,1.79,2.854,3.915,4.358,5.56
		c1.952-1.38,5.237-3.699,6.246-4.407c1.026,1.434,2.557,3.564,4.052,5.616c-1.239,0.871-5.235,3.687-6.404,4.51
		c1.723,2.386,7.227,10.01,8.95,12.396c2.361-1.664,8.923-6.285,11.284-7.948c-0.804-1.123-4.738-6.617-5.622-7.852l4.104-2.892
		c1.01,1.36,4.959,6.675,5.89,7.928l7.753-5.582c-1.799-2.492-9.572-13.261-11.378-15.763c-1.151,0.812-5.906,4.159-7.145,5.032
		l-3.231-4.477c1.267-0.895,5.967-4.205,7.145-5.033c-0.813-1.125-4.806-6.655-5.697-7.893c1.165-0.855,3.314-1.873,2.761-3.688
		c-0.319-1.457-5.169-7.652-6.616-8.105c-0.901-0.373-1.852,0.242-1.878,0.293l-84.562,59.688
		c-0.604-3.441-2.047-12.135-2.983-18.027h18.399c1.343,0,2.434-1.078,2.434-2.404c0.325-2.125-1.165-3.623-3.324-3.301v-1.715
		c3.586-0.273,3.585-5.752,0-6.024V99.909c-0.465,0.819-1.537,2.724-2.043,3.604c-0.183-2.163-0.655-4.76-1.207-6.721
		c3.756,0.777,4.429-5.61,0.708-5.707c-0.684,0.011-3.174-0.006-3.815,0.001v-1.384c3.998,0.055,3.995-6.144,0-6.088V71.947
		c-1.267,2.111-2.185,4.021-3.522,6.504c-0.788-3.51-2.006-6.842-3.629-9.941c1.695-0.109,2.444-1.768,2.233-3.282
		c0.047-2.854-3.536-2.419-5.466-2.398c-0.006,0-0.011,0-0.018,0c3.332-0.278,3.618-5.304,0.349-5.947
		c-0.019-0.257-0.031-10.35-0.031-10.35c-1.121,1.974-2.101,3.856-3.261,6.054c-3.37-6.801-17.044-19.758-29.797-21.996
		c-0.208-3.11-2.031-5.342-3.284-5.735v-0.359v-7.86h5.269v-6.503h-5.269V4.424h-7.946v5.707h-5.27v6.503h5.27v7.86v0.359
		c-1.211,0.481-2.895,2.338-3.251,5.559c-10.559,2.008-21.327,9.815-29.759,22.31c-1.128-2.109-1.938-3.758-3.031-5.584v9.678
		c-3.47,0.395-3.396,5.717,0.084,6.013c-0.026,0-2.539,0-2.635,0c-0.789,0-2.851,0.493-2.914,2.399
		c-0.223,1.546,0.578,3.238,2.322,3.289c-0.354,0.894-2.711,6.384-3.708,9.961c-1.347-2.498-2.262-4.411-3.534-6.533v11.72
		c-4.624-0.753-4.622,6.743,0,5.989v1.433c-0.625-0.011-3.142,0.007-3.815,0c-3.722,0.096-3.049,6.483,0.707,5.706
		c-0.557,1.986-1.03,4.6-1.211,6.787c-0.395-0.813-1.61-2.9-2.037-3.667v14.747c-4.451-0.579-4.45,6.594,0,6.015v1.72
		c-2.159-0.321-3.653,1.175-3.325,3.301c0,1.326,1.092,2.404,2.434,2.404h18.068c-0.808,5.703-2.119,14.488-2.74,18.027
		L123.25,86.439c-0.027-0.051-0.978-0.666-1.879-0.293c-1.448,0.453-6.296,6.648-6.615,8.105c-0.547,1.814,1.586,2.834,2.762,3.688
		c-0.919,1.271-4.865,6.736-5.697,7.893c1.15,0.811,5.904,4.158,7.144,5.033l-3.233,4.477c-1.268-0.893-5.966-4.203-7.144-5.032
		c-1.806,2.503-9.577,13.269-11.379,15.763l7.754,5.582c0.908-1.222,4.904-6.6,5.89-7.928l4.104,2.892
		c-0.909,1.271-4.795,6.696-5.623,7.852c2.362,1.663,8.923,6.284,11.284,7.948c1.723-2.385,7.227-10.01,8.949-12.396
		c-1.147-0.809-5.187-3.652-6.402-4.51c1.494-2.052,3.024-4.183,4.051-5.616c1.001,0.704,4.3,3.032,6.248,4.407
		c1.503-1.645,3.177-3.769,4.356-5.56c1.402,0.989,3.509,2.476,5.924,4.173c-0.871,1.209-3.323,4.605-4.158,5.762
		c1.911,1.26,3.761,2.539,5.891,4.064l-4.062,5.626c-1.179-0.831-4.68-3.298-5.802-4.089c-2.64,3.386-7.232,9.933-8.985,12.371
		c2.33,1.643,8.408,5.924,10.74,7.564c0.812-1.125,4.76-6.594,5.651-7.83l5.012,3.529c-0.918,1.271-4.818,6.676-5.653,7.831
		c2.017,1.421,5.436,3.829,7.453,5.249c1.748-2.423,9.561-13.242,11.31-15.666c-1.139-0.803-4.848-3.415-6.044-4.259
		c1.145-1.693,1.833-2.688,2.646-3.825c1.245,0.908,4.352,2.935,6.058,4.111c1.868-2.425,6.111-8.102,6.317-8.459l33.59,23.602
		c0.165,0.112,0.764,0.501,0.835,0.704h-45.807c0.057,4.913,0.038,12.786,0.026,27.662c-9.184-0.581-19.725-2.737-23.28-5.878
		c3.79-4.323-4.099-10.965-8.783-8.594c-4.786-6.33-9.271-13.648-11.3-21.301c-1.03-4.076-1.921-7.596-4.258-7.596
		c-3.977,0.447-4.62,3.381-4.501,5.746c-2.977-1.379-6.261,2.918-6.158,5.383c-4.077-2.324-5.334,5.092-4.743,6.264
		c-2.185-0.83-4.699,2.061-4.112,4.258c-2.98-1.366-4.717,3.031-4.031,5.384c-3.473,0.397-3.272,3.876-2.112,5.986
		c-2.698-1.953-6.185,0.277-4.701,3.497c4.266,9.194,16.955,20.188,24.695,26.643c-1.481,7.063,7.147,11.051,11.621,3.453
		c13.642,6.564,26.948,7.842,41.634,5.729c-0.009,8.021-0.016,16.297-0.017,24.455c-4.588,3.219-12.563,8.745-14.056,9.841
		c-6.508-5.794-17.225-0.886-13.264,7.974c-3.669,0.168-18.961,1.01-24.897,0.971c-0.968-20.682-33.439,10.551-13.251,12.904
		c-0.813,6.551-4.243,23.801-4.779,26.299c-5.338-3.492-13.447,1.865-11.806,8.133c1.257,5.117,12.288,16.078,17.851,16.082
		c4.547,0.219,9.053-5.627,6.938-9.936c1.379-0.449,6-1.209,6.229-1.256c10.534,17.932,50.529,36.838,68.873,48.256
		c1.438,0.57,3.836,1.068,4.644-0.693c2.007-2.459,6.218-5.57,3.404-9.031c2.021-1.021,3.345-4.066,2.481-5.789
		c2.597-1.295,2.718-3.309,1.423-5.717c0.954-0.727,2.167-2.482,0.936-3.709c-0.534-0.633-1.137-1.492-2.042-1.574
		c-4.723-0.736-9.409-1.799-13.939-2.826c-7.969-1.809-16.205-3.676-24.886-3.818c-1.386-0.631-3.216-1.697-5.394-3.121l0.01-0.035
		c-3.429-2.137-7.204-4.994-11.867-8.584c9.01,4.096,25.381-17.197,10.795-19.219l0.497-3.123c3.74,2.229,12.922,1.389,17.735-0.824
		c9.976,33.211,27.883,38.025,89.735,69.43c61.978-31.514,79.604-36.041,89.737-69.424c4.785,2.211,14.008,3.043,17.714,0.818
		l0.498,3.123c-14.586,2.021,1.783,23.313,10.795,19.219c-4.663,3.59-8.438,6.447-11.869,8.584l0.013,0.035
		c-2.178,1.424-4.009,2.49-5.395,3.121c-8.682,0.143-16.917,2.01-24.885,3.818c-4.531,1.027-9.217,2.09-13.939,2.826
		c-0.901,0.078-1.519,0.943-2.043,1.574c-1.212,1.219-0.042,2.994,0.936,3.709c-1.296,2.412-1.171,4.422,1.422,5.717
		c-0.861,1.723,0.463,4.766,2.482,5.789c-2.79,3.455,1.377,6.578,3.406,9.031c0.806,1.762,3.202,1.266,4.641,0.691
		c18.329-11.408,58.327-30.311,68.875-48.254c0.228,0.047,4.848,0.807,6.229,1.256c-2.159,4.436,2.58,10.391,7.272,9.928
		C412.773,321.072,428.502,308.184,422.019,300.275 M110.978,144.789c1.968-0.432,3.072,7.133,4.011,9.6
		c2.486,6.529,6.581,13.612,10.79,18.92C124.899,183.428,98.848,146.47,110.978,144.789 M105.16,150.263
		c1.048-0.508,0.886,0.044,1.93,3.248c3.195,8.826,12.473,21.535,15.357,23.524c0.291,0.952-1.129,3.03-1.7,3.007
		c-6.923-3.925-14.969-16.877-15.816-18.288C103.625,159.76,98.38,153.546,105.16,150.263 M98.435,155.671
		c0.52-0.167,1.442-0.659,2.485,1.507c1.263,2.622,6.023,10.896,10.34,15.962c1.982,2.326,5.108,6.275,7.065,7.916
		c1.805,1.516,1.411,1.961,0.663,3.154c-1.74,1.988-2.898,0.024-4.056-0.857c-5.226-4.973-10.048-7.707-17.736-21.424
		C95.776,159.393,98.091,155.453,98.435,155.671 M95.331,162.146c9.845,14.567,9.489,15.041,21.24,24.838
		c1.279,0.965-1.03,3.389-2.868,2.117c-2.409-1.574-13.428-12.193-18.175-19.637C93.063,165.598,91.989,162.601,95.331,162.146
		 M90.211,166.184c1.504-0.315,2.527,2.054,3.123,2.95c8.137,12.232,10.016,13.158,19.709,22.691
		c0.587,8.205-15.671-10.021-16.621-11.411c-0.352-0.265-4.768-5.415-7.083-9.259C88.312,169.451,88.638,167.519,90.211,166.184
		 M86.694,172.191c1.362-0.791,1.373-0.222,1.628,0.117c5.591,7.434,9.907,12.986,16.779,19.461
		c0.584,0.549,6.359,4.953,5.198,6.014c-1.011,1.755-2.93,0.48-3.843-0.138C102.24,194.2,83.239,177.865,86.694,172.191
		 M106.401,204.896c-4.686-1.477-26.835-23.109-24.012-27.613c0.612-0.628,2.473,0.05,3.107,0.877
		c4.123,5.375,7.751,10.172,12.88,14.793C101.061,196.126,110.702,200.914,106.401,204.896 M115.572,208.594
		c-4.701,7.564-10.253,1.321-7.402-2.848c3.006-4.392,19.243-31.172,19.243-31.172c1.453-2.063,7.871,1.501,6.779,4.495
		l-16.554,25.896C117.638,204.966,116.007,207.896,115.572,208.594 M158.568,213.738c-14.065,2.17-27.875,0.664-40.374-5.433
		c-0.488,0.31,15.735-24.843,16.145-25.53c4.91,3.973,17.209,5.73,24.422,6.193C158.873,196.046,158.245,208.94,158.568,213.738
		 M158.719,256.945c0.018,7.279-0.008,13.936,0.051,20.455c-3.66,2.943-10.754,2.471-14.494,1.324l0.87-6.898
		c7.358,2.963,14.171-5.67,9.093-11.98C153.932,259.926,156.544,258.266,158.719,256.945 M158.503,243.473l-0.097,10.031
		c0,0.275-3.703,2.502-5.863,4.031c-1.889-2.318-3.699-3.932-5.96-5.842C150.032,249.211,154.888,246.066,158.503,243.473
		 M135.99,250.036c6.455-1.91,14.736,8.212,17.412,12.796c1.366,4.23-1.548,7.35-5.23,7.35c-4.133,0.531-11.142-8.34-13.747-10.941
		C132.421,256.258,131.898,251.234,135.99,250.036 M106.951,295.266c-0.264,0.803-0.451,1.609-0.604,2.418l-4.251,0.621
		c0.665-5.172,2.818-17.148,4.579-26.355l24.816-0.744c-0.311,1.912-0.668,7.332-0.81,7.359
		C114.564,281.715,108.881,289.385,106.951,295.266 M128.986,287.158c-1.619-1.014-4.641-2.697-2.675-5.285
		c1.493-0.439,2.685-0.932,4.397-1.266c-0.193,1.076-0.986,7.717-1.343,9.689c-0.008,0.006-0.013,0.006-0.021,0.008
		C129.731,288.57,129.411,287.66,128.986,287.158 M119.445,292.943c-3.024-0.131-5.56,0.098-6.391-3.604
		c0.818-0.867,1.747-1.699,2.804-2.488c0.289,6.592,7.339,0.357,6.585,6.379c-0.284,0.203-0.699,0.523-1.16,0.967
		C120.824,293.682,120.23,293.195,119.445,292.943 M119.959,295.76c-0.553,0.77-1.103,1.865-1.378,2.844
		c-2.771-3.092-6.921,1.225-9.831-1.551c0.464-1.82,1.244-3.604,2.379-5.297C114.074,295.615,117.427,293.258,119.959,295.76
		 M123.454,284.467c1.228,4.016,4.6,2.154,3.948,6.473c-0.825,0.289-1.808,0.668-2.815,1.139c0.145-6.623-7.139-1.389-7.087-6.352
		c1.771-1.115,3.817-2.127,6.194-2.994C123.365,283.561,123.411,284.205,123.454,284.467 M128.928,292.74
		c-0.204,1.145-0.39,2.201-0.545,3.104c-2.304,0.186-4.877,0.508-6.591,0.736C122.658,295.551,124.613,294.17,128.928,292.74
		 M108.345,299.174c3.381,2.729,7.689-1.811,9.824,2.314c0.022,1.055,0.072,1.469,0.245,2.225
		c-3.707-2.557-6.451,2.346-10.123-0.389C108.164,301.949,108.169,300.559,108.345,299.174 M110.07,310.139
		c-0.562-1.289-1.007-2.639-1.327-4.021c3.863,2.049,6.071-2.305,10.163-0.686c0.438,1.133,1.014,2.08,1.589,2.84
		C114.591,306.932,113.592,311.414,110.07,310.139 M113.86,316.164c-0.792-0.922-1.546-1.906-2.21-2.986
		c5.135-0.992,4.444-3.967,10.564-3.02c0.704,0.6,1.424,1.375,2.499,2.197C116.548,311.984,118.425,317.775,113.86,316.164
		 M124.69,309.459l3.542-0.645c0.272,2.16,0.714,3.621,1.979,4.98C128.768,312.725,124.792,309.578,124.69,309.459 M116.133,318.488
		c1.566,0.025,3.834-2.025,4.357-3.205c0.343-1.426,7.152-1.979,9.275,0.955c-5.849-0.182-5.617,3.795-11.026,4.467
		C117.954,320.066,117.007,319.275,116.133,318.488 M139.354,335.234c3.343-3.928,4.388-1.758,7.546-3.086
		c-0.546,2.789-4.905,3.186-6.248,3.902C140.22,335.777,139.783,335.512,139.354,335.234 M187.053,335.203l0.693,0.818
		c-0.396,0.291-0.688,0.578-0.907,0.857l-18.194-0.881l17.75,3.023c1.09,2.359,1.024,2.203-1.258,3.74l-18.087-2.525l17.997,4.793
		c0.761,1.902-2.582,3.309-3.089,4.258l-16.193-6.08l17.422,8.73c0.473,1.197-0.422,1.9-1.277,2.879l-15.929-8.191l14.305,9.84
		c-0.452,0.488-0.85,0.975-1.085,1.461c-7.197-2.574-13.599-7.668-20.519-11.127c2.421-2.846,8.769-11.359,7.874-15.852
		C173.321,332.375,180.04,334.111,187.053,335.203 M164.226,330.461c1.053,4.352-5.272,12.344-7.732,15.076
		c-0.873-0.502-1.746-1.004-2.616-1.508c2.521-2.635,8.582-9.947,8.093-13.973C162.722,330.191,163.477,330.313,164.226,330.461
		 M159.345,329.598c0.764,3.619-5.464,10.502-7.974,12.979c-1.022-0.602-2.028-1.227-3.046-1.834
		c2.812-1.895,8.644-7.42,8.025-11.549C157.352,329.318,158.353,329.441,159.345,329.598 M149.28,333.27
		c1.032-2.604,1.144-3.424,1.104-4.613c1.13,0.049,2.24,0.158,3.354,0.258c0.717,3.732-4.98,8.67-7.884,10.338
		c-0.921-0.559-1.854-1.1-2.769-1.668C144.156,336.609,148.171,336.063,149.28,333.27 M147.813,328.449
		c-2.735,3.9-7.767,1.184-10.448,5.492c-0.416-0.273-0.825-0.557-1.24-0.836c4.023-2.518,4.28-5.482,9.903-5.549
		C146.661,327.902,147.262,328.205,147.813,328.449 M142.191,325.258c0.483,0.313,0.954,0.609,1.418,0.895
		c-4.518,0.717-5.399,4.176-9.381,5.68c-0.501-0.342-1.011-0.67-1.509-1.016C137.706,329.672,135.615,323.697,142.191,325.258
		 M135.603,320.666c1.077,0.793,2.157,1.568,3.229,2.32c-5.505,1.26-2.785,5.775-8.63,6.066c-1.277-0.914-2.824-2.027-4.482-3.219
		C132.129,325.398,129.651,320.348,135.603,320.666 M131.611,317.666c0.48,0.371,0.98,0.748,1.477,1.121
		c-5.132,0.885-2.718,5.486-9.904,5.227c-0.659-0.473-1.32-0.943-1.973-1.41c2.313-0.361,3.262-2.916,4.936-3.529
		C127.296,318.938,130.151,318.156,131.611,317.666 M139.433,297.979c18.408-2.871-9.529,28.256-9.1,8.652l-7.384,1.127
		c-1.61-2.021-2.99-6.066-1.919-8.869c1.802-0.254,6.749-0.924,9.245-0.967c0.971-6.01,3.679-29,3.679-29l-29.134,0.975
		c0,0-5.403,27.941-5.128,30.967l6.35-0.928c-0.217,2.973,0.018,6.525,0.902,9.264c-2.331,0.543-6.056,0.961-8.648,1.602
		c3.46,2.852,0.549,9.512-3.783,9.512c-4.502-0.029-14.671-10.197-15.695-14.385c-0.925-6.619,6.906-8.193,11.172-4.289
		c1.913-10.328,4.677-22.762,5.328-31.768c-18.941,0.975,10.18-27.956,9.377-9.016l26.797-0.85l11.48,11.199
		C142.972,271.205,140.3,291.512,139.433,297.979 M147.538,289.748c-0.149,0.428-0.39,1.059-0.932,1.516
		c-1.686-0.279-2.787-0.803-3.781-1.064c0.761-4.99,0.996-7.467,1.217-9.406c1.137,0.223,1.408,0.141,2.506,0.342
		C144.044,286.262,148.993,285.889,147.538,289.748 M152.734,291.369c-1.293,0.293-2.599,0.299-3.936,0.18
		c3.288-6.633-2.34-4.529-0.27-10.07c0.802,0.131,1.543,0.238,2.196,0.313c0.755,7.213,3.711,3.627,5.659,8.635
		C155.132,290.781,153.865,291.113,152.734,291.369 M158.504,289.791c-1.631-5.502-5.842-3.146-5.524-7.9
		c3.82-0.744,5.158-1.842,5.78-2.24c0.163,2.318,0.179,5.588,0.873,9.807C159.633,289.457,158.691,289.926,158.504,289.791
		 M385.502,105.512l-7.118,5.069l5.742,7.869l7.119-5.067l8.903,12.2c0,0-2.925,2.096-4.357,3.104l-5.801-7.725l-7.51,5.348
		l5.662,7.822l-7.798,5.554l-6.526-8.942l6.39-4.55c-2.914-3.921-6.568-9-6.568-9s-1.043,0.734-6.389,4.55
		c-1.877-2.127-4.158-5.699-4.158-5.699s-4.268,3.049-9.427,6.713l4.158,5.699c-1.704,1.152-5.828,4.15-5.828,4.15l6.567,9
		l5.829-4.15c1.238,1.602,6.524,8.942,6.524,8.942l-7.26,5.169l-5.692-7.802l-8.443,6.012l5.694,7.802l-3.977,2.831l-9.372-12.666
		l5.965-4.249c0,0-4.779-7.31-5.208-7.451c-2.323,1.745-2.071,1.551-6.032,4.295c-2.801-3.688-4.614-6.324-4.614-6.324
		c1.219-0.87,3.185-2.275,5.644-4.034c5.94-4.247,14.772-10.567,22.998-16.437c5.128-3.658,10.02-7.142,13.826-9.838
		c2.9-2.054,5.172-3.652,6.438-4.522L385.502,105.512z M378.157,88.148c0,0,4.811,5.709,5.084,6.964
		c0.098,0.447-91.212,64.09-91.212,64.09h-14.512L378.157,88.148z M290.406,146.991l-16.419,11.985h-7.185
		c-1.562-11.675-3.11-19.535-2.658-30.877h23.188C287.909,131.914,289.374,141.945,290.406,146.991 M238.257,128.099h23.659
		c-0.537,10.241,1.335,19.848,2.393,31.103h-28.448C236.921,147.934,238.792,138.351,238.257,128.099 M245.589,27.442
		c0.281-0.546,0.996-1.247,2.062-1.247c0.144,0,4.951,0,5.109,0c1.135,0,1.869,1.184,1.925,1.27c0,0,0,0,0.001,0.001
		c0.334,0.597,0.628,1.462,0.888,2.72c0,0-5.616-0.989-10.888,0C244.675,30.187,245.277,28.047,245.589,27.442 M215.36,52.875
		c20.661-30.426,51.897-26.327,70.275,1.027c-2.996,5.563-3.778-0.227-5.943-2.705c-1.078,1.415-1.754,4.627-3.685,5.162
		c-2.599-2.306-4.16-7.359-6.096-10.178c-1.99,2.789-3.438,8.061-6.213,10.188c-1.509-0.81-2.605-3.805-3.654-5.203
		c-1.043,1.398-2.145,4.392-3.65,5.203c-2.775-2.125-4.214-7.395-6.214-10.178c-1.93,2.799-3.5,7.846-6.071,10.139
		c-1.845-0.414-2.586-3.813-3.878-5.133c-1.079,1.415-1.754,4.626-3.686,5.162c-2.6-2.306-4.159-7.359-6.096-10.178
		c-1.99,2.79-3.438,8.061-6.213,10.188c-1.509-0.811-2.604-3.805-3.651-5.203c-0.848,1.404-2.223,3.803-3.235,5.054
		c-1.259,0.624-1.945-1.659-2.693-2.391C214.781,53.535,215.36,52.875,215.36,52.875 M211.34,62.806
		c2.788-0.6,3.092-4.872,0.363-5.814l-0.06-4.625c0.311,0.561,0.621,1.143,0.934,1.717c0.254,0.468,0.511,0.931,0.769,1.375
		c0.291,0.498,0.586,0.973,0.886,1.401c1.311,1.87,2.728,2.853,4.416,1.169c0.593-0.594,1.22-1.508,1.886-2.838
		c0.691,1.429,1.353,2.379,1.985,2.959c1.58,1.453,2.98,0.559,4.247-1.182c0.925-1.273,1.779-2.993,2.582-4.576
		c0.026-0.056,0.055-0.111,0.083-0.166c0.302-0.594,0.595-1.162,0.882-1.68c0.029-0.053,0.06-0.108,0.089-0.16l0,0
		c2.282,4.084,5.604,13.604,9.908,4.979c2.132,4.628,5.214,4.54,7.036,0.161c0.93-1.599,1.918-3.491,2.783-5.148
		c2.423,4.266,5.594,13.701,9.865,4.813c4.266,8.796,7.32-0.305,9.868-4.805c2.262,4.025,5.715,13.8,9.881,4.882
		c2.602,5.569,4.946,3.763,6.879,0.683c0.348-0.557,0.685-1.152,1.006-1.757c0.507-0.953,0.979-1.919,1.411-2.758v5.429
		c-3.269,0.657-2.957,5.725,0.376,5.964c-0.026,0.001-0.163-0.001-0.376,0c-0.27,0.001-18.084-0.002-18.733,0
		c3.743-0.325,3.453-6.129-0.344-6.058c-3.795-0.071-4.087,5.732-0.34,6.058h-19.117c3.745-0.325,3.455-6.13-0.342-6.058
		c-3.797-0.071-4.088,5.732-0.341,6.058h-19.118c3.746-0.325,3.456-6.13-0.341-6.058c-3.797-0.071-4.087,5.732-0.342,6.058h-18.801
		h-0.292C211.168,62.829,211.3,62.815,211.34,62.806 M206.237,65.677c0-1.311,1.417-1.217,1.782-1.217h85.157
		c1.203,0,1.079,2.431,0,2.431c-0.864,0-83.57,0.003-85.027,0C207.464,66.891,206.237,66.89,206.237,65.677 M208.688,69.556
		c0.105-0.295,0.24-0.606,0.456-1.027h82.001c1.047,0.543,4.464,11.217,4.464,11.217s-1.394,2.212-2.438,3.493
		c-0.317,0.556-1.395,0.737-1.842,0.296c-1.219-1.541-2.88-4.453-3.874-6.145c-1.174,1.527-2.817,5.926-4.625,6.455
		c-2.913-1.367-5.833-10.114-7.839-12.859c-1.984,3.453-4.46,8.896-6.784,12.307c-2.446,2.43-4.505-4.533-5.599-5.869
		c-1.589,1.682-2.469,6.064-4.904,6.37c-0.361-0.051-0.672-0.241-0.88-0.538c-2.29-3.399-4.776-8.718-6.695-12.223
		c-1.914,3.498-4.408,8.829-6.694,12.224c-0.207,0.296-0.519,0.486-0.878,0.536c-2.438-0.301-3.317-4.688-4.908-6.369
		c-1.063,1.28-3.148,8.305-5.598,5.869c-2.326-3.418-4.794-8.847-6.782-12.307c-2.007,2.747-4.922,11.482-7.838,12.859
		c-1.808-0.524-3.453-4.93-4.627-6.455c-3.002,4.738-4.649,10.478-7.724,1.971C205.844,76.271,208.66,69.625,208.688,69.556
		 M201.127,89.245c0.487-0.265,2.386-2.669,0.239-5.024l-0.208-7.063c0.378,0.682,0.758,1.396,1.138,2.108
		c0.947,1.778,1.908,3.553,2.925,4.848c1.487,1.895,3.095,2.748,4.954,1.042c0.813-0.745,1.674-1.974,2.594-3.823
		c0.886,1.822,1.724,3.043,2.521,3.795c1.898,1.789,3.558,0.89,5.062-1.07c1.068-1.393,2.058-3.316,2.996-5.192
		c0.649-1.301,1.275-2.577,1.887-3.635c0.395,0.694,0.813,1.518,1.25,2.393c1.012,2.021,2.137,4.325,3.375,6.021
		c1.418,1.939,2.987,3.066,4.708,2.052c0.109-0.068,0.222-0.132,0.322-0.215c0.003-0.003,0.007-0.007,0.011-0.011
		c0.904-0.671,1.85-1.938,2.838-4.014c0.917,1.987,1.807,3.232,2.667,3.922c0.324,0.262,0.644,0.447,0.959,0.557
		c0.024,0.007,0.048,0.019,0.071,0.025c1.533,0.479,2.961-0.724,4.271-2.568c1.25-1.76,2.389-4.099,3.407-6.135
		c0.354-0.705,0.692-1.377,1.016-1.971c0.424,0.76,0.862,1.638,1.321,2.556c0.992,1.984,2.071,4.157,3.245,5.774
		c1.572,2.166,3.313,3.314,5.233,1.654c0.825-0.715,1.686-1.938,2.578-3.84c1.104,2.234,2.137,3.547,3.106,4.186
		c1.708,1.126,3.224,0.154,4.594-1.659c1.129-1.495,2.161-3.556,3.117-5.479c0.594-1.193,1.16-2.334,1.702-3.247
		c0.353,0.643,0.721,1.378,1.107,2.152c1.019,2.041,2.158,4.369,3.405,6.107c1.308,1.82,2.731,2.994,4.261,2.497
		c0.001,0,0.002-0.001,0.003-0.003c0.279-0.09,0.562-0.241,0.847-0.449c0.02-0.012,0.036-0.021,0.054-0.036
		c0.034-0.024,0.069-0.06,0.102-0.087c0.876-0.703,1.782-1.98,2.72-4.027c0.836,1.744,1.632,2.924,2.396,3.67
		c0.607,0.594,1.194,0.912,1.761,0.998c0.033,0.004,0.067,0.013,0.101,0.017c1.221,0.126,2.35-0.798,3.412-2.206
		c1.171-1.552,2.26-3.691,3.298-5.675c0.221-0.419,0.438-0.831,0.653-1.228l0.04,6.789c-0.721,0.236-0.991,0.797-1.31,1.384
		c-0.504,0.931-0.504,2.122,0.001,3.052c0.318,0.588,0.589,1.094,1.309,1.33v1.455c-8.187-0.055-89.775-0.064-98.058-0.022V89.245z
		 M195.915,95.154c-0.463-0.002-0.722-0.391-0.749-0.656c-0.029-0.27-0.041-0.783-0.027-1.004c0,0,0-0.002,0-0.004c0,0,0,0,0-0.001
		c0-0.103,0-0.765,0.893-0.765h104.994c0.493-0.002,1.255-0.001,1.971,0c0.511,0,0.999,0,1.348,0l0,0
		c0.11-0.004,0.204,0.021,0.292,0.059c0.006,0.002,0.013,0.004,0.019,0.007c0.07,0.033,0.135,0.074,0.191,0.128
		c0.097,0.094,0.175,0.215,0.228,0.354c0.135,0.342,0.145,0.783,0.039,1.154c-0.076,0.27-0.212,0.5-0.403,0.626
		c-0.006,0.005-0.013,0.01-0.019,0.013c-0.028,0.017-0.058,0.027-0.088,0.039c-0.08,0.032-0.164,0.055-0.259,0.051l0,0
		c-0.663,0-1.461,0-2.225,0c-0.46,0-0.912,0-1.308,0C300.812,95.154,196.307,95.157,195.915,95.154 M291.618,107.458
		c-0.008,0.002-0.016,0.012-0.023,0.016l-0.011-0.016l-0.02,0.035c-0.17,0.158-1.014,1.889-1.094,2.043
		c-0.05,0.097-0.058,0.127,0.005,0.017c-0.613,1.256-3.036,7.01-4.999,4.337c-0.299-0.437-0.733-0.793-1.034-1.283
		c-0.051-0.082-0.104-0.166-0.153-0.252c-0.004-0.005-0.007-0.01-0.011-0.016c-0.706-1.168-1.416-2.453-2.118-3.771
		c-0.899-1.688-1.782-3.428-2.624-5.04c-0.444-0.851-0.875-1.663-1.292-2.415c-0.157-0.287-0.314-0.566-0.468-0.833
		c-0.765,1.04-1.71,3.022-2.753,5.192c-1.269,2.643-5.002,9.832-5.988,9.148c0,0,0,0-0.002,0.002c0-0.002-0.001-0.002-0.002-0.002
		c-1.076-0.102-2.896-3.257-3.615-4.578c-0.527-0.968-1.012-1.861-1.433-2.435l-0.107-0.186l-0.11,0.187
		c-0.418,0.572-0.899,1.461-1.427,2.425c-0.721,1.32-1.523,2.76-2.352,3.677c-0.419,0.465-0.846,0.801-1.27,0.908h-0.001
		c-0.001,0-0.002,0-0.002,0c-0.592-0.199-1.244-0.843-1.921-1.758c-1.432-1.93-2.974-5.067-4.28-7.805
		c-0.971-2.036-1.813-3.851-2.385-4.776c-0.559,0.911-1.401,2.722-2.375,4.759c-1.311,2.742-2.861,5.896-4.292,7.828
		c-0.678,0.917-1.33,1.561-1.916,1.752c-0.001,0-0.002,0-0.004,0l0,0c-0.424-0.105-0.848-0.44-1.267-0.902
		c-0.828-0.916-1.629-2.354-2.351-3.674c-0.529-0.969-1.014-1.861-1.432-2.435l-0.11-0.186l-0.108,0.187
		c-0.419,0.572-0.9,1.463-1.427,2.426c-0.722,1.322-1.521,2.76-2.352,3.678c-0.418,0.464-0.843,0.802-1.27,0.908c0,0,0,0-0.001,0
		l0,0c-1.809-0.258-4.823-6.725-6.112-9.386c-0.714-1.472-1.393-2.843-2.026-3.879l-0.605-1.076l-0.058,0.104
		c-0.026-0.035-0.054-0.072-0.08-0.104c-0.456,0.921-0.97,1.957-1.518,3.047c-1.118,2.226-2.385,4.685-3.649,6.932
		c-0.766,1.36-1.531,2.646-2.259,3.747c-0.84,0.992-1.746,0.633-2.604-0.297c-0.719-0.978-1.786-2.842-2.579-4.281
		c-0.524-1.085-0.904-1.922-1.06-1.969c-0.114,0.056-0.321,0.398-0.592,0.901l-0.43,0.651c-0.153,0.233-0.358,0.611-0.644,1.135
		c-0.185,0.339-1.701,2.84-2.103,3.395c-0.471,0.515-0.951,0.869-1.42,0.961c-0.192,0.037-0.381,0.034-0.567-0.025
		c-0.239-0.078-0.473-0.242-0.698-0.512c-0.001-0.001-0.002-0.002-0.002-0.003c-1.583-2.08-2.751-3.809-3.521-5.489
		c-0.688-1.495-1.057-2.955-1.097-4.58c-0.047-1.985,0.386-4.222,1.314-7.1h102.425c0.074,0.245,0.144,0.506,0.213,0.766
		c0.061,0.222,0.118,0.446,0.175,0.676c0.024,0.102,0.049,0.204,0.072,0.307c0.046,0.197,0.093,0.391,0.137,0.593
		c0.225,1.034,0.409,2.124,0.553,3.217c0.026,0.196,0.051,0.393,0.073,0.589c0.023,0.198,0.043,0.395,0.063,0.592
		c0.04,0.4,0.072,0.797,0.098,1.189c0.004,0.036,0.008,0.072,0.01,0.108c0.031,0.506,0.054,1.013,0.064,1.519
		c-0.001,0.002-0.001,0.002-0.001,0.003c-0.219,0.399-0.425,0.781-0.626,1.155c-0.471,0.875-0.938,1.752-1.42,2.621
		c-0.025,0.04-1.231,2.174-1.598,2.773c-0.348,0.51-0.672,0.902-0.993,1.181c-0.283,0.19-0.608,0.366-0.772,0.399
		c-0.163,0.028-0.328,0.044-0.496,0.049c-0.672-0.113-1.407-0.775-2.321-2.069c-0.777-1.098-1.685-2.651-2.797-4.712l0.374,0.57
		C291.855,107.839,291.618,107.458,291.618,107.458 M195.031,122.394v-2.447c0.123-0.096,0.221-0.213,0.321-0.326
		c0.088-0.1,0.166-0.201,0.238-0.312c0.063-0.101,0.127-0.198,0.179-0.304c0.02-0.043,0.042-0.083,0.061-0.126
		c0.319-0.763,0.319-1.662,0-2.425c-0.019-0.043-0.041-0.082-0.061-0.125c-0.052-0.106-0.115-0.205-0.179-0.305
		c-0.072-0.109-0.15-0.213-0.238-0.312c-0.101-0.114-0.198-0.23-0.321-0.327v-8.915c0.394,0.731,0.779,1.485,1.161,2.235
		c1.077,2.114,2.13,4.207,3.237,5.768c1.798,2.533,3.739,3.647,6.164,1.146c0.885-0.914,1.833-2.301,2.865-4.29
		c0.77,1.687,1.513,2.924,2.229,3.797c0.479,0.583,0.945,1.003,1.399,1.278c0.598,0.361,1.175,0.475,1.733,0.394
		c1.015-0.148,1.962-0.941,2.847-2.083c1.331-1.716,2.52-4.213,3.573-6.471c0.772-1.65,1.472-3.172,2.104-4.166
		c0.576,0.887,1.24,2.408,1.999,4.094c0.976,2.166,2.106,4.607,3.408,6.336c1.617,2.147,3.498,3.191,5.67,1.252
		c0.934-0.835,1.919-2.217,2.962-4.304c0.374,0.741,0.998,1.913,1.78,2.978c0.73,0.994,1.6,1.896,2.536,2.272
		c0.657,0.265,1.348,0.268,2.049-0.135c0.019-0.012,0.039-0.025,0.059-0.037c0.136-0.083,0.267-0.187,0.409-0.295
		c3.603-2.742,6.907-11.569,6.913-11.583c0.567,0.891,1.206,2.335,1.93,3.922c0.909,1.999,1.949,4.225,3.142,5.86
		c0.734,1.009,1.527,1.79,2.382,2.157c0.497,0.216,1.016,0.287,1.557,0.18c0.709-0.139,1.458-0.59,2.246-1.438
		c0.79-0.851,1.619-2.097,2.491-3.831c0.785,1.643,1.543,2.844,2.272,3.691c0.745,0.862,1.46,1.352,2.146,1.54
		c0.48,0.133,0.945,0.122,1.396-0.01c0.886-0.257,1.715-0.968,2.489-1.931c1.328-1.65,2.498-4.034,3.51-6.131
		c0.792-1.641,1.489-3.104,2.088-3.902c0.451,0.699,0.996,1.849,1.626,3.166c0.938,1.965,2.063,4.307,3.346,6.096
		c0.999,1.396,2.094,2.456,3.27,2.738c0.013,0.001,0.021,0.005,0.032,0.006c0.003,0,0.007,0,0.01,0.001
		c0.573,0.128,1.164,0.075,1.771-0.218c0.496-0.237,1.004-0.631,1.523-1.209c0.733-0.819,1.489-2.004,2.264-3.64
		c0.776,1.522,1.517,2.646,2.227,3.451c0.606,0.687,1.19,1.136,1.753,1.385c0.616,0.271,1.206,0.304,1.778,0.15
		c1.043-0.281,2.02-1.179,2.955-2.401c1.249-1.63,2.422-3.826,3.576-5.879c0.443-0.786,0.881-1.552,1.32-2.256v8.78
		c-0.634,0.267-1.086,0.735-1.366,1.292c-0.448,0.887-0.448,1.994,0.002,2.88c0.28,0.556,0.732,1.024,1.364,1.29v1.996v0.199
		H195.031V122.394z M192.483,126.462c-0.239,0.004-0.402-0.08-0.521-0.207c-0.155-0.168-0.229-0.416-0.257-0.681
		c-0.026-0.271-0.013-0.554,0-0.773c0-0.001,0-0.003,0-0.003c0-0.002,0.001-0.002,0.001-0.005c0.005-0.235,0.086-0.396,0.211-0.513
		c0.175-0.163,0.438-0.229,0.72-0.248c0.253-0.021,0.518-0.008,0.735,0h0.002h113.512c0.18-0.008,0.441-0.02,0.704,0
		c0.21,0.014,0.419,0.049,0.59,0.127c0.238,0.109,0.4,0.301,0.373,0.636c0,0.001,0,0.002,0,0.003
		c-0.042,0.37,0.035,0.92-0.124,1.287c-0.098,0.225-0.284,0.381-0.65,0.377c0,0-0.001,0-0.002,0H192.483 M212.841,128.099h23.185
		c0.453,11.342-1.094,19.203-2.654,30.877h-7.187l-16.419-11.985C210.797,141.943,212.265,131.908,212.841,128.099 M163.579,140.339
		c-3.96-2.744-3.709-2.55-6.031-4.295c-0.429,0.142-5.679,7.916-5.679,7.916l5.967,4.249l-8.903,12.201l-3.977-2.831l5.694-7.802
		l-8.443-6.012l-5.693,7.802l-7.26-5.169c0,0,5.688-7.915,6.927-9.517l5.83,4.15l6.165-8.426c0,0-4.124-2.998-5.83-4.15l4.159-5.699
		c-5.16-3.664-9.426-6.713-9.426-6.713s-2.281,3.572-4.159,5.699c-5.346-3.815-6.39-4.55-6.39-4.55s-3.653,5.079-6.567,9l6.39,4.55
		l-6.525,8.942l-7.798-5.554l5.663-7.822l-7.512-5.348l-5.802,7.725c-1.43-1.008-4.355-3.104-4.355-3.104l8.903-12.2l7.118,5.067
		l5.743-7.869l-7.117-5.069l4.618-6.328c1.234,0.849,3.511,2.45,6.432,4.521l3.568,2.505l10.486,7.495
		c8.322,5.938,17.233,12.313,23.101,16.51c2.326,1.664,4.177,2.987,5.318,3.801C168.195,134.015,166.38,136.651,163.579,140.339
		 M117.365,94.982c-0.557-0.496,4.792-6.643,5.15-6.754c0.237,0.168,0.524,0.371,0.833,0.588l1.053,0.744
		c0.039,0.027,0.079,0.055,0.12,0.084c0.851,0.601,1.865,1.316,3.016,2.129c2.116,1.494,4.706,3.32,7.663,5.41
		c0.678,0.478,1.378,0.971,2.091,1.475c0.935,0.66,1.896,1.338,2.888,2.039c0.659,0.465,1.331,0.939,2.013,1.42
		c1.795,1.268,3.668,2.59,5.604,3.954c0.883,0.624,1.777,1.255,2.686,1.897c4.294,3.029,8.841,6.24,13.488,9.52
		c1.251,0.883,2.508,1.771,3.771,2.661c5.886,4.156,11.853,8.367,17.592,12.418c0.753,0.531,1.499,1.058,2.243,1.583l1.111,0.783
		c7.519,5.31,14.517,10.248,20.245,14.291c7.096,5.01,12.245,8.645,14.01,9.889l-14.826-0.137L117.365,94.982z M337.966,280.021
		c-1.095,18.529-8.105,30.262-22.348,42.197c-11.905,9.973-64.576,34.92-64.662,34.926c-0.217,0.01-55.067-24.727-66.986-34.852
		c-13.782-11.707-22.084-24.867-22.129-45.072c-0.042-17.33,0.182-33.774,0.183-41.893c9.256-6.734,14.212-9.553,23.838-15.777
		c4.39-2.838,10.172-5.729,15.893-5.651c7.39,0.102,13.985,3.427,18.771,6.714c5.691,3.91,11.444,10.855,18.726,11.507
		c4.885,0.438,9.09-1.626,13.069-4.21c3.529-2.296,7.054-4.859,11.194-5.688c4.916-0.984,10.058,0.664,14.292,3.322
		c5.82,3.653,8.076,6.736,12.071,10.097c2.35,1.977,10.531,6.839,19.944,5.888c4.821-0.486,8.875-2.701,13.253-4.552
		c4.412-1.865,10.432-1.514,15.13-0.4C338.592,236.669,338.608,269.178,337.966,280.021 M337.205,233.593
		c-4.403-0.863-10.363-0.234-14.72,1.17c-2.34,0.754-4.479,1.928-6.685,2.985c-5.281,2.529-13.347,1.722-17.565,0.085
		c-4.45-1.728-7.4-3.448-10.567-6.458c-7.018-6.677-14.274-13.583-26.229-11.016c-3.64,0.78-6.65,2.81-9.562,4.772
		c-3.988,2.689-7.749,5.234-13.03,4.76c-4.132-0.367-8.59-3.992-12.902-7.498c-3.113-2.532-6.332-5.148-9.488-6.576
		c-11.267-5.103-18.035-5.875-28.831,0.115c-3.055,1.693-20.296,12.768-25.892,16.37c0.006-11.743,0.02-23.472,0.032-34.083
		c0.021-16.963,0.035-30.713,0.01-35.983h176.632c-0.027,5.271-0.012,19.021,0.008,35.983c0.014,11.086,0.028,23.393,0.034,35.66
		C338.031,233.785,337.615,233.673,337.205,233.593 M358.575,250.736c6.633-3.452,11.237,2.602,7.15,8.504
		c-2.633,2.613-9.591,11.453-13.748,10.941C338.483,268.031,352.961,253.803,358.575,250.736 M353.566,251.693
		c-2.26,1.91-4.071,3.523-5.96,5.842c-2.159-1.529-5.861-3.756-5.861-4.031l-0.097-10.031
		C345.26,246.066,350.118,249.211,353.566,251.693 M413.147,178.16c0.634-0.827,2.497-1.505,3.108-0.877
		c4.926,2.171-30.318,39.283-24.436,23.342C398.834,194.214,407.684,186.333,413.147,178.16 M411.95,172.191
		c4.763,4.641-15.551,22.019-19.761,25.455c-0.915,0.617-2.832,1.892-3.844,0.137c-1.162-1.061,4.614-5.465,5.197-6.014
		c6.872-6.475,11.19-12.027,16.781-19.461C410.577,171.969,410.827,171.096,411.95,172.191 M408.435,166.184
		c4.444,3.34-5.905,13.671-6.521,14.29c-1.013,1.059-16.887,19.545-16.312,11.352c9.692-9.533,11.572-10.459,19.709-22.691
		C405.906,168.238,406.93,165.869,408.435,166.184 M403.314,162.146c9.774,1.316-14.674,24.533-18.372,26.955
		c-1.838,1.271-4.148-1.152-2.868-2.117C393.821,177.192,393.473,176.708,403.314,162.146 M400.21,155.671
		c5.938,6.049-9.465,20.999-16.496,27.682c-1.159,0.882-2.317,2.846-4.059,0.857c-0.746-1.193-1.14-1.639,0.664-3.154
		c1.955-1.641,5.083-5.59,7.066-7.916c4.316-5.065,9.076-13.34,10.339-15.962C398.767,155.012,399.69,155.504,400.21,155.671
		 M393.271,150.567c5.901,1.942,1.606,8.839,0.299,10.832c-0.364,1.072-13.196,18.701-15.672,18.642
		c-0.572,0.025-1.992-2.053-1.699-3.003c0.307-0.994,3.035-3.034,3.955-4.177C395.634,153.596,391.016,149.824,393.271,150.567
		 M383.656,154.388c0.939-2.467,2.044-10.031,4.012-9.6c3.051,0.669,3.044,2.357,3.051,4.744c0.019,7.143-6.994,16.729-11.75,21.869
		c-1.784,1.927-5.426,6.37-6.103,1.906C377.074,168,381.171,160.917,383.656,154.388 M366.39,175.371
		c0.983-0.951,4.049-2.199,4.846-0.796c0,0,16.237,26.78,19.24,31.172c3.065,6.097-4.54,10.856-9.465-0.78l-16.555-25.896
		C363.665,177.05,366.029,175.718,366.39,175.371 M364.31,182.775c0.478,0.799,16.518,25.651,16.145,25.53
		c-12.095,5.908-25.396,7.474-39.016,5.633c-0.008-8.599-0.02-16.815-0.028-25.075C348.673,188.302,359.643,186.55,364.31,182.775
		 M341.421,276.102c0.017-5.936,0.026-12.4,0.032-19.145c2.17,1.32,4.763,2.969,4.458,2.889c-5.081,6.313,1.737,14.943,9.092,11.98
		l0.871,6.898c-2.175,0.736-12.152,1.566-14.493-0.305C341.404,277.654,341.418,276.885,341.421,276.102 M341.647,289.791
		c-0.259-0.055-1.421-0.525-1.421-0.525c0.716-3.68,0.864-5.092,1.191-8.359c1.044,0.277,1.52,0.828,5.753,0.984
		C347.488,286.646,343.293,284.268,341.647,289.791 M351.602,285.057c-1.812,2.227-1.709,4.254-0.569,6.492
		c-3.496-0.074-4.99-0.4-7.585-1.123c1.944-5,4.907-1.43,5.659-8.635c0.654-0.074,1.395-0.182,2.197-0.313
		C351.504,282.479,352.397,284.082,351.602,285.057 M353.542,291.264c-3.921-5.09,2.869-4.371,0.061-10.129
		c1.098-0.201,1.368-0.119,2.505-0.342c0.22,1.939,0.457,4.416,1.215,9.406C356.33,290.461,355.229,290.984,353.542,291.264
		 M322.466,357.682l-1.516,0.244c-0.236-0.486-0.633-0.973-1.086-1.461l14.305-9.84l-15.93,8.191
		c-0.205-0.234-0.414-0.455-0.604-0.67c-0.342-0.385-0.62-0.758-0.736-1.172c-0.089-0.313-0.091-0.648,0.065-1.037l17.421-8.73
		l-16.192,6.08c-0.178-0.332-0.704-0.721-1.279-1.168c-0.703-0.543-1.469-1.176-1.778-1.895c-0.16-0.375-0.203-0.771-0.032-1.195
		l17.998-4.793l-18.088,2.525c-0.717-0.482-1.213-0.797-1.526-1.076c-0.409-0.365-0.496-0.672-0.342-1.199
		c0.102-0.359,0.31-0.814,0.609-1.465l17.751-3.023l-18.194,0.881c-0.221-0.279-0.511-0.566-0.906-0.857l0.692-0.818
		c7.013-1.092,13.73-2.828,20.497-4.256c-0.204,1.014-0.034,2.234,0.376,3.551c0.565,1.82,1.595,3.822,2.744,5.705
		c1.411,2.313,2.998,4.441,4.131,5.844c0.228,0.279,0.438,0.535,0.623,0.752C335.127,350.422,328.753,353.99,322.466,357.682
		 M343.656,345.537c-0.262-0.293-0.569-0.646-0.905-1.045c-1.155-1.375-2.665-3.322-3.983-5.412
		c-1.101-1.748-2.063-3.59-2.574-5.279c-0.369-1.227-0.499-2.373-0.269-3.34c0.749-0.148,1.504-0.27,2.256-0.404
		c-0.135,1.111,0.23,2.475,0.883,3.924c0.764,1.689,1.917,3.494,3.125,5.143c1.497,2.047,3.074,3.852,4.085,4.906
		C345.402,344.533,344.529,345.035,343.656,345.537 M348.78,342.576c-0.081-0.078-0.163-0.16-0.25-0.248
		c-0.023-0.023-0.05-0.049-0.073-0.072c-1.068-1.08-2.611-2.752-4.039-4.6c-1.105-1.426-2.14-2.953-2.828-4.387
		c-0.658-1.367-1.001-2.65-0.784-3.672c0.993-0.156,1.994-0.279,2.994-0.404c-0.183,1.229,0.204,2.576,0.91,3.918
		c0.886,1.68,2.27,3.342,3.672,4.736c1.25,1.24,2.512,2.268,3.442,2.895C350.806,341.35,349.8,341.975,348.78,342.576
		 M354.296,339.252c-0.975-0.57-2.234-1.473-3.461-2.563c-1.322-1.172-2.606-2.561-3.458-3.988
		c-0.761-1.273-1.177-2.578-0.966-3.787c1.115-0.1,2.226-0.209,3.354-0.258c-0.001,0.521,0.033,0.996,0.086,1.451
		c0.146,1.25,0.488,2.266,0.998,3.111c0.778,1.291,1.929,2.199,3.333,2.982c1.206,0.555,2.375,0.922,2.882,1.383
		C356.151,338.152,355.217,338.693,354.296,339.252 M359.497,336.051c-0.454-0.242-1.254-0.449-2.133-0.725
		c-1.21-0.336-2.573-0.793-3.34-1.734c-0.38-0.396-0.662-0.865-0.774-1.443c0.837,0.355,1.525,0.459,2.148,0.496l0.37-0.027
		c0.426-0.072,1.044-0.107,1.935,0.244c0.857,0.254,1.804,0.859,3.094,2.373C360.366,335.512,359.929,335.777,359.497,336.051
		 M362.784,333.941c-0.446-0.721-0.961-1.24-1.519-1.631c-0.981-0.689-2.102-0.971-3.239-1.186
		c-0.847-0.037-1.671-0.008-2.941-0.604c-0.134-0.061-0.26-0.127-0.385-0.195c-0.883-0.359-1.694-0.918-2.364-1.877
		c0.551-0.244,1.151-0.547,1.787-0.893c1.824,0.025,3.078,0.354,4.082,0.867c1.17,0.6,2,1.453,2.973,2.389
		c0.774,0.746,1.639,1.539,2.848,2.293C363.61,333.385,363.2,333.668,362.784,333.941 M365.922,331.832
		c-1.258-0.475-2.208-1.148-3.066-1.871c-0.988-0.834-1.852-1.73-2.913-2.457c-0.916-0.627-1.979-1.127-3.401-1.352
		c0.952-0.5,1.758-0.824,2.447-1.004c1.333-0.346,2.234-0.154,2.929,0.324c0.315,0.137,0.602,0.303,0.83,0.531
		c0.371,0.371,0.587,0.85,0.836,1.402c0.061,0.135,0.126,0.275,0.194,0.418c0.604,0.973,1.266,1.959,2.362,2.547
		c0.374,0.199,0.799,0.355,1.291,0.445C366.934,331.162,366.422,331.49,365.922,331.832 M369.948,329.053
		c-5.842-0.289-3.125-4.809-8.631-6.066c1.072-0.752,2.153-1.527,3.229-2.32c5.942-0.32,3.484,4.734,9.884,5.168
		C372.774,327.025,371.227,328.139,369.948,329.053 M376.967,324.014c-7.217,0.248-4.747-4.328-9.905-5.227
		c0.498-0.373,0.996-0.75,1.478-1.121c1.464,0.49,4.312,1.271,5.466,1.408c1.668,0.611,2.627,3.172,4.935,3.529
		C378.286,323.07,377.626,323.541,376.967,324.014 M381.41,320.705c-5.394-0.664-5.195-4.652-11.026-4.467
		c2.126-2.934,8.932-2.381,9.274-0.953c0.521,1.176,2.797,3.229,4.357,3.203C383.142,319.275,382.196,320.066,381.41,320.705
		 M369.94,313.795c1.265-1.359,1.706-2.822,1.979-4.98l3.542,0.645C375.329,309.6,371.401,312.709,369.94,313.795 M386.29,316.164
		c-4.555,1.621-2.666-4.17-10.853-3.809c1.073-0.822,1.794-1.598,2.499-2.197c6.115-0.947,5.434,2.027,10.563,3.02
		C387.837,314.258,387.083,315.242,386.29,316.164 M390.082,310.139c-3.48,1.289-4.523-3.203-10.428-1.867
		c0.575-0.76,1.153-1.707,1.589-2.84c4.091-1.619,6.303,2.734,10.163,0.686C391.088,307.5,390.642,308.85,390.082,310.139
		 M370.662,289.561c-0.389-2.527-1.046-7.984-1.222-8.953c1.713,0.334,2.906,0.826,4.399,1.266c0.803,0.656,0.633,2.75,0.106,3.205
		C372.212,287.107,370.221,286.582,370.662,289.561 M370.804,290.305c-0.008-0.002-0.012-0.002-0.021-0.008
		c-0.029-0.162-0.063-0.365-0.098-0.588C370.717,289.896,370.754,290.092,370.804,290.305 M376.455,282.732
		c2.377,0.867,4.423,1.879,6.194,2.994c0.061,4.955-7.239-0.262-7.086,6.352c-1.008-0.471-1.99-0.85-2.816-1.139
		c-0.084-0.988,0.1-2.291,0.33-2.689C374.339,287.104,377.718,286.008,376.455,282.732 M378.358,296.58
		c-1.715-0.229-4.288-0.551-6.591-0.736c-0.155-0.902-0.342-1.959-0.545-3.104C375.538,294.17,377.491,295.551,378.358,296.58
		 M377.706,293.23c-0.755-6.016,6.303,0.207,6.585-6.379c1.057,0.789,1.986,1.621,2.805,2.488c-1.299,5.607-5.639,1.828-8.229,4.857
		C378.406,293.754,377.99,293.434,377.706,293.23 M387.607,293.096c0.204-0.166,1.119-1.021,1.414-1.34
		c1.136,1.693,1.914,3.477,2.379,5.297c-2.91,2.773-7.063-1.541-9.833,1.551c-0.274-0.979-0.823-2.074-1.376-2.844
		C382.155,293.525,384.952,295.27,387.607,293.096 M391.859,303.324c-3.672,2.734-6.416-2.168-10.123,0.389
		c0.174-0.756,0.223-1.17,0.245-2.225c2.131-4.125,6.446,0.414,9.825-2.314C391.981,300.559,391.986,301.949,391.859,303.324
		 M369.469,278.564c-0.144-0.027-0.5-5.447-0.811-7.359l24.814,0.744c1.763,9.207,3.916,21.184,4.581,26.355l-4.251-0.621
		C391.751,289.346,387.098,282.49,369.469,278.564 M421.331,305.928c-1.024,4.189-11.191,14.355-15.695,14.385
		c-4.332,0-7.242-6.66-3.782-9.512c-2.594-0.641-6.317-1.059-8.649-1.602c0.886-2.738,1.121-6.291,0.902-9.264l6.348,0.928
		c0.279-3.025-5.125-30.967-5.125-30.967l-29.134-0.975c0,0,2.709,22.99,3.679,29c2.495,0.043,7.442,0.713,9.244,0.967
		c1.072,2.803-0.309,6.848-1.918,8.869l-7.385-1.127c0.428,19.604-27.504-11.523-9.099-8.652c-0.867-6.467-3.54-26.773-3.54-26.773
		l11.481-11.199l26.796,0.85c-0.801-18.941,28.319,9.99,9.378,9.016c0.651,9.006,3.414,21.439,5.328,31.768
		C414.306,297.725,422.349,299.379,421.331,305.928"/>
	<path fill="#999999" d="M248.849,342.67c-4.462-1.109-8.804-2.738-12.907-4.838c-2.25-0.193-5.667-0.625-7.923-0.953
		c0.014-0.004,0.028-0.014,0.042-0.02c-0.737-0.117-2.377-0.371-2.673-0.424l0.001,0.002c-0.541-0.1-2.392-0.436-2.932-0.541
		c0.687,0.566,1.415,1.088,2.165,1.582c0,0,0.886,0.613,1.339,0.836c2.503,1.479,5.236,2.678,7.924,3.846
		c0.245,0.105,0.489,0.213,0.731,0.318c4.428,1.93,10.289,4.152,16.372,4.234c5.464,0.072,9.5-0.488,13.081-1.82
		c0.398-0.148,0.792-0.305,1.184-0.463c-0.583,0.018-1.165,0.031-1.75,0.031C258.554,344.461,253.641,343.861,248.849,342.67"/>
	<path fill="#999999" d="M262.798,338.939c-4.105,0-7.918-0.707-10.625-1.207l-0.29-0.053c-2.225,0.361-4.817,0.545-7.759,0.545
		c-1.801,0-3.736-0.07-5.792-0.207c3.45,1.607,7.05,2.887,10.734,3.803c6.025,1.498,12.241,2.041,18.486,1.625
		c3.03-1.395,5.867-3.063,8.461-4.992c1.277-0.951,2.508-1.922,3.552-3.076c-4.359,1.803-8.934,2.955-13.634,3.414
		C264.878,338.895,263.827,338.939,262.798,338.939"/>
	<path fill="#999999" d="M278.589,326.359c-0.183,0.139-0.856,0.639-1.829,1.305c-1.148,0.785-2.45,1.678-3.833,2.371
		c-0.068,0.031-0.14,0.066-0.207,0.102c1.409-0.457,2.794-0.982,4.147-1.574c0.949-0.414,1.886-0.869,2.809-1.355
		c1.062-0.559,2.104-1.154,3.118-1.789c-0.01-0.168-0.014-0.34-0.026-0.5h-0.001c-0.06-0.637-0.186-1.17-0.365-1.604
		c-0.039-0.094-0.077-0.189-0.122-0.275c-0.052,0.045-0.104,0.098-0.153,0.145l-0.447,0.418c-0.212,0.197-0.42,0.389-0.635,0.596
		C280.277,324.932,279.483,325.691,278.589,326.359"/>
	<path fill="#999999" d="M240.392,324.246c-0.289-0.1-0.567-0.203-0.836-0.305c-0.01,0.16-0.022,0.387-0.051,0.66
		c-0.118,1.166-0.396,2.605-0.815,3.615c-0.08,0.195-0.174,0.395-0.273,0.594c-0.218,0.559-0.487,1.092-0.802,1.602
		c0.418,0.125,0.836,0.248,1.255,0.371c0.369,0.113,0.74,0.223,1.109,0.332c-0.108-2.006,0.449-4.383,1.405-6.551
		C241.061,324.467,240.73,324.363,240.392,324.246"/>
	<path fill="#999999" d="M226.266,318.434c-0.005-0.053-2.029,0.211-2.962,0.447c-1.753,0.447-3.389,1.43-3.832,1.703
		c0.239,0.445,0.541,0.93,0.919,1.43c0.791,1.043,1.646,1.787,2.348,2.301c0.07-0.373,0.204-0.936,0.478-1.574
		c0.219-0.508,0.819-1.594,1.615-2.639c0.113-0.148,0.229-0.299,0.349-0.449c0.165-0.234,0.301-0.416,0.378-0.502
		c0.23-0.264,0.465-0.494,0.695-0.701l0,0c0.003-0.004,0.006-0.008,0.011-0.01C226.265,318.438,226.266,318.436,226.266,318.434"/>
	<path fill="#999999" d="M278.436,320.938c-0.666,0.027-1.162,0.088-1.675,0.207c-0.244,0.057-0.445,0.115-0.588,0.16
		c0.003,0.006,0.006,0.01,0.011,0.018c0.437,0.441,0.875,1.574,0.921,1.674c0.021,0.047,0.428,0.977,0.553,2.047
		c0.676-0.457,1.227-0.879,1.643-1.211c0.541-0.432,0.854-0.705,1.772-1.506c0.382-0.332,0.479-0.451,0.681-0.619
		c-0.426-0.355-0.758-0.553-1.479-0.682C279.77,320.936,279.213,320.906,278.436,320.938"/>
	<path fill="#999999" d="M208.923,288.154c0-0.029,0.096-3.006,0.955-3.463c0.199-0.104,0.418-0.088,0.619,0.049
		c0.293,0.201,0.663,0.805,0.646,1.174c-0.008,0.18-0.02,0.396-0.035,0.646c-0.065,1.055-0.165,2.646-0.029,4.734
		c0.529,8.129,2.829,17.189,6.474,25.516c0.066,0.152,0.117,0.27,0.148,0.365c0.344,0.6,0.776,1.482,1.003,1.957
		c0.221-0.162,0.519-0.371,0.714-0.482c0.274-0.158,0.979-0.469,1.373-0.639c-2.689-6.037-4.072-16.453-4.43-21.184
		c-0.652-8.605-0.245-9.01-0.051-9.201c0.355-0.352,0.656-0.34,0.847-0.264c0.74,0.287,0.95,2.043,1.037,4.592
		c0.176,5.26,0.463,8.848,0.956,11.988c0.619,3.955,3.174,11.865,3.681,13.41c2.249-0.602,3.246-0.564,3.858-0.537
		c0.043,0,0.084,0,0.124,0.002l-0.073-0.33c-1.136-5.148-3.25-14.736-2.684-19.771c0.029-0.26,0.051-0.535,0.071-0.801
		c0.079-1.02,0.136-1.756,0.579-1.92c0.183-0.074,0.4-0.027,0.59,0.119c0.393,0.301,0.753,1.113,0.588,2.49
		c-0.447,3.766,1.671,14.711,2.998,19.859c0.119-0.049,0.228-0.1,0.436-0.229c0.343-0.221,1.514-1.039,2.066-2.342
		c0.185-0.432,0.186-0.637,0.188-1.313c0.001-0.211,0.004-0.467,0.011-0.777c-0.06-0.73-0.057-1.473,0.013-2.303
		c0.012-1.555,1.183-3.338,1.776-3.898c0.203-0.193,0.481-0.402,0.71-0.543c-0.79-3.008-1.582-6.48-1.688-9.869
		c-0.874,0.85-2.178,2.066-2.562,2.158c-0.671,0.158-1.279-0.268-1.681-0.604c-1.396-1.17-2.5-2.656-3.213-4.32
		c-0.416,0.295-0.942,0.463-1.496,0.469c-0.722-0.018-1.392-0.262-1.849-0.736c-0.441-0.459-0.674-1.049-0.856-1.566
		c-0.309-0.867-0.511-1.771-0.704-2.645c-0.154-0.697-0.314-1.416-0.526-2.104c-0.15,0.076-0.337,0.176-0.502,0.264
		c-1.176,0.625-1.61,0.824-1.896,0.709c-0.385-0.148-0.651-0.785-0.915-1.482l-0.07-0.189c-0.248-0.6-0.483-1.693-0.712-2.754
		c-0.107-0.502-0.21-0.982-0.303-1.352c-2.709,2.607-4.744,3.4-5.988,3.602c-0.027,0.004-2.906,0.426-3.287-0.125
		c-0.082-0.119-0.084-0.264-0.009-0.393c0.393-0.66,0.632-1.141,0.779-1.482c-0.925,0.729-2.486,1.502-5.087,0.689
		c-0.385-0.121-0.658-0.246-0.836-0.387c-0.354,0.318-0.995,0.842-1.528,1.004c-1.454,0.449-2.369,0.41-2.798-0.119
		c-0.261-0.318-0.27-0.746-0.19-1.139l-1.269,1c0.593,4.764,1.475,9.502,2.623,14.088c1.27,5.061,2.523,8.625,3.157,10.297
		c0.747,1.973,1.77,4.674,3.591,8.014c1.116,2.045,2.374,4.041,3.741,5.936c0.48-0.949,1.466-2.912,1.726-3.43
		c-0.712-1.469-7.068-14.932-7.518-29.039c-0.098-1.518-0.222-5.107,0.708-5.508c0.063-0.025,0.136-0.047,0.222-0.047
		c0.166,0,0.373,0.076,0.605,0.318l0.054,0.082c0.223,0.498,0.227,0.799,0.233,1.527c0.013,1.254,0.037,3.863,1.148,11.305
		c0.818,5.473,2.702,11.736,5.928,19.705c0.212,0.557,0.925,2.365,1.711,3.578c0.191,0.295,1.117,1.695,1.988,2.473
		c0.629-1.004,1.275-1.945,2.093-2.654C215.1,316.975,209.232,304.803,208.923,288.154"/>
	<path fill="#999999" d="M303.878,282.732c0.018,0.242-0.024,0.488-0.175,0.699c-0.388,0.537-1.307,0.645-2.808,0.326
		c-0.525-0.109-1.382-0.637-1.913-0.99c-0.057,0.145-0.155,0.316-0.336,0.492c-0.513,0.498-2.051,0.711-3.644,0.186
		c-0.567-0.186-1.102-0.453-1.601-0.797c0.186,0.365,0.448,0.85,0.821,1.475c0.074,0.129,0.071,0.273-0.011,0.393
		c-0.382,0.551-3.258,0.129-3.288,0.125c-2.716-0.438-4.981-2.559-6.07-3.578c-0.068-0.064-0.14-0.131-0.205-0.191
		c-0.093,1.17-0.396,3.111-0.714,4.242c-0.005,0.016-0.425,1.482-0.998,1.703c-0.282,0.109-0.72-0.084-1.896-0.709
		c-0.165-0.088-0.353-0.188-0.503-0.264c-0.214,0.689-0.373,1.408-0.527,2.107c-0.194,0.869-0.396,1.775-0.701,2.641
		c-0.185,0.518-0.419,1.109-0.858,1.568c-0.451,0.469-1.114,0.734-1.824,0.734h-0.023c-0.555-0.004-1.079-0.172-1.497-0.469
		c-0.714,1.664-1.816,3.152-3.212,4.322c-0.399,0.334-1.01,0.764-1.682,0.602c-0.382-0.094-1.679-1.303-2.552-2.15
		c-0.011,1.232-0.051,2.234-0.223,3.193c-0.564,3.174-1.153,5.086-1.618,6.398c0.264,0.166,0.425,0.303,0.432,0.311
		c0.269,0.227,0.462,0.457,0.551,0.574c0.197,0.248,0.777,1.104,1.041,1.748c0.404,0.984,0.616,2.025,0.687,3.375
		c0.038,0.746,0.04,1.262,0.041,1.637c0.005,0.678,0.006,0.881,0.189,1.311c0.3,0.705,0.753,1.197,1.205,1.588l0.404-1.406
		c1.627-5.646,4.082-14.178,3.792-17.328c-0.132-1.406,0.229-2.211,0.608-2.496c0.184-0.139,0.39-0.176,0.571-0.107
		c0.36,0.135,0.609,0.654,0.65,2.748c0.067,3.502-2.432,12.471-3.927,17.828c-0.188,0.676-0.362,1.301-0.514,1.855
		c0.152,0.074,0.369,0.18,0.635,0.332c0.567,0.318,1.624,0.912,2.624,2.051c0.219,0.25,0.457,0.598,0.67,0.904l0.007,0.014
		l0.208-0.027c1.772-3.365,4.734-13.451,5.203-15.77c0.613-3.037,0.776-6.713,0.956-11.977c0.086-2.549,0.296-4.305,1.035-4.594
		c0.188-0.074,0.489-0.086,0.846,0.266c0.196,0.193,0.603,0.596-0.051,9.203l-0.065,0.924c-0.293,4.162-0.621,8.877-5.82,21.77
		c0.296-0.008,0.56-0.014,0.813-0.014c1.278,0,2.271,0.104,3.016,0.313c3.269-9.27,6.882-21.547,7.34-28.525
		c0.136-2.09,0.036-3.684-0.027-4.738c-0.017-0.248-0.029-0.465-0.037-0.643c-0.016-0.371,0.352-0.975,0.646-1.176
		c0.203-0.137,0.421-0.152,0.618-0.051c0.856,0.455,0.957,3.436,0.957,3.465c-0.207,11.055-3.954,21.684-6.691,29.445
		c-0.406,1.152-0.788,2.232-1.13,3.234c0.147,0.162,0.239,0.285,0.239,0.285c0.077,0.102,0.152,0.217,0.223,0.348
		c0.935-0.463,2.378-1.35,3.213-2.051c1.122-0.947,1.703-1.992,2.084-2.799c4-8.479,5.778-19.281,5.797-19.389
		c0.605-3.736,1.104-9.432,1.135-10.482c0.009-0.33,0.013-0.598,0.015-0.818c0.007-0.729,0.01-1.031,0.231-1.529l0.055-0.08
		c0.351-0.367,0.645-0.352,0.825-0.271c0.932,0.4,0.807,3.99,0.708,5.518c-0.45,14.115-6.819,27.596-7.519,29.035
		c0.119,0.223,0.371,0.52,0.615,0.809c0.156,0.188,0.319,0.383,0.469,0.578c0.281,0.371,0.591,0.764,0.782,1.002
		c1.005-0.918,3.18-4.166,3.605-4.906c1.673-2.904,2.601-5.375,3.345-7.361l0.244-0.646c0.638-1.686,1.896-5.266,3.158-10.297
		c0.658-2.631,1.875-7.98,2.688-14.467c-0.306-0.078-0.602-0.184-0.881-0.32C304.177,282.914,304.026,282.826,303.878,282.732"/>
	<path fill="#999999" d="M219.96,329.346c0.866,0.344,2.965,0.918,3.867,1.156c1.9,0.475,3.825,0.848,5.761,1.154
		c0.139,0.021,0.276,0.049,0.416,0.07c0.368,0.057,0.735,0.105,1.104,0.156c0.369,0.055,0.736,0.109,1.104,0.16
		c0.668,0.086,1.339,0.166,2.01,0.242c2.282,0.254,4.573,0.438,6.867,0.557c-1.392-0.334-2.822-0.707-4.411-1.127
		c-0.019,0.023-0.155-0.014-0.377-0.098c-0.342-0.094-0.709-0.191-1.086-0.295c-0.048-0.016-0.097-0.029-0.146-0.041
		c-0.199-0.057-0.399-0.113-0.61-0.174c-0.041-0.012-0.085-0.023-0.127-0.037c-0.36-0.104-0.735-0.215-1.123-0.334
		c-0.16-0.051-0.318-0.098-0.482-0.148c-0.148-0.045-0.299-0.094-0.449-0.141c-0.187-0.061-0.371-0.121-0.562-0.182
		c-0.148-0.049-0.298-0.1-0.449-0.15c-0.208-0.07-0.421-0.141-0.636-0.215c-0.144-0.049-0.286-0.1-0.431-0.148
		c-0.244-0.088-0.494-0.176-0.747-0.27c-0.126-0.043-0.249-0.09-0.378-0.137c-0.382-0.141-0.772-0.287-1.172-0.441
		c-0.063-0.025-0.128-0.053-0.191-0.078c-0.036-0.014-0.071-0.029-0.105-0.041c-0.003,0.002-0.006,0.006-0.011,0.008l-0.159-0.064
		c0.001-0.004,0.007-0.006,0.01-0.008c-0.045-0.021-0.092-0.039-0.138-0.055c-0.124-0.051-0.249-0.1-0.376-0.152
		c-1.032-0.428-2.126-0.93-3.234-1.566c-0.527-0.26-0.927-0.529-1.276-0.801c-0.412-0.275-0.822-0.566-1.229-0.889
		c-0.246-0.195-0.474-0.391-0.692-0.584c-0.255-0.225-0.489-0.449-0.71-0.676c-0.661-0.682-1.177-1.379-1.58-2.137
		c-0.198,0.553-0.396,1.111-0.582,1.674c-0.375,1.15-0.68,2.32-0.736,3.529c-0.009,0.17-0.088,0.479,0.01,0.615
		C217.199,328.092,219.332,329.094,219.96,329.346"/>
	<path fill="#999999" d="M258.188,334.832c0.201-0.1,0.397-0.215,0.599-0.318c-1.715,0.152-5.303,0.303-10.502-0.346
		c-0.725-0.09-1.408-0.191-2.074-0.297c-0.059-0.002-0.12-0.004-0.18-0.004c-3.565-0.025-7.359-0.242-11.03-0.623
		c-0.826-0.053-1.104-0.113-1.846-0.195c-0.387-0.047-0.772-0.096-1.16-0.146c-1.791-0.236-3.577-0.521-5.348-0.873
		c-0.897-0.176-1.813-0.367-2.726-0.58c0,0.008,0,0.014,0.001,0.021c-1.319-0.348-3.82-1.076-5.035-1.631
		c-0.366-0.168-1.169-0.547-1.973-1.068c0.062,0.383,0.168,0.758,0.324,1.111c0.019,0.041,0.042,0.098,0.076,0.174
		c0.294,0.637,0.673,1.229,0.857,1.512c0.354,0.543,0.572,0.875,0.939,1.307c0.076,0.088,0.396,0.461,0.878,0.904
		c0.446,0.414,0.862,0.73,1.201,0.969c0.764,0.162,2.53,0.508,3.447,0.686l-0.008-0.016c0.964,0.178,3.593,0.588,4.793,0.775
		c0.008-0.004,0.016-0.006,0.022-0.01c1.836,0.244,4.832,0.629,6.662,0.787c6.402,0.555,11.688,0.498,15.714-0.166
		c1.73-0.287,3.074-0.662,4.162-1.045C256.876,335.445,257.597,335.123,258.188,334.832"/>
	<path fill="#999999" d="M277.227,329.365c-2.879,1.258-5.896,2.223-8.99,2.877c-0.014,0.008-0.027,0.012-0.041,0.02
		c-0.479,0.199-0.966,0.387-1.456,0.57l0.025,0.018l-0.203,0.047c-0.608,0.221-1.227,0.416-1.851,0.592
		c-0.338,0.098-0.673,0.197-1.015,0.277c-1.02,0.238-1.929,0.395-2.725,0.504c-0.775,0.486-1.57,0.945-2.389,1.346
		c-0.154,0.078-0.321,0.158-0.494,0.236c-0.96,0.447-2.197,0.939-3.885,1.359c3.21,0.555,7.394,1.123,11.641,0.709
		c5.136-0.504,10.118-1.85,14.827-3.984c0.521-0.785,0.964-1.645,1.278-2.635c0.401-1.264,0.775-3.137,0.845-4.852
		c-1.031,0.629-2.091,1.219-3.167,1.771C278.838,328.625,278.038,329.01,277.227,329.365"/>
	<path fill="#999999" d="M260.049,332.873c0.983-0.113,2.033-0.277,3.297-0.57c0.262-0.061,0.521-0.133,0.78-0.207
		c-0.692-0.67-1.34-1.615-2.433-3.523c-0.569-0.996-0.846-2.203-0.953-3.424c-0.212,0.076-0.504,0.207-0.954,0.275
		c-0.095,0.016-0.237,0.035-0.383,0.059c0.415,1,0.721,2.09,0.851,3.328c0.131,1.254-0.013,2.447-0.152,3.596
		C260.083,332.559,260.068,332.717,260.049,332.873"/>
	<path fill="#999999" d="M215.152,278.443c0.228-0.285,0.239-0.352,0.334-0.861c0.06-0.316,0.146-0.775,0.329-1.516
		c1.247-5.018,3.788-7.967,4.9-9.066c-2.53-0.57-3.41-2.506-3.384-4.406c-0.177,0.154-0.356,0.314-0.466,0.41
		c-2.214,1.982-4.209,7.893-5.036,11.072l-0.004,0.01c-0.449,2.031-1.314,3.768-2.409,5.963c-0.427,0.861-0.906,1.826-1.413,2.91
		C209.077,282.832,212.503,281.768,215.152,278.443"/>
	<path fill="#999999" d="M221.899,286.711l0.128,0.443c0.623,2.145,0.623,2.146,0.633,2.207c0.154,0.895,0.568,1.318,0.905,1.412
		c0.132-0.031,0.833-0.633,1.48-1.908l0.004-0.01c0.607-1.096,5.055-9.863,6.076-12.23c-0.534-0.168-1.053-0.385-1.708-0.715
		c-0.777-0.389-1.354-0.789-1.966-1.215c-0.115-0.08-0.234-0.162-0.354-0.244c-0.594,1.211-1.228,2.42-1.891,3.604
		c-1.172,2.088-2.458,4.143-3.823,6.105c-0.03,0.047-0.074,0.107-0.127,0.176l0.619,2.293l-0.262,0.16L221.899,286.711z"/>
	<path fill="#999999" d="M229.223,295.23c0.434-0.088,2.036-1.529,2.736-2.463c0.375-2.418,1.442-7.24,2.584-10.098
		c0.592-1.482,1.354-2.969,1.943-4.047l-0.088-0.023c-0.583-0.168-1.242-0.357-1.819-0.594c-0.349-0.141-0.615-0.227-0.854-0.303
		c-0.282-0.092-0.537-0.174-0.837-0.316c-0.588,1.242-2.501,5.471-3.069,6.846c-0.218,0.527-0.963,2.053-1.688,3.523
		c-0.664,1.355-1.351,2.756-1.591,3.311l0.009,0.02C227.039,292.699,227.939,294.096,229.223,295.23"/>
	<path fill="#999999" d="M217.909,284.672c0.201-0.105,0.684-0.533,0.879-0.705c0.108-0.096,0.2-0.18,0.26-0.225
		c0.536-0.422,0.993-1.055,1.434-1.67c0.107-0.146,0.213-0.293,0.318-0.434c1.249-1.678,2.271-3.541,3.258-5.342l0.541-0.975
		c0.109-0.189,0.221-0.379,0.307-0.576c0.03-0.066,0.165-0.307,0.954-1.613c-0.941-1.049-2.822-4.068-3.366-5.527
		c-0.511,0.164-1.031,0.898-1.357,1.359l-0.13,0.184c-0.599,0.828-1.196,1.766-1.822,2.865c-0.933,1.645-1.425,3.453-1.752,4.85
		l-0.077,0.34c-0.331,1.408-0.532,2.262-0.303,3.736C217.391,283.123,217.723,284.363,217.909,284.672"/>
	<path fill="#999999" d="M204.169,281.797c0.927-0.223,2.679-1.01,4.007-3.752l0.085-0.174c0.38-0.781,0.899-1.85,1.686-4.01
		c0.406-1.119,0.729-2.094,1.029-2.998c0.631-1.902,1.175-3.545,2.171-5.535c0.248-0.496,0.564-1.098,1.035-1.803
		c0.688-1.035,1.498-1.99,2.415-2.846c-2.111-0.502-2.992-2.063-3.255-2.971c-0.16,0.168-0.306,0.342-0.4,0.459
		c-1.131,1.395-4.912,6.357-6.121,11.646c-0.153,0.791-0.469,2.189-0.747,3.424c-0.221,0.979-0.418,1.859-0.5,2.27
		c-0.371,1.904-0.805,3.588-2.673,6.35C203.127,281.908,203.572,281.941,204.169,281.797"/>
	<path fill="#999999" d="M206.612,264.406c1.729-3.932,5.337-8.416,6.122-9.371c-0.229-0.287-0.662-0.832-0.861-1.125
		c-0.265-0.393-0.373-0.893-0.461-1.295c-0.021-0.094-0.045-0.207-0.07-0.299c-0.939,0.807-4.497,5.811-6.449,9.727
		c-2.168,4.35-3.73,10.98-4.305,13.627c-0.173,0.814-0.674,2.947-0.841,3.418c-0.293,0.818-0.794,1.846-1.159,2.596
		c-0.087,0.18-0.18,0.369-0.259,0.533c2.948-0.705,4.72-2.945,5.271-6.67c0.121-0.816,1.041-5.141,1.243-6.049
		C205.168,267.762,205.781,266.293,206.612,264.406"/>
	<path fill="#999999" d="M284.393,277.822c0.099,0.518,0.115,0.611,0.364,0.924c2.909,3.652,6.68,4.584,7.473,4.584h0.029
		c-0.544-1.176-1.06-2.211-1.517-3.131c-1.091-2.188-1.951-3.92-2.399-5.936l-0.003-0.01c-0.229-0.879-2.323-8.674-5.081-11.145
		c-0.153-0.137-0.488-0.432-0.727-0.639c0.085,1.291-0.14,4.061-3.525,4.654c0.963,0.902,3.741,3.875,5.059,9.188
		C284.25,277.049,284.336,277.516,284.393,277.822"/>
	<path fill="#999999" d="M296.299,282.238c0.571,0.066,0.938-0.029,1.057-0.096c-1.942-2.828-2.385-4.525-2.761-6.447
		c-0.079-0.412-0.283-1.316-0.501-2.275c-0.277-1.232-0.593-2.631-0.747-3.428c-1.214-5.318-5.013-10.301-6.147-11.703
		c-0.133-0.164-0.364-0.438-0.595-0.656c-0.143,0.801-0.995,2.721-3.484,3.176c0.992,0.896,1.866,1.908,2.601,3.01
		c0.466,0.699,0.779,1.297,1.024,1.787c0.991,1.982,1.535,3.621,2.163,5.516c0.308,0.926,0.626,1.883,1.032,3.004
		c0.787,2.166,1.31,3.24,1.692,4.023l0.082,0.174C293.285,281.563,295.445,282.141,296.299,282.238"/>
	<path fill="#999999" d="M302.119,282.447c0.106,0,0.213-0.006,0.321-0.02c0.007,0,0.014,0,0.02,0
		c-0.043-0.268-0.464-1.232-1.865-3.441c-0.256-0.4-0.984-2.523-1.184-3.443c-0.572-2.652-2.14-9.297-4.315-13.662
		c-1.309-2.627-3.238-6.092-6.609-9.721c-0.124,0.797-0.272,1.336-0.444,1.609c-0.393,0.623-0.763,0.881-0.987,1.035
		c-0.049,0.035-0.111,0.078-0.145,0.109c0.514,0.615,4.387,5.336,6.197,9.451c0.827,1.877,1.436,3.34,1.762,5.07
		c0.064,0.289,0.186,0.938,0.326,1.688c0.3,1.609,0.715,3.813,0.906,4.318C297.831,279.98,299.956,282.447,302.119,282.447"/>
	<path fill="#999999" d="M279.721,282.803c0.632,0.807,1.374,1.523,2.204,2.127c0.079,0.059,0.151,0.107,0.22,0.109h0.004
		c0.058,0,0.093-0.059,0.15-0.199l0.014-0.037c0.242-0.545,0.36-1.16,0.476-1.758l0.043-0.221c0.1-0.504,0.193-1.043,0.289-1.648
		c0.232-1.504,0.019-2.416-0.306-3.791l-0.079-0.342c-0.327-1.406-0.823-3.23-1.766-4.885c-0.628-1.105-1.228-2.049-1.831-2.883
		l-0.132-0.182c-0.361-0.516-0.957-1.357-1.571-1.447c-0.48,1.49-2.166,4.535-3.449,5.688c0.977,1.617,0.994,1.668,1.004,1.695
		c0.081,0.188,0.195,0.387,0.31,0.58c0.049,0.086,0.1,0.174,0.148,0.26l0.391,0.713c0.644,1.174,1.309,2.387,2.033,3.541
		c0.357,0.568,0.664,1.027,0.96,1.441c0.108,0.146,0.213,0.299,0.318,0.449C279.332,282.275,279.522,282.547,279.721,282.803"/>
	<path fill="#999999" d="M276.567,290.82c0.017,0,0.032-0.002,0.046-0.006c0.734-0.205,0.88-0.529,1.165-1.311
		c0.256-0.697,0.479-1.408,0.662-2.115c0.019-0.074,0.037-0.143,0.054-0.215c0.131-0.523,0.232-1.061,0.332-1.582
		c0.02-0.092,0.039-0.17,0.063-0.258c0.056-0.209,0.17-0.646,0.084-0.758l-0.049-0.063c-0.065-0.088-0.12-0.164-0.164-0.229
		c-1.357-1.953-2.645-4.004-3.811-6.088c-0.689-1.23-1.35-2.49-1.962-3.75c-0.171,0.115-0.335,0.229-0.498,0.34
		c-0.606,0.424-1.179,0.822-1.947,1.207c-0.711,0.355-1.258,0.582-1.841,0.754c0.893,2.133,5.525,11.27,6.146,12.393
		C275.439,290.303,276.279,290.82,276.567,290.82"/>
	<path fill="#999999" d="M267.202,277.4c-0.78,0.375-2.686,0.971-3.884,1.344c0.601,1.084,1.407,2.643,2.025,4.193
		c1.341,3.355,2.079,6.504,2.191,9.35c0.75,1.016,2.884,3.113,3.246,3.047c2.38-2.467,2.716-3.588,2.843-4.01
		c0.005-0.02,0.01-0.037,0.016-0.055c-0.22-0.521-0.929-1.967-1.613-3.363c-0.724-1.471-1.469-2.994-1.686-3.516
		C269.751,282.959,267.703,278.436,267.202,277.4"/>
	<path fill="#999999" d="M302.509,267.369c-0.209-0.58-0.417-1.16-0.62-1.764c-0.033-0.096-0.085-0.223-0.147-0.377
		c-0.066-0.162-0.146-0.354-0.228-0.568c-3.103-8.188-7.929-14.004-8.59-14.652c-0.604,0.206-1.233,0.338-1.875,0.393
		c-0.615,0.049-1.229,0.031-1.834-0.059c0.242,0.33,0.582,0.781,0.987,1.318c1.979,2.625,5.293,7.023,6.234,9.139
		c1.199,2.701,2.512,5.965,4.195,13.443c0.809,3.592,2.909,6.648,4.809,7.02c0.053-0.205,0.053-0.977-0.338-3.68
		C304.387,272.623,303.431,269.951,302.509,267.369"/>
	<path fill="#999999" d="M249.952,261.953c-0.624-0.852-1.775-0.965-1.992-0.984c-1.89-0.18-3.289,1.439-3.746,1.969
		c-0.314,0.365-0.736,0.945-1.036,1.732c-0.367,0.965-0.377,1.785-0.377,2.205c-0.012,6.625,0.466,9.504,0.466,9.504
		c0.181,1.082,0.628,3.563,1.556,6.643c0,0,0.96,3.557,3.07,6.301c0.486,0.631,1.732,1.801,2.241,1.564
		c-1.086-2.432-1.666-4.418-1.786-4.705c-0.254-0.619-1.484-4.549-1.694-7.805c-0.326-5.006,0.447-10.785-0.077-14.902
		c0.047-0.047,0.124-0.111,0.217-0.107c0.595,0.014,0.749,1.941,0.808,3.27c0.135,2.975-0.014,5.262-0.119,6.555
		c-0.269,3.301-0.144,4.611,0.089,6.256c0.634,4.459,3.018,11.035,3.22,11.172c0.078,0.053,0.105-0.621,0.181-1.268
		c0-0.002-0.059-1.152-0.061-1.535c-0.014-3.592-0.439-9.016-0.439-9.016c-0.01-4.141-0.152-6.881-0.08-10.982
		C250.408,266.848,250.374,262.531,249.952,261.953"/>
	<path fill="#999999" d="M199.077,274.307c1.688-7.498,3.058-10.885,4.207-13.469c0.948-2.137,4.174-6.43,6.1-8.996
		c0.346-0.459,0.644-0.855,0.871-1.166l-3.261-0.429c-0.747,0.773-5.5,6.605-8.515,14.56c-0.081,0.213-0.158,0.4-0.223,0.563
		c-0.064,0.156-0.118,0.285-0.15,0.379c-0.205,0.604-0.413,1.184-0.619,1.766c-0.923,2.576-1.876,5.24-2.592,10.186
		c-0.324,2.264-0.375,3.145-0.356,3.48C196.345,280.689,198.302,277.748,199.077,274.307"/>
	<path fill="#999999" d="M258.734,329.189c-0.337-3.225-2.01-5.441-3.84-7.615c-0.358-0.428-0.634-0.793-0.871-1.156
		c-1.063-1.631-1.57-3.371-1.425-4.896c0.062-0.686,0.265-1.311,0.444-1.861c0.418-1.297,0.388-1.693,0.366-2.012l-0.01-0.125
		c-0.046-0.904-0.376-1.6-0.5-1.859c-0.179-0.377-0.381-0.711-0.601-0.984c-0.133-0.166-0.225-0.143-0.485-0.051
		c-0.1,0.033-0.208,0.072-0.329,0.096c-0.576,0.113-1.167,0.137-1.762,0.063c-0.107-0.012-0.269-0.033-0.444-0.055
		c-0.303-0.043-0.648-0.088-0.834-0.107c-0.006,0-0.013-0.002-0.018-0.002c-0.295,0-0.804,0.701-0.975,0.936
		c-0.045,0.063-0.08,0.109-0.102,0.137c-0.156,0.186-0.282,0.449-0.406,0.703c-0.056,0.117-0.111,0.23-0.165,0.332
		c-0.622,1.146-0.477,2.291-0.228,3.359c0.104,0.432,0.219,0.922,0.286,1.471c0.028,0.221,0.056,0.434,0.085,0.639
		c0.247,1.787,0.424,3.076-1.412,4.699c-2.608,2.307-3.729,5.223-4.114,10.732c1.608,0.365,3.363,0.674,5.218,0.92
		c0.835-1.055,1.366-3.854,0.809-6.313c-0.007-0.025-0.429-2.529,0.021-2.676c0.208-0.068,0.339,0.221,0.41,0.379
		c1.289,2.893,1.447,6.098,0.444,8.816l0.077,0.008c0.015,0.002,1.438,0.176,3.359,0.307c0.059,0.002,0.121,0.006,0.183,0.01
		c-0.965-2.805-0.694-6.059,0.748-8.971c0.076-0.152,0.213-0.447,0.426-0.361c0.443,0.164-0.083,2.65-0.089,2.676
		c-0.675,2.482-0.554,4.135,0.512,6.744c1.945,0.078,3.63,0.059,5.004-0.064l0.003-0.033c0.021-0.201,0.04-0.402,0.063-0.596
		C258.721,331.354,258.848,330.295,258.734,329.189 M248.21,312.475c-0.163,0.43-0.5,0.732-0.637,0.814
		c-0.024,0.014-0.051,0.02-0.077,0.02c-0.05,0-0.101-0.025-0.13-0.072c-0.041-0.07-0.019-0.16,0.054-0.201
		c0.025-0.016,0.068-0.053,0.119-0.1c0.123-0.115,0.293-0.314,0.388-0.563c0.031-0.084,0.059-0.168,0.082-0.248
		c-0.088,0.078-0.205,0.154-0.356,0.215c-0.141,0.055-0.307,0.1-0.513,0.117c-0.025,0.002-0.051,0.002-0.075-0.002
		c-0.089-0.012-0.169-0.055-0.226-0.127c-0.209-0.258-0.291-0.525-0.248-0.795c0.085-0.508,0.603-0.84,0.946-1.061
		c0.149-0.096,0.343-0.059,0.453,0.076c0.039,0.008,0.077,0.029,0.1,0.066C248.538,311.34,248.413,311.939,248.21,312.475
		 M251.744,312.51c0.096,0.254,0.266,0.451,0.389,0.564c0.05,0.047,0.094,0.082,0.119,0.098c0.072,0.041,0.095,0.133,0.053,0.203
		c-0.027,0.047-0.078,0.072-0.13,0.072c-0.026,0-0.053-0.006-0.077-0.02c-0.138-0.082-0.475-0.387-0.635-0.816
		c-0.204-0.537-0.33-1.135,0.119-1.859c0.022-0.037,0.06-0.059,0.098-0.066c0.111-0.133,0.304-0.172,0.455-0.074
		c0.343,0.219,0.86,0.551,0.944,1.059c0.046,0.27-0.037,0.537-0.247,0.795c-0.055,0.072-0.138,0.115-0.226,0.129
		c-0.024,0.002-0.05,0.004-0.076,0c-0.205-0.018-0.371-0.061-0.511-0.117c-0.151-0.061-0.269-0.135-0.358-0.215
		C251.687,312.344,251.713,312.426,251.744,312.51"/>
	<path fill="#999999" d="M242.543,257.912c0,0,0.575,0.449,1.104,0.467c0.071,0,0.138-0.01,0.138-0.01
		c0.049-0.006,0.091-0.025,0.138-0.037c-1.248-0.861-2.235-2.359-2.15-3.904c0.051-0.945,0.748-1.619,1.193-2.396
		c0.208-0.359,0.365-0.74,0.369-1.186c0.002-0.258-0.208-0.394-0.411-0.394c-0.189,0-0.373,0.117-0.375,0.357
		c-0.003,0.354-0.136,0.666-0.314,0.959c-0.186,0.301-0.418,0.584-0.613,0.869c-0.464,0.684-0.69,1.426-0.625,2.252
		c0.011,0.133,0.037,0.266,0.058,0.398c0.112,0.688,0.357,1.197,0.533,1.502C241.952,257.424,242.375,257.779,242.543,257.912"/>
	<path fill="#999999" d="M239.285,304.752c0.458,0.16,0.876,0.389,1.221,0.688c0.689-0.992,3.175-4.598,3.589-5.398
		C242.798,301.041,240.483,303.596,239.285,304.752"/>
	<path fill="#999999" d="M241.451,307.045c0.56-0.367,3.852-5.617,3.852-5.617c-1.019,0.674-3.5,3.102-4.534,4.271
		c0.15,0.166,0.282,0.348,0.391,0.549C241.298,306.508,241.388,306.781,241.451,307.045"/>
	<path fill="#999999" d="M250.891,307.008h0.09c0.483-0.045,0.79-0.123,0.933-0.18c-0.146-0.848-1.077-4.713-1.51-5.838
		c-0.36,1.105-0.966,4.889-1.06,5.912c0.222,0.047,0.785,0.105,1.284,0.105H250.891z"/>
	<path fill="#999999" d="M256.135,301.172c0,0,2.167,4.18,3.073,5.529c0.104-0.26,0.212-0.488,0.31-0.67
		c0.097-0.182,0.214-0.334,0.336-0.484c-0.168-0.291-0.384-0.668-0.629-1.096C258.167,303.189,256.819,301.707,256.135,301.172"/>
	<path fill="#999999" d="M260.339,305.064c0.327-0.26,0.701-0.447,1.109-0.574c-1.153-1.371-2.919-3.625-3.992-4.604
		c0.291,0.701,1.89,3.514,2.747,5.008C260.251,304.951,260.295,305.008,260.339,305.064"/>
	<path fill="#999999" d="M262.787,277.383l0.758-0.318c0,0,2.7-0.961,3.579-1.328c1.256-0.527,3.627-1.699,4.774-2.607
		c3.05-2.412,3.976-5.826,4.875-6.904c3.128-0.199,4.402-1.73,4.602-3.307c0.12-0.945-0.878-3.109-0.597-3.189
		c0,0,3.467-0.766,4.242-1.947c1.149-1.746,0.503-3.984,0.503-3.984c0.046,0,3.055-1.127,1.292-5.523
		c0.355,0.889,7.113,0.169,6.955-0.278c-0.439-1.25-2.223-2.806-4.027-3.914c-2.274-1.393-4.887-1.665-6.552-1.473
		c-1.834,0.213-3.66,0.406-5.392,1.092c-2.546,1.009-3.887,2.865-4.511,5.467c-0.697,2.899-0.702,5.913-1.03,8.874
		c-0.414,3.744-1.491,7.316-4.417,9.889c-2.36,2.076-5.481,3.727-8.612,4.273C260.454,273.5,262.787,277.383,262.787,277.383"/>
	<path fill="#999999" d="M213.235,248.274c-1.764,4.396,1.246,5.523,1.29,5.523c0,0-0.647,2.238,0.503,3.984
		c0.776,1.182,4.243,1.947,4.243,1.947c0.28,0.08-0.718,2.244-0.598,3.189c0.198,1.578,1.473,3.107,4.602,3.307
		c0.899,1.078,1.826,4.492,4.876,6.904c1.147,0.908,3.518,2.08,4.772,2.607c0.88,0.367,3.58,1.328,3.58,1.328l0.758,0.318
		c0,0,2.334-3.883,3.56-5.18c-3.229-0.564-8.675-3.166-11.043-7.109c-2.374-4.547-2.638-10.184-2.648-10.422
		c-0.236-3.951-0.857-7.127-0.982-7.448c-1.62-4.139-7.669-4.427-9.291-4.615c-1.664-0.192-4.276,0.08-6.551,1.473
		c-1.806,1.108-3.588,2.664-4.028,3.914C206.12,248.445,212.877,249.163,213.235,248.274"/>
	<path fill="#999999" d="M274.919,321.443c-0.012-0.021-0.543-0.963-1.182-1.654c-0.933-1.004-2.149-1.66-3.128-2.189
		c-0.264-0.145-0.512-0.279-0.726-0.404c-0.463-0.273-1.038-0.613-1.549-1.219c-1.001-1.191-1.106-2.652-1.191-3.83
		c-0.023-0.328-0.037-0.641-0.048-0.947c-0.031-0.742-0.061-1.443-0.243-2.238c-0.222-0.971-0.604-1.764-1.136-2.357
		c-0.665-0.746-1.545-1.123-2.612-1.123c-0.043,0-0.082,0.004-0.126,0.008l-0.064,0.01c-0.2,0.014-0.396,0.053-0.587,0.111
		c-0.348,0.111-0.689,0.285-1.015,0.52c-0.072,0.053-0.141,0.102-0.206,0.156c-0.054,0.043-0.101,0.088-0.148,0.135l-0.035,0.033
		c-0.137,0.125-0.245,0.24-0.338,0.35c-0.076,0.1-0.125,0.174-0.172,0.246c-0.125,0.189-0.212,0.359-0.268,0.52
		c-0.215,0.619-0.098,1.203,0.037,1.875l0.029,0.137c0.227,1.148,1.132,2.58,1.224,2.695c0.478,0.619,0.968,1.25,1.275,1.996
		c0.438,1.049,0.539,2.16,0.291,3.215c-0.279,1.178-0.479,2.457-0.656,3.586c-0.075,0.469-0.142,0.91-0.213,1.32
		c-0.197,1.172-0.089,2.561,0.318,4.018c0.082,0.297,0.317,1.063,0.719,1.814c0.685,1.283,1.505,2.396,2.439,3.318
		c0.84-0.285,1.747-0.645,2.766-1.092c1.143-0.5,2.228-1.025,3.233-1.523c-0.24-0.225-0.53-0.5-0.834-0.816l-0.08-0.082
		c-0.875-0.906-1.867-1.932-2.716-3.553c-1.319-2.523-0.966-3.906-0.922-4.053c0.008-0.021,0.215-0.721,0.215-0.721l0.2-0.66
		l0.132,1.006c0.018,0.127,0.058,0.406,0.127,0.775c0.357,1.473,1.347,3.119,1.771,3.635c1.367,1.648,2.495,2.781,3.646,3.666
		c0.533-0.305,1.104-0.658,1.741-1.078c-0.377-1.666-0.964-3.527-2.399-4.832c-0.125-0.113-0.584-0.531-0.585-0.531l-0.23-0.205
		l0.271-0.154c0.155-0.086,0.541-0.111,1.389,0.682c0.952,0.885,2.017,2.988,2.445,4.439l0.18-0.123
		c0.257-0.176,0.479-0.332,0.687-0.479c-0.15-0.752-0.332-1.459-0.524-2.053C275.768,322.705,274.929,321.455,274.919,321.443
		 M265.295,309.477c-0.047,0.125-0.179,0.193-0.304,0.164c-0.009-0.004-0.018-0.008-0.026-0.01
		c-0.133-0.045-0.204-0.191-0.155-0.322c0.016-0.045,0.032-0.115,0.05-0.201c0.055-0.287,0.091-0.771-0.062-1.176
		c-0.035-0.098-0.073-0.188-0.114-0.275c-0.022,0.199-0.106,0.443-0.316,0.721c-0.005,0.006-0.007,0.012-0.012,0.018
		c-0.016,0.021-0.032,0.037-0.052,0.055c-0.066,0.055-0.154,0.084-0.242,0.078c-0.332-0.021-0.584-0.143-0.753-0.354
		c-0.32-0.398-0.22-0.992-0.153-1.389c0.008-0.047,0.027-0.09,0.053-0.129l-0.009-0.012c-0.061-0.004-0.115-0.012-0.181-0.012
		c-0.142-0.006-0.256-0.115-0.255-0.256c0.001-0.139,0.116-0.252,0.259-0.252c1.45,0.006,1.956,0.828,2.259,1.631
		C265.526,308.406,265.396,309.197,265.295,309.477"/>
	<path fill="#999999" d="M240.775,198.837l-9.262,14.49l14.667-9.148l3.821,16.713l3.821-16.713l14.67,9.148l-9.264-14.49
		l16.921-3.775l-16.921-3.774l9.264-14.488l-14.67,9.149l-3.821-16.714l-3.821,16.714l-14.667-9.149l9.262,14.488l-16.922,3.774
		L240.775,198.837z M238.338,183.542l9.251,5.772l2.412-10.546l2.413,10.546l9.249-5.772l-5.841,9.141l10.672,2.38l-10.672,2.383
		l5.841,9.139l-9.249-5.77l-2.413,10.545l-2.412-10.545l-9.251,5.77l5.842-9.139l-10.672-2.383l10.672-2.38L238.338,183.542z"/>
	<path fill="#999999" d="M225.056,83.615c-1.699,0-3.082,1.365-3.082,3.043c0,1.68,1.383,3.046,3.082,3.046s3.081-1.366,3.081-3.046
		C228.137,84.98,226.755,83.615,225.056,83.615"/>
	<path fill="#999999" d="M275.075,89.703c1.7,0,3.083-1.365,3.083-3.045c0-1.678-1.383-3.043-3.083-3.043
		c-1.698,0-3.081,1.365-3.081,3.043C271.994,88.337,273.377,89.703,275.075,89.703"/>
	<path fill="#999999" d="M250.38,89.703c1.699,0,3.082-1.365,3.082-3.045c0-1.678-1.383-3.043-3.082-3.043s-3.083,1.365-3.083,3.043
		C247.297,88.337,248.681,89.703,250.38,89.703"/>
	<path fill="#999999" d="M222.53,114.623c-1.699,0-3.081,1.365-3.081,3.044c0,1.68,1.382,3.046,3.081,3.046s3.081-1.366,3.081-3.046
		C225.611,115.988,224.229,114.623,222.53,114.623"/>
	<path fill="#999999" d="M277.419,114.623c-1.699,0-3.083,1.365-3.083,3.044c0,1.68,1.384,3.046,3.083,3.046
		c1.7,0,3.082-1.366,3.082-3.046C280.501,115.988,279.119,114.623,277.419,114.623"/>
	<path fill="#999999" d="M250.289,114.623c-1.7,0-3.082,1.365-3.082,3.044c0,1.68,1.382,3.046,3.082,3.046
		c1.697,0,3.082-1.366,3.082-3.046C253.371,115.988,251.987,114.623,250.289,114.623"/>
	<polygon fill="#999999" points="145.125,198.081 146.641,194.214 147.108,193.024 145.903,192.562 143.743,191.736 
		142.537,191.275 142.071,192.467 140.555,196.333 135.521,194.408 134.316,193.947 133.848,195.137 132.744,197.956 
		132.278,199.146 133.483,199.608 138.518,201.533 136.835,205.824 136.368,207.014 137.575,207.475 139.734,208.301 
		140.938,208.762 141.406,207.572 143.087,203.282 147.177,204.845 148.382,205.306 148.849,204.116 149.953,201.297 
		150.421,200.105 149.215,199.645 	"/>
	<polygon fill="#999999" points="354.487,203.712 354.81,204.951 356.062,204.628 360.307,203.544 361.359,207.558 361.683,208.794 
		362.933,208.474 365.175,207.902 366.427,207.582 366.327,207.205 366.358,207.197 365.998,205.947 365.052,202.332 
		370.278,200.996 371.53,200.675 371.206,199.439 370.44,196.513 370.115,195.277 368.865,195.597 363.638,196.933 362.471,192.48 
		362.148,191.244 360.895,191.562 358.655,192.136 357.404,192.456 357.726,193.692 358.892,198.146 354.647,199.23 353.396,199.55 
		353.72,200.787 	"/>
	<path fill="#999999" d="M239.522,307.225c-0.422-0.652-1.223-1.078-2.195-1.172c-0.124-0.012-0.259-0.012-0.366-0.012
		c-0.441,0-0.87,0.07-1.276,0.215l-0.087,0.027c-0.037,0.01-0.074,0.021-0.113,0.037c-0.549,0.229-1.305,0.545-2.077,1.631
		c-0.518,0.734-0.535,1.363-0.578,2.746l-0.016,0.555c-0.018,0.488-0.007,0.695,0.003,0.861c0.009,0.186,0.018,0.33-0.009,0.691
		c-0.084,1.174-0.19,2.637-1.19,3.826c-0.736,0.877-1.777,1.43-2.786,1.959c-0.752,0.398-1.529,0.809-2.159,1.35
		c-0.866,0.738-1.583,1.729-2.193,3.021c-0.412,0.875-0.711,1.758-0.914,2.703c0.235,0.146,0.466,0.281,0.696,0.41
		c0.143,0.082,0.287,0.162,0.43,0.236c0.335-1.434,1.521-3.857,2.55-4.818c0.842-0.787,1.23-0.764,1.386-0.682l0.274,0.152
		l-0.816,0.738c-1.391,1.27-2.101,3.455-2.451,5.064c-0.002,0.01-0.005,0.021-0.008,0.031c0.541,0.262,1.1,0.512,1.707,0.76
		c0.152,0.063,0.3,0.121,0.445,0.182l0.075,0.027c0.929-0.738,1.892-1.742,3.295-3.434c0.426-0.512,1.414-2.16,1.772-3.643
		c0.068-0.363,0.109-0.643,0.125-0.764l0.132-1.01l0.199,0.662c0,0,0.202,0.678,0.216,0.715c0.045,0.156,0.396,1.541-0.922,4.057
		c-0.851,1.625-1.845,2.652-2.72,3.561l-0.077,0.076c-0.137,0.141-0.265,0.275-0.389,0.398l0.45,0.164
		c0.342,0.125,0.68,0.244,1.005,0.355c0.33,0.111,0.627,0.209,0.915,0.297c0.591,0.188,1.114,0.334,1.719,0.502
		c0.634,0.18,1.348,0.383,2.272,0.664c0.78-1.09,1.311-2.117,1.619-3.137c0.378-1.242,0.489-2.635,0.342-4.248
		c-0.127-1.383-0.392-2.877-0.856-4.842c-0.248-1.053-0.147-2.16,0.29-3.213c0.311-0.746,0.801-1.381,1.276-1.994
		c0.095-0.121,0.188-0.244,0.279-0.363l0.059-0.078C240.368,310.504,240.262,308.367,239.522,307.225 M236.573,308.824
		c-0.104,0.248-0.314,0.432-0.627,0.541c-0.084,0.031-0.176,0.025-0.256-0.01c-0.021-0.01-0.043-0.023-0.063-0.037
		c-0.007-0.006-0.011-0.01-0.017-0.014c-0.279-0.211-0.429-0.424-0.505-0.611c-0.015,0.098-0.024,0.193-0.034,0.299
		c-0.032,0.404,0.127,0.869,0.267,1.148c0.036,0.074,0.072,0.137,0.102,0.178c0.083,0.115,0.058,0.273-0.06,0.354
		c-0.044,0.031-0.098,0.049-0.148,0.049c-0.081,0-0.159-0.039-0.21-0.107c-0.174-0.244-0.518-0.969-0.463-1.662
		c0.069-0.854,0.328-1.779,1.727-2.176c0.136-0.039,0.277,0.039,0.318,0.174c0.038,0.135-0.041,0.275-0.178,0.314
		c-0.062,0.018-0.112,0.039-0.169,0.061l-0.005,0.014c0.034,0.029,0.065,0.066,0.088,0.109
		C236.51,307.809,236.771,308.354,236.573,308.824"/>
</g>
</svg>
