<?xml version="1.0" encoding="utf-8"?>
<!-- Generator: Adobe Illustrator 16.0.0, SVG Export Plug-In . SVG Version: 6.00 Build 0)  -->
<!DOCTYPE svg PUBLIC "-//W3C//DTD SVG 1.1//EN" "http://www.w3.org/Graphics/SVG/1.1/DTD/svg11.dtd">
<svg version="1.1" id="Layer_1" xmlns="http://www.w3.org/2000/svg" xmlns:xlink="http://www.w3.org/1999/xlink" x="0px" y="0px"
	 width="2712px" height="2856px" viewBox="0 0 2712 2856" enable-background="new 0 0 2712 2856" xml:space="preserve">
<g>
	<g>
		<path fill="#878787" d="M2134.383,1101.656l-6.801,0.992l0.003,0.026c0.111,0.764,2.384,16.94,2.382,40.949
			c0.006,25.299-2.537,59.292-12.63,93.045c-5.042,16.879-11.962,33.694-21.345,49.375c-9.384,15.684-21.216,30.234-36.145,42.685
			c-15.75,13.151-36.13,23.406-58.963,32.818c-34.242,14.151-73.867,26.379-111.16,45.049c-18.646,9.344-36.721,20.324-53.2,34.043
			c-16.477,13.715-31.346,30.185-43.494,50.369c-8.562,14.223-17.335,31.832-23.993,51.959
			c-6.655,20.123-11.194,42.775-11.195,67.009c-0.013,30.44,7.213,63.381,26.223,96.489c18.999,33.119,49.688,66.348,96.288,97.839
			c23.362,15.792,46.862,26.936,70.134,34.115c23.271,7.183,46.307,10.397,68.718,10.396c29.253,0,57.43-5.47,83.803-14.655
			c39.565-13.785,75.093-35.901,104.445-60.69c29.353-24.807,52.536-52.258,67.399-77.104c16.436-27.498,31.947-60.637,43.371-97.93
			c11.421-37.291,18.75-78.74,18.75-122.793c0.007-56.479-12.074-117.242-42.927-178.723
			c-39.136-78.01-77.908-128.167-107.05-158.888c-29.14-30.723-48.642-42.004-49.187-42.315l-12.278-7.036l2.051,13.967
			L2134.383,1101.656l-3.427,5.938l1.572-2.724l-1.583,2.718l0.011,0.006l1.572-2.724l-1.583,2.718
			c0.044,0.027,18.601,10.769,46.723,40.556c28.121,29.789,65.814,78.629,104.082,154.903
			c29.859,59.532,41.468,118.052,41.475,172.596c0.001,42.533-7.079,82.646-18.15,118.793
			c-11.069,36.145-26.134,68.321-42.033,94.918c-9.275,15.521-22.283,32.497-38.297,49.141c-24.019,24.977-54.8,49.214-89.867,67.12
			c-35.077,17.917-74.391,29.503-115.673,29.5c-21.095-0.001-42.72-3.018-64.651-9.783c-21.931-6.769-44.176-17.29-66.484-32.366
			c-45.217-30.565-74.276-62.292-92.069-93.302c-17.784-31.021-24.397-61.381-24.409-89.688
			c-0.001-22.521,4.225-43.736,10.504-62.72c6.275-18.98,14.606-35.716,22.725-49.198c15.073-25.024,34.523-43.839,56.5-58.999
			c32.947-22.733,71.619-37.057,108.639-50.862c18.508-6.912,36.596-13.707,53.357-21.478c16.758-7.776,32.212-16.528,45.355-27.483
			c16.238-13.541,29.063-29.343,39.131-46.177c15.106-25.26,24.049-52.823,29.253-78.945c5.2-26.127,6.659-50.838,6.661-70.492
			c-0.001-25.668-2.496-42.714-2.53-42.959L2134.383,1101.656l-3.427,5.938L2134.383,1101.656z"/>
		<path fill="#878787" d="M2030.145,1613.528c0,0-11.372,0,54.963-66.108c66.441-66.217,125.639-133.556,138.354-120.885
			c15.161,15.109-41.053,63.004-87.182,111.439C2030.145,1649.417,2030.145,1613.528,2030.145,1613.528z"/>
		<polygon fill="#005480" points="1857.676,1547.42 1863.361,1596.529 1905.058,1566.308 		"/>
		<polygon fill="#005480" points="1944.858,1639.972 1941.068,1687.192 1982.764,1689.082 1990.344,1645.638 		"/>
		<ellipse fill="#005480" cx="2041.887" cy="1747.209" rx="18.952" ry="16.055"/>
		<path fill="#878787" d="M1848.2,1517.198l3.977,5.588c6.085-4.305,11.456-7.647,16.131-9.815c2.337-1.087,4.493-1.882,6.472-2.396
			c1.982-0.516,3.78-0.755,5.467-0.756c2.814,0.015,5.36,0.62,8.248,2.141c2.872,1.524,6.061,4.057,9.559,7.934
			c2.365,2.616,5.344,5.688,8.527,9.21c4.77,5.268,9.96,11.522,13.829,18.095c1.937,3.283,3.541,6.635,4.64,9.941
			c1.101,3.31,1.697,6.56,1.696,9.723c-0.012,3.907-0.865,7.697-3.038,11.692c-2.179,3.985-5.761,8.209-11.443,12.526
			c-7.095,5.399-14.495,11.757-21.966,16.596c-3.725,2.421-7.444,4.452-11.04,5.837c-3.603,1.39-7.048,2.132-10.369,2.132
			c-2.113-0.002-4.19-0.294-6.329-0.951c-3.2-0.99-6.587-2.815-10.255-5.994c-3.66-3.175-7.565-7.717-11.582-13.974
			c-6.276-9.769-10.799-17.753-13.654-24.268c-1.431-3.255-2.445-6.137-3.09-8.673c-0.646-2.539-0.926-4.723-0.926-6.648
			c0.011-2.653,0.495-4.829,1.495-7.077c0.757-1.681,1.836-3.403,3.326-5.243c2.229-2.758,5.394-5.748,9.474-9.044
			c4.076-3.299,9.052-6.904,14.829-10.986L1848.2,1517.198l-3.976-5.588c-5.201,3.676-9.87,7.04-14.012,10.304
			c-6.201,4.9-11.275,9.557-15.01,14.923c-1.857,2.68-3.357,5.55-4.37,8.624c-1.017,3.071-1.53,6.327-1.527,9.676
			c0,3.248,0.471,6.576,1.347,10.018c1.318,5.166,3.534,10.605,6.606,16.659c3.075,6.052,7.021,12.722,11.885,20.298
			c6.082,9.464,12.382,16.23,19.085,20.716c3.346,2.237,6.791,3.885,10.269,4.955c3.477,1.074,6.978,1.564,10.392,1.563
			c5.39-0.001,10.528-1.202,15.331-3.055c7.21-2.792,13.751-7.022,19.808-11.452c6.045-4.435,11.613-9.104,16.568-12.86
			c6.901-5.239,11.914-10.889,15.184-16.868c3.276-5.968,4.726-12.233,4.713-18.249c-0.002-6.517-1.625-12.7-4.05-18.395
			c-3.651-8.545-9.104-16.105-14.425-22.528c-2.664-3.207-5.304-6.123-7.681-8.688c-2.374-2.562-4.494-4.783-6.065-6.523
			c-4.265-4.719-8.615-8.356-13.302-10.854c-4.671-2.501-9.702-3.769-14.724-3.755c-3.007,0-5.994,0.433-8.943,1.201
			c-4.428,1.156-8.779,3.051-13.231,5.476c-4.452,2.43-9.015,5.401-13.847,8.816L1848.2,1517.198z"/>
		<path fill="#878787" d="M1904.918,1659.897l4.18,5.438c0.008-0.006,11.096-8.471,24.787-19.057
			c13.696-10.591,29.971-23.283,40.451-31.828l-4.354-5.302l-4.86,4.844l0.101,0.101c1.07,1.07,10.532,10.559,21.38,22.329
			c5.422,5.884,11.191,12.338,16.413,18.569c5.219,6.223,9.9,12.252,13.072,17.104l5.758-3.742l-4.975-4.728l-0.099,0.103
			c-1.071,1.114-10.812,11.183-23.124,22.233c-6.154,5.523-12.952,11.292-19.576,16.283c-6.607,4.992-13.098,9.201-18.285,11.576
			l2.881,6.22l5.133-4.556l-53.75-60.146L1904.918,1659.897l4.18,5.438L1904.918,1659.897l-5.133,4.556l57.137,63.937l4.626-2.127
			c6.901-3.188,14.189-8.062,21.502-13.606c10.938-8.315,21.813-18.161,30.018-25.966c8.197-7.802,13.7-13.553,13.753-13.608
			l3.756-3.926l-2.973-4.544c-3.798-5.797-8.935-12.34-14.563-19.03c-8.435-10.019-17.956-20.303-25.392-28.114
			c-7.434-7.808-12.775-13.132-12.807-13.163l-4.398-4.384l-4.814,3.927c-10.266,8.371-26.523,21.053-40.173,31.606
			c-6.827,5.279-13.009,10.032-17.482,13.464c-2.237,1.716-4.047,3.102-5.297,4.059c-1.25,0.956-1.938,1.48-1.939,1.482
			l-5.877,4.485l4.924,5.509L1904.918,1659.897z"/>
		<path fill="#878787" d="M1986.957,1745.416l4.314,5.333l53.757-43.206l40.897,39.061l4.757-4.945l-5.028-4.671l-0.132,0.141
			c-1.39,1.48-13.626,14.468-26.786,26.966c-6.569,6.243-13.389,12.372-19.048,16.786c-2.818,2.203-5.36,3.977-7.262,5.066
			c-0.943,0.545-1.728,0.915-2.197,1.09c-0.233,0.089-0.386,0.128-0.412,0.134h-0.005l0.356,1.769v-1.794
			c-0.245,0.001-0.352,0.025-0.356,0.025l0.356,1.769v-1.794v4.077l1.427-3.803c-0.638-0.236-1.141-0.273-1.427-0.274v4.077
			l1.427-3.803l-1.732,4.619l3.627-3.348c-0.524-0.576-1.262-1.044-1.895-1.271l-1.732,4.619l3.627-3.348
			c-11.688-12.579-21.993-24.484-29.365-33.231c-3.687-4.373-6.64-7.957-8.667-10.443c-1.013-1.242-1.796-2.211-2.322-2.865
			c-0.264-0.328-0.463-0.577-0.596-0.742l-0.148-0.187l-0.046-0.058L1986.957,1745.416l4.314,5.333L1986.957,1745.416l-5.39,4.252
			c0.069,0.086,18.066,22.746,41.836,48.332c0.936,1.019,2.169,1.812,3.377,2.253c1.214,0.45,2.372,0.593,3.389,0.593
			c2.021-0.02,3.577-0.49,5.067-1.049c1.389-0.538,2.71-1.208,4.064-1.985c2.53-1.459,5.177-3.313,7.997-5.474
			c4.921-3.778,10.337-8.501,15.768-13.5c8.136-7.493,16.271-15.597,22.394-21.846c6.122-6.247,10.226-10.635,10.252-10.664
			l4.622-4.942l-54.522-52.073l-68.472,55.033l4.229,5.322L1986.957,1745.416z"/>
		<path fill="#878787" d="M2136.009,1358.562c-8.301-13.865-22.41-12.332-32.612-5.591c-16.295,10.765-31.343,24.435-46.021,37.252
			c-15.285,13.347-30.116,27.203-44.675,41.331c-15.791,15.323-31.261,30.971-46.667,46.675
			c-11.521,11.743-26.745,24.506-27.64,41.559c-0.172,0.708,1.577,7.016,8.873,14.137c12.029,6.165,21.911,1.411,31.749-4.947
			c7.162-4.629,13.189-10.9,19.359-16.715l25.719-24.24c15.169-14.294,30.338-28.589,45.506-42.884
			c14.996-14.133,30.576-27.856,44.94-42.634C2124.646,1392.107,2144.203,1372.249,2136.009,1358.562z M2127.363,1369.166
			c-0.626,2.864-15.288,19.043-20.278,24.32c-22.997,24.318-70.802,64.739-70.802,64.739l-11.686-14.729
			c0,0,32.895-35.916,57.924-56.739c5.846-4.863,11.76-9.644,17.753-14.325c5.317-4.154,11.243-9.958,18.114-11.401
			C2122.379,1360.192,2128.313,1364.819,2127.363,1369.166z"/>
		<path fill="#878787" d="M2228.753,1588.5c-1.12-5.378-6.284-9.056-11.112-10.276c-25.806-6.52-43.022,23.2-57.299,39.599
			c-10.662,12.245-21.36,24.463-31.681,36.997c-9.504,11.543-20.665,24.157-27.519,37.539c-5.4,10.547,5.195,19.582,11.455,20.572
			c11.017,1.745,22.021-9.792,29.291-16.466c20.95-19.229,39.407-40.917,57.728-62.589c8.772-10.377,18.227-20.479,26.006-31.635
			C2228.259,1598.459,2229.77,1593.381,2228.753,1588.5z M2205.496,1607.226c-4.759,5.196-9.41,9.638-13.959,15.019
			c-8.761,10.367-31.18,38.073-31.18,38.073l-10.998-8.563c0,0,31.138-36.979,40.352-46.605c4.254-4.442,9.148-9.144,14.41-12.538
			c1.948-1.255,6.237-5.479,9.853-1.713c2.521,2.627,0.344,6.851-1.488,8.792
			C2210.151,1602.159,2208.332,1604.128,2205.496,1607.226z"/>
	</g>
	<g>
		<path fill="#878787" d="M2182.18,1066.708l-4.313,5.333l0.028,0.023c0.734,0.592,14.979,12.138,33.811,30.792
			c18.83,18.647,42.242,44.422,61.307,73.31c14.472,21.907,25.816,37.654,35.744,48.323c4.979,5.333,9.615,9.426,14.342,12.335
			c2.363,1.45,4.76,2.599,7.224,3.391c2.46,0.792,4.993,1.217,7.517,1.216c3.785,0.008,7.472-0.968,10.812-2.626
			c3.354-1.66,6.411-3.955,9.374-6.718c2.538-2.363,4.396-5.305,5.534-8.448c1.146-3.15,1.62-6.486,1.62-9.899
			c-0.003-4.246-0.725-8.643-1.977-13.194c-2.199-7.957-6.035-16.419-11.068-25.1c-7.558-13.007-17.837-26.48-29.605-38.785
			c-11.775-12.298-25.021-23.417-38.655-31.577c-24.152-14.439-48.979-25.623-67.817-33.234
			c-18.836-7.609-31.681-11.636-31.814-11.678c-3.147-0.986-6.564,0.404-8.121,3.303s-0.822,6.503,1.747,8.566L2182.18,1066.708
			l-2.062,6.535l0.024,0.008c0.641,0.202,13.338,4.229,31.614,11.647c18.274,7.415,42.133,18.233,65.042,31.934
			c9.348,5.587,18.807,12.946,27.665,21.251c13.294,12.45,25.245,27.043,33.723,40.807c4.241,6.875,7.611,13.542,9.871,19.54
			c2.271,5.991,3.387,11.318,3.373,15.31c0.001,2.146-0.306,3.885-0.794,5.22c-0.498,1.342-1.131,2.294-2.017,3.131
			c-2.265,2.12-4.311,3.57-6.072,4.436c-1.776,0.867-3.218,1.195-4.71,1.203c-1.002-0.002-2.06-0.159-3.299-0.555
			c-2.154-0.686-4.872-2.171-8.094-4.776c-4.837-3.889-10.71-10.226-17.628-19.144c-6.93-8.918-14.938-20.405-24.321-34.619
			c-20.153-30.521-44.587-57.234-64.014-76.401c-19.428-19.16-33.855-30.752-33.99-30.861L2182.18,1066.708l-2.062,6.535
			L2182.18,1066.708z"/>
		<ellipse fill="#878787" cx="2285.189" cy="1144.194" rx="5.913" ry="5.894"/>
		<ellipse fill="#878787" cx="2303.644" cy="1167.26" rx="5.914" ry="5.894"/>
		<ellipse fill="#878787" cx="2320.874" cy="1193.605" rx="5.914" ry="5.894"/>
	</g>
	<g>
		<path fill="#878787" d="M2427.4,817.487l0.069,6.85l-0.007-0.593l0.004,0.593h0.003l-0.007-0.593l0.004,0.593h0.057
			c0.718-0.001,7.048,0.043,16.03,1.375c6.736,0.997,14.962,2.72,23.416,5.644c6.342,2.191,12.81,5.057,18.896,8.766
			c9.141,5.572,17.391,12.984,23.409,22.984c6.007,10.013,9.9,22.7,9.916,39.374c0,1.481-0.031,2.993-0.096,4.536
			c-0.822,19.728-5.304,34.717-11.728,46.254c-4.827,8.654-10.766,15.403-17.293,20.753c-9.781,8.016-20.953,12.866-31.433,15.69
			c-10.464,2.828-20.21,3.608-26.807,3.604c-2.352,0-4.305-0.099-5.693-0.225c-7.945-0.714-17.133-1.197-26.457-2.907
			c-6.988-1.277-14.014-3.231-20.59-6.376c-4.935-2.36-9.621-5.38-13.939-9.333c-6.467-5.934-12.172-13.975-16.451-25.429
			c-4.269-11.445-7.049-26.323-7.363-45.604c-0.008-0.423-0.011-0.841-0.011-1.254c0.01-12.869,3.245-23.823,8.622-33.312
			c4.036-7.108,9.309-13.38,15.393-18.821c9.119-8.161,20.078-14.426,31.107-18.712c11.02-4.294,22.118-6.598,31.267-7.014
			L2427.4,817.487l0.069,6.85L2427.4,817.487l-0.319-6.843c-9.68,0.453-20.524,2.579-31.507,6.416
			c-16.451,5.767-33.24,15.386-46.176,29.474c-6.458,7.042-11.93,15.218-15.773,24.526c-3.847,9.304-6.046,19.731-6.042,31.129
			c0,0.494,0.005,0.987,0.013,1.479c0.4,24.249,4.462,42.844,11.167,57.189c5.021,10.749,11.56,19.059,18.911,25.316
			c5.51,4.697,11.452,8.239,17.483,10.915c9.054,4.015,18.3,6.103,26.873,7.368c8.569,1.26,16.511,1.703,22.869,2.282
			c1.875,0.169,4.2,0.28,6.937,0.281c6.797-0.002,16.11-0.689,26.47-3.094c7.766-1.806,16.116-4.581,24.368-8.802
			c12.367-6.318,24.536-15.972,33.754-30.27c9.231-14.289,15.415-33.087,16.404-57.272c0.072-1.729,0.106-3.428,0.106-5.1
			c0.001-11.154-1.572-21.097-4.401-29.896c-4.939-15.412-13.758-27.208-24.037-35.908c-7.71-6.54-16.223-11.393-24.649-15.024
			c-12.646-5.442-25.12-8.16-34.735-9.559c-9.615-1.394-16.381-1.456-17.592-1.457l-0.192,0l-0.129,0.001l-0.121,0.006
			L2427.4,817.487z"/>
		<path fill="#878787" d="M2245.29,839.003l0.208,6.847l-0.126-4.139l0.111,4.139l0.015,0l-0.126-4.139l0.111,4.139l0.097-0.001
			c0.07-0.001,0.177-0.002,0.318-0.002c1.257-0.001,5.239,0.081,10.392,0.926c3.863,0.632,8.381,1.693,12.894,3.418
			c3.386,1.293,6.767,2.957,9.9,5.066c4.705,3.176,8.844,7.298,11.891,12.886c3.036,5.596,5.051,12.751,5.06,22.32
			c0,2.16-0.104,4.441-0.327,6.85c-0.954,10.264-3.504,18.011-6.899,23.95c-2.553,4.457-5.59,7.926-8.964,10.714
			c-5.053,4.172-10.929,6.821-16.979,8.428c-6.04,1.606-12.215,2.143-17.574,2.14c-8.772,0.014-18.725-3.04-27.152-9.203
			c-4.22-3.078-8.073-6.918-11.29-11.535c-3.217-4.619-5.806-10.016-7.482-16.276c-1.055-3.944-1.538-7.759-1.539-11.445
			c0.002-6.212,1.373-12.073,3.851-17.509c3.71-8.143,9.971-15.317,17.769-20.709c7.789-5.396,17.078-8.977,26.625-10.059
			L2245.29,839.003l0.208,6.847L2245.29,839.003l-0.78-6.807c-15.881,1.824-30.784,8.999-41.923,19.831
			c-5.564,5.421-10.185,11.78-13.425,18.878c-3.24,7.094-5.086,14.938-5.084,23.181c0,4.887,0.647,9.908,2.004,14.975
			c2.078,7.772,5.356,14.655,9.473,20.561c6.178,8.865,14.212,15.518,22.867,19.947c8.664,4.428,17.954,6.671,26.868,6.677
			c5.563-0.001,11.962-0.479,18.61-1.986c4.983-1.132,10.112-2.847,15.089-5.409c7.459-3.829,14.577-9.638,20.012-17.947
			c5.449-8.303,9.166-18.984,10.396-32.333c0.26-2.805,0.386-5.506,0.386-8.108c0.001-6.822-0.87-12.967-2.469-18.461
			c-2.784-9.622-7.849-17.179-13.841-22.778c-4.491-4.211-9.474-7.355-14.43-9.715c-7.441-3.537-14.836-5.341-20.811-6.302
			c-5.975-0.957-10.54-1.06-12.334-1.062c-0.471,0-0.751,0.008-0.815,0.01l-0.288,0.008l-0.285,0.033L2245.29,839.003z"/>
		<path fill="#005480" d="M2420.828,887.65c0,0,24.407-29.001,43.182-20.581c18.773,8.419,6.571,56.132-12.203,72.036
			s-33.793,26.194-33.793,26.194s-43.125-34.671-44.119-66.422C2372.016,839.003,2420.828,887.65,2420.828,887.65z"/>
		<path fill="#005480" d="M2249.045,883.909c-1.876,1.871,9.388-12.162,17.837-7.484c8.448,4.678,3.755,22.453-27.224,47.711
			c0,0-16.896-18.71-15.957-34.614c0.938-15.904,8.448-14.968,12.203-14.033C2239.658,876.425,2249.045,883.909,2249.045,883.909z"
			/>
		<path fill="#878787" d="M2047.224,940.976l6.087,3.182l-2.227-1.165l2.224,1.17l0.003-0.006l-2.227-1.165l2.224,1.17
			c0.051-0.097,7.466-14.066,24.255-34.271c16.79-20.207,42.946-46.645,80.503-71.749c38.275-25.589,75.18-47.146,112.89-62.349
			c37.721-15.204,76.216-24.091,118.013-24.431c0.718-0.006,1.435-0.009,2.151-0.009c25.16-0.001,50.593,3.514,74.515,10.131
			c35.893,9.912,68.342,26.841,91.503,48.962c11.59,11.058,20.868,23.39,27.241,36.793c6.371,13.411,9.869,27.887,9.874,43.477
			c-0.001,10.849-1.701,22.249-5.394,34.208c-8.29,26.828-20.275,48.063-34.069,64.984c-20.687,25.365-45.529,41.074-68.273,50.733
			c-22.719,9.654-43.345,13.199-55.009,14.188c-8.741,0.747-17.438,1.157-26.159,1.158c-32.285-0.014-64.942-5.586-101.908-20.913
			c-36.951-15.332-78.195-40.506-127.053-79.789l-4.315,5.332l4.591-5.098c-0.231-0.202-8.499-7.593-21.316-15.076
			c-6.413-3.739-13.97-7.504-22.291-10.368c-8.318-2.859-17.419-4.828-26.892-4.832c-2.705,0-5.439,0.162-8.187,0.514
			c-36.831,4.706-52.109,8.491-52.42,8.568L2047.224,940.976l6.087,3.182L2047.224,940.976l1.667,6.646l-0.405-1.617l0.402,1.617
			l0.003,0l-0.405-1.617l0.402,1.617c0.159-0.04,15.021-3.695,50.839-8.271c2.135-0.273,4.281-0.402,6.437-0.402
			c7.536-0.003,15.179,1.593,22.406,4.082c10.843,3.723,20.699,9.445,27.753,14.231c3.529,2.391,6.362,4.543,8.291,6.079
			c0.964,0.768,1.702,1.382,2.188,1.794c0.243,0.206,0.423,0.362,0.537,0.461l0.122,0.106l0.022,0.02l0.847-0.947l-0.85,0.944
			l0.003,0.002l0.847-0.947l-0.85,0.944l0.274,0.233c49.558,39.841,91.86,65.776,130.399,81.774
			c38.523,16.002,73.298,21.978,107.193,21.964c9.155,0,18.246-0.431,27.334-1.208c8.659-0.741,21.246-2.673,35.918-6.938
			c21.99-6.397,48.676-18.053,73.265-38.926c24.587-20.853,46.972-50.989,60.134-93.662c4.068-13.17,6.003-25.958,6.002-38.239
			c0.012-23.545-7.141-45.148-19.407-63.971c-9.198-14.131-21.242-26.737-35.314-37.709c-21.115-16.456-46.798-29.261-74.618-37.997
			c-27.822-8.73-57.793-13.386-87.541-13.388c-0.754,0-1.508,0.003-2.262,0.009c-43.704,0.342-84.061,9.698-123.059,25.43
			c-39.01,15.733-76.692,37.805-115.392,63.671c-39.121,26.151-66.356,53.755-83.845,74.886
			c-17.49,21.133-25.243,35.797-25.426,36.142c-1.262,2.397-0.995,5.289,0.684,7.417s4.436,3.068,7.07,2.412L2047.224,940.976z"/>
	</g>
	<g>
		<path fill="#878787" d="M2244.252,745.672l5.775,3.716c0.017-0.026,18.179-28.06,41.004-64.942
			c22.829-36.893,50.303-82.588,69.038-118.15c11.273-21.39,24.068-34.854,36.479-43.012c12.418-8.151,24.527-11.065,34.774-11.073
			c6.009-0.002,11.368,1.022,15.649,2.573c2.14,0.773,4.007,1.676,5.54,2.616c1.534,0.938,2.729,1.917,3.543,2.782
			c2.276,2.409,4.72,5.404,6.589,9.134c1.862,3.739,3.193,8.173,3.203,13.824c-0.004,5.058-1.093,11.15-4.164,18.546
			c-4.6,11.083-13.729,25.048-30.045,42.067c-16.307,17.021-39.761,37.084-72.79,60.49c-39.693,28.131-69.199,47.001-88.738,58.816
			c-9.77,5.907-17.046,10.051-21.859,12.707c-2.406,1.328-4.196,2.284-5.374,2.902c-0.589,0.309-1.025,0.534-1.308,0.679
			c-0.142,0.072-0.245,0.125-0.31,0.158l-0.069,0.035l-0.013,0.006L2244.252,745.672l5.775,3.716L2244.252,745.672l3.074,6.127
			c0.354-0.176,39.591-19.766,119.49-76.391c44.724-31.707,72.658-57.653,89.652-79.2c8.492-10.777,14.251-20.471,17.915-29.277
			c3.662-8.799,5.214-16.737,5.211-23.792c0.01-7.879-1.954-14.585-4.652-19.947c-2.693-5.372-6.08-9.438-8.876-12.401
			c-1.805-1.908-3.94-3.582-6.353-5.062c-3.62-2.215-7.874-3.998-12.649-5.252c-4.773-1.251-10.069-1.967-15.741-1.967
			c-12.874-0.008-27.726,3.724-42.341,13.335c-14.624,9.603-28.938,25.014-41.085,48.083
			c-18.432,34.993-45.823,80.578-68.567,117.326c-11.375,18.379-21.592,34.562-28.964,46.146c-3.686,5.792-6.66,10.434-8.712,13.627
			c-1.025,1.596-1.821,2.83-2.359,3.664s-0.816,1.264-0.817,1.266c-1.678,2.589-1.409,5.991,0.655,8.287
			c2.063,2.296,5.427,2.935,8.193,1.556L2244.252,745.672z"/>
		<ellipse fill="#878787" cx="2390.577" cy="585.49" rx="8.85" ry="8.378"/>
		<ellipse fill="#878787" cx="2421.087" cy="554.905" rx="8.85" ry="8.378"/>
		<ellipse fill="#878787" cx="2364.242" cy="618.544" rx="8.849" ry="8.378"/>
	</g>
	<g>
		<path fill="#005480" d="M1174.297,326.502c0,0,22.202-73.225,45.699-71.352c23.498,1.874,33.837,65.571,33.837,65.571
			c23.497,6.557,60.691,14.687,60.154,27.165c-0.514,11.934-31.427,36.162-31.427,36.162s12.814,65.123-0.344,72.617
			c-11.77,6.703-64.101-31.03-64.101-31.03s-47.935,51.52-62.974,33.722s13.158-68.381,13.158-68.381s-57.292-19.349-50.754-42.152
			C1121.307,335.708,1174.297,326.502,1174.297,326.502z"/>
		<path fill="#005480" d="M1564.782,331.527c-4.04-10.455-22.122-14.325-31.634-16.827c-6.637-1.746-13.277-3.48-19.912-5.236
			c-6.318-1.672-11.951-3.129-14.755-9.574c-7.343-16.883-23.452-55.938-38.75-55.151c-9.789,0.503-20.671,15.349-26.633,26.273
			c-9.809,17.97-13.312,22.522-19.85,35.378c-0.161,0.196-25.518,8.465-34.798,11.548c-12.029,5.138-21.622,7.648-22.996,18.354
			c-1.519,11.817,8.111,17.747,16.845,23.301c2.981,1.896,14.943,8.767,16.684,10.876c3.603,4.367-1.661,13.453-3.139,18.146
			c-4.062,12.88-6.9,26.106-8.616,39.494c-1.29,10.059,1.126,22.159,13.797,22.111c5.445-0.02,11.211-1.508,15.614-4.511
			c19.738-13.457,44.09-34.426,47.425-34.26c6.873,0.343,38.689,50.208,63.632,39.029c14.899-6.678,6.051-51.73,6.53-74.684
			c0.111-5.314,19.016-16.019,24.117-19.85C1556.39,349.902,1568.795,341.911,1564.782,331.527z"/>
		<path fill="#005480" d="M1656.107,305.223c0,0,23.364-60.06,43.129-62.873c18.025-2.566,35.406,58.382,35.406,58.382
			s68.237,21.171,68.237,34.645c0,13.473-38.624,42.343-38.624,42.343s18.668,67.364,6.438,75.705
			c-12.232,8.341-69.524-31.437-69.524-31.437s-59.869,45.551-73.387,34.645c-13.519-10.907,12.875-78.271,12.875-78.271
			s-53.432-30.795-47.637-46.192C1601.432,309.813,1656.107,305.223,1656.107,305.223z"/>
		<path fill="#005480" d="M1886.01,309.714c0,0,14.807-35.286,24.463-48.759c9.655-13.473,31.543-33.361,43.131,26.304
			c0,0,0,6.416,4.506,12.19c4.507,5.774,68.236,12.19,66.949,28.871c-1.066,13.809-40.557,41.06-40.557,41.06
			s14.163,68.006-1.287,77.628c-18.855,11.745-59.225-28.229-59.867-28.229c-0.645,0-49.724,42.186-59.869,36.569
			c-17.381-9.624,3.863-71.855,5.795-74.421c1.931-2.566-39.913-3.208-41.844-25.663
			C1825.585,333.825,1886.01,309.714,1886.01,309.714z"/>
		<path fill="#878787" d="M2106.813,319.979l6.034,3.281l0.086-0.157c0.911-1.658,8.955-16.226,18.021-30.761
			c4.525-7.26,9.32-14.522,13.5-20.046c2.082-2.757,4.021-5.081,5.574-6.672c0.771-0.794,1.448-1.402,1.921-1.769
			c0.235-0.184,0.418-0.306,0.515-0.365l0.073-0.042l-0.504-0.989l0.402,1.032l0.102-0.043l-0.504-0.989l0.402,1.032l-0.883-2.265
			v2.428c0.284,0.003,0.636-0.064,0.884-0.164l-0.884-2.265v2.428v-1.975l-0.438,1.93c0.097,0.022,0.252,0.045,0.438,0.045v-1.975
			l-0.438,1.93l0.243-1.07l-0.344,1.043l0.101,0.027l0.243-1.07l-0.344,1.043l0.078-0.237l-0.1,0.23l0.021,0.007l0.078-0.237
			l-0.1,0.23c0.024,0.008,0.248,0.117,0.59,0.382c0.647,0.489,1.666,1.514,2.764,2.945c1.943,2.507,4.153,6.209,6.282,10.389
			c3.21,6.28,6.296,13.647,8.817,20.154c2.525,6.519,4.486,12.156,5.561,15.191c0.719,1.989,1.835,3.403,2.974,4.564
			c1.081,1.087,2.239,1.974,3.479,2.799c2.321,1.535,4.954,2.858,7.89,4.153c5.124,2.25,11.171,4.366,17.435,6.427
			c9.374,3.079,19.246,6.023,26.512,8.654c1.812,0.654,3.454,1.287,4.859,1.88c1.053,0.444,1.972,0.867,2.712,1.244
			c1.107,0.552,1.826,1.065,1.87,1.121l0.009-0.011l-0.01,0.011l0.001,0l0.009-0.011l-0.01,0.011l1.918-2.056l-2.415,1.391
			c0.29,0.49,0.481,0.644,0.497,0.665l1.918-2.056l-2.415,1.391l4.399-2.534h-5.055c-0.002,1.149,0.375,2.061,0.655,2.534
			l4.399-2.534h-5.055h5.433l-5.362-0.867c-0.045,0.271-0.07,0.566-0.07,0.867h5.433l-5.362-0.867l0.005-0.03l2.653,0.44
			l-2.528-0.936c-0.024,0.066-0.079,0.22-0.125,0.495l2.653,0.44l-2.528-0.936l0.587,0.217l-0.57-0.258l-0.017,0.041l0.587,0.217
			l-0.57-0.258c-0.007,0.019-0.142,0.281-0.404,0.653c-0.49,0.709-1.411,1.802-2.611,3.033c-2.106,2.171-5.063,4.806-8.324,7.508
			c-4.896,4.064-10.489,8.313-15.239,11.874c-2.377,1.782-4.544,3.393-6.336,4.746c-0.897,0.677-1.7,1.29-2.4,1.837
			c-0.705,0.551-1.296,1.025-1.841,1.5c-1.032,0.905-1.637,1.876-2.036,2.702c-0.589,1.255-0.79,2.271-0.935,3.218
			c-0.134,0.945-0.173,1.828-0.174,2.73c0.003,1.93,0.193,3.969,0.487,6.25c0.519,3.972,1.382,8.636,2.382,13.694
			c1.501,7.574,3.315,16.007,4.739,23.769c0.712,3.877,1.325,7.583,1.754,10.889c0.431,3.3,0.667,6.214,0.665,8.38
			c0,0.92-0.043,1.701-0.11,2.284c-0.049,0.437-0.113,0.76-0.159,0.933l-0.037,0.127l-0.004,0.012l2.346,0.881l-1.811-1.662
			c-0.439,0.486-0.531,0.782-0.535,0.781l2.346,0.881l-1.811-1.662l3.143,2.885l-2.229-3.628c-0.385,0.234-0.695,0.506-0.914,0.743
			l3.143,2.885l-2.229-3.628l2.381,3.875l-1.106-4.408c-0.437,0.107-0.892,0.297-1.274,0.533l2.381,3.875l-1.106-4.408l0.646,2.57
			v-2.662c-0.082,0.001-0.295,0.005-0.645,0.091l0.645,2.571v-2.662v0.854l0.042-0.854l-0.042-0.001v0.854l0.042-0.854l-0.003,0
			c-0.066-0.001-0.543-0.081-1.23-0.313c-1.305-0.427-3.328-1.349-5.656-2.636c-4.1-2.252-9.198-5.591-14.468-9.297
			c-7.921-5.564-16.265-11.955-22.899-16.987c-3.325-2.521-6.214-4.696-8.506-6.321c-1.154-0.817-2.143-1.491-3.093-2.065
			c-0.483-0.29-0.946-0.555-1.554-0.836c-0.31-0.141-0.655-0.289-1.146-0.443c-0.501-0.143-1.119-0.336-2.265-0.351
			c-1.019,0.012-1.577,0.167-2.029,0.284c-0.852,0.249-1.278,0.466-1.717,0.675c-0.806,0.402-1.487,0.815-2.299,1.322
			c-1.496,0.94-3.33,2.185-5.522,3.698c-3.825,2.641-8.695,6.08-14.062,9.762c-8.039,5.519-17.203,11.585-25.328,16.163
			c-4.053,2.287-7.853,4.198-10.99,5.465c-1.564,0.634-2.962,1.105-4.087,1.394c-1.122,0.294-1.976,0.389-2.355,0.383l-0.173-0.006
			l-0.039-0.004l-0.304,1.845l0.948-1.577c-0.372-0.221-0.634-0.267-0.645-0.268l-0.304,1.845l0.948-1.577l-1.593,2.649l2.62-1.648
			c-0.229-0.377-0.658-0.79-1.027-1l-1.593,2.649l2.62-1.648l-0.514,0.322l0.531-0.292l-0.019-0.031l-0.513,0.323l0.531-0.292
			l-0.106,0.059l0.108-0.056l-0.002-0.003l-0.106,0.059l0.108-0.056c-0.007-0.003-0.16-0.351-0.27-0.997
			c-0.113-0.644-0.193-1.571-0.192-2.694c-0.003-1.975,0.239-4.542,0.71-7.427c0.819-5.06,2.318-11.102,4.135-17.241
			c2.722-9.218,6.154-18.69,9.011-25.86c1.427-3.582,2.714-6.601,3.667-8.674c0.474-1.031,0.871-1.836,1.105-2.27l0.13-0.237
			l0.022-0.038l0.003-0.005l-2.934-1.827l2.727,2.116c0.16-0.208,0.197-0.275,0.207-0.289l-2.934-1.827l2.727,2.116l-4.514-3.503
			l4.115,3.959c0.202-0.209,0.315-0.352,0.398-0.457l-4.514-3.503l4.115,3.959l-4.653-4.478l3.587,5.362
			c0.579-0.392,0.856-0.675,1.066-0.884l-4.653-4.478l3.587,5.362l0.035-0.023l-0.017,0.011c0.664-0.443,1.471-1.152,2.108-2.211
			c0.645-1.045,1.003-2.412,0.987-3.566c0-0.951-0.191-1.749-0.413-2.363c-0.46-1.222-0.969-1.826-1.342-2.275
			c-0.378-0.432-0.677-0.693-0.934-0.909c-0.503-0.413-0.868-0.644-1.224-0.867c-0.677-0.414-1.308-0.74-2.037-1.104
			c-1.352-0.668-3-1.413-4.938-2.272c-3.38-1.497-7.608-3.318-12.058-5.33c-3.335-1.508-6.79-3.121-10.065-4.764
			c-2.456-1.232-4.812-2.481-6.927-3.702c-3.167-1.818-5.815-3.628-7.317-4.987c-0.752-0.665-1.197-1.217-1.293-1.378l-0.023-0.037
			l-0.002-0.002l-1.315,0.717l1.431-0.418c-0.061-0.203-0.113-0.294-0.115-0.299l-1.315,0.717l1.431-0.418l-3.107,0.908h3.229
			c0.001-0.391-0.063-0.708-0.122-0.908l-3.107,0.908h3.229c0.003-0.244,0.036-0.452,0.158-0.774
			c0.115-0.298,0.323-0.691,0.688-1.17c0.672-0.898,1.914-2.061,3.646-3.23c3.024-2.067,7.464-4.127,12.324-5.869
			c7.302-2.634,15.549-4.629,21.897-5.926c3.177-0.651,5.885-1.132,7.784-1.448c0.949-0.158,1.697-0.275,2.201-0.352
			c0.252-0.038,0.443-0.066,0.568-0.084l0.137-0.02l0.033-0.005l3.427-0.476l1.657-3.028L2106.813,319.979l-0.95-6.785
			c-0.091,0.013-3.662,0.51-9.008,1.543c-4.012,0.775-9.02,1.85-14.328,3.257c-3.981,1.057-8.131,2.299-12.173,3.76
			c-6.067,2.208-11.878,4.829-16.671,8.381c-2.392,1.79-4.561,3.838-6.258,6.397c-0.843,1.278-1.56,2.689-2.063,4.227
			c-0.505,1.534-0.787,3.194-0.785,4.882c0.003,2.013,0.596,3.742,1.32,5.128c0.689,1.311,1.512,2.387,2.398,3.373
			c1.666,1.834,3.59,3.38,5.742,4.897c3.759,2.631,8.244,5.116,12.95,7.497c7.045,3.556,14.571,6.83,20.29,9.337
			c2.849,1.248,5.26,2.312,6.801,3.052c0.759,0.361,1.323,0.664,1.433,0.734l0.012,0.007l0.367-0.589l-0.384,0.579l0.017,0.01
			l0.367-0.589l-0.384,0.579l2.478-3.734l-3.138,3.186c0.449,0.428,0.604,0.503,0.66,0.548l2.478-3.734l-3.138,3.186l4.398-4.466
			l-5.348,3.274c0.408,0.65,0.724,0.964,0.949,1.191l4.398-4.466l-5.348,3.274l5.649-3.459l-6.272,2.14
			c0.197,0.572,0.423,0.992,0.623,1.32l5.649-3.459l-6.272,2.14l6.376-2.175h-6.738c0.001,0.872,0.167,1.607,0.362,2.175
			l6.376-2.175h-6.738h6.778l-5.817-3.468c-0.627,1.015-0.977,2.349-0.961,3.468h6.778l-5.817-3.468l5.786,3.449l-3.759-5.579
			c-0.629,0.419-1.408,1.101-2.027,2.13l5.786,3.449l-3.759-5.579l0.019-0.012c-0.813,0.555-1.139,0.937-1.419,1.236
			c-0.261,0.294-0.427,0.517-0.569,0.716c-0.275,0.387-0.456,0.687-0.637,0.996c-0.341,0.589-0.652,1.193-1.003,1.905
			c-0.649,1.325-1.408,2.998-2.271,5.004c-3.006,7.002-7.253,18.031-10.813,29.446c-1.778,5.708-3.383,11.504-4.563,16.975
			c-1.174,5.483-1.947,10.6-1.957,15.244c0.002,1.899,0.131,3.731,0.49,5.547c0.365,1.81,0.951,3.638,2.075,5.427
			c0.575,0.911,1.311,1.755,2.144,2.452c1.251,1.052,2.688,1.745,4.059,2.141c1.378,0.399,2.699,0.533,3.962,0.534
			c1.707-0.003,3.326-0.244,4.95-0.613c3.035-0.7,6.116-1.866,9.382-3.335c5.692-2.575,11.909-6.12,18.193-10.011
			c9.41-5.833,18.929-12.452,26.298-17.59c3.678-2.566,6.825-4.767,9.064-6.261c1.113-0.744,2.013-1.316,2.524-1.613
			c0.126-0.073,0.226-0.128,0.285-0.161l0.049-0.026l0.009-0.004l-1.45-2.969l1.087,3.114c0.273-0.097,0.35-0.14,0.363-0.146
			l-1.45-2.969l1.087,3.114l-1.835-5.256l1.206,5.432c0.3-0.067,0.489-0.129,0.629-0.176l-1.835-5.256l1.206,5.432l-1.373-6.186
			v6.333c0.66-0.004,1.069-0.084,1.373-0.147l-1.373-6.186v6.333v-6.177l-1.636,5.963c0.325,0.082,0.785,0.206,1.636,0.214v-6.177
			l-1.636,5.963l1.065-3.885l-1.829,3.608c0.034,0.009,0.15,0.1,0.764,0.276l1.065-3.885l-1.829,3.608l0.074-0.146l-0.075,0.145
			l0.001,0.001l0.074-0.146l-0.075,0.145c0.036,0.015,0.469,0.267,1.035,0.646c1.084,0.72,2.734,1.909,4.709,3.38
			c3.469,2.58,7.984,6.046,12.936,9.78c7.436,5.607,15.84,11.816,23.473,16.74c3.825,2.465,7.447,4.611,10.811,6.239
			c1.688,0.814,3.312,1.502,4.951,2.029c1.646,0.517,3.295,0.913,5.264,0.926c0.829-0.001,1.725-0.079,2.688-0.318
			c0.978-0.241,1.935-0.658,2.764-1.195c1.466-0.945,2.485-2.188,3.163-3.35c1.015-1.767,1.43-3.411,1.713-5.04
			c0.268-1.63,0.358-3.273,0.36-5.006c-0.001-2.356-0.179-4.876-0.47-7.568c-0.513-4.703-1.38-9.925-2.386-15.319
			c-1.509-8.082-3.337-16.545-4.769-23.854c-0.716-3.65-1.332-7.011-1.759-9.835c-0.429-2.81-0.651-5.136-0.645-6.404
			c0-0.294,0.011-0.524,0.022-0.664l0.013-0.117l0.003-0.029l-2.658-0.453l2.466,1.046c0.173-0.414,0.188-0.583,0.192-0.593
			l-2.658-0.453l2.466,1.046l-4.851-2.057l3.455,3.935c0.866-0.767,1.219-1.478,1.396-1.878l-4.851-2.057l3.455,3.935
			c0.178-0.156,0.543-0.457,1.015-0.829c0.892-0.704,2.177-1.679,3.706-2.825c2.681-2.011,6.123-4.563,9.792-7.358
			c5.511-4.2,11.521-8.927,16.437-13.38c2.463-2.237,4.652-4.391,6.455-6.542c0.902-1.082,1.715-2.162,2.428-3.362
			c0.699-1.21,1.361-2.521,1.69-4.379l0.005-0.03c0.069-0.424,0.107-0.872,0.107-1.326c0.003-1.418-0.377-2.709-0.861-3.703
			c-0.473-0.973-1.029-1.712-1.578-2.327c-1.072-1.179-2.142-1.954-3.259-2.674c-2.089-1.319-4.425-2.391-7.12-3.494
			c-4.692-1.906-10.434-3.798-16.545-5.755c-9.146-2.921-19.112-5.973-26.791-8.952c-3.825-1.477-7.085-2.958-9.183-4.208
			c-1.045-0.614-1.789-1.174-2.12-1.487l-0.173-0.171l-0.03-0.034l-1.677,1.296l1.977-0.695c-0.148-0.413-0.292-0.588-0.3-0.601
			l-1.677,1.296l1.977-0.695c-0.912-2.574-2.557-7.3-4.679-12.899c-1.593-4.204-3.459-8.914-5.514-13.646
			c-1.541-3.55-3.189-7.113-4.92-10.499c-2.609-5.085-5.349-9.749-8.447-13.528c-1.564-1.89-3.219-3.582-5.237-4.983
			c-1.013-0.696-2.127-1.32-3.397-1.791c-1.264-0.469-2.7-0.778-4.223-0.777c-1.373-0.003-2.798,0.26-4.101,0.769
			c-1.652,0.654-2.889,1.497-4.081,2.426c-2.201,1.749-4.228,3.913-6.392,6.482c-3.754,4.483-7.795,10.199-11.854,16.348
			c-6.076,9.211-12.139,19.356-16.704,27.229c-4.563,7.87-7.622,13.457-7.642,13.493L2106.813,319.979l-0.95-6.785L2106.813,319.979
			z"/>
		<path fill="#878787" d="M1188.847,324.104c0,0,12.667-41.997,28.641-51.722L1188.847,324.104z"/>
		<path fill="#878787" d="M1129.845,353.22c0,0,25.434-15.071,43.306-13.702L1129.845,353.22z"/>
		<path fill="#878787" d="M1258.387,335.065c0,0,37.807,9.248,41.931,14.043L1258.387,335.065z"/>
		<path fill="#878787" d="M1389.105,324.904c0,0-20.621,6.508-21.996,10.619s2.063,10.961,2.063,10.961s4.779-8.248,6.873-10.619
			C1378.866,332.671,1389.105,324.904,1389.105,324.904z"/>
		<path fill="#878787" d="M1426.683,313.029c0,0,22.34-53.777,35.057-54.805L1426.683,313.029z"/>
		<path fill="#878787" d="M1443.066,404.371c-8.997,11.2-50.867,36.993-50.867,36.993L1443.066,404.371z"/>
		<path fill="#878787" d="M1499.088,316.454c-0.298,3.779,31.447,21.914,54.647,16.099L1499.088,316.454z"/>
		<path fill="#878787" d="M1667.27,313.029c0,0,21.08-57.088,34.599-58.687L1667.27,313.029z"/>
		<path fill="#878787" d="M1731.884,315.084c0,0,55.908,13.93,58.429,26.489L1731.884,315.084z"/>
		<path fill="#878787" d="M1749.527,383.819c0.688,0.456,19.935,47.497,12.602,57.088L1749.527,383.819z"/>
		<path fill="#878787" d="M1928.707,258.795c0,0,17.872,12.674,17.185,40.076L1928.707,258.795z"/>
		<path fill="#878787" d="M1960.213,314.856c0,0,54.304,7.193,53.272,15.756L1960.213,314.856z"/>
		<path fill="#878787" d="M1840.033,358.928c0,0-3.78-9.249,4.469-15.071c8.248-5.823-3.094,10.961-3.094,10.961L1840.033,358.928z"
			/>
		<path fill="#878787" d="M2014.933,822.039l-3.237-6.043l3.135,5.852v-6.633c-1.083-0.006-2.217,0.286-3.135,0.781l3.135,5.852
			v-6.633v6.649l2.708-6.077c-0.8-0.355-1.732-0.573-2.708-0.572v6.649l2.708-6.077l-2.7,6.059l5.515-3.708
			c-0.685-1.004-1.611-1.812-2.814-2.351l-2.7,6.059l5.515-3.708l-5.526,3.716h6.666c-0.004-1.451-0.461-2.714-1.14-3.716
			l-5.526,3.716h6.666h-6.684l6.238,2.391c0.303-0.78,0.447-1.611,0.445-2.391h-6.684l6.238,2.391l-6.217-2.383l4.946,4.447
			c0.516-0.567,0.972-1.283,1.271-2.064l-6.217-2.383l4.946,4.447l0.03-0.034l0.023-0.025c0.818-0.928,2.52-2.746,4.758-5.084
			c7.87-8.229,22.632-23.223,35.693-36.442c6.534-6.613,12.648-12.788,17.283-17.471c2.316-2.342,4.264-4.311,5.711-5.778
			c0.725-0.734,1.322-1.342,1.783-1.813c0.467-0.476,0.773-0.79,0.996-1.025c7.968-8.417,15.812-18.795,23.171-30.405
			c11.03-17.414,20.955-37.59,28.184-58c7.216-20.418,11.771-41.037,11.786-59.575c-0.001-7.094-0.675-13.893-2.189-20.268
			c-1.137-4.779-2.751-9.322-4.926-13.533c-3.254-6.313-7.815-11.876-13.719-16.166c-5.896-4.298-13.069-7.284-21.35-8.792
			c-16.747-3.058-36.271-5.054-58.084-6.3c-21.812-1.245-45.907-1.733-71.731-1.733c-97.61,0.004-220.034,6.979-335.565,6.976
			c-21.486,0-42.729-0.241-63.524-0.811c-9.645-0.264-20.513-0.361-32.398-0.361c-33.101,0-74.114,0.748-118.212,0.748
			c-39.955,0-82.434-0.614-123.763-2.943c-30.995-1.747-61.344-4.459-89.466-8.587c-21.09-3.094-40.927-6.986-58.821-11.838
			c-26.847-7.262-49.293-16.753-65.021-28.584c-7.875-5.911-14.069-12.368-18.49-19.389c-4.419-7.032-7.115-14.621-7.968-23.156
			c-3.638-36.752-6.947-75.666-6.945-112.478c-0.001-22.017,1.185-43.276,4.151-62.826c2.224-14.662,5.45-28.358,9.886-40.691
			c3.325-9.25,7.329-17.731,12.082-25.307c7.138-11.368,15.92-20.692,26.799-27.728c10.887-7.027,23.928-11.815,39.84-13.804
			c11.406-1.423,27.527-2.615,47.224-3.58c59.133-2.902,150.582-3.806,248.446-3.805c158.601,0,334.115,2.364,417.548,2.364
			c13.477,0,24.554-0.062,32.813-0.206l0.107-0.002l0.109-0.005c0,0,0.114-0.006,0.354-0.017c3.598-0.168,34.258-1.543,77.17-1.542
			c53.771-0.005,126.839,2.171,189.76,11.505c31.446,4.654,60.36,11.125,82.829,19.81c11.231,4.333,20.837,9.217,28.315,14.554
			c7.494,5.339,12.799,11.078,15.857,17.063c8.805,17.182,17.385,39.127,23.747,64.97c6.364,25.845,10.518,55.591,10.518,88.435
			c-0.002,43.979-7.439,93.513-27.018,146.776c-19.582,53.262-51.311,110.268-99.997,169.149
			c-4.576,5.541-10.968,11.682-18.612,18.046c-13.383,11.154-30.582,23.02-48.789,34.456c-27.316,17.164-56.914,33.395-79.646,45.31
			c-11.368,5.958-21.022,10.84-27.827,14.228c-3.403,1.694-6.093,3.015-7.93,3.911c-0.918,0.448-1.622,0.79-2.096,1.018
			c-0.237,0.114-0.415,0.201-0.534,0.258l-0.175,0.084l-0.129,0.062l-0.13,0.069L2014.933,822.039l2.979,6.174
			c0.086-0.042,37.218-17.833,79.45-41.721c21.119-11.948,43.513-25.417,63.251-39.016c9.871-6.801,19.079-13.635,27.156-20.364
			c8.077-6.735,15.024-13.346,20.404-19.845c49.593-59.972,82.155-118.357,102.296-173.149
			c20.145-54.79,27.859-105.971,27.857-151.489c0-33.996-4.298-64.833-10.914-91.701c-6.617-26.869-15.545-49.764-24.855-67.936
			c-4.371-8.518-11.357-15.738-20.104-21.976c-7.666-5.461-16.729-10.206-26.914-14.416c-17.82-7.357-39.098-13.08-62.355-17.614
			c-34.879-6.791-74.211-10.874-112.63-13.278c-38.415-2.402-75.906-3.118-107.002-3.118c-46.085,0-78.119,1.572-78.2,1.576
			l0.338,6.842l-0.121-6.85c-8.115,0.142-19.139,0.204-32.571,0.204c-83.237,0-258.839-2.364-417.548-2.364
			c-65.308,0-127.763,0.4-179.8,1.532c-26.021,0.566-49.435,1.314-69.322,2.29c-19.894,0.978-36.232,2.174-48.253,3.669
			c-20.982,2.599-38.427,9.827-52.43,20.745c-10.507,8.177-19.053,18.367-25.912,29.997c-10.291,17.458-16.85,38.134-20.897,60.731
			c-4.041,22.603-5.56,47.16-5.562,72.479c0.002,37.621,3.364,76.933,7.012,113.822c1.231,12.602,5.9,23.981,13.249,33.822
			c6.428,8.625,14.848,16.113,24.807,22.667c17.441,11.461,39.63,20.148,65.049,26.934c38.124,10.155,83.574,15.972,131.065,19.3
			c47.484,3.322,96.99,4.13,143.041,4.131c44.247,0,85.311-0.748,118.212-0.748c11.811,0,22.567,0.097,32.021,0.356
			c20.945,0.574,42.313,0.816,63.902,0.816c116.05-0.003,238.568-6.98,335.565-6.976c25.649,0,49.505,0.487,70.944,1.711
			c21.438,1.222,40.466,3.187,56.392,6.099c5.816,1.066,10.492,2.939,14.322,5.418c2.873,1.864,5.285,4.078,7.349,6.661
			c3.086,3.871,5.394,8.611,6.939,14.202c1.546,5.583,2.307,11.997,2.306,19c0.004,10.848-1.826,23.087-5.096,35.768
			c-4.896,19.026-13.015,39.043-22.664,57.137c-9.638,18.094-20.843,34.29-31.632,45.669c-0.092,0.098-0.481,0.499-1.03,1.058
			c-4.19,4.269-18.731,18.917-33.099,33.491c-7.187,7.29-14.336,14.565-20.149,20.541c-2.907,2.987-5.479,5.649-7.565,7.833
			c-2.092,2.192-3.668,3.873-4.697,5.037l5.156,4.529l-5.104-4.589c-0.554,0.609-1.036,1.369-1.353,2.195
			c-0.32,0.825-0.473,1.703-0.472,2.527c0,1.019,0.222,1.965,0.578,2.79c0.541,1.238,1.365,2.235,2.452,3
			c1.079,0.756,2.497,1.274,4.056,1.273c1.15,0.006,2.354-0.301,3.341-0.834L2014.933,822.039l2.979,6.174L2014.933,822.039z"/>
	</g>
	<g>
		<path fill="#005480" d="M1348.417,1594.726c-7.294-1.826-16.032,0.683-21.749-4.284c-5.004-4.348-8.915-12.623-15.581-13.815
			c-2.833-0.507-8.249,0.913-10.245,4.732c-2.727,5.219-5.123,10.601-7.622,15.931c-5.461,5.723-11.195,11.131-17.265,16.223
			c-3.441,2.887-2.166,8.685,1.392,10.759c5.069,2.956,10.503,4.77,15.409,8.302c-0.082,3.563,0.427,7.96,0.73,11.579
			c0.411,4.886,5.616,8.915,10.344,5.916c6.461-4.1,10.809-8.932,16.88-13.385c3.115,1.428,9.847,4.678,12.531,5.878
			c4.122,1.844,11.053-0.184,10.344-5.915l-1.203-9.711c-0.306-2.473-1.456-6.05-1.053-8.499c0.647-3.929,7.196-9.022,10.12-12.261
			C1354.795,1602.472,1353.664,1596.038,1348.417,1594.726z M1311.431,1629.261c-0.815,0.518-4.685,4.393-5.499,4.911
			c-0.209-2.559,0.689-7.576-1.043-9.326c-3.105-3.138-7.605-5.638-12.08-7.936c3.672-3.369,7.228-6.857,10.664-10.483
			c0.218-0.193,1-1.589,1.199-1.828c0.12-0.128,3.961-9.956,5.27-12.674c5.116,23.196,7.104,33.684,7.104,33.684
			S1314.828,1627.105,1311.431,1629.261z"/>
		<path fill="#878787" d="M1312.735,1755.248c1.96,3.529,7.04,3.562,9.054,0.063c9.475-16.468,18.937-32.944,28.334-49.456
			c9.761-17.153,19.255-34.528,26.18-53.046c6.874-18.386,11.09-38.318,9.756-58.008c-1.106-16.307-5.813-33.575-18.973-44.377
			c-13.236-10.864-32.467-13.969-49.168-13.494c-16.736,0.477-33.678,5.156-47.24,15.168
			c-27.638,20.404-35.035,57.887-25.749,89.591c5.712,19.501,16.845,36.716,30.166,51.898
			C1281.205,1700.55,1302.771,1737.309,1312.735,1755.248z M1364.322,1645.641c-6.71,19.097-16.693,36.845-26.689,54.384
			c-5.96,10.456-10.173,20.415-15.438,30.653c-1.729,3.365-6.581,3.297-8.258-0.095c-3.813-7.712-6.956-13.391-11.327-20.827
			c-8.049-13.692-21.786-28.999-30.675-42.617c-17.119-26.227-24.64-60.885-7.124-88.934c16.751-26.824,55.438-34.068,83.758-22.876
			C1382.753,1568.841,1373.696,1618.962,1364.322,1645.641z"/>
		<path fill="#005480" d="M1367.619,1864.874c-5.518-1.416-13.481-1.981-18.427-4.757c-4.981-2.798-7.195-11.558-9.551-16.522
			c-1.778-3.749-8.129-4.641-10.796-1.388c-2.7,3.295-4.398,6.753-5.409,10.336c-2.064,5.108-3.513,10.252-4.45,15.684
			c-1.788,0.855-4.213,1.511-5.401,2.051c-2.402,1.09-4.805,2.18-7.207,3.269c-1.956,0.887-2.975,2.52-3.265,4.321
			c-1.354,2.424-1.345,5.459,1.189,7.699c3.827,3.381,7.953,6.042,12.494,7.967c-0.771,2.521-1.36,5.098-1.74,7.835
			c-0.968,6.983,5.847,11.022,11.489,6.665c4.267-3.295,8.92-6.148,13.796-8.492c2.873,3.6,5.941,7.016,9.316,10.209
			c4.111,3.891,12.038,1.304,11.734-4.844c-0.319-6.523-0.641-13.046-0.961-19.57c-0.043-0.89-0.088-1.779-0.132-2.67
			c0.261-0.177,0.55-0.383,0.899-0.649c2.712-0.857,5.588-3.203,8.063-4.621C1374.332,1874.487,1373.357,1866.346,1367.619,1864.874
			z"/>
		<path fill="#878787" d="M1404.229,1885.703c-0.651-19.453-6.901-41.684-21.695-55.95c-25.084-24.188-67.668-25.39-92.643,1.498
			c-15.579,16.773-20.66,36.738-21.078,55.137c-0.42,18.536,7.212,37,16.46,53.239c11.035,19.378,32.15,36.001,44.718,52.945
			c11.686,15.757,14.436,24.662,17.562,50.776c1.005,8.392,9.228,8.872,14.574,4.2c25.011-26.07,35.916-59.771,40.728-98.82
			C1405.43,1927.825,1404.964,1907.677,1404.229,1885.703z M1385.669,1940.508c-3.629,28.585-10.778,57.44-25.949,83.235
			c-3.437-32.884-17.858-42.324-33.854-59.258c-10.939-11.581-20.329-19.28-28.87-39.049c-6.701-15.511-11.689-34.646-10.312-51.38
			c1.445-17.563,9.535-32.452,26.121-41.104c14.975-7.812,34.202-9.638,48.669-1.658c7.178,3.96,14.013,12.199,18.008,19.47
			c4.782,8.702,5.624,16.433,6.344,26.161C1387.27,1896.437,1388.127,1921.146,1385.669,1940.508z"/>
		<path fill="#005480" d="M1207.985,1727.755c-3.473-0.9-6.001-1.409-9.516-2.128c-3.338-0.683-6.97-0.809-10.311-2.513
			c-1.996-1.019-3.199-3.395-4.354-7.078c-1.145-3.654-2.053-7.412-2.749-10.733c-1.31-6.246-9.062-6.659-12.186-2.213
			c-5.877,8.365-10.441,17.306-14.063,26.849c-0.136,0.359,0.548-2.027,0.472-1.687c-8.047,4.351-17.571,5.377-24.746,11.989
			c-3.997,3.685-3.437,9.591,2.235,13.354c3.533,2.344,5.807,3.358,9.909,4.458c2.978,0.8,5.384,1.37,6.988,1.485
			c-1.948,8.563-2.79,17.866-2.363,25.219c0.366,6.313,7.082,8.534,11.733,4.844c5.945-4.716,12.105-9.12,18.428-13.305
			c2.831,2.546,5.548,5.197,8.156,8.009c4.05,4.361,11.361,5.146,11.735-4.846c0.173-4.633-0.749-9.234-0.833-13.871
			c-0.069-3.881-0.773-10.213,0.818-13.861c2.277-5.217,10.075-8.094,13.679-12.521
			C1214.14,1735.369,1213.4,1729.159,1207.985,1727.755z"/>
		<path fill="#878787" d="M1207.985,1727.755l0.173-0.663c-3.491-0.905-6.038-1.418-9.55-2.136
			c-3.422-0.69-6.971-0.828-10.137-2.451c-0.85-0.435-1.558-1.166-2.212-2.276c-0.651-1.107-1.229-2.579-1.799-4.396
			c-1.137-3.625-2.04-7.364-2.732-10.67c-0.396-1.901-1.37-3.358-2.643-4.311c-1.271-0.955-2.82-1.411-4.374-1.411
			c-2.421,0.001-4.892,1.106-6.405,3.257c-5.913,8.416-10.504,17.41-14.143,26.998l0.271,0.102l-0.262-0.123l-0.01,0.021
			l0.271,0.103l-0.262-0.123l0.57,0.269l-0.528-0.344l-0.042,0.075l0.57,0.269l-0.528-0.344l0.567,0.368l-0.476-0.48l-0.092,0.112
			l0.567,0.368l-0.476-0.48l0.481,0.486l-0.342-0.592l-0.14,0.105l0.481,0.486l-0.342-0.592l0.343,0.594v-0.685
			c-0.161,0.001-0.272,0.052-0.343,0.091l0.343,0.594v-0.685v0.685l0.521-0.447c-0.078-0.1-0.279-0.24-0.521-0.237v0.685
			l0.521-0.447l-0.52,0.445l0.671-0.139c-0.019-0.063-0.025-0.149-0.151-0.307l-0.52,0.445l0.671-0.139l-0.664,0.138h0.679
			l-0.015-0.138l-0.664,0.138h0.679h-0.612l0.604,0.1l0.008-0.1h-0.612l0.604,0.1l-0.222-0.037l0.22,0.046l0.002-0.009l-0.222-0.037
			l0.22,0.046c0.013-0.064,0.136-0.52,0.247-0.906c0.057-0.197,0.112-0.388,0.153-0.525l0.049-0.158l0.008-0.024l-0.465-0.166
			l0.452,0.197l0.013-0.031l-0.465-0.166l0.452,0.197l-0.603-0.263l0.565,0.335l0.037-0.072l-0.603-0.263l0.565,0.335l-0.587-0.348
			l0.505,0.457l0.082-0.109l-0.587-0.348l0.505,0.457l-0.508-0.46l0.375,0.573l0.133-0.113l-0.508-0.46l0.375,0.573l-0.375-0.573
			v0.685c0.187-0.002,0.306-0.067,0.375-0.111l-0.375-0.573v0.685v-0.686l-0.443,0.524c0.104,0.094,0.289,0.166,0.443,0.161v-0.686
			l-0.443,0.524l0.442-0.523l-0.665,0.17c0.022,0.062,0.036,0.184,0.223,0.354l0.442-0.523l-0.665,0.17l0.663-0.17l-0.684,0.025
			l0.021,0.145l0.663-0.17l-0.684,0.025l0.658-0.024h-0.659l0.001,0.024l0.658-0.024h-0.659h0.624l-0.615-0.107l-0.009,0.107h0.624
			l-0.615-0.107l0,0l0.673,0.14l-0.328-0.602c-3.942,2.133-8.304,3.472-12.617,5.107c-4.31,1.638-8.579,3.582-12.268,6.98
			c-1.835,1.687-2.808,3.861-2.806,6.104c-0.001,3.01,1.732,6.076,5.127,8.322c3.563,2.371,5.973,3.445,10.111,4.55
			c2.992,0.802,5.408,1.382,7.117,1.507l0.05-0.683l-0.671-0.151c-1.628,7.159-2.488,14.816-2.488,21.463
			c0,1.362,0.035,2.682,0.109,3.946c0.129,2.277,1.047,4.121,2.418,5.37c1.369,1.25,3.172,1.906,5.044,1.906
			c1.834,0,3.739-0.63,5.386-1.936c5.928-4.701,12.071-9.095,18.38-13.27l-0.38-0.571l-0.461,0.509
			c2.817,2.532,5.519,5.17,8.113,7.965c1.837,1.97,4.289,3.28,6.676,3.29c1.601,0.009,3.181-0.641,4.309-2.067
			c1.133-1.424,1.83-3.551,1.941-6.508c0.015-0.405,0.021-0.81,0.021-1.213c-0.003-4.316-0.782-8.531-0.854-12.695
			c-0.035-1.903-0.215-4.335-0.215-6.739c-0.005-2.577,0.22-5.121,0.977-6.837c1.03-2.387,3.44-4.367,6.112-6.274
			c2.665-1.915,5.558-3.749,7.47-6.089c1.313-1.616,1.994-3.608,1.995-5.554c0-1.531-0.426-3.042-1.323-4.295
			c-0.896-1.254-2.268-2.233-4.066-2.696L1207.985,1727.755l-0.173,0.662c1.514,0.396,2.578,1.175,3.293,2.167
			c0.712,0.993,1.067,2.218,1.067,3.499c0.001,1.625-0.577,3.327-1.688,4.69c-1.691,2.089-4.499,3.906-7.204,5.84
			c-2.697,1.942-5.324,4.009-6.57,6.84c-0.893,2.061-1.086,4.73-1.091,7.384c0.001,2.468,0.183,4.922,0.215,6.764
			c0.08,4.314,0.857,8.521,0.854,12.671c-0.001,0.388-0.007,0.775-0.021,1.162c-0.103,2.772-0.761,4.604-1.644,5.705
			c-0.886,1.099-1.979,1.543-3.232,1.551c-1.858,0.01-4.049-1.099-5.667-2.851c-2.624-2.827-5.355-5.494-8.201-8.052l-0.396-0.355
			l-0.445,0.294c-6.335,4.193-12.512,8.609-18.475,13.339c-1.412,1.119-3.012,1.638-4.53,1.638c-1.552,0-3.014-0.541-4.115-1.546
			c-1.099-1.008-1.857-2.479-1.975-4.439c-0.071-1.236-0.107-2.529-0.107-3.867c0-6.529,0.851-14.105,2.455-21.16l0.177-0.778
			l-0.797-0.057c-1.5-0.104-3.896-0.665-6.859-1.464c-4.064-1.095-6.205-2.049-9.707-4.367c-3.102-2.063-4.513-4.71-4.514-7.182
			c0.003-1.849,0.782-3.636,2.364-5.098c3.486-3.214,7.566-5.09,11.824-6.706c4.254-1.617,8.678-2.967,12.782-5.184l0.28-0.151
			l0.065-0.311l0.009-0.043l0.012-0.13l-0.004-0.074c-0.007-0.036-0.005-0.085-0.057-0.208l-0.184-0.243
			c-0.105-0.094-0.29-0.166-0.443-0.161c-0.2,0.003-0.32,0.075-0.39,0.12c-0.134,0.099-0.153,0.148-0.182,0.183l-0.059,0.104
			l-0.037,0.099c-0.052,0.156-0.168,0.555-0.28,0.953c-0.056,0.197-0.109,0.389-0.148,0.539l-0.051,0.195l-0.018,0.079
			c-0.005,0.038-0.014,0.032-0.019,0.166l0.034,0.216l0.133,0.234c0.078,0.1,0.279,0.241,0.521,0.238
			c0.161-0.001,0.272-0.052,0.343-0.092c0.131-0.079,0.165-0.133,0.197-0.169l0.096-0.159l0.023-0.059
			c3.605-9.498,8.144-18.386,13.984-26.699c1.224-1.747,3.27-2.672,5.278-2.672c1.286,0,2.54,0.378,3.547,1.135
			c1.006,0.76,1.784,1.891,2.124,3.497c0.699,3.337,1.611,7.115,2.766,10.798c0.586,1.866,1.188,3.424,1.925,4.681
			c0.735,1.254,1.627,2.22,2.772,2.804c3.517,1.785,7.23,1.899,10.486,2.573c3.518,0.72,6.025,1.224,9.48,2.12L1207.985,1727.755z"
			/>
		<path fill="#878787" d="M1219.449,1646.259c-16.682-13.109-38.227-17.288-58.488-10.43c-21.785,7.372-38.303,24.16-49.134,43.99
			c-23.125,42.337-30.42,96.728-11.862,141.897c10.125,24.646,26.158,46.219,44.314,65.576
			c10.133,10.804,20.936,20.958,31.852,30.967c7.174,6.578,15.466,16.261,23.599,18.565c7.319,2.074,15.037,3.426,13.169-13.017
			c-2.48-24.545,3.563-49.028,10.646-72.471c7.688-25.447,16.195-50.58,21.696-76.629
			C1254.397,1731.352,1258.475,1676.93,1219.449,1646.259z M1229.693,1781.263c-10.836,45.64-33.576,91.542-30.739,139.145
			c-6.432-3.94-12.267-11.051-16.842-15.276c-8.706-8.04-17.298-16.209-25.494-24.768c-15.101-15.769-28.771-32.933-38.748-52.414
			c-21.094-41.182-17.635-89.428,0.816-131.036c8.419-18.987,21.116-36.736,40.482-45.696c18.526-8.571,39.209-5.725,54.408,7.929
			C1247.584,1689.692,1239.049,1741.859,1229.693,1781.263z"/>
	</g>
	<g>
		<path fill="#005480" d="M1912.379,2028.025c-5.932-3.584-11.863-7.169-17.795-10.753c-5.901-3.567-13.832-6.81-18.905-11.427
			c-2.534-2.305-2.101-4.319-2.322-7.876c-0.216-3.445-0.431-6.891-0.646-10.337c-0.456-7.322-0.912-14.644-1.369-21.967
			c-0.319-5.124-5.61-8.611-10.343-5.915c-15.864,9.037-29.956,20.698-41.718,34.622c-16.441-1.577-31.923-7.313-48.677-4.328
			c-4.202,0.748-6.477,6.63-4.108,10.063l22.629,32.797c-6.993,11.833-13.988,23.667-20.982,35.5
			c-2.734,4.624,0.81,10.1,5.937,10.309c15.003,0.611,27.654-4.756,41.95-7.853c1.76-0.382,1.703-0.616,2.891-0.028
			c1.099,0.544,2.428,3.196,3.186,4.193c2.122,2.795,4.246,5.59,6.37,8.385c4.778,6.29,9.557,12.579,14.335,18.869
			c3.626,4.774,10.437,4.226,12.563-1.637c2.907-8.015,5.471-16.138,7.56-24.404c0.939-3.718,1.766-7.459,2.549-11.214
			c0.886-4.249,2.86-5.138,6.67-7.109c13.116-6.795,27.786-9.847,40.227-18.06
			C1916.667,2037.025,1916.963,2030.795,1912.379,2028.025z M1859.443,2049.472c-6.823,4.72-7.088,11.892-8.859,19.401
			c-1.232,5.225-2.665,10.389-4.246,15.512l-7.585-9.984c-3.942-5.19-8.657-14.788-14.945-17.395
			c-6.862-2.844-15.967,2.151-22.556,4.043c-4.906,1.409-9.787,2.562-14.734,3.268c5.561-9.406,11.119-18.813,16.681-28.22
			c1.176-1.991,1.36-4.942,0-6.916c-6.101-8.842-12.201-17.684-18.302-26.524c12.355,0.555,24.777,4.83,37.021,5.641
			c2.531,0.168,4.33-0.84,5.407-2.374c0.235-0.219,0.467-0.453,0.69-0.724c8.842-10.682,18.955-19.894,30.322-27.605
			c0.289,4.639,0.578,9.277,0.867,13.916c0.425,6.816-0.74,16.346,3.959,21.905c4.539,5.366,12.977,8.734,18.922,12.327
			c4.328,2.615,8.657,5.232,12.986,7.849C1883.181,2038.898,1870.215,2042.019,1859.443,2049.472z"/>
		<path fill="#878787" d="M1587.762,2534.912l6.873-0.085l-0.001-0.047c-0.001-0.114-0.003-0.429-0.003-0.937
			c-0.002-6.609,0.403-45.782,9.238-99.155c8.825-53.374,26.104-120.932,59.629-184.308c27.043-51.148,57.702-93.193,85.699-123.048
			c13.99-14.925,27.321-26.799,39.073-35.207c5.872-4.205,11.347-7.541,16.254-9.964c4.903-2.429,9.245-3.929,12.744-4.563
			l-1.239-6.737l-6.726,1.418l1.462-0.309l-1.463,0.305l0.001,0.004l1.462-0.309l-1.463,0.305
			c0.045,0.211,3.939,18.906,3.939,50.504c-0.004,48.263-9.066,126.551-54.71,215.367
			c-38.069,74.066-81.688,121.756-115.682,150.928c-16.997,14.583-31.587,24.53-41.867,30.805c-5.14,3.138-9.202,5.356-11.946,6.777
			c-1.373,0.71-2.416,1.221-3.101,1.547c-0.343,0.163-0.595,0.28-0.753,0.353l-0.168,0.076l-0.03,0.014l-0.002,0.001l1.732,3.898
			l-1.725-3.902l-0.008,0.004l1.732,3.898l-1.725-3.902L1587.762,2534.912l6.873-0.085L1587.762,2534.912l2.77,6.27
			c0.51-0.224,26.082-11.518,61.289-41.725c35.204-30.2,80.029-79.332,118.948-155.065c46.817-91.094,56.225-171.662,56.221-221.612
			c0-33.239-4.155-52.953-4.235-53.337l-1.386-6.522l-6.579,1.203c-5.194,0.954-10.623,2.927-16.372,5.764
			c-10.047,4.973-21.102,12.63-32.937,22.739c-17.734,15.166-37.179,35.872-56.761,61.362
			c-19.576,25.488-39.272,55.757-57.384,90.004c-34.478,65.217-52.028,134.104-61.032,188.467
			c-8.995,54.365-9.419,94.225-9.421,101.385c0,0.735,0.005,1.127,0.006,1.154l0.129,10.359l9.514-4.176L1587.762,2534.912z"/>
		<path fill="#878787" d="M1690.727,2131.053c-1.222-12.088-3.112-24.119-5.766-35.978c-2.474-11.057-4.914-23.027-11.767-32.315
			c-2.733-3.705-7.198-4.509-10.796-1.387c-16.966,14.721-28.261,34.81-38.435,54.281c-10.8,20.673-30.394,46.147-34.343,69.439
			c-1.464,8.625,11.782,12.331,13.256,3.642c3.766-22.194,22.71-45.618,33.002-65.316c8.23-15.755,17.833-32.471,29.841-45.98
			c2.933,6.731,4.399,14.195,5.983,21.278c2.576,11.504,4.44,23.15,5.522,34.888c2.101,22.796,1.537,45.845-1.815,68.493
			c-1.276,8.625,11.969,12.348,13.258,3.643C1692.334,2180.971,1693.246,2155.985,1690.727,2131.053z"/>
		<path fill="#878787" d="M1721.573,2419.367c-2.804,0-5.437-1.722-6.455-4.498c-1.305-3.553,0.527-7.488,4.093-8.787
			c20.583-7.505,92.318-35.539,151.202-81.181c59.204-45.894,97.039-88.33,154.647-160.532
			c46.424-58.182,68.71-118.95,76.41-143.455c-21.027,3.68-72.777,14.333-123.189,37.045
			c-46.96,21.156-152.451,102.481-153.513,103.302c-3.002,2.319-7.318,1.771-9.644-1.218c-2.326-2.99-1.779-7.293,1.221-9.61
			c4.381-3.386,107.838-83.139,156.272-104.958c52.752-23.767,106.809-34.668,127.603-38.251c4.515-0.784,9.016,0.803,12.039,4.231
			c3.029,3.432,4.027,8.092,2.67,12.463c-7.611,24.523-30.557,88.13-79.109,148.979c-58.301,73.069-96.658,116.069-156.968,162.817
			c-60.457,46.863-133.861,75.557-154.918,83.233C1723.156,2419.233,1722.358,2419.367,1721.573,2419.367z"/>
		<path fill="#878787" d="M1793.067,2286.008c-2.119,0-4.21-0.973-5.556-2.809c-2.24-3.055-1.571-7.34,1.494-9.573
			c0.951-0.693,96.002-70.033,172.799-135.766c76.863-65.786,132.049-118.856,132.597-119.386c2.729-2.632,7.082-2.557,9.72,0.164
			c2.641,2.721,2.566,7.058-0.163,9.687c-0.552,0.531-56.03,53.884-133.195,119.929c-77.215,66.092-172.69,135.738-173.646,136.435
			C1795.895,2285.58,1794.474,2286.008,1793.067,2286.008z"/>
		<path fill="#878787" d="M1990.063,2150.058c-12.837,0-22.843-0.136-23.876-0.149l-8.09-0.114l17.916-100.192
			c0.666-3.726,4.248-6.205,7.974-5.544c3.737,0.665,6.228,4.222,5.562,7.946l-15.074,84.29c21.597,0.175,60.554,0.075,71.269-1.81
			c3.744-0.654,7.307,1.831,7.964,5.556c0.661,3.727-1.836,7.28-5.574,7.937C2038.271,2149.711,2010.562,2150.057,1990.063,2150.058
			z"/>
		<path fill="#878787" d="M1955.294,2256.779c-0.345,0-0.695-0.027-1.049-0.081l-108.397-16.544l0.891-6.661
			c5.699-42.594,14.264-107.276,14.608-111.696c0.135-3.667,3.157-6.599,6.87-6.599c3.797,0,6.874,3.067,6.874,6.851
			c0,2.635-8.288,65.085-13.835,106.596l95.07,14.511c3.752,0.572,6.329,4.069,5.754,7.809
			C1961.56,2254.352,1958.631,2256.779,1955.294,2256.779z M1861.346,2121.843l-0.003,0.206L1861.346,2121.843z"/>
		<path fill="#878787" d="M1595.951,2537.563l-12.255-6.212c1.354-2.651,135.703-266.049,169.141-343.503
			c33.659-77.971,56.954-119.902,57.185-120.317l12.014,6.661c-0.229,0.409-23.221,41.818-56.57,119.07
			C1731.855,2271.117,1597.306,2534.906,1595.951,2537.563z"/>
	</g>
	<g>
		<path fill="#005480" d="M1119.636,2138.573c2.169-5.722,4.338-11.445,6.507-17.169c1.84-4.852,4.263-9.025,1.617-13.993
			c-1.053-1.976-3.651-3.577-5.936-3.394c-5.917,0.482-12.023,3.87-17.344,6.416c-5.176,2.479-10.171,5.275-15.043,8.292
			c-5.57-3.858-11.129-7.736-16.729-11.553c-4.238-2.886-9.61-7.243-15.06-5.568c-2.095,0.644-4.449,2.455-4.801,4.784
			c-0.853,5.652,0.854,11.539,1.743,17.149l3.099,19.562l0.019,0.088c-4.779,8.705-9.181,17.584-13.204,26.66
			c-1.911,4.315,0.202,10.713,5.936,10.311c4.529-0.319,9.043-0.906,13.421-2.137c1.892-0.531,3.73-1.207,5.554-1.934
			c1.263-0.502,4.268-2.557,5.207-2.602c1.878-0.09,5.768,7.799,7.209,10.055c2.867,4.488,5.734,8.975,8.602,13.461
			c2.904,4.547,11.466,4.512,12.563-1.637c0.795-4.451,1.59-8.904,2.385-13.355c0.441-2.473,1.36-5.506,1.431-8.014
			c0.159-0.891,0.318-1.781,0.478-2.672c-1.178-0.04,9.861-0.881,13.142-0.895c4.796-0.025,9.556,0.259,14.327,0.719
			c6.586,0.635,8.178-7.611,4.861-11.693C1133.513,2151.937,1126.843,2145.012,1119.636,2138.573z M1113.909,2156.916
			c-4.503,0.253-10.046,0.071-14.111,2.255c-4.434,2.38-5.382,6.677-6.244,11.182c-0.3,1.565-0.569,3.137-0.854,4.704
			c-0.622-0.973-1.243-1.945-1.865-2.918c-2.462-3.854-4.82-8.611-8.92-10.998c-4.174-2.43-8.445-1.662-12.638,0.059
			c-2.347,0.963-4.597,1.869-6.853,2.652c2.356-4.781,4.814-9.512,7.393-14.189c1.128-2.049,1.401-8.494,1.13-10.204
			c-0.839-5.298-1.679-10.596-2.518-15.894c-0.143-0.901-0.397-2.01-0.689-3.216c0.976,0.679,1.948,1.36,2.925,2.035
			c4.697,3.246,9.396,6.492,14.094,9.738c1.316,0.909,6.993,1.358,8.706,0.254c4.498-2.896,9.092-5.622,13.851-8.071
			c1.361-0.701,2.918-1.619,4.553-2.547c-1.9,4.722-4.057,9.398-5.763,13.897c-0.193,0.513-2.418,7.173,0.558,9.707
			c4.254,3.622,8.316,7.415,12.194,11.387C1117.208,2156.772,1115.56,2156.822,1113.909,2156.916z"/>
		<path fill="#878787" d="M1333.702,2475.285c-0.931-0.23-93.755-24.112-148.798-116.506
			c-42.148-70.748-56.095-119.108-64.014-155.469c14.093,22.822,39.835,63.707,57.653,87.275
			c40.183,53.152,76.452,71.994,77.977,72.77c1,0.509,2.067,0.751,3.118,0.751c2.495,0,4.901-1.362,6.119-3.728
			c1.73-3.361,0.397-7.488-2.973-9.219c-0.347-0.18-35.16-18.421-73.261-68.818c-19.531-25.836-49.783-74.546-61.793-94.142
			c16.853,8.577,40.711,22.476,63.535,41.907c27.253,23.201,39.761,31.568,40.28,31.914c3.156,2.098,7.419,1.247,9.526-1.897
			s1.257-7.397-1.896-9.5c-0.122-0.081-12.49-8.383-38.981-30.935c-43.08-36.676-88.561-54.052-90.477-54.773l-11.84-4.462
			l2.692,12.327c0.998,4.568,1.97,9.438,3,14.592c7.825,39.183,18.541,92.843,69.512,178.401
			c30.349,50.942,71.395,81.587,100.484,98.323c31.586,18.172,55.825,24.24,56.842,24.489c0.552,0.136,1.104,0.2,1.647,0.2
			c3.087,0,5.891-2.087,6.666-5.209C1339.633,2479.908,1337.385,2476.197,1333.702,2475.285z"/>
		<path fill="#005480" d="M1213.414,2056.709l-16.867-24.957c-3.346-4.95-2.395-7.45-0.929-12.932
			c1.263-4.724,2.526-9.447,3.789-14.171c1.408-5.267-3.391-9.499-8.456-8.427c-5.482,1.158-10.865,2.629-16.104,4.624
			c-4.426,1.685-8.618,4.16-12.998,5.94c-7.301-3.889-14.195-9.78-20.892-14.346c-4.48-3.055-10.217,1.051-10.343,5.915
			c-0.305,11.673,0.508,23.187,2.186,34.729c-6.962,12.027-14.444,23.721-22.471,35.07c-3.006,4.249,1,10.482,5.936,10.309
			c10.469-0.369,20.83-1.608,31.064-3.695c1.508,8.12,4.161,15.823,8.096,23.326c2.422,4.619,9.362,4.286,11.871,0
			c4.878-8.336,9.003-17.07,12.253-26.164c0.725-2.03,1.617-4.8,3.567-6.058c1.445-0.932,5.271-0.222,6.848-0.224
			c5.249-0.002,10.493,0.363,15.687,1.121C1210.971,2067.548,1217.139,2062.219,1213.414,2056.709z M1188.709,2051.964
			c-5.536,0.065-12.159-0.151-16.533,3.838c-3.987,3.636-8.845,19.993-10.02,22.532c-1.095-3.85-3.785-20.452-10.914-18.468
			c-7.006,1.951-14.145,3.029-21.302,3.86c5.366-8.091,10.494-16.332,15.339-24.755c1.08-1.877,1.086-7.401,0.905-8.616
			c-0.94-6.302-1.497-12.631-1.742-18.978c1.645,1.121,3.288,2.241,4.932,3.362c4.093,2.79,8.603,7.006,13.938,6.083
			c5.178-0.894,18.236-7.87,19.776-8.366l-1.358,5.083c-1.39,5.192-3.118,10.115-0.709,15.278c3.08,6.602,7.598,12.986,12.166,19.21
			C1191.697,2051.98,1190.206,2051.947,1188.709,2051.964z"/>
		<path fill="#878787" d="M1229.737,2147.654c-13.197-21.104-23.993-46.293-29.438-59.938c13.462,7.711,29.741,18.285,36.471,27.072
			l10.928-8.312c-14.112-18.431-56.112-39.037-57.893-39.905l-8.41-4.1l-6.905,45.304c-3.306,21.691-0.717,57.363,7.696,106.025
			c0.276,1.602,0.462,2.656,0.517,3.062c-0.049-0.367-0.042-0.613-0.042-0.73h13.747c0-0.757-0.051-1.051-0.674-4.658
			c-10.166-58.803-9.773-87.729-7.652-101.641l1.731-11.362c6.059,14.682,16.066,36.938,28.257,56.431
			c10.96,17.526,24.289,33.446,24.851,34.115l10.542-8.795C1253.33,2180.065,1240.173,2164.346,1229.737,2147.654z"/>
		<path fill="#878787" d="M1468.487,2534.046c-19.364-44.729-15.238-92.526-15.679-139.903c-0.18-19.39-2.858-39.933-15.903-55.229
			c-6.554-7.686-15.349-11.911-25.476-9.022c-0.73,0.209-1.437,0.453-2.129,0.719c9.705-32.049,15.146-65.344,16.031-98.844
			c0.838-31.644,3.095-89.523-37.211-99.357c-2.836-0.691-5.623-1.02-8.362-1.052c3.802-43.943,24.754-83.711,46.197-121.672
			c16.671,22.327,27.198,48.544,31.078,76.196c1.219,8.696,10.958,5.071,9.747-3.565c-4.654-33.169-15.355-64.096-36.929-89.701
			c-2.864-3.398-8.762-2.196-10.797,1.386c-24.749,43.558-49.593,88.838-53.224,139.728c-7.352,2.546-14.233,6.887-20.56,11.836
			c-1.921-39.577-9.241-83.847-40.529-110.263c-17.193-14.517-41.501-12.706-57.715,2.57c-17.105,16.115-19.65,41.79-15.069,63.59
			c5.006,23.828,16.579,47.093,29.486,68.174c-12.507,1.05-23.968,9.986-30.431,21.297c-10.339,18.092-9.305,39.828-3.862,59.27
			c5.615,20.055,14.156,40.311,24.297,58.514c7.333,13.164,16.275,25.206,27.346,35.218c-14.997,1.073-29.021,9.472-35.873,23.656
			c-10.545,21.83,0.333,42.223,14.228,59.453c7.861,9.75,16.759,18.604,25.634,27.425c8.75,8.699,19.947,13.879,30.022,21.074
			c28.472,20.332,44.149,27.367,66.81,37.748c26.553,12.162,52.813,25.502,80.381,35.282c5.683,2.017,11.338-0.241,12.055-4.924
			C1472.366,2541.591,1469.504,2536.395,1468.487,2534.046z M1290.729,2443.013c-8.263-6.378-14.754-14.779-21.472-22.769
			c-6.507-7.738-13.585-16.639-16.141-26.604c-5.774-22.512,15.941-40.862,37.402-34.994c5.729,1.565,11.277,1.396,13.465-4.418
			c2.063-5.48-3.678-10.889-7.188-13.323c-26.803-18.59-40.764-50.398-51.651-79.979c-5.983-16.259-11.109-34.094-6.81-51.4
			c3.043-12.253,15.873-32.694,31.41-25.194c2.646,1.277,7.921,1.503,9.836,0.173c3.952-3.083,3.775-6.066,0.985-10.331
			c-12.019-18.368-22.624-37.99-30.15-58.636c-6.89-18.9-11.003-41.176-0.284-59.548c10.041-17.211,32.108-23.112,47.259-8.878
			c13.854,13.019,22.232,30.912,27.126,48.996c5.443,20.121,6.923,40.988,7.457,61.746c0.021,6.612,1.434,6.81,3.802,8.667
			c4.296,0.343,6.186-0.856,9.592-3.025c13.732-12.554,33.642-27.132,50.532-11.532c16.324,15.078,15.378,43.054,15.752,63.428
			c0.874,47.4-7.777,94.477-24.93,138.666c-2.72,7.007,5.075,9.762,10.574,7.364c1.004-0.52,2.609-2.192,3.347-3.374
			c4.18-6.716,12.893-20.627,22.463-13.628c6.66,4.871,10.565,13.955,12.708,21.611c4.968,17.751,3.074,36.743,2.746,54.927
			c-0.676,37.363,1.256,75.066,14.182,110.281c-17.089-6.752-33.675-14.745-50.344-22.453
			C1382.317,2499.5,1343.508,2483.762,1290.729,2443.013z"/>
		<path fill="#878787" d="M1457.768,2526.566c-0.314-0.338-28.648-30.691-57.854-67.502l34.286-117.248l-13.199-3.835
			l-31.497,107.714c-21.239-27.927-38.574-68.773-51.549-121.434l77.927-156l-12.307-6.107l-69.54,139.211
			c-0.866-6.461-1.802-13.933-2.827-22.131c-4.271-34.125-10.119-80.862-19.265-120.361
			c-12.472-53.859-52.139-116.628-53.821-119.273l-11.612,7.335c0.4,0.628,40.089,63.416,52.037,115.019
			c8.988,38.814,14.785,85.146,19.019,118.977c1.023,8.184,1.961,15.658,2.837,22.195c-32.523-34.917-82.104-95.624-82.688-96.34
			l-10.666,8.645c2.771,3.398,67.224,82.315,97.43,111.587c11.77,47.935,27.178,86.646,45.9,115.35l-122.123-54.598l-5.627,12.5
			l144.307,64.518c30.331,38.505,60.453,70.775,60.78,71.125L1457.768,2526.566z"/>
	</g>
	<g>
		<g>
			<g>
				<path fill="#005480" d="M1300.39,970.41c0.3,2.76-1.1,5.44-3.56,6.76l-54.25,30.63c-0.18-0.05-14.28,0.36-19.94-5.26
					l52.87-29.45l-155.7-44.69c-1.899-0.54-3.46-1.87-4.31-3.64c-33.11-69.54-72.63-144.61-84.8-156.82
					c-14.87,11.69-74.97,91.49-127.45,166.04c-1.15,1.63-2.96,2.68-4.95,2.88l-205.09,20.19l65.55,48.82
					c-3.97,2.8-7.899,5.62-11.689,8.4l-76.28-56.82c-2.271-1.69-3.271-4.6-2.5-7.32c0.76-2.73,3.12-4.71,5.94-4.98l219.579-21.62
					c6.971-9.85,32.91-46.39,59.811-82.52c65.3-87.71,72.27-87.71,77.36-87.71c5.709,0,11.279,4.42,25.859,28.58
					c8.17,13.53,18.521,32.36,30.76,55.96c17.641,34,34.25,68.39,38.98,78.25l168.88,48.47
					C1298.14,965.33,1300.09,967.64,1300.39,970.41z"/>
				<path fill="#005480" d="M1169.79,1165.2c8.77,57.65,6.51,59.92,3.52,62.89c-1.54,1.54-3.3,2.2-5.37,2.2
					c-3.359,0-7.529-1.74-12.899-4.18c-3.76-1.71-8.521-4.04-14.19-6.95c0.87-1.61,1.73-3.2,2.57-4.77
					c1.34-2.47,2.64-4.89,3.92-7.25c6.08,3.13,11.11,5.6,14.82,7.23c-0.4-6.24-1.57-16.21-3.3-28.69
					C1163.53,1176.96,1167.29,1169.91,1169.79,1165.2z"/>
				<path fill="#005480" d="M1056.64,973.47c6.2-6.32,15.91,3.38,9.721,9.69c-19.36,19.7-42.931,36.82-71.391,38.93
					c-28.989,2.15-51.989-13.5-64.96-38.62c-4.04-7.84,7.83-14.76,11.87-6.92c5.4,10.46,12.32,20.17,22.83,26
					c9.86,5.47,21.54,6.91,32.64,5.62C1021,1005.41,1040.54,989.86,1056.64,973.47z"/>
				<path fill="#005480" d="M1039.27,1146.86c-2.18,3.47-4.609,7.35-7.26,11.62c-33.18-19.16-62.39-36.37-72.38-42.27
					l-150.399,96.36c-2.15,1.38-4.9,1.45-7.12,0.19c-2.221-1.26-3.561-3.65-3.471-6.2l4.12-114.94c4.8-1.82,9.471-3.73,13.96-5.69
					l-3.87,108.03l142.92-91.57c1.131-0.72,2.42-1.08,3.721-1.08c1.21,0,2.43,0.32,3.51,0.96
					C985.43,1115.56,1012.37,1131.34,1039.27,1146.86z"/>
				<path fill="#005480" d="M1015.42,894.19c2.66-8.39,15.93-4.78,13.25,3.64c-3.62,11.39-6.36,23.02-7.91,34.88
					c-1.13,8.63-14.89,8.72-13.75,0C1008.73,919.6,1011.41,906.8,1015.42,894.19z"/>
				<path fill="#005480" d="M976.07,892.88c1.989-8.61,15.239-4.94,13.26,3.64c-2.521,10.91-5.05,21.81-7.57,32.72
					c-1.99,8.6-15.24,4.94-13.26-3.64C971.03,914.69,973.55,903.78,976.07,892.88z"/>
			</g>
		</g>
	</g>
	<g>
		<path fill="#878787" d="M1465.862,2549.984c-3.758,0-6.824-3.012-6.872-6.764l-5.151-401.127c0-3.256,0.071-317.705,6.21-391.122
			c6.078-72.687-14.244-473.875-14.449-477.919l13.729-0.694c0.844,16.549,19.574,406.08,14.421,479.751
			c-5.244,74.948-3.874,392.392-6.163,389.896l5.063,394.225l106.609-0.81l11.481-378.067
			c-0.051-12.592-2.898-712.943-4.927-779.631c-2.054-67.547,1.936-102.314,2.106-103.761l13.654,1.598
			c-0.041,0.346-4.037,35.359-2.019,101.749c2.041,67.131,4.905,772.987,4.933,780.108l-0.003,0.235l-11.686,384.776
			c-0.112,3.682-3.124,6.615-6.818,6.644l-120.065,0.913H1465.862z"/>
		<path fill="#878787" d="M1552.131,2540.691h-13.747v-750.105c0-44.636-8.165-513.035-8.247-517.761l13.744-0.238
			c0.084,4.727,8.25,473.246,8.25,518V2540.691z"/>
		<path fill="#878787" d="M2051.369,1145.115c-5.094-47.985-25.747-112.982-61.385-193.185
			c-24.67-55.516-68.554-131.394-137.523-177.603c-41.811-28.013-72.9-31.802-74.204-31.949l-0.313-0.036l-767.442-16.448
			l-0.024,1.123c-8.516-0.292-17.041-0.21-25.589,0.256c-71.437,3.89-142.984,35.309-212.657,93.384
			c-35.295,29.419-64.178,68.586-85.846,116.413c-17.237,38.047-29.973,81.638-37.853,129.561
			c-1.293,7.865-2.409,15.591-3.374,23.139c5.972-7.543,11.706-14.591,16.933-20.873l0.008-0.05
			c7.686-46.742,20.072-89.181,36.816-126.138c20.809-45.929,48.441-83.457,82.135-111.542
			c67.347-56.135,136.181-86.487,204.589-90.212c4.99-0.272,9.968-0.408,14.948-0.408c48.53,0,96.709,12.939,146.777,39.355
			c47.016,24.806,99.938,83.849,141.57,157.94c46.248,82.305,73.554,174.158,77.241,259.481l-215.305,3.251
			c-2.355,4.38-4.849,9.004-7.448,13.815l216.778-3.273c-8.397,11.824-24.197,32.73-48.006,58.947
			c-43.729,48.149-119.323,119.452-231.118,185.698c-42.756,25.337-86.63,43.872-131.065,55.438
			c-4.573,5.974-9.016,11.794-13.184,17.281c51.386-11.384,102.077-31.788,151.275-60.942
			c113.264-67.118,189.922-139.434,234.284-188.281c31.446-34.626,48.986-59.805,54.687-68.396l3.288-0.049v-0.009l665.046-10.911
			l1.954-3.313C2048.186,1195.188,2055.273,1181.923,2051.369,1145.115z M2036.611,1186.333l-656.695,10.773
			c-3.718-87.538-31.639-181.698-78.985-265.958c-42.871-76.298-97.875-137.365-147.133-163.354
			c-21.031-11.096-41.764-19.897-62.354-26.459l685.509,14.692c3.026,0.435,31.46,5.083,68.689,30.245
			c65.79,44.464,107.972,117.646,131.772,171.207c42.521,95.694,56.037,153.748,59.887,185.599
			C2040.255,1167.517,2038.135,1180.669,2036.611,1186.333z"/>
		<path fill="#878787" d="M996.374,1216.609c2.914-4.783,5.726-9.392,8.435-13.83l-273.29,4.126
			c-2.173,4.571-4.28,9.172-6.331,13.799L996.374,1216.609z"/>
		<polygon fill="#878787" points="1317.193,1284.898 1316.666,1271.208 2027.195,1244.024 2034.634,1192.137 2048.244,1194.074 
			2039.184,1257.277 		"/>
		<path fill="#878787" d="M950.179,383.725c-53.932,1.008-97.237-1.047-153.604,3.063c-50.394,3.675-104.078-4.252-154.156,7.729
			c-4.815,1.152-8.966,14.794-7.38,18.303c-4.982,67.146-6.266,439.883-0.016,562.743c1.76,34.583,6.564,95.295,8.723,129.855
			c0.547,8.759,11.461-17.321,10.909-26.141c-7.665-122.78-8.903-244.541-10.909-367.542c-0.506-31.02,0.284-62.705-0.459-99.219
			c17.651,0.565,29.609-1.778,47.008-4.689c0.288,0.913-7.048,214.242,2.714,316.507c0.831,8.701,13.44,4.22,12.603-4.567
			c-9.782-102.472-0.337-313.377-1.078-314.417c21.452-3.777,42.907-7.259,64.584-9.581c46.181-4.944,111.702-5.521,158.063-2.777
			c3.028,0.179,6.065-2.198,6.628-5.03c12.294-61.82,13.993-122.392,24.827-195.809
			C959.408,386.911,955.802,383.621,950.179,383.725z M690.73,593.902c-17.412,2.969-29.41,6.446-47.1,5.94
			c4.322-64.087,3.389-129.302,8.137-193.359c17.248-3.499,34.703-4.283,52.231-3.744
			C699.115,466.427,694.698,530.15,690.73,593.902z M922.096,579.015c-44.674-2.378-108.49-1.725-152.979,3.053
			c-21.619,2.322-43.084,5.595-64.484,9.388c3.915-62.715,8.264-125.403,13.064-188.058c27.324-0.168,60.87,1.337,87.814-0.168
			c73.551-4.11,91.423-2.74,138.198-4.246C933.872,459.617,932.679,520.375,922.096,579.015z"/>
	</g>
	<g>
		<path fill="#878787" d="M1234.08,1000.44c-10.58-0.16-22.7,4.56-32.5,8.2c-10.22,3.8-20.15,8.43-29.55,13.97
			c-17.011,10.04-32.12,22.76-44.98,37.57c-1.13-6.88-2.689-13.69-5.22-19.94c-3.41-8.46-12.66-13.51-20.51-6.87
			c-3.351,2.84-4.95,7.07-6.141,11.16c-2.029,6.99-3.51,14.19-5.26,21.26c-3.13,12.68-6.27,25.36-9.41,38.05
			c-0.64-0.03-1.29-0.03-1.95,0.03c-8.829,0.76-15.21,9.07-21.39,17.11c-1.53,2-2.98,3.88-4.439,5.63
			c-1.98,2.37-6.541,9.27-13.461,20.25c-2.18,3.47-4.609,7.35-7.26,11.62c-7.35,11.83-16.449,26.69-27.199,44.3
			c-2.711,4.439-5.521,9.05-8.44,13.83c-4.22,6.94-8.66,14.22-13.31,21.86c-21.211,34.851-43.141,70.88-57.351,93.49
			c-30.14,47.96-58.86,74.84-94.41,87.91c-0.6-4.48-0.51-9.17,0.16-13.66c3.06-0.14,6.021-0.31,8.76-0.39
			c11.141-0.351,19.72-6.771,25.44-12.93c0.97-0.5,6.58-8.3,8.25-11.39c1.01-1.89,2.18-5.18,3.25-7.91
			c2.49-6.29,3.31-12.8,5.21-19.23c3.64-12.3,17.67-21.29,26.74-29.53c3.069-2.79,2.54-8.92-1.391-10.76
			c-13.01-6.09-22.59-18.021-24.27-32.47c65.62-21.88,54.689-53.47,47.17-59.72c-12.38-10.28-67.37,14.38-67.37,14.38l6.2-17.979
			c2.97-8.59-6.62-16.101-14.28-11.18c-16.24,10.42-37.39,23.24-53.78,28.14c-27.5,8.22-61.87,8.56-83.859,48.29
			c-19.23,34.72-10.44,71.27-5.41,86.189c-0.29,0.5-0.54,1.05-0.72,1.68c-2.971,10.17-5.431,20.46-7.381,30.85
			c-18.14-36.63-13.6-79.97-2.119-118.65c6.35-21.4,14.21-42.41,23.289-62.9c2.051-4.62,4.16-9.22,6.33-13.79
			c8.53-17.96,17.98-35.49,28.181-52.45c6.569-10.93,14.06-21.28,20.66-32.17c3.71-6.12,5.31-14.69,1.77-20.71
			c4.5-2.91,9.89-6.06,14.01-7.52c2.23-0.8,4.44-1.61,6.62-2.44c4.801-1.82,9.471-3.73,13.96-5.69c9.55-4.16,18.28-8.56,25.53-12.91
			c18.83-11.31,20.73-17.91,20.28-22.4c-0.601-6-6.12-9.94-16.46-11.79c18.13-18.17,22.88-33.23,23.38-43.28
			c0.439-8.73-2.24-16.44-7.521-21.71c-6.229-6.21-18.279-6.75-36.84-1.67c-13.859,3.8-28.04,9.88-35.95,14.21
			c-9,4.93-19.81,12.06-30.38,19.49c-3.97,2.8-7.899,5.62-11.689,8.4c-9.87,7.23-18.75,14.05-24.73,18.72l0.23-0.53
			c-0.771-0.34-19.16-8.06-36.94,9.65c-4.09,4.08-12.729,13.8-23.54,26.79c-5.229,6.28-10.96,13.33-16.93,20.87
			c-25.91,32.73-56.3,74.8-69.13,104.26c-21.47,49.31-31.15,145.83-29.891,196.54c0.23,9.149,0.82,18.97,1.45,29.369
			c2.57,42.511,5.76,95.421-13.04,153.791c-24.75,76.84-69.069,250.539-67.229,303.76c0.069,2.04,1.05,3.93,2.66,5.18
			c2.39,1.84,59.909,45.21,186.97,55.3c31.229,2.49,60.17,3.69,86.03,3.69c6.77,0,13.319-0.09,19.659-0.25
			c2.66,0.21,3.78-0.05,5.971-0.18c33.909-1.181,60.95-4.78,78.829-10.58c1.41,0,2.771-0.42,3.82-1.33
			c8.76-3.26,14.91-7.12,18.07-11.58c2.35-3.33,7.88-11.12,18.16-98.03c5-42.19,8.689-83.01,8.74-83.5
			c4.3-55.13,12.5-159.32,13.63-170.63c2.13-4.061,13-18.7,26.97-37.1c4.17-5.49,8.609-11.311,13.18-17.28
			c4.82-6.29,9.771-12.75,14.7-19.17c33.47-43.63,71.41-93.09,88.97-119.79c20.391-31.01,59.271-101.521,87.17-153.08
			c0.87-1.61,1.73-3.2,2.57-4.77c1.34-2.47,2.64-4.89,3.92-7.25c1.2-2.24,2.391-4.43,3.53-6.57c2.88-5.351,5.56-10.351,7.99-14.891
			c4.67-8.72,8.43-15.77,10.93-20.479c1.84-3.47,3.01-5.68,3.37-6.35c0.99-1.87,1.05-4.1,0.17-6.03c-0.85-1.86-2.49-3.24-4.47-3.771
			c32.319-21.84,56.92-54.38,68.909-91.54c3.54-10.99,5.881-22.35,7.051-33.84C1245.72,1014.78,1246.83,1000.64,1234.08,1000.44z
			 M1079.75,1117.52c0.64-0.08,1.71,0.87,2.02,1.16c1.23,1.13,2.48,2.22,3.74,3.3c-3.51,3.52-6.8,7.24-9.87,11.15
			c-1.819-2.11-3.71-4.15-5.85-6.02C1073.17,1122.77,1077.38,1117.72,1079.75,1117.52z M1096.39,1130.49
			c3.74,2.67,7.521,5.14,11.3,7.43c-3.72,5.01-7.43,10.01-11.149,15.01c-4.14-2.8-8.101-5.83-11.67-9.35
			C1088.35,1138.91,1092.21,1134.56,1096.39,1130.49z M862.22,1287.64c2.79-0.67,5.48-1.36,8.08-2.07
			c2.64,14.359,10.431,27.13,22.261,35.51c-8.16,6.96-16.771,14.36-21.23,23.76c-2.26,4.74-3.05,9.89-4.23,14.95
			c-7.77,0.97-15.729,1.62-21.83-4.21c-6.38-6.11-16.119,3.57-9.72,9.69c7.88,7.53,16.87,8.9,26.58,8.47
			c-1.319,2.7-2.81,5.32-4.44,7.89c-11.97-0.92-27.09-4.5-32.59-16.23c-5.359-11.45-16.84-65.43-16.84-65.43L862.22,1287.64z
			 M724.33,1376.2c20.31-6.84,48.63-44.41,52.26-49.31c-0.75,1.78-1.88,9.47,3.49,42.62c4.66,28.78,21.07,35.521,37.63,36.68
			c-0.61,5.86-0.479,11.57,0.351,17.56c0.039,0.24,0.09,0.48,0.159,0.71c-15.72,7.26-32.989,9.69-50.319,9.33
			c-17.49-0.36-40.25-0.92-51.73-16.18c-0.24-0.311-0.5-0.591-0.76-0.851C717.52,1403.05,720.49,1389.53,724.33,1376.2z
			 M817.811,1439.47c-1.57,1.83-3.25,3.53-5.041,5.11c-0.43-0.97-0.83-1.95-1.22-2.94
			C813.66,1440.98,815.75,1440.27,817.811,1439.47z M801.311,1452.42c-2.75,1.46-5.61,2.76-8.561,3.88
			c-0.25-3.41-0.49-6.819-0.74-10.229c2.061-0.301,4.12-0.641,6.16-1.03C799.12,1447.54,800.16,1450,801.311,1452.42z
			 M779.29,1460.22c-4.74,1-9.54,1.69-14.28,2.061c0.54-4.97,1.301-9.9,2.26-14.811c3.7,0.091,7.4,0.04,11.091-0.13
			C778.67,1451.64,778.98,1455.93,779.29,1460.22z M753.46,1446.689c-0.95,5.28-1.69,10.591-2.229,15.931
			c-3.49-0.08-7.021-0.29-10.521-0.771c1.17-5.479,2.79-10.859,5.01-16.01C748.28,1446.189,750.86,1446.47,753.46,1446.689z
			 M732.13,1443.01c-1.96,4.99-3.55,10.07-4.69,15.32c-2.85-1.24-5.539-2.811-7.989-4.811c1.18-4.59,2.899-8.92,5.319-13.109
			l0.011-0.021C727.16,1441.41,729.62,1442.28,732.13,1443.01z M712.95,1433.42l-0.05,0.07c-1.25,2.17-2.36,4.39-3.36,6.67
			c-1.7-4-2.66-8.3-2.81-12.66C708.68,1429.72,710.76,1431.68,712.95,1433.42z M757.21,1101.83c1.51,0.98,2.89,1.82,4.13,2.54
			c-4.96,4.86-9.93,9.73-14.89,14.59c-1.28-0.84-2.53-1.73-3.74-2.68C747.939,1111.86,752.78,1107.04,757.21,1101.83z
			 M732.71,1106.83c-1.7-1.88-3.35-3.82-4.94-5.8c4.511-4,9.021-8.01,13.53-12.01c1.7,1.65,3.37,3.17,5,4.57
			C742.12,1098.35,737.57,1102.74,732.71,1106.83z M762.11,1125.67c-0.78-0.17-1.55-0.37-2.311-0.57c2.351-2.31,4.71-4.62,7.07-6.93
			C765.47,1120.63,763.78,1123.24,762.11,1125.67z M758.6,1022.86c3.851-2.79,7.811-5.61,11.761-8.34
			c9.01-6.24,17.939-12.04,25.399-16.13c6.971-3.82,20.26-9.52,32.971-13.01c12.369-3.39,18.899-3.28,21.77-2.59
			c-22.45,6.5-43.55,16.72-62.45,30.45c-7.08,5.15-0.229,17.04,6.94,11.83c18.42-13.38,38.74-23.33,60.68-29.51
			c-0.15,1.98-0.59,4.46-1.56,7.39c-16.971,4-32.971,11.08-47.28,21.03c-7.21,5-0.34,16.88,6.939,11.83
			c9.58-6.66,19.791-11.87,30.62-15.7c-4.47,5.7-10.649,12.08-19.17,19.04c-2.25,1.83-3.1,4.87-2.12,7.6
			c0.971,2.73,3.561,4.55,6.471,4.55c6.31,0,13.21,0.75,17.24,1.76c-4.341,4.01-14.541,10.56-29.541,17.57
			c-4.27,2-8.939,4.03-13.97,6.05c-3.739,1.51-7.649,3-11.79,4.47c-7.479,2.67-16.82,8.78-21.76,12.22
			c-7.68-4.1-27.561-17.04-42.32-46.93C733.51,1041.66,745.45,1032.39,758.6,1022.86z M728.43,1074.32c1.2,1.609,2.4,3.14,3.601,4.6
			c-4.2,3.73-8.4,7.46-12.601,11.19c-1.529-2.03-3.069-4.06-4.59-6.11C719.37,1080.78,723.9,1077.55,728.43,1074.32z
			 M720.83,1062.96c-4.71,3.36-9.43,6.72-14.141,10.07c-1.489-2.04-2.939-4.08-4.26-6.18c4.91-3.44,10-6.55,15.301-9.3
			C718.75,1059.42,719.78,1061.22,720.83,1062.96z M712.05,1044.2c-0.01,0.29,0,0.58,0.021,0.87c-5.24,2.66-10.28,5.66-15.141,8.98
			c-0.119-0.54-0.22-1.08-0.3-1.63c-0.09-0.54-0.22-1.02-0.39-1.46C702.29,1045.35,708.09,1044.15,712.05,1044.2z M588.64,1199.49
			c1.21-2.771,2.601-5.69,4.141-8.71c16.05,18.229,20.79,43.51,12.34,66.649c-4.69,12.851-12.75,24.48-21.42,34.96
			c-6.07,7.34-12.38,14.83-19.82,20.86C568.39,1271.51,576.64,1227.06,588.64,1199.49z M499.4,1884.18
			c-9.11-4.609-15.221-8.41-18.391-10.529c0.021-8.79,1.16-20.521,3.13-34.301c4.671,1.87,11.16,4.42,19.021,7.391
			C499.33,1858.86,498.03,1871.52,499.4,1884.18z M532.55,1898.43c-7.39-2.699-14.02-5.39-19.87-7.979
			c0.65-1.011,0.95-2.33,0.74-3.97c-1.6-11.971-0.74-23.551,2.65-34.95c6.58,2.409,13.77,4.96,21.38,7.56
			C535.4,1872.15,533.76,1885.27,532.55,1898.43z M570.98,1870.86c-0.4,12.95-1.19,25.88-2.37,38.779
			c-8.25-2.149-15.91-4.409-22.99-6.7c0.21-0.6,0.37-1.239,0.43-1.949c1.101-12.551,2.61-25.051,4.55-37.5
			c6.62,2.17,13.48,4.33,20.471,6.439C571.02,1870.23,570.99,1870.54,570.98,1870.86z M609.58,1881.83
			c-0.66,11.03-1.87,21.97-3.73,32.859c-0.189,1.101-0.13,2.131,0.101,3.051c-8.57-1.51-16.71-3.16-24.38-4.93
			c0.38-0.761,0.649-1.641,0.74-2.631c1.119-12.08,1.869-24.17,2.3-36.29c8.34,2.36,16.77,4.591,25.17,6.61
			C609.68,1880.92,609.6,1881.36,609.58,1881.83z M643.57,1922.98c-8.641-0.9-16.94-1.961-24.87-3.16c0.17-0.45,0.31-0.94,0.41-1.49
			c1.96-11.53,3.329-23.12,4.09-34.79c7.43,1.58,14.75,2.96,21.87,4.06C645.53,1899.45,645.03,1911.22,643.57,1922.98z
			 M673.39,1925.439c-5.01-0.34-10.12-0.709-15.35-1.119c-0.3-0.03-0.59-0.051-0.89-0.08c0.02-0.12,0.05-0.25,0.069-0.38
			c1.46-11.46,2.011-22.921,1.66-34.46c2.45,0.26,4.87,0.489,7.24,0.67c3.44,0.25,6.819,0.479,10.16,0.71
			C676.62,1902.47,675.72,1913.97,673.39,1925.439z M704.04,1927.14c-5.47-0.229-11.08-0.5-16.86-0.829
			c2.141-11.45,3.141-23,2.86-34.66c5.64,0.34,11.13,0.63,16.46,0.899l-0.01,0.23C706.7,1904.32,705.95,1915.76,704.04,1927.14z
			 M734.18,1895.53c-0.71,10.95-2.35,21.68-4.859,32.35c-3.76-0.06-7.58-0.14-11.521-0.25c1.761-11.43,2.63-22.89,2.44-34.47
			c4.91,0.189,9.67,0.35,14.31,0.49C734.35,1894.23,734.22,1894.85,734.18,1895.53z M761.71,1913.95
			c-0.09,3.36-0.26,6.729-0.66,10.06c-0.14,1.271-0.34,2.53-0.56,3.79c-5.471,0.13-11.15,0.2-17.11,0.2
			c2.33-10.7,3.84-21.53,4.55-32.47c0.03-0.55,0.01-1.07-0.06-1.561c4.63,0.091,9.1,0.141,13.44,0.17
			C761.6,1900.74,761.88,1907.35,761.71,1913.95z M786.01,1926.7c-3.63,0.239-7.39,0.45-11.31,0.63c0.22-2.57,0.29-5.061,0.439-7.08
			c0.66-8.689,0.29-17.41-0.079-26.1c4.949-0.04,9.659-0.11,14.18-0.211C788.16,1904.86,787.09,1915.78,786.01,1926.7z
			 M816.2,1909.25c-0.44,2.66-0.91,5.32-1.41,7.98c-0.25,1.33-0.5,2.649-0.771,3.979c-0.06,0.21-0.109,0.38-0.159,0.56
			c-0.62,0.65-1.13,1.45-1.46,2.381c-3.92,0.52-8.09,1-12.53,1.43c1.05-10.62,2.09-21.24,3.14-31.86l0.01-0.21
			c5.57-0.22,10.721-0.49,15.53-0.8C817.88,1898.24,817.12,1903.75,816.2,1909.25z M840.42,1918.68
			c-3.53,1.01-7.57,1.99-12.17,2.891c0.4-2.61,0.62-5.21,0.99-7.351c1.27-7.489,2.3-15.02,3.199-22.569
			c3.91-0.351,7.48-0.721,10.74-1.09C842.79,1900,841.89,1909.36,840.42,1918.68z M858.09,1909.84c-0.63,0.9-1.64,1.811-2.979,2.73
			c0.97-7.771,1.609-15.58,1.89-23.44c0.01-0.149,0-0.3,0-0.45c2.75-0.449,5.08-0.869,6.99-1.25
			C861.79,1899.41,859.77,1907.439,858.09,1909.84z M1042.18,1364.73c-9.369,14.24-24.76,35.24-42.189,58.39
			c-5.79-17.57-1.221-37.79,10.27-52.2c10.94-13.72,27.271-22.41,44.351-26.13C1049.97,1352.51,1045.77,1359.28,1042.18,1364.73z
			 M1135.16,1200.74l-0.04,0.07c-2.07,3.84-4.24,7.85-6.46,11.96c-0.34,0.63-0.67,1.23-1.01,1.86
			c-19.601,36.18-44.32,81.17-64.07,115.01c-0.29,0-0.59,0.02-0.9,0.06c-25.06,3.14-49.08,14.08-64.529,34.59
			c-15.34,20.35-18.801,47.91-7.98,71.01c0.08,0.17,0.16,0.32,0.25,0.48c-12.01,15.83-24.609,32.25-36.63,47.93
			c-9.851,12.83-18.03,23.51-24.82,32.44c-4.78,6.27-8.87,11.67-12.37,16.33c-16.5,21.979-19.92,27.56-20.3,30.619
			c-0.06,0.511-0.18,1.73-0.34,3.54c-15.85,6.23-31.34,13.271-46.41,21.21c-7.819,4.12-0.88,15.95,6.94,11.83
			c12.449-6.56,25.17-12.51,38.18-17.83c-3.59,43.66-11.73,147.851-12.14,153.211c-0.271,2.97-0.54,5.949-0.82,8.939l-0.24,0.08
			c-20.95,7.55-43.25,5.77-65.109,6.99c-21.561,1.189-43.08,4.29-64.101,9.229c-10.22,2.4-20.33,5.25-30.3,8.53
			c-9.44,3.109-20.66,5.97-29.11,11.29c-7.51,4.729-6.989,13.84-0.899,19.399c6.7,6.131,17.83,8.931,26.36,11.45
			c22.77,6.73,46.539,7.96,69.97,4.54c8.72-1.26,5.02-14.47-3.65-13.21c-22.95,3.34-46.53,1.08-68.47-6.38
			c-2.3-0.78-4.59-1.62-6.86-2.51c-1.39-0.561-3.8-2.16-5.84-3.221c0.67-0.279,1.34-0.579,2.03-0.84
			c3.109-1.26,6.26-2.439,9.41-3.59c10.649-3.89,21.489-7.27,32.46-10.13c22.579-5.89,45.689-9.569,69-10.86
			c21.37-1.189,43.25,0.23,63.92-5.909c-4.17,42.51-9.22,84.87-13.82,113.979c-6.96,1.74-61,13.67-199.33,3.561
			c-62.41-4.561-158.27-41.891-180.819-50.971c12.26-73.729,42.93-190.38,61.329-247.51c19.591-60.82,16.311-115.15,13.671-158.8
			c-0.621-10.27-1.211-19.98-1.431-28.89c-0.39-15.77,0.38-36.64,2.29-59.21c13.15-7.34,23.35-19.18,32.71-30.73
			c10.13-12.5,19.12-26,24.24-41.35c9.45-28.26,1.61-59.85-19.38-80.82c11.32-19.39,27.01-41.7,42.59-62.27
			c5.41-7.15,10.81-14.08,16-20.61c10.23-12.86,19.66-24.14,26.82-32.31c2.46,6.9,6.68,13.01,11.119,18.98
			c6.28,8.46,12.53,16.97,19,25.3c10.23,13.17,22.48,25.53,38.61,30.49c-5.34,8.52-10.479,17.16-15.38,25.93
			c-7.939,14.2-15.28,28.72-22.04,43.5c-2.09,4.58-4.12,9.18-6.11,13.8c-0.47,1.11-0.96,2.22-1.43,3.33
			c-17.59,41.7-34.17,87.65-30.609,133.6c1.52,19.73,6.699,39.13,16.459,56.3c-0.289,0.55-0.52,1.17-0.67,1.89
			c-3.06,15.09,0.74,30.54,10.771,42.33c0.479,0.56,0.979,1.07,1.47,1.59c0.471,0.72,1.07,1.33,1.811,1.82
			c11.63,10.96,28.02,14.22,43.789,14.55c20.931,0.43,42.681-3.76,59.91-14.51c1.69-0.44,3.25-1.47,4.28-2.86
			c9.32-6.739,17.04-15.649,22.181-27.08c37.529-14.409,67.77-42.88,99.05-92.66c14.26-22.69,36.22-58.77,57.46-93.66
			c5.859-9.62,11.869-19.5,17.79-29.21c2.84-4.66,5.67-9.29,8.439-13.83c8.32-13.61,16.19-26.43,22.87-37.18
			c2.62-4.22,5.061-8.13,7.27-11.63c4.53-7.2,8.091-12.71,10.291-15.88c5.909,4.88,9.85,12.01,15.5,17.21
			c6.34,5.83,13.64,10.56,20.97,15.04c5.84,3.57,11.819,7.64,17.97,11.49c0.66,0.57,1.41,1.03,2.19,1.35
			c6.77,4.141,13.76,7.93,21.029,10.43C1137.85,1195.75,1136.53,1198.21,1135.16,1200.74z M1108.13,1160.23
			c3.851-5.19,7.7-10.38,11.56-15.56c3.2,1.66,6.33,3.18,9.381,4.58c-4.44,5.16-8.351,10.69-11.631,16.61
			C1114.34,1163.99,1111.23,1162.12,1108.13,1160.23z M1145.77,1181.01c-5.89-1.88-11.239-4.85-16.569-8.04
			c3.189-5.81,6.989-11.24,11.489-16.2c0.591-0.66,1.021-1.34,1.32-2.04c4.94,1.91,9.351,3.43,12.971,4.59
			c0.18,1.17,0.359,2.32,0.529,3.46C1152.99,1167.52,1149.68,1173.72,1145.77,1181.01z M1231.53,1017.58
			c-0.15,2.85-0.38,5.69-0.73,8.52c-1.189,9.75-3.53,19.42-6.61,28.75c-5.75,17.42-14.659,33.93-25.97,48.4
			c-12.78,16.34-28.609,30.01-46.569,40.39c-15.61-5.67-39.16-16.22-58.591-33.3c4.471-18.06,8.94-36.13,13.4-54.19
			c0.69-2.78,2.271-6.37,2.86-9.46c0.35,0.96,0.8,1.97,1,2.7c2.439,9.06,4.13,18.32,5.16,27.64c0.76,6.86,8.68,9.189,12.81,3.46
			c8.1-11.24,17.649-21.38,28.27-30.23c-4.279,10.87-8.609,21.72-13.029,32.53c-3.33,8.16,9.96,11.71,13.26,3.64
			c6.25-15.29,12.36-30.63,18.34-46.03c0.55-1.42,0.601-2.69,0.31-3.8c5.511-3.43,11.221-6.54,17.101-9.32
			c-5.38,21.28-13.521,41.61-24.42,60.77c-4.37,7.69,7.5,14.6,11.87,6.92c13.06-22.96,22.529-47.69,28.01-73.52
			c0.04-0.2,0.07-0.4,0.09-0.61c4.08-1.44,8.2-2.74,12.38-3.86c2.061-0.55,4.13-1.07,6.22-1.54c0.591-0.14,3.421-0.86,4.961-1.42
			C1231.33,1014.85,1231.58,1016.72,1231.53,1017.58z"/>
		<path fill="#878787" d="M859.705,1312.919c-0.293-0.802-0.548-1.615-0.73-2.454c-0.354-1.626-1.748-3.271-3.158-4.094
			c-1.474-0.86-3.646-1.224-5.298-0.691c-1.663,0.537-3.268,1.564-4.108,3.148c-0.891,1.682-1.1,3.407-0.692,5.279
			c0.393,1.806,1.089,3.451,1.826,5.146c0.64,1.466,2.638,2.744,4.108,3.148c1.646,0.452,3.837,0.248,5.297-0.691
			c1.468-0.943,2.76-2.347,3.159-4.094c0.081-0.607,0.163-1.214,0.245-1.822C860.352,1314.78,860.127,1313.823,859.705,1312.919z"/>
		<path fill="#878787" d="M843.547,1800.984h-27.496c-8.846,0-8.859,13.701,0,13.701h27.496
			C852.393,1814.686,852.408,1800.984,843.547,1800.984z"/>
	</g>
	<g>
		<path fill="#878787" d="M263.848,2051.259c-22.288-30.706-61.632-40.536-95.524-24.626
			c-37.551,17.629-54.565,46.442-69.908,82.629c-4.333,10.217-8.189,29.495-8.707,40.646c-0.506,10.9-0.917,26.49,1.833,38.82
			c4.251,19.064,11.214,36.677,27.345,49.105c15.751,12.136,34.95,11.146,51.295,0.639c17.825-11.462,29.347-21.539,44.174-36.5
			c6.699-6.758,20.222-15.438,25.663-23.292C267.056,2125.703,272.307,2062.913,263.848,2051.259z"/>
		<path fill="#878787" d="M227.16,2052.874c-2.778-8.325-16.06-4.757-13.257,3.644c3.781,11.33,0.741,23.284-1.283,34.693
			c-1.93,10.879-4.038,21.738-6.821,32.436c-5.533,21.273-13.887,41.926-28.996,58.291c-5.982,6.479,3.715,16.193,9.721,9.688
			c16.718-18.108,26.396-40.745,32.532-64.337c3.059-11.762,5.305-23.715,7.389-35.681
			C228.683,2078.77,231.406,2065.599,227.16,2052.874z"/>
		<path fill="#878787" d="M162.689,2201.08c-2.05-3.455-5.999-3.998-9.405-2.457c-5.447,2.465-11.286,2.336-16.874,0.497
			c-8.421-2.769-12.03,10.458-3.654,13.213c9.266,3.046,18.672,2.101,27.467-1.879
			C163.593,2208.93,164.439,2204.033,162.689,2201.08z"/>
		<path fill="#878787" d="M824.1,2619.994c-7.052-16.984-16.628-30.855-33.34-39.566c-19.098-9.953-41.438-14.492-62.729-16.465
			c-17.67-1.639-53.953,9.456-52.78,11.255c-4.359,17.859-3.456,43.807,0,61.655c3.271,16.885,9.774,33.424,17.041,49.113
			c14.822,32.002,50.923,55.551,86.593,55.448c16.648-0.047,34.02-6.108,45.243-18.753c11.303-12.734,15.899-30.154,15.224-46.911
			C838.566,2656.325,831.481,2637.775,824.1,2619.994z"/>
		<path fill="#878787" d="M803.618,2635.543c-13.438-24.707-37.219-46.964-67.36-45.182c-13.873,0.821-27.417,6.497-33.081,19.884
			c-6.411,15.153-3.43,32.478-0.505,48.076c1.623,8.657,14.875,4.991,13.257-3.642c-2.202-11.749-4.781-25.037-1.003-36.756
			c3.854-11.955,16.769-14.783,28.124-13.783c22.517,1.983,38.554,19.667,48.698,38.317
			C795.966,2650.212,807.84,2643.304,803.618,2635.543z"/>
		<path fill="#878787" d="M820.159,2666.445c-0.555-5.013-2.291-9.26-5.675-13.055c-2.396-2.687-7.311-2.615-9.721,0
			c-2.642,2.867-2.557,6.822,0,9.689l0.199,0.227c0.118,0.176,4.328,10.169,8.322,9.99
			C816.672,2673.146,820.58,2670.262,820.159,2666.445z"/>
	</g>
	<g>
		<path fill="#878787" d="M866.734,1928.46c-0.014-2.691-0.047-8.995-6.409-9.54c-0.277-0.034-6.785-0.496-7.574,6.937
			c-0.099,0.928-0.007,1.833,0.245,2.675c0.154,24.372-6.668,244.072-15.392,375.75c-7.86,118.665-19.063,189.115-19.175,189.813
			l-0.022,0.155l-11.298,82.188c-8.026-6.972-21.788-14.189-45.368-18.138c-31.158-5.221-61.387-2.119-89.96,9.204
			c-2.113-24.285-7.708-88.73-8.809-102.993c-1.328-17.214-4.017-167.277-4.104-172.124l2.748-197.188
			c0.05-3.567-2.656-6.577-6.221-6.915c-3.579-0.35-6.792,2.107-7.42,5.618c-0.178,0.999-18.049,100.892-34.342,182.085
			c-7.213,35.938-19.695,63.506-37.104,81.938c-13.284,14.066-29.578,23.166-49.813,27.819
			c-37.647,8.654-83.351-15.704-114.458-34.781c-22.886-14.037-104.407-67.587-109.551-70.969
			c-2.165-1.712-19.782-15.733-36.649-31.672c-32.081-30.313-31.704-39.35-31.607-40.076
			c34.756-55.482,38.865-113.717,38.16-143.939c16.843,16.972,50.35,45.039,108.34,72.603
			c85.657,40.714,114.521,110.736,114.802,111.44c1.072,2.684,3.656,4.318,6.39,4.318c0.843,0,1.699-0.154,2.53-0.482
			c3.529-1.395,5.257-5.375,3.858-8.893c-0.895-2.249-17.101-41.859-61.466-79.836c-0.224-12.507-0.563-52.705,2.926-101.014
			c4.184-57.949,35.132-180.911,35.444-182.147l-13.332-3.345c-1.286,5.09-31.555,125.36-35.825,184.51
			c-2.793,38.69-3.16,72.288-3.078,90.922c-13.289-9.907-28.646-19.433-46.332-27.84c-86.265-41.003-116.613-83.603-116.901-84.016
			l-0.285-0.335c-0.149-0.19-0.297-0.376-0.465-0.549c-0.162-0.166-0.335-0.313-0.511-0.46c-0.161-0.134-0.32-0.267-0.492-0.386
			c-0.197-0.136-0.402-0.254-0.611-0.368c-0.179-0.099-0.357-0.193-0.545-0.276c-0.214-0.094-0.432-0.167-0.653-0.238
			c-0.202-0.065-0.401-0.127-0.609-0.174c-0.231-0.051-0.462-0.08-0.698-0.108c-0.203-0.024-0.402-0.049-0.609-0.054
			c-0.267-0.007-0.53,0.014-0.797,0.036c-0.129,0.012-0.256-0.001-0.385,0.018l-0.158,0.04c-0.265,0.044-0.524,0.119-0.786,0.196
			c-0.185,0.056-0.372,0.103-0.55,0.17c-0.213,0.083-0.417,0.193-0.624,0.299c-0.206,0.104-0.413,0.206-0.606,0.332l-0.172,0.094
			c-0.131,0.089-0.233,0.203-0.356,0.301c-0.179,0.141-0.357,0.281-0.521,0.438c-0.175,0.169-0.329,0.35-0.483,0.533
			c-0.128,0.152-0.255,0.304-0.369,0.467c-0.142,0.202-0.264,0.412-0.381,0.627c-0.096,0.173-0.189,0.346-0.27,0.527
			c-0.095,0.217-0.171,0.437-0.244,0.661c-0.064,0.199-0.126,0.397-0.172,0.603c-0.051,0.228-0.082,0.454-0.109,0.687
			c-0.025,0.208-0.05,0.414-0.055,0.626c-0.006,0.251,0.013,0.499,0.034,0.75c0.012,0.141-0.002,0.277,0.019,0.419
			c0.119,0.813,11.361,82.118-34.771,155.68c-6.821,10.876,2.769,27.465,32.065,55.471c18.906,18.072,38.786,33.721,39.622,34.379
			c0.152,0.119,0.309,0.231,0.47,0.337c0.862,0.566,86.466,56.828,110.164,71.362c33.168,20.343,82.185,46.253,124.755,36.465
			c51.596-11.867,83.424-51.257,97.305-120.423c6.721-33.49,13.707-70.143,19.614-101.753l-1.608,115.386l0.001,0.217
			c0.112,6.329,2.769,155.231,4.144,173.04c1.361,17.642,9.547,111.473,9.629,112.418c0.109,1.255,0.564,2.455,1.313,3.47
			c3.356,4.538,8.212,2.388,10.818,1.232c27.919-12.366,57.673-16.021,88.437-10.872c39.923,6.687,44.821,22.811,45.18,24.252
			c0.207,3.482,3.006,6.043,6.521,6.207l0.302,0.007c3.427,0,6.345-2.735,6.813-6.148l13.738-99.946
			c0.449-2.834,11.52-73.479,19.306-190.999c5.281-79.731,9.491-185.591,11.53-241.598c1.315-36.138,2.437-70.896,3.157-97.876
			c0.326-12.228,0.554-22.335,0.658-29.228C866.722,1932.995,866.744,1930.292,866.734,1928.46z"/>
		<path fill="#878787" d="M340.685,2200.552c-8.876-5.454-17.753-10.907-26.629-16.36c-7.553-4.64-14.465,7.207-6.939,11.831
			c8.876,5.452,17.753,10.906,26.629,16.358C341.298,2217.021,348.211,2205.174,340.685,2200.552z"/>
		<path fill="#878787" d="M403.169,2247.114c-6.225-2.664-12.164-5.856-17.674-9.797c-5.271-3.769-9.649-8.56-14.872-12.387
			c-7.135-5.229-14,6.656-6.939,11.83c5.198,3.81,9.592,8.617,14.873,12.388c5.512,3.937,11.448,7.133,17.673,9.797
			C404.272,2262.387,411.283,2250.587,403.169,2247.114z"/>
		<path fill="#878787" d="M466.814,2283.635c-11.542-3.591-22.335-9.042-31.886-16.469c-6.896-5.361-16.692,4.267-9.722,9.688
			c11.5,8.942,24.01,15.656,37.953,19.991C471.625,2299.478,475.247,2286.256,466.814,2283.635z"/>
		<path fill="#878787" d="M602.655,2299.354c-8.735,9.479-20.213,15.583-33.148,16.786c-8.734,0.813-8.819,14.521,0,13.701
			c16.566-1.542,31.562-8.526,42.87-20.801C618.352,2302.557,608.655,2292.842,602.655,2299.354z"/>
		<path fill="#878787" d="M789.105,2260.662c-25.934,10.129-52.852,17.225-80.418,21.205c-3.836,0.553-5.477,5.182-4.801,8.426
			c2.764,13.268,18.921,15.271,29.937,17.297c16.305,2.996,32.814,4.715,49.382,5.235c8.85,0.277,8.841-13.424,0-13.701
			c-12.752-0.399-25.471-1.447-38.076-3.439c-5.775-0.913-11.537-1.966-17.246-3.23c22.151-4.18,43.843-10.365,64.877-18.581
			C800.906,2270.693,797.36,2257.438,789.105,2260.662z"/>
		<path fill="#878787" d="M540.228,2315.246c-12.06-2.82-23.915-6.271-35.601-10.364c-8.363-2.929-11.961,10.303-3.655,13.212
			c11.687,4.093,23.542,7.543,35.602,10.363C545.179,2330.47,548.852,2317.262,540.228,2315.246z"/>
		<path fill="#878787" d="M285.786,2159.236c-6.654-3.291-12.268-7.614-17.144-13.202c-5.817-6.666-15.506,3.059-9.722,9.688
			c5.552,6.361,12.349,11.596,19.926,15.344C286.748,2174.975,293.72,2163.16,285.786,2159.236z"/>
		<path fill="#878787" d="M605.892,1961.407c-32.288-4.05-64.577-8.102-96.866-12.151c-1.609-0.924-3.656-1.153-5.539-0.694
			l-0.034-0.004c-6.146-0.771-6.663,34.101-7.265,46.108c-0.616,12.312-1.297,24.729,1.165,36.9
			c4.002,19.783,18.935,38.356,40.593,38.387c23.675,0.034,40.724-19.272,52.28-37.694c12.224-19.483,19.525-41.292,22.54-64.001
			C613.294,1964.275,609.16,1961.816,605.892,1961.407z M580.753,2021.384c-9.011,15.418-22.817,34.864-42.808,34.868
			c-20.143,0.005-27.754-22.332-28.512-38.873c-0.512-11.165-0.046-22.461,0.656-33.742c3.646,0.675,7.294,1.351,10.941,2.026
			c3.646,0.676,7.413-1.004,8.455-4.785c0.92-3.334-1.132-7.747-4.801-8.427c-4.559-0.844-9.118-1.688-13.677-2.532
			c0.151-2.223,0.301-4.442,0.441-6.657c28.884,3.622,57.767,7.246,86.65,10.869c-0.616,3.497-1.394,6.964-2.271,10.404
			c-4.812-0.494-9.625-0.989-14.438-1.484c-3.698-0.38-6.874,3.422-6.874,6.852c0,4.021,3.165,6.469,6.874,6.85
			c3.457,0.356,6.914,0.711,10.371,1.066C588.813,2005.983,585.135,2013.887,580.753,2021.384z"/>
		<path fill="#878787" d="M558.501,1977.356c-3.658-0.378-7.317-0.756-10.976-1.135c-3.589-0.37-7.028,3.416-6.874,6.851
			c0.182,4.029,3.029,6.453,6.874,6.851c3.658,0.379,7.317,0.757,10.976,1.135c3.588,0.371,7.028-3.415,6.874-6.851
			C565.193,1980.179,562.345,1977.753,558.501,1977.356z"/>
		<path fill="#878787" d="M812.4,1975.819c-39.72-1.083-79.439-2.165-119.159-3.247c-3.634-0.1-5.772,2.154-6.421,4.859
			c-0.254,0.654-0.423,1.378-0.479,2.177c-1.532,21.397-1.2,43.246,2.462,64.43c3.129,18.099,10.752,35.884,26.002,47.004
			c14.6,10.646,33.104,10.642,49.103,3.182c17.246-8.04,28.785-24.297,36.244-41.231c9.297-21.106,14.778-43.707,17.945-66.483
			C820.387,1982.524,818.485,1975.985,812.4,1975.819z M742.212,2085.961c-21.214,0.595-33.816-18.982-38.426-37.281
			c-3.052-12.114-4.348-24.853-4.638-37.61H718.9c8.846,0,8.861-13.701,0-13.701h-19.71c0.099-3.661,0.256-7.307,0.462-10.921
			c34.765,0.947,69.529,1.895,104.295,2.843c-0.538,3.607-1.15,7.229-1.832,10.854c-0.236-0.021-0.478-0.036-0.729-0.036h-18.33
			c-8.847,0-8.86,13.701,0,13.701h16.098c-3.107,12.618-7.263,25.002-12.806,36.479
			C777.928,2067.725,763.265,2085.369,742.212,2085.961z"/>
		<path fill="#878787" d="M755.561,2000.108h-12.83c-8.847,0-8.861,13.701,0,13.701h12.83
			C764.407,2013.81,764.422,2000.108,755.561,2000.108z"/>
	</g>
</g>
</svg>
