<?xml version="1.0" encoding="utf-8"?>
<!-- Generator: Adobe Illustrator 16.0.0, SVG Export Plug-In . SVG Version: 6.00 Build 0)  -->
<!DOCTYPE svg PUBLIC "-//W3C//DTD SVG 1.1//EN" "http://www.w3.org/Graphics/SVG/1.1/DTD/svg11.dtd">
<svg version="1.1" id="Camada_1" xmlns="http://www.w3.org/2000/svg" xmlns:xlink="http://www.w3.org/1999/xlink" x="0px" y="0px"
	 width="1080px" height="1080px" viewBox="0 0 1080 1080" enable-background="new 0 0 1080 1080" xml:space="preserve">
<g>
	<path fill="#404040" d="M656.475,953.902c7.324,0,12.846-5.713,12.846-13.286c0-7.432-4.938-12.619-12.01-12.619h-0.164
		c-5.475,0-13.184,4.121-13.184,13.282C643.963,950.598,650.703,953.902,656.475,953.902"/>
	<path fill="#404040" d="M334.362,939.692c-2.782,0.368-4.393,1.296-4.393,4.947v46.974c0,30.587-11.114,34.71-21.983,34.71
		c-9.585,0-22.322-3.476-22.322-33.54V949.64c0-7.868-0.365-10.62-4.476-10.62c-3.818,0-17.247,0.826-20.689,1.341l-0.583,0.083
		l0.057,0.59c0.336,3.527,0.501,10.54,0.501,21.438v31.313c0,35.698,15.085,53.801,44.831,53.801c21.141,0,46.34-9.855,46.34-56.8
		v-23.829c0-14.45,0.185-20.947,0.502-27.284l0.034-0.651h-0.652C348.27,939.02,339.434,939.188,334.362,939.692"/>
	<path fill="#404040" d="M428.068,954.432c9.747,0,17.252,2.575,20.857,4.113l0.162,0.041c2.605,0.348,5.011-0.454,6.958-2.311
		c2.519-2.403,3.941-6.4,3.626-10.186l-0.018-0.209l-0.139-0.156c-2.575-2.883-14.819-8.538-31.447-8.538
		c-36.899,0-60.741,20.906-60.741,53.263c0,34.708,23.645,57.135,60.241,57.135c10.562,0,19.09-5.459,23.672-8.393l0.608-0.386
		l0.094-0.074c3.332-3.143,5.542-8.493,6.219-15.057l0.046-0.428l-1.272-0.629l-1.306,0.367c-4.306,1.225-12.318,3.505-22.869,3.505
		c-23.53,0-38.734-14.735-38.734-37.537C394.025,960.42,412.537,954.432,428.068,954.432"/>
	<path fill="#404040" d="M624.471,1003.029l-8.041-57.975l-0.002-0.006c-0.66-4.451-1.742-6.029-4.129-6.029
		c-4.24,0-18.02,0.951-20.926,2.761l-0.295,0.183v2.389c-6.93,16.755-16.863,41.602-23.83,60.316l-21.35-57.065
		c-2.432-6.938-3.557-8.794-6.784-8.583c-8.589,0-14.935,1.384-19.565,2.392l-1.89,0.408l0.394,3.143
		c-4.711,28.384-9.168,57.038-12.425,77.971c-1.114,7.153-2.064,13.259-2.8,17.912l-0.068,0.429l0.378,0.212
		c2.812,1.575,12.155,4.599,17.556,4.599c2.36,0,3.294-3.631,3.797-6.396c2.308-18.82,5.939-52.935,7.759-72.733
		c2.91,9.296,6.89,21.857,10.749,34.046c5.559,17.537,10.805,34.101,12.771,40.624l0.133,0.442h0.461
		c3.303,0,7.232-0.442,12.012-1.346c4.371-0.871,6.086-2.332,7.334-6.25c8.316-24.949,17.32-52.175,22.031-67.765l3.221,34.63
		c1.568,17.65,2.561,27.333,3.355,35.111l0.16,1.554c0.348,3.817,2.836,8.082,5.645,8.082c3.346,0,13.641-2.908,18.035-4.151
		l1.93-0.54l-0.094-0.553C628.496,1031.92,626.586,1018.849,624.471,1003.029"/>
	<path fill="#404040" d="M666.571,966.167c-4.092,0-16.207,1.01-20.592,2.186l-0.514,0.137l0.059,0.528
		c0.285,2.71,0.664,7.589,0.664,18.6v28.497c0,8.942-0.283,20.473-0.451,27.361l-0.063,2.608h0.637
		c8.775,0,14.889-0.226,18.156-0.672c4.604-0.529,6.242-4.461,6.242-7.966v-60.161C670.709,967.828,670.09,966.167,666.571,966.167"
		/>
	<path fill="#404040" d="M761.481,1016.279v-19.662c0-20.575-8.959-31.451-25.908-31.451c-8.176,0-15.873,4.976-22.398,10.036
		c-1.729-6.662-5.57-10.036-11.43-10.036c-6.541,0-12.973,5.403-14.654,10.249l-0.035,1.882l0.293,0.183
		c2.27,1.412,2.891,3.09,2.891,7.806v27.162c0,8.797-0.156,22.411-0.504,32.993l-0.021,0.644h0.643
		c4.418,0,8.346-1.175,12.143-2.311c2.563-0.767,4.98-1.49,7.531-1.88c4.109-0.532,4.729-1.552,4.729-4.782v-49.506
		c3.359-2.373,6.234-4.035,11.602-4.035c6.24,0,10.602,5.229,10.602,12.714v42.66c0,2.965,1.387,7.14,4.475,7.14
		c5.396,0,10.434-1.614,14.479-2.908c2.232-0.712,4.158-1.329,5.502-1.444l0.598-0.053l-0.029-0.602
		C761.678,1035.154,761.481,1025.422,761.481,1016.279"/>
	<path fill="#404040" d="M845.127,1026.177c-0.598,0.146-1.76,0.146-2.529,0.146c-3.688,0-5.408-1.916-5.408-3.209
		c0-6.256,0.211-12.45,0.398-17.909c0.145-4.337,0.271-8.079,0.271-11.088c0-19.997-14.525-28.951-28.924-28.951
		c-11.561,0-24.023,5.648-31.832,10.938l-0.264,0.177l-0.008,0.32c-0.064,2.092,0.143,7.252,3.473,9.897
		c1.908,1.513,4.436,1.865,7.615,1.018l0.43-0.19c3.266-1.467,8.732-3.921,14.053-3.921c7.256,0,11.941,4.207,11.941,10.713v1.478
		c-1.953,0.355-5.27,0.953-8.047,1.413c-11.291,2.416-32.313,6.916-32.313,24.771c0,13.242,10.594,25.304,22.225,25.304
		c6.928,0,13.348-5.652,18.77-11.395c2.385,4.593,7.193,11.395,14.725,11.395c12.08,0,16.363-10.578,16.363-19.634l-0.34-1.42
		L845.127,1026.177z M814.008,1018.944c0,2.703-0.406,4.327-1.285,5.357c-2.145,1.808-3.732,2.358-6.801,2.358
		c-4.359,0-8.758-2.487-8.758-8.049v-0.164c0-1.951,1.229-8.391,16.844-10.14V1018.944z"/>
	<path fill="#404040" d="M895.826,998.742l-0.023-0.015c-1.131-0.563-2.682-1.297-4.348-2.085c-3.273-1.546-6.98-3.304-8.842-4.394
		c-3.342-1.991-5.389-3.347-5.389-5.962c0-2.721,2.711-4.55,6.746-4.55c3.549,0,7.443,0.869,10.965,2.448l0.207,0.053
		c2.254,0.166,4.184-0.516,5.725-2.045c2.789-2.762,3.529-7.444,3.316-10.616l-0.018-0.292l-0.238-0.169
		c-5.65-4.061-11.885-5.95-19.621-5.95h-0.168c-14.014,0-29.092,7.811-29.092,24.953c0,8.093,4.322,15.272,11.891,19.713
		c2.244,1.157,4.449,2.277,6.609,3.373c2.195,1.11,4.344,2.204,6.447,3.288c4.467,2.396,5.363,4.118,5.363,6.119
		c0,3.056-2.836,4.878-7.586,4.878c-8.289,0-16.455-4.647-18.762-6.071l-0.402-0.248l-0.348,0.319
		c-2.43,2.26-4.885,6.86-4.885,11.289c0,3.407,2.432,5.381,4.828,6.868l1.414,0.833c4.711,2.786,11.164,6.603,16.648,6.603
		c15.699,0,31.941-10.772,31.941-28.803C908.207,1009.749,904.156,1003.357,895.826,998.742"/>
	<path fill="#404040" d="M201.52,939.25c-12.567,0-24.562,1.345-29.17,2.194l-0.557,0.104l0.05,0.563
		c0.674,7.707,0.674,14.627,0.674,22.64v76.167c0,3.233,1.639,6.667,4.678,6.667c4.594,0,17.562-0.483,20.774-1.371l0.48-0.132
		l-0.024-0.498c-0.334-6.708-0.507-14.39-0.507-22.823v-11.931c4.796,0.401,10.259-0.692,13.933-1.428
		c14.968-3.009,25.426-9.908,31.088-20.504c2.822-5.275,4.312-11.238,4.312-17.243C247.251,943.177,225.272,939.25,201.52,939.25
		 M203.885,991.207c-0.613,0-3.315-0.109-5.966-0.221v-35.457c1.709-0.245,3.71-0.245,4.954-0.245
		c8.965,0,18.131,1.908,18.131,16.033C221.004,988.621,210.279,991.207,203.885,991.207"/>
	<path fill="#404040" d="M800.735,894.85c16.264,0,30.328-8.216,45.227-16.92c16.574-9.688,33.713-19.701,55.873-19.701
		c2.447,0,4.674-1.445,5.67-3.681c0.994-2.232,0.572-4.851-1.066-6.666l-25.23-27.88l17.859-38.854
		c0.932-2.021,0.703-4.399-0.604-6.21c-1.301-1.798-3.494-2.771-5.865-2.516c-5.629,0.582-31.059,4.278-47.785,15.942
		c-0.082-22.566-1.42-33.136-1.439-33.281c-0.02-0.125-0.029-0.249-0.029-0.37c0-6.636-13.162-7.909-13.291-7.917
		c-22.047-1.787-45.131,1.022-70.568,8.6c-22.828,6.797-45.379,16.696-67.184,26.269c-10.168,4.461-20.68,9.081-31.201,13.364
		c-38.607,15.718-77.016,23.357-117.426,23.357c-40.392,0-78.792-7.64-117.393-23.357c-10.404-4.237-20.931-8.857-31.11-13.325
		l-0.152-0.066c-21.793-9.563-44.326-19.452-67.129-26.247c-25.483-7.585-48.564-10.391-70.563-8.599
		c-0.131,0.015-13.296,1.308-13.296,7.922c0,0.124-0.005,0.25-0.023,0.379c-0.021,0.15-1.591,12.055-1.446,38.487
		c-18.431-13.606-54.873-17.702-56.426-17.872c-1.751-0.189-3.467,0.575-4.496,2c-1.029,1.427-1.213,3.298-0.478,4.896l19.017,41.38
		l-26.951,29.783c-1.297,1.433-1.626,3.495-0.842,5.258c0.786,1.766,2.538,2.902,4.473,2.902c23.49,0,41.518,10.534,58.95,20.723
		c15.313,8.946,29.775,17.4,46.286,17.4c21.641,0,32.002-10.301,32.67-20.504c0.052-0.788,0.025-1.558-0.035-2.314
		c0.098-1.153,0.175-2.573,0.221-3.472c0.448-8.558,1.268-21.056,1.557-30.495c0.311-3.278,0.533-6.352,0.539-9.064
		c16.077,4.98,31.483,10.994,45.848,16.835c55.14,22.421,114.516,44.311,180.778,44.311c29.426,0,59.656-4.318,92.416-13.203
		c31.428-8.518,62.32-20.503,88.396-31.107c13.984-5.683,28.938-11.529,44.479-16.412c-0.07,2.131-0.215,4.77-0.377,7.745
		c-0.357,6.526-0.791,14.455-0.633,20.88c-0.168,4.049-0.154,9.698-0.104,10.502c0.385,5.827,3.805,11.331,9.391,15.101
		C783.061,892.776,791.186,894.85,800.735,894.85 M843.281,833.217c0,0,6.08,10.144-24.244,18.599
		c-4.035,1-8.682,2.083-14.064,3.331c-0.174,0.036-0.354,0.07-0.529,0.105c-1.227,0.248-2.482,0.492-3.785,0.735
		c-7.639,1.423-27.76,6.648-27.76,6.648c0.107-12.427,0.945-18.554,1.271-29.593c0.842-0.252,1.676-0.514,2.523-0.757
		c5.717-1.649,11.246-3.062,16.658-4.19c23.096-4.823,38.779-6.07,46.529,0.743C841.256,830.045,842.408,831.477,843.281,833.217
		 M300.058,889.809c-6.271,3.1-13.683,3.574-20.556,3.218c-33.024-1.702-54.613-37.78-100.499-37.78l26.878-30.889l-18.716-43.911
		c0,0,22.34,4.902,29.818,7.42c9.45,3.187,21.787,7.652,25.625,10.932c0.042,3.23,0.111,6.659,0.209,10.275
		c0.019,1.284,0.043,2.601,0.072,3.942c0.049,3.751,0.071,7.871,0.232,11.794c-1.516,1.291-3.202,3.152-4.139,5.812
		c-2.039,5.803-0.355,12.104,3.309,16.874c4.847,6.308,13.62,9.09,20.848,11.601c9.015,3.135,18.296,5.508,27.711,7.088
		c6.832,1.148,16.637,3.09,17.55,11.514C309.003,883.223,304.651,887.535,300.058,889.809 M310.699,868.085
		c-1.835-1.965-4.209-3.499-6.983-4.437c-0.979-0.421-2.062-0.757-3.254-0.984c-13.564-2.59-28.395-6.31-39.376-10.576
		c-6.857-2.667-12.218-5.546-14.816-8.498c-2.808-3.188-3.028-6.524-3.028-6.524c-0.041-0.621-0.011-1.2,0.057-1.734
		c0.189-1.49,0.688-2.598,0.907-3.064c2.171-4.643,7.587-6.637,10.244-7.488c2.599-0.491,5.379-0.763,8.201-0.763
		c0.793,0,1.55,0.023,2.265,0.061c14.41,0.803,29.382,3.487,45.771,8.21c0.817,0.235,1.622,0.489,2.434,0.729
		C313.017,838.631,312.586,846.588,310.699,868.085 M722.914,847.195c-25.961,10.559-56.707,22.49-87.914,30.948
		c-32.402,8.786-62.275,13.055-91.33,13.055c-65.508,0-124.452-21.737-179.211-44.003c-16.354-6.65-34.05-13.545-52.622-18.894
		c-5.21-1.5-10.271-2.789-15.23-3.89c-9.102-2.019-17.828-3.387-26.334-4.108c-4.625-0.55-8.933-0.768-12.768-0.539
		c-3.911,0.231-7.333,0.929-10.088,2.222c-1.929-45.712,0.676-66.133,0.701-66.334c0.042-0.308,0.063-0.623,0.063-0.939
		c0-1.511,5.433-3.447,9.487-3.789c21.544-1.729,44.128,1.026,69.035,8.441c22.572,6.724,45.007,16.571,66.701,26.091l0.134,0.06
		c10.185,4.471,20.715,9.089,31.178,13.352c39.109,15.924,78.031,23.665,118.989,23.665c40.93,0,79.846-7.741,118.963-23.665
		c10.467-4.263,20.982-8.879,31.152-13.342l0.15-0.065c21.686-9.52,44.107-19.366,66.699-26.092
		c24.932-7.429,47.518-10.188,69.043-8.444c3.963,0.337,9.482,2.307,9.482,3.789c0,0.293,0.02,0.606,0.063,0.929
		c0.02,0.147,1.547,11.997,1.404,37.995c-0.041,8.167-0.25,17.715-0.721,28.753c-0.576-0.215-1.127-0.432-1.668-0.638
		c-1.889-0.734-3.617-1.39-5.531-1.682c-3.332-0.8-7.658-0.836-11.926-0.836c-10.234,0.623-22.439,3.188-36.416,6.696
		c-2.914,0.73-5.857,1.505-8.859,2.371C757.002,833.643,739.295,840.539,722.914,847.195 M773.026,874.918
		c-0.682-3.856,0.887-7.229,4.496-8.786c2.154-0.927,7.695-2.541,9.902-2.954c7.924-1.489,47.512-9.336,56.508-17.566
		c5.307-4.833,7.668-13.339,1.547-18.72c-0.471-0.412-0.998-0.812-1.23-1.396c-0.172-0.425-0.164-0.898-0.15-1.359
		c0.277-10.172,0.66-20.351,0.711-30.526c16.219-10.847,41.059-16.191,46.598-16.765c1.115-0.111,2.268,0.381,2.943,1.31
		c0.672,0.932,0.787,2.152,0.309,3.198l-19.938,39.453l26.277,27.156c0.846,0.938,1.063,2.286,0.547,3.434
		c-0.51,1.153-1.658,1.9-2.922,1.9c-22.973,0-36.76,8.934-53.691,18.828c-14.525,8.487-28.246,16.503-43.697,16.503
		c-8.949,0-16.492-1.896-21.809-5.483C776.483,881.156,773.67,878.56,773.026,874.918"/>
	<path fill="#404040" d="M312.521,807.484c-0.599-0.171-0.899-0.254-1.503-0.425c-0.28,5.79-1.658,6.868-4.79,6.021
		c-2.437-0.655-3.67-0.979-6.167-1.613c-2.81-0.712-3.594-1.015-3.636-5.217c-0.066-6.683-0.017-10.087,0.051-16.873
		c2.751,0.664,4.105,1.005,6.781,1.708c3.315,0.871,4.467,3.641,4.453,7.728c0.61,0.168,0.913,0.253,1.52,0.419
		c0.02-6.354,0.066-9.544,0.077-15.896c-0.603-0.174-0.906-0.259-1.511-0.431c-0.329,2.405-0.702,5.617-4.512,4.61
		c-2.674-0.704-4.025-1.05-6.775-1.714c0.053-6.051,0.089-9.078,0.02-15.04c-0.039-3.597,0.69-3.716,3.479-3.016
		c1.741,0.436,2.604,0.662,4.31,1.119c3.608,0.969,5.902,3.204,5.939,9.238c0.6,0.174,0.899,0.262,1.494,0.44
		c-0.095-4.483-0.158-6.727-0.369-11.186c-10.156-2.99-15.465-4.322-26.966-6.461c0.021,0.638,0.031,0.955,0.05,1.599
		c5.552,2.134,5.721,2.164,5.757,9.59c0.076,16.113-0.516,24.754,0.014,40.45c9.338,2.166,13.765,3.344,22.335,5.817
		C312.488,814.017,312.489,811.84,312.521,807.484"/>
	<path fill="#404040" d="M343.425,779.126c-1.393-0.63-2.09-0.942-3.492-1.561c-2.909,6.701-4.505,9.881-7.779,16.415
		c-2.891-9.024-4.322-13.601-7.494-22.762c-3.76-1.456-5.671-2.161-9.58-3.521c-0.003,0.664-0.007,0.994-0.012,1.656
		c4.185,2.369,4.719,3.658,6.439,8.711c2.602,7.757,3.817,11.628,6.291,19.318c-4.517,8.657-6.928,13.122-11.32,22.019
		c1.461,0.502,2.185,0.752,3.626,1.26c3.588-7.569,5.523-11.334,9.244-18.683c3.121,9.979,4.669,14.875,8.074,25.096
		c2.474,0.96,3.7,1.444,6.143,2.415c-4.249-12.718-6.131-18.675-10.014-31.043C337.708,790.731,339.752,787.044,343.425,779.126"/>
	<path fill="#404040" d="M374.892,796.98c4.24,2.083,5.313,7.598,5.57,10.067c2.267,1.082,3.403,1.626,5.701,2.706
		c-0.591-5.908-3.646-12.586-10.914-16.159c-10.386-5.109-12.751,5.412-12.889,18.508c-0.169,15.859,3.677,27.466,13.49,31.543
		c4.735,1.972,8.615,1.503,9.812,1.241c-0.033-1.932-0.052-2.879-0.077-4.735c-1.237,0.863-4.149,2.254-8.317,0.521
		c-9.238-3.848-9.797-20.121-9.746-27.98C367.569,805.465,368.507,793.846,374.892,796.98"/>
	<path fill="#404040" d="M403.035,802.779c-10.968-4.859-13.435,3.986-13.334,18.395c0.108,14.34,3.396,25.674,14.103,29.76
		c10.551,4.028,13.886-4.908,13.708-18.35C417.333,818.953,413.551,807.438,403.035,802.779 M403.727,847.366
		c-7.714-2.953-8.565-15.64-8.647-23.855c-0.084-8.944,0.201-20.625,8.033-17.16c7.679,3.399,8.474,15.604,8.586,23.999
		C411.809,838.557,411.594,850.37,403.727,847.366"/>
	<path fill="#404040" d="M449.963,833.469c-0.038-11.482-12.223-16.279-16.583-17.797c-5.725-1.994-8.479-3.023-13.829-5.13
		c0.012,0.678,0.018,1.011,0.027,1.67c5.073,3.115,5.252,3.418,5.337,10.11c0.188,14.521,0.204,19.03,0.444,35.524
		c2.41,0.811,3.628,1.21,6.096,2.006c-0.103-9.562-0.137-13.218-0.209-20.93c1.408,0.475,2.115,0.71,3.549,1.178
		c4.139,9.003,6.248,13.16,10.459,23.967c2.735,0.79,3.947,1.13,6.585,1.83c-4.252-11.278-6.33-15.5-10.73-24.883
		C445.802,841.678,449.987,840.784,449.963,833.469 M434.484,837.113c-1.315-0.437-1.97-0.658-3.265-1.101
		c-0.041-4.413-0.061-6.587-0.11-11.367c-0.047-4.835-0.102-6.278,3.816-4.931c4.91,1.689,8.728,5.34,8.738,12.259
		C443.674,839.147,438.233,838.354,434.484,837.113"/>
	<path fill="#404040" d="M469.698,825.992c-6.486-1.32-9.675-2.071-15.905-3.773c0.004,0.681,0.006,1.014,0.008,1.676
		c5.179,2.539,5.391,2.862,5.431,9.428c0.089,14.258,0.142,18.126,0.225,34.721c3.438,0.836,5.163,1.229,8.633,1.965
		c11.338,2.414,21.245,0.438,21.229-18.589C489.304,834.373,480.821,828.254,469.698,825.992 M469.812,866.842
		c-4.018-0.828-4.023-2.847-4.04-5.49c-0.084-12.455-0.14-16.293-0.223-28.896c-0.022-3.23,1.357-3.494,4.755-2.81
		c11.013,2.225,12.405,10.267,12.452,20.93C482.811,862.739,480.416,869.024,469.812,866.842"/>
	<path fill="#404040" d="M491.175,831.518c5.543,1.957,5.731,2.284,5.538,8.877c-0.417,14.308-0.504,17.988-1.012,34.785
		c9.452,1.318,14.22,1.805,23.809,2.425c0.285-4.577,0.42-6.602,0.677-10.447c-0.677-0.043-1.017-0.064-1.692-0.105
		c-0.606,5.15-2.307,6.732-5.729,6.444c-2.666-0.223-3.997-0.349-6.65-0.627c-2.99-0.315-3.752-0.69-3.621-4.545
		c0.21-6.143,0.298-8.726,0.479-14.101c2.928,0.324,4.396,0.475,7.34,0.734c3.651,0.325,4.914,2.304,4.765,5.643
		c0.682,0.048,1.022,0.074,1.704,0.122c0.235-5.192,0.346-7.553,0.586-12.807c-0.689-0.046-1.032-0.069-1.721-0.119
		c-0.461,2.037-1.013,4.696-5.219,4.322c-2.952-0.258-4.424-0.407-7.357-0.732c0.16-4.815,0.243-7.188,0.43-12.705
		c0.113-3.327,0.922-3.613,4.001-3.322c1.924,0.184,2.888,0.266,4.817,0.418c4.08,0.325,6.614,2.228,6.371,7.524
		c0.692,0.042,1.04,0.062,1.731,0.101c0.113-3.925,0.172-5.987,0.313-10.664c-11.944-0.638-17.896-1.215-29.513-2.913
		C491.2,830.514,491.192,830.849,491.175,831.518"/>
	<path fill="#404040" d="M543.559,836.833c5.699,0.953,5.875,1.281,5.572,7.974c-0.65,14.529-0.896,18.04-1.607,35.258
		c9.682-0.405,14.537-0.782,24.248-1.889c0.307-4.709,0.453-6.778,0.74-10.701c-0.682,0.079-1.023,0.119-1.705,0.198
		c-0.65,5.302-2.379,7.226-5.85,7.551c-2.703,0.256-4.055,0.369-6.76,0.573c-3.041,0.227-3.822-0.021-3.633-3.944
		c0.299-6.255,0.438-8.852,0.717-14.277c2.975-0.204,4.459-0.32,7.426-0.586c3.682-0.328,4.914,1.433,4.723,4.808
		c0.688-0.072,1.031-0.108,1.713-0.184c0.297-5.254,0.439-7.622,0.738-12.941c-0.688,0.074-1.031,0.111-1.719,0.184
		c-0.482,2.128-1.061,4.888-5.297,5.27c-2.971,0.264-4.457,0.383-7.436,0.587c0.25-4.862,0.375-7.254,0.641-12.874
		c0.16-3.388,0.986-3.833,4.082-4.092c1.934-0.162,2.898-0.246,4.824-0.435c4.072-0.393,6.559,1.104,6.268,6.485
		c0.686-0.082,1.029-0.119,1.715-0.201c0.145-3.975,0.219-6.072,0.381-10.857c-11.74,1.434-17.736,1.916-29.715,2.365
		C543.6,835.807,543.586,836.151,543.559,836.833"/>
	<path fill="#404040" d="M596.373,831.966c5.393-1.037,6.373,3.754,6.566,5.952c2.822-0.599,4.225-0.913,7.01-1.571
		c-0.436-5.328-3.652-10.065-12.869-8.266c-13.176,2.579-17.283,14.784-17.939,26.077c-0.791,13.673,3.492,23.737,15.957,21.459
		c6.02-1.101,11.025-4.389,12.566-5.519c0.076-2.021,0.113-2.984,0.184-4.839c-1.617,1.728-5.416,5.223-10.695,6.225
		c-11.707,2.225-11.641-12.977-11.252-19.836C586.258,845.337,588.254,833.523,596.373,831.966"/>
	<path fill="#404040" d="M629.168,823.774c4.953-1.552,6.021,3.149,6.303,5.318c2.529-0.868,3.793-1.313,6.326-2.215
		c-0.639-5.268-3.705-9.748-12.117-7.071c-12.021,3.827-15.768,16.498-16.129,27.8c-0.438,13.688,4.039,23.378,16.414,19.81
		c5.973-1.721,9.975-5.278,11.303-6.519c-0.002-2.056-0.006-3.028-0.014-4.902c-1.375,1.854-4.205,5.516-9.414,7.063
		c-11.551,3.432-11.979-11.768-11.842-18.624C620.127,838.124,621.707,826.108,629.168,823.774"/>
	<path fill="#404040" d="M668.668,841.972c0.111,6.566-2.893,8.438-6.291,9.727c-1.854,0.707-2.781,1.057-4.631,1.741
		c-3.6,1.337-3.582,1.058-3.633-4.287c-0.15-16.009-0.496-19.146-0.621-37.64c-4.406,2.375-6.613,3.552-11.023,5.852
		c0.002,0.709,0.004,1.059,0.008,1.743c5.107-0.792,5.258-0.515,5.334,5.247c0.201,14.847,0.467,18.149,0.449,36.318
		c8.684-3.006,13.061-4.662,21.857-8.099c0.061-4.955,0.066-7.119,0.059-11.201C669.573,841.611,669.27,841.732,668.668,841.972"/>
	<path fill="#404040" d="M697.151,830.396c-0.148,5.596-1.631,8.045-4.74,9.323c-2.426,0.995-3.639,1.492-6.059,2.479
		c-2.725,1.111-3.418,1.086-3.496-3.033c-0.125-6.557-0.238-9.241-0.475-14.721c2.604-1.066,3.906-1.601,6.516-2.675
		c3.234-1.334,4.531,0.08,4.684,3.53c0.607-0.253,0.91-0.377,1.518-0.628c-0.246-5.362-0.402-7.729-0.695-12.889
		c-0.6,0.245-0.898,0.367-1.5,0.613c-0.209,2.162-0.439,4.981-4.146,6.506c-2.604,1.068-3.902,1.603-6.498,2.663
		c-0.217-4.862-0.338-7.205-0.535-12.648c-0.119-3.282,0.564-3.93,3.211-4.977c1.648-0.652,2.475-0.98,4.129-1.632
		c3.494-1.384,5.775-0.605,6.051,4.517c0.596-0.24,0.896-0.366,1.494-0.605c-0.271-3.755-0.406-5.704-0.635-10.112
		c-10.139,3.935-15.188,5.935-25.271,9.81c0.012,0.696,0.02,1.035,0.031,1.71c4.871-0.73,5.021-0.466,5.242,6.113
		c0.486,14.283,0.938,17.839,0.99,36.133c8.676-3.462,13.033-5.272,21.781-8.858c0.021-4.98,0.002-7.16-0.07-11.248
		C698.065,830.019,697.76,830.146,697.151,830.396"/>
	<path fill="#404040" d="M707.992,800.681c-0.277-4.186,1.898-7.32,4.723-8.402c4.158-1.591,8.256-0.933,9.766-0.641
		c-0.143-1.908-0.213-2.896-0.342-4.965c-1.408,0.163-4.928,0.511-8.596,1.887c-7.496,2.813-11.748,9.404-11.318,16.303
		c0.822,13.23,18.518,3.925,19.064,15.122c0.311,6.291-3.096,10.084-6.561,11.484c-4.395,1.781-8.852,0.266-10.586-0.374
		c0.066,2.407,0.094,3.674,0.129,6.376c1.16-0.053,5.406,0.008,9.643-1.706c7.59-3.075,13.848-10.886,13.279-20.4
		C726.344,801.132,708.637,810.444,707.992,800.681"/>
	<path fill="#404040" d="M726.067,785.591c0.043,0.606,0.061,0.906,0.104,1.495c5.254-1.03,5.414-0.847,5.881,4.266
		c1.205,13.166,2.111,16.892,2.447,35.353c2.426-0.922,3.639-1.374,6.064-2.268c-0.451-23.35-2-25.553-3.357-44.41
		C732.744,782.208,730.518,783.321,726.067,785.591"/>
	<path fill="#404040" d="M762.824,773.347c-4.084,1.211-8.574,1.841-12.637,3.138c0.049,0.581,0.074,0.867,0.125,1.436
		c2.195-0.311,4.201-0.834,4.453,1.619c0.043,0.428-0.33,2.727-0.545,3.833c-2.906,14.241-4.078,18.868-8.096,39.046
		c1.369-0.487,2.051-0.728,3.418-1.2c1.508-7.684,2.162-10.868,3.387-16.819c5.6-1.91,8.4-2.822,14.004-4.516
		c2.092,4.905,3.102,7.578,4.883,14.275c2.283-0.643,3.424-0.952,5.705-1.545C769.5,791.64,768.178,787.795,762.824,773.347
		 M753.612,801.105c1.693-8.031,3.572-13.242,5.125-20.831c3.088,6.398,4.85,10.416,7,16.913
		C760.883,798.671,758.459,799.459,753.612,801.105"/>
	<path fill="#404040" d="M779.959,776.361c1.516,12.251,2.643,16.3,2.934,34.913c8.73-2.084,13.084-2.941,21.738-4.107
		c0.047-5.148,0.006-7.419-0.143-11.625c-0.613,0.092-0.92,0.137-1.529,0.234c-0.035,5.681-1.525,7.809-4.635,8.343
		c-2.42,0.415-3.633,0.644-6.059,1.126c-2.73,0.548-3.414,0.39-3.611-3.801c-0.314-6.675-0.59-9.397-1.178-14.66
		c2.66-0.617,3.992-0.909,6.656-1.457c3.303-0.679,4.732,0.953,5.025,4.421c0.617-0.111,0.928-0.167,1.541-0.273
		c-0.457-5.404-0.76-7.731-1.344-12.479c-0.619,0.116-0.93,0.175-1.547,0.294c-0.102,1.926-0.188,4.499-3.99,5.288
		c-2.666,0.553-3.996,0.847-6.66,1.469c-0.549-4.573-0.861-6.68-1.406-11.275c-0.334-2.772,0.363-3.225,3.121-3.825
		c1.723-0.376,2.586-0.56,4.313-0.908c3.652-0.745,6.109,0.133,6.658,4.655c0.619-0.113,0.932-0.168,1.551-0.279
		c-0.471-3.336-0.707-4.998-1.113-8.601c-10.67,1.867-15.953,3.063-26.436,5.789c0.051,0.556,0.078,0.827,0.135,1.372
		C779.11,770.587,779.26,770.716,779.959,776.361"/>
	<path fill="#404040" d="M567.123,606.213c-1.076-2.26-6.236-12.199-7.74-14.292c-0.674-0.937-1.258-1.941-1.98-2.844
		c-2.551-3.193-2.131-6.542-1.809-7.462c1.066-3.06,2.791-8.194,5.838-20.356c1.479-5.896,1.654-9.004,1.777-10.058
		c0.527-4.504,0.859-7.339,0.412-11.146c-0.277-2.331-0.842-6.747-3.627-11.634c-2.889-5.08-6.553-7.816-7.328-8.38
		c-1.01-0.735-2.818-2.032-5.518-3.011c-0.73-0.265-4.457-1.569-9.472-1.14c-6.464,0.553-10.873,3.625-12.519,4.801
		c-1.019,0.728-4.925,3.63-7.904,8.95c-2.889,5.148-3.353,9.783-3.626,12.854c-0.327,3.659-0.759,8.507,1.567,13.922
		c1.772,4.124,4.48,7.037,5.434,8.046c1.362,1.438,2.648,2.509,3.624,3.253c0.622-1.047,1.616-2.505,3.114-3.99
		c3.273-3.239,4.962-3.796,7.926-3.917c1.158-0.048,2.924,0.447,4.053,0.968c0.186,0.086,0.344,0.291,0.524,0.432
		c0.945-1.912,1.203-5.992,1.203-7.974c0-2.849-0.127-4.574-0.811-6.097c-0.322-0.715-0.774-1.416-0.779-1.422
		c-0.532-0.82-1.131-1.743-2.115-2.41c-0.451-0.304-0.776-0.418-1.119-0.54c-0.563-0.201-1.325-0.473-1.957-1.374
		c-0.956-1.372-0.764-2.861-0.692-3.425c0.304-2.367,2.013-3.771,2.666-4.225c0.031-0.021,0.052-0.032,0.083-0.053
		c0.793-0.445,2.939-1.427,5.534-0.739c2.219,0.58,3.438,2.037,3.893,2.586c1.563,1.864,1.916,3.87,2.127,5.604
		c0.262,2.174,0.695,8.002-0.943,15.129l-0.104,0.46c-0.301,1.35-0.674,3.017-1.709,4.797c-0.445,0.765-0.795,1.288-1.08,1.709
		c-0.201,0.296-0.41,0.474-0.441,0.681c-0.676,4.288-0.623,31.463-0.346,35.857c0.102,1.563,0.246,18.466,0.412,22.21
		c0.033,0.762,0.105,3.258-1.32,4.24c-0.943,0.648-2.174,0.528-2.529,0.489c-1.649-0.18-2.778-1.193-3.21-1.593
		c-6.196-5.724-9.043-14.643-9.043-14.643c-1.627-5.101-3.477-12.365-4.292-21.461c-6.372,8.042-11.627,17.992-14.783,29.808
		c-2.705,10.141-1.272,19.896,0.817,28.797c0.004,0.021,0.627,2.802,1.22,5.333c1.704-0.438,3.585-0.542,5.338-0.27
		c0.073-0.108,0.136-0.219,0.23-0.32c0.024-0.026,0.056-0.058,0.088-0.087c0.808-0.749,2.034-2.016,3.332-3.355l0.032-0.034
		c2.449-2.529,5.223-5.391,7.118-6.854c0.651-0.496,1.615-0.479,2.244,0.028c0.645,0.523,0.839,1.437,0.459,2.172
		c-0.116,0.223-0.598,0.836-1.208,1.611c-0.336,0.423-0.693,0.881-1.021,1.31c0.096-0.088,0.192-0.178,0.293-0.271
		c0.856-0.79,1.742-1.604,2.022-1.793c0.549-0.361,1.305-0.308,1.793,0.125l0.086,0.079c0.458,0.48,0.536,1.203,0.187,1.764
		c-5.613,8.944-7.862,11.948-8.952,12.958c0.008,0.243,0.011,0.466,0.011,0.633c-0.003,2.016-0.565,3.585-0.936,4.623
		c-0.537,1.503-1.154,2.564-1.805,3.691c-0.4,0.69-0.854,1.367-1.292,2.021c-1.193,1.782-2.321,3.466-2.612,5.599
		c-0.25,1.798,0.235,3.502,0.743,5.307c0.221,0.767,0.445,1.561,0.605,2.354c0.286,1.41,0.519,3.566,0.563,6.036
		c0.917,0.397,1.899,0.788,2.949,1.165c0.787,0.277,1.547,0.524,2.289,0.743c1.467-2.865,3.247-5.46,5.204-7.404
		c2.963-2.942,3.04-5.128,2.506-9.417c-0.118-0.949-0.329-1.856-0.537-2.737c-0.509-2.158-1.031-4.392-0.104-7.074
		c0.53-1.539,1.435-2.926,2.462-4.289c1.168-1.55,3.095-3.055,3.706-3.516c0.064-1.068,0.571-4.547,1.09-7.45
		c1.177-6.611,1.722-7.519,3.265-7.632l0.131-0.006c1.539,0,1.998,0.612,3.791,7.628c0.576,2.24,1.404,5.729,1.604,6.956
		c0.529,0.971,1.061,1.943,1.602,2.922c0.344,0.625,0.689,1.247,1.035,1.863c0.979,1.798,1.232,3.312,1.301,4.29
		c0.094,1.399,0.029,2.902-0.855,5.649c-0.357,1.101-0.693,2.144-0.793,3.229c-0.238,2.521,0.65,5.47,2.496,8.299
		c0.422,0.651,0.926,1.318,1.588,2.104c2.172,2.578,4.23,5.206,5.811,8.212c0.568-0.099,1.193-0.241,1.449-0.298
		c0.504-0.113,1.359-0.367,2.166-0.64l0.061-0.01c-0.023-3.626,0.525-7.019,0.91-8.927c0.164-0.796,0.389-1.59,0.605-2.36
		c0.514-1.802,0.994-3.504,0.748-5.304c-0.293-2.13-1.42-3.815-2.615-5.598c-0.438-0.653-0.891-1.331-1.291-2.021
		c-0.652-1.125-1.375-2.148-1.803-3.688c-0.748-2.687-0.496-4.961,0.012-6.688c-0.955-1.182-2.773-4.223-6.84-12.074
		c-0.211-0.404-0.107-0.899,0.248-1.188c0.184-0.145,0.404-0.219,0.621-0.219s0.43,0.071,0.609,0.209
		c0.773,0.607,2.063,1.903,3.455,3.413c-1.174-2.109-2.215-4.041-2.541-4.821c-0.232-0.561-0.041-1.203,0.461-1.547
		c0.225-0.156,0.484-0.23,0.746-0.23c0.318,0,0.635,0.113,0.881,0.338c1.754,1.599,4.268,4.66,6.488,7.36
		c0.842,1.026,1.645,2.003,2.314,2.783c1.307-0.175,2.703-0.103,4.09,0.201c0.002-0.048,0.002-0.079,0.004-0.13
		c0.004-0.237,0.426-1.584,0.961-3.175C570.813,647.242,577.451,627.888,567.123,606.213 M529.927,558.834
		c-0.371,1.218-1.498,2.063-2.737,2.063c-0.554,0-1.101-0.165-1.578-0.482c-3.614-2.375-5.965-6.171-6.284-10.15
		c-0.17-2.108,0.381-4.111,1.637-5.952c0.176-0.258,0.364-0.512,0.551-0.768c0.521-0.701,1.01-1.362,1.016-1.892
		c0.017-1.548,1.263-2.762,2.842-2.762c0.789,0,1.555,0.312,2.099,0.854c0.535,0.533,0.826,1.251,0.817,2.023
		c-0.012,1.255-0.405,2.313-0.905,3.233c1.609,0.944,2.973,2.852,2.85,5.497c-0.063,1.37-0.978,4.31-1.292,5.29
		C529.875,556.512,530.274,557.701,529.927,558.834 M533.507,640.324c-0.789,0.822-1.822,1.257-2.989,1.257
		c-0.237,0-0.475-0.016-0.709-0.053c-1.537-0.217-2.543-1.117-3.323-2.25c-2.704-3.909,3.854-12.796,4.781-13.618
		c0.354-0.317,0.823-0.49,1.292-0.49c0.203,0,0.403,0.032,0.594,0.099c0.653,0.212,1.143,0.759,1.279,1.42
		C535.23,630.586,536.172,637.541,533.507,640.324 M544.906,641.187c-0.76,0.699-1.764,1.086-2.822,1.086
		c-0.17,0-0.35-0.014-0.527-0.032c-1.433-0.17-2.827-1.014-3.631-2.207c-1.993-2.934-0.898-5.876-0.023-8.238
		c0.398-1.076,0.773-2.082,0.877-3.01c0.086-0.758,0.701-1.345,1.463-1.403c1.26-0.1,2.006,0.899,2.368,1.382
		c0.08,0.113,0.139,0.194,0.197,0.256c0.867,0.911,3.158,4.294,3.506,5.99C546.729,637.064,546.457,639.771,544.906,641.187
		 M555.744,640.57c-0.162,0.048-0.322,0.084-0.49,0.114c-1.91,0.331-3.918-0.543-5-2.181c-1.379-2.093-1.85-4.449-2.264-6.534
		c-0.357-1.794-0.695-3.484-1.525-4.918c-0.428-0.738-0.275-1.691,0.359-2.259c0.635-0.574,1.607-0.628,2.313-0.142
		c1.598,1.112,9.598,6.932,9.512,12.191C558.619,638.613,557.479,640.076,555.744,640.57"/>
	<path fill="#404040" d="M895.549,643.915c-4.799-6.233-14.742-8.385-21.369-4.12c-1.104-5.164-8.193-40.82-9.875-54.357
		c41.727-4.868-25.395-69.422-27.389-26.673c-12.25,0.082-43.906-1.661-51.463-2.006c8.189-18.332-13.977-28.447-27.416-16.481
		c-3.082-2.265-19.516-13.654-29.004-20.311c-0.006-16.7-0.018-33.641-0.033-50.068c29.205,3.66,55.701,0.714,82.902-12.35
		c9.246,15.706,27.084,7.459,24.018-7.136c15.963-13.307,42.262-36.099,51.045-55.069c3.055-6.639-4.135-11.283-9.719-7.229
		c2.402-4.356,2.809-11.561-4.361-12.373c1.414-4.861-2.176-13.955-8.338-11.129c1.217-4.538-3.984-10.514-8.498-8.801
		c1.221-2.429-1.377-17.742-9.807-12.946c0.223-5.082-6.582-13.983-12.725-11.125c0.244-4.884-1.084-10.957-9.305-11.877
		c-4.83,0-6.672,7.276-8.801,15.698c-4.189,15.81-13.469,30.953-23.357,44.027c-9.68-4.9-25.984,8.828-18.152,17.764
		c-7.295,6.443-26.359,11.275-44.969,12.559c-0.021-30.986-0.061-47.365,0.055-57.585h-93.842
		c13.301-9.558,57.623-41.515,70.316-50.236c0.385,0.677,8.08,11.383,11.91,16.347c3.527-2.434,10.125-6.889,12.699-8.766
		c1.682,2.349,4.072,5.811,6.443,9.311c-2.518,1.773-10.104,7.116-12.496,8.802c3.615,5.009,19.76,27.37,23.377,32.383
		c4.17-2.937,11.234-7.914,15.406-10.851c-1.68-2.326-9.838-13.63-11.686-16.186l10.357-7.295
		c1.895,2.625,9.957,13.795,11.686,16.184c4.814-3.392,17.379-12.24,22.195-15.635c-3.605-5.014-13.133-18.593-18.572-25.569
		c-2.283,1.61-9.596,6.759-11.992,8.45l-8.393-11.628c4.402-3.153,8.225-5.799,12.172-8.401c-1.699-2.357-6.818-9.447-8.594-11.908
		c4.99-3.508,9.35-6.58,12.244-8.625c2.441,3.699,5.898,8.092,9.008,11.49c4.035-2.852,10.826-7.646,12.91-9.109
		c2.121,2.963,5.285,7.368,8.375,11.609c-2.561,1.801-10.82,7.619-13.236,9.32c3.561,4.932,14.936,20.69,18.498,25.622
		c4.881-3.439,18.443-12.989,23.324-16.429c-1.662-2.32-9.793-13.676-11.621-16.228l8.482-5.977
		c2.088,2.812,10.25,13.796,12.174,16.386l16.025-11.536c-3.719-5.151-19.785-27.41-23.518-32.581
		c-2.379,1.676-12.207,8.596-14.768,10.401l-6.68-9.255c2.619-1.848,12.334-8.689,14.766-10.402
		c-1.678-2.324-9.932-13.756-11.773-16.313c2.406-1.769,6.85-3.871,5.705-7.623c-0.66-3.011-10.684-15.816-13.676-16.752
		c-1.861-0.773-3.826,0.5-3.881,0.606L627.553,325.303c-1.246-7.114-4.229-25.083-6.164-37.26h38.029c2.775,0,5.031-2.23,5.031-4.97
		c0.672-4.394-2.41-7.491-6.871-6.825v-3.542c7.412-0.565,7.408-11.889,0-12.452v-30.479c-0.961,1.694-3.178,5.63-4.223,7.45
		c-0.379-4.471-1.355-9.839-2.494-13.893c7.762,1.606,9.152-11.595,1.463-11.794c-1.414,0.021-6.563-0.015-7.887,0.001v-2.859
		c8.264,0.112,8.258-12.699,0-12.584v-24.117c-2.617,4.365-4.516,8.311-7.281,13.444c-1.629-7.255-4.146-14.142-7.5-20.55
		c3.504-0.226,5.053-3.652,4.615-6.783c0.098-5.897-7.307-5-11.297-4.957c-0.012,0-0.023,0-0.035,0
		c6.885-0.576,7.477-10.961,0.721-12.293c-0.041-0.529-0.066-21.392-0.066-21.392c-2.318,4.08-4.34,7.972-6.74,12.513
		c-6.965-14.056-35.227-40.84-61.586-45.465c-0.43-6.428-4.199-11.04-6.789-11.854V73.9V57.652h10.891V44.211h-10.891V32.416
		h-16.424v11.795h-10.89v13.441h10.89V73.9v0.742c-2.503,0.994-5.983,4.832-6.72,11.488c-21.823,4.15-44.081,20.289-61.509,46.111
		c-2.331-4.359-4.004-7.768-6.265-11.539v20.001c-7.173,0.817-7.02,11.815,0.174,12.429c-0.055,0-5.248,0-5.447,0
		c-1.63,0-5.89,1.018-6.023,4.958c-0.458,3.196,1.196,6.694,4.802,6.8c-0.733,1.847-5.604,13.193-7.665,20.588
		c-2.782-5.162-4.675-9.117-7.304-13.504v24.225c-9.559-1.558-9.554,13.938,0,12.379v2.961c-1.291-0.021-6.494,0.016-7.886,0
		c-7.694,0.198-6.303,13.4,1.46,11.793c-1.15,4.105-2.129,9.51-2.504,14.031c-0.813-1.681-3.327-5.996-4.21-7.581v30.479
		c-9.199-1.195-9.197,13.632,0,12.434v3.553c-4.462-0.663-7.549,2.43-6.872,6.825c0,2.739,2.257,4.97,5.031,4.97h37.346
		c-1.671,11.785-4.381,29.945-5.664,37.26l-174.78-123.368c-0.056-0.106-2.021-1.38-3.884-0.606
		c-2.992,0.936-13.015,13.741-13.673,16.752c-1.13,3.75,3.277,5.857,5.708,7.623c-1.899,2.629-10.055,13.924-11.776,16.313
		c2.378,1.676,12.204,8.596,14.765,10.402l-6.682,9.255c-2.62-1.846-12.331-8.688-14.766-10.401
		c-3.733,5.174-19.796,27.425-23.52,32.581l16.026,11.536c1.878-2.525,10.137-13.643,12.174-16.386l8.483,5.977
		c-1.879,2.624-9.911,13.841-11.621,16.228c4.883,3.439,18.441,12.989,23.322,16.429c3.561-4.929,14.937-20.689,18.498-25.622
		c-2.373-1.67-10.721-7.551-13.234-9.32c3.09-4.241,6.252-8.646,8.374-11.609c2.069,1.455,8.888,6.268,12.913,9.109
		c3.106-3.4,6.565-7.789,9.005-11.49c2.897,2.045,7.252,5.117,12.244,8.625c-1.801,2.498-6.87,9.518-8.595,11.908
		c3.949,2.603,7.772,5.248,12.175,8.401l-8.393,11.628c-2.438-1.719-9.675-6.816-11.994-8.45
		c-5.455,6.997-14.948,20.529-18.571,25.569c4.817,3.395,17.379,12.243,22.198,15.635c1.679-2.326,9.839-13.629,11.683-16.184
		l10.357,7.295c-1.896,2.627-9.958,13.797-11.685,16.186c4.169,2.937,11.235,7.914,15.406,10.851
		c3.613-5.009,19.759-27.372,23.375-32.383c-2.354-1.659-10.02-7.059-12.493-8.802c2.367-3.5,3.788-5.557,5.471-7.905
		c2.574,1.876,8.994,6.064,12.521,8.497c3.859-5.013,12.63-16.746,13.059-17.483l69.428,48.781c0.339,0.232,1.576,1.035,1.724,1.455
		h-94.677c0.114,10.155,0.078,26.429,0.053,57.176c-18.98-1.202-40.768-5.657-48.119-12.149c7.834-8.936-8.472-22.661-18.152-17.764
		c-9.894-13.082-19.164-28.209-23.356-44.027c-2.13-8.422-3.971-15.698-8.802-15.698c-8.217,0.925-9.548,6.989-9.302,11.877
		c-6.151-2.851-12.94,6.032-12.728,11.125c-8.429-4.802-11.026,10.524-9.806,12.946c-4.515-1.713-9.712,4.261-8.499,8.801
		c-6.161-2.823-9.749,6.267-8.334,11.129c-7.176,0.82-6.763,8.012-4.364,12.373c-5.577-4.037-12.781,0.574-9.717,7.229
		c8.815,19.004,35.045,41.726,51.043,55.069c-3.063,14.596,14.772,22.841,24.019,7.136c28.198,13.569,55.702,16.208,86.054,11.842
		c-0.018,16.577-0.03,33.683-0.033,50.544c-9.482,6.653-25.965,18.076-29.052,20.343c-13.451-11.977-35.602-1.831-27.415,16.481
		c-7.582,0.347-39.191,2.086-51.461,2.006c-2.001-42.749-69.115,21.807-27.39,26.673c-1.682,13.537-8.77,49.193-9.876,54.357
		c-11.035-7.219-27.795,3.855-24.403,16.809c2.599,10.576,25.398,33.232,36.896,33.242c9.398,0.448,18.712-11.631,14.337-20.537
		c2.853-0.929,12.403-2.5,12.874-2.598c21.775,37.066,104.441,76.145,142.356,99.74c2.972,1.182,7.929,2.212,9.597-1.432
		c4.149-5.084,12.854-11.513,7.037-18.665c4.176-2.112,6.914-8.406,5.131-11.968c5.365-2.677,5.615-6.838,2.939-11.815
		c1.974-1.503,4.479-5.132,1.935-7.666c-1.104-1.307-2.35-3.085-4.222-3.254c-9.762-1.519-19.447-3.717-28.813-5.842
		c-16.469-3.737-33.493-7.6-51.437-7.892c-2.864-1.304-6.647-3.511-11.147-6.452l0.021-0.074
		c-7.089-4.413-14.893-10.318-24.529-17.741c18.623,8.468,52.461-35.543,22.312-39.725l1.028-6.451
		c7.731,4.606,26.708,2.867,36.658-1.707c20.618,68.649,57.631,78.598,185.475,143.507c128.1-65.136,164.534-74.493,185.479-143.493
		c9.891,4.568,28.953,6.288,36.615,1.693l1.027,6.451c-30.148,4.182,3.686,48.19,22.313,39.725
		c-9.639,7.423-17.439,13.328-24.533,17.741l0.025,0.074c-4.5,2.941-8.285,5.148-11.148,6.452
		c-17.943,0.292-34.967,4.154-51.436,7.892c-9.365,2.125-19.051,4.323-28.813,5.842c-1.861,0.163-3.139,1.95-4.223,3.254
		c-2.504,2.518-0.086,6.188,1.936,7.666c-2.68,4.985-2.42,9.141,2.939,11.815c-1.781,3.563,0.955,9.853,5.129,11.968
		c-5.766,7.142,2.848,13.595,7.041,18.665c1.666,3.644,6.619,2.616,9.594,1.428c37.883-23.576,120.557-62.647,142.357-99.736
		c0.471,0.098,10.02,1.669,12.875,2.598c-4.461,9.168,5.334,21.475,15.033,20.52C876.436,686.899,908.949,660.261,895.549,643.915
		 M252.651,322.537c4.067-0.893,6.351,14.742,8.29,19.842c5.139,13.496,13.604,28.136,22.304,39.104
		C281.425,402.402,227.58,326.014,252.651,322.537 M240.628,333.852c2.165-1.049,1.831,0.092,3.987,6.715
		c6.606,18.244,25.781,44.51,31.743,48.623c0.603,1.969-2.332,6.262-3.513,6.215c-14.31-8.113-30.939-34.884-32.69-37.8
		C237.454,353.482,226.615,340.639,240.628,333.852 M226.726,345.031c1.074-0.345,2.981-1.363,5.138,3.114
		c2.609,5.419,12.449,22.522,21.37,32.991c4.099,4.809,10.562,12.971,14.604,16.363c3.73,3.131,2.917,4.053,1.373,6.52
		c-3.598,4.11-5.992,0.049-8.385-1.773c-10.8-10.278-20.768-15.93-36.658-44.28C221.231,352.724,226.015,344.58,226.726,345.031
		 M220.312,358.412c20.348,30.111,19.612,31.09,43.902,51.339c2.644,1.995-2.132,7.003-5.929,4.376
		c-4.98-3.254-27.755-25.201-37.566-40.586C215.623,365.549,213.403,359.355,220.312,358.412 M209.728,366.76
		c3.108-0.65,5.225,4.245,6.456,6.097c16.817,25.286,20.7,27.198,40.735,46.901c1.214,16.959-32.391-20.711-34.353-23.585
		c-0.728-0.546-9.854-11.192-14.641-19.138C205.804,373.513,206.477,369.52,209.728,366.76 M202.459,379.177
		c2.814-1.637,2.838-0.459,3.364,0.241c11.557,15.365,20.478,26.842,34.682,40.224c1.207,1.135,13.145,10.237,10.745,12.43
		c-2.091,3.628-6.055,0.995-7.944-0.284C234.592,424.666,195.317,390.902,202.459,379.177 M243.192,446.773
		c-9.685-3.051-55.467-47.764-49.632-57.073c1.266-1.299,5.112,0.103,6.424,1.813c8.522,11.108,16.02,21.024,26.62,30.575
		C232.154,428.648,252.084,438.542,243.192,446.773 M262.147,454.418c-9.718,15.635-21.192,2.731-15.3-5.885
		c6.212-9.078,39.772-64.431,39.772-64.431c3.004-4.265,16.271,3.103,14.013,9.292l-34.215,53.524
		C266.418,446.919,263.046,452.975,262.147,454.418 M351.016,465.051c-29.072,4.482-57.614,1.371-83.45-11.23
		c-1.01,0.641,32.523-51.347,33.37-52.768c10.147,8.209,35.568,11.844,50.479,12.799
		C351.647,428.482,350.35,455.133,351.016,465.051 M351.329,554.354c0.037,15.048-0.018,28.806,0.104,42.281
		c-7.563,6.085-22.226,5.105-29.956,2.735l1.799-14.26c15.207,6.128,29.289-11.717,18.792-24.762
		C341.435,560.516,346.834,557.086,351.329,554.354 M350.883,526.51l-0.2,20.731c0,0.57-7.653,5.172-12.118,8.335
		c-3.902-4.791-7.646-8.126-12.319-12.076C333.375,538.37,343.412,531.868,350.883,526.51 M304.35,540.074
		c13.341-3.947,30.457,16.974,35.988,26.447c2.825,8.746-3.198,15.191-10.811,15.191c-8.543,1.1-23.029-17.236-28.414-22.612
		C296.973,552.936,295.891,542.552,304.35,540.074 M244.33,633.56c-0.545,1.661-0.933,3.328-1.249,5l-8.786,1.281
		c1.373-10.687,5.823-35.442,9.465-54.475l51.293-1.537c-0.643,3.953-1.381,15.153-1.674,15.212
		C260.062,605.552,248.317,621.406,244.33,633.56 M289.873,616.803c-3.348-2.093-9.591-5.576-5.528-10.924
		c3.085-0.907,5.549-1.924,9.089-2.616c-0.4,2.226-2.037,15.95-2.775,20.029c-0.016,0.008-0.026,0.011-0.044,0.016
		C291.412,619.722,290.753,617.842,289.873,616.803 M270.153,628.761c-6.251-0.268-11.492,0.204-13.211-7.447
		c1.692-1.792,3.612-3.514,5.796-5.143c0.598,13.625,15.169,0.737,13.612,13.185c-0.589,0.421-1.446,1.08-2.398,1.995
		C273.005,630.287,271.776,629.279,270.153,628.761 M271.216,634.581c-1.142,1.59-2.277,3.855-2.847,5.878
		c-5.729-6.389-14.306,2.532-20.322-3.203c0.96-3.763,2.571-7.448,4.918-10.95C259.052,634.284,265.981,629.411,271.216,634.581
		 M278.44,611.239c2.537,8.302,9.507,4.456,8.16,13.381c-1.706,0.598-3.737,1.381-5.819,2.353
		c0.299-13.688-14.754-2.871-14.647-13.13c3.66-2.305,7.891-4.396,12.802-6.188C278.257,609.369,278.351,610.7,278.44,611.239
		 M289.754,628.341c-0.422,2.364-0.807,4.547-1.128,6.415c-4.76,0.383-10.077,1.048-13.621,1.521
		C276.795,634.152,280.834,631.295,289.754,628.341 M247.21,641.639c6.987,5.641,15.893-3.742,20.306,4.783
		c0.047,2.184,0.15,3.035,0.508,4.599c-7.664-5.283-13.335,4.847-20.924-0.802C246.837,647.375,246.845,644.502,247.21,641.639
		 M250.773,664.301c-1.158-2.664-2.081-5.452-2.741-8.31c7.985,4.235,12.547-4.762,21.006-1.417
		c0.906,2.343,2.097,4.299,3.284,5.869C260.121,657.674,258.055,666.939,250.773,664.301 M258.61,676.756
		c-1.64-1.905-3.197-3.94-4.569-6.171c10.612-2.053,9.186-8.2,21.834-6.242c1.456,1.238,2.945,2.839,5.166,4.54
		C264.165,668.116,268.044,680.087,258.61,676.756 M280.994,662.899l7.321-1.334c0.563,4.463,1.475,7.482,4.09,10.294
		C289.423,669.646,281.206,663.145,280.994,662.899 M263.307,681.561c3.237,0.051,7.923-4.186,9.007-6.628
		c0.708-2.943,14.783-4.087,19.17,1.975c-12.088-0.37-11.609,7.848-22.789,9.235C267.071,684.822,265.114,683.185,263.307,681.561
		 M311.302,716.173c6.911-8.117,9.069-3.636,15.598-6.377c-1.127,5.761-10.139,6.583-12.914,8.063
		C313.094,717.294,312.19,716.744,311.302,716.173 M409.892,716.108l1.433,1.694c-0.819,0.599-1.419,1.192-1.873,1.771
		l-37.608-1.822l36.689,6.247c2.251,4.88,2.116,4.555-2.601,7.734l-37.384-5.223l37.199,9.907c1.571,3.933-5.336,6.84-6.386,8.803
		l-33.47-12.569l36.01,18.046c0.979,2.474-0.872,3.928-2.64,5.949l-32.923-16.933l29.564,20.341
		c-0.934,1.008-1.756,2.016-2.242,3.021c-14.876-5.324-28.107-15.853-42.41-23.001c5.004-5.884,18.126-23.479,16.275-32.761
		C381.51,710.263,395.398,713.852,409.892,716.108 M362.711,706.307c2.177,8.993-10.896,25.511-15.981,31.163
		c-1.805-1.04-3.608-2.074-5.407-3.117c5.21-5.447,17.738-20.559,16.727-28.884C359.603,705.749,361.163,706,362.711,706.307
		 M352.623,704.521c1.578,7.481-11.294,21.707-16.479,26.828c-2.114-1.244-4.193-2.534-6.297-3.793
		c5.812-3.916,17.866-15.334,16.588-23.87C348.503,703.942,350.572,704.201,352.623,704.521 M331.819,712.114
		c2.134-5.381,2.363-7.08,2.281-9.538c2.334,0.104,4.63,0.325,6.933,0.535c1.481,7.714-10.295,17.918-16.295,21.366
		c-1.904-1.157-3.832-2.273-5.724-3.448C321.227,719.016,329.528,717.888,331.819,712.114 M328.787,702.15
		c-5.653,8.059-16.053,2.442-21.595,11.35c-0.86-0.565-1.707-1.153-2.564-1.725c8.317-5.205,8.847-11.331,20.468-11.469
		C326.408,701.02,327.648,701.646,328.787,702.15 M317.167,695.554c0.999,0.647,1.972,1.257,2.93,1.848
		c-9.337,1.482-11.161,8.631-19.39,11.736c-1.036-0.706-2.088-1.384-3.118-2.098C307.896,704.677,303.574,692.327,317.167,695.554
		 M303.551,686.063c2.227,1.638,4.458,3.238,6.674,4.794c-11.38,2.604-5.757,11.938-17.838,12.537
		c-2.641-1.89-5.839-4.188-9.266-6.648C296.371,695.84,291.248,685.404,303.551,686.063 M295.299,679.862
		c0.994,0.765,2.026,1.542,3.052,2.317c-10.607,1.829-5.617,11.337-20.473,10.801c-1.362-0.975-2.729-1.951-4.076-2.917
		c4.782-0.746,6.74-6.021,10.201-7.292C286.382,682.488,292.279,680.872,295.299,679.862 M311.466,639.171
		c38.049-5.938-19.695,58.398-18.807,17.879l-15.263,2.333c-3.328-4.18-6.181-12.542-3.966-18.331c3.724-0.526,13.95-1.91,19.108-2
		c2.007-12.423,7.604-59.94,7.604-59.94l-60.219,2.016c0,0-11.166,57.753-10.597,64.002l13.123-1.916
		c-0.45,6.146,0.035,13.485,1.864,19.148c-4.817,1.122-12.516,1.985-17.875,3.31c7.151,5.895,1.136,19.662-7.819,19.662
		c-9.305-0.061-30.323-21.08-32.441-29.732c-1.911-13.684,14.275-16.939,23.092-8.866c3.954-21.347,9.666-47.046,11.011-65.663
		c-39.148,2.014,21.042-57.78,19.384-18.632l55.387-1.756l23.729,23.146C318.782,583.829,313.258,625.801,311.466,639.171
		 M328.219,622.157c-0.309,0.884-0.806,2.188-1.925,3.132c-3.484-0.578-5.762-1.66-7.815-2.2c1.57-10.313,2.058-15.435,2.513-19.442
		c2.352,0.462,2.911,0.293,5.182,0.706C320.996,614.953,331.228,614.181,328.219,622.157 M338.957,625.509
		c-2.672,0.604-5.37,0.618-8.134,0.37c6.796-13.712-4.836-9.361-0.557-20.817c1.657,0.272,3.19,0.494,4.538,0.646
		c1.563,14.91,7.673,7.5,11.699,17.851C343.915,624.295,341.297,624.978,338.957,625.509 M350.885,622.245
		c-3.369-11.371-12.074-6.506-11.419-16.328c7.897-1.538,10.664-3.808,11.949-4.632c0.335,4.793,0.369,11.552,1.805,20.271
		C353.219,621.557,351.271,622.523,350.885,622.245 M820.071,241.356l-14.713,10.477l11.869,16.268l14.715-10.476l18.402,25.218
		c0,0-6.047,4.331-9.006,6.414l-11.99-15.967l-15.523,11.052l11.705,16.17l-16.117,11.479l-13.49-18.483l13.207-9.403
		c-6.023-8.105-13.576-18.603-13.576-18.603s-2.156,1.518-13.205,9.403c-3.881-4.395-8.596-11.778-8.596-11.778
		s-8.818,6.3-19.482,13.874l8.594,11.78c-3.523,2.382-12.047,8.577-12.047,8.577l13.574,18.603l12.049-8.578
		c2.561,3.312,13.486,18.484,13.486,18.484l-15.006,10.683l-11.768-16.125l-17.451,12.426l11.77,16.127l-8.219,5.851l-19.371-26.181
		l12.33-8.782c0,0-9.879-15.107-10.766-15.401c-4.801,3.607-4.281,3.207-12.467,8.879c-5.791-7.625-9.539-13.072-9.539-13.072
		c2.52-1.799,6.584-4.703,11.666-8.338c12.279-8.78,30.531-21.842,47.535-33.973c10.6-7.563,20.709-14.762,28.576-20.334
		c5.996-4.246,10.691-7.551,13.309-9.349L820.071,241.356z M804.891,205.467c0,0,9.941,11.798,10.508,14.393
		c0.201,0.925-188.527,132.468-188.527,132.468h-29.994L804.891,205.467z M623.514,327.09l-33.936,24.773h-14.852
		c-3.227-24.132-6.43-40.379-5.494-63.82h47.928C618.354,295.926,621.383,316.66,623.514,327.09 M515.728,288.043h48.901
		c-1.109,21.166,2.758,41.021,4.945,64.284h-58.799C512.967,329.038,516.833,309.231,515.728,288.043 M530.882,79.991
		c0.581-1.13,2.06-2.577,4.261-2.577c0.299,0,10.235,0,10.561,0c2.346,0,3.863,2.445,3.979,2.623c0,0.001,0,0.001,0.002,0.002
		c0.691,1.234,1.299,3.023,1.834,5.621c0,0-11.607-2.044-22.503,0C528.994,85.664,530.236,81.242,530.882,79.991 M468.401,132.559
		c42.706-62.887,107.267-54.416,145.253,2.124c-6.193,11.495-7.811-0.47-12.285-5.593c-2.229,2.926-3.625,9.565-7.617,10.671
		c-5.369-4.766-8.598-15.211-12.598-21.038c-4.113,5.767-7.105,16.662-12.842,21.059c-3.117-1.675-5.385-7.864-7.553-10.756
		c-2.156,2.891-4.434,9.077-7.545,10.754c-5.736-4.393-8.711-15.282-12.844-21.035c-3.987,5.783-7.233,16.217-12.549,20.956
		c-3.812-0.856-5.345-7.882-8.014-10.61c-2.231,2.926-3.627,9.563-7.619,10.671c-5.373-4.766-8.595-15.212-12.599-21.038
		c-4.113,5.768-7.105,16.662-12.841,21.059c-3.119-1.676-5.385-7.864-7.55-10.756c-1.751,2.904-4.592,7.859-6.686,10.446
		c-2.602,1.288-4.021-3.431-5.567-4.941C467.207,133.922,468.401,132.559,468.401,132.559 M460.093,153.085
		c5.763-1.237,6.392-10.069,0.751-12.017l-0.123-9.561c0.641,1.16,1.282,2.362,1.93,3.551c0.524,0.966,1.055,1.922,1.589,2.841
		c0.601,1.03,1.211,2.01,1.831,2.896c2.709,3.867,5.637,5.898,9.127,2.416c1.226-1.225,2.52-3.114,3.897-5.865
		c1.43,2.953,2.796,4.917,4.103,6.116c3.267,3.004,6.161,1.156,8.778-2.442c1.913-2.631,3.679-6.187,5.337-9.459
		c0.057-0.114,0.114-0.229,0.173-0.342c0.624-1.228,1.229-2.404,1.822-3.473c0.061-0.109,0.123-0.224,0.184-0.332v0.001
		c4.716,8.441,11.583,28.116,20.479,10.292c4.407,9.564,10.778,9.384,14.544,0.334c1.922-3.305,3.965-7.217,5.753-10.641
		c5.009,8.814,11.562,28.316,20.39,9.945c8.816,18.181,15.129-0.629,20.398-9.931c4.674,8.319,11.809,28.523,20.422,10.091
		c5.377,11.512,10.223,7.775,14.219,1.411c0.719-1.15,1.414-2.384,2.078-3.632c1.047-1.97,2.021-3.966,2.916-5.7v11.222
		c-6.756,1.357-6.111,11.83,0.777,12.326c-0.055,0.001-0.338-0.002-0.777,0c-0.557,0.001-37.377-0.004-38.719,0
		c7.736-0.674,7.137-12.669-0.711-12.521c-7.846-0.148-8.447,11.849-0.705,12.521h-39.512c7.742-0.672,7.141-12.67-0.706-12.521
		c-7.848-0.148-8.449,11.849-0.706,12.521h-39.514c7.742-0.674,7.143-12.67-0.706-12.521c-7.846-0.148-8.448,11.849-0.705,12.521
		h-38.861h-0.603C459.738,153.133,460.01,153.104,460.093,153.085 M449.545,159.02c0-2.709,2.93-2.515,3.684-2.515H629.24
		c2.486,0,2.23,5.024,0,5.024c-1.787,0-172.733,0.005-175.745,0C452.082,161.529,449.545,161.526,449.545,159.02 M454.611,167.037
		c0.217-0.608,0.496-1.253,0.941-2.123h169.491c2.162,1.121,9.225,23.186,9.225,23.186s-2.879,4.57-5.039,7.22
		c-0.654,1.149-2.881,1.524-3.807,0.612c-2.518-3.186-5.951-9.205-8.006-12.701c-2.426,3.156-5.822,12.247-9.561,13.341
		c-6.02-2.824-12.057-20.904-16.203-26.578c-4.102,7.136-9.217,18.388-14.021,25.436c-5.057,5.024-9.311-9.37-11.57-12.13
		c-3.285,3.477-5.104,12.535-10.137,13.166c-0.748-0.104-1.391-0.498-1.818-1.111c-4.734-7.027-9.873-18.02-13.839-25.265
		c-3.956,7.231-9.111,18.25-13.837,25.267c-0.428,0.611-1.072,1.005-1.815,1.107c-5.039-0.622-6.854-9.689-10.143-13.164
		c-2.198,2.646-6.51,17.166-11.57,12.13c-4.808-7.063-9.911-18.284-14.02-25.436c-4.147,5.678-10.172,23.732-16.201,26.578
		c-3.736-1.083-7.135-10.189-9.563-13.341c-6.205,9.793-9.608,21.656-15.964,4.072C448.733,180.918,454.553,167.18,454.611,167.037
		 M438.984,207.732c1.008-0.546,4.93-5.518,0.494-10.384l-0.432-14.601c0.783,1.408,1.567,2.883,2.353,4.358
		c1.959,3.675,3.943,7.343,6.045,10.019c3.075,3.916,6.396,5.682,10.241,2.154c1.679-1.541,3.457-4.079,5.359-7.904
		c1.832,3.767,3.564,6.291,5.211,7.846c3.923,3.698,7.353,1.838,10.462-2.214c2.207-2.878,4.253-6.853,6.191-10.73
		c1.343-2.688,2.637-5.327,3.899-7.514c0.816,1.437,1.681,3.137,2.585,4.946c2.09,4.176,4.415,8.938,6.975,12.443
		c2.933,4.01,6.175,6.339,9.732,4.24c0.226-0.141,0.459-0.271,0.665-0.443c0.007-0.006,0.014-0.014,0.022-0.021
		c1.868-1.389,3.824-4.007,5.866-8.298c1.896,4.107,3.733,6.682,5.512,8.107c0.671,0.539,1.33,0.923,1.983,1.148
		c0.05,0.016,0.098,0.039,0.146,0.055c3.169,0.988,6.12-1.497,8.829-5.31c2.582-3.637,4.938-8.472,7.043-12.681
		c0.731-1.457,1.432-2.845,2.099-4.072c0.875,1.57,1.783,3.385,2.73,5.281c2.051,4.102,4.283,8.594,6.709,11.936
		c3.248,4.478,6.848,6.852,10.816,3.42c1.707-1.477,3.482-4.006,5.328-7.938c2.283,4.619,4.416,7.33,6.422,8.652
		c3.529,2.326,6.662,0.318,9.494-3.43c2.334-3.092,4.467-7.35,6.443-11.324c1.227-2.467,2.396-4.824,3.518-6.711
		c0.729,1.328,1.49,2.848,2.289,4.448c2.105,4.22,4.461,9.03,7.039,12.622c2.701,3.764,5.645,6.189,8.805,5.162
		c0.002,0,0.006-0.002,0.008-0.004c0.576-0.188,1.16-0.5,1.748-0.929c0.041-0.026,0.076-0.046,0.113-0.075
		c0.07-0.053,0.143-0.124,0.209-0.18c1.811-1.454,3.686-4.095,5.621-8.324c1.729,3.605,3.373,6.042,4.951,7.586
		c1.256,1.228,2.469,1.885,3.641,2.061c0.068,0.01,0.139,0.027,0.207,0.035c2.523,0.26,4.857-1.648,7.053-4.56
		c2.42-3.207,4.672-7.63,6.816-11.729c0.457-0.865,0.904-1.718,1.35-2.538l0.082,14.034c-1.488,0.488-2.049,1.646-2.705,2.859
		c-1.041,1.924-1.041,4.387,0.002,6.309c0.656,1.215,1.217,2.261,2.703,2.749v3.007c-16.918-0.113-185.558-0.133-202.674-0.047
		V207.732z M428.212,219.947c-0.958-0.004-1.493-0.808-1.55-1.356c-0.059-0.56-0.083-1.62-0.055-2.076c0-0.001,0-0.004,0-0.007
		c0-0.002,0-0.003,0-0.004c0-0.213,0-1.581,1.844-1.581h217.014c1.02-0.002,2.594-0.001,4.072,0c1.057,0.002,2.066,0.002,2.787,0
		l0,0c0.227-0.007,0.422,0.044,0.602,0.121c0.014,0.005,0.027,0.011,0.039,0.016c0.146,0.068,0.279,0.153,0.396,0.265
		c0.199,0.194,0.359,0.442,0.471,0.731c0.277,0.706,0.297,1.618,0.08,2.385c-0.158,0.557-0.438,1.034-0.832,1.294
		c-0.014,0.01-0.029,0.02-0.041,0.027c-0.057,0.033-0.119,0.054-0.18,0.078c-0.166,0.068-0.34,0.115-0.535,0.107l0,0
		c-1.373,0-3.02,0-4.6,0c-0.951,0-1.883,0-2.703,0C645.022,219.947,429.019,219.953,428.212,219.947 M626.02,245.379
		c-0.014,0.004-0.031,0.023-0.047,0.033l-0.021-0.033l-0.041,0.074c-0.352,0.325-2.096,3.902-2.262,4.222
		c-0.104,0.2-0.117,0.262,0.012,0.034c-1.27,2.596-6.275,14.488-10.334,8.965c-0.617-0.904-1.516-1.64-2.137-2.652
		c-0.105-0.172-0.213-0.346-0.318-0.521c-0.008-0.011-0.014-0.021-0.02-0.033c-1.461-2.414-2.928-5.07-4.381-7.795
		c-1.857-3.489-3.684-7.084-5.422-10.417c-0.918-1.758-1.811-3.438-2.67-4.993c-0.328-0.592-0.652-1.169-0.967-1.721
		c-1.58,2.15-3.537,6.246-5.691,10.731c-2.623,5.463-10.338,20.322-12.377,18.91c0,0.001-0.002,0.001-0.004,0.003
		c0-0.002-0.002-0.002-0.004-0.002c-2.225-0.212-5.984-6.732-7.473-9.463c-1.092-2.001-2.092-3.847-2.961-5.032l-0.223-0.384
		l-0.227,0.386c-0.865,1.181-1.861,3.019-2.951,5.011c-1.488,2.729-3.148,5.704-4.861,7.601c-0.865,0.96-1.746,1.655-2.623,1.878
		h-0.002c-0.002,0-0.004,0-0.004-0.001c-1.223-0.411-2.57-1.743-3.971-3.633c-2.959-3.988-6.145-10.475-8.848-16.132
		c-2.006-4.209-3.748-7.959-4.927-9.873c-1.155,1.883-2.896,5.625-4.909,9.836c-2.709,5.668-5.913,12.186-8.87,16.18
		c-1.402,1.896-2.749,3.227-3.961,3.622c-0.001,0-0.003,0.001-0.007,0.001l0,0c-0.877-0.219-1.754-0.911-2.619-1.867
		c-1.712-1.893-3.367-4.864-4.858-7.594c-1.094-2.002-2.095-3.847-2.96-5.03l-0.227-0.384l-0.225,0.386
		c-0.865,1.184-1.862,3.021-2.95,5.015c-1.49,2.73-3.145,5.701-4.858,7.6c-0.865,0.959-1.744,1.658-2.624,1.879c0,0-0.001,0-0.003,0
		h-0.002c-3.736-0.535-9.967-13.9-12.632-19.4c-1.474-3.043-2.877-5.876-4.188-8.018l-1.251-2.225l-0.119,0.215
		c-0.055-0.07-0.11-0.147-0.166-0.215c-0.943,1.905-2.006,4.045-3.137,6.297c-2.312,4.602-4.929,9.684-7.544,14.328
		c-1.581,2.813-3.164,5.468-4.669,7.744c-1.735,2.052-3.608,1.309-5.382-0.614c-1.487-2.019-3.691-5.872-5.33-8.849
		c-1.084-2.241-1.87-3.971-2.191-4.068c-0.236,0.115-0.663,0.822-1.224,1.862l-0.886,1.347c-0.318,0.482-0.742,1.264-1.332,2.346
		c-0.382,0.7-3.518,5.869-4.346,7.018c-0.973,1.063-1.966,1.796-2.936,1.984c-0.396,0.076-0.786,0.07-1.171-0.053
		c-0.494-0.16-0.979-0.5-1.444-1.057c-0.002-0.002-0.005-0.004-0.005-0.006c-3.271-4.299-5.685-7.873-7.278-11.346
		c-1.42-3.091-2.183-6.107-2.266-9.467c-0.098-4.104,0.797-8.727,2.718-14.676h211.703c0.152,0.508,0.297,1.048,0.439,1.583
		c0.125,0.458,0.244,0.923,0.361,1.397c0.051,0.209,0.1,0.421,0.148,0.633c0.096,0.408,0.193,0.809,0.283,1.227
		c0.463,2.138,0.846,4.391,1.143,6.648c0.055,0.405,0.105,0.811,0.152,1.217c0.047,0.409,0.088,0.816,0.129,1.223
		c0.084,0.828,0.15,1.648,0.205,2.459c0.006,0.074,0.014,0.149,0.018,0.224c0.066,1.046,0.111,2.093,0.135,3.141
		c-0.002,0.002-0.002,0.003-0.002,0.005c-0.453,0.825-0.879,1.615-1.295,2.389c-0.973,1.809-1.939,3.621-2.936,5.417
		c-0.053,0.083-2.543,4.494-3.301,5.733c-0.719,1.053-1.389,1.864-2.053,2.439c-0.586,0.395-1.258,0.758-1.598,0.826
		c-0.336,0.058-0.678,0.09-1.023,0.102c-1.391-0.234-2.91-1.604-4.801-4.279c-1.605-2.269-3.48-5.479-5.781-9.738l0.775,1.18
		C626.508,246.167,626.02,245.379,626.02,245.379 M426.383,276.248v-5.058c0.254-0.198,0.456-0.438,0.665-0.675
		c0.181-0.203,0.342-0.415,0.49-0.643c0.133-0.207,0.264-0.41,0.369-0.629c0.041-0.089,0.088-0.171,0.125-0.26
		c0.661-1.574,0.661-3.436,0-5.01c-0.037-0.09-0.084-0.172-0.125-0.26c-0.105-0.22-0.236-0.425-0.369-0.629
		c-0.148-0.228-0.31-0.44-0.491-0.645c-0.208-0.236-0.41-0.477-0.664-0.676v-18.428c0.813,1.514,1.61,3.07,2.4,4.62
		c2.227,4.37,4.401,8.695,6.69,11.921c3.715,5.237,7.728,7.539,12.739,2.371c1.83-1.89,3.791-4.756,5.924-8.868
		c1.59,3.484,3.126,6.044,4.607,7.849c0.988,1.205,1.955,2.073,2.895,2.643c1.234,0.746,2.428,0.98,3.581,0.813
		c2.096-0.307,4.056-1.945,5.885-4.305c2.751-3.547,5.206-8.709,7.386-13.376c1.596-3.411,3.042-6.556,4.347-8.611
		c1.191,1.836,2.563,4.978,4.133,8.463c2.016,4.478,4.353,9.523,7.045,13.097c3.342,4.438,7.228,6.597,11.718,2.586
		c1.929-1.725,3.967-4.58,6.123-8.895c0.772,1.532,2.061,3.953,3.68,6.155c1.509,2.053,3.306,3.918,5.242,4.696
		c1.357,0.547,2.784,0.553,4.232-0.279c0.039-0.023,0.082-0.052,0.122-0.076c0.282-0.172,0.552-0.385,0.848-0.609
		c7.444-5.668,14.274-23.912,14.287-23.94c1.171,1.841,2.494,4.825,3.988,8.106c1.879,4.131,4.029,8.73,6.494,12.111
		c1.52,2.085,3.156,3.701,4.922,4.461c1.029,0.443,2.1,0.592,3.217,0.371c1.467-0.289,3.014-1.222,4.643-2.975
		c1.633-1.758,3.348-4.335,5.15-7.919c1.625,3.396,3.189,5.88,4.697,7.63c1.539,1.783,3.018,2.793,4.434,3.184
		c0.992,0.274,1.953,0.252,2.885-0.021c1.83-0.53,3.543-2.001,5.145-3.991c2.746-3.41,5.164-8.337,7.256-12.672
		c1.637-3.391,3.076-6.416,4.316-8.064c0.932,1.445,2.059,3.82,3.359,6.545c1.938,4.061,4.264,8.898,6.914,12.598
		c2.066,2.886,4.33,5.076,6.76,5.66c0.025,0.002,0.045,0.01,0.066,0.012c0.006,0,0.014,0,0.02,0.002
		c1.184,0.266,2.406,0.154,3.662-0.449c1.025-0.491,2.076-1.305,3.148-2.5c1.516-1.693,3.078-4.143,4.678-7.522
		c1.605,3.146,3.135,5.468,4.604,7.133c1.252,1.419,2.459,2.349,3.623,2.862c1.273,0.56,2.492,0.628,3.676,0.311
		c2.154-0.581,4.174-2.435,6.107-4.961c2.582-3.37,5.006-7.909,7.393-12.152c0.914-1.626,1.82-3.208,2.729-4.662v18.146
		c-1.311,0.551-2.244,1.521-2.824,2.67c-0.926,1.833-0.926,4.121,0.004,5.954c0.58,1.147,1.514,2.116,2.82,2.665v4.125v0.414
		H426.383V276.248z M421.117,284.659c-0.494,0.008-0.833-0.165-1.077-0.429c-0.321-0.348-0.474-0.859-0.529-1.407
		c-0.056-0.56-0.027-1.144,0-1.599c0-0.002,0-0.004,0-0.004c0-0.006,0.002-0.006,0.002-0.012c0.009-0.486,0.177-0.82,0.435-1.059
		c0.362-0.338,0.907-0.473,1.486-0.516c0.525-0.042,1.072-0.014,1.521,0h0.003h234.621c0.371-0.014,0.912-0.04,1.453,0
		c0.436,0.029,0.869,0.102,1.221,0.264c0.492,0.226,0.826,0.623,0.771,1.314c0,0.002,0,0.004,0,0.008
		c-0.086,0.764,0.072,1.901-0.256,2.658c-0.203,0.465-0.588,0.788-1.346,0.78c0,0-0.002,0-0.004,0H421.117 M463.194,288.043h47.921
		c0.938,23.439-2.262,39.691-5.486,63.82h-14.854l-33.937-24.773C458.971,316.654,462.003,295.913,463.194,288.043 M361.375,313.342
		c-8.186-5.672-7.667-5.271-12.467-8.879c-0.887,0.294-11.737,16.363-11.737,16.363l12.334,8.781l-18.403,25.22l-8.218-5.851
		l11.769-16.127l-17.451-12.426l-11.768,16.125l-15.006-10.683c0,0,11.756-16.36,14.318-19.671l12.048,8.578l12.743-17.416
		c0,0-8.523-6.195-12.048-8.577l8.597-11.78c-10.666-7.574-19.484-13.874-19.484-13.874s-4.715,7.384-8.596,11.778
		c-11.049-7.886-13.207-9.403-13.207-9.403s-7.551,10.497-13.574,18.603l13.207,9.403l-13.488,18.483l-16.119-11.479l11.706-16.17
		l-15.524-11.052l-11.991,15.967c-2.957-2.083-9.005-6.414-9.005-6.414l18.403-25.218l14.713,10.476l11.871-16.268l-14.712-10.477
		l9.546-13.08c2.551,1.755,7.256,5.063,13.294,9.343l7.375,5.178l21.675,15.492c17.202,12.274,35.62,25.451,47.748,34.124
		c4.808,3.439,8.632,6.174,10.991,7.856C370.914,300.27,367.165,305.717,361.375,313.342 M265.855,219.59
		c-1.152-1.023,9.904-13.728,10.645-13.959c0.491,0.348,1.084,0.767,1.722,1.217l2.175,1.535c0.082,0.058,0.164,0.115,0.249,0.176
		c1.76,1.241,3.857,2.721,6.235,4.4c4.373,3.086,9.725,6.863,15.839,11.181c1.4,0.987,2.847,2.008,4.32,3.05
		c1.932,1.363,3.917,2.765,5.968,4.213c1.362,0.961,2.752,1.941,4.162,2.936c3.71,2.619,7.579,5.352,11.579,8.174
		c1.826,1.29,3.675,2.594,5.553,3.92c8.874,6.262,18.273,12.898,27.878,19.677c2.587,1.825,5.185,3.661,7.794,5.501
		c12.165,8.59,24.499,17.293,36.361,25.666c1.556,1.099,3.099,2.188,4.636,3.272l2.297,1.619
		c15.541,10.974,30.005,21.182,41.845,29.538c14.667,10.354,25.312,17.867,28.957,20.44l-30.644-0.282L265.855,219.59z
		 M721.819,602.054c-2.264,38.295-16.754,62.547-46.191,87.214c-24.607,20.618-133.475,72.181-133.652,72.191
		c-0.447,0.023-113.82-51.106-138.456-72.036c-28.484-24.196-45.644-51.397-45.738-93.161c-0.086-35.819,0.376-69.805,0.379-86.588
		c19.132-13.918,29.375-19.746,49.271-32.609c9.074-5.867,21.024-11.844,32.85-11.683c15.272,0.21,28.906,7.085,38.798,13.879
		c11.764,8.082,23.655,22.436,38.706,23.783c10.094,0.905,18.786-3.36,27.011-8.704c7.295-4.743,14.58-10.042,23.139-11.755
		c10.16-2.035,20.787,1.374,29.539,6.868c12.031,7.551,16.693,13.925,24.951,20.869c4.855,4.085,21.768,14.134,41.223,12.169
		c9.965-1.006,18.346-5.582,27.393-9.407c9.121-3.855,21.563-3.13,31.273-0.828C723.112,512.446,723.143,579.641,721.819,602.054
		 M720.246,506.089c-9.104-1.783-21.422-0.483-30.426,2.418c-4.836,1.559-9.258,3.985-13.816,6.171
		c-10.914,5.229-27.586,3.559-36.307,0.175c-9.197-3.569-15.295-7.126-21.842-13.348c-14.504-13.8-29.504-28.075-54.213-22.769
		c-7.525,1.614-13.748,5.808-19.764,9.864c-8.244,5.56-16.016,10.821-26.933,9.839c-8.54-0.758-17.754-8.253-26.667-15.499
		c-6.435-5.233-13.088-10.642-19.611-13.593c-23.289-10.545-37.278-12.141-59.593,0.239c-6.313,3.501-41.949,26.391-53.515,33.835
		c0.013-24.272,0.041-48.514,0.066-70.445c0.042-35.062,0.073-63.48,0.02-74.375h365.083c-0.055,10.895-0.021,39.313,0.018,74.375
		c0.027,22.913,0.057,48.351,0.07,73.708C721.953,506.486,721.09,506.256,720.246,506.089 M764.414,541.521
		c13.711-7.132,23.229,5.378,14.781,17.579c-5.443,5.401-19.824,23.672-28.416,22.612
		C722.887,577.27,752.811,547.862,764.414,541.521 M754.063,543.5c-4.674,3.95-8.416,7.285-12.32,12.076
		c-4.463-3.163-12.115-7.765-12.115-8.335l-0.201-20.731C736.895,531.868,746.936,538.37,754.063,543.5 M877.211,391.513
		c1.311-1.71,5.16-3.111,6.424-1.813c10.182,4.487-62.666,81.196-50.506,48.247C847.627,424.696,865.92,408.404,877.211,391.513
		 M874.737,379.177c9.846,9.591-32.141,45.509-40.844,52.612c-1.891,1.277-5.854,3.91-7.943,0.282
		c-2.402-2.192,9.537-11.295,10.742-12.43c14.205-13.382,23.129-24.858,34.684-40.224
		C871.901,378.718,872.416,376.912,874.737,379.177 M867.471,366.76c9.186,6.903-12.207,28.256-13.479,29.536
		c-2.094,2.189-34.904,40.397-33.717,23.462c20.035-19.703,23.92-21.615,40.738-46.901
		C862.246,371.005,864.36,366.109,867.471,366.76 M856.887,358.412c20.203,2.722-30.332,50.709-37.975,55.715
		c-3.799,2.627-8.574-2.381-5.928-4.376C837.264,389.512,836.547,388.513,856.887,358.412 M850.471,345.031
		c12.275,12.502-19.563,43.403-34.096,57.215c-2.396,1.822-4.789,5.884-8.389,1.773c-1.543-2.467-2.355-3.389,1.371-6.52
		c4.043-3.393,10.508-11.555,14.605-16.363c8.924-10.469,18.762-27.572,21.371-32.991
		C847.489,343.668,849.397,344.687,850.471,345.031 M836.129,334.48c12.197,4.016,3.318,18.268,0.617,22.389
		c-0.754,2.217-27.275,38.654-32.393,38.532c-1.184,0.05-4.119-4.243-3.512-6.208c0.633-2.055,6.273-6.271,8.174-8.633
		C841.014,340.742,831.467,332.945,836.129,334.48 M816.256,342.379c1.941-5.1,4.223-20.734,8.291-19.842
		c6.307,1.383,6.293,4.871,6.307,9.805c0.039,14.766-14.457,34.58-24.287,45.201c-3.688,3.984-11.213,13.168-12.613,3.94
		C802.651,370.515,811.119,355.875,816.256,342.379 M780.567,385.746c2.033-1.964,8.369-4.545,10.018-1.644
		c0,0,33.561,55.353,39.768,64.431c6.334,12.6-9.385,22.439-19.564-1.614l-34.217-53.524
		C774.936,389.221,779.821,386.468,780.567,385.746 M776.268,401.053c0.986,1.65,34.141,53.019,33.371,52.768
		c-25,12.212-52.494,15.447-80.643,11.643c-0.018-17.773-0.041-34.755-0.059-51.828
		C743.948,412.477,766.621,408.854,776.268,401.053 M728.959,593.953c0.035-12.272,0.055-25.633,0.066-39.572
		c4.486,2.728,9.846,6.135,9.215,5.969c-10.502,13.048,3.59,30.89,18.793,24.762l1.799,14.26
		c-4.494,1.524-25.117,3.238-29.957-0.627C728.922,597.162,728.953,595.569,728.959,593.953 M729.424,622.245
		c-0.533-0.111-2.936-1.086-2.936-1.086c1.479-7.604,1.787-10.522,2.463-17.277c2.158,0.572,3.141,1.712,11.889,2.035
		C741.498,615.747,732.828,610.829,729.424,622.245 M750.002,612.461c-3.744,4.601-3.533,8.789-1.176,13.418
		c-7.229-0.155-10.316-0.826-15.68-2.321c4.02-10.336,10.143-2.954,11.699-17.851c1.35-0.151,2.881-0.373,4.539-0.646
		C749.799,607.13,751.645,610.443,750.002,612.461 M754.012,625.289c-8.105-10.521,5.932-9.036,0.125-20.937
		c2.27-0.413,2.828-0.244,5.178-0.706c0.455,4.008,0.943,9.13,2.512,19.442C759.776,623.629,757.498,624.711,754.012,625.289
		 M689.781,762.572l-3.135,0.504c-0.488-1.006-1.307-2.014-2.244-3.021l29.568-20.341l-32.928,16.933
		c-0.424-0.485-0.854-0.939-1.248-1.384c-0.707-0.796-1.281-1.565-1.521-2.42c-0.184-0.646-0.188-1.34,0.135-2.146l36.008-18.046
		l-33.469,12.569c-0.367-0.688-1.455-1.492-2.645-2.416c-1.451-1.124-3.037-2.428-3.674-3.915c-0.332-0.774-0.42-1.595-0.068-2.472
		l37.199-9.907l-37.385,5.223c-1.48-0.998-2.506-1.651-3.154-2.225c-0.846-0.757-1.025-1.39-0.707-2.483
		c0.211-0.739,0.641-1.681,1.26-3.026l36.689-6.247l-37.605,1.822c-0.455-0.579-1.057-1.173-1.873-1.771l1.43-1.694
		c14.496-2.257,28.381-5.846,42.367-8.794c-0.422,2.094-0.07,4.614,0.775,7.335c1.17,3.762,3.299,7.901,5.674,11.795
		c2.916,4.776,6.195,9.178,8.537,12.078c0.471,0.576,0.904,1.103,1.287,1.553C715.949,747.564,702.776,754.939,689.781,762.572
		 M733.578,737.47c-0.543-0.607-1.178-1.337-1.871-2.161c-2.389-2.846-5.51-6.866-8.234-11.187c-2.275-3.611-4.266-7.42-5.32-10.913
		c-0.764-2.534-1.033-4.901-0.555-6.902c1.547-0.307,3.107-0.558,4.662-0.838c-0.279,2.302,0.477,5.119,1.824,8.109
		c1.578,3.496,3.963,7.227,6.461,10.634c3.094,4.229,6.354,7.961,8.441,10.141C737.188,735.396,735.381,736.43,733.578,737.47
		 M744.168,731.35c-0.168-0.162-0.338-0.332-0.518-0.513c-0.049-0.048-0.102-0.104-0.15-0.153c-2.207-2.23-5.396-5.688-8.35-9.504
		c-2.283-2.946-4.422-6.104-5.844-9.065c-1.359-2.831-2.068-5.479-1.621-7.593c2.053-0.32,4.121-0.579,6.188-0.835
		c-0.377,2.536,0.422,5.326,1.883,8.1c1.83,3.471,4.689,6.907,7.59,9.786c2.582,2.565,5.191,4.688,7.115,5.984
		C748.358,728.815,746.278,730.105,744.168,731.35 M755.571,724.478c-2.014-1.181-4.617-3.045-7.154-5.297
		c-2.732-2.423-5.387-5.291-7.146-8.241c-1.572-2.635-2.434-5.331-1.996-7.828c2.305-0.21,4.6-0.432,6.934-0.535
		c-0.004,1.077,0.068,2.059,0.178,3c0.301,2.585,1.01,4.682,2.063,6.429c1.607,2.671,3.986,4.551,6.889,6.164
		c2.494,1.146,4.91,1.908,5.957,2.86C759.405,722.204,757.475,723.32,755.571,724.478 M766.323,717.859
		c-0.939-0.499-2.592-0.927-4.41-1.494c-2.5-0.695-5.318-1.641-6.902-3.588c-0.785-0.815-1.369-1.787-1.602-2.981
		c1.73,0.733,3.154,0.947,4.441,1.027l0.766-0.062c0.879-0.15,2.156-0.219,3.998,0.508c1.771,0.521,3.729,1.778,6.393,4.903
		C768.117,716.744,767.213,717.294,766.323,717.859 M773.115,713.5c-0.924-1.487-1.986-2.561-3.139-3.369
		c-2.029-1.425-4.344-2.006-6.695-2.452c-1.75-0.078-3.453-0.014-6.08-1.245c-0.277-0.127-0.537-0.266-0.795-0.405
		c-1.824-0.746-3.502-1.897-4.887-3.878c1.139-0.505,2.379-1.131,3.693-1.844c3.771,0.052,6.363,0.729,8.438,1.789
		c2.418,1.238,4.135,3.006,6.145,4.939c1.6,1.539,3.387,3.177,5.885,4.74C774.823,712.347,773.975,712.935,773.115,713.5
		 M779.6,709.138c-2.6-0.979-4.564-2.373-6.336-3.865c-2.043-1.723-3.828-3.574-6.021-5.077c-1.895-1.296-4.092-2.33-7.031-2.794
		c1.969-1.035,3.633-1.703,5.059-2.076c2.756-0.717,4.617-0.317,6.053,0.675c0.652,0.276,1.242,0.622,1.715,1.096
		c0.77,0.767,1.215,1.754,1.729,2.896c0.127,0.277,0.262,0.569,0.402,0.864c1.246,2.012,2.617,4.051,4.883,5.263
		c0.773,0.415,1.65,0.735,2.668,0.921C781.692,707.754,780.635,708.432,779.6,709.138 M787.92,703.395
		c-12.074-0.597-6.459-9.937-17.838-12.537c2.217-1.556,4.449-3.156,6.674-4.794c12.283-0.663,7.201,9.784,20.43,10.683
		C793.762,699.207,790.565,701.505,787.92,703.395 M802.43,692.98c-14.918,0.512-9.813-8.946-20.475-10.801
		c1.029-0.775,2.061-1.553,3.055-2.317c3.025,1.01,8.912,2.624,11.297,2.909c3.449,1.263,5.43,6.556,10.199,7.292
		C805.156,691.029,803.791,692.006,802.43,692.98 M811.614,686.143c-11.148-1.375-10.738-9.617-22.791-9.235
		c4.395-6.062,18.461-4.918,19.17-1.971c1.078,2.437,5.781,6.677,9.008,6.624C815.194,683.185,813.237,684.822,811.614,686.143
		 M787.905,671.859c2.613-2.812,3.527-5.834,4.09-10.294l7.32,1.334C799.045,663.188,790.924,669.614,787.905,671.859
		 M821.699,676.756c-9.414,3.353-5.51-8.617-22.432-7.873c2.219-1.701,3.709-3.302,5.166-4.54
		c12.641-1.96,11.232,4.191,21.834,6.242C824.897,672.815,823.338,674.851,821.699,676.756 M829.537,664.301
		c-7.193,2.666-9.35-6.621-21.553-3.857c1.189-1.57,2.383-3.526,3.285-5.869c8.455-3.345,13.025,5.652,21.006,1.417
		C831.615,658.849,830.694,661.637,829.537,664.301 M789.399,621.769c-0.805-5.224-2.162-16.505-2.525-18.506
		c3.541,0.692,6.006,1.709,9.092,2.616c1.662,1.356,1.309,5.683,0.221,6.627C792.602,616.699,788.487,615.612,789.399,621.769
		 M789.692,623.308c-0.016-0.005-0.025-0.008-0.043-0.016c-0.061-0.336-0.129-0.757-0.201-1.214
		C789.512,622.464,789.588,622.866,789.692,623.308 M801.371,607.654c4.914,1.793,9.143,3.884,12.803,6.188
		c0.125,10.243-14.961-0.54-14.645,13.13c-2.084-0.972-4.115-1.755-5.822-2.353c-0.174-2.042,0.205-4.735,0.684-5.558
		C796.998,616.691,803.983,614.425,801.371,607.654 M805.303,636.276c-3.543-0.473-8.861-1.138-13.621-1.521
		c-0.322-1.868-0.707-4.051-1.127-6.415C799.475,631.295,803.514,634.152,805.303,636.276 M803.957,629.355
		c-1.559-12.437,13.027,0.429,13.611-13.185c2.184,1.629,4.105,3.351,5.797,5.143c-2.684,11.59-11.654,3.777-17.01,10.037
		C805.403,630.436,804.545,629.776,803.957,629.355 M824.42,629.073c0.422-0.34,2.314-2.109,2.922-2.768
		c2.348,3.502,3.959,7.188,4.918,10.95c-6.014,5.732-14.598-3.186-20.322,3.203c-0.568-2.022-1.703-4.285-2.844-5.878
		C813.153,629.965,818.934,633.57,824.42,629.073 M833.209,650.219c-7.588,5.648-13.262-4.481-20.924,0.802
		c0.359-1.563,0.461-2.415,0.506-4.599c4.406-8.525,13.326,0.857,20.309-4.783C833.461,644.502,833.471,647.375,833.209,650.219
		 M786.932,599.041c-0.297-0.059-1.033-11.259-1.676-15.212l51.291,1.537c3.643,19.032,8.092,43.788,9.467,54.475l-8.787-1.281
		C832.989,621.326,823.367,607.156,786.932,599.041 M894.127,655.601c-2.119,8.655-23.133,29.666-32.441,29.732
		c-8.953,0-14.969-13.768-7.816-19.662c-5.361-1.324-13.059-2.188-17.879-3.31c1.83-5.663,2.316-13.003,1.865-19.148l13.121,1.916
		c0.576-6.249-10.594-64.002-10.594-64.002l-60.217-2.016c0,0,5.6,47.518,7.604,59.94c5.156,0.09,15.383,1.474,19.107,2
		c2.217,5.789-0.639,14.151-3.965,18.331l-15.264-2.333c0.885,40.52-56.85-23.817-18.807-17.879
		c-1.793-13.37-7.316-55.342-7.316-55.342l23.73-23.146l55.387,1.756c-1.658-39.151,58.531,20.648,19.383,18.632
		c1.346,18.617,7.057,44.316,11.012,65.663C879.606,638.642,896.229,642.063,894.127,655.601"/>
	<path fill="#404040" d="M537.621,731.544c-9.224-2.298-18.198-5.663-26.68-9.998c-4.648-0.405-11.713-1.297-16.376-1.972
		c0.028-0.013,0.061-0.029,0.088-0.042c-1.523-0.243-4.912-0.77-5.525-0.878l0.003,0.006c-1.119-0.207-4.944-0.899-6.06-1.12
		c1.418,1.172,2.925,2.249,4.475,3.272c0,0,1.831,1.265,2.768,1.728c5.174,3.055,10.823,5.534,16.378,7.947
		c0.506,0.22,1.011,0.439,1.511,0.659c9.151,3.984,21.268,8.583,33.841,8.751c11.293,0.151,19.635-1.008,27.037-3.762
		c0.822-0.304,1.637-0.631,2.445-0.959c-1.205,0.038-2.408,0.069-3.615,0.069C557.678,735.246,547.526,734.006,537.621,731.544"/>
	<path fill="#404040" d="M566.451,723.832c-8.486,0-16.365-1.462-21.961-2.495l-0.598-0.111c-4.6,0.749-9.958,1.127-16.037,1.127
		c-3.724,0-7.725-0.143-11.974-0.427c7.132,3.32,14.572,5.965,22.188,7.86c12.454,3.098,25.301,4.218,38.209,3.355
		c6.264-2.879,12.127-6.329,17.488-10.317c2.641-1.965,5.184-3.972,7.34-6.356c-9.01,3.726-18.463,6.106-28.178,7.059
		C570.75,723.738,568.58,723.832,566.451,723.832"/>
	<path fill="#404040" d="M599.092,697.831c-0.379,0.283-1.771,1.317-3.783,2.695c-2.373,1.624-5.063,3.465-7.922,4.897
		c-0.141,0.068-0.289,0.14-0.428,0.214c2.912-0.949,5.775-2.029,8.572-3.254c1.963-0.859,3.898-1.801,5.805-2.803
		c2.195-1.152,4.35-2.386,6.445-3.7c-0.02-0.347-0.027-0.7-0.055-1.032h-0.002c-0.123-1.314-0.385-2.42-0.754-3.313
		c-0.082-0.196-0.16-0.393-0.254-0.568c-0.105,0.094-0.213,0.202-0.316,0.298l-0.924,0.864c-0.438,0.411-0.867,0.8-1.313,1.229
		C602.578,694.877,600.938,696.449,599.092,697.831"/>
	<path fill="#404040" d="M520.139,693.461c-0.597-0.206-1.172-0.418-1.728-0.633c-0.02,0.333-0.047,0.804-0.104,1.367
		c-0.245,2.411-0.819,5.386-1.685,7.474c-0.167,0.403-0.361,0.817-0.565,1.225c-0.449,1.159-1.009,2.26-1.657,3.311
		c0.864,0.259,1.728,0.516,2.593,0.771c0.765,0.229,1.531,0.456,2.294,0.682c-0.225-4.142,0.927-9.06,2.903-13.535
		C521.523,693.921,520.84,693.701,520.139,693.461"/>
	<path fill="#404040" d="M490.944,681.445c-0.012-0.107-4.195,0.437-6.123,0.927c-3.623,0.927-7.006,2.956-7.922,3.519
		c0.495,0.922,1.119,1.924,1.9,2.956c1.635,2.159,3.403,3.695,4.853,4.754c0.146-0.772,0.423-1.931,0.988-3.254
		c0.451-1.047,1.691-3.289,3.336-5.45c0.235-0.307,0.476-0.622,0.723-0.932c0.341-0.482,0.622-0.856,0.78-1.038
		c0.477-0.542,0.961-1.022,1.438-1.448l0,0c0.007-0.006,0.013-0.016,0.021-0.021C490.939,681.455,490.944,681.449,490.944,681.445"
		/>
	<path fill="#404040" d="M598.774,686.625c-1.377,0.055-2.402,0.183-3.461,0.428c-0.506,0.116-0.922,0.235-1.217,0.328
		c0.008,0.013,0.014,0.023,0.021,0.036c0.904,0.911,1.811,3.255,1.904,3.462c0.043,0.098,0.885,2.02,1.145,4.229
		c1.395-0.947,2.533-1.814,3.395-2.503c1.117-0.892,1.764-1.458,3.662-3.113c0.789-0.686,0.99-0.932,1.406-1.28
		c-0.881-0.733-1.564-1.141-3.059-1.404C601.53,686.621,600.381,686.561,598.774,686.625"/>
	<path fill="#404040" d="M455.096,618.862c0-0.063,0.199-6.213,1.975-7.155c0.41-0.219,0.864-0.185,1.278,0.099
		c0.607,0.415,1.371,1.666,1.338,2.427c-0.016,0.374-0.041,0.822-0.073,1.334c-0.136,2.182-0.341,5.474-0.061,9.786
		c1.096,16.803,5.849,35.529,13.381,52.74c0.136,0.315,0.243,0.559,0.307,0.756c0.71,1.24,1.604,3.066,2.072,4.042
		c0.457-0.332,1.071-0.765,1.478-0.997c0.567-0.323,2.022-0.965,2.837-1.319c-5.558-12.479-8.417-34.009-9.155-43.784
		c-1.35-17.787-0.508-18.619-0.104-19.017c0.733-0.728,1.355-0.704,1.749-0.545c1.528,0.595,1.963,4.223,2.142,9.49
		c0.365,10.872,0.958,18.286,1.978,24.778c1.28,8.174,6.561,24.523,7.608,27.717c4.647-1.241,6.71-1.166,7.974-1.11
		c0.09,0.002,0.175,0.005,0.256,0.008l-0.15-0.684c-2.347-10.646-6.719-30.46-5.547-40.867c0.061-0.538,0.104-1.106,0.148-1.656
		c0.163-2.104,0.28-3.628,1.196-3.967c0.378-0.153,0.829-0.058,1.22,0.246c0.81,0.622,1.555,2.302,1.216,5.148
		c-0.926,7.783,3.453,30.403,6.196,41.047c0.245-0.1,0.471-0.205,0.899-0.474c0.71-0.456,3.13-2.146,4.271-4.842
		c0.381-0.892,0.383-1.313,0.39-2.712c0.003-0.435,0.008-0.964,0.021-1.604c-0.122-1.513-0.116-3.047,0.025-4.761
		c0.025-3.217,2.445-6.899,3.673-8.059c0.42-0.399,0.994-0.83,1.468-1.121c-1.635-6.218-3.271-13.396-3.489-20.4
		c-1.807,1.757-4.5,4.271-5.293,4.46c-1.388,0.328-2.646-0.552-3.476-1.246c-2.884-2.417-5.166-5.491-6.64-8.931
		c-0.859,0.613-1.947,0.961-3.094,0.971c-1.491-0.037-2.876-0.54-3.818-1.521c-0.913-0.951-1.394-2.17-1.772-3.239
		c-0.638-1.794-1.053-3.661-1.455-5.468c-0.318-1.438-0.648-2.924-1.087-4.344c-0.311,0.155-0.696,0.359-1.038,0.542
		c-2.43,1.291-3.327,1.701-3.92,1.466c-0.793-0.305-1.346-1.624-1.891-3.063l-0.146-0.39c-0.511-1.24-0.998-3.504-1.47-5.692
		c-0.222-1.038-0.435-2.035-0.628-2.795c-5.598,5.39-9.803,7.028-12.374,7.445c-0.06,0.008-6.01,0.876-6.797-0.259
		c-0.168-0.244-0.174-0.548-0.018-0.812c0.813-1.366,1.307-2.358,1.611-3.063c-1.912,1.502-5.139,3.102-10.515,1.422
		c-0.795-0.248-1.36-0.507-1.728-0.797c-0.73,0.657-2.058,1.739-3.159,2.075c-3.006,0.929-4.897,0.847-5.782-0.246
		c-0.539-0.661-0.558-1.545-0.394-2.356l-2.621,2.068c1.224,9.846,3.046,19.64,5.42,29.117c2.624,10.463,5.215,17.828,6.525,21.283
		c1.545,4.076,3.657,9.662,7.422,16.564c2.308,4.229,4.907,8.353,7.732,12.267c0.995-1.96,3.03-6.017,3.568-7.088
		c-1.473-3.036-14.609-30.862-15.539-60.022c-0.201-3.135-0.459-10.555,1.464-11.383c0.13-0.053,0.281-0.097,0.459-0.097
		c0.342,0,0.771,0.157,1.249,0.657l0.113,0.172c0.459,1.026,0.467,1.648,0.481,3.153c0.024,2.593,0.075,7.989,2.373,23.368
		c1.692,11.312,5.584,24.257,12.252,40.728c0.438,1.154,1.913,4.891,3.537,7.397c0.395,0.607,2.31,3.505,4.109,5.11
		c1.299-2.072,2.635-4.023,4.327-5.483C467.865,678.432,455.736,653.274,455.096,618.862"/>
	<path fill="#404040" d="M651.362,607.654c0.037,0.502-0.051,1.011-0.363,1.447c-0.801,1.111-2.699,1.331-5.803,0.675
		c-1.086-0.228-2.855-1.318-3.955-2.049c-0.115,0.3-0.32,0.657-0.693,1.02c-1.059,1.029-4.238,1.471-7.529,0.384
		c-1.174-0.387-2.277-0.937-3.309-1.651c0.383,0.759,0.926,1.758,1.695,3.052c0.156,0.264,0.148,0.567-0.021,0.812
		c-0.787,1.135-6.732,0.267-6.795,0.259c-5.613-0.907-10.297-5.291-12.547-7.396c-0.141-0.135-0.289-0.27-0.424-0.396
		c-0.191,2.42-0.818,6.431-1.475,8.771c-0.012,0.029-0.879,3.062-2.064,3.519c-0.582,0.223-1.488-0.175-3.918-1.468
		c-0.34-0.183-0.729-0.387-1.039-0.542c-0.441,1.422-0.771,2.909-1.09,4.353c-0.402,1.801-0.816,3.669-1.449,5.459
		c-0.383,1.069-0.865,2.292-1.775,3.241c-0.932,0.969-2.303,1.519-3.77,1.519h-0.047c-1.148-0.008-2.232-0.355-3.096-0.971
		c-1.475,3.439-3.756,6.516-6.639,8.935c-0.826,0.69-2.088,1.578-3.477,1.242c-0.789-0.192-3.469-2.689-5.275-4.444
		c-0.021,2.549-0.104,4.619-0.459,6.601c-1.166,6.564-2.385,10.514-3.346,13.226c0.547,0.344,0.879,0.627,0.895,0.643
		c0.555,0.471,0.953,0.945,1.139,1.186c0.406,0.513,1.605,2.283,2.15,3.616c0.836,2.032,1.273,4.185,1.418,6.977
		c0.078,1.542,0.084,2.608,0.086,3.382c0.01,1.401,0.012,1.819,0.391,2.708c0.619,1.46,1.557,2.474,2.492,3.283l0.836-2.907
		c3.361-11.672,8.438-29.305,7.836-35.818c-0.271-2.905,0.473-4.569,1.258-5.159c0.381-0.283,0.807-0.362,1.182-0.22
		c0.744,0.278,1.26,1.352,1.344,5.678c0.141,7.237-5.025,25.775-8.115,36.851c-0.389,1.399-0.748,2.69-1.063,3.835
		c0.316,0.151,0.764,0.374,1.313,0.687c1.172,0.658,3.357,1.885,5.422,4.24c0.453,0.516,0.947,1.235,1.385,1.869l0.016,0.025
		l0.43-0.054c3.664-6.958,9.787-27.803,10.756-32.596c1.266-6.275,1.604-13.876,1.975-24.754c0.178-5.268,0.611-8.897,2.139-9.493
		c0.389-0.158,1.012-0.18,1.748,0.548c0.406,0.399,1.248,1.228-0.104,19.02l-0.137,1.91c-0.604,8.603-1.283,18.347-12.027,44.998
		c0.609-0.019,1.154-0.031,1.68-0.031c2.643,0,4.695,0.213,6.232,0.648c6.756-19.162,14.227-44.536,15.172-58.962
		c0.279-4.316,0.074-7.612-0.057-9.792c-0.035-0.513-0.061-0.958-0.078-1.33c-0.031-0.763,0.729-2.014,1.334-2.429
		c0.42-0.281,0.871-0.315,1.279-0.104c1.77,0.939,1.979,7.098,1.979,7.162c-0.428,22.847-8.174,44.817-13.832,60.857
		c-0.84,2.381-1.627,4.617-2.334,6.69c0.303,0.332,0.494,0.584,0.494,0.584c0.158,0.212,0.314,0.453,0.461,0.721
		c1.932-0.955,4.914-2.789,6.639-4.24c2.32-1.955,3.521-4.117,4.309-5.784c8.268-17.523,11.943-39.852,11.982-40.074
		c1.25-7.725,2.283-19.495,2.344-21.667c0.02-0.683,0.025-1.233,0.031-1.691c0.014-1.507,0.02-2.132,0.479-3.158l0.113-0.169
		c0.725-0.757,1.332-0.723,1.705-0.559c1.926,0.826,1.668,8.248,1.463,11.402c-0.93,29.178-14.094,57.038-15.539,60.015
		c0.246,0.457,0.766,1.074,1.27,1.672c0.324,0.389,0.662,0.791,0.971,1.193c0.58,0.768,1.221,1.579,1.617,2.07
		c2.076-1.895,6.572-8.607,7.451-10.14c3.459-6.002,5.375-11.111,6.914-15.215l0.504-1.338c1.318-3.482,3.918-10.882,6.527-21.283
		c1.361-5.438,3.877-16.495,5.557-29.901c-0.633-0.159-1.244-0.378-1.822-0.661C651.979,608.03,651.664,607.851,651.362,607.654"/>
	<path fill="#404040" d="M477.91,703.998c1.79,0.716,6.128,1.899,7.993,2.395c3.927,0.98,7.906,1.748,11.905,2.386
		c0.287,0.044,0.573,0.1,0.86,0.143c0.762,0.119,1.521,0.217,2.282,0.325c0.762,0.111,1.521,0.227,2.283,0.328
		c1.381,0.18,2.768,0.345,4.153,0.5c4.718,0.527,9.453,0.908,14.195,1.156c-2.879-0.691-5.836-1.466-9.118-2.331
		c-0.039,0.051-0.323-0.029-0.78-0.206c-0.707-0.188-1.464-0.394-2.244-0.607c-0.1-0.03-0.2-0.06-0.302-0.085
		c-0.413-0.117-0.827-0.232-1.262-0.358c-0.084-0.023-0.177-0.05-0.263-0.075c-0.745-0.215-1.521-0.444-2.321-0.691
		c-0.332-0.102-0.657-0.199-0.998-0.306c-0.305-0.093-0.617-0.194-0.929-0.292c-0.384-0.124-0.768-0.25-1.161-0.377
		c-0.306-0.1-0.614-0.203-0.927-0.307c-0.431-0.146-0.869-0.292-1.313-0.446c-0.297-0.101-0.592-0.204-0.891-0.31
		c-0.506-0.178-1.023-0.362-1.544-0.554c-0.261-0.092-0.517-0.184-0.78-0.281c-0.792-0.292-1.599-0.596-2.425-0.916
		c-0.129-0.051-0.263-0.106-0.396-0.158c-0.074-0.03-0.146-0.06-0.217-0.088c-0.007,0.005-0.014,0.011-0.021,0.016l-0.331-0.132
		c0.005-0.006,0.015-0.014,0.021-0.019c-0.094-0.038-0.188-0.075-0.283-0.11c-0.258-0.104-0.515-0.205-0.778-0.315
		c-2.133-0.883-4.393-1.921-6.685-3.239c-1.09-0.534-1.916-1.093-2.639-1.653c-0.852-0.568-1.699-1.172-2.541-1.835
		c-0.508-0.405-0.979-0.809-1.432-1.207c-0.525-0.466-1.012-0.932-1.466-1.399c-1.368-1.407-2.435-2.85-3.267-4.412
		c-0.41,1.142-0.821,2.295-1.203,3.459c-0.774,2.376-1.404,4.797-1.522,7.292c-0.017,0.352-0.181,0.989,0.021,1.272
		C472.204,701.41,476.613,703.481,477.91,703.998"/>
	<path fill="#404040" d="M556.922,715.342c0.416-0.204,0.822-0.444,1.238-0.658c-3.547,0.315-10.961,0.624-21.706-0.716
		c-1.499-0.186-2.911-0.396-4.288-0.612c-0.121-0.002-0.249-0.009-0.372-0.009c-7.368-0.05-15.212-0.502-22.799-1.285
		c-1.707-0.114-2.283-0.236-3.814-0.407c-0.8-0.098-1.598-0.199-2.397-0.303c-3.702-0.489-7.393-1.076-11.054-1.801
		c-1.856-0.367-3.748-0.763-5.634-1.201c0.001,0.016,0.001,0.029,0.003,0.042c-2.729-0.717-7.897-2.224-10.409-3.37
		c-0.756-0.345-2.414-1.129-4.077-2.203c0.129,0.785,0.348,1.563,0.67,2.293c0.039,0.085,0.088,0.201,0.159,0.357
		c0.606,1.319,1.39,2.542,1.772,3.129c0.731,1.12,1.181,1.807,1.941,2.698c0.156,0.183,0.816,0.95,1.814,1.871
		c0.922,0.852,1.782,1.511,2.482,2c1.578,0.334,5.23,1.053,7.125,1.416l-0.016-0.027c1.992,0.363,7.426,1.213,9.907,1.601
		c0.016-0.008,0.031-0.013,0.047-0.021c3.794,0.505,9.987,1.299,13.769,1.626c13.232,1.146,24.159,1.03,32.479-0.346
		c3.576-0.59,6.355-1.363,8.604-2.156C554.211,716.609,555.701,715.942,556.922,715.342"/>
	<path fill="#404040" d="M596.276,704.04c-5.951,2.603-12.188,4.596-18.582,5.951c-0.029,0.012-0.059,0.021-0.086,0.036
		c-0.99,0.412-1.996,0.804-3.01,1.18l0.053,0.037l-0.42,0.096c-1.258,0.457-2.535,0.859-3.824,1.227
		c-0.699,0.198-1.393,0.405-2.098,0.569c-2.107,0.491-3.988,0.816-5.631,1.045c-1.604,1.003-3.248,1.951-4.938,2.782
		c-0.32,0.157-0.664,0.321-1.021,0.488c-1.984,0.919-4.541,1.938-8.029,2.804c6.633,1.152,15.281,2.327,24.059,1.468
		c10.615-1.039,20.914-3.822,30.648-8.232c1.074-1.622,1.99-3.399,2.643-5.448c0.828-2.613,1.6-6.484,1.744-10.03
		c-2.131,1.303-4.32,2.52-6.547,3.661C599.604,702.509,597.951,703.305,596.276,704.04"/>
	<path fill="#404040" d="M560.77,711.291c2.033-0.235,4.203-0.568,6.814-1.177c0.541-0.125,1.076-0.275,1.613-0.427
		c-1.432-1.385-2.77-3.341-5.029-7.284c-1.178-2.059-1.748-4.555-1.971-7.075c-0.436,0.155-1.041,0.426-1.971,0.566
		c-0.195,0.031-0.49,0.074-0.791,0.121c0.857,2.069,1.49,4.32,1.758,6.878c0.271,2.595-0.025,5.057-0.314,7.435
		C560.842,710.645,560.807,710.968,560.77,711.291"/>
	<path fill="#404040" d="M467.971,598.789c0.47-0.588,0.494-0.725,0.69-1.775c0.122-0.656,0.303-1.605,0.68-3.137
		c2.577-10.371,7.829-16.467,10.129-18.738c-5.229-1.178-7.049-5.18-6.994-9.107c-0.367,0.32-0.738,0.649-0.963,0.848
		c-4.576,4.098-8.699,16.314-10.41,22.887l-0.006,0.019c-0.931,4.198-2.718,7.786-4.981,12.327c-0.883,1.778-1.874,3.773-2.92,6.012
		C455.416,607.863,462.496,605.659,467.971,598.789"/>
	<path fill="#404040" d="M481.916,615.88l0.265,0.917c1.288,4.432,1.288,4.435,1.308,4.562c0.319,1.85,1.176,2.722,1.873,2.916
		c0.271-0.062,1.72-1.308,3.058-3.945l0.01-0.019c1.256-2.265,10.447-20.386,12.559-25.278c-1.104-0.347-2.176-0.796-3.53-1.477
		c-1.606-0.804-2.798-1.635-4.063-2.513c-0.239-0.166-0.485-0.336-0.732-0.505c-1.227,2.505-2.538,5.005-3.907,7.447
		c-2.421,4.32-5.081,8.565-7.902,12.621c-0.063,0.098-0.152,0.223-0.263,0.365l1.279,4.739l-0.541,0.332L481.916,615.88z"/>
	<path fill="#404040" d="M497.054,633.489c0.896-0.184,4.208-3.159,5.656-5.089c0.774-5.002,2.981-14.968,5.341-20.875
		c1.222-3.062,2.799-6.135,4.018-8.363l-0.184-0.051c-1.202-0.346-2.567-0.737-3.759-1.224c-0.721-0.292-1.271-0.469-1.764-0.627
		c-0.584-0.188-1.111-0.361-1.729-0.653c-1.218,2.567-5.171,11.309-6.345,14.15c-0.449,1.088-1.991,4.238-3.488,7.28
		c-1.374,2.804-2.792,5.696-3.287,6.842l0.016,0.042C492.541,628.258,494.401,631.142,497.054,633.489"/>
	<path fill="#404040" d="M473.671,611.663c0.415-0.215,1.414-1.102,1.816-1.455c0.225-0.201,0.415-0.371,0.538-0.467
		c1.107-0.872,2.052-2.18,2.963-3.449c0.223-0.304,0.441-0.605,0.656-0.897c2.584-3.468,4.693-7.316,6.734-11.039l1.118-2.017
		c0.226-0.392,0.458-0.782,0.635-1.189c0.062-0.139,0.341-0.634,1.973-3.337c-1.946-2.164-5.836-8.407-6.958-11.423
		c-1.058,0.338-2.132,1.858-2.805,2.812l-0.27,0.379c-1.238,1.709-2.472,3.647-3.768,5.923c-1.928,3.395-2.945,7.138-3.619,10.02
		l-0.161,0.704c-0.686,2.914-1.099,4.674-0.626,7.725C472.599,608.461,473.286,611.025,473.671,611.663"/>
	<path fill="#404040" d="M445.27,605.723c1.916-0.462,5.537-2.085,8.282-7.756l0.175-0.357c0.785-1.617,1.86-3.825,3.483-8.289
		c0.84-2.313,1.506-4.327,2.128-6.198c1.304-3.931,2.429-7.325,4.488-11.441c0.513-1.024,1.166-2.266,2.141-3.726
		c1.419-2.14,3.096-4.111,4.991-5.881c-4.364-1.037-6.185-4.263-6.729-6.141c-0.33,0.348-0.63,0.707-0.826,0.949
		c-2.338,2.884-10.153,13.141-12.652,24.073c-0.317,1.635-0.969,4.523-1.542,7.076c-0.457,2.023-0.867,3.844-1.034,4.693
		c-0.768,3.934-1.665,7.412-5.525,13.12C443.117,605.951,444.035,606.021,445.27,605.723"/>
	<path fill="#404040" d="M450.319,569.776c3.573-8.124,11.031-17.395,12.654-19.37c-0.476-0.592-1.37-1.719-1.781-2.324
		c-0.548-0.811-0.771-1.844-0.952-2.676c-0.044-0.194-0.094-0.428-0.146-0.618c-1.942,1.667-9.295,12.009-13.33,20.104
		c-4.48,8.99-7.711,22.696-8.897,28.17c-0.357,1.68-1.393,6.088-1.738,7.062c-0.604,1.692-1.64,3.816-2.396,5.365
		c-0.178,0.37-0.371,0.762-0.532,1.1c6.092-1.455,9.753-6.087,10.892-13.783c0.252-1.688,2.153-10.627,2.569-12.502
		C447.336,576.715,448.603,573.675,450.319,569.776"/>
	<path fill="#404040" d="M611.086,597.509c0.203,1.068,0.238,1.263,0.754,1.908c6.012,7.547,13.805,9.473,15.443,9.473h0.061
		c-1.123-2.429-2.189-4.571-3.135-6.469c-2.254-4.525-4.031-8.103-4.959-12.27l-0.006-0.021
		c-0.475-1.818-4.801-17.929-10.502-23.033c-0.316-0.282-1.01-0.894-1.502-1.32c0.176,2.667-0.287,8.393-7.287,9.619
		c1.99,1.865,7.732,8.008,10.457,18.987C610.791,595.908,610.969,596.872,611.086,597.509"/>
	<path fill="#404040" d="M635.696,606.634c1.182,0.14,1.941-0.06,2.184-0.196c-4.014-5.847-4.928-9.355-5.705-13.326
		c-0.164-0.852-0.586-2.722-1.035-4.706c-0.574-2.545-1.227-5.437-1.545-7.084c-2.51-10.991-10.361-21.29-12.707-24.187
		c-0.273-0.341-0.754-0.907-1.229-1.357c-0.295,1.653-2.057,5.625-7.203,6.563c2.053,1.853,3.859,3.942,5.375,6.22
		c0.963,1.447,1.611,2.681,2.119,3.693c2.049,4.099,3.172,7.485,4.471,11.402c0.637,1.912,1.293,3.892,2.133,6.207
		c1.627,4.477,2.707,6.696,3.498,8.318l0.17,0.356C629.467,605.238,633.928,606.432,635.696,606.634"/>
	<path fill="#404040" d="M647.725,607.066c0.221,0,0.441-0.012,0.666-0.042c0.012,0,0.027,0,0.039,0
		c-0.088-0.553-0.957-2.543-3.855-7.111c-0.529-0.827-2.035-5.216-2.447-7.116c-1.182-5.483-4.422-19.215-8.92-28.238
		c-2.703-5.432-6.693-12.594-13.66-20.091c-0.256,1.646-0.563,2.76-0.918,3.325c-0.813,1.287-1.578,1.819-2.039,2.139
		c-0.102,0.071-0.232,0.161-0.299,0.225c1.061,1.274,9.066,11.031,12.809,19.537c1.709,3.879,2.967,6.903,3.641,10.479
		c0.133,0.598,0.383,1.939,0.674,3.49c0.621,3.325,1.477,7.878,1.873,8.923C638.862,601.97,643.254,607.066,647.725,607.066"/>
	<path fill="#404040" d="M601.43,607.8c1.307,1.669,2.84,3.148,4.555,4.399c0.164,0.119,0.313,0.22,0.455,0.225h0.008
		c0.119,0,0.191-0.121,0.311-0.412l0.029-0.074c0.5-1.13,0.744-2.402,0.982-3.636l0.088-0.454c0.207-1.043,0.402-2.156,0.6-3.41
		c0.479-3.108,0.037-4.993-0.633-7.836l-0.164-0.707c-0.676-2.904-1.701-6.677-3.648-10.094c-1.299-2.287-2.537-4.234-3.785-5.959
		l-0.271-0.378c-0.748-1.063-1.98-2.805-3.248-2.989c-0.994,3.081-4.477,9.376-7.129,11.756c2.018,3.34,2.055,3.449,2.072,3.506
		c0.168,0.384,0.406,0.797,0.641,1.195c0.104,0.18,0.207,0.36,0.309,0.54l0.807,1.472c1.33,2.428,2.705,4.936,4.201,7.32
		c0.74,1.176,1.373,2.123,1.986,2.978c0.223,0.305,0.439,0.617,0.656,0.93C600.627,606.713,601.02,607.273,601.43,607.8"/>
	<path fill="#404040" d="M594.91,624.374c0.035,0,0.066-0.005,0.094-0.013c1.52-0.426,1.82-1.096,2.41-2.709
		c0.527-1.441,0.988-2.913,1.367-4.373c0.037-0.151,0.076-0.294,0.111-0.444c0.27-1.08,0.48-2.191,0.686-3.266
		c0.041-0.192,0.08-0.356,0.129-0.536c0.115-0.432,0.352-1.334,0.176-1.566l-0.104-0.132c-0.135-0.179-0.248-0.334-0.338-0.469
		c-2.807-4.037-5.465-8.278-7.877-12.585c-1.424-2.542-2.789-5.148-4.055-7.751c-0.352,0.237-0.691,0.473-1.029,0.706
		c-1.252,0.872-2.436,1.698-4.025,2.492c-1.469,0.735-2.6,1.201-3.805,1.559c1.846,4.407,11.42,23.293,12.703,25.612
		C592.578,623.306,594.315,624.374,594.91,624.374"/>
	<path fill="#404040" d="M575.555,596.636c-1.611,0.775-5.551,2.009-8.027,2.777c1.24,2.239,2.908,5.461,4.188,8.664
		c2.771,6.939,4.297,13.443,4.529,19.328c1.551,2.099,5.959,6.435,6.707,6.295c4.922-5.098,5.615-7.413,5.877-8.286
		c0.012-0.04,0.02-0.077,0.033-0.111c-0.455-1.08-1.92-4.065-3.336-6.955c-1.494-3.039-3.035-6.185-3.482-7.265
		C580.823,608.125,576.59,598.773,575.555,596.636"/>
	<path fill="#404040" d="M648.53,575.903c-0.43-1.199-0.859-2.4-1.279-3.649c-0.07-0.195-0.176-0.457-0.307-0.777
		c-0.137-0.334-0.301-0.729-0.471-1.175c-6.41-16.923-16.387-28.943-17.752-30.285c-1.25,0.427-2.551,0.7-3.877,0.813
		c-1.271,0.102-2.539,0.063-3.791-0.123c0.502,0.682,1.203,1.615,2.041,2.725c4.092,5.428,10.941,14.516,12.885,18.891
		c2.48,5.584,5.193,12.326,8.674,27.787c1.67,7.421,6.012,13.738,9.938,14.506c0.109-0.421,0.109-2.017-0.697-7.606
		C652.412,586.76,650.438,581.238,648.53,575.903"/>
	<path fill="#404040" d="M539.901,564.707c-1.289-1.762-3.671-1.993-4.119-2.035c-3.905-0.372-6.797,2.977-7.741,4.069
		c-0.649,0.753-1.522,1.952-2.143,3.579c-0.758,1.997-0.778,3.693-0.778,4.559c-0.024,13.693,0.964,19.646,0.964,19.646
		c0.372,2.233,1.296,7.362,3.214,13.728c0,0,1.984,7.353,6.347,13.021c1.004,1.308,3.582,3.724,4.632,3.235
		c-2.245-5.023-3.443-9.129-3.69-9.725c-0.525-1.28-3.067-9.399-3.504-16.13c-0.673-10.347,0.925-22.294-0.158-30.802
		c0.096-0.098,0.256-0.231,0.449-0.225c1.228,0.031,1.546,4.013,1.668,6.761c0.277,6.148-0.029,10.872-0.247,13.546
		c-0.555,6.822-0.297,9.532,0.185,12.934c1.31,9.215,6.237,22.807,6.655,23.091c0.162,0.108,0.217-1.285,0.373-2.621
		c0-0.003-0.121-2.385-0.125-3.175c-0.029-7.424-0.91-18.636-0.91-18.636c-0.018-8.559-0.313-14.219-0.164-22.699
		C540.842,574.823,540.772,565.9,539.901,564.707"/>
	<path fill="#404040" d="M434.746,590.241c3.489-15.497,6.32-22.498,8.695-27.841c1.961-4.414,8.627-13.289,12.607-18.594
		c0.715-0.947,1.331-1.769,1.801-2.408l-6.739-0.888c-1.544,1.599-11.369,13.653-17.6,30.096c-0.168,0.437-0.327,0.825-0.458,1.159
		c-0.135,0.325-0.246,0.59-0.313,0.784c-0.424,1.25-0.854,2.448-1.279,3.649c-1.907,5.325-3.878,10.831-5.358,21.054
		c-0.67,4.68-0.773,6.499-0.735,7.193C429.099,603.432,433.144,597.353,434.746,590.241"/>
	<path fill="#404040" d="M558.049,703.678c-0.695-6.664-4.152-11.249-7.936-15.742c-0.74-0.878-1.311-1.637-1.801-2.389
		c-2.197-3.367-3.246-6.965-2.945-10.121c0.129-1.415,0.549-2.704,0.918-3.842c0.867-2.683,0.803-3.502,0.758-4.162l-0.02-0.258
		c-0.096-1.87-0.777-3.305-1.033-3.845c-0.369-0.777-0.787-1.465-1.242-2.034c-0.273-0.344-0.465-0.294-1.002-0.105
		c-0.207,0.071-0.432,0.151-0.682,0.198c-1.189,0.235-2.412,0.283-3.64,0.132c-0.222-0.026-0.555-0.068-0.917-0.115
		c-0.628-0.086-1.343-0.181-1.726-0.221c-0.013,0-0.024-0.003-0.037-0.003c-0.608,0-1.659,1.448-2.013,1.931
		c-0.094,0.129-0.166,0.229-0.21,0.284c-0.323,0.381-0.583,0.929-0.84,1.455c-0.115,0.242-0.229,0.477-0.343,0.686
		c-1.285,2.37-0.983,4.735-0.47,6.94c0.214,0.896,0.454,1.908,0.591,3.042c0.06,0.457,0.117,0.897,0.179,1.322
		c0.509,3.69,0.875,6.354-2.921,9.711c-5.392,4.771-7.709,10.797-8.503,22.183c3.324,0.755,6.951,1.394,10.784,1.904
		c1.725-2.18,2.824-7.968,1.67-13.05c-0.013-0.051-0.886-5.228,0.046-5.53c0.429-0.143,0.701,0.457,0.848,0.779
		c2.663,5.981,2.993,12.604,0.92,18.226l0.157,0.02c0.03,0.004,2.974,0.361,6.944,0.63c0.121,0.008,0.25,0.016,0.377,0.023
		c-1.992-5.798-1.436-12.527,1.547-18.544c0.156-0.317,0.439-0.924,0.879-0.746c0.918,0.339-0.17,5.477-0.184,5.528
		c-1.393,5.133-1.143,8.546,1.059,13.94c4.021,0.164,7.502,0.123,10.342-0.13l0.008-0.072c0.041-0.415,0.082-0.83,0.129-1.229
		C558.024,708.151,558.287,705.961,558.049,703.678 M536.3,669.131c-0.335,0.888-1.031,1.517-1.315,1.684
		c-0.051,0.028-0.104,0.042-0.158,0.042c-0.105,0-0.21-0.053-0.269-0.15c-0.087-0.145-0.04-0.333,0.11-0.419
		c0.051-0.03,0.142-0.107,0.246-0.205c0.253-0.236,0.606-0.646,0.802-1.162c0.064-0.174,0.12-0.344,0.17-0.511
		c-0.184,0.162-0.425,0.318-0.737,0.442c-0.29,0.113-0.634,0.207-1.06,0.244c-0.052,0.004-0.104,0.002-0.156-0.004
		c-0.183-0.025-0.35-0.115-0.465-0.262c-0.434-0.534-0.603-1.087-0.513-1.646c0.174-1.049,1.244-1.735,1.955-2.189
		c0.309-0.198,0.709-0.122,0.937,0.156c0.08,0.016,0.158,0.062,0.206,0.138C536.979,666.782,536.719,668.021,536.3,669.131
		 M543.604,669.203c0.199,0.524,0.549,0.932,0.803,1.167c0.104,0.096,0.195,0.169,0.246,0.201c0.15,0.086,0.197,0.274,0.111,0.421
		c-0.059,0.097-0.162,0.15-0.27,0.15c-0.055,0-0.109-0.014-0.16-0.042c-0.283-0.17-0.98-0.8-1.313-1.686
		c-0.422-1.111-0.68-2.349,0.246-3.844c0.047-0.078,0.125-0.123,0.205-0.139c0.229-0.276,0.627-0.354,0.939-0.155
		c0.707,0.455,1.779,1.14,1.951,2.19c0.094,0.558-0.078,1.111-0.51,1.646c-0.115,0.145-0.285,0.234-0.467,0.263
		c-0.051,0.006-0.104,0.008-0.156,0.002c-0.426-0.038-0.768-0.128-1.057-0.243c-0.314-0.125-0.555-0.28-0.74-0.442
		C543.485,668.859,543.539,669.028,543.604,669.203"/>
	<path fill="#404040" d="M524.586,556.353c0,0,1.189,0.931,2.282,0.965c0.146,0.002,0.284-0.019,0.284-0.019
		c0.101-0.013,0.189-0.053,0.285-0.077c-2.58-1.78-4.619-4.876-4.443-8.068c0.104-1.955,1.544-3.347,2.465-4.952
		c0.43-0.746,0.755-1.532,0.763-2.453c0.005-0.534-0.429-0.814-0.85-0.814c-0.392,0-0.771,0.24-0.774,0.738
		c-0.008,0.731-0.281,1.376-0.651,1.982c-0.382,0.623-0.864,1.208-1.266,1.798c-0.961,1.41-1.428,2.944-1.292,4.651
		c0.022,0.277,0.076,0.551,0.12,0.825c0.231,1.423,0.736,2.474,1.101,3.103C523.367,555.347,524.24,556.079,524.586,556.353"/>
	<path fill="#404040" d="M517.853,653.169c0.947,0.333,1.811,0.804,2.524,1.421c1.423-2.053,6.561-9.504,7.416-11.16
		C525.113,645.499,520.329,650.776,517.853,653.169"/>
	<path fill="#404040" d="M522.33,657.909c1.157-0.762,7.962-11.61,7.962-11.61c-2.106,1.392-7.234,6.411-9.372,8.825
		c0.311,0.344,0.583,0.719,0.806,1.134C522.013,656.796,522.199,657.362,522.33,657.909"/>
	<path fill="#404040" d="M541.842,657.832l0.184-0.002c0.998-0.093,1.633-0.252,1.928-0.37c-0.303-1.752-2.227-9.741-3.119-12.064
		c-0.745,2.281-1.998,10.102-2.191,12.22c0.46,0.096,1.623,0.215,2.656,0.215L541.842,657.832z"/>
	<path fill="#404040" d="M552.68,645.769c0,0,4.48,8.641,6.352,11.427c0.215-0.536,0.438-1.009,0.641-1.384
		c0.199-0.373,0.441-0.691,0.693-1.001c-0.348-0.6-0.793-1.38-1.299-2.264C556.879,649.94,554.092,646.877,552.68,645.769"/>
	<path fill="#404040" d="M561.369,653.814c0.676-0.537,1.449-0.924,2.293-1.186c-2.385-2.836-6.035-7.495-8.252-9.517
		c0.602,1.451,3.906,7.261,5.68,10.35C561.186,653.581,561.278,653.7,561.369,653.814"/>
	<path fill="#404040" d="M566.43,596.6l1.566-0.657c0,0,5.58-1.987,7.396-2.748c2.598-1.088,7.498-3.511,9.869-5.387
		c6.303-4.987,8.217-12.043,10.076-14.273c6.465-0.409,9.1-3.575,9.512-6.833c0.248-1.954-1.816-6.429-1.234-6.592
		c0,0,7.166-1.585,8.77-4.027c2.375-3.605,1.039-8.233,1.039-8.233c0.094,0,6.313-2.33,2.67-11.415
		c0.734,1.836,14.703,0.35,14.377-0.576c-0.908-2.583-4.594-5.8-8.324-8.089c-4.703-2.88-10.102-3.443-13.543-3.044
		c-3.791,0.439-7.566,0.838-11.145,2.257c-5.262,2.084-8.033,5.921-9.324,11.298c-1.439,5.992-1.451,12.221-2.129,18.342
		c-0.855,7.738-3.082,15.122-9.129,20.439c-4.879,4.289-11.33,7.701-17.801,8.834C561.606,588.574,566.43,596.6,566.43,596.6"/>
	<path fill="#404040" d="M464.007,536.434c-3.644,9.085,2.577,11.415,2.668,11.415c0,0-1.338,4.625,1.038,8.233
		c1.605,2.442,8.771,4.027,8.771,4.027c0.581,0.163-1.483,4.638-1.235,6.592c0.411,3.26,3.047,6.424,9.512,6.833
		c1.86,2.23,3.775,9.286,10.078,14.273c2.372,1.876,7.271,4.299,9.865,5.387c1.819,0.761,7.4,2.748,7.4,2.748l1.565,0.657
		c0,0,4.825-8.025,7.357-10.705c-6.674-1.168-17.929-6.545-22.826-14.695c-4.905-9.4-5.45-21.049-5.472-21.541
		c-0.489-8.167-1.772-14.733-2.031-15.395c-3.35-8.555-15.853-9.15-19.204-9.539c-3.44-0.399-8.839,0.164-13.54,3.044
		c-3.733,2.289-7.416,5.506-8.324,8.089C449.302,536.786,463.27,538.27,464.007,536.434"/>
	<path fill="#404040" d="M591.504,687.67c-0.025-0.046-1.121-1.992-2.441-3.419c-1.928-2.076-4.443-3.437-6.465-4.529
		c-0.545-0.296-1.059-0.574-1.5-0.836c-0.957-0.563-2.146-1.265-3.201-2.518c-2.07-2.461-2.287-5.484-2.463-7.916
		c-0.049-0.68-0.076-1.325-0.1-1.955c-0.064-1.537-0.125-2.986-0.502-4.63c-0.459-2.006-1.25-3.646-2.348-4.873
		c-1.375-1.54-3.193-2.32-5.4-2.32c-0.086,0-0.17,0.008-0.258,0.018l-0.135,0.018c-0.414,0.031-0.82,0.109-1.213,0.232
		c-0.719,0.227-1.424,0.59-2.098,1.076c-0.148,0.105-0.289,0.209-0.426,0.32c-0.109,0.09-0.207,0.183-0.307,0.277l-0.072,0.067
		c-0.283,0.259-0.508,0.499-0.697,0.725c-0.158,0.206-0.26,0.359-0.357,0.507c-0.258,0.393-0.438,0.746-0.551,1.077
		c-0.445,1.281-0.203,2.484,0.076,3.874l0.059,0.282c0.469,2.373,2.34,5.333,2.531,5.574c0.984,1.275,1.998,2.581,2.635,4.122
		c0.906,2.169,1.113,4.465,0.602,6.644c-0.578,2.436-0.99,5.079-1.355,7.412c-0.154,0.971-0.293,1.884-0.441,2.733
		c-0.408,2.42-0.182,5.291,0.66,8.304c0.168,0.609,0.654,2.191,1.484,3.748c1.414,2.649,3.109,4.953,5.043,6.858
		c1.734-0.593,3.609-1.334,5.715-2.254c2.363-1.037,4.604-2.122,6.684-3.15c-0.496-0.464-1.096-1.035-1.723-1.687l-0.166-0.173
		c-1.809-1.869-3.859-3.991-5.613-7.342c-2.729-5.216-1.998-8.07-1.906-8.377c0.016-0.047,0.445-1.489,0.445-1.489l0.412-1.364
		l0.273,2.079c0.035,0.261,0.117,0.839,0.262,1.601c0.738,3.047,2.783,6.452,3.66,7.514c2.826,3.406,5.156,5.753,7.533,7.581
		c1.104-0.63,2.283-1.362,3.6-2.233c-0.779-3.441-1.992-7.287-4.959-9.985c-0.258-0.237-1.207-1.097-1.209-1.097l-0.477-0.424
		l0.561-0.319c0.32-0.18,1.117-0.232,2.869,1.405c1.967,1.833,4.168,6.182,5.053,9.18l0.373-0.257
		c0.531-0.359,0.992-0.685,1.42-0.986c-0.313-1.553-0.688-3.017-1.084-4.243C593.258,690.278,591.524,687.693,591.504,687.67
		 M571.612,662.937c-0.096,0.256-0.367,0.397-0.627,0.336c-0.018-0.008-0.035-0.014-0.053-0.02
		c-0.275-0.094-0.422-0.396-0.322-0.669c0.031-0.088,0.068-0.233,0.104-0.413c0.113-0.592,0.188-1.595-0.127-2.431
		c-0.074-0.201-0.152-0.389-0.238-0.569c-0.043,0.413-0.219,0.918-0.652,1.49c-0.01,0.013-0.016,0.024-0.023,0.036
		c-0.033,0.043-0.068,0.077-0.109,0.111c-0.137,0.113-0.316,0.175-0.5,0.162c-0.684-0.045-1.207-0.292-1.557-0.729
		c-0.662-0.825-0.453-2.055-0.314-2.87c0.016-0.098,0.057-0.188,0.107-0.267l-0.018-0.024c-0.125-0.008-0.238-0.023-0.373-0.026
		c-0.293-0.011-0.529-0.237-0.527-0.526c0.002-0.288,0.238-0.521,0.533-0.521c3,0.015,4.045,1.71,4.67,3.37
		C572.09,660.722,571.821,662.357,571.612,662.937"/>
	<path fill="#404040" d="M520.93,434.253l-19.144,29.948l30.315-18.91l7.899,34.547l7.899-34.547l30.32,18.91l-19.146-29.948
		l34.973-7.804l-34.973-7.803l19.146-29.945l-30.32,18.911l-7.899-34.547l-7.899,34.547l-30.315-18.911l19.144,29.945l-34.975,7.803
		L520.93,434.253z M515.895,402.637l19.12,11.93l4.986-21.796l4.987,21.796l19.119-11.93l-12.074,18.893l22.059,4.92l-22.059,4.926
		l12.074,18.888l-19.119-11.927l-4.987,21.795l-4.986-21.795l-19.12,11.927l12.075-18.888l-22.06-4.926l22.06-4.92L515.895,402.637z
		"/>
	<path fill="#404040" d="M488.442,196.096c-3.513,0-6.369,2.823-6.369,6.291c0,3.471,2.856,6.294,6.369,6.294
		c3.511,0,6.368-2.823,6.368-6.294C494.81,198.919,491.953,196.096,488.442,196.096"/>
	<path fill="#404040" d="M591.828,208.68c3.514,0,6.371-2.822,6.371-6.293c0-3.468-2.857-6.291-6.371-6.291
		c-3.51,0-6.369,2.823-6.369,6.291C585.459,205.857,588.319,208.68,591.828,208.68"/>
	<path fill="#404040" d="M540.785,208.68c3.512,0,6.371-2.822,6.371-6.293c0-3.468-2.859-6.291-6.371-6.291
		c-3.512,0-6.372,2.823-6.372,6.291C534.414,205.857,537.273,208.68,540.785,208.68"/>
	<path fill="#404040" d="M483.22,260.188c-3.513,0-6.369,2.822-6.369,6.291c0,3.471,2.856,6.294,6.369,6.294
		c3.512,0,6.369-2.823,6.369-6.294C489.59,263.01,486.732,260.188,483.22,260.188"/>
	<path fill="#404040" d="M596.672,260.188c-3.512,0-6.371,2.822-6.371,6.291c0,3.471,2.859,6.294,6.371,6.294
		c3.514,0,6.369-2.823,6.369-6.294C603.041,263.01,600.186,260.188,596.672,260.188"/>
	<path fill="#404040" d="M540.596,260.188c-3.512,0-6.37,2.822-6.37,6.291c0,3.471,2.857,6.294,6.37,6.294
		c3.51,0,6.371-2.823,6.371-6.294C546.967,263.01,544.106,260.188,540.596,260.188"/>
	<polygon fill="#404040" points="323.232,432.688 326.366,424.696 327.329,422.235 324.838,421.281 320.376,419.574 
		317.885,418.621 316.918,421.085 313.786,429.076 303.381,425.096 300.889,424.143 299.924,426.604 297.64,432.429 
		296.676,434.891 299.168,435.845 309.574,439.824 306.098,448.691 305.132,451.152 307.626,452.105 312.088,453.813 
		314.578,454.766 315.545,452.305 319.019,443.438 327.474,446.67 329.964,447.623 330.928,445.162 333.212,439.336 
		334.178,436.873 331.685,435.921 	"/>
	<polygon fill="#404040" points="755.963,444.328 756.633,446.886 759.219,446.223 767.994,443.979 770.168,452.278 
		770.838,454.832 773.422,454.171 778.057,452.987 780.643,452.326 780.438,451.546 780.502,451.529 779.758,448.945 
		777.801,441.475 788.602,438.712 791.19,438.051 790.522,435.496 788.938,429.449 788.268,426.892 785.684,427.553 
		774.879,430.315 772.467,421.111 771.799,418.555 769.211,419.215 764.578,420.399 761.992,421.062 762.66,423.616 
		765.071,432.822 756.295,435.063 753.709,435.725 754.379,438.281 	"/>
	<path fill="#404040" d="M518.342,658.279c-0.871-1.351-2.527-2.23-4.536-2.423c-0.256-0.023-0.536-0.023-0.759-0.023
		c-0.912,0-1.799,0.147-2.639,0.444l-0.178,0.056c-0.077,0.019-0.154,0.044-0.233,0.074c-1.136,0.476-2.696,1.127-4.294,3.375
		c-1.069,1.517-1.106,2.817-1.194,5.675l-0.034,1.148c-0.036,1.007-0.013,1.436,0.005,1.779c0.02,0.38,0.038,0.684-0.016,1.428
		c-0.175,2.428-0.394,5.449-2.462,7.909c-1.521,1.812-3.675,2.951-5.758,4.051c-1.555,0.819-3.161,1.669-4.463,2.786
		c-1.791,1.528-3.272,3.573-4.533,6.248c-0.851,1.805-1.47,3.633-1.891,5.585c0.486,0.305,0.964,0.579,1.44,0.85
		c0.295,0.166,0.593,0.33,0.889,0.488c0.691-2.964,3.143-7.976,5.27-9.962c1.74-1.625,2.544-1.577,2.863-1.409l0.568,0.315
		l-1.687,1.528c-2.877,2.624-4.344,7.139-5.069,10.467c-0.004,0.021-0.009,0.043-0.015,0.064c1.117,0.543,2.272,1.057,3.528,1.573
		c0.313,0.127,0.62,0.249,0.921,0.371l0.154,0.058c1.92-1.524,3.91-3.598,6.812-7.096c0.878-1.061,2.922-4.465,3.663-7.526
		c0.142-0.754,0.225-1.33,0.259-1.585l0.272-2.084l0.411,1.368c0,0,0.418,1.401,0.446,1.479c0.092,0.32,0.819,3.185-1.906,8.387
		c-1.758,3.357-3.812,5.481-5.62,7.354l-0.16,0.162c-0.282,0.291-0.548,0.566-0.804,0.822l0.931,0.338
		c0.707,0.259,1.405,0.504,2.077,0.736c0.683,0.232,1.297,0.432,1.891,0.616c1.224,0.384,2.304,0.685,3.554,1.037
		c1.311,0.368,2.786,0.787,4.696,1.37c1.612-2.253,2.709-4.375,3.347-6.483c0.782-2.569,1.011-5.445,0.707-8.78
		c-0.263-2.856-0.81-5.945-1.771-10.009c-0.512-2.175-0.304-4.468,0.602-6.644c0.641-1.539,1.652-2.849,2.636-4.119
		c0.197-0.25,0.39-0.502,0.579-0.751l0.121-0.16C520.091,665.056,519.872,660.643,518.342,658.279 M512.249,661.584
		c-0.218,0.516-0.652,0.892-1.297,1.119c-0.174,0.063-0.363,0.053-0.528-0.021c-0.045-0.02-0.091-0.048-0.131-0.077
		c-0.015-0.011-0.022-0.019-0.035-0.029c-0.577-0.434-0.887-0.873-1.043-1.26c-0.031,0.199-0.051,0.399-0.071,0.614
		c-0.066,0.836,0.263,1.799,0.55,2.374c0.076,0.153,0.152,0.282,0.212,0.369c0.171,0.236,0.118,0.563-0.123,0.733
		c-0.093,0.063-0.202,0.096-0.308,0.096c-0.166,0-0.329-0.078-0.435-0.222c-0.36-0.501-1.069-2.001-0.956-3.435
		c0.143-1.763,0.68-3.675,3.569-4.495c0.279-0.083,0.573,0.079,0.656,0.359c0.081,0.277-0.083,0.566-0.367,0.647
		c-0.127,0.038-0.231,0.083-0.349,0.125l-0.01,0.029c0.071,0.061,0.134,0.138,0.181,0.227
		C512.118,659.486,512.656,660.613,512.249,661.584"/>
</g>
</svg>
