<svg width="115" height="127" viewBox="0 0 115 127" fill="none" xmlns="http://www.w3.org/2000/svg">
<g clip-path="url(#clip0_4_54)">
<path d="M65.1274 97.8556C92.3952 97.8556 114.5 75.9499 114.5 48.9278C114.5 21.9057 92.3952 0 65.1274 0C37.8596 0 15.7548 21.9057 15.7548 48.9278C15.7548 75.9499 37.8596 97.8556 65.1274 97.8556Z" fill="#EFEFEF"/>
<path d="M97.3916 21.8804H6.94774C6.7538 21.8763 6.59994 21.7172 6.60409 21.525C6.60811 21.3386 6.75964 21.1884 6.94774 21.1844H97.3916C97.5856 21.1885 97.7394 21.3477 97.7353 21.5399C97.7313 21.7263 97.5797 21.8764 97.3916 21.8804Z" fill="#CACACA"/>
<path d="M66.5686 33.6085H41.5663C39.6884 33.6085 38.166 35.1172 38.166 36.9782V36.9782C38.166 38.8392 39.6884 40.3479 41.5663 40.3479H66.5686C68.4465 40.3479 69.9689 38.8392 69.9689 36.9782C69.9689 35.1172 68.4465 33.6085 66.5686 33.6085Z" fill="white"/>
<path d="M25.4147 47.0873H82.7201C84.5981 47.0873 86.1205 48.596 86.1205 50.457C86.1205 52.318 84.5981 53.8267 82.7201 53.8267H25.4147C23.5368 53.8267 22.0144 52.318 22.0144 50.457C22.0144 48.596 23.5368 47.0873 25.4147 47.0873Z" fill="white"/>
<path d="M25.4147 60.5661H82.7201C84.5981 60.5661 86.1205 62.0748 86.1205 63.9358C86.1205 65.7968 84.5981 67.3055 82.7201 67.3055H25.4147C23.5368 67.3055 22.0144 65.7968 22.0144 63.9358C22.0144 62.0748 23.5368 60.5661 25.4147 60.5661Z" fill="white"/>
<path d="M18.3132 126.704L18.1784 126.691C13.6025 126.223 9.46596 123.784 6.86766 120.022C6.15596 118.974 5.58028 117.841 5.1542 116.65L5.11324 116.537L5.23449 116.527C6.68204 116.412 8.16911 116.168 8.82972 116.052L4.56992 114.622L4.54358 114.497C4.29103 113.321 4.78581 112.111 5.79316 111.441C6.80324 110.739 8.1427 110.717 9.17617 111.385C9.63996 111.678 10.1251 111.969 10.5942 112.25C12.2062 113.216 13.8731 114.216 15.1229 115.583C17.018 117.698 17.8487 120.547 17.3835 123.337L18.3132 126.704Z" fill="#F2F2F2"/>
<path d="M33.7975 124.604L35.8968 124.604L36.8957 116.579L33.7969 116.579L33.7975 124.604Z" fill="#A0616A"/>
<path d="M33.7234 126.775L40.1796 126.774V126.694C40.1795 125.318 39.0545 124.203 37.6666 124.203L36.4872 123.317L34.2869 124.203L33.7233 124.203L33.7234 126.775Z" fill="#2F2E41"/>
<path d="M16.972 118.842L18.6513 120.09L24.3103 114.265L21.8316 112.422L16.972 118.842Z" fill="#A0616A"/>
<path d="M15.5984 120.534L20.7629 124.373L20.8119 124.309C21.6447 123.208 21.4199 121.648 20.3098 120.822L19.9033 119.411L17.6062 118.812L17.1554 118.477L15.5984 120.534Z" fill="#2F2E41"/>
<path d="M23.951 86.9437C23.951 86.9437 24.0669 90.0767 24.2131 92.5892C24.237 93.0012 23.2629 93.4489 23.2881 93.8971C23.3049 94.1945 23.488 94.4837 23.505 94.7938C23.5229 95.121 23.2701 95.4107 23.2881 95.7492C23.3057 96.0799 23.5941 96.4591 23.6115 96.7976C23.7987 100.44 24.4774 104.801 23.7978 106.02C23.4629 106.62 19.1938 114.943 19.1938 114.943C19.1938 114.943 21.5724 118.479 22.252 117.3C23.1496 115.744 30.0673 108.461 30.0673 107.07C30.0673 105.681 31.6677 95.271 31.6677 95.271L32.7837 101.432L33.2954 102.652L33.1346 103.369L33.4652 104.336L33.4831 105.293L33.805 107.07C33.805 107.07 32.8366 120.917 33.382 121.302C33.9291 121.689 36.5778 122.385 36.8904 121.689C37.2013 120.994 39.225 107.239 39.225 107.239C39.225 107.239 39.5512 100.935 39.9046 95.0757C39.925 94.7356 40.1663 94.3248 40.185 93.9897C40.2071 93.6008 40.0542 93.0957 40.0745 92.7186C40.0966 92.2859 40.2903 91.9811 40.309 91.5669C40.4534 88.3663 39.6427 84.4687 39.3845 84.0848C38.6046 82.9265 37.903 82.0004 37.903 82.0004C37.903 82.0004 27.3995 78.5805 24.5928 82.0556L23.951 86.9437Z" fill="#2F2E41"/>
<path d="M34.4267 54.7267L30.2629 53.9014L28.3198 56.5147C24.6941 60.0477 24.6395 63.1658 25.2868 68.1638V75.1785L24.8183 79.8809C24.8183 79.8809 23.1599 83.3184 24.8704 84.1188C26.5808 84.9191 37.8158 84.8509 38.8885 84.5314C39.9612 84.2119 39.0314 83.8196 38.7497 82.3307C38.2206 79.5338 38.5745 80.883 38.6109 79.9925C39.133 67.2185 37.917 61.9743 37.7935 60.5959L35.6759 56.7898L34.4267 54.7267Z" fill="#3F3D56"/>
<path d="M56.3726 65.026C55.9387 65.8409 54.9203 66.1528 54.0981 65.7227C54.0104 65.6769 53.927 65.6235 53.8488 65.5631L44.8567 71.2212L44.8826 68.1406L53.6178 63.1171C54.24 62.4258 55.3099 62.3652 56.0075 62.9818C56.5912 63.4978 56.7422 64.3429 56.3726 65.026Z" fill="#A0616A"/>
<path d="M31.1392 58.2943L30.1155 58.1868C29.1695 58.0895 28.2415 58.491 27.6703 59.2445C27.4515 59.5302 27.2944 59.8575 27.2086 60.206L27.208 60.2088C26.9512 61.2577 27.354 62.357 28.2301 62.9983L31.7659 65.5817C34.2473 68.9043 38.9107 71.1087 44.3809 72.8996L52.8836 67.6665L49.8762 64.0569L44.0441 67.1544L35.3751 60.5041L35.3701 60.5001L32.0706 58.3935L31.1392 58.2943Z" fill="#3F3D56"/>
<path d="M33.0199 52.7005C35.7016 52.7005 37.8755 50.5461 37.8755 47.8886C37.8755 45.2311 35.7016 43.0768 33.0199 43.0768C30.3382 43.0768 28.1643 45.2311 28.1643 47.8886C28.1643 50.5461 30.3382 52.7005 33.0199 52.7005Z" fill="#A0616A"/>
<path d="M33.1321 52.7015C33.0929 52.7028 33.0537 52.7036 33.0145 52.7047C32.9977 52.7478 32.9796 52.7906 32.9587 52.8325L33.1321 52.7015Z" fill="#2F2E41"/>
<path d="M34.4646 48.0221C34.4722 48.0695 34.4839 48.1162 34.4994 48.1617C34.493 48.114 34.4813 48.0672 34.4646 48.0221Z" fill="#2F2E41"/>
<path d="M37.9374 43.2827C37.7375 43.8977 37.5591 43.1176 36.9017 43.2579C36.1108 43.4267 35.1904 43.3687 34.5427 42.8883C33.5777 42.1866 32.327 41.9977 31.1948 42.3826C30.0866 42.7711 28.2298 43.0451 27.9411 44.1744C27.8407 44.5669 27.8008 44.9929 27.5575 45.3183C27.3448 45.6027 27.009 45.7649 26.7283 45.9838C25.7802 46.723 26.5048 48.8231 26.9535 49.9328C27.4022 51.0424 28.4315 51.8508 29.5631 52.2649C30.658 52.6655 31.8464 52.7362 33.0144 52.7047C33.2176 52.1826 33.1298 51.5795 32.9622 51.0382C32.7807 50.4522 32.512 49.8867 32.4362 49.2783C32.3604 48.67 32.5269 47.979 33.0416 47.6391C33.5147 47.3267 34.2846 47.517 34.4646 48.0221C34.3596 47.3906 35.0051 46.7795 35.6707 46.672C36.3854 46.5566 37.1 46.8123 37.8126 46.9396C38.5252 47.0669 38.2722 44.0939 37.9374 43.2827Z" fill="#2F2E41"/>
<path d="M65.0935 55.8484C65.5461 50.4285 61.4794 45.6711 56.0102 45.2225C50.541 44.774 45.7404 48.804 45.2877 54.224C44.8351 59.6439 48.9018 64.4013 54.371 64.8498C59.8402 65.2984 64.6409 61.2683 65.0935 55.8484Z" fill="#B02614"/>
<path d="M57.8008 50.9332L55.1906 53.5199L52.5804 50.9332C52.1579 50.5145 51.4728 50.5145 51.0503 50.9332C50.6278 51.3519 50.6278 52.0308 51.0503 52.4495L53.6605 55.0362L51.0503 57.6229C50.6282 58.042 50.6288 58.7209 51.0517 59.1392C51.4741 59.557 52.1581 59.557 52.5804 59.1392L55.1906 56.5525L57.8008 59.1392C58.2237 59.5575 58.9088 59.5569 59.3309 59.1378C59.7525 58.7192 59.7525 58.0414 59.3309 57.6229L56.7207 55.0362L59.3309 52.4495C59.7534 52.0308 59.7534 51.3519 59.3309 50.9332C58.9084 50.5145 58.2233 50.5145 57.8008 50.9332Z" fill="white"/>
<path d="M51.2749 46.7596C51.5678 47.634 51.09 48.5782 50.2076 48.8684C50.1135 48.8994 50.0168 48.922 49.9187 48.9361L47.8135 59.2836L45.5883 57.1323L47.9777 47.408C47.9051 46.4845 48.6017 45.6774 49.5336 45.6055C50.3134 45.5452 51.0333 46.0224 51.2749 46.7596Z" fill="#A0616A"/>
<path d="M28.9039 60.1436L28.1169 60.8013C27.3912 61.4104 27.041 62.352 27.1943 63.2821C27.2509 63.6364 27.3804 63.9753 27.5748 64.2779L27.5764 64.2803C28.1624 65.1901 29.2417 65.6631 30.3152 65.4806L34.6442 64.7406C38.7815 65.2664 43.6152 63.4577 48.7063 60.7858L50.7822 51.0825L46.0718 50.7342L44.2897 57.0491L33.4455 58.6444L33.4392 58.6452L29.621 59.5462L28.9039 60.1436Z" fill="#3F3D56"/>
<path d="M53.5536 126.941L0.730698 127C0.602875 127 0.499587 126.897 0.500001 126.77C0.500411 126.644 0.603456 126.542 0.730698 126.541L53.5536 126.482C53.6814 126.483 53.7847 126.586 53.7843 126.712C53.7839 126.838 53.6808 126.94 53.5536 126.941Z" fill="#CACACA"/>
<path d="M11.5363 17.4721C12.4441 17.4721 13.1801 16.7265 13.1801 15.8068C13.1801 14.8871 12.4441 14.1415 11.5363 14.1415C10.6284 14.1415 9.89246 14.8871 9.89246 15.8068C9.89246 16.7265 10.6284 17.4721 11.5363 17.4721Z" fill="#3F3D56"/>
<path d="M17.2148 17.4721C18.1227 17.4721 18.8586 16.7265 18.8586 15.8068C18.8586 14.8871 18.1227 14.1415 17.2148 14.1415C16.307 14.1415 15.571 14.8871 15.571 15.8068C15.571 16.7265 16.307 17.4721 17.2148 17.4721Z" fill="#3F3D56"/>
<path d="M22.8934 17.4721C23.8013 17.4721 24.5372 16.7265 24.5372 15.8068C24.5372 14.8871 23.8013 14.1415 22.8934 14.1415C21.9856 14.1415 21.2496 14.8871 21.2496 15.8068C21.2496 16.7265 21.9856 17.4721 22.8934 17.4721Z" fill="#3F3D56"/>
<path d="M29.3685 17.123C29.318 17.123 29.2676 17.1036 29.2295 17.0651L28.1204 15.9415C28.0465 15.8666 28.0465 15.747 28.1204 15.6721L29.2295 14.5486C29.3048 14.4726 29.428 14.4714 29.5044 14.5456C29.5812 14.62 29.5825 14.742 29.5074 14.818L28.5313 15.8068L29.5074 16.7957C29.5825 16.8717 29.5812 16.9937 29.5044 17.0681C29.4666 17.1048 29.4176 17.123 29.3685 17.123Z" fill="#3F3D56"/>
<path d="M31.2324 17.123C31.1833 17.123 31.1342 17.1048 31.0964 17.0681C31.0197 16.9937 31.0183 16.8718 31.0934 16.7957L32.0695 15.8068L31.0934 14.818C31.0183 14.742 31.0197 14.62 31.0964 14.5456C31.173 14.4711 31.2962 14.4725 31.3713 14.5486L32.4804 15.6721C32.5543 15.747 32.5543 15.8666 32.4804 15.9415L31.3713 17.0651C31.3332 17.1037 31.2829 17.123 31.2324 17.123Z" fill="#3F3D56"/>
<path d="M89.2567 14.3343H87.1944C86.9592 14.3343 86.7687 14.5231 86.7687 14.7562V16.8019C86.7687 17.035 86.9592 17.2238 87.1944 17.2238H89.2567C89.4919 17.2238 89.6844 17.035 89.6844 16.8019V14.7562C89.6844 14.5231 89.4919 14.3343 89.2567 14.3343Z" fill="#3F3D56"/>
<path d="M84.2029 14.3343H82.1405C81.9053 14.3343 81.7148 14.5231 81.7148 14.7562V16.8019C81.7148 17.035 81.9053 17.2238 82.1405 17.2238H84.2029C84.4381 17.2238 84.6306 17.035 84.6306 16.8019V14.7562C84.6306 14.5231 84.4381 14.3343 84.2029 14.3343Z" fill="#3F3D56"/>
<path d="M94.0191 14.4306H91.9567C91.7215 14.4306 91.531 14.6194 91.531 14.8525V16.8982C91.531 17.1313 91.7215 17.3201 91.9567 17.3201H94.0191C94.2543 17.3201 94.4467 17.1313 94.4467 16.8982V14.8525C94.4467 14.6194 94.2543 14.4306 94.0191 14.4306Z" fill="#3F3D56"/>
<path d="M62.9335 15.2089H46.4481C46.1604 15.2089 45.9291 15.44 45.9291 15.7232C45.9291 16.0064 46.1604 16.2375 46.4481 16.2375H62.9335C63.2192 16.2375 63.4525 16.0064 63.4525 15.7232C63.4525 15.44 63.2192 15.2089 62.9335 15.2089Z" fill="#3F3D56"/>
</g>
<defs>
<clipPath id="clip0_4_54">
<rect width="114" height="127" fill="white" transform="translate(0.5)"/>
</clipPath>
</defs>
</svg>
