<?xml version="1.0" encoding="utf-8"?>
<!-- Generator: Adobe Illustrator 16.0.0, SVG Export Plug-In . SVG Version: 6.00 Build 0)  -->
<!DOCTYPE svg PUBLIC "-//W3C//DTD SVG 1.1//EN" "http://www.w3.org/Graphics/SVG/1.1/DTD/svg11.dtd">
<svg version="1.1" id="Camada_1" xmlns="http://www.w3.org/2000/svg" xmlns:xlink="http://www.w3.org/1999/xlink" x="0px" y="0px"
	 width="1080px" height="1080px" viewBox="0 0 1080 1080" enable-background="new 0 0 1080 1080" xml:space="preserve">
<g>
	<path fill="#FFFFFF" d="M635.168,878.188c5.984,0,10.495-4.668,10.495-10.855c0-6.072-4.034-10.311-9.813-10.311h-0.135
		c-4.473,0-10.771,3.367-10.771,10.854C624.946,875.488,630.452,878.188,635.168,878.188"/>
	<path fill="#FFFFFF" d="M371.979,866.578c-2.273,0.299-3.59,1.059-3.59,4.041V909c0,24.992-9.081,28.361-17.962,28.361
		c-7.83,0-18.238-2.84-18.238-27.404v-35.252c0-6.43-0.3-8.678-3.656-8.678c-3.12,0-14.093,0.676-16.905,1.094l-0.477,0.07
		l0.047,0.482c0.274,2.881,0.408,8.611,0.408,17.516v25.584c0,29.168,12.325,43.959,36.631,43.959
		c17.273,0,37.862-8.053,37.862-46.41v-19.469c0-11.809,0.151-17.117,0.411-22.293l0.026-0.533h-0.532
		C383.343,866.027,376.123,866.164,371.979,866.578"/>
	<path fill="#FFFFFF" d="M448.543,878.619c7.965,0,14.096,2.105,17.041,3.361l0.133,0.035c2.13,0.283,4.095-0.371,5.686-1.889
		c2.058-1.963,3.221-5.23,2.964-8.322l-0.016-0.172l-0.112-0.127c-2.105-2.355-12.109-6.977-25.695-6.977
		c-30.149,0-49.63,17.082-49.63,43.52c0,28.359,19.32,46.684,49.222,46.684c8.629,0,15.597-4.461,19.341-6.857l0.498-0.314
		l0.076-0.061c2.724-2.568,4.528-6.939,5.082-12.303l0.036-0.35l-1.039-0.516l-1.067,0.301c-3.518,1.002-10.065,2.865-18.686,2.865
		c-19.226,0-31.649-12.041-31.649-30.672C420.727,883.514,435.853,878.619,448.543,878.619"/>
	<path fill="#FFFFFF" d="M609.018,918.328l-6.57-47.369l-0.001-0.004c-0.539-3.639-1.423-4.928-3.374-4.928
		c-3.464,0-14.723,0.777-17.099,2.256l-0.239,0.148v1.951c-5.664,13.689-13.777,33.992-19.473,49.283l-17.443-46.625
		c-1.986-5.668-2.905-7.186-5.542-7.014c-7.019,0-12.202,1.131-15.985,1.955l-1.545,0.332l0.322,2.568
		c-3.85,23.191-7.492,46.605-10.153,63.707c-0.91,5.846-1.687,10.834-2.287,14.637l-0.056,0.35l0.309,0.174
		c2.297,1.285,9.933,3.756,14.344,3.756c1.928,0,2.692-2.965,3.103-5.225c1.885-15.377,4.853-43.252,6.34-59.428
		c2.378,7.596,5.629,17.857,8.783,27.816c4.54,14.33,8.827,27.863,10.434,33.193l0.108,0.361h0.377c2.7,0,5.909-0.361,9.814-1.1
		c3.571-0.711,4.974-1.904,5.992-5.105c6.795-20.387,14.153-42.631,18.001-55.371l2.632,28.297
		c1.282,14.422,2.093,22.334,2.743,28.688l0.13,1.27c0.284,3.119,2.317,6.604,4.612,6.604c2.733,0,11.145-2.375,14.736-3.391
		l1.575-0.441l-0.075-0.451C612.308,941.934,610.747,931.252,609.018,918.328"/>
	<path fill="#FFFFFF" d="M643.418,888.209c-3.346,0-13.244,0.824-16.826,1.785l-0.42,0.111l0.047,0.434
		c0.233,2.213,0.544,6.199,0.544,15.195v23.285c0,7.307-0.231,16.727-0.369,22.355l-0.052,2.131h0.52
		c7.172,0,12.167-0.184,14.836-0.549c3.761-0.432,5.1-3.645,5.1-6.508v-49.156C646.797,889.566,646.293,888.209,643.418,888.209"/>
	<path fill="#FFFFFF" d="M720.965,929.154v-16.066c0-16.811-7.32-25.697-21.168-25.697c-6.681,0-12.969,4.064-18.302,8.199
		c-1.412-5.443-4.552-8.199-9.339-8.199c-5.345,0-10.601,4.414-11.975,8.375l-0.027,1.537l0.238,0.148
		c1.854,1.154,2.362,2.525,2.362,6.379v22.193c0,7.188-0.127,18.311-0.411,26.957l-0.018,0.525h0.525
		c3.608,0,6.818-0.959,9.922-1.887c2.092-0.627,4.069-1.217,6.151-1.537c3.358-0.434,3.865-1.266,3.865-3.906v-40.449
		c2.744-1.939,5.094-3.297,9.479-3.297c5.1,0,8.662,4.271,8.662,10.387v34.857c0,2.422,1.134,5.832,3.655,5.832
		c4.409,0,8.526-1.318,11.831-2.375c1.823-0.582,3.397-1.086,4.496-1.18l0.487-0.045l-0.024-0.49
		C721.126,944.576,720.965,936.625,720.965,929.154"/>
	<path fill="#FFFFFF" d="M789.31,937.24c-0.487,0.121-1.437,0.121-2.065,0.121c-3.014,0-4.419-1.564-4.419-2.623
		c0-5.111,0.173-10.172,0.324-14.633c0.12-3.543,0.223-6.602,0.223-9.061c0-16.338-11.868-23.654-23.632-23.654
		c-9.446,0-19.631,4.615-26.009,8.938l-0.216,0.145l-0.008,0.262c-0.052,1.709,0.118,5.924,2.838,8.086
		c1.559,1.236,3.625,1.523,6.223,0.832l0.352-0.156c2.668-1.199,7.134-3.203,11.482-3.203c5.927,0,9.755,3.438,9.755,8.752v1.209
		c-1.595,0.289-4.304,0.779-6.574,1.154c-9.226,1.975-26.401,5.65-26.401,20.24c0,10.82,8.655,20.676,18.159,20.676
		c5.661,0,10.906-4.621,15.335-9.311c1.95,3.752,5.879,9.311,12.033,9.311c9.868,0,13.369-8.645,13.369-16.045l-0.277-1.158
		L789.31,937.24z M763.884,931.332c0,2.207-0.332,3.535-1.051,4.377c-1.752,1.477-3.05,1.926-5.556,1.926
		c-3.562,0-7.156-2.031-7.156-6.574v-0.135c0-1.596,1.004-6.855,13.763-8.285V931.332z"/>
	<path fill="#FFFFFF" d="M830.735,914.824l-0.02-0.012c-0.924-0.459-2.19-1.059-3.552-1.703c-2.673-1.264-5.704-2.699-7.224-3.59
		c-2.729-1.627-4.403-2.734-4.403-4.873c0-2.221,2.215-3.715,5.513-3.715c2.899,0,6.082,0.709,8.959,2l0.169,0.043
		c1.841,0.137,3.417-0.422,4.678-1.672c2.278-2.256,2.884-6.082,2.71-8.674l-0.016-0.238l-0.194-0.139
		c-4.616-3.316-9.71-4.861-16.032-4.861h-0.138c-11.448,0-23.769,6.381-23.769,20.389c0,6.613,3.531,12.479,9.715,16.105
		c1.836,0.947,3.635,1.861,5.401,2.758c1.793,0.906,3.549,1.799,5.267,2.686c3.649,1.959,4.383,3.365,4.383,5
		c0,2.496-2.317,3.986-6.197,3.986c-6.772,0-13.446-3.799-15.33-4.961l-0.33-0.203l-0.283,0.262
		c-1.984,1.846-3.992,5.605-3.992,9.223c0,2.785,1.988,4.396,3.945,5.611l1.156,0.682c3.85,2.275,9.123,5.396,13.603,5.396
		c12.828,0,26.099-8.803,26.099-23.535C840.852,923.818,837.542,918.596,830.735,914.824"/>
	<path fill="#FFFFFF" d="M263.438,866.217c-10.269,0-20.068,1.098-23.834,1.791l-0.455,0.084l0.041,0.461
		c0.55,6.297,0.55,11.951,0.55,18.5v62.232c0,2.641,1.34,5.447,3.822,5.447c3.753,0,14.349-0.395,16.975-1.121l0.393-0.107
		l-0.021-0.406c-0.273-5.482-0.414-11.758-0.414-18.648v-9.748c3.918,0.328,8.383-0.566,11.385-1.168
		c12.229-2.457,20.773-8.096,25.4-16.752c2.306-4.311,3.522-9.184,3.522-14.09C300.802,869.424,282.844,866.217,263.438,866.217
		 M265.37,908.668c-0.503,0-2.71-0.088-4.876-0.18v-28.973c1.396-0.197,3.031-0.197,4.048-0.197c7.325,0,14.814,1.559,14.814,13.1
		C279.357,906.557,270.594,908.668,265.37,908.668"/>
	<path fill="#FFFFFF" d="M753.038,829.938c13.289,0,24.779-6.713,36.954-13.826c13.541-7.914,27.545-16.096,45.651-16.096
		c2,0,3.818-1.182,4.633-3.008c0.813-1.824,0.469-3.965-0.871-5.447l-20.614-22.779l14.592-31.746
		c0.761-1.652,0.574-3.596-0.494-5.074c-1.063-1.471-2.854-2.264-4.792-2.057c-4.599,0.477-25.376,3.496-39.044,13.027
		c-0.066-18.439-1.16-27.074-1.176-27.193c-0.016-0.102-0.023-0.203-0.023-0.303c0-5.422-10.756-6.463-10.861-6.471
		c-18.013-1.459-36.874,0.838-57.657,7.027c-18.653,5.555-37.077,13.643-54.896,21.463c-8.308,3.646-16.896,7.422-25.492,10.922
		c-31.545,12.842-62.929,19.084-95.945,19.084c-33.004,0-64.38-6.242-95.92-19.084c-8.5-3.463-17.101-7.238-25.418-10.889
		l-0.126-0.055c-17.805-7.814-36.218-15.895-54.849-21.445c-20.822-6.197-39.681-8.49-57.654-7.025
		c-0.107,0.012-10.864,1.068-10.864,6.473c0,0.102-0.005,0.205-0.02,0.309c-0.017,0.123-1.3,9.852-1.183,31.447
		c-15.059-11.117-44.835-14.463-46.103-14.602c-1.431-0.156-2.834,0.469-3.675,1.635c-0.841,1.164-0.989,2.693-0.389,3.998
		l15.537,33.813l-22.021,24.336c-1.06,1.168-1.329,2.855-0.688,4.295c0.642,1.441,2.073,2.371,3.654,2.371
		c19.192,0,33.923,8.607,48.167,16.932c12.511,7.311,24.327,14.217,37.818,14.217c17.682,0,26.147-8.416,26.692-16.752
		c0.043-0.645,0.021-1.273-0.027-1.893c0.079-0.941,0.143-2.104,0.181-2.836c0.366-6.992,1.035-17.203,1.271-24.916
		c0.253-2.678,0.436-5.189,0.44-7.406c13.136,4.068,25.724,8.982,37.461,13.754c45.052,18.32,93.567,36.205,147.709,36.205
		c24.042,0,48.742-3.527,75.511-10.785c25.679-6.961,50.921-16.756,72.225-25.42c11.426-4.643,23.645-9.42,36.344-13.408
		c-0.059,1.74-0.176,3.896-0.309,6.328c-0.293,5.332-0.646,11.811-0.518,17.059c-0.137,3.309-0.126,7.924-0.084,8.582
		c0.313,4.762,3.109,9.258,7.673,12.338C738.597,828.244,745.236,829.938,753.038,829.938 M787.801,779.578
		c0,0,4.97,8.289-19.807,15.197c-3.299,0.816-7.096,1.701-11.493,2.721c-0.142,0.031-0.289,0.059-0.432,0.086
		c-1.003,0.205-2.028,0.402-3.093,0.602c-6.242,1.164-22.682,5.432-22.682,5.432c0.088-10.152,0.771-15.158,1.037-24.18
		c0.688-0.205,1.371-0.418,2.063-0.617c4.671-1.348,9.189-2.502,13.612-3.424c18.869-3.941,31.686-4.959,38.018,0.607
		C786.147,776.986,787.09,778.156,787.801,779.578 M343.949,825.818c-5.123,2.533-11.18,2.92-16.795,2.631
		c-26.983-1.393-44.623-30.871-82.114-30.871l21.961-25.238l-15.293-35.879c0,0,18.254,4.006,24.365,6.064
		c7.721,2.602,17.801,6.25,20.936,8.932c0.035,2.639,0.091,5.439,0.172,8.395c0.015,1.049,0.035,2.125,0.059,3.221
		c0.04,3.066,0.059,6.432,0.19,9.637c-1.238,1.055-2.618,2.576-3.382,4.75c-1.667,4.74-0.291,9.889,2.703,13.787
		c3.96,5.152,11.129,7.426,17.034,9.479c7.366,2.561,14.949,4.5,22.643,5.791c5.582,0.938,13.593,2.523,14.34,9.406
		C351.258,820.438,347.702,823.961,343.949,825.818 M352.644,808.068c-1.499-1.605-3.439-2.859-5.706-3.625
		c-0.801-0.344-1.685-0.617-2.658-0.803c-11.083-2.117-23.2-5.156-32.172-8.643c-5.604-2.18-9.984-4.531-12.107-6.943
		c-2.294-2.605-2.473-5.33-2.473-5.33c-0.035-0.508-0.01-0.982,0.045-1.418c0.154-1.217,0.563-2.123,0.741-2.504
		c1.773-3.793,6.198-5.424,8.37-6.119c2.124-0.4,4.395-0.623,6.701-0.623c0.648,0,1.267,0.02,1.85,0.051
		c11.774,0.654,24.007,2.848,37.398,6.707c0.668,0.191,1.325,0.4,1.988,0.596C354.539,784.002,354.186,790.504,352.644,808.068
		 M689.454,791c-21.213,8.627-46.335,18.377-71.833,25.287c-26.474,7.18-50.883,10.668-74.622,10.668
		c-53.525,0-101.687-17.762-146.43-35.955c-13.362-5.434-27.82-11.066-42.995-15.438c-4.258-1.225-8.394-2.277-12.445-3.178
		c-7.437-1.648-14.566-2.766-21.517-3.357c-3.778-0.449-7.299-0.627-10.433-0.439c-3.195,0.189-5.99,0.758-8.242,1.814
		c-1.575-37.35,0.552-54.035,0.573-54.199c0.034-0.252,0.052-0.508,0.052-0.768c0-1.234,4.439-2.816,7.752-3.096
		c17.603-1.414,36.056,0.84,56.407,6.898c18.442,5.492,36.772,13.537,54.499,21.316l0.109,0.049
		c8.321,3.652,16.926,7.428,25.475,10.908c31.955,13.012,63.756,19.336,97.222,19.336c33.444,0,65.24-6.324,97.2-19.336
		c8.554-3.48,17.146-7.254,25.454-10.9l0.124-0.053c17.719-7.779,36.04-15.824,54.498-21.318c20.371-6.07,38.824-8.324,56.412-6.9
		c3.239,0.275,7.748,1.885,7.748,3.096c0,0.24,0.017,0.494,0.053,0.758c0.016,0.121,1.262,9.805,1.147,31.045
		c-0.036,6.674-0.205,14.475-0.59,23.494c-0.472-0.176-0.92-0.354-1.362-0.521c-1.544-0.6-2.955-1.135-4.521-1.373
		c-2.723-0.654-6.256-0.684-9.745-0.684c-8.36,0.508-18.333,2.605-29.752,5.471c-2.382,0.598-4.787,1.23-7.239,1.938
		C717.307,779.928,702.837,785.563,689.454,791 M730.399,813.652c-0.557-3.152,0.723-5.908,3.673-7.178
		c1.762-0.76,6.288-2.078,8.092-2.416c6.474-1.217,38.82-7.627,46.17-14.352c4.337-3.949,6.267-10.9,1.266-15.297
		c-0.385-0.336-0.817-0.664-1.008-1.139c-0.14-0.348-0.132-0.734-0.121-1.111c0.227-8.311,0.538-16.629,0.579-24.943
		c13.252-8.861,33.549-13.229,38.075-13.697c0.911-0.092,1.853,0.311,2.403,1.07s0.646,1.76,0.254,2.613l-16.289,32.236
		l21.469,22.188c0.69,0.766,0.869,1.869,0.447,2.807c-0.417,0.943-1.355,1.553-2.387,1.553c-18.772,0-30.037,7.299-43.871,15.383
		c-11.869,6.936-23.078,13.484-35.704,13.484c-7.311,0-13.474-1.549-17.819-4.48C733.224,818.75,730.925,816.627,730.399,813.652"/>
	<path fill="#FFFFFF" d="M354.133,758.553c-0.489-0.139-0.734-0.207-1.228-0.346c-0.229,4.73-1.355,5.611-3.914,4.92
		c-1.991-0.535-2.999-0.799-5.039-1.318c-2.296-0.582-2.936-0.83-2.971-4.264c-0.054-5.459-0.014-8.242,0.041-13.785
		c2.248,0.541,3.355,0.82,5.54,1.396c2.711,0.711,3.651,2.973,3.641,6.313c0.497,0.137,0.746,0.205,1.24,0.342
		c0.017-5.191,0.055-7.797,0.063-12.986c-0.492-0.143-0.739-0.213-1.234-0.352c-0.27,1.965-0.573,4.588-3.687,3.768
		c-2.185-0.578-3.288-0.859-5.536-1.402c0.044-4.943,0.072-7.418,0.017-12.287c-0.033-2.941,0.563-3.037,2.842-2.465
		c1.423,0.355,2.127,0.541,3.521,0.914c2.948,0.791,4.822,2.617,4.853,7.549c0.49,0.143,0.735,0.213,1.221,0.357
		c-0.077-3.66-0.129-5.494-0.302-9.139c-8.299-2.441-12.635-3.531-22.032-5.277c0.018,0.52,0.025,0.779,0.04,1.305
		c4.537,1.744,4.675,1.768,4.704,7.836c0.063,13.166-0.422,20.227,0.011,33.051c7.63,1.77,11.248,2.732,18.25,4.754
		C354.106,763.891,354.108,762.113,354.133,758.553"/>
	<path fill="#FFFFFF" d="M379.383,735.383c-1.137-0.514-1.708-0.77-2.854-1.275c-2.377,5.475-3.682,8.074-6.355,13.412
		c-2.362-7.373-3.531-11.111-6.123-18.598c-3.073-1.189-4.635-1.766-7.829-2.877c-0.002,0.543-0.004,0.813-0.008,1.354
		c3.418,1.936,3.854,2.988,5.261,7.117c2.125,6.338,3.118,9.5,5.14,15.785c-3.69,7.072-5.659,10.721-9.25,17.99
		c1.194,0.41,1.786,0.613,2.964,1.029c2.931-6.186,4.513-9.26,7.553-15.266c2.551,8.154,3.815,12.154,6.598,20.506
		c2.021,0.783,3.023,1.18,5.02,1.973c-3.473-10.391-5.011-15.258-8.183-25.363C374.713,744.865,376.383,741.852,379.383,735.383"/>
	<path fill="#FFFFFF" d="M405.095,749.971c3.466,1.701,4.341,6.209,4.552,8.227c1.852,0.883,2.78,1.328,4.657,2.211
		c-0.482-4.828-2.979-10.283-8.917-13.203c-8.486-4.174-10.419,4.422-10.531,15.123c-0.139,12.957,3.005,22.441,11.021,25.771
		c3.87,1.611,7.04,1.229,8.018,1.014c-0.027-1.578-0.041-2.352-0.063-3.869c-1.012,0.705-3.392,1.842-6.796,0.426
		c-7.548-3.143-8.006-16.439-7.964-22.861C399.111,756.904,399.877,747.41,405.095,749.971"/>
	<path fill="#FFFFFF" d="M428.09,754.709c-8.962-3.971-10.979,3.258-10.895,15.031c0.087,11.715,2.773,20.975,11.521,24.314
		c8.622,3.293,11.347-4.01,11.201-14.992C439.772,767.924,436.682,758.516,428.09,754.709 M428.656,791.139
		c-6.303-2.412-6.999-12.777-7.065-19.49c-0.07-7.309,0.164-16.852,6.563-14.021c6.274,2.779,6.924,12.75,7.016,19.609
		C435.258,783.941,435.082,793.596,428.656,791.139"/>
	<path fill="#FFFFFF" d="M466.433,779.785c-0.03-9.383-9.986-13.301-13.55-14.541c-4.677-1.631-6.928-2.471-11.299-4.191
		c0.01,0.553,0.014,0.824,0.022,1.363c4.144,2.547,4.291,2.793,4.36,8.262c0.153,11.865,0.166,15.549,0.363,29.025
		c1.968,0.662,2.963,0.988,4.98,1.639c-0.085-7.813-0.113-10.799-0.171-17.1c1.149,0.387,1.729,0.578,2.898,0.961
		c3.383,7.355,5.105,10.752,8.547,19.582c2.234,0.646,3.226,0.924,5.38,1.496c-3.474-9.215-5.171-12.664-8.768-20.332
		C463.032,786.492,466.452,785.762,466.433,779.785 M453.785,782.764c-1.074-0.357-1.609-0.539-2.668-0.9
		c-0.033-3.605-0.049-5.383-0.089-9.287c-0.039-3.953-0.085-5.131,3.118-4.029c4.012,1.381,7.131,4.363,7.14,10.016
		C461.295,784.426,456.848,783.777,453.785,782.764"/>
	<path fill="#FFFFFF" d="M482.559,773.676c-5.301-1.078-7.906-1.693-12.996-3.082c0.002,0.555,0.004,0.828,0.006,1.367
		c4.231,2.076,4.404,2.34,4.437,7.705c0.073,11.648,0.116,14.809,0.185,28.369c2.81,0.682,4.219,1.002,7.053,1.605
		c9.265,1.971,17.359,0.359,17.347-15.189C498.577,780.523,491.646,775.523,482.559,773.676 M482.652,807.053
		c-3.283-0.676-3.288-2.326-3.302-4.484c-0.068-10.178-0.113-13.314-0.182-23.611c-0.019-2.641,1.108-2.855,3.886-2.297
		c8.998,1.818,10.137,8.391,10.175,17.102C493.273,803.701,491.315,808.836,482.652,807.053"/>
	<path fill="#FFFFFF" d="M500.107,778.191c4.527,1.598,4.682,1.865,4.524,7.252c-0.342,11.689-0.412,14.699-0.827,28.424
		c7.724,1.076,11.62,1.473,19.453,1.979c0.233-3.738,0.343-5.393,0.554-8.535c-0.554-0.035-0.83-0.053-1.384-0.086
		c-0.495,4.207-1.885,5.5-4.681,5.266c-2.178-0.182-3.266-0.285-5.434-0.514c-2.442-0.256-3.064-0.564-2.958-3.713
		c0.172-5.02,0.243-7.129,0.391-11.521c2.393,0.266,3.593,0.389,5.998,0.602c2.983,0.266,4.015,1.883,3.894,4.609
		c0.555,0.039,0.834,0.061,1.392,0.1c0.192-4.242,0.281-6.172,0.478-10.463c-0.562-0.037-0.843-0.057-1.406-0.098
		c-0.376,1.664-0.825,3.836-4.264,3.531c-2.412-0.211-3.614-0.332-6.011-0.598c0.132-3.936,0.198-5.873,0.351-10.381
		c0.094-2.719,0.754-2.953,3.27-2.715c1.571,0.148,2.358,0.217,3.937,0.342c3.333,0.266,5.404,1.82,5.205,6.146
		c0.566,0.035,0.85,0.051,1.415,0.082c0.093-3.205,0.141-4.891,0.256-8.713c-9.76-0.521-14.623-0.992-24.115-2.379
		C500.127,777.369,500.12,777.645,500.107,778.191"/>
	<path fill="#FFFFFF" d="M542.907,782.533c4.657,0.779,4.8,1.047,4.554,6.516c-0.532,11.871-0.734,14.74-1.313,28.809
		c7.909-0.332,11.878-0.641,19.813-1.545c0.25-3.848,0.369-5.537,0.604-8.742c-0.557,0.064-0.835,0.096-1.393,0.162
		c-0.532,4.332-1.943,5.902-4.779,6.168c-2.21,0.211-3.313,0.303-5.522,0.469c-2.485,0.188-3.124-0.016-2.97-3.223
		c0.244-5.109,0.356-7.232,0.586-11.666c2.43-0.166,3.644-0.262,6.068-0.477c3.006-0.27,4.015,1.168,3.858,3.928
		c0.562-0.059,0.841-0.09,1.4-0.15c0.241-4.293,0.358-6.227,0.602-10.574c-0.561,0.061-0.841,0.092-1.404,0.148
		c-0.395,1.74-0.865,3.996-4.327,4.307c-2.428,0.217-3.643,0.314-6.076,0.48c0.204-3.973,0.306-5.928,0.524-10.52
		c0.132-2.768,0.806-3.131,3.334-3.344c1.58-0.131,2.369-0.201,3.942-0.354c3.327-0.322,5.358,0.9,5.12,5.297
		c0.561-0.066,0.842-0.098,1.401-0.164c0.118-3.246,0.179-4.961,0.313-8.871c-9.594,1.172-14.492,1.564-24.279,1.934
		C542.94,781.695,542.929,781.977,542.907,782.533"/>
	<path fill="#FFFFFF" d="M586.061,778.557c4.405-0.848,5.207,3.066,5.365,4.863c2.305-0.488,3.452-0.746,5.728-1.283
		c-0.356-4.354-2.984-8.225-10.516-6.754c-10.765,2.107-14.121,12.08-14.657,21.307c-0.647,11.172,2.853,19.395,13.038,17.533
		c4.919-0.898,9.009-3.586,10.269-4.508c0.061-1.652,0.091-2.439,0.148-3.955c-1.321,1.412-4.425,4.268-8.738,5.086
		c-9.566,1.818-9.512-10.602-9.194-16.207C577.797,789.48,579.427,779.83,586.061,778.557"/>
	<path fill="#FFFFFF" d="M612.856,771.863c4.047-1.268,4.92,2.572,5.15,4.346c2.066-0.709,3.101-1.072,5.168-1.809
		c-0.521-4.305-3.026-7.967-9.898-5.779c-9.822,3.129-12.885,13.48-13.179,22.715c-0.357,11.184,3.299,19.102,13.409,16.186
		c4.883-1.404,8.15-4.313,9.236-5.326c-0.002-1.68-0.005-2.475-0.012-4.006c-1.123,1.516-3.436,4.508-7.69,5.771
		c-9.439,2.805-9.789-9.613-9.676-15.217C605.471,783.588,606.76,773.771,612.856,771.863"/>
	<path fill="#FFFFFF" d="M645.13,786.732c0.092,5.365-2.363,6.895-5.14,7.947c-1.514,0.578-2.271,0.863-3.783,1.422
		c-2.942,1.092-2.928,0.865-2.969-3.502c-0.124-13.082-0.405-15.643-0.508-30.754c-3.6,1.941-5.402,2.902-9.006,4.781
		c0.002,0.578,0.003,0.865,0.006,1.424c4.172-0.648,4.295-0.422,4.358,4.287c0.163,12.131,0.382,14.828,0.367,29.674
		c7.095-2.455,10.672-3.809,17.859-6.617c0.048-4.047,0.054-5.816,0.047-9.15C645.87,786.438,645.623,786.537,645.13,786.732"/>
	<path fill="#FFFFFF" d="M668.403,777.275c-0.121,4.57-1.331,6.572-3.873,7.617c-1.981,0.813-2.973,1.219-4.949,2.025
		c-2.227,0.908-2.793,0.887-2.857-2.48c-0.102-5.355-0.195-7.549-0.387-12.027c2.127-0.871,3.191-1.307,5.322-2.184
		c2.644-1.09,3.703,0.064,3.828,2.883c0.496-0.205,0.744-0.307,1.24-0.512c-0.201-4.383-0.33-6.314-0.569-10.531
		c-0.49,0.201-0.734,0.299-1.226,0.5c-0.169,1.768-0.358,4.07-3.389,5.316c-2.126,0.873-3.188,1.311-5.309,2.176
		c-0.177-3.973-0.275-5.887-0.438-10.334c-0.097-2.682,0.462-3.213,2.623-4.066c1.348-0.533,2.023-0.801,3.373-1.334
		c2.857-1.129,4.721-0.494,4.945,3.691c0.487-0.197,0.732-0.299,1.221-0.496c-0.223-3.066-0.331-4.66-0.519-8.262
		c-8.283,3.215-12.408,4.85-20.648,8.016c0.01,0.568,0.015,0.846,0.025,1.396c3.981-0.598,4.103-0.381,4.283,4.996
		c0.398,11.67,0.767,14.574,0.809,29.521c7.088-2.828,10.65-4.307,17.796-7.238c0.018-4.068,0.002-5.85-0.057-9.189
		C669.15,776.965,668.901,777.07,668.403,777.275"/>
	<path fill="#FFFFFF" d="M677.261,752.994c-0.226-3.42,1.552-5.982,3.859-6.865c3.397-1.301,6.747-0.762,7.979-0.523
		c-0.117-1.559-0.174-2.365-0.279-4.055c-1.15,0.131-4.026,0.416-7.022,1.541c-6.125,2.297-9.601,7.684-9.249,13.318
		c0.671,10.811,15.13,3.209,15.577,12.357c0.254,5.139-2.53,8.238-5.359,9.383c-3.592,1.455-7.234,0.219-8.651-0.305
		c0.056,1.967,0.077,3,0.106,5.209c0.946-0.043,4.417,0.006,7.878-1.395c6.201-2.512,11.316-8.895,10.852-16.668
		C692.256,753.363,677.787,760.973,677.261,752.994"/>
	<path fill="#FFFFFF" d="M692.031,740.666c0.033,0.494,0.05,0.738,0.084,1.221c4.293-0.842,4.424-0.691,4.806,3.484
		c0.983,10.758,1.725,13.803,1.998,28.887c1.982-0.754,2.973-1.123,4.955-1.854c-0.367-19.078-1.634-20.879-2.742-36.287
		C697.485,737.9,695.666,738.811,692.031,740.666"/>
	<path fill="#FFFFFF" d="M722.064,730.662c-3.337,0.988-7.006,1.502-10.326,2.561c0.04,0.477,0.061,0.709,0.103,1.174
		c1.794-0.252,3.434-0.68,3.638,1.324c0.036,0.35-0.269,2.229-0.444,3.131c-2.374,11.637-3.332,15.418-6.614,31.904
		c1.118-0.398,1.676-0.596,2.792-0.982c1.233-6.277,1.768-8.879,2.77-13.74c4.573-1.561,6.862-2.307,11.439-3.691
		c1.709,4.008,2.535,6.191,3.99,11.664c1.866-0.523,2.798-0.777,4.661-1.262C727.518,745.607,726.438,742.467,722.064,730.662
		 M714.535,753.342c1.384-6.563,2.918-10.818,4.188-17.021c2.522,5.23,3.962,8.512,5.72,13.82
		C720.478,751.354,718.496,751.996,714.535,753.342"/>
	<path fill="#FFFFFF" d="M736.063,733.123c1.239,10.012,2.16,13.318,2.398,28.527c7.134-1.703,10.69-2.404,17.761-3.357
		c0.038-4.205,0.006-6.061-0.116-9.498c-0.5,0.076-0.751,0.113-1.251,0.193c-0.026,4.641-1.246,6.379-3.786,6.814
		c-1.978,0.34-2.968,0.525-4.949,0.922c-2.231,0.447-2.789,0.318-2.951-3.107c-0.257-5.453-0.482-7.678-0.963-11.977
		c2.175-0.506,3.262-0.744,5.438-1.191c2.7-0.555,3.867,0.779,4.108,3.613c0.502-0.092,0.756-0.137,1.257-0.223
		c-0.372-4.418-0.619-6.318-1.097-10.197c-0.506,0.096-0.76,0.143-1.265,0.24c-0.083,1.574-0.153,3.676-3.26,4.32
		c-2.179,0.453-3.267,0.691-5.443,1.201c-0.448-3.736-0.702-5.459-1.148-9.213c-0.271-2.266,0.297-2.637,2.551-3.127
		c1.408-0.307,2.112-0.455,3.523-0.74c2.983-0.609,4.991,0.107,5.44,3.803c0.506-0.092,0.761-0.137,1.268-0.229
		c-0.385-2.725-0.578-4.082-0.911-7.027c-8.716,1.527-13.033,2.504-21.6,4.73c0.043,0.453,0.065,0.676,0.11,1.121
		C735.369,728.404,735.492,728.512,736.063,733.123"/>
	<path fill="#FFFFFF" d="M562.16,594.1c-0.878-1.846-5.095-9.967-6.323-11.676c-0.552-0.766-1.028-1.588-1.618-2.324
		c-2.084-2.609-1.741-5.346-1.478-6.098c0.871-2.5,2.279-6.695,4.77-16.633c1.208-4.816,1.352-7.357,1.453-8.217
		c0.43-3.68,0.702-5.996,0.335-9.107c-0.225-1.904-0.687-5.514-2.962-9.506c-2.361-4.15-5.355-6.387-5.988-6.848
		c-0.826-0.602-2.302-1.658-4.508-2.459c-0.597-0.217-3.642-1.281-7.74-0.932c-5.28,0.451-8.884,2.963-10.229,3.924
		c-0.832,0.594-4.022,2.965-6.459,7.313c-2.36,4.205-2.738,7.994-2.961,10.502c-0.269,2.99-0.621,6.951,1.279,11.375
		c1.448,3.371,3.662,5.75,4.44,6.574c1.113,1.176,2.163,2.051,2.961,2.658c0.508-0.855,1.32-2.047,2.544-3.26
		c2.675-2.648,4.055-3.102,6.477-3.201c0.946-0.039,2.389,0.365,3.312,0.791c0.151,0.068,0.281,0.238,0.428,0.352
		c0.771-1.563,0.982-4.895,0.982-6.514c0.001-2.328-0.103-3.738-0.662-4.982c-0.264-0.584-0.634-1.156-0.636-1.162
		c-0.435-0.67-0.925-1.424-1.729-1.969c-0.368-0.248-0.633-0.342-0.914-0.441c-0.461-0.164-1.083-0.387-1.6-1.123
		c-0.78-1.119-0.624-2.338-0.565-2.797c0.248-1.936,1.646-3.082,2.178-3.453c0.026-0.016,0.044-0.025,0.069-0.043
		c0.646-0.363,2.4-1.164,4.52-0.604c1.814,0.475,2.809,1.664,3.183,2.113c1.276,1.523,1.564,3.162,1.736,4.578
		c0.214,1.775,0.567,6.539-0.771,12.361l-0.085,0.377c-0.245,1.102-0.551,2.463-1.396,3.918c-0.364,0.625-0.65,1.053-0.883,1.396
		c-0.164,0.242-0.335,0.387-0.361,0.557c-0.551,3.504-0.508,25.707-0.281,29.297c0.081,1.279,0.201,15.09,0.336,18.148
		c0.028,0.621,0.088,2.662-1.078,3.465c-0.771,0.529-1.777,0.432-2.066,0.398c-1.347-0.146-2.27-0.975-2.623-1.301
		c-5.063-4.678-7.389-11.965-7.389-11.965c-1.329-4.166-2.839-10.104-3.507-17.535c-5.206,6.572-9.501,14.701-12.078,24.355
		c-2.21,8.285-1.041,16.258,0.667,23.529c0.004,0.018,0.512,2.289,0.997,4.357c1.393-0.359,2.928-0.443,4.361-0.221
		c0.06-0.088,0.111-0.18,0.188-0.262c0.02-0.021,0.045-0.047,0.07-0.07c0.662-0.611,1.663-1.646,2.723-2.74l0.027-0.029
		c2.001-2.066,4.268-4.404,5.817-5.6c0.531-0.404,1.318-0.393,1.833,0.023c0.527,0.428,0.685,1.174,0.374,1.773
		c-0.094,0.182-0.488,0.684-0.986,1.316c-0.274,0.346-0.567,0.721-0.835,1.07c0.077-0.07,0.156-0.145,0.238-0.221
		c0.701-0.646,1.424-1.311,1.654-1.465c0.448-0.297,1.065-0.25,1.464,0.102l0.07,0.064c0.374,0.395,0.438,0.984,0.152,1.441
		c-4.586,7.309-6.423,9.762-7.313,10.588c0.006,0.199,0.009,0.381,0.009,0.518c-0.003,1.646-0.463,2.928-0.766,3.777
		c-0.438,1.229-0.942,2.096-1.474,3.016c-0.328,0.564-0.698,1.117-1.057,1.652c-0.975,1.457-1.896,2.832-2.135,4.574
		c-0.203,1.469,0.193,2.861,0.609,4.336c0.178,0.627,0.363,1.275,0.493,1.924c0.233,1.152,0.424,2.914,0.461,4.932
		c0.749,0.324,1.552,0.645,2.409,0.951c0.643,0.229,1.265,0.428,1.871,0.607c1.197-2.34,2.653-4.461,4.252-6.049
		c2.421-2.404,2.483-4.189,2.048-7.693c-0.098-0.777-0.271-1.518-0.44-2.238c-0.415-1.764-0.842-3.588-0.084-5.779
		c0.434-1.258,1.173-2.391,2.012-3.504c0.954-1.268,2.528-2.498,3.028-2.873c0.053-0.873,0.467-3.717,0.891-6.088
		c0.962-5.402,1.407-6.143,2.668-6.236l0.106-0.004c1.259,0,1.634,0.5,3.099,6.232c0.469,1.83,1.146,4.68,1.31,5.682
		c0.433,0.795,0.866,1.59,1.308,2.389c0.281,0.512,0.564,1.02,0.847,1.523c0.799,1.469,1.007,2.705,1.063,3.506
		c0.075,1.143,0.023,2.371-0.699,4.615c-0.291,0.898-0.565,1.75-0.647,2.639c-0.194,2.061,0.53,4.469,2.038,6.781
		c0.346,0.531,0.758,1.076,1.299,1.719c1.773,2.107,3.456,4.254,4.748,6.709c0.463-0.08,0.976-0.197,1.184-0.242
		c0.411-0.094,1.11-0.301,1.77-0.523l0.05-0.008c-0.02-2.963,0.429-5.734,0.743-7.293c0.133-0.652,0.316-1.301,0.495-1.93
		c0.419-1.471,0.813-2.863,0.61-4.334c-0.238-1.74-1.159-3.117-2.135-4.574c-0.358-0.533-0.729-1.086-1.057-1.65
		c-0.531-0.918-1.124-1.756-1.474-3.014c-0.61-2.193-0.404-4.053,0.011-5.465c-0.78-0.965-2.266-3.449-5.589-9.865
		c-0.172-0.33-0.087-0.734,0.204-0.971c0.148-0.119,0.328-0.18,0.507-0.18c0.176,0,0.352,0.059,0.497,0.172
		c0.633,0.496,1.686,1.557,2.822,2.787c-0.958-1.723-1.809-3.301-2.075-3.938c-0.19-0.459-0.034-0.984,0.376-1.264
		c0.184-0.129,0.396-0.189,0.609-0.189c0.261,0,0.52,0.094,0.721,0.277c1.434,1.305,3.488,3.807,5.301,6.014
		c0.688,0.838,1.346,1.637,1.892,2.273c1.067-0.143,2.209-0.084,3.342,0.164c0.001-0.039,0.002-0.064,0.003-0.105
		c0.003-0.195,0.347-1.295,0.786-2.594C565.175,627.625,570.6,611.811,562.16,594.1 M531.77,555.389
		c-0.305,0.994-1.226,1.686-2.237,1.686c-0.453,0-0.899-0.135-1.289-0.395c-2.954-1.939-4.874-5.043-5.136-8.293
		c-0.138-1.723,0.313-3.359,1.339-4.863c0.143-0.211,0.296-0.418,0.449-0.627c0.426-0.574,0.825-1.113,0.829-1.547
		c0.014-1.264,1.032-2.256,2.322-2.256c0.645,0,1.271,0.256,1.715,0.697c0.438,0.436,0.676,1.023,0.669,1.654
		c-0.01,1.025-0.332,1.889-0.741,2.643c1.314,0.771,2.429,2.33,2.328,4.49c-0.052,1.121-0.797,3.521-1.055,4.324
		C531.727,553.49,532.053,554.463,531.77,555.389 M534.695,621.973c-0.645,0.672-1.489,1.025-2.442,1.025
		c-0.195,0-0.389-0.012-0.579-0.043c-1.257-0.178-2.079-0.912-2.717-1.838c-2.208-3.193,3.15-10.455,3.907-11.127
		c0.291-0.26,0.672-0.4,1.056-0.4c0.165,0,0.329,0.025,0.485,0.08c0.533,0.174,0.934,0.621,1.045,1.16
		C536.102,614.016,536.871,619.697,534.695,621.973 M544.009,622.676c-0.622,0.572-1.441,0.887-2.306,0.887
		c-0.141,0-0.285-0.01-0.432-0.025c-1.171-0.139-2.31-0.828-2.968-1.803c-1.628-2.398-0.734-4.801-0.02-6.732
		c0.327-0.879,0.633-1.701,0.717-2.459c0.07-0.619,0.574-1.098,1.196-1.146c1.03-0.082,1.639,0.736,1.934,1.129
		c0.067,0.094,0.113,0.16,0.162,0.211c0.708,0.742,2.58,3.508,2.863,4.893C545.498,619.309,545.276,621.52,544.009,622.676
		 M552.864,622.174c-0.132,0.037-0.264,0.068-0.399,0.092c-1.561,0.27-3.203-0.443-4.087-1.781c-1.127-1.709-1.51-3.635-1.848-5.338
		c-0.293-1.467-0.57-2.848-1.248-4.02c-0.349-0.604-0.225-1.381,0.295-1.846c0.518-0.469,1.313-0.512,1.888-0.115
		c1.307,0.908,7.843,5.664,7.773,9.961C555.214,620.574,554.281,621.77,552.864,622.174"/>
	<path fill="#FFFFFF" d="M830.509,624.904c-3.922-5.092-12.046-6.85-17.46-3.365c-0.902-4.219-6.695-33.354-8.068-44.414
		c34.093-3.977-20.749-56.723-22.381-21.793c-10.008,0.066-35.872-1.357-42.047-1.639c6.691-14.98-11.42-23.244-22.4-13.467
		c-2.519-1.85-15.945-11.156-23.699-16.596c-0.003-13.645-0.014-27.487-0.027-40.909c23.862,2.992,45.513,0.584,67.737-10.09
		c7.554,12.832,22.13,6.094,19.625-5.83c13.041-10.873,34.531-29.496,41.706-44.998c2.496-5.424-3.377-9.217-7.94-5.904
		c1.963-3.561,2.294-9.447-3.564-10.111c1.156-3.971-1.776-11.4-6.812-9.092c0.994-3.709-3.255-8.592-6.942-7.191
		c0.996-1.984-1.128-14.496-8.014-10.576c0.182-4.154-5.378-11.426-10.397-9.092c0.2-3.99-0.886-8.951-7.602-9.703
		c-3.947,0-5.451,5.943-7.191,12.826c-3.423,12.918-11.004,25.291-19.084,35.973c-7.91-4.002-21.232,7.215-14.832,14.516
		c-5.962,5.264-21.537,9.213-36.743,10.26c-0.018-25.316-0.05-38.701,0.044-47.051h-76.675c10.867-7.809,47.082-33.92,57.453-41.047
		c0.314,0.553,6.604,9.301,9.731,13.357c2.883-1.99,8.273-5.629,10.377-7.162c1.375,1.918,3.326,4.748,5.264,7.607
		c-2.056,1.449-8.254,5.814-10.21,7.191c2.955,4.092,16.146,22.363,19.101,26.459c3.407-2.4,9.18-6.467,12.588-8.865
		c-1.373-1.9-8.039-11.137-9.548-13.225l8.463-5.961c1.549,2.145,8.136,11.271,9.547,13.225c3.935-2.771,14.2-10.004,18.137-12.775
		c-2.945-4.098-10.73-15.193-15.175-20.893c-1.866,1.314-7.84,5.521-9.8,6.902l-6.856-9.498c3.598-2.576,6.721-4.738,9.945-6.867
		c-1.389-1.926-5.571-7.719-7.021-9.729c4.078-2.867,7.638-5.375,10.004-7.047c1.994,3.021,4.82,6.611,7.36,9.389
		c3.298-2.33,8.847-6.248,10.549-7.443c1.733,2.422,4.317,6.02,6.843,9.484c-2.093,1.475-8.84,6.227-10.814,7.615
		c2.909,4.031,12.204,16.908,15.114,20.938c3.987-2.811,15.067-10.613,19.057-13.424c-1.358-1.896-8.001-11.174-9.495-13.26
		l6.932-4.883c1.705,2.297,8.374,11.273,9.947,13.389l13.094-9.428c-3.039-4.209-16.167-22.395-19.216-26.621
		c-1.944,1.371-9.974,7.025-12.066,8.5l-5.459-7.563c2.142-1.51,10.077-7.1,12.065-8.5c-1.371-1.898-8.114-11.238-9.621-13.328
		c1.967-1.445,5.597-3.162,4.662-6.229c-0.538-2.459-8.729-12.922-11.174-13.688c-1.521-0.631-3.125,0.408-3.171,0.496
		l-142.81,100.801c-1.02-5.813-3.455-20.494-5.037-30.443h31.072c2.267,0,4.11-1.822,4.11-4.063c0.55-3.588-1.968-6.121-5.614-5.574
		v-2.896c6.057-0.463,6.055-9.713,0-10.174v-24.904c-0.784,1.385-2.597,4.602-3.449,6.088c-0.311-3.652-1.107-8.039-2.037-11.352
		c6.342,1.313,7.478-9.473,1.193-9.637c-1.155,0.018-5.361-0.012-6.443,0.002v-2.336c6.752,0.092,6.749-10.377,0-10.283V239.3
		c-2.138,3.566-3.689,6.791-5.949,10.984c-1.332-5.928-3.388-11.553-6.128-16.789c2.862-0.186,4.129-2.986,3.771-5.543
		c0.08-4.818-5.971-4.086-9.23-4.051c-0.01,0-0.02,0-0.027,0c5.624-0.471,6.108-8.955,0.589-10.043
		c-0.035-0.434-0.056-17.48-0.056-17.48c-1.895,3.334-3.545,6.514-5.508,10.225c-5.69-11.484-28.78-33.369-50.318-37.148
		c-0.352-5.252-3.432-9.02-5.547-9.684v-0.607v-13.275h8.898v-10.982h-8.898v-9.639h-13.42v9.639h-8.897v10.982h8.897v13.275v0.607
		c-2.045,0.811-4.89,3.947-5.491,9.385c-17.832,3.393-36.017,16.578-50.257,37.676c-1.904-3.561-3.271-6.346-5.119-9.426v16.342
		c-5.859,0.668-5.734,9.654,0.143,10.154c-0.045,0-4.287,0-4.45,0c-1.332,0-4.813,0.832-4.922,4.051
		c-0.374,2.611,0.977,5.471,3.923,5.557c-0.599,1.508-4.578,10.779-6.264,16.822c-2.272-4.219-3.819-7.451-5.967-11.033v19.793
		c-7.81-1.273-7.807,11.387,0,10.113v2.42c-1.055-0.018-5.307,0.012-6.443,0c-6.286,0.162-5.149,10.949,1.193,9.635
		c-0.94,3.355-1.739,7.771-2.046,11.465c-0.665-1.373-2.719-4.898-3.44-6.193v24.902c-7.516-0.977-7.514,11.139,0,10.16v2.904
		c-3.645-0.545-6.168,1.984-5.615,5.574c0,2.24,1.844,4.063,4.11,4.063h30.516c-1.365,9.627-3.579,24.467-4.628,30.443
		L325.942,263.776c-0.046-0.088-1.651-1.127-3.174-0.496c-2.444,0.766-10.634,11.229-11.171,13.688
		c-0.923,3.064,2.679,4.787,4.663,6.229c-1.551,2.148-8.215,11.377-9.622,13.328c1.943,1.369,9.972,7.025,12.064,8.5l-5.459,7.563
		c-2.142-1.508-10.077-7.1-12.065-8.5c-3.05,4.229-16.174,22.408-19.217,26.621l13.096,9.428c1.533-2.064,8.28-11.148,9.945-13.389
		l6.934,4.883c-1.536,2.143-8.1,11.311-9.496,13.26c3.989,2.811,15.067,10.611,19.056,13.424
		c2.909-4.029,12.204-16.906,15.113-20.938c-1.938-1.363-8.76-6.168-10.812-7.615c2.523-3.465,5.107-7.063,6.841-9.484
		c1.69,1.189,7.261,5.121,10.551,7.443c2.538-2.779,5.364-6.365,7.358-9.389c2.367,1.672,5.925,4.18,10.004,7.047
		c-1.473,2.041-5.613,7.777-7.023,9.729c3.228,2.129,6.352,4.291,9.948,6.867l-6.856,9.498c-1.993-1.402-7.905-5.566-9.801-6.902
		c-4.457,5.717-12.213,16.773-15.175,20.893c3.937,2.771,14.2,10.002,18.138,12.775c1.372-1.9,8.039-11.137,9.546-13.225
		l8.463,5.961c-1.55,2.145-8.137,11.271-9.548,13.225c3.408,2.398,9.182,6.465,12.589,8.865
		c2.953-4.094,16.145-22.365,19.099-26.459c-1.922-1.355-8.187-5.768-10.208-7.191c1.935-2.859,3.096-4.541,4.471-6.459
		c2.103,1.531,7.35,4.953,10.23,6.941c3.154-4.096,10.319-13.682,10.67-14.285l56.729,39.857c0.275,0.191,1.287,0.848,1.408,1.189
		h-77.358c0.094,8.297,0.063,21.594,0.044,46.717c-15.51-0.98-33.311-4.623-39.317-9.926c6.4-7.301-6.922-18.518-14.832-14.516
		c-8.083-10.688-15.658-23.049-19.084-35.973c-1.741-6.883-3.244-12.826-7.191-12.826c-6.714,0.756-7.801,5.711-7.602,9.703
		c-5.024-2.33-10.572,4.93-10.398,9.092c-6.887-3.924-9.01,8.598-8.012,10.576c-3.688-1.398-7.937,3.482-6.944,7.191
		c-5.034-2.307-7.966,5.121-6.809,9.092c-5.864,0.672-5.527,6.547-3.567,10.111c-4.557-3.299-10.442,0.471-7.939,5.904
		c7.203,15.529,28.637,34.094,41.706,44.998c-2.503,11.926,12.071,18.662,19.626,5.83c23.039,11.086,45.511,13.242,70.312,9.676
		c-0.015,13.543-0.025,27.521-0.027,41.298c-7.747,5.436-21.215,14.768-23.736,16.621c-10.992-9.785-29.09-1.496-22.401,13.467
		c-6.194,0.283-32.021,1.703-42.047,1.639c-1.635-34.93-56.473,17.818-22.379,21.793c-1.375,11.061-7.166,40.195-8.069,44.414
		c-9.018-5.898-22.711,3.15-19.939,13.732c2.123,8.643,20.752,27.154,30.147,27.164c7.679,0.365,15.288-9.506,11.714-16.781
		c2.331-0.758,10.134-2.043,10.519-2.123c17.793,30.287,85.336,62.217,116.316,81.496c2.428,0.965,6.478,1.807,7.84-1.17
		c3.391-4.154,10.504-9.408,5.75-15.25c3.411-1.729,5.649-6.869,4.191-9.779c4.385-2.188,4.59-5.588,2.403-9.654
		c1.613-1.227,3.658-4.193,1.581-6.264c-0.902-1.068-1.92-2.521-3.45-2.658c-7.977-1.242-15.89-3.037-23.542-4.773
		c-13.456-3.055-27.365-6.211-42.027-6.449c-2.34-1.064-5.432-2.867-9.107-5.271l0.018-0.061
		c-5.793-3.605-12.169-8.43-20.043-14.496c15.217,6.92,42.865-29.041,18.231-32.459l0.838-5.27
		c6.319,3.764,21.824,2.344,29.953-1.395c16.846,56.092,47.089,64.221,151.547,117.254
		c104.666-53.221,134.436-60.865,151.549-117.242c8.081,3.732,23.658,5.139,29.918,1.383l0.84,5.27
		c-24.633,3.418,3.011,39.377,18.229,32.459c-7.876,6.066-14.248,10.891-20.044,14.496l0.021,0.061
		c-3.678,2.404-6.77,4.207-9.109,5.271c-14.662,0.238-28.57,3.395-42.027,6.449c-7.652,1.736-15.565,3.531-23.541,4.773
		c-1.521,0.133-2.564,1.592-3.451,2.658c-2.046,2.057-0.068,5.055,1.582,6.264c-2.189,4.072-1.978,7.469,2.401,9.654
		c-1.456,2.912,0.781,8.049,4.192,9.779c-4.714,5.834,2.326,11.105,5.752,15.25c1.361,2.977,5.408,2.137,7.838,1.166
		c30.954-19.264,98.505-51.188,116.316-81.492c0.385,0.08,8.188,1.365,10.52,2.123c-3.644,7.49,4.358,17.547,12.285,16.766
		C814.893,660.027,841.457,638.262,830.509,624.904 M305.215,362.317c3.323-0.73,5.188,12.045,6.773,16.211
		c4.199,11.027,11.116,22.99,18.225,31.953C328.725,427.573,284.73,365.157,305.215,362.317 M295.391,371.562
		c1.769-0.855,1.496,0.074,3.258,5.486c5.397,14.906,21.065,36.369,25.938,39.729c0.492,1.609-1.906,5.117-2.872,5.078
		c-11.69-6.629-25.278-28.502-26.71-30.885C292.797,387.601,283.942,377.108,295.391,371.562 M284.032,380.696
		c0.878-0.281,2.436-1.113,4.197,2.545c2.133,4.428,10.173,18.402,17.462,26.955c3.349,3.93,8.629,10.6,11.932,13.371
		c3.048,2.559,2.384,3.313,1.122,5.326c-2.939,3.359-4.896,0.041-6.851-1.447c-8.825-8.398-16.969-13.016-29.953-36.182
		C279.542,386.981,283.451,380.329,284.032,380.696 M278.791,391.63c16.626,24.604,16.025,25.402,35.871,41.947
		c2.161,1.631-1.741,5.723-4.844,3.576c-4.068-2.66-22.677-20.592-30.694-33.162C274.96,397.46,273.147,392.399,278.791,391.63
		 M270.144,398.45c2.54-0.529,4.27,3.469,5.274,4.98c13.742,20.662,16.914,22.225,33.284,38.322
		c0.991,13.857-26.466-16.922-28.068-19.27c-0.595-0.447-8.052-9.146-11.962-15.637C266.938,403.968,267.488,400.706,270.144,398.45
		 M264.203,408.595c2.301-1.336,2.32-0.375,2.75,0.197c9.441,12.555,16.73,21.934,28.338,32.867
		c0.985,0.926,10.739,8.363,8.778,10.156c-1.708,2.963-4.947,0.813-6.49-0.232C290.459,445.763,258.368,418.177,264.203,408.595
		 M297.487,463.827c-7.913-2.494-45.32-39.025-40.554-46.633c1.035-1.063,4.178,0.086,5.25,1.48
		c6.964,9.078,13.089,17.178,21.75,24.982C288.468,449.017,304.751,457.101,297.487,463.827 M312.974,470.073
		c-7.94,12.775-17.315,2.232-12.501-4.809c5.075-7.418,32.497-52.645,32.497-52.645c2.454-3.484,13.294,2.537,11.449,7.592
		l-27.956,43.732C316.463,463.944,313.708,468.894,312.974,470.073 M385.585,478.761c-23.753,3.662-47.074,1.121-68.185-9.176
		c-0.823,0.523,26.575-41.955,27.267-43.115c8.292,6.707,29.062,9.678,41.245,10.457
		C386.101,448.882,385.042,470.657,385.585,478.761 M385.842,551.729c0.03,12.295-0.015,23.535,0.084,34.547
		c-6.18,4.971-18.16,4.172-24.476,2.234l1.47-11.65c12.425,5.006,23.931-9.574,15.354-20.232
		C377.757,556.762,382.169,553.959,385.842,551.729 M385.477,528.979l-0.164,16.938c0,0.467-6.252,4.227-9.9,6.811
		c-3.188-3.914-6.247-6.641-10.066-9.867C371.171,538.668,379.373,533.354,385.477,528.979 M347.457,540.061
		c10.899-3.227,24.885,13.869,29.405,21.609c2.308,7.146-2.614,12.412-8.833,12.412c-6.98,0.898-18.817-14.084-23.217-18.477
		C341.43,550.57,340.545,542.086,347.457,540.061 M298.415,616.445c-0.444,1.357-0.762,2.719-1.021,4.084l-7.178,1.047
		c1.121-8.73,4.757-28.959,7.733-44.51l41.909-1.256c-0.524,3.23-1.128,12.383-1.368,12.43
		C311.271,593.561,301.673,606.514,298.415,616.445 M335.627,602.754c-2.735-1.711-7.835-4.557-4.518-8.926
		c2.521-0.742,4.535-1.572,7.428-2.139c-0.329,1.818-1.665,13.033-2.268,16.365c-0.013,0.008-0.021,0.01-0.037,0.014
		C336.886,605.137,336.348,603.604,335.627,602.754 M319.515,612.523c-5.107-0.219-9.39,0.166-10.794-6.084
		c1.383-1.465,2.952-2.871,4.736-4.203c0.487,11.133,12.394,0.604,11.122,10.773c-0.481,0.344-1.183,0.883-1.96,1.631
		C321.845,613.771,320.841,612.947,319.515,612.523 M320.383,617.279c-0.932,1.299-1.86,3.148-2.325,4.803
		c-4.682-5.221-11.688,2.068-16.605-2.617c0.785-3.074,2.102-6.086,4.019-8.947C310.445,617.037,316.106,613.055,320.383,617.279
		 M326.286,598.207c2.073,6.783,7.768,3.641,6.667,10.934c-1.394,0.488-3.054,1.129-4.755,1.922
		c0.245-11.184-12.055-2.346-11.967-10.729c2.99-1.883,6.446-3.59,10.46-5.057C326.136,596.68,326.214,597.766,326.286,598.207
		 M335.531,612.18c-0.345,1.932-0.658,3.717-0.921,5.242c-3.89,0.313-8.234,0.855-11.13,1.242
		C324.942,616.93,328.241,614.594,335.531,612.18 M300.77,623.047c5.709,4.607,12.984-3.059,16.59,3.908
		c0.038,1.783,0.122,2.479,0.415,3.756c-6.262-4.316-10.896,3.961-17.096-0.654C300.464,627.732,300.471,625.385,300.77,623.047
		 M303.68,641.563c-0.945-2.176-1.7-4.455-2.239-6.789c6.524,3.461,10.251-3.891,17.164-1.158c0.739,1.914,1.712,3.512,2.683,4.795
		C311.319,636.148,309.631,643.717,303.68,641.563 M310.084,651.74c-1.341-1.557-2.613-3.221-3.733-5.043
		c8.67-1.678,7.505-6.699,17.84-5.1c1.188,1.012,2.405,2.318,4.221,3.709C314.622,644.68,317.792,654.461,310.084,651.74
		 M328.372,640.416l5.982-1.088c0.46,3.646,1.206,6.113,3.342,8.41C335.26,645.93,328.546,640.617,328.372,640.416 M313.922,655.664
		c2.645,0.041,6.473-3.418,7.359-5.414c0.579-2.406,12.078-3.34,15.662,1.613c-9.876-0.303-9.484,6.41-18.619,7.545
		C316.996,658.33,315.399,656.992,313.922,655.664 M353.137,683.945c5.646-6.633,7.41-2.971,12.744-5.209
		c-0.92,4.705-8.284,5.377-10.552,6.588C354.601,684.861,353.863,684.412,353.137,683.945 M433.692,683.893l1.171,1.385
		c-0.669,0.49-1.158,0.975-1.53,1.447l-30.729-1.488l29.978,5.104c1.839,3.988,1.73,3.721-2.124,6.32l-30.546-4.268l30.395,8.096
		c1.284,3.211-4.36,5.588-5.218,7.191l-27.347-10.27l29.422,14.744c0.8,2.021-0.713,3.209-2.155,4.861l-26.901-13.836l24.156,16.619
		c-0.764,0.824-1.435,1.648-1.831,2.469c-12.156-4.348-22.967-12.951-34.652-18.793c4.088-4.807,14.81-19.184,13.298-26.766
		C410.502,679.115,421.85,682.049,433.692,683.893 M395.141,675.885c1.779,7.348-8.902,20.844-13.057,25.461
		c-1.475-0.85-2.949-1.693-4.419-2.547c4.258-4.449,14.493-16.797,13.667-23.6C392.602,675.428,393.876,675.635,395.141,675.885
		 M386.899,674.426c1.291,6.113-9.228,17.736-13.465,21.92c-1.728-1.016-3.426-2.07-5.145-3.1
		c4.748-3.199,14.598-12.527,13.554-19.504C383.533,673.951,385.223,674.164,386.899,674.426 M369.901,680.629
		c1.744-4.396,1.932-5.783,1.865-7.793c1.906,0.086,3.782,0.268,5.663,0.438c1.21,6.303-8.411,14.641-13.313,17.457
		c-1.557-0.945-3.132-1.857-4.677-2.816C361.246,686.27,368.03,685.346,369.901,680.629 M367.424,672.488
		c-4.619,6.584-13.118,1.996-17.645,9.273c-0.703-0.463-1.396-0.941-2.096-1.408c6.795-4.252,7.228-9.26,16.724-9.371
		C365.48,671.564,366.493,672.076,367.424,672.488 M357.929,667.098c0.817,0.529,1.61,1.027,2.394,1.512
		c-7.629,1.209-9.118,7.051-15.843,9.588c-0.847-0.576-1.706-1.131-2.548-1.715C350.354,674.553,346.823,664.463,357.929,667.098
		 M346.803,659.344c1.82,1.338,3.643,2.646,5.454,3.918c-9.3,2.127-4.705,9.754-14.575,10.242c-2.158-1.543-4.771-3.422-7.57-5.432
		C340.937,667.332,336.752,658.807,346.803,659.344 M340.061,654.277c0.813,0.625,1.656,1.26,2.494,1.893
		c-8.667,1.494-4.591,9.264-16.729,8.826c-1.112-0.797-2.229-1.596-3.33-2.385c3.908-0.609,5.508-4.918,8.335-5.957
		C332.775,656.424,337.594,655.104,340.061,654.277 M353.271,621.029c31.088-4.854-16.093,47.715-15.367,14.607l-12.47,1.908
		c-2.72-3.416-5.051-10.248-3.24-14.979c3.042-0.43,11.397-1.561,15.611-1.635c1.641-10.15,6.214-48.975,6.214-48.975l-49.202,1.646
		c0,0-9.124,47.188-8.658,52.293l10.723-1.564c-0.368,5.021,0.029,11.018,1.523,15.646c-3.938,0.916-10.227,1.621-14.605,2.703
		c5.843,4.816,0.928,16.066-6.389,16.066c-7.604-0.051-24.777-17.225-26.508-24.295c-1.562-11.18,11.664-13.842,18.867-7.244
		c3.231-17.441,7.898-38.439,8.997-53.65c-31.987,1.645,17.193-47.213,15.838-15.225l45.255-1.436l19.389,18.912
		C359.248,575.811,354.735,610.105,353.271,621.029 M366.959,607.129c-0.252,0.721-0.658,1.787-1.572,2.559
		c-2.846-0.473-4.707-1.357-6.386-1.799c1.283-8.426,1.682-12.611,2.055-15.885c1.921,0.377,2.376,0.24,4.231,0.576
		C361.057,601.242,369.418,600.611,366.959,607.129 M375.733,609.867c-2.183,0.492-4.388,0.504-6.646,0.303
		c5.553-11.203-3.951-7.65-0.455-17.01c1.354,0.223,2.606,0.404,3.708,0.527c1.277,12.182,6.269,6.127,9.559,14.584
		C379.783,608.875,377.645,609.432,375.733,609.867 M385.479,607.199c-2.753-9.291-9.865-5.314-9.33-13.342
		c6.452-1.256,8.713-3.109,9.764-3.785c0.273,3.918,0.301,9.441,1.474,16.564C387.386,606.637,385.794,607.426,385.479,607.199
		 M768.837,295.987l-12.021,8.561l9.699,13.291l12.021-8.561l15.036,20.605c0,0-4.941,3.539-7.357,5.24l-9.798-13.045l-12.685,9.029
		l9.564,13.213l-13.169,9.377l-11.021-15.102l10.79-7.682c-4.921-6.623-11.092-15.201-11.092-15.201s-1.763,1.24-10.79,7.686
		c-3.171-3.592-7.022-9.625-7.022-9.625s-7.206,5.146-15.92,11.336l7.022,9.625c-2.878,1.945-9.843,7.008-9.843,7.008l11.091,15.199
		l9.844-7.008c2.093,2.705,11.021,15.102,11.021,15.102l-12.261,8.73l-9.616-13.176l-14.258,10.152l9.616,13.176l-6.714,4.781
		l-15.829-21.393l10.075-7.174c0,0-8.072-12.344-8.797-12.584c-3.922,2.947-3.498,2.619-10.186,7.254
		c-4.732-6.23-7.794-10.682-7.794-10.682c2.059-1.469,5.379-3.842,9.531-6.813c10.033-7.174,24.947-17.846,38.84-27.758
		c8.661-6.178,16.92-12.061,23.35-16.613c4.897-3.471,8.734-6.17,10.872-7.639L768.837,295.987z M756.434,266.663
		c0,0,8.124,9.639,8.586,11.76c0.166,0.754-154.039,108.234-154.039,108.234h-24.508L756.434,266.663z M608.237,366.036
		l-27.729,20.242h-12.135c-2.635-19.717-5.253-32.992-4.488-52.145h39.16C604.02,340.573,606.495,357.515,608.237,366.036
		 M520.168,334.134h39.955c-0.905,17.293,2.254,33.516,4.041,52.523h-48.043C517.911,367.63,521.07,351.446,520.168,334.134
		 M532.55,164.14c0.475-0.924,1.682-2.105,3.48-2.105c0.244,0,8.363,0,8.629,0c1.917,0,3.157,1.998,3.251,2.143
		c0.001,0.002,0.001,0.002,0.002,0.002c0.564,1.008,1.062,2.471,1.498,4.592c0,0-9.482-1.668-18.387,0
		C531.006,168.774,532.023,165.161,532.55,164.14 M481.498,207.091c34.894-51.383,87.645-44.461,118.683,1.736
		c-5.062,9.393-6.382-0.385-10.038-4.57c-1.821,2.391-2.961,7.816-6.224,8.719c-4.388-3.895-7.024-12.43-10.293-17.189
		c-3.361,4.711-5.807,13.615-10.493,17.207c-2.547-1.369-4.398-6.428-6.17-8.789c-1.762,2.361-3.624,7.416-6.165,8.785
		c-4.688-3.588-7.118-12.486-10.495-17.186c-3.259,4.725-5.91,13.25-10.254,17.123c-3.115-0.699-4.366-6.439-6.548-8.67
		c-1.823,2.391-2.963,7.814-6.226,8.719c-4.39-3.895-7.022-12.43-10.293-17.189c-3.361,4.713-5.807,13.615-10.492,17.207
		c-2.549-1.371-4.399-6.428-6.169-8.789c-1.43,2.373-3.751,6.422-5.463,8.535c-2.125,1.053-3.286-2.803-4.548-4.037
		C480.523,208.204,481.498,207.091,481.498,207.091 M474.709,223.862c4.709-1.01,5.222-8.227,0.614-9.818l-0.102-7.811
		c0.524,0.947,1.049,1.93,1.578,2.9c0.428,0.789,0.86,1.57,1.297,2.32c0.491,0.842,0.99,1.643,1.496,2.367
		c2.213,3.16,4.606,4.818,7.457,1.973c1.002-1,2.06-2.543,3.186-4.791c1.168,2.412,2.284,4.018,3.352,4.998
		c2.669,2.453,5.034,0.943,7.172-1.996c1.565-2.15,3.007-5.057,4.361-7.73c0.046-0.092,0.094-0.186,0.142-0.277
		c0.509-1.004,1.004-1.965,1.489-2.838c0.05-0.09,0.1-0.184,0.149-0.271l0,0c3.854,6.898,9.465,22.975,16.732,8.41
		c3.602,7.814,8.807,7.666,11.884,0.271c1.57-2.699,3.239-5.895,4.7-8.693c4.094,7.201,9.447,23.137,16.661,8.127
		c7.204,14.854,12.36-0.514,16.667-8.115c3.817,6.797,9.648,23.307,16.686,8.244c4.395,9.406,8.354,6.354,11.617,1.154
		c0.588-0.939,1.156-1.949,1.698-2.967c0.856-1.609,1.652-3.24,2.382-4.658v9.168c-5.52,1.109-4.992,9.668,0.636,10.072
		c-0.045,0.002-0.276-0.002-0.636,0c-0.453,0.002-30.538-0.002-31.637,0c6.324-0.551,5.834-10.352-0.579-10.23
		c-6.411-0.121-6.901,9.682-0.576,10.23h-32.284c6.326-0.549,5.835-10.352-0.576-10.23c-6.411-0.121-6.904,9.682-0.577,10.23
		h-32.284c6.325-0.551,5.835-10.352-0.578-10.23c-6.411-0.121-6.902,9.682-0.575,10.23h-31.753h-0.492
		C474.42,223.901,474.643,223.878,474.709,223.862 M466.091,228.712c0-2.215,2.394-2.055,3.011-2.055h143.813
		c2.032,0,1.823,4.105,0,4.105c-1.459,0-141.135,0.004-143.597,0C468.164,230.763,466.091,230.759,466.091,228.712 M470.231,235.263
		c0.178-0.498,0.405-1.025,0.77-1.734h138.485c1.768,0.916,7.538,18.943,7.538,18.943s-2.354,3.734-4.118,5.898
		c-0.535,0.939-2.354,1.246-3.11,0.502c-2.056-2.604-4.861-7.523-6.541-10.379c-1.982,2.58-4.758,10.008-7.811,10.9
		c-4.919-2.309-9.854-17.08-13.24-21.715c-3.351,5.83-7.531,15.021-11.455,20.781c-4.133,4.105-7.609-7.656-9.455-9.91
		c-2.684,2.84-4.169,10.242-8.282,10.758c-0.611-0.086-1.138-0.408-1.486-0.908c-3.868-5.742-8.066-14.723-11.308-20.645
		c-3.232,5.91-7.444,14.912-11.306,20.645c-0.35,0.5-0.876,0.822-1.483,0.906c-4.117-0.51-5.6-7.918-8.287-10.756
		c-1.796,2.162-5.319,14.025-9.453,9.91c-3.929-5.77-8.099-14.939-11.455-20.781c-3.39,4.639-8.312,19.391-13.238,21.715
		c-3.052-0.885-5.83-8.324-7.813-10.9c-5.069,8.002-7.852,17.695-13.045,3.326C465.428,246.604,470.184,235.378,470.231,235.263
		 M457.462,268.513c0.823-0.445,4.027-4.508,0.404-8.484l-0.353-11.93c0.641,1.152,1.28,2.357,1.922,3.563
		c1.601,3.002,3.222,6,4.939,8.186c2.512,3.199,5.226,4.643,8.367,1.76c1.373-1.26,2.824-3.332,4.379-6.459
		c1.496,3.078,2.912,5.141,4.258,6.41c3.205,3.023,6.009,1.502,8.549-1.807c1.803-2.354,3.475-5.6,5.058-8.77
		c1.099-2.195,2.155-4.352,3.187-6.139c0.668,1.174,1.373,2.563,2.112,4.041c1.708,3.412,3.607,7.305,5.699,10.168
		c2.396,3.275,5.046,5.18,7.952,3.465c0.184-0.115,0.375-0.223,0.542-0.363c0.006-0.004,0.012-0.012,0.019-0.016
		c1.528-1.135,3.126-3.275,4.795-6.781c1.548,3.357,3.05,5.461,4.502,6.625c0.548,0.441,1.088,0.754,1.621,0.938
		c0.04,0.014,0.08,0.033,0.119,0.047c2.59,0.807,5.002-1.225,7.215-4.34c2.109-2.971,4.034-6.922,5.755-10.359
		c0.597-1.191,1.169-2.326,1.714-3.328c0.714,1.283,1.457,2.766,2.23,4.314c1.676,3.352,3.499,7.021,5.481,9.752
		c2.655,3.658,5.595,5.6,8.839,2.795c1.395-1.207,2.845-3.273,4.354-6.486c1.864,3.775,3.607,5.988,5.247,7.07
		c2.884,1.9,5.442,0.26,7.756-2.803c1.909-2.525,3.649-6.006,5.266-9.252c1.002-2.016,1.958-3.941,2.875-5.484
		c0.593,1.086,1.217,2.326,1.868,3.635c1.723,3.449,3.646,7.379,5.753,10.314c2.206,3.074,4.611,5.057,7.194,4.217
		c0.002,0,0.005-0.002,0.007-0.002c0.471-0.154,0.946-0.41,1.428-0.76c0.032-0.021,0.063-0.037,0.093-0.063
		c0.058-0.041,0.114-0.1,0.17-0.146c1.479-1.188,3.011-3.346,4.593-6.801c1.412,2.945,2.757,4.938,4.045,6.197
		c1.027,1.004,2.018,1.541,2.976,1.684c0.056,0.008,0.113,0.023,0.17,0.029c2.061,0.213,3.968-1.348,5.762-3.725
		c1.978-2.621,3.816-6.234,5.571-9.584c0.37-0.709,0.737-1.404,1.1-2.074l0.068,11.467c-1.216,0.398-1.675,1.346-2.211,2.336
		c-0.85,1.572-0.85,3.584,0.002,5.154c0.536,0.992,0.994,1.848,2.209,2.248v2.457c-13.823-0.094-151.614-0.109-165.6-0.039V268.513z
		 M448.66,278.495c-0.783-0.006-1.221-0.66-1.267-1.109c-0.048-0.457-0.067-1.324-0.045-1.697c0,0,0-0.002,0-0.006v-0.002
		c0-0.174,0-1.293,1.507-1.293h177.316c0.832-0.002,2.119,0,3.327,0c0.863,0.002,1.688,0.002,2.276,0h0.001
		c0.185-0.004,0.345,0.037,0.491,0.1c0.012,0.004,0.021,0.008,0.033,0.014c0.118,0.055,0.228,0.125,0.321,0.215
		c0.166,0.158,0.296,0.361,0.388,0.598c0.227,0.578,0.24,1.322,0.063,1.949c-0.129,0.455-0.356,0.846-0.68,1.057
		c-0.011,0.008-0.022,0.016-0.034,0.023c-0.045,0.027-0.096,0.043-0.146,0.064c-0.135,0.055-0.277,0.094-0.438,0.088h-0.001
		c-1.121-0.002-2.466,0-3.758,0c-0.776,0-1.537,0-2.207,0C625.811,278.495,449.321,278.499,448.66,278.495 M610.284,299.274
		c-0.012,0.002-0.026,0.018-0.039,0.025l-0.018-0.025l-0.033,0.061c-0.287,0.264-1.713,3.188-1.848,3.449
		c-0.085,0.162-0.095,0.213,0.01,0.027c-1.038,2.121-5.129,11.838-8.443,7.324c-0.504-0.738-1.238-1.34-1.747-2.168
		c-0.086-0.141-0.174-0.281-0.26-0.424c-0.006-0.01-0.011-0.02-0.017-0.029c-1.193-1.971-2.393-4.141-3.578-6.369
		c-1.518-2.85-3.011-5.787-4.432-8.51c-0.749-1.436-1.479-2.809-2.18-4.08c-0.269-0.482-0.533-0.955-0.791-1.406
		c-1.291,1.758-2.891,5.104-4.65,8.77c-2.144,4.463-8.447,16.604-10.112,15.451c0,0-0.003,0-0.004,0.002
		c0-0.002-0.001-0.002-0.002-0.002c-1.818-0.174-4.89-5.502-6.106-7.732c-0.892-1.635-1.71-3.143-2.42-4.111l-0.182-0.314
		l-0.185,0.316c-0.707,0.963-1.521,2.467-2.411,4.094c-1.218,2.23-2.572,4.66-3.973,6.211c-0.706,0.783-1.427,1.352-2.144,1.533
		h-0.002c-0.001,0-0.002,0-0.002,0c-0.998-0.336-2.101-1.424-3.245-2.969c-2.417-3.26-5.021-8.559-7.228-13.182
		c-1.641-3.438-3.064-6.502-4.027-8.066c-0.944,1.537-2.367,4.596-4.011,8.037c-2.214,4.631-4.832,9.957-7.248,13.221
		c-1.146,1.549-2.247,2.635-3.235,2.959c-0.001,0-0.004,0-0.006,0l0,0c-0.718-0.178-1.433-0.744-2.14-1.525
		c-1.398-1.547-2.752-3.975-3.971-6.205c-0.894-1.635-1.711-3.143-2.419-4.109l-0.184-0.314l-0.184,0.316
		c-0.707,0.967-1.522,2.469-2.411,4.098c-1.218,2.23-2.569,4.658-3.971,6.209c-0.707,0.783-1.425,1.355-2.143,1.535
		c0,0-0.001,0-0.003,0h-0.001c-3.054-0.438-8.145-11.357-10.322-15.852c-1.204-2.486-2.35-4.801-3.421-6.551l-1.022-1.818
		l-0.098,0.176c-0.045-0.057-0.091-0.121-0.136-0.176c-0.771,1.557-1.639,3.307-2.563,5.145c-1.889,3.76-4.027,7.912-6.163,11.707
		c-1.293,2.299-2.585,4.469-3.815,6.328c-1.418,1.676-2.948,1.068-4.397-0.502c-1.215-1.65-3.016-4.797-4.354-7.23
		c-0.887-1.83-1.528-3.244-1.791-3.322c-0.193,0.092-0.542,0.67-1.001,1.52l-0.723,1.1c-0.26,0.396-0.605,1.035-1.088,1.918
		c-0.313,0.572-2.875,4.797-3.551,5.734c-0.795,0.867-1.606,1.467-2.398,1.621c-0.323,0.063-0.643,0.057-0.957-0.043
		c-0.404-0.131-0.8-0.408-1.18-0.863c-0.002-0.002-0.005-0.004-0.005-0.004c-2.672-3.514-4.644-6.434-5.946-9.271
		c-1.161-2.525-1.784-4.99-1.851-7.734c-0.08-3.354,0.651-7.131,2.22-11.992h172.977c0.124,0.416,0.242,0.855,0.359,1.295
		c0.102,0.373,0.199,0.754,0.295,1.141c0.042,0.172,0.082,0.344,0.122,0.518c0.077,0.334,0.157,0.66,0.231,1.002
		c0.378,1.746,0.69,3.586,0.933,5.432c0.044,0.332,0.086,0.662,0.124,0.996c0.039,0.334,0.072,0.666,0.105,0.998
		c0.068,0.676,0.123,1.346,0.168,2.01c0.004,0.061,0.011,0.121,0.014,0.182c0.053,0.855,0.091,1.711,0.11,2.566
		c-0.001,0.002-0.002,0.002-0.002,0.004c-0.368,0.674-0.718,1.318-1.058,1.951c-0.794,1.479-1.585,2.959-2.398,4.426
		c-0.044,0.068-2.076,3.674-2.698,4.686c-0.585,0.861-1.134,1.523-1.676,1.992c-0.48,0.322-1.027,0.621-1.306,0.676
		c-0.275,0.047-0.554,0.072-0.836,0.082c-1.137-0.189-2.379-1.311-3.923-3.496c-1.312-1.854-2.844-4.475-4.723-7.955l0.634,0.963
		C610.684,299.917,610.284,299.274,610.284,299.274 M447.166,324.497v-4.133c0.208-0.162,0.372-0.359,0.543-0.553
		c0.146-0.166,0.279-0.34,0.4-0.525c0.108-0.168,0.216-0.334,0.302-0.514c0.034-0.072,0.071-0.141,0.102-0.213
		c0.541-1.285,0.541-2.807,0-4.092c-0.03-0.074-0.067-0.141-0.102-0.213c-0.086-0.18-0.193-0.348-0.302-0.514
		c-0.121-0.186-0.254-0.359-0.401-0.527c-0.17-0.191-0.334-0.389-0.542-0.551v-15.057c0.664,1.236,1.314,2.508,1.961,3.775
		c1.819,3.57,3.597,7.104,5.467,9.738c3.035,4.279,6.313,6.16,10.408,1.938c1.496-1.543,3.099-3.885,4.841-7.246
		c1.3,2.848,2.554,4.939,3.765,6.414c0.807,0.984,1.597,1.693,2.364,2.158c1.01,0.611,1.984,0.801,2.927,0.664
		c1.712-0.25,3.313-1.59,4.808-3.518c2.248-2.898,4.254-7.115,6.035-10.928c1.304-2.787,2.486-5.357,3.552-7.037
		c0.973,1.5,2.095,4.066,3.376,6.914c1.647,3.66,3.558,7.783,5.757,10.701c2.73,3.627,5.905,5.391,9.573,2.113
		c1.576-1.408,3.243-3.742,5.005-7.268c0.631,1.252,1.683,3.23,3.006,5.029c1.232,1.678,2.7,3.201,4.283,3.838
		c1.109,0.447,2.275,0.451,3.458-0.229c0.032-0.02,0.065-0.043,0.1-0.063c0.23-0.141,0.452-0.314,0.692-0.498
		c6.083-4.631,11.663-19.537,11.674-19.561c0.957,1.504,2.037,3.943,3.258,6.623c1.536,3.375,3.294,7.135,5.307,9.896
		c1.242,1.703,2.58,3.023,4.021,3.645c0.841,0.363,1.717,0.484,2.629,0.303c1.2-0.236,2.463-0.998,3.794-2.43
		c1.334-1.436,2.736-3.541,4.208-6.471c1.327,2.773,2.605,4.805,3.838,6.234c1.258,1.457,2.466,2.281,3.624,2.602
		c0.81,0.223,1.596,0.205,2.356-0.016c1.493-0.436,2.894-1.637,4.204-3.262c2.242-2.787,4.219-6.813,5.927-10.354
		c1.337-2.771,2.513-5.244,3.527-6.59c0.762,1.18,1.683,3.121,2.745,5.348c1.583,3.316,3.484,7.27,5.649,10.293
		c1.688,2.357,3.538,4.148,5.523,4.625c0.02,0.002,0.036,0.008,0.055,0.01c0.005,0,0.011,0,0.015,0
		c0.968,0.217,1.966,0.127,2.994-0.367c0.838-0.4,1.695-1.064,2.57-2.041c1.239-1.385,2.516-3.385,3.823-6.146
		c1.312,2.57,2.561,4.467,3.761,5.828c1.022,1.158,2.009,1.918,2.96,2.338c1.04,0.457,2.037,0.514,3.004,0.254
		c1.761-0.475,3.411-1.99,4.991-4.053c2.107-2.754,4.09-6.463,6.039-9.93c0.747-1.328,1.488-2.621,2.229-3.809v14.826
		c-1.071,0.449-1.833,1.242-2.308,2.182c-0.756,1.498-0.756,3.367,0.002,4.863c0.475,0.939,1.237,1.73,2.306,2.18v3.371v0.336
		H447.166V324.497z M442.863,331.368c-0.403,0.006-0.68-0.133-0.88-0.35c-0.263-0.283-0.387-0.703-0.432-1.152
		c-0.046-0.455-0.021-0.934,0-1.303c0-0.004,0-0.006,0-0.006c0-0.004,0.002-0.004,0.002-0.008c0.006-0.398,0.145-0.672,0.354-0.865
		c0.296-0.275,0.741-0.387,1.215-0.422c0.43-0.033,0.875-0.012,1.243,0h0.002h191.701c0.304-0.01,0.746-0.031,1.188,0
		c0.355,0.023,0.709,0.082,0.998,0.215c0.401,0.186,0.674,0.51,0.629,1.074c0,0.002,0.001,0.004,0.001,0.006
		c-0.071,0.625,0.059,1.555-0.209,2.172c-0.165,0.381-0.481,0.645-1.1,0.639c-0.002,0-0.003,0-0.004,0H442.863 M477.243,334.134
		h39.155c0.766,19.15-1.849,32.43-4.483,52.145H499.78l-27.729-20.242C473.793,357.511,476.271,340.563,477.243,334.134
		 M394.049,354.804c-6.688-4.635-6.264-4.307-10.186-7.254c-0.724,0.24-9.591,13.369-9.591,13.369l10.077,7.176L369.314,388.7
		l-6.714-4.781l9.615-13.176l-14.258-10.152l-9.615,13.176l-12.261-8.73c0,0,9.604-13.365,11.699-16.072l9.844,7.01l10.412-14.23
		c0,0-6.965-5.063-9.844-7.008l7.023-9.625c-8.715-6.189-15.921-11.336-15.921-11.336s-3.852,6.033-7.022,9.625
		c-9.027-6.445-10.791-7.686-10.791-7.686s-6.17,8.578-11.091,15.201l10.79,7.682l-11.021,15.102l-13.17-9.377l9.564-13.213
		l-12.685-9.029l-9.798,13.045c-2.416-1.701-7.356-5.24-7.356-5.24l15.036-20.605l12.021,8.561l9.699-13.291l-12.021-8.561
		l7.799-10.688c2.086,1.434,5.93,4.137,10.863,7.633l6.025,4.232l17.71,12.656c14.055,10.029,29.104,20.797,39.013,27.881
		c3.93,2.813,7.054,5.045,8.981,6.42C401.844,344.122,398.781,348.573,394.049,354.804 M316.003,278.202
		c-0.941-0.836,8.093-11.217,8.697-11.406c0.402,0.285,0.887,0.627,1.407,0.994l1.777,1.254c0.066,0.049,0.134,0.096,0.203,0.145
		c1.438,1.014,3.151,2.223,5.095,3.596c3.573,2.521,7.945,5.607,12.941,9.135c1.144,0.807,2.326,1.641,3.53,2.492
		c1.578,1.113,3.201,2.26,4.876,3.441c1.113,0.785,2.248,1.586,3.4,2.4c3.032,2.139,6.193,4.371,9.462,6.678
		c1.491,1.055,3.002,2.119,4.537,3.203c7.25,5.117,14.93,10.539,22.776,16.076c2.114,1.492,4.237,2.992,6.369,4.496
		c9.94,7.018,20.018,14.129,29.71,20.971c1.271,0.896,2.531,1.787,3.787,2.674l1.877,1.324
		c12.699,8.965,24.517,17.305,34.189,24.133c11.985,8.461,20.683,14.6,23.661,16.701l-25.038-0.23L316.003,278.202z
		 M688.559,590.701c-1.85,31.291-13.688,51.105-37.743,71.26c-20.104,16.848-109.058,58.979-109.203,58.986
		c-0.364,0.02-92.998-41.758-113.128-58.857c-23.272-19.771-37.293-41.996-37.372-76.119c-0.069-29.268,0.309-57.037,0.311-70.75
		c15.633-11.372,24.003-16.134,40.258-26.644c7.414-4.793,17.179-9.678,26.841-9.545c12.479,0.172,23.617,5.789,31.699,11.34
		c9.613,6.604,19.328,18.331,31.627,19.433c8.246,0.74,15.35-2.746,22.069-7.112c5.96-3.875,11.913-8.205,18.906-9.605
		c8.303-1.662,16.984,1.123,24.136,5.611c9.83,6.172,13.641,11.378,20.387,17.052c3.967,3.338,17.785,11.549,33.682,9.943
		c8.143-0.822,14.99-4.561,22.383-7.686c7.451-3.15,17.618-2.559,25.552-0.678C689.615,517.486,689.641,572.389,688.559,590.701
		 M687.273,512.293c-7.438-1.459-17.502-0.396-24.86,1.975c-3.95,1.273-7.563,3.256-11.288,5.041
		c-8.917,4.273-22.539,2.908-29.664,0.143c-7.515-2.916-12.498-5.82-17.848-10.904c-11.849-11.276-24.106-22.94-44.294-18.604
		c-6.15,1.32-11.234,4.746-16.149,8.061c-6.735,4.543-13.086,8.843-22.007,8.039c-6.978-0.619-14.506-6.744-21.789-12.664
		c-5.257-4.275-10.693-8.695-16.022-11.107c-19.03-8.615-30.46-9.918-48.692,0.197c-5.157,2.861-34.275,21.563-43.725,27.646
		c0.01-19.833,0.033-39.64,0.054-57.56c0.033-28.648,0.06-51.867,0.017-60.768h298.297c-0.043,8.9-0.016,32.119,0.016,60.768
		c0.022,18.723,0.046,39.506,0.057,60.224C688.669,512.615,687.964,512.428,687.273,512.293 M723.363,541.242
		c11.201-5.826,18.979,4.395,12.076,14.363c-4.446,4.414-16.196,19.344-23.216,18.477
		C689.432,570.451,713.882,546.424,723.363,541.242 M714.905,542.859c-3.818,3.227-6.877,5.953-10.065,9.867
		c-3.648-2.584-9.901-6.344-9.901-6.811l-0.163-16.938C700.876,533.354,709.081,538.668,714.905,542.859 M815.525,418.675
		c1.072-1.395,4.217-2.543,5.25-1.48c8.318,3.666-51.203,66.344-41.267,39.422C791.354,445.788,806.301,432.478,815.525,418.675
		 M813.505,408.595c8.042,7.836-26.263,37.186-33.373,42.988c-1.546,1.045-4.784,3.195-6.491,0.232
		c-1.962-1.793,7.792-9.23,8.777-10.156c11.606-10.934,18.896-20.313,28.338-32.867C811.186,408.22,811.606,406.745,813.505,408.595
		 M807.567,398.45c7.506,5.641-9.975,23.088-11.013,24.133c-1.711,1.789-28.521,33.008-27.549,19.17
		c16.371-16.098,19.544-17.66,33.285-38.322C803.297,401.919,805.025,397.921,807.567,398.45 M798.918,391.63
		c16.51,2.225-24.783,41.434-31.027,45.523c-3.104,2.146-7.005-1.945-4.845-3.576C782.886,417.04,782.299,416.224,798.918,391.63
		 M793.676,380.696c10.03,10.215-15.983,35.463-27.858,46.75c-1.957,1.488-3.913,4.807-6.854,1.447
		c-1.261-2.014-1.926-2.768,1.121-5.326c3.303-2.771,8.585-9.441,11.933-13.371c7.29-8.553,15.329-22.527,17.461-26.955
		C791.24,379.583,792.799,380.415,793.676,380.696 M781.959,372.077c9.964,3.279,2.711,14.924,0.503,18.293
		c-0.616,1.811-22.284,31.582-26.468,31.482c-0.965,0.041-3.363-3.467-2.868-5.074c0.517-1.678,5.127-5.123,6.679-7.053
		C785.948,377.192,778.149,370.821,781.959,372.077 M765.721,378.528c1.586-4.166,3.449-16.941,6.773-16.211
		c5.154,1.129,5.142,3.98,5.154,8.012c0.032,12.063-11.813,28.254-19.844,36.932c-3.015,3.256-9.163,10.76-10.308,3.221
		C754.605,401.519,761.523,389.556,765.721,378.528 M736.561,413.964c1.661-1.605,6.838-3.713,8.184-1.344
		c0,0,27.422,45.227,32.495,52.645c5.175,10.295-7.669,18.334-15.988-1.32l-27.956-43.732
		C731.958,416.804,735.95,414.554,736.561,413.964 M733.048,426.47c0.805,1.35,27.894,43.32,27.267,43.115
		c-20.427,9.979-42.893,12.623-65.892,9.512c-0.015-14.521-0.033-28.396-0.048-42.348
		C706.639,435.804,725.165,432.845,733.048,426.47 M694.392,584.084c0.029-10.029,0.045-20.945,0.055-32.334
		c3.665,2.229,8.045,5.012,7.53,4.877c-8.58,10.66,2.934,25.238,15.355,20.232l1.47,11.65c-3.674,1.246-20.523,2.646-24.479-0.512
		C694.363,586.705,694.389,585.404,694.392,584.084 M694.772,607.199c-0.436-0.09-2.396-0.887-2.396-0.887
		c1.207-6.215,1.459-8.598,2.012-14.117c1.764,0.467,2.565,1.398,9.714,1.662C704.639,601.891,697.555,597.873,694.772,607.199
		 M711.587,599.205c-3.06,3.76-2.887,7.182-0.961,10.965c-5.906-0.129-8.43-0.678-12.811-1.898
		c3.283-8.445,8.285-2.412,9.558-14.584c1.103-0.123,2.354-0.305,3.708-0.527C711.42,594.85,712.93,597.557,711.587,599.205
		 M714.865,609.688c-6.624-8.598,4.845-7.385,0.1-17.107c1.854-0.336,2.312-0.199,4.231-0.576c0.372,3.273,0.771,7.459,2.053,15.885
		C719.572,608.33,717.711,609.215,714.865,609.688 M662.383,721.857l-2.563,0.41c-0.398-0.82-1.068-1.645-1.832-2.469l24.158-16.619
		l-26.904,13.836c-0.347-0.398-0.697-0.768-1.02-1.131c-0.578-0.65-1.047-1.279-1.244-1.979c-0.149-0.527-0.151-1.094,0.11-1.752
		l29.421-14.744l-27.346,10.27c-0.302-0.563-1.19-1.219-2.161-1.973c-1.186-0.92-2.482-1.984-3.002-3.199
		c-0.271-0.635-0.342-1.305-0.056-2.02l30.394-8.096l-30.546,4.268c-1.209-0.814-2.048-1.35-2.576-1.818
		c-0.691-0.619-0.838-1.135-0.58-2.029c0.174-0.604,0.524-1.373,1.031-2.473l29.979-5.104l-30.728,1.488
		c-0.371-0.473-0.862-0.957-1.53-1.447l1.169-1.385c11.844-1.844,23.189-4.777,34.616-7.184c-0.344,1.709-0.057,3.77,0.634,5.99
		c0.955,3.074,2.694,6.457,4.637,9.639c2.382,3.902,5.062,7.5,6.976,9.869c0.384,0.471,0.738,0.9,1.052,1.268
		C683.762,709.596,672.998,715.621,662.383,721.857 M698.167,701.346c-0.443-0.494-0.963-1.092-1.529-1.766
		c-1.952-2.324-4.503-5.609-6.728-9.139c-1.858-2.951-3.486-6.064-4.348-8.918c-0.624-2.07-0.844-4.004-0.453-5.639
		c1.265-0.25,2.539-0.457,3.809-0.686c-0.229,1.881,0.391,4.184,1.492,6.625c1.288,2.857,3.237,5.906,5.278,8.689
		c2.528,3.455,5.192,6.506,6.896,8.285C701.115,699.652,699.64,700.496,698.167,701.346 M706.819,696.346
		c-0.135-0.131-0.275-0.271-0.422-0.418c-0.039-0.039-0.083-0.086-0.124-0.127c-1.802-1.822-4.408-4.646-6.82-7.764
		c-1.866-2.408-3.613-4.988-4.775-7.408c-1.111-2.313-1.689-4.477-1.325-6.203c1.677-0.262,3.367-0.475,5.058-0.684
		c-0.311,2.072,0.345,4.354,1.538,6.619c1.493,2.836,3.831,5.645,6.2,7.996c2.11,2.096,4.242,3.83,5.813,4.889
		C710.242,694.275,708.543,695.33,706.819,696.346 M716.136,690.73c-1.645-0.965-3.771-2.488-5.846-4.328
		c-2.231-1.979-4.399-4.322-5.839-6.732c-1.285-2.154-1.988-4.355-1.629-6.396c1.88-0.17,3.758-0.352,5.663-0.438
		c-0.003,0.881,0.055,1.682,0.145,2.451c0.246,2.113,0.826,3.824,1.687,5.254c1.312,2.182,3.257,3.717,5.627,5.037
		c2.039,0.936,4.014,1.557,4.868,2.336C719.269,688.873,717.692,689.785,716.136,690.73 M724.921,685.324
		c-0.767-0.408-2.117-0.758-3.604-1.221c-2.044-0.568-4.347-1.34-5.641-2.932c-0.641-0.668-1.117-1.461-1.308-2.436
		c1.415,0.598,2.578,0.773,3.629,0.838l0.625-0.049c0.719-0.123,1.764-0.18,3.269,0.414c1.446,0.426,3.046,1.453,5.223,4.006
		C726.388,684.412,725.65,684.861,724.921,685.324 M730.471,681.762c-0.754-1.215-1.622-2.092-2.564-2.754
		c-1.658-1.162-3.549-1.639-5.47-2.004c-1.431-0.063-2.821-0.01-4.968-1.016c-0.227-0.104-0.438-0.219-0.649-0.33
		c-1.49-0.609-2.861-1.553-3.993-3.17c0.932-0.412,1.945-0.924,3.019-1.506c3.08,0.041,5.198,0.594,6.893,1.461
		c1.976,1.012,3.379,2.455,5.021,4.035c1.306,1.258,2.767,2.596,4.808,3.875C731.866,680.82,731.175,681.299,730.471,681.762
		 M735.772,678.197c-2.125-0.799-3.731-1.939-5.179-3.158c-1.67-1.406-3.128-2.92-4.921-4.148c-1.548-1.059-3.343-1.904-5.744-2.281
		c1.609-0.848,2.968-1.393,4.133-1.697c2.252-0.586,3.773-0.26,4.944,0.551c0.534,0.225,1.018,0.508,1.403,0.895
		c0.628,0.627,0.992,1.434,1.412,2.367c0.104,0.227,0.213,0.465,0.328,0.707c1.018,1.643,2.138,3.309,3.989,4.299
		c0.632,0.34,1.35,0.602,2.181,0.752C737.478,677.066,736.616,677.621,735.772,678.197 M742.569,673.504
		c-9.867-0.486-5.278-8.119-14.576-10.242c1.813-1.271,3.637-2.58,5.454-3.918c10.037-0.543,5.884,7.994,16.693,8.729
		C747.341,670.082,744.729,671.961,742.569,673.504 M754.424,664.996c-12.189,0.418-8.017-7.311-16.729-8.826
		c0.84-0.633,1.682-1.268,2.494-1.893c2.473,0.826,7.282,2.145,9.231,2.377c2.818,1.031,4.438,5.357,8.333,5.957
		C756.653,663.4,755.537,664.199,754.424,664.996 M761.928,659.408c-9.108-1.123-8.774-7.857-18.622-7.545
		c3.59-4.953,15.083-4.02,15.663-1.611c0.881,1.99,4.724,5.457,7.359,5.412C764.853,656.992,763.254,658.33,761.928,659.408
		 M742.555,647.738c2.135-2.297,2.882-4.766,3.342-8.41l5.981,1.088C751.659,640.652,745.023,645.902,742.555,647.738
		 M770.168,651.74c-7.692,2.738-4.502-7.041-18.328-6.434c1.813-1.391,3.031-2.697,4.221-3.709c10.327-1.602,9.178,3.424,17.84,5.1
		C772.781,648.52,771.507,650.184,770.168,651.74 M776.572,641.563c-5.877,2.18-7.639-5.41-17.608-3.152
		c0.972-1.283,1.944-2.881,2.684-4.795c6.907-2.732,10.643,4.619,17.163,1.158C778.271,637.107,777.518,639.387,776.572,641.563
		 M743.776,606.811c-0.657-4.268-1.765-13.486-2.063-15.121c2.893,0.566,4.906,1.396,7.428,2.139
		c1.358,1.109,1.069,4.643,0.181,5.414C746.395,602.668,743.03,601.781,743.776,606.811 M744.017,608.068
		c-0.015-0.004-0.022-0.006-0.036-0.014c-0.049-0.273-0.106-0.617-0.165-0.992C743.868,607.379,743.933,607.707,744.017,608.068
		 M753.558,595.277c4.016,1.467,7.471,3.174,10.462,5.057c0.102,8.369-12.225-0.441-11.966,10.729
		c-1.702-0.793-3.361-1.434-4.757-1.922c-0.143-1.668,0.168-3.869,0.559-4.541C749.987,602.662,755.693,600.811,753.558,595.277
		 M756.772,618.664c-2.896-0.387-7.24-0.93-11.131-1.242c-0.262-1.525-0.577-3.311-0.921-5.242
		C752.009,614.594,755.309,616.93,756.772,618.664 M755.671,613.01c-1.274-10.162,10.645,0.35,11.122-10.773
		c1.785,1.332,3.354,2.738,4.736,4.203c-2.193,9.469-9.521,3.086-13.897,8.201C756.854,613.893,756.153,613.354,755.671,613.01
		 M772.391,612.779c0.345-0.277,1.891-1.723,2.389-2.262c1.918,2.861,3.234,5.873,4.019,8.947
		c-4.913,4.684-11.928-2.604-16.605,2.617c-0.465-1.654-1.392-3.502-2.325-4.803C763.185,613.508,767.909,616.453,772.391,612.779
		 M779.573,630.057c-6.2,4.615-10.837-3.662-17.097,0.654c0.293-1.277,0.377-1.973,0.415-3.756c3.6-6.967,10.888,0.699,16.592-3.908
		C779.78,625.385,779.787,627.732,779.573,630.057 M741.76,588.24c-0.241-0.047-0.844-9.199-1.368-12.43l41.908,1.256
		c2.977,15.551,6.612,35.779,7.735,44.51l-7.179-1.047C779.393,606.449,771.531,594.871,741.76,588.24 M829.348,634.453
		c-1.733,7.072-18.901,24.24-26.508,24.295c-7.315,0-12.23-11.25-6.387-16.066c-4.38-1.082-10.67-1.787-14.608-2.703
		c1.495-4.629,1.894-10.625,1.524-15.646l10.723,1.564c0.468-5.105-8.659-52.293-8.659-52.293l-49.2-1.646
		c0,0,4.574,38.824,6.213,48.975c4.214,0.074,12.569,1.205,15.612,1.635c1.81,4.73-0.521,11.563-3.239,14.979l-12.472-1.908
		c0.722,33.107-46.451-19.461-15.367-14.607c-1.465-10.924-5.978-45.219-5.978-45.219l19.39-18.912l45.254,1.436
		c-1.354-31.988,47.825,16.871,15.839,15.225c1.098,15.211,5.765,36.209,8.996,53.65
		C817.481,620.598,831.065,623.393,829.348,634.453"/>
	<path fill="#FFFFFF" d="M538.056,696.504c-7.536-1.877-14.869-4.625-21.799-8.168c-3.799-0.332-9.57-1.061-13.382-1.611
		c0.024-0.01,0.051-0.023,0.074-0.035c-1.246-0.197-4.016-0.629-4.516-0.717l0.002,0.004c-0.914-0.168-4.04-0.734-4.951-0.914
		c1.158,0.957,2.391,1.838,3.656,2.674c0,0,1.496,1.033,2.261,1.412c4.229,2.496,8.843,4.521,13.383,6.494
		c0.413,0.178,0.825,0.357,1.234,0.537c7.477,3.256,17.377,7.012,27.65,7.15c9.229,0.123,16.043-0.822,22.091-3.074
		c0.674-0.248,1.336-0.516,1.999-0.781c-0.985,0.029-1.97,0.057-2.954,0.057C554.444,699.531,546.149,698.516,538.056,696.504"/>
	<path fill="#FFFFFF" d="M561.613,690.203c-6.933,0-13.372-1.193-17.944-2.039l-0.487-0.09c-3.759,0.611-8.137,0.92-13.103,0.92
		c-3.044,0-6.313-0.115-9.785-0.348c5.828,2.713,11.906,4.873,18.13,6.422c10.175,2.531,20.673,3.445,31.219,2.742
		c5.119-2.354,9.909-5.172,14.291-8.432c2.156-1.604,4.234-3.244,5.996-5.191c-7.362,3.043-15.086,4.988-23.022,5.768
		C565.124,690.127,563.353,690.203,561.613,690.203"/>
	<path fill="#FFFFFF" d="M588.281,668.959c-0.309,0.23-1.447,1.076-3.091,2.203c-1.939,1.326-4.137,2.83-6.473,4
		c-0.115,0.057-0.235,0.115-0.35,0.176c2.379-0.775,4.719-1.658,7.004-2.658c1.604-0.703,3.187-1.473,4.743-2.289
		c1.793-0.943,3.554-1.951,5.265-3.025c-0.013-0.283-0.02-0.572-0.043-0.842h-0.001c-0.101-1.074-0.313-1.979-0.617-2.709
		c-0.066-0.16-0.131-0.32-0.208-0.463c-0.085,0.076-0.173,0.164-0.258,0.242l-0.755,0.707c-0.356,0.334-0.707,0.652-1.072,1.002
		C591.131,666.545,589.789,667.83,588.281,668.959"/>
	<path fill="#FFFFFF" d="M523.772,665.389c-0.487-0.17-0.957-0.342-1.41-0.518c-0.017,0.271-0.039,0.656-0.087,1.117
		c-0.2,1.969-0.669,4.402-1.376,6.107c-0.136,0.328-0.296,0.668-0.462,1c-0.367,0.947-0.824,1.846-1.354,2.705
		c0.706,0.211,1.411,0.422,2.118,0.631c0.625,0.186,1.251,0.371,1.874,0.555c-0.184-3.383,0.757-7.4,2.372-11.059
		C524.904,665.764,524.345,665.584,523.772,665.389"/>
	<path fill="#FFFFFF" d="M499.917,655.57c-0.01-0.088-3.429,0.355-5.003,0.758c-2.959,0.758-5.724,2.414-6.472,2.875
		c0.404,0.752,0.913,1.572,1.552,2.414c1.336,1.764,2.78,3.021,3.966,3.885c0.117-0.631,0.345-1.578,0.808-2.658
		c0.367-0.855,1.381-2.688,2.726-4.453c0.191-0.25,0.388-0.508,0.59-0.762c0.278-0.395,0.508-0.699,0.638-0.85
		c0.389-0.441,0.784-0.834,1.174-1.182l0,0c0.005-0.004,0.011-0.014,0.018-0.018C499.913,655.578,499.917,655.574,499.917,655.57"/>
	<path fill="#FFFFFF" d="M588.022,659.803c-1.125,0.045-1.963,0.148-2.828,0.35c-0.413,0.096-0.752,0.193-0.993,0.268
		c0.006,0.012,0.011,0.02,0.017,0.031c0.74,0.742,1.48,2.658,1.556,2.826c0.036,0.08,0.724,1.652,0.936,3.457
		c1.139-0.773,2.07-1.482,2.775-2.045c0.911-0.729,1.438-1.191,2.99-2.545c0.645-0.559,0.809-0.76,1.149-1.045
		c-0.719-0.6-1.279-0.932-2.499-1.148C590.274,659.801,589.334,659.75,588.022,659.803"/>
	<path fill="#FFFFFF" d="M470.626,604.436c0-0.051,0.165-5.076,1.615-5.846c0.334-0.18,0.705-0.152,1.044,0.08
		c0.497,0.34,1.119,1.361,1.094,1.982c-0.013,0.307-0.035,0.672-0.062,1.092c-0.109,1.781-0.278,4.473-0.049,7.996
		c0.896,13.727,4.779,29.029,10.934,43.09c0.11,0.258,0.198,0.457,0.252,0.619c0.578,1.014,1.309,2.506,1.691,3.303
		c0.374-0.271,0.875-0.625,1.208-0.814c0.463-0.264,1.651-0.789,2.317-1.078c-4.542-10.197-6.876-27.789-7.48-35.775
		c-1.104-14.533-0.415-15.213-0.085-15.537c0.599-0.596,1.106-0.576,1.429-0.445c1.249,0.486,1.604,3.449,1.75,7.754
		c0.299,8.883,0.782,14.939,1.615,20.244c1.046,6.68,5.361,20.039,6.217,22.648c3.798-1.014,5.483-0.953,6.516-0.908
		c0.073,0.002,0.143,0.004,0.209,0.006l-0.123-0.557c-1.917-8.699-5.49-24.889-4.531-33.393c0.048-0.439,0.084-0.904,0.12-1.354
		c0.134-1.719,0.229-2.963,0.978-3.24c0.308-0.125,0.678-0.047,0.998,0.201c0.66,0.508,1.269,1.881,0.992,4.207
		c-0.757,6.359,2.821,24.84,5.063,33.537c0.198-0.08,0.384-0.168,0.733-0.387c0.582-0.373,2.559-1.754,3.491-3.957
		c0.311-0.729,0.313-1.072,0.317-2.215c0.003-0.355,0.007-0.787,0.018-1.311c-0.1-1.236-0.095-2.49,0.021-3.891
		c0.02-2.629,1.997-5.637,3.001-6.584c0.343-0.326,0.813-0.68,1.199-0.916c-1.336-5.08-2.674-10.945-2.852-16.67
		c-1.477,1.436-3.677,3.49-4.325,3.645c-1.134,0.27-2.161-0.451-2.839-1.018c-2.356-1.975-4.221-4.486-5.425-7.297
		c-0.702,0.502-1.591,0.785-2.529,0.793c-1.218-0.031-2.35-0.441-3.119-1.242c-0.745-0.777-1.138-1.773-1.448-2.646
		c-0.521-1.465-0.86-2.992-1.188-4.469c-0.261-1.176-0.53-2.389-0.889-3.549c-0.253,0.127-0.568,0.295-0.848,0.443
		c-1.985,1.055-2.719,1.391-3.203,1.197c-0.648-0.248-1.101-1.326-1.545-2.504l-0.12-0.316c-0.417-1.014-0.814-2.865-1.199-4.652
		c-0.182-0.848-0.355-1.662-0.515-2.283c-4.572,4.404-8.009,5.742-10.11,6.084c-0.049,0.006-4.91,0.715-5.553-0.213
		c-0.138-0.199-0.143-0.447-0.015-0.664c0.663-1.115,1.067-1.926,1.317-2.502c-1.563,1.227-4.199,2.535-8.592,1.162
		c-0.65-0.203-1.113-0.414-1.412-0.65c-0.598,0.537-1.681,1.42-2.581,1.695c-2.457,0.758-4.001,0.691-4.724-0.201
		c-0.44-0.541-0.457-1.262-0.322-1.926l-2.142,1.689c1,8.047,2.489,16.049,4.429,23.791c2.144,8.549,4.26,14.566,5.332,17.391
		c1.262,3.33,2.987,7.895,6.063,13.533c1.885,3.457,4.01,6.826,6.318,10.023c0.813-1.602,2.477-4.916,2.916-5.791
		c-1.204-2.48-11.937-25.217-12.697-49.043c-0.164-2.561-0.376-8.625,1.196-9.301c0.105-0.043,0.229-0.078,0.374-0.078
		c0.28,0,0.63,0.129,1.021,0.537l0.093,0.141c0.374,0.838,0.381,1.346,0.393,2.576c0.021,2.117,0.062,6.527,1.938,19.094
		c1.383,9.242,4.563,19.818,10.011,33.277c0.359,0.943,1.564,3.994,2.892,6.043c0.321,0.498,1.887,2.865,3.356,4.178
		c1.062-1.695,2.154-3.289,3.536-4.482C481.061,653.107,471.15,632.553,470.626,604.436"/>
	<path fill="#FFFFFF" d="M630.99,595.277c0.031,0.412-0.04,0.826-0.296,1.184c-0.655,0.908-2.205,1.088-4.74,0.551
		c-0.888-0.186-2.335-1.076-3.233-1.674c-0.094,0.244-0.261,0.537-0.565,0.834c-0.865,0.84-3.463,1.201-6.152,0.313
		c-0.959-0.316-1.861-0.766-2.704-1.35c0.313,0.621,0.757,1.436,1.386,2.492c0.127,0.217,0.121,0.465-0.018,0.664
		c-0.643,0.928-5.501,0.219-5.552,0.213c-4.587-0.742-8.413-4.324-10.251-6.045c-0.116-0.109-0.236-0.221-0.348-0.324
		c-0.156,1.979-0.668,5.256-1.205,7.168c-0.009,0.023-0.718,2.502-1.687,2.875c-0.476,0.182-1.216-0.143-3.201-1.199
		c-0.278-0.148-0.596-0.316-0.85-0.443c-0.36,1.162-0.629,2.377-0.89,3.557c-0.328,1.471-0.668,2.998-1.186,4.461
		c-0.313,0.873-0.705,1.871-1.449,2.648c-0.762,0.791-1.882,1.24-3.08,1.24h-0.038c-0.938-0.006-1.824-0.289-2.528-0.793
		c-1.205,2.811-3.07,5.324-5.426,7.299c-0.675,0.564-1.706,1.291-2.841,1.016c-0.644-0.156-2.834-2.197-4.311-3.631
		c-0.018,2.082-0.084,3.773-0.374,5.393c-0.953,5.363-1.948,8.592-2.732,10.807c0.446,0.281,0.717,0.512,0.73,0.525
		c0.451,0.385,0.777,0.771,0.93,0.969c0.331,0.42,1.312,1.865,1.757,2.955c0.683,1.66,1.04,3.42,1.159,5.699
		c0.063,1.26,0.067,2.131,0.069,2.764c0.008,1.145,0.01,1.486,0.318,2.213c0.507,1.193,1.274,2.021,2.037,2.682l0.682-2.375
		c2.748-9.537,6.897-23.943,6.403-29.266c-0.221-2.373,0.387-3.732,1.028-4.215c0.311-0.232,0.659-0.297,0.966-0.18
		c0.608,0.227,1.029,1.104,1.098,4.639c0.115,5.914-4.105,21.061-6.63,30.109c-0.318,1.143-0.611,2.197-0.87,3.135
		c0.26,0.123,0.624,0.305,1.073,0.559c0.958,0.539,2.742,1.541,4.431,3.465c0.371,0.422,0.773,1.01,1.131,1.529l0.014,0.02
		l0.352-0.043c2.992-5.686,7.996-22.717,8.787-26.635c1.035-5.127,1.311-11.336,1.612-20.225c0.146-4.305,0.501-7.27,1.75-7.756
		c0.316-0.131,0.824-0.148,1.427,0.447c0.331,0.326,1.02,1.002-0.085,15.539l-0.11,1.561c-0.494,7.029-1.048,14.99-9.828,36.768
		c0.499-0.016,0.944-0.027,1.372-0.027c2.158,0,3.836,0.176,5.094,0.531c5.519-15.658,11.624-36.389,12.395-48.176
		c0.229-3.525,0.062-6.219-0.046-8c-0.028-0.42-0.049-0.783-0.063-1.088c-0.026-0.623,0.594-1.645,1.09-1.984
		c0.343-0.229,0.713-0.258,1.045-0.084c1.444,0.768,1.616,5.799,1.616,5.852c-0.349,18.668-6.68,36.619-11.302,49.725
		c-0.687,1.945-1.33,3.771-1.906,5.467c0.247,0.271,0.402,0.479,0.402,0.479c0.131,0.172,0.257,0.369,0.379,0.588
		c1.576-0.781,4.013-2.279,5.422-3.465c1.897-1.598,2.879-3.363,3.521-4.727c6.756-14.318,9.76-32.563,9.789-32.744
		c1.023-6.311,1.866-15.928,1.917-17.703c0.017-0.557,0.021-1.008,0.024-1.381c0.012-1.232,0.016-1.742,0.391-2.58l0.094-0.139
		c0.592-0.619,1.088-0.59,1.394-0.457c1.573,0.674,1.36,6.74,1.194,9.316c-0.759,23.842-11.516,46.605-12.696,49.037
		c0.202,0.373,0.626,0.877,1.036,1.365c0.267,0.318,0.542,0.646,0.794,0.975c0.475,0.627,0.998,1.291,1.321,1.693
		c1.697-1.549,5.371-7.033,6.09-8.285c2.825-4.904,4.39-9.08,5.649-12.432l0.41-1.094c1.077-2.846,3.2-8.891,5.333-17.391
		c1.113-4.441,3.169-13.477,4.539-24.43c-0.517-0.131-1.015-0.311-1.487-0.541C631.494,595.586,631.237,595.438,630.99,595.277"/>
	<path fill="#FFFFFF" d="M489.267,673.998c1.464,0.586,5.008,1.551,6.531,1.955c3.208,0.803,6.46,1.43,9.728,1.951
		c0.235,0.035,0.469,0.082,0.703,0.115c0.622,0.098,1.243,0.178,1.865,0.266c0.622,0.092,1.242,0.188,1.865,0.27
		c1.129,0.146,2.261,0.281,3.394,0.408c3.854,0.43,7.724,0.74,11.599,0.945c-2.353-0.564-4.768-1.199-7.45-1.906
		c-0.032,0.043-0.264-0.023-0.638-0.168c-0.577-0.152-1.195-0.322-1.833-0.496c-0.081-0.025-0.165-0.049-0.247-0.07
		c-0.337-0.094-0.676-0.189-1.029-0.291c-0.07-0.02-0.146-0.041-0.216-0.063c-0.609-0.176-1.242-0.363-1.896-0.564
		c-0.271-0.082-0.537-0.162-0.815-0.248c-0.249-0.078-0.504-0.16-0.758-0.24c-0.314-0.102-0.628-0.203-0.95-0.307
		c-0.25-0.084-0.502-0.168-0.757-0.252c-0.353-0.119-0.711-0.24-1.074-0.365c-0.242-0.082-0.482-0.166-0.728-0.252
		c-0.413-0.146-0.835-0.297-1.261-0.453c-0.213-0.074-0.422-0.15-0.638-0.23c-0.647-0.238-1.306-0.486-1.982-0.748
		c-0.104-0.041-0.214-0.086-0.322-0.129c-0.061-0.025-0.119-0.049-0.177-0.072c-0.006,0.004-0.012,0.008-0.018,0.014l-0.271-0.109
		c0.006-0.004,0.012-0.01,0.018-0.014c-0.077-0.031-0.154-0.061-0.231-0.092c-0.211-0.084-0.421-0.166-0.637-0.258
		c-1.742-0.719-3.588-1.568-5.461-2.645c-0.89-0.438-1.565-0.893-2.155-1.352c-0.696-0.465-1.389-0.957-2.076-1.5
		c-0.416-0.33-0.8-0.66-1.171-0.986c-0.429-0.379-0.827-0.76-1.198-1.143c-1.118-1.15-1.989-2.328-2.668-3.605
		c-0.335,0.934-0.672,1.875-0.983,2.826c-0.633,1.941-1.147,3.92-1.245,5.959c-0.013,0.287-0.146,0.809,0.019,1.039
		C484.606,671.883,488.208,673.576,489.267,673.998"/>
	<path fill="#FFFFFF" d="M553.825,683.266c0.342-0.166,0.673-0.363,1.012-0.537c-2.897,0.258-8.954,0.51-17.733-0.584
		c-1.225-0.154-2.379-0.324-3.504-0.502c-0.1-0.002-0.205-0.006-0.304-0.006c-6.021-0.041-12.43-0.41-18.629-1.051
		c-1.395-0.094-1.865-0.191-3.116-0.332c-0.654-0.08-1.307-0.162-1.959-0.248c-3.025-0.398-6.04-0.879-9.031-1.471
		c-1.518-0.301-3.063-0.623-4.604-0.982c0.001,0.014,0.001,0.023,0.003,0.035c-2.229-0.586-6.452-1.818-8.505-2.754
		c-0.618-0.281-1.974-0.924-3.332-1.801c0.104,0.643,0.284,1.277,0.548,1.875c0.031,0.068,0.071,0.164,0.13,0.291
		c0.495,1.078,1.135,2.078,1.448,2.557c0.598,0.914,0.965,1.477,1.587,2.205c0.127,0.15,0.667,0.777,1.481,1.529
		c0.754,0.695,1.456,1.234,2.029,1.633c1.289,0.273,4.273,0.861,5.82,1.156l-0.013-0.021c1.628,0.297,6.067,0.99,8.096,1.309
		c0.013-0.006,0.025-0.012,0.038-0.018c3.101,0.414,8.16,1.063,11.25,1.33c10.812,0.936,19.739,0.84,26.537-0.283
		c2.922-0.482,5.193-1.113,7.03-1.762C551.612,684.303,552.828,683.758,553.825,683.266"/>
	<path fill="#FFFFFF" d="M585.981,674.031c-4.861,2.127-9.957,3.756-15.184,4.865c-0.023,0.008-0.046,0.016-0.07,0.027
		c-0.808,0.338-1.631,0.656-2.458,0.965l0.042,0.029l-0.342,0.078c-1.027,0.373-2.072,0.703-3.126,1.002
		c-0.569,0.162-1.137,0.332-1.713,0.465c-1.723,0.402-3.26,0.668-4.601,0.855c-1.312,0.818-2.653,1.594-4.035,2.273
		c-0.262,0.127-0.542,0.262-0.834,0.396c-1.621,0.754-3.711,1.586-6.561,2.293c5.419,0.941,12.485,1.902,19.657,1.199
		c8.674-0.85,17.089-3.123,25.043-6.727c0.876-1.326,1.626-2.777,2.158-4.451c0.678-2.137,1.308-5.299,1.426-8.197
		c-1.741,1.066-3.529,2.061-5.35,2.992C588.698,672.781,587.35,673.432,585.981,674.031"/>
	<path fill="#FFFFFF" d="M556.971,679.957c1.661-0.193,3.433-0.465,5.566-0.963c0.441-0.102,0.881-0.225,1.318-0.348
		c-1.169-1.133-2.264-2.73-4.109-5.953c-0.962-1.682-1.429-3.719-1.61-5.779c-0.355,0.127-0.85,0.348-1.609,0.463
		c-0.16,0.025-0.401,0.061-0.646,0.1c0.699,1.689,1.217,3.529,1.437,5.619c0.222,2.121-0.021,4.131-0.256,6.074
		C557.028,679.43,557,679.693,556.971,679.957"/>
	<path fill="#FFFFFF" d="M481.148,588.035c0.383-0.48,0.403-0.594,0.563-1.451c0.1-0.535,0.246-1.313,0.556-2.563
		c2.105-8.475,6.397-13.455,8.276-15.313c-4.274-0.961-5.761-4.232-5.715-7.439c-0.301,0.262-0.604,0.529-0.787,0.691
		c-3.739,3.35-7.107,13.33-8.507,18.701l-0.003,0.014c-0.762,3.432-2.222,6.363-4.07,10.074c-0.723,1.453-1.533,3.082-2.387,4.91
		C470.888,595.449,476.672,593.648,481.148,588.035"/>
	<path fill="#FFFFFF" d="M492.541,601.998l0.216,0.75c1.053,3.621,1.053,3.623,1.067,3.727c0.262,1.512,0.961,2.225,1.531,2.383
		c0.221-0.049,1.404-1.068,2.498-3.223l0.008-0.016c1.027-1.85,8.536-16.656,10.263-20.654c-0.904-0.283-1.778-0.65-2.886-1.205
		c-1.313-0.658-2.286-1.336-3.319-2.055c-0.196-0.137-0.396-0.273-0.598-0.412c-1.003,2.047-2.074,4.09-3.193,6.084
		c-1.978,3.531-4.149,7-6.456,10.314c-0.052,0.08-0.126,0.182-0.215,0.297l1.045,3.871l-0.442,0.273L492.541,601.998z"/>
	<path fill="#FFFFFF" d="M504.909,616.387c0.733-0.15,3.439-2.582,4.622-4.156c0.633-4.088,2.436-12.23,4.364-17.059
		c0.998-2.5,2.286-5.012,3.283-6.832l-0.151-0.041c-0.982-0.283-2.097-0.604-3.071-1.002c-0.589-0.236-1.039-0.383-1.44-0.512
		c-0.478-0.154-0.907-0.293-1.413-0.533c-0.995,2.098-4.226,9.24-5.184,11.563c-0.368,0.889-1.628,3.463-2.852,5.947
		c-1.122,2.293-2.28,4.654-2.685,5.59l0.011,0.035C501.222,612.113,502.741,614.469,504.909,616.387"/>
	<path fill="#FFFFFF" d="M485.804,598.553c0.339-0.174,1.155-0.898,1.484-1.189c0.184-0.164,0.339-0.301,0.439-0.379
		c0.905-0.715,1.677-1.781,2.42-2.82c0.182-0.248,0.361-0.494,0.537-0.732c2.111-2.834,3.834-5.979,5.503-9.02l0.913-1.646
		c0.185-0.32,0.374-0.641,0.518-0.975c0.052-0.111,0.279-0.516,1.612-2.725c-1.59-1.768-4.769-6.869-5.684-9.334
		c-0.865,0.277-1.743,1.52-2.293,2.297l-0.22,0.311c-1.012,1.396-2.02,2.98-3.078,4.84c-1.576,2.773-2.406,5.832-2.957,8.186
		l-0.132,0.574c-0.561,2.383-0.897,3.82-0.513,6.313C484.929,595.938,485.49,598.031,485.804,598.553"/>
	<path fill="#FFFFFF" d="M462.6,593.701c1.564-0.379,4.522-1.705,6.767-6.338l0.143-0.293c0.641-1.32,1.52-3.125,2.846-6.771
		c0.687-1.891,1.231-3.537,1.739-5.064c1.065-3.213,1.984-5.986,3.667-9.35c0.418-0.836,0.952-1.85,1.749-3.043
		c1.158-1.75,2.529-3.359,4.077-4.807c-3.565-0.846-5.053-3.482-5.499-5.016c-0.268,0.283-0.515,0.576-0.674,0.775
		c-1.91,2.355-8.297,10.736-10.337,19.668c-0.26,1.336-0.791,3.697-1.261,5.783c-0.374,1.652-0.709,3.141-0.845,3.834
		c-0.627,3.215-1.361,6.057-4.516,10.719C460.839,593.887,461.589,593.941,462.6,593.701"/>
	<path fill="#FFFFFF" d="M466.724,564.328c2.919-6.639,9.013-14.213,10.34-15.824c-0.388-0.484-1.12-1.406-1.455-1.9
		c-0.448-0.662-0.631-1.508-0.779-2.186c-0.035-0.16-0.076-0.35-0.117-0.506c-1.588,1.361-7.597,9.811-10.893,16.426
		c-3.662,7.346-6.301,18.545-7.27,23.018c-0.293,1.371-1.138,4.973-1.42,5.77c-0.494,1.383-1.341,3.119-1.959,4.383
		c-0.146,0.303-0.302,0.623-0.435,0.898c4.977-1.188,7.968-4.973,8.899-11.262c0.204-1.379,1.759-8.682,2.1-10.215
		C464.285,569.998,465.322,567.514,466.724,564.328"/>
	<path fill="#FFFFFF" d="M598.083,586.988c0.165,0.873,0.193,1.031,0.615,1.559c4.912,6.168,11.278,7.74,12.618,7.74h0.05
		c-0.917-1.984-1.789-3.734-2.562-5.285c-1.841-3.697-3.294-6.621-4.052-10.025l-0.006-0.018
		c-0.388-1.484-3.921-14.648-8.581-18.818c-0.258-0.23-0.825-0.73-1.228-1.078c0.146,2.178-0.233,6.855-5.953,7.859
		c1.627,1.523,6.317,6.543,8.545,15.514C597.84,585.682,597.987,586.467,598.083,586.988"/>
	<path fill="#FFFFFF" d="M618.19,594.443c0.965,0.115,1.587-0.047,1.784-0.16c-3.28-4.777-4.026-7.643-4.66-10.887
		c-0.135-0.697-0.479-2.225-0.847-3.846c-0.47-2.08-1.002-4.443-1.262-5.789c-2.052-8.979-8.467-17.395-10.384-19.762
		c-0.224-0.279-0.616-0.742-1.005-1.109c-0.24,1.352-1.68,4.596-5.884,5.363c1.677,1.514,3.152,3.221,4.392,5.082
		c0.786,1.182,1.316,2.189,1.73,3.018c1.675,3.348,2.594,6.115,3.654,9.316c0.521,1.563,1.057,3.18,1.741,5.072
		c1.33,3.656,2.213,5.471,2.858,6.795l0.139,0.293C613.101,593.305,616.745,594.279,618.19,594.443"/>
	<path fill="#FFFFFF" d="M628.018,594.799c0.182,0,0.361-0.012,0.547-0.035c0.008,0,0.021,0,0.029,0
		c-0.07-0.451-0.782-2.078-3.15-5.811c-0.431-0.676-1.663-4.262-1.998-5.814c-0.967-4.48-3.614-15.699-7.289-23.072
		c-2.209-4.439-5.469-10.289-11.161-16.416c-0.209,1.344-0.461,2.254-0.75,2.717c-0.665,1.051-1.291,1.486-1.666,1.746
		c-0.083,0.059-0.19,0.133-0.244,0.184c0.866,1.043,7.407,9.016,10.465,15.965c1.396,3.168,2.425,5.639,2.976,8.563
		c0.107,0.488,0.313,1.584,0.551,2.85c0.507,2.719,1.205,6.438,1.53,7.291C620.776,590.633,624.366,594.799,628.018,594.799"/>
	<path fill="#FFFFFF" d="M590.193,595.396c1.066,1.365,2.319,2.572,3.72,3.596c0.136,0.098,0.258,0.18,0.373,0.184h0.007
		c0.097,0,0.155-0.1,0.254-0.338l0.024-0.061c0.406-0.922,0.607-1.963,0.803-2.969l0.07-0.373c0.171-0.852,0.329-1.762,0.49-2.785
		c0.393-2.541,0.031-4.08-0.516-6.404l-0.135-0.576c-0.554-2.373-1.392-5.455-2.982-8.248c-1.061-1.869-2.072-3.459-3.091-4.869
		l-0.223-0.309c-0.612-0.869-1.618-2.291-2.654-2.443c-0.811,2.52-3.657,7.662-5.823,9.607c1.646,2.727,1.678,2.818,1.691,2.863
		c0.138,0.314,0.332,0.65,0.522,0.977c0.086,0.148,0.172,0.295,0.253,0.441l0.66,1.203c1.087,1.984,2.211,4.033,3.434,5.98
		c0.604,0.961,1.12,1.736,1.623,2.434c0.182,0.248,0.358,0.504,0.536,0.76C589.536,594.508,589.857,594.967,590.193,595.396"/>
	<path fill="#FFFFFF" d="M584.865,608.939c0.029,0,0.054-0.004,0.076-0.01c1.242-0.35,1.486-0.896,1.971-2.215
		c0.43-1.178,0.807-2.379,1.115-3.572c0.031-0.123,0.063-0.24,0.091-0.363c0.222-0.883,0.394-1.791,0.562-2.668
		c0.032-0.158,0.065-0.291,0.105-0.439c0.093-0.352,0.287-1.088,0.144-1.279l-0.084-0.107c-0.11-0.145-0.204-0.273-0.276-0.383
		c-2.295-3.299-4.465-6.764-6.438-10.283c-1.163-2.076-2.278-4.205-3.313-6.334c-0.287,0.195-0.565,0.389-0.842,0.578
		c-1.021,0.713-1.99,1.389-3.287,2.037c-1.201,0.6-2.125,0.98-3.109,1.271c1.508,3.602,9.33,19.033,10.379,20.928
		C582.96,608.066,584.379,608.939,584.865,608.939"/>
	<path fill="#FFFFFF" d="M569.051,586.275c-1.316,0.633-4.535,1.641-6.559,2.27c1.012,1.828,2.376,4.461,3.421,7.08
		c2.265,5.67,3.511,10.982,3.7,15.791c1.269,1.715,4.869,5.258,5.481,5.143c4.021-4.164,4.587-6.057,4.801-6.77
		c0.01-0.033,0.018-0.063,0.027-0.09c-0.372-0.883-1.568-3.324-2.727-5.684c-1.221-2.484-2.479-5.055-2.845-5.936
		C573.355,595.662,569.896,588.021,569.051,586.275"/>
	<path fill="#FFFFFF" d="M628.676,569.334c-0.352-0.979-0.702-1.961-1.047-2.98c-0.055-0.16-0.143-0.373-0.249-0.635
		c-0.112-0.273-0.246-0.598-0.383-0.961c-5.24-13.826-13.392-23.646-14.506-24.746c-1.022,0.352-2.086,0.574-3.168,0.666
		c-1.038,0.082-2.076,0.053-3.099-0.1c0.41,0.557,0.984,1.318,1.668,2.225c3.344,4.436,8.94,11.861,10.528,15.436
		c2.026,4.563,4.244,10.072,7.088,22.705c1.364,6.063,4.912,11.225,8.119,11.852c0.088-0.344,0.089-1.648-0.569-6.215
		C631.849,578.205,630.236,573.695,628.676,569.334"/>
	<path fill="#FFFFFF" d="M539.919,560.188c-1.053-1.441-3.001-1.629-3.366-1.664c-3.19-0.305-5.554,2.434-6.324,3.326
		c-0.532,0.615-1.245,1.594-1.751,2.924c-0.619,1.633-0.636,3.018-0.636,3.725c-0.021,11.189,0.787,16.053,0.787,16.053
		c0.305,1.824,1.059,6.016,2.626,11.217c0,0,1.621,6.006,5.185,10.639c0.821,1.068,2.928,3.041,3.785,2.643
		c-1.834-4.104-2.813-7.459-3.015-7.945c-0.43-1.047-2.507-7.68-2.864-13.18c-0.549-8.453,0.757-18.215-0.128-25.168
		c0.079-0.078,0.208-0.188,0.367-0.184c1.002,0.027,1.263,3.279,1.363,5.525c0.226,5.023-0.024,8.883-0.202,11.068
		c-0.454,5.574-0.243,7.787,0.15,10.568c1.069,7.527,5.096,18.635,5.438,18.865c0.132,0.09,0.176-1.051,0.304-2.141
		c0-0.004-0.099-1.949-0.104-2.596c-0.022-6.064-0.742-15.225-0.742-15.225c-0.015-6.994-0.255-11.619-0.135-18.547
		C540.688,568.453,540.63,561.162,539.919,560.188"/>
	<path fill="#FFFFFF" d="M454,581.051c2.851-12.662,5.163-18.383,7.104-22.75c1.602-3.605,7.048-10.857,10.3-15.191
		c0.585-0.773,1.089-1.445,1.473-1.967l-5.507-0.727c-1.262,1.307-9.29,11.156-14.381,24.592c-0.136,0.355-0.267,0.674-0.375,0.945
		c-0.108,0.266-0.199,0.482-0.254,0.643c-0.347,1.02-0.698,2-1.046,2.98c-1.558,4.352-3.168,8.85-4.377,17.203
		c-0.549,3.824-0.633,5.311-0.602,5.877C449.385,591.828,452.692,586.861,454,581.051"/>
	<path fill="#FFFFFF" d="M554.746,673.736c-0.568-5.445-3.393-9.191-6.483-12.861c-0.604-0.719-1.07-1.338-1.472-1.953
		c-1.795-2.752-2.65-5.691-2.406-8.27c0.105-1.156,0.449-2.209,0.75-3.139c0.709-2.191,0.657-2.861,0.619-3.4l-0.016-0.211
		c-0.078-1.529-0.635-2.701-0.844-3.143c-0.303-0.635-0.643-1.197-1.016-1.662c-0.224-0.281-0.38-0.24-0.818-0.086
		c-0.17,0.059-0.354,0.123-0.558,0.162c-0.972,0.193-1.971,0.23-2.975,0.107c-0.181-0.021-0.452-0.055-0.748-0.094
		c-0.513-0.07-1.098-0.148-1.41-0.18c-0.01,0-0.021-0.002-0.03-0.002c-0.497,0-1.355,1.182-1.644,1.578
		c-0.077,0.104-0.137,0.186-0.172,0.23c-0.264,0.311-0.478,0.76-0.688,1.189c-0.093,0.199-0.187,0.389-0.279,0.559
		c-1.05,1.938-0.804,3.871-0.384,5.674c0.175,0.73,0.371,1.557,0.483,2.482c0.048,0.375,0.095,0.734,0.145,1.082
		c0.415,3.014,0.716,5.191-2.386,7.934c-4.405,3.898-6.299,8.822-6.947,18.125c2.716,0.617,5.678,1.141,8.811,1.557
		c1.41-1.781,2.309-6.51,1.365-10.662c-0.01-0.041-0.724-4.271,0.037-4.518c0.351-0.117,0.573,0.371,0.692,0.635
		c2.177,4.887,2.445,10.299,0.752,14.891l0.129,0.018c0.024,0.002,2.429,0.295,5.673,0.516c0.1,0.006,0.204,0.012,0.308,0.02
		c-1.627-4.738-1.174-10.238,1.265-15.154c0.128-0.258,0.359-0.754,0.718-0.609c0.75,0.277-0.138,4.475-0.149,4.518
		c-1.139,4.193-0.933,6.982,0.865,11.391c3.285,0.133,6.129,0.102,8.448-0.105l0.007-0.059c0.034-0.34,0.066-0.68,0.106-1.006
		C554.726,677.391,554.942,675.602,554.746,673.736 M536.976,645.51c-0.273,0.725-0.842,1.238-1.075,1.375
		c-0.041,0.023-0.084,0.035-0.129,0.035c-0.086,0-0.172-0.045-0.219-0.125c-0.072-0.117-0.033-0.271,0.089-0.34
		c0.042-0.027,0.116-0.09,0.202-0.17c0.207-0.191,0.495-0.527,0.655-0.949c0.052-0.143,0.098-0.279,0.139-0.416
		c-0.149,0.131-0.348,0.26-0.604,0.361c-0.235,0.092-0.517,0.168-0.864,0.197c-0.043,0.006-0.086,0.004-0.129-0.002
		c-0.148-0.021-0.285-0.094-0.379-0.213c-0.354-0.438-0.493-0.889-0.42-1.346c0.143-0.857,1.019-1.418,1.598-1.789
		c0.253-0.162,0.58-0.1,0.767,0.127c0.065,0.014,0.128,0.051,0.167,0.113C537.531,643.59,537.319,644.602,536.976,645.51
		 M542.944,645.568c0.162,0.428,0.449,0.76,0.657,0.953c0.085,0.078,0.158,0.139,0.201,0.164c0.121,0.072,0.16,0.225,0.089,0.344
		c-0.048,0.08-0.132,0.123-0.22,0.123c-0.044,0-0.088-0.01-0.13-0.035c-0.231-0.137-0.802-0.652-1.072-1.377
		c-0.344-0.906-0.557-1.918,0.199-3.141c0.039-0.063,0.104-0.1,0.169-0.111c0.186-0.229,0.514-0.291,0.768-0.129
		c0.578,0.373,1.453,0.932,1.595,1.791c0.076,0.455-0.064,0.908-0.417,1.344c-0.095,0.119-0.232,0.193-0.38,0.215
		c-0.043,0.004-0.086,0.006-0.129,0.002c-0.348-0.031-0.628-0.104-0.863-0.199c-0.258-0.102-0.454-0.229-0.604-0.361
		C542.847,645.287,542.892,645.426,542.944,645.568"/>
	<path fill="#FFFFFF" d="M527.406,553.359c0,0,0.971,0.762,1.864,0.789c0.12,0.004,0.231-0.014,0.231-0.014
		c0.083-0.012,0.156-0.043,0.234-0.063c-2.107-1.455-3.774-3.984-3.632-6.594c0.086-1.598,1.263-2.734,2.015-4.047
		c0.351-0.609,0.616-1.252,0.623-2.004c0.004-0.436-0.351-0.666-0.694-0.666c-0.319,0-0.629,0.197-0.633,0.604
		c-0.007,0.598-0.229,1.125-0.532,1.619c-0.312,0.51-0.706,0.988-1.034,1.471c-0.784,1.152-1.166,2.406-1.055,3.799
		c0.019,0.229,0.062,0.451,0.099,0.676c0.188,1.162,0.601,2.02,0.898,2.535C526.41,552.539,527.122,553.137,527.406,553.359"/>
	<path fill="#FFFFFF" d="M521.905,632.467c0.773,0.271,1.479,0.656,2.062,1.16c1.163-1.678,5.361-7.764,6.061-9.117
		C527.835,626.199,523.927,630.512,521.905,632.467"/>
	<path fill="#FFFFFF" d="M525.562,636.34c0.945-0.623,6.506-9.486,6.506-9.486c-1.721,1.137-5.911,5.238-7.658,7.211
		c0.254,0.281,0.477,0.588,0.658,0.928C525.303,635.43,525.454,635.893,525.562,636.34"/>
	<path fill="#FFFFFF" d="M541.506,636.277l0.147-0.002c0.818-0.076,1.336-0.205,1.576-0.303c-0.247-1.432-1.819-7.959-2.548-9.857
		c-0.609,1.863-1.632,8.254-1.792,9.984c0.376,0.078,1.327,0.176,2.172,0.176L541.506,636.277z"/>
	<path fill="#FFFFFF" d="M550.361,626.42c0,0,3.659,7.061,5.188,9.336c0.176-0.438,0.359-0.822,0.523-1.131
		c0.163-0.305,0.362-0.563,0.566-0.816c-0.282-0.49-0.647-1.129-1.061-1.85C553.791,629.83,551.514,627.326,550.361,626.42"/>
	<path fill="#FFFFFF" d="M557.459,632.994c0.554-0.439,1.186-0.754,1.874-0.969c-1.948-2.316-4.932-6.123-6.743-7.775
		c0.493,1.186,3.191,5.932,4.641,8.457C557.309,632.805,557.385,632.9,557.459,632.994"/>
	<path fill="#FFFFFF" d="M561.594,586.244l1.28-0.535c0,0,4.559-1.623,6.045-2.246c2.12-0.889,6.125-2.869,8.062-4.4
		c5.15-4.076,6.715-9.84,8.233-11.662c5.283-0.336,7.437-2.924,7.773-5.584c0.201-1.598-1.484-5.252-1.01-5.387
		c0,0,5.854-1.295,7.167-3.289c1.939-2.947,0.848-6.729,0.848-6.729c0.075,0,5.157-1.904,2.181-9.326
		c0.601,1.5,12.014,0.285,11.747-0.471c-0.741-2.111-3.752-4.738-6.801-6.607c-3.842-2.355-8.254-2.816-11.065-2.488
		c-3.098,0.357-6.183,0.684-9.106,1.842c-4.298,1.703-6.563,4.84-7.618,9.232c-1.177,4.896-1.185,9.984-1.739,14.986
		c-0.699,6.324-2.52,12.357-7.458,16.701c-3.987,3.504-9.259,6.293-14.547,7.217C557.653,579.689,561.594,586.244,561.594,586.244"
		/>
	<path fill="#FFFFFF" d="M477.906,537.086c-2.977,7.422,2.105,9.326,2.182,9.326c0,0-1.094,3.779,0.847,6.729
		c1.313,1.994,7.167,3.289,7.167,3.289c0.475,0.135-1.211,3.789-1.01,5.387c0.337,2.664,2.49,5.248,7.772,5.584
		c1.52,1.822,3.085,7.586,8.233,11.662c1.939,1.531,5.942,3.512,8.062,4.4c1.486,0.623,6.046,2.246,6.046,2.246l1.28,0.535
		c0,0,3.941-6.555,6.011-8.746c-5.453-0.955-14.649-5.348-18.649-12.006c-4.009-7.682-4.454-17.199-4.472-17.602
		c-0.399-6.672-1.448-12.037-1.66-12.578c-2.736-6.99-12.952-7.477-15.691-7.793c-2.81-0.328-7.222,0.133-11.063,2.488
		c-3.05,1.869-6.06,4.496-6.802,6.607C465.893,537.373,477.306,538.586,477.906,537.086"/>
	<path fill="#FFFFFF" d="M582.083,660.656c-0.022-0.037-0.917-1.627-1.995-2.793c-1.577-1.697-3.632-2.809-5.282-3.701
		c-0.446-0.242-0.865-0.469-1.226-0.684c-0.783-0.459-1.754-1.033-2.617-2.057c-1.69-2.01-1.868-4.48-2.012-6.467
		c-0.039-0.557-0.062-1.084-0.082-1.598c-0.052-1.256-0.102-2.441-0.41-3.783c-0.373-1.639-1.021-2.979-1.918-3.982
		c-1.124-1.258-2.609-1.895-4.412-1.895c-0.07,0-0.139,0.006-0.211,0.014l-0.109,0.014c-0.339,0.025-0.672,0.09-0.991,0.189
		c-0.586,0.188-1.163,0.482-1.716,0.881c-0.118,0.086-0.234,0.17-0.347,0.262c-0.089,0.072-0.169,0.148-0.251,0.227l-0.059,0.055
		c-0.229,0.211-0.414,0.408-0.569,0.592c-0.13,0.168-0.212,0.293-0.292,0.414c-0.21,0.32-0.357,0.609-0.45,0.881
		c-0.363,1.045-0.165,2.029,0.063,3.164l0.047,0.23c0.384,1.939,1.914,4.359,2.068,4.555c0.804,1.043,1.633,2.111,2.153,3.369
		c0.74,1.771,0.91,3.648,0.491,5.428c-0.472,1.99-0.81,4.15-1.106,6.057c-0.125,0.793-0.24,1.539-0.36,2.232
		c-0.335,1.979-0.148,4.324,0.537,6.785c0.14,0.498,0.535,1.791,1.214,3.063c1.155,2.164,2.541,4.047,4.121,5.604
		c1.418-0.484,2.947-1.09,4.67-1.842c1.931-0.848,3.761-1.732,5.461-2.574c-0.405-0.379-0.896-0.846-1.407-1.377l-0.137-0.141
		c-1.478-1.527-3.152-3.262-4.587-6c-2.229-4.262-1.631-6.594-1.557-6.844c0.013-0.039,0.363-1.217,0.363-1.217l0.337-1.115
		l0.224,1.699c0.029,0.213,0.096,0.684,0.214,1.307c0.602,2.49,2.272,5.271,2.99,6.139c2.31,2.785,4.213,4.701,6.154,6.195
		c0.903-0.514,1.868-1.113,2.942-1.824c-0.637-2.813-1.628-5.955-4.053-8.16c-0.21-0.191-0.984-0.895-0.986-0.895l-0.391-0.346
		l0.459-0.262c0.262-0.146,0.912-0.189,2.343,1.148c1.608,1.498,3.407,5.051,4.129,7.5l0.305-0.209
		c0.435-0.295,0.812-0.561,1.161-0.807c-0.257-1.27-0.563-2.465-0.886-3.467C583.515,662.787,582.098,660.676,582.083,660.656
		 M565.828,640.447c-0.077,0.209-0.3,0.324-0.511,0.273c-0.016-0.006-0.03-0.01-0.044-0.014c-0.227-0.078-0.345-0.324-0.264-0.547
		c0.025-0.072,0.056-0.191,0.084-0.338c0.093-0.484,0.153-1.303-0.103-1.986c-0.062-0.164-0.125-0.318-0.194-0.465
		c-0.036,0.338-0.18,0.75-0.534,1.217c-0.008,0.012-0.012,0.02-0.02,0.031c-0.027,0.033-0.056,0.063-0.089,0.09
		c-0.112,0.094-0.259,0.143-0.409,0.133c-0.558-0.037-0.985-0.238-1.271-0.596c-0.54-0.674-0.369-1.68-0.257-2.346
		c0.013-0.078,0.045-0.152,0.088-0.217l-0.015-0.02c-0.102-0.008-0.194-0.02-0.304-0.021c-0.241-0.01-0.434-0.195-0.432-0.432
		c0.001-0.234,0.194-0.426,0.436-0.426c2.451,0.012,3.306,1.396,3.814,2.754C566.219,638.639,566,639.975,565.828,640.447"/>
	<path fill="#FFFFFF" d="M524.418,453.597l-15.642,24.471l24.77-15.451l6.455,28.227l6.453-28.227l24.773,15.451l-15.644-24.471
		l28.575-6.375l-28.575-6.377l15.644-24.469l-24.773,15.453l-6.453-28.227l-6.455,28.227l-24.77-15.453l15.642,24.469l-28.576,6.377
		L524.418,453.597z M520.305,427.765l15.621,9.746l4.075-17.809l4.073,17.809l15.624-9.746l-9.866,15.438l18.022,4.02l-18.022,4.023
		l9.866,15.434l-15.624-9.746l-4.073,17.809l-4.075-17.809l-15.621,9.746l9.866-15.434l-18.024-4.023l18.024-4.02L520.305,427.765z"
		/>
	<path fill="#FFFFFF" d="M497.872,259.005c-2.869,0-5.204,2.307-5.204,5.141c0,2.836,2.335,5.143,5.204,5.143
		c2.87,0,5.204-2.307,5.204-5.143C503.076,261.312,500.742,259.005,497.872,259.005"/>
	<path fill="#FFFFFF" d="M582.348,269.288c2.869,0,5.204-2.307,5.204-5.143c0-2.834-2.335-5.141-5.204-5.141
		s-5.205,2.307-5.205,5.141C577.143,266.981,579.479,269.288,582.348,269.288"/>
	<path fill="#FFFFFF" d="M540.641,269.288c2.869,0,5.205-2.307,5.205-5.143c0-2.834-2.336-5.141-5.205-5.141
		s-5.205,2.307-5.205,5.141C535.436,266.981,537.772,269.288,540.641,269.288"/>
	<path fill="#FFFFFF" d="M493.607,311.372c-2.871,0-5.204,2.307-5.204,5.141c0,2.836,2.333,5.143,5.204,5.143
		c2.869,0,5.205-2.307,5.205-5.143C498.812,313.679,496.476,311.372,493.607,311.372"/>
	<path fill="#FFFFFF" d="M586.305,311.372c-2.869,0-5.205,2.307-5.205,5.141c0,2.836,2.336,5.143,5.205,5.143
		c2.871,0,5.204-2.307,5.204-5.143C591.509,313.679,589.176,311.372,586.305,311.372"/>
	<path fill="#FFFFFF" d="M540.487,311.372c-2.87,0-5.204,2.307-5.204,5.141c0,2.836,2.334,5.143,5.204,5.143
		c2.869,0,5.205-2.307,5.205-5.143C545.692,313.679,543.356,311.372,540.487,311.372"/>
	<polygon fill="#FFFFFF" points="362.885,452.319 365.445,445.788 366.233,443.778 364.197,442.999 360.551,441.604 
		358.515,440.825 357.726,442.837 355.166,449.366 346.664,446.114 344.628,445.335 343.84,447.347 341.974,452.106 
		341.186,454.118 343.221,454.897 351.725,458.149 348.885,465.394 348.096,467.405 350.133,468.183 353.779,469.579 
		355.814,470.356 356.603,468.347 359.442,461.101 366.351,463.743 368.385,464.521 369.174,462.511 371.039,457.751 
		371.828,455.737 369.792,454.96 	"/>
	<polygon fill="#FFFFFF" points="716.456,461.829 717.003,463.919 719.117,463.378 726.287,461.544 728.063,468.325 728.61,470.413 
		730.723,469.872 734.509,468.905 736.622,468.364 736.455,467.726 736.507,467.712 735.899,465.603 734.3,459.497 743.126,457.241 
		745.24,456.7 744.694,454.612 743.4,449.671 742.852,447.583 740.74,448.124 731.911,450.38 729.943,442.858 729.396,440.771 
		727.281,441.31 723.496,442.276 721.383,442.819 721.93,444.905 723.899,452.427 716.729,454.261 714.615,454.8 715.162,456.888 	
		"/>
	<path fill="#FFFFFF" d="M522.303,636.643c-0.712-1.104-2.064-1.822-3.706-1.98c-0.209-0.02-0.438-0.02-0.62-0.02
		c-0.745,0-1.471,0.121-2.155,0.363l-0.146,0.047c-0.063,0.014-0.127,0.035-0.19,0.061c-0.929,0.389-2.204,0.92-3.509,2.758
		c-0.874,1.238-0.904,2.301-0.976,4.637l-0.029,0.938c-0.029,0.824-0.01,1.174,0.005,1.455c0.016,0.309,0.03,0.557-0.013,1.164
		c-0.143,1.984-0.322,4.453-2.013,6.465c-1.242,1.48-3.002,2.41-4.703,3.309c-1.271,0.67-2.583,1.363-3.646,2.275
		c-1.464,1.25-2.674,2.922-3.705,5.105c-0.695,1.475-1.2,2.969-1.544,4.564c0.397,0.248,0.787,0.473,1.177,0.693
		c0.241,0.137,0.483,0.27,0.726,0.4c0.565-2.424,2.568-6.518,4.306-8.141c1.422-1.328,2.079-1.289,2.34-1.15l0.464,0.258
		l-1.378,1.246c-2.351,2.145-3.549,5.834-4.142,8.555c-0.004,0.018-0.007,0.033-0.012,0.051c0.912,0.443,1.856,0.865,2.884,1.287
		c0.256,0.104,0.506,0.203,0.751,0.303l0.126,0.047c1.57-1.244,3.195-2.939,5.565-5.797c0.718-0.867,2.388-3.648,2.994-6.15
		c0.115-0.615,0.183-1.088,0.211-1.295l0.223-1.703l0.336,1.117c0,0,0.343,1.146,0.364,1.209c0.075,0.262,0.67,2.602-1.557,6.852
		c-1.437,2.744-3.115,4.479-4.594,6.01l-0.129,0.133c-0.231,0.236-0.448,0.461-0.657,0.672l0.761,0.275
		c0.577,0.211,1.147,0.412,1.696,0.602c0.558,0.189,1.06,0.352,1.546,0.504c0.999,0.313,1.882,0.561,2.902,0.848
		c1.07,0.301,2.277,0.643,3.838,1.119c1.317-1.842,2.213-3.574,2.734-5.299c0.64-2.098,0.825-4.447,0.577-7.174
		c-0.214-2.334-0.661-4.857-1.446-8.178c-0.42-1.775-0.249-3.65,0.49-5.428c0.523-1.258,1.352-2.328,2.154-3.365
		c0.161-0.205,0.318-0.41,0.473-0.613l0.1-0.133C523.733,642.178,523.553,638.572,522.303,636.643 M517.324,639.342
		c-0.177,0.422-0.532,0.729-1.059,0.916c-0.143,0.051-0.298,0.043-0.432-0.018c-0.038-0.016-0.074-0.039-0.108-0.063
		c-0.012-0.01-0.018-0.016-0.027-0.025c-0.472-0.354-0.725-0.713-0.853-1.027c-0.025,0.162-0.043,0.326-0.058,0.5
		c-0.056,0.684,0.214,1.471,0.449,1.939c0.062,0.125,0.123,0.232,0.173,0.303c0.139,0.193,0.096,0.461-0.102,0.6
		c-0.075,0.051-0.164,0.076-0.25,0.076c-0.137,0-0.27-0.063-0.355-0.178c-0.295-0.412-0.874-1.637-0.781-2.809
		c0.116-1.439,0.555-3.002,2.915-3.672c0.229-0.068,0.47,0.064,0.537,0.293c0.066,0.227-0.067,0.463-0.299,0.529
		c-0.104,0.031-0.19,0.068-0.286,0.102l-0.008,0.023c0.058,0.051,0.109,0.113,0.146,0.188
		C517.218,637.629,517.657,638.549,517.324,639.342"/>
</g>
</svg>
