<?xml version="1.0" encoding="utf-8"?>
<!-- Generator: Adobe Illustrator 16.0.0, SVG Export Plug-In . SVG Version: 6.00 Build 0)  -->
<!DOCTYPE svg PUBLIC "-//W3C//DTD SVG 1.1//EN" "http://www.w3.org/Graphics/SVG/1.1/DTD/svg11.dtd">
<svg version="1.1" id="Camada_1" xmlns="http://www.w3.org/2000/svg" xmlns:xlink="http://www.w3.org/1999/xlink" x="0px" y="0px"
	 width="500px" height="500px" viewBox="0 0 500 500" enable-background="new 0 0 500 500" xml:space="preserve">
<path fill="#164193" d="M353.097,394.451c0-0.391-0.036-0.771-0.049-1.16c-0.019-0.52-0.024-1.043-0.065-1.555
	c-0.049-0.602-0.137-1.188-0.218-1.777c-0.042-0.305-0.065-0.617-0.117-0.92c-0.097-0.582-0.229-1.15-0.356-1.719
	c-0.067-0.301-0.119-0.607-0.193-0.904c-0.144-0.568-0.321-1.119-0.495-1.67c-0.089-0.283-0.162-0.574-0.26-0.854
	c-0.213-0.617-0.46-1.211-0.708-1.805c-0.082-0.193-0.15-0.396-0.236-0.59c-3.857-8.676-11.455-14.598-20.186-14.598
	c-8.728,0-16.322,5.922-20.18,14.598c-0.087,0.193-0.155,0.396-0.237,0.59c-0.248,0.594-0.495,1.188-0.707,1.805
	c-0.098,0.279-0.171,0.57-0.26,0.854c-0.174,0.551-0.352,1.102-0.495,1.67c-0.076,0.297-0.127,0.604-0.194,0.904
	c-0.128,0.568-0.259,1.137-0.356,1.719c-0.051,0.303-0.075,0.615-0.117,0.92c-0.081,0.59-0.168,1.176-0.218,1.777
	c-0.042,0.512-0.046,1.035-0.064,1.555c-0.014,0.389-0.05,0.77-0.05,1.16c0,0.006,0.003,0.012,0.003,0.016
	c0,0.01-0.003,0.021-0.003,0.031c0,15.193,10.266,27.553,22.879,27.553c12.618,0,22.884-12.359,22.884-27.553
	c0-0.01-0.002-0.021-0.002-0.031C353.095,394.463,353.097,394.457,353.097,394.451 M340.687,394.498c0,7-4.697,12.695-10.474,12.695
	c-5.771,0-10.469-5.695-10.469-12.695c0-0.529,0.073-1.043,0.127-1.563c0.032-0.314,0.029-0.645,0.079-0.953
	c0.403-2.439,1.39-4.682,2.879-6.479c0.031-0.037,0.05-0.08,0.08-0.119c1.889-2.236,4.463-3.627,7.304-3.627
	c2.845,0,5.42,1.391,7.31,3.629c0.03,0.037,0.049,0.08,0.08,0.117c1.487,1.797,2.475,4.039,2.879,6.479
	c0.05,0.309,0.047,0.639,0.078,0.953C340.613,393.455,340.687,393.969,340.687,394.498 M337.603,375.039
	c-1.479,1.783-2.039,4.26-1.688,6.572c-1.708-1.1-3.63-1.783-5.701-1.783c-2.068,0-3.988,0.684-5.695,1.783
	c0.35-2.313-0.208-4.789-1.688-6.572c-1.078-1.301-2.493-2.035-4.009-2.15c3.293-2.553,7.197-4.055,11.393-4.055
	c4.196,0,8.102,1.502,11.396,4.057C340.094,373.006,338.68,373.738,337.603,375.039"/>
<rect x="33.761" y="255.127" transform="matrix(0.999 -0.0441 0.0441 0.999 -13.2546 11.3204)" fill="#164193" width="432.479" height="102.013"/>
<path fill="#FFFFFF" d="M386.153,272.107c-0.233-5.255-4.68-9.326-9.936-9.094l-26.296,1.16h-0.001l-26.298,1.16
	c-5.255,0.232-9.325,4.68-9.094,9.934s4.68,9.326,9.934,9.094l16.783-0.74l1.945,44.045c0.23,5.254,4.678,9.324,9.933,9.094
	c5.255-0.232,9.326-4.68,9.095-9.936l-1.943-44.043l16.783-0.74C382.313,281.809,386.385,277.361,386.153,272.107"/>
<path fill="#FFFFFF" d="M312.041,327.936c-0.005-0.096-0.012-0.189-0.018-0.285c-0.355-6.549-3.032-12.441-7.199-16.914
	c3.808-4.891,5.968-11.105,5.674-17.77c-0.657-14.889-13.305-26.467-28.19-25.811l-25.375,1.121c-5.255,0.23-9.327,4.68-9.095,9.934
	c0,0.01,0.001,0.018,0.002,0.027l1.541,34.916c0,0.01,0,0.018,0,0.025c0.001,0.01,0.002,0.02,0.002,0.027l0.819,18.563
	c0.231,5.254,4.679,9.324,9.934,9.094c5.254-0.232,9.325-4.68,9.093-9.936l-0.399-9.072l15.861-0.699
	c4.394-0.193,8.129,3.225,8.323,7.619l0.05,1.104c0.229,5.254,4.676,9.324,9.931,9.094c5.256-0.23,9.327-4.68,9.096-9.934
	L312.041,327.936z M283.851,302.129l-15.862,0.701l-0.703-15.945l15.861-0.699c4.396-0.193,8.131,3.223,8.324,7.619
	C291.664,298.199,288.245,301.936,283.851,302.129"/>
<path fill="#FFFFFF" d="M232.294,323.027l-24.023,1.059l-0.342-7.75l9.653-0.426c5.254-0.232,9.326-4.68,9.094-9.934
	c-0.232-5.254-4.679-9.326-9.934-9.094l-9.653,0.426l-0.341-7.752l24.023-1.059c5.254-0.232,9.326-4.68,9.093-9.936
	c-0.231-5.254-4.679-9.326-9.934-9.093l-33.538,1.478c-5.254,0.232-9.326,4.682-9.093,9.936l1.181,26.777l0,0
	c0,0.002,0,0.002,0,0.004l1.183,26.775c0.231,5.254,4.679,9.326,9.933,9.094l33.538-1.479c5.253-0.23,9.326-4.68,9.094-9.934
	S237.548,322.793,232.294,323.027"/>
<path fill="#FFFFFF" d="M176.983,308.168c2.571-3.908,3.978-8.633,3.739-13.654c-0.601-12.664-11.521-22.365-24.186-21.805
	l-25.844,1.139c-0.032,0.002-0.063,0.006-0.094,0.008c-0.032,0-0.063,0-0.095,0.002c-4.975,0.219-8.887,4.219-9.092,9.104
	c-0.001,0.029-0.001,0.059-0.003,0.086c-0.003,0.121-0.006,0.24-0.005,0.361c0,0.068,0.002,0.139,0.004,0.209
	c0.001,0.057,0,0.115,0.003,0.174l2.364,53.557c0.001,0.033,0.004,0.063,0.006,0.096c0.001,0.029,0,0.061,0.003,0.09
	c0.002,0.023,0.006,0.047,0.008,0.068c0.021,0.283,0.051,0.561,0.095,0.836c0.006,0.039,0.013,0.076,0.019,0.115
	c0.048,0.275,0.105,0.545,0.176,0.811c0.009,0.037,0.021,0.07,0.03,0.107c0.073,0.266,0.157,0.525,0.25,0.781
	c0.013,0.033,0.027,0.066,0.04,0.1c0.099,0.256,0.207,0.506,0.324,0.748c0.016,0.031,0.032,0.063,0.048,0.092
	c0.121,0.242,0.252,0.48,0.393,0.711c0.017,0.027,0.035,0.055,0.052,0.082c0.145,0.23,0.297,0.453,0.46,0.67
	c0.019,0.025,0.038,0.049,0.057,0.074c0.167,0.215,0.34,0.424,0.523,0.623c0.02,0.021,0.04,0.043,0.059,0.064
	c0.187,0.199,0.38,0.393,0.583,0.574c0.021,0.02,0.041,0.035,0.062,0.055c0.206,0.184,0.417,0.357,0.638,0.521
	c0.02,0.014,0.041,0.027,0.062,0.043c0.224,0.164,0.453,0.32,0.691,0.465c0.02,0.012,0.039,0.021,0.059,0.033
	c0.241,0.145,0.488,0.279,0.742,0.4c0.018,0.012,0.036,0.018,0.054,0.025c0.257,0.123,0.521,0.234,0.79,0.334
	c0.016,0.006,0.031,0.01,0.047,0.018c0.272,0.098,0.552,0.186,0.835,0.26c0.013,0.004,0.026,0.006,0.04,0.01
	c0.287,0.072,0.579,0.135,0.876,0.18c0.009,0.002,0.019,0.004,0.028,0.006c0.301,0.045,0.606,0.08,0.915,0.098
	c0.005,0,0.011,0,0.016,0c0.314,0.018,0.631,0.02,0.95,0.004h0.001l26.031-1.146c12.665-0.559,22.689-11.184,22.171-23.852
	C181.705,316.418,179.889,311.836,176.983,308.168 M157.549,291.729c2.167-0.096,4.092,1.596,4.151,3.764
	c0.058,2.109-1.592,3.889-3.706,3.982l-16.793,0.742l-0.342-7.752L157.549,291.729z M159.175,326.254l-16.792,0.742l-0.342-7.752
	l16.689-0.736c2.168-0.096,4.093,1.596,4.153,3.764C162.94,324.381,161.29,326.16,159.175,326.254"/>
<path fill="#FFFFFF" d="M87.74,281.033c-2.515-4.619-8.298-6.324-12.917-3.811c-0.252,0.139-0.491,0.289-0.725,0.443
	c-0.007,0.006-0.016,0.01-0.022,0.014c-0.047,0.031-0.094,0.063-0.14,0.094c-0.029,0.02-0.059,0.039-0.087,0.059
	c-0.021,0.016-0.042,0.029-0.063,0.043c-0.24,0.166-0.474,0.344-0.7,0.531c-0.019,0.016-0.039,0.031-0.058,0.049
	c-0.219,0.184-0.429,0.381-0.632,0.588c-0.018,0.02-0.037,0.037-0.054,0.055c-0.196,0.201-0.381,0.416-0.56,0.637
	c-0.019,0.021-0.038,0.045-0.056,0.066c-0.17,0.215-0.329,0.439-0.481,0.668c-0.02,0.033-0.042,0.063-0.062,0.096
	c-0.142,0.221-0.273,0.449-0.398,0.684c-0.022,0.045-0.045,0.086-0.066,0.129c-0.09,0.174-0.176,0.352-0.256,0.535L46.66,336.625
	c-2.098,4.822,0.111,10.432,4.934,12.531c1.374,0.598,2.81,0.846,4.212,0.783c3.521-0.154,6.819-2.268,8.319-5.717l3.969-9.121
	l26.514-1.17l4.756,8.736c1.799,3.305,5.27,5.117,8.791,4.963c1.402-0.063,2.812-0.436,4.127-1.152
	c0.323-0.176,0.627-0.371,0.921-0.576c4.052-2.707,5.445-8.104,3.07-12.465L87.74,281.033z M80.152,307.383l7.365,13.527
	l-13.509,0.598L80.152,307.383z"/>
<path fill="#FFFFFF" d="M448.123,318.793l-28.53-52.404c-2.516-4.617-8.299-6.324-12.918-3.81c-0.251,0.136-0.488,0.286-0.723,0.441
	c-0.009,0.005-0.016,0.011-0.023,0.016c-0.048,0.032-0.095,0.063-0.14,0.093c-0.03,0.021-0.058,0.039-0.088,0.059
	c-0.021,0.014-0.042,0.029-0.063,0.043c-0.24,0.165-0.473,0.344-0.699,0.531c-0.019,0.016-0.039,0.031-0.058,0.049
	c-0.22,0.186-0.43,0.381-0.632,0.588c-0.019,0.018-0.037,0.035-0.055,0.054c-0.195,0.204-0.382,0.415-0.56,0.638
	c-0.018,0.023-0.037,0.045-0.057,0.067c-0.169,0.214-0.327,0.437-0.48,0.669c-0.02,0.029-0.041,0.062-0.062,0.094
	c-0.143,0.221-0.274,0.45-0.398,0.686c-0.022,0.041-0.045,0.084-0.066,0.125c-0.09,0.176-0.176,0.354-0.256,0.536l-23.804,54.712
	c-2.098,4.824,0.111,10.434,4.934,12.533c1.374,0.598,2.81,0.846,4.212,0.785c3.521-0.158,6.818-2.27,8.318-5.719l3.969-9.119
	l26.515-1.172l4.756,8.736c1.799,3.303,5.271,5.117,8.79,4.961c1.402-0.061,2.813-0.436,4.128-1.15
	c0.322-0.176,0.627-0.371,0.92-0.576C449.105,328.551,450.498,323.154,448.123,318.793 M412.005,292.738l7.365,13.527l-13.51,0.596
	L412.005,292.738z"/>
<rect x="47.548" y="77.62" fill="#164193" width="139.735" height="156.601"/>
<path fill="#FFFFFF" d="M122.023,185.029H84.059c-8.638,0-15.642-7.003-15.642-15.641c0-8.639,7.003-15.642,15.642-15.642h37.964
	c7.228,0,13.105-5.879,13.105-13.106c0-7.226-5.878-13.105-13.105-13.105H84.059c-8.638,0-15.642-7.003-15.642-15.643
	c0-8.638,7.003-15.641,15.642-15.641h37.964c24.476,0,44.389,19.913,44.389,44.389S146.499,185.029,122.023,185.029"/>
<path fill="#FFFFFF" d="M84.059,99.254c6.969,0,12.639,5.67,12.639,12.638v88.054c0,6.969-5.67,12.639-12.639,12.639
	c-6.969,0-12.639-5.67-12.639-12.639v-88.054C71.42,104.924,77.09,99.254,84.059,99.254 M84.059,96.251
	c-8.638,0-15.641,7.004-15.641,15.641v88.054c0,8.638,7.002,15.641,15.641,15.641S99.7,208.584,99.7,199.947v-88.054
	C99.7,103.255,92.697,96.251,84.059,96.251"/>
<path fill="#164193" d="M298.648,397.896c-0.285,0.316-0.569,0.641-0.857,0.924C298.078,398.527,298.363,398.223,298.648,397.896"/>
<path fill="#164193" d="M302.344,409.115c-1.549-1.209-3.615-1.824-6.146-1.824h-8.28c-0.165,0.211-0.328,0.426-0.492,0.639
	c0.791,0.338,1.468,0.768,2.069,1.26h6.703c2.096,0,3.77,0.477,4.975,1.422c1.33,1.041,2.034,2.512,2.034,4.258
	c0,1.514-0.54,2.881-1.561,3.951c-1.06,1.105-2.578,1.664-4.512,1.664h-9.458c-2.438,1.115-5.774,1.424-9.501,1.424
	c-7.348,0-13.054-3.057-13.054-7.447c0-1.58,0.792-3.043,2.121-4.279c-0.473-0.338-0.842-0.637-1.063-0.826l1.801-3.5
	c0.226-0.309,0.326-0.441,0.431-0.557c2.896-3.012,5.578-5.652,7.983-7.865c0.836-0.77,1.563-1.416,2.241-2.008h-0.025l-0.271,0.232
	c-0.659,0.582-1.368,1.209-2.178,1.961c-2.401,2.207-5.083,4.85-7.978,7.855c-0.985,1.053-1.833,2.375-2.588,4.043
	c-0.813,1.797-1.209,3.314-1.209,4.639c0,2.205,0.853,4.213,2.464,5.803c1.623,1.607,3.778,2.422,6.409,2.422h23.873
	c2.472,0,4.45-0.756,5.883-2.25c1.363-1.434,2.086-3.252,2.086-5.262C305.104,412.52,304.147,410.529,302.344,409.115"/>
<path fill="#164193" d="M300.67,395.426h-0.054c-0.12,0.17-0.236,0.354-0.357,0.516L300.67,395.426z"/>
<path fill="#164193" d="M301.991,393.432c1.681-2.773,2.534-5.883,2.534-9.238c0-2.18-0.415-4.309-1.227-6.332
	c-0.801-2.008-1.952-3.814-3.423-5.371c-1.482-1.559-3.223-2.805-5.184-3.699c-5.26-2.324-13.232-2.49-18.53-0.395
	c-2.489,0.988-4.612,2.334-6.313,4.012c-1.681,1.678-2.963,3.572-3.809,5.627c-0.859,2.068-1.293,4.117-1.293,6.092
	c0,2.801,1.174,4.564,2.159,5.549c1.421,1.416,3.258,2.16,5.321,2.16c2.978,0,4.734-1.375,5.683-2.529
	c0.924-1.127,1.689-2.586,2.354-4.473c0.454-1.318,0.647-1.771,0.691-1.852c0.941-1.453,1.976-2.045,3.568-2.045
	c0.73,0,1.371,0.154,1.967,0.469c0.538,0.287,0.948,0.676,1.259,1.193c0.305,0.5,0.453,1.082,0.453,1.785
	c0,0.732-0.196,1.52-0.581,2.354c-0.444,0.955-1.131,1.938-2.037,2.916c-1.006,1.074-2.283,2.162-3.787,3.23
	c-0.766,0.516-1.828,1.375-3.16,2.541h21.979C301.077,394.773,301.546,394.168,301.991,393.432"/>
<path fill="#164193" d="M289.903,405.58c-0.734,0.596-1.415,1.17-2.048,1.711h0.063c0.03-0.039,0.061-0.078,0.092-0.117
	c0.647-0.555,1.355-1.148,2.127-1.777c3.355-2.742,5.675-4.695,7.086-5.967c0.192-0.174,0.377-0.422,0.568-0.609
	c-0.268,0.271-0.533,0.551-0.801,0.791C295.574,400.887,293.193,402.893,289.903,405.58"/>
<path fill="#164193" d="M298.648,397.896c0.545-0.602,1.082-1.238,1.611-1.955l-0.81,1.021
	C299.187,397.295,298.917,397.592,298.648,397.896"/>
<path fill="#164193" d="M284.713,407.543c1.1-1.016,2.441-2.166,3.989-3.43c3.265-2.668,5.628-4.658,7.021-5.91
	c0.3-0.271,0.601-0.566,0.903-0.881h-17.305c-0.57,0.504-1.186,1.051-1.875,1.689c-2.374,2.186-5.026,4.801-7.887,7.771
	c-0.834,0.891-1.566,2.043-2.238,3.52c-0.696,1.541-1.037,2.805-1.037,3.854c0,1.686,0.655,3.229,1.9,4.453
	c1.256,1.246,2.965,1.875,5.075,1.875h14.416c2.37-1.084,3.891-2.93,4.056-6.023c0.127-2.383-0.751-4.064-2.237-5.271h-6.564
	L284.713,407.543z"/>
<path fill="#164193" d="M268.412,405.299c-0.104,0.115-0.205,0.248-0.431,0.557l-1.801,3.5c0.223,0.189,0.59,0.486,1.063,0.826
	c-1.33,1.238-2.122,2.699-2.122,4.279c0,4.391,5.704,7.447,13.054,7.447c3.726,0,7.063-0.311,9.5-1.424h-14.414
	c-2.111,0-3.82-0.631-5.076-1.875c-1.243-1.227-1.9-2.768-1.9-4.453c0-1.049,0.341-2.313,1.037-3.854
	c0.672-1.477,1.404-2.629,2.238-3.52c2.86-2.971,5.512-5.586,7.887-7.771c0.69-0.637,1.305-1.186,1.875-1.689h17.305
	c-0.303,0.314-0.604,0.611-0.903,0.881c-1.395,1.254-3.757,3.242-7.021,5.91c-1.549,1.264-2.89,2.414-3.99,3.43l-1.782,1.646h6.564
	c-0.603-0.49-1.278-0.922-2.07-1.26c0.164-0.213,0.329-0.426,0.493-0.639h-0.063c0.634-0.541,1.314-1.115,2.049-1.711
	c3.289-2.686,5.671-4.693,7.087-5.969c0.268-0.24,0.533-0.521,0.801-0.791c0.288-0.283,0.572-0.607,0.857-0.924
	c0.27-0.305,0.539-0.602,0.801-0.934l0.81-1.021c0.121-0.164,0.237-0.348,0.357-0.516h-21.979c-0.679,0.592-1.405,1.238-2.241,2.01
	C273.99,399.645,271.308,402.287,268.412,405.299"/>
<path fill="#164193" d="M380.9,420.316h9.457c1.935,0,3.453-0.559,4.513-1.664c1.02-1.07,1.561-2.438,1.561-3.951
	c0-1.746-0.705-3.217-2.035-4.258c-1.203-0.945-2.879-1.422-4.975-1.422h-6.703c1.488,1.209,2.365,2.889,2.238,5.271
	C384.79,417.387,383.27,419.232,380.9,420.316"/>
<path fill="#164193" d="M391.871,397.73c-0.285,0.314-0.568,0.639-0.856,0.922C391.302,398.361,391.586,398.055,391.871,397.73"/>
<path fill="#164193" d="M395.567,408.945c-1.55-1.205-3.617-1.82-6.146-1.82h-8.279c-0.165,0.211-0.329,0.424-0.493,0.635
	c0.792,0.34,1.467,0.771,2.069,1.262h6.703c2.096,0,3.771,0.477,4.975,1.422c1.33,1.041,2.034,2.512,2.034,4.256
	c0,1.516-0.54,2.883-1.56,3.955c-1.06,1.104-2.579,1.662-4.513,1.662H380.9c-2.438,1.115-5.775,1.424-9.501,1.424
	c-7.35,0-13.056-3.057-13.056-7.447c0-1.578,0.794-3.041,2.123-4.279c-0.474-0.338-0.842-0.637-1.062-0.824l1.799-3.502
	c0.226-0.307,0.326-0.441,0.431-0.557c2.896-3.012,5.578-5.652,7.982-7.865c0.837-0.768,1.564-1.416,2.242-2.008h-0.024
	l-0.271,0.234c-0.66,0.58-1.368,1.207-2.179,1.959c-2.401,2.209-5.083,4.85-7.977,7.857c-0.986,1.053-1.834,2.375-2.59,4.043
	c-0.811,1.795-1.207,3.311-1.207,4.637c0,2.205,0.852,4.213,2.463,5.803c1.623,1.607,3.778,2.422,6.409,2.422h23.873
	c2.472,0,4.45-0.756,5.883-2.248c1.364-1.434,2.087-3.252,2.087-5.266C398.327,412.352,397.371,410.363,395.567,408.945"/>
<path fill="#164193" d="M393.893,395.258h-0.053c-0.12,0.168-0.236,0.354-0.357,0.518L393.893,395.258z"/>
<path fill="#164193" d="M395.215,393.266c1.681-2.775,2.533-5.883,2.533-9.24c0-2.178-0.415-4.309-1.226-6.332
	c-0.801-2.006-1.952-3.814-3.424-5.371c-1.482-1.559-3.224-2.805-5.184-3.697c-5.26-2.326-13.232-2.492-18.529-0.396
	c-2.49,0.99-4.612,2.334-6.313,4.014c-1.683,1.678-2.964,3.57-3.81,5.627c-0.858,2.066-1.293,4.115-1.293,6.09
	c0,2.801,1.176,4.564,2.16,5.549c1.42,1.416,3.257,2.16,5.321,2.16c2.978,0,4.733-1.373,5.682-2.529
	c0.923-1.127,1.69-2.586,2.353-4.473c0.456-1.318,0.649-1.77,0.693-1.852c0.94-1.453,1.975-2.045,3.568-2.045
	c0.729,0,1.37,0.154,1.966,0.471c0.538,0.285,0.949,0.674,1.26,1.193c0.305,0.5,0.452,1.08,0.452,1.785
	c0,0.73-0.196,1.518-0.582,2.354c-0.443,0.955-1.13,1.938-2.037,2.914c-1.004,1.076-2.281,2.164-3.786,3.23
	c-0.766,0.516-1.827,1.377-3.159,2.541h21.979C394.301,394.607,394.769,394,395.215,393.266"/>
<path fill="#164193" d="M383.127,405.412c-0.734,0.596-1.416,1.172-2.049,1.713h0.063c0.03-0.041,0.061-0.08,0.091-0.119
	c0.648-0.557,1.355-1.148,2.127-1.777c3.355-2.74,5.676-4.693,7.087-5.965c0.192-0.174,0.376-0.424,0.568-0.611
	c-0.268,0.271-0.534,0.551-0.802,0.793C388.798,400.719,386.416,402.727,383.127,405.412"/>
<path fill="#164193" d="M391.871,397.73c0.546-0.604,1.083-1.24,1.611-1.955l-0.81,1.02
	C392.41,397.127,392.141,397.426,391.871,397.73"/>
<path fill="#164193" d="M377.936,407.375c1.101-1.014,2.441-2.166,3.99-3.43c3.265-2.668,5.628-4.656,7.021-5.91
	c0.301-0.27,0.6-0.566,0.903-0.881h-17.304c-0.571,0.504-1.186,1.053-1.875,1.689c-2.374,2.186-5.027,4.803-7.887,7.773
	c-0.834,0.889-1.567,2.041-2.239,3.52c-0.695,1.541-1.036,2.805-1.036,3.852c0,1.686,0.655,3.227,1.9,4.453
	c1.256,1.246,2.964,1.875,5.075,1.875H380.9c2.37-1.084,3.89-2.93,4.056-6.023c0.127-2.383-0.751-4.064-2.238-5.271h-6.563
	L377.936,407.375z"/>
<path fill="#164193" d="M361.635,405.131c-0.104,0.115-0.204,0.25-0.43,0.557l-1.8,3.502c0.221,0.188,0.587,0.488,1.062,0.824
	c-1.329,1.238-2.123,2.701-2.123,4.279c0,4.391,5.706,7.447,13.055,7.447c3.726,0,7.063-0.309,9.501-1.424h-14.414
	c-2.112,0-3.82-0.631-5.077-1.875c-1.243-1.227-1.899-2.768-1.899-4.451c0-1.049,0.341-2.313,1.037-3.854
	c0.671-1.479,1.403-2.631,2.238-3.52c2.859-2.971,5.512-5.588,7.887-7.771c0.689-0.639,1.304-1.186,1.875-1.691h17.304
	c-0.303,0.314-0.604,0.611-0.903,0.881c-1.394,1.254-3.756,3.242-7.02,5.91c-1.549,1.264-2.891,2.416-3.99,3.43l-1.783,1.646h6.565
	c-0.604-0.49-1.279-0.922-2.07-1.26c0.164-0.213,0.329-0.426,0.492-0.637h-0.063c0.634-0.541,1.314-1.117,2.05-1.713
	c3.289-2.686,5.671-4.693,7.087-5.967c0.267-0.242,0.533-0.523,0.801-0.793c0.288-0.283,0.571-0.607,0.856-0.922
	c0.27-0.305,0.539-0.604,0.802-0.934l0.81-1.021c0.12-0.164,0.237-0.35,0.356-0.518h-21.979c-0.678,0.592-1.404,1.24-2.241,2.008
	C367.214,399.479,364.531,402.119,361.635,405.131"/>
<path fill="#164193" d="M435.013,422.104c-0.245,0-0.949-0.029-1.078-0.041c-2.452-0.236-3.916-1.045-5.229-2.885
	c-1.202-1.707-1.811-4.014-1.811-6.848l-0.044-26.137c0-5.449,2.229-9.27,5.961-10.209c0.233-0.072,0.355-0.082,0.481-0.094
	l0.389,0.904l-0.148-0.938c0.245-0.037,0.493-0.072,0.752-0.072c0.152-0.023,0.263-0.039,0.379-0.039
	c1.015,0,2.004,0.279,2.945,0.822c0.433,0.271,0.681,0.426,0.918,0.619c0.956,0.715,1.753,1.697,2.334,2.902l0.17,0.242
	l-0.003,0.098c0.708,1.627,1.067,3.578,1.067,5.801l0.044,26.137c0,2.838-0.61,5.143-1.814,6.85
	C438.98,421.107,437.147,422.104,435.013,422.104 M434.665,377.643c-0.448,0.068-0.611,0.053-0.83,0.09l-0.39,0.047
	c-3.005,0.76-4.696,3.887-4.696,8.414l0.043,26.137c0,2.438,0.493,4.373,1.464,5.754c0.981,1.377,1.956,1.908,3.86,2.09
	c0.119,0.012,0.692,0.033,0.896,0.033c1.513,0,2.778-0.703,3.765-2.086c0.975-1.377,1.467-3.314,1.467-5.754l-0.045-26.137
	c0-2.041-0.33-3.793-0.985-5.211l-0.063-0.109c-0.444-0.922-1.048-1.674-1.792-2.23c-0.204-0.164-0.382-0.273-0.56-0.381
	C436.01,377.832,435.34,377.643,434.665,377.643"/>
<path fill="#164193" d="M440.16,407.17c1.207-1.547,1.822-3.615,1.822-6.145v-5.482h-1.896v5.482c0,2.096-0.478,3.77-1.423,4.975
	c-1.042,1.33-2.513,2.033-4.257,2.033c-1.516,0-2.883-0.539-3.953-1.559c-1.104-1.061-1.663-2.58-1.663-4.514v-6.418h-1.897v6.418
	c0,2.473,0.756,4.451,2.248,5.885c1.436,1.363,3.255,2.086,5.266,2.086C436.755,409.932,438.744,408.975,440.16,407.17"/>
<path fill="#164193" d="M441.064,383.422c0-1.574-0.373-2.92-1.062-3.99v-0.014c-0.025-0.027-0.046-0.049-0.071-0.076
	c-0.521-0.773-1.225-1.383-2.066-1.83c-0.209-0.127-0.433-0.223-0.654-0.32c-0.046-0.02-0.085-0.045-0.131-0.063
	c-0.756-0.314-1.575-0.492-2.449-0.492c-0.125,0-0.234,0.023-0.358,0.027c-0.006,0-0.011,0-0.017,0
	c-0.253,0-0.492,0.033-0.736,0.061c-0.13,0.014-0.271,0.012-0.396,0.033c-0.036,0.004-0.066,0.02-0.101,0.025
	c-3.244,0.59-5.202,3.004-5.202,6.611l0.021,9.449l-11.219,0.027l-0.037-16.371c0-2.639-0.55-4.756-1.637-6.299
	c-1.159-1.633-2.725-2.488-4.536-2.488c-0.117,0-0.225,0.035-0.342,0.043c-0.216-0.027-0.423-0.08-0.646-0.08
	c-1.81,0-3.376,0.855-4.536,2.486c-1.086,1.543-1.636,3.662-1.636,6.301l0.042,18.758c0,1.375,0.087,3.934,0.423,5.234
	c0.842,3.264,4.412,5.756,9.482,5.756l16.104-0.037c0.075,0.09,0.104,0.215,0.185,0.299c1.152,1.16,2.708,1.768,4.506,1.768
	c0.117,0,0.225-0.025,0.339-0.029c0.215,0.02,0.42,0.057,0.643,0.057c1.798,0,3.354-0.607,4.506-1.768
	c1.077-1.1,1.625-2.605,1.625-4.484L441.064,383.422z"/>
<path fill="#164193" d="M434.977,409.215c-0.186,0-0.363-0.02-0.538-0.041l-0.444,0.016c-2.06,0-3.85-0.713-5.179-2.053
	l-0.016-0.016l-15.593,0.039c-5.231,0-9.411-2.6-10.406-6.467c-0.43-1.666-0.453-4.848-0.453-5.471l-0.044-18.756
	c0-2.84,0.608-5.145,1.812-6.848c1.346-1.893,3.183-2.895,5.309-2.895c0.204,0,0.396,0.031,0.586,0.061
	c0.167-0.004,0.281-0.02,0.403-0.02c2.134,0,3.969,0.998,5.313,2.887c1.203,1.711,1.812,4.016,1.812,6.848l0.033,15.418l9.32-0.02
	l-0.018-8.498c0-4.049,2.233-6.869,5.979-7.551c0.214-0.043,0.332-0.055,0.451-0.059l0.387,0.914l-0.112-0.939
	c0.226-0.031,0.448-0.053,0.674-0.053h0.049c0.137-0.02,0.229-0.025,0.329-0.025c0.967,0,1.913,0.188,2.813,0.566
	c0.422,0.189,0.678,0.305,0.915,0.445c0.955,0.506,1.767,1.229,2.363,2.115l0.278,0.277l-0.02,0.121
	c0.683,1.188,1.031,2.598,1.031,4.207l0.044,18.594c0,2.133-0.637,3.863-1.896,5.148
	C438.821,408.508,437.032,409.215,434.977,409.215 M434.376,407.264l0.285,0.027c1.545,0.152,3.108-0.416,4.145-1.459
	c0.898-0.914,1.354-2.201,1.354-3.814l-0.045-18.594c0-1.371-0.304-2.539-0.904-3.473l-0.066-0.078
	c-0.418-0.627-1-1.141-1.723-1.525c-0.211-0.127-0.385-0.201-0.56-0.275c-0.814-0.348-1.515-0.488-2.23-0.488l-0.481,0.033
	l-0.015-0.004c-0.111,0.008-0.222,0.023-0.333,0.035l-0.396,0.037c-3.023,0.543-4.635,2.609-4.635,5.711l0.025,10.393l-13.114,0.033
	l-0.04-17.32c0-2.438-0.494-4.371-1.464-5.756c-0.986-1.379-2.253-2.082-3.765-2.082c-0.118,0.021-0.196,0.033-0.28,0.035
	l-0.108,0.008l-0.332-0.053c-0.086-0.014-0.175-0.033-0.269-0.033c-1.507,0-2.774,0.705-3.76,2.092
	c-0.971,1.377-1.463,3.311-1.463,5.75l0.044,18.756c0,1.736,0.123,3.951,0.393,5c0.778,3.016,4.219,5.045,8.565,5.045l16.53-0.039
	l0.508,0.668c0.885,0.885,2.212,1.398,3.753,1.398L434.376,407.264z"/>
<rect x="174.922" y="101.611" fill="#A33389" width="139.736" height="156.601"/>
<path fill="#FFFFFF" d="M244.791,239.579c-30.149,0-54.677-24.527-54.677-54.677v-49.017c0-8.638,7.003-15.642,15.641-15.642
	c8.639,0,15.642,7.003,15.642,15.642v49.017c0,12.899,10.495,23.395,23.395,23.395s23.395-10.495,23.395-23.395
	c0-8.639,7.003-15.642,15.641-15.642c8.639,0,15.642,7.003,15.642,15.642C299.468,215.052,274.94,239.579,244.791,239.579"/>
<path fill="#FFFFFF" d="M283.826,123.246c6.97,0,12.639,5.67,12.639,12.64v49.016c0,28.495-23.181,51.675-51.674,51.675
	c-6.969,0-12.639-5.669-12.639-12.638c0-6.969,5.67-12.639,12.639-12.639c14.556,0,26.398-11.842,26.398-26.398v-49.016
	C271.188,128.916,276.858,123.246,283.826,123.246 M283.826,120.243c-8.638,0-15.641,7.003-15.641,15.642v49.016
	c0,12.9-10.495,23.395-23.395,23.395c-8.638,0-15.641,7.003-15.641,15.642s7.003,15.641,15.641,15.641
	c30.15,0,54.677-24.528,54.677-54.678v-49.016C299.468,127.247,292.464,120.243,283.826,120.243"/>
<rect x="305.054" y="82.839" fill="#2796D3" width="139.734" height="156.6"/>
<path fill="#FFFFFF" d="M358.773,211.675c-3.329,0-6.685-1.058-9.527-3.246c-14.8-11.388-23.288-28.624-23.288-47.288
	c0-32.901,26.766-59.668,59.665-59.668c10.814,0,21.415,2.927,30.656,8.466c7.41,4.44,9.817,14.047,5.377,21.457
	c-4.441,7.41-14.048,9.818-21.457,5.376c-4.385-2.627-9.426-4.016-14.576-4.016c-15.65,0-28.382,12.733-28.382,28.385
	c0,8.877,4.04,17.077,11.083,22.496c6.846,5.269,8.125,15.089,2.857,21.935C368.101,209.575,363.463,211.675,358.773,211.675"/>
<path fill="#FFFFFF" d="M341.6,148.5c6.968,0,12.639,5.67,12.639,12.639c0,17.307,14.08,31.388,31.387,31.388
	c5.694,0,11.267-1.537,16.11-4.444c1.967-1.179,4.211-1.802,6.49-1.803c4.488,0,8.544,2.295,10.851,6.14
	c3.586,5.977,1.641,13.755-4.336,17.34c-8.773,5.263-18.841,8.044-29.115,8.044c-31.244,0-56.664-25.419-56.664-56.666
	C328.961,154.17,334.631,148.5,341.6,148.5 M341.6,145.498c-8.638,0-15.643,7.003-15.643,15.641
	c0,32.901,26.768,59.668,59.668,59.668c10.818,0,21.419-2.93,30.66-8.473c7.407-4.444,9.811-14.051,5.366-21.46
	c-2.933-4.889-8.113-7.598-13.428-7.598c-2.737,0.001-5.513,0.721-8.032,2.231c-4.379,2.627-9.416,4.016-14.566,4.016
	c-15.651,0-28.384-12.733-28.384-28.385C357.241,152.501,350.238,145.498,341.6,145.498"/>
</svg>
