<?xml version="1.0" encoding="utf-8"?>
<!-- Generator: Adobe Illustrator 16.0.0, SVG Export Plug-In . SVG Version: 6.00 Build 0)  -->
<!DOCTYPE svg PUBLIC "-//W3C//DTD SVG 1.1//EN" "http://www.w3.org/Graphics/SVG/1.1/DTD/svg11.dtd">
<svg version="1.1" id="Camada_1" xmlns="http://www.w3.org/2000/svg" xmlns:xlink="http://www.w3.org/1999/xlink" x="0px" y="0px"
	 width="1080px" height="1080px" viewBox="0 0 1080 1080" enable-background="new 0 0 1080 1080" xml:space="preserve">
<g>
	<path fill="#4F5858" d="M648.78,926.557c6.842,0,11.998-5.334,11.998-12.408c0-6.94-4.612-11.786-11.217-11.786h-0.153
		c-5.112,0-12.312,3.85-12.312,12.406C637.096,923.471,643.391,926.557,648.78,926.557"/>
	<path fill="#4F5858" d="M347.948,913.287c-2.6,0.343-4.104,1.21-4.104,4.62v43.87c0,28.564-10.379,32.417-20.53,32.417
		c-8.952,0-20.848-3.246-20.848-31.325v-40.293c0-7.348-0.342-9.917-4.179-9.917c-3.568,0-16.108,0.771-19.323,1.25l-0.545,0.078
		l0.053,0.552c0.313,3.294,0.467,9.843,0.467,20.021v29.244c0,33.341,14.088,50.246,41.871,50.246
		c19.743,0,43.277-9.204,43.277-53.048v-22.254c0-13.496,0.172-19.564,0.47-25.481l0.03-0.607h-0.609
		C360.939,912.659,352.685,912.814,347.948,913.287"/>
	<path fill="#4F5858" d="M435.463,927.051c9.104,0,16.112,2.407,19.479,3.842l0.151,0.04c2.434,0.323,4.681-0.425,6.497-2.16
		c2.353-2.243,3.683-5.977,3.388-9.512l-0.018-0.195l-0.128-0.146c-2.407-2.693-13.841-7.974-29.37-7.974
		c-34.462,0-56.729,19.524-56.729,49.744c0,32.414,22.084,53.359,56.263,53.359c9.862,0,17.828-5.098,22.107-7.837l0.569-0.361
		l0.086-0.069c3.113-2.936,5.177-7.931,5.81-14.062l0.042-0.4l-1.189-0.587l-1.218,0.343c-4.022,1.145-11.507,3.273-21.36,3.273
		c-21.975,0-36.174-13.762-36.174-35.058C403.669,932.645,420.957,927.051,435.463,927.051"/>
	<path fill="#4F5858" d="M618.891,972.439l-7.512-54.145v-0.005c-0.617-4.159-1.628-5.631-3.856-5.631
		c-3.961,0-16.829,0.887-19.544,2.576l-0.273,0.171v2.231c-6.474,15.646-15.749,38.853-22.258,56.331l-19.938-53.295
		c-2.271-6.478-3.321-8.213-6.335-8.015c-8.022,0-13.947,1.291-18.271,2.232l-1.768,0.381l0.37,2.936
		c-4.401,26.509-8.564,53.27-11.606,72.818c-1.039,6.682-1.926,12.384-2.614,16.729l-0.063,0.4l0.353,0.198
		c2.626,1.47,11.354,4.294,16.396,4.294c2.205,0,3.077-3.39,3.548-5.972c2.154-17.578,5.545-49.438,7.245-67.929
		c2.718,8.682,6.434,20.413,10.039,31.796c5.191,16.379,10.091,31.849,11.926,37.941l0.124,0.413h0.433
		c3.086,0,6.752-0.413,11.217-1.259c4.082-0.812,5.686-2.177,6.85-5.835c7.768-23.303,16.178-48.729,20.576-63.29l3.007,32.343
		c1.465,16.485,2.392,25.528,3.136,32.792l0.147,1.45c0.326,3.565,2.649,7.549,5.273,7.549c3.125,0,12.739-2.716,16.843-3.877
		l1.801-0.504l-0.085-0.517C622.652,999.42,620.867,987.211,618.891,972.439"/>
	<path fill="#4F5858" d="M658.211,938.011c-3.825,0-15.139,0.944-19.232,2.041l-0.479,0.129l0.052,0.494
		c0.267,2.529,0.622,7.086,0.622,17.369v26.616c0,8.351-0.264,19.118-0.423,25.553l-0.059,2.436h0.595
		c8.196,0,13.906-0.21,16.958-0.627c4.299-0.495,5.828-4.167,5.828-7.44v-56.185C662.073,939.563,661.496,938.011,658.211,938.011"
		/>
	<path fill="#4F5858" d="M746.85,984.813V966.45c0-19.216-8.368-29.373-24.196-29.373c-7.638,0-14.825,4.646-20.92,9.372
		c-1.614-6.222-5.204-9.372-10.674-9.372c-6.11,0-12.117,5.045-13.688,9.572l-0.032,1.756l0.275,0.172
		c2.119,1.318,2.699,2.885,2.699,7.291v25.367c0,8.215-0.146,20.93-0.472,30.813l-0.02,0.601h0.601c4.126,0,7.795-1.097,11.34-2.157
		c2.393-0.716,4.653-1.391,7.033-1.757c3.839-0.496,4.417-1.447,4.417-4.464v-46.236c3.139-2.216,5.824-3.768,10.834-3.768
		c5.829,0,9.901,4.883,9.901,11.872v39.844c0,2.768,1.297,6.666,4.178,6.666c5.04,0,9.747-1.507,13.524-2.716
		c2.083-0.665,3.883-1.24,5.14-1.349l0.556-0.049l-0.027-0.562C747.032,1002.441,746.85,993.352,746.85,984.813"/>
	<path fill="#4F5858" d="M824.968,994.056c-0.556,0.139-1.641,0.139-2.359,0.139c-3.446,0-5.053-1.789-5.053-2.997
		c0-5.843,0.197-11.627,0.371-16.728c0.138-4.05,0.254-7.545,0.254-10.354c0-18.677-13.564-27.038-27.011-27.038
		c-10.797,0-22.439,5.275-29.729,10.215l-0.246,0.165l-0.011,0.299c-0.059,1.954,0.136,6.772,3.245,9.243
		c1.781,1.414,4.143,1.742,7.112,0.952l0.4-0.179c3.052-1.371,8.155-3.662,13.125-3.662c6.774,0,11.15,3.929,11.15,10.005v1.381
		c-1.823,0.331-4.92,0.89-7.514,1.32c-10.545,2.256-30.178,6.458-30.178,23.133c0,12.369,9.893,23.634,20.757,23.634
		c6.471,0,12.465-5.28,17.528-10.642c2.228,4.289,6.72,10.642,13.754,10.642c11.279,0,15.282-9.881,15.282-18.339l-0.319-1.324
		L824.968,994.056z M795.906,987.304c0,2.521-0.38,4.039-1.2,5.003c-2.004,1.688-3.487,2.202-6.353,2.202
		c-4.069,0-8.179-2.323-8.179-7.518v-0.152c0-1.823,1.146-7.838,15.731-9.471V987.304z"/>
	<path fill="#4F5858" d="M872.318,968.434l-0.022-0.013c-1.055-0.525-2.503-1.21-4.06-1.946c-3.056-1.445-6.52-3.086-8.257-4.104
		c-3.121-1.861-5.032-3.126-5.032-5.569c0-2.54,2.532-4.247,6.3-4.247c3.315,0,6.953,0.811,10.242,2.285l0.191,0.05
		c2.105,0.155,3.907-0.482,5.347-1.911c2.605-2.579,3.297-6.952,3.099-9.915l-0.018-0.271l-0.222-0.159
		c-5.277-3.793-11.099-5.557-18.325-5.557h-0.159c-13.085,0-27.168,7.294-27.168,23.305c0,7.559,4.037,14.264,11.105,18.409
		c2.099,1.082,4.154,2.128,6.173,3.15c2.051,1.038,4.057,2.059,6.021,3.071c4.17,2.238,5.008,3.847,5.008,5.716
		c0,2.853-2.648,4.555-7.084,4.555c-7.74,0-15.368-4.34-17.522-5.67l-0.376-0.231l-0.323,0.298
		c-2.268,2.11-4.563,6.407-4.563,10.543c0,3.183,2.272,5.025,4.509,6.414l1.321,0.778c4.401,2.603,10.428,6.168,15.549,6.168
		c14.662,0,29.83-10.062,29.83-26.899C883.881,978.715,880.099,972.745,872.318,968.434"/>
	<path fill="#4F5858" d="M223.883,912.874c-11.737,0-22.938,1.254-27.242,2.048l-0.521,0.097l0.047,0.526
		c0.629,7.196,0.629,13.661,0.629,21.145v71.134c0,3.019,1.529,6.227,4.368,6.227c4.289,0,16.401-0.45,19.403-1.28l0.447-0.123
		l-0.022-0.465c-0.314-6.266-0.473-13.438-0.473-21.315v-11.144c4.478,0.376,9.58-0.647,13.012-1.334
		c13.978-2.809,23.744-9.253,29.034-19.148c2.634-4.927,4.026-10.496,4.026-16.104C266.592,916.54,246.067,912.874,223.883,912.874
		 M226.092,961.397c-0.575,0-3.098-0.102-5.572-0.206v-33.115c1.595-0.227,3.465-0.227,4.626-0.227
		c8.373,0,16.934,1.781,16.934,14.973C242.079,958.983,232.063,961.397,226.092,961.397"/>
	<path fill="#4F5858" d="M783.509,871.406c15.19,0,28.324-7.674,42.239-15.803c15.477-9.048,31.485-18.4,52.182-18.4
		c2.285,0,4.364-1.349,5.294-3.436c0.932-2.086,0.536-4.532-0.996-6.228l-23.562-26.036l16.679-36.289
		c0.87-1.888,0.657-4.108-0.563-5.798c-1.216-1.681-3.262-2.587-5.478-2.351c-5.259,0.543-29.007,3.995-44.63,14.89
		c-0.074-21.076-1.325-30.947-1.344-31.083c-0.018-0.116-0.024-0.232-0.024-0.346c0-6.196-12.295-7.388-12.417-7.395
		c-20.588-1.668-42.148,0.956-65.902,8.032c-21.322,6.347-42.381,15.593-62.748,24.532c-9.494,4.168-19.313,8.481-29.138,12.481
		c-36.059,14.68-71.929,21.815-109.668,21.815c-37.726,0-73.588-7.136-109.639-21.815c-9.717-3.958-19.548-8.271-29.056-12.444
		l-0.142-0.062c-20.353-8.933-41.399-18.168-62.694-24.513c-23.801-7.084-45.356-9.706-65.9-8.03
		c-0.124,0.013-12.418,1.22-12.418,7.397c0,0.116-0.005,0.234-0.023,0.354c-0.019,0.141-1.484,11.259-1.352,35.945
		c-17.211-12.708-51.246-16.532-52.695-16.69c-1.635-0.178-3.24,0.535-4.201,1.868c-0.961,1.331-1.132,3.078-0.444,4.57
		l17.761,38.647l-25.171,27.816c-1.21,1.337-1.52,3.264-0.785,4.909c0.733,1.647,2.369,2.71,4.175,2.71
		c21.939,0,38.776,9.839,55.058,19.354c14.3,8.356,27.808,16.25,43.228,16.25c20.211,0,29.887-9.619,30.511-19.148
		c0.048-0.736,0.023-1.456-0.031-2.162c0.089-1.077,0.163-2.404,0.205-3.241c0.421-7.993,1.185-19.665,1.453-28.48
		c0.289-3.062,0.498-5.933,0.504-8.465c15.015,4.649,29.402,10.266,42.819,15.721c51.496,20.94,106.95,41.383,168.834,41.383
		c27.483,0,55.714-4.032,86.312-12.328c29.351-7.956,58.204-19.151,82.554-29.055c13.061-5.307,27.028-10.768,41.544-15.325
		c-0.066,1.988-0.202,4.451-0.354,7.231c-0.336,6.095-0.739,13.5-0.591,19.499c-0.158,3.783-0.146,9.058-0.096,9.809
		c0.358,5.444,3.553,10.583,8.768,14.104C767.001,869.469,774.591,871.406,783.509,871.406 M823.243,813.845
		c0,0,5.681,9.473-22.64,17.37c-3.771,0.934-8.109,1.944-13.137,3.11c-0.161,0.034-0.329,0.067-0.492,0.1
		c-1.146,0.231-2.32,0.459-3.535,0.687c-7.136,1.329-25.926,6.209-25.926,6.209c0.101-11.605,0.882-17.327,1.186-27.639
		c0.786-0.234,1.566-0.479,2.357-0.706c5.34-1.54,10.504-2.858,15.558-3.914c21.568-4.504,36.218-5.667,43.457,0.695
		C821.353,810.883,822.431,812.22,823.243,813.845 M315.91,866.697c-5.856,2.896-12.778,3.338-19.198,3.007
		c-30.843-1.591-51.005-35.285-93.857-35.285l25.101-28.849l-17.479-41.01c0,0,20.863,4.578,27.849,6.93
		c8.826,2.976,20.347,7.146,23.932,10.211c0.039,3.017,0.104,6.218,0.195,9.595c0.017,1.199,0.039,2.43,0.066,3.683
		c0.047,3.504,0.068,7.351,0.218,11.015c-1.416,1.206-2.993,2.945-3.865,5.429c-1.904,5.418-0.334,11.304,3.09,15.758
		c4.527,5.891,12.721,8.489,19.471,10.835c8.42,2.927,17.086,5.144,25.879,6.619c6.383,1.071,15.54,2.885,16.392,10.753
		C324.264,860.548,320.2,864.575,315.91,866.697 M325.847,846.41c-1.713-1.837-3.931-3.269-6.52-4.144
		c-0.917-0.393-1.928-0.707-3.04-0.92c-12.667-2.418-26.519-5.893-36.774-9.878c-6.405-2.49-11.41-5.178-13.839-7.937
		c-2.621-2.977-2.825-6.092-2.825-6.092c-0.04-0.581-0.012-1.122,0.051-1.621c0.177-1.391,0.644-2.427,0.847-2.861
		c2.028-4.336,7.086-6.199,9.567-6.994c2.429-0.458,5.024-0.713,7.66-0.713c0.74,0,1.446,0.023,2.115,0.058
		c13.457,0.748,27.439,3.256,42.747,7.667c0.763,0.22,1.513,0.456,2.272,0.682C328.014,818.9,327.612,826.332,325.847,846.41
		 M710.831,826.9c-24.246,9.86-52.962,21.005-82.106,28.903c-30.26,8.206-58.163,12.193-85.297,12.193
		c-61.181,0-116.23-20.302-167.372-41.097c-15.274-6.211-31.799-12.65-49.144-17.646c-4.866-1.4-9.595-2.604-14.227-3.632
		c-8.499-1.885-16.648-3.163-24.595-3.837c-4.319-0.514-8.341-0.716-11.924-0.504c-3.651,0.218-6.847,0.867-9.419,2.076
		c-1.804-42.693,0.629-61.766,0.652-61.953c0.039-0.287,0.06-0.581,0.06-0.877c0-1.411,5.074-3.22,8.86-3.538
		c20.121-1.616,41.212,0.958,64.475,7.884c21.081,6.278,42.032,15.475,62.296,24.367l0.123,0.055
		c9.513,4.175,19.348,8.489,29.118,12.47c36.525,14.872,72.876,22.102,111.128,22.102c38.228,0,74.57-7.229,111.104-22.102
		c9.777-3.98,19.599-8.292,29.093-12.46l0.141-0.063c20.254-8.89,41.196-18.086,62.294-24.366
		c23.285-6.938,44.377-9.515,64.482-7.887c3.701,0.313,8.854,2.155,8.854,3.538c0,0.274,0.021,0.565,0.061,0.867
		c0.02,0.139,1.442,11.205,1.311,35.485c-0.038,7.627-0.234,16.544-0.674,26.852c-0.538-0.199-1.05-0.402-1.557-0.595
		c-1.764-0.685-3.377-1.298-5.166-1.568c-3.113-0.75-7.15-0.781-11.138-0.781c-9.558,0.58-20.958,2.977-34.009,6.253
		c-2.723,0.682-5.473,1.407-8.274,2.214C742.666,814.243,726.127,820.685,710.831,826.9 M757.632,852.792
		c-0.638-3.603,0.825-6.753,4.197-8.206c2.015-0.866,7.188-2.374,9.249-2.76c7.399-1.391,44.372-8.719,52.773-16.406
		c4.958-4.513,7.162-12.457,1.447-17.482c-0.439-0.386-0.934-0.759-1.151-1.303c-0.16-0.397-0.15-0.839-0.139-1.27
		c0.257-9.5,0.615-19.008,0.662-28.51c15.146-10.13,38.347-15.121,43.521-15.657c1.04-0.104,2.117,0.355,2.748,1.223
		c0.628,0.869,0.736,2.012,0.289,2.987l-18.62,36.847l24.54,25.362c0.79,0.875,0.993,2.135,0.511,3.207
		c-0.477,1.077-1.55,1.774-2.728,1.774c-21.456,0-34.333,8.343-50.144,17.584c-13.567,7.927-26.381,15.413-40.813,15.413
		c-8.356,0-15.4-1.771-20.367-5.122C760.862,858.618,758.233,856.192,757.632,852.792"/>
	<path fill="#4F5858" d="M327.549,789.812c-0.558-0.157-0.84-0.236-1.403-0.396c-0.262,5.406-1.547,6.415-4.472,5.623
		c-2.278-0.612-3.43-0.913-5.762-1.506c-2.624-0.665-3.354-0.949-3.394-4.873c-0.063-6.24-0.017-9.421,0.046-15.758
		c2.569,0.62,3.834,0.938,6.332,1.596c3.098,0.813,4.174,3.399,4.161,7.217c0.568,0.156,0.853,0.235,1.418,0.391
		c0.021-5.935,0.063-8.912,0.071-14.845c-0.561-0.163-0.845-0.241-1.41-0.402c-0.307,2.246-0.655,5.246-4.213,4.306
		c-2.496-0.658-3.758-0.98-6.327-1.601c0.05-5.65,0.081-8.479,0.018-14.046c-0.038-3.36,0.646-3.471,3.248-2.816
		c1.626,0.407,2.432,0.618,4.026,1.045c3.371,0.904,5.512,2.991,5.547,8.628c0.56,0.163,0.838,0.245,1.395,0.41
		c-0.087-4.186-0.147-6.28-0.346-10.446c-9.484-2.793-14.44-4.037-25.182-6.033c0.019,0.595,0.028,0.892,0.045,1.491
		c5.186,1.995,5.343,2.021,5.375,8.957c0.072,15.05-0.479,23.119,0.013,37.777c8.723,2.024,12.857,3.124,20.862,5.434
		C327.52,795.912,327.52,793.881,327.549,789.812"/>
	<path fill="#4F5858" d="M356.41,763.327c-1.3-0.588-1.952-0.879-3.261-1.457c-2.716,6.258-4.207,9.228-7.264,15.33
		c-2.7-8.427-4.038-12.701-7.001-21.258c-3.511-1.358-5.296-2.019-8.946-3.288c-0.002,0.62-0.005,0.929-0.01,1.546
		c3.905,2.214,4.405,3.417,6.015,8.137c2.428,7.244,3.563,10.859,5.872,18.042c-4.218,8.083-6.469,12.255-10.572,20.563
		c1.366,0.47,2.041,0.702,3.388,1.177c3.35-7.069,5.159-10.585,8.633-17.449c2.917,9.319,4.362,13.894,7.543,23.438
		c2.311,0.896,3.455,1.349,5.737,2.256c-3.97-11.877-5.728-17.441-9.354-28.992C351.073,774.167,352.982,770.723,356.41,763.327"/>
	<path fill="#4F5858" d="M385.801,780.003c3.961,1.944,4.962,7.096,5.202,9.401c2.117,1.011,3.18,1.52,5.323,2.527
		c-0.552-5.517-3.404-11.754-10.192-15.092c-9.7-4.771-11.909,5.056-12.037,17.286c-0.157,14.813,3.435,25.651,12.598,29.459
		c4.424,1.84,8.048,1.403,9.166,1.158c-0.033-1.803-0.047-2.688-0.073-4.422c-1.156,0.806-3.876,2.104-7.768,0.486
		c-8.628-3.593-9.15-18.791-9.103-26.131C378.961,787.927,379.836,777.075,385.801,780.003"/>
	<path fill="#4F5858" d="M412.085,785.419c-10.243-4.539-12.55,3.724-12.452,17.179c0.098,13.392,3.169,23.978,13.168,27.795
		c9.854,3.762,12.97-4.584,12.804-17.139C425.437,800.523,421.906,789.77,412.085,785.419 M412.732,827.059
		c-7.204-2.758-8-14.604-8.075-22.279c-0.08-8.354,0.186-19.262,7.499-16.025c7.173,3.176,7.915,14.572,8.021,22.413
		C420.278,818.831,420.077,829.865,412.732,827.059"/>
	<path fill="#4F5858" d="M455.911,814.08c-0.034-10.723-11.414-15.203-15.487-16.621c-5.346-1.863-7.919-2.824-12.914-4.791
		c0.01,0.632,0.014,0.944,0.025,1.56c4.735,2.91,4.903,3.191,4.983,9.443c0.175,13.562,0.189,17.771,0.415,33.177
		c2.25,0.756,3.386,1.13,5.691,1.873c-0.096-8.93-0.127-12.344-0.193-19.547c1.314,0.442,1.976,0.663,3.312,1.1
		c3.867,8.409,5.837,12.29,9.77,22.383c2.555,0.739,3.687,1.056,6.15,1.71c-3.972-10.532-5.91-14.477-10.021-23.239
		C452.025,821.747,455.934,820.912,455.911,814.08 M441.454,817.484c-1.228-0.407-1.838-0.615-3.049-1.028
		c-0.037-4.12-0.058-6.152-0.101-10.616c-0.045-4.517-0.098-5.863,3.563-4.605c4.586,1.579,8.15,4.988,8.161,11.449
		C450.039,819.385,444.956,818.644,441.454,817.484"/>
	<path fill="#4F5858" d="M474.344,807.098c-6.058-1.232-9.036-1.935-14.855-3.523c0.003,0.635,0.006,0.946,0.008,1.564
		c4.836,2.371,5.033,2.673,5.069,8.805c0.085,13.315,0.135,16.928,0.213,32.427c3.21,0.781,4.822,1.146,8.06,1.836
		c10.59,2.253,19.844,0.41,19.828-17.362C492.654,814.925,484.73,809.21,474.344,807.098 M474.45,845.249
		c-3.755-0.773-3.759-2.659-3.773-5.127c-0.08-11.633-0.13-15.218-0.208-26.988c-0.021-3.017,1.268-3.265,4.441-2.624
		c10.285,2.078,11.587,9.589,11.629,19.546C486.591,841.416,484.354,847.287,474.45,845.249"/>
	<path fill="#4F5858" d="M494.401,812.259c5.177,1.825,5.352,2.133,5.173,8.29c-0.39,13.361-0.471,16.801-0.945,32.488
		c8.828,1.23,13.28,1.685,22.234,2.263c0.269-4.274,0.393-6.165,0.634-9.757c-0.632-0.04-0.948-0.06-1.581-0.1
		c-0.566,4.811-2.156,6.288-5.351,6.02c-2.49-0.207-3.732-0.326-6.212-0.586c-2.79-0.294-3.503-0.645-3.38-4.244
		c0.195-5.737,0.277-8.149,0.446-13.17c2.735,0.305,4.106,0.445,6.854,0.687c3.41,0.305,4.589,2.152,4.451,5.271
		c0.634,0.045,0.953,0.069,1.591,0.113c0.221-4.85,0.322-7.054,0.547-11.961c-0.644-0.042-0.964-0.063-1.607-0.111
		c-0.43,1.903-0.943,4.387-4.875,4.038c-2.756-0.242-4.129-0.381-6.87-0.685c0.149-4.497,0.227-6.713,0.401-11.864
		c0.106-3.108,0.862-3.376,3.737-3.104c1.796,0.17,2.694,0.247,4.499,0.39c3.811,0.305,6.178,2.081,5.949,7.027
		c0.647,0.04,0.971,0.057,1.618,0.094c0.106-3.664,0.16-5.592,0.291-9.96c-11.154-0.595-16.715-1.133-27.563-2.72
		C494.426,811.319,494.418,811.634,494.401,812.259"/>
	<path fill="#4F5858" d="M543.324,817.223c5.322,0.89,5.485,1.195,5.204,7.446c-0.608,13.57-0.838,16.85-1.5,32.929
		c9.04-0.379,13.576-0.731,22.645-1.764c0.286-4.398,0.422-6.33,0.691-9.994c-0.638,0.074-0.956,0.111-1.593,0.185
		c-0.609,4.951-2.222,6.748-5.464,7.051c-2.524,0.24-3.785,0.347-6.31,0.537c-2.842,0.213-3.573-0.021-3.396-3.685
		c0.279-5.84,0.408-8.267,0.67-13.334c2.776-0.19,4.163-0.3,6.936-0.546c3.437-0.308,4.589,1.336,4.409,4.489
		c0.644-0.067,0.962-0.102,1.602-0.171c0.277-4.907,0.41-7.118,0.688-12.087c-0.64,0.069-0.961,0.104-1.604,0.171
		c-0.452,1.988-0.991,4.565-4.946,4.922c-2.775,0.247-4.164,0.358-6.945,0.549c0.231-4.542,0.348-6.775,0.597-12.024
		c0.151-3.164,0.923-3.579,3.813-3.821c1.807-0.15,2.709-0.229,4.508-0.405c3.802-0.368,6.125,1.03,5.85,6.056
		c0.644-0.077,0.965-0.111,1.604-0.188c0.135-3.712,0.204-5.671,0.357-10.141c-10.967,1.339-16.565,1.789-27.753,2.21
		C543.362,816.264,543.349,816.586,543.324,817.223"/>
	<path fill="#4F5858" d="M592.649,812.676c5.035-0.968,5.952,3.507,6.133,5.56c2.636-0.558,3.945-0.852,6.548-1.467
		c-0.408-4.977-3.412-9.402-12.021-7.719c-12.305,2.409-16.14,13.806-16.752,24.354c-0.741,12.768,3.259,22.167,14.9,20.039
		c5.624-1.026,10.299-4.099,11.738-5.153c0.07-1.888,0.105-2.787,0.169-4.52c-1.51,1.614-5.058,4.878-9.986,5.814
		c-10.937,2.077-10.872-12.119-10.511-18.526C583.203,825.164,585.066,814.132,592.649,812.676"/>
	<path fill="#4F5858" d="M623.277,805.027c4.625-1.45,5.623,2.94,5.888,4.966c2.362-0.811,3.543-1.226,5.907-2.068
		c-0.595-4.919-3.458-9.104-11.315-6.604c-11.228,3.574-14.727,15.407-15.063,25.962c-0.41,12.784,3.771,21.834,15.326,18.502
		c5.582-1.606,9.317-4.93,10.558-6.088c-0.002-1.921-0.005-2.83-0.012-4.578c-1.285,1.731-3.93,5.151-8.791,6.596
		c-10.79,3.205-11.19-10.989-11.06-17.394C614.836,818.429,616.309,807.206,623.277,805.027"/>
	<path fill="#4F5858" d="M660.167,822.021c0.104,6.133-2.7,7.882-5.876,9.085c-1.729,0.66-2.596,0.986-4.323,1.626
		c-3.362,1.248-3.346,0.988-3.392-4.003c-0.144-14.952-0.465-17.881-0.581-35.153c-4.116,2.219-6.177,3.317-10.296,5.465
		c0.002,0.662,0.005,0.988,0.008,1.629c4.769-0.742,4.909-0.482,4.981,4.899c0.187,13.865,0.437,16.949,0.419,33.918
		c8.109-2.806,12.199-4.354,20.414-7.563c0.057-4.628,0.062-6.649,0.055-10.462C661.012,821.685,660.731,821.799,660.167,822.021"/>
	<path fill="#4F5858" d="M686.768,811.211c-0.139,5.227-1.521,7.515-4.428,8.707c-2.263,0.929-3.397,1.395-5.655,2.315
		c-2.545,1.038-3.192,1.013-3.267-2.834c-0.116-6.122-0.223-8.63-0.442-13.748c2.431-0.995,3.647-1.494,6.083-2.497
		c3.022-1.246,4.232,0.073,4.375,3.295c0.569-0.233,0.851-0.351,1.419-0.584c-0.229-5.01-0.378-7.218-0.65-12.038
		c-0.56,0.229-0.84,0.343-1.4,0.573c-0.195,2.019-0.41,4.652-3.874,6.075c-2.432,0.998-3.644,1.498-6.068,2.487
		c-0.202-4.541-0.313-6.729-0.499-11.813c-0.111-3.065,0.526-3.671,2.997-4.647c1.542-0.61,2.313-0.916,3.857-1.524
		c3.264-1.292,5.394-0.565,5.65,4.218c0.559-0.225,0.838-0.34,1.396-0.565c-0.255-3.507-0.379-5.327-0.594-9.443
		c-9.469,3.675-14.183,5.542-23.602,9.162c0.011,0.649,0.019,0.966,0.031,1.596c4.548-0.683,4.687-0.435,4.894,5.71
		c0.454,13.339,0.878,16.66,0.925,33.746c8.102-3.234,12.174-4.925,20.342-8.274c0.02-4.65,0.002-6.687-0.064-10.504
		C687.622,810.857,687.338,810.977,686.768,811.211"/>
	<path fill="#4F5858" d="M696.893,783.457c-0.257-3.908,1.774-6.837,4.413-7.848c3.882-1.484,7.712-0.869,9.12-0.597
		c-0.135-1.782-0.198-2.704-0.318-4.636c-1.315,0.15-4.604,0.477-8.028,1.762c-7,2.626-10.973,8.783-10.573,15.225
		c0.769,12.356,17.296,3.667,17.808,14.123c0.288,5.875-2.894,9.419-6.128,10.726c-4.104,1.663-8.268,0.249-9.888-0.348
		c0.064,2.248,0.09,3.429,0.121,5.954c1.082-0.05,5.051,0.007,9.006-1.594c7.089-2.871,12.935-10.168,12.404-19.052
		C714.033,783.88,697.496,792.576,696.893,783.457"/>
	<path fill="#4F5858" d="M713.776,769.366c0.037,0.565,0.057,0.846,0.097,1.396c4.907-0.964,5.056-0.791,5.493,3.982
		c1.124,12.298,1.971,15.776,2.282,33.017c2.266-0.859,3.399-1.281,5.666-2.117c-0.42-21.807-1.868-23.865-3.137-41.477
		C720.01,766.206,717.932,767.246,713.776,769.366"/>
	<path fill="#4F5858" d="M748.105,757.932c-3.814,1.13-8.008,1.717-11.803,2.928c0.044,0.543,0.069,0.811,0.116,1.342
		c2.051-0.289,3.926-0.778,4.158,1.512c0.042,0.4-0.307,2.547-0.507,3.58c-2.715,13.301-3.81,17.622-7.561,36.467
		c1.277-0.455,1.915-0.68,3.189-1.122c1.411-7.175,2.021-10.149,3.165-15.706c5.229-1.784,7.845-2.637,13.078-4.218
		c1.952,4.581,2.896,7.076,4.562,13.332c2.132-0.601,3.197-0.89,5.326-1.443C754.338,775.015,753.103,771.424,748.105,757.932
		 M739.499,783.854c1.581-7.501,3.335-12.365,4.788-19.454c2.884,5.977,4.528,9.728,6.538,15.795
		C746.291,781.582,744.028,782.318,739.499,783.854"/>
	<path fill="#4F5858" d="M764.106,760.745c1.416,11.442,2.469,15.223,2.742,32.607c8.154-1.947,12.218-2.748,20.301-3.838
		c0.043-4.808,0.006-6.928-0.135-10.856c-0.57,0.087-0.856,0.129-1.428,0.221c-0.032,5.305-1.425,7.291-4.328,7.79
		c-2.261,0.388-3.393,0.601-5.659,1.053c-2.55,0.512-3.187,0.363-3.372-3.55c-0.294-6.234-0.551-8.777-1.1-13.691
		c2.486-0.578,3.729-0.85,6.217-1.361c3.086-0.635,4.421,0.89,4.694,4.129c0.575-0.104,0.864-0.156,1.438-0.255
		c-0.426-5.048-0.71-7.222-1.256-11.654c-0.578,0.108-0.867,0.162-1.445,0.273c-0.094,1.8-0.175,4.204-3.727,4.939
		c-2.489,0.517-3.732,0.791-6.22,1.372c-0.512-4.271-0.804-6.239-1.313-10.531c-0.312-2.589,0.338-3.012,2.915-3.572
		c1.608-0.352,2.414-0.521,4.027-0.848c3.41-0.697,5.705,0.124,6.219,4.348c0.579-0.105,0.87-0.157,1.448-0.261
		c-0.439-3.116-0.659-4.668-1.041-8.032c-9.962,1.744-14.898,2.86-24.689,5.405c0.049,0.52,0.074,0.774,0.126,1.283
		C763.313,755.353,763.453,755.473,764.106,760.745"/>
	<path fill="#4F5858" d="M565.331,601.838c-1.005-2.11-5.823-11.394-7.229-13.348c-0.629-0.874-1.174-1.813-1.848-2.655
		c-2.382-2.982-1.991-6.111-1.689-6.971c0.995-2.855,2.606-7.651,5.453-19.01c1.381-5.507,1.543-8.41,1.66-9.394
		c0.491-4.206,0.803-6.854,0.382-10.41c-0.257-2.177-0.785-6.301-3.384-10.865c-2.701-4.743-6.123-7.3-6.847-7.826
		c-0.944-0.687-2.632-1.896-5.151-2.812c-0.683-0.246-4.164-1.465-8.847-1.063c-6.038,0.516-10.157,3.385-11.693,4.483
		c-0.95,0.68-4.599,3.39-7.383,8.358c-2.697,4.808-3.131,9.137-3.385,12.005c-0.306,3.418-0.709,7.944,1.463,13.002
		c1.654,3.853,4.186,6.572,5.076,7.514c1.271,1.344,2.473,2.345,3.384,3.039c0.58-0.979,1.51-2.34,2.908-3.726
		c3.059-3.027,4.635-3.546,7.403-3.66c1.081-0.044,2.729,0.418,3.784,0.904c0.174,0.079,0.32,0.272,0.489,0.403
		c0.882-1.786,1.124-5.597,1.124-7.447c0-2.66-0.119-4.271-0.759-5.695c-0.301-0.667-0.723-1.322-0.726-1.326
		c-0.498-0.766-1.057-1.629-1.978-2.252c-0.42-0.283-0.723-0.39-1.045-0.504c-0.526-0.188-1.237-0.441-1.827-1.284
		c-0.893-1.279-0.713-2.672-0.646-3.196c0.283-2.212,1.881-3.522,2.489-3.947c0.029-0.019,0.05-0.029,0.078-0.049
		c0.739-0.415,2.745-1.332,5.166-0.69c2.073,0.543,3.21,1.902,3.638,2.415c1.46,1.742,1.789,3.615,1.986,5.233
		c0.245,2.03,0.646,7.474-0.882,14.13l-0.097,0.43c-0.281,1.261-0.63,2.817-1.597,4.479c-0.414,0.715-0.743,1.203-1.008,1.597
		c-0.188,0.277-0.382,0.442-0.412,0.635c-0.63,4.006-0.581,29.385-0.321,33.488c0.092,1.461,0.229,17.247,0.383,20.743
		c0.032,0.711,0.102,3.044-1.232,3.961c-0.88,0.604-2.031,0.493-2.363,0.457c-1.538-0.168-2.592-1.114-2.996-1.488
		c-5.787-5.347-8.445-13.676-8.445-13.676c-1.52-4.764-3.246-11.548-4.009-20.042c-5.951,7.511-10.86,16.803-13.806,27.838
		c-2.527,9.47-1.19,18.582,0.762,26.895c0.006,0.02,0.586,2.616,1.141,4.981c1.591-0.411,3.347-0.507,4.985-0.252
		c0.067-0.103,0.128-0.206,0.213-0.3c0.024-0.025,0.053-0.055,0.082-0.081c0.756-0.7,1.9-1.883,3.113-3.134l0.03-0.032
		c2.287-2.361,4.877-5.034,6.648-6.401c0.608-0.462,1.508-0.446,2.097,0.027c0.602,0.489,0.781,1.342,0.427,2.028
		c-0.107,0.208-0.558,0.78-1.126,1.505c-0.315,0.395-0.648,0.823-0.955,1.224c0.089-0.082,0.179-0.166,0.271-0.252
		c0.801-0.739,1.628-1.5,1.891-1.676c0.514-0.339,1.219-0.286,1.675,0.116l0.078,0.073c0.43,0.45,0.503,1.125,0.177,1.648
		c-5.243,8.354-7.342,11.158-8.361,12.102c0.009,0.229,0.009,0.436,0.009,0.591c-0.001,1.883-0.526,3.349-0.873,4.319
		c-0.503,1.403-1.077,2.394-1.686,3.446c-0.374,0.645-0.798,1.277-1.206,1.888c-1.114,1.665-2.167,3.237-2.441,5.229
		c-0.23,1.68,0.22,3.271,0.697,4.956c0.202,0.717,0.415,1.458,0.564,2.199c0.266,1.316,0.482,3.331,0.526,5.638
		c0.855,0.371,1.772,0.737,2.753,1.087c0.734,0.26,1.446,0.49,2.14,0.695c1.367-2.676,3.032-5.1,4.859-6.915
		c2.767-2.749,2.838-4.79,2.341-8.794c-0.111-0.888-0.309-1.735-0.504-2.558c-0.474-2.017-0.961-4.102-0.096-6.606
		c0.496-1.438,1.341-2.733,2.3-4.006c1.09-1.447,2.891-2.854,3.461-3.283c0.061-0.998,0.534-4.248,1.019-6.958
		c1.1-6.174,1.608-7.021,3.049-7.128l0.121-0.005c1.44,0,1.868,0.57,3.544,7.123c0.535,2.093,1.309,5.35,1.496,6.495
		c0.495,0.907,0.988,1.816,1.495,2.73c0.321,0.583,0.646,1.164,0.967,1.739c0.913,1.681,1.151,3.094,1.215,4.008
		c0.087,1.308,0.027,2.71-0.801,5.275c-0.331,1.028-0.645,2.002-0.738,3.017c-0.222,2.354,0.605,5.107,2.329,7.752
		c0.396,0.607,0.866,1.229,1.486,1.963c2.025,2.409,3.948,4.863,5.425,7.669c0.529-0.091,1.115-0.224,1.354-0.276
		c0.469-0.105,1.268-0.343,2.021-0.598l0.058-0.01c-0.023-3.385,0.491-6.555,0.85-8.337c0.153-0.743,0.363-1.484,0.565-2.203
		c0.48-1.683,0.929-3.274,0.7-4.954c-0.275-1.989-1.327-3.563-2.441-5.229c-0.41-0.609-0.833-1.243-1.209-1.888
		c-0.607-1.05-1.284-2.006-1.685-3.443c-0.696-2.508-0.462-4.634,0.013-6.246c-0.892-1.105-2.59-3.944-6.387-11.277
		c-0.198-0.378-0.1-0.84,0.232-1.109c0.17-0.136,0.375-0.205,0.58-0.205c0.2,0,0.4,0.066,0.568,0.195
		c0.721,0.568,1.925,1.779,3.224,3.188c-1.094-1.97-2.065-3.772-2.372-4.502c-0.217-0.524-0.037-1.124,0.43-1.445
		c0.211-0.146,0.455-0.215,0.697-0.215c0.299,0,0.596,0.106,0.826,0.316c1.638,1.492,3.984,4.351,6.058,6.874
		c0.785,0.958,1.537,1.869,2.161,2.599c1.222-0.163,2.526-0.097,3.82,0.188c0-0.045,0.003-0.074,0.003-0.121
		c0.005-0.222,0.397-1.479,0.899-2.965C568.776,640.156,574.978,622.081,565.331,601.838 M530.592,557.588
		c-0.347,1.138-1.398,1.928-2.556,1.928c-0.518,0-1.028-0.152-1.474-0.449c-3.377-2.219-5.572-5.765-5.869-9.48
		c-0.158-1.969,0.357-3.84,1.529-5.559c0.162-0.24,0.337-0.478,0.513-0.718c0.486-0.654,0.944-1.272,0.948-1.766
		c0.016-1.445,1.181-2.58,2.654-2.58c0.737,0,1.452,0.292,1.96,0.798c0.501,0.498,0.772,1.169,0.765,1.891
		c-0.012,1.171-0.38,2.16-0.847,3.02c1.503,0.882,2.776,2.663,2.661,5.135c-0.059,1.278-0.91,4.024-1.206,4.941
		C530.545,555.419,530.917,556.531,530.592,557.588 M533.937,633.695c-0.737,0.769-1.702,1.175-2.793,1.175
		c-0.222,0-0.442-0.016-0.66-0.05c-1.438-0.202-2.376-1.043-3.105-2.101c-2.524-3.651,3.602-11.951,4.465-12.719
		c0.334-0.297,0.77-0.457,1.209-0.457c0.187,0,0.374,0.029,0.553,0.091c0.61,0.198,1.067,0.71,1.196,1.327
		C535.544,624.601,536.424,631.097,533.937,633.695 M544.582,634.502c-0.709,0.651-1.646,1.013-2.634,1.013
		c-0.161,0-0.326-0.013-0.494-0.029c-1.34-0.159-2.639-0.947-3.393-2.061c-1.859-2.74-0.84-5.488-0.021-7.695
		c0.374-1.005,0.723-1.943,0.82-2.811c0.079-0.707,0.654-1.256,1.365-1.31c1.18-0.095,1.874,0.84,2.212,1.289
		c0.076,0.106,0.129,0.183,0.185,0.24c0.809,0.85,2.948,4.01,3.271,5.594C546.284,630.652,546.03,633.18,544.582,634.502
		 M554.705,633.926c-0.151,0.045-0.302,0.079-0.458,0.106c-1.784,0.309-3.661-0.507-4.672-2.036
		c-1.287-1.954-1.725-4.156-2.112-6.103c-0.334-1.676-0.649-3.255-1.426-4.594c-0.397-0.689-0.257-1.578,0.336-2.11
		c0.594-0.535,1.503-0.585,2.16-0.13c1.492,1.037,8.964,6.473,8.885,11.386C557.391,632.098,556.323,633.464,554.705,633.926"/>
	<path fill="#4F5858" d="M872.061,637.049c-4.484-5.821-13.77-7.83-19.959-3.847c-1.029-4.822-7.651-38.124-9.221-50.767
		c38.97-4.547-23.717-64.836-25.582-24.911c-11.439,0.076-41.003-1.552-48.063-1.872c7.65-17.123-13.052-26.568-25.604-15.394
		c-2.879-2.115-18.225-12.752-27.088-18.969c-0.004-15.598-0.017-31.418-0.032-46.761c27.275,3.419,52.023,0.667,77.428-11.534
		c8.632,14.669,25.293,6.967,22.432-6.664c14.906-12.428,39.468-33.713,47.672-51.432c2.851-6.2-3.862-10.537-9.079-6.75
		c2.244-4.069,2.622-10.797-4.074-11.557c1.322-4.539-2.031-13.032-7.784-10.394c1.136-4.237-3.722-9.819-7.937-8.219
		c1.139-2.269-1.287-16.57-9.159-12.091c0.208-4.746-6.147-13.06-11.885-10.39c0.23-4.562-1.013-10.233-8.689-11.093
		c-4.513,0-6.229,6.795-8.218,14.66c-3.914,14.766-12.578,28.908-21.814,41.119c-9.041-4.576-24.271,8.245-16.955,16.592
		c-6.813,6.016-24.615,10.529-41.998,11.729c-0.02-28.94-0.057-44.236,0.053-53.781H628.86
		c12.424-8.926,53.816-38.771,65.671-46.918c0.361,0.633,7.549,10.631,11.124,15.268c3.296-2.273,9.458-6.435,11.862-8.187
		c1.57,2.192,3.803,5.427,6.016,8.694c-2.349,1.657-9.436,6.646-11.669,8.221c3.377,4.678,18.454,25.563,21.831,30.244
		c3.895-2.743,10.494-7.393,14.388-10.135c-1.568-2.172-9.188-12.729-10.913-15.115l9.673-6.813
		c1.771,2.452,9.301,12.884,10.913,15.114c4.498-3.168,16.231-11.432,20.73-14.602c-3.366-4.683-12.266-17.365-17.345-23.881
		c-2.133,1.504-8.962,6.313-11.201,7.893l-7.836-10.859c4.111-2.945,7.682-5.416,11.367-7.848
		c-1.588-2.201-6.369-8.822-8.027-11.121c4.663-3.275,8.732-6.145,11.436-8.055c2.28,3.455,5.51,7.557,8.412,10.73
		c3.771-2.663,10.113-7.14,12.058-8.506c1.981,2.767,4.937,6.881,7.822,10.842c-2.392,1.682-10.105,7.115-12.361,8.704
		c3.326,4.605,13.95,19.324,17.276,23.929c4.558-3.211,17.224-12.131,21.781-15.343c-1.551-2.167-9.144-12.771-10.854-15.155
		l7.924-5.582c1.949,2.625,9.572,12.885,11.37,15.304l14.966-10.774c-3.474-4.811-18.479-25.6-21.962-30.428
		c-2.225,1.564-11.401,8.027-13.793,9.714l-6.241-8.645c2.449-1.724,11.52-8.114,13.792-9.715
		c-1.565-2.169-9.274-12.847-10.997-15.235c2.248-1.65,6.396-3.614,5.329-7.117c-0.615-2.813-9.977-14.773-12.771-15.646
		c-1.739-0.722-3.573,0.466-3.625,0.566L621.769,339.486c-1.164-6.644-3.948-23.426-5.756-34.799h35.517
		c2.589,0,4.697-2.083,4.697-4.642c0.63-4.103-2.249-6.995-6.416-6.373v-3.309c6.922-0.528,6.92-11.104,0-11.63v-28.466
		c-0.898,1.583-2.969,5.258-3.944,6.959c-0.353-4.176-1.265-9.189-2.327-12.975c7.249,1.5,8.546-10.83,1.364-11.016
		c-1.322,0.021-6.129-0.014-7.366,0v-2.669c7.719,0.104,7.714-11.86,0-11.753V196.29c-2.443,4.078-4.217,7.763-6.799,12.558
		c-1.522-6.776-3.872-13.208-7.005-19.191c3.271-0.212,4.719-3.412,4.309-6.335c0.092-5.509-6.823-4.67-10.55-4.631
		c-0.011,0-0.021,0-0.032,0c6.429-0.539,6.982-10.236,0.674-11.48c-0.039-0.494-0.063-19.979-0.063-19.979
		c-2.164,3.811-4.052,7.445-6.296,11.687c-6.503-13.128-32.896-38.142-57.515-42.462c-0.402-6.002-3.923-10.311-6.34-11.069v-0.694
		V89.519h10.17V76.966h-10.17V65.949h-15.34v11.017h-10.171v12.553h10.171v15.174v0.694c-2.337,0.928-5.591,4.513-6.275,10.729
		c-20.383,3.877-41.17,18.948-57.447,43.064c-2.177-4.071-3.738-7.254-5.85-10.775v18.679c-6.698,0.764-6.557,11.035,0.162,11.607
		c-0.052,0-4.899,0-5.086,0c-1.522,0-5.501,0.95-5.628,4.631c-0.426,2.984,1.118,6.253,4.485,6.351
		c-0.685,1.725-5.233,12.321-7.158,19.228c-2.599-4.822-4.365-8.516-6.82-12.611v22.625c-8.929-1.456-8.924,13.016,0,11.561v2.764
		c-1.206-0.02-6.066,0.016-7.367,0c-7.184,0.186-5.885,12.517,1.366,11.016c-1.077,3.834-1.988,8.881-2.34,13.104
		c-0.761-1.571-3.107-5.601-3.932-7.081v28.466c-8.592-1.117-8.588,12.731,0,11.612v3.318c-4.166-0.62-7.051,2.269-6.418,6.373
		c0,2.559,2.107,4.642,4.697,4.642h34.881c-1.56,11.007-4.093,27.967-5.29,34.799L295.326,224.269
		c-0.053-0.101-1.887-1.288-3.627-0.566c-2.794,0.873-12.155,12.834-12.769,15.646c-1.057,3.5,3.06,5.47,5.328,7.117
		c-1.771,2.457-9.388,13.004-10.998,15.235c2.222,1.563,11.398,8.028,13.792,9.715l-6.24,8.645
		c-2.449-1.724-11.52-8.114-13.791-9.714c-3.487,4.83-18.487,25.612-21.967,30.428l14.969,10.774
		c1.754-2.359,9.466-12.741,11.369-15.304l7.925,5.582c-1.757,2.451-9.259,12.926-10.854,15.155
		c4.559,3.212,17.221,12.132,21.78,15.343c3.325-4.603,13.95-19.322,17.275-23.929c-2.214-1.56-10.012-7.052-12.357-8.704
		c2.885-3.961,5.837-8.075,7.819-10.842c1.932,1.358,8.299,5.854,12.06,8.506c2.901-3.174,6.132-7.275,8.41-10.73
		c2.707,1.91,6.773,4.779,11.435,8.055c-1.683,2.333-6.415,8.889-8.026,11.121c3.688,2.432,7.259,4.902,11.37,7.848l-7.838,10.859
		c-2.276-1.605-9.034-6.365-11.203-7.893c-5.094,6.535-13.959,19.174-17.344,23.881c4.5,3.17,16.232,11.434,20.732,14.602
		c1.568-2.172,9.188-12.729,10.911-15.114l9.673,6.813c-1.771,2.453-9.301,12.885-10.914,15.115
		c3.896,2.742,10.495,7.392,14.39,10.135c3.375-4.679,18.454-25.564,21.833-30.244c-2.2-1.549-9.359-6.592-11.67-8.221
		c2.212-3.268,3.537-5.189,5.109-7.383c2.404,1.752,8.4,5.664,11.693,7.936c3.605-4.682,11.797-15.639,12.196-16.328l64.843,45.559
		c0.314,0.217,1.471,0.967,1.609,1.359h-88.423c0.106,9.483,0.072,24.683,0.05,53.398c-17.728-1.122-38.074-5.284-44.94-11.346
		c7.315-8.347-7.911-21.165-16.952-16.592c-9.241-12.219-17.899-26.346-21.815-41.119c-1.988-7.865-3.707-14.66-8.22-14.66
		c-7.674,0.863-8.917,6.527-8.688,11.093c-5.744-2.663-12.084,5.634-11.887,10.39c-7.87-4.484-10.297,9.828-9.156,12.091
		c-4.217-1.601-9.073,3.979-7.938,8.219c-5.756-2.636-9.105,5.854-7.784,10.394c-6.702,0.768-6.317,7.482-4.076,11.557
		c-5.208-3.771-11.937,0.537-9.076,6.75c8.233,17.749,32.732,38.97,47.673,51.432c-2.861,13.631,13.796,21.332,22.431,6.664
		c26.336,12.672,52.022,15.137,80.369,11.059c-0.016,15.482-0.028,31.458-0.031,47.206c-8.855,6.214-24.249,16.882-27.131,18.999
		c-12.564-11.186-33.25-1.71-25.606,15.394c-7.08,0.323-36.601,1.946-48.061,1.872c-1.867-39.925-64.548,20.367-25.58,24.911
		c-1.571,12.643-8.191,45.944-9.224,50.767c-10.306-6.743-25.958,3.6-22.79,15.696c2.426,9.878,23.719,31.038,34.459,31.048
		c8.778,0.418,17.475-10.864,13.39-19.181c2.665-0.867,11.583-2.334,12.022-2.426c20.338,34.617,97.541,71.113,132.953,93.15
		c2.773,1.104,7.404,2.065,8.961-1.336c3.877-4.75,12.006-10.754,6.572-17.433c3.898-1.974,6.459-7.852,4.791-11.177
		c5.014-2.501,5.245-6.387,2.747-11.034c1.844-1.404,4.181-4.795,1.808-7.161c-1.031-1.221-2.194-2.881-3.944-3.039
		c-9.117-1.418-18.163-3.471-26.909-5.456c-15.381-3.491-31.277-7.098-48.037-7.37c-2.676-1.217-6.209-3.278-10.412-6.025
		l0.021-0.069c-6.62-4.122-13.909-9.637-22.911-16.569c17.396,7.909,48.996-33.195,20.839-37.101l0.959-6.024
		c7.224,4.302,24.944,2.679,34.238-1.594c19.254,64.114,53.822,73.404,173.221,134.024
		c119.638-60.833,153.664-69.571,173.226-134.012c9.235,4.268,27.04,5.873,34.195,1.581l0.962,6.024
		c-28.157,3.905,3.441,45.007,20.836,37.101c-9.002,6.933-16.285,12.447-22.912,16.569l0.024,0.069
		c-4.202,2.747-7.738,4.809-10.411,6.025c-16.76,0.272-32.657,3.879-48.039,7.37c-8.747,1.985-17.793,4.038-26.907,5.456
		c-1.739,0.153-2.933,1.821-3.945,3.039c-2.338,2.353-0.079,5.778,1.809,7.161c-2.503,4.653-2.262,8.536,2.744,11.034
		c-1.665,3.327,0.893,9.201,4.792,11.177c-5.387,6.669,2.657,12.695,6.574,17.433c1.557,3.401,6.182,2.442,8.959,1.333
		c35.381-22.019,112.593-58.51,132.952-93.147c0.44,0.092,9.359,1.559,12.025,2.426c-4.166,8.562,4.981,20.055,14.041,19.163
		C854.209,677.193,884.575,652.316,872.061,637.049 M271.636,336.904c3.798-0.835,5.93,13.767,7.741,18.529
		c4.801,12.604,12.706,26.278,20.831,36.521C298.508,411.491,248.22,340.149,271.636,336.904 M260.406,347.471
		c2.021-0.979,1.709,0.085,3.725,6.271c6.168,17.039,24.077,41.57,29.646,45.412c0.563,1.838-2.179,5.848-3.281,5.803
		c-13.364-7.577-28.895-32.579-30.53-35.302C257.442,365.806,247.319,353.81,260.406,347.471 M247.422,357.912
		c1.004-0.322,2.786-1.274,4.8,2.908c2.438,5.062,11.626,21.034,19.959,30.812c3.826,4.49,9.863,12.114,13.638,15.281
		c3.483,2.924,2.725,3.785,1.283,6.09c-3.361,3.838-5.597,0.046-7.831-1.656c-10.089-9.6-19.396-14.877-34.236-41.355
		C242.291,365.096,246.76,357.491,247.422,357.912 M241.433,370.407c19.004,28.123,18.316,29.037,41,47.948
		c2.471,1.863-1.988,6.54-5.534,4.087c-4.651-3.039-25.922-23.537-35.085-37.905C237.053,377.073,234.98,371.289,241.433,370.407
		 M231.547,378.204c2.903-0.605,4.88,3.965,6.029,5.694c15.709,23.615,19.335,25.401,38.046,43.803
		c1.133,15.839-30.25-19.342-32.084-22.026c-0.68-0.511-9.203-10.454-13.673-17.874
		C227.883,384.511,228.511,380.782,231.547,378.204 M224.758,389.801c2.629-1.528,2.651-0.429,3.145,0.226
		c10.791,14.35,19.122,25.069,32.39,37.566c1.127,1.061,12.274,9.561,10.034,11.609c-1.952,3.387-5.655,0.928-7.419-0.266
		C254.768,432.284,218.09,400.751,224.758,389.801 M262.8,452.933c-9.043-2.85-51.802-44.607-46.352-53.303
		c1.183-1.213,4.774,0.096,5.999,1.692c7.961,10.375,14.961,19.635,24.861,28.555C252.492,436.005,271.105,445.244,262.8,452.933
		 M280.503,460.072c-9.074,14.602-19.79,2.55-14.288-5.496c5.801-8.479,37.146-60.175,37.146-60.175
		c2.805-3.982,15.195,2.898,13.085,8.678l-31.955,49.988C284.49,453.067,281.344,458.724,280.503,460.072 M363.501,470.003
		c-27.151,4.186-53.808,1.279-77.938-10.489c-0.939,0.599,30.376-47.955,31.166-49.282c9.479,7.668,33.22,11.063,47.146,11.954
		C364.09,435.849,362.879,460.739,363.501,470.003 M363.794,553.406c0.033,14.054-0.017,26.901,0.096,39.487
		c-7.064,5.684-20.756,4.769-27.978,2.556l1.681-13.318c14.202,5.723,27.354-10.943,17.551-23.126
		C354.552,559.16,359.596,555.955,363.794,553.406 M363.377,527.4l-0.187,19.361c0,0.534-7.148,4.83-11.317,7.785
		c-3.646-4.475-7.142-7.59-11.505-11.278C347.024,538.477,356.401,532.403,363.377,527.4 M319.919,540.069
		c12.46-3.688,28.445,15.852,33.61,24.699c2.639,8.169-2.987,14.188-10.096,14.188c-7.978,1.027-21.508-16.098-26.538-21.117
		C313.031,552.081,312.019,542.384,319.919,540.069 M263.865,627.378c-0.508,1.552-0.871,3.109-1.168,4.671l-8.205,1.195
		c1.282-9.979,5.438-33.102,8.841-50.876l47.902-1.436c-0.6,3.691-1.289,14.153-1.564,14.207
		C278.557,601.221,267.586,616.027,263.865,627.378 M306.397,611.729c-3.125-1.955-8.956-5.209-5.162-10.202
		c2.882-0.847,5.183-1.796,8.489-2.443c-0.377,2.077-1.903,14.896-2.592,18.706c-0.016,0.008-0.025,0.011-0.042,0.015
		C307.835,614.454,307.22,612.699,306.397,611.729 M287.98,622.896c-5.837-0.249-10.732,0.19-12.336-6.954
		c1.578-1.673,3.372-3.281,5.413-4.804c0.557,12.725,14.165,0.689,12.712,12.314c-0.55,0.393-1.351,1.008-2.239,1.863
		C290.645,624.322,289.496,623.381,287.98,622.896 M288.974,628.332c-1.065,1.485-2.127,3.601-2.658,5.49
		c-5.354-5.967-13.36,2.364-18.98-2.992c0.897-3.514,2.4-6.956,4.592-10.228C277.614,628.055,284.084,623.505,288.974,628.332
		 M295.721,606.532c2.369,7.753,8.879,4.161,7.621,12.497c-1.596,0.559-3.491,1.29-5.438,2.196
		c0.282-12.783-13.776-2.681-13.678-12.262c3.42-2.152,7.369-4.104,11.957-5.779C295.548,604.786,295.637,606.028,295.721,606.532
		 M306.287,622.503c-0.395,2.209-0.753,4.247-1.053,5.992c-4.446,0.357-9.412,0.978-12.723,1.421
		C294.184,627.932,297.954,625.263,306.287,622.503 M266.554,634.924c6.524,5.268,14.841-3.495,18.964,4.467
		c0.044,2.038,0.14,2.835,0.475,4.294c-7.159-4.934-12.454,4.527-19.541-0.748C266.205,640.28,266.212,637.598,266.554,634.924
		 M269.881,656.089c-1.082-2.488-1.943-5.093-2.559-7.761c7.457,3.956,11.717-4.447,19.617-1.324
		c0.846,2.189,1.957,4.015,3.068,5.482C278.611,649.899,276.684,658.552,269.881,656.089 M277.2,667.721
		c-1.531-1.778-2.987-3.682-4.268-5.764c9.911-1.918,8.58-7.657,20.392-5.829c1.36,1.156,2.752,2.651,4.825,4.24
		C282.389,659.651,286.01,670.831,277.2,667.721 M298.106,654.779l6.836-1.246c0.526,4.169,1.379,6.988,3.821,9.614
		C305.979,661.08,298.303,655.009,298.106,654.779 M281.588,672.207c3.021,0.048,7.397-3.908,8.412-6.188
		c0.66-2.75,13.806-3.817,17.901,1.843c-11.288-0.345-10.842,7.328-21.282,8.626C285.103,675.255,283.276,673.726,281.588,672.207
		 M326.41,704.533c6.455-7.58,8.47-3.396,14.569-5.954c-1.054,5.379-9.47,6.147-12.062,7.53
		C328.086,705.58,327.24,705.066,326.41,704.533 M418.489,704.475l1.337,1.58c-0.764,0.562-1.324,1.114-1.75,1.655l-35.121-1.702
		l34.265,5.834c2.103,4.558,1.977,4.255-2.429,7.225l-34.913-4.878l34.74,9.254c1.469,3.672-4.983,6.387-5.965,8.22l-31.258-11.739
		l33.629,16.854c0.915,2.31-0.812,3.669-2.463,5.557l-30.749-15.816l27.612,18.998c-0.871,0.941-1.639,1.883-2.094,2.822
		c-13.893-4.972-26.25-14.806-39.608-21.481c4.675-5.495,16.929-21.928,15.2-30.595
		C391.982,699.014,404.951,702.366,418.489,704.475 M374.423,695.319c2.034,8.398-10.175,23.826-14.925,29.104
		c-1.684-0.972-3.369-1.938-5.05-2.91c4.866-5.088,16.564-19.201,15.621-26.977C371.522,694.799,372.977,695.032,374.423,695.319
		 M365.001,693.651c1.477,6.987-10.548,20.273-15.391,25.057c-1.974-1.161-3.916-2.367-5.88-3.544
		c5.429-3.656,16.685-14.32,15.492-22.293C361.155,693.11,363.086,693.354,365.001,693.651 M345.574,700.743
		c1.991-5.025,2.207-6.612,2.129-8.907c2.18,0.097,4.324,0.304,6.474,0.499c1.384,7.204-9.613,16.734-15.218,19.954
		c-1.777-1.08-3.58-2.123-5.344-3.22C335.681,707.189,343.434,706.134,345.574,700.743 M342.741,691.438
		c-5.279,7.526-14.993,2.281-20.167,10.601c-0.805-0.529-1.595-1.078-2.396-1.611c7.767-4.859,8.26-10.583,19.114-10.711
		C340.518,690.38,341.678,690.966,342.741,691.438 M331.888,685.276c0.934,0.604,1.841,1.174,2.738,1.727
		c-8.722,1.384-10.425,8.061-18.11,10.961c-0.967-0.66-1.95-1.293-2.911-1.96C323.231,693.797,319.193,682.265,331.888,685.276
		 M319.171,676.413c2.08,1.53,4.163,3.024,6.233,4.478c-10.629,2.432-5.377,11.15-16.657,11.708
		c-2.469-1.764-5.455-3.91-8.655-6.209C312.467,685.543,307.682,675.799,319.171,676.413 M311.466,670.622
		c0.929,0.713,1.892,1.439,2.851,2.164c-9.908,1.708-5.248,10.587-19.122,10.088c-1.272-0.911-2.546-1.823-3.808-2.725
		c4.468-0.697,6.296-5.623,9.527-6.811C303.137,673.075,308.646,671.565,311.466,670.622 M326.564,632.619
		c35.535-5.548-18.395,54.539-17.564,16.696l-14.255,2.18c-3.105-3.903-5.771-11.713-3.703-17.119
		c3.479-0.492,13.029-1.784,17.847-1.868c1.872-11.604,7.101-55.98,7.101-55.98l-56.238,1.883c0,0-10.431,53.937-9.897,59.773
		l12.256-1.789c-0.42,5.739,0.034,12.593,1.743,17.883c-4.501,1.048-11.69,1.854-16.696,3.092c6.68,5.504,1.062,18.362-7.302,18.362
		c-8.691-0.057-28.322-19.688-30.299-27.769c-1.785-12.779,13.332-15.821,21.566-8.28c3.693-19.937,9.027-43.938,10.283-61.324
		c-36.563,1.88,19.652-53.964,18.103-17.401l51.728-1.642l22.164,21.617C333.399,580.933,328.239,620.131,326.564,632.619
		 M342.211,616.729c-0.288,0.824-0.752,2.043-1.799,2.926c-3.252-0.542-5.379-1.553-7.298-2.057
		c1.467-9.631,1.921-14.414,2.349-18.157c2.194,0.433,2.717,0.273,4.837,0.66C335.463,610.001,345.022,609.279,342.211,616.729
		 M352.24,619.859c-2.495,0.563-5.016,0.576-7.598,0.346c6.348-12.806-4.516-8.743-0.519-19.442
		c1.548,0.255,2.979,0.463,4.237,0.604c1.462,13.926,7.167,7.004,10.926,16.67C356.87,618.726,354.424,619.363,352.24,619.859
		 M363.379,616.811c-3.146-10.619-11.276-6.075-10.665-15.25c7.375-1.435,9.96-3.555,11.161-4.325
		c0.311,4.477,0.343,10.79,1.686,18.934C365.561,616.169,363.74,617.07,363.379,616.811 M801.568,261.087l-13.74,9.783
		l11.087,15.193l13.739-9.785l17.188,23.553c0,0-5.649,4.045-8.411,5.99l-11.198-14.912l-14.498,10.322l10.931,15.102
		l-15.052,10.721l-12.599-17.263l12.334-8.782c-5.623-7.569-12.677-17.373-12.677-17.373s-2.017,1.417-12.335,8.782
		c-3.624-4.104-8.027-11-8.027-11s-8.234,5.883-18.194,12.957l8.024,11.002c-3.289,2.224-11.248,8.011-11.248,8.011l12.677,17.373
		l11.252-8.012c2.392,3.094,12.596,17.264,12.596,17.264l-14.015,9.977l-10.992-15.059l-16.297,11.604l10.992,15.061l-7.674,5.464
		l-18.094-24.45l11.517-8.202c0,0-9.226-14.109-10.057-14.383c-4.481,3.369-3.998,2.994-11.642,8.291
		c-5.408-7.12-8.907-12.209-8.907-12.209c2.352-1.68,6.147-4.392,10.894-7.787c11.469-8.199,28.515-20.398,44.395-31.729
		c9.9-7.063,19.341-13.785,26.689-18.99c5.599-3.967,9.984-7.051,12.428-8.73L801.568,261.087z M787.39,227.567
		c0,0,9.285,11.019,9.814,13.442c0.19,0.863-176.07,123.716-176.07,123.716h-28.013L787.39,227.567z M617.996,341.155
		l-31.692,23.138h-13.871c-3.012-22.538-6.004-37.712-5.132-59.605h44.763C613.179,312.051,616.007,331.414,617.996,341.155
		 M517.332,304.688h45.669c-1.034,19.769,2.577,38.312,4.621,60.038h-54.915C514.754,342.975,518.363,324.476,517.332,304.688
		 M531.485,110.382c0.544-1.056,1.924-2.408,3.979-2.408c0.279,0,9.559,0,9.863,0c2.191,0,3.609,2.285,3.716,2.45
		c0.003,0.001,0.003,0.001,0.003,0.003c0.645,1.152,1.212,2.824,1.711,5.248c0,0-10.838-1.908-21.016,0
		C529.722,115.679,530.883,111.55,531.485,110.382 M473.132,159.476c39.885-58.732,100.181-50.82,135.657,1.984
		c-5.785,10.736-7.296-0.438-11.474-5.224c-2.083,2.731-3.385,8.934-7.113,9.966c-5.016-4.45-8.029-14.206-11.766-19.647
		c-3.843,5.385-6.637,15.562-11.993,19.667c-2.913-1.564-5.028-7.346-7.054-10.045c-2.015,2.698-4.142,8.477-7.047,10.042
		c-5.356-4.102-8.136-14.272-11.995-19.646c-3.726,5.402-6.756,15.146-11.721,19.572c-3.562-0.799-4.992-7.361-7.484-9.909
		c-2.083,2.731-3.387,8.932-7.115,9.966c-5.019-4.45-8.029-14.208-11.768-19.647c-3.84,5.386-6.637,15.562-11.992,19.667
		c-2.912-1.565-5.029-7.346-7.05-10.045c-1.636,2.712-4.289,7.34-6.246,9.756c-2.427,1.203-3.756-3.204-5.198-4.615
		C472.017,160.749,473.132,159.476,473.132,159.476 M465.371,178.646c5.382-1.155,5.97-9.403,0.702-11.223l-0.116-8.929
		c0.6,1.082,1.199,2.205,1.804,3.315c0.489,0.902,0.984,1.796,1.482,2.653c0.563,0.963,1.131,1.877,1.711,2.705
		c2.529,3.611,5.265,5.508,8.523,2.255c1.146-1.144,2.354-2.908,3.642-5.478c1.336,2.758,2.612,4.593,3.829,5.713
		c3.052,2.806,5.755,1.08,8.2-2.281c1.787-2.457,3.437-5.778,4.984-8.834c0.052-0.107,0.105-0.215,0.16-0.319
		c0.584-1.147,1.148-2.245,1.704-3.243c0.058-0.103,0.113-0.209,0.17-0.311v0.002c4.404,7.883,10.819,26.259,19.125,9.611
		c4.117,8.933,10.066,8.764,13.585,0.311c1.794-3.084,3.703-6.738,5.371-9.936c4.68,8.23,10.8,26.445,19.045,9.287
		c8.235,16.98,14.128-0.587,19.05-9.273c4.363,7.769,11.029,26.639,19.071,9.423c5.023,10.751,9.55,7.263,13.281,1.318
		c0.672-1.074,1.322-2.227,1.939-3.392c0.98-1.84,1.891-3.704,2.723-5.323v10.479c-6.309,1.268-5.705,11.049,0.727,11.512
		c-0.05,0.002-0.314-0.002-0.727,0c-0.517,0.002-34.905-0.002-36.159,0c7.227-0.63,6.665-11.832-0.663-11.693
		c-7.328-0.139-7.889,11.066-0.659,11.693h-36.901c7.229-0.627,6.669-11.832-0.659-11.693c-7.329-0.139-7.891,11.066-0.66,11.693
		h-36.901c7.229-0.629,6.671-11.832-0.66-11.693c-7.328-0.139-7.889,11.066-0.658,11.693h-36.294h-0.563
		C465.042,178.69,465.295,178.663,465.371,178.646 M455.521,184.188c0-2.53,2.735-2.348,3.441-2.348h164.384
		c2.322,0,2.083,4.692,0,4.692c-1.668,0-161.322,0.005-164.137,0C457.892,186.533,455.521,186.53,455.521,184.188 M460.254,191.677
		c0.2-0.568,0.463-1.171,0.878-1.983h158.292c2.021,1.048,8.616,21.653,8.616,21.653s-2.688,4.27-4.707,6.742
		c-0.61,1.076-2.691,1.424-3.556,0.574c-2.35-2.975-5.557-8.598-7.477-11.862c-2.266,2.947-5.438,11.437-8.926,12.46
		c-5.625-2.639-11.263-19.523-15.135-24.824c-3.83,6.665-8.607,17.172-13.095,23.757c-4.722,4.692-8.696-8.751-10.807-11.329
		c-3.067,3.247-4.764,11.707-9.466,12.295c-0.7-0.096-1.3-0.464-1.7-1.037c-4.421-6.563-9.218-16.829-12.925-23.596
		c-3.693,6.754-8.508,17.045-12.922,23.597c-0.399,0.572-1,0.94-1.694,1.036c-4.706-0.583-6.401-9.051-9.474-12.295
		c-2.053,2.472-6.08,16.031-10.805,11.329c-4.492-6.597-9.256-17.078-13.094-23.757c-3.875,5.305-9.5,22.166-15.133,24.824
		c-3.487-1.014-6.663-9.518-8.929-12.46c-5.794,9.147-8.974,20.224-14.911,3.802C454.764,204.64,460.198,191.808,460.254,191.677
		 M445.658,229.683c0.939-0.51,4.603-5.151,0.461-9.697l-0.401-13.637c0.731,1.316,1.462,2.693,2.196,4.072
		c1.83,3.43,3.683,6.857,5.645,9.356c2.871,3.657,5.975,5.306,9.564,2.011c1.569-1.439,3.229-3.81,5.006-7.383
		c1.711,3.519,3.328,5.876,4.867,7.329c3.661,3.454,6.867,1.716,9.771-2.068c2.062-2.688,3.973-6.399,5.78-10.021
		c1.256-2.511,2.464-4.976,3.643-7.017c0.764,1.342,1.571,2.93,2.416,4.62c1.952,3.899,4.121,8.347,6.513,11.62
		c2.738,3.744,5.768,5.92,9.09,3.961c0.21-0.132,0.428-0.255,0.62-0.416c0.006-0.005,0.014-0.012,0.02-0.018
		c1.748-1.297,3.573-3.742,5.482-7.75c1.771,3.837,3.486,6.24,5.146,7.572c0.628,0.504,1.244,0.861,1.853,1.072
		c0.048,0.016,0.092,0.037,0.136,0.051c2.961,0.924,5.718-1.399,8.247-4.959c2.412-3.396,4.613-7.912,6.578-11.842
		c0.682-1.362,1.337-2.657,1.959-3.804c0.815,1.466,1.666,3.161,2.55,4.932c1.915,3.829,4,8.026,6.267,11.147
		c3.033,4.182,6.394,6.4,10.103,3.193c1.594-1.379,3.251-3.741,4.977-7.413c2.129,4.314,4.124,6.846,5.996,8.082
		c3.296,2.172,6.222,0.296,8.865-3.204c2.182-2.887,4.173-6.863,6.019-10.575c1.146-2.306,2.239-4.507,3.286-6.269
		c0.68,1.24,1.392,2.659,2.137,4.154c1.967,3.942,4.167,8.434,6.575,11.789c2.522,3.514,5.271,5.779,8.223,4.82
		c0.003,0,0.006-0.002,0.008-0.003c0.538-0.177,1.082-0.467,1.633-0.868c0.037-0.025,0.072-0.043,0.106-0.07
		c0.064-0.049,0.131-0.115,0.193-0.167c1.691-1.358,3.441-3.825,5.25-7.776c1.613,3.369,3.149,5.644,4.623,7.086
		c1.176,1.147,2.308,1.76,3.401,1.926c0.065,0.008,0.129,0.025,0.193,0.031c2.356,0.242,4.536-1.539,6.587-4.258
		c2.261-2.996,4.363-7.125,6.367-10.953c0.425-0.811,0.842-1.605,1.258-2.373l0.079,13.107c-1.392,0.457-1.914,1.538-2.528,2.672
		c-0.971,1.797-0.971,4.096,0.003,5.893c0.612,1.133,1.137,2.109,2.525,2.566v2.81c-15.801-0.106-173.301-0.126-189.285-0.044
		V229.683z M435.596,241.093c-0.894-0.006-1.393-0.756-1.447-1.268c-0.055-0.523-0.077-1.515-0.049-1.939c0-0.002,0-0.004,0-0.008
		v-0.002c0-0.199,0-1.478,1.722-1.478h202.678c0.951-0.003,2.421,0,3.802,0c0.986,0.002,1.93,0.002,2.603,0l0,0
		c0.212-0.005,0.395,0.042,0.563,0.113c0.013,0.005,0.024,0.011,0.037,0.015c0.136,0.064,0.26,0.144,0.368,0.248
		c0.188,0.18,0.337,0.412,0.442,0.682c0.26,0.659,0.274,1.512,0.072,2.229c-0.146,0.52-0.408,0.966-0.776,1.208
		c-0.012,0.009-0.027,0.017-0.04,0.024c-0.051,0.032-0.108,0.053-0.165,0.074c-0.155,0.064-0.318,0.107-0.501,0.102l0,0
		c-1.283-0.003-2.82,0-4.297,0c-0.888,0-1.758,0-2.523,0C638.083,241.093,436.352,241.097,435.596,241.093 M620.339,264.845
		c-0.016,0.002-0.032,0.02-0.045,0.029l-0.022-0.029l-0.037,0.068c-0.328,0.302-1.957,3.643-2.112,3.941
		c-0.097,0.188-0.108,0.244,0.012,0.032c-1.186,2.425-5.862,13.532-9.65,8.373c-0.575-0.845-1.415-1.532-1.996-2.478
		c-0.099-0.161-0.2-0.324-0.299-0.487c-0.005-0.011-0.013-0.021-0.019-0.031c-1.363-2.254-2.734-4.735-4.091-7.28
		c-1.734-3.259-3.438-6.617-5.065-9.727c-0.854-1.644-1.689-3.213-2.49-4.664c-0.307-0.553-0.609-1.092-0.904-1.607
		c-1.475,2.009-3.303,5.834-5.314,10.021c-2.45,5.102-9.655,18.98-11.561,17.661c0,0.003-0.003,0.003-0.003,0.003h-0.003
		c-2.076-0.199-5.588-6.289-6.979-8.84c-1.021-1.869-1.955-3.592-2.768-4.699l-0.208-0.357l-0.21,0.359
		c-0.809,1.102-1.739,2.818-2.758,4.679c-1.391,2.55-2.939,5.327-4.538,7.099c-0.809,0.897-1.631,1.547-2.451,1.754h-0.003h-0.002
		c-1.142-0.385-2.402-1.627-3.709-3.393c-2.762-3.725-5.74-9.783-8.262-15.066c-1.875-3.931-3.502-7.435-4.604-9.221
		c-1.08,1.757-2.705,5.253-4.583,9.187c-2.53,5.294-5.523,11.38-8.284,15.111c-1.313,1.771-2.57,3.012-3.699,3.382
		c-0.002,0-0.006,0-0.006,0h-0.001c-0.821-0.204-1.639-0.85-2.445-1.744c-1.6-1.767-3.147-4.541-4.54-7.091
		c-1.021-1.87-1.954-3.593-2.765-4.698l-0.21-0.357l-0.211,0.359c-0.807,1.105-1.739,2.821-2.755,4.684
		c-1.39,2.549-2.938,5.324-4.537,7.097c-0.81,0.896-1.628,1.549-2.45,1.757h-0.001h-0.003c-3.491-0.502-9.311-12.984-11.799-18.12
		c-1.376-2.843-2.686-5.489-3.911-7.489l-1.167-2.076l-0.112,0.201c-0.052-0.066-0.104-0.139-0.155-0.201
		c-0.882,1.779-1.873,3.778-2.931,5.881c-2.157,4.296-4.603,9.043-7.044,13.382c-1.478,2.626-2.956,5.106-4.361,7.231
		c-1.621,1.918-3.37,1.223-5.026-0.573c-1.389-1.885-3.446-5.483-4.978-8.265c-1.012-2.093-1.747-3.709-2.047-3.797
		c-0.222,0.105-0.619,0.766-1.144,1.736l-0.826,1.258c-0.298,0.451-0.692,1.181-1.244,2.191c-0.355,0.654-3.286,5.482-4.059,6.554
		c-0.907,0.991-1.837,1.678-2.741,1.854c-0.37,0.071-0.733,0.064-1.095-0.05c-0.461-0.15-0.914-0.467-1.349-0.987
		c-0.001,0-0.004-0.004-0.005-0.006c-3.053-4.016-5.308-7.354-6.798-10.595c-1.326-2.888-2.037-5.705-2.112-8.843
		c-0.094-3.832,0.741-8.15,2.537-13.705h197.715c0.143,0.475,0.277,0.979,0.412,1.478c0.117,0.429,0.229,0.862,0.337,1.307
		c0.046,0.194,0.094,0.392,0.138,0.591c0.089,0.38,0.181,0.755,0.265,1.144c0.433,1.997,0.791,4.101,1.067,6.21
		c0.05,0.38,0.099,0.758,0.141,1.137c0.045,0.383,0.084,0.763,0.121,1.141c0.079,0.775,0.141,1.539,0.193,2.298
		c0.005,0.069,0.012,0.138,0.014,0.209c0.063,0.978,0.104,1.954,0.127,2.934c0,0-0.003,0.003-0.003,0.005
		c-0.42,0.769-0.82,1.508-1.208,2.229c-0.907,1.69-1.812,3.383-2.742,5.061c-0.05,0.076-2.372,4.198-3.084,5.354
		c-0.667,0.983-1.295,1.741-1.915,2.277c-0.549,0.368-1.174,0.71-1.492,0.774c-0.313,0.051-0.632,0.081-0.957,0.094
		c-1.299-0.219-2.718-1.499-4.483-3.998c-1.498-2.117-3.25-5.115-5.396-9.094l0.724,1.102
		C620.793,265.578,620.339,264.845,620.339,264.845 M433.89,293.673v-4.725c0.236-0.184,0.425-0.408,0.619-0.629
		c0.169-0.19,0.321-0.389,0.46-0.602c0.123-0.191,0.246-0.383,0.343-0.588c0.04-0.081,0.082-0.158,0.118-0.242
		c0.616-1.469,0.616-3.209,0-4.678c-0.036-0.084-0.078-0.162-0.116-0.242c-0.099-0.206-0.222-0.396-0.345-0.588
		c-0.139-0.213-0.291-0.411-0.46-0.602c-0.194-0.221-0.383-0.446-0.619-0.63v-17.212c0.757,1.414,1.501,2.866,2.24,4.315
		c2.08,4.081,4.11,8.12,6.249,11.132c3.469,4.893,7.218,7.041,11.896,2.217c1.711-1.768,3.543-4.443,5.534-8.283
		c1.485,3.254,2.92,5.645,4.302,7.329c0.924,1.126,1.825,1.937,2.703,2.469c1.154,0.696,2.269,0.916,3.345,0.759
		c1.957-0.286,3.788-1.816,5.497-4.021c2.567-3.313,4.861-8.134,6.898-12.492c1.488-3.185,2.84-6.123,4.059-8.042
		c1.112,1.715,2.394,4.646,3.858,7.903c1.883,4.183,4.067,8.895,6.58,12.23c3.12,4.146,6.751,6.162,10.943,2.417
		c1.802-1.611,3.707-4.279,5.72-8.307c0.722,1.43,1.925,3.69,3.437,5.748c1.408,1.916,3.086,3.657,4.895,4.385
		c1.271,0.51,2.603,0.517,3.954-0.26c0.038-0.023,0.076-0.049,0.113-0.072c0.264-0.16,0.516-0.359,0.793-0.568
		c6.952-5.295,13.33-22.333,13.342-22.357c1.095,1.717,2.33,4.506,3.724,7.57c1.757,3.856,3.765,8.153,6.065,11.311
		c1.421,1.947,2.95,3.457,4.597,4.166c0.96,0.414,1.961,0.554,3.004,0.346c1.373-0.27,2.817-1.141,4.339-2.777
		c1.524-1.641,3.126-4.048,4.808-7.396c1.518,3.172,2.979,5.492,4.389,7.125c1.438,1.668,2.816,2.609,4.141,2.975
		c0.927,0.256,1.823,0.234,2.692-0.018c1.708-0.496,3.309-1.869,4.806-3.729c2.565-3.184,4.824-7.787,6.775-11.834
		c1.529-3.168,2.874-5.993,4.032-7.531c0.87,1.35,1.923,3.565,3.139,6.11c1.809,3.792,3.982,8.312,6.456,11.766
		c1.93,2.696,4.045,4.741,6.314,5.286c0.022,0.002,0.04,0.009,0.062,0.012c0.006,0,0.013,0,0.018,0.002
		c1.105,0.247,2.246,0.144,3.423-0.42c0.956-0.459,1.937-1.218,2.938-2.335c1.415-1.581,2.876-3.869,4.371-7.025
		c1.497,2.938,2.925,5.106,4.296,6.662c1.169,1.324,2.298,2.193,3.385,2.673c1.189,0.521,2.327,0.586,3.433,0.289
		c2.013-0.541,3.899-2.272,5.705-4.632c2.409-3.147,4.677-7.388,6.903-11.351c0.854-1.518,1.702-2.994,2.55-4.354v16.948
		c-1.226,0.514-2.096,1.421-2.64,2.493c-0.864,1.712-0.864,3.848,0.003,5.561c0.543,1.072,1.413,1.977,2.637,2.488v3.854v0.386
		H433.89V293.673z M428.97,301.528c-0.46,0.007-0.776-0.154-1.006-0.4c-0.3-0.324-0.441-0.804-0.493-1.314
		c-0.053-0.523-0.025-1.068,0-1.492c0-0.003,0-0.006,0-0.006c0-0.005,0.002-0.005,0.002-0.01c0.009-0.455,0.165-0.766,0.405-0.988
		c0.338-0.316,0.848-0.442,1.389-0.482c0.491-0.039,1.002-0.013,1.42,0c0.001,0,0.002,0,0.004,0h219.12
		c0.345-0.012,0.852-0.037,1.357,0c0.405,0.027,0.812,0.095,1.14,0.246c0.459,0.211,0.771,0.582,0.719,1.227
		c0,0.003,0.003,0.006,0.003,0.008c-0.082,0.714,0.066,1.777-0.239,2.483c-0.188,0.435-0.552,0.736-1.259,0.729h-0.002H428.97
		 M468.267,304.688h44.758c0.876,21.892-2.114,37.069-5.126,59.605h-13.871l-31.694-23.138
		C464.324,331.409,467.156,312.038,468.267,304.688 M373.176,328.315c-7.645-5.297-7.161-4.922-11.644-8.291
		c-0.828,0.273-10.962,15.281-10.962,15.281l11.518,8.201l-17.187,23.553l-7.674-5.464l10.99-15.061l-16.298-11.604l-10.989,15.059
		l-14.015-9.977c0,0,10.979-15.279,13.371-18.371l11.253,8.011l11.901-16.265c0,0-7.96-5.787-11.252-8.011l8.027-11.002
		c-9.96-7.074-18.197-12.957-18.197-12.957s-4.401,6.896-8.027,11c-10.318-7.365-12.333-8.782-12.333-8.782
		s-7.053,9.804-12.679,17.373l12.334,8.782l-12.596,17.263l-15.055-10.721l10.933-15.102l-14.498-10.322l-11.198,14.912
		c-2.764-1.945-8.409-5.99-8.409-5.99l17.187-23.553l13.74,9.785l11.086-15.193l-13.74-9.783l8.915-12.217
		c2.385,1.639,6.776,4.729,12.418,8.725l6.886,4.838l20.244,14.468c16.063,11.463,33.266,23.77,44.591,31.869
		c4.493,3.212,8.063,5.766,10.267,7.337C382.084,316.106,378.583,321.195,373.176,328.315 M283.968,240.759
		c-1.078-0.956,9.247-12.822,9.939-13.038c0.46,0.325,1.013,0.717,1.608,1.137l2.031,1.433c0.076,0.055,0.154,0.109,0.232,0.164
		c1.643,1.16,3.602,2.542,5.823,4.11c4.084,2.884,9.083,6.409,14.792,10.442c1.308,0.921,2.659,1.875,4.036,2.848
		c1.803,1.273,3.659,2.582,5.574,3.934c1.271,0.897,2.568,1.814,3.886,2.743c3.467,2.446,7.079,4.998,10.814,7.634
		c1.706,1.204,3.434,2.422,5.187,3.661c8.287,5.849,17.066,12.046,26.034,18.376c2.417,1.705,4.844,3.42,7.281,5.139
		c11.36,8.021,22.879,16.15,33.959,23.971c1.451,1.024,2.893,2.043,4.328,3.056l2.145,1.513
		c14.518,10.248,28.024,19.781,39.082,27.586c13.699,9.67,23.639,16.688,27.044,19.09l-28.618-0.263L283.968,240.759z
		 M709.808,597.954c-2.115,35.765-15.647,58.413-43.142,81.451c-22.981,19.258-124.656,67.412-124.821,67.423
		c-0.418,0.022-106.3-47.73-129.309-67.277c-26.602-22.598-42.627-48.002-42.717-87.005c-0.079-33.455,0.352-65.195,0.353-80.869
		c17.869-12.998,27.437-18.442,46.018-30.454c8.474-5.481,19.634-11.063,30.678-10.912c14.265,0.196,26.997,6.617,36.234,12.962
		c10.989,7.549,22.094,20.954,36.149,22.213c9.428,0.846,17.548-3.138,25.228-8.129c6.812-4.43,13.617-9.379,21.609-10.979
		c9.489-1.9,19.415,1.284,27.588,6.415c11.237,7.052,15.591,13.005,23.302,19.49c4.534,3.814,20.33,13.2,38.5,11.365
		c9.308-0.938,17.135-5.213,25.585-8.786c8.517-3.6,20.137-2.922,29.204-0.773C711.014,514.267,711.043,577.021,709.808,597.954
		 M708.337,508.329c-8.502-1.665-20.005-0.453-28.416,2.259c-4.515,1.455-8.646,3.722-12.902,5.763
		c-10.191,4.884-25.763,3.323-33.906,0.163c-8.591-3.335-14.286-6.655-20.401-12.467c-13.542-12.888-27.554-26.22-50.628-21.263
		c-7.03,1.506-12.841,5.423-18.459,9.211c-7.7,5.193-14.958,10.107-25.155,9.19c-7.977-0.709-16.58-7.708-24.904-14.476
		c-6.01-4.888-12.225-9.939-18.315-12.695c-21.751-9.849-34.816-11.338-55.656,0.224c-5.895,3.27-39.179,24.647-49.979,31.6
		c0.01-22.669,0.037-45.309,0.062-65.791c0.037-32.745,0.066-59.286,0.019-69.461h340.96c-0.049,10.175-0.017,36.716,0.019,69.461
		c0.026,21.399,0.054,45.155,0.066,68.838C709.934,508.7,709.128,508.485,708.337,508.329 M749.59,541.42
		c12.804-6.659,21.693,5.023,13.801,16.419c-5.082,5.045-18.51,22.107-26.535,21.117C710.806,574.808,738.752,547.342,749.59,541.42
		 M739.921,543.269c-4.365,3.688-7.862,6.804-11.506,11.278c-4.169-2.955-11.316-7.251-11.316-7.785l-0.188-19.361
		C723.886,532.403,733.265,538.477,739.921,543.269 M854.934,401.322c1.225-1.597,4.818-2.905,5.999-1.692
		c9.511,4.19-58.525,75.832-47.167,45.059C827.305,432.313,844.391,417.099,854.934,401.322 M852.623,389.801
		c9.194,8.956-30.018,42.503-38.146,49.137c-1.767,1.192-5.468,3.651-7.419,0.265c-2.242-2.049,8.907-10.549,10.034-11.609
		c13.266-12.497,21.599-23.217,32.391-37.566C849.973,389.372,850.453,387.687,852.623,389.801 M845.836,378.204
		c8.578,6.447-11.4,26.39-12.589,27.586c-1.954,2.044-32.599,37.729-31.487,21.911c18.712-18.401,22.339-20.188,38.046-43.803
		C840.956,382.169,842.931,377.599,845.836,378.204 M835.951,370.407c18.871,2.543-28.328,47.36-35.467,52.035
		c-3.545,2.453-8.005-2.224-5.536-4.087C817.625,399.453,816.955,398.521,835.951,370.407 M829.959,357.912
		c11.464,11.676-18.27,40.535-31.844,53.435c-2.236,1.702-4.472,5.494-7.832,1.656c-1.443-2.305-2.201-3.166,1.279-6.09
		c3.775-3.167,9.814-10.791,13.642-15.281c8.331-9.777,17.521-25.75,19.956-30.812C827.174,356.638,828.955,357.59,829.959,357.912
		 M816.568,348.059c11.388,3.749,3.099,17.06,0.573,20.909c-0.704,2.07-25.472,36.1-30.252,35.986
		c-1.104,0.047-3.846-3.963-3.279-5.799c0.591-1.918,5.861-5.855,7.635-8.063C821.126,353.905,812.211,346.624,816.568,348.059
		 M798.005,355.434c1.813-4.763,3.942-19.364,7.743-18.529c5.891,1.291,5.878,4.549,5.891,9.156
		c0.037,13.79-13.504,32.296-22.683,42.215c-3.444,3.722-10.474,12.298-11.78,3.68C785.299,381.712,793.206,368.038,798.005,355.434
		 M764.674,395.936c1.9-1.833,7.817-4.243,9.354-1.534c0,0,31.344,51.695,37.144,60.175c5.914,11.767-8.767,20.956-18.275-1.509
		l-31.953-49.988C759.414,399.183,763.977,396.61,764.674,395.936 M760.658,410.231c0.922,1.542,31.886,49.516,31.167,49.282
		c-23.347,11.405-49.025,14.427-75.314,10.873c-0.018-16.599-0.04-32.459-0.054-48.403
		C730.473,420.9,751.65,417.519,760.658,410.231 M716.474,590.389c0.034-11.463,0.052-23.939,0.063-36.958
		c4.188,2.547,9.195,5.729,8.606,5.574c-9.806,12.186,3.353,28.849,17.553,23.126l1.681,13.318
		c-4.201,1.423-23.461,3.023-27.98-0.586C716.442,593.385,716.471,591.897,716.474,590.389 M716.908,616.811
		c-0.496-0.104-2.739-1.013-2.739-1.013c1.381-7.104,1.668-9.829,2.3-16.137c2.017,0.533,2.933,1.599,11.104,1.899
		C728.188,610.743,720.091,606.149,716.908,616.811 M736.129,607.674c-3.496,4.297-3.299,8.207-1.097,12.531
		c-6.753-0.146-9.637-0.772-14.645-2.169c3.753-9.653,9.471-2.757,10.926-16.67c1.26-0.141,2.69-0.349,4.236-0.604
		C735.939,602.695,737.663,605.788,736.129,607.674 M739.874,619.655c-7.569-9.827,5.54-8.44,0.114-19.554
		c2.12-0.387,2.645-0.228,4.837-0.66c0.425,3.743,0.883,8.526,2.349,18.157C745.256,618.103,743.129,619.113,739.874,619.655
		 M679.887,747.868l-2.928,0.47c-0.455-0.939-1.221-1.881-2.096-2.822l27.613-18.998l-30.751,15.816
		c-0.396-0.455-0.798-0.878-1.166-1.293c-0.66-0.743-1.196-1.462-1.421-2.26c-0.17-0.604-0.173-1.251,0.126-2.004l33.63-16.854
		l-31.258,11.739c-0.346-0.643-1.361-1.394-2.471-2.255c-1.354-1.052-2.837-2.269-3.432-3.658c-0.31-0.724-0.391-1.489-0.063-2.307
		l34.739-9.254l-34.914,4.878c-1.382-0.932-2.341-1.542-2.945-2.078c-0.788-0.706-0.957-1.297-0.663-2.32
		c0.198-0.689,0.602-1.569,1.18-2.826l34.267-5.834l-35.122,1.702c-0.425-0.541-0.986-1.094-1.75-1.655l1.335-1.58
		c13.54-2.108,26.507-5.461,39.569-8.213c-0.395,1.954-0.066,4.309,0.724,6.848c1.093,3.514,3.079,7.381,5.3,11.018
		c2.723,4.46,5.784,8.571,7.974,11.279c0.438,0.539,0.843,1.03,1.201,1.45C704.325,733.852,692.021,740.74,679.887,747.868
		 M720.791,724.423c-0.508-0.566-1.103-1.248-1.75-2.019c-2.231-2.656-5.147-6.411-7.689-10.446
		c-2.124-3.373-3.985-6.931-4.969-10.192c-0.714-2.367-0.965-4.578-0.519-6.446c1.446-0.287,2.902-0.521,4.354-0.783
		c-0.263,2.15,0.446,4.781,1.703,7.573c1.474,3.267,3.702,6.75,6.035,9.932c2.89,3.949,5.934,7.436,7.883,9.472
		C724.16,722.485,722.473,723.451,720.791,724.423 M730.678,718.708c-0.152-0.15-0.313-0.312-0.481-0.479
		c-0.044-0.045-0.094-0.096-0.141-0.144c-2.062-2.083-5.041-5.312-7.798-8.875c-2.132-2.752-4.129-5.702-5.458-8.467
		c-1.271-2.644-1.93-5.117-1.515-7.092c1.917-0.298,3.85-0.541,5.782-0.78c-0.355,2.37,0.393,4.977,1.757,7.565
		c1.707,3.241,4.38,6.451,7.088,9.14c2.411,2.396,4.848,4.378,6.645,5.588C734.592,716.341,732.65,717.547,730.678,718.708
		 M741.329,712.289c-1.88-1.102-4.311-2.844-6.684-4.946c-2.55-2.264-5.026-4.941-6.673-7.697c-1.468-2.461-2.273-4.979-1.863-7.311
		c2.149-0.195,4.297-0.402,6.474-0.499c-0.003,1.006,0.064,1.922,0.165,2.802c0.282,2.414,0.945,4.371,1.928,6.004
		c1.5,2.492,3.724,4.25,6.434,5.757c2.33,1.069,4.586,1.782,5.564,2.671C744.91,710.166,743.106,711.209,741.329,712.289
		 M751.371,706.109c-0.878-0.468-2.421-0.867-4.119-1.396c-2.337-0.65-4.969-1.532-6.448-3.351
		c-0.731-0.764-1.277-1.671-1.495-2.784c1.618,0.684,2.947,0.884,4.148,0.958l0.714-0.057c0.823-0.141,2.017-0.205,3.735,0.475
		c1.653,0.487,3.482,1.66,5.97,4.578C753.046,705.066,752.203,705.58,751.371,706.109 M757.713,702.038
		c-0.862-1.389-1.852-2.393-2.93-3.148c-1.896-1.329-4.057-1.872-6.254-2.29c-1.633-0.072-3.225-0.012-5.678-1.161
		c-0.259-0.119-0.502-0.25-0.741-0.378c-1.704-0.697-3.271-1.774-4.563-3.623c1.063-0.472,2.221-1.058,3.449-1.722
		c3.521,0.047,5.942,0.68,7.88,1.671c2.258,1.156,3.861,2.806,5.739,4.612c1.492,1.438,3.16,2.968,5.494,4.428
		C759.31,700.96,758.519,701.509,757.713,702.038 M763.772,697.964c-2.428-0.915-4.265-2.217-5.917-3.61
		c-1.91-1.608-3.575-3.338-5.626-4.741c-1.77-1.211-3.82-2.178-6.565-2.609c1.839-0.969,3.393-1.591,4.725-1.939
		c2.574-0.67,4.312-0.297,5.65,0.63c0.61,0.257,1.164,0.58,1.604,1.022c0.719,0.717,1.133,1.639,1.615,2.706
		c0.116,0.26,0.241,0.531,0.373,0.809c1.164,1.877,2.443,3.781,4.561,4.913c0.722,0.389,1.542,0.688,2.494,0.86
		C765.724,696.671,764.738,697.304,763.772,697.964 M771.542,692.599c-11.279-0.555-6.033-9.279-16.66-11.708
		c2.071-1.453,4.156-2.947,6.234-4.478c11.471-0.62,6.725,9.137,19.079,9.977C776.998,688.688,774.011,690.835,771.542,692.599
		 M785.092,682.874c-13.932,0.478-9.161-8.355-19.121-10.088c0.961-0.725,1.922-1.451,2.852-2.164
		c2.826,0.943,8.324,2.451,10.553,2.717c3.222,1.18,5.072,6.123,9.524,6.811C787.64,681.051,786.365,681.963,785.092,682.874
		 M793.671,676.487c-10.412-1.285-10.029-8.981-21.286-8.626c4.104-5.66,17.241-4.593,17.903-1.84
		c1.005,2.275,5.399,6.235,8.413,6.186C797.014,673.726,795.185,675.255,793.671,676.487 M771.526,663.147
		c2.44-2.626,3.296-5.447,3.819-9.614l6.839,1.246C781.932,655.049,774.347,661.05,771.526,663.147 M803.089,667.721
		c-8.793,3.131-5.146-8.047-20.95-7.353c2.071-1.589,3.465-3.084,4.826-4.24c11.803-1.831,10.488,3.914,20.391,5.829
		C806.074,664.039,804.619,665.942,803.089,667.721 M810.408,656.089c-6.719,2.49-8.732-6.185-20.128-3.603
		c1.112-1.468,2.224-3.293,3.069-5.482c7.895-3.123,12.163,5.28,19.617,1.324C812.35,650.996,811.49,653.601,810.408,656.089
		 M772.921,616.366c-0.751-4.878-2.017-15.416-2.356-17.283c3.306,0.647,5.608,1.597,8.488,2.443
		c1.555,1.269,1.224,5.307,0.209,6.189C775.916,611.632,772.069,610.616,772.921,616.366 M773.198,617.804
		c-0.017-0.004-0.027-0.007-0.041-0.015c-0.058-0.313-0.121-0.707-0.188-1.134C773.028,617.016,773.102,617.392,773.198,617.804
		 M784.104,603.185c4.588,1.676,8.539,3.627,11.959,5.779c0.113,9.566-13.975-0.504-13.678,12.262
		c-1.948-0.906-3.843-1.638-5.439-2.196c-0.162-1.907,0.193-4.423,0.641-5.19C780.02,611.625,786.542,609.508,784.104,603.185
		 M787.776,629.916c-3.309-0.443-8.274-1.063-12.723-1.421c-0.298-1.745-0.658-3.783-1.053-5.992
		C782.332,625.263,786.105,627.932,787.776,629.916 M786.518,623.452c-1.455-11.614,12.169,0.4,12.715-12.314
		c2.038,1.522,3.832,3.131,5.413,4.804c-2.508,10.824-10.884,3.528-15.887,9.374C787.869,624.46,787.07,623.845,786.518,623.452
		 M805.629,623.188c0.396-0.316,2.162-1.969,2.73-2.585c2.191,3.271,3.696,6.714,4.594,10.228
		c-5.617,5.354-13.634-2.975-18.98,2.992c-0.532-1.89-1.592-4.003-2.656-5.49C795.107,624.02,800.507,627.389,805.629,623.188
		 M813.837,642.937c-7.086,5.275-12.386-4.186-19.541,0.748c0.336-1.459,0.433-2.256,0.475-4.294
		c4.113-7.962,12.444,0.801,18.965-4.467C814.074,637.598,814.084,640.28,813.837,642.937 M770.618,595.14
		c-0.276-0.054-0.966-10.516-1.563-14.207l47.9,1.436c3.402,17.774,7.558,40.896,8.843,50.876l-8.205-1.195
		C813.632,615.953,804.646,602.721,770.618,595.14 M870.735,647.963c-1.982,8.084-21.607,27.706-30.3,27.769
		c-8.363,0-13.981-12.858-7.301-18.362c-5.006-1.238-12.195-2.044-16.697-3.092c1.707-5.29,2.164-12.144,1.742-17.883l12.255,1.789
		c0.536-5.837-9.896-59.773-9.896-59.773l-56.238-1.883c0,0,5.229,44.377,7.102,55.98c4.815,0.084,14.368,1.376,17.844,1.868
		c2.071,5.406-0.596,13.216-3.7,17.119l-14.257-2.18c0.825,37.843-53.095-22.244-17.565-16.696
		c-1.675-12.488-6.832-51.687-6.832-51.687l22.164-21.617l51.726,1.642c-1.547-36.565,54.666,19.284,18.104,17.401
		c1.254,17.387,6.59,41.388,10.283,61.324C857.17,632.124,872.696,635.319,870.735,647.963"/>
	<path fill="#4F5858" d="M537.78,718.889c-8.615-2.145-16.996-5.288-24.917-9.337c-4.342-0.379-10.941-1.211-15.295-1.842
		c0.025-0.012,0.057-0.027,0.082-0.039c-1.423-0.228-4.588-0.72-5.161-0.82l0.003,0.005c-1.045-0.193-4.618-0.84-5.659-1.045
		c1.325,1.095,2.733,2.1,4.18,3.057c0,0,1.708,1.181,2.584,1.612c4.832,2.854,10.107,5.17,15.296,7.423
		c0.473,0.205,0.943,0.41,1.411,0.615c8.547,3.722,19.862,8.016,31.606,8.173c10.548,0.141,18.337-0.941,25.251-3.513
		c0.769-0.284,1.526-0.591,2.282-0.895c-1.124,0.035-2.25,0.064-3.375,0.064C556.511,722.348,547.029,721.188,537.78,718.889"/>
	<path fill="#4F5858" d="M564.704,711.686c-7.924,0-15.284-1.363-20.51-2.33l-0.559-0.104c-4.296,0.699-9.301,1.053-14.976,1.053
		c-3.479,0-7.215-0.133-11.186-0.397c6.662,3.101,13.61,5.569,20.723,7.341c11.63,2.893,23.631,3.938,35.686,3.133
		c5.851-2.688,11.326-5.911,16.334-9.637c2.464-1.833,4.84-3.708,6.854-5.935c-8.415,3.479-17.244,5.702-26.316,6.593
		C568.719,711.599,566.694,711.686,564.704,711.686"/>
	<path fill="#4F5858" d="M595.189,687.403c-0.353,0.265-1.655,1.229-3.533,2.518c-2.217,1.517-4.729,3.236-7.399,4.573
		c-0.132,0.064-0.268,0.132-0.398,0.2c2.718-0.887,5.394-1.895,8.005-3.039c1.834-0.803,3.643-1.682,5.421-2.617
		c2.052-1.076,4.062-2.228,6.02-3.456c-0.015-0.324-0.022-0.655-0.05-0.963h-0.002c-0.114-1.229-0.358-2.262-0.705-3.097
		c-0.076-0.183-0.15-0.365-0.236-0.528c-0.099,0.086-0.198,0.188-0.297,0.276l-0.862,0.809c-0.407,0.382-0.808,0.745-1.226,1.146
		C598.445,684.644,596.91,686.113,595.189,687.403"/>
	<path fill="#4F5858" d="M521.451,683.322c-0.557-0.193-1.095-0.392-1.611-0.591c-0.019,0.311-0.045,0.75-0.099,1.277
		c-0.23,2.251-0.765,5.029-1.574,6.979c-0.155,0.375-0.339,0.764-0.528,1.144c-0.418,1.082-0.941,2.11-1.546,3.091
		c0.807,0.242,1.613,0.482,2.42,0.722c0.714,0.213,1.431,0.426,2.144,0.636c-0.21-3.867,0.863-8.46,2.709-12.641
		C522.745,683.752,522.106,683.546,521.451,683.322"/>
	<path fill="#4F5858" d="M494.186,672.099c-0.013-0.099-3.918,0.408-5.719,0.868c-3.383,0.864-6.543,2.76-7.398,3.286
		c0.462,0.859,1.045,1.796,1.773,2.76c1.527,2.017,3.178,3.451,4.534,4.439c0.135-0.721,0.395-1.803,0.923-3.038
		c0.418-0.979,1.579-3.072,3.114-5.09c0.22-0.287,0.445-0.581,0.675-0.87c0.318-0.452,0.581-0.801,0.729-0.972
		c0.446-0.507,0.897-0.953,1.343-1.351c-0.002,0-0.002,0-0.002,0c0.008-0.005,0.012-0.016,0.02-0.021
		C494.181,672.109,494.186,672.104,494.186,672.099"/>
	<path fill="#4F5858" d="M594.89,676.937c-1.285,0.053-2.243,0.171-3.231,0.4c-0.473,0.108-0.86,0.22-1.135,0.307
		c0.005,0.013,0.013,0.022,0.018,0.035c0.847,0.85,1.692,3.038,1.779,3.231c0.041,0.091,0.827,1.888,1.069,3.95
		c1.302-0.884,2.367-1.694,3.173-2.337c1.039-0.833,1.643-1.361,3.417-2.907c0.736-0.641,0.925-0.87,1.314-1.196
		c-0.823-0.686-1.463-1.065-2.856-1.313C597.464,676.935,596.392,676.878,594.89,676.937"/>
	<path fill="#4F5858" d="M460.705,613.65c0-0.057,0.188-5.802,1.845-6.681c0.383-0.205,0.808-0.174,1.193,0.091
		c0.568,0.388,1.28,1.557,1.25,2.267c-0.015,0.351-0.04,0.769-0.069,1.247c-0.125,2.036-0.318,5.112-0.055,9.14
		c1.024,15.691,5.461,33.183,12.495,49.255c0.126,0.294,0.228,0.521,0.289,0.707c0.66,1.158,1.497,2.863,1.933,3.774
		c0.428-0.311,1-0.714,1.381-0.931c0.528-0.302,1.888-0.901,2.65-1.233c-5.192-11.654-7.86-31.762-8.551-40.891
		c-1.262-16.611-0.475-17.39-0.099-17.76c0.686-0.681,1.267-0.657,1.634-0.51c1.428,0.556,1.832,3.943,2.001,8.863
		c0.341,10.154,0.894,17.077,1.846,23.141c1.195,7.635,6.128,22.904,7.106,25.887c4.341-1.158,6.268-1.09,7.448-1.038
		c0.082,0.002,0.162,0.005,0.237,0.008l-0.141-0.638c-2.191-9.942-6.275-28.449-5.179-38.168c0.055-0.502,0.097-1.033,0.137-1.547
		c0.153-1.964,0.262-3.388,1.119-3.704c0.35-0.144,0.774-0.055,1.14,0.229c0.755,0.581,1.449,2.15,1.133,4.809
		c-0.863,7.27,3.227,28.394,5.789,38.334c0.228-0.092,0.438-0.19,0.838-0.442c0.666-0.425,2.926-2.004,3.991-4.521
		c0.354-0.833,0.356-1.226,0.362-2.533c0.004-0.405,0.009-0.898,0.021-1.497c-0.115-1.413-0.109-2.846,0.022-4.446
		c0.023-3.006,2.283-6.444,3.43-7.526c0.395-0.373,0.929-0.776,1.371-1.048c-1.526-5.806-3.057-12.51-3.259-19.052
		c-1.688,1.641-4.203,3.987-4.943,4.165c-1.296,0.307-2.471-0.516-3.244-1.164c-2.693-2.257-4.825-5.128-6.203-8.341
		c-0.802,0.573-1.818,0.896-2.89,0.907c-1.392-0.035-2.686-0.504-3.565-1.421c-0.853-0.888-1.3-2.026-1.655-3.024
		c-0.596-1.676-0.983-3.42-1.358-5.106c-0.298-1.345-0.605-2.73-1.015-4.058c-0.291,0.146-0.651,0.336-0.97,0.507
		c-2.269,1.205-3.108,1.589-3.661,1.369c-0.741-0.284-1.258-1.518-1.766-2.861l-0.138-0.363c-0.477-1.16-0.932-3.273-1.371-5.317
		c-0.207-0.968-0.405-1.9-0.587-2.609c-5.228,5.033-9.154,6.563-11.557,6.952c-0.058,0.008-5.613,0.818-6.348-0.241
		c-0.157-0.228-0.163-0.512-0.018-0.759c0.759-1.274,1.222-2.202,1.507-2.86c-1.787,1.402-4.801,2.897-9.819,1.328
		c-0.744-0.232-1.274-0.474-1.615-0.743c-0.685,0.613-1.921,1.623-2.95,1.937c-2.809,0.867-4.573,0.791-5.399-0.229
		c-0.503-0.617-0.521-1.443-0.368-2.201l-2.448,1.932c1.143,9.196,2.845,18.343,5.061,27.194c2.451,9.771,4.871,16.649,6.096,19.877
		c1.443,3.808,3.415,9.022,6.931,15.47c2.154,3.95,4.582,7.802,7.223,11.457c0.928-1.831,2.831-5.619,3.333-6.619
		c-1.377-2.837-13.644-28.824-14.515-56.058c-0.187-2.928-0.43-9.858,1.369-10.632c0.119-0.05,0.263-0.089,0.428-0.089
		c0.319,0,0.719,0.146,1.166,0.613l0.107,0.16c0.428,0.959,0.435,1.54,0.449,2.945c0.021,2.421,0.068,7.462,2.216,21.824
		c1.578,10.565,5.216,22.654,11.442,38.038c0.41,1.076,1.786,4.565,3.303,6.908c0.37,0.567,2.158,3.273,3.838,4.772
		c1.213-1.937,2.463-3.757,4.042-5.121C472.63,669.285,461.302,645.79,460.705,613.65"/>
	<path fill="#4F5858" d="M644.004,603.185c0.037,0.47-0.045,0.944-0.339,1.352c-0.749,1.037-2.521,1.242-5.419,0.63
		c-1.013-0.213-2.668-1.23-3.693-1.912c-0.109,0.278-0.299,0.612-0.647,0.951c-0.988,0.961-3.958,1.374-7.031,0.358
		c-1.098-0.36-2.128-0.875-3.091-1.542c0.355,0.709,0.864,1.641,1.583,2.849c0.146,0.247,0.138,0.531-0.02,0.759
		c-0.736,1.06-6.288,0.249-6.347,0.241c-5.243-0.847-9.617-4.941-11.717-6.908c-0.134-0.125-0.271-0.252-0.398-0.369
		c-0.178,2.26-0.763,6.005-1.376,8.192c-0.01,0.026-0.82,2.859-1.927,3.286c-0.544,0.207-1.392-0.163-3.66-1.371
		c-0.318-0.171-0.682-0.361-0.971-0.507c-0.412,1.329-0.719,2.718-1.018,4.064c-0.375,1.683-0.764,3.427-1.354,5.1
		c-0.359,0.998-0.809,2.14-1.658,3.026c-0.87,0.904-2.15,1.419-3.521,1.419h-0.042c-1.071-0.008-2.085-0.331-2.891-0.907
		c-1.378,3.213-3.509,6.085-6.202,8.344c-0.77,0.646-1.949,1.476-3.246,1.161c-0.736-0.181-3.239-2.513-4.927-4.15
		c-0.022,2.379-0.096,4.313-0.428,6.164c-1.089,6.13-2.229,9.819-3.125,12.352c0.512,0.321,0.819,0.586,0.835,0.601
		c0.517,0.439,0.889,0.882,1.063,1.106c0.38,0.479,1.5,2.132,2.008,3.378c0.781,1.897,1.189,3.909,1.325,6.516
		c0.071,1.44,0.079,2.437,0.082,3.157c0.008,1.31,0.009,1.7,0.363,2.53c0.578,1.364,1.455,2.311,2.327,3.066l0.78-2.715
		c3.141-10.901,7.882-27.369,7.319-33.453c-0.253-2.712,0.441-4.266,1.176-4.817c0.354-0.265,0.753-0.339,1.102-0.205
		c0.697,0.259,1.179,1.263,1.256,5.302c0.133,6.76-4.692,24.073-7.579,34.416c-0.363,1.308-0.698,2.513-0.993,3.583
		c0.297,0.141,0.712,0.348,1.227,0.639c1.095,0.615,3.135,1.763,5.064,3.961c0.423,0.482,0.885,1.154,1.293,1.747l0.014,0.022
		l0.402-0.05c3.42-6.497,9.141-25.965,10.045-30.441c1.184-5.861,1.497-12.96,1.843-23.119c0.168-4.92,0.573-8.311,1.999-8.865
		c0.363-0.148,0.943-0.169,1.63,0.512c0.381,0.372,1.167,1.146-0.096,17.762l-0.126,1.784c-0.563,8.035-1.199,17.134-11.234,42.024
		c0.57-0.017,1.079-0.029,1.568-0.029c2.469,0,4.386,0.201,5.823,0.606c6.309-17.896,13.286-41.594,14.168-55.066
		c0.26-4.03,0.069-7.109-0.054-9.146c-0.032-0.479-0.055-0.894-0.072-1.242c-0.029-0.712,0.68-1.881,1.248-2.269
		c0.391-0.262,0.813-0.294,1.193-0.096c1.65,0.877,1.849,6.629,1.849,6.688c-0.4,21.338-7.635,41.857-12.921,56.838
		c-0.782,2.223-1.52,4.311-2.179,6.248c0.284,0.309,0.463,0.547,0.463,0.547c0.147,0.196,0.291,0.422,0.432,0.671
		c1.801-0.892,4.585-2.604,6.196-3.96c2.17-1.826,3.292-3.845,4.025-5.401c7.724-16.366,11.156-37.22,11.189-37.427
		c1.169-7.216,2.133-18.207,2.192-20.235c0.018-0.639,0.022-1.152,0.026-1.58c0.013-1.407,0.018-1.991,0.447-2.95l0.106-0.157
		c0.678-0.707,1.243-0.675,1.594-0.521c1.799,0.771,1.555,7.704,1.364,10.649c-0.867,27.25-13.162,53.27-14.511,56.05
		c0.229,0.427,0.714,1.002,1.184,1.561c0.304,0.363,0.62,0.738,0.906,1.114c0.544,0.717,1.142,1.475,1.512,1.935
		c1.94-1.77,6.138-8.04,6.96-9.471c3.23-5.605,5.019-10.377,6.457-14.209l0.47-1.25c1.23-3.252,3.658-10.163,6.095-19.877
		c1.272-5.078,3.623-15.405,5.189-27.926c-0.591-0.147-1.16-0.353-1.7-0.617C644.582,603.535,644.288,603.367,644.004,603.185"/>
	<path fill="#4F5858" d="M482.012,693.163c1.673,0.669,5.725,1.773,7.466,2.235c3.666,0.917,7.384,1.633,11.119,2.229
		c0.268,0.043,0.534,0.094,0.804,0.134c0.709,0.111,1.42,0.203,2.131,0.304c0.71,0.104,1.42,0.213,2.131,0.307
		c1.293,0.168,2.585,0.321,3.879,0.467c4.405,0.491,8.829,0.848,13.259,1.08c-2.688-0.645-5.449-1.369-8.517-2.177
		c-0.037,0.047-0.301-0.027-0.729-0.193c-0.66-0.175-1.365-0.368-2.095-0.567c-0.092-0.027-0.188-0.055-0.281-0.079
		c-0.386-0.109-0.772-0.218-1.177-0.334c-0.082-0.022-0.167-0.048-0.247-0.072c-0.696-0.199-1.419-0.414-2.167-0.645
		c-0.31-0.094-0.615-0.186-0.933-0.283c-0.285-0.09-0.577-0.184-0.866-0.275c-0.359-0.116-0.719-0.231-1.087-0.351
		c-0.283-0.094-0.572-0.19-0.865-0.286c-0.402-0.137-0.813-0.274-1.228-0.418c-0.275-0.094-0.55-0.189-0.83-0.289
		c-0.472-0.165-0.956-0.338-1.442-0.517c-0.242-0.086-0.482-0.173-0.729-0.264c-0.739-0.272-1.492-0.557-2.266-0.855
		c-0.118-0.046-0.245-0.099-0.368-0.148c-0.068-0.027-0.135-0.054-0.202-0.081c-0.006,0.004-0.013,0.01-0.019,0.015l-0.311-0.123
		c0.005-0.005,0.013-0.013,0.02-0.018c-0.089-0.035-0.178-0.069-0.264-0.104c-0.243-0.097-0.482-0.19-0.729-0.295
		c-1.989-0.822-4.101-1.794-6.241-3.024c-1.016-0.498-1.788-1.02-2.464-1.543c-0.795-0.532-1.588-1.095-2.373-1.715
		c-0.475-0.379-0.915-0.754-1.338-1.127c-0.49-0.435-0.946-0.87-1.371-1.307c-1.276-1.315-2.272-2.662-3.049-4.122
		c-0.383,1.067-0.769,2.145-1.124,3.231c-0.724,2.219-1.312,4.48-1.422,6.811c-0.016,0.328-0.169,0.924,0.021,1.188
		C476.683,690.746,480.801,692.681,482.012,693.163"/>
	<path fill="#4F5858" d="M555.805,703.757c0.391-0.189,0.768-0.414,1.156-0.615c-3.313,0.294-10.237,0.583-20.271-0.666
		c-1.4-0.177-2.719-0.371-4.004-0.574c-0.113-0.003-0.235-0.007-0.348-0.007c-6.882-0.047-14.208-0.47-21.293-1.2
		c-1.594-0.106-2.134-0.221-3.562-0.382c-0.748-0.091-1.495-0.185-2.241-0.281c-3.456-0.457-6.901-1.005-10.322-1.683
		c-1.734-0.343-3.502-0.711-5.263-1.122c0.002,0.016,0.002,0.027,0.005,0.04c-2.55-0.67-7.375-2.078-9.723-3.147
		c-0.707-0.322-2.256-1.055-3.808-2.059c0.12,0.734,0.323,1.46,0.625,2.142c0.037,0.08,0.081,0.188,0.148,0.334
		c0.565,1.233,1.297,2.375,1.655,2.924c0.685,1.045,1.104,1.687,1.814,2.52c0.146,0.171,0.763,0.887,1.693,1.747
		c0.86,0.795,1.665,1.41,2.318,1.868c1.475,0.311,4.886,0.983,6.654,1.321l-0.016-0.024c1.86,0.339,6.937,1.132,9.254,1.495
		c0.016-0.008,0.029-0.014,0.044-0.021c3.544,0.473,9.327,1.213,12.857,1.52c12.358,1.069,22.563,0.961,30.334-0.323
		c3.341-0.551,5.937-1.272,8.035-2.014C553.272,704.941,554.663,704.318,555.805,703.757"/>
	<path fill="#4F5858" d="M592.557,693.202c-5.557,2.432-11.381,4.292-17.354,5.56c-0.026,0.009-0.052,0.02-0.079,0.032
		c-0.924,0.385-1.865,0.75-2.812,1.102l0.05,0.035l-0.391,0.088c-1.176,0.428-2.369,0.804-3.573,1.147
		c-0.651,0.185-1.299,0.377-1.959,0.53c-1.97,0.46-3.727,0.764-5.259,0.977c-1.499,0.936-3.033,1.823-4.611,2.6
		c-0.299,0.146-0.621,0.298-0.954,0.454c-1.854,0.859-4.24,1.811-7.499,2.619c6.194,1.076,14.271,2.174,22.47,1.371
		c9.915-0.971,19.533-3.569,28.623-7.689c1.003-1.514,1.861-3.175,2.469-5.087c0.773-2.441,1.494-6.056,1.628-9.369
		c-1.989,1.218-4.032,2.354-6.112,3.42C595.666,691.771,594.123,692.516,592.557,693.202"/>
	<path fill="#4F5858" d="M559.4,699.975c1.896-0.221,3.924-0.531,6.362-1.1c0.504-0.116,1.006-0.257,1.507-0.397
		c-1.337-1.295-2.587-3.121-4.697-6.805c-1.099-1.922-1.633-4.252-1.84-6.606c-0.408,0.146-0.972,0.397-1.841,0.528
		c-0.183,0.029-0.458,0.069-0.739,0.113c0.801,1.933,1.392,4.035,1.644,6.424c0.252,2.424-0.025,4.722-0.294,6.943
		C559.464,699.372,559.432,699.674,559.4,699.975"/>
	<path fill="#4F5858" d="M472.732,594.905c0.438-0.549,0.462-0.678,0.643-1.658c0.114-0.613,0.282-1.5,0.635-2.931
		c2.407-9.686,7.313-15.378,9.463-17.501c-4.887-1.099-6.585-4.837-6.534-8.504c-0.344,0.299-0.689,0.605-0.899,0.791
		c-4.273,3.827-8.123,15.236-9.723,21.375l-0.005,0.017c-0.87,3.921-2.538,7.271-4.651,11.514c-0.826,1.661-1.754,3.523-2.729,5.614
		C461.003,603.379,467.616,601.321,472.732,594.905"/>
	<path fill="#4F5858" d="M485.753,610.865l0.247,0.858c1.203,4.139,1.203,4.141,1.222,4.26c0.298,1.727,1.099,2.542,1.749,2.723
		c0.254-0.058,1.604-1.221,2.855-3.685l0.01-0.017c1.173-2.115,9.757-19.04,11.73-23.608c-1.035-0.324-2.032-0.743-3.3-1.379
		c-1.499-0.751-2.611-1.527-3.793-2.347c-0.226-0.156-0.452-0.314-0.685-0.472c-1.146,2.339-2.369,4.674-3.649,6.954
		c-2.259,4.035-4.742,8.001-7.38,11.788c-0.059,0.092-0.144,0.208-0.245,0.342l1.193,4.425l-0.504,0.312L485.753,610.865z"/>
	<path fill="#4F5858" d="M499.891,627.312c0.838-0.17,3.931-2.95,5.283-4.751c0.725-4.673,2.785-13.98,4.988-19.497
		c1.141-2.858,2.613-5.729,3.753-7.811l-0.173-0.047c-1.122-0.323-2.396-0.689-3.51-1.144c-0.674-0.272-1.188-0.438-1.646-0.586
		c-0.547-0.175-1.037-0.336-1.617-0.609c-1.136,2.398-4.827,10.562-5.925,13.216c-0.418,1.015-1.86,3.958-3.257,6.799
		c-1.284,2.619-2.608,5.32-3.069,6.39l0.013,0.04C495.676,622.427,497.413,625.12,499.891,627.312"/>
	<path fill="#4F5858" d="M478.054,606.928c0.387-0.2,1.32-1.028,1.695-1.359c0.212-0.188,0.388-0.346,0.504-0.435
		c1.033-0.814,1.915-2.036,2.766-3.222c0.208-0.284,0.412-0.566,0.614-0.838c2.411-3.239,4.381-6.834,6.288-10.31l1.046-1.884
		c0.21-0.366,0.427-0.731,0.591-1.111c0.059-0.128,0.318-0.591,1.844-3.115c-1.817-2.022-5.452-7.853-6.497-10.67
		c-0.99,0.317-1.994,1.737-2.621,2.627l-0.252,0.353c-1.157,1.597-2.309,3.408-3.52,5.533c-1.799,3.17-2.749,6.666-3.378,9.356
		l-0.151,0.657c-0.64,2.723-1.024,4.365-0.586,7.215C477.053,603.938,477.694,606.332,478.054,606.928"/>
	<path fill="#4F5858" d="M451.531,601.38c1.789-0.432,5.171-1.946,7.733-7.243l0.162-0.334c0.734-1.51,1.738-3.573,3.255-7.741
		c0.783-2.159,1.407-4.042,1.987-5.789c1.218-3.672,2.269-6.842,4.192-10.686c0.477-0.956,1.088-2.115,1.999-3.479
		c1.324-1.999,2.891-3.84,4.661-5.493c-4.075-0.968-5.775-3.979-6.287-5.734c-0.307,0.323-0.588,0.66-0.771,0.888
		c-2.182,2.692-9.483,12.271-11.814,22.48c-0.297,1.527-0.905,4.226-1.441,6.609c-0.428,1.891-0.811,3.59-0.967,4.383
		c-0.716,3.675-1.554,6.924-5.161,12.253C449.517,601.594,450.375,601.657,451.531,601.38"/>
	<path fill="#4F5858" d="M456.244,567.808c3.337-7.588,10.302-16.245,11.818-18.088c-0.442-0.554-1.28-1.606-1.663-2.172
		c-0.512-0.756-0.722-1.723-0.89-2.498c-0.042-0.183-0.089-0.4-0.135-0.579c-1.814,1.558-8.684,11.216-12.451,18.776
		c-4.186,8.396-7.202,21.196-8.309,26.309c-0.335,1.569-1.301,5.685-1.622,6.594c-0.565,1.582-1.532,3.565-2.241,5.011
		c-0.165,0.347-0.344,0.713-0.496,1.028c5.688-1.358,9.107-5.685,10.172-12.873c0.235-1.575,2.012-9.924,2.4-11.676
		C453.458,574.289,454.641,571.45,456.244,567.808"/>
	<path fill="#4F5858" d="M606.391,593.71c0.188,0.997,0.223,1.178,0.704,1.781c5.614,7.049,12.89,8.847,14.422,8.847h0.058
		c-1.049-2.269-2.044-4.269-2.929-6.041c-2.103-4.227-3.765-7.567-4.63-11.459l-0.007-0.02c-0.443-1.697-4.482-16.745-9.81-21.511
		c-0.294-0.265-0.941-0.835-1.403-1.233c0.168,2.49-0.267,7.837-6.805,8.984c1.86,1.742,7.223,7.479,9.768,17.732
		C606.115,592.215,606.28,593.113,606.391,593.71"/>
	<path fill="#4F5858" d="M629.374,602.23c1.103,0.131,1.813-0.054,2.038-0.183c-3.748-5.461-4.603-8.737-5.326-12.445
		c-0.153-0.796-0.549-2.543-0.967-4.396c-0.538-2.377-1.146-5.077-1.442-6.616c-2.346-10.264-9.679-19.883-11.87-22.589
		c-0.254-0.318-0.704-0.848-1.148-1.267c-0.274,1.544-1.92,5.252-6.726,6.13c1.917,1.729,3.604,3.682,5.021,5.809
		c0.899,1.352,1.505,2.503,1.979,3.449c1.913,3.827,2.963,6.989,4.177,10.649c0.595,1.785,1.207,3.635,1.991,5.796
		c1.52,4.181,2.527,6.254,3.266,7.768l0.159,0.334C623.558,600.929,627.723,602.043,629.374,602.23"/>
	<path fill="#4F5858" d="M640.607,602.636c0.207,0,0.415-0.013,0.625-0.039c0.009,0,0.024,0,0.034,0
		c-0.081-0.517-0.895-2.375-3.6-6.642c-0.494-0.773-1.902-4.872-2.285-6.646c-1.104-5.121-4.131-17.945-8.332-26.373
		c-2.525-5.072-6.251-11.761-12.757-18.763c-0.239,1.536-0.526,2.577-0.856,3.105c-0.761,1.2-1.476,1.697-1.905,1.996
		c-0.094,0.066-0.218,0.15-0.279,0.21c0.991,1.191,8.468,10.304,11.961,18.247c1.597,3.622,2.771,6.446,3.402,9.786
		c0.124,0.56,0.358,1.812,0.63,3.259c0.578,3.106,1.376,7.358,1.75,8.334C632.329,597.875,636.434,602.636,640.607,602.636"/>
	<path fill="#4F5858" d="M597.373,603.32c1.218,1.559,2.65,2.94,4.252,4.109c0.152,0.11,0.293,0.204,0.425,0.209h0.008
		c0.111,0,0.178-0.113,0.291-0.385l0.027-0.069c0.464-1.055,0.694-2.244,0.917-3.395l0.082-0.425
		c0.194-0.974,0.374-2.015,0.56-3.186c0.448-2.903,0.035-4.662-0.591-7.318l-0.152-0.659c-0.633-2.713-1.592-6.236-3.41-9.43
		c-1.21-2.134-2.367-3.952-3.532-5.563l-0.255-0.354c-0.699-0.992-1.849-2.619-3.034-2.792c-0.927,2.879-4.181,8.757-6.656,10.98
		c1.882,3.118,1.919,3.222,1.935,3.274c0.158,0.357,0.381,0.743,0.598,1.116c0.097,0.168,0.195,0.336,0.289,0.504l0.754,1.373
		c1.243,2.269,2.527,4.611,3.924,6.837c0.691,1.1,1.282,1.984,1.855,2.783c0.207,0.283,0.41,0.575,0.612,0.867
		C596.621,602.305,596.988,602.829,597.373,603.32"/>
	<path fill="#4F5858" d="M591.282,618.8c0.034,0,0.062-0.005,0.089-0.013c1.418-0.397,1.697-1.022,2.251-2.53
		c0.491-1.347,0.921-2.72,1.275-4.084c0.036-0.141,0.071-0.274,0.104-0.415c0.254-1.008,0.45-2.046,0.642-3.049
		c0.037-0.18,0.074-0.333,0.122-0.501c0.105-0.403,0.328-1.245,0.162-1.463l-0.096-0.124c-0.126-0.165-0.233-0.311-0.316-0.438
		c-2.622-3.771-5.103-7.73-7.358-11.753c-1.329-2.375-2.604-4.809-3.785-7.239c-0.328,0.223-0.647,0.442-0.961,0.66
		c-1.169,0.814-2.275,1.585-3.758,2.327c-1.374,0.687-2.429,1.121-3.556,1.455c1.725,4.116,10.667,21.755,11.865,23.919
		C589.106,617.802,590.727,618.8,591.282,618.8"/>
	<path fill="#4F5858" d="M573.206,592.894c-1.505,0.724-5.185,1.875-7.496,2.595c1.156,2.09,2.715,5.099,3.91,8.092
		c2.588,6.481,4.014,12.554,4.23,18.051c1.448,1.959,5.564,6.01,6.263,5.878c4.597-4.762,5.243-6.923,5.488-7.738
		c0.013-0.037,0.02-0.072,0.033-0.104c-0.426-1.008-1.795-3.797-3.117-6.496c-1.396-2.839-2.834-5.776-3.251-6.784
		C578.125,603.625,574.172,594.89,573.206,592.894"/>
	<path fill="#4F5858" d="M641.36,573.53c-0.402-1.119-0.803-2.241-1.195-3.407c-0.064-0.183-0.163-0.428-0.287-0.726
		c-0.128-0.313-0.278-0.683-0.438-1.098c-5.988-15.806-15.307-27.03-16.579-28.286c-1.168,0.4-2.384,0.655-3.621,0.762
		c-1.186,0.094-2.372,0.059-3.541-0.115c0.468,0.637,1.124,1.509,1.905,2.544c3.822,5.07,10.219,13.557,12.035,17.644
		c2.314,5.213,4.85,11.512,8.102,25.951c1.559,6.93,5.613,12.83,9.279,13.547c0.103-0.393,0.103-1.883-0.649-7.104
		C644.987,583.671,643.141,578.514,641.36,573.53"/>
	<path fill="#4F5858" d="M539.907,563.074c-1.202-1.646-3.43-1.86-3.846-1.9c-3.647-0.349-6.349,2.779-7.23,3.8
		c-0.608,0.704-1.422,1.823-2,3.343c-0.709,1.866-0.727,3.449-0.728,4.258c-0.023,12.788,0.9,18.348,0.9,18.348
		c0.347,2.086,1.209,6.876,3,12.82c0,0,1.854,6.866,5.928,12.162c0.939,1.22,3.346,3.476,4.326,3.021
		c-2.096-4.691-3.217-8.527-3.445-9.082c-0.491-1.197-2.866-8.779-3.275-15.065c-0.626-9.663,0.865-20.82-0.146-28.767
		c0.09-0.092,0.239-0.215,0.421-0.211c1.145,0.031,1.442,3.749,1.558,6.316c0.258,5.742-0.028,10.151-0.231,12.65
		c-0.52,6.372-0.279,8.902,0.173,12.079c1.223,8.605,5.823,21.301,6.214,21.565c0.15,0.101,0.203-1.201,0.349-2.449
		c0-0.002-0.113-2.227-0.119-2.964c-0.024-6.934-0.848-17.404-0.848-17.404c-0.017-7.993-0.291-13.281-0.154-21.2
		C540.787,572.522,540.721,564.188,539.907,563.074"/>
	<path fill="#4F5858" d="M441.701,586.922c3.259-14.474,5.9-21.012,8.119-26.002c1.832-4.122,8.058-12.411,11.774-17.365
		c0.669-0.885,1.244-1.653,1.682-2.249l-6.293-0.83c-1.442,1.493-10.618,12.752-16.438,28.108c-0.156,0.407-0.305,0.771-0.427,1.082
		c-0.127,0.304-0.229,0.551-0.291,0.733c-0.396,1.167-0.799,2.286-1.196,3.407c-1.779,4.974-3.621,10.116-5.003,19.663
		c-0.626,4.37-0.723,6.07-0.688,6.718C436.426,599.241,440.205,593.563,441.701,586.922"/>
	<path fill="#4F5858" d="M556.858,692.863c-0.651-6.224-3.88-10.506-7.412-14.7c-0.689-0.821-1.224-1.529-1.681-2.231
		c-2.054-3.146-3.032-6.506-2.753-9.453c0.121-1.322,0.514-2.525,0.857-3.588c0.811-2.505,0.751-3.271,0.709-3.887l-0.017-0.242
		c-0.092-1.747-0.727-3.086-0.967-3.59c-0.346-0.727-0.733-1.368-1.161-1.899c-0.255-0.322-0.433-0.274-0.934-0.1
		c-0.195,0.066-0.405,0.141-0.638,0.186c-1.112,0.22-2.253,0.265-3.399,0.124c-0.208-0.025-0.519-0.065-0.855-0.108
		c-0.588-0.08-1.255-0.169-1.612-0.206c-0.011,0-0.022-0.003-0.035-0.003c-0.568,0-1.549,1.352-1.878,1.805
		c-0.089,0.119-0.156,0.212-0.198,0.265c-0.302,0.355-0.546,0.867-0.784,1.358c-0.105,0.228-0.212,0.444-0.318,0.641
		c-1.201,2.214-0.92,4.422-0.438,6.482c0.197,0.835,0.422,1.781,0.552,2.839c0.054,0.428,0.108,0.841,0.165,1.235
		c0.474,3.446,0.818,5.936-2.729,9.07c-5.036,4.455-7.198,10.083-7.94,20.717c3.105,0.705,6.492,1.303,10.071,1.779
		c1.612-2.036,2.64-7.441,1.561-12.188c-0.012-0.048-0.828-4.883,0.042-5.164c0.4-0.133,0.656,0.425,0.79,0.727
		c2.488,5.586,2.798,11.771,0.86,17.021l0.148,0.019c0.027,0.003,2.774,0.337,6.483,0.589c0.113,0.008,0.234,0.014,0.354,0.021
		c-1.86-5.416-1.343-11.701,1.445-17.319c0.146-0.297,0.409-0.862,0.82-0.697c0.857,0.316-0.158,5.114-0.171,5.164
		c-1.302,4.793-1.067,7.98,0.989,13.019c3.755,0.152,7.004,0.115,9.655-0.121l0.007-0.066c0.04-0.389,0.077-0.776,0.123-1.149
		C556.832,697.042,557.079,694.995,556.858,692.863 M536.545,660.601c-0.314,0.827-0.964,1.416-1.229,1.571
		c-0.047,0.027-0.098,0.04-0.147,0.04c-0.099,0-0.197-0.05-0.252-0.142c-0.08-0.136-0.036-0.312,0.104-0.391
		c0.048-0.029,0.133-0.101,0.23-0.192c0.236-0.221,0.566-0.603,0.748-1.085c0.062-0.162,0.112-0.321,0.158-0.477
		c-0.169,0.15-0.395,0.296-0.689,0.412c-0.27,0.106-0.589,0.193-0.988,0.228c-0.049,0.006-0.096,0.003-0.146-0.002
		c-0.17-0.024-0.326-0.108-0.435-0.244c-0.403-0.5-0.563-1.016-0.479-1.537c0.162-0.981,1.162-1.621,1.826-2.047
		c0.287-0.185,0.664-0.113,0.876,0.146c0.075,0.015,0.147,0.057,0.191,0.129C537.18,658.406,536.937,659.563,536.545,660.601
		 M543.366,660.667c0.186,0.489,0.512,0.87,0.751,1.09c0.097,0.089,0.181,0.158,0.23,0.188c0.138,0.082,0.183,0.257,0.101,0.393
		c-0.054,0.092-0.15,0.141-0.252,0.141c-0.05,0-0.101-0.012-0.147-0.039c-0.265-0.157-0.917-0.746-1.226-1.573
		c-0.394-1.038-0.639-2.194,0.228-3.591c0.044-0.072,0.118-0.113,0.191-0.128c0.213-0.26,0.589-0.331,0.878-0.146
		c0.662,0.425,1.662,1.065,1.823,2.047c0.086,0.521-0.074,1.037-0.477,1.536c-0.109,0.137-0.265,0.22-0.435,0.245
		c-0.048,0.004-0.097,0.007-0.146,0.002c-0.397-0.034-0.719-0.118-0.988-0.228c-0.294-0.116-0.52-0.262-0.689-0.412
		C543.256,660.346,543.307,660.505,543.366,660.667"/>
	<path fill="#4F5858" d="M525.604,555.271c0,0,1.111,0.87,2.133,0.902c0.136,0.002,0.265-0.017,0.265-0.017
		c0.094-0.013,0.178-0.05,0.267-0.072c-2.41-1.662-4.313-4.554-4.15-7.536c0.099-1.826,1.444-3.125,2.302-4.625
		c0.4-0.696,0.706-1.431,0.714-2.29c0.004-0.5-0.402-0.762-0.795-0.762c-0.365,0-0.72,0.225-0.725,0.69
		c-0.006,0.682-0.262,1.284-0.607,1.851c-0.354,0.583-0.806,1.128-1.182,1.679c-0.896,1.317-1.334,2.751-1.205,4.345
		c0.02,0.26,0.069,0.514,0.111,0.771c0.218,1.329,0.688,2.311,1.027,2.898C524.468,554.332,525.281,555.017,525.604,555.271"/>
	<path fill="#4F5858" d="M519.317,645.691c0.885,0.312,1.691,0.751,2.358,1.327c1.328-1.918,6.126-8.875,6.926-10.422
		C526.097,638.528,521.63,643.458,519.317,645.691"/>
	<path fill="#4F5858" d="M523.496,650.119c1.083-0.711,7.438-10.844,7.438-10.844c-1.967,1.3-6.759,5.989-8.754,8.242
		c0.291,0.321,0.545,0.672,0.752,1.061C523.203,649.079,523.376,649.607,523.496,650.119"/>
	<path fill="#4F5858" d="M541.721,650.047l0.17-0.002c0.935-0.086,1.527-0.234,1.802-0.346c-0.282-1.636-2.08-9.098-2.913-11.267
		c-0.696,2.13-1.865,9.433-2.049,11.412c0.432,0.089,1.518,0.2,2.484,0.2L541.721,650.047z"/>
	<path fill="#4F5858" d="M551.844,638.78c0,0,4.183,8.07,5.93,10.672c0.2-0.502,0.41-0.941,0.598-1.292
		c0.188-0.349,0.415-0.645,0.647-0.934c-0.321-0.562-0.739-1.291-1.211-2.115C555.766,642.677,553.16,639.816,551.844,638.78"/>
	<path fill="#4F5858" d="M559.957,646.295c0.634-0.502,1.354-0.863,2.143-1.107c-2.229-2.648-5.639-6.999-7.709-8.887
		c0.563,1.354,3.649,6.779,5.305,9.665C559.784,646.077,559.871,646.188,559.957,646.295"/>
	<path fill="#4F5858" d="M564.684,592.859l1.463-0.613c0,0,5.211-1.855,6.909-2.567c2.423-1.016,7.002-3.278,9.216-5.03
		c5.885-4.657,7.674-11.247,9.411-13.329c6.038-0.384,8.499-3.341,8.885-6.383c0.229-1.826-1.698-6.004-1.153-6.156
		c0,0,6.689-1.481,8.189-3.762c2.217-3.367,0.969-7.688,0.969-7.688c0.087,0,5.896-2.177,2.493-10.66
		c0.688,1.714,13.732,0.326,13.429-0.54c-0.847-2.411-4.289-5.416-7.775-7.553c-4.391-2.69-9.434-3.218-12.648-2.844
		c-3.54,0.41-7.065,0.783-10.406,2.107c-4.914,1.946-7.504,5.529-8.71,10.553c-1.344,5.597-1.354,11.413-1.986,17.129
		c-0.801,7.228-2.881,14.124-8.526,19.09c-4.557,4.006-10.582,7.192-16.626,8.25C560.178,585.365,564.684,592.859,564.684,592.859"
		/>
	<path fill="#4F5858" d="M469.026,536.67c-3.4,8.483,2.406,10.66,2.493,10.66c0,0-1.249,4.319,0.969,7.688
		c1.5,2.28,8.193,3.762,8.193,3.762c0.542,0.152-1.386,4.33-1.154,6.156c0.385,3.045,2.847,5.999,8.883,6.383
		c1.736,2.082,3.525,8.672,9.412,13.329c2.215,1.752,6.791,4.015,9.214,5.03c1.7,0.712,6.911,2.567,6.911,2.567l1.463,0.613
		c0,0,4.506-7.494,6.869-9.997c-6.231-1.092-16.744-6.113-21.315-13.725c-4.583-8.779-5.091-19.657-5.112-20.118
		c-0.457-7.627-1.653-13.759-1.897-14.377c-3.127-7.99-14.805-8.546-17.934-8.909c-3.214-0.374-8.257,0.153-12.646,2.844
		c-3.485,2.137-6.926,5.142-7.773,7.553C455.294,536.997,468.339,538.384,469.026,536.67"/>
	<path fill="#4F5858" d="M588.103,677.912c-0.025-0.041-1.048-1.859-2.28-3.191c-1.802-1.939-4.151-3.209-6.036-4.229
		c-0.512-0.277-0.991-0.537-1.401-0.781c-0.896-0.526-2.007-1.181-2.992-2.353c-1.932-2.298-2.135-5.121-2.3-7.393
		c-0.045-0.635-0.069-1.237-0.095-1.825c-0.059-1.436-0.115-2.79-0.467-4.323c-0.428-1.874-1.169-3.406-2.193-4.552
		c-1.285-1.438-2.982-2.168-5.044-2.168c-0.079,0-0.157,0.008-0.239,0.019l-0.126,0.015c-0.388,0.029-0.769,0.104-1.134,0.218
		c-0.67,0.212-1.33,0.55-1.959,1.005c-0.137,0.099-0.27,0.195-0.398,0.3c-0.102,0.083-0.192,0.17-0.287,0.259l-0.066,0.062
		c-0.262,0.242-0.475,0.467-0.649,0.677c-0.148,0.193-0.242,0.337-0.334,0.475c-0.242,0.366-0.409,0.697-0.517,1.005
		c-0.414,1.197-0.187,2.321,0.072,3.618l0.055,0.265c0.437,2.216,2.187,4.981,2.364,5.205c0.919,1.191,1.865,2.412,2.461,3.85
		c0.845,2.026,1.04,4.171,0.561,6.205c-0.538,2.274-0.924,4.743-1.265,6.922c-0.143,0.907-0.274,1.76-0.41,2.553
		c-0.384,2.261-0.17,4.941,0.612,7.756c0.161,0.568,0.613,2.046,1.389,3.501c1.319,2.474,2.903,4.626,4.709,6.404
		c1.622-0.554,3.37-1.245,5.337-2.104c2.21-0.969,4.3-1.982,6.244-2.943c-0.465-0.432-1.022-0.966-1.608-1.574l-0.156-0.16
		c-1.689-1.746-3.604-3.729-5.243-6.859c-2.547-4.87-1.864-7.535-1.781-7.821c0.016-0.045,0.418-1.392,0.418-1.392l0.383-1.275
		l0.257,1.943c0.032,0.244,0.108,0.782,0.245,1.493c0.687,2.847,2.597,6.027,3.416,7.018c2.643,3.183,4.816,5.374,7.035,7.082
		c1.033-0.588,2.135-1.273,3.362-2.086c-0.727-3.215-1.859-6.807-4.63-9.327c-0.242-0.22-1.127-1.022-1.129-1.022l-0.445-0.396
		l0.524-0.299c0.298-0.169,1.042-0.218,2.678,1.312c1.839,1.713,3.895,5.774,4.72,8.574l0.349-0.24
		c0.496-0.336,0.926-0.64,1.326-0.921c-0.294-1.451-0.642-2.817-1.013-3.964C589.74,680.349,588.119,677.936,588.103,677.912
		 M569.523,654.813c-0.088,0.24-0.342,0.371-0.584,0.313c-0.017-0.007-0.034-0.012-0.05-0.017c-0.258-0.09-0.395-0.371-0.301-0.625
		c0.03-0.082,0.064-0.218,0.097-0.386c0.105-0.554,0.175-1.489-0.119-2.271c-0.069-0.188-0.144-0.363-0.222-0.531
		c-0.039,0.385-0.205,0.857-0.611,1.392c-0.007,0.012-0.012,0.021-0.021,0.034c-0.029,0.039-0.063,0.072-0.101,0.104
		c-0.129,0.106-0.297,0.163-0.468,0.151c-0.638-0.042-1.127-0.272-1.453-0.681c-0.617-0.77-0.422-1.919-0.293-2.681
		c0.014-0.091,0.051-0.175,0.099-0.249l-0.016-0.021c-0.116-0.008-0.223-0.023-0.348-0.025c-0.275-0.01-0.495-0.223-0.495-0.491
		c0.003-0.271,0.223-0.487,0.5-0.487c2.802,0.013,3.777,1.596,4.361,3.148C569.97,652.746,569.72,654.272,569.523,654.813"/>
	<path fill="#4F5858" d="M522.191,441.239l-17.88,27.971l28.313-17.662l7.378,32.264l7.378-32.264l28.315,17.662l-17.882-27.971
		l32.664-7.288l-32.664-7.289l17.882-27.966l-28.315,17.662l-7.378-32.266l-7.378,32.266l-28.313-17.662l17.88,27.966l-32.665,7.289
		L522.191,441.239z M517.49,411.712l17.854,11.141l4.657-20.355l4.657,20.355l17.859-11.141l-11.279,17.644l20.601,4.596
		l-20.601,4.6l11.279,17.64l-17.859-11.14l-4.657,20.356l-4.657-20.356l-17.854,11.14l11.276-17.64l-20.604-4.6l20.604-4.596
		L517.49,411.712z"/>
	<path fill="#4F5858" d="M491.848,218.815c-3.28,0-5.949,2.637-5.949,5.876c0,3.241,2.669,5.878,5.949,5.878
		c3.279,0,5.949-2.637,5.949-5.878C497.797,221.452,495.127,218.815,491.848,218.815"/>
	<path fill="#4F5858" d="M588.406,230.568c3.279,0,5.948-2.637,5.948-5.877c0-3.239-2.669-5.876-5.948-5.876
		c-3.28,0-5.949,2.637-5.949,5.876C582.456,227.932,585.125,230.568,588.406,230.568"/>
	<path fill="#4F5858" d="M540.733,230.568c3.281,0,5.949-2.637,5.949-5.877c0-3.239-2.668-5.876-5.949-5.876
		c-3.279,0-5.948,2.637-5.948,5.876C534.784,227.932,537.453,230.568,540.733,230.568"/>
	<path fill="#4F5858" d="M486.972,278.673c-3.28,0-5.948,2.637-5.948,5.876c0,3.241,2.668,5.878,5.948,5.878
		s5.949-2.637,5.949-5.878C492.921,281.31,490.252,278.673,486.972,278.673"/>
	<path fill="#4F5858" d="M592.928,278.673c-3.279,0-5.949,2.637-5.949,5.876c0,3.241,2.67,5.878,5.949,5.878
		c3.281,0,5.949-2.637,5.949-5.878C598.877,281.31,596.209,278.673,592.928,278.673"/>
	<path fill="#4F5858" d="M540.557,278.673c-3.281,0-5.947,2.637-5.947,5.876c0,3.241,2.666,5.878,5.947,5.878
		c3.279,0,5.949-2.637,5.949-5.878C546.506,281.31,543.836,278.673,540.557,278.673"/>
	<polygon fill="#4F5858" points="337.553,439.777 340.48,432.313 341.381,430.016 339.054,429.124 334.885,427.53 332.559,426.641 
		331.656,428.94 328.731,436.403 319.013,432.687 316.685,431.797 315.784,434.095 313.652,439.535 312.752,441.834 
		315.077,442.725 324.797,446.44 321.551,454.724 320.65,457.022 322.978,457.911 327.145,459.507 329.471,460.396 330.373,458.099 
		333.618,449.815 341.514,452.835 343.84,453.726 344.74,451.427 346.873,445.986 347.776,443.687 345.448,442.797 	"/>
	<polygon fill="#4F5858" points="741.696,450.648 742.321,453.036 744.738,452.418 752.933,450.322 754.961,458.073 
		755.586,460.459 758.002,459.841 762.328,458.735 764.745,458.118 764.555,457.389 764.615,457.374 763.918,454.96 
		762.092,447.983 772.18,445.403 774.597,444.786 773.971,442.399 772.491,436.752 771.866,434.364 769.451,434.981 
		759.362,437.562 757.111,428.966 756.486,426.577 754.07,427.194 749.743,428.3 747.326,428.918 747.951,431.306 750.202,439.902 
		742.007,441.996 739.59,442.613 740.215,445.001 	"/>
	<path fill="#4F5858" d="M519.774,650.466c-0.814-1.264-2.36-2.084-4.238-2.264c-0.237-0.022-0.502-0.022-0.709-0.022
		c-0.85,0-1.68,0.139-2.463,0.415l-0.166,0.052c-0.072,0.018-0.146,0.043-0.218,0.069c-1.062,0.445-2.519,1.053-4.009,3.152
		c-1.002,1.416-1.036,2.632-1.117,5.3l-0.033,1.073c-0.034,0.941-0.011,1.341,0.007,1.662c0.018,0.354,0.033,0.637-0.016,1.331
		c-0.163,2.27-0.368,5.09-2.299,7.389c-1.421,1.692-3.433,2.755-5.378,3.782c-1.453,0.767-2.952,1.56-4.168,2.602
		c-1.672,1.429-3.057,3.339-4.235,5.837c-0.793,1.685-1.371,3.392-1.764,5.215c0.454,0.284,0.899,0.541,1.344,0.794
		c0.277,0.155,0.554,0.309,0.83,0.457c0.647-2.771,2.937-7.449,4.921-9.305c1.627-1.518,2.378-1.474,2.677-1.315l0.528,0.295
		l-1.574,1.426c-2.688,2.45-4.057,6.668-4.733,9.776c-0.005,0.02-0.01,0.04-0.015,0.059c1.043,0.507,2.123,0.989,3.297,1.471
		c0.293,0.118,0.578,0.232,0.859,0.346l0.145,0.055c1.793-1.423,3.649-3.36,6.36-6.627c0.82-0.991,2.729-4.17,3.423-7.029
		c0.132-0.704,0.207-1.242,0.239-1.479l0.256-1.947l0.384,1.277c0,0,0.392,1.31,0.415,1.382c0.088,0.298,0.768,2.975-1.778,7.832
		c-1.642,3.136-3.561,5.119-5.25,6.868l-0.148,0.151c-0.265,0.271-0.512,0.528-0.751,0.769l0.869,0.315
		c0.659,0.239,1.312,0.47,1.94,0.688c0.636,0.217,1.21,0.402,1.765,0.575c1.143,0.358,2.153,0.641,3.319,0.969
		c1.223,0.343,2.602,0.733,4.387,1.279c1.506-2.104,2.529-4.086,3.125-6.056c0.73-2.398,0.944-5.085,0.659-8.2
		c-0.245-2.669-0.754-5.552-1.653-9.347c-0.478-2.031-0.284-4.173,0.562-6.204c0.598-1.438,1.544-2.661,2.463-3.847
		c0.184-0.235,0.362-0.471,0.539-0.702l0.114-0.15C521.406,656.793,521.201,652.672,519.774,650.466 M514.082,653.552
		c-0.202,0.481-0.61,0.832-1.21,1.045c-0.163,0.059-0.34,0.05-0.493-0.02c-0.043-0.018-0.085-0.045-0.124-0.072
		c-0.013-0.01-0.021-0.018-0.032-0.027c-0.537-0.405-0.828-0.815-0.975-1.176c-0.028,0.186-0.049,0.372-0.066,0.573
		c-0.062,0.78,0.245,1.681,0.514,2.216c0.072,0.144,0.141,0.265,0.2,0.346c0.157,0.22,0.107,0.526-0.116,0.686
		c-0.089,0.059-0.189,0.088-0.288,0.088c-0.156,0-0.307-0.071-0.405-0.204c-0.337-0.47-0.998-1.871-0.893-3.21
		c0.133-1.646,0.633-3.432,3.331-4.197c0.262-0.077,0.537,0.074,0.615,0.335c0.075,0.26-0.078,0.529-0.343,0.606
		c-0.119,0.034-0.217,0.076-0.326,0.115l-0.01,0.027c0.067,0.057,0.126,0.128,0.167,0.213
		C513.959,651.592,514.463,652.645,514.082,653.552"/>
</g>
</svg>
