<?xml version="1.0" encoding="utf-8"?>
<!-- Generator: Adobe Illustrator 16.0.0, SVG Export Plug-In . SVG Version: 6.00 Build 0)  -->
<!DOCTYPE svg PUBLIC "-//W3C//DTD SVG 1.1//EN" "http://www.w3.org/Graphics/SVG/1.1/DTD/svg11.dtd">
<svg version="1.1" id="Camada_1" xmlns="http://www.w3.org/2000/svg" xmlns:xlink="http://www.w3.org/1999/xlink" x="0px" y="0px"
	 width="500px" height="500px" viewBox="0 0 500 500" enable-background="new 0 0 500 500" xml:space="preserve">
<g>
	<path fill="#999999" d="M304.766,444.613c3.444,0,6.04-2.686,6.04-6.247c0-3.494-2.322-5.934-5.646-5.934h-0.077
		c-2.574,0-6.199,1.938-6.199,6.246C298.883,443.06,302.053,444.613,304.766,444.613"/>
	<path fill="#999999" d="M153.312,437.934c-1.31,0.172-2.066,0.608-2.066,2.325v22.087c0,14.381-5.225,16.32-10.336,16.32
		c-4.507,0-10.495-1.635-10.495-15.771v-20.285c0-3.699-0.172-4.992-2.104-4.992c-1.797,0-8.109,0.387-9.729,0.629l-0.274,0.04
		l0.027,0.276c0.157,1.659,0.234,4.956,0.234,10.08v14.723c0,16.786,7.093,25.297,21.081,25.297c9.939,0,21.787-4.634,21.787-26.707
		v-11.204c0-6.794,0.087-9.85,0.236-12.828l0.016-0.306h-0.307C159.851,437.617,155.697,437.695,153.312,437.934"/>
	<path fill="#999999" d="M197.371,444.862c4.583,0,8.111,1.212,9.807,1.934l0.076,0.021c1.226,0.163,2.356-0.214,3.271-1.088
		c1.184-1.129,1.854-3.009,1.705-4.788l-0.009-0.099l-0.063-0.073c-1.213-1.356-6.969-4.014-14.787-4.014
		c-17.351,0-28.561,9.829-28.561,25.044c0,16.318,11.118,26.863,28.325,26.863c4.965,0,8.976-2.566,11.13-3.946l0.286-0.182
		l0.044-0.034c1.567-1.478,2.605-3.993,2.925-7.08l0.021-0.2l-0.6-0.297l-0.612,0.174c-2.025,0.575-5.793,1.646-10.754,1.646
		c-11.063,0-18.212-6.928-18.212-17.648C181.365,447.679,190.069,444.862,197.371,444.862"/>
	<path fill="#999999" d="M289.718,467.713l-3.781-27.259v-0.002c-0.312-2.095-0.82-2.835-1.941-2.835
		c-1.994,0-8.473,0.446-9.84,1.297l-0.138,0.085v1.125c-3.259,7.877-7.929,19.56-11.205,28.359l-10.038-26.832
		c-1.145-3.261-1.673-4.135-3.19-4.034c-4.038,0-7.021,0.649-9.198,1.123l-0.891,0.192l0.188,1.478
		c-2.217,13.346-4.313,26.818-5.844,36.661c-0.523,3.364-0.97,6.234-1.316,8.422l-0.032,0.202l0.178,0.1
		c1.322,0.74,5.717,2.161,8.255,2.161c1.11,0,1.549-1.706,1.785-3.006c1.085-8.85,2.793-24.89,3.648-34.199
		c1.368,4.371,3.239,10.277,5.054,16.008c2.614,8.246,5.08,16.035,6.005,19.102l0.063,0.209h0.217c1.554,0,3.399-0.209,5.647-0.635
		c2.055-0.408,2.862-1.095,3.448-2.938c3.91-11.731,8.145-24.532,10.359-31.863l1.514,16.283c0.737,8.299,1.204,12.853,1.578,16.509
		l0.074,0.73c0.165,1.795,1.334,3.8,2.656,3.8c1.572,0,6.413-1.366,8.479-1.951l0.907-0.254l-0.043-0.26
		C291.612,481.297,290.714,475.15,289.718,467.713"/>
	<path fill="#999999" d="M309.514,450.38c-1.925,0-7.622,0.476-9.682,1.028l-0.242,0.064l0.026,0.249
		c0.134,1.273,0.313,3.567,0.313,8.744v13.4c0,4.203-0.134,9.624-0.213,12.864l-0.03,1.226h0.3c4.126,0,7.001-0.105,8.537-0.315
		c2.165-0.249,2.935-2.098,2.935-3.745v-28.287C311.458,451.162,311.168,450.38,309.514,450.38"/>
	<path fill="#999999" d="M354.14,473.942v-9.244c0-9.675-4.213-14.788-12.182-14.788c-3.846,0-7.465,2.339-10.532,4.718
		c-0.813-3.132-2.621-4.718-5.374-4.718c-3.076,0-6.101,2.54-6.892,4.819l-0.017,0.884l0.139,0.086
		c1.067,0.664,1.359,1.453,1.359,3.672v12.771c0,4.136-0.073,10.537-0.237,15.513l-0.01,0.302h0.302c2.077,0,3.925-0.552,5.71-1.086
		c1.204-0.36,2.342-0.7,3.54-0.884c1.933-0.25,2.225-0.729,2.225-2.248v-23.277c1.58-1.115,2.932-1.896,5.453-1.896
		c2.936,0,4.985,2.458,4.985,5.977v20.06c0,1.394,0.652,3.355,2.104,3.355c2.537,0,4.907-0.759,6.809-1.366
		c1.049-0.336,1.955-0.625,2.587-0.68l0.281-0.024l-0.014-0.282C354.232,482.817,354.14,478.241,354.14,473.942"/>
	<path fill="#999999" d="M393.468,478.597c-0.279,0.069-0.825,0.069-1.188,0.069c-1.734,0-2.544-0.901-2.544-1.509
		c0-2.941,0.099-5.854,0.188-8.422c0.069-2.039,0.127-3.798,0.127-5.213c0-9.402-6.829-13.612-13.599-13.612
		c-5.436,0-11.297,2.655-14.967,5.143l-0.124,0.083l-0.005,0.15c-0.029,0.984,0.068,3.41,1.634,4.653
		c0.896,0.712,2.085,0.878,3.58,0.479l0.202-0.09c1.536-0.689,4.105-1.844,6.607-1.844c3.41,0,5.613,1.978,5.613,5.037v0.695
		c-0.918,0.167-2.477,0.447-3.782,0.665c-5.309,1.136-15.192,3.251-15.192,11.646c0,6.227,4.979,11.898,10.449,11.898
		c3.258,0,6.275-2.659,8.825-5.358c1.121,2.159,3.383,5.358,6.924,5.358c5.679,0,7.694-4.976,7.694-9.233l-0.161-0.666
		L393.468,478.597z M378.837,475.197c0,1.269-0.191,2.033-0.604,2.519c-1.01,0.85-1.757,1.108-3.199,1.108
		c-2.048,0-4.117-1.169-4.117-3.785v-0.076c0-0.918,0.577-3.946,7.92-4.769V475.197z"/>
	<path fill="#999999" d="M417.306,465.696l-0.011-0.007c-0.531-0.264-1.261-0.608-2.043-0.979c-1.539-0.728-3.282-1.554-4.157-2.065
		c-1.571-0.937-2.533-1.573-2.533-2.805c0-1.278,1.273-2.138,3.171-2.138c1.669,0,3.5,0.408,5.156,1.15l0.097,0.025
		c1.061,0.078,1.967-0.243,2.692-0.962c1.311-1.299,1.659-3.5,1.56-4.992l-0.01-0.136l-0.11-0.08
		c-2.657-1.91-5.589-2.798-9.226-2.798h-0.081c-6.587,0-13.678,3.672-13.678,11.732c0,3.806,2.032,7.182,5.591,9.269
		c1.057,0.544,2.092,1.071,3.107,1.586c1.033,0.522,2.043,1.036,3.031,1.546c2.1,1.127,2.521,1.937,2.521,2.878
		c0,1.437-1.333,2.293-3.565,2.293c-3.897,0-7.737-2.186-8.822-2.854l-0.189-0.116l-0.162,0.149
		c-1.143,1.063-2.298,3.226-2.298,5.308c0,1.603,1.145,2.531,2.271,3.229l0.665,0.392c2.215,1.311,5.249,3.106,7.828,3.106
		c7.381,0,15.018-5.066,15.018-13.543C423.128,470.872,421.225,467.867,417.306,465.696"/>
	<path fill="#999999" d="M90.85,437.725c-5.908,0-11.547,0.631-13.714,1.031l-0.263,0.049l0.023,0.265
		c0.317,3.623,0.317,6.878,0.317,10.646v35.813c0,1.52,0.77,3.135,2.198,3.135c2.159,0,8.258-0.227,9.769-0.645l0.226-0.063
		l-0.011-0.233c-0.159-3.154-0.238-6.766-0.238-10.731v-5.61c2.254,0.189,4.823-0.325,6.551-0.671
		c7.037-1.414,11.954-4.659,14.617-9.641c1.326-2.48,2.027-5.285,2.027-8.108C112.353,439.57,102.019,437.725,90.85,437.725
		 M91.963,462.154c-0.29,0-1.56-0.051-2.806-0.104v-16.673c0.803-0.113,1.744-0.113,2.328-0.113c4.217,0,8.526,0.896,8.526,7.538
		C100.012,460.938,94.969,462.154,91.963,462.154"/>
	<path fill="#999999" d="M372.596,416.849c7.647,0,14.259-3.864,21.265-7.956c7.792-4.556,15.852-9.264,26.271-9.264
		c1.15,0,2.197-0.68,2.665-1.729c0.47-1.051,0.271-2.282-0.501-3.136l-11.862-13.108l8.396-18.27
		c0.438-0.951,0.331-2.069-0.284-2.92c-0.611-0.846-1.642-1.301-2.758-1.183c-2.646,0.273-14.603,2.011-22.468,7.496
		c-0.038-10.61-0.668-15.58-0.677-15.648c-0.009-0.059-0.013-0.117-0.013-0.174c0-3.12-6.189-3.72-6.251-3.723
		c-10.365-0.841-21.22,0.48-33.179,4.044c-10.734,3.194-21.337,7.85-31.591,12.35c-4.78,2.099-9.724,4.271-14.669,6.284
		c-18.154,7.392-36.213,10.982-55.213,10.982c-18.993,0-37.048-3.591-55.197-10.982c-4.893-1.992-9.842-4.164-14.629-6.265
		l-0.071-0.031c-10.246-4.497-20.842-9.146-31.563-12.341c-11.982-3.566-22.835-4.887-33.178-4.043
		c-0.063,0.006-6.252,0.614-6.252,3.725c0,0.059-0.003,0.117-0.012,0.177c-0.009,0.071-0.747,5.669-0.681,18.098
		c-8.664-6.398-25.8-8.323-26.529-8.403c-0.823-0.089-1.632,0.27-2.115,0.94s-0.569,1.55-0.224,2.302l8.941,19.457l-12.672,14.004
		c-0.608,0.674-0.765,1.644-0.396,2.472c0.369,0.829,1.193,1.364,2.102,1.364c11.045,0,19.522,4.954,27.72,9.744
		c7.198,4.207,13.999,8.181,21.763,8.181c10.175,0,15.046-4.842,15.36-9.641c0.024-0.37,0.013-0.732-0.016-1.088
		c0.045-0.543,0.082-1.21,0.104-1.632c0.212-4.024,0.597-9.9,0.731-14.339c0.146-1.541,0.25-2.986,0.254-4.262
		c7.56,2.341,14.803,5.169,21.557,7.915c25.926,10.542,53.845,20.834,85.001,20.834c13.836,0,28.049-2.03,43.453-6.206
		c14.776-4.006,29.303-9.643,41.563-14.628c6.575-2.672,13.607-5.421,20.915-7.716c-0.034,1.001-0.103,2.241-0.179,3.642
		c-0.169,3.068-0.371,6.796-0.297,9.816c-0.079,1.905-0.073,4.561-0.048,4.938c0.18,2.741,1.788,5.329,4.414,7.101
		C364.284,415.872,368.106,416.849,372.596,416.849 M392.6,387.868c0,0,2.86,4.77-11.397,8.745c-1.898,0.47-4.083,0.979-6.613,1.566
		c-0.082,0.018-0.167,0.033-0.249,0.05c-0.577,0.116-1.168,0.23-1.779,0.346c-3.593,0.669-13.053,3.126-13.053,3.126
		c0.051-5.843,0.443-8.724,0.597-13.915c0.396-0.117,0.789-0.24,1.188-0.355c2.688-0.775,5.288-1.438,7.832-1.971
		c10.858-2.268,18.234-2.853,21.879,0.35C391.648,386.377,392.192,387.05,392.6,387.868 M137.182,414.477
		c-2.948,1.458-6.434,1.682-9.665,1.515c-15.527-0.802-25.679-17.765-47.253-17.765l12.638-14.523l-8.801-20.647
		c0,0,10.504,2.305,14.021,3.489c4.442,1.498,10.243,3.599,12.048,5.141c0.021,1.519,0.052,3.13,0.098,4.83
		c0.009,0.604,0.021,1.224,0.034,1.854c0.023,1.765,0.034,3.701,0.11,5.546c-0.713,0.606-1.508,1.482-1.946,2.732
		c-0.959,2.729-0.168,5.691,1.556,7.934c2.279,2.965,6.403,4.274,9.802,5.454c4.239,1.475,8.603,2.59,13.029,3.333
		c3.214,0.54,7.823,1.452,8.253,5.414C141.388,411.382,139.342,413.409,137.182,414.477 M142.185,404.264
		c-0.863-0.925-1.979-1.646-3.283-2.086c-0.461-0.198-0.97-0.356-1.53-0.464c-6.377-1.217-13.351-2.966-18.515-4.973
		c-3.224-1.254-5.743-2.606-6.967-3.995c-1.319-1.499-1.422-3.067-1.422-3.067c-0.02-0.293-0.006-0.564,0.025-0.815
		c0.089-0.701,0.324-1.223,0.427-1.441c1.021-2.183,3.566-3.12,4.816-3.521c1.223-0.231,2.53-0.359,3.856-0.359
		c0.373,0,0.728,0.012,1.064,0.029c6.775,0.377,13.815,1.639,21.521,3.859c0.384,0.11,0.762,0.23,1.145,0.344
		C143.276,390.413,143.073,394.155,142.185,404.264 M336.006,394.441c-12.207,4.965-26.664,10.575-41.337,14.552
		c-15.234,4.131-29.283,6.139-42.942,6.139c-30.802,0-58.518-10.221-84.265-20.69c-7.689-3.127-16.009-6.369-24.741-8.885
		c-2.449-0.704-4.83-1.31-7.162-1.828c-4.279-0.949-8.382-1.593-12.383-1.931c-2.175-0.26-4.199-0.361-6.003-0.254
		c-1.838,0.108-3.446,0.437-4.741,1.045c-0.909-21.494,0.315-31.096,0.328-31.19c0.019-0.145,0.029-0.293,0.029-0.441
		c0-0.711,2.555-1.622,4.461-1.782c10.13-0.813,20.748,0.482,32.46,3.97c10.614,3.161,21.161,7.79,31.363,12.269l0.062,0.026
		c4.789,2.102,9.741,4.274,14.66,6.278c18.389,7.487,36.689,11.127,55.947,11.127c19.246,0,37.543-3.64,55.936-11.127
		c4.923-2.004,9.866-4.175,14.646-6.273l0.071-0.031c10.196-4.476,20.74-9.105,31.361-12.267
		c11.724-3.493,22.342-4.791,32.464-3.972c1.863,0.159,4.458,1.086,4.458,1.782c0,0.138,0.011,0.284,0.03,0.437
		c0.01,0.069,0.727,5.641,0.66,17.864c-0.019,3.841-0.118,8.329-0.34,13.52c-0.271-0.101-0.528-0.203-0.783-0.3
		c-0.888-0.345-1.699-0.653-2.601-0.789c-1.567-0.378-3.6-0.395-5.607-0.395c-4.812,0.293-10.551,1.499-17.122,3.148
		c-1.37,0.343-2.755,0.709-4.166,1.114C352.033,388.068,343.706,391.313,336.006,394.441 M359.568,407.477
		c-0.321-1.813,0.415-3.399,2.113-4.132c1.015-0.436,3.619-1.195,4.656-1.389c3.726-0.7,22.34-4.39,26.569-8.261
		c2.496-2.271,3.605-6.271,0.729-8.801c-0.222-0.194-0.47-0.382-0.579-0.655c-0.082-0.2-0.076-0.423-0.07-0.64
		c0.129-4.783,0.309-9.569,0.333-14.354c7.626-5.1,19.306-7.613,21.911-7.883c0.522-0.052,1.064,0.179,1.383,0.616
		c0.316,0.438,0.371,1.013,0.146,1.504l-9.374,18.551l12.354,12.768c0.398,0.44,0.5,1.075,0.258,1.615
		c-0.241,0.542-0.781,0.893-1.374,0.893c-10.802,0-17.285,4.201-25.244,8.854c-6.831,3.99-13.282,7.76-20.548,7.76
		c-4.207,0-7.753-0.893-10.253-2.579C361.194,410.409,359.87,409.188,359.568,407.477"/>
	<path fill="#999999" d="M143.042,375.769c-0.281-0.079-0.424-0.119-0.707-0.198c-0.132,2.721-0.779,3.229-2.252,2.83
		c-1.146-0.309-1.726-0.46-2.9-0.758c-1.32-0.335-1.688-0.478-1.709-2.453c-0.031-3.142-0.008-4.743,0.023-7.934
		c1.294,0.313,1.931,0.473,3.188,0.804c1.56,0.408,2.101,1.711,2.095,3.633c0.286,0.079,0.429,0.119,0.714,0.197
		c0.011-2.988,0.031-4.487,0.035-7.474c-0.281-0.083-0.424-0.121-0.709-0.203c-0.155,1.131-0.33,2.641-2.121,2.168
		c-1.257-0.332-1.892-0.493-3.186-0.807c0.025-2.844,0.041-4.269,0.009-7.07c-0.02-1.692,0.324-1.748,1.635-1.418
		c0.818,0.204,1.225,0.311,2.027,0.525c1.697,0.456,2.775,1.507,2.793,4.344c0.281,0.082,0.422,0.124,0.702,0.207
		c-0.044-2.107-0.074-3.162-0.174-5.26c-4.775-1.405-7.271-2.032-12.678-3.037c0.009,0.3,0.014,0.449,0.022,0.751
		c2.61,1.004,2.689,1.018,2.705,4.51c0.037,7.576-0.24,11.639,0.007,19.019c4.392,1.019,6.474,1.572,10.504,2.735
		C143.027,378.841,143.027,377.817,143.042,375.769"/>
	<path fill="#999999" d="M157.572,362.435c-0.654-0.295-0.982-0.442-1.642-0.733c-1.367,3.151-2.118,4.646-3.657,7.719
		c-1.358-4.243-2.032-6.396-3.524-10.702c-1.768-0.685-2.666-1.017-4.504-1.656c0,0.313-0.002,0.468-0.005,0.779
		c1.967,1.114,2.219,1.72,3.028,4.096c1.222,3.647,1.794,5.467,2.956,9.083c-2.123,4.07-3.257,6.17-5.322,10.354
		c0.688,0.236,1.027,0.354,1.705,0.593c1.687-3.561,2.598-5.329,4.346-8.785c1.47,4.691,2.197,6.994,3.799,11.8
		c1.163,0.451,1.739,0.679,2.888,1.136c-1.999-5.979-2.883-8.781-4.71-14.596C154.885,367.893,155.845,366.158,157.572,362.435"/>
	<path fill="#999999" d="M172.368,370.831c1.994,0.979,2.498,3.571,2.619,4.733c1.066,0.508,1.601,0.765,2.68,1.271
		c-0.277-2.777-1.714-5.918-5.131-7.598c-4.884-2.401-5.995,2.545-6.061,8.702c-0.079,7.458,1.729,12.914,6.343,14.832
		c2.228,0.926,4.052,0.706,4.614,0.583c-0.017-0.908-0.023-1.353-0.036-2.227c-0.582,0.406-1.951,1.06-3.911,0.245
		c-4.344-1.809-4.606-9.461-4.583-13.155C168.925,374.82,169.366,369.356,172.368,370.831"/>
	<path fill="#999999" d="M185.602,373.558c-5.157-2.285-6.319,1.875-6.27,8.648c0.05,6.742,1.596,12.071,6.63,13.993
		c4.96,1.894,6.529-2.308,6.445-8.629C192.323,381.161,190.545,375.748,185.602,373.558 M185.927,394.521
		c-3.627-1.389-4.027-7.354-4.065-11.217c-0.04-4.206,0.093-9.698,3.774-8.068c3.612,1.6,3.985,7.336,4.039,11.284
		C189.726,390.379,189.625,395.934,185.927,394.521"/>
	<path fill="#999999" d="M207.665,387.986c-0.017-5.397-5.746-7.653-7.796-8.367c-2.692-0.938-3.987-1.422-6.502-2.412
		c0.005,0.317,0.007,0.476,0.012,0.785c2.385,1.465,2.47,1.607,2.509,4.755c0.089,6.827,0.097,8.946,0.21,16.702
		c1.132,0.38,1.705,0.569,2.865,0.943c-0.049-4.496-0.064-6.215-0.097-9.842c0.661,0.224,0.994,0.335,1.667,0.555
		c1.947,4.233,2.938,6.188,4.918,11.269c1.286,0.371,1.856,0.531,3.097,0.861c-2-5.304-2.976-7.289-5.046-11.7
		C205.709,391.847,207.677,391.427,207.665,387.986 M200.388,389.7c-0.618-0.204-0.926-0.309-1.536-0.517
		c-0.018-2.074-0.028-3.099-0.05-5.345c-0.022-2.274-0.05-2.953,1.794-2.319c2.309,0.795,4.103,2.512,4.108,5.765
		C204.709,390.657,202.151,390.284,200.388,389.7"/>
	<path fill="#999999" d="M216.946,384.472c-3.049-0.621-4.55-0.975-7.479-1.773c0.001,0.319,0.003,0.477,0.004,0.787
		c2.435,1.193,2.534,1.346,2.552,4.433c0.043,6.704,0.067,8.522,0.107,16.325c1.616,0.394,2.428,0.577,4.058,0.925
		c5.331,1.134,9.99,0.206,9.981-8.741C226.163,388.413,222.174,385.535,216.946,384.472 M216.999,403.679
		c-1.891-0.39-1.893-1.339-1.9-2.581c-0.039-5.856-0.064-7.661-0.104-13.588c-0.012-1.518,0.638-1.643,2.235-1.32
		c5.179,1.046,5.833,4.827,5.854,9.841C223.112,401.75,221.985,404.705,216.999,403.679"/>
	<path fill="#999999" d="M227.043,387.07c2.606,0.919,2.694,1.074,2.604,4.174c-0.196,6.727-0.237,8.458-0.477,16.355
		c4.445,0.62,6.687,0.849,11.194,1.14c0.136-2.152,0.198-3.104,0.319-4.912c-0.318-0.021-0.478-0.03-0.796-0.05
		c-0.285,2.421-1.086,3.165-2.694,3.03c-1.254-0.104-1.879-0.165-3.127-0.295c-1.405-0.148-1.764-0.324-1.702-2.137
		c0.099-2.889,0.141-4.104,0.226-6.631c1.377,0.154,2.067,0.224,3.45,0.346c1.717,0.153,2.311,1.084,2.241,2.653
		c0.319,0.022,0.48,0.035,0.801,0.057c0.11-2.441,0.163-3.551,0.275-6.021c-0.324-0.021-0.485-0.032-0.809-0.056
		c-0.217,0.958-0.475,2.209-2.455,2.033c-1.388-0.122-2.078-0.191-3.459-0.345c0.075-2.265,0.114-3.38,0.203-5.974
		c0.053-1.564,0.434-1.699,1.881-1.563c0.904,0.086,1.356,0.125,2.266,0.196c1.917,0.153,3.109,1.048,2.995,3.538
		c0.325,0.021,0.488,0.028,0.813,0.047c0.054-1.845,0.082-2.814,0.147-5.014c-5.615-0.3-8.416-0.57-13.877-1.369
		C227.057,386.598,227.052,386.755,227.043,387.07"/>
	<path fill="#999999" d="M251.674,389.569c2.68,0.447,2.762,0.602,2.62,3.749c-0.307,6.831-0.422,8.482-0.755,16.578
		c4.551-0.191,6.834-0.368,11.4-0.888c0.144-2.215,0.212-3.188,0.348-5.032c-0.321,0.037-0.481,0.056-0.802,0.093
		c-0.307,2.493-1.119,3.397-2.751,3.55c-1.271,0.121-1.905,0.175-3.177,0.271c-1.431,0.107-1.799-0.011-1.709-1.855
		c0.141-2.939,0.206-4.162,0.338-6.713c1.397-0.096,2.096-0.151,3.49-0.274c1.73-0.155,2.312,0.673,2.221,2.26
		c0.323-0.033,0.484-0.051,0.806-0.086c0.14-2.471,0.207-3.583,0.347-6.086c-0.322,0.036-0.484,0.054-0.808,0.087
		c-0.228,1-0.498,2.299-2.489,2.479c-1.398,0.123-2.098,0.18-3.498,0.275c0.117-2.286,0.176-3.411,0.301-6.054
		c0.076-1.593,0.465-1.802,1.92-1.924c0.91-0.076,1.363-0.116,2.27-0.204c1.914-0.186,3.083,0.519,2.944,3.049
		c0.324-0.039,0.486-0.056,0.808-0.095c0.067-1.868,0.104-2.854,0.18-5.104c-5.521,0.674-8.339,0.9-13.972,1.112
		C251.693,389.087,251.687,389.248,251.674,389.569"/>
	<path fill="#999999" d="M276.506,387.279c2.535-0.486,2.997,1.767,3.088,2.8c1.327-0.281,1.986-0.429,3.296-0.739
		c-0.205-2.505-1.717-4.732-6.051-3.886c-6.195,1.213-8.126,6.951-8.435,12.262c-0.373,6.428,1.642,11.16,7.502,10.089
		c2.832-0.518,5.186-2.064,5.91-2.595c0.035-0.95,0.054-1.403,0.085-2.275c-0.76,0.813-2.547,2.456-5.027,2.928
		c-5.507,1.046-5.474-6.103-5.292-9.327C271.751,393.567,272.69,388.014,276.506,387.279"/>
	<path fill="#999999" d="M291.926,383.429c2.329-0.729,2.831,1.48,2.965,2.501c1.189-0.408,1.783-0.618,2.974-1.042
		c-0.299-2.477-1.741-4.584-5.696-3.324c-5.653,1.8-7.414,7.757-7.584,13.07c-0.206,6.437,1.898,10.992,7.716,9.314
		c2.811-0.808,4.691-2.481,5.315-3.063c-0.001-0.968-0.003-1.426-0.006-2.306c-0.647,0.872-1.979,2.594-4.426,3.32
		c-5.433,1.613-5.634-5.532-5.568-8.756C287.677,390.176,288.418,384.526,291.926,383.429"/>
	<path fill="#999999" d="M310.498,391.984c0.054,3.088-1.358,3.969-2.957,4.574c-0.871,0.332-1.308,0.497-2.178,0.818
		c-1.692,0.629-1.684,0.498-1.707-2.016c-0.072-7.527-0.233-9.001-0.293-17.698c-2.072,1.117-3.109,1.671-5.184,2.752
		c0.002,0.334,0.003,0.497,0.005,0.82c2.4-0.374,2.471-0.243,2.507,2.467c0.095,6.979,0.22,8.532,0.212,17.076
		c4.082-1.413,6.142-2.192,10.277-3.808c0.029-2.33,0.03-3.348,0.027-5.268C310.924,391.815,310.782,391.873,310.498,391.984"/>
	<path fill="#999999" d="M323.891,386.543c-0.07,2.631-0.766,3.783-2.229,4.383c-1.139,0.468-1.71,0.702-2.847,1.166
		c-1.28,0.522-1.607,0.51-1.645-1.427c-0.059-3.082-0.112-4.345-0.223-6.922c1.224-0.5,1.836-0.752,3.063-1.257
		c1.521-0.628,2.131,0.037,2.202,1.659c0.287-0.118,0.429-0.177,0.715-0.295c-0.116-2.521-0.19-3.633-0.327-6.06
		c-0.282,0.115-0.424,0.172-0.705,0.288c-0.099,1.016-0.207,2.342-1.95,3.059c-1.225,0.502-1.835,0.754-3.056,1.252
		c-0.102-2.285-0.158-3.388-0.251-5.946c-0.057-1.544,0.265-1.849,1.509-2.341c0.776-0.307,1.164-0.46,1.942-0.767
		c1.643-0.65,2.715-0.285,2.844,2.123c0.282-0.113,0.422-0.171,0.703-0.284c-0.128-1.766-0.19-2.683-0.299-4.755
		c-4.767,1.851-7.141,2.79-11.883,4.613c0.007,0.326,0.01,0.485,0.017,0.803c2.289-0.344,2.359-0.218,2.464,2.875
		c0.229,6.716,0.441,8.388,0.466,16.99c4.078-1.629,6.128-2.48,10.24-4.166c0.011-2.342,0.001-3.367-0.032-5.289
		C324.322,386.364,324.179,386.424,323.891,386.543"/>
	<path fill="#999999" d="M328.989,372.57c-0.13-1.968,0.894-3.443,2.222-3.951c1.954-0.748,3.883-0.438,4.592-0.301
		c-0.068-0.897-0.1-1.361-0.16-2.334c-0.663,0.076-2.318,0.239-4.043,0.887c-3.523,1.322-5.523,4.422-5.322,7.665
		c0.387,6.221,8.707,1.847,8.966,7.11c0.145,2.958-1.457,4.742-3.085,5.4c-2.066,0.837-4.163,0.125-4.979-0.176
		c0.032,1.132,0.045,1.727,0.061,2.998c0.545-0.024,2.543,0.003,4.534-0.803c3.569-1.445,6.512-5.118,6.245-9.592
		C337.617,372.782,329.292,377.16,328.989,372.57"/>
	<path fill="#999999" d="M337.488,365.476c0.02,0.284,0.029,0.426,0.05,0.703c2.47-0.485,2.545-0.398,2.766,2.005
		c0.565,6.191,0.991,7.942,1.148,16.622c1.141-0.433,1.711-0.645,2.853-1.065c-0.211-10.979-0.94-12.016-1.579-20.882
		C340.626,363.885,339.58,364.408,337.488,365.476"/>
	<path fill="#999999" d="M354.771,359.719c-1.92,0.569-4.031,0.864-5.941,1.475c0.021,0.272,0.035,0.407,0.059,0.675
		c1.032-0.146,1.976-0.392,2.093,0.762c0.021,0.201-0.154,1.282-0.255,1.803c-1.366,6.695-1.918,8.871-3.807,18.358
		c0.644-0.229,0.965-0.343,1.606-0.565c0.71-3.612,1.018-5.109,1.594-7.907c2.632-0.897,3.949-1.326,6.584-2.122
		c0.982,2.306,1.457,3.562,2.296,6.711c1.074-0.303,1.609-0.448,2.682-0.727C357.909,368.319,357.287,366.512,354.771,359.719
		 M350.439,372.771c0.796-3.777,1.68-6.226,2.411-9.795c1.451,3.009,2.279,4.897,3.291,7.952
		C353.858,371.626,352.718,371.997,350.439,372.771"/>
	<path fill="#999999" d="M362.827,361.135c0.713,5.762,1.242,7.664,1.381,16.417c4.104-0.98,6.15-1.384,10.22-1.933
		c0.021-2.42,0.003-3.487-0.067-5.466c-0.288,0.045-0.432,0.065-0.72,0.111c-0.016,2.671-0.717,3.671-2.179,3.922
		c-1.138,0.195-1.708,0.303-2.85,0.53c-1.283,0.258-1.604,0.183-1.697-1.787c-0.147-3.139-0.277-4.419-0.554-6.894
		c1.252-0.291,1.877-0.427,3.13-0.686c1.554-0.319,2.227,0.448,2.364,2.079c0.289-0.053,0.435-0.079,0.724-0.128
		c-0.215-2.541-0.357-3.636-0.632-5.867c-0.291,0.055-0.437,0.081-0.728,0.137c-0.048,0.907-0.089,2.117-1.876,2.487
		c-1.255,0.26-1.88,0.398-3.132,0.69c-0.258-2.149-0.404-3.142-0.661-5.301c-0.156-1.304,0.171-1.517,1.468-1.799
		c0.81-0.177,1.216-0.263,2.027-0.428c1.717-0.351,2.872,0.063,3.132,2.189c0.291-0.054,0.437-0.079,0.729-0.131
		c-0.222-1.569-0.332-2.351-0.524-4.044c-5.015,0.878-7.5,1.44-12.431,2.721c0.025,0.262,0.038,0.39,0.064,0.646
		C362.428,358.421,362.498,358.481,362.827,361.135"/>
	<path fill="#999999" d="M262.753,281.133c-0.506-1.063-2.932-5.736-3.639-6.72c-0.317-0.44-0.592-0.913-0.931-1.337
		c-1.199-1.501-1.003-3.077-0.851-3.509c0.501-1.438,1.313-3.853,2.745-9.57c0.695-2.772,0.776-4.234,0.836-4.73
		c0.247-2.117,0.404-3.45,0.192-5.24c-0.13-1.096-0.396-3.173-1.704-5.471c-1.359-2.388-3.082-3.675-3.446-3.939
		c-0.477-0.346-1.325-0.955-2.594-1.416c-0.344-0.124-2.097-0.737-4.454-0.535c-3.039,0.26-5.113,1.704-5.887,2.257
		c-0.479,0.342-2.315,1.707-3.717,4.208c-1.358,2.421-1.576,4.601-1.704,6.044c-0.154,1.721-0.357,4,0.735,6.546
		c0.834,1.94,2.108,3.31,2.557,3.783c0.64,0.677,1.245,1.181,1.703,1.529c0.293-0.492,0.761-1.178,1.465-1.875
		c1.54-1.524,2.333-1.785,3.727-1.843c0.545-0.021,1.374,0.21,1.905,0.455c0.088,0.04,0.161,0.138,0.246,0.203
		c0.444-0.899,0.566-2.817,0.566-3.749c0-1.34-0.061-2.15-0.382-2.867c-0.151-0.336-0.364-0.666-0.365-0.668
		c-0.251-0.385-0.532-0.82-0.996-1.134c-0.212-0.143-0.364-0.196-0.526-0.254c-0.265-0.094-0.622-0.222-0.919-0.646
		c-0.45-0.644-0.359-1.345-0.326-1.609c0.143-1.112,0.946-1.772,1.253-1.986c0.016-0.01,0.025-0.015,0.039-0.025
		c0.373-0.209,1.383-0.671,2.603-0.348c1.042,0.274,1.615,0.958,1.83,1.216c0.735,0.878,0.901,1.82,1.001,2.635
		c0.123,1.022,0.324,3.763-0.444,7.114l-0.049,0.216c-0.142,0.635-0.317,1.419-0.804,2.255c-0.209,0.36-0.374,0.606-0.508,0.804
		c-0.094,0.141-0.191,0.224-0.207,0.32c-0.317,2.017-0.293,14.794-0.161,16.86c0.046,0.735,0.114,8.683,0.191,10.443
		c0.017,0.357,0.052,1.532-0.62,1.993c-0.443,0.305-1.022,0.249-1.189,0.23c-0.774-0.085-1.306-0.562-1.509-0.749
		c-2.914-2.691-4.252-6.886-4.252-6.886c-0.765-2.398-1.634-5.813-2.018-10.09c-2.996,3.781-5.468,8.459-6.95,14.016
		c-1.272,4.767-0.6,9.354,0.383,13.539c0.003,0.011,0.295,1.317,0.574,2.509c0.801-0.207,1.685-0.256,2.511-0.128
		c0.033-0.051,0.063-0.103,0.106-0.15c0.013-0.013,0.026-0.027,0.041-0.041c0.381-0.353,0.957-0.947,1.568-1.578l0.015-0.016
		c1.151-1.188,2.455-2.535,3.347-3.223c0.307-0.232,0.76-0.225,1.057,0.014c0.302,0.246,0.393,0.676,0.215,1.021
		c-0.055,0.104-0.281,0.393-0.567,0.757c-0.159,0.199-0.327,0.415-0.481,0.617c0.045-0.042,0.091-0.084,0.137-0.128
		c0.403-0.372,0.82-0.755,0.952-0.843c0.259-0.171,0.613-0.145,0.843,0.059l0.04,0.036c0.217,0.227,0.253,0.566,0.089,0.83
		c-2.64,4.205-3.696,5.618-4.21,6.093c0.005,0.115,0.005,0.219,0.005,0.297c0,0.948-0.266,1.687-0.439,2.175
		c-0.253,0.707-0.542,1.206-0.849,1.734c-0.188,0.325-0.402,0.645-0.607,0.951c-0.562,0.839-1.091,1.63-1.229,2.633
		c-0.116,0.845,0.11,1.646,0.351,2.495c0.102,0.36,0.209,0.734,0.284,1.106c0.134,0.663,0.243,1.678,0.265,2.839
		c0.431,0.187,0.893,0.371,1.387,0.547c0.369,0.131,0.728,0.247,1.076,0.351c0.688-1.348,1.527-2.568,2.447-3.481
		c1.393-1.384,1.429-2.412,1.179-4.428c-0.057-0.447-0.156-0.874-0.254-1.288c-0.239-1.015-0.484-2.064-0.049-3.325
		c0.25-0.725,0.676-1.377,1.158-2.018c0.548-0.729,1.455-1.436,1.742-1.652c0.03-0.502,0.269-2.139,0.513-3.503
		c0.554-3.108,0.811-3.535,1.535-3.589l0.062-0.002c0.725,0,0.94,0.287,1.784,3.586c0.27,1.054,0.658,2.692,0.753,3.27
		c0.249,0.457,0.498,0.915,0.752,1.375c0.162,0.293,0.326,0.586,0.487,0.875c0.46,0.847,0.58,1.559,0.611,2.019
		c0.044,0.658,0.014,1.363-0.402,2.656c-0.168,0.517-0.325,1.007-0.372,1.518c-0.111,1.186,0.305,2.572,1.173,3.903
		c0.199,0.306,0.436,0.619,0.748,0.988c1.02,1.213,1.988,2.448,2.73,3.86c0.268-0.046,0.562-0.112,0.682-0.139
		c0.237-0.054,0.639-0.173,1.019-0.301l0.028-0.006c-0.012-1.703,0.248-3.3,0.428-4.196c0.078-0.374,0.184-0.748,0.285-1.109
		c0.241-0.847,0.468-1.648,0.353-2.494c-0.139-1.001-0.669-1.794-1.229-2.632c-0.207-0.308-0.419-0.626-0.608-0.951
		c-0.306-0.528-0.646-1.01-0.849-1.732c-0.351-1.264-0.232-2.334,0.007-3.146c-0.449-0.557-1.304-1.985-3.215-5.677
		c-0.101-0.19-0.051-0.424,0.116-0.559c0.086-0.068,0.189-0.104,0.292-0.104c0.101,0,0.202,0.034,0.286,0.099
		c0.363,0.286,0.969,0.896,1.623,1.605c-0.551-0.992-1.039-1.899-1.194-2.267c-0.109-0.265-0.019-0.566,0.217-0.728
		c0.106-0.074,0.229-0.108,0.351-0.108c0.15,0,0.301,0.054,0.416,0.159c0.825,0.751,2.006,2.19,3.05,3.461
		c0.396,0.481,0.774,0.94,1.088,1.308c0.615-0.082,1.272-0.048,1.924,0.095c0-0.022,0.002-0.037,0.002-0.061
		c0.002-0.111,0.199-0.745,0.452-1.493C264.488,300.425,267.611,291.324,262.753,281.133 M245.264,258.855
		c-0.175,0.572-0.703,0.971-1.286,0.971c-0.261,0-0.519-0.077-0.742-0.227c-1.7-1.116-2.806-2.901-2.955-4.772
		c-0.079-0.992,0.18-1.934,0.771-2.799c0.081-0.121,0.169-0.24,0.258-0.361c0.244-0.329,0.475-0.642,0.478-0.889
		c0.008-0.728,0.594-1.3,1.336-1.3c0.371,0,0.731,0.147,0.986,0.402c0.253,0.25,0.39,0.588,0.386,0.952
		c-0.006,0.589-0.191,1.088-0.427,1.52c0.757,0.444,1.397,1.341,1.34,2.586c-0.029,0.643-0.458,2.025-0.607,2.487
		C245.24,257.763,245.428,258.323,245.264,258.855 M246.948,297.172c-0.372,0.387-0.857,0.591-1.407,0.591
		c-0.111,0-0.223-0.008-0.331-0.025c-0.725-0.101-1.197-0.524-1.564-1.057c-1.271-1.838,1.813-6.018,2.248-6.403
		c0.168-0.149,0.388-0.23,0.608-0.23c0.095,0,0.188,0.016,0.278,0.046c0.307,0.101,0.537,0.357,0.603,0.669
		C247.757,292.593,248.199,295.863,246.948,297.172 M252.308,297.577c-0.357,0.328-0.829,0.511-1.326,0.511
		c-0.082,0-0.165-0.006-0.25-0.015c-0.674-0.08-1.327-0.478-1.707-1.038c-0.936-1.38-0.423-2.763-0.011-3.874
		c0.188-0.506,0.363-0.979,0.413-1.415c0.04-0.356,0.329-0.632,0.687-0.659c0.595-0.048,0.944,0.423,1.114,0.648
		c0.038,0.054,0.064,0.093,0.094,0.121c0.406,0.429,1.483,2.02,1.646,2.817C253.164,295.64,253.036,296.912,252.308,297.577
		 M257.404,297.288c-0.076,0.022-0.151,0.039-0.23,0.053c-0.898,0.156-1.843-0.254-2.353-1.024
		c-0.647-0.983-0.867-2.093-1.063-3.073c-0.169-0.843-0.327-1.639-0.718-2.313c-0.2-0.347-0.13-0.794,0.169-1.063
		c0.299-0.27,0.757-0.294,1.088-0.064c0.751,0.521,4.513,3.258,4.473,5.731C258.755,296.367,258.219,297.056,257.404,297.288"/>
	<path fill="#999999" d="M417.177,298.86c-2.258-2.931-6.932-3.942-10.048-1.937c-0.519-2.428-3.853-19.193-4.643-25.559
		c19.62-2.289-11.94-32.643-12.88-12.542c-5.759,0.038-20.643-0.781-24.197-0.942c3.852-8.621-6.57-13.376-12.89-7.75
		c-1.449-1.065-9.176-6.42-13.638-9.55c-0.002-7.853-0.008-15.817-0.017-23.542c13.733,1.722,26.192,0.337,38.981-5.807
		c4.346,7.385,12.734,3.508,11.294-3.355c7.505-6.257,19.87-16.973,24-25.893c1.436-3.122-1.944-5.305-4.57-3.398
		c1.13-2.05,1.32-5.437-2.052-5.819c0.666-2.284-1.022-6.561-3.919-5.231c0.571-2.134-1.873-4.943-3.995-4.138
		c0.573-1.143-0.648-8.343-4.611-6.088c0.105-2.389-3.096-6.574-5.983-5.23c0.116-2.297-0.51-5.152-4.375-5.585
		c-2.271,0-3.136,3.421-4.138,7.381c-1.97,7.434-6.332,14.554-10.981,20.702c-4.553-2.305-12.22,4.15-8.536,8.354
		c-3.431,3.028-12.394,5.3-21.145,5.904c-0.01-14.57-0.028-22.271,0.026-27.076h-44.125c6.255-4.494,27.095-19.521,33.063-23.622
		c0.182,0.319,3.8,5.352,5.601,7.688c1.659-1.146,4.762-3.239,5.972-4.122c0.791,1.104,1.914,2.732,3.029,4.377
		c-1.183,0.834-4.751,3.347-5.875,4.14c1.7,2.354,9.291,12.869,10.991,15.226c1.96-1.381,5.283-3.722,7.243-5.102
		c-0.789-1.094-4.626-6.408-5.494-7.611l4.869-3.43c0.893,1.235,4.683,6.486,5.494,7.609c2.266-1.594,8.172-5.755,10.438-7.351
		c-1.694-2.358-6.175-8.742-8.732-12.022c-1.074,0.757-4.512,3.178-5.64,3.973l-3.944-5.467c2.069-1.482,3.867-2.727,5.723-3.951
		c-0.799-1.107-3.206-4.441-4.041-5.599c2.347-1.649,4.396-3.094,5.757-4.055c1.147,1.739,2.774,3.804,4.235,5.402
		c1.898-1.342,5.092-3.595,6.07-4.283c0.998,1.394,2.485,3.465,3.938,5.459c-1.204,0.846-5.088,3.582-6.224,4.381
		c1.675,2.32,7.022,9.729,8.698,12.048c2.294-1.617,8.671-6.107,10.965-7.725c-0.78-1.091-4.604-6.43-5.464-7.63l3.989-2.811
		c0.981,1.322,4.818,6.487,5.725,7.705l7.534-5.424c-1.749-2.423-9.303-12.889-11.057-15.32c-1.12,0.789-5.74,4.043-6.944,4.892
		l-3.142-4.353c1.233-0.867,5.799-4.085,6.943-4.891c-0.788-1.092-4.669-6.468-5.536-7.67c1.131-0.831,3.22-1.82,2.683-3.584
		c-0.31-1.416-5.022-7.438-6.43-7.877c-0.875-0.363-1.799,0.234-1.824,0.285l-82.183,58.007c-0.586-3.345-1.987-11.794-2.897-17.521
		h17.88c1.304,0,2.365-1.047,2.365-2.336c0.317-2.064-1.133-3.521-3.23-3.209v-1.665c3.485-0.267,3.484-5.591,0-5.855v-14.331
		c-0.452,0.797-1.494,2.647-1.985,3.504c-0.177-2.104-0.637-4.627-1.171-6.533c3.648,0.756,4.302-5.451,0.687-5.545
		c-0.666,0.01-3.086-0.008-3.709,0v-1.344c3.887,0.053,3.884-5.971,0-5.917V76.959c-1.23,2.053-2.122,3.908-3.423,6.322
		c-0.766-3.411-1.949-6.649-3.526-9.662c1.646-0.106,2.376-1.719,2.169-3.189c0.047-2.773-3.436-2.351-5.312-2.33
		c-0.006,0-0.011,0-0.016,0c3.236-0.272,3.515-5.154,0.339-5.781c-0.02-0.249-0.032-10.058-0.032-10.058
		c-1.089,1.919-2.039,3.749-3.17,5.884c-3.273-6.609-16.561-19.203-28.956-21.377c-0.202-3.023-1.975-5.191-3.191-5.574v-0.35
		v-7.639h5.121v-6.32h-5.121v-5.546h-7.723v5.546h-5.12v6.32h5.12v7.639v0.35c-1.176,0.467-2.814,2.272-3.159,5.401
		c-10.262,1.952-20.727,9.54-28.922,21.681c-1.096-2.049-1.882-3.652-2.945-5.425v9.405c-3.372,0.383-3.301,5.555,0.082,5.844
		c-0.026,0-2.467,0-2.562,0c-0.766,0-2.769,0.478-2.832,2.33c-0.215,1.502,0.563,3.148,2.258,3.197
		c-0.345,0.868-2.635,6.203-3.604,9.681c-1.308-2.428-2.197-4.287-3.434-6.35v11.39c-4.495-0.732-4.493,6.553,0,5.822v1.391
		c-0.606-0.01-3.054,0.008-3.709,0c-3.616,0.094-2.963,6.301,0.688,5.545c-0.542,1.931-1.001,4.473-1.178,6.598
		c-0.383-0.79-1.563-2.819-1.979-3.564v14.332c-4.326-0.563-4.324,6.408,0,5.846v1.67c-2.098-0.313-3.551,1.143-3.231,3.209
		c0,1.289,1.061,2.336,2.364,2.336h17.561c-0.784,5.543-2.061,14.081-2.663,17.521l-82.18-58.007
		c-0.027-0.051-0.95-0.648-1.827-0.285c-1.406,0.439-6.119,6.461-6.428,7.877c-0.532,1.762,1.54,2.754,2.682,3.584
		c-0.891,1.236-4.726,6.547-5.536,7.67c1.118,0.787,5.738,4.042,6.944,4.891l-3.143,4.353c-1.233-0.868-5.8-4.085-6.942-4.892
		c-1.757,2.433-9.309,12.896-11.061,15.32l7.537,5.424c0.883-1.188,4.766-6.415,5.723-7.705l3.99,2.811
		c-0.884,1.234-4.661,6.508-5.465,7.63c2.295,1.617,8.671,6.107,10.966,7.725c1.674-2.317,7.023-9.728,8.697-12.048
		c-1.114-0.784-5.041-3.55-6.222-4.381c1.453-1.994,2.939-4.065,3.937-5.459c0.973,0.684,4.179,2.947,6.071,4.283
		c1.461-1.599,3.088-3.663,4.234-5.402c1.362,0.961,3.41,2.405,5.757,4.055c-0.847,1.175-3.229,4.476-4.041,5.599
		c1.857,1.225,3.655,2.469,5.726,3.951l-3.947,5.467c-1.146-0.808-4.548-3.204-5.64-3.973c-2.564,3.29-7.028,9.652-8.732,12.022
		c2.266,1.596,8.173,5.757,10.438,7.351c0.79-1.094,4.626-6.408,5.493-7.609l4.869,3.43c-0.891,1.236-4.682,6.488-5.494,7.611
		c1.962,1.38,5.284,3.721,7.244,5.102c1.699-2.355,9.291-12.87,10.992-15.226c-1.107-0.78-4.712-3.319-5.876-4.14
		c1.114-1.645,1.781-2.612,2.572-3.716c1.211,0.881,4.229,2.851,5.889,3.994c1.814-2.356,5.938-7.873,6.14-8.221l32.646,22.938
		c0.157,0.108,0.739,0.487,0.81,0.685h-44.517c0.054,4.774,0.037,12.426,0.025,26.883c-8.925-0.564-19.169-2.66-22.626-5.711
		c3.684-4.203-3.983-10.656-8.534-8.354c-4.652-6.151-9.012-13.264-10.983-20.702c-1.001-3.96-1.866-7.381-4.138-7.381
		c-3.864,0.435-4.489,3.287-4.374,5.585c-2.892-1.341-6.083,2.836-5.984,5.23c-3.962-2.258-5.184,4.949-4.609,6.088
		c-2.123-0.806-4.568,2.003-3.996,4.138c-2.898-1.327-4.585,2.946-3.919,5.231c-3.375,0.387-3.181,3.768-2.053,5.819
		c-2.622-1.898-6.01,0.271-4.569,3.398c4.146,8.936,16.479,19.618,24.002,25.893c-1.441,6.863,6.944,10.739,11.292,3.355
		c13.259,6.38,26.19,7.62,40.462,5.567c-0.008,7.795-0.014,15.838-0.016,23.767c-4.459,3.128-12.208,8.499-13.659,9.564
		c-6.326-5.631-16.74-0.86-12.892,7.75c-3.564,0.163-18.427,0.979-24.196,0.942c-0.939-20.101-32.497,10.254-12.878,12.542
		c-0.792,6.365-4.124,23.131-4.644,25.559c-5.189-3.396-13.069,1.812-11.475,7.902c1.222,4.973,11.941,15.626,17.349,15.631
		c4.42,0.211,8.798-5.47,6.741-9.657c1.342-0.437,5.831-1.174,6.053-1.221c10.239,17.429,49.107,35.803,66.936,46.897
		c1.396,0.555,3.728,1.039,4.512-0.673c1.952-2.392,6.044-5.414,3.309-8.776c1.963-0.994,3.252-3.953,2.412-5.627
		c2.524-1.26,2.641-3.216,1.383-5.556c0.929-0.707,2.104-2.414,0.91-3.605c-0.519-0.615-1.104-1.45-1.986-1.53
		c-4.59-0.714-9.144-1.747-13.547-2.746c-7.743-1.759-15.747-3.573-24.185-3.711c-1.348-0.612-3.125-1.65-5.242-3.033l0.012-0.035
		c-3.334-2.075-7.003-4.852-11.535-8.342c8.758,3.982,24.667-16.712,10.491-18.679l0.483-3.033
		c3.637,2.166,12.559,1.349,17.237-0.802c9.693,32.278,27.096,36.956,87.208,67.475c60.231-30.626,77.362-35.025,87.211-67.469
		c4.649,2.149,13.613,2.957,17.215,0.796l0.484,3.033c-14.175,1.967,1.733,22.659,10.49,18.679
		c-4.531,3.49-8.198,6.267-11.534,8.342l0.012,0.035c-2.116,1.383-3.896,2.421-5.241,3.033c-8.438,0.138-16.441,1.952-24.187,3.711
		c-4.402,0.999-8.958,2.032-13.546,2.746c-0.876,0.077-1.476,0.917-1.986,1.53c-1.177,1.185-0.04,2.909,0.91,3.605
		c-1.259,2.343-1.138,4.298,1.383,5.556c-0.839,1.675,0.448,4.632,2.412,5.627c-2.712,3.356,1.338,6.391,3.309,8.776
		c0.785,1.712,3.113,1.229,4.511,0.671c17.813-11.085,56.687-29.457,66.936-46.896c0.222,0.047,4.713,0.784,6.054,1.221
		c-2.097,4.311,2.509,10.098,7.069,9.648C408.19,319.071,423.478,306.547,417.177,298.86 M114.892,147.752
		c1.912-0.421,2.985,6.931,3.897,9.329c2.417,6.346,6.397,13.229,10.487,18.386C128.42,185.302,103.103,149.386,114.892,147.752
		 M109.239,153.071c1.018-0.492,0.86,0.043,1.875,3.157c3.105,8.577,12.122,20.929,14.925,22.862
		c0.283,0.926-1.097,2.944-1.652,2.922c-6.728-3.814-14.547-16.402-15.369-17.773C107.746,162.302,102.649,156.263,109.239,153.071
		 M102.701,158.327c0.506-0.161,1.402-0.641,2.416,1.465c1.228,2.549,5.854,10.59,10.049,15.512c1.927,2.261,4.966,6.1,6.866,7.693
		c1.754,1.473,1.372,1.906,0.646,3.066c-1.692,1.933-2.817,0.023-3.942-0.834c-5.079-4.833-9.765-7.489-17.236-20.82
		C100.118,161.944,102.368,158.116,102.701,158.327 M99.686,164.619c9.568,14.158,9.222,14.618,20.642,24.14
		c1.244,0.938-1.001,3.292-2.786,2.057c-2.342-1.529-13.05-11.85-17.664-19.083C97.481,167.976,96.438,165.063,99.686,164.619
		 M94.708,168.544c1.463-0.305,2.458,1.996,3.036,2.867c7.909,11.889,9.734,12.789,19.154,22.053
		c0.57,7.974-15.229-9.738-16.152-11.09c-0.342-0.258-4.634-5.262-6.884-8.998C92.865,171.72,93.181,169.843,94.708,168.544
		 M91.291,174.383c1.323-0.77,1.335-0.216,1.583,0.113c5.434,7.224,9.627,12.621,16.307,18.913c0.567,0.534,6.18,4.813,5.052,5.844
		c-0.982,1.706-2.848,0.468-3.735-0.133C106.4,195.771,87.934,179.896,91.291,174.383 M110.444,206.167
		c-4.553-1.436-26.079-22.459-23.336-26.836c0.595-0.611,2.403,0.048,3.021,0.852c4.008,5.224,7.532,9.886,12.517,14.377
		C105.254,197.645,114.624,202.296,110.444,206.167 M119.356,209.761c-4.568,7.352-9.963,1.283-7.192-2.768
		c2.92-4.269,18.7-30.295,18.7-30.295c1.412-2.005,7.65,1.459,6.588,4.369l-16.088,25.167
		C121.364,206.234,119.78,209.082,119.356,209.761 M161.142,214.761c-13.67,2.107-27.09,0.644-39.237-5.281
		c-0.474,0.301,15.292-24.143,15.689-24.812c4.773,3.86,16.726,5.57,23.736,6.019C161.438,197.565,160.828,210.097,161.142,214.761
		 M161.289,256.75c0.017,7.076-0.008,13.544,0.048,19.88c-3.556,2.862-10.449,2.401-14.085,1.286l0.846-6.704
		c7.15,2.881,13.772-5.51,8.836-11.643C156.636,259.646,159.176,258.033,161.289,256.75 M161.079,243.657l-0.094,9.748
		c0,0.269-3.6,2.432-5.698,3.919c-1.836-2.253-3.595-3.821-5.792-5.679C152.846,249.233,157.568,246.176,161.079,243.657
		 M139.2,250.036c6.272-1.857,14.32,7.979,16.921,12.435c1.329,4.112-1.504,7.143-5.083,7.143
		c-4.016,0.517-10.827-8.104-13.36-10.632C135.732,256.083,135.223,251.201,139.2,250.036 M110.979,293.991
		c-0.255,0.781-0.438,1.565-0.588,2.352l-4.13,0.602c0.645-5.024,2.736-16.664,4.45-25.613l24.117-0.723
		c-0.302,1.858-0.649,7.125-0.788,7.152C118.376,280.822,112.854,288.276,110.979,293.991 M132.393,286.112
		c-1.574-0.984-4.509-2.622-2.6-5.136c1.451-0.427,2.609-0.904,4.274-1.23c-0.189,1.046-0.958,7.5-1.306,9.417
		c-0.008,0.005-0.013,0.007-0.021,0.008C133.116,287.485,132.807,286.602,132.393,286.112 M123.12,291.735
		c-2.938-0.126-5.403,0.095-6.211-3.502c0.795-0.842,1.698-1.651,2.726-2.418c0.28,6.406,7.132,0.347,6.399,6.199
		c-0.276,0.197-0.68,0.508-1.127,0.938C124.462,292.453,123.884,291.979,123.12,291.735 M123.62,294.472
		c-0.536,0.747-1.07,1.813-1.338,2.764c-2.695-3.004-6.726,1.191-9.556-1.506c0.451-1.769,1.208-3.502,2.312-5.149
		C117.901,294.332,121.159,292.041,123.62,294.472 M127.018,283.496c1.192,3.904,4.47,2.096,3.837,6.292
		c-0.804,0.281-1.758,0.649-2.738,1.105c0.143-6.436-6.936-1.349-6.886-6.173c1.723-1.084,3.71-2.066,6.02-2.909
		C126.931,282.617,126.975,283.243,127.018,283.496 M132.337,291.537c-0.198,1.112-0.38,2.138-0.53,3.017
		c-2.238,0.18-4.738,0.492-6.404,0.716C126.244,294.27,128.142,292.927,132.337,291.537 M112.333,297.791
		c3.285,2.651,7.472-1.761,9.548,2.248c0.022,1.026,0.069,1.427,0.238,2.162c-3.604-2.484-6.27,2.279-9.838-0.377
		C112.157,300.486,112.161,299.137,112.333,297.791 M114.009,308.446c-0.545-1.254-0.979-2.564-1.289-3.908
		c3.755,1.992,5.899-2.238,9.877-0.666c0.426,1.102,0.984,2.021,1.544,2.761C118.404,305.33,117.433,309.686,114.009,308.446
		 M117.694,314.302c-0.771-0.896-1.504-1.854-2.148-2.901c4.989-0.966,4.319-3.854,10.266-2.936c0.686,0.583,1.386,1.336,2.43,2.136
		C120.305,310.24,122.128,315.868,117.694,314.302 M128.218,307.786l3.441-0.627c0.266,2.099,0.695,3.518,1.924,4.841
		C132.182,310.959,128.318,307.902,128.218,307.786 M119.903,316.561c1.521,0.024,3.725-1.968,4.235-3.115
		c0.332-1.385,6.95-1.922,9.013,0.928c-5.684-0.174-5.459,3.689-10.716,4.343C121.672,318.096,120.752,317.325,119.903,316.561
		 M142.469,332.835c3.249-3.815,4.264-1.709,7.335-2.997c-0.531,2.708-4.769,3.095-6.073,3.791
		C143.312,333.362,142.886,333.104,142.469,332.835 M188.825,332.806l0.673,0.795c-0.385,0.283-0.667,0.562-0.881,0.834
		l-17.682-0.857l17.251,2.938c1.058,2.295,0.994,2.143-1.224,3.638l-17.577-2.456l17.491,4.659c0.738,1.849-2.51,3.215-3.004,4.138
		l-15.737-5.91l16.931,8.485c0.461,1.163-0.408,1.848-1.239,2.798l-15.48-7.963l13.901,9.564c-0.439,0.475-0.825,0.948-1.055,1.421
		c-6.994-2.503-13.215-7.454-19.941-10.814c2.354-2.767,8.523-11.04,7.653-15.403C175.481,330.056,182.01,331.744,188.825,332.806
		 M166.641,328.196c1.023,4.229-5.123,11.996-7.515,14.652c-0.847-0.489-1.695-0.976-2.542-1.465
		c2.449-2.563,8.34-9.668,7.864-13.581C165.179,327.935,165.912,328.052,166.641,328.196 M161.897,327.356
		c0.743,3.518-5.31,10.207-7.748,12.615c-0.994-0.584-1.972-1.191-2.96-1.784c2.732-1.841,8.399-7.21,7.799-11.224
		C159.96,327.085,160.933,327.207,161.897,327.356 M152.116,330.928c1.003-2.53,1.11-3.33,1.072-4.485
		c1.097,0.049,2.177,0.153,3.259,0.252c0.696,3.627-4.84,8.425-7.661,10.045c-0.896-0.543-1.803-1.068-2.69-1.62
		C147.135,334.173,151.038,333.641,152.116,330.928 M150.691,326.242c-2.658,3.79-7.549,1.148-10.153,5.337
		c-0.405-0.267-0.803-0.543-1.207-0.812c3.911-2.446,4.159-5.328,9.624-5.392C149.571,325.71,150.155,326.005,150.691,326.242
		 M145.226,323.141c0.47,0.304,0.927,0.591,1.379,0.869c-4.391,0.696-5.248,4.058-9.118,5.518c-0.486-0.332-0.981-0.65-1.465-0.986
		C140.867,327.43,138.834,321.624,145.226,323.141 M138.824,318.678c1.047,0.771,2.096,1.523,3.138,2.255
		c-5.352,1.224-2.708,5.613-8.387,5.894c-1.242-0.888-2.746-1.968-4.357-3.126C135.448,323.274,133.039,318.369,138.824,318.678
		 M134.944,315.763c0.468,0.358,0.953,0.725,1.437,1.09c-4.989,0.86-2.643,5.33-9.628,5.079c-0.641-0.46-1.281-0.919-1.916-1.372
		c2.249-0.351,3.169-2.832,4.796-3.429C130.751,316.998,133.525,316.237,134.944,315.763 M142.546,296.63
		c17.89-2.793-9.262,27.458-8.844,8.405l-7.177,1.098c-1.563-1.965-2.905-5.896-1.864-8.618c1.752-0.248,6.561-0.898,8.985-0.941
		c0.942-5.842,3.575-28.184,3.575-28.184l-28.313,0.949c0,0-5.252,27.154-4.983,30.093l6.171-0.9
		c-0.212,2.889,0.017,6.34,0.877,9.003c-2.267,0.527-5.886,0.933-8.405,1.557c3.362,2.771,0.533,9.244-3.677,9.244
		c-4.375-0.028-14.258-9.911-15.253-13.98c-0.899-6.434,6.711-7.965,10.856-4.168c1.86-10.037,4.545-22.121,5.177-30.874
		c-18.407,0.946,9.895-27.169,9.114-8.762l26.043-0.826l11.158,10.884C145.987,270.608,143.388,290.343,142.546,296.63
		 M150.423,288.63c-0.145,0.416-0.379,1.029-0.905,1.474c-1.638-0.273-2.708-0.781-3.674-1.035c0.737-4.85,0.967-7.257,1.182-9.142
		c1.104,0.218,1.368,0.138,2.436,0.332C147.026,285.242,151.838,284.88,150.423,288.63 M155.472,290.206
		c-1.257,0.283-2.525,0.29-3.825,0.174c3.196-6.447-2.273-4.402-0.261-9.788c0.779,0.128,1.5,0.232,2.133,0.304
		c0.736,7.011,3.608,3.526,5.501,8.393C157.804,289.636,156.573,289.956,155.472,290.206 M161.08,288.672
		c-1.584-5.347-5.678-3.06-5.369-7.679c3.713-0.722,5.014-1.789,5.619-2.177c0.156,2.253,0.173,5.432,0.848,9.532
		C162.178,288.349,161.262,288.802,161.08,288.672 M381.687,109.582l-6.917,4.925l5.582,7.648l6.917-4.925l8.652,11.856
		c0,0-2.844,2.036-4.234,3.017l-5.638-7.508l-7.299,5.195l5.503,7.604l-7.578,5.397l-6.342-8.69l6.209-4.422
		c-2.831-3.811-6.383-8.746-6.383-8.746s-1.015,0.713-6.21,4.421c-1.824-2.065-4.041-5.538-4.041-5.538s-4.146,2.963-9.16,6.523
		l4.04,5.539c-1.656,1.12-5.663,4.033-5.663,4.033l6.383,8.747l5.665-4.034c1.204,1.559,6.341,8.69,6.341,8.69l-7.056,5.023
		l-5.534-7.581l-8.204,5.843l5.534,7.582l-3.864,2.751l-9.109-12.31l5.799-4.13c0,0-4.645-7.103-5.063-7.241
		c-2.256,1.696-2.013,1.508-5.861,4.175c-2.723-3.585-4.484-6.146-4.484-6.146c1.185-0.846,3.095-2.211,5.484-3.92
		c5.774-4.129,14.355-10.271,22.351-15.975c4.984-3.556,9.737-6.939,13.438-9.561c2.818-1.996,5.026-3.55,6.257-4.395
		L381.687,109.582z M374.549,92.705c0,0,4.675,5.548,4.941,6.768c0.096,0.436-88.643,62.286-88.643,62.286h-14.104L374.549,92.705z
		 M289.268,149.892l-15.956,11.649h-6.983c-1.516-11.348-3.022-18.986-2.583-30.01h22.535
		C286.843,135.239,288.266,144.987,289.268,149.892 M238.589,131.531h22.992c-0.521,9.953,1.297,19.288,2.326,30.228H236.26
		C237.29,150.808,239.108,141.494,238.589,131.531 M245.713,33.708c0.274-0.53,0.969-1.212,2.003-1.212c0.141,0,4.813,0,4.966,0
		c1.104,0,1.817,1.15,1.87,1.233c0.002,0,0.002,0,0.002,0.001c0.325,0.58,0.611,1.422,0.862,2.643c0,0-5.457-0.961-10.58,0
		C244.826,36.375,245.41,34.296,245.713,33.708 M216.336,58.425c20.079-29.568,50.437-25.585,68.297,0.999
		c-2.913,5.404-3.674-0.221-5.777-2.63c-1.048,1.375-1.703,4.497-3.581,5.017c-2.524-2.24-4.042-7.152-5.923-9.891
		c-1.936,2.711-3.342,7.834-6.038,9.901c-1.467-0.788-2.531-3.698-3.552-5.058c-1.015,1.359-2.085,4.268-3.548,5.057
		c-2.696-2.065-4.096-7.187-6.038-9.892c-1.876,2.72-3.402,7.626-5.901,9.854c-1.793-0.402-2.514-3.707-3.768-4.989
		c-1.049,1.375-1.705,4.497-3.582,5.017c-2.527-2.24-4.043-7.152-5.925-9.891c-1.934,2.711-3.341,7.834-6.038,9.901
		c-1.465-0.788-2.531-3.698-3.549-5.058c-0.823,1.365-2.159,3.695-3.145,4.912c-1.222,0.605-1.892-1.613-2.617-2.324
		C215.774,59.065,216.336,58.425,216.336,58.425 M212.428,68.076c2.71-0.582,3.006-4.734,0.354-5.65l-0.058-4.494
		c0.301,0.544,0.604,1.109,0.907,1.668c0.247,0.455,0.496,0.904,0.747,1.337c0.283,0.483,0.568,0.944,0.861,1.361
		c1.273,1.817,2.65,2.773,4.291,1.136c0.576-0.576,1.186-1.465,1.833-2.758c0.673,1.389,1.315,2.313,1.928,2.876
		c1.537,1.413,2.897,0.543,4.129-1.148c0.899-1.237,1.729-2.909,2.509-4.448c0.026-0.054,0.054-0.107,0.081-0.16
		c0.294-0.578,0.578-1.131,0.857-1.633c0.029-0.052,0.058-0.105,0.086-0.156l0,0c2.218,3.97,5.446,13.221,9.628,4.84
		c2.073,4.497,5.068,4.412,6.84,0.156c0.903-1.553,1.864-3.393,2.705-5.002c2.355,4.145,5.437,13.314,9.587,4.676
		c4.146,8.549,7.112-0.295,9.592-4.67c2.196,3.912,5.552,13.412,9.602,4.745c2.528,5.412,4.808,3.655,6.686,0.663
		c0.338-0.54,0.665-1.12,0.977-1.707c0.493-0.926,0.952-1.865,1.371-2.68v5.275c-3.176,0.639-2.872,5.563,0.365,5.797
		c-0.025,0-0.157-0.002-0.365,0c-0.26,0-17.573-0.002-18.204,0c3.638-0.318,3.354-5.957-0.334-5.888
		c-3.689-0.069-3.972,5.571-0.332,5.888h-18.578c3.64-0.316,3.356-5.959-0.332-5.888c-3.69-0.069-3.973,5.571-0.332,5.888h-18.579
		c3.641-0.318,3.358-5.959-0.331-5.888c-3.69-0.069-3.973,5.571-0.332,5.888h-18.272h-0.283
		C212.263,68.1,212.39,68.085,212.428,68.076 M207.469,70.866c0-1.273,1.377-1.182,1.733-1.182h82.759c1.169,0,1.049,2.362,0,2.362
		c-0.84,0-81.219,0.002-82.636,0C208.662,72.047,207.469,72.046,207.469,70.866 M209.853,74.637c0.101-0.286,0.232-0.59,0.441-0.999
		h79.692c1.019,0.527,4.338,10.901,4.338,10.901s-1.354,2.15-2.37,3.395c-0.307,0.542-1.354,0.717-1.79,0.289
		c-1.183-1.498-2.797-4.328-3.764-5.972c-1.141,1.483-2.738,5.758-4.493,6.272c-2.832-1.328-5.671-9.828-7.62-12.497
		c-1.929,3.354-4.333,8.646-6.593,11.96c-2.377,2.362-4.378-4.406-5.44-5.703c-1.545,1.635-2.398,5.894-4.766,6.189
		c-0.353-0.049-0.655-0.233-0.856-0.523c-2.225-3.303-4.641-8.472-6.506-11.878c-1.859,3.4-4.284,8.581-6.507,11.88
		c-0.2,0.288-0.503,0.473-0.853,0.521c-2.369-0.293-3.223-4.557-4.77-6.189c-1.033,1.244-3.061,8.07-5.439,5.703
		c-2.262-3.322-4.66-8.598-6.593-11.96c-1.95,2.67-4.782,11.159-7.618,12.497c-1.756-0.51-3.354-4.791-4.495-6.272
		c-2.917,4.604-4.519,10.182-7.507,1.914C207.088,81.163,209.823,74.703,209.853,74.637 M202.503,93.771
		c0.475-0.257,2.318-2.595,0.232-4.883l-0.201-6.865c0.367,0.662,0.735,1.355,1.105,2.05c0.921,1.728,1.854,3.452,2.842,4.71
		c1.445,1.842,3.008,2.672,4.815,1.014c0.79-0.726,1.626-1.919,2.52-3.718c0.861,1.772,1.676,2.958,2.451,3.69
		c1.843,1.738,3.456,0.863,4.918-1.042c1.038-1.354,2-3.222,2.91-5.045c0.633-1.264,1.24-2.506,1.835-3.532
		c0.385,0.675,0.79,1.475,1.216,2.326c0.983,1.962,2.075,4.201,3.279,5.85c1.379,1.885,2.903,2.979,4.576,1.994
		c0.105-0.066,0.215-0.128,0.312-0.209c0.003-0.004,0.007-0.007,0.01-0.01c0.881-0.652,1.799-1.885,2.76-3.901
		c0.893,1.932,1.756,3.142,2.591,3.813c0.316,0.253,0.626,0.433,0.933,0.54c0.024,0.008,0.047,0.019,0.068,0.025
		c1.491,0.465,2.879-0.705,4.152-2.496c1.214-1.711,2.323-3.984,3.313-5.963c0.343-0.686,0.673-1.337,0.986-1.915
		c0.41,0.739,0.838,1.593,1.283,2.483c0.964,1.928,2.014,4.041,3.154,5.612c1.527,2.104,3.22,3.222,5.087,1.607
		c0.802-0.694,1.637-1.884,2.505-3.731c1.072,2.172,2.076,3.445,3.019,4.068c1.659,1.093,3.133,0.148,4.463-1.613
		c1.1-1.453,2.102-3.455,3.03-5.324c0.578-1.16,1.128-2.27,1.654-3.156c0.343,0.625,0.701,1.34,1.076,2.092
		c0.99,1.985,2.099,4.246,3.311,5.936c1.271,1.77,2.653,2.91,4.14,2.427c0.002,0,0.003-0.001,0.004-0.002
		c0.271-0.089,0.545-0.234,0.822-0.438c0.019-0.012,0.036-0.021,0.054-0.034c0.032-0.024,0.065-0.059,0.097-0.084
		c0.852-0.685,1.733-1.926,2.644-3.915c0.813,1.696,1.586,2.841,2.327,3.566c0.593,0.578,1.162,0.888,1.712,0.97
		c0.034,0.004,0.065,0.013,0.099,0.016c1.187,0.123,2.282-0.773,3.315-2.143c1.139-1.508,2.197-3.588,3.206-5.516
		c0.214-0.407,0.424-0.808,0.633-1.193l0.04,6.599c-0.701,0.23-0.964,0.774-1.273,1.345c-0.488,0.904-0.488,2.063,0.002,2.967
		c0.309,0.57,0.572,1.062,1.271,1.292v1.414c-7.955-0.054-87.249-0.063-95.297-0.022V93.771z M197.438,99.515
		c-0.449-0.003-0.7-0.38-0.729-0.638c-0.027-0.264-0.039-0.763-0.024-0.977c0-0.001,0-0.002,0-0.004v-0.002
		c0-0.1,0-0.742,0.866-0.742H299.59c0.479-0.002,1.219,0,1.914,0c0.496,0,0.972,0,1.311,0l0,0c0.106-0.003,0.198,0.021,0.283,0.057
		c0.006,0.002,0.012,0.004,0.019,0.008c0.068,0.031,0.131,0.071,0.185,0.124c0.096,0.091,0.17,0.207,0.223,0.343
		c0.131,0.333,0.139,0.762,0.037,1.123c-0.074,0.262-0.206,0.485-0.391,0.607c-0.007,0.004-0.015,0.009-0.021,0.014
		c-0.025,0.016-0.055,0.025-0.083,0.036c-0.078,0.032-0.16,0.054-0.252,0.051l0,0c-0.646-0.001-1.421,0-2.163,0
		c-0.447,0-0.886,0-1.271,0C299.38,99.515,197.819,99.517,197.438,99.515 M290.448,111.473c-0.009,0.001-0.017,0.01-0.022,0.016
		l-0.012-0.016l-0.019,0.035c-0.165,0.151-0.985,1.833-1.063,1.984c-0.049,0.094-0.055,0.123,0.006,0.016
		c-0.597,1.221-2.951,6.813-4.858,4.216c-0.289-0.425-0.712-0.771-1.005-1.248c-0.05-0.081-0.102-0.163-0.15-0.244
		c-0.003-0.005-0.006-0.011-0.01-0.017c-0.686-1.135-1.376-2.384-2.06-3.664c-0.873-1.642-1.731-3.332-2.55-4.898
		c-0.431-0.827-0.851-1.617-1.254-2.348c-0.154-0.278-0.307-0.55-0.455-0.809c-0.743,1.012-1.663,2.937-2.676,5.045
		c-1.233,2.568-4.86,9.555-5.82,8.892c0,0.001-0.001,0.001-0.001,0.001h-0.002c-1.045-0.101-2.813-3.166-3.514-4.449
		c-0.514-0.941-0.983-1.809-1.393-2.367l-0.104-0.18l-0.105,0.181c-0.407,0.555-0.876,1.42-1.389,2.356
		c-0.701,1.283-1.48,2.682-2.285,3.574c-0.406,0.451-0.82,0.777-1.234,0.883h-0.001h-0.001c-0.575-0.194-1.209-0.82-1.867-1.709
		c-1.391-1.875-2.891-4.925-4.159-7.585c-0.944-1.979-1.764-3.743-2.317-4.642c-0.544,0.884-1.362,2.644-2.308,4.625
		c-1.274,2.664-2.781,5.729-4.171,7.607c-0.661,0.891-1.294,1.517-1.862,1.703c-0.002,0-0.004,0-0.004,0l0,0
		c-0.413-0.104-0.825-0.428-1.231-0.879c-0.805-0.889-1.584-2.286-2.285-3.57c-0.514-0.941-0.984-1.809-1.392-2.365l-0.106-0.18
		l-0.106,0.181c-0.406,0.558-0.875,1.421-1.387,2.358c-0.699,1.283-1.479,2.681-2.283,3.572c-0.408,0.451-0.82,0.78-1.234,0.885l0,0
		h-0.002c-1.757-0.252-4.688-6.536-5.939-9.123c-0.693-1.43-1.353-2.762-1.97-3.77l-0.587-1.045l-0.058,0.102
		c-0.025-0.034-0.052-0.07-0.078-0.102c-0.443,0.895-0.942,1.901-1.476,2.96c-1.085,2.163-2.316,4.553-3.546,6.737
		c-0.744,1.322-1.487,2.57-2.195,3.641c-0.816,0.965-1.696,0.616-2.53-0.289c-0.699-0.948-1.735-2.76-2.506-4.16
		c-0.51-1.054-0.88-1.867-1.03-1.912c-0.112,0.054-0.313,0.386-0.576,0.875l-0.416,0.633c-0.149,0.227-0.349,0.595-0.626,1.104
		c-0.18,0.329-1.655,2.76-2.044,3.299c-0.457,0.5-0.924,0.845-1.38,0.934c-0.187,0.037-0.369,0.032-0.552-0.025
		c-0.231-0.074-0.46-0.234-0.678-0.496c-0.001,0-0.003-0.002-0.003-0.003c-1.537-2.021-2.673-3.702-3.423-5.335
		c-0.668-1.453-1.025-2.871-1.063-4.451c-0.047-1.929,0.373-4.103,1.277-6.9h99.54c0.072,0.239,0.14,0.493,0.207,0.744
		c0.06,0.216,0.115,0.434,0.17,0.658c0.023,0.098,0.048,0.197,0.069,0.297c0.045,0.191,0.092,0.381,0.134,0.576
		c0.218,1.006,0.398,2.064,0.537,3.126c0.025,0.192,0.05,0.382,0.07,0.573c0.022,0.192,0.043,0.384,0.062,0.574
		c0.04,0.39,0.07,0.775,0.097,1.156c0.003,0.035,0.007,0.07,0.008,0.105c0.031,0.492,0.052,0.984,0.063,1.477
		c0,0-0.002,0.002-0.002,0.003c-0.211,0.388-0.413,0.759-0.607,1.122c-0.457,0.852-0.912,1.703-1.381,2.547
		c-0.025,0.039-1.194,2.113-1.553,2.695c-0.335,0.496-0.651,0.878-0.964,1.147c-0.276,0.185-0.591,0.357-0.751,0.39
		c-0.157,0.025-0.319,0.041-0.481,0.048c-0.655-0.111-1.369-0.755-2.258-2.013c-0.755-1.066-1.637-2.575-2.717-4.579l0.364,0.555
		C290.676,111.842,290.448,111.473,290.448,111.473 M196.578,125.986v-2.378c0.12-0.093,0.214-0.206,0.313-0.317
		c0.085-0.096,0.161-0.195,0.231-0.303c0.062-0.096,0.124-0.191,0.173-0.295c0.02-0.042,0.041-0.08,0.06-0.122
		c0.311-0.739,0.311-1.616,0-2.356c-0.019-0.041-0.04-0.081-0.059-0.121c-0.05-0.104-0.112-0.199-0.174-0.296
		c-0.07-0.107-0.146-0.207-0.231-0.304c-0.099-0.11-0.192-0.224-0.313-0.316v-8.665c0.382,0.712,0.757,1.442,1.129,2.173
		c1.047,2.055,2.069,4.088,3.146,5.604c1.747,2.462,3.635,3.545,5.989,1.115c0.861-0.89,1.784-2.237,2.786-4.17
		c0.748,1.638,1.471,2.842,2.166,3.689c0.465,0.567,0.919,0.976,1.36,1.243c0.581,0.351,1.143,0.461,1.685,0.382
		c0.985-0.144,1.907-0.914,2.768-2.024c1.292-1.668,2.447-4.095,3.473-6.289c0.75-1.604,1.431-3.083,2.043-4.049
		c0.561,0.863,1.206,2.34,1.943,3.979c0.948,2.105,2.047,4.479,3.313,6.158c1.571,2.087,3.398,3.103,5.51,1.217
		c0.906-0.811,1.866-2.154,2.879-4.182c0.364,0.719,0.97,1.857,1.73,2.894c0.709,0.965,1.554,1.841,2.465,2.208
		c0.639,0.257,1.31,0.26,1.99-0.131c0.019-0.012,0.039-0.025,0.057-0.037c0.133-0.08,0.26-0.181,0.399-0.285
		c3.5-2.666,6.711-11.244,6.718-11.256c0.551,0.864,1.172,2.268,1.874,3.811c0.884,1.941,1.895,4.105,3.054,5.694
		c0.716,0.98,1.485,1.74,2.314,2.098c0.483,0.208,0.987,0.278,1.512,0.173c0.691-0.135,1.419-0.572,2.185-1.397
		c0.768-0.825,1.573-2.038,2.421-3.724c0.764,1.597,1.5,2.766,2.209,3.587c0.725,0.841,1.418,1.313,2.085,1.499
		c0.467,0.127,0.917,0.117,1.355-0.01c0.86-0.25,1.665-0.941,2.419-1.878c1.291-1.603,2.43-3.92,3.411-5.957
		c0.771-1.596,1.446-3.018,2.03-3.792c0.438,0.68,0.968,1.795,1.58,3.076c0.911,1.909,2.005,4.185,3.25,5.924
		c0.972,1.357,2.036,2.387,3.18,2.661c0.011,0.001,0.02,0.005,0.03,0.005c0.004,0,0.007,0,0.01,0.002
		c0.556,0.124,1.13,0.072,1.723-0.211c0.481-0.231,0.976-0.613,1.479-1.176c0.712-0.797,1.447-1.948,2.2-3.537
		c0.754,1.479,1.473,2.57,2.163,3.354c0.588,0.667,1.156,1.104,1.703,1.346c0.6,0.263,1.172,0.296,1.729,0.146
		c1.014-0.273,1.963-1.145,2.872-2.332c1.213-1.585,2.354-3.72,3.476-5.715c0.431-0.765,0.857-1.508,1.284-2.191v8.532
		c-0.618,0.259-1.055,0.715-1.33,1.255c-0.435,0.862-0.435,1.938,0.002,2.799c0.273,0.54,0.712,0.996,1.328,1.254v1.939v0.194
		H196.578V125.986z M194.102,129.941c-0.231,0.004-0.391-0.078-0.506-0.201c-0.15-0.163-0.223-0.404-0.249-0.662
		c-0.026-0.264-0.013-0.538,0-0.751c0-0.002,0-0.003,0-0.003c0-0.002,0.001-0.002,0.001-0.005c0.005-0.229,0.083-0.386,0.205-0.498
		c0.169-0.159,0.426-0.223,0.698-0.243c0.247-0.02,0.505-0.006,0.715,0c0.001,0,0.002,0,0.003,0h110.315
		c0.175-0.006,0.429-0.018,0.684,0c0.204,0.015,0.409,0.049,0.574,0.125c0.231,0.105,0.388,0.293,0.361,0.617
		c0,0.002,0.002,0.002,0.002,0.004c-0.042,0.359,0.033,0.895-0.121,1.25c-0.094,0.219-0.277,0.371-0.634,0.367h-0.001H194.102
		 M213.886,131.531h22.534c0.44,11.022-1.064,18.663-2.581,30.01h-6.983l-15.957-11.649
		C211.902,144.985,213.326,135.233,213.886,131.531 M166.013,143.428c-3.85-2.667-3.605-2.479-5.862-4.175
		c-0.417,0.139-5.519,7.693-5.519,7.693l5.799,4.129l-8.653,11.858l-3.863-2.751l5.533-7.582l-8.206-5.843l-5.532,7.581
		l-7.056-5.023c0,0,5.528-7.691,6.731-9.249l5.666,4.034l5.992-8.188c0,0-4.008-2.913-5.665-4.033l4.041-5.539
		c-5.014-3.561-9.162-6.523-9.162-6.523s-2.215,3.473-4.041,5.538c-5.194-3.708-6.209-4.421-6.209-4.421s-3.551,4.936-6.383,8.746
		l6.21,4.422l-6.342,8.69l-7.579-5.397l5.504-7.604l-7.299-5.195l-5.638,7.508c-1.392-0.98-4.233-3.017-4.233-3.017l8.652-11.856
		l6.917,4.925l5.581-7.648l-6.917-4.925l4.487-6.15c1.202,0.824,3.412,2.381,6.253,4.392l3.466,2.436l10.192,7.284
		c8.088,5.771,16.748,11.967,22.449,16.044c2.263,1.617,4.061,2.903,5.169,3.694C170.497,137.281,168.735,139.843,166.013,143.428
		 M121.101,99.347c-0.543-0.48,4.655-6.455,5.004-6.563c0.231,0.163,0.51,0.36,0.81,0.572l1.023,0.721
		c0.038,0.028,0.077,0.055,0.116,0.082c0.827,0.586,1.813,1.281,2.932,2.07c2.057,1.451,4.573,3.227,7.447,5.257
		c0.658,0.464,1.339,0.944,2.031,1.435c0.908,0.641,1.843,1.299,2.807,1.979c0.641,0.452,1.294,0.913,1.956,1.382
		c1.745,1.23,3.564,2.516,5.445,3.844c0.858,0.605,1.729,1.218,2.61,1.842c4.173,2.944,8.593,6.064,13.107,9.252
		c1.217,0.858,2.439,1.721,3.666,2.588c5.719,4.037,11.519,8.129,17.097,12.066c0.73,0.517,1.456,1.029,2.179,1.539l1.08,0.762
		c7.309,5.159,14.108,9.959,19.676,13.888c6.896,4.869,11.901,8.402,13.616,9.611l-14.408-0.132L121.101,99.347z M335.49,279.179
		c-1.065,18.005-7.878,29.407-21.72,41.006c-11.57,9.695-62.758,33.938-62.841,33.944c-0.211,0.012-53.518-24.03-65.102-33.871
		c-13.393-11.377-21.461-24.167-21.506-43.803c-0.04-16.843,0.177-32.823,0.178-40.714c8.996-6.544,13.813-9.285,23.168-15.332
		c4.266-2.76,9.884-5.569,15.444-5.493c7.182,0.099,13.592,3.331,18.242,6.524c5.533,3.801,11.124,10.551,18.199,11.184
		c4.746,0.426,8.835-1.58,12.701-4.093c3.43-2.229,6.855-4.722,10.88-5.527c4.777-0.957,9.774,0.646,13.889,3.229
		c5.658,3.551,7.849,6.547,11.731,9.813c2.282,1.921,10.235,6.646,19.383,5.723c4.687-0.474,8.627-2.625,12.881-4.425
		c4.287-1.812,10.138-1.471,14.703-0.389C336.098,237.045,336.113,268.64,335.49,279.179 M334.75,234.056
		c-4.28-0.839-10.072-0.228-14.307,1.137c-2.272,0.733-4.353,1.875-6.495,2.901c-5.131,2.459-12.971,1.674-17.07,0.083
		c-4.325-1.68-7.192-3.352-10.271-6.277c-6.818-6.487-13.872-13.199-25.489-10.704c-3.54,0.759-6.465,2.73-9.293,4.638
		c-3.877,2.613-7.531,5.088-12.664,4.627c-4.017-0.357-8.348-3.882-12.539-7.289c-3.025-2.46-6.154-5.003-9.221-6.391
		c-10.951-4.958-17.528-5.708-28.021,0.113c-2.968,1.646-19.724,12.408-25.161,15.908c0.004-11.413,0.018-22.811,0.031-33.122
		c0.018-16.486,0.032-29.849,0.009-34.971h171.657c-0.024,5.122-0.008,18.484,0.009,34.971c0.014,10.773,0.027,22.733,0.033,34.655
		C335.554,234.243,335.149,234.135,334.75,234.056 M355.519,250.716c6.446-3.353,10.922,2.529,6.948,8.266
		c-2.559,2.54-9.318,11.131-13.358,10.632C335.993,267.524,350.063,253.697,355.519,250.716 M350.652,251.646
		c-2.198,1.857-3.959,3.426-5.793,5.679c-2.099-1.487-5.697-3.65-5.697-3.919l-0.095-9.748
		C342.578,246.176,347.3,249.233,350.652,251.646 M408.554,180.183c0.617-0.804,2.427-1.463,3.021-0.852
		c4.788,2.109-29.465,38.178-23.746,22.686C394.645,195.785,403.247,188.126,408.554,180.183 M407.391,174.383
		c4.63,4.509-15.112,21.398-19.204,24.738c-0.89,0.6-2.753,1.838-3.736,0.132c-1.128-1.03,4.485-5.31,5.053-5.844
		c6.678-6.292,10.873-11.689,16.307-18.913C406.058,174.167,406.299,173.318,407.391,174.383 M403.975,168.544
		c4.318,3.246-5.74,13.286-6.339,13.889c-0.983,1.028-16.411,18.994-15.852,11.031c9.42-9.264,11.246-10.164,19.154-22.053
		C401.517,170.54,402.512,168.239,403.975,168.544 M398.998,164.619c9.5,1.28-14.263,23.844-17.856,26.196
		c-1.784,1.235-4.03-1.118-2.787-2.057C389.772,179.242,389.435,178.772,398.998,164.619 M395.982,158.327
		c5.771,5.879-9.198,20.408-16.032,26.902c-1.126,0.857-2.251,2.767-3.943,0.834c-0.727-1.16-1.108-1.594,0.644-3.066
		c1.901-1.594,4.941-5.433,6.868-7.693c4.194-4.922,8.82-12.963,10.047-15.512C394.579,157.687,395.476,158.166,395.982,158.327
		 M389.239,153.368c5.733,1.887,1.56,8.588,0.288,10.525c-0.354,1.043-12.823,18.175-15.229,18.117
		c-0.557,0.024-1.936-1.994-1.651-2.918c0.298-0.967,2.951-2.949,3.844-4.06C391.534,156.311,387.046,152.646,389.239,153.368
		 M379.894,157.081c0.912-2.398,1.984-9.75,3.898-9.329c2.965,0.649,2.959,2.29,2.965,4.609c0.02,6.942-6.798,16.26-11.419,21.253
		c-1.734,1.874-5.272,6.191-5.932,1.853C373.496,170.31,377.478,163.427,379.894,157.081 M363.113,177.472
		c0.957-0.923,3.936-2.137,4.71-0.773c0,0,15.78,26.026,18.7,30.295c2.978,5.925-4.414,10.551-9.2-0.759l-16.087-25.167
		C360.465,179.106,362.762,177.811,363.113,177.472 M361.091,184.668c0.465,0.776,16.054,24.929,15.691,24.812
		c-11.754,5.742-24.682,7.264-37.918,5.475c-0.008-8.357-0.02-16.342-0.026-24.369C345.894,190.04,356.556,188.337,361.091,184.668
		 M338.847,275.369c0.018-5.771,0.025-12.053,0.032-18.607c2.107,1.283,4.629,2.885,4.333,2.808
		c-4.937,6.134,1.687,14.523,8.837,11.643l0.846,6.704c-2.115,0.718-11.812,1.522-14.087-0.294
		C338.83,276.877,338.845,276.129,338.847,275.369 M339.065,288.672c-0.249-0.054-1.379-0.511-1.379-0.511
		c0.696-3.576,0.841-4.948,1.158-8.124c1.016,0.269,1.477,0.805,5.59,0.956C344.744,285.617,340.667,283.304,339.065,288.672
		 M348.741,284.071c-1.76,2.163-1.66,4.132-0.551,6.309c-3.4-0.073-4.853-0.389-7.373-1.092c1.889-4.859,4.768-1.389,5.5-8.393
		c0.634-0.071,1.354-0.176,2.133-0.304C348.646,281.565,349.515,283.121,348.741,284.071 M350.627,290.104
		c-3.811-4.947,2.789-4.249,0.059-9.845c1.066-0.194,1.331-0.114,2.435-0.332c0.214,1.885,0.445,4.292,1.183,9.142
		C353.337,289.322,352.266,289.83,350.627,290.104 M320.427,354.652l-1.475,0.236c-0.229-0.473-0.614-0.946-1.055-1.421
		l13.902-9.564l-15.482,7.963c-0.199-0.229-0.401-0.441-0.587-0.65c-0.332-0.374-0.602-0.736-0.716-1.139
		c-0.084-0.304-0.086-0.629,0.064-1.009l16.931-8.485l-15.737,5.91c-0.173-0.323-0.685-0.701-1.243-1.135
		c-0.682-0.529-1.429-1.143-1.728-1.843c-0.155-0.363-0.197-0.749-0.032-1.16l17.49-4.659l-17.577,2.456
		c-0.696-0.47-1.179-0.776-1.482-1.047c-0.398-0.354-0.482-0.652-0.335-1.168c0.1-0.348,0.304-0.79,0.595-1.423l17.251-2.938
		l-17.683,0.857c-0.213-0.272-0.496-0.551-0.881-0.834l0.672-0.795c6.817-1.062,13.346-2.75,19.921-4.135
		c-0.198,0.984-0.032,2.169,0.365,3.447c0.55,1.77,1.55,3.717,2.668,5.547c1.37,2.245,2.912,4.315,4.015,5.679
		c0.22,0.271,0.424,0.519,0.604,0.73C332.731,347.596,326.536,351.064,320.427,354.652 M341.021,342.849
		c-0.257-0.285-0.556-0.628-0.882-1.017c-1.123-1.337-2.591-3.228-3.871-5.259c-1.069-1.698-2.006-3.489-2.502-5.132
		c-0.359-1.191-0.485-2.305-0.261-3.245c0.729-0.145,1.462-0.262,2.192-0.394c-0.132,1.082,0.225,2.406,0.857,3.813
		c0.741,1.645,1.864,3.398,3.038,5c1.455,1.988,2.987,3.743,3.969,4.769C342.716,341.873,341.866,342.359,341.021,342.849
		 M345.997,339.972c-0.076-0.076-0.157-0.156-0.242-0.241c-0.021-0.022-0.047-0.049-0.07-0.073
		c-1.039-1.048-2.539-2.673-3.926-4.468c-1.073-1.385-2.079-2.87-2.748-4.262c-0.64-1.332-0.972-2.577-0.763-3.571
		c0.965-0.149,1.938-0.271,2.911-0.393c-0.179,1.193,0.197,2.506,0.884,3.81c0.86,1.632,2.205,3.247,3.569,4.601
		c1.214,1.206,2.44,2.204,3.345,2.813C347.968,338.78,346.99,339.388,345.997,339.972 M351.361,336.739
		c-0.947-0.554-2.171-1.432-3.365-2.489c-1.283-1.14-2.53-2.487-3.359-3.875c-0.739-1.239-1.146-2.507-0.938-3.681
		c1.082-0.099,2.164-0.203,3.26-0.252c-0.002,0.507,0.032,0.968,0.083,1.411c0.142,1.215,0.477,2.201,0.97,3.022
		c0.755,1.254,1.875,2.14,3.239,2.898c1.174,0.538,2.309,0.897,2.802,1.345C353.163,335.671,352.255,336.196,351.361,336.739
		 M356.415,333.629c-0.441-0.235-1.219-0.437-2.073-0.702c-1.177-0.328-2.501-0.772-3.246-1.688
		c-0.368-0.385-0.644-0.841-0.753-1.401c0.814,0.344,1.484,0.445,2.089,0.482l0.359-0.028c0.414-0.071,1.015-0.104,1.88,0.238
		c0.832,0.245,1.754,0.836,3.006,2.305C357.259,333.104,356.835,333.362,356.415,333.629 M359.609,331.579
		c-0.435-0.699-0.932-1.204-1.475-1.586c-0.955-0.668-2.042-0.941-3.148-1.152c-0.822-0.036-1.624-0.006-2.859-0.585
		c-0.131-0.06-0.253-0.125-0.373-0.189c-0.857-0.352-1.647-0.894-2.297-1.824c0.534-0.237,1.117-0.532,1.736-0.866
		c1.773,0.023,2.992,0.342,3.967,0.841c1.137,0.582,1.944,1.412,2.89,2.322c0.751,0.724,1.591,1.493,2.767,2.229
		C360.412,331.036,360.014,331.313,359.609,331.579 M362.659,329.527c-1.223-0.46-2.148-1.115-2.979-1.816
		c-0.962-0.81-1.8-1.682-2.832-2.388c-0.892-0.609-1.924-1.096-3.306-1.313c0.926-0.487,1.708-0.801,2.379-0.977
		c1.296-0.337,2.17-0.149,2.844,0.317c0.308,0.129,0.587,0.292,0.809,0.515c0.362,0.361,0.569,0.824,0.813,1.362
		c0.058,0.131,0.121,0.268,0.188,0.407c0.586,0.944,1.229,1.903,2.296,2.474c0.363,0.195,0.776,0.346,1.256,0.433
		C363.642,328.877,363.145,329.195,362.659,329.527 M366.571,326.826c-5.678-0.278-3.036-4.671-8.388-5.894
		c1.043-0.731,2.093-1.484,3.139-2.255c5.775-0.313,3.386,4.601,9.605,5.022C369.318,324.858,367.814,325.938,366.571,326.826
		 M373.393,321.932c-7.015,0.239-4.612-4.207-9.627-5.079c0.483-0.365,0.968-0.731,1.437-1.09c1.422,0.475,4.189,1.234,5.313,1.368
		c1.621,0.594,2.553,3.082,4.795,3.429C374.675,321.013,374.032,321.472,373.393,321.932 M377.712,318.716
		c-5.243-0.647-5.05-4.522-10.717-4.343c2.066-2.85,8.68-2.313,9.014-0.927c0.506,1.146,2.718,3.14,4.235,3.114
		C379.395,317.325,378.474,318.096,377.712,318.716 M366.563,312c1.229-1.323,1.659-2.743,1.923-4.841l3.442,0.627
		C371.802,307.922,367.983,310.943,366.563,312 M382.452,314.302c-4.426,1.576-2.59-4.051-10.547-3.701
		c1.043-0.8,1.744-1.553,2.431-2.136c5.941-0.921,5.279,1.972,10.265,2.936C383.956,312.448,383.224,313.406,382.452,314.302
		 M386.138,308.446c-3.382,1.253-4.396-3.113-10.133-1.813c0.561-0.74,1.119-1.659,1.545-2.761c3.975-1.572,6.123,2.658,9.876,0.666
		C387.116,305.882,386.683,307.192,386.138,308.446 M367.265,288.447c-0.377-2.455-1.015-7.761-1.187-8.701
		c1.665,0.326,2.823,0.804,4.273,1.23c0.783,0.638,0.616,2.672,0.105,3.116C368.773,286.063,366.835,285.553,367.265,288.447
		 M367.405,289.171c-0.009-0.001-0.014-0.003-0.021-0.008c-0.029-0.157-0.062-0.355-0.096-0.57
		C367.319,288.774,367.356,288.963,367.405,289.171 M372.895,281.812c2.31,0.843,4.299,1.825,6.021,2.909
		c0.058,4.816-7.035-0.254-6.886,6.173c-0.98-0.456-1.935-0.824-2.738-1.105c-0.082-0.96,0.098-2.227,0.322-2.613
		C370.839,286.061,374.122,284.995,372.895,281.812 M374.743,295.27c-1.665-0.224-4.166-0.536-6.405-0.716
		c-0.149-0.879-0.331-1.904-0.53-3.017C372.003,292.927,373.903,294.27,374.743,295.27 M374.111,292.015
		c-0.732-5.847,6.126,0.202,6.401-6.199c1.025,0.767,1.929,1.576,2.725,2.418c-1.262,5.449-5.479,1.776-7.998,4.719
		C374.79,292.522,374.388,292.212,374.111,292.015 M383.732,291.881c0.199-0.158,1.089-0.99,1.375-1.301
		c1.104,1.647,1.861,3.381,2.313,5.149c-2.828,2.696-6.864-1.498-9.556,1.506c-0.268-0.951-0.801-2.016-1.337-2.764
		C378.434,292.301,381.154,293.997,383.732,291.881 M387.865,301.824c-3.567,2.656-6.236-2.107-9.838,0.377
		c0.169-0.735,0.218-1.136,0.238-2.162c2.071-4.009,6.266,0.403,9.549-2.248C387.984,299.137,387.99,300.486,387.865,301.824
		 M366.107,277.761c-0.14-0.027-0.487-5.294-0.788-7.152l24.116,0.723c1.712,8.949,3.805,20.589,4.451,25.613l-4.131-0.602
		C387.761,288.239,383.237,281.577,366.107,277.761 M416.509,304.354c-0.997,4.07-10.878,13.948-15.254,13.98
		c-4.21,0-7.039-6.474-3.676-9.244c-2.521-0.624-6.14-1.029-8.406-1.557c0.859-2.663,1.09-6.114,0.877-9.003l6.17,0.9
		c0.27-2.938-4.981-30.093-4.981-30.093l-28.313-0.949c0,0,2.632,22.342,3.575,28.184c2.424,0.043,7.233,0.693,8.983,0.941
		c1.043,2.722-0.3,6.653-1.863,8.618l-7.177-1.098c0.414,19.053-26.73-11.198-8.844-8.405c-0.843-6.287-3.439-26.021-3.439-26.021
		l11.158-10.884l26.041,0.826c-0.778-18.408,27.522,9.709,9.115,8.762c0.63,8.753,3.317,20.837,5.177,30.874
		C409.68,296.381,417.497,297.989,416.509,304.354"/>
	<path fill="#999999" d="M248.882,340.063c-4.337-1.08-8.556-2.662-12.545-4.701c-2.185-0.19-5.508-0.609-7.699-0.927
		c0.013-0.006,0.027-0.014,0.041-0.02c-0.717-0.114-2.311-0.363-2.599-0.413l0.002,0.003c-0.525-0.099-2.325-0.423-2.85-0.527
		c0.668,0.552,1.376,1.058,2.104,1.539c0,0,0.86,0.596,1.301,0.812c2.434,1.438,5.089,2.604,7.701,3.737
		c0.238,0.104,0.475,0.207,0.71,0.311c4.304,1.873,10,4.035,15.913,4.114c5.31,0.07,9.231-0.475,12.712-1.769
		c0.388-0.143,0.769-0.298,1.149-0.45c-0.566,0.018-1.133,0.032-1.699,0.032C258.313,341.804,253.539,341.22,248.882,340.063"/>
	<path fill="#999999" d="M262.439,336.437c-3.989,0-7.695-0.687-10.326-1.174l-0.281-0.052c-2.163,0.352-4.683,0.53-7.539,0.53
		c-1.752,0-3.633-0.066-5.632-0.2c3.354,1.561,6.852,2.804,10.433,3.695c5.855,1.456,11.897,1.982,17.966,1.577
		c2.945-1.354,5.702-2.976,8.224-4.852c1.24-0.922,2.437-1.866,3.45-2.987c-4.235,1.751-8.682,2.87-13.248,3.319
		C264.459,336.393,263.44,336.437,262.439,336.437"/>
	<path fill="#999999" d="M277.785,324.211c-0.178,0.133-0.833,0.619-1.779,1.268c-1.115,0.764-2.381,1.629-3.725,2.303
		c-0.066,0.032-0.135,0.066-0.201,0.101c1.368-0.446,2.716-0.954,4.03-1.53c0.923-0.404,1.834-0.846,2.729-1.317
		c1.032-0.542,2.044-1.121,3.03-1.74c-0.008-0.163-0.011-0.329-0.024-0.484h-0.002c-0.058-0.618-0.181-1.139-0.354-1.56
		c-0.039-0.092-0.076-0.184-0.119-0.266c-0.05,0.044-0.1,0.095-0.149,0.14l-0.434,0.407c-0.205,0.192-0.407,0.375-0.617,0.576
		C279.424,322.821,278.653,323.563,277.785,324.211"/>
	<path fill="#999999" d="M240.662,322.156c-0.28-0.097-0.551-0.196-0.812-0.297c-0.009,0.156-0.022,0.378-0.05,0.643
		c-0.116,1.134-0.385,2.532-0.792,3.514c-0.078,0.188-0.171,0.385-0.267,0.576c-0.21,0.545-0.474,1.063-0.778,1.557
		c0.406,0.122,0.813,0.242,1.219,0.362c0.359,0.107,0.721,0.215,1.079,0.32c-0.105-1.946,0.435-4.259,1.364-6.363
		C241.314,322.373,240.992,322.269,240.662,322.156"/>
	<path fill="#999999" d="M226.935,316.506c-0.007-0.049-1.973,0.205-2.878,0.438c-1.704,0.435-3.295,1.39-3.726,1.654
		c0.233,0.433,0.525,0.904,0.893,1.39c0.77,1.015,1.6,1.737,2.283,2.235c0.067-0.363,0.198-0.908,0.465-1.53
		c0.21-0.492,0.795-1.547,1.567-2.563c0.11-0.145,0.225-0.293,0.34-0.438c0.161-0.228,0.292-0.402,0.367-0.489
		c0.225-0.255,0.452-0.479,0.676-0.68c-0.001,0-0.001,0-0.001,0c0.004-0.003,0.007-0.008,0.01-0.011
		C226.933,316.511,226.935,316.509,226.935,316.506"/>
	<path fill="#999999" d="M277.635,318.941c-0.647,0.027-1.13,0.087-1.627,0.202c-0.238,0.055-0.433,0.11-0.571,0.154
		c0.002,0.007,0.007,0.011,0.009,0.018c0.426,0.428,0.852,1.529,0.896,1.627c0.02,0.046,0.416,0.95,0.537,1.988
		c0.656-0.444,1.192-0.854,1.598-1.176c0.522-0.42,0.827-0.686,1.721-1.464c0.371-0.322,0.465-0.438,0.662-0.603
		c-0.415-0.345-0.737-0.536-1.438-0.66C278.931,318.94,278.391,318.912,277.635,318.941"/>
	<path fill="#999999" d="M210.079,287.08c0-0.028,0.095-2.921,0.929-3.363c0.193-0.104,0.407-0.088,0.601,0.046
		c0.286,0.194,0.645,0.783,0.629,1.142c-0.007,0.176-0.02,0.386-0.034,0.627c-0.063,1.025-0.16,2.574-0.028,4.602
		c0.517,7.9,2.75,16.706,6.292,24.798c0.063,0.148,0.114,0.263,0.146,0.355c0.332,0.583,0.753,1.441,0.973,1.9
		c0.215-0.156,0.503-0.359,0.695-0.469c0.266-0.152,0.95-0.453,1.334-0.621c-2.614-5.867-3.958-15.99-4.305-20.587
		c-0.635-8.362-0.239-8.754-0.05-8.94c0.345-0.343,0.638-0.331,0.822-0.257c0.719,0.279,0.922,1.985,1.008,4.463
		c0.172,5.111,0.449,8.597,0.929,11.649c0.602,3.844,3.085,11.531,3.578,13.033c2.186-0.583,3.155-0.549,3.75-0.523
		c0.041,0.001,0.081,0.003,0.119,0.005l-0.071-0.321c-1.103-5.006-3.159-14.323-2.606-19.217c0.027-0.252,0.049-0.52,0.068-0.778
		c0.078-0.988,0.132-1.705,0.563-1.864c0.176-0.072,0.39-0.028,0.573,0.116c0.381,0.292,0.73,1.082,0.571,2.42
		c-0.435,3.659,1.624,14.295,2.914,19.3c0.114-0.046,0.221-0.097,0.422-0.223c0.335-0.214,1.474-1.009,2.01-2.277
		c0.178-0.419,0.179-0.616,0.183-1.274c0.002-0.205,0.004-0.452,0.011-0.754c-0.059-0.712-0.055-1.433,0.011-2.238
		c0.012-1.514,1.149-3.245,1.727-3.79c0.199-0.188,0.468-0.391,0.69-0.527c-0.768-2.923-1.539-6.298-1.641-9.592
		c-0.849,0.826-2.116,2.008-2.488,2.098c-0.652,0.154-1.244-0.26-1.634-0.586c-1.355-1.137-2.43-2.582-3.123-4.2
		c-0.403,0.29-0.916,0.452-1.454,0.458c-0.701-0.019-1.353-0.254-1.796-0.716c-0.429-0.447-0.653-1.021-0.833-1.522
		c-0.3-0.844-0.495-1.722-0.684-2.571c-0.15-0.677-0.306-1.375-0.511-2.042c-0.147,0.072-0.328,0.168-0.488,0.254
		c-1.143,0.607-1.565,0.801-1.843,0.689c-0.374-0.143-0.634-0.764-0.89-1.44l-0.069-0.183c-0.24-0.584-0.469-1.648-0.69-2.677
		c-0.104-0.487-0.203-0.957-0.295-1.314c-2.633,2.534-4.608,3.305-5.818,3.5c-0.029,0.005-2.826,0.412-3.195-0.121
		c-0.08-0.114-0.082-0.257-0.01-0.382c0.382-0.642,0.616-1.108,0.759-1.44c-0.899,0.706-2.417,1.46-4.943,0.669
		c-0.374-0.117-0.642-0.238-0.813-0.374c-0.345,0.309-0.967,0.817-1.484,0.975c-1.414,0.437-2.303,0.398-2.719-0.115
		c-0.254-0.311-0.263-0.727-0.186-1.108l-1.232,0.973c0.575,4.63,1.432,9.234,2.547,13.691c1.234,4.919,2.453,8.382,3.07,10.007
		c0.727,1.917,1.719,4.543,3.489,7.788c1.084,1.989,2.307,3.929,3.636,5.768c0.467-0.921,1.426-2.828,1.678-3.331
		c-0.693-1.429-6.869-14.513-7.308-28.223c-0.094-1.475-0.217-4.964,0.689-5.353c0.06-0.025,0.133-0.045,0.216-0.045
		c0.16,0,0.361,0.073,0.586,0.309l0.055,0.081c0.216,0.482,0.22,0.774,0.227,1.482c0.01,1.219,0.034,3.756,1.115,10.987
		c0.794,5.319,2.626,11.405,5.761,19.15c0.207,0.542,0.899,2.299,1.663,3.479c0.186,0.285,1.086,1.647,1.932,2.402
		c0.61-0.976,1.24-1.892,2.035-2.578C216.083,315.09,210.38,303.261,210.079,287.08"/>
	<path fill="#999999" d="M302.362,281.812c0.019,0.236-0.022,0.475-0.171,0.681c-0.376,0.521-1.269,0.625-2.728,0.316
		c-0.511-0.107-1.344-0.62-1.859-0.963c-0.056,0.141-0.151,0.309-0.326,0.479c-0.498,0.483-1.993,0.691-3.54,0.18
		c-0.553-0.181-1.071-0.44-1.556-0.776c0.178,0.357,0.435,0.826,0.797,1.435c0.072,0.125,0.069,0.268-0.011,0.382
		c-0.371,0.533-3.166,0.126-3.195,0.121c-2.639-0.426-4.841-2.487-5.898-3.478c-0.066-0.063-0.136-0.127-0.2-0.186
		c-0.089,1.138-0.384,3.023-0.693,4.124c-0.005,0.014-0.413,1.439-0.97,1.654c-0.273,0.104-0.7-0.081-1.843-0.69
		c-0.16-0.086-0.343-0.182-0.488-0.254c-0.207,0.668-0.362,1.368-0.513,2.045c-0.188,0.849-0.384,1.726-0.681,2.568
		c-0.182,0.502-0.407,1.077-0.835,1.523c-0.438,0.455-1.083,0.715-1.773,0.715h-0.021c-0.54-0.005-1.05-0.168-1.456-0.458
		c-0.693,1.618-1.766,3.064-3.122,4.202c-0.388,0.324-0.981,0.742-1.635,0.584c-0.37-0.092-1.631-1.266-2.48-2.09
		c-0.011,1.198-0.048,2.172-0.216,3.104c-0.547,3.086-1.121,4.943-1.572,6.219c0.258,0.162,0.412,0.294,0.42,0.302
		c0.261,0.221,0.447,0.444,0.535,0.557c0.191,0.242,0.755,1.073,1.011,1.701c0.394,0.956,0.6,1.968,0.667,3.28
		c0.036,0.726,0.04,1.228,0.041,1.589c0.005,0.66,0.005,0.856,0.184,1.274c0.291,0.687,0.732,1.163,1.172,1.544l0.393-1.366
		c1.581-5.488,3.968-13.78,3.685-16.843c-0.127-1.365,0.223-2.147,0.593-2.426c0.177-0.132,0.378-0.17,0.554-0.103
		c0.351,0.131,0.594,0.636,0.633,2.669c0.066,3.403-2.363,12.12-3.816,17.327c-0.183,0.658-0.352,1.265-0.5,1.804
		c0.15,0.07,0.358,0.176,0.618,0.321c0.551,0.31,1.578,0.888,2.55,1.994c0.213,0.243,0.444,0.581,0.651,0.88l0.007,0.012
		l0.201-0.025c1.722-3.271,4.603-13.072,5.058-15.325c0.596-2.952,0.754-6.525,0.929-11.64c0.084-2.478,0.288-4.185,1.006-4.464
		c0.183-0.074,0.475-0.085,0.82,0.258c0.191,0.188,0.587,0.577-0.048,8.942l-0.063,0.898c-0.283,4.045-0.604,8.625-5.656,21.157
		c0.287-0.009,0.543-0.016,0.79-0.016c1.242,0,2.208,0.102,2.931,0.307c3.177-9.012,6.69-20.941,7.134-27.725
		c0.131-2.028,0.034-3.579-0.027-4.604c-0.017-0.241-0.027-0.45-0.036-0.625c-0.015-0.359,0.342-0.948,0.628-1.143
		c0.197-0.132,0.409-0.148,0.601-0.049c0.832,0.441,0.932,3.338,0.932,3.367c-0.202,10.743-3.844,21.074-6.506,28.616
		c-0.394,1.119-0.766,2.169-1.097,3.146c0.143,0.155,0.232,0.274,0.232,0.274c0.075,0.1,0.147,0.213,0.218,0.338
		c0.907-0.448,2.308-1.311,3.12-1.993c1.092-0.92,1.657-1.936,2.026-2.72c3.889-8.239,5.616-18.738,5.634-18.843
		c0.588-3.633,1.073-9.166,1.104-10.188c0.009-0.321,0.011-0.579,0.013-0.795c0.006-0.709,0.01-1.003,0.226-1.485l0.054-0.079
		c0.341-0.355,0.626-0.34,0.803-0.263c0.905,0.388,0.782,3.879,0.686,5.361c-0.437,13.72-6.625,26.819-7.305,28.219
		c0.115,0.215,0.358,0.504,0.597,0.785c0.152,0.183,0.312,0.372,0.455,0.562c0.273,0.361,0.575,0.742,0.762,0.974
		c0.977-0.891,3.09-4.048,3.504-4.769c1.626-2.821,2.526-5.224,3.25-7.152l0.236-0.63c0.62-1.637,1.843-5.117,3.069-10.007
		c0.641-2.557,1.823-7.756,2.612-14.06c-0.298-0.074-0.584-0.178-0.856-0.311C302.653,281.987,302.505,281.903,302.362,281.812"/>
	<path fill="#999999" d="M220.806,327.111c0.843,0.336,2.883,0.892,3.759,1.125c1.846,0.462,3.718,0.822,5.598,1.122
		c0.135,0.021,0.27,0.047,0.405,0.067c0.357,0.056,0.715,0.102,1.072,0.153s0.716,0.106,1.073,0.154
		c0.651,0.084,1.302,0.161,1.953,0.234c2.217,0.248,4.444,0.427,6.675,0.544c-1.353-0.325-2.743-0.689-4.288-1.096
		c-0.019,0.023-0.15-0.014-0.367-0.098c-0.332-0.088-0.687-0.186-1.054-0.285c-0.047-0.014-0.095-0.027-0.143-0.04
		c-0.193-0.056-0.389-0.109-0.592-0.169c-0.041-0.011-0.084-0.023-0.124-0.036c-0.351-0.1-0.715-0.208-1.092-0.324
		c-0.155-0.047-0.31-0.094-0.469-0.143c-0.145-0.045-0.291-0.093-0.437-0.139c-0.182-0.058-0.362-0.116-0.548-0.177
		c-0.142-0.047-0.287-0.095-0.435-0.144c-0.203-0.068-0.41-0.139-0.618-0.211c-0.139-0.047-0.277-0.095-0.418-0.146
		c-0.238-0.083-0.481-0.169-0.727-0.26c-0.122-0.043-0.243-0.087-0.367-0.133c-0.372-0.137-0.751-0.28-1.141-0.431
		c-0.06-0.023-0.123-0.05-0.186-0.074c-0.034-0.014-0.067-0.027-0.102-0.041c-0.003,0.002-0.007,0.004-0.009,0.007l-0.157-0.062
		c0.003-0.002,0.006-0.007,0.01-0.009c-0.044-0.018-0.089-0.035-0.133-0.053c-0.122-0.048-0.242-0.095-0.367-0.147
		c-1.001-0.414-2.063-0.904-3.142-1.523c-0.512-0.251-0.9-0.514-1.24-0.776c-0.4-0.268-0.8-0.551-1.194-0.863
		c-0.239-0.19-0.461-0.38-0.674-0.567c-0.247-0.22-0.477-0.438-0.69-0.658c-0.643-0.662-1.145-1.34-1.535-2.075
		c-0.193,0.538-0.387,1.08-0.566,1.627c-0.364,1.117-0.66,2.256-0.715,3.429c-0.008,0.165-0.086,0.466,0.01,0.598
		C218.123,325.895,220.197,326.868,220.806,327.111"/>
	<path fill="#999999" d="M257.957,332.444c0.197-0.095,0.387-0.208,0.582-0.31c-1.668,0.148-5.153,0.294-10.205-0.335
		c-0.705-0.09-1.37-0.188-2.016-0.29c-0.058-0.001-0.119-0.003-0.175-0.003c-3.466-0.023-7.154-0.236-10.721-0.604
		c-0.802-0.053-1.074-0.111-1.793-0.192c-0.377-0.045-0.753-0.093-1.129-0.142c-1.739-0.229-3.475-0.505-5.196-0.847
		c-0.874-0.172-1.763-0.357-2.649-0.564c0.001,0.008,0.001,0.014,0.002,0.02c-1.283-0.337-3.713-1.046-4.895-1.585
		c-0.355-0.162-1.136-0.53-1.917-1.036c0.061,0.37,0.162,0.735,0.315,1.079c0.018,0.039,0.04,0.094,0.074,0.168
		c0.285,0.621,0.652,1.195,0.833,1.472c0.345,0.526,0.556,0.85,0.914,1.269c0.072,0.086,0.384,0.446,0.852,0.879
		c0.434,0.401,0.839,0.71,1.168,0.94c0.742,0.157,2.46,0.495,3.35,0.665l-0.008-0.012c0.937,0.171,3.492,0.569,4.659,0.753
		c0.008-0.004,0.015-0.008,0.022-0.011c1.784,0.238,4.695,0.61,6.473,0.766c6.222,0.538,11.36,0.483,15.271-0.163
		c1.682-0.277,2.989-0.641,4.046-1.014C256.682,333.041,257.383,332.728,257.957,332.444"/>
	<path fill="#999999" d="M276.46,327.13c-2.797,1.226-5.73,2.161-8.737,2.8c-0.013,0.004-0.025,0.01-0.04,0.017
		c-0.465,0.193-0.938,0.377-1.415,0.554l0.025,0.019l-0.196,0.044c-0.593,0.215-1.193,0.404-1.8,0.578
		c-0.327,0.093-0.653,0.189-0.985,0.267c-0.992,0.231-1.877,0.385-2.648,0.492c-0.754,0.47-1.526,0.917-2.321,1.309
		c-0.15,0.072-0.313,0.149-0.48,0.229c-0.934,0.432-2.135,0.911-3.775,1.318c3.118,0.542,7.185,1.095,11.313,0.69
		c4.992-0.489,9.833-1.798,14.41-3.872c0.505-0.762,0.937-1.598,1.243-2.561c0.39-1.229,0.752-3.049,0.819-4.717
		c-1.001,0.613-2.03,1.186-3.077,1.722C278.027,326.411,277.248,326.785,276.46,327.13"/>
	<path fill="#999999" d="M259.767,330.54c0.955-0.11,1.976-0.268,3.203-0.554c0.254-0.059,0.507-0.129,0.759-0.199
		c-0.673-0.652-1.303-1.571-2.364-3.427c-0.554-0.968-0.822-2.14-0.927-3.326c-0.205,0.074-0.488,0.2-0.927,0.267
		c-0.092,0.015-0.23,0.034-0.373,0.057c0.404,0.973,0.702,2.032,0.828,3.234c0.127,1.22-0.013,2.377-0.147,3.495
		C259.8,330.237,259.783,330.389,259.767,330.54"/>
	<path fill="#999999" d="M216.134,277.643c0.221-0.276,0.232-0.341,0.323-0.835c0.058-0.309,0.142-0.755,0.319-1.475
		c1.212-4.876,3.682-7.742,4.765-8.811c-2.461-0.554-3.315-2.436-3.289-4.282c-0.174,0.15-0.348,0.305-0.453,0.398
		c-2.151,1.927-4.09,7.671-4.896,10.761l-0.002,0.009c-0.438,1.974-1.278,3.661-2.343,5.797c-0.415,0.836-0.882,1.773-1.373,2.826
		C210.23,281.909,213.559,280.873,216.134,277.643"/>
	<path fill="#999999" d="M222.69,285.679l0.125,0.432c0.605,2.083,0.605,2.085,0.614,2.145c0.15,0.869,0.553,1.279,0.881,1.37
		c0.128-0.028,0.808-0.614,1.438-1.854l0.005-0.009c0.591-1.065,4.912-9.586,5.906-11.885c-0.521-0.164-1.023-0.374-1.661-0.695
		c-0.756-0.377-1.315-0.769-1.91-1.181c-0.113-0.079-0.228-0.159-0.345-0.237c-0.577,1.177-1.192,2.353-1.838,3.501
		c-1.136,2.031-2.387,4.027-3.715,5.934c-0.029,0.047-0.072,0.105-0.124,0.173l0.602,2.228l-0.254,0.156L222.69,285.679z"/>
	<path fill="#999999" d="M229.807,293.958c0.422-0.086,1.979-1.485,2.66-2.392c0.364-2.353,1.402-7.039,2.512-9.815
		c0.574-1.439,1.315-2.886,1.889-3.934l-0.086-0.023c-0.565-0.162-1.207-0.347-1.768-0.576c-0.339-0.137-0.598-0.22-0.828-0.294
		c-0.275-0.089-0.522-0.17-0.815-0.307c-0.571,1.207-2.43,5.317-2.982,6.653c-0.21,0.511-0.937,1.993-1.64,3.423
		c-0.646,1.318-1.313,2.679-1.545,3.217l0.006,0.02C227.686,291.498,228.56,292.854,229.807,293.958"/>
	<path fill="#999999" d="M218.813,283.695c0.195-0.101,0.665-0.518,0.854-0.684c0.106-0.095,0.194-0.174,0.254-0.22
		c0.521-0.409,0.964-1.025,1.392-1.622c0.105-0.143,0.208-0.284,0.31-0.422c1.214-1.631,2.205-3.439,3.166-5.19l0.526-0.948
		c0.105-0.185,0.215-0.368,0.297-0.56c0.03-0.063,0.16-0.297,0.929-1.568c-0.914-1.018-2.744-3.953-3.271-5.371
		c-0.498,0.16-1.004,0.874-1.318,1.322l-0.128,0.178c-0.583,0.804-1.162,1.716-1.771,2.785c-0.905,1.596-1.384,3.356-1.7,4.711
		l-0.076,0.33c-0.322,1.371-0.517,2.198-0.296,3.633C218.31,282.19,218.632,283.396,218.813,283.695"/>
	<path fill="#999999" d="M205.46,280.902c0.901-0.217,2.603-0.979,3.894-3.646l0.081-0.168c0.37-0.76,0.876-1.8,1.639-3.897
		c0.396-1.087,0.709-2.035,1.001-2.915c0.613-1.848,1.142-3.444,2.11-5.379c0.24-0.481,0.548-1.065,1.006-1.751
		c0.667-1.007,1.456-1.934,2.348-2.766c-2.052-0.488-2.907-2.004-3.166-2.888c-0.154,0.163-0.295,0.332-0.387,0.446
		c-1.1,1.355-4.775,6.18-5.948,11.318c-0.15,0.77-0.456,2.127-0.726,3.328c-0.216,0.951-0.408,1.808-0.487,2.206
		c-0.36,1.851-0.782,3.486-2.599,6.169C204.447,281.01,204.878,281.042,205.46,280.902"/>
	<path fill="#999999" d="M207.833,264.001c1.68-3.82,5.187-8.18,5.95-9.107c-0.223-0.278-0.646-0.808-0.837-1.093
		c-0.259-0.381-0.364-0.868-0.448-1.258c-0.021-0.092-0.045-0.201-0.068-0.292c-0.913,0.785-4.371,5.647-6.268,9.454
		c-2.107,4.227-3.627,10.671-4.184,13.245c-0.169,0.79-0.654,2.861-0.816,3.318c-0.284,0.797-0.771,1.796-1.129,2.523
		c-0.082,0.175-0.172,0.359-0.249,0.518c2.863-0.685,4.585-2.861,5.121-6.48c0.118-0.794,1.013-4.997,1.208-5.879
		C206.431,267.264,207.027,265.834,207.833,264.001"/>
	<path fill="#999999" d="M283.425,277.041c0.094,0.502,0.112,0.593,0.354,0.897c2.826,3.548,6.49,4.453,7.261,4.453h0.029
		c-0.528-1.142-1.029-2.149-1.475-3.041c-1.059-2.128-1.896-3.81-2.331-5.77l-0.003-0.01c-0.224-0.854-2.258-8.43-4.939-10.83
		c-0.147-0.132-0.475-0.42-0.706-0.621c0.085,1.255-0.135,3.946-3.427,4.524c0.938,0.877,3.637,3.765,4.918,8.927
		C283.286,276.288,283.369,276.741,283.425,277.041"/>
	<path fill="#999999" d="M294.996,281.33c0.555,0.066,0.913-0.026,1.025-0.092c-1.886-2.749-2.316-4.398-2.682-6.265
		c-0.077-0.401-0.276-1.28-0.486-2.213c-0.271-1.197-0.577-2.557-0.726-3.331c-1.182-5.167-4.873-10.011-5.977-11.373
		c-0.128-0.16-0.354-0.427-0.578-0.638c-0.138,0.777-0.967,2.645-3.386,3.086c0.965,0.871,1.814,1.854,2.527,2.925
		c0.453,0.681,0.758,1.261,0.996,1.737c0.963,1.926,1.492,3.518,2.103,5.36c0.3,0.899,0.608,1.83,1.003,2.918
		c0.765,2.104,1.272,3.148,1.645,3.911l0.08,0.168C292.068,280.676,294.165,281.236,294.996,281.33"/>
	<path fill="#999999" d="M300.652,281.535c0.104,0,0.208-0.007,0.314-0.021c0.004,0,0.012,0,0.017,0
		c-0.04-0.26-0.45-1.195-1.812-3.343c-0.25-0.39-0.958-2.454-1.151-3.347c-0.556-2.578-2.079-9.034-4.194-13.277
		c-1.271-2.554-3.147-5.921-6.423-9.446c-0.119,0.773-0.265,1.298-0.431,1.563c-0.384,0.604-0.743,0.854-0.959,1.005
		c-0.047,0.033-0.109,0.076-0.141,0.106c0.499,0.599,4.263,5.187,6.021,9.186c0.804,1.824,1.396,3.246,1.713,4.927
		c0.063,0.282,0.181,0.912,0.317,1.641c0.291,1.564,0.692,3.705,0.881,4.196C296.484,279.139,298.55,281.535,300.652,281.535"/>
	<path fill="#999999" d="M278.885,281.88c0.613,0.784,1.334,1.479,2.141,2.068c0.077,0.056,0.147,0.103,0.214,0.105h0.004
		c0.057,0,0.09-0.058,0.146-0.194l0.014-0.034c0.234-0.531,0.351-1.13,0.462-1.709l0.042-0.214c0.098-0.49,0.188-1.015,0.281-1.604
		c0.226-1.461,0.018-2.347-0.298-3.685l-0.076-0.331c-0.319-1.366-0.802-3.14-1.717-4.747c-0.609-1.075-1.191-1.99-1.779-2.801
		l-0.128-0.179c-0.352-0.5-0.93-1.318-1.527-1.406c-0.467,1.45-2.105,4.409-3.352,5.528c0.948,1.57,0.967,1.623,0.975,1.648
		c0.08,0.181,0.191,0.374,0.301,0.563c0.048,0.085,0.099,0.169,0.146,0.254l0.38,0.69c0.625,1.143,1.271,2.322,1.975,3.442
		c0.349,0.554,0.646,0.999,0.935,1.401c0.104,0.143,0.206,0.29,0.309,0.437C278.507,281.368,278.692,281.632,278.885,281.88"/>
	<path fill="#999999" d="M275.819,289.673c0.018,0,0.031-0.003,0.045-0.006c0.714-0.201,0.854-0.516,1.133-1.274
		c0.248-0.678,0.464-1.369,0.643-2.056c0.019-0.071,0.036-0.139,0.052-0.21c0.128-0.507,0.227-1.03,0.323-1.535
		c0.019-0.09,0.037-0.167,0.062-0.252c0.053-0.202,0.166-0.627,0.082-0.736l-0.049-0.062c-0.063-0.084-0.117-0.157-0.158-0.222
		c-1.321-1.898-2.569-3.891-3.705-5.917c-0.669-1.195-1.311-2.421-1.906-3.645c-0.165,0.113-0.325,0.223-0.483,0.333
		c-0.589,0.409-1.146,0.798-1.892,1.172c-0.692,0.346-1.224,0.563-1.791,0.732c0.868,2.071,5.371,10.952,5.974,12.041
		C274.723,289.17,275.538,289.673,275.819,289.673"/>
	<path fill="#999999" d="M266.718,276.63c-0.758,0.364-2.61,0.944-3.774,1.307c0.582,1.052,1.367,2.566,1.969,4.074
		c1.304,3.262,2.021,6.319,2.13,9.088c0.729,0.985,2.802,3.025,3.153,2.958c2.314-2.397,2.64-3.485,2.763-3.896
		c0.007-0.019,0.01-0.036,0.017-0.052c-0.214-0.508-0.903-1.912-1.569-3.271c-0.702-1.429-1.426-2.908-1.636-3.416
		C269.195,282.033,267.204,277.635,266.718,276.63"/>
	<path fill="#999999" d="M301.03,266.882c-0.202-0.563-0.403-1.129-0.601-1.715c-0.033-0.093-0.083-0.216-0.145-0.366
		c-0.065-0.157-0.141-0.344-0.222-0.553c-3.014-7.957-7.705-13.608-8.347-14.241c-0.588,0.202-1.199,0.33-1.822,0.384
		c-0.597,0.048-1.193,0.03-1.783-0.058c0.236,0.32,0.566,0.76,0.96,1.281c1.924,2.552,5.145,6.824,6.06,8.883
		c1.165,2.624,2.44,5.795,4.078,13.064c0.785,3.488,2.826,6.459,4.672,6.82c0.051-0.197,0.051-0.948-0.327-3.577
		C302.857,271.987,301.927,269.391,301.03,266.882"/>
	<path fill="#999999" d="M249.953,261.617c-0.604-0.828-1.726-0.937-1.936-0.957c-1.836-0.175-3.196,1.399-3.641,1.913
		c-0.307,0.355-0.716,0.918-1.007,1.683c-0.356,0.94-0.365,1.737-0.365,2.144c-0.013,6.439,0.453,9.238,0.453,9.238
		c0.174,1.05,0.608,3.462,1.51,6.454c0,0,0.933,3.456,2.984,6.123c0.473,0.614,1.685,1.75,2.178,1.521
		c-1.055-2.362-1.619-4.294-1.734-4.572c-0.247-0.604-1.443-4.42-1.649-7.586c-0.314-4.864,0.437-10.481-0.073-14.481
		c0.046-0.047,0.121-0.108,0.213-0.106c0.576,0.016,0.726,1.887,0.783,3.18c0.131,2.892-0.014,5.111-0.115,6.369
		c-0.262,3.208-0.142,4.481,0.086,6.081c0.616,4.332,2.932,10.725,3.129,10.857c0.076,0.051,0.102-0.605,0.176-1.233
		c0-0.001-0.058-1.12-0.06-1.492c-0.014-3.49-0.428-8.762-0.428-8.762c-0.009-4.024-0.146-6.687-0.077-10.673
		C250.397,266.374,250.364,262.179,249.953,261.617"/>
	<path fill="#999999" d="M200.512,273.624c1.641-7.287,2.971-10.578,4.088-13.091c0.922-2.075,4.056-6.249,5.928-8.742
		c0.337-0.446,0.626-0.833,0.847-1.134l-3.169-0.417c-0.726,0.752-5.346,6.42-8.275,14.151c-0.079,0.205-0.153,0.388-0.215,0.545
		c-0.064,0.152-0.115,0.276-0.146,0.368c-0.2,0.589-0.402,1.151-0.603,1.716c-0.896,2.504-1.822,5.093-2.519,9.899
		c-0.315,2.2-0.364,3.056-0.347,3.383C197.857,279.826,199.759,276.967,200.512,273.624"/>
	<path fill="#999999" d="M258.488,326.96c-0.328-3.133-1.953-5.289-3.731-7.401c-0.348-0.413-0.617-0.77-0.847-1.123
		c-1.033-1.583-1.526-3.275-1.386-4.759c0.062-0.666,0.259-1.271,0.432-1.807c0.408-1.262,0.379-1.646,0.356-1.957l-0.008-0.122
		c-0.046-0.879-0.366-1.553-0.486-1.807c-0.175-0.366-0.37-0.689-0.586-0.956c-0.128-0.163-0.217-0.139-0.469-0.05
		c-0.099,0.032-0.204,0.069-0.321,0.093c-0.561,0.11-1.134,0.133-1.712,0.063c-0.104-0.013-0.261-0.033-0.43-0.055
		c-0.297-0.04-0.633-0.086-0.812-0.104c-0.007,0-0.012-0.002-0.019-0.002c-0.286,0-0.779,0.681-0.946,0.908
		c-0.044,0.061-0.077,0.107-0.1,0.134c-0.151,0.18-0.274,0.437-0.394,0.685c-0.054,0.114-0.107,0.223-0.161,0.322
		c-0.604,1.114-0.463,2.226-0.22,3.263c0.099,0.421,0.212,0.897,0.277,1.43c0.027,0.216,0.054,0.423,0.083,0.622
		c0.238,1.735,0.412,2.988-1.374,4.566c-2.535,2.243-3.624,5.076-3.998,10.43c1.564,0.354,3.269,0.656,5.071,0.896
		c0.812-1.025,1.328-3.747,0.785-6.137c-0.006-0.024-0.417-2.458,0.021-2.6c0.201-0.066,0.33,0.214,0.398,0.366
		c1.252,2.813,1.408,5.926,0.433,8.569l0.074,0.01c0.014,0.001,1.397,0.169,3.265,0.296c0.057,0.004,0.118,0.007,0.178,0.011
		c-0.937-2.727-0.676-5.891,0.728-8.72c0.073-0.148,0.206-0.434,0.413-0.351c0.432,0.159-0.08,2.575-0.086,2.6
		c-0.655,2.413-0.538,4.019,0.498,6.555c1.891,0.076,3.525,0.058,4.861-0.062l0.003-0.033c0.021-0.196,0.039-0.391,0.063-0.579
		C258.475,329.063,258.599,328.034,258.488,326.96 M248.261,310.717c-0.158,0.417-0.484,0.713-0.619,0.792
		c-0.023,0.014-0.049,0.02-0.074,0.02c-0.05,0-0.099-0.025-0.127-0.07c-0.039-0.069-0.018-0.157,0.053-0.197
		c0.023-0.015,0.067-0.051,0.115-0.097c0.12-0.112,0.286-0.304,0.377-0.547c0.031-0.081,0.057-0.162,0.08-0.239
		c-0.085,0.075-0.198,0.148-0.348,0.207c-0.135,0.053-0.296,0.098-0.497,0.115c-0.025,0.002-0.049,0.001-0.073-0.001
		c-0.086-0.013-0.164-0.055-0.22-0.123c-0.202-0.252-0.283-0.513-0.24-0.774c0.082-0.494,0.585-0.816,0.92-1.031
		c0.145-0.092,0.334-0.056,0.44,0.075c0.038,0.007,0.074,0.028,0.096,0.064C248.58,309.612,248.458,310.194,248.261,310.717
		 M251.696,310.751c0.093,0.246,0.258,0.438,0.378,0.548c0.049,0.045,0.091,0.08,0.115,0.095c0.07,0.041,0.093,0.13,0.051,0.198
		c-0.026,0.046-0.075,0.07-0.126,0.07c-0.025,0-0.051-0.005-0.074-0.02c-0.134-0.079-0.462-0.376-0.618-0.792
		c-0.197-0.522-0.321-1.104,0.115-1.808c0.022-0.036,0.061-0.058,0.097-0.065c0.107-0.131,0.296-0.166,0.441-0.073
		c0.334,0.214,0.837,0.537,0.918,1.03c0.044,0.263-0.037,0.522-0.239,0.773c-0.055,0.069-0.134,0.111-0.22,0.124
		c-0.023,0.002-0.048,0.004-0.073,0.001c-0.2-0.018-0.361-0.06-0.497-0.115c-0.148-0.058-0.262-0.132-0.348-0.207
		C251.64,310.589,251.665,310.669,251.696,310.751"/>
	<path fill="#999999" d="M242.753,257.688c0,0,0.56,0.438,1.072,0.454c0.069,0.002,0.134-0.008,0.134-0.008
		c0.048-0.007,0.09-0.025,0.134-0.036c-1.213-0.837-2.171-2.293-2.089-3.795c0.05-0.919,0.727-1.572,1.159-2.328
		c0.202-0.351,0.355-0.721,0.359-1.153c0.002-0.251-0.203-0.383-0.4-0.383c-0.185,0-0.362,0.112-0.365,0.348
		c-0.003,0.343-0.132,0.646-0.306,0.932c-0.179,0.294-0.405,0.567-0.595,0.846c-0.451,0.662-0.672,1.385-0.606,2.187
		c0.01,0.131,0.034,0.259,0.057,0.388c0.108,0.67,0.345,1.163,0.517,1.46C242.181,257.216,242.591,257.561,242.753,257.688"/>
	<path fill="#999999" d="M239.587,303.212c0.445,0.156,0.852,0.377,1.188,0.667c0.669-0.966,3.084-4.468,3.487-5.246
		C243.001,299.605,240.752,302.086,239.587,303.212"/>
	<path fill="#999999" d="M241.692,305.44c0.545-0.358,3.745-5.46,3.745-5.46c-0.99,0.655-3.402,3.017-4.407,4.149
		c0.146,0.162,0.274,0.339,0.378,0.535C241.544,304.917,241.631,305.183,241.692,305.44"/>
	<path fill="#999999" d="M250.867,305.404l0.085-0.002c0.471-0.043,0.769-0.117,0.907-0.174c-0.142-0.822-1.048-4.58-1.467-5.672
		c-0.351,1.072-0.939,4.749-1.032,5.745c0.218,0.046,0.766,0.101,1.252,0.101L250.867,305.404z"/>
	<path fill="#999999" d="M255.963,299.731c0,0,2.105,4.063,2.985,5.373c0.101-0.253,0.206-0.474,0.301-0.65
		c0.096-0.176,0.21-0.324,0.326-0.47c-0.161-0.282-0.372-0.65-0.609-1.064C257.938,301.693,256.626,300.254,255.963,299.731"/>
	<path fill="#999999" d="M260.048,303.516c0.318-0.253,0.683-0.435,1.079-0.558c-1.123-1.334-2.839-3.524-3.882-4.475
		c0.284,0.682,1.838,3.413,2.671,4.866C259.961,303.405,260.004,303.461,260.048,303.516"/>
	<path fill="#999999" d="M262.428,276.613l0.736-0.309c0,0,2.623-0.935,3.478-1.293c1.221-0.512,3.525-1.651,4.64-2.533
		c2.964-2.344,3.864-5.662,4.739-6.71c3.04-0.193,4.278-1.682,4.472-3.213c0.116-0.92-0.854-3.023-0.58-3.101
		c0,0,3.368-0.745,4.124-1.894c1.115-1.695,0.487-3.871,0.487-3.871c0.043,0,2.968-1.096,1.255-5.366
		c0.347,0.863,6.914,0.164,6.761-0.271c-0.426-1.215-2.159-2.728-3.915-3.804c-2.21-1.354-4.748-1.619-6.367-1.432
		c-1.782,0.207-3.557,0.396-5.239,1.062c-2.475,0.98-3.777,2.783-4.385,5.313c-0.677,2.817-0.682,5.746-1,8.623
		c-0.403,3.639-1.45,7.111-4.293,9.61c-2.294,2.018-5.328,3.621-8.37,4.154C260.158,272.84,262.428,276.613,262.428,276.613"/>
	<path fill="#999999" d="M214.268,248.324c-1.711,4.271,1.212,5.366,1.256,5.366c0,0-0.629,2.175,0.487,3.871
		c0.756,1.148,4.125,1.894,4.125,1.894c0.273,0.077-0.697,2.181-0.581,3.101c0.193,1.532,1.433,3.02,4.472,3.213
		c0.874,1.048,1.775,4.366,4.738,6.71c1.116,0.882,3.42,2.021,4.64,2.533c0.856,0.358,3.479,1.293,3.479,1.293l0.737,0.309
		c0,0,2.269-3.773,3.458-5.033c-3.137-0.55-8.43-3.078-10.73-6.91c-2.309-4.42-2.563-9.896-2.574-10.129
		c-0.23-3.839-0.832-6.927-0.955-7.237c-1.575-4.023-7.454-4.303-9.029-4.486c-1.618-0.188-4.157,0.077-6.366,1.432
		c-1.755,1.076-3.487,2.589-3.914,3.804C207.355,248.489,213.922,249.188,214.268,248.324"/>
	<path fill="#999999" d="M274.218,319.433c-0.013-0.021-0.527-0.936-1.148-1.606c-0.907-0.977-2.09-1.615-3.038-2.129
		c-0.259-0.141-0.5-0.271-0.706-0.395c-0.451-0.264-1.01-0.594-1.506-1.184c-0.973-1.157-1.075-2.578-1.158-3.722
		c-0.022-0.319-0.035-0.623-0.048-0.919c-0.029-0.724-0.058-1.405-0.234-2.177c-0.216-0.943-0.589-1.715-1.105-2.291
		c-0.646-0.725-1.501-1.092-2.539-1.092c-0.04,0-0.079,0.004-0.12,0.009l-0.063,0.008c-0.195,0.015-0.388,0.052-0.571,0.11
		c-0.337,0.106-0.669,0.275-0.986,0.506c-0.068,0.049-0.135,0.098-0.2,0.15c-0.051,0.041-0.097,0.086-0.145,0.13l-0.033,0.031
		c-0.132,0.122-0.239,0.234-0.327,0.341c-0.074,0.098-0.122,0.169-0.168,0.238c-0.122,0.185-0.206,0.352-0.261,0.507
		c-0.208,0.602-0.093,1.168,0.037,1.821l0.027,0.134c0.22,1.115,1.101,2.507,1.19,2.619c0.463,0.601,0.939,1.215,1.239,1.938
		c0.425,1.021,0.522,2.1,0.282,3.124c-0.271,1.146-0.465,2.388-0.637,3.485c-0.072,0.456-0.139,0.885-0.207,1.284
		c-0.193,1.14-0.085,2.488,0.309,3.905c0.081,0.286,0.309,1.03,0.698,1.763c0.665,1.245,1.462,2.329,2.372,3.225
		c0.816-0.279,1.696-0.627,2.687-1.061c1.112-0.487,2.164-0.997,3.144-1.481c-0.234-0.218-0.516-0.486-0.81-0.793l-0.079-0.08
		c-0.851-0.879-1.814-1.877-2.64-3.453c-1.282-2.452-0.938-3.794-0.896-3.938c0.008-0.022,0.211-0.699,0.211-0.699l0.191-0.643
		l0.13,0.979c0.016,0.123,0.055,0.394,0.123,0.752c0.346,1.433,1.308,3.033,1.721,3.532c1.33,1.603,2.424,2.706,3.541,3.566
		c0.521-0.297,1.075-0.642,1.692-1.051c-0.365-1.619-0.936-3.427-2.33-4.696c-0.122-0.11-0.567-0.515-0.568-0.515l-0.225-0.199
		l0.265-0.149c0.149-0.086,0.524-0.11,1.348,0.66c0.926,0.862,1.96,2.906,2.376,4.316l0.176-0.121
		c0.25-0.169,0.466-0.321,0.668-0.464c-0.148-0.73-0.323-1.418-0.51-1.995C275.042,320.66,274.226,319.444,274.218,319.433
		 M264.864,307.804c-0.044,0.121-0.172,0.187-0.294,0.158c-0.009-0.004-0.018-0.006-0.025-0.009
		c-0.13-0.045-0.198-0.187-0.151-0.314c0.016-0.041,0.033-0.109,0.049-0.194c0.054-0.279,0.088-0.749-0.06-1.143
		c-0.035-0.096-0.072-0.184-0.112-0.268c-0.02,0.193-0.103,0.432-0.308,0.7c-0.003,0.006-0.006,0.011-0.01,0.018
		c-0.016,0.02-0.033,0.036-0.052,0.052c-0.064,0.054-0.149,0.082-0.235,0.076c-0.321-0.021-0.567-0.138-0.731-0.343
		c-0.311-0.387-0.212-0.966-0.147-1.35c0.007-0.046,0.026-0.088,0.05-0.125l-0.008-0.011c-0.059-0.004-0.112-0.012-0.175-0.013
		c-0.139-0.005-0.25-0.112-0.25-0.248c0.002-0.136,0.112-0.245,0.252-0.245c1.411,0.006,1.902,0.804,2.195,1.585
		C265.088,306.764,264.963,307.531,264.864,307.804"/>
	<path fill="#999999" d="M241.034,200.279l-9.002,14.082l14.254-8.892l3.715,16.243l3.715-16.243l14.255,8.892l-9.002-14.082
		l16.444-3.669l-16.444-3.67l9.002-14.079l-14.255,8.892l-3.715-16.244l-3.715,16.244l-14.254-8.892l9.002,14.079l-16.445,3.67
		L241.034,200.279z M238.667,185.414l8.989,5.608l2.345-10.248l2.345,10.248l8.99-5.608l-5.678,8.883l10.371,2.313l-10.371,2.315
		l5.678,8.881l-8.99-5.608l-2.345,10.248l-2.345-10.248l-8.989,5.608l5.678-8.881l-10.373-2.315l10.373-2.313L238.667,185.414z"/>
	<path fill="#999999" d="M225.758,88.3c-1.651,0-2.995,1.327-2.995,2.958c0,1.633,1.344,2.959,2.995,2.959s2.995-1.326,2.995-2.959
		C228.753,89.627,227.409,88.3,225.758,88.3"/>
	<path fill="#999999" d="M274.37,94.217c1.65,0,2.994-1.328,2.994-2.959s-1.344-2.958-2.994-2.958c-1.651,0-2.995,1.327-2.995,2.958
		S272.719,94.217,274.37,94.217"/>
	<path fill="#999999" d="M250.369,94.217c1.651,0,2.995-1.328,2.995-2.959s-1.344-2.958-2.995-2.958s-2.994,1.327-2.994,2.958
		S248.718,94.217,250.369,94.217"/>
	<path fill="#999999" d="M223.303,118.436c-1.65,0-2.994,1.326-2.994,2.957c0,1.633,1.344,2.959,2.994,2.959
		c1.651,0,2.996-1.326,2.996-2.959C226.299,119.762,224.954,118.436,223.303,118.436"/>
	<path fill="#999999" d="M276.648,118.436c-1.651,0-2.995,1.326-2.995,2.957c0,1.633,1.344,2.959,2.995,2.959
		s2.994-1.326,2.994-2.959C279.642,119.762,278.299,118.436,276.648,118.436"/>
	<path fill="#999999" d="M250.281,118.436c-1.651,0-2.994,1.326-2.994,2.957c0,1.633,1.343,2.959,2.994,2.959
		s2.995-1.326,2.995-2.959C253.276,119.762,251.932,118.436,250.281,118.436"/>
	<polygon fill="#999999" points="148.078,199.544 149.552,195.785 150.005,194.628 148.833,194.18 146.735,193.378 145.564,192.93 
		145.11,194.087 143.636,197.845 138.744,195.974 137.572,195.525 137.118,196.683 136.045,199.421 135.592,200.578 
		136.763,201.027 141.656,202.897 140.022,207.068 139.568,208.226 140.74,208.673 142.837,209.476 144.009,209.924 
		144.463,208.768 146.098,204.597 150.073,206.117 151.243,206.565 151.697,205.408 152.77,202.669 153.225,201.511 
		152.053,201.063 	"/>
	<polygon fill="#999999" points="351.544,205.017 351.859,206.219 353.075,205.907 357.202,204.853 358.223,208.754 
		358.537,209.956 359.754,209.645 361.932,209.088 363.15,208.776 363.053,208.409 363.083,208.402 362.733,207.187 
		361.813,203.675 366.892,202.376 368.109,202.064 367.793,200.863 367.048,198.021 366.735,196.817 365.518,197.129 
		360.439,198.428 359.306,194.1 358.99,192.897 357.775,193.208 355.596,193.765 354.379,194.076 354.694,195.278 355.827,199.606 
		351.701,200.661 350.485,200.971 350.799,202.173 	"/>
	<path fill="#999999" d="M239.818,305.615c-0.41-0.636-1.188-1.049-2.134-1.14c-0.12-0.012-0.253-0.012-0.357-0.012
		c-0.428,0-0.845,0.07-1.24,0.209l-0.083,0.026c-0.036,0.009-0.073,0.021-0.109,0.035c-0.535,0.224-1.269,0.529-2.019,1.586
		c-0.505,0.713-0.521,1.325-0.562,2.669l-0.018,0.54c-0.018,0.474-0.006,0.675,0.003,0.837c0.009,0.179,0.018,0.32-0.008,0.67
		c-0.082,1.143-0.185,2.563-1.157,3.721c-0.715,0.851-1.728,1.387-2.707,1.903c-0.731,0.387-1.486,0.785-2.099,1.311
		c-0.842,0.719-1.539,1.68-2.132,2.938c-0.399,0.849-0.69,1.708-0.888,2.626c0.229,0.143,0.452,0.272,0.676,0.399
		c0.14,0.079,0.279,0.156,0.418,0.23c0.326-1.395,1.479-3.75,2.478-4.685c0.819-0.764,1.197-0.741,1.348-0.662l0.266,0.148
		l-0.792,0.718c-1.353,1.233-2.042,3.357-2.384,4.922c-0.002,0.01-0.004,0.021-0.007,0.029c0.525,0.255,1.069,0.498,1.659,0.741
		c0.148,0.059,0.291,0.116,0.434,0.174l0.072,0.026c0.902-0.716,1.837-1.691,3.202-3.336c0.413-0.499,1.374-2.1,1.724-3.539
		c0.065-0.354,0.104-0.625,0.12-0.744l0.129-0.98l0.193,0.644c0,0,0.196,0.659,0.209,0.695c0.044,0.149,0.386,1.497-0.896,3.943
		c-0.826,1.579-1.793,2.576-2.644,3.457l-0.074,0.076c-0.134,0.137-0.258,0.267-0.378,0.388l0.438,0.158
		c0.332,0.12,0.66,0.236,0.977,0.347c0.32,0.109,0.609,0.202,0.889,0.289c0.575,0.181,1.084,0.323,1.671,0.487
		c0.616,0.174,1.31,0.37,2.209,0.645c0.758-1.06,1.272-2.057,1.572-3.049c0.368-1.207,0.477-2.56,0.333-4.128
		c-0.124-1.344-0.38-2.795-0.832-4.706c-0.241-1.022-0.144-2.101,0.282-3.123c0.3-0.725,0.776-1.34,1.24-1.937
		c0.093-0.119,0.182-0.237,0.271-0.354l0.058-0.075C240.64,308.801,240.536,306.726,239.818,305.615 M236.952,307.169
		c-0.102,0.242-0.308,0.419-0.609,0.525c-0.082,0.029-0.172,0.025-0.248-0.01c-0.022-0.009-0.043-0.022-0.063-0.036
		c-0.006-0.005-0.009-0.009-0.016-0.014c-0.271-0.204-0.417-0.411-0.49-0.592c-0.015,0.093-0.024,0.188-0.033,0.288
		c-0.031,0.393,0.123,0.847,0.258,1.116c0.036,0.071,0.071,0.133,0.101,0.174c0.08,0.11,0.055,0.265-0.058,0.345
		c-0.045,0.029-0.096,0.044-0.145,0.044c-0.079,0-0.155-0.035-0.205-0.102c-0.17-0.237-0.502-0.942-0.449-1.616
		c0.066-0.829,0.318-1.729,1.677-2.113c0.133-0.039,0.271,0.037,0.31,0.169c0.038,0.13-0.038,0.266-0.172,0.305
		c-0.061,0.017-0.109,0.038-0.165,0.058l-0.005,0.014c0.035,0.029,0.064,0.064,0.085,0.107
		C236.89,306.183,237.144,306.712,236.952,307.169"/>
</g>
</svg>
