<?xml version="1.0" encoding="utf-8"?>
<!-- Generator: Adobe Illustrator 16.0.0, SVG Export Plug-In . SVG Version: 6.00 Build 0)  -->
<!DOCTYPE svg PUBLIC "-//W3C//DTD SVG 1.1//EN" "http://www.w3.org/Graphics/SVG/1.1/DTD/svg11.dtd">
<svg version="1.1" id="Camada_1" xmlns="http://www.w3.org/2000/svg" xmlns:xlink="http://www.w3.org/1999/xlink" x="0px" y="0px"
	 width="347.959px" height="200px" viewBox="0 0 347.959 200" enable-background="new 0 0 347.959 200" xml:space="preserve">
<g>
	<path fill="#FFFFFF" d="M55.154,77.195c-0.512,0.046-1.471,0.053-2.879,0.029c-1.408-0.023-3.085-0.342-5.028-0.953
		c-1.946-0.607-3.269-1.314-3.967-2.12c-4.917-7.269-7.958-15.734-9.117-25.39l-0.387-3.584c-0.679-8.031-0.188-14.788,1.471-20.264
		c1.033-2.727,2.951-4.493,5.749-5.305c1.18-0.331,2.421-0.547,3.733-0.659c1.651-0.139,3.725-0.028,6.225,0.333
		c2.496,0.365,4.833,1.173,7.004,2.421c-1.358,1.608-2.803,5.044-4.337,10.307c-1.538,5.266-2.553,11.077-3.048,17.429
		c-0.224,2.775-0.228,5.442-0.012,8.003c0.27,3.191,0.896,6.179,1.877,8.967l1.522-7.443c2.153-10.51,4.852-20.006,8.095-28.485
		c4.458-11.739,9.28-17.825,14.467-18.264c1.195-0.099,2.652,0.194,4.378,0.881c1.719,0.683,3.104,1.815,4.158,3.39
		c0.465,0.764,0.735,1.606,0.813,2.514c0.096,1.142-0.056,2.387-0.459,3.741c-3.623,0.592-7.039,3.106-10.25,7.535
		c-3.213,4.431-6.012,9.687-8.393,15.772c-2.387,6.081-4.248,11.891-5.59,17.423c-1.336,5.537-2.001,9.74-1.988,12.605
		C58.042,76.696,56.694,77.068,55.154,77.195"/>
	<path fill="#FFFFFF" d="M109.029,71.013c-2.509,0.21-5.523-0.009-9.051-0.655c-3.526-0.651-6.677-2.809-9.454-6.476
		c-2.616-3.795-4.165-8.54-4.646-14.241c-0.281-3.304-0.117-7.001,0.483-11.097c0.601-4.097,1.901-8.209,3.905-12.339
		c2.004-4.128,4.668-7.581,7.993-10.354c3.32-2.78,7.264-4.362,11.819-4.744c3.99-0.335,7.389,0.353,10.203,2.064
		c2.811,1.715,4.856,4.011,6.134,6.885c0.775,1.716,1.238,3.482,1.393,5.305c0.106,1.254,0.071,2.548-0.103,3.882
		c-0.999,5.82-3.122,9.902-6.369,12.239c-2.922,2.086-5.836,3.248-8.744,3.495c-0.282,0.023-1.311,0.054-3.087,0.089
		c-1.78,0.035-3.139-0.479-4.093-1.549c-0.535,3.146-0.692,6.059-0.468,8.732c0.119,1.368,0.5,3.316,1.142,5.844
		c0.644,2.528,2.691,4.194,6.144,4.991c0.583,0.122,1.218,0.155,1.899,0.096c1.653-0.14,3.731-0.859,6.232-2.161
		c2.499-1.302,4.864-3.71,7.093-7.226c2.737-4.936,4.845-9.189,6.325-12.755c0.488-1.017,0.85-1.781,1.097-2.291
		c0.244-0.508,0.452-0.767,0.622-0.78c0.286-0.026,0.452,0.276,0.507,0.9c-0.01,4.649-1.159,9.392-3.444,14.234
		c-1.645,3.642-3.643,6.819-5.995,9.542c-2.995,3.296-6.78,5.681-11.359,7.157C113.14,70.436,111.08,70.84,109.029,71.013
		 M108.559,38.949c3.247-0.274,5.812-1.149,7.696-2.629c2.699-2.005,3.905-4.691,3.624-8.053c-0.08-0.909-0.377-1.932-0.906-3.066
		c-0.524-1.13-1.388-1.676-2.588-1.632c-1.633,0.368-3.246,1.651-4.841,3.853c-1.591,2.201-2.936,4.953-4.033,8.26
		c-0.428,1.067-0.762,2.187-1.01,3.354L108.559,38.949z"/>
	<path fill="#FFFFFF" d="M174.617,67.022c-0.967,0.082-2.162-0.131-3.579-0.645c-1.424-0.509-2.562-1.419-3.418-2.725
		c-2.157-3.144-3.404-6.684-3.735-10.614c-0.396-4.671-0.03-10.527,1.097-17.566c0.152-0.929,0.272-1.887,0.361-2.87
		c-4.221,7.76-8.49,17.327-12.809,28.711c-1.264,3.376-2.217,5.693-2.856,6.954c-1.261,0.679-2.548,1.075-3.858,1.186
		c-1.026,0.085-2.39-0.112-4.096-0.6c-1.704-0.488-3.042-1.379-4.013-2.677c-3.012-4.391-4.761-9.491-5.251-15.304
		c-0.034-0.398-0.145-2.238-0.337-5.522c-0.193-3.284,0.293-7.945,1.443-13.979c1.156-6.037,2.395-11.062,3.72-15.074
		c1.031-2.729,3.005-4.5,5.92-5.32c1.292-0.337,2.618-0.566,3.987-0.681c1.765-0.148,3.955-0.046,6.567,0.302
		c2.613,0.357,5.03,1.158,7.258,2.403c-1.886,2.798-4.224,7.899-7.01,15.309c-2.79,7.409-4.544,15.675-5.266,24.8l0.766-2.13
		c1.465-4.425,3.378-9.593,5.751-15.504c2.367-5.906,5.22-11.396,8.55-16.472c3.328-5.072,7.119-8.59,11.373-10.557
		c1.269-0.563,2.588-0.906,3.958-1.022c3.249-0.272,6.722,0.782,10.421,3.165c-1.944,2.808-4.295,7.91-7.057,15.314
		c-2.754,7.407-4.471,15.669-5.136,24.79l0.222-0.448c0.568-1.425,1.887-4.36,3.948-8.808c2.062-4.45,4.61-9.399,7.652-14.849
		c3.043-5.45,6.315-10.314,9.828-14.601c3.509-4.285,7.025-7.004,10.541-8.164l1.359-0.2c2.907-0.244,5.593,0.62,8.052,2.591
		c1.854,1.565,2.867,3.372,3.04,5.422c0.092,1.081-0.041,2.243-0.394,3.476c-1.986,5.045-3.831,10.556-5.534,16.521
		c-1.703,5.967-2.858,11.159-3.461,15.569c-0.25,1.8-0.328,3.271-0.23,4.408c0.159,1.88,0.779,2.773,1.858,2.683
		c1.713-0.144,3.574-1.534,5.588-4.171c2.777-3.792,6.005-9.774,9.674-17.944c0.508-1.477,0.931-2.23,1.272-2.258
		c0.282-0.026,0.452,0.278,0.508,0.903c-0.005,4.706-1.159,9.565-3.461,14.58c-2.299,5.013-5.169,9.244-8.612,12.69
		c-3.436,3.446-6.839,5.309-10.198,5.594l-0.343,0.03c-4.772-0.115-8.168-1.979-10.198-5.596c-1.493-2.742-2.407-6.077-2.737-10.007
		c-0.099-1.199-0.14-3.518-0.113-6.962c0.025-3.446,0.672-8.18,1.943-14.193c-5.286,8.765-10.886,19.937-16.793,33.519
		c-1.161,2.565-2.014,4.361-2.561,5.381C176.958,66.537,175.759,66.926,174.617,67.022"/>
	<path fill="#FFFFFF" d="M213.705,164.606l-0.509,0.051c-7.441,0.015-12.7-2.771-15.768-8.35c-2.328-4.204-3.797-9.231-4.408-15.066
		c-0.212-2.031-0.311-4.164-0.291-6.392c-3.05,9.221-6.854,17.178-11.415,23.857c-4.559,6.688-9.673,10.326-15.344,10.921
		c-7.267,0.079-12.509-2.576-15.73-7.973c-2.604-4.43-4.244-9.866-4.921-16.295c-0.161-1.528-0.328-4.78-0.512-9.767
		c-0.184-4.987,0.51-12.033,2.072-21.141c1.567-9.109,3.544-17.337,5.94-24.691c1.459-4.005,4.34-6.702,8.647-8.099
		c2.068-0.644,4.205-1.083,6.405-1.314c2.372-0.25,5.419-0.166,9.141,0.254c3.727,0.425,7.263,1.528,10.618,3.312
		c-2.177,3.737-4.469,9.374-6.887,16.9c-2.415,7.526-4.556,15.456-6.417,23.777c-1.865,8.329-2.954,15.457-3.271,21.396
		c-0.126,2.063-0.112,3.822,0.042,5.257c0.312,2.964,1.183,4.369,2.624,4.218c5.414-0.571,12.858-17.269,22.327-50.098
		c0.862-3.172,1.523-5.424,1.987-6.757c1.084-4.304,2.236-8.405,3.452-12.3c2.163-5.446,7.225-8.591,15.181-9.427
		c2.37-0.248,5.417-0.161,9.141,0.257c3.723,0.425,7.227,1.573,10.503,3.453c-2.181,3.653-4.554,9.184-7.107,16.598
		c-2.559,7.418-4.869,15.169-6.926,23.26c-2.058,8.088-3.341,15.022-3.843,20.809c-0.203,2.165-0.229,3.921-0.087,5.275
		c0.294,2.79,1.245,4.104,2.854,3.935c4.653-0.488,10.091-7.353,16.315-20.586c3.158-6.58,5.37-11.604,6.631-15.073
		c0.35-0.722,0.655-1.098,0.905-1.122c0.513-0.053,0.813,0.387,0.912,1.314c0.051,7.014-1.561,14.287-4.83,21.82
		c-3.272,7.526-7.416,13.915-12.426,19.146C223.697,161.204,218.697,164.081,213.705,164.606"/>
	<path fill="#FFFFFF" d="M275.231,156.464c-3.64,0.383-8.01,0.135-13.107-0.739c-5.099-0.874-9.77-4-14.013-9.374
		c-3.926-5.575-6.338-12.639-7.235-21.188c-0.519-4.905-0.41-10.394,0.316-16.462c0.732-6.063,2.549-12.204,5.446-18.412
		c2.897-6.21,6.759-11.433,11.576-15.66c4.815-4.23,10.609-6.698,17.382-7.412c5.923-0.625,10.843,0.399,14.762,3.067
		c3.916,2.669,6.783,6.133,8.6,10.393c1.331,2.855,2.153,5.806,2.474,8.852c0.773,7.363-1.1,12.352-5.609,14.967
		c-1.852,1.135-3.878,1.819-6.078,2.054c-1.948,0.199-4.015,0.077-6.2-0.379c2.547-1.812,4.369-4.395,5.473-7.762
		c0.822-2.742,1.111-5.293,0.864-7.666c-0.048-0.42-0.215-1.41-0.509-2.961c-0.288-1.554-1.584-2.293-3.89-2.222
		c-3.333,0.862-6.432,4.121-9.306,9.772c-2.87,5.65-4.952,12.093-6.241,19.329c-0.831,5.139-1.02,9.862-0.565,14.178
		c0.196,1.868,0.771,4.669,1.72,8.422c0.954,3.752,4.093,6.163,9.426,7.222c0.872,0.169,1.817,0.193,2.832,0.089
		c2.285-0.24,5.119-1.35,8.51-3.333c6.043-3.544,12.26-13.57,18.654-30.075c0.69-1.528,1.215-2.673,1.562-3.438
		c0.347-0.762,0.65-1.156,0.902-1.183c0.426-0.045,0.686,0.399,0.785,1.327c0.126,6.917-1.439,14.016-4.693,21.287
		c-2.25,5.457-5.127,10.253-8.632,14.389c-4.265,4.981-9.699,8.639-16.298,10.958C281.162,155.497,278.191,156.151,275.231,156.464"
		/>
	<path fill="#FFFFFF" d="M242.414,64.21l-9.364,1.696c0,0,3.081-2.455,3.256-4.338l1.765-22.097
		c0.017-0.272,0.023-0.465,0.021-0.574c0-0.107-0.006-0.196-0.012-0.27c-0.027-0.313-0.101-0.54-0.223-0.681
		c-0.119-0.142-0.29-0.203-0.52-0.186c-0.428,0.039-0.841,0.51-1.238,1.413c-0.396,0.905-0.749,2.179-1.056,3.816l-0.919-0.095
		c0.452-2.817,1.298-4.982,2.544-6.502c1.239-1.514,2.851-2.356,4.839-2.525c1.383-0.116,2.437,0.215,3.17,0.996
		c0.737,0.782,1.178,2.043,1.325,3.791c0.023,0.297,0.04,0.531,0.052,0.696c0.005,0.165,0.006,0.313,0.005,0.442
		c0.325-2.031,1.063-3.643,2.213-4.841c1.101-1.152,2.494-1.819,4.182-2.004c2.16-0.238,4.282,0.474,5.83,2.001
		c1.624,1.595,2.55,3.78,2.785,6.557c0.306,3.604-0.442,6.757-2.242,9.458c-1.794,2.701-4.114,4.172-6.958,4.414
		c-1.541,0.129-2.794-0.079-3.76-0.622c-0.964-0.546-1.672-1.439-2.13-2.684l-0.671,8.93
		C245.183,62.603,243.997,63.923,242.414,64.21 M248.18,51.968c0.521-0.043,0.956-0.324,1.296-0.843
		c0.341-0.52,0.603-1.309,0.777-2.379c0.337-1.827,0.563-3.674,0.688-5.543c0.129-1.868,0.15-3.318,0.062-4.347
		c-0.068-0.771-0.255-1.351-0.562-1.734c-0.311-0.386-0.728-0.556-1.251-0.51c-0.591,0.048-1.069,0.387-1.439,1.018
		c-0.377,0.627-0.668,1.606-0.88,2.936c-0.278,1.795-0.479,3.557-0.594,5.289c-0.118,1.73-0.143,3.012-0.073,3.841
		c0.07,0.813,0.264,1.41,0.586,1.785C247.112,51.858,247.574,52.021,248.18,51.968"/>
	<path fill="#FFFFFF" d="M263.184,40.613l-0.964-0.092c0.441-2.801,1.284-4.966,2.535-6.489c1.247-1.523,2.862-2.371,4.849-2.537
		c1.515-0.129,2.652,0.258,3.419,1.157c0.764,0.9,1.239,2.438,1.422,4.613c0.041,0.513,0.068,0.905,0.078,1.168
		c0.008,0.267,0.01,0.531,0.007,0.789c0.392-2.869,1.067-4.993,2.034-6.373c0.963-1.375,2.289-2.137,3.979-2.278
		c1.409-0.122,2.528,0.207,3.366,0.977c0.834,0.774,1.315,1.932,1.446,3.477c0.118,1.374-0.2,2.54-0.948,3.505
		c-0.75,0.961-1.754,1.496-3.016,1.604c-1.181,0.1-2.173-0.224-2.979-0.972c-0.806-0.746-1.267-1.79-1.378-3.132
		c-0.014-0.16-0.015-0.337-0.005-0.54c0.008-0.202,0.03-0.421,0.066-0.654c-0.745,0.308-1.357,1.809-1.84,4.507
		c-0.48,2.698-0.927,7.198-1.339,13.497c-1.024,0.016-1.983,0.042-2.871,0.08c-0.886,0.04-1.732,0.093-2.538,0.16
		c-0.601,0.052-1.223,0.124-1.855,0.212c-0.635,0.09-1.297,0.192-1.989,0.308c0.514-4.306,0.909-8.147,1.192-11.517
		c0.283-3.375,0.398-5.368,0.347-5.984c-0.017-0.2-0.095-0.372-0.235-0.518c-0.14-0.148-0.307-0.214-0.495-0.196
		c-0.424,0.036-0.839,0.505-1.234,1.41C263.841,37.704,263.49,38.972,263.184,40.613"/>
	<path fill="#FFFFFF" d="M311.656,29.915c-0.504,3.597-0.792,6.876-1.039,9.801c-0.283,3.298-0.398,5.278-0.339,5.949
		c0.025,0.357,0.113,0.638,0.262,0.842c0.144,0.204,0.313,0.3,0.499,0.281c0.417-0.032,0.82-0.506,1.218-1.419
		c0.323-0.748,0.615-1.736,0.872-2.963c0.099-0.481,0.542-0.822,1.034-0.794l0.087,0.005c-0.438,2.815-1.282,4.989-2.528,6.521
		c-1.25,1.53-2.855,2.38-4.827,2.545c-1.396,0.117-2.469-0.22-3.218-1.014c-0.749-0.793-1.197-2.069-1.345-3.83
		c-0.024-0.285-0.041-0.503-0.047-0.655c-0.005-0.149-0.008-0.29-0.005-0.42c-0.313,2.028-1.051,3.643-2.205,4.842
		c-1.152,1.201-2.615,1.873-4.387,2.023c-2.238,0.19-4.143-0.511-5.702-2.1c-1.568-1.588-2.468-3.748-2.699-6.481
		c-0.306-3.617,0.44-6.773,2.238-9.467c1.798-2.694,4.134-4.163,7.002-4.402c1.932-0.166,3.43,0.18,4.492,1.033
		c0.212,0.171,0.412,0.363,0.594,0.578c0.572,0.675,1.439,0.5,1.693-0.35C304.299,27.127,311.939,27.925,311.656,29.915
		 M300.166,31.959c-0.537,0.043-0.977,0.342-1.323,0.888c-0.345,0.548-0.613,1.37-0.802,2.467c-0.314,1.898-0.534,3.818-0.661,5.759
		c-0.127,1.941-0.14,3.454-0.048,4.542c0.064,0.784,0.255,1.379,0.571,1.775c0.317,0.398,0.731,0.576,1.241,0.533
		c0.607-0.05,1.09-0.396,1.451-1.03c0.365-0.635,0.666-1.667,0.893-3.101c0.282-1.778,0.479-3.561,0.584-5.341
		c0.106-1.782,0.12-3.156,0.036-4.129c-0.073-0.859-0.269-1.48-0.583-1.862C301.206,32.077,300.758,31.91,300.166,31.959"/>
	<path fill="#FFFFFF" d="M78.832,197.532c-3.996,0.339-7.62-0.811-10.875-3.439c-3.257-2.623-5.203-7.705-5.837-15.233
		c-0.594-7.006-0.24-14.719,1.062-23.141c1.299-8.42,2.973-16.34,5.018-23.767c2.043-7.429,3.734-13.012,5.065-16.751
		c1.104-2.536,3.549-4.422,7.336-5.667c2.76-0.891,5.612-1.466,8.563-1.714c1.044-0.087,2.884-0.143,5.524-0.17
		c2.635-0.026,5.12,0.492,7.451,1.549c-3.171,6.202-6.385,13.234-9.644,21.094c-3.262,7.863-5.829,15.166-7.696,21.919
		c10.454-1.936,18.749-5.622,24.886-11.054c6.136-5.431,9.933-11.243,11.392-17.438c0.584-2.418,0.787-4.713,0.602-6.874
		c-0.274-3.273-1.847-6.65-4.711-10.142c-2.867-3.479-8.774-5.077-17.717-4.78l-1.669,0.144c-6.356,0.534-13.225,2.137-20.616,4.803
		c-7.394,2.672-13.999,6.871-19.81,12.606c-5.814,5.731-9.359,13.175-10.63,22.314c-3.625-2.331-6.282-5.271-7.969-8.824
		c-1.591-3.228-2.513-6.348-2.768-9.363c-0.409-4.844,1.333-10.186,5.229-16.019c3.889-5.835,10.777-11.184,20.654-16.04
		c10.583-5.115,21.831-8.177,33.752-9.182c10.083-0.854,19.183,0.472,27.293,3.976c8.11,3.504,13.072,10.127,14.885,19.867
		l0.362,3.133c0.857,10.152-1.176,19.077-6.096,26.78c-4.924,7.702-11.854,13.713-20.786,18.028
		c-7.539,3.67-15.401,5.851-23.584,6.541c-1.573,0.137-3.119,0.202-4.637,0.196c-2.746,8.081-3.905,14.64-3.479,19.684
		c0.059,0.719,0.396,2.567,1.011,5.553c0.614,2.979,3.292,5.99,8.034,9.016C84.843,196.492,81.647,197.292,78.832,197.532"/>
</g>
</svg>
