<?xml version="1.0" encoding="utf-8"?>
<!-- Generator: Adobe Illustrator 16.0.0, SVG Export Plug-In . SVG Version: 6.00 Build 0)  -->
<!DOCTYPE svg PUBLIC "-//W3C//DTD SVG 1.1//EN" "http://www.w3.org/Graphics/SVG/1.1/DTD/svg11.dtd">
<svg version="1.1" id="Camada_1" xmlns="http://www.w3.org/2000/svg" xmlns:xlink="http://www.w3.org/1999/xlink" x="0px" y="0px"
	 width="500px" height="500px" viewBox="0 0 500 500" enable-background="new 0 0 500 500" xml:space="preserve">
<g>
	<path fill="#164193" d="M359.275,403.107c0-0.414-0.038-0.818-0.052-1.23c-0.02-0.549-0.025-1.104-0.069-1.648
		c-0.052-0.637-0.146-1.258-0.229-1.883c-0.046-0.322-0.071-0.652-0.126-0.975c-0.102-0.617-0.243-1.219-0.378-1.822
		c-0.069-0.318-0.125-0.643-0.204-0.957c-0.152-0.605-0.342-1.188-0.525-1.771c-0.093-0.301-0.173-0.607-0.274-0.904
		c-0.228-0.654-0.488-1.283-0.751-1.912c-0.088-0.207-0.16-0.42-0.251-0.625c-4.088-9.197-12.142-15.473-21.394-15.473
		c-9.251,0-17.302,6.275-21.391,15.473c-0.093,0.205-0.164,0.418-0.25,0.625c-0.263,0.629-0.526,1.258-0.751,1.912
		c-0.104,0.297-0.182,0.604-0.275,0.904c-0.184,0.584-0.372,1.166-0.524,1.771c-0.081,0.314-0.134,0.639-0.205,0.957
		c-0.136,0.604-0.276,1.205-0.378,1.822c-0.054,0.322-0.08,0.652-0.125,0.975c-0.084,0.625-0.179,1.246-0.23,1.883
		c-0.045,0.545-0.05,1.1-0.068,1.648c-0.017,0.412-0.053,0.816-0.053,1.23c0,0.008,0.001,0.012,0.001,0.018
		c0,0.01-0.001,0.023-0.001,0.033c0,16.102,10.882,29.203,24.251,29.203c13.373,0,24.254-13.102,24.254-29.203
		c0-0.01-0.002-0.023-0.002-0.033C359.273,403.119,359.275,403.115,359.275,403.107 M346.122,403.158
		c0,7.418-4.979,13.455-11.101,13.455c-6.118,0-11.097-6.037-11.097-13.455c0-0.563,0.077-1.105,0.135-1.656
		c0.032-0.336,0.029-0.684,0.083-1.01c0.428-2.586,1.473-4.963,3.052-6.867c0.033-0.039,0.053-0.086,0.085-0.127
		c2.001-2.369,4.73-3.844,7.742-3.844c3.014,0,5.743,1.475,7.747,3.846c0.031,0.039,0.051,0.086,0.084,0.125
		c1.577,1.904,2.624,4.281,3.052,6.867c0.054,0.326,0.05,0.674,0.083,1.01C346.043,402.053,346.122,402.596,346.122,403.158
		 M342.853,382.533c-1.568,1.891-2.161,4.514-1.789,6.965c-1.812-1.166-3.849-1.889-6.042-1.889s-4.229,0.723-6.038,1.889
		c0.372-2.451-0.223-5.074-1.789-6.965c-1.143-1.381-2.644-2.156-4.25-2.279c3.491-2.707,7.63-4.299,12.077-4.299
		s8.586,1.592,12.077,4.301C345.493,380.377,343.994,381.152,342.853,382.533"/>
	
		<rect x="20.803" y="255.435" transform="matrix(0.999 -0.0441 0.0441 0.999 -13.4016 11.3225)" fill="#164193" width="458.395" height="108.127"/>
	<path fill="#DDDB00" d="M394.313,273.432c-0.246-5.57-4.96-9.885-10.529-9.639l-27.873,1.23h-0.001l-27.874,1.23
		c-5.569,0.246-9.885,4.959-9.639,10.527c0.245,5.57,4.961,9.887,10.53,9.641l17.789-0.785l2.06,46.684
		c0.246,5.568,4.96,9.883,10.529,9.639c5.569-0.246,9.885-4.961,9.639-10.529l-2.06-46.684l17.79-0.785
		C390.242,283.715,394.559,279.002,394.313,273.432"/>
	<path fill="#DDDB00" d="M315.758,332.607c-0.005-0.104-0.01-0.203-0.017-0.303c-0.378-6.943-3.215-13.188-7.631-17.928
		c4.036-5.186,6.325-11.771,6.014-18.836c-0.697-15.781-14.103-28.053-29.879-27.356l-26.896,1.187
		c-5.571,0.246-9.886,4.961-9.641,10.529c0.001,0.012,0.001,0.02,0.003,0.027l1.634,37.012c0,0.01,0,0.018,0,0.027
		s0.001,0.02,0.002,0.027l0.867,19.676c0.246,5.568,4.959,9.885,10.528,9.639s9.886-4.959,9.641-10.529l-0.425-9.619l16.813-0.74
		c4.656-0.205,8.615,3.418,8.821,8.074l0.051,1.17c0.246,5.57,4.958,9.887,10.528,9.641s9.886-4.959,9.64-10.529L315.758,332.607z
		 M285.88,305.254l-16.813,0.74l-0.746-16.898l16.813-0.742c4.658-0.205,8.617,3.416,8.822,8.078
		C294.161,301.088,290.537,305.047,285.88,305.254"/>
	<path fill="#DDDB00" d="M231.233,327.402l-25.463,1.123l-0.363-8.215l10.232-0.451c5.568-0.246,9.884-4.959,9.639-10.527
		c-0.246-5.57-4.959-9.887-10.529-9.641l-10.231,0.451l-0.362-8.215l25.463-1.123c5.569-0.246,9.886-4.961,9.639-10.531
		c-0.244-5.568-4.959-9.884-10.529-9.639l-35.547,1.569c-5.569,0.246-9.885,4.96-9.639,10.528l1.252,28.383l0,0
		c0,0.002,0,0.002,0,0.004l1.254,28.383c0.245,5.568,4.96,9.883,10.528,9.637l35.548-1.568c5.568-0.244,9.885-4.959,9.639-10.529
		C241.517,331.473,236.804,327.156,231.233,327.402"/>
	<path fill="#DDDB00" d="M172.608,311.656c2.726-4.145,4.216-9.152,3.963-14.475c-0.637-13.424-12.211-23.705-25.635-23.111
		l-27.393,1.207c-0.033,0.002-0.066,0.006-0.099,0.006c-0.034,0.002-0.067,0-0.101,0.004c-5.273,0.23-9.42,4.471-9.637,9.648
		c-0.002,0.031-0.002,0.063-0.004,0.092c-0.003,0.129-0.007,0.256-0.006,0.383c0,0.072,0.003,0.146,0.004,0.223
		c0.002,0.059,0.002,0.119,0.004,0.182l2.506,56.768c0,0.035,0.005,0.066,0.007,0.1c0.001,0.033,0.001,0.064,0.003,0.098
		c0.002,0.025,0.006,0.047,0.008,0.072c0.021,0.299,0.055,0.596,0.102,0.887c0.006,0.041,0.014,0.08,0.02,0.123
		c0.051,0.289,0.112,0.576,0.187,0.857c0.011,0.039,0.021,0.076,0.032,0.115c0.077,0.279,0.166,0.557,0.266,0.826
		c0.014,0.037,0.029,0.07,0.041,0.107c0.104,0.271,0.219,0.533,0.344,0.791c0.017,0.033,0.034,0.066,0.051,0.098
		c0.129,0.258,0.268,0.508,0.417,0.752c0.019,0.031,0.036,0.059,0.056,0.09c0.153,0.242,0.314,0.479,0.487,0.709
		c0.021,0.027,0.04,0.051,0.061,0.076c0.176,0.23,0.36,0.451,0.554,0.662c0.021,0.023,0.043,0.047,0.064,0.068
		c0.197,0.213,0.401,0.416,0.617,0.609c0.021,0.02,0.043,0.037,0.064,0.059c0.219,0.191,0.443,0.377,0.677,0.551
		c0.021,0.016,0.043,0.031,0.065,0.047c0.236,0.174,0.48,0.34,0.732,0.492c0.021,0.014,0.042,0.023,0.063,0.037
		c0.256,0.15,0.518,0.293,0.787,0.424c0.019,0.01,0.037,0.018,0.057,0.025c0.273,0.131,0.552,0.25,0.837,0.355
		c0.017,0.006,0.033,0.01,0.05,0.016c0.289,0.105,0.585,0.199,0.885,0.277c0.015,0.004,0.028,0.006,0.043,0.01
		c0.305,0.078,0.613,0.145,0.928,0.191c0.01,0.002,0.02,0.004,0.031,0.006c0.318,0.049,0.643,0.084,0.97,0.102
		c0.005,0,0.011,0,0.017,0.002c0.332,0.018,0.668,0.02,1.008,0.004h0.002l27.59-1.217c13.424-0.592,24.049-11.854,23.5-25.279
		C177.612,320.398,175.688,315.541,172.608,311.656 M152.009,294.229c2.297-0.102,4.337,1.691,4.4,3.992
		c0.061,2.234-1.688,4.119-3.928,4.219l-17.799,0.787l-0.363-8.217L152.009,294.229z M153.733,330.824l-17.799,0.785l-0.363-8.217
		l17.69-0.779c2.298-0.102,4.337,1.691,4.401,3.99C157.724,328.838,155.975,330.723,153.733,330.824"/>
	<path fill="#DDDB00" d="M78.017,282.893c-2.665-4.895-8.795-6.703-13.691-4.037c-0.266,0.145-0.52,0.305-0.768,0.469
		c-0.007,0.006-0.016,0.01-0.023,0.014c-0.049,0.033-0.1,0.066-0.148,0.1c-0.031,0.021-0.063,0.043-0.092,0.063
		c-0.023,0.016-0.045,0.029-0.068,0.045c-0.254,0.176-0.501,0.363-0.74,0.563c-0.02,0.02-0.041,0.033-0.062,0.051
		c-0.232,0.197-0.454,0.406-0.67,0.625c-0.019,0.02-0.038,0.037-0.058,0.059c-0.207,0.215-0.404,0.439-0.594,0.674
		c-0.019,0.023-0.039,0.047-0.059,0.072c-0.18,0.227-0.349,0.463-0.51,0.707c-0.021,0.033-0.043,0.066-0.065,0.1
		c-0.15,0.234-0.29,0.477-0.422,0.727c-0.024,0.047-0.048,0.09-0.071,0.137c-0.095,0.184-0.186,0.373-0.271,0.566l-25.229,57.992
		c-2.225,5.111,0.117,11.057,5.229,13.283c1.455,0.631,2.979,0.895,4.465,0.83c3.731-0.164,7.227-2.404,8.816-6.061l4.207-9.666
		l28.104-1.24l5.041,9.258c1.906,3.502,5.585,5.424,9.316,5.26c1.486-0.066,2.98-0.461,4.375-1.221
		c0.342-0.188,0.664-0.393,0.976-0.611c4.295-2.869,5.771-8.588,3.254-13.211L78.017,282.893z M69.975,310.822l7.806,14.336
		l-14.318,0.633L69.975,310.822z"/>
	<path fill="#DDDB00" d="M459.996,322.914l-30.24-55.543c-2.666-4.896-8.795-6.705-13.69-4.037c-0.268,0.143-0.52,0.303-0.767,0.467
		c-0.009,0.006-0.018,0.01-0.026,0.017c-0.05,0.033-0.1,0.064-0.147,0.099c-0.03,0.021-0.062,0.041-0.093,0.062
		c-0.022,0.015-0.044,0.03-0.066,0.046c-0.255,0.176-0.503,0.363-0.742,0.563c-0.019,0.017-0.041,0.034-0.06,0.052
		c-0.234,0.196-0.456,0.403-0.672,0.624c-0.019,0.019-0.038,0.038-0.058,0.057c-0.207,0.215-0.404,0.44-0.593,0.676
		c-0.019,0.024-0.04,0.047-0.059,0.071c-0.181,0.228-0.35,0.464-0.51,0.708c-0.021,0.033-0.044,0.066-0.065,0.099
		c-0.15,0.233-0.29,0.479-0.422,0.729c-0.024,0.044-0.05,0.089-0.07,0.133c-0.096,0.187-0.188,0.376-0.271,0.569l-25.23,57.99
		c-2.225,5.113,0.117,11.059,5.229,13.283c1.455,0.635,2.978,0.898,4.463,0.832c3.732-0.166,7.229-2.404,8.818-6.061l4.207-9.666
		l28.103-1.242l5.041,9.26c1.906,3.502,5.587,5.424,9.317,5.26c1.486-0.066,2.98-0.463,4.374-1.221
		c0.342-0.188,0.665-0.393,0.976-0.611C461.037,333.26,462.514,327.539,459.996,322.914 M421.714,295.299l7.806,14.338
		l-14.318,0.631L421.714,295.299z"/>
	<rect x="35.417" y="67.289" fill="#164193" width="148.107" height="165.985"/>
	<path fill="#DDDB00" d="M114.354,181.135H74.116c-9.156,0-16.58-7.422-16.58-16.578s7.424-16.578,16.58-16.578h40.238
		c7.66,0,13.891-6.232,13.891-13.893c0-7.659-6.23-13.891-13.891-13.891H74.116c-9.156,0-16.58-7.423-16.58-16.578
		c0-9.156,7.424-16.579,16.58-16.579h40.238c25.943,0,47.049,21.105,47.049,47.048C161.403,160.029,140.298,181.135,114.354,181.135
		"/>
	<path fill="#DDDB00" d="M74.116,90.221c7.386,0,13.396,6.01,13.396,13.396v93.331c0,7.387-6.01,13.396-13.396,13.396
		c-7.389,0-13.396-6.009-13.396-13.396v-93.331C60.72,96.23,66.728,90.221,74.116,90.221 M74.116,87.038
		c-9.156,0-16.579,7.423-16.579,16.578v93.331c0,9.156,7.423,16.577,16.579,16.577c9.155,0,16.578-7.421,16.578-16.577v-93.331
		C90.694,94.461,83.271,87.038,74.116,87.038"/>
	<path fill="#164193" d="M301.564,406.762c-0.302,0.334-0.604,0.676-0.909,0.977C300.96,407.428,301.263,407.104,301.564,406.762"/>
	<path fill="#164193" d="M305.481,418.648c-1.643-1.279-3.833-1.932-6.515-1.932h-8.775c-0.175,0.225-0.349,0.451-0.522,0.676
		c0.839,0.359,1.555,0.816,2.193,1.336h7.104c2.223,0,3.997,0.506,5.273,1.508c1.409,1.102,2.155,2.66,2.155,4.51
		c0,1.607-0.572,3.057-1.653,4.191c-1.122,1.17-2.732,1.762-4.782,1.762h-10.024c-2.584,1.184-6.121,1.512-10.07,1.512
		c-7.789,0-13.837-3.24-13.837-7.895c0-1.674,0.841-3.225,2.249-4.537c-0.502-0.357-0.893-0.672-1.125-0.873l1.907-3.713
		c0.239-0.324,0.346-0.467,0.456-0.588c3.07-3.191,5.913-5.992,8.462-8.336c0.886-0.816,1.657-1.502,2.376-2.129h-0.027
		l-0.287,0.246c-0.698,0.617-1.448,1.281-2.308,2.078c-2.546,2.34-5.389,5.141-8.455,8.328c-1.045,1.115-1.943,2.516-2.744,4.283
		c-0.86,1.906-1.281,3.512-1.281,4.918c0,2.336,0.903,4.465,2.612,6.148c1.719,1.705,4.005,2.568,6.792,2.568h25.305
		c2.619,0,4.716-0.801,6.236-2.383c1.444-1.52,2.21-3.449,2.21-5.582C308.406,422.258,307.394,420.15,305.481,418.648"/>
	<path fill="#164193" d="M303.707,404.141h-0.057c-0.128,0.18-0.251,0.373-0.379,0.547L303.707,404.141z"/>
	<path fill="#164193" d="M305.107,402.027c1.781-2.941,2.686-6.234,2.686-9.793c0-2.309-0.439-4.564-1.3-6.711
		c-0.848-2.127-2.068-4.043-3.627-5.693c-1.572-1.652-3.417-2.973-5.495-3.92c-5.575-2.465-14.025-2.643-19.641-0.418
		c-2.639,1.049-4.889,2.473-6.691,4.252c-1.783,1.777-3.142,3.785-4.037,5.965c-0.91,2.191-1.37,4.361-1.37,6.455
		c0,2.969,1.244,4.838,2.288,5.883c1.506,1.5,3.452,2.289,5.64,2.289c3.157,0,5.02-1.457,6.023-2.682
		c0.979-1.193,1.791-2.74,2.494-4.74c0.482-1.398,0.688-1.877,0.733-1.963c0.998-1.539,2.094-2.166,3.782-2.166
		c0.774,0,1.452,0.162,2.085,0.496c0.569,0.303,1.006,0.717,1.334,1.266c0.322,0.529,0.48,1.146,0.48,1.893
		c0,0.773-0.208,1.607-0.616,2.494c-0.472,1.012-1.198,2.053-2.159,3.09c-1.065,1.139-2.42,2.293-4.014,3.424
		c-0.813,0.547-1.938,1.459-3.35,2.693h23.297C304.138,403.449,304.636,402.807,305.107,402.027"/>
	<path fill="#164193" d="M292.295,414.902c-0.777,0.633-1.5,1.24-2.171,1.814h0.067c0.031-0.041,0.063-0.084,0.097-0.125
		c0.687-0.588,1.437-1.217,2.254-1.883c3.558-2.906,6.017-4.977,7.512-6.324c0.203-0.184,0.399-0.447,0.602-0.646
		c-0.283,0.287-0.565,0.586-0.849,0.838C298.307,409.928,295.782,412.057,292.295,414.902"/>
	<path fill="#164193" d="M301.564,406.762c0.577-0.639,1.146-1.314,1.708-2.074l-0.857,1.084
		C302.135,406.123,301.849,406.438,301.564,406.762"/>
	<path fill="#164193" d="M286.794,416.984c1.166-1.076,2.588-2.297,4.229-3.635c3.46-2.828,5.966-4.938,7.442-6.266
		c0.317-0.285,0.635-0.6,0.958-0.934H281.08c-0.604,0.535-1.256,1.115-1.987,1.791c-2.516,2.316-5.328,5.088-8.36,8.238
		c-0.882,0.943-1.66,2.164-2.371,3.729c-0.737,1.635-1.1,2.975-1.1,4.086c0,1.787,0.695,3.422,2.015,4.721
		c1.331,1.318,3.142,1.984,5.379,1.984h15.28c2.512-1.148,4.124-3.104,4.299-6.383c0.135-2.527-0.796-4.307-2.372-5.588h-6.958
		L286.794,416.984z"/>
	<path fill="#164193" d="M269.516,414.605c-0.11,0.121-0.217,0.264-0.456,0.588l-1.908,3.711c0.234,0.203,0.624,0.52,1.127,0.875
		c-1.409,1.313-2.25,2.863-2.25,4.537c0,4.654,6.048,7.895,13.837,7.895c3.948,0,7.487-0.33,10.069-1.512h-15.278
		c-2.238,0-4.049-0.666-5.38-1.984c-1.319-1.303-2.015-2.934-2.015-4.721c0-1.111,0.36-2.451,1.1-4.084
		c0.711-1.566,1.488-2.787,2.371-3.73c3.032-3.15,5.843-5.922,8.36-8.238c0.731-0.676,1.383-1.256,1.987-1.791h18.343
		c-0.323,0.334-0.642,0.648-0.958,0.934c-1.479,1.328-3.982,3.438-7.441,6.264c-1.642,1.34-3.063,2.561-4.229,3.637l-1.89,1.744
		h6.958c-0.639-0.52-1.354-0.979-2.194-1.336c0.175-0.225,0.35-0.451,0.523-0.676h-0.068c0.672-0.574,1.396-1.182,2.172-1.814
		c3.487-2.846,6.012-4.975,7.512-6.326c0.283-0.254,0.566-0.553,0.849-0.838c0.306-0.301,0.606-0.643,0.91-0.977
		c0.284-0.324,0.569-0.639,0.849-0.99l0.857-1.084c0.128-0.174,0.251-0.369,0.379-0.547h-23.298
		c-0.718,0.629-1.487,1.313-2.375,2.129C275.429,408.613,272.586,411.414,269.516,414.605"/>
	<path fill="#164193" d="M388.746,430.523h10.023c2.05,0,3.66-0.594,4.782-1.766c1.08-1.133,1.654-2.58,1.654-4.186
		c0-1.852-0.746-3.41-2.156-4.514c-1.274-1.002-3.051-1.51-5.273-1.51h-7.105c1.579,1.283,2.509,3.066,2.373,5.59
		C392.868,427.418,391.257,429.373,388.746,430.523"/>
	<path fill="#164193" d="M400.374,406.584c-0.302,0.334-0.603,0.676-0.908,0.977C399.771,407.252,400.072,406.926,400.374,406.584"
		/>
	<path fill="#164193" d="M404.29,418.471c-1.642-1.279-3.833-1.932-6.514-1.932h-8.775c-0.175,0.227-0.349,0.451-0.522,0.676
		c0.839,0.359,1.555,0.816,2.192,1.336h7.105c2.223,0,3.997,0.506,5.273,1.508c1.41,1.104,2.155,2.662,2.155,4.51
		c0,1.609-0.573,3.057-1.653,4.193c-1.122,1.168-2.732,1.762-4.782,1.762h-10.023c-2.584,1.182-6.121,1.51-10.071,1.51
		c-7.789,0-13.837-3.24-13.837-7.895c0-1.672,0.84-3.225,2.25-4.535c-0.502-0.359-0.893-0.674-1.126-0.875l1.907-3.711
		c0.239-0.326,0.346-0.467,0.456-0.59c3.07-3.191,5.913-5.992,8.462-8.336c0.888-0.814,1.656-1.502,2.375-2.129h-0.026l-0.287,0.246
		c-0.698,0.617-1.449,1.281-2.308,2.078c-2.546,2.34-5.388,5.141-8.454,8.328c-1.047,1.115-1.945,2.518-2.745,4.285
		c-0.86,1.904-1.28,3.51-1.28,4.916c0,2.338,0.903,4.463,2.611,6.148c1.72,1.705,4.004,2.568,6.793,2.568h25.304
		c2.619,0,4.716-0.801,6.235-2.383c1.445-1.52,2.211-3.449,2.211-5.582C407.216,422.08,406.203,419.971,404.29,418.471"/>
	<path fill="#164193" d="M402.516,403.963h-0.056c-0.127,0.178-0.25,0.375-0.378,0.547L402.516,403.963z"/>
	<path fill="#164193" d="M403.918,401.85c1.782-2.939,2.685-6.234,2.685-9.791c0-2.311-0.439-4.566-1.299-6.713
		c-0.85-2.127-2.069-4.043-3.628-5.693c-1.572-1.652-3.417-2.973-5.495-3.918c-5.575-2.467-14.025-2.645-19.64-0.42
		c-2.64,1.049-4.89,2.475-6.691,4.252c-1.784,1.779-3.143,3.785-4.038,5.965c-0.911,2.191-1.371,4.363-1.371,6.455
		c0,2.969,1.246,4.838,2.29,5.883c1.504,1.5,3.452,2.289,5.64,2.289c3.156,0,5.018-1.455,6.022-2.682
		c0.979-1.193,1.791-2.74,2.493-4.738c0.483-1.398,0.688-1.879,0.734-1.965c0.998-1.539,2.094-2.166,3.782-2.166
		c0.773,0,1.452,0.164,2.086,0.498c0.569,0.301,1.005,0.715,1.333,1.266c0.323,0.529,0.48,1.145,0.48,1.891
		c0,0.773-0.209,1.609-0.617,2.494c-0.471,1.014-1.196,2.053-2.158,3.09c-1.065,1.141-2.419,2.293-4.014,3.424
		c-0.813,0.547-1.938,1.459-3.35,2.693h23.297C402.948,403.271,403.445,402.629,403.918,401.85"/>
	<path fill="#164193" d="M391.104,414.725c-0.776,0.633-1.5,1.242-2.171,1.814h0.067c0.032-0.041,0.064-0.084,0.097-0.123
		c0.688-0.59,1.437-1.219,2.253-1.885c3.558-2.906,6.017-4.975,7.513-6.324c0.203-0.184,0.398-0.447,0.603-0.646
		c-0.283,0.287-0.567,0.586-0.851,0.84C397.116,409.75,394.591,411.879,391.104,414.725"/>
	<path fill="#164193" d="M400.374,406.584c0.578-0.639,1.147-1.314,1.708-2.074l-0.859,1.082
		C400.944,405.945,400.659,406.26,400.374,406.584"/>
	<path fill="#164193" d="M385.603,416.807c1.167-1.076,2.588-2.297,4.229-3.635c3.46-2.828,5.966-4.938,7.442-6.264
		c0.318-0.287,0.635-0.602,0.957-0.936h-18.341c-0.605,0.535-1.257,1.115-1.989,1.791c-2.515,2.316-5.328,5.088-8.357,8.238
		c-0.886,0.941-1.661,2.164-2.373,3.73c-0.737,1.633-1.099,2.973-1.099,4.084c0,1.787,0.694,3.42,2.015,4.721
		c1.331,1.318,3.141,1.986,5.379,1.986h15.28c2.511-1.148,4.122-3.105,4.298-6.385c0.136-2.527-0.796-4.307-2.373-5.588h-6.956
		L385.603,416.807z"/>
	<path fill="#164193" d="M368.325,414.428c-0.109,0.123-0.216,0.264-0.456,0.59l-1.907,3.711c0.233,0.201,0.622,0.516,1.126,0.875
		c-1.41,1.311-2.25,2.861-2.25,4.535c0,4.654,6.048,7.895,13.836,7.895c3.949,0,7.487-0.328,10.07-1.51h-15.278
		c-2.238,0-4.048-0.668-5.379-1.986c-1.32-1.301-2.015-2.934-2.015-4.721c0-1.111,0.36-2.451,1.099-4.084
		c0.711-1.566,1.487-2.787,2.371-3.73c3.033-3.148,5.845-5.922,8.361-8.238c0.73-0.676,1.382-1.256,1.987-1.791h18.342
		c-0.323,0.334-0.641,0.648-0.959,0.936c-1.477,1.326-3.982,3.436-7.441,6.262c-1.641,1.34-3.063,2.561-4.229,3.637l-1.89,1.742
		h6.958c-0.639-0.518-1.354-0.975-2.193-1.334c0.174-0.225,0.348-0.449,0.522-0.676h-0.068c0.672-0.574,1.395-1.182,2.172-1.814
		c3.488-2.846,6.012-4.973,7.511-6.324c0.283-0.256,0.567-0.553,0.851-0.84c0.306-0.301,0.606-0.643,0.908-0.977
		c0.285-0.324,0.57-0.639,0.849-0.992l0.859-1.082c0.127-0.172,0.251-0.369,0.378-0.547h-23.298
		c-0.717,0.627-1.487,1.313-2.375,2.129C374.239,408.436,371.396,411.236,368.325,414.428"/>
	<path fill="#164193" d="M446.101,432.418c-0.26,0-1.006-0.033-1.144-0.043c-2.599-0.254-4.149-1.107-5.541-3.059
		c-1.274-1.813-1.919-4.254-1.919-7.26l-0.047-27.701c0-5.775,2.364-9.826,6.317-10.822c0.247-0.074,0.378-0.086,0.511-0.098
		l0.413,0.957l-0.157-0.992c0.259-0.039,0.522-0.078,0.797-0.078c0.16-0.025,0.278-0.041,0.4-0.041c1.076,0,2.124,0.295,3.122,0.873
		c0.459,0.285,0.723,0.451,0.974,0.654c1.014,0.76,1.856,1.799,2.473,3.076l0.182,0.258l-0.004,0.102
		c0.75,1.727,1.131,3.795,1.131,6.15l0.048,27.703c0,3.008-0.647,5.451-1.924,7.26C450.307,431.361,448.362,432.418,446.101,432.418
		 M445.731,385.293c-0.475,0.07-0.647,0.055-0.88,0.094l-0.411,0.051c-3.186,0.805-4.98,4.119-4.98,8.918l0.047,27.701
		c0,2.586,0.522,4.637,1.552,6.1c1.041,1.461,2.074,2.023,4.093,2.215c0.125,0.012,0.733,0.035,0.949,0.035
		c1.604,0,2.945-0.746,3.989-2.211c1.033-1.461,1.556-3.514,1.556-6.098l-0.048-27.703c0-2.162-0.349-4.021-1.044-5.525
		l-0.067-0.113c-0.471-0.979-1.11-1.775-1.9-2.363c-0.216-0.178-0.404-0.291-0.593-0.404
		C447.157,385.492,446.447,385.293,445.731,385.293"/>
	<path fill="#164193" d="M451.556,416.59c1.28-1.643,1.933-3.834,1.933-6.514v-5.813h-2.011v5.813c0,2.221-0.506,3.996-1.508,5.271
		c-1.104,1.41-2.662,2.156-4.512,2.156c-1.605,0-3.056-0.572-4.189-1.654c-1.171-1.121-1.764-2.73-1.764-4.781v-6.805h-2.011v6.805
		c0,2.619,0.801,4.717,2.384,6.236c1.52,1.443,3.447,2.211,5.58,2.211C447.947,419.516,450.056,418.502,451.556,416.59"/>
	<path fill="#164193" d="M452.515,391.416c0-1.668-0.395-3.094-1.124-4.229v-0.014c-0.026-0.029-0.05-0.051-0.077-0.08
		c-0.552-0.822-1.297-1.465-2.19-1.941c-0.221-0.133-0.457-0.236-0.692-0.34c-0.05-0.02-0.089-0.047-0.139-0.064
		c-0.801-0.334-1.671-0.523-2.596-0.523c-0.134,0-0.249,0.025-0.38,0.031c-0.006,0-0.011-0.002-0.019-0.002
		c-0.268,0-0.522,0.035-0.779,0.064c-0.138,0.016-0.287,0.012-0.42,0.035c-0.036,0.006-0.071,0.021-0.107,0.029
		c-3.438,0.623-5.513,3.184-5.513,7.006l0.023,10.016l-11.892,0.025l-0.04-17.348c0-2.797-0.583-5.041-1.734-6.68
		c-1.229-1.729-2.888-2.635-4.809-2.635c-0.124,0-0.238,0.037-0.362,0.045c-0.228-0.027-0.447-0.086-0.686-0.086
		c-1.917,0-3.578,0.908-4.807,2.637c-1.151,1.637-1.734,3.881-1.734,6.678l0.045,19.883c0,1.457,0.092,4.168,0.447,5.549
		c0.894,3.459,4.677,6.1,10.052,6.1l17.068-0.039c0.079,0.094,0.109,0.227,0.196,0.316c1.22,1.229,2.869,1.875,4.774,1.875
		c0.125,0,0.237-0.027,0.36-0.033c0.227,0.021,0.444,0.063,0.681,0.063c1.905,0,3.555-0.646,4.774-1.877
		c1.144-1.166,1.723-2.762,1.723-4.75L452.515,391.416z"/>
	<path fill="#164193" d="M446.061,418.756c-0.196,0-0.384-0.02-0.569-0.043l-0.471,0.016c-2.183,0-4.08-0.754-5.489-2.176
		l-0.016-0.016l-16.527,0.041c-5.546,0-9.975-2.754-11.03-6.854c-0.455-1.768-0.48-5.141-0.48-5.801l-0.046-19.881
		c0-3.008,0.645-5.451,1.919-7.256c1.427-2.006,3.374-3.068,5.628-3.068c0.217,0,0.42,0.033,0.62,0.064
		c0.177-0.004,0.299-0.02,0.429-0.02c2.261,0,4.205,1.055,5.631,3.059c1.276,1.814,1.92,4.258,1.92,7.258l0.036,16.342l9.878-0.02
		l-0.019-9.008c0-4.291,2.366-7.279,6.338-8.004c0.228-0.045,0.353-0.059,0.479-0.061l0.407,0.969l-0.117-0.996
		c0.239-0.033,0.476-0.057,0.714-0.057h0.052c0.145-0.02,0.243-0.025,0.35-0.025c1.024,0,2.026,0.199,2.98,0.6
		c0.446,0.199,0.719,0.322,0.97,0.471c1.013,0.537,1.873,1.305,2.506,2.242l0.294,0.295l-0.02,0.129
		c0.723,1.256,1.092,2.754,1.092,4.457l0.047,19.709c0,2.262-0.675,4.094-2.01,5.457
		C450.138,418.006,448.241,418.756,446.061,418.756 M445.426,416.688l0.302,0.029c1.639,0.162,3.295-0.441,4.394-1.547
		c0.951-0.969,1.435-2.332,1.435-4.043l-0.047-19.707c0-1.455-0.323-2.691-0.959-3.682l-0.07-0.082
		c-0.444-0.662-1.061-1.209-1.826-1.619c-0.225-0.133-0.409-0.213-0.593-0.289c-0.863-0.369-1.607-0.518-2.364-0.518l-0.511,0.035
		l-0.016-0.004c-0.118,0.008-0.235,0.023-0.354,0.035l-0.42,0.039c-3.205,0.578-4.913,2.768-4.913,6.055l0.027,11.016l-13.9,0.035
		l-0.042-18.357c0-2.586-0.523-4.633-1.551-6.104c-1.046-1.461-2.389-2.207-3.99-2.207c-0.126,0.023-0.208,0.037-0.299,0.041
		l-0.113,0.006l-0.354-0.055c-0.09-0.016-0.184-0.035-0.282-0.035c-1.598,0-2.94,0.746-3.985,2.215
		c-1.029,1.461-1.552,3.512-1.552,6.096l0.048,19.879c0,1.842,0.13,4.191,0.417,5.303c0.824,3.195,4.473,5.346,9.078,5.346
		l17.521-0.041l0.538,0.707c0.938,0.938,2.345,1.482,3.978,1.482L445.426,416.688z"/>
	<rect x="170.425" y="92.719" fill="#A33389" width="148.108" height="165.984"/>
	<path fill="#DDDB00" d="M244.479,238.955c-31.957,0-57.954-25.998-57.954-57.954v-51.955c0-9.156,7.423-16.578,16.579-16.578
		s16.578,7.422,16.578,16.578v51.955c0,13.672,11.123,24.796,24.797,24.796c13.673,0,24.796-11.124,24.796-24.796
		c0-9.157,7.423-16.579,16.579-16.579s16.578,7.422,16.578,16.579C302.433,212.957,276.436,238.955,244.479,238.955"/>
	<path fill="#DDDB00" d="M285.854,115.65c7.387,0,13.396,6.01,13.396,13.396V181c0,30.202-24.57,54.772-54.771,54.772
		c-7.386,0-13.396-6.01-13.396-13.396c0-7.389,6.01-13.396,13.396-13.396c15.429,0,27.98-12.553,27.98-27.98v-51.953
		C272.459,121.66,278.467,115.65,285.854,115.65 M285.854,112.467c-9.156,0-16.579,7.423-16.579,16.58V181
		c0,13.674-11.123,24.799-24.797,24.799c-9.155,0-16.577,7.422-16.577,16.578c0,9.154,7.422,16.577,16.577,16.577
		c31.957,0,57.954-25.997,57.954-57.954v-51.953C302.433,119.89,295.01,112.467,285.854,112.467"/>
	<rect x="308.353" y="72.822" fill="#2796D3" width="148.108" height="165.984"/>
	<path fill="#DDDB00" d="M365.293,209.379c-3.53,0-7.086-1.123-10.099-3.441c-15.687-12.07-24.684-30.338-24.684-50.122
		c0-34.873,28.369-63.244,63.24-63.244c11.463,0,22.698,3.104,32.493,8.974c7.854,4.707,10.405,14.89,5.699,22.743
		c-4.707,7.853-14.89,10.405-22.743,5.698c-4.647-2.785-9.989-4.257-15.449-4.257c-16.589,0-30.082,13.496-30.082,30.086
		c0,9.409,4.281,18.101,11.746,23.844c7.257,5.584,8.613,15.993,3.028,23.249C375.179,207.152,370.262,209.379,365.293,209.379"/>
	<path fill="#DDDB00" d="M347.09,142.418c7.387,0,13.396,6.01,13.396,13.396c0,18.345,14.925,33.269,33.27,33.269
		c6.034,0,11.94-1.629,17.074-4.709c2.084-1.251,4.463-1.911,6.88-1.912c4.756,0,9.057,2.433,11.501,6.508
		c3.8,6.334,1.737,14.579-4.596,18.379c-9.301,5.579-19.971,8.527-30.859,8.527c-33.119,0-60.062-26.943-60.062-60.062
		C333.693,148.428,339.702,142.418,347.09,142.418 M347.09,139.236c-9.156,0-16.58,7.422-16.58,16.577
		c0,34.872,28.371,63.243,63.245,63.243c11.464,0,22.701-3.105,32.496-8.98c7.851-4.71,10.397-14.893,5.688-22.744
		c-3.107-5.182-8.6-8.054-14.232-8.054c-2.902,0.001-5.843,0.763-8.513,2.364c-4.642,2.785-9.981,4.257-15.438,4.257
		c-16.59,0-30.086-13.497-30.086-30.086C363.669,146.658,356.246,139.236,347.09,139.236"/>
</g>
</svg>
