<?xml version="1.0" encoding="utf-8"?>
<!-- Generator: Adobe Illustrator 16.0.0, SVG Export Plug-In . SVG Version: 6.00 Build 0)  -->
<!DOCTYPE svg PUBLIC "-//W3C//DTD SVG 1.1//EN" "http://www.w3.org/Graphics/SVG/1.1/DTD/svg11.dtd">
<svg version="1.1" id="Camada_1" xmlns="http://www.w3.org/2000/svg" xmlns:xlink="http://www.w3.org/1999/xlink" x="0px" y="0px"
	 width="1080px" height="1080px" viewBox="0 0 1080 1080" enable-background="new 0 0 1080 1080" xml:space="preserve">
<g>
	<path fill="#FFFFFF" d="M635.446,879.13c5.988,0,10.518-4.673,10.518-10.886c0-6.086-4.047-10.341-9.844-10.341h-0.129
		c-4.48,0-10.807,3.387-10.807,10.886C625.184,876.433,630.707,879.13,635.446,879.13"/>
	<path fill="#FFFFFF" d="M371.511,867.489c-2.281,0.305-3.597,1.06-3.597,4.062v38.49c0,25.049-9.113,28.438-18.017,28.438
		c-7.853,0-18.289-2.858-18.289-27.49v-35.343c0-6.455-0.306-8.702-3.67-8.702c-3.131,0-14.13,0.674-16.948,1.091l-0.481,0.081
		l0.048,0.482c0.273,2.89,0.409,8.621,0.409,17.566v25.659c0,29.239,12.356,44.077,36.731,44.077
		c17.325,0,37.976-8.077,37.976-46.55v-19.525c0-11.835,0.145-17.149,0.401-22.353l0.032-0.529h-0.53
		C382.904,866.943,375.67,867.088,371.511,867.489"/>
	<path fill="#FFFFFF" d="M448.281,879.563c7.997,0,14.146,2.12,17.093,3.372l0.137,0.049c2.136,0.272,4.111-0.385,5.7-1.911
		c2.063-1.959,3.228-5.234,2.97-8.334l-0.016-0.177l-0.111-0.129c-2.112-2.36-12.14-7-25.772-7
		c-30.228,0-49.762,17.134-49.762,43.644c0,28.437,19.373,46.823,49.36,46.823c8.654,0,15.64-4.48,19.397-6.889l0.497-0.305
		l0.072-0.065c2.737-2.568,4.536-6.952,5.098-12.332l0.032-0.353l-1.043-0.514l-1.06,0.305c-3.533,0.996-10.101,2.858-18.739,2.858
		c-19.285,0-31.745-12.059-31.745-30.75C420.389,884.478,435.563,879.563,448.281,879.563"/>
	<path fill="#FFFFFF" d="M609.223,919.386l-6.6-47.497l0,0c-0.545-3.645-1.43-4.945-3.389-4.945c-3.467,0-14.756,0.771-17.133,2.264
		l-0.24,0.145v1.959c-5.684,13.729-13.826,34.09-19.525,49.424l-17.502-46.759c-1.992-5.684-2.916-7.209-5.556-7.032
		c-7.033,0-12.236,1.139-16.034,1.959l-1.549,0.336l0.321,2.57c-3.854,23.267-7.507,46.743-10.181,63.892
		c-0.907,5.861-1.686,10.871-2.296,14.676l-0.049,0.354l0.306,0.177c2.305,1.284,9.964,3.757,14.387,3.757
		c1.928,0,2.698-2.97,3.116-5.234c1.886-15.415,4.864-43.37,6.351-59.604c2.384,7.627,5.644,17.92,8.807,27.907
		c4.561,14.371,8.848,27.939,10.469,33.286l0.113,0.354h0.369c2.713,0,5.924-0.354,9.842-1.093c3.582-0.722,4.994-1.91,6.006-5.121
		c6.824-20.441,14.195-42.762,18.064-55.527l2.635,28.374c1.283,14.469,2.102,22.4,2.746,28.774l0.127,1.27
		c0.289,3.131,2.328,6.614,4.625,6.614c2.746,0,11.176-2.376,14.789-3.387l1.572-0.449l-0.08-0.451
		C612.514,943.07,610.957,932.36,609.223,919.386"/>
	<path fill="#FFFFFF" d="M643.713,889.182c-3.355,0-13.277,0.835-16.875,1.8l-0.418,0.111l0.049,0.434
		c0.225,2.217,0.545,6.215,0.545,15.238v23.348c0,7.322-0.24,16.78-0.369,22.416l-0.064,2.135h0.531
		c7.193,0,12.203-0.176,14.869-0.545c3.773-0.434,5.121-3.661,5.121-6.536v-49.279C647.102,890.548,646.604,889.182,643.713,889.182
		"/>
	<path fill="#FFFFFF" d="M721.479,930.24v-16.104c0-16.86-7.338-25.772-21.227-25.772c-6.697,0-13.006,4.079-18.354,8.222
		c-1.412-5.46-4.561-8.222-9.361-8.222c-5.363,0-10.629,4.432-12.012,8.397l-0.031,1.542l0.24,0.145
		c1.863,1.155,2.359,2.537,2.359,6.407v22.255c0,7.209-0.111,18.354-0.4,27.041l-0.016,0.513h0.529c3.613,0,6.84-0.963,9.939-1.895
		c2.104-0.626,4.078-1.22,6.184-1.54c3.355-0.434,3.869-1.27,3.869-3.919v-40.562c2.746-1.941,5.105-3.307,9.506-3.307
		c5.105,0,8.686,4.287,8.686,10.421v34.957c0,2.425,1.141,5.844,3.662,5.844c4.416,0,8.559-1.316,11.865-2.376
		c1.832-0.578,3.404-1.091,4.514-1.188l0.48-0.033l-0.016-0.497C721.641,945.72,721.479,937.739,721.479,930.24"/>
	<path fill="#FFFFFF" d="M790.012,938.366c-0.482,0.112-1.445,0.112-2.072,0.112c-3.018,0-4.432-1.573-4.432-2.634
		c0-5.123,0.178-10.195,0.322-14.676c0.129-3.549,0.225-6.616,0.225-9.089c0-16.379-11.898-23.717-23.686-23.717
		c-9.473,0-19.686,4.641-26.092,8.961l-0.209,0.144l-0.016,0.273c-0.049,1.718,0.129,5.94,2.857,8.108
		c1.557,1.236,3.629,1.525,6.23,0.835l0.354-0.16c2.682-1.204,7.16-3.211,11.512-3.211c5.941,0,9.779,3.435,9.779,8.767v1.221
		c-1.59,0.289-4.303,0.787-6.582,1.155c-9.25,1.976-26.48,5.669-26.48,20.297c0,10.855,8.688,20.73,18.211,20.73
		c5.684,0,10.936-4.625,15.383-9.33c1.959,3.758,5.893,9.33,12.059,9.33c9.906,0,13.408-8.671,13.408-16.09l-0.273-1.156
		L790.012,938.366z M764.514,932.441c0,2.199-0.322,3.532-1.045,4.384c-1.766,1.476-3.066,1.926-5.57,1.926
		c-3.582,0-7.178-2.04-7.178-6.6v-0.129c0-1.605,1.012-6.872,13.793-8.316V932.441z"/>
	<path fill="#FFFFFF" d="M831.553,915.869h-0.016c-0.932-0.465-2.201-1.06-3.566-1.718c-2.682-1.268-5.717-2.698-7.24-3.597
		c-2.73-1.638-4.418-2.746-4.418-4.882c0-2.231,2.217-3.726,5.525-3.726c2.922,0,6.102,0.707,8.992,2.007l0.16,0.032
		c1.846,0.146,3.436-0.417,4.705-1.67c2.279-2.264,2.891-6.101,2.713-8.703l-0.016-0.239l-0.193-0.129
		c-4.623-3.324-9.746-4.882-16.088-4.882h-0.129c-11.482,0-23.846,6.406-23.846,20.457c0,6.615,3.549,12.509,9.746,16.138
		c1.848,0.963,3.646,1.878,5.412,2.778c1.799,0.898,3.564,1.797,5.283,2.681c3.66,1.976,4.4,3.372,4.4,5.01
		c0,2.506-2.314,4.015-6.215,4.015c-6.793,0-13.488-3.821-15.367-4.978l-0.338-0.209l-0.271,0.258
		c-1.992,1.862-4.016,5.619-4.016,9.248c0,2.794,1.992,4.416,3.967,5.636l1.156,0.676c3.854,2.295,9.137,5.411,13.633,5.411
		c12.861,0,26.174-8.833,26.174-23.605C841.701,924.895,838.377,919.659,831.553,915.869"/>
	<path fill="#FFFFFF" d="M262.658,867.136c-10.292,0-20.119,1.092-23.901,1.798l-0.457,0.081l0.048,0.466
		c0.546,6.311,0.546,11.979,0.546,18.545v62.416c0,2.632,1.35,5.459,3.838,5.459c3.758,0,14.387-0.401,17.021-1.123l0.394-0.114
		l-0.025-0.401c-0.272-5.507-0.409-11.785-0.409-18.706v-9.778c3.926,0.337,8.406-0.563,11.409-1.173
		c12.268-2.456,20.842-8.108,25.482-16.796c2.305-4.319,3.533-9.2,3.533-14.13C300.136,870.347,282.12,867.136,262.658,867.136
		 M264.601,909.704c-0.514,0-2.722-0.097-4.89-0.178v-29.063c1.396-0.192,3.044-0.192,4.055-0.192
		c7.347,0,14.853,1.558,14.853,13.135C278.619,907.583,269.836,909.704,264.601,909.704"/>
	<path fill="#FFFFFF" d="M753.643,830.75c13.326,0,24.84-6.729,37.061-13.857c13.584-7.949,27.619-16.154,45.779-16.154
		c2.006,0,3.82-1.188,4.641-3.019c0.818-1.83,0.465-3.966-0.867-5.46l-20.666-22.833l14.627-31.842
		c0.756-1.653,0.563-3.597-0.496-5.09c-1.076-1.477-2.859-2.264-4.818-2.056c-4.607,0.482-25.434,3.501-39.148,13.055
		c-0.063-18.481-1.154-27.137-1.172-27.265c-0.016-0.097-0.031-0.21-0.031-0.306c0-5.427-10.775-6.486-10.887-6.486
		c-18.064-1.462-36.98,0.835-57.822,7.049c-18.707,5.571-37.172,13.681-55.045,21.516c-8.334,3.662-16.957,7.451-25.563,10.952
		c-31.633,12.878-63.105,19.141-96.215,19.141c-33.103,0-64.567-6.263-96.201-19.141c-8.525-3.469-17.148-7.259-25.482-10.919
		l-0.129-0.049c-17.855-7.835-36.321-15.945-55.004-21.5c-20.882-6.214-39.798-8.526-57.814-7.049
		c-0.112,0.016-10.902,1.06-10.902,6.486c0,0.096,0,0.209-0.016,0.321c-0.017,0.112-1.302,9.875-1.188,31.521
		c-15.095-11.144-44.961-14.5-46.229-14.645c-1.429-0.144-2.842,0.481-3.685,1.638c-0.844,1.173-0.987,2.714-0.394,4.015
		l15.592,33.913l-22.096,24.407c-1.059,1.172-1.333,2.858-0.689,4.303c0.65,1.446,2.087,2.377,3.669,2.377
		c19.244,0,34.017,8.64,48.308,16.973c12.541,7.338,24.391,14.259,37.928,14.259c17.728,0,26.214-8.431,26.768-16.797
		c0.032-0.641,0.016-1.268-0.032-1.894c0.081-0.948,0.145-2.104,0.177-2.843c0.369-7.017,1.043-17.262,1.285-24.984
		c0.24-2.683,0.433-5.202,0.433-7.436c13.184,4.079,25.796,9.009,37.574,13.794c45.169,18.37,93.822,36.306,148.112,36.306
		c24.119,0,48.895-3.532,75.727-10.807c25.756-6.985,51.063-16.813,72.434-25.499c11.451-4.657,23.717-9.442,36.451-13.44
		c-0.064,1.734-0.176,3.902-0.322,6.343c-0.287,5.348-0.641,11.851-0.512,17.102c-0.129,3.323-0.129,7.948-0.082,8.606
		c0.322,4.785,3.115,9.298,7.691,12.38C739.158,829.048,745.823,830.75,753.643,830.75 M788.502,780.249
		c0,0,4.979,8.318-19.861,15.239c-3.309,0.818-7.113,1.702-11.529,2.729c-0.145,0.032-0.291,0.065-0.434,0.081
		c-0.996,0.209-2.023,0.418-3.1,0.61c-6.262,1.172-22.738,5.443-22.738,5.443c0.08-10.181,0.771-15.19,1.045-24.246
		c0.674-0.21,1.365-0.418,2.055-0.627c4.689-1.349,9.217-2.505,13.648-3.419c18.932-3.951,31.777-4.979,38.137,0.608
		C786.85,777.648,787.797,778.821,788.502,780.249 M343.394,826.623c-5.138,2.537-11.207,2.923-16.844,2.633
		c-27.057-1.396-44.744-30.958-82.342-30.958l22.03-25.307l-15.335-35.983c0,0,18.306,4.014,24.424,6.085
		c7.748,2.602,17.855,6.263,21.003,8.96c0.032,2.634,0.08,5.459,0.169,8.415c0.008,1.059,0.031,2.135,0.056,3.228
		c0.048,3.082,0.063,6.454,0.192,9.666c-1.236,1.06-2.625,2.585-3.388,4.769c-1.67,4.753-0.297,9.908,2.714,13.825
		c3.966,5.154,11.16,7.45,17.076,9.506c7.387,2.569,14.989,4.513,22.705,5.797c5.597,0.947,13.633,2.537,14.38,9.441
		C350.733,821.228,347.169,824.761,343.394,826.623 M352.114,808.815c-1.502-1.605-3.445-2.857-5.717-3.628
		c-0.803-0.354-1.694-0.628-2.665-0.804c-11.112-2.119-23.268-5.17-32.26-8.671c-5.628-2.184-10.02-4.545-12.147-6.969
		c-2.305-2.602-2.48-5.332-2.48-5.332c-0.032-0.513-0.008-0.994,0.049-1.429c0.152-1.22,0.562-2.136,0.738-2.521
		c1.781-3.788,6.223-5.426,8.398-6.133c2.127-0.401,4.399-0.611,6.719-0.611c0.651,0,1.27,0.017,1.855,0.049
		c11.802,0.658,24.069,2.858,37.51,6.712c0.666,0.193,1.316,0.417,1.991,0.61C354.024,784.681,353.663,791.201,352.114,808.815
		 M689.879,791.715c-21.275,8.639-46.471,18.417-72.033,25.354c-26.559,7.193-51.029,10.693-74.844,10.693
		c-53.664,0-101.963-17.807-146.835-36.048c-13.399-5.46-27.899-11.112-43.122-15.496c-4.263-1.22-8.414-2.279-12.476-3.179
		c-7.451-1.654-14.604-2.778-21.581-3.372c-3.79-0.45-7.314-0.627-10.454-0.434c-3.211,0.177-6.005,0.755-8.269,1.814
		c-1.574-37.462,0.553-54.194,0.578-54.354c0.031-0.258,0.048-0.514,0.048-0.771c0-1.236,4.447-2.826,7.771-3.1
		c17.662-1.428,36.161,0.835,56.569,6.921c18.498,5.508,36.876,13.568,54.659,21.372l0.097,0.049
		c8.35,3.661,16.98,7.451,25.556,10.936c32.042,13.055,63.932,19.396,97.492,19.396c33.543,0,65.434-6.342,97.482-19.396
		c8.576-3.484,17.197-7.274,25.516-10.936l0.129-0.049c17.775-7.804,36.145-15.864,54.643-21.372
		c20.441-6.086,38.939-8.349,56.586-6.921c3.244,0.273,7.771,1.88,7.771,3.1c0,0.241,0.016,0.498,0.049,0.755
		c0.016,0.128,1.268,9.843,1.156,31.136c-0.049,6.695-0.209,14.515-0.596,23.556c-0.48-0.177-0.93-0.338-1.363-0.514
		c-1.559-0.595-2.971-1.141-4.545-1.382c-2.729-0.658-6.262-0.689-9.762-0.689c-8.383,0.514-18.387,2.617-29.836,5.49
		c-2.393,0.611-4.801,1.236-7.258,1.943C717.819,780.603,703.303,786.255,689.879,791.715 M730.938,814.42
		c-0.563-3.164,0.723-5.926,3.678-7.193c1.766-0.771,6.311-2.088,8.125-2.425c6.486-1.221,38.922-7.66,46.293-14.388
		c4.352-3.966,6.293-10.936,1.268-15.352c-0.385-0.337-0.818-0.658-1.012-1.141c-0.129-0.353-0.129-0.737-0.113-1.107
		c0.227-8.333,0.531-16.683,0.578-25.017c13.297-8.896,33.641-13.263,38.186-13.745c0.914-0.081,1.846,0.32,2.408,1.075
		c0.547,0.771,0.643,1.767,0.258,2.618l-16.332,32.34l21.518,22.255c0.691,0.755,0.867,1.862,0.449,2.81
		c-0.418,0.948-1.363,1.558-2.393,1.558c-18.818,0-30.123,7.322-43.996,15.415c-11.898,6.953-23.139,13.536-35.793,13.536
		c-7.336,0-13.52-1.558-17.871-4.495C733.764,819.526,731.467,817.405,730.938,814.42"/>
	<path fill="#FFFFFF" d="M353.607,759.166c-0.481-0.145-0.739-0.208-1.229-0.353c-0.225,4.753-1.356,5.636-3.926,4.945
		c-1.991-0.546-3.003-0.803-5.059-1.333c-2.296-0.578-2.938-0.835-2.971-4.271c-0.056-5.477-0.016-8.271,0.032-13.826
		c2.265,0.546,3.372,0.818,5.564,1.397c2.722,0.706,3.66,2.986,3.652,6.342c0.498,0.129,0.747,0.193,1.237,0.338
		c0.023-5.202,0.063-7.819,0.063-13.022c-0.481-0.145-0.738-0.209-1.236-0.354c-0.273,1.976-0.569,4.593-3.693,3.773
		c-2.191-0.578-3.291-0.867-5.556-1.396c0.049-4.962,0.073-7.451,0.016-12.332c-0.031-2.938,0.563-3.052,2.859-2.473
		c1.421,0.369,2.127,0.545,3.531,0.915c2.955,0.803,4.834,2.634,4.866,7.579c0.481,0.145,0.73,0.208,1.221,0.354
		c-0.08-3.677-0.129-5.509-0.306-9.153c-8.317-2.456-12.669-3.549-22.095-5.298c0.017,0.513,0.032,0.771,0.04,1.3
		c4.553,1.75,4.688,1.782,4.713,7.868c0.064,13.199-0.418,20.28,0.017,33.143c7.651,1.766,11.279,2.729,18.305,4.77
		C353.583,764.514,353.583,762.73,353.607,759.166"/>
	<path fill="#FFFFFF" d="M378.929,735.932c-1.141-0.514-1.711-0.771-2.858-1.285c-2.384,5.492-3.693,8.108-6.374,13.457
		c-2.369-7.403-3.541-11.144-6.143-18.659c-3.074-1.188-4.648-1.767-7.844-2.874c0,0.546-0.008,0.819-0.016,1.349
		c3.436,1.943,3.869,3.003,5.282,7.146c2.128,6.358,3.123,9.522,5.154,15.833c-3.709,7.081-5.677,10.741-9.281,18.032
		c1.204,0.417,1.799,0.609,2.971,1.027c2.938-6.198,4.528-9.281,7.579-15.303c2.554,8.173,3.821,12.188,6.615,20.569
		c2.024,0.771,3.036,1.172,5.035,1.975c-3.485-10.421-5.035-15.303-8.215-25.434C374.249,745.438,375.927,742.419,378.929,735.932"
		/>
	<path fill="#FFFFFF" d="M404.718,750.56c3.469,1.702,4.352,6.23,4.561,8.237c1.861,0.899,2.793,1.35,4.673,2.232
		c-0.482-4.85-2.987-10.31-8.944-13.247c-8.511-4.192-10.445,4.447-10.558,15.174c-0.137,12.99,3.011,22.495,11.055,25.836
		c3.879,1.622,7.058,1.237,8.038,1.027c-0.025-1.59-0.041-2.36-0.058-3.886c-1.02,0.706-3.403,1.847-6.823,0.434
		c-7.563-3.163-8.029-16.491-7.981-22.93C398.712,757.512,399.483,747.99,404.718,750.56"/>
	<path fill="#FFFFFF" d="M427.776,755.313c-8.992-3.982-11.008,3.259-10.92,15.077c0.081,11.737,2.778,21.034,11.546,24.375
		c8.654,3.308,11.385-4.015,11.239-15.029C439.49,768.56,436.398,759.134,427.776,755.313 M428.338,791.843
		c-6.311-2.425-7.017-12.813-7.081-19.542c-0.064-7.338,0.16-16.908,6.583-14.065c6.295,2.794,6.938,12.781,7.033,19.669
		C434.969,784.633,434.793,794.3,428.338,791.843"/>
	<path fill="#FFFFFF" d="M466.233,780.459c-0.033-9.41-10.021-13.345-13.592-14.581c-4.689-1.638-6.945-2.488-11.329-4.206
		c0,0.562,0.008,0.818,0.016,1.364c4.159,2.553,4.304,2.81,4.384,8.286c0.145,11.898,0.161,15.591,0.354,29.111
		c1.975,0.658,2.97,0.995,4.994,1.638c-0.081-7.836-0.113-10.822-0.169-17.149c1.156,0.386,1.733,0.578,2.906,0.963
		c3.396,7.388,5.122,10.792,8.566,19.639c2.249,0.658,3.244,0.932,5.396,1.509c-3.477-9.248-5.179-12.7-8.783-20.393
		C462.821,787.187,466.249,786.448,466.233,780.459 M453.548,783.444c-1.084-0.354-1.621-0.545-2.682-0.898
		c-0.032-3.613-0.049-5.396-0.088-9.313c-0.04-3.966-0.088-5.153,3.123-4.046c4.03,1.381,7.162,4.367,7.162,10.052
		C461.079,785.115,456.614,784.457,453.548,783.444"/>
	<path fill="#FFFFFF" d="M482.403,774.324c-5.315-1.075-7.933-1.687-13.039-3.082c0.008,0.545,0.008,0.835,0.008,1.364
		c4.248,2.087,4.416,2.345,4.448,7.739c0.072,11.675,0.12,14.838,0.185,28.438c2.818,0.689,4.239,1.011,7.081,1.621
		c9.282,1.959,17.406,0.354,17.39-15.238C498.46,781.197,491.507,776.187,482.403,774.324 M482.491,807.804
		c-3.291-0.69-3.299-2.328-3.308-4.496c-0.073-10.212-0.12-13.359-0.185-23.684c-0.016-2.65,1.107-2.858,3.901-2.297
		c9.017,1.814,10.164,8.414,10.196,17.149C493.145,804.433,491.186,809.587,482.491,807.804"/>
	<path fill="#FFFFFF" d="M500.002,778.854c4.536,1.605,4.688,1.878,4.528,7.273c-0.338,11.721-0.418,14.74-0.828,28.501
		c7.748,1.092,11.65,1.478,19.51,1.991c0.233-3.741,0.346-5.411,0.555-8.559c-0.555-0.031-0.835-0.048-1.381-0.096
		c-0.498,4.223-1.895,5.523-4.705,5.282c-2.184-0.177-3.268-0.289-5.443-0.514c-2.449-0.257-3.074-0.563-2.971-3.726
		c0.177-5.025,0.241-7.145,0.394-11.546c2.4,0.258,3.604,0.386,6.013,0.611c2.995,0.257,4.031,1.879,3.902,4.608
		c0.563,0.048,0.843,0.064,1.397,0.113c0.2-4.256,0.288-6.199,0.481-10.502c-0.562-0.033-0.852-0.049-1.413-0.097
		c-0.368,1.669-0.819,3.854-4.271,3.549c-2.417-0.225-3.621-0.338-6.029-0.61c0.135-3.95,0.2-5.877,0.354-10.405
		c0.088-2.729,0.754-2.971,3.283-2.729c1.573,0.16,2.36,0.225,3.941,0.354c3.349,0.256,5.42,1.813,5.219,6.166
		c0.57,0.031,0.859,0.048,1.421,0.079c0.097-3.211,0.146-4.912,0.257-8.735c-9.787-0.529-14.66-0.994-24.182-2.393
		C500.017,778.034,500.017,778.306,500.002,778.854"/>
	<path fill="#FFFFFF" d="M542.922,783.221c4.672,0.771,4.801,1.043,4.561,6.535c-0.529,11.898-0.738,14.772-1.316,28.887
		c7.932-0.338,11.914-0.642,19.863-1.558c0.256-3.854,0.385-5.556,0.609-8.768c-0.563,0.065-0.834,0.097-1.396,0.161
		c-0.531,4.352-1.943,5.925-4.785,6.198c-2.217,0.208-3.324,0.288-5.541,0.466c-2.488,0.176-3.129-0.017-2.986-3.244
		c0.258-5.122,0.369-7.241,0.594-11.69c2.441-0.176,3.646-0.256,6.088-0.481c3.018-0.273,4.029,1.173,3.869,3.935
		c0.563-0.048,0.834-0.08,1.396-0.145c0.256-4.303,0.369-6.246,0.609-10.598c-0.561,0.048-0.85,0.08-1.412,0.144
		c-0.385,1.752-0.867,3.998-4.336,4.32c-2.441,0.226-3.645,0.305-6.086,0.48c0.193-3.98,0.305-5.94,0.514-10.549
		c0.145-2.777,0.82-3.147,3.357-3.355c1.572-0.129,2.359-0.193,3.949-0.354c3.324-0.32,5.363,0.899,5.123,5.315
		c0.578-0.064,0.85-0.097,1.412-0.161c0.113-3.26,0.178-4.978,0.32-8.896c-9.633,1.173-14.547,1.559-24.357,1.928
		C542.955,782.369,542.938,782.657,542.922,783.221"/>
	<path fill="#FFFFFF" d="M586.198,779.223c4.414-0.852,5.219,3.082,5.379,4.881c2.313-0.498,3.451-0.755,5.748-1.284
		c-0.369-4.368-3.002-8.254-10.549-6.776c-10.807,2.119-14.164,12.123-14.693,21.371c-0.658,11.192,2.859,19.446,13.07,17.583
		c4.93-0.898,9.025-3.597,10.293-4.527c0.064-1.654,0.098-2.44,0.145-3.967c-1.316,1.413-4.432,4.288-8.752,5.106
		c-9.602,1.813-9.537-10.63-9.232-16.266C577.91,790.173,579.533,780.507,586.198,779.223"/>
	<path fill="#FFFFFF" d="M613.061,772.51c4.063-1.268,4.945,2.585,5.17,4.368c2.072-0.723,3.1-1.076,5.188-1.815
		c-0.531-4.318-3.035-7.996-9.924-5.796c-9.859,3.131-12.926,13.52-13.23,22.77c-0.354,11.224,3.322,19.156,13.455,16.233
		c4.898-1.413,8.174-4.319,9.266-5.331c0-1.686,0-2.488-0.018-4.03c-1.123,1.525-3.451,4.527-7.707,5.797
		c-9.473,2.81-9.826-9.651-9.715-15.271C605.658,784.264,606.959,774.421,613.061,772.51"/>
	<path fill="#FFFFFF" d="M645.432,787.427c0.08,5.38-2.377,6.905-5.154,7.965c-1.525,0.578-2.279,0.866-3.789,1.43
		c-2.955,1.091-2.939,0.866-2.986-3.517c-0.129-13.119-0.402-15.688-0.498-30.847c-3.613,1.959-5.428,2.923-9.041,4.802
		c0,0.577,0,0.867,0,1.428c4.191-0.642,4.32-0.417,4.385,4.304c0.16,12.172,0.385,14.869,0.369,29.755
		c7.113-2.457,10.693-3.822,17.904-6.632c0.047-4.063,0.047-5.846,0.047-9.185C646.172,787.122,645.93,787.235,645.432,787.427"/>
	<path fill="#FFFFFF" d="M668.764,777.938c-0.113,4.593-1.334,6.6-3.887,7.643c-1.975,0.819-2.969,1.222-4.961,2.04
		c-2.232,0.899-2.793,0.883-2.859-2.489c-0.096-5.379-0.191-7.579-0.385-12.075c2.137-0.867,3.195-1.3,5.332-2.183
		c2.648-1.093,3.709,0.063,3.836,2.89c0.498-0.209,0.756-0.306,1.254-0.514c-0.209-4.399-0.338-6.327-0.578-10.566
		c-0.482,0.21-0.738,0.306-1.221,0.514c-0.176,1.767-0.369,4.079-3.404,5.332c-2.135,0.866-3.195,1.3-5.314,2.167
		c-0.193-3.982-0.289-5.893-0.449-10.357c-0.098-2.697,0.465-3.228,2.633-4.078c1.348-0.529,2.023-0.803,3.389-1.332
		c2.857-1.141,4.719-0.498,4.945,3.692c0.498-0.192,0.738-0.289,1.236-0.481c-0.225-3.083-0.338-4.688-0.531-8.285
		c-8.301,3.211-12.443,4.849-20.697,8.028c0,0.562,0.016,0.851,0.016,1.397c3.998-0.595,4.127-0.386,4.305,5.009
		c0.4,11.706,0.77,14.613,0.803,29.61c7.113-2.843,10.678-4.319,17.855-7.259c0.016-4.078,0-5.86-0.064-9.217
		C669.518,777.633,669.26,777.729,668.764,777.938"/>
	<path fill="#FFFFFF" d="M677.658,753.595c-0.24-3.437,1.543-6.007,3.871-6.889c3.404-1.301,6.76-0.771,7.996-0.529
		c-0.113-1.559-0.176-2.361-0.289-4.063c-1.141,0.128-4.031,0.417-7.033,1.541c-6.15,2.312-9.635,7.708-9.281,13.359
		c0.674,10.839,15.174,3.211,15.623,12.396c0.258,5.154-2.537,8.254-5.379,9.41c-3.596,1.46-7.24,0.208-8.67-0.306
		c0.064,1.976,0.08,3.003,0.111,5.219c0.947-0.048,4.416,0.016,7.9-1.397c6.215-2.521,11.338-8.912,10.871-16.716
		C692.69,753.963,678.172,761.591,677.658,753.595"/>
	<path fill="#FFFFFF" d="M692.465,741.23c0.031,0.498,0.047,0.738,0.08,1.221c4.303-0.835,4.432-0.69,4.816,3.5
		c0.996,10.79,1.734,13.842,2.008,28.968c1.99-0.755,2.986-1.124,4.961-1.863c-0.354-19.124-1.639-20.938-2.746-36.386
		C697.924,738.452,696.11,739.368,692.465,741.23"/>
	<path fill="#FFFFFF" d="M722.573,731.194c-3.34,0.996-7.018,1.51-10.342,2.57c0.031,0.48,0.049,0.706,0.096,1.172
		c1.799-0.258,3.453-0.675,3.646,1.332c0.047,0.354-0.273,2.231-0.451,3.132c-2.377,11.673-3.34,15.463-6.615,32.002
		c1.109-0.402,1.67-0.595,2.795-0.98c1.236-6.294,1.766-8.912,2.777-13.793c4.576-1.558,6.871-2.313,11.465-3.692
		c1.719,4.015,2.537,6.213,3.998,11.705c1.879-0.529,2.811-0.787,4.674-1.269C728.047,746.177,726.971,743.029,722.573,731.194
		 M715.026,753.932c1.396-6.567,2.938-10.839,4.207-17.053c2.537,5.235,3.965,8.526,5.732,13.841
		C720.983,751.94,719.006,752.583,715.026,753.932"/>
	<path fill="#FFFFFF" d="M736.621,733.667c1.236,10.036,2.168,13.344,2.408,28.598c7.146-1.701,10.711-2.408,17.809-3.354
		c0.031-4.224,0-6.086-0.129-9.538c-0.498,0.079-0.738,0.128-1.236,0.191c-0.033,4.657-1.252,6.407-3.807,6.841
		c-1.99,0.337-2.969,0.53-4.961,0.932c-2.248,0.449-2.793,0.305-2.953-3.115c-0.258-5.476-0.5-7.707-0.98-12.011
		c2.184-0.515,3.275-0.755,5.459-1.204c2.715-0.546,3.887,0.787,4.127,3.629c0.498-0.096,0.756-0.145,1.252-0.225
		c-0.369-4.433-0.609-6.343-1.092-10.229c-0.514,0.096-0.77,0.144-1.268,0.24c-0.08,1.573-0.16,3.693-3.275,4.335
		c-2.184,0.449-3.275,0.691-5.459,1.204c-0.451-3.74-0.707-5.475-1.141-9.232c-0.289-2.279,0.289-2.649,2.553-3.147
		c1.412-0.305,2.119-0.449,3.531-0.738c2.988-0.609,5.01,0.113,5.461,3.822c0.498-0.097,0.754-0.146,1.268-0.226
		c-0.385-2.745-0.578-4.11-0.916-7.048c-8.75,1.524-13.068,2.504-21.66,4.735c0.049,0.451,0.064,0.675,0.111,1.125
		C735.932,728.931,736.043,729.043,736.621,733.667"/>
	<path fill="#FFFFFF" d="M562.223,594.242c-0.883-1.847-5.105-9.988-6.342-11.705c-0.547-0.771-1.027-1.59-1.623-2.329
		c-2.088-2.618-1.75-5.363-1.477-6.118c0.867-2.505,2.281-6.711,4.785-16.667c1.205-4.834,1.35-7.387,1.461-8.254
		c0.434-3.677,0.691-6.005,0.338-9.121c-0.242-1.91-0.691-5.54-2.971-9.538c-2.377-4.158-5.379-6.406-6.006-6.872
		c-0.836-0.594-2.313-1.653-4.527-2.456c-0.594-0.226-3.654-1.284-7.764-0.932c-5.291,0.45-8.904,2.971-10.253,3.918
		c-0.835,0.61-4.038,2.986-6.486,7.338c-2.361,4.223-2.746,8.013-2.971,10.533c-0.257,3.004-0.619,6.97,1.285,11.401
		c1.461,3.388,3.676,5.764,4.463,6.599c1.107,1.173,2.168,2.057,2.971,2.666c0.498-0.851,1.316-2.055,2.545-3.275
		c2.682-2.649,4.063-3.1,6.495-3.195c0.948-0.048,2.393,0.354,3.324,0.787c0.144,0.064,0.272,0.24,0.426,0.353
		c0.778-1.573,0.987-4.914,0.987-6.535c0-2.328-0.113-3.741-0.674-4.993c-0.257-0.595-0.626-1.156-0.626-1.172
		c-0.441-0.676-0.932-1.414-1.734-1.976c-0.369-0.241-0.643-0.338-0.915-0.434c-0.466-0.161-1.092-0.386-1.606-1.124
		c-0.786-1.124-0.625-2.345-0.578-2.811c0.258-1.942,1.654-3.083,2.192-3.469c0.024-0.016,0.04-0.016,0.072-0.031
		c0.643-0.37,2.409-1.173,4.528-0.61c1.814,0.482,2.811,1.67,3.195,2.12c1.285,1.525,1.574,3.163,1.734,4.592
		c0.225,1.782,0.578,6.552-0.771,12.396l-0.078,0.369c-0.258,1.107-0.547,2.473-1.398,3.934c-0.369,0.627-0.658,1.061-0.891,1.397
		c-0.17,0.24-0.33,0.401-0.361,0.562c-0.545,3.517-0.514,25.789-0.281,29.386c0.08,1.284,0.201,15.126,0.33,18.192
		c0.031,0.626,0.096,2.665-1.076,3.468c-0.771,0.547-1.783,0.434-2.072,0.401c-1.349-0.144-2.28-0.962-2.633-1.3
		c-5.075-4.689-7.403-11.995-7.403-11.995c-1.332-4.176-2.851-10.132-3.517-17.582c-5.227,6.582-9.538,14.74-12.123,24.423
		c-2.216,8.302-1.043,16.298,0.674,23.588c0,0.016,0.515,2.297,1.004,4.384c1.389-0.37,2.931-0.449,4.375-0.225
		c0.058-0.097,0.113-0.177,0.186-0.273c0.023-0.016,0.041-0.031,0.072-0.063c0.658-0.611,1.67-1.654,2.729-2.746l0.032-0.032
		c2.008-2.071,4.271-4.416,5.829-5.62c0.529-0.401,1.316-0.386,1.839,0.032c0.521,0.418,0.682,1.172,0.377,1.782
		c-0.097,0.177-0.498,0.675-0.996,1.316c-0.271,0.337-0.562,0.723-0.834,1.076c0.08-0.08,0.16-0.145,0.24-0.226
		c0.706-0.657,1.43-1.316,1.654-1.477c0.449-0.289,1.076-0.241,1.478,0.112l0.063,0.063c0.378,0.386,0.441,0.98,0.153,1.446
		c-4.601,7.321-6.448,9.778-7.331,10.613c0,0.209,0,0.386,0,0.515c0,1.653-0.457,2.938-0.763,3.788
		c-0.441,1.237-0.939,2.104-1.477,3.036c-0.329,0.561-0.699,1.108-1.061,1.653c-0.979,1.462-1.902,2.842-2.144,4.576
		c-0.2,1.478,0.193,2.875,0.61,4.352c0.177,0.626,0.37,1.285,0.497,1.927c0.241,1.156,0.434,2.923,0.467,4.946
		c0.746,0.321,1.557,0.657,2.408,0.963c0.65,0.226,1.269,0.434,1.879,0.61c1.204-2.359,2.665-4.479,4.271-6.069
		c2.426-2.409,2.489-4.207,2.048-7.708c-0.104-0.787-0.266-1.525-0.441-2.248c-0.418-1.766-0.844-3.597-0.08-5.796
		c0.433-1.269,1.172-2.409,2.015-3.518c0.956-1.268,2.529-2.504,3.043-2.89c0.049-0.867,0.466-3.709,0.884-6.102
		c0.963-5.412,1.412-6.15,2.681-6.246h0.096c1.27,0,1.646,0.497,3.115,6.246c0.467,1.83,1.156,4.688,1.316,5.7
		c0.434,0.787,0.867,1.59,1.318,2.393c0.271,0.514,0.561,1.012,0.834,1.525c0.803,1.477,1.012,2.714,1.076,3.517
		c0.064,1.14,0.016,2.376-0.707,4.624c-0.289,0.898-0.563,1.751-0.643,2.65c-0.209,2.055,0.529,4.479,2.039,6.792
		c0.354,0.545,0.754,1.092,1.301,1.733c1.783,2.104,3.469,4.256,4.77,6.729c0.449-0.08,0.963-0.209,1.188-0.258
		c0.402-0.08,1.109-0.288,1.768-0.513l0.047-0.017c-0.016-2.971,0.434-5.749,0.756-7.306c0.129-0.658,0.305-1.301,0.496-1.927
		c0.42-1.478,0.803-2.874,0.611-4.352c-0.24-1.751-1.172-3.132-2.15-4.593c-0.354-0.53-0.725-1.092-1.061-1.654
		c-0.529-0.915-1.125-1.766-1.479-3.018c-0.609-2.201-0.4-4.063,0.018-5.492c-0.787-0.964-2.281-3.453-5.605-9.892
		c-0.176-0.321-0.096-0.723,0.209-0.963c0.145-0.129,0.322-0.178,0.498-0.178s0.354,0.049,0.498,0.162
		c0.643,0.497,1.703,1.557,2.842,2.794c-0.963-1.719-1.814-3.309-2.088-3.95c-0.191-0.45-0.031-0.98,0.371-1.27
		c0.191-0.112,0.4-0.177,0.609-0.177c0.273,0,0.529,0.097,0.738,0.273c1.43,1.316,3.484,3.821,5.314,6.037
		c0.691,0.835,1.35,1.638,1.896,2.281c1.059-0.146,2.215-0.097,3.338,0.159c0-0.031,0.018-0.063,0.018-0.111
		c0-0.193,0.336-1.301,0.785-2.603C565.258,627.865,570.686,612.001,562.223,594.242 M531.747,555.432
		c-0.305,0.995-1.221,1.686-2.248,1.686c-0.449,0-0.899-0.128-1.285-0.385c-2.963-1.96-4.889-5.075-5.153-8.318
		c-0.129-1.733,0.32-3.371,1.348-4.881c0.146-0.209,0.29-0.418,0.45-0.627c0.426-0.577,0.819-1.124,0.835-1.557
		c0.009-1.27,1.028-2.264,2.328-2.264c0.643,0,1.269,0.256,1.718,0.705c0.434,0.435,0.675,1.028,0.666,1.655
		c-0.008,1.026-0.328,1.894-0.745,2.648c1.324,0.771,2.44,2.328,2.335,4.496c-0.048,1.141-0.795,3.533-1.051,4.352
		C531.707,553.521,532.036,554.5,531.747,555.432 M534.685,622.197c-0.649,0.675-1.493,1.028-2.457,1.028
		c-0.192,0-0.385-0.017-0.577-0.032c-1.254-0.193-2.088-0.932-2.73-1.847c-2.208-3.212,3.164-10.485,3.926-11.16
		c0.289-0.273,0.675-0.401,1.061-0.401c0.168,0,0.329,0.032,0.48,0.08c0.539,0.177,0.939,0.611,1.053,1.156
		C536.091,614.217,536.869,619.917,534.685,622.197 M544.024,622.904c-0.619,0.577-1.447,0.883-2.314,0.883
		c-0.137,0-0.279,0-0.432-0.016c-1.181-0.145-2.322-0.835-2.98-1.814c-1.629-2.409-0.73-4.817-0.016-6.744
		c0.329-0.884,0.635-1.703,0.723-2.474c0.064-0.609,0.57-1.091,1.195-1.14c1.037-0.081,1.646,0.723,1.935,1.124
		c0.072,0.097,0.113,0.161,0.17,0.209c0.715,0.755,2.592,3.517,2.865,4.913C545.524,619.532,545.299,621.748,544.024,622.904
		 M552.91,622.406c-0.145,0.033-0.273,0.064-0.402,0.081c-1.572,0.272-3.211-0.434-4.109-1.783c-1.125-1.718-1.51-3.646-1.848-5.347
		c-0.289-1.478-0.578-2.858-1.252-4.03c-0.354-0.611-0.225-1.397,0.289-1.848c0.529-0.481,1.332-0.529,1.895-0.128
		c1.316,0.915,7.867,5.685,7.805,9.988C555.27,620.801,554.323,621.988,552.91,622.406"/>
	<path fill="#FFFFFF" d="M831.328,625.136c-3.936-5.105-12.076-6.873-17.504-3.372c-0.914-4.239-6.711-33.447-8.092-44.543
		c34.186-3.982-20.811-56.874-22.449-21.854c-10.035,0.064-35.967-1.365-42.166-1.638c6.713-15.029-11.449-23.315-22.465-13.504
		c-2.52-1.863-15.992-11.192-23.764-16.651c0-13.682-0.016-27.555-0.016-41.011c23.926,3.004,45.635,0.578,67.922-10.132
		c7.578,12.878,22.191,6.117,19.686-5.845c13.07-10.902,34.619-29.578,41.814-45.121c2.504-5.443-3.389-9.25-7.965-5.926
		c1.975-3.564,2.295-9.474-3.564-10.132c1.156-3.982-1.783-11.433-6.842-9.121c0.996-3.726-3.26-8.606-6.951-7.21
		c0.996-1.99-1.141-14.531-8.045-10.613c0.191-4.158-5.396-11.449-10.422-9.104c0.193-3.999-0.883-8.976-7.627-9.747
		c-3.951,0-5.461,5.974-7.209,12.879c-3.438,12.941-11.033,25.354-19.141,36.064c-7.934-4.015-21.293,7.241-14.869,14.563
		c-5.99,5.282-21.598,9.233-36.852,10.293c-0.018-25.403-0.049-38.811,0.049-47.192h-76.9c10.904-7.82,47.225-34.01,57.615-41.154
		c0.32,0.545,6.631,9.313,9.762,13.391c2.891-1.99,8.303-5.651,10.406-7.178c1.381,1.911,3.34,4.754,5.283,7.628
		c-2.057,1.444-8.287,5.829-10.246,7.21c2.971,4.094,16.201,22.416,19.156,26.526c3.42-2.409,9.217-6.487,12.621-8.896
		c-1.363-1.895-8.061-11.16-9.568-13.248l8.492-5.988c1.543,2.15,8.158,11.304,9.57,13.263c3.951-2.778,14.242-10.021,18.193-12.813
		c-2.955-4.111-10.775-15.238-15.223-20.939c-1.877,1.317-7.867,5.54-9.826,6.922l-6.873-9.539c3.598-2.568,6.729-4.752,9.971-6.873
		c-1.396-1.941-5.588-7.738-7.049-9.762c4.096-2.875,7.66-5.396,10.037-7.065c2.006,3.034,4.832,6.632,7.385,9.409
		c3.309-2.328,8.865-6.262,10.566-7.467c1.75,2.441,4.336,6.038,6.873,9.522c-2.104,1.478-8.863,6.246-10.84,7.627
		c2.908,4.047,12.236,16.957,15.143,21.003c3.998-2.826,15.111-10.646,19.109-13.472c-1.35-1.895-8.014-11.192-9.508-13.296
		l6.938-4.896c1.719,2.312,8.414,11.32,9.988,13.439l13.119-9.458c-3.035-4.223-16.203-22.464-19.27-26.703
		c-1.943,1.381-10.004,7.05-12.09,8.526l-5.477-7.579c2.135-1.509,10.1-7.13,12.092-8.526c-1.365-1.895-8.143-11.272-9.65-13.359
		c1.975-1.445,5.619-3.18,4.688-6.246c-0.545-2.473-8.75-12.959-11.207-13.729c-1.525-0.642-3.148,0.401-3.18,0.497L611.744,364.077
		c-1.027-5.83-3.469-20.555-5.059-30.525h31.168c2.279,0,4.127-1.83,4.127-4.078c0.545-3.598-1.975-6.135-5.637-5.588v-2.907
		c6.07-0.466,6.07-9.73,0-10.196v-24.969c-0.787,1.381-2.602,4.608-3.453,6.102c-0.32-3.661-1.123-8.061-2.055-11.385
		c6.359,1.316,7.498-9.506,1.205-9.666c-1.156,0.016-5.379-0.016-6.473,0v-2.345c6.777,0.097,6.777-10.405,0-10.309v-19.767
		c-2.135,3.58-3.691,6.809-5.957,11.016c-1.332-5.941-3.404-11.578-6.148-16.828c2.873-0.193,4.141-3.003,3.789-5.557
		c0.08-4.832-5.99-4.094-9.266-4.078c0,0-0.016,0-0.031,0c5.65-0.465,6.133-8.977,0.594-10.068
		c-0.033-0.434-0.049-17.518-0.049-17.518c-1.91,3.34-3.564,6.52-5.523,10.244c-5.717-11.514-28.855-33.463-50.469-37.253
		c-0.354-5.267-3.436-9.04-5.555-9.715v-0.595v-13.326h8.928v-11h-8.928v-9.666h-13.457v9.666h-8.928v11h8.928v13.326v0.595
		c-2.055,0.819-4.914,3.966-5.508,9.426c-17.887,3.388-36.129,16.62-50.403,37.783c-1.911-3.581-3.276-6.375-5.139-9.458v16.379
		c-5.877,0.674-5.748,9.682,0.146,10.18c-0.041,0-4.296,0-4.457,0c-1.341,0-4.825,0.836-4.938,4.078
		c-0.369,2.617,0.979,5.477,3.934,5.572c-0.602,1.51-4.592,10.807-6.277,16.86c-2.281-4.224-3.839-7.467-5.989-11.063v19.847
		c-7.837-1.269-7.821,11.417,0,10.148v2.425c-1.061-0.016-5.315,0.016-6.456,0c-6.31,0.16-5.17,10.982,1.188,9.666
		c-0.938,3.356-1.733,7.788-2.047,11.497c-0.666-1.381-2.723-4.913-3.444-6.214v24.969c-7.547-0.979-7.547,11.176,0,10.196v2.907
		c-3.662-0.547-6.19,1.99-5.637,5.588c0,2.248,1.848,4.078,4.127,4.078h30.598c-1.373,9.65-3.589,24.535-4.641,30.525
		L325.345,262.995c-0.048-0.096-1.661-1.139-3.187-0.497c-2.449,0.771-10.662,11.257-11.2,13.729
		c-0.931,3.066,2.682,4.801,4.673,6.246c-1.558,2.151-8.238,11.4-9.65,13.359c1.951,1.365,10.004,7.049,12.107,8.526l-5.476,7.579
		c-2.151-1.51-10.116-7.113-12.107-8.526c-3.051,4.239-16.218,22.48-19.269,26.703l13.135,9.458
		c1.533-2.072,8.302-11.191,9.972-13.439l6.952,4.896c-1.541,2.152-8.125,11.354-9.521,13.296
		c3.998,2.826,15.109,10.646,19.108,13.472c2.923-4.046,12.235-16.956,15.158-21.003c-1.943-1.364-8.784-6.182-10.847-7.627
		c2.528-3.484,5.13-7.081,6.864-9.522c1.694,1.205,7.274,5.139,10.581,7.467c2.538-2.777,5.38-6.375,7.371-9.409
		c2.376,1.67,5.941,4.19,10.035,7.065c-1.477,2.039-5.628,7.804-7.041,9.762c3.235,2.121,6.367,4.305,9.979,6.873l-6.88,9.539
		c-1.999-1.414-7.925-5.588-9.828-6.922c-4.471,5.732-12.251,16.813-15.214,20.939c3.95,2.793,14.234,10.035,18.193,12.813
		c1.364-1.895,8.053-11.159,9.569-13.263l8.479,5.988c-1.55,2.136-8.157,11.305-9.57,13.248c3.42,2.408,9.2,6.486,12.621,8.896
		c2.962-4.11,16.186-22.433,19.156-26.526c-1.928-1.365-8.214-5.781-10.236-7.21c1.934-2.874,3.099-4.561,4.479-6.487
		c2.111,1.541,7.37,4.979,10.261,6.969c3.164-4.111,10.35-13.729,10.702-14.322l56.891,39.966c0.273,0.192,1.285,0.851,1.406,1.188
		h-77.581c0.096,8.317,0.063,21.661,0.048,46.855c-15.552-0.996-33.4-4.641-39.421-9.956c6.406-7.322-6.945-18.578-14.885-14.563
		c-8.102-10.711-15.696-23.107-19.133-36.064c-1.742-6.905-3.252-12.879-7.209-12.879c-6.736,0.771-7.829,5.732-7.62,9.747
		c-5.042-2.345-10.605,4.946-10.438,9.104c-6.904-3.934-9.023,8.623-8.028,10.613c-3.693-1.396-7.964,3.484-6.969,7.21
		c-5.042-2.312-7.98,5.139-6.824,9.121c-5.877,0.675-5.54,6.567-3.581,10.132c-4.56-3.308-10.47,0.482-7.964,5.926
		c7.226,15.575,28.727,34.186,41.829,45.121c-2.505,11.962,12.106,18.723,19.686,5.845c23.107,11.127,45.636,13.278,70.509,9.714
		c-0.017,13.568-0.033,27.587-0.033,41.412c-7.771,5.443-21.275,14.805-23.797,16.668c-11.031-9.812-29.176-1.51-22.464,13.504
		c-6.215,0.272-32.114,1.702-42.167,1.638c-1.638-35.021-56.634,17.871-22.447,21.854c-1.381,11.096-7.178,40.304-8.093,44.543
		c-9.04-5.909-22.77,3.164-19.991,13.777c2.136,8.654,20.81,27.233,30.235,27.233c7.699,0.37,15.326-9.521,11.737-16.828
		c2.345-0.754,10.165-2.039,10.55-2.12c17.849,30.365,85.586,62.384,116.648,81.716c2.433,0.964,6.495,1.815,7.86-1.172
		c3.403-4.158,10.533-9.426,5.765-15.286c3.42-1.734,5.668-6.889,4.207-9.812c4.399-2.199,4.6-5.604,2.408-9.683
		c1.621-1.236,3.67-4.207,1.59-6.278c-0.915-1.076-1.927-2.537-3.469-2.665c-7.996-1.253-15.929-3.051-23.604-4.785
		c-13.488-3.067-27.442-6.23-42.151-6.472c-2.344-1.075-5.442-2.874-9.128-5.282l0.024-0.064
		c-5.813-3.613-12.203-8.462-20.104-14.532c15.254,6.938,42.984-29.128,18.281-32.563l0.843-5.283
		c6.335,3.773,21.886,2.36,30.026-1.397c16.901,56.249,47.225,64.406,151.982,117.588
		c104.967-53.375,134.817-61.033,151.983-117.572c8.094,3.742,23.717,5.155,29.994,1.382l0.852,5.283
		c-24.711,3.436,3.02,39.501,18.273,32.563c-7.9,6.086-14.291,10.919-20.104,14.532l0.031,0.064
		c-3.693,2.408-6.791,4.207-9.137,5.282c-14.707,0.241-28.662,3.404-42.148,6.472c-7.678,1.734-15.609,3.532-23.605,4.785
		c-1.525,0.128-2.57,1.589-3.469,2.665c-2.055,2.056-0.064,5.074,1.59,6.278c-2.199,4.078-1.975,7.483,2.408,9.683
		c-1.461,2.923,0.787,8.077,4.207,9.812c-4.736,5.845,2.328,11.128,5.766,15.286c1.365,2.987,5.426,2.136,7.867,1.172
		c31.039-19.316,98.768-51.335,116.641-81.716c0.385,0.081,8.205,1.366,10.549,2.12c-3.66,7.515,4.369,17.6,12.316,16.813
		C815.672,660.366,842.311,638.527,831.328,625.136 M304.552,361.813c3.341-0.739,5.203,12.075,6.793,16.25
		c4.215,11.063,11.151,23.058,18.281,32.05C328.124,427.246,284.014,364.654,304.552,361.813 M294.701,371.077
		c1.774-0.851,1.501,0.081,3.268,5.508c5.411,14.949,21.132,36.467,26.014,39.838c0.497,1.623-1.911,5.139-2.883,5.09
		c-11.723-6.646-25.347-28.581-26.784-30.974C292.108,387.167,283.227,376.649,294.701,371.077 M283.308,380.247
		c0.883-0.289,2.448-1.125,4.215,2.553c2.145,4.432,10.204,18.449,17.511,27.023c3.355,3.935,8.654,10.631,11.963,13.408
		c3.059,2.569,2.393,3.324,1.123,5.348c-2.946,3.371-4.904,0.031-6.872-1.461c-8.848-8.415-17.013-13.039-30.027-36.273
		C278.812,386.541,282.73,379.877,283.308,380.247 M278.057,391.214c16.668,24.664,16.073,25.467,35.969,42.054
		c2.168,1.638-1.742,5.749-4.85,3.597c-4.078-2.665-22.745-20.65-30.782-33.254C274.219,397.058,272.397,391.983,278.057,391.214
		 M269.386,398.054c2.546-0.546,4.279,3.469,5.282,4.994c13.786,20.714,16.965,22.287,33.384,38.425
		c0.996,13.89-26.542-16.973-28.148-19.333c-0.594-0.434-8.077-9.168-11.994-15.672
		C266.176,403.577,266.721,400.302,269.386,398.054 M263.429,408.218c2.305-1.332,2.328-0.369,2.762,0.209
		c9.466,12.589,16.771,21.982,28.405,32.949c0.995,0.932,10.774,8.383,8.807,10.181c-1.709,2.971-4.952,0.819-6.51-0.225
		C289.763,445.503,257.577,417.837,263.429,408.218 M296.804,463.616c-7.94-2.506-45.45-39.148-40.665-46.775
		c1.036-1.06,4.191,0.08,5.267,1.494c6.985,9.088,13.119,17.213,21.806,25.049C287.757,448.763,304.087,456.856,296.804,463.616
		 M312.34,469.878c-7.965,12.798-17.366,2.232-12.541-4.834c5.091-7.434,32.589-52.796,32.589-52.796
		c2.465-3.483,13.336,2.554,11.488,7.628l-28.043,43.853C315.833,463.729,313.07,468.689,312.34,469.878 M385.159,478.581
		c-23.828,3.677-47.207,1.124-68.388-9.201c-0.819,0.53,26.655-42.07,27.347-43.242c8.316,6.729,29.144,9.715,41.363,10.502
		C385.674,448.618,384.614,470.456,385.159,478.581 M385.409,551.754c0.032,12.332-0.009,23.605,0.088,34.651
		c-6.198,4.979-18.209,4.176-24.552,2.232l1.478-11.673c12.461,5.009,23.998-9.603,15.398-20.297
		C377.307,556.812,381.723,553.986,385.409,551.754 M385.048,528.937l-0.169,16.989c0,0.465-6.271,4.238-9.932,6.824
		c-3.195-3.919-6.262-6.648-10.092-9.892C370.692,538.652,378.922,533.336,385.048,528.937 M346.912,540.048
		c10.934-3.228,24.961,13.922,29.496,21.678c2.313,7.162-2.625,12.445-8.863,12.445c-7.001,0.915-18.867-14.115-23.283-18.531
		C340.874,550.598,339.983,542.087,346.912,540.048 M297.736,616.657c-0.441,1.365-0.764,2.73-1.02,4.096l-7.202,1.043
		c1.124-8.751,4.777-29.032,7.764-44.623l42.021-1.269c-0.529,3.243-1.14,12.412-1.373,12.46
		C310.622,593.713,301.003,606.702,297.736,616.657 M335.052,602.93c-2.737-1.719-7.859-4.578-4.536-8.961
		c2.537-0.738,4.561-1.573,7.451-2.136c-0.321,1.814-1.662,13.071-2.265,16.41c-0.016,0-0.024,0-0.04,0.017
		C336.313,605.322,335.784,603.78,335.052,602.93 M318.891,612.724c-5.123-0.225-9.41,0.161-10.822-6.102
		c1.389-1.478,2.971-2.874,4.753-4.223c0.489,11.176,12.428,0.609,11.16,10.806c-0.49,0.354-1.188,0.884-1.976,1.639
		C321.236,613.977,320.224,613.142,318.891,612.724 M319.766,617.492c-0.939,1.301-1.863,3.163-2.328,4.817
		c-4.697-5.234-11.73,2.071-16.66-2.616c0.795-3.084,2.112-6.118,4.03-8.978C309.803,617.253,315.479,613.254,319.766,617.492
		 M325.683,598.368c2.08,6.793,7.788,3.646,6.688,10.968c-1.397,0.481-3.06,1.124-4.77,1.927
		c0.249-11.225-12.083-2.36-12.002-10.758c3.002-1.896,6.471-3.613,10.492-5.075C325.539,596.843,325.62,597.919,325.683,598.368
		 M334.957,612.387c-0.346,1.926-0.659,3.726-0.924,5.251c-3.902,0.321-8.261,0.851-11.159,1.253
		C324.335,617.14,327.642,614.795,334.957,612.387 M300.096,623.273c5.725,4.624,13.022-3.067,16.643,3.918
		c0.032,1.798,0.121,2.489,0.418,3.773c-6.286-4.336-10.935,3.966-17.149-0.658C299.791,627.979,299.799,625.618,300.096,623.273
		 M303.01,641.852c-0.947-2.184-1.702-4.48-2.24-6.809c6.544,3.469,10.285-3.918,17.214-1.172c0.738,1.927,1.718,3.532,2.689,4.817
		C310.67,636.409,308.983,644.004,303.01,641.852 M309.433,652.048c-1.333-1.558-2.617-3.227-3.741-5.059
		c8.703-1.686,7.531-6.711,17.889-5.105c1.195,1.012,2.416,2.328,4.238,3.71C313.994,644.967,317.173,654.778,309.433,652.048
		 M327.779,640.695l5.997-1.091c0.466,3.66,1.213,6.133,3.356,8.43C334.683,646.219,327.947,640.904,327.779,640.695
		 M313.287,655.982c2.649,0.048,6.488-3.421,7.379-5.428c0.586-2.409,12.115-3.34,15.712,1.621
		c-9.907-0.305-9.514,6.423-18.675,7.563C316.37,658.664,314.764,657.314,313.287,655.982 M352.611,684.34
		c5.669-6.648,7.435-2.971,12.782-5.219c-0.923,4.721-8.31,5.395-10.582,6.614C354.081,685.271,353.343,684.821,352.611,684.34
		 M433.395,684.292l1.173,1.396c-0.674,0.482-1.156,0.964-1.542,1.446l-30.806-1.494l30.067,5.123
		c1.831,3.998,1.734,3.725-2.136,6.326l-30.638-4.271l30.478,8.125c1.301,3.212-4.368,5.604-5.227,7.21l-27.419-10.309
		l29.498,14.789c0.803,2.023-0.706,3.228-2.152,4.881l-26.983-13.874l24.223,16.668c-0.763,0.819-1.43,1.653-1.831,2.473
		c-12.188-4.368-23.034-12.99-34.756-18.851c4.103-4.817,14.854-19.236,13.335-26.848
		C410.144,679.507,421.512,682.444,433.395,684.292 M394.729,676.263c1.791,7.37-8.928,20.906-13.086,25.53
		c-1.478-0.851-2.955-1.702-4.433-2.553c4.272-4.464,14.532-16.844,13.705-23.668C392.193,675.813,393.462,676.006,394.729,676.263
		 M386.469,674.802c1.292,6.133-9.258,17.791-13.505,21.981c-1.727-1.011-3.428-2.07-5.162-3.115
		c4.77-3.195,14.645-12.556,13.601-19.558C383.089,674.32,384.79,674.544,386.469,674.802 M369.424,681.016
		c1.75-4.399,1.942-5.797,1.871-7.804c1.91,0.08,3.797,0.257,5.676,0.434c1.22,6.326-8.43,14.677-13.352,17.502
		c-1.558-0.947-3.139-1.863-4.688-2.825C360.745,686.685,367.545,685.752,369.424,681.016 M366.934,672.858
		c-4.624,6.6-13.15,2.007-17.688,9.297c-0.705-0.466-1.404-0.947-2.103-1.412c6.816-4.272,7.25-9.282,16.771-9.395
		C364.992,671.928,366.003,672.44,366.934,672.858 M357.421,667.447c0.811,0.53,1.613,1.027,2.4,1.524
		c-7.651,1.204-9.152,7.066-15.888,9.619c-0.853-0.578-1.711-1.141-2.562-1.719C349.817,674.93,346.285,664.813,357.421,667.447
		 M346.26,659.676c1.822,1.349,3.653,2.649,5.468,3.934c-9.329,2.135-4.721,9.779-14.612,10.261
		c-2.167-1.541-4.785-3.421-7.595-5.443C340.376,667.688,336.185,659.13,346.26,659.676 M339.501,654.585
		c0.811,0.643,1.662,1.269,2.497,1.911c-8.688,1.493-4.601,9.28-16.771,8.847c-1.116-0.803-2.24-1.605-3.341-2.393
		c3.919-0.608,5.524-4.929,8.358-5.973C332.195,656.754,337.02,655.42,339.501,654.585 M352.748,621.251
		c31.176-4.866-16.146,47.851-15.406,14.659l-12.509,1.911c-2.73-3.437-5.066-10.276-3.243-15.029
		c3.042-0.434,11.424-1.558,15.647-1.638c1.646-10.181,6.229-49.104,6.229-49.104l-49.336,1.638c0,0-9.152,47.32-8.688,52.443
		l10.759-1.574c-0.369,5.043,0.033,11.064,1.525,15.704c-3.95,0.916-10.26,1.622-14.644,2.697c5.86,4.834,0.923,16.122-6.407,16.122
		c-7.627-0.048-24.856-17.278-26.591-24.358c-1.558-11.225,11.706-13.89,18.932-7.274c3.228-17.486,7.916-38.554,9.008-53.792
		c-32.066,1.638,17.246-47.353,15.897-15.271l45.377-1.445l19.446,18.964C358.746,575.904,354.218,610.299,352.748,621.251
		 M366.469,607.313c-0.242,0.723-0.659,1.798-1.574,2.568c-2.851-0.48-4.721-1.363-6.406-1.813
		c1.292-8.446,1.686-12.638,2.063-15.913c1.928,0.37,2.385,0.225,4.247,0.578C360.552,601.42,368.942,600.777,366.469,607.313
		 M375.268,610.059c-2.184,0.498-4.399,0.498-6.664,0.305c5.572-11.24-3.966-7.676-0.449-17.052c1.349,0.224,2.609,0.401,3.71,0.529
		c1.284,12.22,6.294,6.134,9.586,14.612C379.331,609.063,377.187,609.625,375.268,610.059 M385.048,607.393
		c-2.762-9.329-9.892-5.331-9.361-13.392c6.471-1.253,8.735-3.115,9.795-3.789c0.272,3.934,0.305,9.457,1.477,16.619
		C386.958,606.831,385.36,607.617,385.048,607.393 M769.49,295.304l-12.059,8.574l9.73,13.328l12.043-8.575l15.094,20.649
		c0,0-4.961,3.549-7.387,5.268l-9.826-13.088l-12.717,9.057l9.586,13.248l-13.199,9.408l-11.063-15.142l10.822-7.707
		c-4.93-6.647-11.113-15.239-11.113-15.239s-1.766,1.237-10.822,7.692c-3.18-3.597-7.049-9.65-7.049-9.65
		s-7.227,5.171-15.961,11.368l7.033,9.65c-2.875,1.959-9.859,7.033-9.859,7.033l11.111,15.238l9.877-7.018
		c2.102,2.715,11.063,15.143,11.063,15.143l-12.301,8.752l-9.65-13.216l-14.291,10.181l9.635,13.215l-6.729,4.801l-15.881-21.452
		l10.117-7.21c0,0-8.094-12.363-8.832-12.605c-3.934,2.955-3.5,2.618-10.211,7.274c-4.738-6.245-7.822-10.71-7.822-10.71
		c2.072-1.477,5.396-3.854,9.57-6.84c10.053-7.194,25.018-17.889,38.939-27.828c8.688-6.197,16.973-12.107,23.428-16.667
		c4.896-3.485,8.752-6.183,10.904-7.659L769.49,295.304z M757.047,265.886c0,0,8.141,9.667,8.607,11.803
		c0.176,0.754-154.473,108.531-154.473,108.531h-24.584L757.047,265.886z M608.436,365.538l-27.811,20.297h-12.172
		c-2.633-19.768-5.266-33.079-4.496-52.283h39.275C604.213,340.007,606.686,356.995,608.436,365.538 M520.114,333.552h40.07
		c-0.916,17.342,2.264,33.607,4.047,52.668h-48.172C517.848,367.144,521.02,350.909,520.114,333.552 M532.534,163.071
		c0.48-0.916,1.686-2.104,3.483-2.104c0.25,0,8.399,0,8.655,0c1.928,0,3.164,1.991,3.26,2.152l0,0
		c0.578,1.011,1.076,2.473,1.51,4.592c0,0-9.505-1.67-18.442,0C530.984,167.728,532.004,164.099,532.534,163.071 M481.335,206.153
		c34.997-51.527,87.89-44.592,119.025,1.734c-5.074,9.426-6.406-0.386-10.068-4.576c-1.83,2.393-2.971,7.835-6.246,8.734
		c-4.4-3.902-7.049-12.461-10.326-17.229c-3.371,4.721-5.813,13.647-10.516,17.245c-2.553-1.365-4.416-6.439-6.182-8.815
		c-1.768,2.376-3.646,7.45-6.184,8.815c-4.705-3.598-7.145-12.524-10.533-17.229c-3.26,4.736-5.926,13.279-10.277,17.165
		c-3.131-0.706-4.384-6.455-6.566-8.687c-1.831,2.393-2.971,7.835-6.247,8.734c-4.399-3.902-7.049-12.461-10.325-17.229
		c-3.371,4.721-5.82,13.647-10.517,17.245c-2.554-1.365-4.416-6.439-6.19-8.815c-1.429,2.393-3.758,6.438-5.483,8.559
		c-2.119,1.06-3.292-2.811-4.561-4.047C480.363,207.261,481.335,206.153,481.335,206.153 M474.526,222.965
		c4.722-1.011,5.244-8.253,0.618-9.843l-0.104-7.836c0.521,0.947,1.052,1.943,1.581,2.906c0.434,0.803,0.867,1.574,1.301,2.328
		c0.498,0.852,0.995,1.654,1.51,2.377c2.216,3.163,4.608,4.832,7.466,1.975c1.012-0.995,2.072-2.553,3.195-4.801
		c1.173,2.424,2.297,4.03,3.364,5.01c2.674,2.457,5.05,0.947,7.186-2.008c1.574-2.151,3.02-5.058,4.384-7.739
		c0.048-0.097,0.097-0.192,0.146-0.289c0.505-0.995,0.995-1.958,1.492-2.842c0.049-0.081,0.097-0.177,0.145-0.272l0,0
		c3.861,6.92,9.49,23.041,16.78,8.43c3.612,7.852,8.831,7.691,11.915,0.272c1.573-2.697,3.251-5.909,4.721-8.719
		c4.093,7.226,9.474,23.202,16.699,8.157c7.227,14.9,12.396-0.514,16.717-8.141c3.836,6.823,9.682,23.379,16.73,8.27
		c4.416,9.441,8.383,6.374,11.658,1.155c0.578-0.931,1.156-1.942,1.701-2.97c0.852-1.623,1.654-3.244,2.393-4.674v9.201
		c-5.539,1.107-5.01,9.683,0.627,10.084c-0.049,0.016-0.273,0-0.627,0c-0.465,0.016-30.637,0-31.729,0
		c6.344-0.546,5.846-10.373-0.578-10.244c-6.439-0.129-6.92,9.698-0.578,10.244h-32.387c6.342-0.546,5.859-10.373-0.579-10.244
		c-6.423-0.129-6.921,9.698-0.578,10.244h-32.371c6.342-0.546,5.853-10.373-0.578-10.244c-6.432-0.129-6.921,9.698-0.578,10.244
		h-31.842h-0.497C474.238,222.997,474.463,222.981,474.526,222.965 M465.88,227.831c0-2.217,2.408-2.057,3.019-2.057h144.227
		c2.039,0,1.83,4.111,0,4.111c-1.461,0-141.529,0-144.002,0C467.967,229.886,465.88,229.886,465.88,227.831 M470.039,234.397
		c0.177-0.498,0.401-1.027,0.771-1.734h138.88c1.766,0.916,7.547,18.996,7.547,18.996s-2.361,3.742-4.127,5.909
		c-0.531,0.947-2.361,1.253-3.115,0.515c-2.057-2.617-4.865-7.548-6.553-10.406c-1.99,2.569-4.785,10.02-7.836,10.92
		c-4.93-2.313-9.891-17.134-13.277-21.773c-3.357,5.844-7.549,15.061-11.498,20.842c-4.143,4.11-7.627-7.676-9.475-9.939
		c-2.697,2.842-4.174,10.276-8.301,10.79c-0.609-0.097-1.141-0.417-1.494-0.915c-3.869-5.765-8.092-14.757-11.335-20.697
		c-3.244,5.925-7.467,14.949-11.337,20.697c-0.353,0.498-0.884,0.818-1.493,0.915c-4.127-0.514-5.62-7.948-8.317-10.79
		c-1.798,2.168-5.331,14.066-9.474,9.939c-3.935-5.797-8.126-14.981-11.48-20.842c-3.405,4.656-8.343,19.445-13.28,21.773
		c-3.066-0.884-5.845-8.351-7.836-10.92c-5.091,8.014-7.868,17.728-13.087,3.324C465.221,245.767,469.99,234.511,470.039,234.397
		 M457.233,267.749c0.827-0.45,4.038-4.528,0.409-8.51l-0.354-11.963c0.643,1.155,1.284,2.359,1.927,3.564
		c1.606,3.019,3.229,6.021,4.945,8.205c2.521,3.211,5.252,4.656,8.398,1.766c1.373-1.252,2.826-3.34,4.384-6.471
		c1.51,3.083,2.923,5.154,4.271,6.424c3.212,3.034,6.021,1.509,8.575-1.814c1.813-2.361,3.483-5.605,5.073-8.783
		c1.093-2.201,2.159-4.368,3.195-6.167c0.675,1.188,1.381,2.569,2.12,4.063c1.701,3.421,3.612,7.322,5.716,10.196
		c2.393,3.275,5.059,5.188,7.964,3.469c0.193-0.113,0.378-0.225,0.547-0.369c0.008,0,0.016,0,0.016-0.016
		c1.542-1.125,3.147-3.276,4.817-6.793c1.55,3.372,3.052,5.475,4.513,6.647c0.546,0.434,1.091,0.755,1.621,0.931
		c0.048,0.018,0.08,0.033,0.121,0.049c2.602,0.818,5.018-1.221,7.233-4.352c2.12-2.971,4.046-6.937,5.772-10.389
		c0.603-1.188,1.172-2.328,1.727-3.34c0.707,1.285,1.46,2.777,2.232,4.335c1.686,3.356,3.516,7.034,5.49,9.779
		c2.666,3.661,5.621,5.62,8.865,2.794c1.412-1.205,2.857-3.275,4.367-6.504c1.879,3.79,3.629,6.006,5.266,7.098
		c2.891,1.911,5.461,0.258,7.773-2.81c1.926-2.537,3.66-6.021,5.281-9.281c1.012-2.022,1.975-3.95,2.891-5.491
		c0.594,1.076,1.221,2.328,1.863,3.645c1.734,3.452,3.662,7.387,5.779,10.341c2.217,3.083,4.625,5.058,7.211,4.224l0,0
		c0.482-0.161,0.963-0.418,1.445-0.771c0.031-0.016,0.064-0.032,0.08-0.048c0.064-0.048,0.129-0.112,0.176-0.145
		c1.479-1.204,3.02-3.372,4.609-6.825c1.412,2.955,2.762,4.946,4.063,6.215c1.027,0.996,2.006,1.541,2.971,1.687
		c0.064,0.016,0.113,0.016,0.176,0.032c2.072,0.208,3.982-1.35,5.781-3.742c1.975-2.633,3.822-6.246,5.588-9.618
		c0.369-0.706,0.738-1.397,1.092-2.071l0.08,11.497c-1.221,0.401-1.686,1.349-2.215,2.345c-0.867,1.573-0.867,3.597,0,5.17
		c0.529,0.996,0.994,1.847,2.215,2.248v2.473c-13.873-0.096-152.046-0.112-166.072-0.048V267.749z M448.409,277.753
		c-0.787,0-1.229-0.658-1.276-1.108c-0.048-0.466-0.071-1.333-0.04-1.702c0,0,0,0,0-0.016l0,0c0-0.161,0-1.301,1.51-1.301H626.42
		c0.836,0,2.119,0,3.34,0c0.867,0.016,1.686,0.016,2.281,0l0,0c0.176,0,0.354,0.048,0.496,0.112c0,0,0.018,0,0.033,0.017
		c0.111,0.048,0.225,0.111,0.32,0.208c0.162,0.161,0.291,0.37,0.387,0.595c0.225,0.578,0.24,1.332,0.063,1.959
		c-0.127,0.465-0.352,0.851-0.689,1.059c0,0.018-0.016,0.018-0.031,0.033c-0.049,0.016-0.098,0.031-0.145,0.063
		c-0.129,0.049-0.273,0.081-0.434,0.081l0,0c-1.125,0-2.475,0-3.773,0c-0.771,0-1.543,0-2.217,0
		C626.051,277.753,449.068,277.753,448.409,277.753 M610.492,298.595c-0.018,0-0.033,0.016-0.049,0.016l-0.018-0.016l-0.031,0.064
		c-0.289,0.257-1.717,3.195-1.846,3.452c-0.096,0.161-0.096,0.208,0,0.032c-1.027,2.119-5.139,11.867-8.463,7.338
		c-0.514-0.738-1.236-1.332-1.75-2.168c-0.08-0.145-0.176-0.288-0.256-0.434c-0.018,0-0.018-0.016-0.018-0.031
		c-1.205-1.976-2.408-4.143-3.598-6.375c-1.523-2.858-3.018-5.813-4.447-8.543c-0.738-1.429-1.477-2.81-2.184-4.094
		c-0.256-0.482-0.529-0.947-0.787-1.397c-1.299,1.751-2.906,5.106-4.656,8.783c-2.168,4.479-8.479,16.651-10.148,15.495l0,0l0,0
		c-1.83-0.176-4.914-5.508-6.133-7.756c-0.883-1.638-1.719-3.146-2.426-4.109l-0.176-0.322l-0.193,0.322
		c-0.705,0.963-1.525,2.472-2.408,4.094c-1.221,2.248-2.586,4.673-3.982,6.23c-0.723,0.787-1.445,1.365-2.168,1.541l0,0l0,0
		c-0.996-0.337-2.104-1.429-3.242-2.971c-2.426-3.275-5.043-8.59-7.258-13.23c-1.639-3.437-3.068-6.52-4.031-8.077
		c-0.947,1.542-2.377,4.608-4.031,8.045c-2.216,4.657-4.849,9.987-7.266,13.263c-1.148,1.558-2.256,2.65-3.243,2.971h-0.008l0,0
		c-0.723-0.176-1.438-0.738-2.136-1.525c-1.413-1.557-2.771-3.982-3.99-6.23c-0.892-1.638-1.719-3.146-2.433-4.109l-0.177-0.322
		l-0.185,0.322c-0.715,0.963-1.526,2.472-2.417,4.109c-1.22,2.232-2.577,4.674-3.982,6.215c-0.707,0.787-1.429,1.365-2.151,1.541
		l0,0l0,0c-3.066-0.434-8.173-11.385-10.357-15.896c-1.204-2.488-2.353-4.816-3.428-6.567l-1.02-1.814l-0.097,0.161
		c-0.048-0.049-0.096-0.113-0.145-0.161c-0.771,1.558-1.639,3.308-2.568,5.154c-1.896,3.774-4.039,7.933-6.183,11.738
		c-1.301,2.312-2.593,4.479-3.821,6.343c-1.43,1.686-2.955,1.076-4.417-0.498c-1.22-1.654-3.019-4.817-4.366-7.258
		c-0.884-1.83-1.526-3.244-1.799-3.324c-0.185,0.097-0.538,0.675-0.995,1.525l-0.724,1.107c-0.256,0.386-0.609,1.028-1.092,1.912
		c-0.313,0.577-2.89,4.816-3.564,5.748c-0.795,0.867-1.605,1.477-2.408,1.638c-0.321,0.063-0.643,0.048-0.955-0.048
		c-0.41-0.129-0.803-0.418-1.181-0.867h-0.008c-2.675-3.533-4.657-6.455-5.966-9.297c-1.156-2.537-1.782-5.01-1.854-7.756
		c-0.072-3.372,0.65-7.162,2.224-12.027h173.466c0.129,0.418,0.242,0.852,0.369,1.301c0.098,0.369,0.193,0.755,0.291,1.14
		c0.047,0.161,0.08,0.338,0.127,0.515c0.064,0.337,0.145,0.658,0.225,1.012c0.387,1.75,0.691,3.597,0.932,5.443
		c0.049,0.337,0.096,0.658,0.129,0.995s0.08,0.675,0.111,0.995c0.066,0.691,0.113,1.35,0.162,2.023c0,0.064,0.016,0.129,0.016,0.177
		c0.047,0.867,0.096,1.718,0.113,2.585l0,0c-0.369,0.675-0.723,1.316-1.061,1.959c-0.803,1.478-1.59,2.955-2.408,4.432
		c-0.049,0.064-2.088,3.678-2.715,4.705c-0.578,0.852-1.123,1.525-1.67,1.991c-0.48,0.321-1.027,0.626-1.316,0.675
		c-0.273,0.048-0.545,0.08-0.834,0.096c-1.141-0.192-2.377-1.316-3.936-3.516c-1.316-1.863-2.857-4.48-4.736-7.98l0.643,0.979
		C610.893,299.237,610.492,298.595,610.492,298.595 M446.908,323.886v-4.144c0.201-0.161,0.378-0.353,0.546-0.562
		c0.137-0.16,0.281-0.338,0.393-0.514c0.113-0.177,0.227-0.338,0.306-0.514c0.032-0.081,0.08-0.145,0.105-0.226
		c0.537-1.284,0.537-2.81,0-4.095c-0.025-0.08-0.073-0.145-0.105-0.209c-0.079-0.191-0.192-0.354-0.306-0.529
		c-0.111-0.177-0.256-0.354-0.4-0.53c-0.16-0.192-0.337-0.386-0.538-0.546v-15.094c0.666,1.236,1.324,2.505,1.968,3.773
		c1.822,3.581,3.604,7.13,5.475,9.779c3.051,4.287,6.335,6.166,10.438,1.943c1.51-1.559,3.115-3.902,4.857-7.274
		c1.309,2.858,2.562,4.962,3.781,6.438c0.803,0.979,1.598,1.686,2.369,2.152c1.012,0.609,1.982,0.803,2.93,0.674
		c1.719-0.257,3.324-1.59,4.816-3.532c2.266-2.907,4.272-7.13,6.055-10.951c1.316-2.794,2.496-5.379,3.564-7.065
		c0.98,1.51,2.104,4.078,3.389,6.938c1.653,3.677,3.564,7.803,5.772,10.726c2.737,3.646,5.917,5.411,9.595,2.12
		c1.589-1.414,3.259-3.742,5.025-7.274c0.634,1.253,1.686,3.228,3.019,5.042c1.236,1.67,2.697,3.211,4.287,3.838
		c1.108,0.449,2.28,0.466,3.469-0.225c0.032-0.016,0.063-0.049,0.096-0.064c0.241-0.145,0.466-0.305,0.699-0.498
		c6.101-4.641,11.697-19.59,11.714-19.622c0.955,1.51,2.039,3.966,3.259,6.647c1.541,3.389,3.307,7.162,5.332,9.924
		c1.236,1.702,2.584,3.035,4.029,3.661c0.834,0.354,1.717,0.481,2.633,0.305c1.205-0.24,2.473-1.011,3.807-2.44
		c1.332-1.445,2.746-3.549,4.223-6.486c1.316,2.777,2.602,4.816,3.838,6.245c1.268,1.462,2.473,2.296,3.645,2.603
		c0.803,0.24,1.59,0.208,2.361-0.018c1.492-0.434,2.906-1.637,4.207-3.259c2.248-2.794,4.238-6.825,5.957-10.39
		c1.332-2.777,2.504-5.25,3.531-6.6c0.756,1.173,1.688,3.132,2.746,5.363c1.59,3.324,3.502,7.29,5.668,10.309
		c1.688,2.377,3.549,4.176,5.541,4.641c0.016,0,0.031,0.017,0.047,0.017c0.018,0,0.018,0,0.018,0
		c0.979,0.225,1.975,0.128,3.002-0.37c0.852-0.4,1.701-1.059,2.586-2.055c1.236-1.381,2.52-3.389,3.838-6.15
		c1.316,2.57,2.553,4.48,3.758,5.846c1.027,1.156,2.021,1.926,2.969,2.344c1.045,0.45,2.057,0.514,3.02,0.258
		c1.766-0.482,3.42-2.008,5.01-4.079c2.104-2.763,4.094-6.472,6.053-9.956c0.74-1.332,1.494-2.617,2.232-3.821v14.869
		c-1.076,0.466-1.83,1.253-2.313,2.2c-0.754,1.493-0.754,3.371,0,4.881c0.482,0.932,1.236,1.734,2.313,2.168v3.389v0.336H446.908
		V323.886z M442.596,330.774c-0.409,0-0.69-0.129-0.883-0.354c-0.273-0.273-0.394-0.707-0.434-1.156
		c-0.049-0.45-0.032-0.932,0-1.301l0,0c0-0.017,0-0.017,0-0.017c0-0.401,0.145-0.674,0.353-0.866
		c0.298-0.273,0.739-0.386,1.221-0.418c0.435-0.032,0.876-0.016,1.237,0c0.016,0,0.016,0,0.016,0h192.238
		c0.305-0.016,0.754-0.032,1.188,0c0.354,0.016,0.723,0.08,0.996,0.209c0.418,0.192,0.691,0.514,0.643,1.075c0,0,0,0,0,0.017
		c-0.08,0.626,0.049,1.557-0.209,2.168c-0.16,0.385-0.482,0.643-1.107,0.643l0,0H442.596 M477.072,333.552h39.26
		c0.771,19.204-1.847,32.516-4.496,52.283h-12.172l-27.803-20.297C473.603,356.995,476.093,339.991,477.072,333.552
		 M393.638,354.281c-6.704-4.656-6.279-4.319-10.213-7.274c-0.723,0.242-9.619,13.408-9.619,13.408l10.108,7.194l-15.086,20.665
		l-6.728-4.801l9.643-13.215l-14.3-10.181l-9.642,13.216l-12.292-8.752c0,0,9.635-13.408,11.729-16.121l9.868,7.033l10.453-14.275
		c0,0-6.993-5.074-9.875-7.033l7.032-9.65c-8.735-6.197-15.961-11.368-15.961-11.368s-3.862,6.054-7.041,9.65
		c-9.048-6.455-10.814-7.692-10.814-7.692s-6.198,8.592-11.127,15.239l10.822,7.707l-11.057,15.142l-13.206-9.408l9.586-13.248
		l-12.718-9.057l-9.827,13.088c-2.416-1.719-7.37-5.268-7.37-5.268l15.078-20.649l12.059,8.575l9.715-13.328l-12.042-8.574
		l7.819-10.727c2.087,1.429,5.941,4.143,10.887,7.659l6.046,4.239l17.768,12.701c14.09,10.052,29.176,20.842,39.115,27.955
		c3.935,2.811,7.072,5.059,9.008,6.439C401.458,343.571,398.391,348.036,393.638,354.281 M315.374,277.464
		c-0.946-0.852,8.109-11.257,8.72-11.449c0.409,0.289,0.892,0.643,1.413,1.012l1.782,1.252c0.064,0.049,0.137,0.097,0.209,0.145
		c1.437,1.012,3.155,2.232,5.106,3.598c3.581,2.537,7.965,5.636,12.975,9.168c1.148,0.803,2.328,1.639,3.549,2.489
		c1.573,1.124,3.203,2.28,4.881,3.468c1.124,0.771,2.256,1.59,3.412,2.393c3.043,2.152,6.206,4.384,9.49,6.696
		c1.493,1.06,3.011,2.136,4.553,3.228c7.273,5.122,14.965,10.566,22.833,16.105c2.119,1.51,4.255,3.002,6.391,4.512
		c9.972,7.05,20.071,14.18,29.794,21.035c1.277,0.899,2.537,1.799,3.797,2.682l1.88,1.333c12.733,8.992,24.583,17.358,34.29,24.198
		c12.019,8.479,20.738,14.629,23.725,16.748l-25.105-0.24L315.374,277.464z M688.979,590.838
		c-1.846,31.376-13.729,51.255-37.846,71.455c-20.168,16.908-109.367,59.155-109.512,59.155
		c-0.369,0.032-93.26-41.878-113.444-59.011c-23.348-19.831-37.398-42.119-37.479-76.337c-0.079-29.353,0.306-57.196,0.306-70.957
		c15.68-11.4,24.069-16.17,40.368-26.719c7.435-4.801,17.229-9.699,26.92-9.57c12.517,0.176,23.685,5.813,31.785,11.367
		c9.651,6.633,19.381,18.387,31.713,19.494c8.286,0.739,15.399-2.762,22.143-7.129c5.973-3.887,11.947-8.236,18.963-9.635
		c8.318-1.67,17.021,1.125,24.199,5.62c9.859,6.198,13.682,11.417,20.441,17.101c3.982,3.356,17.84,11.594,33.783,9.972
		c8.158-0.818,15.031-4.576,22.434-7.707c7.482-3.146,17.678-2.554,25.627-0.675C690.039,517.424,690.073,572.484,688.979,590.838
		 M687.696,512.205c-7.467-1.461-17.551-0.385-24.938,1.991c-3.949,1.269-7.578,3.26-11.32,5.042
		c-8.943,4.287-22.592,2.922-29.738,0.145c-7.547-2.923-12.541-5.828-17.904-10.936c-11.881-11.304-24.182-22.994-44.414-18.659
		c-6.166,1.334-11.271,4.77-16.201,8.094c-6.752,4.561-13.119,8.864-22.063,8.062c-7.001-0.627-14.548-6.761-21.854-12.702
		c-5.267-4.287-10.727-8.719-16.072-11.144c-19.077-8.64-30.541-9.939-48.831,0.209c-5.171,2.858-34.37,21.613-43.837,27.715
		c0-19.88,0.024-39.743,0.049-57.71c0.032-28.742,0.057-52.025,0.016-60.953h299.132c-0.033,8.928-0.018,32.211,0.016,60.953
		c0.031,18.771,0.047,39.613,0.064,60.392C689.092,512.542,688.385,512.35,687.696,512.205 M723.889,541.236
		c11.223-5.845,19.027,4.416,12.107,14.403c-4.465,4.432-16.252,19.397-23.283,18.531
		C689.864,570.525,714.383,546.438,723.889,541.236 M715.41,542.858c-3.838,3.243-6.904,5.973-10.1,9.892
		c-3.662-2.586-9.924-6.359-9.924-6.824l-0.178-16.989C701.328,533.336,709.565,538.652,715.41,542.858 M816.297,418.335
		c1.076-1.414,4.24-2.554,5.268-1.494c8.35,3.677-51.336,66.525-41.381,39.533C792.067,445.519,807.049,432.175,816.297,418.335
		 M814.274,408.218c8.078,7.868-26.334,37.301-33.463,43.114c-1.541,1.044-4.801,3.195-6.502,0.225
		c-1.977-1.798,7.803-9.249,8.799-10.181c11.641-10.967,18.947-20.36,28.422-32.949
		C811.963,407.849,812.381,406.372,814.274,408.218 M808.317,398.054c7.531,5.652-9.986,23.139-11.031,24.199
		c-1.717,1.781-28.613,33.094-27.633,19.22c16.426-16.138,19.605-17.711,33.383-38.425
		C804.047,401.522,805.781,397.508,808.317,398.054 M799.647,391.214c16.555,2.231-24.842,41.539-31.119,45.65
		c-3.1,2.152-7.018-1.959-4.85-3.597C783.573,416.696,782.979,415.878,799.647,391.214 M794.397,380.247
		c10.051,10.244-16.027,35.566-27.939,46.871c-1.959,1.492-3.92,4.832-6.873,1.461c-1.27-2.023-1.928-2.778,1.123-5.348
		c3.309-2.777,8.607-9.474,11.963-13.408c7.322-8.574,15.383-22.592,17.52-27.023C791.955,379.122,793.512,379.958,794.397,380.247
		 M782.643,371.591c9.986,3.293,2.729,14.982,0.512,18.354c-0.625,1.814-22.352,31.666-26.541,31.568
		c-0.98,0.049-3.389-3.467-2.875-5.09c0.514-1.686,5.139-5.138,6.695-7.064C786.641,376.729,778.821,370.339,782.643,371.591
		 M766.36,378.063c1.59-4.175,3.451-16.989,6.793-16.25c5.17,1.14,5.154,3.998,5.17,8.028c0.031,12.107-11.85,28.342-19.895,37.045
		c-3.035,3.259-9.201,10.79-10.342,3.227C755.215,401.12,762.153,389.126,766.36,378.063 M737.119,413.597
		c1.67-1.605,6.857-3.725,8.205-1.349c0,0,27.506,45.362,32.58,52.796c5.203,10.326-7.676,18.386-16.025-1.315l-28.035-43.853
		C732.51,416.456,736.508,414.191,737.119,413.597 M733.604,426.138c0.803,1.365,27.971,43.451,27.328,43.242
		c-20.473,10.004-43.002,12.67-66.074,9.539c0-14.564-0.033-28.471-0.049-42.456C707.108,435.516,725.686,432.545,733.604,426.138
		 M694.824,584.206c0.033-10.052,0.049-21.003,0.064-32.42c3.676,2.231,8.061,5.025,7.547,4.882
		c-8.605,10.694,2.938,25.306,15.398,20.297l1.477,11.673c-3.691,1.253-20.584,2.666-24.551-0.513
		C694.809,586.84,694.824,585.522,694.824,584.206 M695.209,607.393c-0.434-0.096-2.408-0.898-2.408-0.898
		c1.221-6.231,1.479-8.623,2.023-14.163c1.766,0.481,2.568,1.413,9.746,1.67C705.102,602.062,698.004,598.031,695.209,607.393
		 M712.071,599.364c-3.066,3.772-2.891,7.21-0.965,10.999c-5.924-0.129-8.445-0.674-12.844-1.91
		c3.291-8.463,8.316-2.409,9.586-14.612c1.107-0.128,2.359-0.306,3.725-0.529C711.908,594.997,713.418,597.711,712.071,599.364
		 M715.362,609.881c-6.648-8.622,4.85-7.401,0.096-17.148c1.863-0.354,2.33-0.208,4.24-0.578c0.385,3.275,0.787,7.467,2.072,15.913
		C720.082,608.518,718.221,609.4,715.362,609.881 M662.727,722.363l-2.57,0.417c-0.4-0.819-1.061-1.653-1.83-2.473l24.23-16.668
		l-26.992,13.874c-0.338-0.401-0.691-0.771-1.012-1.141c-0.578-0.642-1.061-1.284-1.254-1.975c-0.143-0.529-0.158-1.107,0.113-1.766
		l29.498-14.789l-27.426,10.309c-0.289-0.563-1.189-1.221-2.152-1.976c-1.188-0.932-2.504-2.007-3.02-3.211
		c-0.271-0.643-0.336-1.317-0.047-2.023l30.477-8.125l-30.639,4.271c-1.203-0.803-2.055-1.349-2.584-1.815
		c-0.691-0.625-0.836-1.14-0.578-2.039c0.176-0.593,0.529-1.38,1.027-2.472l30.076-5.123l-30.814,1.494
		c-0.385-0.482-0.867-0.964-1.541-1.446l1.172-1.396c11.883-1.848,23.252-4.785,34.715-7.21c-0.354,1.718-0.063,3.789,0.627,6.021
		c0.963,3.082,2.715,6.471,4.656,9.666c2.393,3.902,5.074,7.515,7.002,9.892c0.385,0.466,0.738,0.898,1.043,1.269
		C684.178,710.063,673.371,716.117,662.727,722.363 M698.614,701.793c-0.434-0.498-0.963-1.091-1.525-1.766
		c-1.959-2.329-4.527-5.62-6.76-9.169c-1.861-2.954-3.484-6.085-4.352-8.943c-0.627-2.072-0.852-4.015-0.449-5.652
		c1.268-0.257,2.537-0.45,3.822-0.69c-0.242,1.895,0.385,4.207,1.492,6.647c1.285,2.875,3.244,5.925,5.283,8.719
		c2.537,3.452,5.219,6.521,6.92,8.302C701.569,700.091,700.092,700.942,698.614,701.793 M707.285,696.783
		c-0.129-0.127-0.273-0.273-0.418-0.417c-0.031-0.048-0.08-0.08-0.129-0.128c-1.799-1.831-4.416-4.657-6.84-7.788
		c-1.863-2.409-3.613-5.01-4.785-7.435c-1.107-2.312-1.686-4.48-1.332-6.214c1.686-0.258,3.387-0.481,5.074-0.691
		c-0.307,2.088,0.352,4.368,1.541,6.648c1.51,2.842,3.854,5.651,6.23,8.013c2.104,2.103,4.238,3.837,5.828,4.896
		C710.721,694.713,709.02,695.772,707.285,696.783 M716.631,691.147c-1.639-0.963-3.773-2.488-5.861-4.335
		c-2.232-1.991-4.4-4.336-5.846-6.761c-1.301-2.151-1.99-4.367-1.637-6.406c1.877-0.177,3.773-0.354,5.684-0.434
		c-0.016,0.883,0.049,1.686,0.145,2.456c0.24,2.12,0.818,3.839,1.686,5.267c1.316,2.185,3.26,3.727,5.637,5.043
		c2.055,0.946,4.029,1.573,4.881,2.345C719.778,689.284,718.203,690.2,716.631,691.147 M725.446,685.735
		c-0.771-0.417-2.119-0.77-3.613-1.236c-2.055-0.561-4.367-1.332-5.65-2.938c-0.645-0.659-1.125-1.462-1.318-2.44
		c1.414,0.609,2.586,0.771,3.645,0.835l0.627-0.048c0.723-0.113,1.766-0.178,3.275,0.417c1.445,0.434,3.051,1.461,5.234,4.015
		C726.922,684.821,726.168,685.271,725.446,685.735 M731.018,682.155c-0.771-1.221-1.639-2.104-2.57-2.762
		c-1.668-1.172-3.564-1.639-5.49-2.007c-1.445-0.064-2.826-0.017-4.979-1.027c-0.225-0.097-0.449-0.21-0.658-0.321
		c-1.492-0.61-2.873-1.559-3.998-3.18c0.932-0.418,1.943-0.931,3.018-1.51c3.1,0.032,5.221,0.595,6.922,1.462
		c1.975,1.012,3.389,2.456,5.025,4.046c1.316,1.269,2.777,2.602,4.834,3.887C732.414,681.208,731.723,681.689,731.018,682.155
		 M736.332,678.591c-2.135-0.803-3.74-1.959-5.203-3.18c-1.67-1.412-3.131-2.922-4.928-4.158c-1.559-1.061-3.357-1.911-5.766-2.281
		c1.621-0.851,2.986-1.396,4.143-1.701c2.264-0.595,3.791-0.273,4.963,0.546c0.545,0.225,1.027,0.515,1.412,0.899
		c0.627,0.626,0.996,1.444,1.414,2.376c0.096,0.225,0.207,0.466,0.32,0.707c1.027,1.638,2.152,3.324,3.998,4.318
		c0.643,0.338,1.365,0.596,2.199,0.755C738.035,677.45,737.184,678.013,736.332,678.591 M743.141,673.87
		c-9.891-0.481-5.283-8.142-14.613-10.261c1.816-1.284,3.646-2.585,5.461-3.934c10.066-0.546,5.908,8.012,16.748,8.751
		C747.926,670.449,745.309,672.329,743.141,673.87 M755.024,665.343c-12.221,0.418-8.029-7.321-16.764-8.847
		c0.834-0.643,1.686-1.269,2.504-1.911c2.473,0.835,7.291,2.169,9.25,2.393c2.826,1.044,4.447,5.38,8.365,5.973
		C757.272,663.737,756.147,664.54,755.024,665.343 M762.555,659.739c-9.137-1.124-8.801-7.884-18.676-7.563
		c3.598-4.961,15.127-4.03,15.705-1.621c0.883,2.007,4.752,5.476,7.385,5.428C765.492,657.314,763.887,658.664,762.555,659.739
		 M743.125,648.034c2.15-2.297,2.891-4.77,3.355-8.43l6.006,1.091C752.262,640.937,745.598,646.203,743.125,648.034
		 M770.823,652.048c-7.707,2.746-4.512-7.065-18.385-6.454c1.814-1.382,3.051-2.698,4.24-3.71
		c10.355-1.605,9.201,3.437,17.887,5.105C773.442,648.821,772.156,650.49,770.823,652.048 M777.246,641.852
		c-5.893,2.185-7.66-5.427-17.662-3.163c0.979-1.285,1.943-2.891,2.697-4.817c6.92-2.746,10.662,4.641,17.213,1.172
		C778.949,637.371,778.194,639.668,777.246,641.852 M744.346,606.991c-0.643-4.271-1.768-13.521-2.057-15.158
		c2.891,0.563,4.914,1.397,7.451,2.136c1.35,1.124,1.061,4.656,0.178,5.443C746.979,602.832,743.606,601.949,744.346,606.991
		 M744.602,608.26c-0.016-0.017-0.031-0.017-0.047-0.017c-0.049-0.272-0.098-0.626-0.162-0.995
		C744.442,607.569,744.506,607.891,744.602,608.26 M754.172,595.43c4.014,1.462,7.482,3.18,10.486,5.075
		c0.096,8.382-12.27-0.45-12.012,10.758c-1.701-0.803-3.355-1.445-4.77-1.927c-0.127-1.687,0.178-3.887,0.563-4.561
		C750.576,602.832,756.309,600.986,754.172,595.43 M757.383,618.891c-2.906-0.402-7.258-0.932-11.16-1.253
		c-0.256-1.525-0.578-3.325-0.914-5.251C752.615,614.795,755.922,617.14,757.383,618.891 M756.276,613.205
		c-1.27-10.18,10.678,0.354,11.16-10.806c1.781,1.349,3.371,2.745,4.752,4.223c-2.199,9.49-9.553,3.1-13.938,8.222
		C757.465,614.089,756.758,613.559,756.276,613.205 M773.057,612.98c0.336-0.273,1.893-1.733,2.393-2.265
		c1.91,2.859,3.242,5.894,4.029,8.978c-4.93,4.688-11.963-2.618-16.652,2.616c-0.465-1.654-1.396-3.517-2.328-4.817
		C763.823,613.703,768.559,616.674,773.057,612.98 M780.25,630.307c-6.215,4.624-10.871-3.678-17.135,0.658
		c0.289-1.284,0.371-1.976,0.402-3.773c3.613-6.985,10.92,0.706,16.65-3.918C780.459,625.618,780.475,627.979,780.25,630.307
		 M742.338,588.364c-0.242-0.048-0.852-9.217-1.381-12.46l42.037,1.269c2.971,15.591,6.633,35.872,7.756,44.623l-7.209-1.043
		C780.073,606.638,772.188,595.028,742.338,588.364 M830.172,634.723c-1.752,7.08-18.965,24.294-26.592,24.358
		c-7.338,0-12.268-11.288-6.406-16.122c-4.383-1.075-10.695-1.781-14.645-2.697c1.494-4.64,1.895-10.661,1.525-15.704l10.758,1.574
		c0.467-5.123-8.688-52.443-8.688-52.443l-49.344-1.638c0,0,4.594,38.923,6.246,49.104c4.225,0.08,12.59,1.204,15.641,1.638
		c1.83,4.753-0.514,11.593-3.244,15.029l-12.508-1.911c0.723,33.191-46.582-19.525-15.4-14.659
		c-1.477-10.952-6.004-45.347-6.004-45.347l19.445-18.964l45.377,1.445c-1.348-32.082,47.965,16.908,15.898,15.271
		c1.09,15.238,5.779,36.306,9.008,53.792C818.272,620.816,831.891,623.627,830.172,634.723"/>
	<path fill="#FFFFFF" d="M538.057,696.944c-7.563-1.878-14.917-4.641-21.87-8.189c-3.806-0.337-9.595-1.076-13.407-1.621
		c0.016-0.017,0.047-0.017,0.063-0.032c-1.244-0.193-4.03-0.627-4.528-0.723l0,0c-0.915-0.161-4.047-0.723-4.961-0.915
		c1.163,0.963,2.4,1.846,3.668,2.681c0,0,1.502,1.044,2.272,1.414c4.239,2.504,8.864,4.543,13.417,6.519
		c0.409,0.177,0.826,0.354,1.235,0.546c7.499,3.26,17.431,7.017,27.731,7.161c9.258,0.129,16.08-0.818,22.15-3.082
		c0.676-0.241,1.35-0.515,2.008-0.787c-0.996,0.032-1.975,0.064-2.955,0.064C554.485,699.979,546.166,698.951,538.057,696.944"/>
	<path fill="#FFFFFF" d="M561.678,690.617c-6.953,0-13.408-1.188-18-2.039l-0.482-0.097c-3.773,0.627-8.157,0.932-13.15,0.932
		c-3.044,0-6.327-0.112-9.805-0.353c5.838,2.713,11.939,4.881,18.177,6.439c10.206,2.536,20.739,3.451,31.303,2.745
		c5.139-2.36,9.939-5.187,14.34-8.446c2.168-1.605,4.256-3.26,6.021-5.202c-7.387,3.05-15.141,4.993-23.09,5.78
		C565.194,690.537,563.428,690.617,561.678,690.617"/>
	<path fill="#FFFFFF" d="M588.412,669.31c-0.305,0.241-1.445,1.092-3.082,2.217c-1.959,1.332-4.16,2.842-6.504,4.014
		c-0.113,0.064-0.225,0.112-0.354,0.176c2.393-0.786,4.738-1.669,7.033-2.665c1.605-0.706,3.195-1.477,4.754-2.296
		c1.797-0.947,3.564-1.959,5.283-3.035c-0.018-0.289-0.018-0.577-0.049-0.835l0,0c-0.098-1.092-0.305-1.991-0.627-2.729
		c-0.064-0.16-0.111-0.321-0.193-0.466c-0.096,0.08-0.176,0.177-0.271,0.258l-0.756,0.689c-0.352,0.353-0.705,0.658-1.074,1.012
		C591.27,666.9,589.938,668.186,588.412,669.31"/>
	<path fill="#FFFFFF" d="M523.726,665.744c-0.49-0.176-0.956-0.354-1.405-0.529c-0.016,0.273-0.048,0.658-0.097,1.125
		c-0.2,1.975-0.666,4.415-1.381,6.117c-0.128,0.337-0.288,0.675-0.466,1.012c-0.369,0.947-0.818,1.846-1.349,2.714
		c0.707,0.208,1.413,0.417,2.12,0.626c0.626,0.192,1.252,0.369,1.878,0.562c-0.177-3.388,0.755-7.418,2.377-11.096
		C524.858,666.114,524.297,665.938,523.726,665.744"/>
	<path fill="#FFFFFF" d="M499.809,655.886c-0.017-0.081-3.437,0.369-5.026,0.771c-2.963,0.754-5.732,2.425-6.487,2.875
		c0.409,0.754,0.916,1.573,1.558,2.425c1.349,1.766,2.794,3.033,3.982,3.901c0.112-0.643,0.337-1.59,0.803-2.665
		c0.369-0.867,1.389-2.698,2.737-4.48c0.193-0.241,0.386-0.498,0.587-0.754c0.288-0.401,0.513-0.707,0.642-0.852
		c0.394-0.45,0.787-0.835,1.181-1.188l0,0c0.008,0,0.008-0.017,0.016-0.017C499.809,655.901,499.809,655.901,499.809,655.886"/>
	<path fill="#FFFFFF" d="M588.156,660.141c-1.125,0.048-1.959,0.145-2.826,0.338c-0.418,0.096-0.756,0.208-0.996,0.273
		c0,0.016,0,0.031,0.016,0.031c0.738,0.755,1.479,2.666,1.559,2.843c0.031,0.079,0.723,1.653,0.93,3.468
		c1.141-0.786,2.072-1.493,2.795-2.056c0.916-0.738,1.445-1.188,2.986-2.553c0.658-0.562,0.818-0.771,1.156-1.044
		c-0.723-0.609-1.283-0.947-2.506-1.156C590.42,660.141,589.473,660.077,588.156,660.141"/>
	<path fill="#FFFFFF" d="M470.44,604.615c0-0.049,0.161-5.091,1.613-5.862c0.329-0.176,0.706-0.159,1.044,0.081
		c0.498,0.337,1.124,1.365,1.101,1.991c-0.018,0.305-0.041,0.674-0.065,1.092c-0.111,1.783-0.272,4.48-0.048,8.013
		c0.9,13.762,4.793,29.111,10.967,43.211c0.113,0.256,0.201,0.466,0.258,0.625c0.578,1.013,1.301,2.521,1.686,3.309
		c0.378-0.272,0.883-0.626,1.221-0.819c0.465-0.257,1.653-0.786,2.319-1.075c-4.552-10.229-6.896-27.859-7.506-35.872
		c-1.108-14.581-0.417-15.255-0.081-15.592c0.594-0.595,1.108-0.579,1.43-0.434c1.253,0.481,1.605,3.451,1.758,7.771
		c0.298,8.912,0.779,14.982,1.615,20.297c1.059,6.696,5.378,20.104,6.245,22.705c3.806-1.012,5.491-0.948,6.528-0.899
		c0.071,0,0.136,0,0.208,0l-0.12-0.563c-1.928-8.719-5.509-24.952-4.545-33.479c0.048-0.45,0.081-0.899,0.113-1.349
		c0.144-1.734,0.24-2.986,0.979-3.259c0.32-0.129,0.689-0.048,1.011,0.207c0.658,0.499,1.269,1.88,0.996,4.208
		c-0.763,6.375,2.826,24.92,5.074,33.64c0.192-0.08,0.385-0.176,0.738-0.386c0.578-0.385,2.562-1.766,3.5-3.966
		c0.306-0.738,0.313-1.075,0.321-2.231c0-0.353,0-0.786,0.017-1.316c-0.104-1.237-0.096-2.489,0.016-3.886
		c0.016-2.65,2.007-5.652,3.003-6.616c0.354-0.321,0.818-0.675,1.204-0.915c-1.332-5.09-2.674-10.983-2.857-16.716
		c-1.478,1.445-3.678,3.501-4.336,3.661c-1.14,0.258-2.168-0.449-2.842-1.027c-2.361-1.976-4.239-4.497-5.443-7.322
		c-0.707,0.514-1.59,0.786-2.537,0.803c-1.221-0.032-2.361-0.45-3.132-1.253c-0.738-0.771-1.14-1.766-1.445-2.649
		c-0.522-1.477-0.866-3.002-1.188-4.479c-0.272-1.173-0.537-2.393-0.898-3.565c-0.249,0.129-0.57,0.306-0.852,0.449
		c-1.991,1.061-2.729,1.398-3.211,1.205c-0.65-0.256-1.1-1.333-1.542-2.521l-0.128-0.306c-0.418-1.026-0.818-2.874-1.204-4.673
		c-0.177-0.851-0.354-1.67-0.515-2.279c-4.576,4.399-8.028,5.748-10.132,6.085c-0.057,0.017-4.929,0.724-5.572-0.208
		c-0.136-0.193-0.144-0.45-0.016-0.658c0.659-1.125,1.076-1.943,1.316-2.521c-1.558,1.237-4.207,2.553-8.606,1.172
		c-0.658-0.209-1.124-0.417-1.413-0.658c-0.61,0.546-1.694,1.43-2.601,1.702c-2.458,0.771-4.007,0.69-4.737-0.192
		c-0.434-0.547-0.449-1.269-0.321-1.942l-2.144,1.701c1.004,8.061,2.497,16.09,4.439,23.861c2.152,8.574,4.271,14.612,5.348,17.438
		c1.269,3.34,2.995,7.916,6.085,13.568c1.888,3.468,4.015,6.841,6.327,10.052c0.818-1.605,2.488-4.93,2.923-5.813
		c-1.204-2.488-11.963-25.273-12.726-49.183c-0.169-2.554-0.378-8.64,1.196-9.313c0.111-0.048,0.232-0.08,0.377-0.08
		c0.281,0,0.635,0.129,1.027,0.53l0.088,0.144c0.378,0.835,0.386,1.35,0.402,2.586c0.016,2.119,0.057,6.551,1.942,19.14
		c1.382,9.266,4.577,19.879,10.036,33.383c0.354,0.948,1.565,3.998,2.891,6.054c0.328,0.498,1.895,2.875,3.372,4.191
		c1.06-1.702,2.159-3.292,3.549-4.496C480.893,653.412,470.954,632.813,470.44,604.615"/>
	<path fill="#FFFFFF" d="M631.254,595.43c0.031,0.418-0.049,0.835-0.307,1.188c-0.658,0.899-2.199,1.093-4.752,0.546
		c-0.883-0.176-2.344-1.075-3.244-1.67c-0.08,0.241-0.256,0.53-0.563,0.835c-0.865,0.835-3.467,1.204-6.164,0.306
		c-0.965-0.306-1.879-0.771-2.715-1.349c0.305,0.625,0.756,1.444,1.381,2.505c0.129,0.208,0.129,0.465-0.016,0.658
		c-0.643,0.932-5.508,0.225-5.557,0.208c-4.607-0.738-8.445-4.319-10.293-6.053c-0.111-0.113-0.225-0.226-0.336-0.322
		c-0.16,1.976-0.676,5.267-1.221,7.178c0,0.032-0.707,2.521-1.686,2.891c-0.465,0.177-1.221-0.145-3.211-1.205
		c-0.273-0.144-0.596-0.32-0.852-0.449c-0.354,1.173-0.627,2.393-0.883,3.565c-0.338,1.478-0.676,3.02-1.205,4.479
		c-0.305,0.884-0.707,1.879-1.445,2.649c-0.771,0.803-1.879,1.253-3.082,1.253h-0.049c-0.932,0-1.83-0.289-2.537-0.803
		c-1.203,2.825-3.066,5.347-5.428,7.322c-0.689,0.578-1.717,1.301-2.857,1.027c-0.643-0.16-2.842-2.2-4.32-3.645
		c-0.016,2.087-0.08,3.789-0.385,5.411c-0.947,5.379-1.943,8.606-2.73,10.822c0.449,0.288,0.723,0.53,0.738,0.53
		c0.451,0.385,0.771,0.786,0.932,0.979c0.322,0.417,1.318,1.862,1.75,2.955c0.691,1.669,1.045,3.436,1.174,5.715
		c0.063,1.269,0.063,2.152,0.063,2.778c0,1.156,0.018,1.494,0.322,2.217c0.514,1.204,1.268,2.023,2.039,2.697l0.689-2.393
		c2.746-9.554,6.906-24.006,6.424-29.337c-0.225-2.393,0.387-3.758,1.027-4.239c0.305-0.224,0.658-0.289,0.965-0.176
		c0.609,0.224,1.027,1.107,1.107,4.656c0.111,5.924-4.127,21.115-6.648,30.188c-0.32,1.14-0.625,2.217-0.883,3.147
		c0.273,0.128,0.627,0.305,1.076,0.562c0.963,0.53,2.762,1.541,4.447,3.468c0.369,0.418,0.771,1.013,1.141,1.542v0.017l0.369-0.048
		c2.986-5.701,8.012-22.77,8.799-26.704c1.045-5.139,1.316-11.368,1.623-20.28c0.145-4.32,0.496-7.29,1.75-7.771
		c0.32-0.146,0.834-0.161,1.428,0.434c0.338,0.337,1.029,1.011-0.08,15.592l-0.111,1.558c-0.498,7.049-1.043,15.045-9.859,36.883
		c0.514-0.032,0.947-0.032,1.381-0.032c2.168,0,3.854,0.177,5.105,0.53c5.541-15.704,11.658-36.498,12.428-48.316
		c0.227-3.532,0.066-6.229-0.047-8.013c-0.016-0.418-0.049-0.787-0.049-1.092c-0.031-0.626,0.596-1.654,1.092-1.991
		c0.338-0.225,0.707-0.257,1.043-0.081c1.447,0.755,1.623,5.813,1.623,5.862c-0.354,18.723-6.695,36.723-11.336,49.873
		c-0.691,1.943-1.334,3.774-1.912,5.477c0.242,0.272,0.402,0.481,0.402,0.481c0.129,0.16,0.256,0.369,0.369,0.594
		c1.59-0.786,4.031-2.296,5.443-3.483c1.91-1.606,2.891-3.373,3.533-4.737c6.775-14.355,9.795-32.661,9.826-32.838
		c1.012-6.326,1.863-15.977,1.912-17.759c0.016-0.563,0.016-1.012,0.031-1.381c0-1.236,0.016-1.751,0.385-2.586l0.096-0.144
		c0.596-0.611,1.094-0.595,1.398-0.45c1.572,0.674,1.365,6.76,1.203,9.346c-0.77,23.909-11.543,46.727-12.732,49.167
		c0.193,0.369,0.627,0.883,1.027,1.365c0.273,0.321,0.547,0.657,0.803,0.979c0.482,0.628,0.996,1.301,1.316,1.703
		c1.703-1.558,5.396-7.049,6.119-8.302c2.826-4.931,4.398-9.12,5.668-12.478l0.402-1.091c1.09-2.858,3.211-8.912,5.346-17.438
		c1.125-4.464,3.18-13.521,4.561-24.503c-0.514-0.129-1.027-0.305-1.492-0.547C631.75,595.735,631.494,595.591,631.254,595.43"/>
	<path fill="#FFFFFF" d="M489.131,674.368c1.462,0.593,5.011,1.558,6.552,1.959c3.211,0.803,6.471,1.444,9.746,1.959
		c0.241,0.032,0.466,0.08,0.707,0.112c0.626,0.111,1.252,0.192,1.87,0.272c0.626,0.097,1.245,0.192,1.87,0.272
		c1.133,0.146,2.266,0.273,3.404,0.401c3.863,0.435,7.74,0.755,11.627,0.948c-2.361-0.563-4.777-1.188-7.468-1.911
		c-0.032,0.048-0.265-0.016-0.642-0.16c-0.578-0.161-1.196-0.321-1.831-0.498c-0.089-0.032-0.177-0.048-0.257-0.08
		c-0.337-0.096-0.675-0.177-1.027-0.29c-0.072-0.016-0.145-0.031-0.217-0.063c-0.61-0.176-1.244-0.354-1.902-0.562
		c-0.273-0.081-0.539-0.161-0.819-0.258c-0.24-0.063-0.506-0.144-0.755-0.225c-0.321-0.112-0.626-0.208-0.955-0.32
		c-0.249-0.081-0.506-0.162-0.764-0.241c-0.353-0.128-0.705-0.241-1.075-0.37c-0.241-0.08-0.481-0.159-0.723-0.256
		c-0.418-0.146-0.843-0.289-1.269-0.45c-0.217-0.08-0.426-0.145-0.642-0.225c-0.643-0.241-1.31-0.497-1.991-0.755
		c-0.098-0.048-0.209-0.096-0.322-0.128c-0.056-0.032-0.111-0.049-0.176-0.081c0,0-0.009,0.017-0.017,0.017l-0.272-0.113
		c0,0,0.016,0,0.016-0.016c-0.071-0.016-0.152-0.048-0.225-0.08c-0.217-0.096-0.425-0.177-0.642-0.258
		c-1.751-0.722-3.597-1.572-5.477-2.664c-0.891-0.435-1.573-0.884-2.167-1.35c-0.69-0.466-1.39-0.963-2.071-1.509
		c-0.418-0.32-0.804-0.658-1.173-0.979c-0.434-0.386-0.834-0.771-1.204-1.156c-1.124-1.156-1.999-2.329-2.681-3.613
		c-0.338,0.932-0.676,1.879-0.98,2.842c-0.643,1.943-1.156,3.919-1.253,5.974c-0.016,0.289-0.144,0.803,0.017,1.044
		C484.458,672.248,488.071,673.95,489.131,674.368"/>
	<path fill="#FFFFFF" d="M553.873,683.665c0.338-0.16,0.674-0.354,1.012-0.546c-2.906,0.272-8.977,0.514-17.791-0.579
		c-1.221-0.159-2.377-0.32-3.518-0.497c-0.096,0-0.192-0.016-0.297-0.016c-6.038-0.032-12.469-0.401-18.683-1.044
		c-1.397-0.097-1.87-0.192-3.124-0.337c-0.657-0.081-1.308-0.161-1.966-0.241c-3.035-0.417-6.054-0.883-9.057-1.478
		c-1.524-0.305-3.066-0.625-4.616-0.995c0.008,0.017,0.008,0.032,0.008,0.032c-2.248-0.578-6.471-1.815-8.535-2.762
		c-0.617-0.273-1.982-0.915-3.339-1.799c0.104,0.643,0.28,1.285,0.554,1.879c0.031,0.063,0.064,0.16,0.129,0.289
		c0.497,1.092,1.14,2.087,1.444,2.568c0.603,0.916,0.964,1.478,1.59,2.217c0.129,0.144,0.675,0.771,1.494,1.525
		c0.754,0.706,1.461,1.236,2.039,1.638c1.284,0.272,4.278,0.867,5.828,1.156l-0.008-0.016c1.63,0.305,6.078,0.995,8.117,1.316
		c0.017-0.017,0.024-0.017,0.032-0.017c3.115,0.401,8.189,1.06,11.288,1.332c10.839,0.932,19.791,0.835,26.606-0.288
		c2.939-0.482,5.203-1.124,7.049-1.767C551.641,684.709,552.862,684.163,553.873,683.665"/>
	<path fill="#FFFFFF" d="M586.117,674.4c-4.883,2.135-9.988,3.772-15.223,4.881c-0.033,0.016-0.049,0.016-0.08,0.031
		c-0.803,0.338-1.639,0.659-2.457,0.965l0.031,0.032l-0.336,0.08c-1.029,0.369-2.088,0.707-3.133,1.011
		c-0.578,0.161-1.139,0.321-1.717,0.45c-1.734,0.418-3.277,0.674-4.625,0.867c-1.316,0.819-2.65,1.59-4.031,2.28
		c-0.271,0.129-0.545,0.256-0.85,0.401c-1.623,0.754-3.711,1.573-6.568,2.296c5.428,0.947,12.51,1.911,19.703,1.204
		c8.703-0.851,17.148-3.131,25.113-6.744c0.883-1.333,1.637-2.794,2.168-4.464c0.674-2.151,1.316-5.314,1.43-8.222
		c-1.752,1.06-3.533,2.057-5.363,2.987C588.846,673.147,587.481,673.806,586.117,674.4"/>
	<path fill="#FFFFFF" d="M557.022,680.357c1.668-0.21,3.451-0.466,5.588-0.979c0.434-0.097,0.883-0.225,1.316-0.338
		c-1.174-1.14-2.266-2.745-4.127-5.973c-0.963-1.687-1.43-3.742-1.605-5.797c-0.354,0.128-0.852,0.354-1.623,0.465
		c-0.16,0.017-0.4,0.048-0.643,0.097c0.707,1.687,1.221,3.532,1.447,5.637c0.225,2.119-0.033,4.143-0.258,6.086
		C557.084,679.827,557.053,680.084,557.022,680.357"/>
	<path fill="#FFFFFF" d="M480.99,588.173c0.378-0.482,0.401-0.596,0.562-1.462c0.097-0.529,0.241-1.316,0.554-2.568
		c2.112-8.495,6.415-13.488,8.302-15.352c-4.287-0.963-5.772-4.255-5.732-7.467c-0.297,0.257-0.602,0.53-0.787,0.69
		c-3.749,3.356-7.129,13.376-8.534,18.755v0.016c-0.762,3.438-2.231,6.375-4.078,10.101c-0.724,1.461-1.542,3.099-2.4,4.93
		C470.697,595.606,476.493,593.792,480.99,588.173"/>
	<path fill="#FFFFFF" d="M492.407,602.174l0.225,0.756c1.043,3.628,1.043,3.628,1.059,3.725c0.273,1.525,0.973,2.232,1.542,2.393
		c0.225-0.049,1.413-1.076,2.506-3.228l0.008-0.017c1.035-1.863,8.559-16.699,10.292-20.714c-0.906-0.289-1.782-0.658-2.897-1.204
		c-1.317-0.658-2.289-1.348-3.324-2.071c-0.192-0.129-0.401-0.273-0.595-0.401c-1.012,2.039-2.087,4.095-3.211,6.086
		c-1.983,3.549-4.159,7.033-6.471,10.356c-0.049,0.08-0.129,0.177-0.218,0.29l1.053,3.885l-0.45,0.272L492.407,602.174z"/>
	<path fill="#FFFFFF" d="M504.81,616.594c0.731-0.145,3.444-2.586,4.633-4.159c0.642-4.111,2.44-12.268,4.384-17.116
		c0.995-2.506,2.288-5.027,3.292-6.841l-0.153-0.048c-0.987-0.289-2.104-0.61-3.074-0.996c-0.594-0.241-1.045-0.386-1.454-0.53
		c-0.474-0.145-0.906-0.288-1.413-0.53c-1.003,2.104-4.238,9.281-5.194,11.594c-0.369,0.899-1.638,3.484-2.857,5.973
		c-1.133,2.297-2.297,4.674-2.698,5.604l0.016,0.032C501.118,612.306,502.635,614.666,504.81,616.594"/>
	<path fill="#FFFFFF" d="M485.654,598.705c0.338-0.159,1.165-0.898,1.485-1.188c0.185-0.16,0.337-0.305,0.45-0.386
		c0.898-0.706,1.669-1.781,2.425-2.811c0.176-0.256,0.354-0.497,0.537-0.738c2.111-2.842,3.846-6.006,5.516-9.056l0.916-1.654
		c0.185-0.305,0.369-0.642,0.513-0.964c0.058-0.111,0.282-0.513,1.622-2.729c-1.589-1.781-4.784-6.904-5.7-9.36
		c-0.866,0.272-1.75,1.509-2.296,2.296l-0.225,0.304c-1.012,1.414-2.023,3.004-3.083,4.866c-1.582,2.778-2.417,5.845-2.971,8.205
		l-0.129,0.578c-0.563,2.393-0.898,3.822-0.513,6.327C484.78,596.089,485.341,598.192,485.654,598.705"/>
	<path fill="#FFFFFF" d="M462.379,593.856c1.574-0.386,4.545-1.718,6.792-6.375l0.146-0.289c0.642-1.316,1.525-3.131,2.85-6.793
		c0.69-1.878,1.237-3.548,1.742-5.073c1.077-3.211,1.991-6.006,3.678-9.378c0.417-0.834,0.963-1.846,1.758-3.05
		c1.164-1.751,2.529-3.372,4.087-4.817c-3.572-0.852-5.066-3.484-5.516-5.025c-0.265,0.272-0.514,0.577-0.675,0.771
		c-1.919,2.377-8.325,10.774-10.364,19.733c-0.257,1.333-0.795,3.71-1.269,5.798c-0.369,1.653-0.707,3.146-0.852,3.836
		c-0.626,3.229-1.357,6.07-4.52,10.759C460.612,594.033,461.368,594.098,462.379,593.856"/>
	<path fill="#FFFFFF" d="M466.522,564.391c2.922-6.663,9.04-14.258,10.365-15.864c-0.395-0.498-1.117-1.412-1.453-1.91
		c-0.449-0.659-0.643-1.51-0.787-2.185c-0.032-0.16-0.081-0.354-0.113-0.514c-1.59,1.364-7.627,9.844-10.927,16.475
		c-3.669,7.371-6.318,18.596-7.29,23.075c-0.297,1.381-1.14,4.993-1.42,5.796c-0.499,1.381-1.35,3.115-1.976,4.384
		c-0.137,0.305-0.298,0.626-0.434,0.916c4.994-1.204,7.997-4.995,8.929-11.305c0.208-1.381,1.765-8.702,2.103-10.244
		C464.081,570.076,465.109,567.586,466.522,564.391"/>
	<path fill="#FFFFFF" d="M598.256,587.112c0.16,0.883,0.191,1.044,0.609,1.558c4.93,6.198,11.305,7.771,12.654,7.771h0.047
		c-0.914-1.991-1.781-3.741-2.568-5.299c-1.846-3.709-3.291-6.647-4.063-10.052v-0.016c-0.385-1.494-3.934-14.693-8.607-18.883
		c-0.256-0.226-0.834-0.724-1.236-1.077c0.145,2.185-0.225,6.873-5.973,7.885c1.639,1.525,6.342,6.566,8.574,15.56
		C598.014,585.812,598.16,586.599,598.256,587.112"/>
	<path fill="#FFFFFF" d="M618.406,594.596c0.98,0.111,1.607-0.049,1.799-0.161c-3.291-4.785-4.045-7.66-4.672-10.919
		c-0.145-0.707-0.48-2.232-0.852-3.854c-0.465-2.088-1.01-4.465-1.268-5.813c-2.057-8.993-8.494-17.439-10.406-19.815
		c-0.225-0.272-0.625-0.738-1.012-1.107c-0.24,1.349-1.686,4.608-5.908,5.379c1.686,1.51,3.162,3.228,4.416,5.091
		c0.787,1.188,1.316,2.199,1.734,3.033c1.67,3.357,2.6,6.136,3.66,9.331c0.529,1.573,1.061,3.195,1.752,5.09
		c1.332,3.66,2.215,5.49,2.857,6.808l0.145,0.305C613.319,593.455,616.963,594.435,618.406,594.596"/>
	<path fill="#FFFFFF" d="M628.268,594.949c0.176,0,0.369-0.017,0.545-0.032c0.016,0,0.033,0,0.033,0
		c-0.066-0.45-0.787-2.088-3.164-5.83c-0.418-0.674-1.654-4.271-1.99-5.828c-0.98-4.497-3.629-15.752-7.324-23.139
		c-2.199-4.448-5.475-10.325-11.191-16.459c-0.209,1.349-0.449,2.265-0.754,2.714c-0.658,1.061-1.285,1.494-1.654,1.75
		c-0.096,0.064-0.193,0.146-0.256,0.193c0.865,1.043,7.434,9.04,10.5,16.009c1.396,3.18,2.426,5.651,2.971,8.591
		c0.113,0.481,0.322,1.573,0.563,2.858c0.514,2.713,1.205,6.455,1.541,7.306C621.008,590.772,624.606,594.949,628.268,594.949"/>
	<path fill="#FFFFFF" d="M590.34,595.542c1.059,1.366,2.328,2.586,3.725,3.612c0.145,0.098,0.258,0.178,0.369,0.178h0.016
		c0.098,0,0.162-0.097,0.258-0.337l0.016-0.048c0.418-0.932,0.611-1.976,0.803-2.988l0.08-0.368
		c0.178-0.852,0.338-1.767,0.482-2.794c0.402-2.554,0.033-4.095-0.514-6.424l-0.129-0.577c-0.561-2.376-1.396-5.476-3.002-8.27
		c-1.061-1.879-2.072-3.469-3.084-4.882l-0.225-0.321c-0.625-0.866-1.621-2.296-2.666-2.44c-0.818,2.521-3.676,7.675-5.844,9.635
		c1.654,2.729,1.686,2.825,1.703,2.873c0.127,0.306,0.336,0.644,0.529,0.98c0.08,0.145,0.16,0.289,0.24,0.434l0.658,1.204
		c1.092,1.991,2.217,4.047,3.453,6.006c0.609,0.963,1.123,1.733,1.621,2.44c0.193,0.241,0.369,0.497,0.547,0.755
		C589.682,594.659,590.002,595.108,590.34,595.542"/>
	<path fill="#FFFFFF" d="M584.992,609.126c0.031,0,0.064,0,0.08,0c1.254-0.353,1.494-0.898,1.975-2.23
		c0.434-1.173,0.803-2.377,1.125-3.581c0.031-0.112,0.064-0.241,0.08-0.369c0.225-0.884,0.4-1.783,0.563-2.666
		c0.047-0.16,0.08-0.289,0.111-0.449c0.098-0.354,0.289-1.093,0.145-1.269l-0.08-0.112c-0.113-0.146-0.209-0.273-0.289-0.386
		c-2.295-3.309-4.48-6.776-6.455-10.309c-1.156-2.088-2.279-4.224-3.322-6.358c-0.273,0.191-0.563,0.385-0.836,0.577
		c-1.027,0.723-1.992,1.397-3.291,2.039c-1.205,0.611-2.137,0.996-3.117,1.285c1.51,3.613,9.346,19.093,10.406,20.986
		C583.082,608.26,584.512,609.126,584.992,609.126"/>
	<path fill="#FFFFFF" d="M569.145,586.405c-1.334,0.627-4.561,1.639-6.584,2.265c1.012,1.848,2.375,4.479,3.42,7.098
		c2.279,5.7,3.533,11.031,3.725,15.848c1.27,1.719,4.883,5.268,5.492,5.155c4.031-4.175,4.592-6.07,4.816-6.792
		c0.018-0.033,0.018-0.065,0.033-0.098c-0.387-0.883-1.574-3.323-2.746-5.684c-1.221-2.488-2.488-5.074-2.842-5.957
		C573.448,595.815,569.979,588.156,569.145,586.405"/>
	<path fill="#FFFFFF" d="M628.926,569.418c-0.354-0.98-0.691-1.976-1.045-2.988c-0.063-0.159-0.145-0.385-0.256-0.641
		c-0.113-0.273-0.242-0.596-0.385-0.965c-5.252-13.873-13.426-23.716-14.549-24.824c-1.012,0.354-2.088,0.578-3.164,0.675
		c-1.043,0.08-2.088,0.048-3.115-0.097c0.418,0.547,0.996,1.317,1.67,2.232c3.357,4.447,8.977,11.883,10.566,15.479
		c2.039,4.575,4.256,10.1,7.098,22.769c1.381,6.069,4.93,11.256,8.156,11.883c0.082-0.354,0.082-1.654-0.578-6.23
		C632.104,578.313,630.498,573.785,628.926,569.418"/>
	<path fill="#FFFFFF" d="M539.92,560.232c-1.06-1.445-3.003-1.621-3.372-1.653c-3.195-0.306-5.572,2.425-6.343,3.323
		c-0.537,0.626-1.252,1.605-1.758,2.938c-0.618,1.639-0.635,3.02-0.635,3.743c-0.024,11.208,0.787,16.089,0.787,16.089
		c0.306,1.83,1.061,6.037,2.633,11.256c0,0,1.623,6.021,5.204,10.662c0.818,1.076,2.938,3.051,3.789,2.649
		c-1.839-4.111-2.818-7.482-3.02-7.964c-0.434-1.044-2.513-7.709-2.874-13.216c-0.546-8.479,0.755-18.272-0.129-25.242
		c0.081-0.08,0.209-0.192,0.37-0.176c1.003,0.016,1.269,3.275,1.364,5.523c0.226,5.041-0.016,8.911-0.2,11.111
		c-0.457,5.588-0.249,7.804,0.152,10.598c1.076,7.547,5.105,18.691,5.451,18.916c0.137,0.097,0.178-1.06,0.307-2.152
		c0,0-0.105-1.959-0.105-2.601c-0.023-6.087-0.746-15.271-0.746-15.271c-0.008-7-0.25-11.641-0.137-18.593
		C540.69,568.534,540.627,561.212,539.92,560.232"/>
	<path fill="#FFFFFF" d="M453.757,581.154c2.857-12.685,5.178-18.433,7.129-22.801c1.606-3.612,7.065-10.887,10.325-15.238
		c0.587-0.771,1.092-1.445,1.478-1.975l-5.524-0.723c-1.269,1.3-9.313,11.176-14.419,24.648c-0.129,0.369-0.265,0.689-0.377,0.962
		c-0.104,0.258-0.201,0.482-0.249,0.644c-0.354,1.012-0.707,2.007-1.052,2.986c-1.565,4.367-3.172,8.88-4.392,17.245
		c-0.546,3.838-0.635,5.331-0.603,5.894C449.132,591.978,452.448,586.984,453.757,581.154"/>
	<path fill="#FFFFFF" d="M554.789,674.11c-0.563-5.459-3.404-9.217-6.504-12.894c-0.594-0.723-1.076-1.349-1.477-1.959
		c-1.799-2.762-2.65-5.716-2.41-8.302c0.113-1.156,0.451-2.216,0.756-3.147c0.707-2.199,0.658-2.858,0.625-3.403l-0.016-0.21
		c-0.08-1.541-0.643-2.713-0.85-3.163c-0.305-0.625-0.643-1.188-1.02-1.653c-0.234-0.289-0.379-0.241-0.828-0.096
		c-0.16,0.063-0.354,0.127-0.553,0.159c-0.973,0.193-1.977,0.242-2.988,0.113c-0.177-0.017-0.449-0.048-0.746-0.097
		c-0.514-0.064-1.107-0.145-1.414-0.176c-0.016,0-0.023,0-0.031,0c-0.498,0-1.365,1.188-1.654,1.573
		c-0.072,0.112-0.128,0.191-0.168,0.24c-0.265,0.305-0.474,0.755-0.683,1.188c-0.097,0.193-0.192,0.386-0.289,0.563
		c-1.044,1.943-0.803,3.886-0.386,5.684c0.177,0.739,0.378,1.574,0.49,2.505c0.048,0.369,0.088,0.723,0.145,1.076
		c0.417,3.019,0.715,5.202-2.401,7.948c-4.415,3.918-6.31,8.848-6.961,18.177c2.723,0.626,5.693,1.156,8.841,1.574
		c1.412-1.783,2.312-6.536,1.365-10.694c-0.01-0.049-0.724-4.287,0.039-4.545c0.345-0.112,0.57,0.386,0.698,0.643
		c2.176,4.897,2.449,10.325,0.755,14.933l0.121,0.017c0.023,0,2.433,0.306,5.691,0.515c0.098,0.017,0.209,0.017,0.307,0.032
		c-1.631-4.753-1.172-10.277,1.268-15.207c0.129-0.257,0.369-0.754,0.723-0.61c0.754,0.273-0.129,4.496-0.145,4.528
		c-1.148,4.207-0.939,7.001,0.867,11.433c3.291,0.129,6.15,0.096,8.463-0.111l0.016-0.064c0.031-0.337,0.064-0.675,0.111-0.996
		C554.772,677.771,554.983,675.974,554.789,674.11 M536.966,645.802c-0.273,0.723-0.844,1.235-1.076,1.382
		c-0.031,0.016-0.08,0.031-0.129,0.031c-0.08,0-0.176-0.048-0.225-0.128c-0.063-0.113-0.031-0.273,0.098-0.338
		c0.039-0.032,0.111-0.08,0.208-0.161c0.201-0.207,0.489-0.529,0.65-0.962c0.056-0.146,0.096-0.274,0.137-0.418
		c-0.145,0.128-0.346,0.257-0.611,0.369c-0.225,0.097-0.513,0.16-0.858,0.192c-0.04,0-0.088,0-0.128,0
		c-0.153-0.016-0.282-0.096-0.378-0.208c-0.361-0.435-0.498-0.899-0.426-1.35c0.145-0.867,1.021-1.429,1.606-1.798
		c0.249-0.161,0.585-0.097,0.762,0.128c0.065,0.016,0.129,0.048,0.177,0.112C537.527,643.875,537.319,644.887,536.966,645.802
		 M542.955,645.866c0.16,0.434,0.449,0.754,0.658,0.947c0.08,0.08,0.16,0.145,0.201,0.16c0.119,0.081,0.16,0.241,0.088,0.354
		c-0.049,0.08-0.129,0.129-0.225,0.129c-0.041,0-0.082-0.017-0.121-0.033c-0.232-0.144-0.811-0.657-1.084-1.38
		c-0.338-0.916-0.555-1.927,0.209-3.163c0.031-0.064,0.096-0.097,0.168-0.112c0.186-0.226,0.514-0.289,0.764-0.13
		c0.576,0.386,1.461,0.948,1.605,1.8c0.08,0.465-0.064,0.914-0.418,1.348c-0.096,0.129-0.24,0.193-0.385,0.21
		c-0.049,0.016-0.08,0.016-0.129,0.016c-0.354-0.032-0.627-0.112-0.867-0.209c-0.258-0.097-0.449-0.225-0.602-0.354
		C542.858,645.577,542.906,645.722,542.955,645.866"/>
	<path fill="#FFFFFF" d="M527.371,553.393c0,0,0.972,0.771,1.87,0.786c0.121,0.017,0.226-0.016,0.226-0.016
		c0.089,0,0.16-0.032,0.241-0.064c-2.112-1.444-3.79-3.982-3.645-6.6c0.088-1.605,1.268-2.746,2.022-4.062
		c0.353-0.611,0.626-1.254,0.626-2.008c0-0.434-0.354-0.675-0.69-0.675c-0.321,0-0.643,0.192-0.643,0.61
		c0,0.594-0.225,1.123-0.529,1.621c-0.321,0.515-0.706,0.996-1.044,1.478c-0.787,1.156-1.164,2.408-1.06,3.807
		c0.032,0.24,0.063,0.449,0.104,0.674c0.193,1.172,0.603,2.039,0.908,2.553C526.376,552.573,527.091,553.167,527.371,553.393"/>
	<path fill="#FFFFFF" d="M521.855,632.731c0.771,0.272,1.485,0.642,2.071,1.156c1.165-1.687,5.371-7.788,6.07-9.137
		C527.797,626.438,523.887,630.756,521.855,632.731"/>
	<path fill="#FFFFFF" d="M525.516,636.601c0.956-0.626,6.536-9.506,6.536-9.506c-1.735,1.14-5.934,5.251-7.685,7.227
		c0.257,0.288,0.474,0.594,0.658,0.932C525.268,635.702,525.42,636.151,525.516,636.601"/>
	<path fill="#FFFFFF" d="M541.51,636.553l0.152-0.016c0.818-0.064,1.34-0.209,1.582-0.29c-0.258-1.444-1.83-7.996-2.563-9.891
		c-0.601,1.862-1.628,8.269-1.79,10.004c0.369,0.08,1.333,0.177,2.176,0.177L541.51,636.553z"/>
	<path fill="#FFFFFF" d="M550.389,626.661c0,0,3.678,7.082,5.203,9.362c0.176-0.434,0.369-0.835,0.529-1.141
		s0.369-0.562,0.563-0.818c-0.273-0.482-0.643-1.125-1.061-1.848C553.842,630.082,551.545,627.561,550.389,626.661"/>
	<path fill="#FFFFFF" d="M557.518,633.262c0.547-0.449,1.189-0.771,1.879-0.98c-1.959-2.328-4.945-6.134-6.775-7.787
		c0.498,1.172,3.211,5.941,4.656,8.462C557.358,633.067,557.438,633.165,557.518,633.262"/>
	<path fill="#FFFFFF" d="M561.66,586.373l1.285-0.545c0,0,4.576-1.622,6.055-2.249c2.135-0.883,6.15-2.874,8.092-4.415
		c5.154-4.078,6.729-9.859,8.254-11.689c5.299-0.338,7.451-2.938,7.787-5.604c0.209-1.589-1.477-5.266-1.012-5.396
		c0,0,5.877-1.301,7.195-3.308c1.941-2.954,0.85-6.744,0.85-6.744c0.08,0,5.172-1.911,2.184-9.345
		c0.611,1.493,12.043,0.289,11.787-0.482c-0.756-2.119-3.773-4.753-6.824-6.615c-3.854-2.36-8.27-2.826-11.096-2.504
		c-3.115,0.368-6.199,0.689-9.137,1.845c-4.303,1.719-6.584,4.866-7.627,9.266c-1.189,4.914-1.189,10.004-1.752,15.029
		c-0.705,6.343-2.52,12.396-7.482,16.748c-3.998,3.517-9.281,6.311-14.578,7.241C557.711,579.791,561.66,586.373,561.66,586.373"/>
	<path fill="#FFFFFF" d="M477.729,537.078c-2.986,7.434,2.12,9.345,2.192,9.345c0,0-1.1,3.79,0.843,6.744
		c1.316,2.007,7.194,3.308,7.194,3.308c0.474,0.13-1.221,3.807-1.013,5.396c0.338,2.666,2.49,5.267,7.789,5.604
		c1.525,1.83,3.099,7.611,8.261,11.689c1.943,1.541,5.958,3.532,8.085,4.415c1.494,0.627,6.063,2.249,6.063,2.249l1.283,0.545
		c0,0,3.959-6.582,6.03-8.768c-5.476-0.962-14.692-5.362-18.706-12.042c-4.015-7.707-4.465-17.245-4.48-17.646
		c-0.402-6.696-1.453-12.075-1.67-12.622c-2.738-7.016-12.99-7.498-15.736-7.818c-2.811-0.322-7.242,0.144-11.088,2.504
		c-3.059,1.862-6.077,4.496-6.824,6.615C465.687,537.367,477.135,538.571,477.729,537.078"/>
	<path fill="#FFFFFF" d="M582.199,660.991c-0.018-0.032-0.916-1.638-1.992-2.81c-1.59-1.686-3.645-2.811-5.299-3.693
		c-0.449-0.257-0.867-0.48-1.236-0.69c-0.771-0.466-1.75-1.043-2.617-2.071c-1.701-2.007-1.879-4.495-2.023-6.486
		c-0.031-0.546-0.064-1.076-0.08-1.59c-0.049-1.269-0.096-2.456-0.4-3.807c-0.387-1.638-1.029-2.985-1.928-3.982
		c-1.125-1.268-2.617-1.91-4.432-1.91c-0.064,0-0.129,0.017-0.209,0.017l-0.113,0.016c-0.336,0.033-0.674,0.097-0.994,0.192
		c-0.578,0.193-1.156,0.481-1.719,0.883c-0.113,0.081-0.24,0.178-0.338,0.258c-0.096,0.08-0.176,0.16-0.256,0.225l-0.064,0.064
		c-0.225,0.208-0.418,0.402-0.563,0.594c-0.145,0.161-0.225,0.289-0.289,0.417c-0.225,0.322-0.369,0.611-0.465,0.868
		c-0.354,1.06-0.16,2.039,0.064,3.179l0.047,0.241c0.387,1.943,1.928,4.368,2.072,4.561c0.803,1.043,1.639,2.12,2.168,3.372
		c0.738,1.781,0.898,3.661,0.48,5.443c-0.465,2.007-0.803,4.175-1.107,6.086c-0.129,0.787-0.24,1.541-0.354,2.231
		c-0.336,1.99-0.145,4.335,0.529,6.809c0.146,0.498,0.547,1.799,1.221,3.066c1.156,2.168,2.555,4.063,4.143,5.62
		c1.414-0.481,2.955-1.092,4.674-1.847c1.943-0.851,3.773-1.734,5.475-2.585c-0.4-0.369-0.898-0.835-1.412-1.381l-0.129-0.129
		c-1.477-1.541-3.164-3.275-4.607-6.021c-2.232-4.271-1.623-6.615-1.559-6.872c0.016-0.032,0.369-1.204,0.369-1.204l0.338-1.124
		l0.225,1.702c0.031,0.209,0.096,0.69,0.209,1.301c0.609,2.505,2.279,5.299,3.002,6.165c2.313,2.794,4.223,4.722,6.166,6.215
		c0.916-0.514,1.879-1.124,2.955-1.831c-0.643-2.825-1.639-5.974-4.063-8.188c-0.209-0.193-0.98-0.9-0.98-0.9l-0.4-0.336
		l0.465-0.273c0.258-0.145,0.916-0.177,2.346,1.156c1.605,1.51,3.42,5.074,4.143,7.53l0.305-0.208
		c0.434-0.306,0.818-0.562,1.156-0.819c-0.258-1.268-0.563-2.473-0.883-3.469C583.643,663.128,582.215,661.008,582.199,660.991
		 M565.901,640.728c-0.064,0.209-0.289,0.32-0.514,0.272c-0.016,0-0.031,0-0.031-0.016c-0.227-0.08-0.354-0.321-0.273-0.545
		c0.031-0.064,0.063-0.194,0.08-0.338c0.096-0.481,0.16-1.316-0.098-1.991c-0.063-0.161-0.129-0.321-0.191-0.465
		c-0.033,0.337-0.178,0.755-0.547,1.22c0,0,0,0.016-0.016,0.032c-0.016,0.032-0.049,0.063-0.08,0.08
		c-0.113,0.096-0.256,0.145-0.418,0.145c-0.563-0.049-0.979-0.241-1.27-0.595c-0.545-0.69-0.367-1.686-0.256-2.36
		c0.016-0.08,0.049-0.159,0.08-0.225l-0.016-0.016c-0.096,0-0.193-0.017-0.305-0.017c-0.24-0.016-0.434-0.192-0.434-0.434
		c0-0.24,0.209-0.434,0.449-0.434c2.457,0.016,3.309,1.414,3.822,2.762C566.301,638.913,566.076,640.245,565.901,640.728"/>
	<path fill="#FFFFFF" d="M524.376,453.355l-15.688,24.535l24.841-15.495L540,490.704l6.471-28.309l24.84,15.495l-15.67-24.535
		l28.645-6.407l-28.645-6.391l15.67-24.535l-24.84,15.495L540,403.208l-6.471,28.31l-24.841-15.495l15.688,24.535l-28.654,6.391
		L524.376,453.355z M520.249,427.438l15.673,9.779L540,419.362l4.094,17.855l15.656-9.779l-9.891,15.48l18.08,4.029l-18.08,4.047
		l9.891,15.479l-15.656-9.779L540,474.551l-4.078-17.856l-15.673,9.779l9.893-15.479l-18.073-4.047l18.073-4.029L520.249,427.438z"
		/>
	<path fill="#FFFFFF" d="M497.754,258.211c-2.875,0-5.22,2.312-5.22,5.154c0,2.842,2.345,5.154,5.22,5.154
		c2.874,0,5.219-2.313,5.219-5.154C502.972,260.522,500.628,258.211,497.754,258.211"/>
	<path fill="#FFFFFF" d="M582.471,268.52c2.875,0,5.219-2.313,5.219-5.154c0-2.843-2.344-5.154-5.219-5.154
		c-2.873,0-5.219,2.312-5.219,5.154C577.252,266.207,579.598,268.52,582.471,268.52"/>
	<path fill="#FFFFFF" d="M540.643,268.52c2.881,0,5.219-2.313,5.219-5.154c0-2.843-2.338-5.154-5.219-5.154
		c-2.875,0-5.219,2.312-5.219,5.154C535.424,266.207,537.768,268.52,540.643,268.52"/>
	<path fill="#FFFFFF" d="M493.482,310.718c-2.874,0-5.219,2.328-5.219,5.154c0,2.859,2.345,5.171,5.219,5.171
		s5.218-2.312,5.218-5.171C498.7,313.046,496.356,310.718,493.482,310.718"/>
	<path fill="#FFFFFF" d="M586.438,310.718c-2.875,0-5.219,2.328-5.219,5.154c0,2.859,2.344,5.171,5.219,5.171
		s5.219-2.312,5.219-5.171C591.656,313.046,589.313,310.718,586.438,310.718"/>
	<path fill="#FFFFFF" d="M540.49,310.718c-2.883,0-5.21,2.328-5.21,5.154c0,2.859,2.327,5.171,5.21,5.171
		c2.881,0,5.227-2.312,5.227-5.171C545.717,313.046,543.371,310.718,540.49,310.718"/>
	<polygon fill="#FFFFFF" points="362.39,452.071 364.96,445.519 365.747,443.495 363.708,442.725 360.046,441.328 358.007,440.542 
		357.219,442.565 354.65,449.1 346.125,445.841 344.077,445.069 343.29,447.076 341.42,451.861 340.633,453.868 342.672,454.655 
		351.198,457.915 348.348,465.173 347.553,467.196 349.6,467.968 353.254,469.38 355.294,470.151 356.089,468.144 358.938,460.87 
		365.859,463.52 367.898,464.306 368.701,462.282 370.563,457.513 371.35,455.49 369.311,454.72 	"/>
	<polygon fill="#FFFFFF" points="716.951,461.608 717.496,463.696 719.617,463.166 726.811,461.319 728.594,468.112 
		729.139,470.215 731.258,469.67 735.065,468.705 737.184,468.16 737.006,467.518 737.071,467.501 736.461,465.382 734.856,459.265 
		743.703,457 745.823,456.454 745.276,454.366 743.977,449.405 743.43,447.317 741.311,447.863 732.463,450.128 730.487,442.581 
		729.926,440.493 727.823,441.022 724.016,442.003 721.897,442.549 722.444,444.636 724.418,452.183 717.24,454.013 715.104,454.56 
		715.666,456.646 	"/>
	<path fill="#FFFFFF" d="M522.257,636.906c-0.714-1.108-2.071-1.814-3.717-1.976c-0.217-0.031-0.441-0.031-0.618-0.031
		c-0.755,0-1.478,0.128-2.168,0.369l-0.145,0.048c-0.063,0.016-0.128,0.032-0.192,0.064c-0.932,0.385-2.208,0.915-3.517,2.762
		c-0.876,1.236-0.907,2.313-0.979,4.641l-0.033,0.947c-0.031,0.818-0.008,1.172,0.01,1.462c0.016,0.305,0.031,0.562-0.01,1.172
		c-0.144,1.991-0.32,4.464-2.022,6.471c-1.244,1.493-3.003,2.425-4.721,3.323c-1.269,0.675-2.585,1.365-3.653,2.281
		c-1.469,1.252-2.682,2.938-3.717,5.122c-0.691,1.477-1.204,2.97-1.542,4.575c0.394,0.258,0.787,0.482,1.173,0.691
		c0.24,0.144,0.489,0.273,0.73,0.417c0.569-2.44,2.576-6.551,4.318-8.173c1.43-1.333,2.08-1.285,2.354-1.156l0.457,0.257
		l-1.373,1.253c-2.359,2.151-3.564,5.86-4.158,8.574c0,0.017-0.008,0.032-0.017,0.064c0.915,0.434,1.863,0.866,2.891,1.284
		c0.257,0.097,0.515,0.209,0.755,0.306l0.128,0.048c1.573-1.253,3.212-2.954,5.588-5.813c0.715-0.867,2.393-3.661,3.003-6.166
		c0.112-0.627,0.177-1.092,0.209-1.301l0.225-1.718l0.329,1.124c0,0,0.346,1.155,0.369,1.22c0.072,0.257,0.666,2.602-1.565,6.873
		c-1.438,2.745-3.114,4.479-4.608,6.021l-0.128,0.128c-0.226,0.241-0.45,0.466-0.659,0.675l0.763,0.272
		c0.587,0.226,1.148,0.418,1.703,0.61c0.553,0.193,1.067,0.354,1.549,0.498c1.004,0.321,1.895,0.563,2.914,0.851
		c1.068,0.306,2.28,0.643,3.846,1.124c1.317-1.847,2.216-3.581,2.746-5.314c0.643-2.104,0.827-4.447,0.578-7.193
		c-0.217-2.345-0.658-4.865-1.453-8.19c-0.417-1.781-0.249-3.677,0.49-5.442c0.529-1.269,1.356-2.345,2.168-3.389
		c0.16-0.191,0.313-0.401,0.465-0.609l0.113-0.13C523.686,642.462,523.51,638.85,522.257,636.906 M517.262,639.62
		c-0.176,0.417-0.529,0.738-1.06,0.915c-0.145,0.048-0.305,0.048-0.433-0.017c-0.041-0.016-0.08-0.048-0.113-0.063
		c-0.008-0.016-0.016-0.016-0.023-0.016c-0.474-0.37-0.73-0.724-0.859-1.045c-0.016,0.161-0.048,0.338-0.048,0.515
		c-0.065,0.674,0.208,1.461,0.449,1.942c0.056,0.129,0.121,0.225,0.177,0.305c0.129,0.193,0.08,0.45-0.113,0.595
		c-0.071,0.049-0.159,0.081-0.248,0.081c-0.137,0-0.265-0.064-0.354-0.178c-0.297-0.418-0.875-1.638-0.787-2.826
		c0.121-1.444,0.555-3.002,2.923-3.677c0.232-0.064,0.474,0.063,0.538,0.289c0.064,0.225-0.064,0.466-0.297,0.529
		c-0.104,0.032-0.193,0.08-0.289,0.113l-0.008,0.016c0.063,0.048,0.111,0.113,0.144,0.193
		C517.151,637.901,517.6,638.817,517.262,639.62"/>
</g>
</svg>
