<?xml version="1.0" encoding="utf-8"?>
<!-- Generator: Adobe Illustrator 16.0.0, SVG Export Plug-In . SVG Version: 6.00 Build 0)  -->
<!DOCTYPE svg PUBLIC "-//W3C//DTD SVG 1.1//EN" "http://www.w3.org/Graphics/SVG/1.1/DTD/svg11.dtd">
<svg version="1.1" id="Camada_1" xmlns="http://www.w3.org/2000/svg" xmlns:xlink="http://www.w3.org/1999/xlink" x="0px" y="0px"
	 width="1080px" height="1080px" viewBox="0 0 1080 1080" enable-background="new 0 0 1080 1080" xml:space="preserve">
<g>
	<path d="M635.376,878.901c5.985,0,10.511-4.67,10.511-10.88c0-6.081-4.044-10.334-9.837-10.334h-0.128
		c-4.477,0-10.799,3.386-10.799,10.88C625.123,876.205,630.643,878.901,635.376,878.901"/>
	<path d="M371.614,867.267c-2.271,0.305-3.595,1.06-3.595,4.061v38.463c0,25.033-9.099,28.418-18.005,28.418
		c-7.846,0-18.276-2.855-18.276-27.471v-35.318c0-6.451-0.297-8.697-3.659-8.697c-3.129,0-14.12,0.674-16.944,1.091l-0.481,0.081
		l0.049,0.48c0.28,2.889,0.416,8.617,0.416,17.555v25.643c0,29.221,12.356,44.047,36.707,44.047c17.306,0,37.941-8.07,37.941-46.518
		v-19.513c0-11.826,0.16-17.138,0.418-22.337l0.023-0.529h-0.537C383.006,866.722,375.77,866.866,371.614,867.267"/>
	<path d="M448.347,879.334c7.983,0,14.121,2.118,17.073,3.37l0.137,0.048c2.126,0.272,4.1-0.386,5.696-1.909
		c2.062-1.958,3.233-5.231,2.969-8.328l-0.017-0.177l-0.104-0.128c-2.118-2.359-12.147-6.996-25.755-6.996
		c-30.216,0-49.735,17.121-49.735,43.613c0,28.418,19.359,46.791,49.318,46.791c8.648,0,15.645-4.477,19.384-6.883l0.497-0.305
		l0.081-0.064c2.728-2.568,4.541-6.949,5.103-12.324l0.032-0.354l-1.043-0.513l-1.075,0.305c-3.522,0.995-10.086,2.856-18.727,2.856
		c-19.256,0-31.707-12.051-31.707-30.729C420.475,884.244,435.63,879.334,448.347,879.334"/>
	<path d="M609.172,919.13l-6.595-47.466l0,0c-0.546-3.643-1.429-4.942-3.386-4.942c-3.467,0-14.746,0.77-17.121,2.262l-0.241,0.145
		v1.959c-5.681,13.719-13.815,34.066-19.513,49.391l-17.49-46.728c-1.99-5.681-2.912-7.205-5.553-7.028
		c-7.035,0-12.227,1.139-16.021,1.957l-1.541,0.338l0.321,2.566c-3.859,23.252-7.51,46.712-10.182,63.85
		c-0.907,5.857-1.692,10.863-2.286,14.666l-0.064,0.354l0.32,0.176c2.295,1.284,9.949,3.756,14.361,3.756
		c1.942,0,2.705-2.969,3.113-5.232c1.895-15.404,4.862-43.341,6.355-59.563c2.383,7.622,5.647,17.907,8.801,27.889
		c4.557,14.361,8.842,27.921,10.463,33.265l0.111,0.353h0.369c2.712,0,5.922-0.353,9.837-1.091c3.578-0.723,4.99-1.91,6.001-5.119
		c6.82-20.428,14.186-42.732,18.053-55.488l2.631,28.354c1.284,14.458,2.103,22.385,2.744,28.756l0.129,1.268
		c0.289,3.129,2.326,6.611,4.621,6.611c2.744,0,11.168-2.375,14.779-3.387l1.572-0.449l-0.08-0.449
		C612.462,942.798,610.906,932.095,609.172,919.13"/>
	<path d="M643.641,888.946c-3.354,0-13.271,0.834-16.865,1.797l-0.418,0.112l0.049,0.433c0.225,2.215,0.545,6.211,0.545,15.229
		v23.332c0,7.316-0.24,16.768-0.369,22.4l-0.063,2.135h0.529c7.188,0,12.195-0.178,14.858-0.547c3.771-0.433,5.119-3.658,5.119-6.53
		V898.06C647.026,890.31,646.529,888.946,643.641,888.946"/>
	<path d="M721.354,929.977v-16.095c0-16.849-7.334-25.754-21.214-25.754c-6.691,0-12.998,4.075-18.341,8.215
		c-1.412-5.455-4.558-8.215-9.355-8.215c-5.359,0-10.623,4.428-12.003,8.393l-0.032,1.539l0.24,0.145
		c1.862,1.156,2.359,2.535,2.359,6.403v22.24c0,7.204-0.112,18.341-0.4,27.022l-0.017,0.514h0.529c3.61,0,6.836-0.963,9.933-1.895
		c2.103-0.625,4.076-1.219,6.178-1.54c3.354-0.433,3.867-1.268,3.867-3.915v-40.533c2.744-1.941,5.104-3.306,9.5-3.306
		c5.103,0,8.682,4.284,8.682,10.414v34.933c0,2.424,1.139,5.842,3.658,5.842c4.412,0,8.553-1.316,11.857-2.375
		c1.83-0.578,3.402-1.092,4.51-1.188l0.481-0.033l-0.017-0.496C721.514,945.445,721.354,937.47,721.354,929.977"/>
	<path d="M789.839,938.097c-0.481,0.111-1.444,0.111-2.069,0.111c-3.018,0-4.43-1.572-4.43-2.631c0-5.119,0.177-10.189,0.321-14.667
		c0.128-3.546,0.225-6.61,0.225-9.082c0-16.367-11.891-23.7-23.669-23.7c-9.467,0-19.672,4.637-26.075,8.953l-0.208,0.145
		l-0.017,0.273c-0.048,1.717,0.128,5.937,2.856,8.104c1.557,1.234,3.627,1.523,6.227,0.834l0.353-0.16
		c2.68-1.203,7.157-3.209,11.505-3.209c5.938,0,9.772,3.434,9.772,8.761v1.22c-1.589,0.289-4.3,0.786-6.579,1.155
		c-9.242,1.974-26.461,5.664-26.461,20.282c0,10.848,8.682,20.717,18.197,20.717c5.68,0,10.928-4.622,15.373-9.324
		c1.957,3.756,5.889,9.324,12.051,9.324c9.9,0,13.398-8.666,13.398-16.079l-0.273-1.155L789.839,938.097z M764.358,932.175
		c0,2.199-0.321,3.53-1.043,4.381c-1.766,1.477-3.064,1.926-5.568,1.926c-3.578,0-7.173-2.038-7.173-6.596v-0.128
		c0-1.604,1.011-6.868,13.784-8.312V932.175z"/>
	<path d="M831.352,915.615h-0.017c-0.931-0.466-2.198-1.06-3.562-1.718c-2.681-1.268-5.713-2.695-7.238-3.594
		c-2.727-1.637-4.412-2.744-4.412-4.878c0-2.23,2.215-3.724,5.52-3.724c2.921,0,6.098,0.707,8.986,2.006l0.16,0.033
		c1.846,0.145,3.434-0.418,4.702-1.67c2.278-2.262,2.888-6.098,2.712-8.697l-0.016-0.24l-0.193-0.129
		c-4.621-3.32-9.74-4.877-16.078-4.877h-0.129c-11.473,0-23.828,6.402-23.828,20.443c0,6.61,3.546,12.5,9.74,16.126
		c1.845,0.963,3.643,1.878,5.407,2.776c1.797,0.898,3.562,1.797,5.279,2.68c3.658,1.974,4.396,3.369,4.396,5.006
		c0,2.504-2.311,4.012-6.21,4.012c-6.787,0-13.479-3.818-15.356-4.975l-0.337-0.208l-0.273,0.257
		c-1.989,1.861-4.011,5.616-4.011,9.242c0,2.793,1.989,4.413,3.964,5.633l1.154,0.674c3.852,2.295,9.131,5.408,13.624,5.408
		c12.853,0,26.155-8.826,26.155-23.589C841.492,924.634,838.171,919.401,831.352,915.615"/>
	<path d="M262.85,866.914c-10.301,0-20.121,1.091-23.893,1.798l-0.449,0.08l0.031,0.465c0.555,6.307,0.555,11.971,0.555,18.533
		v62.373c0,2.631,1.34,5.455,3.826,5.455c3.771,0,14.387-0.4,17.018-1.123l0.393-0.111l-0.016-0.402
		c-0.28-5.504-0.417-11.777-0.417-18.693v-9.772c3.923,0.337,8.393-0.562,11.409-1.171c12.252-2.455,20.813-8.104,25.449-16.785
		c2.311-4.316,3.531-9.194,3.531-14.121C300.287,870.124,282.299,866.914,262.85,866.914 M264.776,909.453
		c-0.497,0-2.711-0.097-4.878-0.177v-29.044c1.396-0.192,3.032-0.192,4.06-0.192c7.334,0,14.844,1.557,14.844,13.126
		C278.801,907.335,270.015,909.453,264.776,909.453"/>
	<path d="M753.494,830.553c13.318,0,24.823-6.724,37.035-13.849c13.574-7.942,27.6-16.143,45.748-16.143
		c2.006,0,3.818-1.188,4.637-3.016c0.818-1.83,0.466-3.964-0.865-5.456l-20.652-22.818l14.618-31.819
		c0.755-1.653,0.562-3.596-0.497-5.088c-1.075-1.476-2.856-2.262-4.814-2.053c-4.605,0.48-25.418,3.498-39.121,13.045
		c-0.064-18.469-1.155-27.118-1.172-27.246c-0.016-0.097-0.031-0.209-0.031-0.306c0-5.423-10.768-6.482-10.88-6.482
		c-18.052-1.46-36.954,0.835-57.783,7.044c-18.694,5.568-37.147,13.672-55.007,21.502c-8.328,3.659-16.945,7.446-25.546,10.944
		c-31.612,12.869-63.063,19.128-96.158,19.128c-33.071,0-64.515-6.259-96.118-19.128c-8.521-3.466-17.138-7.253-25.482-10.911
		l-0.128-0.049c-17.835-7.83-36.289-15.934-54.959-21.486c-20.868-6.209-39.763-8.521-57.783-7.044
		c-0.104,0.017-10.88,1.06-10.88,6.482c0,0.097-0.016,0.209-0.016,0.321c-0.023,0.112-1.308,9.868-1.188,31.499
		c-15.1-11.136-44.93-14.489-46.205-14.634c-1.437-0.145-2.841,0.48-3.684,1.637c-0.842,1.171-0.994,2.711-0.385,4.012
		l15.564,33.889l-22.063,24.391c-1.06,1.172-1.332,2.857-0.69,4.301c0.642,1.444,2.077,2.375,3.658,2.375
		c19.239,0,34.003,8.633,48.269,16.961c12.547,7.334,24.39,14.25,37.9,14.25c17.716,0,26.205-8.425,26.75-16.785
		c0.049-0.642,0.023-1.268-0.023-1.894c0.072-0.946,0.144-2.103,0.184-2.84c0.361-7.013,1.035-17.25,1.268-24.968
		c0.258-2.68,0.434-5.199,0.449-7.43c13.158,4.075,25.771,9.002,37.533,13.783c45.154,18.357,93.775,36.281,148.028,36.281
		c24.094,0,48.853-3.53,75.667-10.799c25.738-6.98,51.027-16.801,72.385-25.482c11.441-4.653,23.701-9.436,36.426-13.431
		c-0.064,1.733-0.176,3.899-0.32,6.339c-0.289,5.343-0.643,11.842-0.514,17.089c-0.129,3.321-0.129,7.942-0.08,8.601
		c0.32,4.782,3.112,9.291,7.686,12.372C739.02,828.853,745.68,830.553,753.494,830.553 M788.33,780.087
		c0,0,4.975,8.313-19.85,15.229c-3.305,0.818-7.107,1.7-11.521,2.728c-0.145,0.032-0.289,0.063-0.434,0.08
		c-0.995,0.208-2.021,0.417-3.097,0.61c-6.258,1.171-22.722,5.439-22.722,5.439c0.08-10.174,0.771-15.18,1.043-24.23
		c0.674-0.209,1.364-0.417,2.054-0.626c4.686-1.348,9.211-2.503,13.64-3.417c18.919-3.948,31.756-4.975,38.11,0.609
		C786.678,777.487,787.625,778.659,788.33,780.087 M343.531,826.429c-5.135,2.535-11.2,2.921-16.832,2.632
		c-27.039-1.396-44.722-30.938-82.287-30.938l22-25.289l-15.324-35.96c0,0,18.293,4.012,24.423,6.082
		c7.734,2.6,17.835,6.258,20.973,8.953c0.032,2.632,0.097,5.456,0.177,8.408c0.016,1.06,0.031,2.135,0.057,3.226
		c0.039,3.081,0.056,6.45,0.191,9.66c-1.243,1.06-2.623,2.583-3.394,4.766c-1.669,4.749-0.288,9.901,2.712,13.815
		c3.972,5.151,11.152,7.446,17.074,9.5c7.381,2.567,14.979,4.51,22.689,5.793c5.6,0.947,13.623,2.535,14.369,9.436
		C350.849,821.038,347.287,824.567,343.531,826.429 M352.244,808.634c-1.508-1.605-3.449-2.856-5.729-3.627
		c-0.794-0.354-1.684-0.625-2.655-0.803c-11.112-2.117-23.259-5.166-32.245-8.664c-5.616-2.183-9.997-4.541-12.131-6.965
		c-2.295-2.6-2.471-5.327-2.471-5.327c-0.041-0.514-0.017-0.995,0.031-1.429c0.16-1.219,0.578-2.134,0.754-2.519
		c1.773-3.787,6.211-5.424,8.385-6.13c2.126-0.401,4.404-0.609,6.715-0.609c0.643,0,1.268,0.016,1.854,0.048
		c11.803,0.657,24.063,2.856,37.477,6.707c0.674,0.192,1.332,0.417,1.99,0.61C354.139,784.516,353.785,791.03,352.244,808.634
		 M689.774,791.544c-21.262,8.633-46.438,18.405-71.984,25.338c-26.541,7.188-50.996,10.687-74.784,10.687
		c-53.644,0-101.903-17.796-146.745-36.024c-13.391-5.455-27.881-11.104-43.084-15.484c-4.269-1.22-8.416-2.279-12.477-3.178
		c-7.453-1.652-14.594-2.775-21.559-3.369c-3.787-0.449-7.316-0.627-10.454-0.434c-3.201,0.176-6.009,0.754-8.256,1.813
		c-1.589-37.436,0.546-54.156,0.569-54.316c0.033-0.257,0.057-0.514,0.057-0.771c0-1.235,4.445-2.824,7.767-3.097
		c17.635-1.428,36.128,0.834,56.523,6.916c18.478,5.504,36.851,13.559,54.614,21.357l0.112,0.049
		c8.336,3.658,16.961,7.445,25.53,10.928c32.027,13.045,63.889,19.384,97.426,19.384c33.521,0,65.389-6.339,97.418-19.384
		c8.568-3.482,17.186-7.27,25.497-10.928l0.128-0.049c17.764-7.799,36.121-15.854,54.606-21.357
		c20.427-6.082,38.913-8.344,56.548-6.916c3.241,0.272,7.767,1.877,7.767,3.097c0,0.241,0.016,0.497,0.048,0.755
		c0.016,0.128,1.268,9.836,1.155,31.113c-0.048,6.691-0.208,14.506-0.594,23.541c-0.481-0.178-0.931-0.338-1.364-0.514
		c-1.557-0.594-2.969-1.14-4.541-1.381c-2.728-0.658-6.258-0.689-9.756-0.689c-8.377,0.514-18.373,2.615-29.814,5.488
		c-2.391,0.609-4.798,1.234-7.253,1.941C717.695,780.44,703.188,786.089,689.774,791.544 M730.805,814.233
		c-0.563-3.16,0.722-5.921,3.674-7.188c1.766-0.771,6.307-2.086,8.119-2.423c6.483-1.22,38.896-7.654,46.263-14.378
		c4.349-3.964,6.29-10.928,1.268-15.341c-0.386-0.336-0.818-0.657-1.011-1.139c-0.129-0.354-0.129-0.738-0.113-1.107
		c0.225-8.328,0.53-16.672,0.578-25c13.287-8.891,33.617-13.254,38.158-13.736c0.915-0.08,1.846,0.321,2.407,1.076
		c0.546,0.77,0.642,1.765,0.257,2.615l-16.319,32.317l21.503,22.24c0.689,0.754,0.865,1.861,0.449,2.808
		c-0.418,0.947-1.364,1.557-2.392,1.557c-18.806,0-30.103,7.317-43.967,15.404c-11.891,6.949-23.123,13.527-35.768,13.527
		c-7.333,0-13.511-1.557-17.86-4.492C733.629,819.337,731.334,817.218,730.805,814.233"/>
	<path d="M353.738,759.019c-0.497-0.145-0.738-0.209-1.235-0.354c-0.225,4.75-1.356,5.633-3.916,4.942
		c-2.006-0.546-3.017-0.803-5.055-1.332c-2.303-0.577-2.936-0.835-2.977-4.269c-0.057-5.472-0.008-8.264,0.041-13.816
		c2.254,0.547,3.361,0.818,5.551,1.396c2.713,0.706,3.659,2.984,3.643,6.338c0.506,0.129,0.755,0.193,1.252,0.338
		c0.016-5.199,0.049-7.814,0.064-13.014c-0.498-0.145-0.746-0.209-1.235-0.354c-0.272,1.975-0.578,4.59-3.698,3.771
		c-2.191-0.578-3.299-0.867-5.545-1.396c0.032-4.959,0.064-7.445,0.016-12.324c-0.031-2.936,0.563-3.049,2.841-2.471
		c1.429,0.369,2.134,0.546,3.53,0.915c2.961,0.802,4.83,2.632,4.861,7.573c0.498,0.145,0.738,0.209,1.221,0.354
		c-0.072-3.675-0.129-5.504-0.289-9.146c-8.32-2.455-12.669-3.547-22.088-5.295c0.023,0.514,0.023,0.77,0.04,1.299
		c4.541,1.75,4.686,1.781,4.718,7.863c0.064,13.189-0.426,20.267,0.008,33.119c7.646,1.766,11.272,2.729,18.285,4.767
		C353.705,764.361,353.705,762.58,353.738,759.019"/>
	<path d="M379.034,735.799c-1.14-0.514-1.709-0.771-2.856-1.284c-2.383,5.488-3.69,8.104-6.362,13.447
		c-2.374-7.397-3.546-11.137-6.146-18.646c-3.081-1.188-4.638-1.765-7.847-2.871c0,0.545,0,0.818,0,1.348
		c3.418,1.941,3.858,3,5.271,7.141c2.127,6.354,3.121,9.516,5.144,15.821c-3.69,7.077-5.665,10.735-9.259,18.021
		c1.188,0.417,1.781,0.609,2.969,1.027c2.936-6.194,4.518-9.275,7.566-15.293c2.551,8.168,3.818,12.18,6.603,20.556
		c2.038,0.771,3.032,1.171,5.038,1.974c-3.482-10.414-5.021-15.293-8.199-25.418C374.358,745.298,376.026,742.281,379.034,735.799"
		/>
	<path d="M404.797,750.417c3.482,1.701,4.356,6.227,4.573,8.232c1.845,0.898,2.784,1.348,4.669,2.23
		c-0.497-4.847-2.984-10.303-8.938-13.238c-8.513-4.189-10.446,4.444-10.559,15.163c-0.137,12.981,3.018,22.481,11.04,25.819
		c3.884,1.62,7.061,1.235,8.04,1.026c-0.033-1.589-0.041-2.358-0.064-3.884c-1.012,0.707-3.402,1.846-6.805,0.434
		c-7.573-3.16-8.022-16.479-7.982-22.914C398.812,757.365,399.574,747.85,404.797,750.417"/>
	<path d="M427.848,755.167c-8.979-3.98-11,3.258-10.92,15.067c0.097,11.729,2.776,21.021,11.554,24.358
		c8.633,3.306,11.36-4.012,11.216-15.02C439.553,768.405,436.457,758.985,427.848,755.167 M428.417,791.673
		c-6.322-2.424-7.013-12.806-7.085-19.529c-0.072-7.333,0.169-16.896,6.58-14.057c6.281,2.793,6.939,12.773,7.027,19.657
		C435.029,784.468,434.852,794.128,428.417,791.673"/>
	<path d="M466.271,780.296c-0.032-9.404-10.005-13.335-13.575-14.57c-4.686-1.637-6.948-2.487-11.328-4.205
		c0.016,0.563,0.016,0.818,0.031,1.365c4.148,2.551,4.301,2.808,4.365,8.279c0.16,11.891,0.16,15.581,0.369,29.092
		c1.973,0.658,2.969,0.995,4.99,1.637c-0.088-7.83-0.112-10.814-0.177-17.137c1.155,0.385,1.733,0.577,2.904,0.963
		c3.386,7.381,5.119,10.783,8.569,19.624c2.238,0.658,3.225,0.931,5.391,1.509c-3.481-9.243-5.183-12.693-8.793-20.379
		C462.869,787.019,466.295,786.28,466.271,780.296 M453.594,783.28c-1.074-0.354-1.604-0.546-2.664-0.898
		c-0.039-3.611-0.056-5.393-0.096-9.307c-0.032-3.964-0.08-5.151,3.129-4.045c4.02,1.381,7.141,4.365,7.156,10.046
		C461.128,784.948,456.667,784.291,453.594,783.28"/>
	<path d="M482.43,774.165c-5.312-1.074-7.919-1.684-13.014-3.08c0,0.545,0,0.834,0,1.363c4.236,2.086,4.412,2.344,4.445,7.734
		c0.08,11.666,0.119,14.828,0.191,28.419c2.809,0.69,4.221,1.011,7.061,1.62c9.291,1.958,17.395,0.354,17.379-15.228
		C498.492,781.034,491.544,776.027,482.43,774.165 M482.526,807.622c-3.289-0.689-3.289-2.326-3.305-4.492
		c-0.072-10.206-0.113-13.352-0.186-23.669c-0.023-2.647,1.115-2.856,3.892-2.294c9.019,1.813,10.157,8.408,10.198,17.137
		C493.164,804.253,491.207,809.403,482.526,807.622"/>
	<path d="M500.016,778.69c4.542,1.605,4.702,1.878,4.542,7.27c-0.353,11.714-0.417,14.73-0.835,28.482
		c7.742,1.091,11.65,1.477,19.496,1.99c0.241-3.739,0.338-5.408,0.555-8.553c-0.555-0.033-0.826-0.049-1.389-0.097
		c-0.497,4.22-1.885,5.521-4.686,5.279c-2.182-0.177-3.273-0.289-5.447-0.514c-2.447-0.257-3.073-0.562-2.961-3.723
		c0.177-5.022,0.24-7.141,0.385-11.538c2.399,0.258,3.604,0.386,6.018,0.61c2.984,0.257,4.02,1.878,3.899,4.605
		c0.554,0.048,0.835,0.063,1.396,0.112c0.192-4.252,0.272-6.193,0.481-10.494c-0.57-0.032-0.851-0.049-1.412-0.097
		c-0.385,1.669-0.834,3.851-4.277,3.546c-2.414-0.225-3.617-0.336-6.025-0.609c0.137-3.947,0.201-5.873,0.354-10.398
		c0.097-2.728,0.754-2.969,3.273-2.728c1.572,0.161,2.367,0.225,3.947,0.353c3.338,0.258,5.416,1.814,5.215,6.162
		c0.57,0.032,0.852,0.049,1.421,0.08c0.097-3.209,0.144-4.91,0.249-8.729c-9.773-0.529-14.65-0.995-24.166-2.391
		C500.032,777.872,500.032,778.146,500.016,778.69"/>
	<path d="M542.908,783.056c4.678,0.77,4.807,1.043,4.565,6.531c-0.529,11.89-0.738,14.762-1.315,28.867
		c7.927-0.338,11.906-0.643,19.85-1.557c0.256-3.852,0.385-5.553,0.609-8.762c-0.562,0.064-0.834,0.097-1.396,0.16
		c-0.529,4.35-1.941,5.922-4.781,6.194c-2.215,0.209-3.322,0.289-5.536,0.466c-2.487,0.176-3.13-0.016-2.985-3.242
		c0.258-5.118,0.369-7.236,0.594-11.682c2.439-0.176,3.643-0.256,6.082-0.48c3.017-0.273,4.027,1.171,3.867,3.931
		c0.562-0.048,0.834-0.08,1.396-0.144c0.256-4.301,0.369-6.242,0.609-10.592c-0.562,0.049-0.851,0.08-1.412,0.145
		c-0.385,1.75-0.866,3.996-4.332,4.316c-2.439,0.225-3.643,0.305-6.082,0.482c0.192-3.98,0.305-5.938,0.514-10.543
		c0.145-2.776,0.818-3.145,3.354-3.354c1.572-0.129,2.359-0.193,3.947-0.354c3.322-0.32,5.359,0.898,5.119,5.312
		c0.578-0.063,0.85-0.097,1.412-0.161c0.112-3.257,0.176-4.974,0.32-8.889c-9.627,1.171-14.537,1.557-24.334,1.926
		C542.941,782.205,542.941,782.493,542.908,783.056"/>
	<path d="M586.162,779.06c4.412-0.85,5.215,3.081,5.375,4.879c2.311-0.498,3.45-0.755,5.744-1.284
		c-0.369-4.364-3-8.248-10.542-6.771c-10.8,2.118-14.153,12.114-14.683,21.358c-0.658,11.184,2.856,19.432,13.063,17.57
		c4.926-0.898,9.018-3.595,10.285-4.525c0.064-1.652,0.096-2.439,0.145-3.963c-1.316,1.412-4.429,4.284-8.746,5.103
		c-9.596,1.813-9.531-10.623-9.227-16.255C577.882,790.003,579.502,780.344,586.162,779.06"/>
	<path d="M613.008,772.353c4.059-1.268,4.941,2.584,5.166,4.365c2.07-0.723,3.098-1.076,5.184-1.814
		c-0.529-4.316-3.033-7.99-9.917-5.792c-9.853,3.129-12.917,13.511-13.222,22.753c-0.354,11.217,3.321,19.145,13.446,16.224
		c4.895-1.412,8.168-4.316,9.259-5.327c0-1.686,0-2.487-0.016-4.027c-1.123,1.523-3.45,4.524-7.703,5.792
		c-9.467,2.808-9.82-9.644-9.707-15.26C605.61,784.099,606.91,774.263,613.008,772.353"/>
	<path d="M645.358,787.26c0.08,5.376-2.375,6.899-5.151,7.959c-1.524,0.577-2.278,0.866-3.787,1.429
		c-2.952,1.09-2.937,0.865-2.984-3.515c-0.128-13.11-0.401-15.678-0.497-30.825c-3.611,1.957-5.424,2.92-9.035,4.798
		c0,0.577,0,0.866,0,1.428c4.188-0.642,4.316-0.417,4.381,4.301c0.16,12.163,0.385,14.858,0.369,29.733
		c7.109-2.455,10.688-3.818,17.893-6.627c0.047-4.06,0.047-5.841,0.047-9.178C646.096,786.954,645.855,787.067,645.358,787.26"/>
	<path d="M668.672,777.776c-0.111,4.589-1.332,6.595-3.883,7.638c-1.974,0.818-2.969,1.22-4.959,2.038
		c-2.23,0.898-2.791,0.883-2.855-2.487c-0.096-5.376-0.193-7.573-0.385-12.067c2.134-0.865,3.193-1.299,5.327-2.182
		c2.647-1.092,3.706,0.064,3.835,2.889c0.498-0.209,0.754-0.305,1.252-0.514c-0.209-4.396-0.338-6.322-0.578-10.559
		c-0.481,0.209-0.738,0.305-1.219,0.514c-0.178,1.765-0.369,4.076-3.402,5.327c-2.135,0.866-3.193,1.3-5.312,2.166
		c-0.192-3.979-0.289-5.889-0.449-10.35c-0.097-2.696,0.466-3.226,2.632-4.076c1.348-0.529,2.021-0.802,3.385-1.331
		c2.857-1.14,4.719-0.498,4.943,3.689c0.497-0.191,0.738-0.288,1.235-0.48c-0.225-3.081-0.337-4.686-0.53-8.28
		c-8.295,3.21-12.436,4.847-20.684,8.023c0,0.562,0.017,0.851,0.017,1.396c3.995-0.594,4.124-0.385,4.3,5.007
		c0.401,11.698,0.771,14.603,0.803,29.59c7.108-2.841,10.671-4.317,17.844-7.253c0.016-4.076,0-5.857-0.064-9.211
		C669.427,777.472,669.17,777.567,668.672,777.776"/>
	<path d="M677.563,753.45c-0.241-3.435,1.54-6.002,3.867-6.885c3.401-1.299,6.756-0.77,7.99-0.529
		c-0.111-1.557-0.176-2.358-0.289-4.06c-1.139,0.128-4.027,0.417-7.027,1.54c-6.146,2.311-9.628,7.703-9.275,13.352
		c0.674,10.831,15.164,3.209,15.613,12.387c0.257,5.151-2.535,8.248-5.375,9.404c-3.595,1.46-7.237,0.208-8.666-0.305
		c0.064,1.973,0.08,3,0.113,5.215c0.946-0.049,4.412,0.016,7.895-1.396c6.21-2.52,11.328-8.906,10.863-16.704
		C692.582,753.819,678.076,761.44,677.563,753.45"/>
	<path d="M692.358,741.095c0.031,0.496,0.047,0.737,0.08,1.219c4.301-0.834,4.428-0.689,4.813,3.498
		c0.995,10.783,1.733,13.832,2.006,28.947c1.989-0.754,2.985-1.123,4.958-1.861c-0.353-19.111-1.637-20.924-2.744-36.361
		C697.813,738.317,696,739.232,692.358,741.095"/>
	<path d="M722.444,731.065c-3.337,0.994-7.012,1.508-10.334,2.566c0.033,0.482,0.049,0.707,0.098,1.172
		c1.797-0.257,3.449-0.674,3.642,1.332c0.048,0.354-0.272,2.23-0.449,3.129c-2.374,11.666-3.337,15.453-6.61,31.98
		c1.106-0.4,1.668-0.594,2.791-0.979c1.236-6.291,1.766-8.906,2.776-13.784c4.573-1.556,6.868-2.311,11.457-3.69
		c1.718,4.012,2.536,6.21,3.995,11.697c1.878-0.529,2.809-0.785,4.67-1.268C727.916,746.036,726.841,742.892,722.444,731.065
		 M714.903,753.786c1.396-6.563,2.936-10.83,4.204-17.041c2.535,5.231,3.964,8.521,5.729,13.832
		C720.856,751.797,718.882,752.438,714.903,753.786"/>
	<path d="M736.485,733.536c1.236,10.029,2.166,13.334,2.407,28.578c7.141-1.7,10.703-2.406,17.796-3.354
		c0.031-4.22,0-6.081-0.129-9.531c-0.498,0.08-0.738,0.129-1.235,0.193c-0.032,4.652-1.252,6.402-3.804,6.835
		c-1.989,0.337-2.969,0.53-4.958,0.931c-2.246,0.449-2.792,0.305-2.952-3.113c-0.257-5.471-0.498-7.701-0.979-12.002
		c2.182-0.514,3.273-0.754,5.455-1.203c2.712-0.547,3.883,0.785,4.124,3.626c0.497-0.097,0.755-0.145,1.252-0.225
		c-0.369-4.429-0.61-6.339-1.091-10.222c-0.514,0.096-0.771,0.145-1.268,0.24c-0.081,1.572-0.161,3.691-3.273,4.333
		c-2.184,0.449-3.273,0.69-5.457,1.203c-0.449-3.739-0.705-5.472-1.139-9.227c-0.289-2.278,0.289-2.647,2.551-3.146
		c1.412-0.305,2.119-0.449,3.531-0.738c2.984-0.609,5.006,0.113,5.455,3.82c0.498-0.097,0.754-0.145,1.268-0.225
		c-0.385-2.744-0.577-4.108-0.914-7.045c-8.746,1.524-13.063,2.503-21.646,4.733c0.048,0.449,0.064,0.675,0.111,1.124
		C735.795,728.802,735.906,728.915,736.485,733.536"/>
	<path d="M562.204,594.205c-0.882-1.845-5.103-9.981-6.339-11.698c-0.545-0.77-1.026-1.588-1.62-2.326
		c-2.086-2.615-1.749-5.359-1.476-6.113c0.865-2.504,2.277-6.708,4.781-16.656c1.203-4.83,1.348-7.382,1.461-8.248
		c0.433-3.675,0.689-6.002,0.336-9.115c-0.24-1.909-0.689-5.535-2.969-9.531c-2.375-4.156-5.375-6.402-6.001-6.867
		c-0.835-0.594-2.311-1.653-4.524-2.455c-0.594-0.225-3.65-1.284-7.759-0.932c-5.296,0.449-8.905,2.969-10.254,3.916
		c-0.835,0.609-4.028,2.984-6.467,7.333c-2.366,4.22-2.743,8.007-2.968,10.526c-0.273,3-0.627,6.965,1.283,11.393
		c1.443,3.387,3.666,5.762,4.445,6.596c1.123,1.172,2.166,2.054,2.968,2.664c0.514-0.852,1.324-2.055,2.552-3.273
		c2.68-2.648,4.06-3.098,6.49-3.193c0.955-0.049,2.391,0.353,3.314,0.785c0.16,0.064,0.288,0.241,0.433,0.354
		c0.771-1.572,0.979-4.91,0.979-6.531c0-2.326-0.097-3.738-0.658-4.99c-0.266-0.594-0.643-1.155-0.643-1.171
		c-0.433-0.675-0.922-1.412-1.732-1.974c-0.369-0.241-0.626-0.338-0.914-0.434c-0.458-0.16-1.084-0.385-1.605-1.123
		c-0.778-1.123-0.617-2.343-0.562-2.809c0.249-1.941,1.653-3.08,2.183-3.466c0.023-0.017,0.048-0.017,0.064-0.032
		c0.657-0.369,2.406-1.172,4.533-0.609c1.82,0.481,2.808,1.668,3.192,2.118c1.284,1.524,1.573,3.161,1.733,4.589
		c0.225,1.781,0.578,6.547-0.771,12.389l-0.08,0.369c-0.257,1.106-0.546,2.471-1.396,3.931c-0.369,0.626-0.658,1.06-0.891,1.396
		c-0.161,0.241-0.338,0.402-0.361,0.563c-0.554,3.514-0.514,25.77-0.281,29.365c0.08,1.283,0.201,15.115,0.338,18.18
		c0.023,0.626,0.08,2.664-1.084,3.467c-0.77,0.545-1.781,0.433-2.07,0.4c-1.355-0.145-2.27-0.963-2.631-1.299
		c-5.07-4.686-7.406-11.987-7.406-11.987c-1.332-4.172-2.84-10.126-3.514-17.571c-5.215,6.58-9.516,14.73-12.1,24.407
		c-2.214,8.296-1.043,16.287,0.666,23.572c0.009,0.016,0.514,2.294,1.004,4.38c1.396-0.369,2.936-0.449,4.364-0.225
		c0.063-0.096,0.112-0.176,0.192-0.272c0.016-0.016,0.049-0.032,0.072-0.063c0.666-0.61,1.66-1.653,2.729-2.744l0.023-0.032
		c2.006-2.07,4.285-4.413,5.824-5.616c0.538-0.401,1.332-0.385,1.846,0.031c0.529,0.418,0.69,1.172,0.369,1.781
		c-0.096,0.178-0.48,0.674-0.979,1.316c-0.289,0.337-0.578,0.723-0.851,1.075c0.08-0.081,0.161-0.145,0.241-0.225
		c0.705-0.658,1.436-1.315,1.66-1.477c0.457-0.288,1.067-0.241,1.469,0.112l0.072,0.064c0.377,0.385,0.441,0.979,0.152,1.443
		c-4.598,7.318-6.436,9.773-7.334,10.607c0.017,0.209,0.017,0.385,0.017,0.514c0,1.652-0.466,2.936-0.771,3.787
		c-0.434,1.235-0.946,2.102-1.477,3.032c-0.328,0.562-0.705,1.107-1.059,1.653c-0.979,1.46-1.894,2.84-2.135,4.572
		c-0.208,1.477,0.193,2.873,0.61,4.35c0.177,0.625,0.353,1.283,0.489,1.926c0.232,1.154,0.426,2.92,0.457,4.941
		c0.755,0.321,1.557,0.658,2.424,0.963c0.642,0.225,1.268,0.434,1.869,0.609c1.195-2.358,2.664-4.477,4.26-6.064
		c2.432-2.408,2.488-4.205,2.055-7.703c-0.097-0.786-0.273-1.523-0.441-2.246c-0.409-1.766-0.843-3.595-0.088-5.793
		c0.433-1.268,1.179-2.406,2.021-3.514c0.955-1.268,2.535-2.504,3.033-2.889c0.056-0.867,0.465-3.707,0.898-6.098
		c0.963-5.408,1.404-6.146,2.672-6.242h0.104c1.26,0,1.637,0.498,3.105,6.242c0.465,1.829,1.155,4.686,1.315,5.696
		c0.434,0.786,0.866,1.589,1.315,2.392c0.273,0.513,0.563,1.01,0.835,1.523c0.802,1.477,1.011,2.713,1.075,3.515
		c0.064,1.14,0.016,2.375-0.706,4.621c-0.289,0.899-0.562,1.749-0.642,2.647c-0.209,2.055,0.529,4.478,2.037,6.788
		c0.354,0.546,0.754,1.091,1.301,1.733c1.781,2.102,3.465,4.252,4.766,6.723c0.449-0.08,0.963-0.208,1.188-0.256
		c0.4-0.08,1.107-0.289,1.765-0.514l0.048-0.017c-0.016-2.968,0.434-5.745,0.754-7.301c0.129-0.658,0.306-1.3,0.498-1.926
		c0.417-1.476,0.803-2.872,0.609-4.349c-0.24-1.749-1.171-3.129-2.15-4.59c-0.353-0.529-0.722-1.09-1.059-1.652
		c-0.529-0.914-1.123-1.765-1.477-3.017c-0.609-2.198-0.4-4.06,0.017-5.487c-0.786-0.963-2.278-3.45-5.601-9.885
		c-0.176-0.321-0.096-0.723,0.209-0.963c0.145-0.129,0.32-0.177,0.497-0.177s0.353,0.048,0.497,0.161
		c0.643,0.497,1.701,1.557,2.841,2.791c-0.963-1.717-1.813-3.305-2.086-3.947c-0.192-0.449-0.032-0.979,0.368-1.268
		c0.193-0.112,0.402-0.176,0.61-0.176c0.272,0,0.53,0.096,0.738,0.272c1.429,1.315,3.481,3.819,5.312,6.033
		c0.689,0.835,1.348,1.637,1.893,2.278c1.06-0.145,2.215-0.096,3.338,0.16c0-0.031,0.017-0.063,0.017-0.111
		c0-0.193,0.337-1.301,0.786-2.6C565.238,627.806,570.66,611.952,562.204,594.205 M531.756,555.421
		c-0.313,0.994-1.235,1.685-2.246,1.685c-0.457,0-0.898-0.128-1.292-0.385c-2.96-1.958-4.886-5.071-5.143-8.312
		c-0.145-1.734,0.305-3.371,1.331-4.879c0.145-0.209,0.306-0.417,0.45-0.625c0.433-0.578,0.834-1.124,0.834-1.557
		c0.017-1.268,1.035-2.264,2.327-2.264c0.65,0,1.275,0.258,1.717,0.707c0.441,0.433,0.682,1.026,0.674,1.652
		c-0.008,1.027-0.337,1.894-0.738,2.647c1.316,0.771,2.432,2.327,2.327,4.493c-0.048,1.139-0.794,3.53-1.06,4.349
		C531.708,553.511,532.03,554.49,531.756,555.421 M534.685,622.142c-0.649,0.674-1.501,1.027-2.446,1.027
		c-0.201,0-0.395-0.016-0.578-0.032c-1.268-0.192-2.086-0.931-2.729-1.845c-2.214-3.21,3.162-10.479,3.916-11.152
		c0.289-0.273,0.674-0.402,1.059-0.402c0.16,0,0.321,0.033,0.481,0.081c0.538,0.177,0.931,0.609,1.052,1.155
		C536.089,614.167,536.86,619.863,534.685,622.142 M544.016,622.848c-0.626,0.578-1.444,0.883-2.311,0.883
		c-0.145,0-0.289,0-0.434-0.017c-1.172-0.145-2.311-0.834-2.969-1.813c-1.637-2.407-0.738-4.814-0.016-6.74
		c0.32-0.882,0.626-1.7,0.706-2.471c0.072-0.609,0.577-1.092,1.204-1.139c1.026-0.08,1.637,0.722,1.941,1.123
		c0.064,0.096,0.111,0.16,0.16,0.209c0.706,0.754,2.592,3.514,2.864,4.91C545.516,619.478,545.291,621.692,544.016,622.848
		 M552.898,622.351c-0.145,0.031-0.272,0.064-0.401,0.08c-1.572,0.273-3.209-0.434-4.107-1.781
		c-1.123-1.717-1.509-3.643-1.846-5.344c-0.289-1.477-0.578-2.855-1.252-4.027c-0.353-0.609-0.225-1.396,0.289-1.846
		c0.529-0.48,1.332-0.529,1.894-0.128c1.315,0.915,7.862,5.681,7.799,9.981C555.256,620.745,554.31,621.933,552.898,622.351"/>
	<path d="M831.127,625.078c-3.932-5.103-12.067-6.868-17.491-3.37c-0.915-4.236-6.708-33.424-8.087-44.512
		c34.162-3.98-20.797-56.837-22.434-21.84c-10.029,0.064-35.943-1.363-42.138-1.637c6.708-15.02-11.44-23.299-22.448-13.495
		c-2.52-1.861-15.982-11.185-23.75-16.64c0-13.672-0.016-27.536-0.016-40.982c23.909,3,45.604,0.577,67.877-10.126
		c7.574,12.87,22.176,6.114,19.672-5.841c13.063-10.896,34.597-29.558,41.785-45.09c2.504-5.44-3.385-9.243-7.959-5.922
		c1.975-3.563,2.295-9.467-3.563-10.125c1.156-3.979-1.781-11.426-6.835-9.114c0.995-3.724-3.258-8.601-6.948-7.205
		c0.994-1.989-1.139-14.522-8.039-10.606c0.192-4.156-5.393-11.441-10.414-9.099c0.192-3.995-0.883-8.97-7.623-9.74
		c-3.947,0-5.455,5.97-7.204,12.87c-3.435,12.933-11.024,25.336-19.128,36.039c-7.926-4.012-21.277,7.237-14.858,14.555
		c-5.985,5.279-21.583,9.227-36.827,10.285c-0.016-25.385-0.048-38.783,0.049-47.16h-76.847
		c10.896-7.814,47.192-33.986,57.575-41.127c0.32,0.546,6.627,9.307,9.756,13.383c2.889-1.99,8.296-5.648,10.398-7.173
		c1.379,1.909,3.337,4.75,5.279,7.622c-2.055,1.444-8.28,5.825-10.238,7.205c2.969,4.092,16.191,22.4,19.144,26.509
		c3.418-2.407,9.21-6.483,12.612-8.89c-1.363-1.894-8.055-11.152-9.563-13.238l8.489-5.985c1.539,2.149,8.15,11.296,9.563,13.255
		c3.947-2.777,14.233-10.014,18.182-12.806c-2.953-4.108-10.768-15.228-15.213-20.925c-1.877,1.316-7.862,5.536-9.82,6.916
		l-6.867-9.531c3.594-2.567,6.723-4.75,9.965-6.868c-1.396-1.941-5.584-7.734-7.045-9.757c4.092-2.871,7.654-5.391,10.029-7.06
		c2.006,3.032,4.83,6.627,7.381,9.403c3.306-2.327,8.857-6.258,10.559-7.462c1.749,2.438,4.332,6.034,6.868,9.516
		c-2.103,1.476-8.858,6.242-10.831,7.622c2.904,4.043,12.227,16.945,15.131,20.988c3.996-2.824,15.1-10.639,19.096-13.463
		c-1.348-1.893-8.007-11.184-9.5-13.286l6.933-4.894c1.717,2.311,8.408,11.313,9.981,13.43l13.109-9.451
		c-3.033-4.22-16.191-22.449-19.256-26.685c-1.941,1.38-9.996,7.044-12.083,8.521l-5.472-7.574
		c2.135-1.508,10.094-7.125,12.083-8.521c-1.364-1.894-8.136-11.265-9.644-13.351c1.974-1.444,5.615-3.178,4.686-6.242
		c-0.546-2.471-8.746-12.949-11.201-13.72c-1.523-0.642-3.145,0.401-3.177,0.497L611.692,364.195
		c-1.027-5.825-3.466-20.539-5.055-30.504h31.146c2.278,0,4.123-1.829,4.123-4.076c0.547-3.595-1.973-6.13-5.632-5.584v-2.904
		c6.065-0.466,6.065-9.724,0-10.189v-24.952c-0.786,1.38-2.599,4.605-3.45,6.098c-0.32-3.658-1.123-8.056-2.054-11.377
		c6.354,1.315,7.493-9.5,1.204-9.66c-1.156,0.016-5.376-0.016-6.467,0v-2.343c6.771,0.097,6.771-10.397,0-10.302v-19.753
		c-2.135,3.578-3.691,6.804-5.953,11.008c-1.332-5.938-3.402-11.569-6.146-16.817c2.873-0.191,4.141-3,3.787-5.552
		c0.08-4.829-5.985-4.092-9.259-4.075c0,0-0.017,0-0.032,0c5.648-0.466,6.13-8.971,0.594-10.062
		c-0.031-0.433-0.048-17.507-0.048-17.507c-1.909,3.338-3.563,6.516-5.521,10.238c-5.712-11.506-28.835-33.441-50.434-37.229
		c-0.354-5.263-3.434-9.033-5.552-9.707v-0.594v-13.319h8.921v-10.991h-8.921v-9.66H533.49v9.66h-8.914v10.991h8.914v13.319v0.594
		c-2.046,0.818-4.894,3.963-5.504,9.418c-17.868,3.387-36.089,16.608-50.354,37.758c-1.908-3.578-3.289-6.371-5.135-9.451v16.367
		c-5.873,0.674-5.744,9.676,0.145,10.174c-0.048,0-4.3,0-4.461,0c-1.332,0-4.83,0.834-4.934,4.075
		c-0.377,2.616,0.971,5.472,3.924,5.568c-0.594,1.509-4.582,10.8-6.275,16.849c-2.27-4.221-3.818-7.461-5.969-11.056v19.833
		c-7.83-1.268-7.83,11.409,0,10.142v2.423c-1.059-0.016-5.327,0.016-6.467,0c-6.29,0.16-5.15,10.976,1.203,9.66
		c-0.946,3.354-1.748,7.782-2.053,11.489c-0.666-1.38-2.729-4.91-3.451-6.21v24.952c-7.533-0.979-7.525,11.168,0,10.189v2.904
		c-3.65-0.546-6.178,1.989-5.623,5.584c0,2.247,1.853,4.076,4.115,4.076h30.584c-1.371,9.644-3.594,24.519-4.637,30.504
		L325.48,263.183c-0.048-0.096-1.653-1.139-3.177-0.497c-2.455,0.771-10.655,11.249-11.193,13.72c-0.93,3.064,2.68,4.798,4.67,6.242
		c-1.557,2.15-8.232,11.393-9.645,13.351c1.95,1.364,9.989,7.044,12.092,8.521l-5.473,7.574c-2.149-1.508-10.093-7.108-12.09-8.521
		c-3.058,4.235-16.207,22.465-19.256,26.685l13.117,9.451c1.541-2.069,8.305-11.184,9.973-13.43l6.949,4.894
		c-1.541,2.15-8.111,11.345-9.523,13.286c4.003,2.824,15.107,10.639,19.103,13.463c2.913-4.043,12.228-16.945,15.14-20.988
		c-1.941-1.363-8.777-6.178-10.831-7.622c2.535-3.481,5.118-7.077,6.86-9.516c1.692,1.204,7.276,5.135,10.566,7.462
		c2.551-2.776,5.375-6.371,7.381-9.403c2.367,1.669,5.938,4.188,10.021,7.06c-1.469,2.039-5.625,7.799-7.037,9.757
		c3.234,2.118,6.363,4.301,9.965,6.868l-6.867,9.531c-1.998-1.412-7.928-5.584-9.82-6.916c-4.469,5.729-12.244,16.801-15.213,20.925
		c3.947,2.792,14.233,10.028,18.182,12.806c1.371-1.895,8.055-11.152,9.563-13.255l8.489,5.985
		c-1.557,2.134-8.159,11.297-9.58,13.238c3.418,2.406,9.211,6.482,12.629,8.89c2.952-4.108,16.175-22.417,19.128-26.509
		c-1.926-1.363-8.2-5.777-10.223-7.205c1.941-2.872,3.098-4.557,4.478-6.482c2.103,1.541,7.365,4.975,10.253,6.964
		c3.162-4.108,10.342-13.72,10.688-14.313l56.853,39.939c0.272,0.193,1.3,0.851,1.412,1.188h-77.521
		c0.096,8.313,0.064,21.646,0.049,46.824c-15.55-0.995-33.393-4.638-39.41-9.949c6.418-7.317-6.933-18.566-14.859-14.555
		c-8.104-10.703-15.693-23.09-19.127-36.039c-1.742-6.9-3.25-12.87-7.205-12.87c-6.724,0.771-7.814,5.729-7.622,9.74
		c-5.039-2.343-10.591,4.942-10.415,9.099c-6.907-3.932-9.033,8.617-8.039,10.606c-3.69-1.396-7.942,3.481-6.947,7.205
		c-5.047-2.312-7.983,5.135-6.828,9.114c-5.881,0.674-5.544,6.563-3.57,10.125c-4.573-3.305-10.463,0.481-7.959,5.922
		c7.221,15.564,28.699,34.162,41.793,45.09c-2.512,11.955,12.1,18.711,19.664,5.841c23.092,11.12,45.613,13.271,70.461,9.708
		c-0.008,13.56-0.017,27.568-0.017,41.385c-7.767,5.439-21.261,14.794-23.788,16.655c-11.017-9.804-29.156-1.509-22.457,13.495
		c-6.211,0.273-32.094,1.701-42.139,1.637c-1.637-34.997-56.588,17.859-22.416,21.84c-1.381,11.088-7.189,40.275-8.096,44.512
		c-9.026-5.904-22.754,3.162-19.979,13.769c2.127,8.649,20.797,27.215,30.208,27.215c7.702,0.368,15.324-9.516,11.745-16.817
		c2.336-0.754,10.158-2.037,10.543-2.117c17.828,30.344,85.512,62.34,116.562,81.66c2.438,0.963,6.491,1.813,7.862-1.172
		c3.395-4.156,10.527-9.419,5.762-15.275c3.418-1.734,5.656-6.885,4.195-9.805c4.389-2.199,4.598-5.601,2.415-9.676
		c1.604-1.236,3.659-4.205,1.573-6.275c-0.898-1.074-1.918-2.535-3.451-2.663c-7.998-1.251-15.926-3.049-23.588-4.782
		c-13.494-3.064-27.432-6.226-42.121-6.467c-2.344-1.074-5.44-2.871-9.131-5.279l0.016-0.063
		c-5.801-3.61-12.195-8.456-20.082-14.522c15.252,6.932,42.957-29.107,18.27-32.542l0.834-5.279
		c6.338,3.771,21.871,2.358,30.023-1.396c16.881,56.211,47.191,64.361,151.871,117.508
		c104.896-53.338,134.726-60.992,151.879-117.492c8.088,3.738,23.701,5.15,29.975,1.38l0.852,5.279
		c-24.696,3.435,3.016,39.474,18.26,32.542c-7.895,6.082-14.281,10.912-20.09,14.522l0.032,0.063
		c-3.69,2.408-6.788,4.205-9.13,5.279c-14.699,0.241-28.644,3.402-42.123,6.467c-7.67,1.733-15.597,3.531-23.588,4.782
		c-1.523,0.128-2.566,1.589-3.466,2.663c-2.054,2.055-0.063,5.071,1.589,6.275c-2.199,4.075-1.974,7.477,2.406,9.676
		c-1.459,2.92,0.787,8.07,4.205,9.805c-4.734,5.84,2.326,11.119,5.76,15.275c1.364,2.984,5.424,2.135,7.863,1.172
		c31.018-19.305,98.701-51.301,116.562-81.66c0.385,0.08,8.2,1.363,10.542,2.117c-3.658,7.51,4.365,17.588,12.309,16.801
		C815.481,660.284,842.102,638.461,831.127,625.078 M304.715,361.933c3.322-0.738,5.199,12.067,6.788,16.239
		c4.204,11.056,11.136,23.042,18.261,32.028C328.272,427.322,284.176,364.772,304.715,361.933 M294.864,371.192
		c1.772-0.852,1.508,0.08,3.273,5.504c5.407,14.938,21.101,36.441,25.979,39.811c0.498,1.621-1.901,5.135-2.872,5.087
		c-11.714-6.644-25.337-28.563-26.766-30.954C292.264,387.271,283.39,376.76,294.864,371.192 M283.487,380.354
		c0.874-0.289,2.438-1.123,4.203,2.551c2.135,4.43,10.189,18.438,17.499,27.006c3.354,3.932,8.649,10.623,11.954,13.399
		c3.058,2.567,2.392,3.321,1.132,5.343c-2.952,3.371-4.91,0.033-6.868-1.459c-8.842-8.408-17.009-13.03-30.022-36.25
		C278.977,386.645,282.908,379.985,283.487,380.354 M278.223,391.313c16.672,24.648,16.063,25.45,35.952,42.025
		c2.175,1.637-1.741,5.745-4.854,3.596c-4.076-2.664-22.722-20.637-30.761-33.232C274.388,397.155,272.574,392.084,278.223,391.313
		 M269.558,398.149c2.552-0.545,4.284,3.467,5.296,4.99c13.768,20.7,16.944,22.273,33.359,38.399
		c0.987,13.88-26.524-16.961-28.137-19.319c-0.602-0.434-8.063-9.163-11.986-15.662C266.348,403.67,266.903,400.396,269.558,398.149
		 M263.605,408.308c2.311-1.332,2.327-0.369,2.76,0.208c9.468,12.581,16.769,21.968,28.402,32.927
		c0.987,0.932,10.759,8.377,8.794,10.174c-1.709,2.969-4.959,0.818-6.5-0.225C289.92,445.567,257.764,417.919,263.605,408.308
		 M296.965,463.667c-7.927-2.503-45.412-39.121-40.638-46.743c1.035-1.06,4.188,0.081,5.255,1.493
		c6.98,9.082,13.127,17.201,21.808,25.031C287.931,448.824,304.25,456.911,296.965,463.667 M312.483,469.925
		c-7.951,12.789-17.347,2.23-12.518-4.83c5.079-7.429,32.559-52.76,32.559-52.76c2.455-3.482,13.326,2.551,11.474,7.622
		l-28.017,43.823C315.981,463.78,313.22,468.737,312.483,469.925 M385.252,478.622c-23.805,3.676-47.176,1.123-68.325-9.194
		c-0.835,0.53,26.62-42.042,27.319-43.213c8.312,6.724,29.132,9.708,41.335,10.495C385.766,448.681,384.707,470.503,385.252,478.622
		 M385.509,551.746c0.032,12.323-0.016,23.589,0.081,34.628c-6.194,4.975-18.197,4.172-24.52,2.23l1.469-11.666
		c12.451,5.007,23.98-9.596,15.389-20.282C377.406,556.801,381.826,553.977,385.509,551.746 M385.141,528.944l-0.161,16.977
		c0,0.466-6.267,4.236-9.917,6.82c-3.201-3.916-6.258-6.644-10.093-9.885C370.811,538.652,379.027,533.341,385.141,528.944
		 M347.046,540.048c10.919-3.225,24.937,13.912,29.461,21.663c2.312,7.157-2.615,12.437-8.841,12.437
		c-7.005,0.914-18.863-14.105-23.268-18.518C341.004,550.591,340.114,542.087,347.046,540.048 M297.896,616.606
		c-0.449,1.363-0.763,2.727-1.019,4.092l-7.197,1.043c1.123-8.746,4.766-29.013,7.75-44.594l41.994-1.268
		c-0.521,3.242-1.123,12.404-1.364,12.452C310.781,593.675,301.169,606.657,297.896,616.606 M335.188,602.886
		c-2.744-1.717-7.847-4.572-4.525-8.953c2.52-0.738,4.541-1.572,7.445-2.135c-0.336,1.813-1.668,13.063-2.278,16.399
		c-0.008,0-0.017,0-0.032,0.017C336.455,605.276,335.91,603.737,335.188,602.886 M319.045,612.675
		c-5.119-0.225-9.42,0.16-10.815-6.098c1.38-1.477,2.952-2.873,4.733-4.221c0.498,11.168,12.42,0.609,11.152,10.799
		c-0.481,0.354-1.188,0.883-1.957,1.637C321.371,613.927,320.377,613.092,319.045,612.675 M319.911,617.44
		c-0.931,1.3-1.861,3.161-2.327,4.814c-4.693-5.232-11.713,2.069-16.64-2.616c0.786-3.081,2.103-6.114,4.028-8.97
		C309.955,617.2,315.627,613.204,319.911,617.44 M325.832,598.329c2.07,6.787,7.783,3.643,6.676,10.959
		c-1.396,0.482-3.064,1.124-4.766,1.926c0.248-11.217-12.084-2.358-11.986-10.751c2.992-1.894,6.458-3.61,10.478-5.07
		C325.672,596.805,325.752,597.88,325.832,598.329 M335.092,612.337c-0.354,1.926-0.658,3.723-0.924,5.248
		c-3.898,0.32-8.256,0.85-11.16,1.252C324.485,617.087,327.79,614.745,335.092,612.337 M300.254,623.217
		c5.721,4.622,13.014-3.065,16.625,3.915c0.039,1.798,0.128,2.488,0.416,3.771c-6.273-4.332-10.91,3.963-17.129-0.658
		C299.949,627.919,299.957,625.56,300.254,623.217 M303.175,641.782c-0.946-2.182-1.701-4.477-2.247-6.803
		c6.539,3.465,10.27-3.916,17.202-1.172c0.738,1.926,1.718,3.53,2.688,4.814C310.829,636.343,309.137,643.933,303.175,641.782
		 M309.594,651.972c-1.348-1.557-2.616-3.225-3.739-5.055c8.681-1.684,7.518-6.707,17.876-5.102c1.188,1.01,2.406,2.326,4.221,3.706
		C314.135,644.896,317.312,654.7,309.594,651.972 M327.918,640.628l5.994-1.092c0.457,3.658,1.211,6.13,3.346,8.424
		C334.819,646.147,328.095,640.836,327.918,640.628 M313.437,655.903c2.647,0.049,6.491-3.418,7.373-5.424
		c0.578-2.406,12.107-3.338,15.694,1.621c-9.894-0.305-9.5,6.418-18.662,7.558C316.518,658.583,314.921,657.235,313.437,655.903
		 M352.735,684.241c5.656-6.643,7.422-2.969,12.773-5.215c-0.924,4.718-8.305,5.392-10.575,6.611
		C354.203,685.173,353.465,684.724,352.735,684.241 M433.464,684.193l1.171,1.396c-0.666,0.482-1.163,0.963-1.532,1.445
		l-30.793-1.492l30.039,5.118c1.845,3.995,1.733,3.723-2.134,6.322l-30.602-4.269l30.457,8.119c1.283,3.21-4.365,5.601-5.231,7.205
		l-27.407-10.301l29.493,14.777c0.794,2.022-0.722,3.227-2.166,4.879l-26.958-13.864l24.206,16.656
		c-0.763,0.818-1.437,1.653-1.837,2.472c-12.18-4.365-23.012-12.982-34.725-18.839c4.1-4.813,14.842-19.224,13.334-26.829
		C410.221,679.411,421.598,682.349,433.464,684.193 M394.832,676.171c1.781,7.365-8.922,20.892-13.086,25.514
		c-1.484-0.852-2.961-1.701-4.429-2.552c4.269-4.461,14.522-16.833,13.695-23.653C392.281,675.721,393.565,675.913,394.832,676.171
		 M386.569,674.71c1.299,6.13-9.243,17.779-13.495,21.968c-1.733-1.011-3.435-2.07-5.151-3.113
		c4.758-3.193,14.627-12.548,13.576-19.544C383.198,674.229,384.883,674.453,386.569,674.71 M369.535,680.92
		c1.74-4.396,1.934-5.793,1.869-7.798c1.91,0.08,3.787,0.256,5.68,0.433c1.204,6.322-8.432,14.667-13.35,17.491
		c-1.557-0.947-3.129-1.861-4.686-2.824C360.862,686.585,367.666,685.653,369.535,680.92 M367.056,672.769
		c-4.638,6.595-13.142,2.006-17.683,9.291c-0.707-0.466-1.396-0.947-2.103-1.412c6.812-4.269,7.245-9.275,16.761-9.388
		C365.106,671.838,366.125,672.351,367.056,672.769 M357.54,667.36c0.818,0.529,1.612,1.027,2.399,1.525
		c-7.646,1.203-9.139,7.06-15.879,9.611c-0.85-0.578-1.717-1.14-2.551-1.717C349.95,674.839,346.405,664.729,357.54,667.36
		 M346.388,659.595c1.829,1.348,3.643,2.646,5.464,3.931c-9.314,2.134-4.709,9.772-14.61,10.254c-2.158-1.54-4.782-3.418-7.582-5.44
		C340.515,667.602,336.311,659.049,346.388,659.595 M339.633,654.507c0.818,0.643,1.652,1.269,2.503,1.91
		c-8.689,1.492-4.605,9.275-16.769,8.842c-1.115-0.803-2.23-1.605-3.338-2.391c3.916-0.61,5.52-4.927,8.352-5.97
		C332.331,656.674,337.161,655.342,339.633,654.507 M352.871,621.195c31.154-4.862-16.127,47.818-15.405,14.65l-12.5,1.909
		c-2.712-3.434-5.055-10.27-3.241-15.02c3.049-0.434,11.425-1.557,15.645-1.637c1.646-10.174,6.227-49.07,6.227-49.07l-49.311,1.637
		c0,0-9.139,47.289-8.674,52.408l10.744-1.572c-0.369,5.038,0.031,11.056,1.532,15.693c-3.948,0.914-10.246,1.621-14.643,2.695
		c5.856,4.83,0.931,16.111-6.402,16.111c-7.614-0.049-24.824-17.267-26.558-24.343c-1.572-11.217,11.683-13.88,18.903-7.269
		c3.241-17.475,7.911-38.528,9.019-53.756c-32.061,1.637,17.233-47.321,15.869-15.26l45.348-1.445l19.432,18.951
		C358.856,575.88,354.33,610.251,352.871,621.195 M366.59,607.267c-0.256,0.723-0.666,1.797-1.58,2.568
		c-2.848-0.482-4.718-1.365-6.395-1.814c1.283-8.439,1.686-12.628,2.054-15.901c1.926,0.369,2.384,0.225,4.236,0.577
		C360.669,601.378,369.045,600.735,366.59,607.267 M375.384,610.011c-2.198,0.498-4.397,0.498-6.659,0.305
		c5.561-11.232-3.964-7.67-0.465-17.041c1.363,0.225,2.615,0.4,3.723,0.529c1.283,12.211,6.273,6.13,9.579,14.603
		C379.444,609.017,377.293,609.577,375.384,610.011 M385.149,607.347c-2.769-9.322-9.885-5.327-9.348-13.383
		c6.467-1.251,8.729-3.113,9.78-3.787c0.28,3.932,0.297,9.452,1.484,16.609C387.066,606.786,385.461,607.571,385.149,607.347
		 M769.332,295.469l-12.051,8.569l9.724,13.318l12.034-8.569l15.084,20.636c0,0-4.958,3.547-7.381,5.264l-9.82-13.078l-12.709,9.05
		l9.58,13.239l-13.19,9.402l-11.056-15.132l10.814-7.702c-4.926-6.643-11.104-15.229-11.104-15.229s-1.766,1.236-10.815,7.687
		c-3.177-3.595-7.044-9.644-7.044-9.644s-7.222,5.167-15.951,11.361l7.029,9.644c-2.873,1.958-9.854,7.028-9.854,7.028
		l11.104,15.229l9.868-7.014c2.103,2.713,11.057,15.133,11.057,15.133l-12.291,8.745l-9.645-13.206l-14.281,10.174l9.628,13.205
		l-6.724,4.799l-15.87-21.438l10.109-7.205c0,0-8.087-12.355-8.825-12.597c-3.932,2.953-3.498,2.616-10.206,7.27
		c-4.733-6.242-7.814-10.703-7.814-10.703c2.069-1.477,5.392-3.852,9.563-6.836c10.045-7.188,25-17.875,38.913-27.809
		c8.681-6.193,16.961-12.099,23.411-16.656c4.895-3.481,8.746-6.178,10.896-7.654L769.332,295.469z M756.896,266.071
		c0,0,8.136,9.66,8.601,11.795c0.177,0.754-154.366,108.457-154.366,108.457h-24.567L756.896,266.071z M608.386,365.655
		l-27.792,20.283H568.43c-2.631-19.754-5.263-33.056-4.492-52.247h39.25C604.166,340.142,606.637,357.119,608.386,365.655
		 M520.123,333.691h40.043c-0.914,17.33,2.263,33.585,4.044,52.632h-48.147C517.86,367.261,521.03,351.038,520.123,333.691
		 M532.527,163.326c0.481-0.915,1.685-2.103,3.498-2.103c0.241,0,8.384,0,8.642,0c1.926,0,3.16,1.99,3.257,2.15l0,0
		c0.577,1.012,1.075,2.472,1.509,4.59c0,0-9.508-1.669-18.43,0C530.987,167.979,532.005,164.353,532.527,163.326 M481.371,206.379
		c34.965-51.493,87.83-44.562,118.943,1.733c-5.07,9.419-6.402-0.386-10.061-4.574c-1.83,2.392-2.969,7.831-6.242,8.73
		c-4.396-3.9-7.045-12.453-10.318-17.219c-3.369,4.718-5.809,13.64-10.51,17.234c-2.552-1.364-4.413-6.436-6.178-8.81
		c-1.766,2.374-3.643,7.445-6.179,8.81c-4.701-3.595-7.141-12.517-10.526-17.219c-3.266,4.734-5.921,13.271-10.277,17.154
		c-3.113-0.706-4.373-6.451-6.563-8.682c-1.821,2.392-2.968,7.831-6.233,8.73c-4.405-3.9-7.037-12.453-10.318-17.219
		c-3.361,4.718-5.816,13.64-10.51,17.234c-2.561-1.364-4.414-6.436-6.187-8.81c-1.429,2.391-3.755,6.435-5.472,8.553
		c-2.135,1.06-3.289-2.808-4.557-4.044C480.392,207.485,481.371,206.379,481.371,206.379 M474.567,223.18
		c4.718-1.011,5.231-8.248,0.618-9.837l-0.104-7.83c0.529,0.946,1.051,1.941,1.58,2.904c0.426,0.803,0.867,1.572,1.301,2.326
		c0.488,0.851,0.986,1.653,1.5,2.375c2.215,3.161,4.621,4.83,7.478,1.975c0.995-0.996,2.054-2.553,3.193-4.799
		c1.163,2.424,2.278,4.027,3.354,5.007c2.68,2.455,5.047,0.946,7.188-2.006c1.572-2.15,3.018-5.055,4.365-7.734
		c0.048-0.097,0.096-0.192,0.145-0.289c0.514-0.995,1.011-1.958,1.492-2.84c0.048-0.081,0.104-0.177,0.152-0.272l0,0
		c3.859,6.916,9.483,23.025,16.76,8.424c3.611,7.847,8.826,7.686,11.915,0.273c1.581-2.696,3.249-5.906,4.71-8.714
		c4.1,7.221,9.475,23.187,16.696,8.151c7.221,14.891,12.388-0.514,16.704-8.135c3.835,6.819,9.676,23.363,16.721,8.264
		c4.412,9.436,8.376,6.37,11.649,1.154c0.577-0.93,1.155-1.941,1.7-2.968c0.852-1.62,1.653-3.241,2.392-4.669v9.193
		c-5.536,1.107-5.007,9.677,0.626,10.078c-0.049,0.016-0.273,0-0.626,0c-0.466,0.016-30.616,0-31.708,0
		c6.339-0.546,5.842-10.366-0.577-10.238c-6.435-0.128-6.916,9.692-0.578,10.238h-32.357c6.331-0.546,5.849-10.366-0.577-10.238
		c-6.428-0.128-6.916,9.692-0.578,10.238h-32.357c6.338-0.546,5.849-10.366-0.578-10.238c-6.426-0.128-6.916,9.692-0.578,10.238
		h-31.819h-0.489C474.278,223.212,474.502,223.195,474.567,223.18 M465.934,228.042c0-2.215,2.391-2.055,3.018-2.055h144.12
		c2.038,0,1.829,4.107,0,4.107c-1.46,0-141.44,0-143.912,0C468.004,230.095,465.934,230.095,465.934,228.042 M470.074,234.604
		c0.176-0.498,0.416-1.027,0.777-1.732h138.786c1.765,0.914,7.542,18.982,7.542,18.982s-2.359,3.738-4.124,5.904
		c-0.53,0.947-2.358,1.252-3.113,0.514c-2.054-2.615-4.862-7.541-6.547-10.397c-1.989,2.567-4.782,10.013-7.831,10.911
		c-4.926-2.311-9.885-17.121-13.27-21.759c-3.354,5.841-7.543,15.052-11.49,20.829c-4.14,4.107-7.621-7.671-9.467-9.934
		c-2.695,2.84-4.172,10.27-8.296,10.783c-0.61-0.096-1.14-0.417-1.493-0.914c-3.867-5.762-8.078-14.747-11.336-20.684
		c-3.233,5.92-7.462,14.938-11.329,20.684c-0.353,0.497-0.874,0.818-1.484,0.914c-4.124-0.514-5.608-7.943-8.304-10.783
		c-1.797,2.166-5.328,14.057-9.476,9.934c-3.939-5.793-8.111-14.973-11.481-20.829c-3.401,4.653-8.328,19.433-13.27,21.759
		c-3.049-0.883-5.842-8.344-7.823-10.911c-5.079,8.007-7.87,17.716-13.069,3.321C465.268,245.966,470.026,234.717,470.074,234.604
		 M457.285,267.933c0.826-0.449,4.027-4.525,0.4-8.504l-0.353-11.955c0.642,1.155,1.284,2.359,1.925,3.563
		c1.605,3.017,3.227,6.018,4.951,8.199c2.52,3.209,5.238,4.654,8.384,1.766c1.38-1.252,2.833-3.338,4.397-6.467
		c1.492,3.081,2.92,5.15,4.26,6.418c3.217,3.033,6.025,1.509,8.568-1.813c1.806-2.359,3.482-5.601,5.063-8.777
		c1.107-2.199,2.167-4.365,3.193-6.162c0.674,1.188,1.381,2.567,2.119,4.061c1.717,3.417,3.618,7.316,5.712,10.189
		c2.407,3.273,5.055,5.182,7.976,3.465c0.176-0.111,0.369-0.225,0.545-0.369c0,0,0.008,0,0.016-0.016
		c1.525-1.123,3.13-3.273,4.799-6.787c1.557,3.369,3.064,5.472,4.517,6.643c0.554,0.434,1.083,0.754,1.629,0.932
		c0.032,0.016,0.08,0.031,0.112,0.047c2.6,0.818,5.015-1.219,7.236-4.348c2.103-2.969,4.045-6.933,5.762-10.383
		c0.594-1.188,1.171-2.326,1.717-3.338c0.722,1.284,1.46,2.777,2.238,4.333c1.686,3.354,3.514,7.028,5.488,9.772
		c2.663,3.658,5.615,5.616,8.857,2.792c1.412-1.204,2.855-3.273,4.364-6.499c1.878,3.787,3.626,6.002,5.263,7.093
		c2.889,1.909,5.457,0.257,7.768-2.808c1.926-2.535,3.658-6.018,5.279-9.275c1.01-2.021,1.973-3.947,2.888-5.488
		c0.594,1.076,1.22,2.327,1.862,3.643c1.732,3.45,3.658,7.382,5.775,10.334c2.215,3.081,4.622,5.055,7.205,4.221l0,0
		c0.482-0.16,0.963-0.418,1.444-0.771c0.032-0.017,0.064-0.032,0.081-0.048c0.063-0.049,0.128-0.112,0.176-0.145
		c1.477-1.203,3.018-3.369,4.605-6.82c1.412,2.953,2.76,4.943,4.06,6.211c1.027,0.994,2.006,1.54,2.969,1.685
		c0.063,0.017,0.112,0.017,0.177,0.032c2.07,0.209,3.979-1.348,5.776-3.739c1.974-2.632,3.819-6.241,5.585-9.612
		c0.368-0.705,0.737-1.396,1.09-2.069l0.081,11.489c-1.22,0.401-1.685,1.348-2.215,2.343c-0.866,1.573-0.866,3.595,0,5.167
		c0.53,0.995,0.995,1.846,2.215,2.246v2.472c-13.864-0.097-151.952-0.112-165.96-0.048V267.933z M448.459,277.93
		c-0.786,0-1.219-0.657-1.268-1.106c-0.048-0.466-0.064-1.332-0.048-1.701c0,0,0,0,0-0.017l0,0c0-0.16,0-1.3,1.517-1.3h177.697
		c0.835,0,2.119,0,3.338,0c0.867,0.016,1.686,0.016,2.279,0l0,0c0.176,0,0.353,0.049,0.497,0.113c0,0,0.017,0,0.032,0.016
		c0.112,0.048,0.225,0.111,0.32,0.209c0.16,0.16,0.289,0.369,0.386,0.594c0.225,0.577,0.24,1.331,0.063,1.957
		c-0.128,0.465-0.353,0.851-0.689,1.059c0,0.017-0.016,0.017-0.032,0.033c-0.048,0.016-0.097,0.031-0.145,0.063
		c-0.128,0.048-0.272,0.08-0.433,0.08l0,0c-1.123,0-2.472,0-3.771,0c-0.77,0-1.541,0-2.215,0
		C625.989,277.93,449.125,277.93,448.459,277.93 M610.44,298.759c-0.016,0-0.031,0.016-0.048,0.016l-0.017-0.016l-0.031,0.063
		c-0.289,0.257-1.717,3.193-1.846,3.45c-0.096,0.16-0.096,0.209,0,0.031c-1.027,2.119-5.135,11.859-8.456,7.334
		c-0.514-0.738-1.235-1.332-1.749-2.166c-0.08-0.145-0.177-0.289-0.257-0.434c-0.017,0-0.017-0.016-0.017-0.032
		c-1.203-1.974-2.406-4.14-3.594-6.37c-1.525-2.856-3.018-5.809-4.445-8.537c-0.738-1.428-1.477-2.809-2.182-4.092
		c-0.258-0.481-0.529-0.947-0.787-1.396c-1.299,1.75-2.904,5.104-4.653,8.777c-2.166,4.478-8.472,16.641-10.142,15.485l0,0l0,0
		c-1.828-0.177-4.91-5.504-6.129-7.751c-0.883-1.637-1.717-3.145-2.424-4.107l-0.176-0.32l-0.193,0.32
		c-0.705,0.963-1.523,2.471-2.406,4.092c-1.22,2.246-2.584,4.67-3.979,6.227c-0.722,0.786-1.444,1.363-2.167,1.54l0,0l0,0
		c-0.994-0.337-2.102-1.429-3.24-2.968c-2.424-3.273-5.039-8.586-7.254-13.223c-1.645-3.434-3.064-6.516-4.035-8.072
		c-0.947,1.541-2.375,4.605-4.012,8.04c-2.223,4.653-4.846,9.981-7.27,13.255c-1.154,1.556-2.246,2.646-3.241,2.968l0,0h-0.008
		c-0.714-0.177-1.437-0.737-2.142-1.524c-1.396-1.557-2.761-3.979-3.98-6.227c-0.898-1.637-1.717-3.145-2.423-4.107l-0.185-0.32
		l-0.184,0.32c-0.707,0.963-1.525,2.471-2.416,4.107c-1.227,2.23-2.575,4.67-3.979,6.211c-0.715,0.786-1.429,1.363-2.143,1.54
		c0,0,0,0-0.008,0l0,0c-3.057-0.433-8.16-11.377-10.342-15.886c-1.212-2.487-2.359-4.814-3.435-6.563l-1.026-1.814l-0.097,0.161
		c-0.04-0.048-0.089-0.112-0.128-0.161c-0.787,1.557-1.653,3.307-2.568,5.151c-1.893,3.771-4.043,7.927-6.178,11.729
		c-1.3,2.312-2.6,4.478-3.835,6.339c-1.412,1.685-2.952,1.075-4.396-0.497c-1.22-1.652-3.024-4.814-4.364-7.254
		c-0.891-1.828-1.541-3.24-1.798-3.32c-0.192,0.096-0.546,0.674-1.003,1.523l-0.73,1.107c-0.256,0.385-0.609,1.027-1.091,1.91
		c-0.305,0.577-2.872,4.813-3.554,5.744c-0.795,0.867-1.613,1.477-2.399,1.637c-0.321,0.064-0.642,0.049-0.963-0.049
		c-0.401-0.128-0.802-0.416-1.188-0.865l0,0c-2.68-3.531-4.653-6.451-5.953-9.291c-1.171-2.535-1.798-5.007-1.861-7.751
		c-0.08-3.37,0.657-7.157,2.23-12.019h173.341c0.129,0.417,0.241,0.85,0.369,1.3c0.098,0.368,0.193,0.754,0.289,1.14
		c0.049,0.16,0.08,0.336,0.129,0.513c0.064,0.337,0.145,0.658,0.225,1.011c0.385,1.75,0.689,3.595,0.931,5.439
		c0.048,0.338,0.097,0.658,0.128,0.996c0.033,0.336,0.08,0.674,0.113,0.994c0.063,0.69,0.111,1.348,0.16,2.021
		c0,0.064,0.016,0.129,0.016,0.178c0.049,0.865,0.097,1.717,0.112,2.583l0,0c-0.368,0.674-0.722,1.315-1.06,1.958
		c-0.802,1.476-1.588,2.952-2.406,4.428c-0.049,0.064-2.086,3.676-2.712,4.702c-0.577,0.851-1.123,1.524-1.669,1.989
		c-0.481,0.321-1.027,0.627-1.315,0.674c-0.272,0.049-0.546,0.081-0.835,0.098c-1.139-0.193-2.375-1.316-3.932-3.515
		c-1.315-1.862-2.855-4.478-4.732-7.976l0.641,0.979C610.841,299.399,610.44,298.759,610.44,298.759 M446.967,324.031v-4.14
		c0.209-0.16,0.369-0.354,0.545-0.563c0.145-0.16,0.273-0.336,0.402-0.513c0.111-0.177,0.217-0.337,0.305-0.514
		c0.031-0.08,0.064-0.145,0.096-0.225c0.546-1.284,0.546-2.808,0-4.092c-0.031-0.081-0.064-0.145-0.096-0.208
		c-0.088-0.193-0.193-0.354-0.305-0.53c-0.129-0.177-0.258-0.353-0.402-0.529c-0.176-0.192-0.336-0.386-0.545-0.546v-15.084
		c0.666,1.236,1.316,2.504,1.957,3.771c1.83,3.578,3.611,7.125,5.488,9.771c3.033,4.285,6.322,6.162,10.431,1.942
		c1.492-1.557,3.097-3.899,4.846-7.269c1.308,2.855,2.567,4.957,3.771,6.434c0.811,0.979,1.605,1.686,2.375,2.15
		c1.012,0.609,1.99,0.803,2.938,0.674c1.717-0.256,3.313-1.588,4.813-3.529c2.255-2.904,4.261-7.125,6.05-10.944
		c1.299-2.792,2.486-5.376,3.563-7.06c0.962,1.508,2.094,4.075,3.377,6.932c1.652,3.674,3.563,7.799,5.77,10.719
		c2.735,3.643,5.92,5.408,9.596,2.118c1.58-1.412,3.249-3.739,5.014-7.269c0.635,1.251,1.686,3.225,3.009,5.038
		c1.235,1.669,2.712,3.21,4.292,3.835c1.115,0.449,2.287,0.465,3.475-0.225c0.032-0.016,0.064-0.049,0.096-0.064
		c0.225-0.145,0.449-0.305,0.69-0.497c6.098-4.638,11.69-19.577,11.698-19.608c0.963,1.508,2.046,3.963,3.273,6.643
		c1.532,3.387,3.297,7.156,5.319,9.917c1.235,1.7,2.583,3.032,4.027,3.659c0.835,0.353,1.718,0.48,2.632,0.305
		c1.203-0.241,2.471-1.012,3.803-2.439c1.332-1.444,2.744-3.547,4.221-6.482c1.315,2.775,2.6,4.813,3.835,6.242
		c1.268,1.459,2.472,2.294,3.643,2.6c0.802,0.24,1.589,0.208,2.358-0.017c1.492-0.433,2.904-1.637,4.205-3.257
		c2.246-2.793,4.235-6.82,5.953-10.383c1.331-2.775,2.502-5.247,3.529-6.595c0.754,1.171,1.686,3.129,2.744,5.359
		c1.589,3.321,3.498,7.285,5.664,10.302c1.686,2.375,3.547,4.172,5.537,4.637c0.016,0,0.031,0.017,0.047,0.017
		c0.017,0,0.017,0,0.017,0c0.979,0.225,1.974,0.128,3.001-0.369c0.85-0.401,1.701-1.06,2.584-2.054
		c1.234-1.38,2.519-3.386,3.834-6.146c1.316,2.568,2.552,4.478,3.756,5.842c1.026,1.155,2.021,1.926,2.968,2.342
		c1.044,0.45,2.054,0.514,3.017,0.258c1.766-0.482,3.418-2.006,5.007-4.076c2.103-2.76,4.092-6.467,6.05-9.949
		c0.738-1.332,1.492-2.615,2.23-3.818v14.859c-1.075,0.465-1.83,1.251-2.311,2.197c-0.754,1.492-0.754,3.37,0,4.879
		c0.48,0.93,1.235,1.732,2.311,2.166v3.386v0.337h-186.5V324.031z M442.651,330.915c-0.401,0-0.674-0.129-0.883-0.354
		c-0.256-0.271-0.385-0.705-0.434-1.154c-0.047-0.449-0.016-0.932,0-1.301l0,0c0-0.016,0-0.016,0-0.016
		c0.017-0.4,0.145-0.674,0.361-0.866c0.297-0.272,0.746-0.386,1.22-0.417c0.425-0.032,0.874-0.017,1.243,0l0,0h192.116
		c0.306-0.017,0.755-0.032,1.188,0c0.353,0.016,0.722,0.08,0.995,0.209c0.417,0.191,0.689,0.513,0.642,1.074c0,0,0,0,0,0.016
		c-0.08,0.627,0.048,1.557-0.208,2.167c-0.161,0.385-0.482,0.642-1.107,0.642l0,0H442.651 M477.102,333.691h39.25
		c0.771,19.191-1.861,32.493-4.501,52.247h-12.155l-27.793-20.283C473.653,357.119,476.131,340.126,477.102,333.691 M393.74,354.407
		c-6.707-4.653-6.281-4.316-10.205-7.27c-0.73,0.241-9.619,13.399-9.619,13.399l10.101,7.188l-15.067,20.652l-6.731-4.799
		l9.636-13.205L357.573,360.2l-9.645,13.206l-12.283-8.745c0,0,9.62-13.398,11.723-16.111l9.868,7.029l10.431-14.266
		c0,0-6.98-5.07-9.869-7.028l7.045-9.644c-8.73-6.194-15.959-11.361-15.959-11.361s-3.859,6.049-7.036,9.644
		c-9.05-6.45-10.815-7.687-10.815-7.687s-6.178,8.586-11.111,15.229l10.807,7.702l-11.04,15.132l-13.19-9.402l9.58-13.239
		l-12.709-9.05l-9.82,13.078c-2.423-1.717-7.373-5.264-7.373-5.264l15.06-20.636l12.051,8.569l9.724-13.318l-12.051-8.569
		l7.822-10.72c2.086,1.429,5.945,4.141,10.889,7.654l6.033,4.236l17.747,12.693c14.089,10.045,29.173,20.828,39.097,27.937
		c3.939,2.808,7.068,5.055,9.002,6.435C401.547,343.704,398.475,348.165,393.74,354.407 M315.523,277.642
		c-0.938-0.852,8.111-11.249,8.714-11.441c0.408,0.289,0.891,0.642,1.412,1.011l1.781,1.251c0.071,0.049,0.136,0.097,0.199,0.145
		c1.445,1.012,3.162,2.23,5.111,3.595c3.578,2.536,7.959,5.632,12.974,9.163c1.14,0.802,2.327,1.637,3.53,2.486
		c1.58,1.123,3.209,2.279,4.895,3.467c1.107,0.77,2.246,1.588,3.401,2.391c3.032,2.15,6.21,4.381,9.483,6.691
		c1.492,1.059,3.001,2.135,4.541,3.225c7.27,5.119,14.963,10.559,22.834,16.096c2.119,1.508,4.236,3,6.379,4.508
		c9.957,7.045,20.059,14.17,29.773,21.021c1.268,0.898,2.536,1.797,3.795,2.68l1.887,1.332
		c12.725,8.986,24.566,17.346,34.258,24.182c12.004,8.473,20.732,14.619,23.709,16.736l-25.088-0.24L315.523,277.642z
		 M688.875,590.804c-1.846,31.354-13.72,51.22-37.822,71.406c-20.154,16.896-109.291,59.115-109.436,59.115
		c-0.361,0.031-93.206-41.85-113.377-58.971c-23.314-19.817-37.371-42.09-37.452-76.285c-0.063-29.332,0.313-57.157,0.321-70.909
		c15.661-11.393,24.053-16.159,40.34-26.701c7.43-4.798,17.219-9.692,26.895-9.563c12.508,0.176,23.668,5.809,31.771,11.361
		c9.629,6.627,19.369,18.373,31.692,19.48c8.264,0.737,15.38-2.761,22.112-7.125c5.977-3.884,11.945-8.232,18.959-9.628
		c8.312-1.669,17.009,1.123,24.182,5.616c9.852,6.193,13.672,11.408,20.427,17.09c3.979,3.354,17.827,11.585,33.762,9.965
		c8.151-0.818,15.02-4.574,22.417-7.703c7.478-3.145,17.667-2.551,25.609-0.674C689.934,517.438,689.966,572.462,688.875,590.804
		 M687.592,512.224c-7.463-1.46-17.539-0.385-24.921,1.99c-3.947,1.268-7.573,3.258-11.313,5.038
		c-8.938,4.284-22.577,2.921-29.718,0.145c-7.542-2.921-12.533-5.825-17.893-10.928c-11.874-11.296-24.166-22.979-44.384-18.646
		c-6.162,1.332-11.265,4.766-16.19,8.087c-6.748,4.558-13.119,8.858-22.057,8.056c-6.988-0.626-14.538-6.756-21.831-12.693
		c-5.271-4.283-10.719-8.713-16.054-11.136c-19.08-8.633-30.529-9.933-48.798,0.208c-5.167,2.857-34.355,21.6-43.823,27.697
		c0.017-19.866,0.033-39.715,0.049-57.672c0.04-28.723,0.064-51.99,0.023-60.912h298.93c-0.032,8.922-0.017,32.189,0.016,60.912
		c0.032,18.759,0.049,39.587,0.064,60.352C688.988,512.561,688.281,512.368,687.592,512.224 M723.76,541.235
		c11.217-5.84,19.016,4.413,12.1,14.395c-4.461,4.428-16.24,19.384-23.268,18.518C689.758,570.505,714.26,546.435,723.76,541.235
		 M715.287,542.856c-3.835,3.241-6.9,5.969-10.094,9.885c-3.658-2.584-9.916-6.354-9.916-6.82l-0.177-16.977
		C701.215,533.341,709.447,538.652,715.287,542.856 M816.108,418.417c1.074-1.412,4.236-2.553,5.263-1.493
		c8.345,3.675-51.3,66.48-41.352,39.507C791.893,445.583,806.865,432.249,816.108,418.417 M814.085,408.308
		c8.071,7.862-26.315,37.275-33.44,43.084c-1.541,1.043-4.798,3.193-6.499,0.225c-1.974-1.797,7.799-9.242,8.794-10.174
		c11.633-10.959,18.934-20.346,28.402-32.927C811.775,407.938,812.192,406.462,814.085,408.308 M808.132,398.149
		c7.526,5.648-9.981,23.123-11.024,24.182c-1.717,1.781-28.594,33.072-27.615,19.208c16.416-16.126,19.593-17.699,33.36-38.399
		C803.864,401.616,805.597,397.604,808.132,398.149 M799.467,391.313c16.544,2.23-24.824,41.513-31.098,45.621
		c-3.098,2.149-7.013-1.959-4.846-3.596C783.405,416.78,782.811,415.962,799.467,391.313 M794.22,380.354
		c10.045,10.237-16.015,35.543-27.921,46.84c-1.957,1.492-3.916,4.83-6.867,1.459c-1.269-2.021-1.926-2.775,1.123-5.343
		c3.305-2.776,8.601-9.468,11.954-13.399c7.317-8.568,15.372-22.576,17.507-27.006C791.781,379.231,793.337,380.065,794.22,380.354
		 M782.474,371.705c9.981,3.29,2.728,14.972,0.514,18.341c-0.626,1.813-22.337,31.645-26.524,31.548
		c-0.979,0.048-3.387-3.466-2.873-5.087c0.514-1.686,5.135-5.135,6.691-7.061C786.469,376.84,778.655,370.454,782.474,371.705
		 M766.203,378.172c1.588-4.172,3.449-16.978,6.787-16.239c5.167,1.14,5.15,3.996,5.167,8.023
		c0.032,12.1-11.843,28.322-19.882,37.02c-3.033,3.258-9.194,10.783-10.334,3.225C755.067,401.214,761.998,389.228,766.203,378.172
		 M736.983,413.683c1.668-1.604,6.852-3.723,8.199-1.348c0,0,27.488,45.331,32.559,52.76c5.199,10.318-7.67,18.374-16.015-1.314
		l-28.017-43.823C732.377,416.539,736.372,414.276,736.983,413.683 M733.468,426.215c0.802,1.364,27.953,43.422,27.312,43.213
		c-20.459,9.997-42.973,12.661-66.031,9.532c0-14.555-0.032-28.451-0.049-42.428C706.991,435.586,725.557,432.618,733.468,426.215
		 M694.716,584.176c0.032-10.045,0.048-20.988,0.063-32.397c3.676,2.23,8.057,5.022,7.543,4.878
		c-8.602,10.687,2.936,25.289,15.389,20.282l1.476,11.666c-3.69,1.252-20.571,2.664-24.535-0.514
		C694.699,586.808,694.716,585.491,694.716,584.176 M695.101,607.347c-0.433-0.096-2.407-0.898-2.407-0.898
		c1.221-6.226,1.477-8.617,2.022-14.152c1.765,0.48,2.567,1.412,9.74,1.668C704.986,602.02,697.893,597.992,695.101,607.347
		 M711.949,599.323c-3.064,3.771-2.889,7.205-0.963,10.992c-5.921-0.128-8.439-0.674-12.837-1.909
		c3.29-8.456,8.313-2.407,9.58-14.603c1.106-0.129,2.358-0.305,3.723-0.529C711.789,594.959,713.297,597.671,711.949,599.323
		 M715.24,609.835c-6.644-8.617,4.846-7.398,0.097-17.139c1.861-0.353,2.326-0.208,4.236-0.577
		c0.385,3.273,0.785,7.462,2.069,15.901C719.957,608.47,718.096,609.353,715.24,609.835 M662.639,722.239l-2.567,0.418
		c-0.401-0.818-1.06-1.653-1.829-2.472l24.214-16.656l-26.974,13.864c-0.338-0.401-0.69-0.771-1.012-1.139
		c-0.577-0.643-1.059-1.285-1.251-1.975c-0.145-0.529-0.161-1.107,0.112-1.766l29.477-14.777l-27.406,10.301
		c-0.289-0.562-1.188-1.219-2.15-1.974c-1.188-0.931-2.504-2.005-3.018-3.209c-0.271-0.642-0.336-1.315-0.047-2.022l30.455-8.119
		l-30.616,4.269c-1.204-0.802-2.054-1.349-2.583-1.813c-0.69-0.625-0.835-1.139-0.578-2.037c0.177-0.594,0.529-1.381,1.027-2.472
		l30.055-5.118l-30.793,1.492c-0.385-0.482-0.867-0.963-1.541-1.445l1.172-1.396c11.874-1.845,23.234-4.782,34.692-7.204
		c-0.353,1.717-0.064,3.786,0.626,6.017c0.963,3.081,2.711,6.467,4.653,9.66c2.391,3.899,5.07,7.51,6.996,9.884
		c0.386,0.466,0.738,0.899,1.043,1.269C684.077,709.948,673.278,715.997,662.639,722.239 M698.502,701.685
		c-0.433-0.498-0.962-1.092-1.523-1.766c-1.958-2.326-4.525-5.616-6.756-9.162c-1.861-2.953-3.482-6.082-4.349-8.938
		c-0.626-2.069-0.851-4.011-0.449-5.647c1.268-0.258,2.535-0.45,3.819-0.691c-0.24,1.895,0.385,4.205,1.492,6.645
		c1.283,2.871,3.241,5.92,5.279,8.713c2.535,3.449,5.215,6.515,6.916,8.296C701.455,699.983,699.979,700.833,698.502,701.685
		 M707.168,696.678c-0.129-0.128-0.273-0.272-0.418-0.417c-0.031-0.049-0.08-0.08-0.128-0.129c-1.797-1.829-4.413-4.653-6.835-7.782
		c-1.862-2.407-3.611-5.007-4.783-7.43c-1.106-2.311-1.684-4.478-1.331-6.21c1.685-0.257,3.386-0.481,5.07-0.689
		c-0.305,2.086,0.353,4.364,1.54,6.643c1.509,2.84,3.852,5.648,6.227,8.008c2.102,2.102,4.236,3.834,5.824,4.894
		C710.602,694.607,708.901,695.667,707.168,696.678 M716.507,691.046c-1.637-0.963-3.771-2.488-5.856-4.333
		c-2.23-1.989-4.397-4.333-5.842-6.756c-1.299-2.149-1.989-4.364-1.637-6.402c1.878-0.177,3.771-0.353,5.681-0.433
		c-0.017,0.882,0.048,1.684,0.145,2.455c0.241,2.117,0.818,3.834,1.685,5.263c1.316,2.183,3.258,3.723,5.633,5.038
		c2.054,0.947,4.027,1.572,4.878,2.344C719.653,689.185,718.079,690.099,716.507,691.046 M725.317,685.638
		c-0.771-0.418-2.118-0.771-3.611-1.236c-2.053-0.561-4.363-1.331-5.647-2.936c-0.642-0.658-1.124-1.461-1.315-2.439
		c1.412,0.609,2.583,0.771,3.643,0.834l0.625-0.048c0.723-0.112,1.766-0.177,3.273,0.417c1.444,0.434,3.049,1.461,5.231,4.012
		C726.793,684.724,726.039,685.173,725.317,685.638 M730.885,682.06c-0.771-1.22-1.637-2.103-2.568-2.76
		c-1.668-1.172-3.563-1.637-5.487-2.006c-1.444-0.064-2.824-0.017-4.975-1.027c-0.225-0.096-0.449-0.209-0.657-0.321
		c-1.492-0.609-2.873-1.556-3.996-3.177c0.931-0.418,1.941-0.931,3.017-1.509c3.097,0.032,5.216,0.594,6.916,1.46
		c1.974,1.012,3.386,2.455,5.022,4.044c1.316,1.269,2.776,2.6,4.83,3.884C732.281,681.112,731.59,681.594,730.885,682.06
		 M736.196,678.497c-2.134-0.803-3.738-1.958-5.199-3.178c-1.668-1.412-3.129-2.92-4.926-4.156
		c-1.557-1.059-3.354-1.908-5.761-2.277c1.621-0.852,2.985-1.396,4.14-1.701c2.264-0.594,3.787-0.273,4.959,0.545
		c0.545,0.225,1.027,0.514,1.412,0.898c0.625,0.627,0.994,1.445,1.412,2.375c0.096,0.225,0.209,0.466,0.32,0.707
		c1.027,1.637,2.15,3.32,3.996,4.316c0.642,0.336,1.363,0.594,2.198,0.754C737.897,677.357,737.047,677.919,736.196,678.497
		 M743,673.779c-9.885-0.481-5.279-8.136-14.604-10.254c1.814-1.284,3.643-2.583,5.457-3.931c10.061-0.546,5.904,8.007,16.736,8.744
		C747.781,670.361,745.166,672.239,743,673.779 M754.874,665.259c-12.212,0.417-8.023-7.317-16.753-8.842
		c0.834-0.642,1.686-1.268,2.504-1.91c2.471,0.835,7.285,2.167,9.242,2.392c2.824,1.043,4.445,5.376,8.36,5.97
		C757.12,663.653,755.997,664.456,754.874,665.259 M762.4,659.658c-9.13-1.123-8.794-7.878-18.661-7.558
		c3.594-4.959,15.115-4.027,15.693-1.621c0.882,2.006,4.749,5.473,7.381,5.424C765.336,657.235,763.732,658.583,762.4,659.658
		 M742.984,647.96c2.15-2.294,2.888-4.766,3.354-8.424l6.001,1.092C752.114,640.868,745.455,646.132,742.984,647.96
		 M770.664,651.972c-7.703,2.744-4.51-7.061-18.373-6.45c1.813-1.38,3.049-2.696,4.235-3.706c10.351-1.605,9.194,3.434,17.876,5.102
		C773.28,648.747,771.995,650.415,770.664,651.972 M777.082,641.782c-5.889,2.183-7.654-5.424-17.65-3.16
		c0.979-1.284,1.941-2.889,2.695-4.814c6.916-2.744,10.654,4.637,17.201,1.172C778.783,637.306,778.03,639.601,777.082,641.782
		 M744.203,606.946c-0.643-4.269-1.766-13.512-2.055-15.148c2.889,0.563,4.91,1.396,7.446,2.135c1.348,1.123,1.06,4.653,0.177,5.439
		C746.834,602.79,743.465,601.907,744.203,606.946 M744.459,608.214c-0.016-0.017-0.031-0.017-0.047-0.017
		c-0.049-0.272-0.097-0.626-0.161-0.995C744.299,607.523,744.364,607.845,744.459,608.214 M754.024,595.393
		c4.012,1.46,7.478,3.177,10.479,5.07c0.096,8.376-12.26-0.449-12.003,10.751c-1.701-0.802-3.354-1.443-4.767-1.926
		c-0.127-1.684,0.178-3.883,0.563-4.557C750.429,602.79,756.158,600.944,754.024,595.393 M757.233,618.837
		c-2.904-0.402-7.253-0.932-11.152-1.252c-0.256-1.525-0.578-3.322-0.914-5.248C752.467,614.745,755.773,617.087,757.233,618.837
		 M756.125,613.155c-1.268-10.173,10.672,0.354,11.152-10.799c1.781,1.348,3.37,2.744,4.75,4.221
		c-2.198,9.482-9.547,3.097-13.928,8.215C757.313,614.038,756.608,613.509,756.125,613.155 M772.895,612.931
		c0.336-0.272,1.893-1.732,2.391-2.262c1.909,2.855,3.241,5.889,4.027,8.97c-4.926,4.686-11.955-2.616-16.641,2.616
		c-0.465-1.653-1.396-3.515-2.326-4.814C763.667,613.653,768.401,616.622,772.895,612.931 M780.082,630.245
		c-6.209,4.621-10.863-3.674-17.121,0.658c0.289-1.283,0.369-1.974,0.401-3.771c3.61-6.98,10.911,0.707,16.64-3.915
		C780.291,625.56,780.308,627.919,780.082,630.245 M742.198,588.332c-0.24-0.048-0.851-9.21-1.381-12.452l42.01,1.268
		c2.969,15.581,6.627,35.848,7.751,44.594l-7.205-1.043C779.906,606.593,772.028,594.991,742.198,588.332 M829.971,634.658
		c-1.748,7.076-18.951,24.278-26.572,24.343c-7.334,0-12.26-11.281-6.402-16.111c-4.381-1.074-10.688-1.781-14.635-2.695
		c1.492-4.638,1.894-10.655,1.524-15.693l10.751,1.572c0.465-5.119-8.682-52.408-8.682-52.408l-49.311-1.637
		c0,0,4.59,38.896,6.242,49.07c4.221,0.08,12.58,1.203,15.629,1.637c1.83,4.75-0.513,11.586-3.24,15.02l-12.5-1.909
		c0.722,33.168-46.551-19.513-15.389-14.65c-1.477-10.944-6.002-45.315-6.002-45.315l19.432-18.951l45.348,1.445
		c-1.348-32.062,47.932,16.896,15.887,15.26c1.091,15.228,5.776,36.281,9.002,53.756
		C818.08,620.762,831.688,623.569,829.971,634.658"/>
	<path d="M538.047,696.838c-7.543-1.878-14.899-4.638-21.84-8.184c-3.803-0.337-9.596-1.075-13.414-1.62
		c0.031-0.017,0.047-0.017,0.08-0.033c-1.252-0.191-4.028-0.625-4.533-0.722h0.008c-0.914-0.16-4.052-0.722-4.959-0.915
		c1.156,0.963,2.392,1.846,3.659,2.68c0,0,1.492,1.043,2.263,1.412c4.236,2.504,8.865,4.541,13.414,6.516
		c0.418,0.176,0.826,0.354,1.236,0.545c7.494,3.258,17.41,7.013,27.712,7.157c9.251,0.128,16.07-0.818,22.136-3.081
		c0.674-0.24,1.348-0.514,2.006-0.786c-0.994,0.032-1.974,0.063-2.952,0.063C554.47,699.87,546.158,698.844,538.047,696.838"/>
	<path d="M561.658,690.516c-6.947,0-13.398-1.188-17.987-2.038l-0.489-0.096c-3.764,0.625-8.152,0.93-13.127,0.93
		c-3.049,0-6.322-0.111-9.804-0.353c5.841,2.712,11.931,4.878,18.165,6.435c10.197,2.535,20.724,3.45,31.281,2.744
		c5.136-2.359,9.934-5.184,14.33-8.44c2.166-1.604,4.252-3.257,6.018-5.199c-7.381,3.049-15.132,4.991-23.074,5.776
		C565.173,690.436,563.408,690.516,561.658,690.516"/>
	<path d="M588.376,669.222c-0.305,0.241-1.444,1.092-3.081,2.215c-1.957,1.332-4.156,2.84-6.498,4.012
		c-0.113,0.064-0.225,0.112-0.354,0.176c2.391-0.785,4.733-1.668,7.028-2.663c1.604-0.706,3.193-1.476,4.749-2.294
		c1.798-0.947,3.563-1.959,5.279-3.033c-0.016-0.289-0.016-0.578-0.047-0.834l0,0c-0.097-1.092-0.306-1.99-0.627-2.729
		c-0.063-0.16-0.111-0.32-0.191-0.465c-0.097,0.08-0.178,0.176-0.273,0.256l-0.754,0.69c-0.354,0.353-0.707,0.657-1.075,1.011
		C591.233,666.815,589.901,668.099,588.376,669.222"/>
	<path d="M523.733,665.659c-0.48-0.176-0.963-0.353-1.412-0.529c-0.016,0.273-0.031,0.658-0.08,1.123
		c-0.208,1.975-0.674,4.414-1.379,6.114c-0.145,0.337-0.306,0.674-0.466,1.011c-0.369,0.947-0.835,1.846-1.364,2.712
		c0.715,0.208,1.42,0.417,2.135,0.626c0.625,0.192,1.251,0.369,1.869,0.562c-0.185-3.386,0.762-7.413,2.383-11.088
		C524.872,666.028,524.311,665.853,523.733,665.659"/>
	<path d="M499.832,655.808c-0.008-0.08-3.442,0.369-5.015,0.77c-2.969,0.754-5.745,2.424-6.491,2.873
		c0.41,0.754,0.923,1.572,1.564,2.423c1.332,1.765,2.776,3.032,3.964,3.899c0.128-0.643,0.353-1.589,0.818-2.664
		c0.369-0.867,1.38-2.695,2.728-4.477c0.193-0.241,0.386-0.498,0.594-0.754c0.273-0.402,0.506-0.707,0.643-0.852
		c0.385-0.449,0.786-0.834,1.171-1.188l0,0l0.017-0.016C499.824,655.823,499.832,655.823,499.832,655.808"/>
	<path d="M588.119,660.06c-1.123,0.049-1.957,0.145-2.824,0.337c-0.417,0.097-0.754,0.208-0.994,0.272c0,0.017,0,0.033,0.016,0.033
		c0.738,0.754,1.477,2.663,1.557,2.84c0.031,0.08,0.722,1.652,0.93,3.466c1.141-0.786,2.07-1.493,2.793-2.054
		c0.914-0.738,1.443-1.188,2.984-2.552c0.658-0.562,0.818-0.771,1.155-1.043c-0.722-0.61-1.284-0.946-2.503-1.155
		C590.382,660.06,589.436,659.995,588.119,660.06"/>
	<path d="M470.475,604.571c0-0.049,0.16-5.087,1.621-5.857c0.337-0.176,0.706-0.16,1.043,0.08c0.498,0.338,1.123,1.364,1.091,1.99
		c-0.008,0.305-0.032,0.674-0.048,1.091c-0.112,1.781-0.289,4.478-0.049,8.007c0.891,13.752,4.783,29.093,10.952,43.182
		c0.104,0.257,0.2,0.465,0.249,0.625c0.578,1.012,1.316,2.52,1.701,3.307c0.369-0.273,0.866-0.627,1.203-0.818
		c0.465-0.258,1.66-0.787,2.326-1.076c-4.557-10.221-6.892-27.84-7.493-35.848c-1.107-14.57-0.417-15.244-0.097-15.58
		c0.61-0.594,1.123-0.578,1.437-0.434c1.26,0.481,1.612,3.449,1.757,7.767c0.305,8.905,0.787,14.972,1.621,20.282
		c1.043,6.691,5.367,20.09,6.227,22.689c3.803-1.01,5.495-0.946,6.53-0.898c0.08,0,0.145,0,0.208,0l-0.128-0.562
		c-1.909-8.713-5.495-24.937-4.541-33.456c0.048-0.449,0.089-0.899,0.128-1.349c0.129-1.733,0.225-2.984,0.979-3.257
		c0.305-0.129,0.674-0.049,0.995,0.208c0.657,0.497,1.268,1.878,0.994,4.204c-0.754,6.371,2.832,24.904,5.07,33.617
		c0.209-0.08,0.394-0.176,0.738-0.385c0.586-0.385,2.568-1.766,3.498-3.963c0.321-0.738,0.321-1.076,0.321-2.23
		c0.009-0.354,0.017-0.787,0.017-1.316c-0.097-1.235-0.088-2.487,0.031-3.883c0.017-2.648,1.99-5.648,3.001-6.611
		c0.345-0.321,0.818-0.674,1.204-0.915c-1.34-5.087-2.68-10.976-2.856-16.704c-1.484,1.444-3.69,3.498-4.333,3.658
		c-1.139,0.257-2.174-0.449-2.855-1.027c-2.359-1.973-4.221-4.492-5.424-7.316c-0.707,0.514-1.605,0.786-2.544,0.803
		c-1.22-0.033-2.351-0.449-3.121-1.252c-0.754-0.771-1.14-1.766-1.452-2.648c-0.521-1.476-0.866-3-1.195-4.477
		c-0.257-1.172-0.529-2.391-0.891-3.563c-0.248,0.129-0.569,0.305-0.842,0.449c-1.99,1.06-2.729,1.396-3.21,1.204
		c-0.657-0.257-1.106-1.332-1.556-2.52l-0.113-0.305c-0.417-1.026-0.818-2.872-1.203-4.669c-0.185-0.852-0.354-1.67-0.514-2.279
		c-4.59,4.396-8.023,5.744-10.141,6.082c-0.049,0.016-4.91,0.722-5.561-0.209c-0.137-0.192-0.145-0.449-0.016-0.658
		c0.666-1.123,1.066-1.941,1.323-2.52c-1.573,1.236-4.204,2.552-8.617,1.172c-0.649-0.209-1.106-0.417-1.412-0.658
		c-0.593,0.546-1.685,1.429-2.583,1.701c-2.471,0.771-4.012,0.689-4.734-0.192c-0.441-0.546-0.457-1.268-0.328-1.942l-2.143,1.701
		c0.995,8.056,2.495,16.079,4.438,23.846c2.149,8.568,4.268,14.602,5.351,17.426c1.252,3.338,2.985,7.911,6.065,13.56
		c1.895,3.466,4.02,6.836,6.339,10.045c0.81-1.604,2.479-4.927,2.921-5.809c-1.204-2.487-11.963-25.257-12.726-49.15
		c-0.169-2.552-0.377-8.633,1.204-9.307c0.096-0.048,0.225-0.081,0.369-0.081c0.28,0,0.625,0.129,1.026,0.53l0.097,0.145
		c0.369,0.835,0.377,1.348,0.385,2.583c0.023,2.119,0.064,6.547,1.941,19.127c1.389,9.26,4.573,19.866,10.029,33.361
		c0.369,0.947,1.572,3.996,2.904,6.049c0.32,0.498,1.894,2.873,3.369,4.188c1.06-1.7,2.15-3.29,3.539-4.493
		C480.938,653.336,471.004,632.749,470.475,604.571"/>
	<path d="M631.188,595.393c0.033,0.417-0.048,0.835-0.305,1.188c-0.658,0.898-2.198,1.091-4.75,0.546
		c-0.883-0.178-2.342-1.076-3.24-1.67c-0.081,0.241-0.258,0.53-0.563,0.835c-0.866,0.835-3.466,1.204-6.162,0.305
		c-0.963-0.305-1.877-0.771-2.711-1.348c0.305,0.626,0.754,1.444,1.379,2.503c0.129,0.209,0.129,0.466-0.016,0.658
		c-0.642,0.931-5.504,0.225-5.552,0.209c-4.605-0.738-8.44-4.316-10.286-6.05c-0.111-0.112-0.225-0.225-0.337-0.321
		c-0.16,1.975-0.674,5.264-1.22,7.173c0,0.032-0.705,2.52-1.685,2.889c-0.466,0.177-1.22-0.145-3.209-1.204
		c-0.272-0.145-0.594-0.32-0.851-0.449c-0.354,1.172-0.626,2.391-0.883,3.563c-0.337,1.477-0.674,3.018-1.203,4.477
		c-0.305,0.883-0.706,1.878-1.444,2.648c-0.771,0.803-1.878,1.252-3.081,1.252h-0.048c-0.931,0-1.829-0.289-2.536-0.803
		c-1.203,2.824-3.064,5.344-5.423,7.316c-0.69,0.578-1.718,1.301-2.856,1.027c-0.643-0.16-2.84-2.198-4.316-3.643
		c-0.016,2.086-0.08,3.787-0.385,5.408c-0.947,5.375-1.941,8.601-2.729,10.814c0.449,0.289,0.723,0.53,0.738,0.53
		c0.449,0.385,0.77,0.786,0.931,0.979c0.321,0.417,1.315,1.862,1.749,2.952c0.689,1.67,1.043,3.435,1.172,5.713
		c0.064,1.268,0.064,2.15,0.064,2.776c0,1.155,0.016,1.492,0.32,2.214c0.514,1.204,1.268,2.022,2.038,2.696l0.69-2.392
		c2.743-9.547,6.899-23.988,6.418-29.316c-0.225-2.391,0.385-3.755,1.027-4.236c0.305-0.225,0.658-0.289,0.963-0.176
		c0.609,0.225,1.026,1.107,1.106,4.652c0.112,5.922-4.124,21.102-6.644,30.168c-0.32,1.139-0.625,2.215-0.882,3.145
		c0.272,0.129,0.626,0.306,1.075,0.563c0.963,0.529,2.76,1.54,4.445,3.466c0.368,0.417,0.77,1.011,1.139,1.54v0.017l0.369-0.048
		c2.984-5.697,8.007-22.754,8.793-26.686c1.043-5.135,1.316-11.361,1.621-20.267c0.145-4.317,0.498-7.285,1.749-7.767
		c0.321-0.145,0.835-0.16,1.429,0.434c0.336,0.336,1.026,1.01-0.081,15.58l-0.112,1.557c-0.497,7.045-1.043,15.036-9.853,36.859
		c0.514-0.032,0.946-0.032,1.38-0.032c2.166,0,3.852,0.177,5.104,0.529c5.535-15.693,11.649-36.474,12.42-48.284
		c0.225-3.529,0.064-6.226-0.049-8.007c-0.016-0.417-0.048-0.786-0.048-1.091c-0.032-0.626,0.594-1.652,1.091-1.99
		c0.338-0.225,0.707-0.256,1.043-0.08c1.444,0.754,1.621,5.809,1.621,5.857c-0.354,18.71-6.691,36.697-11.328,49.84
		c-0.691,1.941-1.332,3.771-1.91,5.473c0.24,0.271,0.4,0.48,0.4,0.48c0.129,0.16,0.258,0.369,0.369,0.594
		c1.59-0.786,4.028-2.295,5.44-3.482c1.909-1.604,2.888-3.369,3.53-4.733c6.771-14.345,9.788-32.638,9.82-32.815
		c1.011-6.322,1.861-15.965,1.91-17.746c0.016-0.563,0.016-1.012,0.031-1.381c0-1.235,0.016-1.748,0.385-2.583l0.097-0.145
		c0.594-0.61,1.091-0.594,1.396-0.449c1.573,0.674,1.365,6.755,1.204,9.339c-0.771,23.893-11.537,46.695-12.725,49.135
		c0.192,0.369,0.626,0.882,1.026,1.363c0.273,0.32,0.546,0.658,0.803,0.979c0.481,0.626,0.995,1.301,1.316,1.701
		c1.7-1.557,5.391-7.045,6.113-8.296c2.824-4.927,4.396-9.114,5.664-12.468l0.401-1.092c1.091-2.855,3.21-8.905,5.343-17.426
		c1.124-4.461,3.178-13.512,4.558-24.487c-0.513-0.128-1.026-0.305-1.492-0.546C631.686,595.697,631.429,595.553,631.188,595.393"/>
	<path d="M489.153,674.276c1.477,0.594,5.023,1.557,6.547,1.958c3.21,0.802,6.476,1.444,9.749,1.958
		c0.232,0.031,0.474,0.08,0.706,0.111c0.617,0.113,1.243,0.193,1.869,0.273c0.626,0.096,1.252,0.192,1.869,0.273
		c1.132,0.144,2.271,0.271,3.402,0.4c3.859,0.434,7.742,0.754,11.625,0.947c-2.358-0.563-4.781-1.188-7.469-1.91
		c-0.033,0.049-0.266-0.016-0.635-0.16c-0.577-0.16-1.203-0.32-1.845-0.498c-0.08-0.031-0.161-0.048-0.241-0.08
		c-0.336-0.096-0.674-0.176-1.035-0.289c-0.072-0.016-0.145-0.031-0.216-0.063c-0.61-0.177-1.243-0.353-1.901-0.562
		c-0.273-0.08-0.538-0.16-0.818-0.257c-0.249-0.064-0.506-0.145-0.754-0.225c-0.313-0.112-0.635-0.209-0.955-0.321
		c-0.249-0.08-0.506-0.16-0.754-0.24c-0.354-0.129-0.723-0.24-1.084-0.369c-0.232-0.08-0.48-0.16-0.73-0.257
		c-0.416-0.145-0.834-0.289-1.259-0.449c-0.217-0.081-0.425-0.145-0.634-0.225c-0.658-0.241-1.316-0.497-1.99-0.755
		c-0.112-0.048-0.225-0.096-0.32-0.128c-0.064-0.032-0.129-0.048-0.177-0.08c-0.017,0-0.017,0.017-0.024,0.017l-0.265-0.113
		c0,0,0,0,0.017-0.016c-0.08-0.016-0.161-0.049-0.241-0.08c-0.208-0.097-0.417-0.177-0.634-0.257
		c-1.741-0.722-3.603-1.573-5.48-2.664c-0.882-0.433-1.557-0.882-2.149-1.348c-0.706-0.466-1.396-0.963-2.087-1.509
		c-0.416-0.32-0.802-0.658-1.171-0.979c-0.433-0.385-0.826-0.77-1.203-1.155c-1.124-1.155-1.989-2.327-2.672-3.61
		c-0.329,0.931-0.674,1.877-0.987,2.84c-0.625,1.941-1.146,3.916-1.243,5.97c-0.008,0.288-0.152,0.802,0.017,1.043
		C484.484,672.159,488.094,673.859,489.153,674.276"/>
	<path d="M553.861,683.567c0.337-0.16,0.674-0.354,1.011-0.545c-2.904,0.272-8.971,0.514-17.771-0.578
		c-1.235-0.16-2.391-0.32-3.514-0.498c-0.097,0-0.209-0.016-0.305-0.016c-6.034-0.031-12.453-0.4-18.671-1.043
		c-1.396-0.096-1.869-0.192-3.12-0.337c-0.658-0.08-1.316-0.16-1.967-0.241c-3.024-0.416-6.049-0.882-9.05-1.476
		c-1.524-0.306-3.073-0.626-4.613-0.995c0,0.016,0,0.032,0,0.032c-2.23-0.577-6.467-1.813-8.521-2.76
		c-0.618-0.272-1.975-0.915-3.338-1.798c0.104,0.643,0.281,1.284,0.545,1.878c0.033,0.063,0.081,0.161,0.129,0.288
		c0.498,1.092,1.14,2.087,1.452,2.568c0.603,0.914,0.972,1.477,1.597,2.215c0.129,0.144,0.658,0.77,1.477,1.523
		c0.762,0.707,1.46,1.236,2.037,1.637c1.293,0.273,4.285,0.867,5.842,1.156l-0.016-0.017c1.628,0.305,6.081,0.995,8.111,1.315
		c0.008-0.016,0.023-0.016,0.039-0.016c3.098,0.4,8.176,1.059,11.273,1.332c10.831,0.931,19.777,0.834,26.589-0.289
		c2.937-0.481,5.198-1.123,7.044-1.766C551.63,684.61,552.85,684.065,553.861,683.567"/>
	<path d="M586.082,674.309c-4.879,2.134-9.981,3.771-15.213,4.878c-0.031,0.017-0.048,0.017-0.08,0.033
		c-0.803,0.336-1.637,0.657-2.455,0.962l0.032,0.032l-0.337,0.08c-1.027,0.369-2.086,0.706-3.129,1.012
		c-0.578,0.16-1.14,0.32-1.717,0.449c-1.733,0.416-3.273,0.674-4.622,0.866c-1.315,0.818-2.647,1.589-4.027,2.278
		c-0.272,0.129-0.546,0.257-0.851,0.401c-1.621,0.754-3.707,1.572-6.563,2.294c5.424,0.947,12.5,1.91,19.688,1.204
		c8.697-0.851,17.138-3.13,25.097-6.739c0.883-1.332,1.637-2.793,2.166-4.461c0.674-2.15,1.316-5.312,1.428-8.217
		c-1.748,1.06-3.529,2.055-5.359,2.985C588.809,673.058,587.446,673.715,586.082,674.309"/>
	<path d="M557.006,680.263c1.668-0.209,3.449-0.466,5.584-0.979c0.433-0.097,0.883-0.225,1.315-0.337
		c-1.171-1.139-2.263-2.744-4.124-5.969c-0.963-1.686-1.428-3.739-1.604-5.793c-0.353,0.128-0.851,0.353-1.62,0.465
		c-0.161,0.016-0.402,0.049-0.643,0.096c0.706,1.686,1.22,3.531,1.444,5.633c0.225,2.118-0.032,4.141-0.257,6.082
		C557.07,679.732,557.037,679.989,557.006,680.263"/>
	<path d="M481.018,588.14c0.385-0.481,0.4-0.594,0.569-1.461c0.097-0.529,0.249-1.315,0.554-2.566
		c2.109-8.489,6.41-13.479,8.296-15.341c-4.284-0.963-5.776-4.253-5.729-7.462c-0.305,0.257-0.602,0.529-0.786,0.69
		c-3.755,3.354-7.125,13.366-8.529,18.742l-0.008,0.017c-0.754,3.434-2.223,6.369-4.076,10.092
		c-0.721,1.461-1.531,3.098-2.391,4.927C470.732,595.569,476.541,593.756,481.018,588.14"/>
	<path d="M492.435,602.132l0.216,0.754c1.06,3.627,1.06,3.627,1.076,3.723c0.256,1.525,0.963,2.23,1.532,2.392
		c0.216-0.048,1.403-1.075,2.503-3.226l0.008-0.016c1.027-1.861,8.553-16.688,10.286-20.7c-0.915-0.289-1.781-0.657-2.888-1.204
		c-1.316-0.657-2.295-1.348-3.338-2.069c-0.193-0.128-0.394-0.272-0.594-0.401c-1.012,2.038-2.078,4.092-3.193,6.082
		c-1.99,3.546-4.164,7.027-6.475,10.35c-0.057,0.08-0.129,0.177-0.217,0.289l1.043,3.883l-0.441,0.273L492.435,602.132z"/>
	<path d="M504.83,616.542c0.738-0.145,3.45-2.584,4.638-4.156c0.626-4.107,2.438-12.26,4.364-17.105
		c1.004-2.504,2.295-5.022,3.29-6.836l-0.145-0.049c-0.987-0.288-2.103-0.609-3.081-0.994c-0.586-0.24-1.043-0.385-1.444-0.529
		c-0.481-0.145-0.906-0.289-1.412-0.529c-0.995,2.102-4.235,9.274-5.198,11.585c-0.369,0.898-1.629,3.481-2.857,5.97
		c-1.123,2.295-2.286,4.669-2.688,5.6l0.008,0.032C501.14,612.257,502.664,614.616,504.83,616.542"/>
	<path d="M485.688,598.666c0.336-0.161,1.154-0.899,1.484-1.188c0.184-0.161,0.344-0.305,0.44-0.386
		c0.907-0.705,1.685-1.781,2.423-2.808c0.186-0.257,0.369-0.497,0.546-0.738c2.11-2.84,3.835-6.001,5.504-9.05l0.923-1.652
		c0.185-0.306,0.377-0.643,0.521-0.963c0.048-0.113,0.272-0.514,1.612-2.729c-1.597-1.781-4.773-6.9-5.696-9.355
		c-0.875,0.273-1.741,1.509-2.295,2.295l-0.225,0.305c-1.011,1.412-2.021,3.001-3.089,4.862c-1.572,2.776-2.407,5.841-2.952,8.2
		l-0.145,0.578c-0.554,2.391-0.891,3.818-0.514,6.322C484.805,596.05,485.365,598.152,485.688,598.666"/>
	<path d="M462.436,593.819c1.564-0.385,4.525-1.717,6.779-6.369l0.137-0.289c0.65-1.316,1.524-3.129,2.856-6.788
		c0.69-1.878,1.235-3.546,1.749-5.071c1.059-3.209,1.99-6.001,3.674-9.371c0.418-0.834,0.947-1.845,1.75-3.049
		c1.155-1.748,2.535-3.369,4.092-4.813c-3.578-0.851-5.07-3.481-5.52-5.022c-0.273,0.273-0.514,0.578-0.675,0.77
		c-1.917,2.375-8.312,10.768-10.358,19.722c-0.264,1.332-0.793,3.707-1.259,5.793c-0.378,1.653-0.722,3.146-0.851,3.835
		c-0.626,3.226-1.364,6.065-4.525,10.751C460.67,593.997,461.425,594.061,462.436,593.819"/>
	<path d="M466.56,564.374c2.929-6.658,9.034-14.248,10.366-15.854c-0.385-0.497-1.123-1.412-1.461-1.909
		c-0.449-0.657-0.625-1.509-0.77-2.183c-0.041-0.16-0.08-0.353-0.129-0.514c-1.588,1.364-7.605,9.837-10.911,16.464
		c-3.675,7.366-6.314,18.582-7.285,23.06c-0.289,1.379-1.14,4.99-1.429,5.792c-0.488,1.38-1.34,3.113-1.957,4.381
		c-0.145,0.305-0.305,0.626-0.434,0.915c4.99-1.204,7.983-4.99,8.914-11.297c0.209-1.381,1.766-8.697,2.109-10.238
		C464.121,570.056,465.164,567.567,466.56,564.374"/>
	<path d="M598.213,587.081c0.16,0.882,0.192,1.043,0.609,1.556c4.926,6.194,11.297,7.767,12.645,7.767h0.049
		c-0.916-1.99-1.781-3.738-2.568-5.295c-1.846-3.707-3.289-6.644-4.06-10.045v-0.017c-0.386-1.492-3.931-14.683-8.601-18.87
		c-0.257-0.225-0.834-0.723-1.236-1.076c0.145,2.184-0.225,6.869-5.969,7.879c1.637,1.525,6.338,6.563,8.568,15.549
		C597.972,585.78,598.116,586.567,598.213,587.081"/>
	<path d="M618.351,594.558c0.979,0.113,1.604-0.048,1.798-0.16c-3.29-4.781-4.045-7.654-4.67-10.912
		c-0.145-0.705-0.481-2.23-0.851-3.851c-0.466-2.086-1.011-4.461-1.268-5.809c-2.054-8.986-8.489-17.427-10.397-19.802
		c-0.225-0.272-0.627-0.738-1.012-1.107c-0.24,1.349-1.685,4.605-5.904,5.376c1.684,1.509,3.16,3.226,4.412,5.087
		c0.786,1.188,1.316,2.198,1.732,3.033c1.67,3.354,2.6,6.129,3.659,9.322c0.529,1.572,1.06,3.193,1.749,5.087
		c1.332,3.659,2.215,5.487,2.856,6.804l0.144,0.305C613.264,593.419,616.906,594.397,618.351,594.558"/>
	<path d="M628.203,594.911c0.177,0,0.369-0.016,0.546-0.032c0.016,0,0.032,0,0.032,0c-0.064-0.449-0.787-2.086-3.162-5.825
		c-0.416-0.674-1.652-4.268-1.989-5.824c-0.979-4.493-3.626-15.742-7.317-23.123c-2.198-4.445-5.472-10.318-11.184-16.447
		c-0.209,1.348-0.449,2.262-0.754,2.711c-0.658,1.06-1.284,1.492-1.653,1.75c-0.097,0.064-0.192,0.145-0.257,0.191
		c0.866,1.044,7.43,9.035,10.494,15.999c1.396,3.177,2.424,5.648,2.969,8.585c0.112,0.481,0.32,1.572,0.562,2.855
		c0.514,2.713,1.204,6.451,1.54,7.302C620.95,590.739,624.545,594.911,628.203,594.911"/>
	<path d="M590.302,595.505c1.06,1.363,2.327,2.584,3.723,3.61c0.145,0.097,0.257,0.177,0.369,0.177h0.017
		c0.096,0,0.16-0.097,0.256-0.338l0.016-0.047c0.418-0.932,0.61-1.975,0.803-2.985l0.08-0.369c0.177-0.851,0.338-1.765,0.482-2.792
		c0.4-2.551,0.031-4.092-0.514-6.418l-0.129-0.578c-0.562-2.375-1.396-5.472-3-8.264c-1.06-1.878-2.07-3.467-3.082-4.879
		l-0.225-0.32c-0.625-0.867-1.62-2.295-2.663-2.439c-0.818,2.52-3.675,7.67-5.841,9.628c1.652,2.728,1.685,2.824,1.701,2.872
		c0.128,0.305,0.336,0.643,0.529,0.979c0.08,0.144,0.16,0.288,0.24,0.433l0.658,1.204c1.091,1.989,2.215,4.044,3.449,6.001
		c0.61,0.963,1.124,1.733,1.621,2.439c0.193,0.24,0.369,0.497,0.546,0.754C589.644,594.622,589.965,595.071,590.302,595.505"/>
	<path d="M584.958,609.08c0.032,0,0.064,0,0.081,0c1.251-0.353,1.492-0.898,1.973-2.23c0.434-1.171,0.803-2.375,1.123-3.578
		c0.033-0.112,0.064-0.241,0.08-0.369c0.226-0.883,0.402-1.781,0.563-2.664c0.048-0.16,0.08-0.288,0.112-0.449
		c0.097-0.353,0.288-1.091,0.144-1.268l-0.08-0.112c-0.111-0.145-0.208-0.273-0.288-0.385c-2.295-3.307-4.478-6.771-6.45-10.303
		c-1.156-2.086-2.279-4.22-3.322-6.354c-0.273,0.192-0.562,0.385-0.834,0.577c-1.027,0.722-1.99,1.396-3.29,2.038
		c-1.204,0.609-2.134,0.995-3.112,1.283c1.508,3.611,9.338,19.08,10.397,20.973C583.049,608.214,584.477,609.08,584.958,609.08"/>
	<path d="M569.12,586.374c-1.331,0.626-4.558,1.637-6.579,2.263c1.012,1.846,2.375,4.478,3.418,7.093
		c2.279,5.696,3.53,11.023,3.723,15.838c1.268,1.717,4.879,5.264,5.488,5.15c4.027-4.172,4.59-6.064,4.814-6.787
		c0.016-0.032,0.016-0.064,0.031-0.096c-0.385-0.883-1.572-3.322-2.744-5.682c-1.219-2.486-2.486-5.07-2.84-5.953
		C573.421,595.777,569.955,588.124,569.12,586.374"/>
	<path d="M628.862,569.397c-0.354-0.979-0.689-1.975-1.043-2.984c-0.064-0.161-0.145-0.386-0.257-0.643
		c-0.112-0.272-0.241-0.594-0.386-0.963c-5.246-13.863-13.414-23.7-14.537-24.808c-1.012,0.353-2.086,0.577-3.162,0.675
		c-1.043,0.08-2.086,0.047-3.112-0.098c0.417,0.547,0.995,1.316,1.669,2.23c3.354,4.445,8.97,11.875,10.559,15.469
		c2.037,4.574,4.252,10.094,7.092,22.754c1.381,6.066,4.927,11.249,8.152,11.875c0.08-0.354,0.08-1.652-0.578-6.227
		C632.039,578.287,630.434,573.762,628.862,569.397"/>
	<path d="M539.924,560.219c-1.059-1.444-3.017-1.62-3.386-1.653c-3.193-0.305-5.56,2.424-6.339,3.322
		c-0.529,0.625-1.243,1.604-1.748,2.937c-0.627,1.637-0.643,3.017-0.643,3.739c-0.016,11.199,0.795,16.078,0.795,16.078
		c0.305,1.829,1.059,6.033,2.623,11.248c0,0,1.637,6.018,5.199,10.655c0.826,1.075,2.937,3.049,3.795,2.647
		c-1.838-4.107-2.816-7.478-3.025-7.959c-0.425-1.043-2.502-7.702-2.863-13.206c-0.555-8.473,0.762-18.261-0.129-25.226
		c0.072-0.08,0.209-0.192,0.369-0.176c1.003,0.016,1.268,3.273,1.372,5.52c0.225,5.039-0.032,8.906-0.208,11.104
		c-0.449,5.585-0.241,7.799,0.152,10.592c1.066,7.541,5.102,18.678,5.447,18.902c0.129,0.096,0.176-1.059,0.305-2.15
		c0,0-0.096-1.957-0.104-2.6c-0.025-6.082-0.746-15.26-0.746-15.26c-0.017-6.996-0.258-11.634-0.129-18.582
		C540.686,568.515,540.63,561.198,539.924,560.219"/>
	<path d="M453.819,581.127c2.856-12.677,5.168-18.421,7.117-22.786c1.604-3.609,7.061-10.879,10.317-15.228
		c0.586-0.771,1.1-1.444,1.484-1.974l-5.528-0.723c-1.26,1.301-9.307,11.169-14.401,24.632c-0.145,0.368-0.272,0.69-0.385,0.962
		c-0.104,0.258-0.192,0.482-0.249,0.643c-0.345,1.011-0.697,2.006-1.051,2.984c-1.557,4.365-3.178,8.874-4.381,17.234
		c-0.554,3.835-0.643,5.327-0.609,5.889C449.19,591.942,452.503,586.952,453.819,581.127"/>
	<path d="M554.776,674.021c-0.563-5.457-3.402-9.211-6.5-12.886c-0.594-0.722-1.074-1.349-1.476-1.958
		c-1.798-2.76-2.647-5.713-2.407-8.296c0.112-1.155,0.449-2.214,0.754-3.146c0.707-2.197,0.658-2.855,0.627-3.401l-0.017-0.208
		c-0.081-1.541-0.642-2.713-0.851-3.162c-0.305-0.625-0.643-1.188-1.02-1.652c-0.225-0.289-0.385-0.24-0.818-0.096
		c-0.176,0.063-0.353,0.128-0.561,0.16c-0.979,0.192-1.975,0.24-2.985,0.112c-0.177-0.017-0.449-0.048-0.746-0.097
		c-0.513-0.064-1.099-0.145-1.412-0.176c-0.008,0-0.024,0-0.032,0c-0.497,0-1.355,1.188-1.645,1.572
		c-0.08,0.111-0.145,0.192-0.176,0.24c-0.258,0.305-0.482,0.754-0.69,1.188c-0.089,0.193-0.177,0.385-0.272,0.562
		c-1.06,1.942-0.811,3.884-0.386,5.681c0.169,0.738,0.369,1.572,0.481,2.504c0.049,0.368,0.096,0.721,0.145,1.074
		c0.417,3.018,0.723,5.199-2.391,7.943c-4.413,3.915-6.314,8.842-6.965,18.164c2.729,0.626,5.697,1.156,8.826,1.572
		c1.42-1.781,2.318-6.53,1.371-10.687c-0.008-0.048-0.729-4.284,0.041-4.541c0.353-0.112,0.577,0.386,0.689,0.642
		c2.183,4.895,2.455,10.318,0.754,14.924l0.129,0.016c0.032,0,2.439,0.305,5.688,0.514c0.097,0.016,0.2,0.016,0.313,0.032
		c-1.637-4.75-1.18-10.271,1.259-15.196c0.128-0.257,0.369-0.754,0.722-0.609c0.755,0.272-0.128,4.492-0.145,4.525
		c-1.146,4.203-0.938,6.996,0.867,11.424c3.289,0.129,6.146,0.098,8.457-0.111l0.016-0.064c0.032-0.337,0.064-0.674,0.112-0.995
		C554.759,677.679,554.967,675.882,554.776,674.021 M536.971,645.729c-0.28,0.723-0.85,1.236-1.074,1.381
		c-0.049,0.016-0.088,0.031-0.137,0.031c-0.088,0-0.168-0.047-0.217-0.128c-0.072-0.112-0.031-0.272,0.088-0.337
		c0.041-0.032,0.121-0.08,0.201-0.16c0.209-0.209,0.498-0.529,0.658-0.963c0.048-0.145,0.096-0.273,0.137-0.418
		c-0.145,0.129-0.346,0.258-0.603,0.369c-0.241,0.097-0.513,0.161-0.866,0.193c-0.049,0-0.08,0-0.129,0
		c-0.152-0.016-0.289-0.097-0.385-0.209c-0.354-0.434-0.498-0.898-0.417-1.348c0.144-0.867,1.026-1.428,1.604-1.797
		c0.248-0.16,0.578-0.097,0.762,0.128c0.072,0.017,0.137,0.048,0.169,0.112C537.526,643.805,537.309,644.815,536.971,645.729
		 M542.949,645.794c0.16,0.434,0.449,0.754,0.665,0.947c0.081,0.08,0.145,0.145,0.192,0.16c0.129,0.08,0.16,0.24,0.089,0.354
		c-0.04,0.08-0.137,0.128-0.217,0.128c-0.048,0-0.097-0.017-0.128-0.032c-0.241-0.145-0.803-0.658-1.076-1.38
		c-0.353-0.915-0.561-1.925,0.193-3.161c0.048-0.064,0.112-0.096,0.176-0.112c0.178-0.225,0.514-0.288,0.771-0.128
		c0.569,0.385,1.452,0.946,1.597,1.797c0.08,0.465-0.064,0.914-0.417,1.348c-0.097,0.129-0.241,0.193-0.386,0.209
		c-0.047,0.016-0.08,0.016-0.128,0.016c-0.345-0.031-0.634-0.112-0.858-0.209c-0.265-0.096-0.465-0.225-0.609-0.353
		C542.852,645.505,542.893,645.649,542.949,645.794"/>
	<path d="M527.375,553.383c0,0,0.971,0.771,1.87,0.786c0.12,0.016,0.232-0.016,0.232-0.016c0.08,0,0.161-0.032,0.233-0.064
		c-2.111-1.444-3.779-3.979-3.635-6.596c0.08-1.604,1.268-2.743,2.021-4.059c0.345-0.61,0.609-1.252,0.617-2.006
		c0.009-0.434-0.353-0.674-0.697-0.674c-0.321,0-0.626,0.191-0.635,0.609c-0.008,0.594-0.232,1.123-0.529,1.621
		c-0.313,0.514-0.713,0.994-1.035,1.476c-0.785,1.155-1.171,2.407-1.059,3.804c0.016,0.24,0.064,0.449,0.097,0.674
		c0.192,1.171,0.602,2.037,0.898,2.551C526.381,552.564,527.087,553.158,527.375,553.383"/>
	<path d="M521.864,632.669c0.778,0.271,1.484,0.641,2.063,1.154c1.171-1.685,5.375-7.782,6.082-9.13
		C527.809,626.378,523.894,630.694,521.864,632.669"/>
	<path d="M525.531,636.536c0.946-0.627,6.515-9.5,6.515-9.5c-1.717,1.139-5.921,5.247-7.67,7.221
		c0.256,0.289,0.481,0.594,0.658,0.931C525.274,635.637,525.418,636.087,525.531,636.536"/>
	<path d="M541.512,636.487l0.145-0.016c0.818-0.064,1.332-0.209,1.573-0.289c-0.241-1.444-1.813-7.991-2.552-9.885
		c-0.609,1.861-1.637,8.264-1.797,9.997c0.385,0.08,1.332,0.177,2.182,0.177L541.512,636.487z"/>
	<path d="M550.378,626.603c0,0,3.675,7.076,5.199,9.355c0.177-0.434,0.369-0.834,0.529-1.14c0.161-0.305,0.369-0.562,0.562-0.818
		c-0.272-0.481-0.642-1.123-1.059-1.845C553.828,630.021,551.533,627.501,550.378,626.603"/>
	<path d="M557.502,633.198c0.547-0.449,1.188-0.771,1.878-0.979c-1.958-2.328-4.942-6.131-6.771-7.783
		c0.497,1.172,3.21,5.938,4.653,8.457C557.342,633.005,557.422,633.102,557.502,633.198"/>
	<path d="M561.643,586.343l1.283-0.546c0,0,4.574-1.621,6.051-2.247c2.133-0.883,6.145-2.872,8.087-4.412
		c5.151-4.076,6.724-9.853,8.247-11.682c5.296-0.338,7.446-2.938,7.783-5.601c0.209-1.589-1.477-5.263-1.012-5.392
		c0,0,5.873-1.3,7.189-3.306c1.941-2.952,0.851-6.739,0.851-6.739c0.08,0,5.167-1.91,2.183-9.34
		c0.609,1.493,12.035,0.289,11.777-0.48c-0.754-2.119-3.771-4.75-6.819-6.611c-3.851-2.359-8.265-2.824-11.088-2.504
		c-3.113,0.369-6.194,0.69-9.131,1.846c-4.3,1.717-6.579,4.862-7.622,9.259c-1.188,4.911-1.188,9.997-1.749,15.02
		c-0.706,6.339-2.519,12.388-7.478,16.736c-3.996,3.515-9.275,6.307-14.57,7.237C557.696,579.763,561.643,586.343,561.643,586.343"
		/>
	<path d="M477.776,537.079c-2.984,7.43,2.103,9.34,2.184,9.34c0,0-1.092,3.787,0.85,6.739c1.316,2.006,7.182,3.306,7.182,3.306
		c0.473,0.129-1.213,3.803-1.012,5.392c0.337,2.663,2.495,5.263,7.791,5.601c1.523,1.829,3.08,7.605,8.248,11.682
		c1.941,1.54,5.953,3.529,8.078,4.412c1.484,0.626,6.059,2.247,6.059,2.247l1.283,0.546c0,0,3.947-6.58,6.018-8.762
		c-5.455-0.963-14.674-5.359-18.678-12.035c-4.02-7.702-4.469-17.234-4.493-17.635c-0.394-6.691-1.444-12.066-1.653-12.613
		c-2.744-7.012-12.98-7.493-15.725-7.814c-2.824-0.32-7.237,0.145-11.088,2.504c-3.058,1.861-6.074,4.492-6.82,6.611
		C465.733,537.368,477.166,538.572,477.776,537.079"/>
	<path d="M582.166,660.91c-0.016-0.032-0.914-1.637-1.99-2.808c-1.588-1.686-3.643-2.809-5.295-3.691
		c-0.449-0.257-0.866-0.481-1.235-0.689c-0.771-0.466-1.749-1.043-2.616-2.07c-1.7-2.006-1.877-4.493-2.021-6.482
		c-0.031-0.546-0.064-1.076-0.08-1.589c-0.049-1.269-0.096-2.455-0.401-3.804c-0.385-1.637-1.026-2.984-1.925-3.979
		c-1.124-1.268-2.616-1.91-4.43-1.91c-0.064,0-0.128,0.016-0.209,0.016l-0.111,0.017c-0.338,0.032-0.674,0.097-0.995,0.192
		c-0.577,0.193-1.155,0.481-1.717,0.883c-0.112,0.08-0.241,0.176-0.337,0.257c-0.097,0.08-0.177,0.16-0.257,0.225l-0.064,0.063
		c-0.225,0.209-0.417,0.402-0.562,0.594c-0.145,0.161-0.225,0.289-0.289,0.418c-0.225,0.32-0.369,0.609-0.465,0.866
		c-0.354,1.06-0.16,2.038,0.064,3.177l0.047,0.241c0.386,1.941,1.926,4.364,2.07,4.558c0.803,1.043,1.637,2.117,2.166,3.369
		c0.738,1.781,0.899,3.658,0.482,5.439c-0.466,2.006-0.803,4.172-1.107,6.082c-0.129,0.786-0.24,1.541-0.354,2.23
		c-0.337,1.99-0.145,4.332,0.529,6.804c0.145,0.497,0.546,1.798,1.221,3.065c1.154,2.166,2.551,4.059,4.139,5.615
		c1.412-0.48,2.953-1.091,4.67-1.845c1.941-0.851,3.771-1.733,5.473-2.583c-0.402-0.369-0.898-0.835-1.412-1.381l-0.129-0.128
		c-1.477-1.54-3.161-3.273-4.605-6.018c-2.23-4.269-1.621-6.611-1.557-6.868c0.016-0.031,0.369-1.203,0.369-1.203l0.338-1.123
		l0.225,1.701c0.031,0.208,0.096,0.689,0.208,1.299c0.61,2.504,2.278,5.296,3.001,6.162c2.311,2.792,4.22,4.718,6.162,6.21
		c0.914-0.513,1.877-1.123,2.951-1.829c-0.641-2.824-1.637-5.969-4.059-8.184c-0.209-0.193-0.979-0.898-0.979-0.898l-0.401-0.338
		l0.466-0.271c0.257-0.145,0.915-0.178,2.343,1.154c1.604,1.509,3.418,5.07,4.141,7.525l0.305-0.208
		c0.433-0.305,0.818-0.562,1.154-0.818c-0.256-1.268-0.561-2.472-0.882-3.466C583.611,663.044,582.182,660.927,582.166,660.91
		 M565.879,640.659c-0.064,0.209-0.289,0.321-0.514,0.273c-0.016,0-0.031,0-0.031-0.017c-0.225-0.08-0.354-0.321-0.273-0.546
		c0.032-0.063,0.064-0.191,0.08-0.336c0.097-0.482,0.16-1.316-0.096-1.99c-0.064-0.16-0.129-0.32-0.193-0.465
		c-0.031,0.336-0.176,0.754-0.545,1.219c0,0,0,0.016-0.016,0.032c-0.017,0.032-0.049,0.064-0.081,0.08
		c-0.112,0.097-0.257,0.145-0.417,0.145c-0.562-0.048-0.979-0.241-1.268-0.594c-0.546-0.69-0.369-1.685-0.257-2.358
		c0.017-0.08,0.048-0.16,0.08-0.225l-0.017-0.017c-0.096,0-0.191-0.016-0.305-0.016c-0.24-0.017-0.433-0.192-0.433-0.434
		s0.208-0.433,0.449-0.433c2.455,0.016,3.306,1.412,3.819,2.76C566.281,638.847,566.056,640.179,565.879,640.659"/>
	<path d="M524.383,453.413l-15.67,24.52l24.824-15.484l6.467,28.289l6.459-28.289l24.824,15.484l-15.662-24.52l28.627-6.402
		l-28.627-6.387l15.662-24.519l-24.824,15.485l-6.459-28.29l-6.467,28.29l-24.824-15.485l15.67,24.519l-28.635,6.387
		L524.383,453.413z M520.259,427.515l15.653,9.772l4.092-17.844l4.076,17.844l15.652-9.772l-9.884,15.469l18.068,4.027
		l-18.068,4.044l9.884,15.469l-15.652-9.772l-4.076,17.844l-4.092-17.844l-15.653,9.772l9.893-15.469l-18.067-4.044l18.067-4.027
		L520.259,427.515z"/>
	<path d="M497.778,258.401c-2.88,0-5.215,2.311-5.215,5.15c0,2.841,2.335,5.151,5.215,5.151c2.881,0,5.224-2.311,5.224-5.151
		C503.001,260.712,500.658,258.401,497.778,258.401"/>
	<path d="M582.44,268.703c2.871,0,5.215-2.311,5.215-5.151c0-2.84-2.344-5.15-5.215-5.15c-2.873,0-5.216,2.311-5.216,5.15
		C577.224,266.393,579.567,268.703,582.44,268.703"/>
	<path d="M540.647,268.703c2.871,0,5.207-2.311,5.207-5.151c0-2.84-2.336-5.15-5.207-5.15c-2.889,0-5.224,2.311-5.224,5.15
		C535.423,266.393,537.758,268.703,540.647,268.703"/>
	<path d="M493.502,310.873c-2.873,0-5.215,2.327-5.215,5.151c0,2.855,2.342,5.166,5.215,5.166c2.88,0,5.215-2.311,5.215-5.166
		C498.717,313.2,496.382,310.873,493.502,310.873"/>
	<path d="M586.403,310.873c-2.873,0-5.215,2.327-5.215,5.151c0,2.855,2.342,5.166,5.215,5.166c2.872,0,5.215-2.311,5.215-5.166
		C591.617,313.2,589.275,310.873,586.403,310.873"/>
	<path d="M540.486,310.873c-2.872,0-5.215,2.327-5.215,5.151c0,2.855,2.343,5.166,5.215,5.166s5.224-2.311,5.224-5.166
		C545.709,313.2,543.358,310.873,540.486,310.873"/>
	<polygon points="362.498,452.13 365.067,445.583 365.861,443.562 363.815,442.791 360.164,441.396 358.126,440.608 357.332,442.63 
		354.764,449.161 346.243,445.903 344.205,445.134 343.42,447.14 341.55,451.921 340.756,453.927 342.801,454.714 351.315,457.971 
		348.474,465.224 347.688,467.245 349.726,468.017 353.385,469.428 355.422,470.198 356.208,468.192 359.049,460.923 
		365.981,463.571 368.019,464.357 368.805,462.335 370.674,457.569 371.469,455.548 369.431,454.777 	"/>
	<polygon points="716.828,461.661 717.373,463.747 719.491,463.218 726.68,461.372 728.461,468.16 729.007,470.263 731.125,469.717 
		734.928,468.754 737.047,468.208 736.869,467.566 736.934,467.551 736.324,465.433 734.719,459.319 743.561,457.056 
		745.68,456.511 745.134,454.425 743.834,449.466 743.288,447.38 741.17,447.926 732.328,450.188 730.356,442.646 729.793,440.561 
		727.692,441.09 723.889,442.069 721.77,442.614 722.316,444.7 724.289,452.242 717.117,454.071 714.983,454.617 715.544,456.703 	
		"/>
	<path d="M522.265,636.841c-0.714-1.107-2.069-1.813-3.715-1.975c-0.208-0.031-0.44-0.031-0.626-0.031
		c-0.746,0-1.468,0.128-2.158,0.369l-0.145,0.048c-0.064,0.017-0.128,0.032-0.192,0.063c-0.923,0.386-2.206,0.915-3.515,2.761
		c-0.874,1.235-0.906,2.311-0.979,4.638l-0.023,0.946c-0.032,0.818-0.016,1.171,0,1.46c0.016,0.305,0.031,0.563-0.016,1.172
		c-0.145,1.989-0.322,4.461-2.006,6.467c-1.252,1.492-3.018,2.423-4.719,3.321c-1.275,0.674-2.591,1.364-3.658,2.278
		c-1.46,1.252-2.68,2.937-3.707,5.119c-0.705,1.477-1.203,2.969-1.557,4.573c0.402,0.257,0.787,0.481,1.188,0.69
		c0.241,0.145,0.482,0.272,0.723,0.416c0.562-2.438,2.575-6.547,4.316-8.167c1.428-1.332,2.086-1.284,2.343-1.155l0.466,0.257
		l-1.381,1.251c-2.358,2.15-3.554,5.857-4.147,8.569c-0.009,0.017-0.009,0.032-0.009,0.063c0.907,0.434,1.861,0.867,2.889,1.284
		c0.257,0.097,0.506,0.209,0.754,0.306l0.121,0.047c1.58-1.251,3.201-2.951,5.576-5.809c0.722-0.866,2.391-3.658,3-6.161
		c0.113-0.626,0.177-1.091,0.209-1.3l0.225-1.717l0.337,1.123c0,0,0.345,1.155,0.369,1.219c0.081,0.258,0.675,2.6-1.564,6.869
		c-1.437,2.743-3.121,4.477-4.597,6.017l-0.129,0.128c-0.24,0.241-0.449,0.466-0.658,0.675l0.754,0.272
		c0.578,0.225,1.156,0.418,1.701,0.609c0.563,0.193,1.067,0.354,1.557,0.498c0.995,0.32,1.877,0.562,2.904,0.85
		c1.075,0.306,2.279,0.643,3.844,1.124c1.323-1.845,2.223-3.579,2.744-5.312c0.641-2.102,0.826-4.445,0.577-7.188
		c-0.217-2.343-0.666-4.862-1.452-8.185c-0.418-1.78-0.24-3.674,0.498-5.439c0.513-1.268,1.348-2.342,2.158-3.385
		c0.152-0.193,0.313-0.402,0.473-0.61l0.096-0.128C523.694,642.393,523.516,638.782,522.265,636.841 M517.275,639.552
		c-0.185,0.418-0.538,0.738-1.067,0.915c-0.145,0.048-0.289,0.048-0.426-0.017c-0.039-0.016-0.071-0.047-0.104-0.063
		c-0.016-0.017-0.023-0.017-0.032-0.017c-0.474-0.369-0.722-0.722-0.858-1.043c-0.023,0.161-0.04,0.338-0.057,0.514
		c-0.048,0.674,0.209,1.461,0.449,1.941c0.064,0.129,0.129,0.225,0.178,0.305c0.136,0.193,0.096,0.45-0.098,0.594
		c-0.08,0.049-0.176,0.081-0.256,0.081c-0.145,0-0.273-0.064-0.354-0.177c-0.305-0.417-0.883-1.637-0.786-2.824
		c0.112-1.443,0.554-3,2.921-3.674c0.232-0.064,0.465,0.063,0.537,0.288s-0.072,0.466-0.297,0.53
		c-0.104,0.031-0.192,0.08-0.289,0.111l-0.008,0.016c0.057,0.049,0.112,0.113,0.152,0.193
		C517.17,637.835,517.604,638.75,517.275,639.552"/>
</g>
</svg>
