<?xml version="1.0" encoding="utf-8"?>
<!-- Generator: Adobe Illustrator 16.0.0, SVG Export Plug-In . SVG Version: 6.00 Build 0)  -->
<!DOCTYPE svg PUBLIC "-//W3C//DTD SVG 1.1//EN" "http://www.w3.org/Graphics/SVG/1.1/DTD/svg11.dtd">
<svg version="1.1" id="Camada_1" xmlns="http://www.w3.org/2000/svg" xmlns:xlink="http://www.w3.org/1999/xlink" x="0px" y="0px"
	 width="1080px" height="1080px" viewBox="0 0 1080 1080" enable-background="new 0 0 1080 1080" xml:space="preserve">
<g>
	<path fill="#4A4A4A" d="M643.567,907.99c6.5,0,11.412-5.07,11.412-11.813c0-6.604-4.391-11.221-10.68-11.221h-0.141
		c-4.859,0-11.725,3.676-11.725,11.813C632.434,905.064,638.428,907.99,643.567,907.99"/>
	<path fill="#4A4A4A" d="M357.172,895.359c-2.474,0.33-3.901,1.148-3.901,4.408v41.766c0,27.18-9.889,30.857-19.549,30.857
		c-8.521,0-19.847-3.102-19.847-29.83v-38.35c0-7.006-0.332-9.445-3.981-9.445c-3.397,0-15.332,0.732-18.391,1.186l-0.523,0.088
		l0.052,0.521c0.297,3.137,0.445,9.357,0.445,19.063v27.842c0,31.73,13.407,47.828,39.855,47.828
		c18.802,0,41.208-8.764,41.208-50.51v-21.188c0-12.842,0.157-18.609,0.437-24.254l0.033-0.576h-0.573
		C369.534,894.766,361.686,894.922,357.172,895.359"/>
	<path fill="#4A4A4A" d="M440.475,908.463c8.678,0,15.351,2.297,18.547,3.658l0.148,0.053c2.318,0.295,4.462-0.42,6.187-2.074
		c2.239-2.125,3.502-5.68,3.223-9.043l-0.018-0.191l-0.122-0.141c-2.29-2.561-13.173-7.598-27.965-7.598
		c-32.799,0-53.996,18.594-53.996,47.359c0,30.857,21.021,50.807,53.56,50.807c9.393,0,16.972-4.859,21.05-7.473l0.539-0.33
		l0.078-0.07c2.973-2.789,4.922-7.547,5.533-13.383l0.034-0.383l-1.132-0.559l-1.15,0.332c-3.833,1.08-10.96,3.102-20.334,3.102
		c-20.926,0-34.447-13.084-34.447-33.367C410.21,913.793,426.676,908.463,440.475,908.463"/>
	<path fill="#4A4A4A" d="M615.114,951.672l-7.16-51.537l0,0c-0.592-3.957-1.553-5.369-3.678-5.369c-3.762,0-16.01,0.838-18.59,2.457
		l-0.262,0.156v2.127c-6.168,14.896-15.002,36.99-21.188,53.629l-18.992-50.736c-2.16-6.17-3.162-7.824-6.027-7.633
		c-7.633,0-13.278,1.238-17.398,2.127l-1.683,0.365l0.349,2.789c-4.182,25.246-8.146,50.721-11.046,69.328
		c-0.984,6.359-1.83,11.795-2.492,15.924l-0.052,0.385l0.331,0.191c2.499,1.395,10.812,4.078,15.611,4.078
		c2.091,0,2.928-3.225,3.38-5.682c2.048-16.727,5.28-47.061,6.893-64.676c2.587,8.275,6.124,19.445,9.556,30.281
		c4.949,15.596,9.6,30.318,11.361,36.119l0.121,0.385h0.4c2.943,0,6.43-0.385,10.68-1.186c3.887-0.783,5.418-2.072,6.518-5.559
		c7.404-22.18,15.402-46.398,19.602-60.25l2.857,30.787c1.395,15.697,2.281,24.307,2.979,31.225l0.141,1.375
		c0.313,3.398,2.527,7.18,5.018,7.18c2.98,0,12.127-2.58,16.047-3.678l1.709-0.488l-0.088-0.488
		C618.686,977.373,616.996,965.75,615.114,951.672"/>
	<path fill="#4A4A4A" d="M652.539,918.898c-3.641,0-14.408,0.906-18.311,1.951l-0.453,0.121l0.051,0.471
		c0.246,2.406,0.594,6.744,0.594,16.535v25.336c0,7.943-0.262,18.207-0.4,24.322l-0.07,2.318h0.574
		c7.807,0,13.242-0.193,16.135-0.592c4.096-0.473,5.559-3.975,5.559-7.094v-53.473C656.217,920.381,655.676,918.898,652.539,918.898
		"/>
	<path fill="#4A4A4A" d="M736.924,963.451v-17.477c0-18.295-7.963-27.965-23.035-27.965c-7.266,0-14.113,4.426-19.916,8.922
		c-1.531-5.924-4.947-8.922-10.156-8.922c-5.82,0-11.535,4.809-13.033,9.113l-0.035,1.672l0.262,0.156
		c2.02,1.256,2.561,2.752,2.561,6.953v24.15c0,7.822-0.121,19.914-0.434,29.34l-0.02,0.559h0.576c3.92,0,7.422-1.045,10.785-2.055
		c2.283-0.682,4.426-1.326,6.707-1.674c3.643-0.471,4.201-1.377,4.201-4.252v-44.014c2.979-2.107,5.539-3.588,10.314-3.588
		c5.539,0,9.426,4.652,9.426,11.309v37.932c0,2.631,1.236,6.342,3.973,6.342c4.791,0,9.285-1.43,12.875-2.58
		c1.988-0.627,3.695-1.184,4.896-1.289l0.523-0.035l-0.018-0.541C737.098,980.248,736.924,971.588,736.924,963.451"/>
	<path fill="#4A4A4A" d="M811.287,972.268c-0.521,0.123-1.566,0.123-2.246,0.123c-3.277,0-4.811-1.709-4.811-2.859
		c0-5.557,0.193-11.063,0.35-15.924c0.139-3.852,0.244-7.18,0.244-9.863c0-17.771-12.91-25.734-25.701-25.734
		c-10.279,0-21.361,5.035-28.313,9.723l-0.229,0.158l-0.016,0.295c-0.053,1.863,0.139,6.447,3.102,8.799
		c1.689,1.342,3.938,1.656,6.76,0.906l0.385-0.174c2.91-1.307,7.77-3.484,12.492-3.484c6.447,0,10.611,3.727,10.611,9.512v1.324
		c-1.727,0.314-4.672,0.854-7.145,1.254c-10.035,2.145-28.732,6.152-28.732,22.025c0,11.777,9.428,22.494,19.76,22.494
		c6.168,0,11.865-5.018,16.691-10.123c2.125,4.078,6.395,10.123,13.084,10.123c10.752,0,14.551-9.41,14.551-17.461l-0.297-1.252
		L811.287,972.268z M783.619,965.838c0,2.387-0.348,3.832-1.133,4.758c-1.916,1.602-3.328,2.09-6.045,2.09
		c-3.887,0-7.789-2.213-7.789-7.16v-0.141c0-1.742,1.098-7.457,14.967-9.025V965.838z"/>
	<path fill="#4A4A4A" d="M856.364,947.857h-0.018c-1.01-0.506-2.387-1.15-3.869-1.865c-2.908-1.377-6.203-2.928-7.857-3.902
		c-2.963-1.777-4.791-2.979-4.791-5.297c0-2.422,2.404-4.043,5.994-4.043c3.172,0,6.621,0.768,9.756,2.178l0.176,0.035
		c2.004,0.158,3.729-0.453,5.105-1.813c2.475-2.457,3.135-6.621,2.945-9.443l-0.02-0.262l-0.209-0.139
		c-5.018-3.607-10.574-5.297-17.459-5.297h-0.139c-12.457,0-25.875,6.951-25.875,22.197c0,7.18,3.852,13.574,10.578,17.512
		c2.002,1.045,3.953,2.039,5.871,3.014c1.951,0.977,3.867,1.953,5.732,2.91c3.973,2.143,4.773,3.658,4.773,5.438
		c0,2.717-2.51,4.355-6.742,4.355c-7.369,0-14.637-4.146-16.674-5.402l-0.367-0.227l-0.295,0.279
		c-2.16,2.021-4.355,6.1-4.355,10.035c0,3.033,2.158,4.793,4.301,6.117l1.256,0.73c4.182,2.492,9.914,5.873,14.793,5.873
		c13.957,0,28.4-9.584,28.4-25.613C867.375,957.65,863.768,951.969,856.364,947.857"/>
	<path fill="#4A4A4A" d="M239.057,894.975c-11.169,0-21.832,1.186-25.936,1.951l-0.497,0.088l0.053,0.506
		c0.592,6.848,0.592,12.998,0.592,20.125v67.725c0,2.859,1.464,5.924,4.165,5.924c4.076,0,15.611-0.434,18.47-1.219l0.426-0.121
		l-0.025-0.436c-0.297-5.977-0.444-12.789-0.444-20.299v-10.611c4.26,0.365,9.121-0.609,12.379-1.273
		c13.311-2.664,22.615-8.797,27.651-18.223c2.499-4.688,3.833-9.984,3.833-15.334C279.723,898.461,260.174,894.975,239.057,894.975
		 M241.165,941.166c-0.559,0-2.953-0.105-5.305-0.191v-31.537c1.516-0.209,3.301-0.209,4.399-0.209
		c7.971,0,16.116,1.689,16.116,14.254C256.376,938.867,246.845,941.166,241.165,941.166"/>
	<path fill="#4A4A4A" d="M771.823,855.494c14.463,0,26.957-7.301,40.215-15.037c14.74-8.625,29.969-17.529,49.676-17.529
		c2.178,0,4.146-1.289,5.035-3.275s0.506-4.303-0.939-5.924l-22.426-24.777l15.873-34.551c0.818-1.795,0.609-3.902-0.539-5.523
		c-1.168-1.604-3.102-2.457-5.229-2.229c-5,0.521-27.6,3.797-42.479,14.164c-0.07-20.055-1.254-29.445-1.271-29.586
		c-0.018-0.104-0.037-0.227-0.037-0.332c0-5.887-11.689-7.037-11.811-7.037c-19.604-1.586-40.129,0.906-62.744,7.648
		c-20.299,6.047-40.336,14.846-59.729,23.348c-9.043,3.973-18.4,8.084-27.74,11.883c-34.324,13.973-68.475,20.77-104.402,20.77
		c-35.917,0-70.06-6.797-104.385-20.77c-9.253-3.762-18.609-7.875-27.651-11.848l-0.14-0.053
		c-19.375-8.504-39.413-17.301-59.687-23.33c-22.658-6.742-43.183-9.252-62.733-7.648c-0.122,0.016-11.831,1.15-11.831,7.037
		c0,0.105,0,0.229-0.017,0.35c-0.017,0.123-1.411,10.717-1.29,34.203c-16.378-12.094-48.786-15.734-50.162-15.891
		c-1.551-0.156-3.085,0.523-3.999,1.777c-0.914,1.271-1.072,2.945-0.427,4.355l16.918,36.799l-23.976,26.484
		c-1.148,1.271-1.446,3.102-0.749,4.67c0.705,1.568,2.266,2.578,3.982,2.578c20.882,0,36.91,9.375,52.418,18.416
		c13.609,7.965,26.468,15.475,41.156,15.475c19.235,0,28.444-9.148,29.045-18.227c0.035-0.697,0.018-1.377-0.034-2.055
		c0.087-1.029,0.156-2.283,0.191-3.084c0.4-7.615,1.132-18.73,1.395-27.113c0.261-2.908,0.47-5.645,0.47-8.066
		c14.304,4.426,27.991,9.775,40.771,14.967c49.013,19.934,101.807,39.395,160.716,39.395c26.17,0,53.057-3.832,82.17-11.725
		c27.949-7.58,55.408-18.244,78.6-27.67c12.424-5.053,25.734-10.244,39.553-14.582c-0.07,1.881-0.191,4.232-0.35,6.881
		c-0.313,5.803-0.697,12.857-0.559,18.559c-0.139,3.604-0.139,8.623-0.086,9.338c0.35,5.193,3.381,10.088,8.346,13.434
		C756.108,853.646,763.338,855.494,771.823,855.494 M809.651,800.695c0,0,5.4,9.025-21.553,16.535
		c-3.59,0.889-7.719,1.846-12.51,2.963c-0.156,0.033-0.314,0.068-0.473,0.088c-1.078,0.225-2.195,0.451-3.361,0.66
		c-6.795,1.273-24.674,5.908-24.674,5.908c0.088-11.047,0.838-16.482,1.135-26.311c0.73-0.227,1.48-0.453,2.23-0.68
		c5.086-1.463,10-2.717,14.809-3.711c20.543-4.287,34.482-5.402,41.383,0.662C807.856,797.873,808.883,799.146,809.651,800.695
		 M326.663,851.016c-5.575,2.754-12.16,3.17-18.276,2.857c-29.358-1.516-48.552-33.592-89.35-33.592l23.905-27.461l-16.64-39.047
		c0,0,19.864,4.355,26.501,6.604c8.408,2.822,19.376,6.795,22.791,9.723c0.035,2.857,0.087,5.924,0.182,9.131
		c0.011,1.148,0.037,2.316,0.063,3.502c0.052,3.344,0.069,7.004,0.209,10.488c-1.343,1.15-2.849,2.805-3.678,5.176
		c-1.812,5.158-0.321,10.75,2.945,15.002c4.304,5.592,12.11,8.082,18.53,10.314c8.017,2.787,16.266,4.896,24.638,6.291
		c6.072,1.027,14.794,2.752,15.604,10.244C334.626,845.162,330.759,848.994,326.663,851.016 M336.125,831.691
		c-1.629-1.742-3.737-3.102-6.202-3.938c-0.872-0.383-1.839-0.68-2.893-0.871c-12.058-2.301-25.248-5.609-35.005-9.408
		c-6.107-2.369-10.872-4.932-13.181-7.563c-2.501-2.822-2.693-5.785-2.693-5.785c-0.033-0.557-0.008-1.08,0.053-1.549
		c0.167-1.324,0.611-2.318,0.802-2.736c1.935-4.113,6.752-5.889,9.113-6.656c2.309-0.436,4.773-0.66,7.29-0.66
		c0.707,0,1.377,0.016,2.015,0.051c12.807,0.715,26.117,3.102,40.701,7.283c0.724,0.209,1.429,0.453,2.16,0.662
		C338.199,805.504,337.806,812.578,336.125,831.691 M702.633,813.137c-23.086,9.373-50.424,19.984-78.162,27.512
		c-28.818,7.807-55.373,11.605-81.213,11.605c-58.23,0-110.641-19.324-159.332-39.117c-14.54-5.924-30.274-12.059-46.792-16.814
		c-4.625-1.324-9.129-2.475-13.537-3.449c-8.085-1.795-15.848-3.016-23.418-3.66c-4.112-0.486-7.938-0.678-11.344-0.471
		c-3.483,0.193-6.516,0.82-8.973,1.969c-1.708-40.648,0.601-58.803,0.628-58.979c0.035-0.279,0.053-0.559,0.053-0.838
		c0-1.34,4.825-3.064,8.432-3.361c19.167-1.551,39.238,0.906,61.384,7.51c20.073,5.977,40.015,14.723,59.311,23.191l0.106,0.053
		c9.059,3.971,18.426,8.084,27.729,11.865c34.77,14.166,69.373,21.047,105.789,21.047c36.398,0,71.002-6.881,105.779-21.047
		c9.305-3.781,18.662-7.895,27.688-11.865l0.139-0.053c19.289-8.469,39.223-17.215,59.293-23.191
		c22.18-6.604,42.254-9.061,61.402-7.51c3.52,0.297,8.432,2.039,8.432,3.361c0,0.262,0.018,0.541,0.053,0.82
		c0.018,0.139,1.377,10.682,1.254,33.785c-0.053,7.266-0.225,15.75-0.645,25.561c-0.521-0.191-1.01-0.367-1.48-0.559
		c-1.689-0.645-3.225-1.236-4.932-1.498c-2.961-0.715-6.793-0.748-10.592-0.748c-9.096,0.557-19.951,2.84-32.373,5.957
		c-2.598,0.662-5.213,1.344-7.877,2.109C732.949,801.078,717.199,807.213,702.633,813.137 M747.188,837.773
		c-0.611-3.432,0.781-6.43,3.988-7.807c1.918-0.836,6.848-2.264,8.816-2.631c7.039-1.324,42.236-8.311,50.232-15.611
		c4.723-4.303,6.83-11.865,1.377-16.656c-0.418-0.367-0.889-0.715-1.098-1.236c-0.139-0.385-0.139-0.803-0.123-1.205
		c0.246-9.041,0.576-18.102,0.629-27.146c14.428-9.65,36.502-14.391,41.434-14.912c0.992-0.088,2.004,0.348,2.613,1.166
		c0.592,0.838,0.697,1.916,0.279,2.84l-17.721,35.092l23.348,24.15c0.75,0.818,0.941,2.02,0.488,3.049
		c-0.453,1.027-1.48,1.689-2.596,1.689c-20.422,0-32.688,7.945-47.74,16.727c-12.912,7.545-25.109,14.689-38.838,14.689
		c-7.963,0-14.672-1.691-19.395-4.879C750.252,843.314,747.76,841.014,747.188,837.773"/>
	<path fill="#4A4A4A" d="M337.744,777.818c-0.521-0.156-0.8-0.227-1.332-0.383c-0.243,5.156-1.472,6.115-4.26,5.365
		c-2.16-0.592-3.258-0.871-5.489-1.445c-2.492-0.627-3.188-0.906-3.223-4.635c-0.062-5.941-0.018-8.973,0.035-15.002
		c2.457,0.592,3.658,0.889,6.036,1.516c2.954,0.768,3.974,3.24,3.964,6.883c0.541,0.139,0.812,0.209,1.343,0.367
		c0.026-5.646,0.07-8.486,0.07-14.133c-0.524-0.156-0.802-0.227-1.343-0.383c-0.296,2.143-0.617,4.982-4.007,4.094
		c-2.379-0.627-3.573-0.939-6.028-1.516c0.051-5.383,0.077-8.084,0.018-13.381c-0.036-3.189,0.609-3.311,3.102-2.684
		c1.542,0.4,2.308,0.592,3.832,0.994c3.206,0.871,5.245,2.855,5.278,8.223c0.524,0.158,0.793,0.227,1.325,0.385
		c-0.087-3.99-0.14-5.977-0.33-9.932c-9.026-2.666-13.748-3.852-23.976-5.75c0.018,0.557,0.034,0.836,0.044,1.41
		c4.939,1.898,5.087,1.936,5.113,8.539c0.069,14.32-0.452,22.006,0.018,35.963c8.303,1.916,12.241,2.961,19.863,5.174
		C337.719,783.621,337.719,781.686,337.744,777.818"/>
	<path fill="#4A4A4A" d="M365.222,752.605c-1.238-0.559-1.855-0.836-3.102-1.393c-2.587,5.959-4.008,8.799-6.917,14.6
		c-2.569-8.031-3.843-12.092-6.665-20.246c-3.337-1.289-5.044-1.916-8.512-3.117c0,0.592-0.008,0.889-0.017,1.463
		c3.728,2.107,4.199,3.258,5.731,7.754c2.309,6.9,3.39,10.332,5.594,17.18c-4.024,7.684-6.159,11.654-10.071,19.566
		c1.307,0.453,1.952,0.662,3.224,1.113c3.188-6.725,4.913-10.068,8.224-16.604c2.771,8.869,4.147,13.225,7.18,22.318
		c2.195,0.838,3.292,1.273,5.462,2.145c-3.781-11.309-5.462-16.605-8.912-27.598C360.144,762.92,361.965,759.645,365.222,752.605"/>
	<path fill="#4A4A4A" d="M393.204,768.48c3.765,1.846,4.724,6.76,4.948,8.938c2.022,0.975,3.032,1.463,5.072,2.422
		c-0.524-5.264-3.241-11.188-9.705-14.375c-9.234-4.549-11.334,4.826-11.457,16.465c-0.148,14.096,3.267,24.41,11.997,28.035
		c4.207,1.76,7.656,1.342,8.721,1.115c-0.027-1.725-0.044-2.561-0.063-4.217c-1.104,0.768-3.692,2.004-7.404,0.471
		c-8.206-3.434-8.712-17.895-8.66-24.881C386.689,776.023,387.526,765.691,393.204,768.48"/>
	<path fill="#4A4A4A" d="M418.225,773.637c-9.756-4.32-11.943,3.537-11.848,16.361c0.088,12.736,3.014,22.824,12.527,26.449
		c9.392,3.588,12.354-4.355,12.196-16.311C430.936,788.01,427.582,777.783,418.225,773.637 M418.835,813.275
		c-6.847-2.631-7.613-13.904-7.683-21.205c-0.069-7.963,0.173-18.346,7.144-15.262c6.83,3.031,7.527,13.867,7.631,21.344
		C426.032,805.451,425.84,815.941,418.835,813.275"/>
	<path fill="#4A4A4A" d="M459.955,800.922c-0.033-10.211-10.872-14.479-14.748-15.82c-5.088-1.777-7.536-2.701-12.292-4.564
		c0,0.609,0.007,0.889,0.017,1.479c4.513,2.771,4.67,3.051,4.757,8.992c0.156,12.91,0.174,16.918,0.383,31.59
		c2.144,0.715,3.223,1.08,5.418,1.777c-0.086-8.502-0.121-11.744-0.182-18.609c1.254,0.418,1.881,0.627,3.153,1.045
		c3.685,8.016,5.559,11.709,9.295,21.311c2.44,0.715,3.521,1.01,5.854,1.637c-3.771-10.035-5.619-13.783-9.53-22.127
		C456.253,808.223,459.973,807.422,459.955,800.922 M446.19,804.164c-1.176-0.385-1.76-0.594-2.91-0.977
		c-0.033-3.92-0.052-5.855-0.096-10.105c-0.044-4.305-0.096-5.594,3.39-4.391c4.373,1.498,7.771,4.738,7.771,10.906
		C454.362,805.975,449.519,805.262,446.19,804.164"/>
	<path fill="#4A4A4A" d="M477.501,794.266c-5.768-1.166-8.607-1.828-14.147-3.346c0.008,0.594,0.008,0.908,0.008,1.482
		c4.609,2.266,4.793,2.543,4.826,8.396c0.079,12.67,0.132,16.102,0.202,30.859c3.057,0.75,4.599,1.098,7.683,1.76
		c10.071,2.125,18.888,0.383,18.869-16.537C494.925,801.723,487.38,796.287,477.501,794.266 M477.598,830.594
		c-3.573-0.748-3.582-2.525-3.59-4.877c-0.079-11.082-0.132-14.498-0.201-25.701c-0.018-2.873,1.203-3.102,4.234-2.492
		c9.782,1.969,11.028,9.131,11.063,18.609C489.157,826.936,487.032,832.529,477.598,830.594"/>
	<path fill="#4A4A4A" d="M496.596,799.18c4.923,1.742,5.089,2.039,4.915,7.893c-0.367,12.721-0.454,15.994-0.897,30.928
		c8.406,1.186,12.641,1.602,21.169,2.16c0.253-4.061,0.375-5.871,0.602-9.287c-0.602-0.035-0.906-0.051-1.497-0.104
		c-0.541,4.582-2.058,5.992-5.105,5.73c-2.371-0.191-3.546-0.313-5.908-0.557c-2.655-0.277-3.336-0.609-3.223-4.043
		c0.191-5.453,0.261-7.752,0.428-12.527c2.604,0.279,3.911,0.42,6.524,0.662c3.25,0.279,4.373,2.039,4.233,5.002
		c0.61,0.051,0.915,0.07,1.517,0.121c0.217-4.617,0.313-6.725,0.522-11.395c-0.61-0.035-0.923-0.053-1.532-0.105
		c-0.401,1.814-0.89,4.182-4.636,3.852c-2.622-0.244-3.929-0.367-6.543-0.662c0.149-4.287,0.219-6.379,0.384-11.291
		c0.096-2.963,0.819-3.225,3.563-2.963c1.707,0.176,2.561,0.244,4.277,0.385c3.633,0.279,5.88,1.969,5.663,6.691
		c0.617,0.033,0.933,0.051,1.542,0.086c0.104-3.484,0.157-5.332,0.278-9.479c-10.62-0.574-15.907-1.08-26.24-2.596
		C496.615,798.291,496.615,798.588,496.596,799.18"/>
	<path fill="#4A4A4A" d="M543.17,803.918c5.072,0.836,5.211,1.133,4.949,7.092c-0.574,12.912-0.801,16.031-1.43,31.346
		c8.607-0.365,12.93-0.697,21.553-1.689c0.279-4.182,0.42-6.029,0.664-9.514c-0.609,0.07-0.906,0.105-1.516,0.174
		c-0.576,4.723-2.109,6.43-5.193,6.727c-2.404,0.227-3.605,0.313-6.012,0.504c-2.699,0.193-3.396-0.016-3.24-3.52
		c0.279-5.559,0.4-7.857,0.645-12.684c2.648-0.191,3.955-0.279,6.604-0.523c3.275-0.297,4.375,1.273,4.199,4.268
		c0.609-0.051,0.906-0.086,1.516-0.156c0.279-4.668,0.4-6.777,0.662-11.498c-0.609,0.053-0.922,0.086-1.531,0.156
		c-0.42,1.9-0.941,4.338-4.705,4.686c-2.648,0.246-3.955,0.332-6.604,0.525c0.209-4.322,0.33-6.449,0.557-11.447
		c0.156-3.016,0.889-3.416,3.643-3.643c1.707-0.139,2.561-0.209,4.285-0.385c3.607-0.348,5.818,0.977,5.559,5.768
		c0.627-0.068,0.924-0.104,1.533-0.174c0.121-3.537,0.191-5.4,0.35-9.652c-10.455,1.273-15.787,1.691-26.434,2.092
		C543.207,802.996,543.19,803.309,543.17,803.918"/>
	<path fill="#4A4A4A" d="M590.127,799.58c4.793-0.922,5.664,3.346,5.838,5.297c2.51-0.541,3.746-0.82,6.236-1.393
		c-0.4-4.74-3.258-8.955-11.445-7.354c-11.727,2.299-15.369,13.154-15.943,23.191c-0.715,12.145,3.102,21.1,14.184,19.078
		c5.35-0.975,9.791-3.902,11.168-4.914c0.07-1.795,0.105-2.648,0.158-4.303c-1.432,1.533-4.811,4.652-9.498,5.541
		c-10.418,1.969-10.348-11.535-10.018-17.652C581.137,811.465,582.897,800.975,590.127,799.58"/>
	<path fill="#4A4A4A" d="M619.278,792.297c4.408-1.377,5.367,2.805,5.611,4.738c2.246-0.783,3.361-1.166,5.627-1.967
		c-0.574-4.688-3.293-8.678-10.768-6.291c-10.697,3.398-14.025,14.67-14.357,24.707c-0.383,12.18,3.607,20.787,14.602,17.617
		c5.314-1.535,8.867-4.688,10.053-5.785c0-1.832,0-2.701-0.016-4.375c-1.221,1.656-3.746,4.914-8.363,6.291
		c-10.281,3.049-10.664-10.473-10.541-16.57C611.246,805.051,612.656,794.371,619.278,792.297"/>
	<path fill="#4A4A4A" d="M654.405,808.484c0.086,5.836-2.578,7.49-5.592,8.641c-1.656,0.629-2.475,0.941-4.113,1.551
		c-3.205,1.186-3.188,0.941-3.24-3.814c-0.141-14.236-0.436-17.023-0.541-33.473c-3.92,2.127-5.889,3.172-9.809,5.211
		c0,0.629,0,0.941,0,1.551c4.549-0.697,4.688-0.453,4.758,4.67c0.172,13.207,0.416,16.133,0.4,32.287
		c7.719-2.666,11.604-4.148,19.426-7.197c0.053-4.408,0.053-6.344,0.053-9.967C655.207,808.152,654.946,808.275,654.405,808.484"/>
	<path fill="#4A4A4A" d="M679.721,798.186c-0.121,4.984-1.445,7.162-4.217,8.295c-2.143,0.889-3.223,1.324-5.383,2.213
		c-2.422,0.977-3.031,0.957-3.102-2.701c-0.105-5.836-0.209-8.225-0.418-13.102c2.316-0.941,3.467-1.412,5.785-2.371
		c2.875-1.184,4.023,0.07,4.164,3.137c0.539-0.227,0.818-0.332,1.357-0.557c-0.225-4.773-0.363-6.865-0.627-11.465
		c-0.521,0.225-0.801,0.33-1.322,0.557c-0.193,1.916-0.402,4.426-3.695,5.785c-2.316,0.939-3.467,1.41-5.768,2.352
		c-0.209-4.322-0.313-6.395-0.488-11.238c-0.104-2.928,0.506-3.502,2.857-4.426c1.463-0.576,2.197-0.869,3.676-1.445
		c3.102-1.238,5.125-0.541,5.367,4.008c0.541-0.209,0.803-0.316,1.344-0.523c-0.244-3.346-0.367-5.088-0.576-8.99
		c-9.008,3.482-13.504,5.262-22.459,8.711c0,0.609,0.018,0.924,0.018,1.516c4.338-0.645,4.477-0.418,4.668,5.438
		c0.438,12.701,0.838,15.854,0.873,32.129c7.719-3.084,11.586-4.688,19.373-7.875c0.02-4.426,0-6.359-0.068-10.002
		C680.539,797.855,680.262,797.961,679.721,798.186"/>
	<path fill="#4A4A4A" d="M689.375,771.771c-0.262-3.729,1.672-6.516,4.197-7.475c3.693-1.41,7.336-0.836,8.678-0.574
		c-0.121-1.691-0.191-2.563-0.314-4.408c-1.236,0.139-4.373,0.451-7.631,1.672c-6.674,2.51-10.455,8.363-10.07,14.496
		c0.732,11.762,16.465,3.486,16.953,13.453c0.279,5.594-2.752,8.955-5.838,10.211c-3.902,1.584-7.857,0.225-9.408-0.332
		c0.07,2.141,0.088,3.258,0.123,5.662c1.027-0.053,4.791,0.018,8.572-1.516c6.742-2.736,12.301-9.67,11.795-18.139
		C705.682,772.172,689.932,780.449,689.375,771.771"/>
	<path fill="#4A4A4A" d="M705.44,758.355c0.033,0.541,0.051,0.801,0.086,1.324c4.67-0.904,4.811-0.748,5.227,3.797
		c1.082,11.711,1.883,15.02,2.18,31.434c2.16-0.818,3.24-1.219,5.383-2.02c-0.385-20.752-1.777-22.723-2.979-39.484
		C711.364,755.342,709.393,756.334,705.44,758.355"/>
	<path fill="#4A4A4A" d="M738.108,747.467c-3.623,1.078-7.613,1.637-11.221,2.785c0.035,0.525,0.053,0.768,0.105,1.273
		c1.951-0.279,3.746-0.732,3.955,1.447c0.053,0.381-0.295,2.422-0.488,3.396c-2.578,12.668-3.625,16.779-7.178,34.727
		c1.201-0.436,1.813-0.645,3.031-1.063c1.342-6.832,1.916-9.672,3.014-14.969c4.967-1.689,7.459-2.508,12.439-4.008
		c1.865,4.357,2.756,6.744,4.34,12.703c2.039-0.576,3.049-0.855,5.07-1.377C744.049,763.723,742.883,760.307,738.108,747.467
		 M729.918,772.139c1.516-7.127,3.189-11.762,4.566-18.506c2.752,5.682,4.303,9.254,6.221,15.02
		C736.383,769.977,734.24,770.674,729.918,772.139"/>
	<path fill="#4A4A4A" d="M753.354,750.15c1.344,10.889,2.354,14.479,2.613,31.031c7.756-1.848,11.623-2.615,19.324-3.643
		c0.033-4.582,0-6.604-0.139-10.35c-0.541,0.086-0.803,0.139-1.344,0.209c-0.033,5.053-1.357,6.953-4.129,7.424
		c-2.16,0.365-3.223,0.572-5.385,1.01c-2.438,0.488-3.031,0.33-3.205-3.381c-0.277-5.941-0.539-8.363-1.063-13.033
		c2.369-0.557,3.555-0.818,5.924-1.307c2.945-0.592,4.217,0.855,4.477,3.938c0.541-0.104,0.82-0.156,1.361-0.242
		c-0.4-4.811-0.664-6.883-1.186-11.1c-0.557,0.104-0.836,0.156-1.375,0.262c-0.088,1.707-0.176,4.008-3.557,4.705
		c-2.367,0.486-3.553,0.748-5.924,1.307c-0.486-4.061-0.766-5.943-1.236-10.02c-0.313-2.475,0.314-2.875,2.77-3.414
		c1.535-0.332,2.301-0.488,3.834-0.805c3.24-0.66,5.436,0.123,5.924,4.148c0.541-0.104,0.818-0.156,1.377-0.242
		c-0.418-2.98-0.627-4.461-0.992-7.65c-9.496,1.656-14.184,2.717-23.506,5.139c0.051,0.488,0.07,0.732,0.121,1.221
		C752.606,745.01,752.727,745.131,753.354,750.15"/>
	<path fill="#4A4A4A" d="M564.114,598.857c-0.957-2.004-5.539-10.838-6.881-12.701c-0.592-0.836-1.117-1.725-1.76-2.527
		c-2.266-2.84-1.9-5.818-1.604-6.637c0.939-2.719,2.475-7.285,5.191-18.086c1.307-5.246,1.463-8.016,1.586-8.957
		c0.473-3.988,0.75-6.516,0.365-9.895c-0.26-2.074-0.748-6.012-3.223-10.352c-2.578-4.512-5.836-6.951-6.516-7.457
		c-0.906-0.645-2.51-1.795-4.914-2.666c-0.645-0.244-3.963-1.395-8.423-1.01c-5.742,0.487-9.662,3.224-11.125,4.252
		c-0.906,0.66-4.383,3.24-7.04,7.961c-2.562,4.584-2.979,8.695-3.223,11.43c-0.279,3.26-0.672,7.563,1.394,12.373
		c1.585,3.674,3.989,6.254,4.843,7.16c1.204,1.271,2.353,2.23,3.223,2.893c0.541-0.924,1.431-2.23,2.764-3.555
		c2.909-2.875,4.408-3.363,7.048-3.467c1.027-0.053,2.595,0.383,3.605,0.852c0.156,0.07,0.296,0.262,0.463,0.385
		c0.845-1.707,1.07-5.332,1.07-7.09c0-2.527-0.121-4.061-0.73-5.422c-0.279-0.643-0.68-1.254-0.68-1.27
		c-0.48-0.732-1.011-1.535-1.883-2.145c-0.4-0.26-0.697-0.365-0.992-0.469c-0.506-0.176-1.185-0.42-1.742-1.221
		c-0.855-1.221-0.68-2.543-0.628-3.049c0.279-2.109,1.795-3.348,2.379-3.766c0.025-0.016,0.044-0.016,0.077-0.033
		c0.697-0.4,2.615-1.273,4.914-0.662c1.971,0.523,3.051,1.811,3.469,2.299c1.393,1.656,1.707,3.434,1.881,4.984
		c0.244,1.936,0.627,7.109-0.836,13.451l-0.086,0.4c-0.279,1.201-0.594,2.684-1.516,4.27c-0.402,0.68-0.717,1.148-0.969,1.516
		c-0.184,0.262-0.357,0.436-0.393,0.609c-0.592,3.816-0.557,27.984-0.305,31.885c0.088,1.395,0.219,16.414,0.357,19.742
		c0.035,0.68,0.104,2.893-1.166,3.764c-0.838,0.592-1.934,0.471-2.25,0.436c-1.463-0.156-2.474-1.045-2.856-1.412
		c-5.506-5.086-8.034-13.016-8.034-13.016c-1.445-4.529-3.091-10.994-3.813-19.078c-5.673,7.143-10.351,15.996-13.155,26.5
		c-2.404,9.01-1.134,17.688,0.73,25.596c0,0.018,0.559,2.492,1.09,4.758c1.508-0.402,3.18-0.486,4.747-0.244
		c0.062-0.105,0.122-0.191,0.201-0.295c0.026-0.018,0.044-0.035,0.077-0.07c0.716-0.662,1.813-1.795,2.963-2.979l0.036-0.037
		c2.177-2.246,4.634-4.789,6.324-6.098c0.575-0.436,1.428-0.418,1.995,0.035c0.566,0.453,0.739,1.273,0.409,1.934
		c-0.104,0.191-0.54,0.732-1.08,1.428c-0.297,0.367-0.609,0.785-0.906,1.168c0.088-0.086,0.175-0.156,0.261-0.242
		c0.768-0.717,1.553-1.43,1.795-1.605c0.488-0.313,1.167-0.26,1.604,0.123l0.07,0.07c0.408,0.418,0.478,1.063,0.165,1.568
		c-4.992,7.943-6.996,10.611-7.954,11.518c0,0.225,0,0.418,0,0.557c0,1.793-0.497,3.188-0.827,4.113
		c-0.479,1.34-1.02,2.281-1.603,3.293c-0.359,0.609-0.76,1.201-1.152,1.793c-1.061,1.586-2.063,3.084-2.325,4.967
		c-0.218,1.602,0.209,3.119,0.662,4.721c0.191,0.68,0.4,1.395,0.54,2.092c0.261,1.256,0.47,3.172,0.506,5.367
		c0.81,0.348,1.689,0.713,2.613,1.045c0.705,0.242,1.377,0.471,2.038,0.662c1.307-2.563,2.893-4.861,4.636-6.586
		c2.631-2.613,2.701-4.566,2.221-8.365c-0.112-0.854-0.287-1.654-0.478-2.439c-0.455-1.916-0.916-3.902-0.088-6.289
		c0.47-1.375,1.271-2.613,2.187-3.816c1.036-1.377,2.744-2.717,3.301-3.135c0.053-0.941,0.506-4.025,0.959-6.621
		c1.045-5.873,1.533-6.674,2.91-6.779h0.105c1.377,0,1.785,0.541,3.379,6.779c0.506,1.986,1.254,5.088,1.43,6.184
		c0.471,0.855,0.939,1.727,1.428,2.598c0.297,0.559,0.609,1.098,0.906,1.654c0.871,1.604,1.098,2.945,1.168,3.816
		c0.07,1.236,0.018,2.578-0.768,5.018c-0.313,0.977-0.609,1.9-0.697,2.875c-0.225,2.23,0.576,4.861,2.213,7.371
		c0.385,0.592,0.82,1.184,1.414,1.881c1.932,2.283,3.762,4.617,5.174,7.301c0.488-0.086,1.043-0.227,1.289-0.279
		c0.436-0.086,1.201-0.313,1.916-0.557l0.053-0.018c-0.018-3.223,0.471-6.238,0.818-7.928c0.139-0.715,0.332-1.412,0.541-2.092
		c0.453-1.604,0.871-3.119,0.662-4.721c-0.262-1.9-1.273-3.398-2.334-4.982c-0.385-0.576-0.785-1.186-1.15-1.795
		c-0.576-0.994-1.221-1.916-1.604-3.275c-0.664-2.389-0.436-4.408,0.018-5.959c-0.854-1.047-2.475-3.746-6.08-10.734
		c-0.193-0.348-0.107-0.783,0.225-1.045c0.156-0.139,0.35-0.191,0.541-0.191s0.383,0.053,0.541,0.174
		c0.697,0.541,1.846,1.691,3.082,3.031c-1.045-1.865-1.969-3.59-2.264-4.285c-0.209-0.488-0.035-1.063,0.4-1.377
		c0.209-0.123,0.436-0.191,0.662-0.191c0.295,0,0.574,0.105,0.801,0.297c1.551,1.428,3.781,4.146,5.768,6.551
		c0.748,0.906,1.465,1.777,2.055,2.475c1.15-0.158,2.404-0.105,3.627,0.172c0-0.033,0.016-0.068,0.016-0.121
		c0-0.209,0.365-1.41,0.854-2.822C567.408,635.344,573.297,618.129,564.114,598.857 M531.044,556.744
		c-0.33,1.082-1.323,1.83-2.438,1.83c-0.488,0-0.977-0.139-1.395-0.418c-3.216-2.125-5.306-5.506-5.594-9.025
		c-0.14-1.883,0.349-3.658,1.464-5.297c0.156-0.227,0.313-0.453,0.488-0.678c0.461-0.629,0.889-1.223,0.906-1.691
		c0.008-1.377,1.114-2.457,2.526-2.457c0.697,0,1.376,0.279,1.864,0.768c0.47,0.471,0.73,1.113,0.723,1.795
		c-0.009,1.113-0.357,2.055-0.811,2.873c1.438,0.838,2.649,2.527,2.536,4.879c-0.053,1.236-0.863,3.834-1.142,4.723
		C531.001,554.672,531.359,555.734,531.044,556.744 M534.233,629.193c-0.705,0.732-1.621,1.115-2.665,1.115
		c-0.209,0-0.419-0.018-0.628-0.035c-1.359-0.209-2.265-1.01-2.962-2.004c-2.396-3.484,3.433-11.379,4.26-12.109
		c0.313-0.297,0.732-0.436,1.15-0.436c0.183,0,0.356,0.035,0.521,0.088c0.584,0.191,1.021,0.66,1.142,1.254
		C535.757,620.533,536.602,626.719,534.233,629.193 M544.365,629.959c-0.67,0.629-1.568,0.961-2.51,0.961
		c-0.148,0-0.305,0-0.469-0.02c-1.282-0.156-2.519-0.906-3.234-1.969c-1.769-2.613-0.793-5.229-0.018-7.316
		c0.358-0.959,0.689-1.848,0.784-2.684c0.07-0.664,0.619-1.186,1.298-1.236c1.125-0.088,1.787,0.781,2.101,1.219
		c0.078,0.104,0.121,0.174,0.182,0.227c0.775,0.818,2.814,3.814,3.111,5.33C545.992,626.301,545.75,628.705,544.365,629.959
		 M554.01,629.42c-0.158,0.035-0.299,0.07-0.438,0.086c-1.707,0.297-3.484-0.469-4.459-1.934c-1.219-1.865-1.639-3.953-2.004-5.801
		c-0.313-1.604-0.629-3.102-1.359-4.373c-0.385-0.664-0.244-1.518,0.313-2.004c0.576-0.523,1.447-0.576,2.057-0.141
		c1.43,0.992,8.537,6.168,8.469,10.838C556.571,627.678,555.543,628.967,554.01,629.42"/>
	<path fill="#4A4A4A" d="M856.119,632.383c-4.27-5.541-13.102-7.457-18.992-3.66c-0.992-4.6-7.281-36.295-8.781-48.334
		c37.096-4.32-22.582-61.715-24.359-23.713c-10.889,0.068-39.027-1.48-45.754-1.777c7.283-16.309-12.422-25.299-24.377-14.652
		c-2.734-2.023-17.354-12.146-25.785-18.07c0-14.844-0.018-29.898-0.018-44.5c25.961,3.258,49.518,0.627,73.703-10.994
		c8.223,13.975,24.078,6.639,21.361-6.342c14.182-11.832,37.564-32.095,45.371-48.961c2.719-5.907-3.678-10.037-8.643-6.43
		c2.143-3.868,2.492-10.28-3.867-10.994c1.254-4.321-1.934-12.406-7.424-9.896c1.082-4.043-3.537-9.34-7.545-7.824
		c1.08-2.16-1.236-15.768-8.729-11.516c0.209-4.514-5.854-12.424-11.309-9.881c0.211-4.338-0.957-9.739-8.275-10.576
		c-4.287,0-5.924,6.482-7.824,13.975c-3.727,14.043-11.971,27.512-20.77,39.134c-8.605-4.356-23.104,7.858-16.135,15.804
		c-6.496,5.732-23.434,10.018-39.986,11.168c-0.018-27.564-0.053-42.113,0.053-51.209h-83.443
		c11.832-8.484,51.244-36.902,62.518-44.656c0.35,0.592,7.195,10.105,10.594,14.531c3.135-2.16,9.008-6.133,11.289-7.789
		c1.498,2.074,3.625,5.158,5.734,8.277c-2.232,1.568-8.992,6.324-11.117,7.822c3.223,4.443,17.58,24.324,20.787,28.785
		c3.711-2.614,10-7.039,13.695-9.653c-1.482-2.056-8.746-12.109-10.385-14.375l9.217-6.499c1.672,2.335,8.85,12.268,10.385,14.393
		c4.287-3.015,15.455-10.873,19.74-13.904c-3.205-4.461-11.691-16.535-16.518-22.721c-2.037,1.429-8.537,6.012-10.662,7.51
		l-7.459-10.35c3.904-2.787,7.301-5.158,10.82-7.457c-1.516-2.109-6.063-8.398-7.648-10.594c4.443-3.119,8.311-5.855,10.889-7.667
		c2.18,3.294,5.246,7.196,8.018,10.21c3.588-2.525,9.615-6.795,11.463-8.102c1.9,2.648,4.705,6.551,7.457,10.332
		c-2.283,1.604-9.617,6.777-11.76,8.276c3.152,4.392,13.275,18.399,16.43,22.79c4.338-3.066,16.395-11.552,20.734-14.619
		c-1.463-2.055-8.693-12.143-10.314-14.426l7.527-5.314c1.865,2.51,9.129,12.284,10.838,14.584l14.234-10.263
		c-3.293-4.583-17.58-24.376-20.91-28.976c-2.105,1.498-10.854,7.648-13.117,9.252l-5.943-8.225
		c2.316-1.637,10.961-7.736,13.121-9.252c-1.482-2.057-8.834-12.231-10.473-14.496c2.145-1.568,6.1-3.45,5.09-6.778
		c-0.594-2.683-9.498-14.061-12.164-14.897c-1.654-0.696-3.414,0.436-3.449,0.541L617.85,349.105
		c-1.117-6.324-3.764-22.302-5.488-33.122h33.818c2.475,0,4.479-1.985,4.479-4.426c0.592-3.903-2.143-6.655-6.115-6.063v-3.153
		c6.586-0.505,6.586-10.56,0-11.064v-27.095c-0.854,1.5-2.822,5.002-3.746,6.622c-0.35-3.974-1.219-8.747-2.23-12.354
		c6.898,1.429,8.137-10.315,1.307-10.489c-1.254,0.018-5.838-0.018-7.021,0v-2.543c7.354,0.104,7.354-11.291,0-11.188v-21.447
		c-2.318,3.885-4.008,7.387-6.465,11.952c-1.447-6.447-3.693-12.563-6.674-18.261c3.119-0.209,4.496-3.258,4.113-6.028
		c0.086-5.244-6.498-4.442-10.055-4.425c0,0-0.018,0-0.033,0c6.133-0.506,6.654-9.74,0.645-10.926
		c-0.035-0.471-0.055-19.01-0.055-19.01c-2.072,3.625-3.867,7.074-5.992,11.117c-6.203-12.493-31.311-36.311-54.764-40.424
		c-0.383-5.715-3.729-9.809-6.027-10.541v-0.645v-14.462h9.688V99.197h-9.688v-10.49h-14.601v10.49h-9.689v11.935h9.689v14.462
		v0.645c-2.23,0.889-5.332,4.304-5.977,10.229c-19.411,3.676-39.204,18.033-54.693,40.998c-2.073-3.887-3.555-6.918-5.576-10.264
		v17.772c-6.377,0.731-6.237,10.507,0.157,11.048c-0.044,0-4.661,0-4.835,0c-1.456,0-5.236,0.904-5.358,4.425
		c-0.399,2.841,1.063,5.941,4.269,6.046c-0.652,1.639-4.982,11.727-6.812,18.295c-2.475-4.582-4.165-8.102-6.5-12.004v21.535
		c-8.502-1.377-8.485,12.389,0,11.012v2.631c-1.149-0.018-5.767,0.018-7.004,0c-6.847,0.174-5.61,11.918,1.289,10.489
		c-1.02,3.642-1.882,8.45-2.222,12.476c-0.723-1.498-2.952-5.332-3.736-6.744v27.095c-8.188-1.063-8.188,12.128,0,11.064v3.153
		c-3.973-0.592-6.717,2.16-6.116,6.063c0,2.44,2.004,4.426,4.478,4.426h33.201c-1.49,10.472-3.895,26.624-5.036,33.122
		L307.079,239.424c-0.053-0.105-1.804-1.237-3.459-0.541c-2.657,0.837-11.569,12.215-12.152,14.897
		c-1.01,3.328,2.91,5.21,5.07,6.778c-1.69,2.334-8.939,12.371-10.472,14.496c2.116,1.481,10.855,7.649,13.138,9.252l-5.941,8.225
		c-2.335-1.639-10.979-7.719-13.137-9.252c-3.311,4.6-17.6,24.393-20.91,28.976l14.252,10.263
		c1.666-2.248,9.009-12.145,10.82-14.584l7.546,5.314c-1.673,2.335-8.816,12.318-10.332,14.426
		c4.339,3.067,16.396,11.553,20.734,14.619c3.171-4.391,13.276-18.398,16.447-22.79c-2.108-1.481-9.531-6.708-11.771-8.276
		c2.745-3.781,5.567-7.684,7.45-10.332c1.837,1.307,7.892,5.576,11.481,8.102c2.753-3.014,5.836-6.916,7.998-10.21
		c2.578,1.812,6.445,4.548,10.89,7.667c-1.604,2.213-6.107,8.467-7.642,10.594c3.513,2.299,6.91,4.67,10.83,7.457l-7.466,10.35
		c-2.17-1.533-8.599-6.063-10.664-7.51c-4.853,6.221-13.295,18.242-16.509,22.721c4.286,3.031,15.447,10.89,19.742,13.904
		c1.479-2.057,8.737-12.109,10.384-14.393l9.199,6.499c-1.681,2.317-8.851,12.267-10.385,14.375
		c3.712,2.614,9.983,7.039,13.695,9.653c3.214-4.461,17.563-24.342,20.788-28.785c-2.092-1.48-8.914-6.271-11.108-7.822
		c2.099-3.119,3.363-4.949,4.861-7.039c2.29,1.672,7.997,5.4,11.133,7.562c3.433-4.46,11.23-14.897,11.612-15.542l61.733,43.367
		c0.297,0.209,1.395,0.924,1.524,1.289h-84.183c0.104,9.026,0.069,23.506,0.052,50.844c-16.874-1.081-36.242-5.036-42.775-10.803
		c6.952-7.945-7.535-20.16-16.151-15.804c-8.79-11.622-17.032-25.073-20.761-39.134c-1.89-7.492-3.528-13.975-7.823-13.975
		c-7.308,0.837-8.493,6.221-8.268,10.576c-5.471-2.543-11.509,5.367-11.325,9.881c-7.491-4.27-9.793,9.355-8.712,11.516
		c-4.008-1.516-8.642,3.781-7.563,7.824c-5.471-2.51-8.659,5.575-7.403,9.896c-6.379,0.731-6.013,7.126-3.887,10.994
		c-4.948-3.59-11.36,0.522-8.643,6.43c7.842,16.9,31.172,37.095,45.391,48.961c-2.72,12.98,13.137,20.316,21.36,6.342
		c25.072,12.074,49.519,14.409,76.508,10.541c-0.019,14.724-0.035,29.934-0.035,44.937c-8.433,5.907-23.087,16.063-25.822,18.087
		c-11.97-10.646-31.658-1.639-24.376,14.652c-6.742,0.297-34.847,1.846-45.755,1.777c-1.777-38.002-61.453,19.393-24.357,23.713
		c-1.498,12.039-7.789,43.734-8.782,48.334c-9.809-6.412-24.707,3.434-21.693,14.949c2.319,9.391,22.582,29.551,32.81,29.551
		c8.354,0.402,16.631-10.332,12.736-18.26c2.544-0.818,11.03-2.213,11.448-2.301c19.365,32.949,92.869,67.691,126.575,88.672
		c2.639,1.045,7.047,1.967,8.529-1.273c3.692-4.512,11.43-10.227,6.255-16.588c3.711-1.881,6.151-7.475,4.565-10.645
		c4.773-2.389,4.992-6.082,2.613-10.508c1.759-1.34,3.981-4.564,1.726-6.813c-0.994-1.168-2.092-2.752-3.766-2.893
		c-8.677-1.357-17.284-3.311-25.612-5.191c-14.636-3.328-29.776-6.762-45.737-7.023c-2.544-1.166-5.906-3.117-9.904-5.73l0.025-0.07
		c-6.308-3.92-13.241-9.182-21.815-15.768c16.554,7.525,46.644-31.607,19.839-35.336l0.914-5.732
		c6.874,4.094,23.748,2.561,32.582-1.518c18.338,61.037,51.243,69.889,164.916,127.596c113.9-57.918,146.291-66.227,164.916-127.578
		c8.781,4.061,25.736,5.594,32.549,1.5l0.922,5.732c-26.814,3.729,3.275,42.861,19.828,35.336
		c-8.57,6.602-15.506,11.848-21.813,15.768l0.033,0.07c-4.006,2.613-7.369,4.564-9.914,5.73c-15.959,0.262-31.1,3.695-45.738,7.023
		c-8.328,1.881-16.936,3.834-25.611,5.191c-1.656,0.141-2.789,1.725-3.764,2.893c-2.23,2.23-0.068,5.506,1.725,6.813
		c-2.387,4.426-2.143,8.119,2.615,10.508c-1.586,3.17,0.854,8.764,4.564,10.645c-5.141,6.344,2.525,12.076,6.256,16.588
		c1.479,3.24,5.887,2.318,8.537,1.273c33.68-20.963,107.172-55.705,126.564-88.672c0.42,0.088,8.904,1.482,11.447,2.301
		c-3.971,8.154,4.74,19.098,13.363,18.244C839.131,670.609,868.037,646.914,856.119,632.383 M284.515,346.649
		c3.623-0.802,5.646,13.103,7.37,17.633c4.573,12.005,12.102,25.021,19.837,34.778C310.094,417.651,262.23,349.733,284.515,346.649
		 M273.827,356.703c1.924-0.924,1.628,0.087,3.546,5.977c5.871,16.221,22.929,39.568,28.226,43.229
		c0.54,1.76-2.074,5.574-3.127,5.522c-12.72-7.214-27.505-31.015-29.063-33.61C271.012,374.161,261.377,362.749,273.827,356.703
		 M261.464,366.652c0.959-0.314,2.657-1.221,4.574,2.77c2.326,4.809,11.072,20.02,19,29.324c3.642,4.27,9.392,11.535,12.981,14.549
		c3.318,2.788,2.595,3.607,1.219,5.803c-3.197,3.658-5.322,0.035-7.457-1.586c-9.601-9.131-18.46-14.148-32.582-39.359
		C256.586,373.482,260.838,366.252,261.464,366.652 M255.765,378.553c18.087,26.762,17.441,27.634,39.03,45.633
		c2.352,1.776-1.89,6.236-5.263,3.902c-4.426-2.893-24.68-22.406-33.401-36.084C251.602,384.895,249.625,379.389,255.765,378.553
		 M246.357,385.975c2.761-0.592,4.644,3.764,5.733,5.419c14.957,22.478,18.407,24.185,36.224,41.695
		c1.079,15.071-28.802-18.417-30.545-20.978c-0.645-0.471-8.764-9.95-13.016-17.007
		C242.873,391.969,243.466,388.414,246.357,385.975 M239.893,397.004c2.5-1.445,2.526-0.4,2.996,0.227
		c10.271,13.66,18.199,23.854,30.824,35.754c1.079,1.01,11.69,9.096,9.556,11.047c-1.855,3.223-5.375,0.889-7.065-0.244
		C268.469,437.463,233.543,407.441,239.893,397.004 M276.108,457.115c-8.616-2.717-49.317-42.479-44.126-50.754
		c1.125-1.15,4.548,0.086,5.715,1.62c7.58,9.861,14.236,18.678,23.662,27.181C266.29,440.999,284.01,449.78,276.108,457.115
		 M292.966,463.912c-8.642,13.887-18.845,2.421-13.607-5.246c5.524-8.066,35.361-57.289,35.361-57.289
		c2.676-3.781,14.471,2.771,12.467,8.276l-30.43,47.585C296.757,457.238,293.758,462.622,292.966,463.912 M371.982,473.355
		c-25.856,3.99-51.225,1.219-74.207-9.984c-0.889,0.575,28.923-45.65,29.673-46.922c9.025,7.301,31.625,10.541,44.883,11.395
		C372.54,440.842,371.39,464.538,371.982,473.355 M372.253,552.754c0.034,13.383-0.009,25.613,0.096,37.602
		c-6.726,5.402-19.758,4.531-26.64,2.422l1.603-12.668c13.52,5.438,26.039-10.418,16.709-22.021
		C363.463,558.244,368.255,555.176,372.253,552.754 M371.861,527.996l-0.184,18.434c0,0.506-6.804,4.6-10.776,7.406
		c-3.467-4.252-6.795-7.215-10.951-10.732C356.284,538.539,365.214,532.771,371.861,527.996 M330.48,540.055
		c11.864-3.504,27.084,15.105,32.006,23.52c2.511,7.771-2.848,13.504-9.616,13.504c-7.598,0.994-20.474-15.314-25.266-20.107
		C323.928,551.5,322.962,542.266,330.48,540.055 M277.12,623.182c-0.48,1.482-0.829,2.963-1.107,4.443l-7.815,1.133
		c1.222-9.496,5.185-31.504,8.425-48.42l45.6-1.377c-0.576,3.52-1.238,13.467-1.49,13.52
		C291.1,598.283,280.665,612.381,277.12,623.182 M317.612,608.283c-2.97-1.863-8.53-4.965-4.922-9.723
		c2.752-0.799,4.947-1.707,8.084-2.316c-0.348,1.971-1.804,14.184-2.457,17.809c-0.018,0-0.026,0-0.043,0.016
		C318.98,610.881,318.405,609.209,317.612,608.283 M300.075,618.914c-5.558-0.244-10.211,0.174-11.744-6.621
		c1.507-1.605,3.225-3.121,5.158-4.584c0.531,12.127,13.485,0.662,12.109,11.727c-0.532,0.385-1.289,0.959-2.144,1.777
		C302.618,620.271,301.52,619.365,300.075,618.914 M301.025,624.088c-1.021,1.41-2.022,3.434-2.527,5.227
		c-5.097-5.68-12.728,2.248-18.077-2.84c0.863-3.344,2.292-6.639,4.374-9.74C290.213,623.826,296.372,619.488,301.025,624.088
		 M307.445,603.336c2.257,7.371,8.45,3.955,7.257,11.9c-1.517,0.523-3.319,1.221-5.175,2.092
		c0.271-12.18-13.112-2.563-13.024-11.674c3.26-2.057,7.021-3.922,11.387-5.508C307.289,601.682,307.375,602.848,307.445,603.336
		 M317.508,618.547c-0.375,2.092-0.715,4.043-1.002,5.697c-4.234,0.35-8.966,0.924-12.11,1.359
		C305.98,623.703,309.57,621.16,317.508,618.547 M279.681,630.361c6.21,5.018,14.13-3.328,18.059,4.25
		c0.035,1.953,0.131,2.701,0.453,4.096c-6.821-4.705-11.865,4.303-18.608-0.715C279.349,635.467,279.358,632.904,279.681,630.361
		 M282.843,650.52c-1.028-2.369-1.847-4.859-2.431-7.389c7.101,3.766,11.16-4.25,18.679-1.27c0.801,2.09,1.864,3.832,2.918,5.227
		C291.153,644.613,289.324,652.854,282.843,650.52 M289.812,661.584c-1.446-1.689-2.841-3.504-4.06-5.488
		c9.443-1.828,8.172-7.283,19.409-5.541c1.299,1.1,2.624,2.527,4.601,4.025C294.76,653.9,298.21,664.547,289.812,661.584
		 M309.719,649.264l6.509-1.184c0.504,3.973,1.314,6.656,3.642,9.148C317.212,655.258,309.902,649.492,309.719,649.264
		 M293.993,665.854c2.877,0.053,7.04-3.711,8.008-5.891c0.636-2.613,13.145-3.623,17.05,1.76
		c-10.751-0.33-10.325,6.969-20.265,8.207C297.34,668.762,295.596,667.299,293.993,665.854 M336.665,696.623
		c6.151-7.213,8.067-3.223,13.869-5.662c-1.001,5.123-9.017,5.854-11.482,7.178C338.259,697.633,337.458,697.145,336.665,696.623
		 M424.324,696.57l1.271,1.516c-0.731,0.523-1.255,1.047-1.673,1.57l-33.427-1.623l32.626,5.561
		c1.986,4.338,1.881,4.041-2.318,6.863l-33.244-4.635l33.07,8.816c1.411,3.486-4.738,6.082-5.671,7.824l-29.752-11.188
		l32.009,16.049c0.87,2.193-0.767,3.502-2.336,5.295l-29.28-15.053l26.284,18.086c-0.828,0.889-1.551,1.795-1.986,2.682
		c-13.225-4.738-24.995-14.094-37.714-20.455c4.452-5.227,16.117-20.873,14.47-29.131
		C399.094,691.379,411.431,694.568,424.324,696.57 M382.367,687.859c1.943,7.998-9.688,22.686-14.199,27.703
		c-1.604-0.924-3.207-1.846-4.81-2.77c4.634-4.844,15.769-18.277,14.871-25.684C379.614,687.371,380.991,687.58,382.367,687.859
		 M373.402,686.273c1.402,6.656-10.044,19.307-14.652,23.854c-1.874-1.098-3.722-2.248-5.602-3.381
		c5.174-3.467,15.89-13.625,14.758-21.223C369.735,685.752,371.582,685.994,373.402,686.273 M354.907,693.016
		c1.899-4.773,2.108-6.289,2.03-8.467c2.073,0.088,4.121,0.277,6.159,0.469c1.324,6.867-9.147,15.926-14.488,18.992
		c-1.689-1.027-3.406-2.02-5.087-3.066C345.489,699.168,352.87,698.156,354.907,693.016 M352.206,684.166
		c-5.018,7.16-14.27,2.178-19.191,10.088c-0.767-0.506-1.524-1.029-2.283-1.533c7.398-4.635,7.868-10.07,18.2-10.193
		C350.098,683.154,351.196,683.711,352.206,684.166 M341.884,678.293c0.88,0.576,1.751,1.117,2.604,1.656
		c-8.302,1.307-9.932,7.666-17.241,10.438c-0.923-0.629-1.855-1.238-2.778-1.865C333.634,686.412,329.8,675.436,341.884,678.293
		 M329.774,669.859c1.977,1.465,3.964,2.875,5.933,4.27c-10.123,2.318-5.124,10.611-15.856,11.135
		c-2.353-1.674-5.191-3.711-8.24-5.908C323.388,678.555,318.841,669.268,329.774,669.859 M322.438,664.336
		c0.881,0.697,1.803,1.377,2.709,2.074c-9.426,1.621-4.992,10.07-18.198,9.602c-1.211-0.871-2.432-1.744-3.624-2.596
		c4.252-0.664,5.993-5.35,9.067-6.482C314.51,666.689,319.746,665.244,322.438,664.336 M336.812,628.164
		c33.829-5.279-17.52,51.924-16.718,15.91l-13.573,2.072c-2.962-3.729-5.496-11.15-3.52-16.309
		c3.302-0.471,12.397-1.689,16.98-1.777c1.784-11.047,6.76-53.281,6.76-53.281l-53.535,1.777c0,0-9.932,51.348-9.426,56.906
		l11.674-1.709c-0.401,5.471,0.035,12.006,1.655,17.041c-4.285,0.994-11.134,1.76-15.891,2.928
		c6.36,5.244,1.002,17.494-6.952,17.494c-8.276-0.053-26.972-18.748-28.854-26.434c-1.689-12.18,12.702-15.072,20.544-7.893
		c3.501-18.975,8.589-41.836,9.774-58.371c-34.796,1.779,18.712-51.381,17.249-16.568l49.24-1.568l21.099,20.578
		C343.32,578.961,338.408,616.281,336.812,628.164 M351.702,613.041c-0.262,0.785-0.715,1.953-1.708,2.789
		c-3.093-0.523-5.122-1.482-6.952-1.971c1.402-9.164,1.83-13.713,2.239-17.266c2.091,0.4,2.587,0.244,4.608,0.627
		C345.281,606.646,354.385,605.949,351.702,613.041 M361.25,616.021c-2.37,0.539-4.775,0.539-7.231,0.33
		c6.046-12.197-4.303-8.328-0.487-18.504c1.464,0.244,2.831,0.436,4.025,0.574c1.394,13.262,6.829,6.658,10.402,15.855
		C365.658,614.939,363.331,615.551,361.25,616.021 M371.861,613.129c-2.997-10.123-10.733-5.785-10.158-14.531
		c7.021-1.359,9.479-3.381,10.628-4.113c0.297,4.27,0.332,10.264,1.604,18.035C373.934,612.52,372.2,613.371,371.861,613.129
		 M789.022,274.48l-13.088,9.304l10.561,14.462l13.068-9.305l16.379,22.406c0,0-5.385,3.852-8.016,5.717l-10.664-14.201
		l-13.799,9.827l10.4,14.374l-14.32,10.211l-12.006-16.431l11.744-8.363c-5.35-7.214-12.057-16.535-12.057-16.535
		s-1.916,1.341-11.746,8.346c-3.449-3.903-7.648-10.472-7.648-10.472s-7.84,5.61-17.318,12.336l7.631,10.473
		c-3.119,2.125-10.699,7.631-10.699,7.631l12.059,16.535l10.717-7.614c2.281,2.944,12.004,16.431,12.004,16.431l-13.348,9.496
		l-10.471-14.34l-15.508,11.047l10.455,14.34l-7.301,5.209l-17.23-23.277l10.975-7.824c0,0-8.779-13.416-9.582-13.677
		c-4.27,3.206-3.799,2.84-11.082,7.893c-5.139-6.778-8.484-11.622-8.484-11.622c2.248-1.603,5.854-4.182,10.385-7.422
		c10.906-7.807,27.146-19.41,42.252-30.195c9.426-6.727,18.416-13.139,25.42-18.086c5.314-3.781,9.498-6.709,11.832-8.312
		L789.022,274.48z M775.518,242.561c0,0,8.832,10.488,9.34,12.805c0.189,0.82-167.617,117.768-167.617,117.768h-26.678
		L775.518,242.561z M614.26,350.691l-30.178,22.023h-13.207c-2.857-21.448-5.715-35.893-4.879-56.731h42.617
		C609.678,322.988,612.362,341.422,614.26,350.691 M518.421,315.983h43.48c-0.992,18.817,2.459,36.468,4.393,57.149h-52.272
		C515.965,352.434,519.405,334.818,518.421,315.983 M531.898,130.996c0.522-0.994,1.829-2.283,3.781-2.283c0.27,0,9.114,0,9.391,0
		c2.09,0,3.434,2.16,3.535,2.334l0,0c0.629,1.098,1.17,2.684,1.639,4.983c0,0-10.315-1.812-20.01,0
		C530.218,136.048,531.323,132.11,531.898,130.996 M476.343,177.742c37.975-55.912,95.369-48.385,129.154,1.883
		c-5.506,10.228-6.951-0.418-10.926-4.967c-1.984,2.598-3.223,8.504-6.777,9.479c-4.773-4.233-7.648-13.521-11.203-18.695
		c-3.66,5.122-6.307,14.81-11.412,18.713c-2.771-1.481-4.793-6.987-6.709-9.565c-1.916,2.578-3.955,8.084-6.707,9.565
		c-5.105-3.903-7.754-13.591-11.43-18.696c-3.537,5.141-6.43,14.41-11.152,18.627c-3.396-0.768-4.756-7.005-7.125-9.428
		c-1.987,2.598-3.225,8.504-6.779,9.479c-4.773-4.233-7.648-13.521-11.202-18.695c-3.659,5.122-6.316,14.81-11.413,18.713
		c-2.77-1.481-4.792-6.987-6.717-9.565c-1.551,2.596-4.076,6.986-5.951,9.287c-2.299,1.148-3.571-3.05-4.948-4.392
		C475.289,178.945,476.343,177.742,476.343,177.742 M468.955,195.986c5.123-1.098,5.688-8.957,0.671-10.682l-0.113-8.502
		c0.565,1.027,1.142,2.107,1.716,3.153c0.472,0.871,0.941,1.708,1.411,2.526c0.54,0.924,1.081,1.795,1.638,2.578
		c2.405,3.434,5.002,5.245,8.104,2.145c1.098-1.08,2.247-2.771,3.466-5.211c1.272,2.631,2.492,4.374,3.651,5.438
		c2.899,2.665,5.479,1.027,7.796-2.18c1.709-2.334,3.277-5.488,4.757-8.397c0.054-0.104,0.106-0.209,0.158-0.313
		c0.549-1.08,1.079-2.125,1.619-3.084c0.053-0.088,0.105-0.191,0.157-0.297l0,0c4.191,7.51,10.297,25.004,18.209,9.148
		c3.92,8.52,9.583,8.346,12.928,0.296c1.707-2.927,3.527-6.412,5.123-9.462c4.441,7.842,10.279,25.178,18.121,8.852
		c7.84,16.17,13.451-0.557,18.139-8.834c4.164,7.405,10.506,25.369,18.154,8.974c4.791,10.245,9.096,6.917,12.648,1.255
		c0.629-1.011,1.256-2.108,1.848-3.223c0.924-1.761,1.795-3.521,2.598-5.071v9.983c-6.012,1.203-5.438,10.507,0.68,10.943
		c-0.053,0.017-0.297,0-0.68,0c-0.506,0.017-33.246,0-34.43,0c6.881-0.594,6.342-11.256-0.629-11.117
		c-6.986-0.139-7.51,10.523-0.625,11.117h-35.145c6.883-0.594,6.359-11.256-0.627-11.117c-6.97-0.139-7.51,10.523-0.628,11.117
		h-35.126c6.882-0.594,6.351-11.256-0.627-11.117c-6.979-0.139-7.51,10.523-0.628,11.117h-34.55h-0.541
		C468.642,196.021,468.885,196.004,468.955,195.986 M459.573,201.266c0-2.404,2.613-2.23,3.274-2.23h156.5
		c2.213,0,1.986,4.461,0,4.461c-1.586,0-153.572,0-156.255,0C461.838,203.496,459.573,203.496,459.573,201.266 M464.084,208.392
		c0.192-0.54,0.437-1.116,0.837-1.882h150.699c1.918,0.993,8.189,20.612,8.189,20.612s-2.561,4.06-4.477,6.412
		c-0.576,1.028-2.563,1.358-3.381,0.558c-2.232-2.84-5.279-8.189-7.109-11.291c-2.162,2.788-5.193,10.873-8.504,11.848
		c-5.348-2.508-10.732-18.59-14.408-23.626c-3.643,6.343-8.189,16.344-12.475,22.616c-4.496,4.461-8.277-8.328-10.281-10.785
		c-2.928,3.084-4.529,11.15-9.008,11.709c-0.664-0.105-1.238-0.453-1.621-0.994c-4.199-6.254-8.781-16.012-12.3-22.459
		c-3.52,6.43-8.104,16.223-12.303,22.459c-0.382,0.541-0.958,0.889-1.619,0.994c-4.478-0.559-6.1-8.625-9.025-11.709
		c-1.952,2.352-5.785,15.264-10.281,10.785c-4.269-6.29-8.816-16.256-12.457-22.616c-3.694,5.054-9.052,21.101-14.41,23.626
		c-3.327-0.957-6.342-9.06-8.502-11.848c-5.523,8.695-8.538,19.236-14.2,3.607C458.857,220.728,464.032,208.514,464.084,208.392
		 M450.189,244.58c0.897-0.486,4.383-4.912,0.444-9.234l-0.384-12.98c0.697,1.254,1.395,2.563,2.092,3.869
		c1.742,3.274,3.502,6.533,5.366,8.902c2.735,3.484,5.697,5.053,9.112,1.916c1.49-1.358,3.066-3.623,4.757-7.021
		c1.639,3.346,3.171,5.594,4.635,6.97c3.485,3.294,6.534,1.638,9.304-1.968c1.97-2.562,3.781-6.082,5.506-9.531
		c1.186-2.387,2.345-4.74,3.468-6.691c0.731,1.29,1.498,2.789,2.3,4.408c1.848,3.711,3.921,7.945,6.203,11.064
		c2.597,3.555,5.489,5.629,8.643,3.764c0.209-0.121,0.409-0.244,0.593-0.4c0.009,0,0.017,0,0.017-0.018
		c1.673-1.22,3.415-3.555,5.227-7.371c1.683,3.66,3.311,5.941,4.896,7.214c0.594,0.471,1.186,0.819,1.761,1.011
		c0.052,0.018,0.087,0.035,0.129,0.053c2.823,0.889,5.447-1.324,7.852-4.723c2.299-3.223,4.39-7.526,6.264-11.273
		c0.652-1.289,1.271-2.525,1.873-3.623c0.765,1.394,1.585,3.014,2.421,4.703c1.83,3.643,3.814,7.633,5.959,10.611
		c2.893,3.973,6.098,6.099,9.617,3.032c1.533-1.307,3.102-3.554,4.74-7.057c2.037,4.112,3.938,6.517,5.715,7.702
		c3.135,2.072,5.924,0.278,8.432-3.05c2.092-2.753,3.973-6.534,5.732-10.071c1.098-2.195,2.145-4.285,3.137-5.959
		c0.645,1.168,1.324,2.527,2.021,3.955c1.883,3.746,3.973,8.016,6.273,11.221c2.402,3.346,5.018,5.489,7.822,4.583l0,0
		c0.523-0.174,1.047-0.452,1.568-0.837c0.035-0.017,0.07-0.034,0.088-0.052c0.068-0.052,0.139-0.122,0.191-0.157
		c1.604-1.307,3.275-3.658,5-7.404c1.533,3.205,2.998,5.365,4.408,6.743c1.115,1.08,2.178,1.672,3.225,1.829
		c0.068,0.018,0.123,0.018,0.191,0.035c2.248,0.227,4.32-1.465,6.271-4.061c2.145-2.857,4.146-6.777,6.064-10.437
		c0.4-0.767,0.801-1.516,1.184-2.247l0.088,12.475c-1.324,0.436-1.828,1.464-2.404,2.544c-0.939,1.708-0.939,3.903,0,5.61
		c0.576,1.08,1.08,2.004,2.404,2.439v2.684c-15.055-0.105-164.986-0.122-180.206-0.053V244.58z M440.615,255.436
		c-0.854,0-1.333-0.714-1.386-1.201c-0.053-0.506-0.078-1.447-0.042-1.848c0,0,0,0,0-0.018l0,0c0-0.174,0-1.411,1.637-1.411h192.952
		c0.906,0,2.299,0,3.623,0c0.941,0.017,1.83,0.017,2.475,0l0,0c0.193,0,0.383,0.052,0.541,0.122c0,0,0.018,0,0.033,0.018
		c0.121,0.052,0.244,0.121,0.35,0.227c0.174,0.174,0.313,0.4,0.418,0.645c0.244,0.627,0.26,1.445,0.07,2.125
		c-0.141,0.506-0.385,0.924-0.75,1.15c0,0.018-0.018,0.018-0.035,0.035c-0.053,0.018-0.104,0.035-0.156,0.069
		c-0.139,0.052-0.297,0.087-0.471,0.087l0,0c-1.221,0-2.684,0-4.094,0c-0.838,0-1.674,0-2.404,0
		C633.375,255.436,441.329,255.436,440.615,255.436 M616.49,278.053c-0.018,0-0.035,0.017-0.051,0.017l-0.02-0.017l-0.033,0.068
		c-0.314,0.279-1.865,3.467-2.004,3.746c-0.105,0.174-0.105,0.227,0,0.035c-1.115,2.301-5.576,12.877-9.184,7.963
		c-0.557-0.802-1.342-1.446-1.898-2.353c-0.086-0.156-0.191-0.313-0.279-0.47c-0.016,0-0.016-0.018-0.016-0.035
		c-1.307-2.144-2.615-4.496-3.906-6.918c-1.654-3.101-3.273-6.307-4.824-9.269c-0.803-1.551-1.602-3.05-2.369-4.443
		c-0.279-0.522-0.576-1.028-0.855-1.516c-1.41,1.899-3.152,5.54-5.053,9.53c-2.352,4.861-9.199,18.068-11.012,16.814l0,0l0,0
		c-1.986-0.191-5.33-5.977-6.656-8.416c-0.957-1.777-1.863-3.415-2.631-4.461l-0.191-0.348l-0.209,0.348
		c-0.768,1.046-1.654,2.684-2.613,4.443c-1.324,2.439-2.805,5.07-4.32,6.761c-0.785,0.854-1.568,1.481-2.352,1.673l0,0l0,0
		c-1.082-0.366-2.283-1.551-3.521-3.224c-2.631-3.554-5.471-9.321-7.875-14.356c-1.777-3.729-3.328-7.074-4.373-8.765
		c-1.027,1.673-2.58,5-4.375,8.729c-2.404,5.053-5.262,10.838-7.884,14.392c-1.245,1.69-2.448,2.874-3.52,3.224h-0.008l0,0
		c-0.785-0.191-1.56-0.801-2.318-1.656c-1.532-1.689-3.004-4.32-4.329-6.76c-0.967-1.777-1.864-3.415-2.639-4.461l-0.193-0.348
		l-0.199,0.348c-0.775,1.046-1.656,2.684-2.623,4.461c-1.323,2.422-2.797,5.07-4.321,6.743c-0.768,0.854-1.55,1.481-2.335,1.673l0,0
		l0,0c-3.327-0.471-8.868-12.354-11.238-17.25c-1.307-2.701-2.552-5.227-3.719-7.127l-1.108-1.968l-0.103,0.175
		c-0.053-0.053-0.106-0.123-0.158-0.175c-0.836,1.69-1.776,3.589-2.787,5.593c-2.056,4.094-4.381,8.607-6.708,12.736
		c-1.411,2.51-2.815,4.861-4.147,6.883c-1.551,1.83-3.205,1.168-4.79-0.54c-1.325-1.795-3.277-5.228-4.74-7.876
		c-0.96-1.986-1.655-3.52-1.951-3.605c-0.201,0.104-0.584,0.73-1.081,1.654l-0.783,1.203c-0.279,0.418-0.662,1.114-1.186,2.072
		c-0.34,0.627-3.137,5.228-3.868,6.238c-0.863,0.941-1.742,1.603-2.614,1.777c-0.348,0.069-0.697,0.052-1.035-0.053
		c-0.444-0.139-0.873-0.453-1.281-0.941h-0.009c-2.901-3.833-5.052-7.004-6.473-10.088c-1.255-2.753-1.935-5.436-2.013-8.416
		c-0.079-3.658,0.706-7.771,2.413-13.05H634.35c0.141,0.453,0.262,0.923,0.4,1.411c0.104,0.4,0.211,0.819,0.313,1.236
		c0.055,0.176,0.088,0.367,0.141,0.559c0.07,0.365,0.156,0.714,0.244,1.098c0.42,1.898,0.75,3.902,1.01,5.906
		c0.053,0.366,0.105,0.715,0.141,1.08c0.035,0.366,0.088,0.732,0.121,1.081c0.07,0.749,0.123,1.464,0.176,2.194
		c0,0.07,0.016,0.141,0.016,0.192c0.055,0.94,0.105,1.864,0.123,2.806l0,0c-0.4,0.731-0.785,1.428-1.15,2.125
		c-0.871,1.604-1.725,3.207-2.615,4.81c-0.051,0.069-2.264,3.989-2.943,5.104c-0.627,0.924-1.219,1.656-1.811,2.161
		c-0.523,0.349-1.117,0.679-1.43,0.731c-0.297,0.053-0.592,0.088-0.906,0.104c-1.238-0.209-2.578-1.429-4.27-3.815
		c-1.428-2.021-3.102-4.861-5.139-8.66l0.697,1.063C616.926,278.748,616.49,278.053,616.49,278.053 M438.985,305.494v-4.496
		c0.219-0.173,0.411-0.383,0.593-0.609c0.148-0.174,0.305-0.365,0.428-0.557c0.121-0.192,0.243-0.367,0.331-0.558
		c0.034-0.087,0.087-0.157,0.113-0.244c0.584-1.394,0.584-3.05,0-4.442c-0.026-0.088-0.079-0.158-0.113-0.227
		c-0.088-0.21-0.21-0.385-0.331-0.576c-0.123-0.191-0.279-0.383-0.437-0.574c-0.173-0.209-0.365-0.418-0.584-0.593V276.24
		c0.724,1.342,1.438,2.717,2.136,4.094c1.978,3.887,3.91,7.736,5.941,10.611c3.31,4.652,6.873,6.691,11.325,2.108
		c1.637-1.69,3.38-4.233,5.271-7.894c1.421,3.102,2.778,5.385,4.104,6.987c0.87,1.063,1.732,1.829,2.569,2.335
		c1.098,0.662,2.151,0.871,3.181,0.732c1.864-0.279,3.606-1.727,5.227-3.834c2.457-3.154,4.634-7.736,6.568-11.883
		c1.43-3.031,2.71-5.837,3.868-7.666c1.064,1.637,2.283,4.426,3.678,7.527c1.795,3.989,3.867,8.467,6.263,11.639
		c2.972,3.955,6.421,5.871,10.412,2.3c1.724-1.533,3.535-4.06,5.452-7.894c0.688,1.359,1.83,3.503,3.276,5.471
		c1.342,1.813,2.927,3.486,4.652,4.164c1.202,0.488,2.474,0.506,3.764-0.242c0.033-0.018,0.069-0.053,0.104-0.07
		c0.262-0.156,0.506-0.331,0.759-0.541c6.621-5.035,12.693-21.256,12.711-21.291c1.035,1.638,2.212,4.303,3.537,7.213
		c1.672,3.677,3.588,7.771,5.785,10.768c1.342,1.848,2.805,3.294,4.373,3.974c0.906,0.383,1.863,0.522,2.857,0.331
		c1.307-0.262,2.684-1.098,4.129-2.648c1.445-1.568,2.979-3.851,4.582-7.039c1.428,3.014,2.822,5.227,4.164,6.777
		c1.377,1.586,2.684,2.492,3.955,2.822c0.873,0.262,1.727,0.227,2.563-0.018c1.621-0.47,3.152-1.776,4.566-3.536
		c2.438-3.032,4.598-7.405,6.463-11.274c1.445-3.014,2.719-5.697,3.832-7.16c0.818,1.271,1.832,3.398,2.98,5.819
		c1.725,3.606,3.799,7.911,6.15,11.187c1.83,2.578,3.852,4.53,6.012,5.035c0.016,0,0.035,0.018,0.053,0.018s0.018,0,0.018,0
		c1.063,0.244,2.141,0.139,3.258-0.4c0.924-0.436,1.846-1.15,2.803-2.23c1.344-1.498,2.738-3.676,4.166-6.674
		c1.428,2.788,2.771,4.861,4.078,6.342c1.113,1.256,2.195,2.092,3.223,2.545c1.133,0.487,2.23,0.557,3.275,0.278
		c1.916-0.522,3.711-2.178,5.436-4.426c2.283-2.997,4.443-7.021,6.568-10.802c0.803-1.447,1.621-2.84,2.424-4.148v16.135
		c-1.168,0.506-1.986,1.359-2.51,2.388c-0.82,1.62-0.82,3.659,0,5.296c0.523,1.012,1.342,1.883,2.51,2.354v3.676v0.365H438.985
		V305.494z M434.307,312.969c-0.444,0-0.749-0.139-0.958-0.383c-0.296-0.297-0.428-0.768-0.472-1.255
		c-0.051-0.487-0.033-1.011,0-1.411l0,0c0-0.018,0-0.018,0-0.018c0-0.436,0.158-0.731,0.385-0.941
		c0.322-0.295,0.801-0.418,1.324-0.453c0.471-0.034,0.949-0.018,1.342,0c0.018,0,0.018,0,0.018,0h208.597
		c0.33-0.018,0.818-0.034,1.289,0c0.383,0.018,0.783,0.088,1.08,0.227c0.453,0.21,0.75,0.559,0.697,1.168c0,0,0,0,0,0.018
		c-0.088,0.68,0.053,1.689-0.227,2.352c-0.174,0.419-0.523,0.697-1.203,0.697l0,0H434.307 M471.717,315.983h42.601
		c0.837,20.839-2.004,35.283-4.878,56.731h-13.206l-30.171-22.023C467.953,341.422,470.654,322.971,471.717,315.983
		 M381.183,338.478c-7.274-5.053-6.813-4.687-11.083-7.893c-0.783,0.261-10.437,14.548-10.437,14.548l10.968,7.807l-16.369,22.424
		l-7.3-5.209l10.462-14.34l-15.515-11.047l-10.464,14.34l-13.339-9.496c0,0,10.455-14.549,12.729-17.493l10.706,7.631l11.344-15.489
		c0,0-7.589-5.506-10.716-7.631l7.631-10.473c-9.478-6.726-17.317-12.336-17.317-12.336s-4.191,6.568-7.642,10.472
		c-9.818-7.005-11.734-8.346-11.734-8.346s-6.727,9.321-12.075,16.535l11.744,8.363l-11.997,16.431l-14.33-10.211l10.401-14.374
		l-13.8-9.827l-10.663,14.201c-2.622-1.865-7.998-5.717-7.998-5.717l16.361-22.406l13.086,9.305l10.542-14.462l-13.07-9.304
		l8.486-11.64c2.265,1.551,6.447,4.495,11.814,8.312l6.56,4.6l19.279,13.782c15.289,10.907,31.659,22.616,42.444,30.335
		c4.269,3.049,7.675,5.488,9.774,6.986C389.668,326.855,386.341,331.699,381.183,338.478 M296.259,255.122
		c-1.027-0.923,8.8-12.214,9.461-12.423c0.444,0.313,0.967,0.697,1.534,1.098l1.935,1.359c0.069,0.052,0.146,0.104,0.226,0.156
		c1.56,1.098,3.423,2.422,5.541,3.902c3.886,2.754,8.643,6.116,14.079,9.949c1.244,0.871,2.525,1.777,3.851,2.701
		c1.707,1.22,3.476,2.475,5.296,3.764c1.219,0.836,2.448,1.725,3.703,2.596c3.301,2.335,6.734,4.757,10.297,7.266
		c1.621,1.15,3.267,2.318,4.939,3.502c7.894,5.559,16.238,11.466,24.776,17.477c2.301,1.638,4.617,3.258,6.937,4.896
		c10.818,7.648,21.778,15.385,32.329,22.824c1.384,0.977,2.753,1.952,4.12,2.91l2.039,1.446
		c13.816,9.757,26.676,18.835,37.207,26.257c13.043,9.201,22.504,15.874,25.744,18.174l-27.242-0.262L296.259,255.122z
		 M701.658,595.166c-2.004,34.045-14.896,55.615-41.068,77.533c-21.885,18.35-118.674,64.189-118.83,64.189
		c-0.4,0.037-101.197-45.439-123.098-64.031c-25.335-21.52-40.58-45.703-40.668-82.834c-0.088-31.848,0.331-62.063,0.331-76.994
		c17.016-12.371,26.118-17.545,43.803-28.994c8.067-5.209,18.696-10.523,29.212-10.385c13.581,0.192,25.7,6.309,34.491,12.337
		c10.471,7.196,21.028,19.95,34.41,21.152c8.991,0.802,16.71-2.997,24.027-7.735c6.482-4.217,12.965-8.939,20.578-10.455
		c9.025-1.812,18.471,1.221,26.258,6.098c10.697,6.725,14.846,12.389,22.182,18.557c4.32,3.643,19.357,12.58,36.658,10.82
		c8.852-0.889,16.309-4.965,24.342-8.363c8.119-3.415,19.184-2.771,27.807-0.732C702.809,515.503,702.844,575.25,701.658,595.166
		 M700.264,509.84c-8.102-1.586-19.045-0.418-27.059,2.162c-4.287,1.375-8.225,3.535-12.283,5.471
		c-9.705,4.652-24.516,3.17-32.271,0.156c-8.188-3.172-13.605-6.324-19.426-11.865c-12.895-12.267-26.24-24.951-48.193-20.247
		c-6.691,1.445-12.232,5.175-17.582,8.782c-7.326,4.947-14.234,9.617-23.939,8.746c-7.598-0.679-15.786-7.335-23.714-13.781
		c-5.716-4.652-11.64-9.462-17.442-12.093c-20.699-9.374-33.14-10.786-52.986,0.227c-5.608,3.102-37.295,23.452-47.565,30.074
		c0-21.571,0.026-43.124,0.052-62.622c0.035-31.188,0.063-56.453,0.019-66.141h324.586c-0.035,9.688-0.018,34.952,0.018,66.141
		c0.035,20.369,0.053,42.985,0.07,65.531C701.78,510.207,701.014,509.997,700.264,509.84 M739.537,541.342
		c12.18-6.342,20.646,4.793,13.137,15.629c-4.844,4.809-17.633,21.049-25.264,20.107
		C702.617,573.123,729.223,546.988,739.537,541.342 M730.336,543.104c-4.162,3.518-7.49,6.48-10.959,10.732
		c-3.973-2.807-10.766-6.9-10.766-7.406l-0.193-18.434C715.057,532.771,723.994,538.539,730.336,543.104 M839.811,407.981
		c1.168-1.534,4.6-2.771,5.715-1.62c9.063,3.989-55.703,72.186-44.9,42.896C813.52,437.479,829.776,423,839.811,407.981
		 M837.615,397.004c8.766,8.537-28.574,40.476-36.311,46.783c-1.672,1.133-5.209,3.467-7.057,0.244
		c-2.143-1.951,8.467-10.037,9.549-11.047c12.631-11.9,20.559-22.094,30.838-35.754C835.108,396.604,835.561,395,837.615,397.004
		 M831.153,385.975c8.17,6.133-10.84,25.107-11.971,26.258c-1.863,1.934-31.051,35.91-29.986,20.856
		c17.824-17.511,21.273-19.218,36.223-41.695C826.516,389.738,828.399,385.383,831.153,385.975 M821.742,378.553
		c17.965,2.422-26.953,45.074-33.768,49.535c-3.361,2.334-7.613-2.126-5.262-3.902C804.301,406.204,803.656,405.314,821.742,378.553
		 M816.045,366.652c10.908,11.115-17.389,38.593-30.318,50.859c-2.125,1.621-4.25,5.244-7.457,1.586
		c-1.375-2.195-2.09-3.015,1.221-5.803c3.59-3.014,9.338-10.279,12.979-14.549c7.947-9.305,16.693-24.516,19.012-29.324
		C813.397,365.432,815.086,366.338,816.045,366.652 M803.289,357.261c10.84,3.571,2.963,16.257,0.559,19.915
		c-0.68,1.969-24.254,34.359-28.801,34.255c-1.063,0.052-3.676-3.763-3.119-5.522c0.559-1.83,5.576-5.576,7.266-7.667
		C807.629,362.836,799.145,355.902,803.289,357.261 M785.623,364.282c1.727-4.53,3.744-18.435,7.371-17.633
		c5.609,1.237,5.592,4.339,5.609,8.712c0.035,13.137-12.859,30.752-21.588,40.197c-3.293,3.536-9.984,11.708-11.221,3.502
		C773.53,389.303,781.059,376.287,785.623,364.282 M753.893,402.841c1.814-1.742,7.441-4.042,8.904-1.464
		c0,0,29.848,49.223,35.354,57.289c5.646,11.204-8.328,19.951-17.389-1.428l-30.422-47.585
		C748.895,405.942,753.233,403.486,753.893,402.841 M750.08,416.449c0.869,1.48,30.35,47.148,29.652,46.922
		c-22.213,10.855-46.66,13.748-71.697,10.35c0-15.803-0.035-30.893-0.053-46.068C721.328,426.625,741.489,423.4,750.08,416.449
		 M708,587.969c0.035-10.908,0.053-22.791,0.07-35.178c3.988,2.422,8.746,5.453,8.189,5.297
		c-9.34,11.604,3.188,27.459,16.709,22.021l1.604,12.668c-4.008,1.359-22.338,2.893-26.643-0.557
		C707.983,590.826,708,589.398,708,587.969 M708.418,613.129c-0.471-0.105-2.613-0.977-2.613-0.977
		c1.324-6.76,1.604-9.355,2.195-15.367c1.918,0.521,2.787,1.533,10.576,1.813C719.153,607.344,711.449,602.969,708.418,613.129
		 M726.713,604.416c-3.328,4.096-3.137,7.824-1.045,11.936c-6.43-0.139-9.166-0.73-13.939-2.074
		c3.572-9.182,9.025-2.613,10.402-15.855c1.203-0.139,2.561-0.33,4.043-0.574C726.539,599.678,728.178,602.623,726.713,604.416
		 M730.285,615.83c-7.213-9.357,5.264-8.033,0.104-18.609c2.021-0.383,2.527-0.227,4.602-0.627
		c0.418,3.553,0.852,8.102,2.246,17.266C735.408,614.348,733.387,615.307,730.285,615.83 M673.17,737.883l-2.789,0.451
		c-0.434-0.887-1.15-1.793-1.984-2.682l26.293-18.086l-29.291,15.053c-0.365-0.434-0.748-0.834-1.098-1.236
		c-0.627-0.695-1.15-1.393-1.359-2.143c-0.156-0.574-0.174-1.201,0.123-1.916l32.006-16.049l-29.76,11.188
		c-0.313-0.609-1.287-1.324-2.334-2.143c-1.289-1.012-2.719-2.178-3.273-3.486c-0.299-0.695-0.367-1.428-0.055-2.195l33.07-8.816
		l-33.244,4.635c-1.307-0.869-2.23-1.463-2.805-1.969c-0.75-0.68-0.906-1.236-0.627-2.211c0.191-0.646,0.574-1.5,1.113-2.684
		l32.637-5.561l-33.438,1.623c-0.418-0.523-0.939-1.047-1.672-1.57l1.271-1.516c12.895-2.002,25.23-5.191,37.67-7.822
		c-0.383,1.863-0.07,4.111,0.68,6.533c1.045,3.346,2.945,7.021,5.053,10.49c2.596,4.232,5.506,8.154,7.598,10.732
		c0.418,0.506,0.801,0.975,1.131,1.375C696.448,724.537,684.723,731.104,673.17,737.883 M712.114,715.563
		c-0.471-0.539-1.047-1.186-1.656-1.916c-2.125-2.527-4.914-6.1-7.336-9.949c-2.02-3.205-3.781-6.604-4.721-9.705
		c-0.68-2.246-0.926-4.357-0.488-6.133c1.377-0.279,2.752-0.488,4.146-0.75c-0.262,2.057,0.418,4.566,1.619,7.213
		c1.395,3.119,3.52,6.43,5.734,9.463c2.752,3.746,5.662,7.072,7.508,9.008C715.317,713.717,713.715,714.639,712.114,715.563
		 M721.52,710.127c-0.139-0.139-0.295-0.297-0.451-0.453c-0.037-0.053-0.088-0.086-0.139-0.139
		c-1.953-1.988-4.793-5.053-7.424-8.451c-2.021-2.613-3.92-5.436-5.191-8.068c-1.203-2.508-1.83-4.859-1.447-6.742
		c1.83-0.279,3.676-0.521,5.506-0.75c-0.33,2.266,0.383,4.74,1.674,7.213c1.637,3.086,4.182,6.135,6.76,8.695
		c2.283,2.283,4.6,4.164,6.324,5.314C725.25,707.879,723.403,709.029,721.52,710.127 M731.662,704.01
		c-1.777-1.043-4.096-2.699-6.361-4.703c-2.422-2.162-4.771-4.705-6.342-7.336c-1.41-2.336-2.16-4.74-1.777-6.953
		c2.041-0.191,4.096-0.381,6.17-0.469c-0.018,0.957,0.051,1.828,0.156,2.666c0.262,2.299,0.889,4.164,1.83,5.715
		c1.428,2.369,3.535,4.043,6.115,5.471c2.23,1.027,4.373,1.707,5.295,2.543C735.076,701.99,733.369,702.982,731.662,704.01
		 M741.227,698.139c-0.836-0.453-2.299-0.836-3.92-1.342c-2.23-0.609-4.738-1.447-6.133-3.188c-0.697-0.715-1.219-1.586-1.428-2.648
		c1.531,0.662,2.803,0.836,3.953,0.906l0.68-0.053c0.785-0.121,1.918-0.191,3.555,0.453c1.568,0.469,3.311,1.586,5.68,4.355
		C742.83,697.145,742.012,697.633,741.227,698.139 M747.274,694.254c-0.836-1.324-1.777-2.283-2.787-2.996
		c-1.814-1.273-3.869-1.779-5.959-2.18c-1.57-0.068-3.066-0.016-5.402-1.115c-0.244-0.104-0.488-0.225-0.715-0.348
		c-1.619-0.662-3.119-1.691-4.338-3.449c1.01-0.455,2.107-1.012,3.275-1.639c3.363,0.035,5.664,0.645,7.51,1.586
		c2.143,1.098,3.676,2.666,5.453,4.391c1.43,1.377,3.016,2.822,5.244,4.217C748.789,693.225,748.039,693.748,747.274,694.254
		 M753.041,690.387c-2.318-0.873-4.059-2.127-5.645-3.451c-1.813-1.533-3.398-3.172-5.352-4.512
		c-1.689-1.15-3.641-2.074-6.254-2.475c1.76-0.924,3.24-1.516,4.496-1.848c2.455-0.645,4.111-0.297,5.385,0.592
		c0.59,0.244,1.113,0.559,1.531,0.977c0.68,0.68,1.082,1.568,1.533,2.578c0.105,0.244,0.227,0.506,0.348,0.768
		c1.117,1.777,2.336,3.605,4.34,4.686c0.697,0.367,1.482,0.646,2.387,0.82C754.887,689.148,753.963,689.758,753.041,690.387
		 M760.428,685.264c-10.732-0.523-5.73-8.834-15.854-11.135c1.967-1.395,3.953-2.805,5.924-4.27
		c10.924-0.592,6.41,8.695,18.172,9.496C765.621,681.553,762.78,683.59,760.428,685.264 M773.321,676.012
		c-13.258,0.453-8.709-7.945-18.189-9.602c0.906-0.697,1.83-1.377,2.719-2.074c2.684,0.908,7.91,2.354,10.035,2.598
		c3.068,1.133,4.826,5.836,9.078,6.482C775.762,674.268,774.541,675.141,773.321,676.012 M781.494,669.93
		c-9.914-1.219-9.549-8.555-20.264-8.207c3.902-5.383,16.412-4.373,17.039-1.76c0.959,2.18,5.158,5.943,8.016,5.891
		C784.682,667.299,782.942,668.762,781.494,669.93 M760.412,657.229c2.334-2.492,3.135-5.176,3.641-9.148l6.516,1.184
		C770.326,649.527,763.094,655.242,760.412,657.229 M790.467,661.584c-8.363,2.979-4.896-7.666-19.951-7.004
		c1.971-1.498,3.311-2.926,4.6-4.025c11.238-1.742,9.984,3.729,19.412,5.541C793.307,658.08,791.914,659.895,790.467,661.584
		 M797.436,650.52c-6.395,2.371-8.311-5.889-19.166-3.432c1.063-1.395,2.109-3.137,2.928-5.227c7.51-2.98,11.568,5.035,18.68,1.27
		C799.283,645.66,798.463,648.15,797.436,650.52 M761.735,612.691c-0.697-4.633-1.916-14.67-2.229-16.447
		c3.135,0.609,5.33,1.518,8.084,2.316c1.463,1.223,1.15,5.055,0.191,5.908C764.592,608.182,760.934,607.223,761.735,612.691
		 M762.014,614.068c-0.018-0.016-0.035-0.016-0.053-0.016c-0.051-0.297-0.104-0.682-0.174-1.082
		C761.84,613.32,761.91,613.668,762.014,614.068 M772.399,600.146c4.355,1.586,8.119,3.451,11.377,5.508
		c0.105,9.094-13.311-0.488-13.031,11.674c-1.848-0.871-3.643-1.568-5.176-2.092c-0.139-1.828,0.191-4.217,0.609-4.947
		C768.494,608.182,774.715,606.178,772.399,600.146 M775.883,625.604c-3.152-0.436-7.875-1.01-12.109-1.359
		c-0.279-1.654-0.627-3.605-0.994-5.697C770.707,621.16,774.297,623.703,775.883,625.604 M774.68,619.436
		c-1.375-11.045,11.588,0.385,12.111-11.727c1.934,1.463,3.658,2.979,5.156,4.584c-2.387,10.297-10.367,3.361-15.123,8.92
		C775.971,620.395,775.203,619.82,774.68,619.436 M792.889,619.191c0.365-0.297,2.057-1.881,2.596-2.457
		c2.074,3.102,3.52,6.396,4.373,9.74c-5.348,5.088-12.98-2.84-18.068,2.84c-0.504-1.793-1.516-3.816-2.525-5.227
		C782.871,619.977,788.01,623.201,792.889,619.191 M800.696,637.992c-6.744,5.018-11.797-3.99-18.592,0.715
		c0.313-1.395,0.4-2.143,0.436-4.096c3.92-7.578,11.848,0.768,18.068-4.25C800.922,632.904,800.94,635.467,800.696,637.992
		 M759.557,592.48c-0.262-0.053-0.924-10-1.498-13.52l45.615,1.377c3.225,16.916,7.195,38.924,8.416,48.42l-7.824-1.133
		C800.504,612.311,791.948,599.713,759.557,592.48 M854.865,642.783c-1.9,7.686-20.578,26.363-28.854,26.434
		c-7.963,0-13.311-12.25-6.953-17.494c-4.756-1.168-11.604-1.934-15.891-2.928c1.621-5.035,2.057-11.57,1.656-17.041l11.674,1.709
		c0.504-5.559-9.426-56.906-9.426-56.906l-53.543-1.777c0,0,4.982,42.234,6.775,53.281c4.584,0.088,13.662,1.307,16.973,1.777
		c1.986,5.158-0.559,12.58-3.52,16.309l-13.574-2.072c0.785,36.014-50.545-21.189-16.709-15.91
		c-1.602-11.883-6.518-49.203-6.518-49.203l21.102-20.578l49.24,1.568c-1.465-34.813,52.043,18.348,17.25,16.568
		c1.184,16.535,6.271,39.396,9.773,58.371C841.953,627.695,856.729,630.744,854.865,642.783"/>
	<path fill="#4A4A4A" d="M537.892,710.301c-8.207-2.039-16.187-5.035-23.732-8.887c-4.13-0.365-10.41-1.168-14.548-1.758
		c0.017-0.02,0.053-0.02,0.069-0.037c-1.35-0.207-4.373-0.68-4.913-0.783l0,0c-0.994-0.174-4.392-0.785-5.385-0.994
		c1.264,1.047,2.606,2.004,3.982,2.91c0,0,1.629,1.133,2.465,1.535c4.601,2.717,9.618,4.93,14.558,7.072
		c0.445,0.191,0.897,0.385,1.341,0.592c8.138,3.539,18.914,7.615,30.091,7.771c10.045,0.141,17.451-0.889,24.037-3.346
		c0.73-0.26,1.463-0.557,2.176-0.854c-1.078,0.035-2.141,0.07-3.203,0.07C555.717,713.594,546.69,712.48,537.892,710.301"/>
	<path fill="#4A4A4A" d="M563.524,703.436c-7.547,0-14.551-1.289-19.535-2.213l-0.521-0.104c-4.093,0.68-8.851,1.01-14.27,1.01
		c-3.302,0-6.864-0.121-10.637-0.383c6.333,2.945,12.955,5.297,19.725,6.986c11.073,2.754,22.502,3.748,33.967,2.98
		c5.574-2.563,10.785-5.629,15.559-9.166c2.352-1.742,4.617-3.537,6.535-5.645c-8.016,3.311-16.432,5.418-25.057,6.273
		C567.338,703.348,565.42,703.436,563.524,703.436"/>
	<path fill="#4A4A4A" d="M592.533,680.314c-0.332,0.262-1.568,1.186-3.346,2.406c-2.127,1.445-4.512,3.082-7.057,4.354
		c-0.123,0.07-0.244,0.123-0.385,0.193c2.598-0.855,5.143-1.813,7.633-2.893c1.742-0.768,3.467-1.604,5.156-2.492
		c1.951-1.027,3.869-2.125,5.734-3.293c-0.018-0.314-0.018-0.627-0.053-0.906l0,0c-0.104-1.186-0.332-2.16-0.68-2.961
		c-0.07-0.176-0.121-0.35-0.209-0.506c-0.105,0.088-0.191,0.189-0.297,0.277l-0.818,0.75c-0.383,0.385-0.768,0.715-1.168,1.098
		C595.635,677.701,594.19,679.094,592.533,680.314"/>
	<path fill="#4A4A4A" d="M522.341,676.447c-0.531-0.193-1.035-0.385-1.523-0.576c-0.018,0.297-0.053,0.715-0.105,1.221
		c-0.217,2.143-0.724,4.791-1.498,6.639c-0.14,0.365-0.313,0.73-0.506,1.096c-0.4,1.029-0.889,2.006-1.463,2.945
		c0.767,0.227,1.532,0.455,2.299,0.68c0.68,0.209,1.36,0.402,2.039,0.611c-0.191-3.678,0.82-8.051,2.579-12.041
		C523.57,676.848,522.961,676.656,522.341,676.447"/>
	<path fill="#4A4A4A" d="M496.387,665.748c-0.017-0.088-3.728,0.4-5.453,0.836c-3.213,0.82-6.219,2.633-7.038,3.121
		c0.444,0.818,0.992,1.707,1.689,2.629c1.464,1.916,3.031,3.295,4.321,4.234c0.123-0.697,0.365-1.725,0.871-2.893
		c0.4-0.941,1.508-2.926,2.971-4.861c0.209-0.262,0.418-0.541,0.636-0.818c0.314-0.436,0.557-0.768,0.696-0.924
		c0.428-0.488,0.854-0.906,1.281-1.289l0,0c0.009,0,0.009-0.018,0.018-0.018C496.387,665.766,496.387,665.766,496.387,665.748"/>
	<path fill="#4A4A4A" d="M592.254,670.365c-1.219,0.053-2.127,0.158-3.066,0.367c-0.453,0.104-0.82,0.227-1.08,0.295
		c0,0.018,0,0.035,0.018,0.035c0.801,0.818,1.604,2.893,1.689,3.084c0.035,0.088,0.785,1.795,1.01,3.764
		c1.238-0.854,2.248-1.621,3.033-2.23c0.992-0.801,1.568-1.289,3.24-2.77c0.715-0.609,0.889-0.838,1.254-1.133
		c-0.783-0.662-1.393-1.027-2.717-1.254C594.711,670.365,593.682,670.295,592.254,670.365"/>
	<path fill="#4A4A4A" d="M464.52,610.115c0-0.053,0.175-5.523,1.751-6.361c0.356-0.189,0.767-0.174,1.133,0.088
		c0.541,0.365,1.22,1.48,1.194,2.16c-0.019,0.332-0.044,0.732-0.07,1.186c-0.122,1.934-0.297,4.861-0.053,8.693
		c0.977,14.932,5.201,31.59,11.901,46.887c0.121,0.279,0.217,0.506,0.278,0.682c0.628,1.098,1.41,2.736,1.829,3.588
		c0.41-0.295,0.958-0.68,1.324-0.889c0.507-0.279,1.795-0.854,2.519-1.168c-4.94-11.098-7.484-30.229-8.146-38.924
		c-1.203-15.82-0.454-16.553-0.088-16.918c0.645-0.645,1.202-0.627,1.551-0.469c1.36,0.521,1.742,3.744,1.907,8.43
		c0.323,9.672,0.846,16.258,1.751,22.025c1.15,7.266,5.838,21.814,6.778,24.637c4.13-1.098,5.959-1.027,7.083-0.975
		c0.079,0,0.148,0,0.226,0l-0.129-0.611c-2.092-9.461-5.977-27.076-4.933-36.328c0.053-0.488,0.088-0.975,0.123-1.463
		c0.156-1.881,0.262-3.242,1.063-3.537c0.349-0.139,0.749-0.053,1.098,0.227c0.715,0.541,1.376,2.039,1.081,4.564
		c-0.828,6.918,3.066,27.043,5.505,36.504c0.21-0.088,0.419-0.193,0.802-0.42c0.628-0.418,2.779-1.916,3.799-4.303
		c0.331-0.803,0.339-1.168,0.349-2.422c0-0.383,0-0.854,0.017-1.428c-0.113-1.344-0.104-2.701,0.018-4.219
		c0.018-2.873,2.178-6.133,3.259-7.178c0.382-0.35,0.889-0.73,1.307-0.992c-1.446-5.523-2.901-11.918-3.102-18.139
		c-1.604,1.566-3.989,3.799-4.705,3.971c-1.237,0.279-2.352-0.486-3.083-1.113c-2.563-2.145-4.6-4.879-5.906-7.945
		c-0.768,0.559-1.726,0.854-2.753,0.871c-1.325-0.033-2.562-0.488-3.398-1.359c-0.801-0.836-1.237-1.916-1.567-2.873
		c-0.567-1.604-0.941-3.26-1.29-4.863c-0.296-1.271-0.584-2.596-0.975-3.869c-0.271,0.141-0.62,0.332-0.925,0.488
		c-2.16,1.15-2.962,1.516-3.483,1.307c-0.707-0.279-1.194-1.445-1.674-2.734l-0.14-0.33c-0.453-1.115-0.888-3.119-1.307-5.07
		c-0.191-0.924-0.383-1.813-0.558-2.477c-4.966,4.775-8.712,6.24-10.993,6.605c-0.063,0.016-5.351,0.783-6.047-0.227
		c-0.148-0.209-0.156-0.488-0.017-0.715c0.713-1.219,1.167-2.107,1.428-2.734c-1.69,1.342-4.565,2.77-9.339,1.271
		c-0.715-0.227-1.221-0.453-1.533-0.715c-0.664,0.592-1.839,1.551-2.822,1.848c-2.666,0.836-4.349,0.748-5.142-0.209
		c-0.47-0.594-0.487-1.377-0.348-2.109l-2.325,1.848c1.087,8.746,2.709,17.457,4.816,25.891c2.334,9.305,4.635,15.857,5.803,18.922
		c1.376,3.625,3.248,8.59,6.603,14.725c2.048,3.764,4.356,7.422,6.866,10.906c0.888-1.742,2.699-5.348,3.171-6.307
		c-1.307-2.701-12.98-27.426-13.809-53.369c-0.183-2.77-0.409-9.375,1.298-10.107c0.121-0.051,0.253-0.086,0.409-0.086
		c0.306,0,0.688,0.141,1.116,0.574l0.095,0.158c0.409,0.906,0.419,1.463,0.436,2.805c0.019,2.301,0.062,7.109,2.108,20.77
		c1.499,10.055,4.966,21.57,10.891,36.225c0.383,1.027,1.697,4.338,3.136,6.568c0.356,0.539,2.056,3.117,3.659,4.547
		c1.149-1.848,2.343-3.572,3.851-4.879C475.862,663.064,465.079,640.711,464.52,610.115"/>
	<path fill="#4A4A4A" d="M639.02,600.146c0.033,0.455-0.051,0.906-0.33,1.291c-0.715,0.975-2.389,1.186-5.158,0.592
		c-0.959-0.191-2.545-1.168-3.52-1.813c-0.088,0.262-0.279,0.576-0.611,0.906c-0.939,0.906-3.764,1.307-6.689,0.33
		c-1.045-0.33-2.039-0.834-2.945-1.463c0.332,0.682,0.82,1.568,1.498,2.719c0.141,0.227,0.141,0.506-0.016,0.715
		c-0.697,1.01-5.979,0.242-6.029,0.227c-5-0.803-9.166-4.688-11.17-6.568c-0.121-0.123-0.242-0.244-0.365-0.35
		c-0.176,2.145-0.73,5.715-1.324,7.789c0,0.033-0.768,2.734-1.83,3.135c-0.504,0.193-1.322-0.156-3.484-1.307
		c-0.295-0.156-0.645-0.348-0.924-0.488c-0.383,1.273-0.678,2.598-0.957,3.869c-0.365,1.604-0.732,3.277-1.307,4.863
		c-0.332,0.957-0.768,2.037-1.57,2.873c-0.836,0.871-2.037,1.359-3.344,1.359h-0.053c-1.01,0-1.986-0.313-2.752-0.871
		c-1.307,3.066-3.328,5.801-5.891,7.945c-0.748,0.627-1.863,1.41-3.102,1.113c-0.697-0.172-3.082-2.385-4.686-3.953
		c-0.02,2.266-0.088,4.111-0.42,5.871c-1.027,5.838-2.105,9.34-2.961,11.744c0.488,0.313,0.785,0.576,0.801,0.576
		c0.488,0.416,0.836,0.852,1.012,1.061c0.35,0.455,1.428,2.021,1.898,3.207c0.75,1.813,1.133,3.729,1.273,6.203
		c0.068,1.377,0.068,2.334,0.068,3.014c0,1.256,0.018,1.621,0.35,2.404c0.559,1.307,1.377,2.195,2.211,2.928l0.75-2.598
		c2.98-10.365,7.492-26.049,6.969-31.832c-0.242-2.596,0.42-4.076,1.115-4.6c0.332-0.244,0.715-0.314,1.045-0.191
		c0.664,0.242,1.117,1.201,1.205,5.053c0.121,6.428-4.479,22.912-7.215,32.756c-0.348,1.238-0.68,2.404-0.959,3.416
		c0.297,0.139,0.68,0.33,1.168,0.609c1.045,0.574,2.998,1.672,4.826,3.764c0.4,0.451,0.836,1.098,1.238,1.674v0.016l0.4-0.053
		c3.24-6.184,8.693-24.705,9.547-28.975c1.133-5.574,1.43-12.336,1.762-22.008c0.156-4.686,0.539-7.908,1.898-8.43
		c0.35-0.158,0.906-0.176,1.549,0.469c0.367,0.365,1.117,1.098-0.086,16.918l-0.121,1.691c-0.541,7.648-1.133,16.326-10.697,40.021
		c0.557-0.035,1.027-0.035,1.498-0.035c2.352,0,4.18,0.191,5.539,0.576c6.012-17.041,12.65-39.605,13.488-52.43
		c0.242-3.832,0.068-6.76-0.055-8.693c-0.016-0.453-0.053-0.854-0.053-1.186c-0.033-0.68,0.646-1.795,1.186-2.16
		c0.367-0.244,0.768-0.277,1.133-0.088c1.568,0.818,1.76,6.309,1.76,6.361c-0.383,20.316-7.266,39.846-12.301,54.117
		c-0.75,2.109-1.445,4.094-2.072,5.941c0.26,0.297,0.434,0.521,0.434,0.521c0.141,0.176,0.279,0.402,0.4,0.646
		c1.727-0.855,4.375-2.492,5.908-3.781c2.074-1.742,3.135-3.658,3.832-5.141c7.354-15.576,10.629-35.439,10.664-35.631
		c1.098-6.865,2.021-17.338,2.072-19.271c0.018-0.609,0.018-1.098,0.037-1.498c0-1.342,0.016-1.898,0.418-2.805l0.104-0.158
		c0.645-0.66,1.186-0.645,1.516-0.488c1.709,0.732,1.482,7.338,1.307,10.143c-0.836,25.943-12.527,50.703-13.816,53.352
		c0.209,0.4,0.68,0.957,1.115,1.48c0.295,0.35,0.592,0.715,0.871,1.063c0.523,0.68,1.08,1.412,1.428,1.848
		c1.848-1.691,5.855-7.648,6.641-9.008c3.064-5.35,4.773-9.898,6.148-13.539l0.436-1.186c1.186-3.102,3.486-9.67,5.803-18.922
		c1.219-4.844,3.451-14.67,4.947-26.588c-0.557-0.139-1.113-0.33-1.619-0.592C639.559,600.479,639.281,600.322,639.02,600.146"/>
	<path fill="#4A4A4A" d="M484.802,685.803c1.586,0.645,5.438,1.691,7.108,2.125c3.486,0.873,7.022,1.568,10.577,2.127
		c0.261,0.035,0.505,0.088,0.768,0.121c0.679,0.123,1.358,0.211,2.029,0.297c0.68,0.104,1.351,0.209,2.03,0.297
		c1.228,0.156,2.455,0.295,3.692,0.436c4.191,0.471,8.398,0.818,12.615,1.027c-2.562-0.609-5.183-1.291-8.102-2.072
		c-0.035,0.051-0.289-0.018-0.697-0.176c-0.627-0.174-1.299-0.35-1.986-0.539c-0.096-0.035-0.192-0.053-0.278-0.088
		c-0.366-0.104-0.733-0.191-1.115-0.313c-0.079-0.02-0.157-0.035-0.235-0.07c-0.663-0.191-1.351-0.383-2.065-0.609
		c-0.296-0.088-0.584-0.176-0.889-0.279c-0.261-0.07-0.549-0.158-0.818-0.246c-0.349-0.121-0.68-0.225-1.037-0.346
		c-0.27-0.088-0.549-0.176-0.827-0.264c-0.384-0.139-0.768-0.26-1.168-0.398c-0.261-0.088-0.522-0.176-0.783-0.279
		c-0.453-0.158-0.916-0.314-1.378-0.488c-0.235-0.086-0.461-0.156-0.696-0.242c-0.697-0.264-1.42-0.541-2.16-0.82
		c-0.105-0.053-0.227-0.105-0.349-0.141c-0.062-0.035-0.121-0.053-0.19-0.086c0,0-0.011,0.018-0.019,0.018l-0.297-0.123
		c0,0,0.019,0,0.019-0.018c-0.078-0.016-0.166-0.051-0.244-0.086c-0.235-0.105-0.461-0.191-0.696-0.279
		c-1.9-0.785-3.904-1.707-5.942-2.893c-0.967-0.469-1.707-0.957-2.353-1.463c-0.749-0.506-1.507-1.047-2.247-1.639
		c-0.454-0.348-0.872-0.715-1.272-1.063c-0.47-0.418-0.906-0.836-1.307-1.254c-1.219-1.254-2.169-2.527-2.911-3.92
		c-0.363,1.01-0.73,2.037-1.061,3.084c-0.697,2.107-1.256,4.25-1.36,6.482c-0.017,0.313-0.156,0.869,0.018,1.131
		C479.731,683.502,483.651,685.35,484.802,685.803"/>
	<path fill="#4A4A4A" d="M555.055,695.891c0.365-0.174,0.73-0.383,1.098-0.592c-3.154,0.297-9.74,0.559-19.306-0.627
		c-1.325-0.174-2.578-0.35-3.815-0.541c-0.104,0-0.209-0.018-0.323-0.018c-6.55-0.033-13.529-0.436-20.271-1.131
		c-1.516-0.105-2.031-0.209-3.39-0.367c-0.714-0.088-1.42-0.174-2.135-0.26c-3.292-0.453-6.568-0.959-9.827-1.604
		c-1.655-0.332-3.327-0.68-5.009-1.08c0.01,0.018,0.01,0.033,0.01,0.033c-2.44-0.627-7.022-1.967-9.261-2.996
		c-0.672-0.297-2.152-0.994-3.626-1.951c0.113,0.697,0.306,1.395,0.602,2.039c0.036,0.068,0.07,0.174,0.14,0.313
		c0.54,1.186,1.237,2.266,1.567,2.789c0.653,0.992,1.046,1.602,1.726,2.404c0.139,0.156,0.733,0.836,1.621,1.654
		c0.818,0.768,1.586,1.342,2.213,1.777c1.394,0.297,4.644,0.941,6.325,1.254l-0.01-0.016c1.769,0.33,6.595,1.078,8.808,1.428
		c0.019-0.018,0.026-0.018,0.035-0.018c3.38,0.436,8.887,1.15,12.25,1.445c11.76,1.012,21.474,0.906,28.871-0.313
		c3.188-0.523,5.646-1.221,7.65-1.916C552.633,697.023,553.957,696.432,555.055,695.891"/>
	<path fill="#4A4A4A" d="M590.041,685.838c-5.297,2.318-10.838,4.094-16.518,5.297c-0.035,0.018-0.053,0.018-0.088,0.035
		c-0.871,0.367-1.775,0.715-2.666,1.045l0.035,0.033l-0.365,0.088c-1.115,0.4-2.266,0.768-3.396,1.098
		c-0.629,0.176-1.238,0.35-1.865,0.488c-1.883,0.453-3.555,0.732-5.018,0.941c-1.43,0.889-2.877,1.725-4.375,2.475
		c-0.295,0.139-0.592,0.279-0.922,0.436c-1.762,0.818-4.025,1.707-7.127,2.492c5.889,1.027,13.572,2.072,21.379,1.307
		c9.443-0.924,18.609-3.398,27.25-7.318c0.959-1.447,1.777-3.033,2.354-4.844c0.73-2.336,1.428-5.768,1.551-8.922
		c-1.9,1.15-3.834,2.232-5.82,3.242C593.004,684.479,591.522,685.193,590.041,685.838"/>
	<path fill="#4A4A4A" d="M558.469,692.303c1.813-0.227,3.746-0.506,6.063-1.063c0.471-0.105,0.959-0.244,1.43-0.367
		c-1.271-1.238-2.457-2.979-4.477-6.48c-1.047-1.83-1.551-4.061-1.742-6.291c-0.385,0.141-0.926,0.383-1.762,0.506
		c-0.174,0.018-0.436,0.053-0.697,0.105c0.768,1.828,1.324,3.832,1.568,6.113c0.244,2.303-0.035,4.496-0.277,6.604
		C558.539,691.727,558.504,692.006,558.469,692.303"/>
	<path fill="#4A4A4A" d="M475.969,592.273c0.408-0.525,0.435-0.646,0.609-1.586c0.104-0.576,0.261-1.43,0.602-2.789
		c2.291-9.217,6.96-14.637,9.008-16.656c-4.652-1.047-6.265-4.617-6.222-8.104c-0.321,0.279-0.653,0.576-0.852,0.752
		c-4.07,3.641-7.737,14.512-9.262,20.348v0.02c-0.828,3.729-2.422,6.916-4.426,10.959c-0.785,1.586-1.673,3.363-2.605,5.348
		C464.8,600.34,471.089,598.371,475.969,592.273"/>
	<path fill="#4A4A4A" d="M488.356,607.465l0.244,0.818c1.133,3.939,1.133,3.939,1.15,4.043c0.296,1.656,1.054,2.422,1.672,2.598
		c0.244-0.053,1.533-1.168,2.719-3.502l0.008-0.018c1.124-2.023,9.287-18.121,11.168-22.479c-0.983-0.313-1.934-0.713-3.144-1.307
		c-1.43-0.713-2.483-1.463-3.606-2.246c-0.209-0.139-0.437-0.297-0.646-0.438c-1.098,2.215-2.265,4.445-3.483,6.604
		c-2.152,3.852-4.515,7.633-7.023,11.24c-0.053,0.088-0.138,0.189-0.234,0.313l1.141,4.217l-0.487,0.297L488.356,607.465z"/>
	<path fill="#4A4A4A" d="M501.816,623.113c0.792-0.158,3.736-2.805,5.026-4.514c0.697-4.461,2.648-13.311,4.757-18.574
		c1.081-2.719,2.483-5.453,3.573-7.422l-0.167-0.053c-1.07-0.314-2.281-0.662-3.337-1.08c-0.644-0.262-1.132-0.42-1.576-0.574
		c-0.514-0.158-0.984-0.314-1.534-0.576c-1.088,2.283-4.599,10.072-5.636,12.58c-0.401,0.977-1.778,3.781-3.102,6.48
		c-1.229,2.492-2.491,5.072-2.928,6.082l0.019,0.035C497.808,618.461,499.456,621.021,501.816,623.113"/>
	<path fill="#4A4A4A" d="M481.03,603.703c0.365-0.176,1.263-0.977,1.611-1.291c0.2-0.174,0.365-0.33,0.488-0.418
		c0.976-0.766,1.812-1.934,2.631-3.049c0.191-0.277,0.383-0.541,0.584-0.801c2.291-3.084,4.172-6.518,5.983-9.828l0.994-1.795
		c0.2-0.33,0.4-0.697,0.558-1.045c0.062-0.121,0.305-0.557,1.759-2.963c-1.725-1.934-5.191-7.49-6.185-10.156
		c-0.94,0.295-1.899,1.637-2.492,2.49l-0.242,0.332c-1.098,1.533-2.197,3.258-3.348,5.279c-1.715,3.014-2.621,6.342-3.223,8.904
		l-0.14,0.627c-0.609,2.596-0.976,4.146-0.558,6.863C480.08,600.861,480.689,603.145,481.03,603.703"/>
	<path fill="#4A4A4A" d="M455.774,598.439c1.707-0.418,4.93-1.863,7.37-6.916l0.157-0.314c0.696-1.428,1.655-3.396,3.092-7.369
		c0.75-2.039,1.342-3.852,1.89-5.506c1.169-3.486,2.161-6.518,3.991-10.176c0.453-0.906,1.045-2.004,1.907-3.311
		c1.263-1.9,2.745-3.658,4.434-5.227c-3.876-0.924-5.495-3.781-5.983-5.455c-0.287,0.297-0.558,0.629-0.733,0.838
		c-2.081,2.576-9.033,11.689-11.246,21.414c-0.279,1.445-0.862,4.023-1.376,6.289c-0.4,1.795-0.768,3.414-0.924,4.164
		c-0.681,3.502-1.473,6.586-4.905,11.674C453.858,598.631,454.677,598.701,455.774,598.439"/>
	<path fill="#4A4A4A" d="M460.27,566.467c3.171-7.23,9.808-15.471,11.246-17.215c-0.428-0.539-1.211-1.531-1.578-2.072
		c-0.486-0.715-0.695-1.639-0.852-2.369c-0.037-0.176-0.088-0.385-0.123-0.557c-1.725,1.479-8.276,10.68-11.857,17.875
		c-3.982,7.998-6.856,20.176-7.91,25.039c-0.322,1.498-1.236,5.418-1.541,6.289c-0.54,1.5-1.465,3.381-2.144,4.758
		c-0.148,0.33-0.323,0.678-0.47,0.992c5.418-1.307,8.677-5.418,9.687-12.266c0.227-1.498,1.916-9.445,2.282-11.117
		C457.62,572.637,458.736,569.936,460.27,566.467"/>
	<path fill="#4A4A4A" d="M603.215,591.121c0.172,0.959,0.207,1.135,0.66,1.691c5.35,6.725,12.268,8.434,13.73,8.434h0.053
		c-0.994-2.16-1.936-4.061-2.789-5.75c-2.004-4.025-3.572-7.215-4.408-10.908v-0.018c-0.418-1.619-4.268-15.941-9.338-20.49
		c-0.279-0.244-0.906-0.785-1.342-1.166c0.156,2.369-0.244,7.457-6.482,8.555c1.777,1.654,6.883,7.125,9.305,16.883
		C602.953,589.711,603.11,590.564,603.215,591.121"/>
	<path fill="#4A4A4A" d="M625.08,599.242c1.064,0.123,1.742-0.053,1.951-0.174c-3.57-5.193-4.389-8.311-5.07-11.85
		c-0.156-0.766-0.523-2.422-0.922-4.18c-0.508-2.268-1.098-4.846-1.377-6.309c-2.232-9.758-9.217-18.922-11.291-21.502
		c-0.244-0.295-0.68-0.801-1.098-1.201c-0.262,1.463-1.83,5-6.412,5.836c1.828,1.639,3.432,3.502,4.791,5.523
		c0.855,1.289,1.43,2.387,1.883,3.293c1.811,3.643,2.822,6.656,3.971,10.123c0.576,1.709,1.15,3.469,1.9,5.523
		c1.447,3.973,2.404,5.959,3.102,7.389l0.156,0.332C619.557,598.004,623.512,599.068,625.08,599.242"/>
	<path fill="#4A4A4A" d="M635.78,599.625c0.191,0,0.4-0.018,0.59-0.035c0.02,0,0.037,0,0.037,0c-0.07-0.488-0.855-2.266-3.432-6.324
		c-0.455-0.732-1.795-4.635-2.162-6.324c-1.063-4.879-3.938-17.094-7.945-25.109c-2.387-4.826-5.941-11.203-12.143-17.857
		c-0.229,1.463-0.488,2.455-0.82,2.943c-0.715,1.148-1.393,1.621-1.795,1.9c-0.105,0.068-0.209,0.156-0.279,0.209
		c0.941,1.131,8.068,9.809,11.395,17.369c1.516,3.451,2.633,6.135,3.225,9.324c0.123,0.521,0.348,1.707,0.609,3.102
		c0.559,2.943,1.307,7.002,1.672,7.928C627.903,595.096,631.805,599.625,635.78,599.625"/>
	<path fill="#4A4A4A" d="M594.623,600.27c1.15,1.48,2.527,2.807,4.043,3.922c0.156,0.104,0.277,0.191,0.4,0.191h0.018
		c0.104,0,0.174-0.105,0.279-0.367l0.016-0.053c0.455-1.01,0.664-2.143,0.873-3.24l0.086-0.4c0.191-0.924,0.367-1.918,0.523-3.031
		c0.436-2.771,0.033-4.445-0.557-6.971l-0.141-0.627c-0.609-2.578-1.516-5.941-3.258-8.975c-1.15-2.037-2.248-3.762-3.346-5.295
		l-0.244-0.35c-0.68-0.939-1.76-2.49-2.893-2.646c-0.889,2.734-3.99,8.328-6.342,10.453c1.793,2.963,1.83,3.066,1.848,3.119
		c0.139,0.33,0.365,0.697,0.574,1.063c0.088,0.156,0.176,0.314,0.262,0.471l0.715,1.307c1.184,2.16,2.404,4.391,3.746,6.518
		c0.662,1.045,1.219,1.881,1.758,2.646c0.211,0.264,0.4,0.541,0.594,0.82C593.91,599.313,594.258,599.799,594.623,600.27"/>
	<path fill="#4A4A4A" d="M588.821,615.01c0.035,0,0.07,0,0.088,0c1.359-0.383,1.621-0.975,2.143-2.42
		c0.471-1.273,0.871-2.58,1.221-3.887c0.035-0.121,0.07-0.262,0.086-0.4c0.246-0.959,0.438-1.936,0.609-2.893
		c0.053-0.174,0.088-0.314,0.123-0.488c0.105-0.383,0.314-1.186,0.156-1.377l-0.086-0.121c-0.123-0.158-0.227-0.297-0.314-0.418
		c-2.492-3.59-4.859-7.354-7.004-11.188c-1.254-2.264-2.473-4.58-3.607-6.898c-0.295,0.207-0.609,0.416-0.906,0.627
		c-1.113,0.783-2.158,1.516-3.572,2.213c-1.307,0.662-2.316,1.08-3.379,1.395c1.639,3.92,10.141,20.715,11.289,22.771
		C586.748,614.068,588.299,615.01,588.821,615.01"/>
	<path fill="#4A4A4A" d="M571.623,590.355c-1.445,0.68-4.947,1.777-7.143,2.457c1.098,2.004,2.578,4.861,3.711,7.701
		c2.475,6.186,3.834,11.969,4.041,17.197c1.377,1.863,5.299,5.715,5.961,5.592c4.371-4.529,4.982-6.584,5.227-7.369
		c0.018-0.033,0.018-0.07,0.035-0.104c-0.418-0.959-1.709-3.607-2.979-6.17c-1.326-2.699-2.701-5.506-3.086-6.463
		C576.293,600.564,572.53,592.256,571.623,590.355"/>
	<path fill="#4A4A4A" d="M636.492,571.922c-0.383-1.063-0.748-2.145-1.133-3.242c-0.068-0.172-0.156-0.418-0.277-0.697
		c-0.121-0.295-0.262-0.645-0.42-1.045c-5.695-15.053-14.564-25.734-15.785-26.936c-1.098,0.383-2.266,0.625-3.432,0.73
		c-1.133,0.088-2.266,0.053-3.381-0.105c0.453,0.594,1.08,1.43,1.813,2.422c3.641,4.828,9.74,12.895,11.465,16.797
		c2.211,4.967,4.617,10.959,7.701,24.709c1.498,6.584,5.35,12.213,8.852,12.893c0.088-0.383,0.088-1.795-0.629-6.76
		C639.944,581.574,638.201,576.66,636.492,571.922"/>
	<path fill="#4A4A4A" d="M539.913,561.955c-1.15-1.568-3.258-1.762-3.658-1.795c-3.468-0.332-6.047,2.631-6.883,3.607
		c-0.584,0.678-1.359,1.742-1.907,3.188c-0.672,1.777-0.689,3.275-0.689,4.061c-0.026,12.162,0.854,17.459,0.854,17.459
		c0.331,1.986,1.149,6.551,2.856,12.213c0,0,1.761,6.535,5.646,11.57c0.888,1.166,3.188,3.311,4.112,2.875
		c-1.996-4.461-3.059-8.119-3.277-8.643c-0.47-1.133-2.727-8.363-3.118-14.34c-0.593-9.199,0.82-19.828-0.14-27.391
		c0.087-0.088,0.227-0.209,0.402-0.191c1.088,0.018,1.376,3.555,1.479,5.994c0.245,5.471-0.017,9.67-0.217,12.057
		c-0.496,6.064-0.271,8.469,0.165,11.5c1.167,8.189,5.541,20.281,5.916,20.525c0.148,0.104,0.191-1.15,0.332-2.334
		c0,0-0.115-2.125-0.115-2.822c-0.025-6.605-0.811-16.572-0.811-16.572c-0.008-7.596-0.268-12.631-0.146-20.176
		C540.75,570.963,540.68,563.018,539.913,561.955"/>
	<path fill="#4A4A4A" d="M446.418,584.658c3.102-13.766,5.619-20.002,7.735-24.742c1.742-3.92,7.666-11.813,11.204-16.535
		c0.636-0.836,1.185-1.568,1.603-2.143l-5.994-0.783c-1.376,1.41-10.106,12.127-15.646,26.744c-0.14,0.402-0.289,0.75-0.41,1.045
		c-0.114,0.279-0.217,0.523-0.271,0.697c-0.383,1.098-0.766,2.18-1.141,3.24c-1.698,4.74-3.441,9.637-4.767,18.715
		c-0.591,4.164-0.687,5.785-0.653,6.395C441.399,596.402,444.998,590.982,446.418,584.658"/>
	<path fill="#4A4A4A" d="M556.047,685.523c-0.609-5.924-3.693-10-7.055-13.99c-0.646-0.783-1.168-1.465-1.605-2.125
		c-1.951-2.998-2.873-6.203-2.613-9.008c0.121-1.256,0.488-2.406,0.818-3.416c0.768-2.387,0.717-3.102,0.68-3.693l-0.016-0.229
		c-0.088-1.672-0.697-2.943-0.924-3.432c-0.33-0.68-0.697-1.289-1.107-1.795c-0.252-0.313-0.408-0.26-0.896-0.104
		c-0.174,0.068-0.383,0.139-0.602,0.174c-1.055,0.209-2.145,0.262-3.242,0.121c-0.19-0.016-0.487-0.051-0.809-0.104
		c-0.559-0.068-1.203-0.156-1.533-0.191c-0.018,0-0.025,0-0.036,0c-0.54,0-1.479,1.289-1.795,1.707
		c-0.077,0.123-0.14,0.209-0.182,0.262c-0.288,0.33-0.515,0.818-0.74,1.289c-0.105,0.209-0.209,0.418-0.315,0.609
		c-1.131,2.109-0.87,4.217-0.418,6.168c0.192,0.801,0.411,1.707,0.532,2.719c0.052,0.4,0.096,0.783,0.157,1.168
		c0.452,3.275,0.775,5.645-2.605,8.623c-4.79,4.252-6.848,9.602-7.554,19.725c2.954,0.68,6.177,1.256,9.593,1.707
		c1.532-1.934,2.509-7.092,1.48-11.602c-0.008-0.055-0.783-4.654,0.044-4.934c0.375-0.121,0.619,0.418,0.758,0.697
		c2.362,5.314,2.656,11.203,0.819,16.205l0.13,0.016c0.026,0,2.64,0.332,6.178,0.559c0.104,0.018,0.227,0.018,0.33,0.035
		c-1.77-5.156-1.271-11.15,1.375-16.5c0.141-0.279,0.402-0.818,0.785-0.662c0.82,0.297-0.139,4.877-0.156,4.914
		c-1.246,4.564-1.02,7.596,0.941,12.406c3.57,0.139,6.672,0.102,9.182-0.123l0.018-0.07c0.035-0.365,0.07-0.732,0.121-1.08
		C556.03,689.496,556.256,687.547,556.047,685.523 M536.707,654.807c-0.297,0.783-0.914,1.342-1.167,1.498
		c-0.035,0.018-0.088,0.035-0.14,0.035c-0.088,0-0.191-0.053-0.244-0.139c-0.069-0.123-0.034-0.297,0.104-0.367
		c0.044-0.035,0.122-0.088,0.228-0.174c0.217-0.227,0.53-0.574,0.705-1.045c0.062-0.158,0.104-0.297,0.148-0.455
		c-0.156,0.141-0.376,0.279-0.662,0.402c-0.244,0.105-0.558,0.174-0.933,0.209c-0.044,0-0.096,0-0.14,0
		c-0.165-0.018-0.305-0.104-0.409-0.227c-0.391-0.471-0.541-0.975-0.461-1.463c0.156-0.941,1.105-1.551,1.742-1.953
		c0.27-0.172,0.637-0.104,0.827,0.141c0.07,0.018,0.14,0.053,0.191,0.121C537.316,652.715,537.091,653.813,536.707,654.807
		 M543.207,654.877c0.172,0.469,0.488,0.818,0.713,1.027c0.088,0.088,0.176,0.158,0.219,0.174c0.129,0.086,0.174,0.262,0.096,0.383
		c-0.053,0.088-0.139,0.141-0.246,0.141c-0.041,0-0.086-0.018-0.129-0.037c-0.252-0.156-0.881-0.713-1.178-1.498
		c-0.363-0.992-0.6-2.09,0.229-3.432c0.035-0.068,0.104-0.104,0.184-0.121c0.199-0.244,0.557-0.314,0.826-0.139
		c0.627,0.418,1.586,1.027,1.742,1.951c0.088,0.504-0.07,0.992-0.451,1.463c-0.105,0.139-0.262,0.209-0.418,0.227
		c-0.055,0.018-0.088,0.018-0.141,0.018c-0.385-0.035-0.68-0.123-0.941-0.227c-0.279-0.105-0.488-0.244-0.652-0.383
		C543.102,654.563,543.155,654.719,543.207,654.877"/>
	<path fill="#4A4A4A" d="M526.298,554.533c0,0,1.053,0.834,2.029,0.854c0.129,0.018,0.243-0.02,0.243-0.02
		c0.095,0,0.175-0.033,0.262-0.068c-2.292-1.568-4.112-4.32-3.955-7.162c0.096-1.742,1.377-2.979,2.195-4.408
		c0.384-0.66,0.679-1.357,0.679-2.176c0-0.471-0.382-0.732-0.748-0.732c-0.35,0-0.697,0.209-0.697,0.662
		c0,0.645-0.244,1.219-0.575,1.76c-0.349,0.557-0.767,1.08-1.132,1.602c-0.855,1.256-1.264,2.613-1.15,4.131
		c0.034,0.262,0.069,0.486,0.113,0.73c0.208,1.273,0.653,2.215,0.983,2.77C525.217,553.645,525.991,554.289,526.298,554.533"/>
	<path fill="#4A4A4A" d="M520.311,640.623c0.837,0.297,1.611,0.697,2.248,1.254c1.263-1.828,5.827-8.451,6.586-9.914
		C526.759,633.793,522.515,638.48,520.311,640.623"/>
	<path fill="#4A4A4A" d="M524.284,644.822c1.037-0.678,7.092-10.314,7.092-10.314c-1.882,1.236-6.438,5.697-8.338,7.842
		c0.279,0.313,0.515,0.643,0.716,1.01C524.014,643.848,524.179,644.334,524.284,644.822"/>
	<path fill="#4A4A4A" d="M541.639,644.77l0.164-0.016c0.891-0.07,1.455-0.229,1.717-0.314c-0.279-1.568-1.986-8.678-2.779-10.734
		c-0.653,2.023-1.769,8.975-1.942,10.855c0.4,0.086,1.446,0.193,2.36,0.193L541.639,644.77z"/>
	<path fill="#4A4A4A" d="M551.274,634.037c0,0,3.99,7.684,5.646,10.158c0.189-0.471,0.4-0.906,0.572-1.236
		c0.176-0.332,0.402-0.609,0.611-0.889c-0.297-0.525-0.697-1.221-1.15-2.004C555.02,637.748,552.528,635.012,551.274,634.037"/>
	<path fill="#4A4A4A" d="M559.008,641.199c0.594-0.488,1.291-0.838,2.041-1.063c-2.127-2.527-5.367-6.656-7.354-8.451
		c0.541,1.271,3.484,6.445,5.053,9.182C558.836,640.988,558.922,641.094,559.008,641.199"/>
	<path fill="#4A4A4A" d="M563.504,590.32l1.395-0.592c0,0,4.967-1.76,6.568-2.439c2.318-0.959,6.674-3.119,8.781-4.791
		c5.594-4.426,7.301-10.699,8.957-12.684c5.75-0.367,8.086-3.189,8.449-6.082c0.227-1.725-1.602-5.715-1.098-5.855
		c0,0,6.379-1.41,7.807-3.588c2.107-3.207,0.924-7.318,0.924-7.318c0.086,0,5.609-2.074,2.369-10.141
		c0.662,1.621,13.068,0.314,12.789-0.523c-0.818-2.299-4.094-5.156-7.404-7.179c-4.182-2.561-8.975-3.065-12.039-2.717
		c-3.381,0.4-6.727,0.749-9.914,2.004c-4.672,1.863-7.145,5.278-8.277,10.054c-1.289,5.33-1.289,10.854-1.898,16.309
		c-0.768,6.881-2.736,13.451-8.121,18.172c-4.338,3.816-10.07,6.848-15.82,7.857C559.217,583.178,563.504,590.32,563.504,590.32"/>
	<path fill="#4A4A4A" d="M472.43,536.83c-3.241,8.066,2.301,10.141,2.379,10.141c0,0-1.193,4.111,0.914,7.318
		c1.429,2.178,7.807,3.588,7.807,3.588c0.514,0.141-1.325,4.131-1.098,5.855c0.366,2.893,2.701,5.715,8.449,6.082
		c1.655,1.984,3.364,8.258,8.967,12.684c2.107,1.672,6.464,3.832,8.772,4.791c1.619,0.68,6.577,2.439,6.577,2.439l1.394,0.592
		c0,0,4.296-7.143,6.542-9.514c-5.942-1.045-15.942-5.818-20.298-13.066c-4.356-8.365-4.845-18.713-4.862-19.148
		c-0.434-7.268-1.575-13.104-1.811-13.695c-2.973-7.615-14.098-8.137-17.076-8.485c-3.049-0.349-7.858,0.156-12.03,2.717
		c-3.321,2.022-6.596,4.88-7.406,7.179C459.363,537.145,471.786,538.451,472.43,536.83"/>
	<path fill="#4A4A4A" d="M585.789,671.289c-0.016-0.035-0.992-1.777-2.16-3.049c-1.725-1.83-3.955-3.051-5.75-4.008
		c-0.488-0.279-0.941-0.521-1.342-0.748c-0.836-0.508-1.898-1.135-2.84-2.248c-1.846-2.18-2.037-4.879-2.195-7.039
		c-0.035-0.594-0.07-1.168-0.088-1.725c-0.051-1.377-0.104-2.668-0.436-4.131c-0.416-1.777-1.113-3.24-2.09-4.32
		c-1.221-1.377-2.84-2.074-4.809-2.074c-0.07,0-0.139,0.018-0.227,0.018l-0.121,0.018c-0.367,0.035-0.732,0.104-1.082,0.209
		c-0.627,0.209-1.254,0.523-1.863,0.959c-0.123,0.086-0.264,0.189-0.365,0.277c-0.107,0.088-0.193,0.176-0.279,0.244l-0.07,0.07
		c-0.244,0.227-0.453,0.436-0.609,0.645c-0.158,0.174-0.246,0.313-0.314,0.453c-0.244,0.348-0.4,0.662-0.504,0.941
		c-0.385,1.148-0.176,2.213,0.068,3.449l0.053,0.262c0.418,2.107,2.09,4.738,2.246,4.947c0.873,1.135,1.779,2.301,2.354,3.66
		c0.801,1.934,0.977,3.973,0.523,5.906c-0.506,2.18-0.873,4.529-1.203,6.604c-0.139,0.854-0.26,1.672-0.383,2.422
		c-0.365,2.16-0.156,4.705,0.574,7.387c0.158,0.541,0.592,1.953,1.324,3.33c1.256,2.352,2.771,4.408,4.496,6.098
		c1.533-0.523,3.205-1.186,5.07-2.006c2.107-0.922,4.096-1.879,5.941-2.803c-0.436-0.4-0.977-0.908-1.533-1.498l-0.141-0.141
		c-1.602-1.672-3.432-3.555-4.998-6.533c-2.424-4.635-1.762-7.18-1.693-7.457c0.02-0.035,0.402-1.307,0.402-1.307l0.365-1.221
		l0.244,1.848c0.035,0.227,0.105,0.748,0.227,1.41c0.664,2.719,2.475,5.75,3.258,6.691c2.51,3.031,4.584,5.123,6.691,6.742
		c0.994-0.557,2.037-1.219,3.205-1.986c-0.695-3.064-1.777-6.482-4.408-8.887c-0.227-0.209-1.061-0.975-1.061-0.975l-0.438-0.365
		l0.506-0.297c0.279-0.156,0.992-0.191,2.545,1.256c1.742,1.637,3.711,5.506,4.494,8.17l0.332-0.227
		c0.471-0.33,0.889-0.609,1.254-0.889c-0.279-1.377-0.609-2.684-0.959-3.762C587.358,673.607,585.807,671.305,585.789,671.289
		 M568.104,649.301c-0.07,0.227-0.313,0.348-0.557,0.295c-0.016,0-0.035,0-0.035-0.016c-0.244-0.088-0.383-0.35-0.297-0.594
		c0.037-0.068,0.07-0.209,0.088-0.365c0.105-0.523,0.174-1.43-0.104-2.16c-0.07-0.176-0.141-0.35-0.209-0.506
		c-0.035,0.365-0.193,0.818-0.594,1.324c0,0,0,0.018-0.018,0.035c-0.018,0.033-0.053,0.07-0.086,0.088
		c-0.123,0.104-0.279,0.156-0.453,0.156c-0.611-0.053-1.064-0.262-1.377-0.645c-0.592-0.75-0.4-1.83-0.279-2.561
		c0.018-0.088,0.053-0.176,0.088-0.246l-0.018-0.018c-0.104,0-0.209-0.016-0.332-0.016c-0.26-0.018-0.469-0.209-0.469-0.471
		c0-0.264,0.227-0.473,0.488-0.473c2.664,0.02,3.59,1.535,4.146,2.998C568.541,647.332,568.297,648.777,568.104,649.301"/>
	<path fill="#4A4A4A" d="M523.046,445.982l-17.021,26.623l26.954-16.814L540,486.51l7.022-30.719l26.955,16.814l-17.006-26.623
		l31.084-6.952l-31.084-6.935l17.006-26.624l-26.955,16.814L540,391.568l-7.021,30.718l-26.954-16.814l17.021,26.624l-31.092,6.935
		L523.046,445.982z M518.568,417.86l17.007,10.611L540,409.096l4.444,19.376l16.988-10.611l-10.734,16.797l19.619,4.373
		l-19.619,4.392l10.734,16.795l-16.988-10.609L540,468.981l-4.425-19.374l-17.007,10.609l10.733-16.795l-19.609-4.392l19.609-4.373
		L518.568,417.86z"/>
	<path fill="#4A4A4A" d="M494.159,234.23c-3.119,0-5.663,2.51-5.663,5.594s2.544,5.594,5.663,5.594c3.118,0,5.662-2.51,5.662-5.594
		S497.277,234.23,494.159,234.23"/>
	<path fill="#4A4A4A" d="M586.086,245.418c3.119,0,5.662-2.51,5.662-5.594s-2.543-5.594-5.662-5.594s-5.662,2.51-5.662,5.594
		S582.967,245.418,586.086,245.418"/>
	<path fill="#4A4A4A" d="M540.698,245.418c3.127,0,5.662-2.51,5.662-5.594s-2.535-5.594-5.662-5.594
		c-3.119,0-5.664,2.51-5.664,5.594S537.579,245.418,540.698,245.418"/>
	<path fill="#4A4A4A" d="M489.523,291.207c-3.119,0-5.663,2.525-5.663,5.593c0,3.101,2.544,5.61,5.663,5.61
		c3.12,0,5.663-2.51,5.663-5.61C495.186,293.732,492.643,291.207,489.523,291.207"/>
	<path fill="#4A4A4A" d="M590.391,291.207c-3.121,0-5.664,2.525-5.664,5.593c0,3.101,2.543,5.61,5.664,5.61
		c3.117,0,5.662-2.51,5.662-5.61C596.053,293.732,593.508,291.207,590.391,291.207"/>
	<path fill="#4A4A4A" d="M540.531,291.207c-3.127,0-5.653,2.525-5.653,5.593c0,3.101,2.525,5.61,5.653,5.61
		c3.127,0,5.672-2.51,5.672-5.61C546.203,293.732,543.658,291.207,540.531,291.207"/>
	<polygon fill="#4A4A4A" points="347.276,444.588 350.063,437.479 350.917,435.283 348.704,434.447 344.732,432.932 
		342.519,432.078 341.665,434.273 338.878,441.365 329.625,437.828 327.404,436.992 326.55,439.17 324.52,444.361 323.668,446.54 
		325.88,447.394 335.131,450.931 332.039,458.807 331.176,461.002 333.398,461.838 337.362,463.371 339.575,464.207 
		340.438,462.029 343.529,454.137 351.039,457.012 353.252,457.865 354.124,455.67 356.144,450.495 356.999,448.299 
		354.786,447.463 	"/>
	<polygon fill="#4A4A4A" points="732.01,454.938 732.604,457.203 734.903,456.629 742.709,454.625 744.643,461.994 745.235,464.277 
		747.535,463.685 751.664,462.64 753.963,462.047 753.772,461.35 753.842,461.333 753.18,459.033 751.438,452.395 761.037,449.938 
		763.338,449.346 762.746,447.08 761.334,441.696 760.742,439.431 758.442,440.023 748.842,442.48 746.699,434.291 746.09,432.025 
		743.807,432.602 739.678,433.664 737.377,434.256 737.969,436.521 740.114,444.711 732.324,446.696 730.006,447.289 
		730.615,449.555 	"/>
	<path fill="#4A4A4A" d="M520.748,645.154c-0.776-1.203-2.248-1.971-4.034-2.145c-0.234-0.033-0.48-0.033-0.671-0.033
		c-0.819,0-1.604,0.139-2.353,0.4l-0.156,0.051c-0.07,0.02-0.14,0.035-0.209,0.07c-1.012,0.418-2.396,0.992-3.816,2.996
		c-0.95,1.342-0.983,2.51-1.063,5.037l-0.034,1.027c-0.035,0.889-0.009,1.271,0.008,1.586c0.019,0.332,0.036,0.609-0.008,1.271
		c-0.157,2.162-0.348,4.844-2.194,7.021c-1.351,1.621-3.259,2.631-5.124,3.607c-1.376,0.73-2.805,1.48-3.964,2.475
		c-1.593,1.357-2.91,3.188-4.034,5.557c-0.748,1.604-1.307,3.223-1.672,4.967c0.428,0.279,0.854,0.523,1.272,0.748
		c0.261,0.158,0.531,0.297,0.792,0.453c0.619-2.648,2.797-7.107,4.688-8.869c1.551-1.445,2.257-1.393,2.552-1.254l0.498,0.279
		l-1.49,1.359c-2.562,2.334-3.868,6.359-4.514,9.305c0,0.018-0.008,0.033-0.017,0.07c0.992,0.469,2.021,0.939,3.136,1.393
		c0.279,0.105,0.558,0.227,0.819,0.332l0.139,0.051c1.707-1.357,3.485-3.205,6.064-6.307c0.774-0.941,2.596-3.973,3.259-6.691
		c0.121-0.68,0.19-1.184,0.226-1.41l0.244-1.865l0.356,1.221c0,0,0.374,1.254,0.401,1.322c0.079,0.279,0.723,2.822-1.699,7.459
		c-1.559,2.98-3.379,4.861-5.001,6.533l-0.14,0.139c-0.242,0.262-0.487,0.508-0.714,0.732l0.828,0.297
		c0.635,0.244,1.246,0.453,1.847,0.662c0.602,0.209,1.159,0.383,1.682,0.541c1.089,0.348,2.056,0.609,3.162,0.922
		c1.16,0.332,2.475,0.697,4.174,1.221c1.428-2.004,2.404-3.887,2.979-5.77c0.696-2.281,0.896-4.824,0.627-7.803
		c-0.235-2.545-0.714-5.281-1.577-8.887c-0.453-1.934-0.271-3.99,0.532-5.908c0.573-1.377,1.472-2.545,2.352-3.676
		c0.174-0.209,0.339-0.436,0.505-0.662l0.122-0.139C522.297,651.182,522.106,647.262,520.748,645.154 M515.329,648.098
		c-0.193,0.455-0.575,0.803-1.151,0.994c-0.156,0.051-0.33,0.051-0.47-0.018c-0.044-0.02-0.088-0.053-0.121-0.07
		c-0.011-0.018-0.019-0.018-0.027-0.018c-0.514-0.4-0.793-0.783-0.932-1.131c-0.018,0.172-0.052,0.365-0.052,0.557
		c-0.07,0.73,0.226,1.586,0.486,2.107c0.062,0.139,0.132,0.244,0.192,0.33c0.14,0.209,0.087,0.488-0.123,0.646
		c-0.077,0.051-0.173,0.088-0.269,0.088c-0.149,0-0.287-0.07-0.385-0.193c-0.321-0.453-0.948-1.777-0.852-3.066
		c0.129-1.566,0.601-3.258,3.171-3.99c0.252-0.068,0.514,0.07,0.584,0.313c0.069,0.246-0.07,0.508-0.323,0.576
		c-0.113,0.035-0.209,0.088-0.313,0.121l-0.009,0.02c0.069,0.051,0.121,0.121,0.157,0.209
		C515.206,646.232,515.694,647.227,515.329,648.098"/>
</g>
</svg>
