<?xml version="1.0" encoding="utf-8"?>
<!-- Generator: Adobe Illustrator 16.0.0, SVG Export Plug-In . SVG Version: 6.00 Build 0)  -->
<!DOCTYPE svg PUBLIC "-//W3C//DTD SVG 1.1//EN" "http://www.w3.org/Graphics/SVG/1.1/DTD/svg11.dtd">
<svg version="1.1" id="Camada_1" xmlns="http://www.w3.org/2000/svg" xmlns:xlink="http://www.w3.org/1999/xlink" x="0px" y="0px"
	 width="64.02px" height="24.803px" viewBox="0 0 64.02 24.803" enable-background="new 0 0 64.02 24.803" xml:space="preserve">
<g>
	<path fill="#8B8C8C" d="M36.602,11.832h3.525c-0.222,0.308-0.378,0.785-0.467,1.431c-0.09,0.646-0.135,1.767-0.135,3.365
		c0,1.06,0.021,1.838,0.064,2.333c0.041,0.496,0.114,0.894,0.217,1.192c-0.914,0.052-2.04,0.14-3.379,0.264
		c-1.337,0.124-2.207,0.186-2.609,0.186c-2.88,0-5.088-0.714-6.621-2.141c-1.535-1.429-2.303-3.476-2.303-6.142
		c0-2.83,0.938-5.067,2.815-6.713c1.876-1.646,4.438-2.468,7.687-2.468c0.581,0,1.218,0.026,1.91,0.077
		c0.693,0.051,1.419,0.128,2.18,0.23v3.077C38.846,5.798,38.1,5.253,37.25,4.89c-0.852-0.363-1.803-0.545-2.854-0.545
		c-2.086,0-3.736,0.677-4.949,2.032c-1.214,1.355-1.82,3.199-1.82,5.532c0,2.325,0.659,4.14,1.98,5.443
		c1.32,1.304,3.152,1.955,5.494,1.955c0.385,0,0.732-0.017,1.045-0.052c0.312-0.034,0.613-0.085,0.904-0.153
		c0.068-0.444,0.119-0.919,0.154-1.423c0.033-0.505,0.05-1.064,0.05-1.681c0-1.196-0.05-2.121-0.153-2.775
		C36.999,12.569,36.833,12.106,36.602,11.832z"/>
	<path fill="#8B8C8C" d="M46.399,20.099c0.234-0.252,0.402-0.816,0.499-1.69c0.097-0.876,0.145-2.744,0.145-5.605v-0.997
		c0-1.396-0.013-2.64-0.038-3.73c-0.024-1.09-0.063-2.14-0.113-3.149h-2.739c-0.606,0-1.098,0.05-1.477,0.152
		c-0.379,0.101-0.742,0.265-1.086,0.492l0.618-2.044h13.129c-0.296,0.472-0.657,0.81-1.086,1.016
		c-0.43,0.206-0.998,0.309-1.704,0.309l-3.143,0.026c-0.052,1.145-0.087,2.312-0.107,3.502c-0.021,1.191-0.032,2.451-0.032,3.781
		c0,3.256,0.049,5.331,0.146,6.223c0.097,0.893,0.263,1.465,0.499,1.717H46.399z"/>
	<path fill="#8B8C8C" d="M57.403,20.099c0.235-0.252,0.401-0.833,0.498-1.741c0.097-0.909,0.146-2.854,0.146-5.832v-1.061
		c0-3.249-0.049-5.321-0.146-6.216c-0.097-0.897-0.263-1.471-0.498-1.724h3.508c-0.235,0.244-0.401,0.804-0.498,1.679
		c-0.097,0.875-0.146,2.739-0.146,5.592v1.01v0.997c0,2.861,0.049,4.731,0.146,5.61c0.097,0.88,0.263,1.441,0.498,1.686H57.403z"/>
	<g>
		<path fill-rule="evenodd" clip-rule="evenodd" fill="#8B8C8C" d="M7.377,15.528C7,14.895,6.674,14.227,6.41,13.519
			c-0.015,0.001-0.029,0.002-0.042,0.002c-0.158,0-0.303-0.053-0.419-0.14c-0.313,0.275-0.617,0.564-0.912,0.87
			c0.07,0.108,0.11,0.238,0.11,0.378c0,0.059-0.007,0.116-0.021,0.171c0.68,0.354,1.408,0.634,2.17,0.849
			C7.319,15.604,7.346,15.564,7.377,15.528"/>
		<path fill-rule="evenodd" clip-rule="evenodd" fill="#8B8C8C" d="M15.453,15.435c-0.701-1.796-1.047-3.682-1.1-5.606
			c0-0.05-0.002-0.099-0.003-0.148c-0.186-0.046-0.343-0.165-0.437-0.325C11.405,9.982,9.057,10.99,7,12.525
			c0.042,0.089,0.065,0.189,0.065,0.295c0,0.245-0.125,0.46-0.315,0.584c0.253,0.674,0.563,1.311,0.92,1.914
			c0.076-0.027,0.158-0.043,0.243-0.043c0.377,0,0.685,0.3,0.699,0.673c2.11,0.378,4.394,0.323,6.559-0.014
			C15.189,15.729,15.297,15.55,15.453,15.435"/>
		<path fill-rule="evenodd" clip-rule="evenodd" fill="#8B8C8C" d="M6.054,7.74c-0.137,1.463-0.063,2.936,0.297,4.381h0.016
			c0.149,0,0.288,0.048,0.401,0.127c2.096-1.568,4.489-2.599,7.05-3.24V9c0-0.336,0.237-0.617,0.553-0.685
			c0.031-0.658,0.096-1.315,0.186-1.968c-0.139-0.057-0.255-0.158-0.332-0.284c-2.48,0.745-5.006,1.141-7.604,1.219
			C6.533,7.525,6.316,7.706,6.054,7.74"/>
		<path fill-rule="evenodd" clip-rule="evenodd" fill="#8B8C8C" d="M17.148,18.618c-1.203,0.996-2.675,1.679-4.291,1.923
			c-1.689-1.134-3.236-2.479-4.431-4.09c0.042-0.045,0.079-0.097,0.108-0.152c1.443,0.26,2.929,0.315,4.343,0.239
			c0.777-0.042,1.567-0.125,2.355-0.247c0.111,0.239,0.354,0.405,0.635,0.405c0.048,0,0.095-0.004,0.139-0.013
			C16.34,17.354,16.722,17.999,17.148,18.618"/>
		<path fill-rule="evenodd" clip-rule="evenodd" fill="#8B8C8C" d="M19.691,15.152c-0.506,1.243-1.288,2.345-2.27,3.229
			c-0.408-0.595-0.771-1.214-1.093-1.857c0.136-0.119,0.224-0.288,0.236-0.478C17.634,15.818,18.687,15.52,19.691,15.152"/>
		<path fill-rule="evenodd" clip-rule="evenodd" fill="#8B8C8C" d="M19.696,8.522c0.415,1.022,0.644,2.139,0.644,3.31
			c0,1.007-0.169,1.973-0.48,2.874c-1.026,0.391-2.166,0.729-3.363,0.984c-0.113-0.232-0.354-0.392-0.629-0.392
			c-0.026,0-0.053,0.001-0.078,0.004c-0.687-1.756-1.024-3.602-1.075-5.484c-0.001-0.049-0.003-0.098-0.003-0.146
			c0.271-0.078,0.477-0.317,0.502-0.608C16.67,8.778,18.172,8.607,19.696,8.522"/>
		<path fill-rule="evenodd" clip-rule="evenodd" fill="#8B8C8C" d="M17.121,5.024c1.028,0.846,1.863,1.921,2.424,3.147
			c-1.492,0.087-2.963,0.259-4.391,0.54c-0.082-0.179-0.234-0.317-0.424-0.377c0.031-0.648,0.094-1.296,0.183-1.94
			c0.344-0.044,0.608-0.337,0.608-0.693c0-0.02,0-0.04-0.002-0.06C16.055,5.452,16.59,5.247,17.121,5.024"/>
		<path fill-rule="evenodd" clip-rule="evenodd" fill="#8B8C8C" d="M15.383,3.908c0.5,0.243,0.973,0.531,1.413,0.86
			c-0.464,0.191-0.931,0.369-1.398,0.534c-0.067-0.098-0.159-0.177-0.267-0.229C15.207,4.683,15.291,4.294,15.383,3.908"/>
		<path fill-rule="evenodd" clip-rule="evenodd" fill="#8B8C8C" d="M6.693,4.47c1.388-0.915,3.05-1.447,4.838-1.447
			c1.25,0,2.442,0.261,3.519,0.731c-0.1,0.414-0.19,0.83-0.271,1.249c-0.366,0.022-0.656,0.326-0.656,0.698c0,0.006,0,0.012,0,0.018
			c-2.438,0.733-4.92,1.124-7.473,1.204C6.607,6.689,6.449,6.496,6.237,6.404C6.354,5.755,6.507,5.109,6.693,4.47"/>
		<path fill-rule="evenodd" clip-rule="evenodd" fill="#8B8C8C" d="M4.226,6.907C4.772,6.098,5.45,5.385,6.228,4.798
			C6.09,5.313,5.974,5.832,5.88,6.353C5.569,6.388,5.32,6.628,5.271,6.936C4.924,6.932,4.575,6.922,4.226,6.907"/>
		<path fill-rule="evenodd" clip-rule="evenodd" fill="#8B8C8C" d="M2.81,13.077c-0.058-0.406-0.088-0.822-0.088-1.245
			c0-1.676,0.468-3.242,1.279-4.574c0.438,0.021,0.874,0.034,1.307,0.038c0.069,0.181,0.21,0.326,0.389,0.399
			c-0.143,1.512-0.065,3.033,0.309,4.527c-0.203,0.122-0.339,0.345-0.339,0.599c0,0.099,0.021,0.192,0.057,0.276
			c-0.326,0.289-0.645,0.592-0.954,0.911c-0.097-0.05-0.207-0.078-0.322-0.078c-0.177,0-0.337,0.064-0.46,0.172
			c-0.04-0.028-0.079-0.057-0.118-0.086C3.491,13.733,3.136,13.42,2.81,13.077"/>
		<path fill-rule="evenodd" clip-rule="evenodd" fill="#8B8C8C" d="M3.506,15.471c-0.256-0.563-0.454-1.159-0.587-1.779
			c0.276,0.257,0.565,0.492,0.867,0.709c-0.024,0.071-0.038,0.148-0.038,0.229c0,0.144,0.043,0.278,0.119,0.391
			C3.745,15.167,3.625,15.317,3.506,15.471"/>
		<path fill-rule="evenodd" clip-rule="evenodd" fill="#8B8C8C" d="M11.531,20.641c-3.424,0-6.392-1.953-7.849-4.806
			c0.149-0.198,0.301-0.391,0.456-0.579c0.093,0.046,0.198,0.072,0.31,0.072c0.197,0,0.375-0.081,0.502-0.213
			c0.716,0.373,1.479,0.664,2.266,0.884c0.012,0.375,0.321,0.676,0.699,0.676c0.071,0,0.141-0.011,0.206-0.031
			c1.141,1.542,2.595,2.849,4.194,3.962C12.056,20.629,11.794,20.641,11.531,20.641"/>
	</g>
</g>
</svg>
