<?xml version="1.0" encoding="utf-8"?>
<!-- Generator: Adobe Illustrator 16.0.0, SVG Export Plug-In . SVG Version: 6.00 Build 0)  -->
<!DOCTYPE svg PUBLIC "-//W3C//DTD SVG 1.1//EN" "http://www.w3.org/Graphics/SVG/1.1/DTD/svg11.dtd">
<svg version="1.1" id="Camada_1" xmlns="http://www.w3.org/2000/svg" xmlns:xlink="http://www.w3.org/1999/xlink" x="0px" y="0px"
	 width="332.25px" height="232.5px" viewBox="0 0 332.25 232.5" enable-background="new 0 0 332.25 232.5" xml:space="preserve">
<g>
	<path fill="#005480" d="M27.859,89.196c-0.599,0.054-1.723,0.063-3.371,0.034c-1.649-0.027-3.613-0.4-5.887-1.115
		c-2.279-0.711-3.828-1.54-4.645-2.482C8.199,77.121,4.638,67.209,3.28,55.902l-0.453-4.197c-0.795-9.404-0.22-17.316,1.722-23.728
		c1.209-3.193,3.456-5.261,6.732-6.212c1.382-0.387,2.835-0.641,4.372-0.771c1.934-0.163,4.361-0.033,7.289,0.39
		c2.922,0.428,5.659,1.373,8.202,2.835c-1.59,1.884-3.282,5.906-5.078,12.069c-1.8,6.167-2.989,12.971-3.569,20.408
		c-0.263,3.25-0.267,6.373-0.015,9.372c0.316,3.737,1.049,7.235,2.199,10.5l1.783-8.715c2.521-12.307,5.681-23.426,9.479-33.355
		c5.221-13.746,10.867-20.872,16.94-21.387c1.399-0.116,3.106,0.228,5.126,1.032c2.013,0.8,3.635,2.126,4.869,3.97
		c0.545,0.895,0.861,1.88,0.953,2.943c0.112,1.337-0.066,2.795-0.538,4.381c-4.242,0.693-8.243,3.637-12.003,8.823
		c-3.763,5.188-7.04,11.343-9.827,18.468c-2.795,7.121-4.974,13.923-6.546,20.401c-1.564,6.483-2.343,11.405-2.328,14.761
		C31.24,88.611,29.663,89.047,27.859,89.196"/>
	<path fill="#005480" d="M90.945,81.957c-2.938,0.247-6.468-0.011-10.598-0.767c-4.129-0.763-7.819-3.289-11.071-7.583
		c-3.063-4.444-4.877-10-5.439-16.675c-0.329-3.869-0.137-8.199,0.566-12.995c0.704-4.797,2.227-9.613,4.573-14.449
		c2.346-4.833,5.466-8.877,9.359-12.125c3.887-3.255,8.505-5.107,13.839-5.555c4.672-0.393,8.652,0.413,11.947,2.417
		c3.292,2.008,5.686,4.697,7.183,8.062c0.907,2.009,1.45,4.077,1.631,6.211c0.125,1.468,0.083,2.983-0.121,4.546
		c-1.17,6.815-3.656,11.595-7.458,14.332c-3.422,2.443-6.833,3.803-10.238,4.092c-0.33,0.027-1.535,0.063-3.615,0.104
		c-2.084,0.041-3.676-0.561-4.792-1.814c-0.627,3.683-0.811,7.094-0.548,10.225c0.139,1.603,0.584,3.883,1.336,6.844
		c0.754,2.96,3.151,4.911,7.194,5.844c0.683,0.143,1.427,0.181,2.225,0.112c1.936-0.164,4.369-1.006,7.298-2.53
		c2.926-1.524,5.696-4.344,8.306-8.461c3.205-5.779,5.673-10.76,7.406-14.936c0.571-1.19,0.995-2.085,1.284-2.682
		c0.285-0.595,0.529-0.898,0.729-0.914c0.334-0.031,0.529,0.323,0.594,1.055c-0.012,5.444-1.357,10.997-4.033,16.668
		c-1.926,4.264-4.266,7.985-7.02,11.173c-3.507,3.859-7.939,6.652-13.301,8.38C95.758,81.281,93.347,81.755,90.945,81.957
		 M90.394,44.411c3.802-0.321,6.805-1.345,9.012-3.078c3.16-2.349,4.573-5.494,4.243-9.43c-0.093-1.064-0.442-2.262-1.061-3.59
		c-0.614-1.323-1.625-1.962-3.031-1.911c-1.913,0.431-3.8,1.934-5.669,4.512c-1.863,2.577-3.438,5.799-4.722,9.672
		c-0.501,1.25-0.893,2.561-1.182,3.927L90.394,44.411z"/>
	<path fill="#005480" d="M167.746,77.284c-1.133,0.096-2.531-0.153-4.191-0.754c-1.668-0.597-3-1.662-4.003-3.19
		c-2.525-3.681-3.985-7.827-4.374-12.428c-0.463-5.47-0.035-12.327,1.285-20.569c0.178-1.087,0.318-2.209,0.423-3.36
		c-4.942,9.086-9.941,20.289-14.999,33.619c-1.479,3.954-2.596,6.667-3.344,8.143c-1.477,0.794-2.984,1.258-4.518,1.388
		c-1.201,0.1-2.799-0.132-4.797-0.703c-1.995-0.572-3.563-1.615-4.699-3.135c-3.526-5.141-5.574-11.114-6.148-17.92
		c-0.04-0.467-0.17-2.621-0.395-6.467c-0.227-3.845,0.343-9.303,1.689-16.368c1.354-7.068,2.804-12.952,4.355-17.651
		c1.207-3.196,3.52-5.269,6.933-6.23c1.513-0.395,3.065-0.663,4.669-0.798c2.066-0.174,4.631-0.054,7.689,0.354
		c3.061,0.418,5.891,1.356,8.499,2.814c-2.208,3.276-4.946,9.25-8.208,17.926c-3.267,8.676-5.321,18.354-6.166,29.041l0.896-2.495
		c1.716-5.181,3.955-11.233,6.734-18.155c2.771-6.916,6.112-13.344,10.012-19.288c3.896-5.939,8.336-10.058,13.316-12.362
		c1.486-0.66,3.031-1.061,4.635-1.197c3.805-0.318,7.871,0.916,12.203,3.706c-2.277,3.288-5.029,9.262-8.264,17.932
		c-3.225,8.673-5.234,18.348-6.014,29.028l0.26-0.525c0.666-1.668,2.209-5.105,4.623-10.314c2.414-5.21,5.398-11.006,8.961-17.387
		c3.563-6.381,7.395-12.078,11.508-17.098c4.109-5.018,8.227-8.202,12.344-9.56l1.592-0.234c3.404-0.285,6.549,0.726,9.428,3.034
		c2.172,1.833,3.357,3.949,3.561,6.35c0.107,1.266-0.049,2.626-0.461,4.069c-2.326,5.908-4.486,12.36-6.48,19.345
		c-1.994,6.987-3.348,13.066-4.053,18.23c-0.293,2.107-0.385,3.83-0.27,5.162c0.186,2.202,0.912,3.248,2.176,3.142
		c2.006-0.168,4.186-1.796,6.543-4.884c3.252-4.441,7.031-11.445,11.328-21.012c0.594-1.729,1.09-2.611,1.49-2.644
		c0.33-0.03,0.529,0.326,0.594,1.058c-0.006,5.51-1.357,11.2-4.053,17.072c-2.691,5.87-6.053,10.824-10.084,14.86
		c-4.023,4.035-8.008,6.216-11.941,6.55l-0.402,0.035c-5.588-0.134-9.564-2.317-11.941-6.552c-1.748-3.211-2.818-7.116-3.205-11.718
		c-0.115-1.404-0.164-4.119-0.133-8.153c0.029-4.036,0.787-9.578,2.275-16.619c-6.189,10.263-12.746,23.345-19.664,39.25
		c-1.359,3.003-2.357,5.106-2.998,6.301C170.486,76.716,169.082,77.171,167.746,77.284"/>
	<path fill="#005480" d="M213.516,191.552l-0.596,0.059c-8.713,0.018-14.871-3.244-18.463-9.776
		c-2.727-4.923-4.445-10.81-5.162-17.643c-0.248-2.379-0.363-4.876-0.34-7.484c-3.572,10.797-8.025,20.114-13.367,27.937
		c-5.338,7.831-11.326,12.092-17.967,12.787c-8.509,0.093-14.647-3.016-18.419-9.335c-3.049-5.188-4.97-11.553-5.763-19.081
		c-0.188-1.789-0.385-5.598-0.6-11.436c-0.215-5.841,0.598-14.091,2.427-24.756c1.835-10.666,4.15-20.3,6.956-28.912
		c1.709-4.69,5.082-7.848,10.125-9.483c2.422-0.753,4.924-1.268,7.5-1.539c2.777-0.293,6.346-0.194,10.703,0.298
		c4.363,0.497,8.504,1.789,12.434,3.878c-2.549,4.376-5.232,10.976-8.064,19.789c-2.828,8.813-5.334,18.099-7.514,27.842
		c-2.184,9.754-3.459,18.1-3.83,25.055c-0.148,2.416-0.131,4.476,0.049,6.156c0.365,3.47,1.385,5.115,3.072,4.938
		c6.34-0.669,15.057-20.221,26.145-58.662c1.01-3.715,1.783-6.352,2.326-7.913c1.27-5.04,2.619-9.842,4.043-14.403
		c2.533-6.377,8.459-10.06,17.775-11.038c2.775-0.29,6.344-0.189,10.703,0.301c4.359,0.497,8.463,1.841,12.299,4.043
		c-2.553,4.278-5.332,10.754-8.322,19.435c-2.996,8.687-5.701,17.763-8.109,27.236c-2.41,9.471-3.912,17.591-4.5,24.366
		c-0.238,2.535-0.268,4.591-0.102,6.178c0.344,3.267,1.457,4.805,3.342,4.607c5.449-0.572,11.816-8.61,19.105-24.105
		c3.697-7.705,6.287-13.589,7.764-17.65c0.41-0.845,0.768-1.285,1.061-1.313c0.6-0.063,0.951,0.452,1.068,1.538
		c0.059,8.213-1.828,16.73-5.656,25.551c-3.832,8.813-8.684,16.294-14.551,22.419C225.217,187.567,219.361,190.936,213.516,191.552"
		/>
	<path fill="#005480" d="M285.561,182.017c-4.262,0.448-9.379,0.158-15.348-0.865c-5.971-1.024-11.439-4.685-16.408-10.977
		c-4.598-6.528-7.422-14.8-8.473-24.812c-0.607-5.743-0.48-12.17,0.371-19.276c0.857-7.1,2.984-14.29,6.377-21.559
		c3.393-7.272,7.914-13.387,13.555-18.337c5.639-4.953,12.424-7.843,20.354-8.678c6.936-0.731,12.697,0.467,17.285,3.591
		c4.586,3.125,7.943,7.182,10.07,12.17c1.559,3.343,2.521,6.798,2.896,10.365c0.906,8.622-1.287,14.464-6.568,17.525
		c-2.168,1.329-4.541,2.131-7.117,2.405c-2.281,0.233-4.701,0.091-7.26-0.443c2.982-2.121,5.115-5.146,6.408-9.09
		c0.963-3.21,1.301-6.198,1.012-8.976c-0.057-0.492-0.252-1.651-0.596-3.467c-0.338-1.819-1.855-2.686-4.555-2.602
		c-3.902,1.01-7.531,4.826-10.896,11.443c-3.361,6.616-5.799,14.161-7.309,22.633c-0.973,6.018-1.193,11.548-0.662,16.602
		c0.23,2.188,0.902,5.467,2.014,9.861c1.117,4.394,4.793,7.217,11.037,8.457c1.021,0.197,2.129,0.226,3.316,0.104
		c2.676-0.281,5.994-1.58,9.965-3.903c7.076-4.149,14.355-15.89,21.844-35.217c0.809-1.789,1.422-3.129,1.828-4.025
		c0.406-0.893,0.762-1.354,1.057-1.386c0.498-0.052,0.803,0.468,0.92,1.555c0.146,8.1-1.686,16.412-5.496,24.927
		c-2.635,6.39-6.004,12.005-10.107,16.848c-4.994,5.834-11.357,10.116-19.084,12.832
		C292.506,180.885,289.027,181.65,285.561,182.017"/>
	<path fill="#005480" d="M247.133,73.991l-10.965,1.985c0,0,3.607-2.874,3.813-5.08l2.066-25.874
		c0.02-0.318,0.027-0.545,0.023-0.672c0-0.125-0.006-0.23-0.014-0.316c-0.031-0.367-0.117-0.632-0.26-0.797
		c-0.141-0.167-0.34-0.237-0.609-0.217c-0.5,0.045-0.984,0.597-1.449,1.654c-0.463,1.06-0.877,2.551-1.236,4.468l-1.076-0.111
		c0.529-3.299,1.52-5.833,2.979-7.613c1.451-1.773,3.338-2.759,5.666-2.957c1.619-0.135,2.854,0.252,3.713,1.167
		c0.863,0.916,1.379,2.393,1.551,4.438c0.027,0.349,0.047,0.622,0.061,0.815c0.006,0.193,0.008,0.367,0.006,0.518
		c0.381-2.378,1.244-4.265,2.592-5.669c1.289-1.349,2.92-2.13,4.896-2.347c2.529-0.278,5.014,0.555,6.826,2.343
		c1.902,1.868,2.986,4.426,3.262,7.677c0.357,4.221-0.518,7.913-2.625,11.075c-2.102,3.163-4.818,4.885-8.148,5.168
		c-1.805,0.151-3.271-0.092-4.402-0.729c-1.129-0.639-1.957-1.685-2.494-3.143l-0.785,10.456
		C250.375,72.109,248.986,73.655,247.133,73.991 M253.885,59.657c0.609-0.051,1.119-0.379,1.518-0.988
		c0.398-0.609,0.705-1.533,0.91-2.786c0.395-2.139,0.658-4.302,0.805-6.49c0.15-2.187,0.176-3.886,0.072-5.091
		c-0.08-0.902-0.299-1.582-0.658-2.03c-0.363-0.452-0.852-0.651-1.465-0.597c-0.691,0.056-1.252,0.453-1.686,1.191
		c-0.441,0.734-0.781,1.881-1.029,3.438c-0.326,2.102-0.563,4.166-0.695,6.193c-0.139,2.026-0.168,3.526-0.086,4.498
		c0.082,0.952,0.309,1.651,0.686,2.09C252.635,59.528,253.176,59.718,253.885,59.657"/>
	<path fill="#005480" d="M271.453,46.36l-1.129-0.107c0.518-3.28,1.504-5.815,2.969-7.599c1.461-1.784,3.352-2.776,5.678-2.971
		c1.773-0.151,3.105,0.302,4.004,1.354c0.895,1.055,1.451,2.854,1.664,5.402c0.049,0.601,0.08,1.06,0.092,1.368
		c0.01,0.313,0.012,0.622,0.008,0.924c0.459-3.36,1.25-5.846,2.383-7.462c1.127-1.61,2.68-2.502,4.658-2.667
		c1.65-0.143,2.961,0.242,3.941,1.144c0.977,0.907,1.541,2.263,1.693,4.072c0.139,1.608-0.234,2.974-1.109,4.104
		c-0.879,1.125-2.055,1.752-3.531,1.878c-1.383,0.117-2.545-0.262-3.488-1.138c-0.943-0.873-1.482-2.095-1.613-3.667
		c-0.016-0.187-0.018-0.395-0.006-0.632c0.01-0.236,0.035-0.493,0.078-0.766c-0.873,0.36-1.59,2.118-2.154,5.277
		c-0.563,3.16-1.086,8.429-1.568,15.805c-1.199,0.019-2.322,0.049-3.361,0.094c-1.037,0.047-2.029,0.109-2.973,0.187
		c-0.703,0.061-1.432,0.145-2.172,0.249c-0.744,0.105-1.52,0.225-2.33,0.36c0.602-5.042,1.064-9.54,1.396-13.485
		c0.332-3.953,0.467-6.286,0.406-7.007c-0.02-0.234-0.111-0.435-0.275-0.606c-0.164-0.174-0.359-0.251-0.58-0.23
		c-0.496,0.042-0.982,0.591-1.445,1.651C272.223,42.954,271.813,44.438,271.453,46.36"/>
	<path fill="#005480" d="M328.213,33.833c-0.59,4.212-0.928,8.051-1.217,11.477c-0.332,3.861-0.467,6.18-0.396,6.966
		c0.029,0.419,0.133,0.748,0.307,0.987c0.168,0.239,0.365,0.352,0.584,0.329c0.488-0.038,0.961-0.593,1.426-1.662
		c0.379-0.875,0.721-2.033,1.021-3.469c0.115-0.564,0.635-0.963,1.211-0.93l0.102,0.005c-0.514,3.296-1.502,5.842-2.961,7.636
		c-1.463,1.792-3.344,2.787-5.652,2.981c-1.635,0.136-2.891-0.257-3.768-1.188c-0.877-0.929-1.402-2.423-1.574-4.484
		c-0.029-0.333-0.049-0.589-0.055-0.767c-0.006-0.175-0.01-0.339-0.006-0.492c-0.367,2.375-1.23,4.266-2.582,5.669
		c-1.35,1.406-3.063,2.193-5.137,2.369c-2.621,0.222-4.852-0.599-6.678-2.459c-1.836-1.86-2.889-4.389-3.16-7.59
		c-0.357-4.235,0.516-7.931,2.621-11.085c2.105-3.155,4.84-4.875,8.199-5.154c2.262-0.194,4.016,0.211,5.26,1.209
		c0.248,0.201,0.482,0.426,0.695,0.677c0.67,0.79,1.686,0.586,1.982-0.41C319.598,30.568,328.545,31.503,328.213,33.833
		 M314.758,36.227c-0.629,0.05-1.143,0.4-1.549,1.04c-0.404,0.642-0.719,1.604-0.939,2.889c-0.367,2.222-0.625,4.471-0.773,6.744
		c-0.148,2.273-0.164,4.044-0.057,5.318c0.076,0.918,0.299,1.615,0.67,2.079c0.371,0.466,0.855,0.675,1.453,0.625
		c0.711-0.059,1.275-0.464,1.699-1.207c0.428-0.744,0.779-1.953,1.045-3.631c0.33-2.082,0.561-4.169,0.684-6.254
		c0.125-2.086,0.141-3.696,0.043-4.835c-0.086-1.005-0.314-1.733-0.684-2.181C315.977,36.364,315.451,36.169,314.758,36.227"/>
	<path fill="#005480" d="M55.584,230.105c-4.678,0.397-8.922-0.948-12.734-4.027c-3.814-3.071-6.092-9.021-6.835-17.838
		c-0.696-8.203-0.281-17.234,1.243-27.096c1.521-9.859,3.481-19.134,5.875-27.83c2.393-8.699,4.372-15.236,5.931-19.615
		c1.292-2.97,4.156-5.178,8.591-6.636c3.231-1.043,6.571-1.716,10.027-2.007c1.222-0.102,3.377-0.167,6.468-0.198
		c3.085-0.031,5.995,0.576,8.724,1.813c-3.713,7.263-7.476,15.497-11.292,24.699c-3.819,9.208-6.826,17.76-9.012,25.667
		c12.242-2.267,21.955-6.583,29.14-12.944c7.186-6.358,11.631-13.165,13.339-20.418c0.684-2.831,0.922-5.519,0.704-8.05
		c-0.321-3.833-2.163-7.787-5.517-11.875c-3.357-4.074-10.274-5.945-20.746-5.598l-1.954,0.168
		c-7.443,0.626-15.486,2.502-24.141,5.624c-8.658,3.129-16.392,8.046-23.196,14.762c-6.808,6.712-10.958,15.427-12.447,26.129
		c-4.246-2.729-7.356-6.172-9.332-10.332c-1.863-3.779-2.942-7.433-3.241-10.964c-0.479-5.672,1.562-11.927,6.123-18.758
		c4.553-6.832,12.62-13.096,24.185-18.782c12.393-5.989,25.563-9.575,39.522-10.752c11.806-1,22.462,0.553,31.959,4.655
		c9.496,4.103,15.306,11.858,17.429,23.263l0.424,3.668c1.004,11.889-1.377,22.339-7.139,31.359
		c-5.766,9.019-13.88,16.057-24.339,21.11c-8.828,4.297-18.034,6.851-27.616,7.659c-1.841,0.159-3.651,0.236-5.43,0.229
		c-3.215,9.463-4.573,17.143-4.073,23.049c0.068,0.841,0.464,3.006,1.184,6.502c0.719,3.489,3.855,7.014,9.407,10.557
		C62.624,228.888,58.882,229.825,55.584,230.105"/>
</g>
</svg>
