<?xml version="1.0" encoding="utf-8"?>
<!-- Generator: Adobe Illustrator 16.0.0, SVG Export Plug-In . SVG Version: 6.00 Build 0)  -->
<!DOCTYPE svg PUBLIC "-//W3C//DTD SVG 1.1//EN" "http://www.w3.org/Graphics/SVG/1.1/DTD/svg11.dtd">
<svg version="1.1" id="Camada_1" xmlns="http://www.w3.org/2000/svg" xmlns:xlink="http://www.w3.org/1999/xlink" x="0px" y="0px"
	 width="153.061px" height="108.226px" viewBox="0 0 153.061 108.226" enable-background="new 0 0 153.061 108.226"
	 xml:space="preserve">
<g>
	<path fill="#FFFFFF" d="M142.629,17.138c0.002-0.19-0.121-0.423-0.391-0.532h-12.75v6.55v0.001v0.025h6.576v6.576h6.576v-0.026
		C142.641,28.733,142.629,17.138,142.629,17.138z"/>
	<path fill="#FFFFFF" d="M137.077,34.417h-7.795v-9.063c-4.418,0-8.139,0-8.139,0V81.95c0,0.197-0.115,0.446-0.406,0.549
		l-34.29,0.021c-1.648-0.166-3.129-1.479-3.402-3.075l-0.01-11.36c0-0.2,0.131-0.451,0.43-0.551c0,0,10.38-0.019,11.116-0.019
		c2.404,0,8.041-0.172,12.648-2.576c6.611-3.307,9.236-10.719,9.236-18.532c0-7.639-3.197-15.329-10.072-18.509
		c-5.234-2.421-9.984-2.526-14.49-2.526c-7.681,0-37.354-0.016-43.665-0.016c-8.014,0-16.455,1.317-23.467,6.325
		C16.857,37.39,10.419,46.675,10.419,61c0,10.718,3.732,18.662,10.344,23.971c5.711,4.408,13.051,6.611,24.369,6.611
		c0.768,0,1.25,0.035,1.967,0.036c0,0.009,0.252-0.016,0.252-0.007c2.715,0,6.242,0,11.668,0l0.002-0.006
		c1.959,0,3.629-1.54,3.721-3.478l-0.002-0.833c0.002-0.046,0.014-0.088,0.014-0.134L62.75,68.032c0-0.2,0.131-0.451,0.43-0.551
		l4.459,0.004c0-2.916,0-6.357,0-9.063c-2.715,0-6.24,0-11.668,0v0.006c-1.961,0-3.629,1.54-3.721,3.478l0.004,16.492
		c0,0.015-0.002,0.041-0.002,0.064v0.521c-0.092,1.938-1.76,3.478-3.721,3.478v0.006c-1.064,0,0.053,0-2.662,0v-0.006
		c-0.059,0-0.113,0.008-0.17,0.006c-5.693-0.228-10.209-1.308-13.566-5.181c-3.404-3.806-5.508-9.717-5.508-18.23
		c0-9.116,2.529-15.939,7.037-20.048c3.406-3.104,9.018-4.622,12.223-4.62l26.578,0.028c0.289,0.096,0.416,0.33,0.426,0.526
		c0,6.315,0,52.318,0,52.318c-0.055,1.96,1.926,4.201,3.861,4.349c0.037,0.003,29.099,0.006,44.937,0.007v0.003
		c2.715,0,6.242,0,11.668,0l0.002-0.006c1.959,0,3.629-1.54,3.721-3.478l-0.002-0.973l0.002-0.003V34.417z M83.033,34.909
		c0.012-0.18,0.127-0.386,0.369-0.491c4.041-0.002,7.921-0.037,10.271,0.281c7.059,0.956,10.305,4.637,10.221,12.048
		c-0.063,5.518-3.125,10.643-9.684,11.615c-3.138,0.465-9.298,0.21-9.298,0.206c0,0,0-0.007,0-0.012c0,0-1.229-0.057-1.574-0.082
		c-0.189-0.114-0.295-0.284-0.305-0.443V34.909z"/>
</g>
</svg>
