<?xml version="1.0" encoding="utf-8"?>
<!-- Generator: Adobe Illustrator 16.0.0, SVG Export Plug-In . SVG Version: 6.00 Build 0)  -->
<!DOCTYPE svg PUBLIC "-//W3C//DTD SVG 1.1//EN" "http://www.w3.org/Graphics/SVG/1.1/DTD/svg11.dtd">
<svg version="1.1" id="Camada_1" xmlns="http://www.w3.org/2000/svg" xmlns:xlink="http://www.w3.org/1999/xlink" x="0px" y="0px"
	 width="500px" height="500px" viewBox="0 0 500 500" enable-background="new 0 0 500 500" xml:space="preserve">
<g>
	<path fill="#999999" d="M304.424,443.377c3.415,0,5.997-2.664,5.997-6.207c0-3.471-2.308-5.896-5.612-5.896h-0.074
		c-2.554,0-6.161,1.932-6.161,6.207C298.573,441.839,301.723,443.377,304.424,443.377"/>
	<path fill="#999999" d="M153.921,436.739c-1.296,0.174-2.051,0.604-2.051,2.316v21.947c0,14.283-5.196,16.215-10.273,16.215
		c-4.478,0-10.429-1.63-10.429-15.675v-20.152c0-3.681-0.17-4.963-2.092-4.963c-1.785,0-8.058,0.385-9.664,0.623l-0.275,0.045
		l0.027,0.275c0.16,1.648,0.234,4.916,0.234,10.017v14.632c0,16.673,7.05,25.133,20.948,25.133c9.875,0,21.649-4.605,21.649-26.543
		v-11.134c0-6.748,0.088-9.779,0.234-12.745l0.018-0.303h-0.307C160.417,436.428,156.292,436.51,153.921,436.739"/>
	<path fill="#999999" d="M197.7,443.625c4.56,0,8.063,1.208,9.742,1.922l0.083,0.027c1.213,0.156,2.339-0.219,3.25-1.089
		c1.172-1.117,1.84-2.985,1.693-4.752l-0.009-0.101l-0.063-0.073c-1.209-1.347-6.927-3.992-14.696-3.992
		c-17.24,0-28.374,9.77-28.374,24.886c0,16.216,11.042,26.699,28.141,26.699c4.936,0,8.923-2.555,11.061-3.928l0.284-0.174
		l0.041-0.037c1.562-1.465,2.591-3.965,2.911-7.031l0.019-0.202l-0.595-0.293l-0.609,0.175c-2.01,0.567-5.754,1.629-10.685,1.629
		c-10.992,0-18.097-6.876-18.097-17.533C181.797,446.426,190.449,443.625,197.7,443.625"/>
	<path fill="#999999" d="M289.472,466.332l-3.763-27.084l0,0c-0.312-2.078-0.815-2.82-1.933-2.82c-1.978,0-8.414,0.439-9.77,1.291
		l-0.137,0.082v1.117c-3.241,7.829-7.884,19.438-11.134,28.183l-9.98-26.662c-1.135-3.241-1.666-4.111-3.168-4.011
		c-4.015,0-6.977,0.65-9.146,1.117l-0.879,0.192l0.183,1.465c-2.197,13.267-4.285,26.653-5.805,36.432
		c-0.522,3.343-0.966,6.199-1.31,8.369l-0.032,0.201l0.179,0.101c1.31,0.732,5.677,2.143,8.199,2.143
		c1.104,0,1.543-1.693,1.776-2.984c1.076-8.79,2.774-24.73,3.621-33.987c1.364,4.349,3.224,10.218,5.026,15.913
		c2.601,8.194,5.045,15.932,5.971,18.98l0.063,0.201h0.211c1.547,0,3.378-0.201,5.612-0.623c2.042-0.411,2.848-1.089,3.425-2.92
		c3.892-11.656,8.094-24.383,10.3-31.662l1.502,16.179c0.732,8.25,1.199,12.772,1.566,16.407l0.072,0.724
		c0.165,1.786,1.328,3.772,2.637,3.772c1.566,0,6.373-1.355,8.434-1.932l0.896-0.257l-0.045-0.256
		C291.349,479.837,290.461,473.729,289.472,466.332"/>
	<path fill="#999999" d="M309.139,449.109c-1.913,0-7.572,0.476-9.623,1.025l-0.238,0.063l0.028,0.247
		c0.128,1.264,0.312,3.544,0.312,8.689v13.313c0,4.176-0.138,9.568-0.211,12.782l-0.037,1.218h0.303
		c4.102,0,6.958-0.101,8.479-0.312c2.151-0.247,2.92-2.087,2.92-3.726V454.31C311.071,449.887,310.787,449.109,309.139,449.109"/>
	<path fill="#999999" d="M353.482,472.521v-9.184c0-9.614-4.185-14.695-12.104-14.695c-3.817,0-7.416,2.325-10.465,4.688
		c-0.806-3.113-2.601-4.688-5.338-4.688c-3.059,0-6.062,2.526-6.849,4.788l-0.019,0.879l0.138,0.083
		c1.062,0.658,1.346,1.446,1.346,3.652v12.69c0,4.111-0.064,10.466-0.229,15.419l-0.009,0.293h0.302c2.061,0,3.901-0.549,5.668-1.08
		c1.199-0.357,2.326-0.696,3.525-0.879c1.914-0.248,2.207-0.724,2.207-2.234v-23.128c1.565-1.108,2.911-1.887,5.42-1.887
		c2.912,0,4.953,2.445,4.953,5.942v19.933c0,1.383,0.65,3.333,2.088,3.333c2.518,0,4.88-0.751,6.767-1.355
		c1.044-0.329,1.94-0.622,2.572-0.677l0.274-0.019l-0.009-0.284C353.573,481.348,353.482,476.797,353.482,472.521"/>
	<path fill="#999999" d="M392.56,477.154c-0.274,0.063-0.823,0.063-1.181,0.063c-1.722,0-2.527-0.897-2.527-1.501
		c0-2.921,0.101-5.814,0.184-8.369c0.073-2.023,0.128-3.771,0.128-5.182c0-9.34-6.784-13.523-13.505-13.523
		c-5.402,0-11.226,2.646-14.879,5.108l-0.119,0.083l-0.01,0.155c-0.027,0.979,0.074,3.388,1.631,4.624
		c0.888,0.705,2.068,0.869,3.552,0.476l0.202-0.091c1.528-0.688,4.083-1.832,6.564-1.832c3.388,0,5.576,1.96,5.576,5v0.695
		c-0.906,0.165-2.454,0.449-3.754,0.659c-5.274,1.126-15.099,3.232-15.099,11.573c0,6.189,4.954,11.82,10.383,11.82
		c3.241,0,6.235-2.637,8.771-5.319c1.117,2.143,3.36,5.319,6.876,5.319c5.65,0,7.646-4.944,7.646-9.174l-0.155-0.659L392.56,477.154
		z M378.02,473.775c0,1.254-0.183,2.015-0.595,2.5c-1.007,0.842-1.749,1.099-3.177,1.099c-2.042,0-4.093-1.163-4.093-3.764v-0.073
		c0-0.915,0.577-3.918,7.864-4.742V473.775z"/>
	<path fill="#999999" d="M416.246,464.326h-0.009c-0.531-0.266-1.254-0.604-2.032-0.979c-1.529-0.724-3.26-1.538-4.13-2.051
		c-1.557-0.935-2.518-1.565-2.518-2.784c0-1.272,1.264-2.124,3.149-2.124c1.666,0,3.479,0.403,5.127,1.145l0.092,0.019
		c1.053,0.082,1.96-0.238,2.684-0.952c1.3-1.291,1.647-3.479,1.547-4.963l-0.009-0.137l-0.11-0.073
		c-2.637-1.896-5.558-2.783-9.174-2.783h-0.074c-6.546,0-13.596,3.652-13.596,11.664c0,3.772,2.023,7.133,5.557,9.202
		c1.054,0.55,2.079,1.071,3.086,1.584c1.025,0.513,2.033,1.025,3.013,1.529c2.087,1.126,2.509,1.923,2.509,2.856
		c0,1.428-1.318,2.289-3.543,2.289c-3.873,0-7.691-2.18-8.763-2.838l-0.192-0.119l-0.156,0.146
		c-1.135,1.062-2.289,3.204-2.289,5.273c0,1.593,1.136,2.518,2.262,3.214l0.66,0.385c2.197,1.31,5.209,3.085,7.773,3.085
		c7.334,0,14.924-5.035,14.924-13.459C422.033,469.473,420.138,466.487,416.246,464.326"/>
	<path fill="#999999" d="M91.857,436.537c-5.874,0-11.478,0.623-13.634,1.026l-0.256,0.046l0.022,0.266
		c0.316,3.598,0.316,6.83,0.316,10.574v35.59c0,1.502,0.765,3.113,2.184,3.113c2.147,0,8.208-0.229,9.71-0.641l0.22-0.064
		l-0.009-0.229c-0.156-3.141-0.238-6.721-0.238-10.667v-5.576c2.243,0.192,4.793-0.32,6.51-0.668
		c6.995-1.401,11.88-4.624,14.526-9.577c1.313-2.463,2.015-5.247,2.015-8.058C113.223,438.369,102.953,436.537,91.857,436.537
		 M92.96,460.811c-0.288,0-1.552-0.055-2.788-0.101v-16.573c0.797-0.109,1.734-0.109,2.316-0.109c4.185,0,8.469,0.889,8.469,7.49
		C100.957,459.602,95.949,460.811,92.96,460.811"/>
	<path fill="#999999" d="M371.822,415.79c7.6,0,14.165-3.837,21.132-7.901c7.746-4.532,15.749-9.211,26.104-9.211
		c1.145,0,2.179-0.678,2.646-1.722c0.468-1.044,0.266-2.262-0.494-3.113l-11.783-13.02l8.341-18.157
		c0.431-0.942,0.32-2.051-0.284-2.902c-0.613-0.842-1.63-1.291-2.746-1.172c-2.628,0.275-14.504,1.996-22.323,7.444
		c-0.036-10.539-0.659-15.474-0.668-15.547c-0.009-0.056-0.019-0.119-0.019-0.175c0-3.094-6.144-3.698-6.208-3.698
		c-10.3-0.833-21.086,0.476-32.971,4.02c-10.667,3.177-21.196,7.801-31.387,12.269c-4.752,2.088-9.669,4.249-14.577,6.245
		c-18.037,7.343-35.982,10.913-54.867,10.913c-18.875,0-36.813-3.57-54.85-10.913c-4.861-1.978-9.778-4.139-14.535-6.227
		l-0.073-0.027c-10.177-4.468-20.706-9.092-31.364-12.26c-11.902-3.544-22.688-4.862-32.967-4.02
		c-0.059,0.009-6.212,0.604-6.212,3.698c0,0.056-0.005,0.119-0.009,0.184c-0.01,0.064-0.742,5.631-0.678,17.974
		c-8.611-6.354-25.637-8.269-26.36-8.351c-0.819-0.082-1.62,0.275-2.106,0.934c-0.476,0.669-0.563,1.548-0.219,2.289l8.886,19.338
		l-12.595,13.917c-0.604,0.669-0.76,1.63-0.394,2.454s1.19,1.355,2.088,1.355c10.978,0,19.401,4.926,27.546,9.678
		c7.155,4.185,13.912,8.131,21.627,8.131c10.107,0,14.947-4.808,15.263-9.578c0.022-0.365,0.014-0.723-0.014-1.08
		c0.041-0.54,0.083-1.199,0.101-1.62c0.211-4.001,0.596-9.843,0.729-14.247c0.142-1.529,0.247-2.967,0.252-4.239
		c7.512,2.325,14.704,5.137,21.42,7.865c25.761,10.475,53.504,20.702,84.46,20.702c13.753,0,27.88-2.015,43.181-6.162
		c14.686-3.983,29.116-9.587,41.303-14.54c6.528-2.655,13.523-5.384,20.784-7.664c-0.036,0.989-0.101,2.226-0.183,3.616
		c-0.165,3.05-0.367,6.758-0.293,9.752c-0.074,1.896-0.074,4.532-0.047,4.907c0.184,2.729,1.777,5.302,4.387,7.06
		C363.563,414.819,367.363,415.79,371.822,415.79 M391.699,386.994c0,0,2.838,4.743-11.326,8.689
		c-1.886,0.467-4.056,0.971-6.574,1.557c-0.082,0.018-0.164,0.036-0.247,0.045c-0.567,0.119-1.153,0.238-1.767,0.349
		c-3.571,0.668-12.965,3.104-12.965,3.104c0.045-5.805,0.439-8.661,0.595-13.825c0.385-0.119,0.778-0.238,1.172-0.357
		c2.674-0.77,5.256-1.428,7.782-1.95c10.795-2.253,18.12-2.839,21.746,0.348C390.756,385.511,391.297,386.18,391.699,386.994
		 M137.893,413.438c-2.93,1.446-6.391,1.666-9.604,1.501c-15.428-0.796-25.518-17.653-46.952-17.653l12.558-14.43l-8.744-20.519
		c0,0,10.438,2.289,13.931,3.47c4.414,1.483,10.182,3.571,11.973,5.109c0.018,1.502,0.05,3.113,0.096,4.798
		c0.009,0.604,0.018,1.218,0.036,1.841c0.023,1.758,0.032,3.681,0.11,5.512c-0.71,0.604-1.502,1.475-1.937,2.719
		c-0.952,2.711-0.169,5.65,1.548,7.884c2.266,2.939,6.363,4.249,9.736,5.421c4.213,1.465,8.553,2.572,12.947,3.305
		c3.195,0.541,7.773,1.447,8.204,5.384C142.073,410.36,140.04,412.375,137.893,413.438 M142.865,403.283
		c-0.861-0.916-1.969-1.63-3.265-2.069c-0.453-0.202-0.966-0.357-1.515-0.458c-6.341-1.209-13.272-2.948-18.399-4.944
		c-3.21-1.245-5.709-2.591-6.927-3.974c-1.31-1.483-1.41-3.04-1.41-3.04c-0.019-0.293-0.009-0.567,0.023-0.814
		c0.086-0.696,0.324-1.218,0.426-1.438c1.016-2.161,3.543-3.095,4.788-3.498c1.209-0.229,2.509-0.348,3.827-0.348
		c0.371,0,0.724,0.009,1.063,0.027c6.729,0.376,13.725,1.63,21.384,3.827c0.38,0.109,0.755,0.238,1.136,0.348
		C143.95,389.521,143.744,393.238,142.865,403.283 M335.463,393.531c-12.132,4.926-26.498,10.502-41.074,14.458
		c-15.145,4.102-29.098,6.098-42.677,6.098c-30.604,0-58.141-10.154-83.731-20.556c-7.637-3.112-15.904-6.336-24.584-8.835
		c-2.436-0.696-4.799-1.3-7.115-1.813c-4.253-0.942-8.332-1.584-12.306-1.922c-2.16-0.257-4.175-0.357-5.96-0.248
		c-1.832,0.102-3.43,0.431-4.716,1.035c-0.901-21.361,0.312-30.902,0.33-30.993c0.019-0.146,0.027-0.293,0.027-0.44
		c0-0.704,2.536-1.611,4.432-1.767c10.067-0.814,20.619,0.477,32.257,3.946c10.543,3.141,21.021,7.736,31.162,12.187l0.06,0.028
		c4.761,2.087,9.679,4.248,14.567,6.234c18.275,7.444,36.459,11.061,55.596,11.061c19.127,0,37.311-3.616,55.586-11.061
		c4.89-1.986,9.807-4.147,14.55-6.234l0.073-0.028c10.136-4.45,20.61-9.046,31.158-12.187c11.655-3.47,22.203-4.761,32.266-3.946
		c1.85,0.155,4.432,1.071,4.432,1.767c0,0.138,0.009,0.284,0.027,0.431c0.009,0.073,0.724,5.613,0.659,17.754
		c-0.027,3.818-0.119,8.277-0.339,13.432c-0.274-0.101-0.531-0.192-0.778-0.293c-0.888-0.339-1.693-0.649-2.591-0.787
		c-1.557-0.376-3.571-0.394-5.567-0.394c-4.779,0.293-10.483,1.492-17.012,3.131c-1.364,0.348-2.737,0.705-4.139,1.108
		C351.395,387.195,343.117,390.419,335.463,393.531 M358.875,406.479c-0.32-1.804,0.412-3.379,2.097-4.102
		c1.007-0.439,3.599-1.191,4.633-1.383c3.699-0.696,22.194-4.367,26.397-8.204c2.48-2.262,3.589-6.235,0.723-8.753
		c-0.22-0.192-0.467-0.376-0.576-0.65c-0.074-0.201-0.074-0.421-0.064-0.632c0.128-4.752,0.302-9.513,0.329-14.265
		c7.581-5.072,19.183-7.563,21.773-7.838c0.522-0.046,1.053,0.184,1.373,0.613c0.312,0.439,0.366,1.008,0.146,1.492l-9.312,18.44
		l12.27,12.69c0.394,0.431,0.494,1.063,0.256,1.603s-0.778,0.888-1.364,0.888c-10.73,0-17.177,4.176-25.087,8.79
		c-6.785,3.965-13.194,7.719-20.409,7.719c-4.185,0-7.71-0.888-10.19-2.563C360.487,409.39,359.177,408.182,358.875,406.479"/>
	<path fill="#999999" d="M143.717,374.973c-0.279-0.083-0.422-0.119-0.705-0.201c-0.129,2.71-0.77,3.213-2.234,2.819
		c-1.14-0.312-1.717-0.458-2.885-0.76c-1.309-0.329-1.675-0.476-1.693-2.436c-0.037-3.122-0.009-4.716,0.019-7.884
		c1.291,0.312,1.923,0.467,3.168,0.797c1.552,0.403,2.087,1.703,2.083,3.617c0.288,0.072,0.426,0.109,0.709,0.191
		c0.01-2.966,0.032-4.459,0.037-7.425c-0.279-0.083-0.421-0.119-0.705-0.202c-0.155,1.127-0.33,2.619-2.105,2.152
		c-1.255-0.33-1.882-0.494-3.168-0.797c0.022-2.829,0.036-4.248,0.009-7.031c-0.019-1.676,0.32-1.74,1.625-1.41
		c0.811,0.21,1.214,0.311,2.015,0.521c1.689,0.458,2.756,1.502,2.774,4.321c0.279,0.083,0.416,0.119,0.695,0.202
		c-0.041-2.098-0.073-3.141-0.169-5.219c-4.743-1.401-7.225-2.024-12.599-3.021c0.009,0.293,0.014,0.439,0.019,0.741
		c2.596,0.998,2.673,1.017,2.691,4.486c0.037,7.526-0.238,11.563,0.009,18.898c4.358,1.007,6.428,1.556,10.434,2.719
		C143.698,378.021,143.698,377.005,143.717,374.973"/>
	<path fill="#999999" d="M158.156,361.724c-0.649-0.293-0.979-0.439-1.63-0.732c-1.364,3.131-2.105,4.624-3.635,7.673
		c-1.355-4.221-2.023-6.354-3.507-10.64c-1.753-0.678-2.646-1.007-4.473-1.639c0,0.312-0.005,0.467-0.005,0.769
		c1.955,1.108,2.207,1.713,3.013,4.074c1.209,3.627,1.776,5.43,2.935,9.028c-2.11,4.038-3.236,6.126-5.287,10.282
		c0.682,0.238,1.021,0.348,1.693,0.586c1.676-3.534,2.582-5.292,4.322-8.726c1.455,4.66,2.179,6.949,3.768,11.729
		c1.158,0.439,1.73,0.668,2.87,1.126c-1.987-5.942-2.866-8.726-4.679-14.503C155.483,367.144,156.439,365.423,158.156,361.724"/>
	<path fill="#999999" d="M172.856,370.064c1.982,0.971,2.486,3.553,2.605,4.697c1.057,0.513,1.593,0.77,2.664,1.272
		c-0.279-2.765-1.703-5.878-5.1-7.554c-4.854-2.39-5.961,2.536-6.025,8.652c-0.073,7.408,1.722,12.828,6.305,14.732
		c2.211,0.925,4.023,0.705,4.582,0.586c-0.014-0.906-0.019-1.346-0.032-2.216c-0.581,0.403-1.94,1.053-3.887,0.247
		c-4.317-1.804-4.578-9.403-4.55-13.074C169.436,374.029,169.875,368.6,172.856,370.064"/>
	<path fill="#999999" d="M186.008,372.775c-5.127-2.271-6.28,1.858-6.23,8.597c0.051,6.693,1.584,11.995,6.588,13.899
		c4.931,1.886,6.487-2.289,6.404-8.57C192.684,380.328,190.92,374.954,186.008,372.775 M186.328,393.605
		c-3.603-1.383-4.001-7.307-4.037-11.144c-0.041-4.185,0.092-9.642,3.754-8.021c3.584,1.593,3.955,7.288,4.01,11.216
		C190.106,389.494,190.005,395.006,186.328,393.605"/>
	<path fill="#999999" d="M207.933,387.113c-0.019-5.365-5.709-7.608-7.751-8.313c-2.674-0.935-3.96-1.419-6.459-2.399
		c0.004,0.32,0.004,0.467,0.014,0.778c2.371,1.456,2.453,1.603,2.494,4.725c0.088,6.785,0.092,8.891,0.207,16.601
		c1.126,0.375,1.693,0.567,2.847,0.934c-0.046-4.469-0.063-6.172-0.101-9.779c0.659,0.221,0.989,0.33,1.657,0.55
		c1.937,4.212,2.921,6.153,4.89,11.198c1.281,0.375,1.845,0.531,3.076,0.86c-1.986-5.274-2.957-7.242-5.013-11.628
		C205.987,390.949,207.947,390.528,207.933,387.113 M200.699,388.816c-0.618-0.201-0.92-0.312-1.524-0.513
		c-0.019-2.061-0.027-3.077-0.056-5.311c-0.018-2.262-0.045-2.939,1.786-2.308c2.298,0.787,4.079,2.49,4.083,5.732
		C204.998,389.769,202.453,389.393,200.699,388.816"/>
	<path fill="#999999" d="M217.153,383.615c-3.03-0.613-4.519-0.961-7.43-1.758c0,0.312,0,0.477,0,0.778
		c2.422,1.19,2.518,1.337,2.536,4.413c0.046,6.656,0.073,8.461,0.11,16.216c1.602,0.394,2.412,0.577,4.033,0.925
		c5.296,1.117,9.925,0.201,9.916-8.689C226.314,387.534,222.349,384.678,217.153,383.615 M217.203,402.706
		c-1.877-0.394-1.877-1.327-1.887-2.563c-0.036-5.823-0.063-7.618-0.101-13.506c-0.014-1.51,0.632-1.629,2.221-1.309
		c5.142,1.034,5.796,4.798,5.818,9.778C223.279,400.783,222.161,403.723,217.203,402.706"/>
	<path fill="#999999" d="M227.188,386.197c2.587,0.916,2.678,1.072,2.587,4.148c-0.197,6.684-0.238,8.405-0.477,16.252
		c4.423,0.622,6.647,0.842,11.125,1.135c0.138-2.133,0.196-3.085,0.32-4.88c-0.32-0.019-0.476-0.027-0.792-0.055
		c-0.284,2.407-1.076,3.149-2.678,3.013c-1.246-0.102-1.868-0.165-3.104-0.294c-1.4-0.146-1.758-0.32-1.693-2.124
		c0.101-2.865,0.137-4.074,0.22-6.583c1.373,0.146,2.06,0.22,3.434,0.348c1.703,0.146,2.298,1.071,2.225,2.628
		c0.32,0.027,0.477,0.037,0.797,0.064c0.109-2.427,0.16-3.534,0.274-5.988c-0.32-0.019-0.485-0.027-0.806-0.055
		c-0.215,0.952-0.472,2.197-2.436,2.023c-1.383-0.129-2.069-0.192-3.443-0.348c0.083-2.253,0.119-3.352,0.202-5.934
		c0.055-1.557,0.431-1.693,1.872-1.557c0.897,0.092,1.351,0.128,2.248,0.201c1.909,0.146,3.095,1.035,2.976,3.517
		c0.329,0.019,0.49,0.027,0.815,0.046c0.055-1.832,0.082-2.803,0.142-4.981c-5.581-0.302-8.359-0.567-13.789-1.364
		C227.198,385.73,227.198,385.887,227.188,386.197"/>
	<path fill="#999999" d="M251.662,388.688c2.669,0.439,2.742,0.595,2.604,3.726c-0.302,6.785-0.421,8.424-0.751,16.473
		c4.523-0.192,6.794-0.366,11.326-0.889c0.146-2.197,0.22-3.168,0.348-4.999c-0.32,0.036-0.476,0.055-0.796,0.092
		c-0.303,2.481-1.108,3.378-2.729,3.534c-1.264,0.119-1.896,0.164-3.159,0.266c-1.419,0.101-1.785-0.01-1.703-1.85
		c0.146-2.921,0.211-4.13,0.339-6.666c1.392-0.101,2.079-0.146,3.47-0.274c1.722-0.155,2.299,0.669,2.207,2.243
		c0.32-0.027,0.477-0.046,0.797-0.082c0.146-2.454,0.211-3.563,0.348-6.043c-0.32,0.027-0.485,0.045-0.806,0.082
		c-0.22,0.998-0.494,2.279-2.472,2.463c-1.393,0.128-2.079,0.174-3.471,0.274c0.109-2.271,0.174-3.388,0.293-6.015
		c0.082-1.584,0.467-1.795,1.914-1.914c0.896-0.073,1.346-0.109,2.252-0.201c1.896-0.184,3.059,0.513,2.921,3.03
		c0.329-0.036,0.485-0.055,0.806-0.092c0.064-1.858,0.101-2.838,0.184-5.072c-5.494,0.669-8.296,0.888-13.891,1.099
		C251.68,388.203,251.676,388.367,251.662,388.688"/>
	<path fill="#999999" d="M276.342,386.408c2.518-0.485,2.976,1.758,3.067,2.783c1.318-0.283,1.969-0.43,3.278-0.732
		c-0.211-2.49-1.713-4.706-6.016-3.863c-6.162,1.208-8.076,6.912-8.378,12.187c-0.376,6.382,1.63,11.088,7.453,10.025
		c2.811-0.513,5.146-2.051,5.869-2.581c0.036-0.943,0.055-1.393,0.082-2.262c-0.751,0.806-2.527,2.444-4.99,2.911
		c-5.476,1.034-5.438-6.062-5.265-9.275C271.617,392.652,272.542,387.141,276.342,386.408"/>
	<path fill="#999999" d="M291.66,382.581c2.316-0.724,2.82,1.474,2.948,2.49c1.181-0.412,1.767-0.613,2.957-1.034
		c-0.302-2.463-1.73-4.561-5.658-3.306c-5.622,1.785-7.37,7.71-7.544,12.983c-0.202,6.4,1.895,10.923,7.672,9.257
		c2.793-0.806,4.66-2.463,5.283-3.04c0-0.961,0-1.419-0.009-2.298c-0.642,0.87-1.969,2.582-4.396,3.306
		c-5.401,1.602-5.604-5.504-5.539-8.708C287.44,389.283,288.181,383.671,291.66,382.581"/>
	<path fill="#999999" d="M310.119,391.087c0.045,3.067-1.355,3.938-2.939,4.542c-0.87,0.329-1.301,0.494-2.161,0.814
		c-1.685,0.623-1.675,0.494-1.703-2.005c-0.073-7.481-0.229-8.946-0.283-17.589c-2.061,1.117-3.095,1.666-5.155,2.737
		c0,0.329,0,0.495,0,0.815c2.39-0.367,2.463-0.238,2.5,2.453c0.092,6.94,0.22,8.479,0.21,16.967
		c4.057-1.401,6.099-2.18,10.209-3.781c0.028-2.317,0.028-3.334,0.028-5.238C310.54,390.913,310.403,390.977,310.119,391.087"/>
	<path fill="#999999" d="M323.422,385.676c-0.063,2.619-0.76,3.764-2.215,4.358c-1.127,0.467-1.694,0.696-2.83,1.163
		c-1.272,0.513-1.593,0.503-1.629-1.42c-0.056-3.066-0.11-4.321-0.221-6.885c1.219-0.494,1.822-0.742,3.04-1.245
		c1.511-0.623,2.115,0.036,2.188,1.647c0.284-0.119,0.431-0.174,0.715-0.293c-0.119-2.509-0.193-3.607-0.33-6.024
		c-0.274,0.119-0.421,0.174-0.695,0.293c-0.102,1.007-0.211,2.325-1.941,3.04c-1.218,0.494-1.822,0.741-3.031,1.236
		c-0.109-2.271-0.164-3.361-0.256-5.906c-0.055-1.538,0.266-1.84,1.502-2.325c0.769-0.303,1.153-0.458,1.932-0.761
		c1.63-0.649,2.691-0.283,2.82,2.106c0.283-0.11,0.421-0.165,0.705-0.274c-0.129-1.758-0.193-2.674-0.303-4.725
		c-4.733,1.831-7.096,2.765-11.803,4.578c0,0.32,0.01,0.484,0.01,0.796c2.279-0.339,2.354-0.22,2.454,2.856
		c0.229,6.676,0.439,8.332,0.458,16.885c4.056-1.621,6.088-2.463,10.182-4.139c0.009-2.326,0-3.342-0.037-5.256
		C323.853,385.502,323.706,385.557,323.422,385.676"/>
	<path fill="#999999" d="M328.495,371.795c-0.138-1.959,0.879-3.424,2.206-3.928c1.941-0.742,3.855-0.439,4.561-0.302
		c-0.064-0.889-0.102-1.347-0.165-2.317c-0.65,0.074-2.298,0.238-4.011,0.88c-3.507,1.318-5.493,4.395-5.292,7.617
		c0.385,6.181,8.652,1.831,8.909,7.069c0.146,2.938-1.447,4.705-3.067,5.365c-2.052,0.833-4.13,0.119-4.944-0.174
		c0.036,1.126,0.046,1.712,0.064,2.976c0.539-0.028,2.518,0.009,4.504-0.797c3.544-1.438,6.465-5.081,6.199-9.531
		C337.065,372.006,328.788,376.355,328.495,371.795"/>
	<path fill="#999999" d="M336.937,364.745c0.019,0.284,0.028,0.421,0.046,0.696c2.454-0.477,2.527-0.395,2.747,1.996
		c0.567,6.152,0.989,7.892,1.145,16.517c1.136-0.43,1.703-0.641,2.829-1.062c-0.201-10.905-0.934-11.939-1.565-20.748
		C340.05,363.161,339.016,363.683,336.937,364.745"/>
	<path fill="#999999" d="M354.105,359.022c-1.904,0.567-4.001,0.86-5.896,1.465c0.019,0.274,0.027,0.403,0.055,0.669
		c1.025-0.146,1.969-0.385,2.079,0.76c0.027,0.201-0.156,1.272-0.257,1.785c-1.355,6.656-1.904,8.817-3.772,18.248
		c0.632-0.229,0.952-0.339,1.594-0.559c0.705-3.589,1.007-5.082,1.584-7.865c2.609-0.888,3.918-1.318,6.537-2.105
		c0.979,2.289,1.446,3.543,2.279,6.675c1.072-0.302,1.603-0.448,2.665-0.724C357.227,367.565,356.614,365.771,354.105,359.022
		 M349.801,371.987c0.797-3.745,1.676-6.181,2.399-9.724c1.446,2.984,2.261,4.861,3.269,7.893
		C353.198,370.852,352.073,371.219,349.801,371.987"/>
	<path fill="#999999" d="M362.116,360.433c0.705,5.723,1.235,7.608,1.373,16.307c4.074-0.971,6.107-1.373,10.154-1.913
		c0.019-2.408,0-3.471-0.073-5.439c-0.284,0.046-0.422,0.074-0.705,0.11c-0.019,2.655-0.714,3.653-2.17,3.9
		c-1.136,0.192-1.694,0.302-2.829,0.531c-1.282,0.256-1.594,0.174-1.685-1.776c-0.146-3.122-0.284-4.395-0.559-6.849
		c1.245-0.293,1.867-0.431,3.113-0.687c1.547-0.312,2.215,0.448,2.353,2.068c0.284-0.055,0.431-0.082,0.714-0.128
		c-0.21-2.526-0.348-3.616-0.622-5.832c-0.293,0.055-0.439,0.082-0.724,0.138c-0.046,0.896-0.092,2.105-1.867,2.472
		c-1.246,0.257-1.868,0.394-3.113,0.687c-0.257-2.133-0.403-3.122-0.65-5.265c-0.165-1.3,0.165-1.511,1.456-1.794
		c0.806-0.175,1.208-0.257,2.015-0.422c1.702-0.348,2.856,0.064,3.112,2.18c0.284-0.056,0.431-0.083,0.724-0.129
		c-0.22-1.565-0.33-2.344-0.521-4.02c-4.99,0.87-7.453,1.429-12.352,2.701c0.027,0.257,0.036,0.385,0.063,0.641
		C361.723,357.731,361.786,357.796,362.116,360.433"/>
	<path fill="#999999" d="M262.672,280.931c-0.504-1.054-2.912-5.695-3.616-6.675c-0.312-0.439-0.587-0.906-0.925-1.328
		c-1.19-1.492-0.998-3.058-0.843-3.488c0.495-1.428,1.3-3.827,2.729-9.504c0.687-2.756,0.77-4.212,0.833-4.706
		c0.248-2.097,0.395-3.427,0.192-5.203c-0.138-1.09-0.394-3.154-1.693-5.438c-1.355-2.371-3.067-3.648-3.425-3.914
		c-0.477-0.344-1.318-0.948-2.582-1.406c-0.339-0.123-2.088-0.732-4.432-0.53c-3.017,0.256-5.077,1.693-5.846,2.238
		c-0.477,0.344-2.303,1.698-3.694,4.185c-1.347,2.403-1.565,4.568-1.694,6.006c-0.15,1.71-0.357,3.972,0.732,6.499
		c0.829,1.932,2.097,3.287,2.541,3.763c0.637,0.669,1.236,1.172,1.693,1.521c0.289-0.485,0.756-1.173,1.451-1.868
		c1.529-1.511,2.317-1.768,3.709-1.822c0.54-0.027,1.364,0.201,1.891,0.449c0.087,0.036,0.16,0.137,0.242,0.201
		c0.444-0.897,0.563-2.802,0.563-3.727c0-1.328-0.06-2.134-0.38-2.848c-0.146-0.339-0.361-0.659-0.361-0.668
		c-0.252-0.385-0.527-0.809-0.989-1.124c-0.211-0.142-0.362-0.192-0.522-0.252c-0.261-0.092-0.617-0.22-0.915-0.642
		c-0.444-0.641-0.353-1.336-0.325-1.598c0.146-1.107,0.943-1.762,1.245-1.978c0.019-0.009,0.027-0.014,0.042-0.022
		c0.37-0.206,1.373-0.668,2.586-0.344c1.035,0.271,1.603,0.948,1.822,1.204c0.732,0.874,0.897,1.809,0.988,2.624
		c0.129,1.012,0.33,3.732-0.439,7.065l-0.045,0.211c-0.146,0.632-0.312,1.41-0.797,2.243c-0.211,0.357-0.375,0.604-0.513,0.797
		c-0.092,0.137-0.188,0.229-0.202,0.32c-0.315,2.005-0.293,14.704-0.164,16.756c0.045,0.732,0.119,8.625,0.192,10.373
		c0.019,0.357,0.05,1.521-0.614,1.979c-0.439,0.311-1.016,0.246-1.181,0.229c-0.773-0.082-1.3-0.55-1.502-0.742
		c-2.894-2.673-4.226-6.839-4.226-6.839c-0.76-2.381-1.625-5.778-2.005-10.026c-2.98,3.754-5.435,8.405-6.908,13.927
		c-1.264,4.733-0.595,9.293,0.385,13.45c0,0.009,0.293,1.309,0.567,2.5c0.797-0.211,1.676-0.257,2.495-0.129
		c0.032-0.055,0.064-0.101,0.105-0.155c0.014-0.009,0.027-0.019,0.046-0.037c0.375-0.348,0.947-0.942,1.557-1.565l0.014-0.019
		c1.145-1.181,2.439-2.518,3.323-3.204c0.307-0.229,0.755-0.22,1.049,0.018c0.302,0.238,0.394,0.669,0.215,1.017
		c-0.055,0.101-0.279,0.385-0.563,0.751c-0.16,0.192-0.324,0.412-0.48,0.613c0.046-0.046,0.092-0.082,0.138-0.128
		c0.402-0.376,0.819-0.751,0.947-0.843c0.257-0.164,0.609-0.137,0.838,0.064l0.041,0.037c0.211,0.219,0.247,0.559,0.083,0.823
		c-2.619,4.176-3.672,5.576-4.18,6.053c0.004,0.118,0.004,0.22,0.004,0.293c0,0.942-0.266,1.675-0.439,2.161
		c-0.247,0.704-0.535,1.199-0.842,1.73c-0.184,0.32-0.398,0.631-0.604,0.942c-0.559,0.833-1.081,1.621-1.218,2.609
		c-0.119,0.843,0.109,1.64,0.348,2.481c0.101,0.357,0.206,0.732,0.284,1.099c0.133,0.659,0.242,1.667,0.261,2.82
		c0.426,0.183,0.889,0.375,1.378,0.55c0.366,0.128,0.724,0.247,1.071,0.348c0.682-1.346,1.52-2.555,2.431-3.461
		c1.388-1.374,1.419-2.399,1.168-4.396c-0.056-0.448-0.151-0.869-0.247-1.281c-0.238-1.007-0.485-2.052-0.051-3.306
		c0.247-0.723,0.673-1.373,1.149-2.005c0.549-0.724,1.446-1.429,1.735-1.648c0.031-0.494,0.265-2.115,0.508-3.479
		c0.549-3.085,0.806-3.506,1.529-3.562h0.055c0.723,0,0.934,0.284,1.776,3.562c0.265,1.044,0.659,2.674,0.751,3.251
		c0.247,0.448,0.494,0.906,0.75,1.364c0.156,0.293,0.32,0.576,0.477,0.869c0.458,0.843,0.576,1.548,0.613,2.006
		c0.037,0.65,0.01,1.354-0.402,2.637c-0.165,0.513-0.321,0.998-0.367,1.511c-0.119,1.172,0.303,2.555,1.163,3.873
		c0.202,0.312,0.431,0.622,0.741,0.989c1.017,1.199,1.979,2.426,2.72,3.836c0.257-0.046,0.55-0.119,0.678-0.146
		c0.229-0.046,0.632-0.165,1.007-0.293l0.027-0.01c-0.009-1.693,0.248-3.277,0.431-4.166c0.073-0.375,0.174-0.741,0.284-1.098
		c0.238-0.843,0.457-1.64,0.348-2.481c-0.137-0.998-0.668-1.786-1.227-2.619c-0.201-0.302-0.412-0.622-0.604-0.942
		c-0.302-0.522-0.641-1.008-0.843-1.722c-0.348-1.255-0.229-2.316,0.01-3.132c-0.449-0.549-1.301-1.969-3.195-5.64
		c-0.102-0.184-0.056-0.412,0.119-0.55c0.082-0.073,0.183-0.101,0.283-0.101s0.201,0.027,0.284,0.092
		c0.366,0.284,0.97,0.888,1.62,1.593c-0.549-0.979-1.034-1.886-1.189-2.252c-0.11-0.257-0.019-0.559,0.21-0.724
		c0.11-0.063,0.229-0.101,0.348-0.101c0.156,0,0.303,0.055,0.422,0.155c0.814,0.751,1.986,2.18,3.03,3.443
		c0.394,0.476,0.77,0.934,1.08,1.3c0.604-0.082,1.264-0.055,1.904,0.092c0-0.019,0.01-0.037,0.01-0.064
		c0-0.109,0.192-0.741,0.448-1.483C264.403,300.104,267.497,291.057,262.672,280.931 M245.294,258.801
		c-0.174,0.567-0.7,0.961-1.282,0.961c-0.256,0-0.513-0.073-0.732-0.22c-1.693-1.117-2.793-2.894-2.939-4.743
		c-0.077-0.988,0.179-1.923,0.766-2.785c0.082-0.119,0.169-0.238,0.256-0.357c0.242-0.33,0.472-0.637,0.477-0.884
		c0.004-0.724,0.59-1.291,1.327-1.291c0.371,0,0.728,0.146,0.979,0.398s0.389,0.586,0.38,0.948c0,0.581-0.188,1.08-0.421,1.508
		c0.751,0.439,1.392,1.328,1.328,2.563c-0.028,0.65-0.449,2.015-0.601,2.481C245.267,257.711,245.454,258.27,245.294,258.801
		 M246.969,296.871c-0.375,0.385-0.855,0.586-1.4,0.586c-0.109,0-0.22-0.009-0.33-0.019c-0.719-0.109-1.189-0.53-1.556-1.053
		c-1.264-1.831,1.804-5.979,2.233-6.363c0.165-0.155,0.385-0.229,0.604-0.229c0.097,0,0.188,0.019,0.274,0.047
		c0.312,0.1,0.536,0.348,0.604,0.658C247.766,292.32,248.21,295.571,246.969,296.871 M252.289,297.273
		c-0.353,0.33-0.824,0.504-1.318,0.504c-0.078,0-0.16,0-0.247-0.009c-0.669-0.083-1.319-0.477-1.694-1.034
		c-0.934-1.374-0.421-2.747-0.009-3.846c0.183-0.504,0.356-0.971,0.407-1.41c0.041-0.348,0.325-0.623,0.682-0.65
		c0.591-0.046,0.939,0.412,1.108,0.641c0.036,0.055,0.063,0.092,0.092,0.119c0.407,0.431,1.483,2.006,1.639,2.802
		C253.15,295.352,253.022,296.615,252.289,297.273 M257.362,296.99c-0.082,0.019-0.155,0.037-0.229,0.046
		c-0.897,0.155-1.832-0.247-2.344-1.017c-0.642-0.979-0.861-2.078-1.054-3.049c-0.165-0.843-0.329-1.63-0.714-2.299
		c-0.201-0.348-0.128-0.796,0.165-1.053c0.302-0.274,0.76-0.302,1.08-0.072c0.751,0.521,4.486,3.24,4.45,5.694
		C258.707,296.074,258.167,296.752,257.362,296.99"/>
	<path fill="#999999" d="M416.118,298.547c-2.243-2.912-6.885-3.919-9.979-1.923c-0.522-2.417-3.828-19.072-4.615-25.399
		c19.493-2.271-11.866-32.433-12.8-12.461c-5.723,0.037-20.51-0.778-24.044-0.934c3.827-8.568-6.528-13.293-12.81-7.703
		c-1.438-1.058-9.119-6.377-13.551-9.49c0-7.801-0.009-15.716-0.009-23.389c13.643,1.712,26.021,0.334,38.729-5.773
		c4.322,7.339,12.654,3.489,11.226-3.333c7.453-6.217,19.74-16.865,23.843-25.729c1.428-3.104-1.933-5.273-4.542-3.378
		c1.127-2.033,1.31-5.402-2.032-5.782c0.659-2.266-1.017-6.52-3.9-5.201c0.567-2.119-1.858-4.907-3.965-4.105
		c0.567-1.136-0.65-8.291-4.587-6.053c0.109-2.371-3.076-6.533-5.942-5.196c0.109-2.28-0.504-5.118-4.35-5.553
		c-2.252,0-3.112,3.401-4.11,7.339c-1.96,7.384-6.291,14.461-10.914,20.568c-4.523-2.289-12.142,4.125-8.479,8.301
		c-3.416,3.012-12.315,5.269-21.014,5.868c-0.009-14.479-0.027-22.13,0.027-26.909h-43.848c6.217-4.459,26.928-19.393,32.852-23.467
		c0.184,0.315,3.781,5.314,5.566,7.636c1.648-1.136,4.734-3.218,5.934-4.093c0.787,1.094,1.904,2.715,3.012,4.35
		c-1.172,0.828-4.724,3.323-5.841,4.11c1.693,2.34,9.238,12.786,10.923,15.131c1.95-1.374,5.256-3.699,7.197-5.073
		c-0.779-1.084-4.597-6.363-5.457-7.558l4.843-3.411c0.88,1.228,4.651,6.446,5.457,7.563c2.253-1.584,8.122-5.718,10.374-7.307
		c-1.685-2.344-6.144-8.689-8.68-11.944c-1.071,0.751-4.486,3.159-5.604,3.946l-3.919-5.435c2.051-1.469,3.837-2.71,5.687-3.923
		c-0.797-1.104-3.188-4.413-4.02-5.563c2.334-1.639,4.367-3.076,5.722-4.028c1.145,1.726,2.757,3.777,4.212,5.365
		c1.887-1.332,5.055-3.57,6.025-4.258c0.998,1.388,2.472,3.443,3.918,5.426c-1.199,0.842-5.054,3.562-6.18,4.354
		c1.657,2.303,6.977,9.668,8.634,11.976c2.28-1.611,8.616-6.07,10.896-7.682c-0.769-1.08-4.568-6.387-5.42-7.581l3.955-2.793
		c0.979,1.314,4.798,6.451,5.695,7.659l7.48-5.388c-1.73-2.408-9.238-12.81-10.987-15.227c-1.108,0.787-5.704,4.02-6.895,4.861
		l-3.122-4.326c1.218-0.861,5.759-4.061,6.895-4.857c-0.778-1.085-4.643-6.428-5.503-7.622c1.126-0.824,3.204-1.809,2.674-3.562
		c-0.312-1.406-4.99-7.39-6.392-7.829c-0.869-0.361-1.794,0.233-1.813,0.284l-81.663,57.642c-0.586-3.323-1.978-11.72-2.884-17.41
		h17.771c1.301,0,2.354-1.039,2.354-2.321c0.311-2.051-1.127-3.502-3.214-3.19v-1.653c3.461-0.265,3.461-5.553,0-5.818v-14.237
		c-0.448,0.792-1.483,2.628-1.969,3.479c-0.183-2.088-0.641-4.597-1.172-6.492c3.626,0.751,4.276-5.416,0.687-5.512
		c-0.659,0.009-3.067-0.005-3.689,0v-1.332c3.863,0.05,3.863-5.934,0-5.883V78.053c-1.218,2.037-2.106,3.882-3.397,6.281
		c-0.76-3.388-1.94-6.606-3.507-9.601c1.639-0.105,2.362-1.707,2.161-3.168c0.046-2.756-3.415-2.335-5.283-2.32c0,0-0.009,0-0.019,0
		c3.224-0.266,3.498-5.119,0.339-5.741c-0.019-0.247-0.027-9.994-0.027-9.994c-1.089,1.909-2.032,3.722-3.149,5.847
		c-3.26-6.565-16.453-19.082-28.777-21.242c-0.201-3.004-1.96-5.16-3.168-5.54v-0.343v-7.596h5.091v-6.276h-5.091v-5.512h-7.678
		v5.512h-5.086v6.276h5.086v7.596v0.343c-1.167,0.468-2.797,2.257-3.141,5.37c-10.195,1.937-20.597,9.481-28.736,21.545
		c-1.09-2.038-1.872-3.631-2.93-5.394v9.344c-3.352,0.385-3.277,5.521,0.082,5.806c-0.027,0-2.453,0-2.545,0
		c-0.76,0-2.752,0.476-2.811,2.32c-0.216,1.492,0.554,3.127,2.238,3.178c-0.344,0.86-2.614,6.162-3.58,9.618
		c-1.296-2.413-2.184-4.263-3.41-6.309V89.37c-4.469-0.729-4.464,6.51,0,5.781v1.383c-0.604-0.01-3.036,0.009-3.686,0
		c-3.594,0.096-2.944,6.263,0.682,5.512c-0.54,1.918-0.993,4.445-1.172,6.556c-0.375-0.782-1.552-2.802-1.964-3.543v14.242
		c-4.299-0.559-4.299,6.368,0,5.81v1.657c-2.083-0.307-3.53,1.136-3.209,3.19c0,1.282,1.053,2.321,2.349,2.321h17.446
		c-0.778,5.508-2.046,13.991-2.646,17.41l-81.658-57.642c-0.028-0.051-0.948-0.646-1.818-0.284
		c-1.396,0.439-6.079,6.423-6.381,7.829c-0.531,1.753,1.528,2.737,2.664,3.562c-0.889,1.227-4.697,6.505-5.503,7.622
		c1.108,0.778,5.7,4.015,6.899,4.857l-3.123,4.326c-1.227-0.86-5.764-4.061-6.898-4.861c-1.744,2.417-9.248,12.813-10.987,15.227
		l7.485,5.388c0.874-1.181,4.738-6.377,5.689-7.659l3.965,2.793c-0.879,1.227-4.633,6.469-5.434,7.581
		c2.284,1.611,8.62,6.07,10.9,7.682c1.662-2.308,6.977-9.669,8.639-11.976c-1.108-0.778-5.009-3.525-6.186-4.354
		c1.447-1.982,2.926-4.038,3.919-5.426c0.962,0.683,4.147,2.931,6.029,4.258c1.451-1.588,3.067-3.64,4.208-5.365
		c1.354,0.952,3.387,2.39,5.722,4.028c-0.842,1.163-3.214,4.445-4.02,5.563c1.85,1.213,3.636,2.454,5.69,3.923l-3.923,5.435
		c-1.136-0.801-4.519-3.182-5.604-3.946c-2.546,3.269-6.986,9.591-8.676,11.944c2.253,1.589,8.117,5.718,10.374,7.307
		c0.783-1.085,4.592-6.368,5.457-7.563l4.839,3.411c-0.888,1.222-4.651,6.446-5.462,7.558c1.951,1.374,5.252,3.699,7.201,5.073
		c1.686-2.345,9.229-12.791,10.919-15.131c-1.099-0.773-4.683-3.296-5.837-4.11c1.107-1.635,1.768-2.601,2.555-3.695
		c1.204,0.875,4.203,2.834,5.851,3.97c1.804-2.34,5.905-7.824,6.103-8.167l32.439,22.789c0.156,0.109,0.737,0.485,0.802,0.678
		h-44.233c0.056,4.747,0.037,12.352,0.027,26.717c-8.871-0.563-19.049-2.641-22.482-5.676c3.658-4.176-3.96-10.59-8.482-8.301
		c-4.624-6.111-8.955-13.18-10.914-20.568c-0.989-3.938-1.85-7.339-4.111-7.339c-3.836,0.435-4.459,3.269-4.345,5.553
		c-2.875-1.332-6.048,2.82-5.946,5.196c-3.938-2.243-5.15,4.917-4.583,6.053c-2.106-0.802-4.537,1.986-3.97,4.105
		c-2.875-1.318-4.55,2.931-3.891,5.201c-3.355,0.385-3.164,3.744-2.042,5.782c-2.604-1.887-5.97,0.27-4.542,3.378
		c4.121,8.877,16.381,19.494,23.852,25.729c-1.433,6.822,6.904,10.672,11.221,3.333c13.176,6.341,26.026,7.572,40.205,5.535
		c-0.005,7.741-0.014,15.734-0.014,23.613c-4.432,3.108-12.132,8.446-13.569,9.504c-6.29-5.594-16.637-0.855-12.814,7.703
		c-3.543,0.155-18.312,0.971-24.044,0.934c-0.934-19.972-32.288,10.19-12.795,12.461c-0.787,6.327-4.098,22.982-4.615,25.399
		c-5.154-3.37-12.982,1.804-11.398,7.855c1.213,4.936,11.865,15.529,17.236,15.529c4.39,0.21,8.738-5.43,6.697-9.596
		c1.337-0.431,5.796-1.163,6.016-1.209c10.172,17.314,48.797,35.571,66.51,46.596c1.392,0.549,3.708,1.034,4.486-0.669
		c1.941-2.371,6.006-5.374,3.287-8.717c1.95-0.988,3.231-3.928,2.398-5.594c2.504-1.254,2.619-3.195,1.373-5.521
		c0.921-0.705,2.088-2.398,0.902-3.58c-0.518-0.613-1.094-1.446-1.973-1.52c-4.561-0.714-9.083-1.74-13.46-2.729
		c-7.695-1.749-15.647-3.553-24.034-3.689c-1.337-0.614-3.104-1.64-5.21-3.013l0.014-0.036c-3.31-2.061-6.959-4.826-11.459-8.287
		c8.698,3.956,24.511-16.609,10.42-18.568l0.48-3.012c3.612,2.151,12.479,1.346,17.126-0.797
		c9.633,32.073,26.928,36.725,86.662,67.05c59.854-30.435,76.875-34.802,86.662-67.041c4.615,2.134,13.523,2.939,17.104,0.788
		l0.485,3.012c-14.091,1.959,1.722,22.524,10.42,18.568c-4.505,3.471-8.149,6.227-11.464,8.287l0.019,0.036
		c-2.105,1.373-3.873,2.398-5.21,3.013c-8.387,0.137-16.344,1.94-24.034,3.689c-4.377,0.988-8.899,2.015-13.46,2.729
		c-0.869,0.073-1.465,0.906-1.978,1.52c-1.172,1.172-0.036,2.894,0.907,3.58c-1.255,2.326-1.127,4.268,1.373,5.521
		c-0.833,1.666,0.448,4.605,2.398,5.594c-2.701,3.333,1.328,6.346,3.287,8.717c0.778,1.703,3.095,1.218,4.486,0.669
		c17.699-11.015,56.319-29.272,66.51-46.596c0.22,0.046,4.679,0.778,6.016,1.209c-2.088,4.285,2.49,10.035,7.023,9.586
		C407.192,318.635,422.381,306.183,416.118,298.547 M115.744,148.398c1.9-0.421,2.967,6.886,3.873,9.267
		c2.399,6.309,6.354,13.147,10.42,18.271C129.186,185.71,104.03,150.02,115.744,148.398 M110.123,153.682
		c1.016-0.489,0.86,0.041,1.867,3.141c3.086,8.52,12.045,20.794,14.828,22.716c0.284,0.921-1.084,2.926-1.643,2.902
		c-6.685-3.79-14.453-16.297-15.272-17.662C108.645,162.856,103.581,156.854,110.123,153.682 M103.631,158.905
		c0.504-0.16,1.393-0.637,2.399,1.456c1.222,2.531,5.818,10.524,9.989,15.414c1.913,2.243,4.935,6.062,6.821,7.646
		c1.739,1.46,1.364,1.895,0.641,3.044c-1.685,1.923-2.802,0.022-3.919-0.828c-5.045-4.803-9.705-7.439-17.126-20.688
		C101.063,162.499,103.302,158.694,103.631,158.905 M100.633,165.159c9.508,14.068,9.165,14.525,20.514,23.984
		c1.236,0.934-0.998,3.273-2.77,2.046c-2.326-1.52-12.97-11.774-17.553-18.962C98.445,168.491,97.406,165.599,100.633,165.159
		 M95.689,169.06c1.451-0.307,2.44,1.982,3.017,2.848c7.855,11.815,9.669,12.708,19.035,21.915
		c0.568,7.92-15.135-9.679-16.051-11.024c-0.343-0.252-4.605-5.229-6.839-8.94C93.858,172.214,94.173,170.346,95.689,169.06
		 M92.291,174.859c1.314-0.765,1.328-0.215,1.575,0.114c5.397,7.179,9.563,12.54,16.202,18.793c0.567,0.527,6.144,4.779,5.018,5.806
		c-0.971,1.693-2.825,0.467-3.709-0.133C107.308,196.115,88.954,180.34,92.291,174.859 M111.323,206.443
		c-4.523-1.429-25.912-22.317-23.184-26.667c0.586-0.608,2.391,0.046,2.999,0.848c3.983,5.187,7.485,9.819,12.438,14.283
		C106.168,197.974,115.479,202.594,111.323,206.443 M120.181,210.015c-4.537,7.302-9.902,1.272-7.146-2.752
		c2.903-4.239,18.578-30.104,18.578-30.104c1.405-1.991,7.608,1.451,6.551,4.345l-15.991,25.005
		C122.172,206.508,120.598,209.337,120.181,210.015 M161.703,214.981c-13.583,2.092-26.918,0.641-38.99-5.246
		c-0.472,0.297,15.194-23.989,15.592-24.657c4.743,3.836,16.619,5.534,23.586,5.983
		C161.996,197.896,161.393,210.349,161.703,214.981 M161.846,256.703c0.018,7.032-0.005,13.46,0.05,19.759
		c-3.534,2.839-10.383,2.381-13.995,1.272l0.843-6.656c7.104,2.857,13.679-5.475,8.78-11.573
		C157.227,259.588,159.749,257.977,161.846,256.703 M161.64,243.695l-0.097,9.685c0,0.266-3.57,2.417-5.658,3.892
		c-1.822-2.234-3.57-3.791-5.759-5.639C153.459,249.234,158.147,246.199,161.64,243.695 M139.899,250.031
		c6.235-1.841,14.229,7.936,16.814,12.358c1.319,4.083-1.496,7.096-5.049,7.096c-3.992,0.522-10.759-8.048-13.276-10.566
		C136.455,256.044,135.944,251.193,139.899,250.031 M111.854,293.712c-0.252,0.778-0.431,1.557-0.577,2.335l-4.111,0.596
		c0.642-4.99,2.725-16.555,4.427-25.445l23.962-0.723c-0.298,1.85-0.646,7.077-0.782,7.104
		C119.205,280.628,113.721,288.035,111.854,293.712 M133.132,285.884c-1.562-0.979-4.478-2.609-2.582-5.109
		c1.442-0.421,2.596-0.897,4.249-1.218c-0.188,1.035-0.953,7.453-1.296,9.357c-0.005,0-0.014,0-0.022,0.01
		C133.856,287.248,133.549,286.369,133.132,285.884 M123.921,291.469c-2.921-0.128-5.37,0.092-6.171-3.479
		c0.787-0.843,1.689-1.64,2.705-2.408c0.279,6.372,7.087,0.348,6.363,6.162c-0.279,0.201-0.677,0.503-1.121,0.934
		C125.253,292.184,124.681,291.707,123.921,291.469 M124.416,294.188c-0.531,0.741-1.063,1.804-1.328,2.747
		c-2.674-2.985-6.684,1.181-9.495-1.492c0.448-1.759,1.2-3.489,2.298-5.119C118.739,294.051,121.971,291.771,124.416,294.188
		 M127.794,283.283c1.181,3.873,4.44,2.079,3.81,6.254c-0.797,0.274-1.745,0.641-2.72,1.099c0.146-6.399-6.89-1.346-6.84-6.135
		c1.712-1.08,3.69-2.06,5.979-2.894C127.707,282.414,127.753,283.027,127.794,283.283 M133.077,291.277
		c-0.197,1.098-0.376,2.123-0.522,2.993c-2.225,0.184-4.715,0.485-6.367,0.714C127.026,293.987,128.911,292.65,133.077,291.277
		 M113.199,297.484c3.269,2.637,7.426-1.748,9.49,2.234c0.023,1.025,0.068,1.419,0.238,2.151c-3.585-2.472-6.23,2.262-9.774-0.375
		C113.026,300.167,113.034,298.821,113.199,297.484 M114.865,308.078c-0.54-1.245-0.971-2.555-1.281-3.882
		c3.735,1.978,5.864-2.234,9.815-0.669c0.421,1.099,0.979,2.015,1.538,2.747C119.234,304.975,118.272,309.305,114.865,308.078
		 M118.529,313.893c-0.765-0.889-1.493-1.841-2.134-2.885c4.958-0.961,4.295-3.827,10.2-2.911c0.678,0.577,1.373,1.327,2.412,2.114
		C121.124,309.854,122.937,315.449,118.529,313.893 M128.985,307.419l3.424-0.622c0.262,2.087,0.688,3.497,1.909,4.807
		C132.922,310.568,129.085,307.538,128.985,307.419 M120.726,316.136c1.511,0.027,3.699-1.95,4.202-3.095
		c0.335-1.374,6.913-1.904,8.96,0.925c-5.646-0.175-5.425,3.662-10.649,4.313C122.484,317.664,121.569,316.896,120.726,316.136
		 M143.149,332.305c3.228-3.79,4.234-1.693,7.289-2.976c-0.531,2.692-4.743,3.077-6.034,3.772
		C143.983,332.836,143.561,332.58,143.149,332.305 M189.213,332.277l0.668,0.797c-0.384,0.274-0.663,0.549-0.879,0.824l-17.57-0.852
		l17.145,2.921c1.049,2.279,0.989,2.124-1.217,3.607l-17.466-2.436l17.378,4.633c0.737,1.831-2.49,3.195-2.984,4.111l-15.635-5.878
		l16.825,8.432c0.458,1.154-0.407,1.841-1.231,2.784l-15.387-7.911l13.816,9.504c-0.439,0.467-0.82,0.943-1.049,1.41
		c-6.949-2.49-13.135-7.407-19.818-10.749c2.344-2.747,8.47-10.969,7.609-15.31C175.95,329.549,182.438,331.225,189.213,332.277
		 M167.165,327.699c1.017,4.203-5.091,11.922-7.462,14.559c-0.848-0.485-1.689-0.971-2.527-1.456
		c2.436-2.545,8.286-9.604,7.811-13.496C165.714,327.443,166.442,327.553,167.165,327.699 M162.449,326.866
		c0.742,3.498-5.273,10.146-7.699,12.535c-0.984-0.577-1.955-1.182-2.939-1.776c2.719-1.822,8.35-7.16,7.75-11.152
		C160.528,326.592,161.493,326.72,162.449,326.866 M152.736,330.41c0.993-2.509,1.103-3.306,1.062-4.45
		c1.09,0.046,2.166,0.146,3.242,0.247c0.69,3.607-4.808,8.369-7.618,9.98c-0.889-0.541-1.786-1.063-2.674-1.611
		C147.781,333.642,151.664,333.111,152.736,330.41 M151.317,325.759c-2.643,3.763-7.499,1.145-10.091,5.301
		c-0.402-0.265-0.796-0.54-1.199-0.806c3.892-2.436,4.139-5.292,9.568-5.355C150.208,325.228,150.785,325.521,151.317,325.759
		 M145.887,322.673c0.467,0.302,0.924,0.586,1.373,0.87c-4.367,0.687-5.219,4.028-9.064,5.484c-0.485-0.33-0.975-0.65-1.456-0.979
		C141.556,326.939,139.537,321.172,145.887,322.673 M139.524,318.241c1.043,0.77,2.082,1.511,3.121,2.243
		c-5.319,1.218-2.691,5.576-8.336,5.852c-1.231-0.88-2.729-1.951-4.326-3.104C136.172,322.811,133.778,317.93,139.524,318.241
		 M135.668,315.339c0.467,0.366,0.948,0.724,1.429,1.09c-4.954,0.852-2.628,5.292-9.568,5.045c-0.632-0.458-1.272-0.916-1.904-1.364
		c2.234-0.348,3.149-2.811,4.771-3.406C131.502,316.575,134.258,315.814,135.668,315.339 M143.222,296.331
		c17.781-2.774-9.202,27.285-8.785,8.359l-7.132,1.09c-1.553-1.96-2.889-5.86-1.85-8.57c1.734-0.247,6.514-0.888,8.922-0.935
		c0.943-5.805,3.553-27.998,3.553-27.998l-28.132,0.934c0,0-5.214,26.982-4.949,29.903l6.13-0.897
		c-0.21,2.875,0.019,6.309,0.875,8.955c-2.253,0.521-5.851,0.925-8.355,1.538c3.342,2.756,0.527,9.192-3.652,9.192
		c-4.346-0.027-14.17-9.852-15.158-13.89c-0.893-6.399,6.67-7.92,10.79-4.147c1.845-9.971,4.515-21.984,5.142-30.673
		c-18.289,0.934,9.833-27.004,9.06-8.708l25.875-0.823l11.088,10.813C146.642,270.475,144.06,290.086,143.222,296.331
		 M151.051,288.384c-0.143,0.411-0.376,1.025-0.897,1.465c-1.63-0.274-2.692-0.778-3.653-1.035c0.732-4.815,0.961-7.206,1.172-9.073
		c1.099,0.211,1.364,0.128,2.422,0.33C147.672,285.023,152.456,284.657,151.051,288.384 M156.069,289.949
		c-1.25,0.283-2.51,0.283-3.801,0.174c3.178-6.409-2.261-4.377-0.26-9.724c0.773,0.128,1.487,0.229,2.119,0.302
		c0.732,6.968,3.584,3.498,5.466,8.332C158.385,289.381,157.157,289.702,156.069,289.949 M161.645,288.43
		c-1.58-5.32-5.641-3.04-5.339-7.637c3.69-0.714,4.981-1.776,5.585-2.16c0.156,2.242,0.17,5.393,0.843,9.477
		C162.734,288.109,161.819,288.558,161.645,288.43 M380.859,110.47l-6.876,4.894l5.549,7.6l6.867-4.894l8.606,11.779
		c0,0-2.829,2.023-4.212,2.998l-5.604-7.462l-7.252,5.164l5.467,7.554l-7.527,5.365l-6.308-8.634l6.171-4.396
		c-2.811-3.785-6.336-8.688-6.336-8.688s-1.008,0.705-6.172,4.391c-1.813-2.052-4.02-5.503-4.02-5.503s-4.119,2.943-9.101,6.482
		l4.011,5.503c-1.639,1.112-5.622,4.01-5.622,4.01l6.336,8.689l5.631-4.006c1.199,1.548,6.309,8.634,6.309,8.634l-7.014,4.99
		l-5.503-7.53l-8.148,5.805l5.493,7.535l-3.836,2.733l-9.056-12.232l5.769-4.106c0,0-4.614-7.055-5.036-7.192
		c-2.243,1.685-1.996,1.497-5.823,4.147c-2.701-3.562-4.459-6.106-4.459-6.106c1.182-0.843,3.077-2.197,5.457-3.896
		c5.731-4.102,14.266-10.204,22.204-15.872c4.953-3.534,9.678-6.899,13.358-9.499c2.792-1.987,4.99-3.529,6.217-4.367
		L380.859,110.47z M373.763,93.7c0,0,4.642,5.512,4.907,6.726c0.101,0.43-88.081,61.886-88.081,61.886h-14.019L373.763,93.7z
		 M289.024,150.522l-15.858,11.574h-6.94c-1.502-11.271-3.003-18.867-2.563-29.817h22.396
		C286.615,135.965,288.026,145.651,289.024,150.522 M238.656,132.279h22.854c-0.521,9.889,1.291,19.169,2.308,30.032h-27.473
		C237.365,151.434,239.178,142.177,238.656,132.279 M245.739,35.074c0.274-0.526,0.961-1.204,1.991-1.204c0.138,0,4.788,0,4.935,0
		c1.1,0,1.804,1.14,1.859,1.227l0,0c0.329,0.577,0.613,1.415,0.86,2.623c0,0-5.425-0.951-10.521,0
		C244.855,37.725,245.441,35.66,245.739,35.074 M216.544,59.636c19.955-29.383,50.12-25.422,67.874,0.993
		c-2.894,5.37-3.653-0.22-5.741-2.614c-1.044,1.369-1.694,4.468-3.562,4.985c-2.509-2.225-4.02-7.109-5.888-9.829
		c-1.923,2.692-3.314,7.783-5.997,9.838c-1.456-0.782-2.518-3.676-3.525-5.026c-1.007,1.351-2.078,4.244-3.524,5.026
		c-2.683-2.055-4.075-7.142-6.007-9.828c-1.863,2.701-3.379,7.576-5.864,9.792c-1.781-0.403-2.495-3.686-3.745-4.958
		c-1.039,1.369-1.693,4.468-3.557,4.985c-2.514-2.225-4.02-7.109-5.888-9.829c-1.923,2.692-3.323,7.783-5.997,9.838
		c-1.461-0.782-2.518-3.676-3.534-5.026c-0.815,1.36-2.143,3.672-3.122,4.88c-1.213,0.604-1.877-1.602-2.601-2.307
		C215.99,60.271,216.544,59.636,216.544,59.636 M212.662,69.227c2.691-0.582,2.989-4.706,0.356-5.618l-0.063-4.463
		c0.302,0.54,0.604,1.104,0.906,1.657c0.242,0.453,0.494,0.897,0.741,1.327c0.279,0.48,0.563,0.939,0.856,1.355
		c1.264,1.804,2.632,2.756,4.262,1.126c0.572-0.572,1.177-1.456,1.822-2.737c0.668,1.378,1.305,2.298,1.914,2.856
		c1.528,1.401,2.884,0.54,4.102-1.145c0.897-1.227,1.721-2.889,2.495-4.418c0.027-0.05,0.055-0.104,0.082-0.16
		c0.288-0.572,0.572-1.121,0.852-1.62c0.027-0.051,0.06-0.105,0.087-0.156l0,0c2.197,3.946,5.411,13.135,9.563,4.808
		c2.061,4.473,5.036,4.386,6.799,0.155c0.897-1.543,1.85-3.369,2.687-4.972c2.34,4.12,5.407,13.23,9.527,4.651
		c4.12,8.492,7.068-0.298,9.531-4.643c2.188,3.887,5.521,13.327,9.541,4.716c2.518,5.379,4.779,3.63,6.647,0.659
		c0.329-0.535,0.659-1.112,0.97-1.698c0.486-0.921,0.943-1.85,1.365-2.665v5.247c-3.159,0.632-2.857,5.525,0.356,5.755
		c-0.027,0.004-0.155,0-0.356,0c-0.266,0.004-17.471,0-18.093,0c3.616-0.313,3.333-5.916-0.329-5.847
		c-3.672-0.069-3.947,5.534-0.33,5.847h-18.468c3.616-0.313,3.342-5.916-0.33-5.847c-3.662-0.069-3.946,5.534-0.329,5.847h-18.459
		c3.617-0.313,3.333-5.916-0.329-5.847c-3.672-0.069-3.946,5.534-0.33,5.847h-18.156h-0.284
		C212.497,69.245,212.625,69.235,212.662,69.227 M207.736,71.996c0-1.264,1.369-1.172,1.722-1.172h82.24
		c1.162,0,1.043,2.349,0,2.349c-0.834,0-80.707,0-82.117,0C208.922,73.173,207.736,73.168,207.736,71.996 M210.103,75.745
		c0.101-0.283,0.233-0.586,0.444-0.993h79.19c1.007,0.526,4.304,10.831,4.304,10.831s-1.347,2.139-2.354,3.375
		c-0.302,0.535-1.346,0.714-1.776,0.288c-1.172-1.493-2.774-4.304-3.735-5.934c-1.136,1.47-2.729,5.718-4.469,6.231
		c-2.811-1.318-5.64-9.77-7.572-12.421c-1.913,3.338-4.303,8.593-6.555,11.885c-2.363,2.349-4.35-4.376-5.402-5.663
		c-1.538,1.621-2.381,5.855-4.734,6.148c-0.348-0.051-0.649-0.233-0.852-0.518c-2.206-3.287-4.614-8.419-6.469-11.807
		c-1.845,3.379-4.257,8.529-6.464,11.807c-0.201,0.284-0.499,0.467-0.847,0.518c-2.354-0.293-3.205-4.527-4.743-6.148
		c-1.025,1.231-3.04,8.017-5.401,5.663c-2.248-3.301-4.633-8.542-6.552-11.885c-1.94,2.655-4.757,11.089-7.571,12.421
		c-1.745-0.504-3.334-4.762-4.464-6.231c-2.903,4.573-4.491,10.113-7.462,1.9C207.361,82.228,210.075,75.81,210.103,75.745
		 M202.801,94.758c0.476-0.257,2.303-2.577,0.233-4.853l-0.202-6.821c0.367,0.659,0.732,1.346,1.1,2.037
		c0.915,1.717,1.84,3.429,2.824,4.679c1.438,1.831,2.989,2.655,4.784,1.008c0.782-0.719,1.616-1.905,2.504-3.695
		c0.856,1.763,1.667,2.943,2.436,3.667c1.831,1.73,3.434,0.86,4.89-1.034c1.029-1.346,1.986-3.2,2.889-5.014
		c0.627-1.254,1.231-2.485,1.822-3.511c0.385,0.673,0.787,1.465,1.208,2.312c0.976,1.951,2.065,4.18,3.26,5.814
		c1.369,1.872,2.884,2.962,4.546,1.982c0.105-0.064,0.211-0.129,0.312-0.211c0,0,0.009-0.004,0.009-0.009
		c0.875-0.646,1.79-1.868,2.742-3.873c0.884,1.918,1.744,3.122,2.578,3.786c0.311,0.252,0.617,0.43,0.924,0.535
		c0.023,0.01,0.047,0.019,0.064,0.027c1.483,0.463,2.866-0.7,4.13-2.48c1.204-1.699,2.308-3.961,3.287-5.925
		c0.343-0.682,0.668-1.327,0.983-1.904c0.408,0.732,0.834,1.584,1.277,2.468c0.962,1.918,2.006,4.015,3.132,5.576
		c1.521,2.092,3.204,3.205,5.054,1.598c0.807-0.687,1.63-1.868,2.491-3.708c1.071,2.161,2.069,3.424,3.003,4.042
		c1.648,1.09,3.113,0.151,4.432-1.602c1.099-1.442,2.088-3.434,3.012-5.288c0.577-1.153,1.127-2.257,1.648-3.136
		c0.339,0.617,0.696,1.327,1.063,2.078c0.988,1.969,2.088,4.217,3.296,5.896c1.264,1.758,2.637,2.889,4.111,2.412v-0.004
		c0.274-0.087,0.549-0.233,0.823-0.436c0.019-0.009,0.037-0.018,0.047-0.031c0.036-0.027,0.072-0.06,0.1-0.083
		c0.843-0.682,1.722-1.918,2.629-3.892c0.805,1.686,1.574,2.825,2.316,3.544c0.586,0.572,1.145,0.879,1.693,0.966
		c0.037,0.005,0.064,0.01,0.101,0.014c1.182,0.119,2.271-0.77,3.296-2.129c1.127-1.501,2.18-3.566,3.187-5.484
		c0.211-0.402,0.421-0.801,0.623-1.181l0.046,6.556c-0.696,0.229-0.962,0.769-1.264,1.337c-0.494,0.897-0.494,2.046,0,2.948
		c0.302,0.563,0.567,1.053,1.264,1.281v1.406c-7.911-0.051-86.703-0.064-94.701-0.023V94.758z M197.77,100.467
		c-0.449-0.005-0.701-0.38-0.729-0.637c-0.027-0.261-0.036-0.755-0.022-0.97c0,0,0,0,0-0.005l0,0c0-0.097,0-0.742,0.865-0.742
		h101.394c0.477,0,1.209,0,1.905,0c0.494,0.005,0.961,0.005,1.3,0l0,0c0.101,0,0.201,0.028,0.284,0.06c0,0,0.009,0.005,0.019,0.01
		c0.063,0.031,0.128,0.068,0.183,0.123c0.092,0.092,0.165,0.206,0.22,0.339c0.128,0.33,0.138,0.76,0.037,1.117
		c-0.074,0.261-0.202,0.48-0.395,0.604c0,0.004-0.009,0.009-0.018,0.014c-0.027,0.014-0.055,0.022-0.083,0.036
		c-0.073,0.032-0.155,0.051-0.247,0.051l0,0c-0.641,0-1.41,0-2.151,0c-0.439,0-0.879,0-1.264,0
		C299.068,100.467,198.15,100.467,197.77,100.467 M290.196,112.347c-0.01,0-0.019,0.01-0.027,0.014l-0.01-0.014l-0.018,0.037
		c-0.165,0.15-0.98,1.821-1.054,1.968c-0.055,0.097-0.055,0.124,0,0.019c-0.586,1.213-2.93,6.771-4.825,4.189
		c-0.293-0.422-0.705-0.766-0.998-1.241c-0.045-0.077-0.101-0.16-0.146-0.243c-0.009-0.004-0.009-0.009-0.009-0.018
		c-0.687-1.126-1.374-2.367-2.051-3.64c-0.87-1.63-1.722-3.31-2.536-4.866c-0.422-0.82-0.843-1.607-1.246-2.335
		c-0.146-0.274-0.302-0.545-0.448-0.802c-0.741,1.003-1.657,2.917-2.655,5.014c-1.236,2.55-4.834,9.494-5.787,8.836l0,0l0,0
		c-1.043-0.102-2.801-3.146-3.497-4.423c-0.504-0.935-0.979-1.795-1.383-2.349l-0.101-0.184l-0.109,0.184
		c-0.403,0.549-0.87,1.41-1.374,2.34c-0.695,1.277-1.474,2.664-2.271,3.552c-0.412,0.449-0.824,0.774-1.236,0.88l0,0l0,0
		c-0.567-0.197-1.199-0.815-1.85-1.699c-1.382-1.863-2.875-4.894-4.139-7.54c-0.938-1.964-1.748-3.717-2.303-4.61
		c-0.54,0.879-1.354,2.629-2.293,4.592c-1.264,2.651-2.766,5.695-4.147,7.563c-0.655,0.884-1.282,1.506-1.85,1.694l0,0l0,0
		c-0.412-0.105-0.824-0.426-1.223-0.875c-0.801-0.884-1.579-2.271-2.275-3.548c-0.508-0.935-0.979-1.8-1.382-2.349l-0.102-0.184
		l-0.109,0.184c-0.403,0.554-0.87,1.41-1.373,2.344c-0.701,1.273-1.475,2.664-2.271,3.548c-0.407,0.449-0.814,0.778-1.227,0.88l0,0
		l0,0c-1.749-0.252-4.66-6.497-5.906-9.064c-0.687-1.424-1.346-2.747-1.959-3.745l-0.581-1.04l-0.056,0.097
		c-0.022-0.027-0.05-0.064-0.077-0.097c-0.444,0.889-0.938,1.887-1.466,2.939c-1.08,2.152-2.307,4.527-3.524,6.697
		c-0.741,1.314-1.483,2.555-2.184,3.617c-0.811,0.961-1.685,0.613-2.514-0.288c-0.696-0.943-1.722-2.743-2.49-4.134
		c-0.504-1.044-0.874-1.854-1.025-1.9c-0.11,0.055-0.312,0.385-0.567,0.87l-0.417,0.632c-0.146,0.224-0.348,0.59-0.623,1.094
		c-0.179,0.325-1.644,2.742-2.027,3.277c-0.458,0.495-0.921,0.838-1.374,0.93c-0.183,0.037-0.366,0.032-0.549-0.027
		c-0.229-0.073-0.458-0.233-0.674-0.494h-0.004c-1.524-2.01-2.655-3.681-3.396-5.302c-0.664-1.442-1.021-2.852-1.063-4.422
		c-0.041-1.919,0.375-4.079,1.272-6.858h98.913c0.073,0.238,0.137,0.49,0.211,0.742c0.055,0.21,0.109,0.43,0.164,0.649
		c0.027,0.097,0.046,0.197,0.074,0.298c0.036,0.188,0.082,0.375,0.128,0.572c0.22,0.998,0.394,2.051,0.53,3.104
		c0.027,0.192,0.056,0.381,0.074,0.572c0.018,0.192,0.045,0.381,0.063,0.568c0.036,0.389,0.064,0.769,0.092,1.148
		c0,0.037,0.009,0.074,0.009,0.105c0.027,0.49,0.055,0.98,0.064,1.47l0,0c-0.211,0.385-0.412,0.755-0.604,1.117
		c-0.458,0.847-0.906,1.689-1.373,2.531c-0.028,0.037-1.19,2.097-1.548,2.679c-0.329,0.489-0.641,0.869-0.952,1.14
		c-0.274,0.183-0.586,0.353-0.751,0.385c-0.155,0.027-0.311,0.041-0.476,0.05c-0.65-0.109-1.355-0.75-2.243-2
		c-0.751-1.063-1.63-2.56-2.701-4.551l0.366,0.554C290.424,112.713,290.196,112.347,290.196,112.347 M196.913,126.768v-2.362
		c0.119-0.092,0.215-0.201,0.312-0.316c0.082-0.096,0.16-0.191,0.229-0.297c0.064-0.097,0.129-0.192,0.174-0.293
		c0.019-0.046,0.041-0.083,0.055-0.124c0.313-0.732,0.313-1.606,0-2.339c-0.014-0.046-0.036-0.083-0.055-0.119
		c-0.045-0.105-0.109-0.201-0.174-0.298c-0.068-0.105-0.146-0.206-0.229-0.302c-0.097-0.11-0.192-0.22-0.312-0.316v-8.606
		c0.385,0.705,0.755,1.433,1.122,2.156c1.039,2.042,2.055,4.065,3.127,5.571c1.734,2.445,3.607,3.521,5.951,1.107
		c0.855-0.883,1.771-2.225,2.765-4.143c0.751,1.625,1.465,2.824,2.156,3.667c0.463,0.563,0.911,0.966,1.351,1.231
		c0.577,0.348,1.136,0.458,1.676,0.38c0.979-0.142,1.896-0.906,2.747-2.01c1.29-1.657,2.435-4.069,3.451-6.249
		c0.747-1.593,1.419-3.063,2.033-4.023c0.554,0.855,1.199,2.325,1.932,3.955c0.943,2.092,2.032,4.449,3.287,6.116
		c1.565,2.073,3.378,3.085,5.476,1.208c0.906-0.805,1.858-2.138,2.865-4.152c0.357,0.715,0.962,1.846,1.717,2.875
		c0.705,0.957,1.543,1.832,2.449,2.193c0.632,0.257,1.301,0.261,1.979-0.128c0.018-0.014,0.036-0.027,0.055-0.037
		c0.133-0.082,0.261-0.179,0.394-0.283c3.479-2.651,6.675-11.175,6.679-11.188c0.545,0.86,1.168,2.256,1.863,3.79
		c0.879,1.928,1.887,4.079,3.04,5.658c0.705,0.971,1.475,1.727,2.298,2.083c0.477,0.206,0.98,0.275,1.502,0.174
		c0.688-0.137,1.41-0.572,2.17-1.387c0.76-0.824,1.566-2.028,2.408-3.703c0.751,1.588,1.483,2.746,2.188,3.565
		c0.724,0.833,1.41,1.306,2.078,1.483c0.458,0.133,0.907,0.119,1.347-0.009c0.852-0.247,1.656-0.935,2.398-1.863
		c1.281-1.593,2.417-3.892,3.396-5.919c0.76-1.584,1.429-2.999,2.015-3.769c0.431,0.673,0.962,1.786,1.565,3.059
		c0.906,1.896,1.996,4.157,3.232,5.883c0.961,1.351,2.023,2.376,3.159,2.646c0.009,0,0.019,0.005,0.027,0.005s0.009,0,0.009,0
		c0.559,0.128,1.127,0.073,1.713-0.206c0.484-0.229,0.97-0.609,1.474-1.172c0.705-0.787,1.438-1.932,2.188-3.512
		c0.75,1.47,1.455,2.555,2.143,3.333c0.586,0.664,1.153,1.099,1.693,1.337c0.596,0.261,1.172,0.293,1.722,0.146
		c1.007-0.274,1.95-1.14,2.856-2.321c1.199-1.574,2.335-3.694,3.452-5.677c0.421-0.76,0.852-1.497,1.272-2.179v8.479
		c-0.613,0.261-1.044,0.714-1.318,1.25c-0.431,0.855-0.431,1.923,0,2.783c0.274,0.531,0.705,0.989,1.318,1.24v1.928v0.196H196.913
		V126.768z M194.455,130.7c-0.234,0-0.39-0.078-0.504-0.201c-0.151-0.16-0.225-0.403-0.247-0.66c-0.027-0.261-0.014-0.53,0-0.746
		l0,0c0-0.004,0-0.004,0-0.004c0.005-0.229,0.082-0.385,0.206-0.494c0.164-0.161,0.421-0.225,0.695-0.243
		c0.243-0.019,0.494-0.005,0.705,0c0.005,0,0.005,0,0.005,0h109.621c0.174-0.005,0.431-0.019,0.678,0
		c0.201,0.014,0.411,0.046,0.567,0.124c0.238,0.104,0.394,0.288,0.366,0.613c0,0,0,0,0,0.004c-0.046,0.357,0.027,0.889-0.119,1.241
		c-0.092,0.22-0.274,0.366-0.632,0.366l0,0H194.455 M214.114,132.279h22.391c0.439,10.95-1.058,18.546-2.563,29.817H227
		l-15.858-11.574C212.14,145.647,213.559,135.956,214.114,132.279 M166.543,144.1c-3.828-2.65-3.58-2.463-5.824-4.147
		c-0.412,0.138-5.484,7.646-5.484,7.646l5.76,4.102l-8.598,11.784l-3.836-2.733l5.493-7.535l-8.149-5.805l-5.502,7.53l-7.005-4.99
		c0,0,5.489-7.641,6.685-9.188l5.631,4.006l5.955-8.136c0,0-3.987-2.897-5.631-4.01l4.016-5.503
		c-4.981-3.539-9.102-6.482-9.102-6.482s-2.207,3.451-4.02,5.503c-5.159-3.686-6.166-4.391-6.166-4.391s-3.53,4.903-6.341,8.688
		l6.166,4.396l-6.304,8.634l-7.526-5.365l5.466-7.554l-7.251-5.164l-5.604,7.462c-1.383-0.975-4.202-2.998-4.202-2.998l8.593-11.779
		l6.876,4.894l5.544-7.6l-6.872-4.894l4.464-6.111c1.19,0.814,3.388,2.361,6.208,4.362l3.442,2.422l10.132,7.238
		c8.034,5.731,16.641,11.889,22.309,15.94c2.243,1.607,4.028,2.884,5.137,3.672C171.002,137.993,169.248,140.538,166.543,144.1
		 M121.916,100.298c-0.541-0.481,4.623-6.414,4.972-6.524c0.229,0.165,0.503,0.362,0.806,0.572l1.017,0.714
		c0.036,0.027,0.073,0.056,0.114,0.083c0.819,0.581,1.799,1.272,2.916,2.056c2.042,1.441,4.541,3.209,7.398,5.228
		c0.649,0.458,1.327,0.935,2.019,1.419c0.901,0.642,1.827,1.296,2.788,1.974c0.637,0.444,1.281,0.906,1.941,1.369
		c1.734,1.227,3.543,2.499,5.411,3.817c0.852,0.604,1.717,1.214,2.596,1.836c4.147,2.926,8.538,6.025,13.024,9.188
		c1.209,0.856,2.422,1.712,3.645,2.573c5.681,4.015,11.444,8.08,16.984,11.989c0.728,0.513,1.446,1.025,2.17,1.529l1.07,0.76
		c7.262,5.128,14.019,9.897,19.549,13.798c6.854,4.84,11.83,8.346,13.533,9.551l-14.32-0.133L121.916,100.298z M334.95,278.989
		c-1.054,17.892-7.829,29.227-21.581,40.745c-11.5,9.641-62.362,33.73-62.444,33.73c-0.211,0.019-53.183-23.879-64.692-33.648
		c-13.309-11.308-21.324-24.017-21.37-43.528c-0.041-16.737,0.179-32.616,0.179-40.458c8.937-6.501,13.725-9.225,23.019-15.235
		c4.239-2.742,9.824-5.535,15.345-5.457c7.143,0.096,13.506,3.31,18.129,6.482c5.499,3.776,11.052,10.483,18.084,11.115
		c4.72,0.421,8.78-1.575,12.621-4.07c3.411-2.216,6.817-4.692,10.818-5.493c4.742-0.948,9.705,0.641,13.798,3.209
		c5.622,3.53,7.802,6.505,11.655,9.751c2.271,1.909,10.173,6.606,19.265,5.687c4.651-0.472,8.57-2.609,12.791-4.396
		c4.267-1.799,10.081-1.46,14.613-0.384C335.555,237.125,335.573,268.523,334.95,278.989 M334.218,234.154
		c-4.258-0.833-10.008-0.225-14.22,1.131c-2.252,0.728-4.321,1.858-6.455,2.88c-5.1,2.444-12.883,1.666-16.957,0.082
		c-4.303-1.666-7.15-3.328-10.209-6.235c-6.775-6.446-13.789-13.116-25.326-10.64c-3.516,0.756-6.427,2.715-9.238,4.61
		c-3.854,2.601-7.484,5.059-12.585,4.597c-3.987-0.353-8.295-3.855-12.456-7.238c-3.008-2.444-6.117-4.977-9.166-6.354
		c-10.882-4.927-17.414-5.673-27.844,0.114c-2.947,1.634-19.603,12.328-25,15.808c0.004-11.34,0.014-22.666,0.027-32.911
		c0.023-16.386,0.032-29.661,0.014-34.752h170.568c-0.019,5.091-0.009,18.366,0.01,34.752c0.018,10.703,0.027,22.588,0.036,34.436
		C335.014,234.342,334.612,234.232,334.218,234.154 M354.856,250.709c6.4-3.333,10.85,2.516,6.903,8.21
		c-2.546,2.527-9.266,11.061-13.276,10.566C335.453,267.407,349.435,253.673,354.856,250.709 M350.021,251.633
		c-2.188,1.848-3.937,3.404-5.759,5.639c-2.088-1.475-5.658-3.626-5.658-3.892l-0.102-9.685
		C341.991,246.199,346.688,249.234,350.021,251.633 M407.549,180.624c0.613-0.802,2.417-1.456,3.003-0.848
		c4.761,2.097-29.272,37.934-23.596,22.543C393.733,196.129,402.275,188.516,407.549,180.624 M406.395,174.859
		c4.605,4.482-15.016,21.266-19.081,24.58c-0.879,0.6-2.737,1.826-3.708,0.133c-1.127-1.026,4.449-5.278,5.018-5.806
		c6.638-6.253,10.804-11.614,16.206-18.793C405.076,174.645,405.315,173.802,406.395,174.859 M402.998,169.06
		c4.294,3.223-5.695,13.198-6.291,13.798c-0.979,1.021-16.315,18.875-15.757,10.965c9.366-9.207,11.18-10.1,19.035-21.915
		C400.563,171.042,401.551,168.753,402.998,169.06 M398.054,165.159c9.439,1.272-14.165,23.691-17.745,26.03
		c-1.767,1.228-4.001-1.112-2.765-2.046C388.889,179.689,388.55,179.223,398.054,165.159 M395.06,158.905
		c5.731,5.842-9.138,20.281-15.932,26.731c-1.117,0.851-2.234,2.751-3.919,0.828c-0.723-1.149-1.099-1.584,0.641-3.044
		c1.887-1.584,4.908-5.402,6.822-7.646c4.175-4.89,8.771-12.883,9.988-15.414C393.668,158.269,394.556,158.745,395.06,158.905
		 M388.358,153.975c5.695,1.877,1.557,8.538,0.293,10.461c-0.357,1.039-12.745,18.061-15.135,18.005
		c-0.559,0.023-1.933-1.981-1.64-2.902c0.294-0.961,2.931-2.93,3.818-4.033C390.637,156.9,386.178,153.261,388.358,153.975
		 M379.073,157.665c0.906-2.381,1.968-9.688,3.873-9.267c2.948,0.646,2.938,2.275,2.948,4.578
		c0.018,6.899-6.758,16.156-11.345,21.118c-1.73,1.863-5.246,6.153-5.896,1.841C372.719,170.813,376.674,163.974,379.073,157.665
		 M362.401,177.927c0.951-0.915,3.909-2.124,4.678-0.769c0,0,15.685,25.865,18.578,30.104c2.967,5.888-4.377,10.484-9.138-0.755
		l-15.986-25.005C359.772,179.552,362.052,178.266,362.401,177.927 M360.395,185.078c0.458,0.773,15.95,24.771,15.584,24.657
		c-11.674,5.704-24.521,7.219-37.678,5.438c0-8.305-0.018-16.238-0.027-24.213C345.287,190.421,355.881,188.727,360.395,185.078
		 M338.283,275.208c0.018-5.731,0.027-11.977,0.036-18.486c2.097,1.272,4.597,2.866,4.304,2.783
		c-4.908,6.099,1.676,14.431,8.78,11.573l0.843,6.656c-2.106,0.715-11.738,1.521-14-0.293
		C338.274,276.709,338.283,275.959,338.283,275.208 M338.502,288.43c-0.246-0.056-1.373-0.514-1.373-0.514
		c0.696-3.552,0.843-4.916,1.154-8.075c1.007,0.274,1.465,0.806,5.558,0.952C344.143,285.39,340.096,283.092,338.502,288.43
		 M348.116,283.852c-1.749,2.151-1.647,4.11-0.55,6.271c-3.378-0.073-4.815-0.385-7.324-1.09c1.877-4.825,4.742-1.373,5.466-8.332
		c0.632-0.073,1.347-0.174,2.124-0.302C348.026,281.361,348.886,282.908,348.116,283.852 M349.993,289.849
		c-3.79-4.917,2.766-4.222,0.056-9.778c1.062-0.202,1.327-0.119,2.417-0.33c0.22,1.867,0.448,4.258,1.181,9.073
		C352.686,289.07,351.623,289.574,349.993,289.849 M319.98,353.986l-1.465,0.238c-0.229-0.467-0.604-0.943-1.044-1.41l13.816-9.504
		l-15.391,7.911c-0.192-0.229-0.395-0.439-0.577-0.65c-0.329-0.366-0.604-0.732-0.714-1.126c-0.083-0.303-0.092-0.632,0.063-1.008
		l16.82-8.432l-15.639,5.878c-0.165-0.321-0.678-0.696-1.228-1.126c-0.678-0.531-1.428-1.145-1.721-1.832
		c-0.156-0.366-0.192-0.75-0.027-1.153l17.378-4.633l-17.47,2.436c-0.687-0.458-1.172-0.77-1.475-1.035
		c-0.394-0.356-0.476-0.649-0.329-1.163c0.101-0.338,0.302-0.787,0.586-1.409l17.149-2.921l-17.57,0.852
		c-0.221-0.275-0.495-0.55-0.879-0.824l0.668-0.797c6.775-1.053,13.258-2.729,19.795-4.111c-0.201,0.98-0.036,2.161,0.357,3.434
		c0.55,1.758,1.548,3.69,2.655,5.513c1.364,2.225,2.894,4.284,3.992,5.64c0.22,0.266,0.421,0.513,0.595,0.724
		C332.212,346.973,326.051,350.425,319.98,353.986 M340.444,342.258c-0.247-0.284-0.549-0.623-0.869-1.008
		c-1.117-1.327-2.582-3.204-3.855-5.228c-1.062-1.685-1.986-3.47-2.48-5.1c-0.357-1.182-0.486-2.289-0.257-3.224
		c0.724-0.146,1.446-0.256,2.179-0.394c-0.137,1.081,0.221,2.399,0.852,3.791c0.732,1.639,1.85,3.378,3.013,4.972
		c1.446,1.969,2.976,3.717,3.946,4.733C342.128,341.287,341.286,341.772,340.444,342.258 M345.388,339.401
		c-0.073-0.073-0.155-0.156-0.237-0.238c-0.019-0.027-0.047-0.046-0.074-0.073c-1.025-1.044-2.518-2.655-3.9-4.441
		c-1.062-1.373-2.06-2.856-2.729-4.238c-0.632-1.318-0.961-2.555-0.76-3.544c0.961-0.146,1.932-0.274,2.894-0.394
		c-0.174,1.19,0.201,2.49,0.879,3.791c0.86,1.62,2.197,3.223,3.553,4.568c1.199,1.199,2.417,2.188,3.323,2.793
		C347.348,338.22,346.377,338.824,345.388,339.401 M350.717,336.188c-0.934-0.55-2.152-1.42-3.342-2.473
		c-1.273-1.135-2.509-2.472-3.333-3.854c-0.741-1.227-1.136-2.49-0.935-3.653c1.072-0.101,2.152-0.201,3.242-0.247
		c-0.01,0.504,0.027,0.962,0.082,1.401c0.138,1.208,0.467,2.188,0.961,3.003c0.751,1.245,1.859,2.124,3.214,2.875
		c1.173,0.54,2.299,0.897,2.784,1.337C352.512,335.125,351.615,335.646,350.717,336.188 M355.743,333.102
		c-0.439-0.238-1.208-0.439-2.06-0.705c-1.172-0.32-2.49-0.76-3.224-1.676c-0.366-0.375-0.641-0.833-0.751-1.392
		c0.807,0.349,1.475,0.439,2.079,0.477l0.356-0.027c0.412-0.064,1.008-0.101,1.868,0.237c0.824,0.248,1.739,0.834,2.985,2.289
		C356.586,332.58,356.156,332.836,355.743,333.102 M358.92,331.06c-0.439-0.695-0.934-1.199-1.465-1.574
		c-0.951-0.669-2.032-0.935-3.131-1.145c-0.824-0.037-1.611-0.01-2.838-0.586c-0.129-0.056-0.257-0.119-0.376-0.184
		c-0.852-0.348-1.639-0.888-2.28-1.813c0.531-0.238,1.108-0.531,1.722-0.86c1.768,0.018,2.976,0.338,3.946,0.832
		c1.126,0.577,1.932,1.401,2.866,2.308c0.751,0.724,1.584,1.483,2.756,2.216C359.717,330.52,359.323,330.795,358.92,331.06
		 M361.951,329.027c-1.218-0.458-2.133-1.117-2.967-1.813c-0.952-0.807-1.785-1.667-2.811-2.372c-0.889-0.604-1.914-1.089-3.287-1.3
		c0.925-0.485,1.703-0.797,2.362-0.971c1.291-0.339,2.161-0.156,2.829,0.312c0.312,0.128,0.586,0.293,0.806,0.513
		c0.357,0.357,0.567,0.824,0.806,1.354c0.055,0.128,0.119,0.266,0.184,0.403c0.586,0.934,1.227,1.896,2.279,2.463
		c0.366,0.192,0.778,0.339,1.255,0.431C362.922,328.377,362.437,328.697,361.951,329.027 M365.833,326.336
		c-5.64-0.275-3.012-4.643-8.332-5.852c1.035-0.732,2.079-1.474,3.113-2.243c5.741-0.312,3.37,4.569,9.55,4.99
		C368.562,324.385,367.07,325.456,365.833,326.336 M372.61,321.474c-6.969,0.237-4.578-4.175-9.56-5.045
		c0.477-0.366,0.962-0.724,1.429-1.09c1.41,0.476,4.156,1.236,5.273,1.364c1.611,0.596,2.536,3.067,4.771,3.406
		C373.891,320.558,373.25,321.016,372.61,321.474 M376.904,318.278c-5.21-0.642-5.018-4.496-10.649-4.313
		c2.052-2.829,8.626-2.299,8.955-0.925c0.504,1.145,2.711,3.122,4.212,3.095C378.578,316.896,377.663,317.664,376.904,318.278
		 M365.824,311.604c1.227-1.31,1.648-2.72,1.914-4.807l3.424,0.622C371.034,307.557,367.235,310.56,365.824,311.604
		 M381.618,313.893c-4.395,1.565-2.573-4.029-10.483-3.682c1.035-0.787,1.739-1.537,2.417-2.114c5.905-0.916,5.247,1.959,10.2,2.911
		C383.112,312.052,382.379,313.004,381.618,313.893 M385.281,308.078c-3.36,1.245-4.368-3.095-10.072-1.804
		c0.559-0.732,1.108-1.648,1.538-2.747c3.946-1.565,6.08,2.646,9.815,0.669C386.252,305.523,385.822,306.833,385.281,308.078
		 M366.52,288.2c-0.365-2.436-1.007-7.709-1.172-8.644c1.648,0.32,2.803,0.797,4.249,1.218c0.769,0.642,0.604,2.655,0.101,3.104
		C368.022,285.829,366.099,285.325,366.52,288.2 M366.666,288.924c-0.009-0.01-0.018-0.01-0.027-0.01
		c-0.027-0.155-0.055-0.356-0.091-0.567C366.575,288.53,366.612,288.713,366.666,288.924 M372.123,281.607
		c2.289,0.834,4.268,1.813,5.979,2.894c0.055,4.78-6.995-0.256-6.849,6.135c-0.971-0.458-1.914-0.824-2.72-1.099
		c-0.073-0.961,0.101-2.216,0.32-2.601C370.073,285.829,373.342,284.775,372.123,281.607 M373.955,294.984
		c-1.657-0.229-4.139-0.53-6.363-0.714c-0.146-0.87-0.33-1.896-0.522-2.993C371.236,292.65,373.121,293.987,373.955,294.984
		 M373.323,291.744c-0.724-5.806,6.089,0.201,6.363-6.162c1.017,0.769,1.923,1.565,2.71,2.408c-1.254,5.41-5.447,1.767-7.947,4.688
		C374,292.247,373.598,291.945,373.323,291.744 M382.891,291.615c0.192-0.155,1.081-0.988,1.365-1.291
		c1.089,1.63,1.849,3.36,2.298,5.119c-2.812,2.673-6.821-1.493-9.495,1.492c-0.266-0.943-0.797-2.006-1.328-2.747
		C377.626,292.027,380.327,293.722,382.891,291.615 M386.993,301.495c-3.544,2.637-6.198-2.097-9.77,0.375
		c0.165-0.732,0.21-1.126,0.229-2.151c2.061-3.982,6.227,0.402,9.495-2.234C387.113,298.821,387.121,300.167,386.993,301.495
		 M365.375,277.579c-0.137-0.027-0.484-5.255-0.787-7.104l23.971,0.723c1.693,8.891,3.781,20.455,4.422,25.445l-4.11-0.596
		C386.893,287.999,382.397,281.379,365.375,277.579 M415.459,304.013c-0.998,4.038-10.813,13.854-15.162,13.89
		c-4.185,0-6.995-6.437-3.653-9.192c-2.5-0.613-6.098-1.017-8.351-1.538c0.852-2.646,1.08-6.08,0.87-8.955l6.135,0.897
		c0.265-2.921-4.954-29.903-4.954-29.903l-28.137-0.934c0,0,2.619,22.193,3.563,27.998c2.408,0.047,7.178,0.688,8.918,0.935
		c1.043,2.71-0.293,6.61-1.85,8.57l-7.133-1.09c0.412,18.926-26.562-11.134-8.78-8.359c-0.843-6.245-3.425-25.856-3.425-25.856
		l11.088-10.813l25.875,0.823c-0.769-18.296,27.35,9.642,9.064,8.708c0.623,8.688,3.297,20.702,5.137,30.673
		C408.675,296.084,416.44,297.686,415.459,304.013"/>
	<path fill="#999999" d="M248.888,339.492c-4.308-1.07-8.502-2.646-12.466-4.669c-2.17-0.192-5.476-0.614-7.65-0.925
		c0.014-0.01,0.027-0.01,0.041-0.019c-0.714-0.11-2.298-0.356-2.582-0.412l0,0c-0.521-0.091-2.307-0.412-2.829-0.521
		c0.659,0.549,1.364,1.053,2.088,1.528c0,0,0.856,0.596,1.296,0.807c2.417,1.428,5.059,2.591,7.649,3.717
		c0.238,0.101,0.477,0.201,0.705,0.312c4.276,1.858,9.938,4.001,15.813,4.083c5.283,0.074,9.175-0.467,12.636-1.758
		c0.385-0.137,0.769-0.293,1.145-0.448c-0.568,0.019-1.127,0.036-1.686,0.036C258.259,341.223,253.516,340.637,248.888,339.492"/>
	<path fill="#999999" d="M262.361,335.885c-3.964,0-7.646-0.678-10.264-1.162l-0.279-0.056c-2.147,0.357-4.651,0.531-7.494,0.531
		c-1.739,0-3.607-0.063-5.595-0.201c3.333,1.548,6.813,2.783,10.365,3.671c5.823,1.447,11.829,1.969,17.854,1.566
		c2.931-1.346,5.668-2.957,8.177-4.816c1.236-0.916,2.427-1.858,3.434-2.967c-4.212,1.74-8.634,2.848-13.166,3.297
		C264.365,335.84,263.359,335.885,262.361,335.885"/>
	<path fill="#999999" d="M277.606,323.735c-0.174,0.137-0.824,0.622-1.758,1.263c-1.117,0.761-2.371,1.621-3.708,2.289
		c-0.064,0.037-0.128,0.064-0.202,0.102c1.365-0.449,2.701-0.953,4.011-1.521c0.915-0.402,1.822-0.842,2.71-1.31
		c1.025-0.54,2.033-1.117,3.013-1.73c-0.009-0.164-0.009-0.329-0.027-0.476l0,0c-0.056-0.623-0.174-1.136-0.357-1.557
		c-0.036-0.092-0.063-0.183-0.11-0.266c-0.055,0.046-0.1,0.101-0.155,0.146l-0.431,0.394c-0.201,0.201-0.402,0.376-0.613,0.577
		C279.236,322.361,278.476,323.094,277.606,323.735"/>
	<path fill="#999999" d="M240.716,321.702c-0.274-0.101-0.545-0.201-0.802-0.302c-0.009,0.155-0.022,0.375-0.05,0.641
		c-0.119,1.126-0.385,2.518-0.787,3.488c-0.078,0.192-0.17,0.385-0.266,0.577c-0.211,0.54-0.472,1.053-0.774,1.548
		c0.408,0.119,0.811,0.237,1.214,0.356c0.356,0.11,0.714,0.211,1.071,0.32c-0.105-1.932,0.43-4.229,1.354-6.327
		C241.365,321.913,241.045,321.813,240.716,321.702"/>
	<path fill="#999999" d="M227.082,316.08c-0.009-0.045-1.964,0.211-2.865,0.439c-1.694,0.431-3.273,1.383-3.699,1.64
		c0.229,0.431,0.521,0.897,0.888,1.382c0.765,1.008,1.589,1.73,2.267,2.226c0.068-0.366,0.197-0.906,0.462-1.521
		c0.211-0.494,0.788-1.538,1.557-2.555c0.11-0.137,0.22-0.283,0.339-0.43c0.16-0.229,0.293-0.402,0.366-0.485
		c0.22-0.257,0.448-0.476,0.669-0.678l0,0c0.004,0,0.009-0.009,0.009-0.009C227.078,316.09,227.082,316.09,227.082,316.08"/>
	<path fill="#999999" d="M277.459,318.507c-0.641,0.027-1.117,0.083-1.611,0.192c-0.238,0.055-0.431,0.119-0.568,0.155
		c0,0.01,0,0.019,0.01,0.019c0.421,0.431,0.842,1.52,0.889,1.621c0.018,0.045,0.411,0.942,0.53,1.978
		c0.65-0.449,1.182-0.852,1.593-1.172c0.522-0.421,0.824-0.678,1.703-1.456c0.376-0.32,0.468-0.439,0.66-0.596
		c-0.412-0.348-0.732-0.54-1.429-0.658C278.75,318.507,278.21,318.471,277.459,318.507"/>
	<path fill="#999999" d="M210.331,286.846c0-0.027,0.092-2.902,0.921-3.343c0.191-0.101,0.402-0.091,0.595,0.046
		c0.284,0.192,0.641,0.778,0.627,1.136c-0.005,0.174-0.022,0.384-0.032,0.622c-0.063,1.017-0.16,2.555-0.027,4.569
		c0.513,7.847,2.729,16.6,6.254,24.639c0.06,0.146,0.109,0.266,0.142,0.357c0.33,0.577,0.747,1.438,0.966,1.886
		c0.211-0.155,0.5-0.356,0.691-0.467c0.266-0.146,0.948-0.448,1.323-0.613c-2.596-5.832-3.928-15.886-4.276-20.455
		c-0.631-8.313-0.237-8.698-0.05-8.891c0.344-0.338,0.637-0.329,0.819-0.247c0.715,0.274,0.916,1.969,0.998,4.432
		c0.174,5.082,0.449,8.543,0.925,11.573c0.6,3.818,3.067,11.464,3.558,12.947c2.17-0.577,3.136-0.541,3.722-0.514
		c0.046,0,0.082,0,0.119,0l-0.069-0.32c-1.094-4.972-3.136-14.229-2.591-19.09c0.027-0.257,0.051-0.513,0.069-0.77
		c0.077-0.988,0.132-1.703,0.558-1.858c0.179-0.073,0.39-0.027,0.572,0.119c0.376,0.284,0.724,1.071,0.567,2.398
		c-0.435,3.636,1.617,14.21,2.894,19.183c0.114-0.046,0.225-0.102,0.422-0.22c0.334-0.22,1.46-1.008,1.995-2.262
		c0.18-0.421,0.18-0.613,0.184-1.272c0.005-0.202,0.005-0.449,0.01-0.751c-0.061-0.705-0.051-1.419,0.014-2.216
		c0.009-1.511,1.14-3.223,1.712-3.772c0.201-0.183,0.467-0.385,0.687-0.522c-0.76-2.902-1.529-6.262-1.63-9.531
		c-0.843,0.824-2.102,1.996-2.472,2.088c-0.65,0.146-1.236-0.256-1.625-0.586c-1.347-1.126-2.413-2.563-3.1-4.175
		c-0.403,0.293-0.911,0.448-1.447,0.458c-0.695-0.019-1.346-0.257-1.785-0.715c-0.426-0.439-0.65-1.007-0.824-1.511
		c-0.302-0.843-0.494-1.712-0.682-2.555c-0.151-0.668-0.307-1.364-0.509-2.032c-0.146,0.073-0.329,0.174-0.485,0.256
		c-1.135,0.604-1.557,0.797-1.831,0.688c-0.375-0.146-0.632-0.761-0.884-1.438l-0.068-0.174c-0.238-0.587-0.467-1.64-0.687-2.665
		c-0.101-0.485-0.201-0.952-0.293-1.3c-2.614,2.509-4.578,3.277-5.782,3.47c-0.032,0.009-2.807,0.412-3.172-0.119
		c-0.083-0.109-0.083-0.256-0.01-0.375c0.375-0.642,0.609-1.108,0.751-1.438c-0.893,0.705-2.399,1.456-4.912,0.668
		c-0.371-0.119-0.637-0.237-0.806-0.375c-0.344,0.312-0.967,0.814-1.479,0.971c-1.406,0.439-2.289,0.394-2.701-0.11
		c-0.248-0.312-0.257-0.723-0.184-1.107l-1.227,0.971c0.572,4.596,1.428,9.174,2.536,13.605c1.227,4.89,2.436,8.332,3.049,9.943
		c0.719,1.904,1.703,4.514,3.466,7.737c1.076,1.978,2.293,3.9,3.611,5.731c0.468-0.916,1.42-2.811,1.667-3.314
		c-0.687-1.42-6.821-14.412-7.261-28.045c-0.092-1.456-0.211-4.926,0.687-5.311c0.06-0.027,0.128-0.046,0.211-0.046
		c0.165,0,0.361,0.073,0.586,0.302l0.055,0.083c0.211,0.476,0.22,0.769,0.225,1.474c0.014,1.209,0.032,3.736,1.107,10.914
		c0.792,5.283,2.609,11.336,5.723,19.035c0.206,0.541,0.893,2.28,1.653,3.452c0.183,0.284,1.08,1.64,1.922,2.39
		c0.604-0.971,1.228-1.877,2.023-2.563C216.297,314.67,210.629,302.924,210.331,286.846"/>
	<path fill="#999999" d="M302.034,281.607c0.019,0.238-0.028,0.477-0.175,0.678c-0.375,0.514-1.254,0.623-2.71,0.312
		c-0.503-0.101-1.337-0.613-1.849-0.952c-0.047,0.138-0.146,0.303-0.321,0.477c-0.494,0.476-1.978,0.687-3.516,0.174
		c-0.55-0.174-1.071-0.439-1.548-0.77c0.174,0.357,0.431,0.824,0.788,1.429c0.073,0.119,0.073,0.266-0.01,0.375
		c-0.366,0.531-3.14,0.128-3.168,0.119c-2.628-0.421-4.815-2.463-5.868-3.452c-0.064-0.063-0.129-0.128-0.193-0.183
		c-0.091,1.126-0.384,3.003-0.695,4.093c0,0.019-0.402,1.438-0.961,1.648c-0.266,0.101-0.696-0.083-1.832-0.688
		c-0.155-0.082-0.338-0.183-0.484-0.256c-0.202,0.668-0.357,1.364-0.504,2.032c-0.192,0.843-0.385,1.722-0.688,2.555
		c-0.174,0.504-0.402,1.071-0.823,1.511c-0.439,0.458-1.071,0.715-1.759,0.715h-0.027c-0.53,0-1.043-0.165-1.446-0.458
		c-0.687,1.611-1.749,3.049-3.095,4.175c-0.394,0.33-0.979,0.742-1.63,0.586c-0.366-0.092-1.62-1.254-2.463-2.078
		c-0.009,1.189-0.046,2.16-0.22,3.086c-0.54,3.066-1.107,4.907-1.557,6.171c0.257,0.165,0.412,0.302,0.422,0.302
		c0.256,0.22,0.439,0.449,0.53,0.559c0.184,0.238,0.751,1.063,0.998,1.685c0.394,0.952,0.596,1.96,0.669,3.26
		c0.036,0.724,0.036,1.227,0.036,1.584c0,0.659,0.009,0.852,0.184,1.264c0.293,0.687,0.724,1.153,1.163,1.538l0.393-1.364
		c1.566-5.448,3.938-13.688,3.663-16.729c-0.128-1.364,0.22-2.142,0.586-2.417c0.174-0.128,0.375-0.164,0.55-0.101
		c0.348,0.128,0.586,0.632,0.631,2.655c0.064,3.379-2.353,12.04-3.79,17.213c-0.184,0.65-0.357,1.264-0.504,1.795
		c0.155,0.073,0.357,0.174,0.613,0.32c0.55,0.303,1.575,0.879,2.536,1.979c0.211,0.237,0.439,0.576,0.65,0.879v0.009l0.211-0.027
		c1.703-3.251,4.568-12.983,5.018-15.227c0.595-2.931,0.75-6.482,0.925-11.564c0.082-2.463,0.283-4.157,0.998-4.432
		c0.183-0.082,0.476-0.091,0.814,0.247c0.192,0.192,0.586,0.577-0.046,8.891l-0.064,0.889c-0.283,4.02-0.595,8.579-5.621,21.031
		c0.293-0.019,0.54-0.019,0.787-0.019c1.236,0,2.197,0.101,2.912,0.303c3.158-8.955,6.646-20.812,7.086-27.551
		c0.129-2.015,0.037-3.553-0.027-4.569c-0.009-0.238-0.027-0.448-0.027-0.622c-0.018-0.357,0.339-0.943,0.623-1.136
		c0.192-0.128,0.402-0.146,0.595-0.046c0.824,0.431,0.925,3.315,0.925,3.343c-0.201,10.676-3.818,20.939-6.464,28.438
		c-0.394,1.107-0.76,2.151-1.09,3.122c0.138,0.155,0.229,0.274,0.229,0.274c0.072,0.092,0.146,0.211,0.21,0.339
		c0.907-0.448,2.298-1.31,3.104-1.986c1.089-0.916,1.647-1.923,2.014-2.701c3.864-8.186,5.586-18.624,5.604-18.725
		c0.577-3.607,1.063-9.11,1.09-10.127c0.01-0.32,0.01-0.576,0.019-0.787c0-0.705,0.009-0.998,0.22-1.474l0.055-0.083
		c0.339-0.348,0.623-0.338,0.797-0.256c0.896,0.385,0.778,3.854,0.687,5.328c-0.439,13.634-6.583,26.645-7.261,28.036
		c0.109,0.211,0.357,0.504,0.586,0.778c0.155,0.184,0.312,0.375,0.458,0.559c0.274,0.357,0.567,0.742,0.751,0.971
		c0.971-0.889,3.076-4.02,3.488-4.733c1.611-2.812,2.509-5.201,3.232-7.114l0.229-0.623c0.622-1.63,1.831-5.082,3.049-9.943
		c0.641-2.545,1.813-7.709,2.601-13.973c-0.293-0.072-0.586-0.174-0.852-0.311C302.318,281.782,302.171,281.699,302.034,281.607"/>
	<path fill="#999999" d="M220.99,326.619c0.837,0.339,2.861,0.889,3.735,1.117c1.831,0.458,3.694,0.824,5.563,1.117
		c0.133,0.018,0.266,0.045,0.402,0.063c0.353,0.064,0.71,0.11,1.063,0.156c0.357,0.055,0.714,0.109,1.071,0.155
		c0.641,0.082,1.291,0.156,1.941,0.229c2.197,0.248,4.413,0.431,6.629,0.541c-1.347-0.32-2.729-0.678-4.258-1.09
		c-0.019,0.027-0.155-0.01-0.366-0.092c-0.33-0.092-0.687-0.183-1.049-0.283c-0.05-0.019-0.096-0.027-0.142-0.046
		c-0.192-0.056-0.385-0.101-0.586-0.165c-0.046-0.01-0.082-0.019-0.128-0.037c-0.348-0.101-0.705-0.201-1.08-0.32
		c-0.156-0.045-0.312-0.092-0.468-0.146c-0.142-0.036-0.293-0.082-0.431-0.128c-0.183-0.064-0.361-0.119-0.549-0.183
		c-0.137-0.047-0.283-0.092-0.43-0.138c-0.202-0.073-0.408-0.138-0.614-0.211c-0.138-0.046-0.274-0.091-0.417-0.146
		c-0.237-0.082-0.48-0.165-0.719-0.256c-0.128-0.046-0.246-0.083-0.365-0.128c-0.371-0.138-0.751-0.284-1.136-0.431
		c-0.06-0.028-0.124-0.056-0.183-0.073c-0.037-0.019-0.069-0.027-0.102-0.046c-0.004,0-0.009,0.009-0.009,0.009l-0.155-0.064
		c0,0,0.004,0,0.009-0.009c-0.046-0.009-0.092-0.027-0.133-0.046c-0.124-0.055-0.243-0.101-0.361-0.146
		c-0.998-0.412-2.056-0.896-3.127-1.52c-0.509-0.247-0.893-0.504-1.231-0.77c-0.398-0.266-0.797-0.549-1.186-0.86
		c-0.238-0.183-0.458-0.375-0.669-0.559c-0.247-0.22-0.472-0.439-0.687-0.659c-0.641-0.659-1.14-1.328-1.524-2.061
		c-0.192,0.531-0.385,1.072-0.563,1.621c-0.361,1.107-0.654,2.234-0.709,3.406c-0.01,0.164-0.088,0.457,0.009,0.595
		C218.324,325.41,220.385,326.381,220.99,326.619"/>
	<path fill="#999999" d="M257.911,331.92c0.192-0.091,0.384-0.201,0.576-0.311c-1.657,0.155-5.118,0.293-10.145-0.33
		c-0.7-0.092-1.359-0.183-2.005-0.283c-0.055,0-0.115-0.01-0.174-0.01c-3.443-0.018-7.105-0.229-10.648-0.595
		c-0.797-0.056-1.072-0.11-1.786-0.192c-0.375-0.046-0.746-0.092-1.117-0.138c-1.73-0.237-3.451-0.503-5.164-0.842
		c-0.869-0.175-1.753-0.357-2.637-0.567c0.005,0.009,0.005,0.018,0.005,0.018c-1.277-0.329-3.69-1.034-4.867-1.574
		c-0.348-0.156-1.126-0.522-1.904-1.025c0.064,0.365,0.165,0.732,0.316,1.07c0.018,0.037,0.041,0.092,0.073,0.165
		c0.284,0.623,0.649,1.19,0.829,1.465c0.338,0.522,0.549,0.843,0.906,1.264c0.072,0.083,0.38,0.439,0.847,0.87
		c0.435,0.402,0.833,0.705,1.163,0.934c0.736,0.156,2.439,0.494,3.328,0.659l-0.01-0.009c0.935,0.174,3.471,0.567,4.633,0.751
		c0.005-0.01,0.01-0.01,0.019-0.01c1.772,0.229,4.67,0.604,6.437,0.761c6.181,0.53,11.281,0.476,15.172-0.165
		c1.676-0.274,2.967-0.642,4.02-1.007C256.639,332.516,257.334,332.204,257.911,331.92"/>
	<path fill="#999999" d="M276.296,326.638c-2.783,1.218-5.694,2.151-8.68,2.783c-0.019,0.009-0.027,0.009-0.046,0.019
		c-0.458,0.192-0.934,0.375-1.4,0.549l0.018,0.019l-0.191,0.046c-0.586,0.211-1.19,0.402-1.786,0.577
		c-0.329,0.091-0.649,0.183-0.979,0.256c-0.988,0.238-1.868,0.385-2.637,0.495c-0.751,0.467-1.511,0.906-2.299,1.3
		c-0.155,0.073-0.311,0.146-0.484,0.229c-0.926,0.431-2.115,0.897-3.745,1.31c3.095,0.54,7.132,1.09,11.234,0.687
		c4.963-0.485,9.778-1.785,14.32-3.846c0.503-0.76,0.934-1.593,1.235-2.545c0.385-1.228,0.751-3.03,0.815-4.688
		c-0.998,0.604-2.015,1.172-3.058,1.703C277.853,325.924,277.074,326.299,276.296,326.638"/>
	<path fill="#999999" d="M259.705,330.034c0.953-0.119,1.969-0.266,3.187-0.559c0.247-0.055,0.504-0.128,0.751-0.192
		c-0.668-0.649-1.291-1.565-2.354-3.406c-0.549-0.961-0.814-2.133-0.915-3.305c-0.202,0.073-0.485,0.201-0.925,0.266
		c-0.092,0.009-0.229,0.027-0.366,0.055c0.402,0.961,0.695,2.015,0.823,3.214c0.129,1.208-0.018,2.362-0.146,3.47
		C259.742,329.732,259.724,329.879,259.705,330.034"/>
	<path fill="#999999" d="M216.347,277.47c0.216-0.274,0.229-0.339,0.325-0.833c0.055-0.303,0.138-0.751,0.312-1.466
		c1.208-4.843,3.662-7.69,4.733-8.753c-2.444-0.549-3.291-2.426-3.269-4.258c-0.169,0.146-0.339,0.303-0.448,0.395
		c-2.139,1.913-4.065,7.627-4.862,10.693l-0.005,0.01c-0.435,1.959-1.268,3.635-2.325,5.759c-0.412,0.833-0.874,1.768-1.369,2.812
		C210.478,281.709,213.788,280.674,216.347,277.47"/>
	<path fill="#999999" d="M222.862,285.453l0.124,0.431c0.6,2.069,0.6,2.069,0.608,2.124c0.151,0.87,0.55,1.273,0.879,1.364
		c0.124-0.027,0.801-0.613,1.429-1.84v-0.01c0.591-1.062,4.88-9.522,5.869-11.812c-0.518-0.164-1.017-0.375-1.648-0.687
		c-0.751-0.375-1.31-0.769-1.899-1.181c-0.11-0.073-0.225-0.156-0.339-0.229c-0.577,1.162-1.187,2.334-1.827,3.47
		c-1.135,2.023-2.371,4.011-3.689,5.905c-0.032,0.046-0.073,0.102-0.129,0.165l0.601,2.216l-0.252,0.156L222.862,285.453z"/>
	<path fill="#999999" d="M229.93,293.676c0.422-0.082,1.969-1.475,2.646-2.371c0.361-2.345,1.392-6.996,2.495-9.761
		c0.572-1.429,1.305-2.866,1.877-3.9l-0.087-0.027c-0.559-0.165-1.199-0.349-1.754-0.567c-0.334-0.138-0.595-0.221-0.828-0.303
		c-0.271-0.082-0.513-0.165-0.806-0.303c-0.568,1.2-2.417,5.293-2.962,6.611c-0.211,0.513-0.93,1.986-1.63,3.406
		c-0.646,1.309-1.306,2.664-1.534,3.195l0.005,0.019C227.824,291.23,228.694,292.577,229.93,293.676"/>
	<path fill="#999999" d="M219.007,283.476c0.192-0.091,0.663-0.513,0.852-0.677c0.101-0.092,0.192-0.175,0.252-0.221
		c0.517-0.402,0.956-1.016,1.382-1.602c0.105-0.146,0.206-0.284,0.307-0.422c1.209-1.62,2.193-3.424,3.146-5.164l0.526-0.942
		c0.101-0.175,0.211-0.366,0.293-0.55c0.027-0.064,0.156-0.293,0.925-1.557c-0.911-1.016-2.729-3.937-3.25-5.338
		c-0.499,0.156-0.998,0.861-1.31,1.31l-0.128,0.174c-0.577,0.806-1.153,1.712-1.763,2.774c-0.902,1.584-1.378,3.333-1.689,4.679
		l-0.078,0.329c-0.315,1.365-0.508,2.18-0.293,3.607C218.508,281.983,218.828,283.183,219.007,283.476"/>
	<path fill="#999999" d="M205.74,280.711c0.897-0.22,2.587-0.98,3.873-3.635l0.078-0.165c0.371-0.751,0.87-1.786,1.625-3.873
		c0.394-1.071,0.705-2.023,0.998-2.894c0.609-1.831,1.136-3.424,2.097-5.348c0.238-0.476,0.545-1.053,0.998-1.739
		c0.664-0.998,1.447-1.923,2.335-2.747c-2.042-0.484-2.894-1.986-3.149-2.865c-0.151,0.155-0.293,0.329-0.385,0.439
		c-1.09,1.355-4.743,6.144-5.906,11.253c-0.15,0.76-0.457,2.114-0.723,3.305c-0.211,0.943-0.407,1.795-0.485,2.188
		c-0.357,1.841-0.778,3.461-2.582,6.135C204.733,280.812,205.163,280.848,205.74,280.711"/>
	<path fill="#999999" d="M208.098,263.909c1.671-3.8,5.154-8.13,5.91-9.046c-0.22-0.284-0.637-0.806-0.829-1.09
		c-0.256-0.375-0.361-0.86-0.444-1.245c-0.018-0.092-0.045-0.201-0.068-0.293c-0.906,0.778-4.345,5.612-6.23,9.394
		c-2.092,4.203-3.599,10.604-4.157,13.158c-0.165,0.787-0.649,2.848-0.81,3.305c-0.279,0.787-0.766,1.776-1.122,2.5
		c-0.083,0.174-0.174,0.357-0.247,0.521c2.848-0.687,4.56-2.848,5.091-6.445c0.119-0.788,1.007-4.963,1.199-5.842
		C206.705,267.15,207.296,265.731,208.098,263.909"/>
	<path fill="#999999" d="M283.219,276.865c0.091,0.504,0.109,0.595,0.348,0.888c2.811,3.534,6.445,4.432,7.215,4.432h0.027
		c-0.521-1.135-1.017-2.133-1.465-3.021c-1.053-2.114-1.877-3.79-2.316-5.731v-0.01c-0.22-0.851-2.243-8.377-4.908-10.767
		c-0.146-0.129-0.476-0.412-0.705-0.614c0.083,1.246-0.128,3.919-3.406,4.496c0.935,0.87,3.617,3.745,4.89,8.872
		C283.081,276.123,283.163,276.572,283.219,276.865"/>
	<path fill="#999999" d="M294.709,281.132c0.559,0.064,0.916-0.027,1.025-0.092c-1.877-2.729-2.307-4.367-2.664-6.226
		c-0.082-0.403-0.275-1.273-0.485-2.197c-0.266-1.19-0.577-2.546-0.724-3.314c-1.172-5.128-4.844-9.944-5.933-11.299
		c-0.128-0.156-0.357-0.422-0.577-0.632c-0.138,0.769-0.961,2.628-3.369,3.067c0.961,0.86,1.804,1.84,2.518,2.902
		c0.449,0.678,0.751,1.254,0.988,1.73c0.953,1.914,1.484,3.498,2.088,5.319c0.303,0.897,0.604,1.822,0.998,2.902
		c0.76,2.088,1.264,3.132,1.63,3.883l0.083,0.174C291.807,280.481,293.885,281.04,294.709,281.132"/>
	<path fill="#999999" d="M300.331,281.333c0.101,0,0.21-0.009,0.312-0.019c0.009,0,0.018,0,0.018,0
		c-0.036-0.256-0.448-1.189-1.804-3.323c-0.237-0.385-0.942-2.436-1.135-3.323c-0.559-2.564-2.069-8.982-4.176-13.194
		c-1.254-2.536-3.122-5.888-6.382-9.388c-0.119,0.771-0.256,1.294-0.43,1.551c-0.376,0.604-0.732,0.852-0.943,0.998
		c-0.055,0.036-0.109,0.082-0.146,0.109c0.494,0.595,4.239,5.154,5.988,9.129c0.797,1.813,1.383,3.223,1.693,4.898
		c0.064,0.274,0.184,0.896,0.32,1.629c0.293,1.548,0.688,3.682,0.879,4.166C296.193,278.953,298.243,281.333,300.331,281.333"/>
	<path fill="#999999" d="M278.704,281.672c0.604,0.778,1.328,1.475,2.124,2.061c0.083,0.055,0.146,0.101,0.211,0.101h0.009
		c0.056,0,0.092-0.056,0.146-0.192l0.01-0.027c0.237-0.531,0.348-1.126,0.458-1.703l0.045-0.211
		c0.102-0.484,0.192-1.007,0.275-1.593c0.229-1.456,0.018-2.335-0.293-3.663l-0.073-0.329c-0.321-1.354-0.797-3.122-1.713-4.716
		c-0.604-1.07-1.181-1.978-1.758-2.783l-0.128-0.183c-0.357-0.495-0.925-1.31-1.52-1.392c-0.467,1.438-2.098,4.376-3.333,5.493
		c0.942,1.557,0.961,1.611,0.97,1.64c0.074,0.174,0.193,0.365,0.303,0.558c0.046,0.083,0.092,0.165,0.138,0.247l0.375,0.688
		c0.622,1.135,1.264,2.307,1.969,3.424c0.348,0.55,0.641,0.989,0.925,1.392c0.109,0.138,0.211,0.284,0.311,0.431
		C278.329,281.168,278.512,281.425,278.704,281.672"/>
	<path fill="#999999" d="M275.656,289.418c0.019,0,0.036,0,0.046,0c0.714-0.201,0.852-0.513,1.126-1.272
		c0.247-0.669,0.458-1.355,0.642-2.042c0.018-0.064,0.036-0.137,0.045-0.211c0.129-0.503,0.229-1.016,0.32-1.52
		c0.027-0.092,0.046-0.165,0.064-0.256c0.055-0.202,0.165-0.623,0.082-0.724l-0.045-0.064c-0.064-0.082-0.119-0.155-0.165-0.22
		c-1.31-1.886-2.555-3.863-3.681-5.878c-0.659-1.19-1.301-2.408-1.896-3.626c-0.155,0.109-0.32,0.22-0.476,0.33
		c-0.587,0.412-1.136,0.796-1.878,1.162c-0.687,0.349-1.218,0.568-1.776,0.732c0.861,2.061,5.329,10.887,5.934,11.967
		C274.566,288.924,275.381,289.418,275.656,289.418"/>
	<path fill="#999999" d="M266.618,276.462c-0.76,0.357-2.601,0.935-3.754,1.291c0.577,1.054,1.354,2.555,1.95,4.048
		c1.301,3.25,2.015,6.29,2.124,9.036c0.724,0.979,2.784,3.004,3.132,2.939c2.298-2.381,2.618-3.461,2.746-3.873
		c0.01-0.019,0.01-0.036,0.019-0.055c-0.22-0.504-0.897-1.896-1.565-3.241c-0.695-1.42-1.419-2.894-1.621-3.397
		C269.073,281.828,267.094,277.46,266.618,276.462"/>
	<path fill="#999999" d="M300.706,266.775c-0.201-0.559-0.394-1.127-0.595-1.703c-0.037-0.092-0.082-0.22-0.146-0.366
		c-0.064-0.155-0.138-0.339-0.22-0.55c-2.994-7.91-7.655-13.521-8.296-14.152c-0.576,0.201-1.189,0.329-1.804,0.385
		c-0.595,0.045-1.19,0.027-1.776-0.061c0.238,0.316,0.568,0.756,0.953,1.273c1.913,2.538,5.117,6.777,6.024,8.828
		c1.163,2.609,2.426,5.76,4.047,12.983c0.787,3.461,2.811,6.419,4.651,6.775c0.045-0.201,0.045-0.942-0.33-3.552
		C302.52,271.848,301.604,269.266,300.706,266.775"/>
	<path fill="#999999" d="M249.954,261.538c-0.604-0.824-1.717-0.925-1.927-0.943c-1.822-0.174-3.173,1.383-3.617,1.896
		c-0.307,0.357-0.709,0.916-1.002,1.676c-0.354,0.934-0.362,1.721-0.362,2.133c-0.014,6.391,0.453,9.175,0.453,9.175
		c0.174,1.044,0.604,3.442,1.497,6.418c0,0,0.93,3.434,2.967,6.08c0.472,0.613,1.676,1.739,2.165,1.511
		c-1.053-2.344-1.611-4.268-1.726-4.542c-0.242-0.595-1.434-4.395-1.635-7.535c-0.315-4.834,0.431-10.419-0.073-14.394
		c0.042-0.045,0.119-0.109,0.211-0.101c0.567,0.009,0.724,1.868,0.778,3.149c0.128,2.875-0.014,5.082-0.119,6.336
		c-0.256,3.187-0.138,4.45,0.092,6.043c0.608,4.304,2.911,10.658,3.104,10.786c0.078,0.056,0.101-0.604,0.174-1.227
		c0,0-0.055-1.117-0.055-1.483c-0.019-3.471-0.43-8.707-0.43-8.707c-0.005-3.992-0.143-6.639-0.074-10.604
		C250.394,266.271,250.358,262.097,249.954,261.538"/>
	<path fill="#999999" d="M200.823,273.469c1.631-7.234,2.949-10.512,4.065-13.002c0.916-2.061,4.029-6.208,5.888-8.688
		c0.33-0.443,0.623-0.828,0.842-1.126l-3.149-0.416c-0.724,0.746-5.311,6.374-8.222,14.057c-0.078,0.21-0.156,0.394-0.22,0.55
		c-0.056,0.146-0.11,0.274-0.138,0.365c-0.201,0.577-0.402,1.145-0.604,1.703c-0.888,2.49-1.808,5.063-2.499,9.834
		c-0.312,2.188-0.366,3.04-0.348,3.36C198.186,279.64,200.073,276.792,200.823,273.469"/>
	<path fill="#999999" d="M258.433,326.473c-0.32-3.113-1.94-5.256-3.708-7.353c-0.339-0.412-0.613-0.769-0.843-1.116
		c-1.025-1.575-1.511-3.26-1.373-4.734c0.063-0.659,0.257-1.264,0.431-1.795c0.402-1.254,0.375-1.629,0.356-1.94l-0.009-0.119
		c-0.046-0.879-0.366-1.548-0.485-1.804c-0.174-0.357-0.366-0.678-0.586-0.943c-0.128-0.164-0.216-0.137-0.467-0.055
		c-0.097,0.037-0.202,0.073-0.321,0.092c-0.554,0.109-1.125,0.137-1.702,0.063c-0.101-0.009-0.257-0.027-0.421-0.055
		c-0.293-0.036-0.633-0.082-0.807-0.101c-0.009,0-0.018,0-0.018,0c-0.284,0-0.778,0.678-0.943,0.897
		c-0.046,0.063-0.078,0.109-0.101,0.137c-0.146,0.175-0.271,0.431-0.39,0.678c-0.05,0.11-0.105,0.22-0.16,0.32
		c-0.6,1.108-0.457,2.216-0.22,3.241c0.101,0.422,0.211,0.897,0.274,1.429c0.027,0.21,0.056,0.412,0.083,0.613
		c0.237,1.722,0.412,2.967-1.364,4.532c-2.518,2.234-3.599,5.045-3.974,10.365c1.557,0.356,3.25,0.659,5.04,0.896
		c0.811-1.016,1.323-3.727,0.783-6.098c-0.01-0.027-0.417-2.444,0.018-2.591c0.202-0.064,0.33,0.22,0.398,0.366
		c1.241,2.793,1.396,5.887,0.431,8.515l0.068,0.01c0.019,0,1.392,0.174,3.251,0.293c0.055,0.009,0.114,0.009,0.174,0.019
		c-0.934-2.711-0.668-5.86,0.723-8.672c0.074-0.146,0.211-0.43,0.412-0.348c0.431,0.156-0.072,2.564-0.082,2.582
		c-0.659,2.399-0.54,3.992,0.494,6.52c1.877,0.073,3.507,0.055,4.826-0.064l0.009-0.036c0.019-0.192,0.036-0.385,0.063-0.567
		C258.424,328.561,258.543,327.535,258.433,326.473 M248.27,310.33c-0.156,0.412-0.485,0.705-0.613,0.788
		c-0.023,0.009-0.046,0.019-0.073,0.019c-0.051,0-0.101-0.027-0.128-0.074c-0.037-0.063-0.019-0.155,0.055-0.191
		c0.018-0.019,0.064-0.046,0.114-0.092c0.114-0.119,0.279-0.303,0.371-0.55c0.032-0.082,0.055-0.155,0.082-0.237
		c-0.082,0.072-0.201,0.146-0.348,0.21c-0.133,0.056-0.293,0.092-0.495,0.11c-0.022,0-0.045,0-0.072,0
		c-0.083-0.01-0.16-0.055-0.216-0.119c-0.206-0.247-0.284-0.513-0.242-0.77c0.082-0.494,0.586-0.814,0.915-1.025
		c0.146-0.092,0.334-0.055,0.439,0.073c0.037,0.009,0.073,0.027,0.097,0.064C248.59,309.231,248.467,309.809,248.27,310.33
		 M251.685,310.367c0.092,0.247,0.257,0.431,0.376,0.54c0.045,0.046,0.086,0.083,0.109,0.092c0.073,0.046,0.092,0.138,0.055,0.201
		c-0.027,0.046-0.078,0.073-0.128,0.073c-0.027,0-0.05-0.009-0.073-0.018c-0.133-0.083-0.458-0.376-0.613-0.788
		c-0.197-0.521-0.32-1.099,0.114-1.804c0.022-0.037,0.06-0.055,0.097-0.064c0.104-0.128,0.293-0.164,0.439-0.072
		c0.329,0.219,0.833,0.539,0.915,1.025c0.046,0.266-0.036,0.521-0.238,0.769c-0.055,0.073-0.137,0.11-0.22,0.119
		c-0.027,0.009-0.045,0.009-0.073,0.009c-0.201-0.018-0.361-0.063-0.494-0.119c-0.146-0.055-0.261-0.128-0.348-0.201
		C251.63,310.202,251.653,310.285,251.685,310.367"/>
	<path fill="#999999" d="M242.794,257.638c0,0,0.559,0.439,1.071,0.448c0.064,0.01,0.129-0.009,0.129-0.009
		c0.045,0,0.091-0.019,0.137-0.037c-1.209-0.823-2.16-2.271-2.078-3.763c0.046-0.916,0.723-1.566,1.153-2.314
		c0.202-0.353,0.353-0.719,0.357-1.149c0-0.247-0.202-0.38-0.398-0.38c-0.183,0-0.362,0.11-0.362,0.348
		c-0.004,0.34-0.132,0.642-0.302,0.926c-0.183,0.288-0.407,0.564-0.595,0.84c-0.449,0.659-0.669,1.373-0.604,2.17
		c0.014,0.137,0.036,0.256,0.055,0.385c0.11,0.668,0.349,1.162,0.518,1.455C242.227,257.17,242.634,257.51,242.794,257.638"/>
	<path fill="#999999" d="M239.654,302.877c0.439,0.156,0.843,0.367,1.177,0.66c0.664-0.962,3.063-4.441,3.466-5.21
		C243.041,299.288,240.808,301.751,239.654,302.877"/>
	<path fill="#999999" d="M241.741,305.084c0.54-0.357,3.722-5.42,3.722-5.42c-0.984,0.649-3.383,2.994-4.381,4.12
		c0.146,0.165,0.274,0.339,0.375,0.53C241.595,304.571,241.682,304.828,241.741,305.084"/>
	<path fill="#999999" d="M250.861,305.057l0.083-0.01c0.467-0.036,0.764-0.118,0.901-0.164c-0.142-0.824-1.039-4.56-1.46-5.641
		c-0.344,1.063-0.93,4.716-1.021,5.705c0.216,0.045,0.76,0.1,1.241,0.1L250.861,305.057z"/>
	<path fill="#999999" d="M255.924,299.416c0,0,2.097,4.038,2.967,5.338c0.101-0.246,0.211-0.476,0.302-0.649
		c0.092-0.174,0.211-0.32,0.321-0.467c-0.156-0.274-0.367-0.642-0.604-1.054C257.893,301.367,256.583,299.93,255.924,299.416"/>
	<path fill="#999999" d="M259.99,303.18c0.312-0.256,0.678-0.439,1.071-0.559c-1.117-1.328-2.82-3.498-3.864-4.44
		c0.284,0.668,1.831,3.388,2.655,4.825C259.898,303.07,259.944,303.125,259.99,303.18"/>
	<path fill="#999999" d="M262.352,276.443l0.732-0.311c0,0,2.609-0.925,3.452-1.282c1.218-0.503,3.507-1.639,4.614-2.518
		c2.939-2.325,3.836-5.622,4.706-6.666c3.021-0.192,4.249-1.675,4.44-3.195c0.119-0.906-0.842-3.003-0.576-3.076
		c0,0,3.352-0.741,4.102-1.886c1.108-1.686,0.485-3.846,0.485-3.846c0.046,0,2.948-1.09,1.245-5.332
		c0.348,0.856,6.867,0.165,6.721-0.27c-0.43-1.209-2.151-2.71-3.892-3.777c-2.197-1.346-4.715-1.611-6.326-1.424
		c-1.776,0.207-3.534,0.39-5.21,1.054c-2.454,0.975-3.754,2.77-4.35,5.282c-0.678,2.798-0.678,5.702-0.998,8.568
		c-0.402,3.617-1.438,7.068-4.267,9.55c-2.279,2.005-5.292,3.599-8.313,4.13C260.1,272.689,262.352,276.443,262.352,276.443"/>
	<path fill="#999999" d="M214.492,248.332c-1.702,4.242,1.205,5.332,1.246,5.332c0,0-0.623,2.16,0.484,3.846
		c0.752,1.145,4.103,1.886,4.103,1.886c0.266,0.073-0.696,2.17-0.577,3.076c0.192,1.521,1.42,3.003,4.441,3.195
		c0.869,1.044,1.762,4.341,4.706,6.666c1.107,0.879,3.396,2.015,4.614,2.518c0.848,0.357,3.452,1.282,3.452,1.282l0.732,0.311
		c0,0,2.257-3.754,3.438-4.998c-3.118-0.55-8.374-3.059-10.663-6.867c-2.288-4.396-2.545-9.834-2.559-10.063
		c-0.225-3.82-0.829-6.889-0.948-7.199c-1.565-3.997-7.406-4.271-8.973-4.455c-1.606-0.188-4.129,0.078-6.326,1.424
		c-1.74,1.067-3.461,2.568-3.892,3.777C207.626,248.497,214.15,249.188,214.492,248.332"/>
	<path fill="#999999" d="M274.063,318.992c-0.01-0.019-0.522-0.934-1.136-1.603c-0.906-0.961-2.078-1.603-3.021-2.105
		c-0.257-0.146-0.494-0.274-0.705-0.394c-0.439-0.266-0.998-0.596-1.492-1.182c-0.971-1.145-1.071-2.563-1.153-3.699
		c-0.019-0.311-0.037-0.613-0.047-0.906c-0.027-0.723-0.055-1.4-0.229-2.17c-0.22-0.934-0.586-1.703-1.099-2.271
		c-0.641-0.724-1.492-1.09-2.527-1.09c-0.036,0-0.073,0.009-0.118,0.009l-0.064,0.01c-0.192,0.018-0.385,0.055-0.568,0.109
		c-0.329,0.11-0.658,0.275-0.979,0.504c-0.063,0.046-0.137,0.101-0.192,0.146c-0.055,0.046-0.101,0.092-0.146,0.128l-0.036,0.037
		c-0.128,0.119-0.238,0.229-0.32,0.339c-0.083,0.092-0.128,0.164-0.165,0.238c-0.128,0.183-0.211,0.348-0.266,0.494
		c-0.201,0.604-0.092,1.162,0.037,1.813l0.027,0.138c0.22,1.107,1.099,2.49,1.181,2.601c0.458,0.595,0.935,1.208,1.236,1.922
		c0.421,1.017,0.513,2.088,0.274,3.104c-0.266,1.145-0.457,2.38-0.632,3.47c-0.073,0.449-0.137,0.879-0.201,1.273
		c-0.192,1.135-0.082,2.472,0.302,3.882c0.083,0.284,0.312,1.025,0.696,1.749c0.659,1.236,1.456,2.316,2.362,3.204
		c0.806-0.274,1.685-0.622,2.664-1.053c1.108-0.485,2.152-0.989,3.123-1.474c-0.229-0.211-0.514-0.477-0.807-0.788l-0.073-0.073
		c-0.842-0.879-1.804-1.867-2.628-3.434c-1.272-2.436-0.924-3.771-0.888-3.918c0.009-0.019,0.211-0.688,0.211-0.688l0.192-0.641
		l0.128,0.971c0.019,0.119,0.055,0.394,0.119,0.741c0.348,1.429,1.3,3.021,1.712,3.517c1.318,1.593,2.408,2.691,3.516,3.543
		c0.522-0.293,1.071-0.641,1.686-1.044c-0.367-1.611-0.935-3.406-2.316-4.669c-0.119-0.11-0.559-0.514-0.559-0.514l-0.229-0.191
		l0.266-0.156c0.146-0.082,0.522-0.101,1.337,0.659c0.916,0.86,1.95,2.894,2.362,4.294l0.174-0.119
		c0.247-0.174,0.467-0.32,0.659-0.467c-0.146-0.723-0.32-1.41-0.504-1.978C274.887,320.21,274.072,319.001,274.063,318.992
		 M264.769,307.438c-0.036,0.119-0.165,0.183-0.293,0.155c-0.009,0-0.019,0-0.019-0.009c-0.128-0.046-0.201-0.184-0.155-0.312
		c0.019-0.036,0.036-0.11,0.046-0.192c0.055-0.274,0.092-0.751-0.055-1.135c-0.037-0.092-0.074-0.184-0.11-0.266
		c-0.019,0.191-0.101,0.43-0.312,0.695c0,0,0,0.01-0.009,0.019c-0.009,0.019-0.027,0.036-0.046,0.046
		c-0.064,0.055-0.146,0.082-0.238,0.082c-0.32-0.027-0.559-0.137-0.723-0.339c-0.312-0.394-0.211-0.961-0.146-1.346
		c0.009-0.046,0.027-0.092,0.045-0.128l-0.009-0.01c-0.055,0-0.11-0.009-0.174-0.009c-0.138-0.009-0.247-0.11-0.247-0.247
		c0-0.138,0.119-0.247,0.256-0.247c1.401,0.009,1.887,0.806,2.18,1.574C264.998,306.402,264.869,307.162,264.769,307.438"/>
	<path fill="#999999" d="M241.091,200.593l-8.945,13.99l14.165-8.835L250,221.89l3.689-16.142l14.165,8.835l-8.937-13.99
		l16.334-3.648l-16.334-3.645l8.937-13.99l-14.165,8.836L250,172.003l-3.689,16.143l-14.165-8.836l8.945,13.99l-16.343,3.645
		L241.091,200.593z M238.739,185.819l8.932,5.576L250,181.21l2.33,10.186l8.932-5.576l-5.64,8.826l10.31,2.299l-10.31,2.303
		l5.64,8.826l-8.932-5.571L250,212.684l-2.33-10.182l-8.932,5.571l5.64-8.826l-10.31-2.303l10.31-2.299L238.739,185.819z"/>
	<path fill="#999999" d="M225.91,89.319c-1.644,0-2.976,1.323-2.976,2.939c0,1.625,1.332,2.943,2.976,2.943
		c1.639,0,2.976-1.318,2.976-2.943C228.886,90.643,227.549,89.319,225.91,89.319"/>
	<path fill="#999999" d="M274.218,95.202c1.639,0,2.976-1.323,2.976-2.943c0-1.616-1.337-2.939-2.976-2.939
		s-2.976,1.323-2.976,2.939C271.242,93.879,272.579,95.202,274.218,95.202"/>
	<path fill="#999999" d="M250.366,95.202c1.639,0,2.976-1.323,2.976-2.943c0-1.616-1.337-2.939-2.976-2.939
		c-1.644,0-2.976,1.323-2.976,2.939C247.391,93.879,248.723,95.202,250.366,95.202"/>
	<path fill="#999999" d="M223.471,119.265c-1.64,0-2.977,1.322-2.977,2.938c0,1.625,1.337,2.944,2.977,2.944
		c1.643,0,2.976-1.319,2.976-2.944C226.447,120.587,225.114,119.265,223.471,119.265"/>
	<path fill="#999999" d="M276.48,119.265c-1.64,0-2.976,1.322-2.976,2.938c0,1.625,1.336,2.944,2.976,2.944
		c1.639,0,2.976-1.319,2.976-2.944C279.455,120.587,278.118,119.265,276.48,119.265"/>
	<path fill="#999999" d="M250.275,119.265c-1.639,0-2.971,1.322-2.971,2.938c0,1.625,1.332,2.944,2.971,2.944
		c1.644,0,2.985-1.319,2.985-2.944C253.26,120.587,251.918,119.265,250.275,119.265"/>
	<polygon fill="#999999" points="148.721,199.86 150.186,196.129 150.639,194.976 149.471,194.531 147.388,193.735 146.225,193.286 
		145.772,194.44 144.307,198.171 139.446,196.313 138.278,195.868 137.829,197.018 136.767,199.741 136.314,200.891 
		137.482,201.335 142.338,203.198 140.713,207.336 140.265,208.49 141.428,208.93 143.515,209.73 144.678,210.175 145.127,209.025 
		146.752,204.882 150.702,206.394 151.865,206.837 152.319,205.688 153.385,202.964 153.834,201.815 152.671,201.371 	"/>
	<polygon fill="#999999" points="350.901,205.299 351.211,206.494 352.42,206.188 356.522,205.139 357.538,209.012 357.85,210.207 
		359.058,209.899 361.228,209.346 362.437,209.034 362.336,208.669 362.372,208.664 362.025,207.455 361.11,203.967 
		366.155,202.676 367.363,202.364 367.051,201.175 366.31,198.345 365.998,197.155 364.789,197.462 359.744,198.753 
		358.618,194.454 358.298,193.259 357.099,193.565 354.929,194.119 353.72,194.431 354.031,195.621 355.157,199.925 
		351.065,200.973 349.847,201.279 350.167,202.475 	"/>
	<path fill="#999999" d="M239.883,305.258c-0.412-0.632-1.182-1.034-2.125-1.126c-0.118-0.019-0.247-0.019-0.352-0.019
		c-0.426,0-0.838,0.073-1.232,0.211l-0.082,0.027c-0.037,0.01-0.073,0.019-0.109,0.037c-0.531,0.219-1.264,0.521-2.006,1.574
		c-0.503,0.705-0.521,1.318-0.559,2.646l-0.018,0.54c-0.019,0.467-0.01,0.669,0,0.833c0.009,0.174,0.018,0.32-0.005,0.668
		c-0.083,1.136-0.183,2.546-1.149,3.69c-0.714,0.852-1.717,1.383-2.691,1.896c-0.724,0.385-1.475,0.778-2.088,1.3
		c-0.833,0.714-1.529,1.676-2.115,2.921c-0.398,0.843-0.687,1.694-0.883,2.609c0.224,0.146,0.448,0.275,0.673,0.394
		c0.137,0.083,0.274,0.156,0.411,0.238c0.326-1.392,1.475-3.735,2.464-4.66c0.814-0.76,1.19-0.732,1.341-0.659l0.262,0.146
		l-0.783,0.714c-1.346,1.228-2.028,3.342-2.367,4.89c-0.004,0.009-0.009,0.018-0.009,0.036c0.521,0.247,1.062,0.495,1.647,0.733
		c0.146,0.055,0.293,0.118,0.431,0.174l0.073,0.027c0.897-0.715,1.826-1.686,3.182-3.314c0.408-0.495,1.364-2.088,1.713-3.517
		c0.063-0.356,0.1-0.622,0.118-0.741l0.128-0.979l0.188,0.641c0,0,0.201,0.659,0.21,0.696c0.046,0.146,0.385,1.482-0.888,3.918
		c-0.824,1.566-1.78,2.555-2.628,3.434l-0.073,0.073c-0.133,0.138-0.257,0.266-0.375,0.385l0.431,0.155
		c0.334,0.129,0.658,0.238,0.97,0.349c0.321,0.109,0.614,0.201,0.889,0.284c0.567,0.183,1.075,0.32,1.657,0.484
		c0.613,0.174,1.3,0.366,2.197,0.641c0.751-1.053,1.264-2.041,1.565-3.03c0.366-1.199,0.467-2.536,0.33-4.102
		c-0.128-1.337-0.38-2.774-0.833-4.67c-0.238-1.017-0.138-2.097,0.283-3.104c0.298-0.724,0.77-1.337,1.236-1.933
		c0.087-0.109,0.174-0.229,0.266-0.348l0.06-0.073C240.698,308.426,240.597,306.366,239.883,305.258 M237.035,306.806
		c-0.105,0.237-0.307,0.421-0.609,0.521c-0.082,0.027-0.169,0.027-0.242-0.009c-0.027-0.01-0.046-0.027-0.064-0.037
		c-0.009-0.009-0.009-0.009-0.018-0.009c-0.266-0.211-0.412-0.412-0.486-0.595c-0.014,0.091-0.027,0.191-0.031,0.293
		c-0.032,0.384,0.119,0.833,0.256,1.107c0.032,0.073,0.068,0.128,0.102,0.174c0.077,0.11,0.05,0.257-0.061,0.339
		c-0.045,0.027-0.096,0.046-0.146,0.046c-0.077,0-0.15-0.037-0.201-0.101c-0.169-0.238-0.499-0.935-0.448-1.611
		c0.068-0.824,0.32-1.712,1.666-2.097c0.138-0.037,0.271,0.036,0.312,0.164c0.037,0.129-0.041,0.266-0.174,0.303
		c-0.055,0.018-0.11,0.046-0.165,0.064v0.009c0.032,0.027,0.064,0.063,0.083,0.109C236.971,305.826,237.223,306.348,237.035,306.806
		"/>
</g>
</svg>
