<?xml version="1.0" encoding="utf-8"?>
<!-- Generator: Adobe Illustrator 16.0.0, SVG Export Plug-In . SVG Version: 6.00 Build 0)  -->
<!DOCTYPE svg PUBLIC "-//W3C//DTD SVG 1.1//EN" "http://www.w3.org/Graphics/SVG/1.1/DTD/svg11.dtd">
<svg version="1.1" id="Camada_1" xmlns="http://www.w3.org/2000/svg" xmlns:xlink="http://www.w3.org/1999/xlink" x="0px" y="0px"
	 width="500px" height="500px" viewBox="0 0 500 500" enable-background="new 0 0 500 500" xml:space="preserve">
<g>
	<path fill="#999999" d="M305.55,447.4c3.493,0,6.126-2.725,6.126-6.336c0-3.545-2.355-6.02-5.728-6.02h-0.079
		c-2.61,0-6.286,1.967-6.286,6.336C299.583,445.824,302.797,447.4,305.55,447.4"/>
	<path fill="#999999" d="M151.925,440.623c-1.327,0.176-2.095,0.619-2.095,2.359v22.404c0,14.586-5.301,16.555-10.484,16.555
		c-4.571,0-10.646-1.658-10.646-15.998v-20.576c0-3.752-0.175-5.064-2.134-5.064c-1.821,0-8.226,0.395-9.867,0.639l-0.278,0.041
		l0.027,0.281c0.16,1.682,0.238,5.027,0.238,10.223v14.936c0,17.025,7.194,25.658,21.381,25.658c10.083,0,22.101-4.699,22.101-27.09
		v-11.365c0-6.891,0.088-9.99,0.239-13.012l0.017-0.311h-0.312C158.559,440.303,154.344,440.383,151.925,440.623"/>
	<path fill="#999999" d="M196.616,447.652c4.648,0,8.228,1.229,9.946,1.963l0.078,0.02c1.243,0.166,2.39-0.217,3.318-1.102
		c1.201-1.146,1.88-3.053,1.729-4.859l-0.009-0.1l-0.065-0.074c-1.229-1.375-7.068-4.07-14.998-4.07
		c-17.599,0-28.97,9.969-28.97,25.402c0,16.553,11.277,27.248,28.731,27.248c5.036,0,9.104-2.604,11.289-4.002l0.291-0.186
		l0.044-0.035c1.59-1.498,2.644-4.049,2.967-7.18l0.021-0.205l-0.607-0.301l-0.623,0.176c-2.053,0.584-5.875,1.672-10.906,1.672
		c-11.223,0-18.475-7.027-18.475-17.902C180.379,450.51,189.208,447.652,196.616,447.652"/>
	<path fill="#999999" d="M290.285,470.83l-3.835-27.648v-0.002c-0.315-2.125-0.831-2.877-1.97-2.877
		c-2.022,0-8.594,0.453-9.98,1.316l-0.14,0.088v1.139c-3.307,7.99-8.042,19.84-11.366,28.766l-10.183-27.215
		c-1.158-3.309-1.695-4.193-3.234-4.094c-4.097,0-7.122,0.66-9.331,1.141l-0.901,0.195l0.188,1.498
		c-2.248,13.537-4.374,27.203-5.927,37.186c-0.531,3.412-0.984,6.324-1.335,8.545l-0.033,0.203l0.181,0.102
		c1.341,0.75,5.798,2.193,8.372,2.193c1.126,0,1.572-1.732,1.812-3.051c1.101-8.977,2.833-25.246,3.701-34.689
		c1.388,4.436,3.285,10.426,5.126,16.238c2.65,8.363,5.152,16.264,6.091,19.375l0.063,0.211h0.221c1.575,0,3.448-0.211,5.729-0.643
		c2.084-0.414,2.902-1.111,3.498-2.98c3.966-11.898,8.261-24.883,10.507-32.318l1.536,16.516c0.748,8.418,1.222,13.037,1.601,16.746
		l0.076,0.74c0.166,1.82,1.353,3.855,2.692,3.855c1.596,0,6.505-1.387,8.602-1.98l0.92-0.258l-0.044-0.264
		C292.206,484.609,291.295,478.375,290.285,470.83"/>
	<path fill="#999999" d="M310.365,453.25c-1.953,0-7.731,0.482-9.822,1.043l-0.244,0.064l0.027,0.252
		c0.136,1.293,0.317,3.619,0.317,8.871v13.592c0,4.264-0.136,9.762-0.216,13.049l-0.03,1.244h0.304c4.186,0,7.102-0.107,8.659-0.32
		c2.195-0.254,2.978-2.129,2.978-3.801v-28.691C312.338,454.043,312.043,453.25,310.365,453.25"/>
	<path fill="#999999" d="M355.63,477.15v-9.377c0-9.813-4.273-15-12.356-15c-3.899,0-7.57,2.371-10.683,4.785
		c-0.824-3.178-2.657-4.785-5.451-4.785c-3.12,0-6.188,2.576-6.989,4.887l-0.017,0.898l0.14,0.086
		c1.082,0.674,1.379,1.475,1.379,3.725v12.953c0,4.195-0.074,10.689-0.24,15.736l-0.01,0.307h0.306c2.106,0,3.98-0.561,5.792-1.102
		c1.221-0.367,2.375-0.711,3.591-0.898c1.96-0.254,2.256-0.738,2.256-2.279v-23.611c1.602-1.131,2.974-1.924,5.532-1.924
		c2.977,0,5.057,2.494,5.057,6.063v20.348c0,1.412,0.661,3.404,2.133,3.404c2.574,0,4.978-0.77,6.906-1.387
		c1.064-0.34,1.983-0.635,2.625-0.689l0.284-0.025l-0.015-0.287C355.724,486.152,355.63,481.51,355.63,477.15"/>
	<path fill="#999999" d="M395.523,481.869c-0.284,0.072-0.838,0.072-1.205,0.072c-1.76,0-2.58-0.914-2.58-1.531
		c0-2.984,0.101-5.938,0.189-8.543c0.07-2.066,0.13-3.852,0.13-5.287c0-9.537-6.928-13.807-13.794-13.807
		c-5.514,0-11.458,2.693-15.182,5.215l-0.126,0.086l-0.004,0.152c-0.03,0.998,0.068,3.459,1.656,4.721
		c0.91,0.721,2.116,0.889,3.632,0.484l0.205-0.09c1.558-0.701,4.164-1.871,6.702-1.871c3.46,0,5.694,2.008,5.694,5.109v0.705
		c-0.931,0.17-2.512,0.455-3.837,0.674c-5.386,1.152-15.411,3.299-15.411,11.814c0,6.316,5.053,12.068,10.6,12.068
		c3.305,0,6.366-2.697,8.951-5.436c1.139,2.191,3.432,5.436,7.023,5.436c5.761,0,7.804-5.047,7.804-9.365l-0.162-0.676
		L395.523,481.869z M380.682,478.422c0,1.287-0.194,2.063-0.613,2.555c-1.022,0.861-1.78,1.125-3.243,1.125
		c-2.079,0-4.177-1.188-4.177-3.84v-0.078c0-0.93,0.586-4.002,8.033-4.836V478.422z"/>
	<path fill="#999999" d="M419.702,468.785l-0.011-0.006c-0.54-0.27-1.279-0.619-2.074-0.994c-1.56-0.738-3.329-1.576-4.216-2.096
		c-1.594-0.949-2.57-1.596-2.57-2.844c0-1.297,1.293-2.17,3.218-2.17c1.692,0,3.55,0.414,5.229,1.168l0.099,0.025
		c1.074,0.08,1.994-0.246,2.73-0.977c1.33-1.316,1.684-3.549,1.582-5.063l-0.01-0.139l-0.113-0.08
		c-2.694-1.938-5.668-2.838-9.358-2.838h-0.08c-6.683,0-13.874,3.725-13.874,11.9c0,3.859,2.062,7.283,5.671,9.4
		c1.071,0.553,2.122,1.088,3.152,1.609c1.047,0.529,2.072,1.051,3.074,1.568c2.131,1.143,2.559,1.965,2.559,2.918
		c0,1.457-1.353,2.326-3.617,2.326c-3.953,0-7.849-2.217-8.948-2.895l-0.192-0.119l-0.166,0.152c-1.158,1.078-2.33,3.271-2.33,5.385
		c0,1.625,1.161,2.566,2.304,3.275l0.674,0.396c2.247,1.33,5.325,3.15,7.94,3.15c7.487,0,15.233-5.139,15.233-13.736
		C425.608,474.035,423.676,470.988,419.702,468.785"/>
	<path fill="#999999" d="M88.57,440.412c-5.994,0-11.714,0.643-13.912,1.047l-0.266,0.049l0.024,0.27
		c0.321,3.676,0.321,6.977,0.321,10.797V488.9c0,1.541,0.782,3.18,2.23,3.18c2.191,0,8.375-0.23,9.909-0.654l0.229-0.063
		l-0.012-0.236c-0.16-3.201-0.242-6.863-0.242-10.887v-5.689c2.287,0.191,4.893-0.33,6.645-0.682
		c7.138-1.434,12.126-4.725,14.827-9.779c1.346-2.516,2.056-5.359,2.056-8.223C110.379,442.285,99.897,440.412,88.57,440.412
		 M89.698,465.191c-0.293,0-1.582-0.051-2.846-0.104v-16.912c0.815-0.115,1.77-0.115,2.363-0.115c4.276,0,8.647,0.91,8.647,7.646
		C97.862,463.959,92.746,465.191,89.698,465.191"/>
	<path fill="#999999" d="M374.351,419.236c7.757,0,14.464-3.918,21.57-8.068c7.904-4.621,16.078-9.396,26.647-9.396
		c1.167,0,2.229-0.689,2.703-1.756c0.476-1.064,0.274-2.314-0.508-3.18l-12.033-13.295l8.518-18.531
		c0.444-0.965,0.335-2.1-0.288-2.963c-0.621-0.857-1.666-1.32-2.798-1.199c-2.684,0.277-14.812,2.041-22.79,7.604
		c-0.038-10.762-0.677-15.803-0.687-15.873c-0.008-0.059-0.013-0.119-0.013-0.176c0-3.164-6.278-3.773-6.34-3.777
		c-10.515-0.852-21.523,0.488-33.655,4.102c-10.888,3.242-21.643,7.963-32.043,12.529c-4.849,2.127-9.862,4.33-14.879,6.373
		c-18.413,7.496-36.732,11.141-56.004,11.141c-19.265,0-37.579-3.645-55.989-11.141c-4.961-2.021-9.981-4.225-14.836-6.355
		l-0.073-0.031c-10.394-4.561-21.141-9.277-32.016-12.518c-12.154-3.617-23.162-4.955-33.653-4.1
		c-0.063,0.006-6.342,0.623-6.342,3.777c0,0.059-0.003,0.119-0.011,0.18c-0.01,0.072-0.759,5.75-0.69,18.355
		c-8.79-6.488-26.17-8.441-26.91-8.523c-0.835-0.09-1.654,0.275-2.145,0.955s-0.578,1.572-0.227,2.334l9.069,19.736l-12.854,14.205
		c-0.618,0.682-0.775,1.666-0.401,2.506c0.375,0.842,1.21,1.385,2.133,1.385c11.203,0,19.801,5.023,28.115,9.883
		c7.303,4.268,14.2,8.299,22.075,8.299c10.321,0,15.262-4.912,15.581-9.779c0.025-0.375,0.013-0.742-0.016-1.104
		c0.046-0.551,0.083-1.229,0.105-1.656c0.214-4.08,0.604-10.041,0.741-14.543c0.148-1.563,0.255-3.029,0.258-4.322
		c7.668,2.375,15.015,5.242,21.866,8.027c26.297,10.693,54.615,21.133,86.218,21.133c14.034,0,28.451-2.059,44.076-6.295
		c14.988-4.063,29.723-9.781,42.157-14.838c6.67-2.709,13.802-5.498,21.215-7.826c-0.034,1.016-0.104,2.273-0.181,3.693
		c-0.171,3.113-0.377,6.895-0.302,9.957c-0.08,1.932-0.074,4.627-0.049,5.01c0.183,2.779,1.814,5.404,4.479,7.201
		C365.921,418.248,369.797,419.236,374.351,419.236 M394.642,389.842c0,0,2.901,4.838-11.562,8.871
		c-1.925,0.477-4.141,0.992-6.708,1.588c-0.083,0.018-0.169,0.035-0.252,0.051c-0.585,0.119-1.185,0.234-1.806,0.352
		c-3.643,0.678-13.239,3.17-13.239,3.17c0.052-5.926,0.45-8.848,0.605-14.113c0.402-0.121,0.8-0.246,1.204-0.361
		c2.727-0.785,5.364-1.459,7.945-1.998c11.014-2.301,18.495-2.895,22.191,0.354C393.676,388.33,394.227,389.012,394.642,389.842
		 M135.565,416.832c-2.99,1.479-6.526,1.705-9.804,1.535c-15.75-0.813-26.047-18.018-47.93-18.018l12.818-14.732l-8.926-20.943
		c0,0,10.655,2.34,14.222,3.541c4.507,1.518,10.39,3.648,12.22,5.213c0.021,1.541,0.053,3.176,0.101,4.9
		c0.008,0.611,0.02,1.24,0.034,1.879c0.023,1.791,0.034,3.754,0.111,5.625c-0.723,0.617-1.528,1.504-1.974,2.773
		c-0.973,2.766-0.169,5.771,1.578,8.047c2.311,3.008,6.496,4.336,9.943,5.533c4.299,1.494,8.726,2.627,13.216,3.379
		c3.258,0.549,7.935,1.475,8.37,5.492C139.83,413.691,137.755,415.748,135.565,416.832 M140.639,406.473
		c-0.875-0.938-2.007-1.67-3.33-2.117c-0.467-0.199-0.983-0.359-1.552-0.469c-6.469-1.234-13.542-3.01-18.779-5.045
		c-3.271-1.271-5.827-2.645-7.067-4.053c-1.338-1.52-1.443-3.111-1.443-3.111c-0.02-0.295-0.005-0.572,0.026-0.826
		c0.09-0.711,0.328-1.24,0.433-1.463c1.035-2.213,3.618-3.164,4.885-3.57c1.24-0.234,2.565-0.363,3.912-0.363
		c0.378,0,0.739,0.01,1.08,0.027c6.873,0.383,14.013,1.664,21.829,3.916c0.39,0.113,0.773,0.234,1.161,0.348
		C141.746,392.424,141.539,396.219,140.639,406.473 M337.237,396.51c-12.382,5.035-27.046,10.727-41.929,14.76
		c-15.453,4.189-29.701,6.227-43.558,6.227c-31.243,0-59.354-10.367-85.471-20.986c-7.801-3.172-16.239-6.461-25.097-9.012
		c-2.485-0.715-4.899-1.33-7.265-1.855c-4.34-0.961-8.502-1.613-12.56-1.959c-2.206-0.262-4.26-0.365-6.089-0.258
		c-1.866,0.111-3.497,0.443-4.811,1.061c-0.92-21.801,0.322-31.541,0.334-31.637c0.02-0.146,0.03-0.297,0.03-0.447
		c0-0.721,2.591-1.645,4.524-1.807c10.275-0.826,21.046,0.488,32.925,4.025c10.766,3.207,21.465,7.902,31.812,12.443l0.063,0.027
		c4.857,2.133,9.88,4.336,14.87,6.369c18.652,7.594,37.215,11.285,56.748,11.285c19.521,0,38.081-3.691,56.736-11.285
		c4.993-2.033,10.009-4.234,14.858-6.363l0.071-0.031c10.343-4.541,21.037-9.236,31.812-12.443
		c11.891-3.543,22.662-4.859,32.928-4.027c1.891,0.16,4.522,1.1,4.522,1.807c0,0.139,0.01,0.289,0.03,0.441
		c0.01,0.072,0.737,5.723,0.671,18.121c-0.021,3.896-0.12,8.449-0.345,13.713c-0.275-0.102-0.537-0.205-0.795-0.303
		c-0.901-0.35-1.725-0.664-2.64-0.803c-1.589-0.381-3.651-0.398-5.688-0.398c-4.88,0.297-10.701,1.521-17.366,3.193
		c-1.391,0.35-2.794,0.719-4.226,1.131C353.494,390.045,345.048,393.336,337.237,396.51 M361.136,409.73
		c-0.325-1.838,0.422-3.447,2.144-4.189c1.028-0.443,3.671-1.213,4.724-1.41c3.778-0.709,22.659-4.451,26.949-8.377
		c2.532-2.305,3.658-6.361,0.739-8.928c-0.225-0.197-0.478-0.389-0.588-0.666c-0.082-0.203-0.077-0.428-0.071-0.648
		c0.132-4.852,0.314-9.705,0.338-14.559c7.735-5.174,19.583-7.723,22.225-7.996c0.532-0.053,1.081,0.182,1.403,0.625
		c0.321,0.443,0.376,1.027,0.148,1.525l-9.509,18.816l12.531,12.951c0.403,0.447,0.508,1.09,0.262,1.639
		c-0.244,0.549-0.791,0.906-1.394,0.906c-10.957,0-17.533,4.26-25.607,8.979c-6.928,4.049-13.471,7.871-20.841,7.871
		c-4.267,0-7.865-0.904-10.401-2.615C362.785,412.707,361.444,411.467,361.136,409.73"/>
	<path fill="#999999" d="M141.509,377.57c-0.286-0.082-0.43-0.121-0.717-0.203c-0.134,2.762-0.791,3.275-2.284,2.873
		c-1.163-0.314-1.751-0.467-2.942-0.77c-1.34-0.34-1.713-0.486-1.733-2.488c-0.031-3.188-0.008-4.813,0.024-8.049
		c1.312,0.318,1.958,0.48,3.233,0.816c1.582,0.414,2.131,1.736,2.125,3.686c0.29,0.078,0.436,0.119,0.724,0.199
		c0.01-3.031,0.032-4.551,0.037-7.58c-0.287-0.084-0.432-0.125-0.721-0.207c-0.157,1.146-0.334,2.68-2.151,2.199
		c-1.275-0.336-1.92-0.5-3.231-0.816c0.025-2.887,0.042-4.33,0.009-7.174c-0.019-1.717,0.33-1.773,1.659-1.438
		c0.831,0.207,1.242,0.314,2.056,0.533c1.721,0.461,2.815,1.527,2.833,4.406c0.285,0.082,0.429,0.125,0.712,0.209
		c-0.045-2.137-0.075-3.207-0.176-5.334c-4.844-1.426-7.375-2.063-12.86-3.082c0.01,0.305,0.015,0.455,0.023,0.762
		c2.648,1.02,2.729,1.033,2.745,4.574c0.037,7.686-0.246,11.807,0.006,19.293c4.455,1.033,6.566,1.594,10.653,2.773
		C141.492,380.686,141.493,379.648,141.509,377.57"/>
	<path fill="#999999" d="M156.247,364.045c-0.664-0.301-0.997-0.449-1.666-0.744c-1.387,3.195-2.148,4.713-3.709,7.828
		c-1.379-4.303-2.062-6.486-3.575-10.855c-1.793-0.693-2.705-1.031-4.569-1.68c-0.001,0.316-0.002,0.475-0.005,0.791
		c1.996,1.131,2.251,1.744,3.071,4.154c1.24,3.699,1.82,5.545,3,9.213c-2.154,4.129-3.304,6.258-5.399,10.502
		c0.697,0.24,1.042,0.357,1.73,0.6c1.711-3.609,2.634-5.404,4.408-8.91c1.488,4.76,2.227,7.096,3.852,11.969
		c1.18,0.459,1.765,0.689,2.93,1.152c-2.027-6.064-2.925-8.906-4.776-14.805C153.521,369.58,154.495,367.822,156.247,364.045"/>
	<path fill="#999999" d="M171.255,372.561c2.022,0.992,2.534,3.623,2.657,4.801c1.08,0.516,1.623,0.775,2.718,1.291
		c-0.281-2.818-1.738-6.002-5.204-7.707c-4.954-2.436-6.082,2.582-6.147,8.828c-0.081,7.563,1.754,13.098,6.434,15.043
		c2.259,0.939,4.108,0.717,4.68,0.592c-0.017-0.922-0.023-1.373-0.036-2.258c-0.591,0.41-1.98,1.074-3.967,0.248
		c-4.406-1.834-4.673-9.596-4.648-13.344C167.762,376.607,168.209,371.064,171.255,372.561"/>
	<path fill="#999999" d="M184.678,375.326c-5.231-2.318-6.408,1.902-6.359,8.773c0.051,6.838,1.619,12.244,6.725,14.193
		c5.032,1.922,6.623-2.342,6.538-8.752C191.496,383.039,189.693,377.549,184.678,375.326 M185.008,396.59
		c-3.68-1.408-4.086-7.457-4.124-11.377c-0.041-4.266,0.095-9.836,3.83-8.184c3.662,1.621,4.042,7.441,4.095,11.445
		C188.862,392.389,188.759,398.023,185.008,396.59"/>
	<path fill="#999999" d="M207.059,389.963c-0.018-5.477-5.83-7.764-7.909-8.488c-2.73-0.951-4.044-1.441-6.596-2.447
		c0.006,0.324,0.009,0.482,0.014,0.797c2.419,1.486,2.504,1.631,2.545,4.822c0.089,6.926,0.097,9.076,0.212,16.943
		c1.148,0.385,1.729,0.576,2.907,0.955c-0.05-4.559-0.066-6.303-0.1-9.98c0.671,0.225,1.009,0.338,1.691,0.561
		c1.975,4.295,2.98,6.277,4.989,11.432c1.304,0.377,1.883,0.537,3.141,0.873c-2.028-5.379-3.02-7.393-5.118-11.869
		C205.073,393.877,207.07,393.451,207.059,389.963 M199.676,391.701c-0.627-0.209-0.939-0.314-1.557-0.525
		c-0.02-2.104-0.029-3.141-0.053-5.422c-0.022-2.307-0.049-2.994,1.82-2.352c2.342,0.807,4.162,2.547,4.167,5.848
		C204.059,392.672,201.464,392.293,199.676,391.701"/>
	<path fill="#999999" d="M216.471,386.396c-3.094-0.629-4.615-0.988-7.586-1.799c0.002,0.324,0.002,0.482,0.004,0.799
		c2.47,1.211,2.57,1.365,2.59,4.496c0.042,6.801,0.067,8.645,0.107,16.559c1.64,0.4,2.462,0.586,4.116,0.938
		c5.408,1.152,10.133,0.211,10.126-8.865C225.822,390.395,221.776,387.475,216.471,386.396 M216.526,405.879
		c-1.917-0.395-1.92-1.357-1.928-2.617c-0.04-5.941-0.066-7.771-0.105-13.783c-0.011-1.539,0.646-1.666,2.268-1.34
		c5.253,1.063,5.917,4.896,5.938,9.982C222.725,403.922,221.582,406.92,216.526,405.879"/>
	<path fill="#999999" d="M226.714,389.033c2.643,0.932,2.732,1.088,2.641,4.232c-0.199,6.824-0.24,8.58-0.482,16.59
		c4.508,0.629,6.782,0.861,11.354,1.156c0.137-2.182,0.2-3.148,0.323-4.982c-0.323-0.02-0.484-0.029-0.808-0.051
		c-0.289,2.457-1.101,3.211-2.732,3.074c-1.271-0.105-1.905-0.166-3.171-0.299c-1.426-0.15-1.789-0.33-1.727-2.168
		c0.1-2.93,0.142-4.162,0.228-6.725c1.396,0.154,2.097,0.227,3.501,0.35c1.741,0.156,2.343,1.1,2.272,2.691
		c0.324,0.023,0.487,0.035,0.813,0.059c0.112-2.477,0.164-3.602,0.279-6.107c-0.328-0.021-0.492-0.033-0.821-0.057
		c-0.22,0.971-0.481,2.238-2.488,2.061c-1.408-0.123-2.11-0.193-3.509-0.35c0.076-2.297,0.115-3.428,0.205-6.059
		c0.054-1.588,0.439-1.723,1.908-1.584c0.917,0.086,1.376,0.125,2.297,0.199c1.946,0.154,3.155,1.063,3.039,3.588
		c0.33,0.02,0.495,0.029,0.825,0.049c0.055-1.871,0.082-2.855,0.149-5.088c-5.696-0.303-8.535-0.578-14.075-1.389
		C226.726,388.553,226.722,388.713,226.714,389.033"/>
	<path fill="#999999" d="M251.697,391.566c2.719,0.455,2.802,0.611,2.658,3.805c-0.311,6.928-0.429,8.604-0.767,16.814
		c4.617-0.193,6.934-0.373,11.564-0.9c0.146-2.246,0.216-3.232,0.353-5.104c-0.325,0.037-0.487,0.057-0.813,0.094
		c-0.31,2.529-1.134,3.445-2.789,3.602c-1.29,0.121-1.934,0.176-3.224,0.273c-1.45,0.107-1.823-0.01-1.733-1.881
		c0.143-2.982,0.208-4.223,0.342-6.811c1.418-0.098,2.127-0.152,3.543-0.279c1.754-0.156,2.343,0.684,2.252,2.293
		c0.327-0.033,0.49-0.051,0.816-0.086c0.142-2.506,0.21-3.635,0.352-6.174c-0.327,0.035-0.49,0.055-0.819,0.088
		c-0.23,1.016-0.505,2.332-2.526,2.514c-1.416,0.125-2.126,0.182-3.546,0.279c0.119-2.318,0.178-3.459,0.306-6.139
		c0.077-1.617,0.471-1.828,1.946-1.953c0.922-0.076,1.383-0.117,2.301-0.207c1.942-0.188,3.128,0.527,2.989,3.094
		c0.327-0.039,0.491-0.057,0.817-0.096c0.069-1.896,0.104-2.896,0.183-5.18c-5.6,0.686-8.459,0.914-14.172,1.129
		C251.716,391.078,251.709,391.242,251.697,391.566"/>
	<path fill="#999999" d="M276.885,389.246c2.572-0.494,3.04,1.791,3.132,2.838c1.346-0.285,2.016-0.436,3.344-0.748
		c-0.208-2.541-1.742-4.801-6.139-3.943c-6.283,1.23-8.242,7.051-8.555,12.438c-0.378,6.521,1.665,11.32,7.61,10.234
		c2.871-0.525,5.258-2.094,5.993-2.633c0.036-0.963,0.054-1.422,0.087-2.307c-0.771,0.824-2.583,2.49-5.101,2.969
		c-5.584,1.061-5.552-6.189-5.367-9.461C272.062,395.623,273.013,389.988,276.885,389.246"/>
	<path fill="#999999" d="M292.526,385.34c2.362-0.74,2.872,1.502,3.007,2.535c1.206-0.414,1.81-0.625,3.017-1.055
		c-0.305-2.514-1.767-4.65-5.778-3.373c-5.733,1.826-7.521,7.867-7.692,13.258c-0.209,6.527,1.926,11.15,7.827,9.447
		c2.85-0.82,4.758-2.516,5.391-3.107c0-0.98-0.002-1.445-0.006-2.338c-0.656,0.883-2.006,2.629-4.489,3.367
		c-5.51,1.637-5.714-5.611-5.647-8.883C288.215,392.184,288.968,386.453,292.526,385.34"/>
	<path fill="#999999" d="M311.365,394.018c0.054,3.131-1.379,4.025-3,4.639c-0.884,0.338-1.326,0.504-2.208,0.83
		c-1.718,0.639-1.709,0.506-1.733-2.043c-0.072-7.637-0.236-9.131-0.296-17.951c-2.102,1.133-3.154,1.693-5.257,2.791
		c0.001,0.338,0.002,0.504,0.003,0.83c2.436-0.379,2.508-0.246,2.544,2.502c0.096,7.082,0.224,8.656,0.215,17.322
		c4.141-1.434,6.229-2.225,10.425-3.863c0.028-2.363,0.031-3.395,0.027-5.342C311.796,393.846,311.653,393.904,311.365,394.018"/>
	<path fill="#999999" d="M324.948,388.498c-0.07,2.668-0.776,3.836-2.261,4.445c-1.156,0.475-1.734,0.713-2.889,1.184
		c-1.3,0.529-1.63,0.516-1.668-1.447c-0.06-3.127-0.113-4.408-0.226-7.021c1.242-0.508,1.862-0.764,3.106-1.275
		c1.543-0.635,2.162,0.039,2.234,1.684c0.29-0.119,0.435-0.18,0.724-0.299c-0.117-2.559-0.192-3.686-0.331-6.148
		c-0.287,0.119-0.43,0.176-0.716,0.293c-0.099,1.031-0.21,2.377-1.979,3.104c-1.241,0.51-1.86,0.764-3.098,1.27
		c-0.104-2.318-0.161-3.436-0.256-6.031c-0.057-1.566,0.27-1.875,1.531-2.373c0.786-0.313,1.181-0.469,1.969-0.779
		c1.667-0.66,2.755-0.289,2.886,2.154c0.285-0.115,0.428-0.174,0.713-0.289c-0.13-1.791-0.193-2.721-0.303-4.822
		c-4.835,1.875-7.242,2.83-12.053,4.678c0.006,0.332,0.009,0.494,0.016,0.816c2.323-0.35,2.395-0.223,2.5,2.914
		c0.232,6.813,0.447,8.51,0.472,17.234c4.138-1.652,6.217-2.516,10.388-4.227c0.011-2.375,0.001-3.414-0.033-5.363
		C325.385,388.316,325.24,388.377,324.948,388.498"/>
	<path fill="#999999" d="M330.119,374.324c-0.132-1.996,0.906-3.49,2.253-4.008c1.982-0.758,3.938-0.443,4.657-0.305
		c-0.068-0.91-0.102-1.381-0.163-2.367c-0.671,0.078-2.35,0.244-4.099,0.9c-3.575,1.34-5.604,4.484-5.399,7.773
		c0.393,6.311,8.832,1.873,9.093,7.213c0.148,3-1.477,4.811-3.128,5.477c-2.097,0.85-4.223,0.129-5.05-0.178
		c0.032,1.148,0.045,1.752,0.063,3.041c0.552-0.025,2.578,0.004,4.598-0.813c3.62-1.467,6.605-5.193,6.334-9.73
		C338.872,374.541,330.427,378.982,330.119,374.324"/>
	<path fill="#999999" d="M338.74,367.129c0.02,0.289,0.029,0.432,0.049,0.713c2.506-0.492,2.582-0.404,2.805,2.033
		c0.574,6.279,1.007,8.057,1.167,16.861c1.157-0.439,1.735-0.654,2.893-1.082c-0.215-11.135-0.954-12.188-1.601-21.18
		C341.924,365.516,340.863,366.047,338.74,367.129"/>
	<path fill="#999999" d="M356.271,361.289c-1.947,0.576-4.089,0.877-6.027,1.496c0.023,0.277,0.035,0.414,0.06,0.686
		c1.048-0.148,2.005-0.398,2.124,0.771c0.021,0.205-0.157,1.301-0.26,1.828c-1.386,6.791-1.944,8.998-3.86,18.621
		c0.652-0.23,0.978-0.346,1.629-0.572c0.721-3.664,1.032-5.184,1.617-8.021c2.67-0.91,4.006-1.346,6.678-2.152
		c0.997,2.338,1.479,3.613,2.329,6.809c1.089-0.307,1.632-0.455,2.72-0.738C359.455,370.014,358.824,368.18,356.271,361.289
		 M351.877,374.527c0.807-3.83,1.703-6.314,2.444-9.936c1.473,3.053,2.313,4.969,3.339,8.066
		C355.345,373.367,354.189,373.742,351.877,374.527"/>
	<path fill="#999999" d="M364.443,362.727c0.723,5.844,1.261,7.773,1.399,16.65c4.164-0.994,6.24-1.402,10.367-1.959
		c0.022-2.455,0.003-3.537-0.068-5.543c-0.292,0.043-0.438,0.064-0.729,0.111c-0.016,2.709-0.728,3.723-2.21,3.979
		c-1.154,0.197-1.732,0.307-2.89,0.537c-1.302,0.262-1.627,0.186-1.722-1.813c-0.15-3.184-0.281-4.482-0.563-6.992
		c1.27-0.295,1.904-0.434,3.175-0.695c1.575-0.324,2.257,0.455,2.397,2.109c0.294-0.053,0.441-0.08,0.734-0.131
		c-0.218-2.578-0.362-3.688-0.641-5.951c-0.295,0.055-0.443,0.084-0.738,0.141c-0.049,0.918-0.09,2.146-1.902,2.521
		c-1.272,0.264-1.906,0.404-3.178,0.701c-0.262-2.182-0.41-3.186-0.67-5.379c-0.158-1.322,0.173-1.537,1.488-1.824
		c0.822-0.178,1.233-0.266,2.057-0.432c1.742-0.357,2.914,0.063,3.176,2.221c0.296-0.055,0.444-0.082,0.74-0.135
		c-0.225-1.59-0.338-2.383-0.531-4.102c-5.088,0.891-7.608,1.461-12.608,2.76c0.025,0.266,0.038,0.396,0.064,0.656
		C364.037,359.973,364.11,360.033,364.443,362.727"/>
	<path fill="#999999" d="M262.935,281.578c-0.513-1.078-2.974-5.818-3.69-6.816c-0.322-0.447-0.601-0.926-0.945-1.355
		c-1.216-1.523-1.016-3.121-0.862-3.561c0.509-1.457,1.331-3.906,2.784-9.707c0.705-2.813,0.789-4.295,0.848-4.797
		c0.252-2.148,0.41-3.5,0.196-5.316c-0.132-1.111-0.401-3.217-1.729-5.547c-1.379-2.424-3.126-3.729-3.496-3.998
		c-0.481-0.351-1.344-0.969-2.631-1.436c-0.349-0.127-2.126-0.748-4.519-0.543c-3.082,0.263-5.186,1.729-5.97,2.289
		c-0.486,0.348-2.349,1.73-3.771,4.269c-1.378,2.456-1.599,4.665-1.729,6.129c-0.156,1.746-0.362,4.057,0.747,6.641
		c0.846,1.967,2.138,3.355,2.592,3.836c0.649,0.688,1.263,1.197,1.729,1.553c0.296-0.5,0.771-1.195,1.485-1.902
		c1.561-1.547,2.366-1.811,3.779-1.869c0.553-0.023,1.395,0.213,1.934,0.461c0.088,0.041,0.164,0.139,0.25,0.207
		c0.45-0.912,0.573-2.859,0.573-3.803c0-1.359-0.061-2.182-0.387-2.908c-0.154-0.342-0.37-0.676-0.371-0.678
		c-0.254-0.393-0.54-0.832-1.01-1.15c-0.215-0.145-0.369-0.199-0.533-0.258c-0.269-0.096-0.632-0.225-0.934-0.656
		c-0.456-0.652-0.364-1.363-0.33-1.632c0.145-1.129,0.96-1.797,1.271-2.014c0.015-0.01,0.024-0.016,0.04-0.025
		c0.377-0.213,1.401-0.68,2.639-0.352c1.059,0.275,1.639,0.971,1.856,1.232c0.745,0.889,0.914,1.846,1.015,2.671
		c0.124,1.037,0.331,3.816-0.45,7.217l-0.05,0.219c-0.144,0.643-0.321,1.438-0.814,2.287c-0.213,0.365-0.38,0.615-0.516,0.816
		c-0.096,0.141-0.195,0.225-0.211,0.324c-0.321,2.045-0.296,15.006-0.164,17.102c0.048,0.744,0.117,8.807,0.196,10.592
		c0.017,0.363,0.052,1.555-0.63,2.021c-0.449,0.311-1.037,0.254-1.206,0.234c-0.786-0.086-1.324-0.568-1.53-0.76
		c-2.955-2.73-4.313-6.984-4.313-6.984c-0.775-2.432-1.657-5.896-2.047-10.234c-3.039,3.836-5.545,8.58-7.05,14.215
		c-1.29,4.838-0.607,9.49,0.389,13.734c0.003,0.01,0.3,1.336,0.583,2.545c0.813-0.211,1.709-0.26,2.545-0.129
		c0.035-0.053,0.065-0.105,0.11-0.152c0.012-0.014,0.026-0.029,0.041-0.043c0.387-0.357,0.971-0.961,1.59-1.6l0.016-0.016
		c1.168-1.207,2.49-2.572,3.396-3.27c0.311-0.236,0.77-0.229,1.069,0.014c0.309,0.25,0.4,0.686,0.219,1.035
		c-0.055,0.107-0.284,0.4-0.575,0.77c-0.16,0.201-0.331,0.42-0.488,0.625c0.046-0.043,0.092-0.086,0.14-0.129
		c0.409-0.377,0.831-0.766,0.965-0.855c0.263-0.174,0.622-0.146,0.855,0.059l0.041,0.037c0.218,0.23,0.256,0.574,0.089,0.842
		c-2.677,4.266-3.749,5.699-4.27,6.18c0.004,0.117,0.006,0.223,0.006,0.303c-0.002,0.961-0.271,1.709-0.447,2.205
		c-0.256,0.717-0.55,1.223-0.86,1.76c-0.191,0.33-0.407,0.652-0.616,0.965c-0.569,0.85-1.106,1.652-1.246,2.67
		c-0.118,0.857,0.112,1.67,0.355,2.531c0.104,0.365,0.212,0.744,0.288,1.123c0.136,0.672,0.247,1.699,0.269,2.879
		c0.438,0.189,0.906,0.375,1.406,0.555c0.375,0.133,0.738,0.25,1.092,0.355c0.699-1.367,1.549-2.605,2.482-3.533
		c1.413-1.402,1.449-2.445,1.195-4.49c-0.057-0.453-0.158-0.885-0.257-1.305c-0.242-1.031-0.491-2.096-0.049-3.375
		c0.253-0.734,0.685-1.395,1.174-2.045c0.557-0.74,1.477-1.457,1.768-1.678c0.031-0.51,0.272-2.168,0.52-3.553
		c0.562-3.152,0.821-3.586,1.558-3.639l0.063-0.004c0.734,0,0.953,0.293,1.809,3.639c0.273,1.068,0.669,2.73,0.765,3.316
		c0.252,0.463,0.505,0.928,0.763,1.395c0.164,0.297,0.329,0.594,0.494,0.889c0.467,0.857,0.588,1.58,0.62,2.047
		c0.044,0.666,0.014,1.383-0.408,2.693c-0.17,0.525-0.33,1.021-0.378,1.541c-0.113,1.201,0.31,2.607,1.19,3.957
		c0.201,0.311,0.441,0.629,0.758,1.004c1.035,1.23,2.017,2.482,2.771,3.916c0.27-0.047,0.569-0.115,0.69-0.141
		c0.24-0.055,0.648-0.176,1.033-0.307l0.029-0.004c-0.012-1.729,0.25-3.348,0.434-4.258c0.078-0.379,0.185-0.758,0.289-1.125
		c0.244-0.859,0.475-1.672,0.356-2.531c-0.14-1.016-0.677-1.818-1.247-2.668c-0.208-0.313-0.425-0.635-0.616-0.965
		c-0.311-0.537-0.656-1.025-0.86-1.76c-0.355-1.279-0.235-2.365,0.007-3.189c-0.456-0.563-1.322-2.014-3.263-5.758
		c-0.101-0.193-0.051-0.43,0.119-0.566c0.087-0.07,0.192-0.105,0.296-0.105c0.103,0,0.205,0.035,0.29,0.1
		c0.369,0.291,0.983,0.908,1.647,1.629c-0.559-1.006-1.056-1.928-1.211-2.299c-0.111-0.268-0.02-0.574,0.22-0.738
		c0.106-0.074,0.231-0.109,0.355-0.109c0.152,0,0.304,0.053,0.421,0.16c0.836,0.762,2.035,2.223,3.094,3.51
		c0.401,0.49,0.785,0.955,1.104,1.328c0.624-0.084,1.29-0.049,1.951,0.096c0-0.023,0.001-0.037,0.002-0.063
		c0.002-0.113,0.202-0.756,0.458-1.514C264.695,301.146,267.861,291.916,262.935,281.578 M245.196,258.982
		c-0.178,0.58-0.715,0.982-1.306,0.982c-0.265,0-0.525-0.078-0.753-0.229c-1.724-1.133-2.845-2.943-2.997-4.842
		c-0.081-1.006,0.183-1.961,0.781-2.838c0.083-0.123,0.173-0.244,0.263-0.367c0.248-0.334,0.48-0.648,0.483-0.902
		c0.008-0.738,0.603-1.316,1.355-1.316c0.376,0,0.741,0.148,1.001,0.408c0.256,0.254,0.395,0.596,0.391,0.964
		c-0.006,0.598-0.194,1.102-0.433,1.541c0.768,0.451,1.418,1.361,1.359,2.623c-0.03,0.652-0.466,2.055-0.616,2.523
		C245.17,257.873,245.361,258.441,245.196,258.982 M246.903,297.848c-0.376,0.391-0.869,0.598-1.426,0.598
		c-0.113,0-0.227-0.006-0.337-0.023c-0.734-0.104-1.214-0.533-1.586-1.074c-1.289-1.863,1.839-6.102,2.28-6.494
		c0.17-0.152,0.393-0.234,0.616-0.234c0.097,0,0.191,0.016,0.283,0.047c0.312,0.102,0.545,0.363,0.61,0.678
		C247.724,293.203,248.173,296.52,246.903,297.848 M252.34,298.258c-0.363,0.334-0.842,0.518-1.346,0.518
		c-0.082,0-0.167-0.006-0.252-0.016c-0.684-0.08-1.349-0.482-1.732-1.051c-0.95-1.4-0.429-2.803-0.012-3.93
		c0.19-0.514,0.369-0.994,0.419-1.436c0.041-0.361,0.335-0.641,0.698-0.67c0.601-0.047,0.956,0.43,1.128,0.66
		c0.04,0.053,0.066,0.092,0.095,0.121c0.414,0.434,1.506,2.049,1.672,2.857C253.209,296.293,253.079,297.584,252.34,298.258
		 M257.508,297.965c-0.076,0.021-0.153,0.039-0.233,0.053c-0.911,0.158-1.869-0.258-2.385-1.039
		c-0.658-0.998-0.882-2.121-1.079-3.117c-0.171-0.855-0.332-1.66-0.728-2.344c-0.204-0.354-0.132-0.807,0.171-1.078
		c0.303-0.273,0.767-0.299,1.103-0.066c0.763,0.529,4.577,3.305,4.537,5.813C258.88,297.031,258.335,297.729,257.508,297.965"/>
	<path fill="#999999" d="M419.571,299.559c-2.289-2.973-7.03-3.998-10.191-1.965c-0.526-2.463-3.907-19.469-4.709-25.924
		c19.899-2.322-12.111-33.109-13.063-12.721c-5.842,0.039-20.939-0.793-24.544-0.957c3.906-8.744-6.665-13.567-13.075-7.861
		c-1.47-1.08-9.307-6.511-13.833-9.686c-0.002-7.965-0.008-16.045-0.016-23.879c13.929,1.746,26.565,0.34,39.538-5.891
		c4.409,7.491,12.917,3.559,11.456-3.402c7.611-6.348,20.155-17.217,24.344-26.265c1.456-3.165-1.972-5.382-4.635-3.447
		c1.146-2.077,1.338-5.514-2.081-5.901c0.675-2.317-1.037-6.655-3.976-5.308c0.58-2.164-1.9-5.015-4.053-4.196
		c0.582-1.158-0.658-8.463-4.678-6.175c0.106-2.425-3.139-6.669-6.068-5.306c0.116-2.329-0.518-5.227-4.438-5.664
		c-2.305,0-3.182,3.469-4.197,7.486c-1.998,7.54-6.424,14.762-11.14,20.997c-4.617-2.337-12.394,4.21-8.658,8.473
		c-3.479,3.072-12.571,5.378-21.446,5.989c-0.011-14.779-0.029-22.59,0.025-27.465h-44.756c6.344-4.557,27.482-19.798,33.536-23.958
		c0.184,0.323,3.854,5.429,5.681,7.796c1.682-1.16,4.829-3.285,6.057-4.18c0.803,1.119,1.941,2.771,3.072,4.439
		c-1.2,0.846-4.818,3.395-5.959,4.197c1.725,2.39,9.424,13.055,11.148,15.445c1.989-1.4,5.358-3.774,7.348-5.176
		c-0.801-1.109-4.692-6.5-5.573-7.719l4.94-3.479c0.903,1.252,4.749,6.578,5.572,7.719c2.297-1.617,8.289-5.839,10.586-7.457
		c-1.719-2.392-6.263-8.867-8.857-12.195c-1.089,0.768-4.576,3.224-5.72,4.029l-4.002-5.545c2.1-1.504,3.923-2.766,5.805-4.008
		c-0.811-1.123-3.252-4.504-4.099-5.678c2.381-1.674,4.459-3.139,5.84-4.113c1.164,1.764,2.813,3.859,4.296,5.479
		c1.925-1.36,5.164-3.646,6.157-4.345c1.012,1.414,2.521,3.514,3.994,5.537c-1.222,0.859-5.16,3.634-6.312,4.445
		c1.697,2.352,7.123,9.868,8.821,12.22c2.328-1.64,8.795-6.194,11.124-7.835c-0.793-1.107-4.671-6.522-5.543-7.74l4.046-2.85
		c0.996,1.34,4.889,6.58,5.807,7.814l7.643-5.502c-1.773-2.457-9.437-13.072-11.216-15.539c-1.135,0.799-5.822,4.1-7.043,4.961
		l-3.187-4.414c1.249-0.881,5.882-4.145,7.042-4.961c-0.8-1.108-4.735-6.561-5.615-7.779c1.147-0.844,3.267-1.847,2.721-3.637
		c-0.313-1.436-5.095-7.543-6.521-7.989c-0.889-0.368-1.825,0.238-1.852,0.29l-83.358,58.838
		c-0.595-3.394-2.017-11.963-2.939-17.771h18.137c1.323,0,2.399-1.063,2.399-2.369c0.321-2.096-1.149-3.574-3.277-3.255v-1.69
		c3.535-0.27,3.534-5.67,0-5.938v-14.536c-0.458,0.808-1.516,2.686-2.014,3.553c-0.181-2.133-0.646-4.691-1.188-6.625
		c3.701,0.766,4.364-5.53,0.696-5.625c-0.675,0.01-3.13-0.008-3.761,0v-1.363c3.941,0.053,3.939-6.057,0-6.002V74.48
		c-1.248,2.083-2.154,3.964-3.473,6.413c-0.777-3.461-1.978-6.744-3.577-9.801c1.671-0.107,2.41-1.742,2.201-3.236
		c0.046-2.813-3.485-2.384-5.388-2.363c-0.006,0-0.012,0-0.017,0c3.283-0.275,3.565-5.229,0.344-5.863
		c-0.021-0.252-0.032-10.202-0.032-10.202c-1.105,1.946-2.069,3.802-3.215,5.968c-3.321-6.703-16.8-19.478-29.371-21.684
		c-0.205-3.065-2.003-5.266-3.238-5.652v-0.355v-7.748h5.194v-6.41h-5.194V7.919h-7.833v5.626h-5.193v6.41h5.193v7.748v0.355
		c-1.193,0.474-2.854,2.304-3.205,5.479c-10.408,1.979-21.022,9.676-29.335,21.991c-1.111-2.079-1.91-3.704-2.988-5.503v9.539
		c-3.42,0.39-3.347,5.635,0.084,5.928c-0.027,0-2.503,0-2.599,0c-0.777,0-2.809,0.484-2.873,2.365
		c-0.218,1.523,0.57,3.192,2.29,3.242c-0.35,0.881-2.672,6.293-3.655,9.818c-1.327-2.461-2.229-4.348-3.483-6.439v11.553
		c-4.559-0.742-4.557,6.647,0,5.904v1.412c-0.615-0.01-3.098,0.008-3.761,0c-3.67,0.095-3.006,6.391,0.696,5.625
		c-0.549,1.957-1.016,4.535-1.194,6.691c-0.388-0.802-1.587-2.859-2.008-3.615v14.536c-4.388-0.57-4.386,6.501,0,5.931v1.694
		c-2.128-0.317-3.601,1.158-3.277,3.255c0,1.307,1.076,2.369,2.398,2.369h17.813c-0.797,5.621-2.09,14.281-2.701,17.771
		l-83.358-58.838c-0.026-0.052-0.964-0.658-1.852-0.29c-1.427,0.446-6.207,6.554-6.521,7.989c-0.539,1.789,1.563,2.794,2.721,3.637
		c-0.905,1.253-4.794,6.641-5.616,7.779c1.134,0.799,5.82,4.1,7.042,4.961l-3.187,4.414c-1.25-0.881-5.881-4.144-7.042-4.961
		c-1.78,2.467-9.441,13.08-11.217,15.539l7.644,5.502c0.895-1.205,4.833-6.507,5.805-7.814l4.047,2.85
		c-0.896,1.252-4.728,6.602-5.543,7.74c2.329,1.641,8.795,6.194,11.123,7.835c1.698-2.351,7.124-9.868,8.822-12.22
		c-1.131-0.797-5.113-3.602-6.311-4.445c1.473-2.023,2.981-4.123,3.994-5.537c0.986,0.693,4.238,2.99,6.158,4.345
		c1.481-1.622,3.131-3.716,4.295-5.479c1.382,0.975,3.459,2.439,5.84,4.113c-0.859,1.19-3.277,4.539-4.1,5.678
		c1.884,1.242,3.707,2.504,5.807,4.008l-4.003,5.545c-1.163-0.818-4.613-3.249-5.721-4.029c-2.602,3.338-7.128,9.791-8.857,12.195
		c2.297,1.618,8.289,5.838,10.587,7.457c0.801-1.109,4.692-6.5,5.571-7.719l4.94,3.479c-0.905,1.253-4.75,6.58-5.573,7.719
		c1.989,1.401,5.359,3.775,7.349,5.176c1.723-2.39,9.423-13.055,11.147-15.445c-1.122-0.79-4.778-3.365-5.958-4.197
		c1.129-1.668,1.807-2.65,2.608-3.77c1.229,0.895,4.29,2.893,5.973,4.053c1.841-2.391,6.023-7.986,6.228-8.339l33.112,23.265
		c0.161,0.111,0.751,0.494,0.822,0.693h-45.154c0.055,4.845,0.037,12.605,0.025,27.27c-9.053-0.572-19.443-2.697-22.949-5.794
		c3.735-4.263-4.04-10.808-8.658-8.473c-4.718-6.239-9.14-13.454-11.139-20.997c-1.017-4.018-1.894-7.486-4.198-7.486
		c-3.919,0.441-4.554,3.333-4.437,5.664c-2.933-1.36-6.171,2.877-6.07,5.306c-4.02-2.29-5.259,5.019-4.676,6.175
		c-2.153-0.817-4.633,2.031-4.054,4.196c-2.938-1.347-4.649,2.989-3.974,5.308c-3.423,0.392-3.227,3.82-2.082,5.901
		c-2.66-1.925-6.095,0.274-4.634,3.447c4.204,9.064,16.715,19.899,24.344,26.265c-1.461,6.961,7.046,10.894,11.456,3.402
		c13.448,6.472,26.565,7.73,41.042,5.648c-0.009,7.905-0.015,16.064-0.017,24.105c-4.521,3.174-12.383,8.621-13.854,9.701
		c-6.416-5.711-16.98-0.873-13.075,7.861c-3.617,0.166-18.692,0.994-24.544,0.957c-0.954-20.388-32.963,10.4-13.063,12.721
		c-0.803,6.455-4.183,23.461-4.71,25.924c-5.264-3.443-13.257,1.84-11.639,8.016c1.239,5.045,12.113,15.852,17.597,15.855
		c4.482,0.213,8.923-5.547,6.837-9.795c1.361-0.441,5.916-1.191,6.14-1.238c10.386,17.678,49.812,36.314,67.895,47.568
		c1.417,0.564,3.78,1.055,4.576-0.682c1.979-2.426,6.131-5.492,3.356-8.902c1.991-1.008,3.298-4.01,2.446-5.709
		c2.56-1.275,2.679-3.262,1.402-5.635c0.942-0.717,2.136-2.447,0.923-3.656c-0.526-0.623-1.12-1.471-2.014-1.551
		c-4.655-0.725-9.274-1.773-13.741-2.787c-7.854-1.783-15.973-3.625-24.531-3.764c-1.366-0.621-3.171-1.674-5.316-3.076l0.01-0.037
		c-3.381-2.104-7.103-4.92-11.698-8.461c8.882,4.039,25.02-16.951,10.641-18.945l0.49-3.076c3.688,2.197,12.738,1.367,17.483-0.814
		c9.833,32.742,27.486,37.486,88.458,68.441c61.094-31.064,78.471-35.527,88.46-68.436c4.717,2.18,13.809,3,17.463,0.809l0.49,3.076
		c-14.378,1.994,1.758,22.984,10.641,18.945c-4.597,3.541-8.316,6.357-11.7,8.461l0.013,0.037c-2.146,1.402-3.951,2.455-5.317,3.076
		c-8.559,0.139-16.676,1.98-24.531,3.764c-4.467,1.014-9.086,2.063-13.741,2.787c-0.888,0.078-1.497,0.93-2.014,1.551
		c-1.194,1.201-0.041,2.951,0.923,3.656c-1.277,2.377-1.154,4.359,1.401,5.635c-0.85,1.701,0.456,4.699,2.447,5.709
		c-2.751,3.406,1.357,6.482,3.357,8.902c0.795,1.736,3.157,1.246,4.575,0.68c18.068-11.244,57.497-29.879,67.894-47.566
		c0.225,0.047,4.78,0.797,6.141,1.238c-2.127,4.373,2.544,10.242,7.171,9.787C410.455,320.061,425.961,307.355,419.571,299.559
		 M112.955,146.286c1.94-0.426,3.029,7.031,3.954,9.463c2.451,6.438,6.489,13.42,10.638,18.65
		C126.677,184.375,100.997,147.944,112.955,146.286 M107.22,151.682c1.033-0.5,0.874,0.043,1.902,3.203
		c3.151,8.701,12.296,21.227,15.14,23.189c0.287,0.938-1.113,2.986-1.676,2.963c-6.824-3.869-14.755-16.637-15.59-18.027
		C105.707,161.045,100.537,154.919,107.22,151.682 M100.591,157.014c0.512-0.164,1.422-0.65,2.45,1.485
		c1.245,2.585,5.938,10.741,10.192,15.734c1.955,2.294,5.037,6.187,6.965,7.804c1.779,1.494,1.391,1.934,0.655,3.109
		c-1.716,1.961-2.858,0.023-3.999-0.846c-5.151-4.902-9.905-7.598-17.483-21.117C97.97,160.682,100.252,156.799,100.591,157.014
		 M97.531,163.395c9.705,14.361,9.354,14.828,20.938,24.486c1.262,0.951-1.017,3.34-2.827,2.086
		c-2.375-1.552-13.237-12.02-17.917-19.355C95.295,166.799,94.237,163.846,97.531,163.395 M92.484,167.377
		c1.482-0.311,2.492,2.023,3.079,2.907c8.021,12.06,9.873,12.972,19.428,22.369c0.578,8.088-15.448-9.878-16.384-11.249
		c-0.347-0.26-4.7-5.338-6.982-9.127C90.613,170.598,90.933,168.694,92.484,167.377 M89.017,173.299
		c1.342-0.78,1.354-0.219,1.604,0.114c5.512,7.328,9.766,12.803,16.541,19.185c0.575,0.541,6.269,4.882,5.124,5.928
		c-0.997,1.73-2.888,0.475-3.789-0.135C104.342,194.995,85.611,178.891,89.017,173.299 M108.444,205.538
		c-4.619-1.455-26.454-22.779-23.671-27.22c0.604-0.62,2.438,0.05,3.064,0.864c4.064,5.299,7.64,10.027,12.695,14.582
		C103.179,196.893,112.684,201.612,108.444,205.538 M117.484,209.184c-4.635,7.457-10.107,1.302-7.297-2.807
		c2.962-4.33,18.968-30.729,18.968-30.729c1.433-2.034,7.76,1.479,6.683,4.431l-16.318,25.528
		C119.52,205.607,117.912,208.495,117.484,209.184 M159.867,214.254c-13.864,2.138-27.478,0.654-39.799-5.355
		c-0.481,0.305,15.511-24.489,15.916-25.167c4.84,3.915,16.963,5.649,24.074,6.104C160.168,196.813,159.55,209.524,159.867,214.254
		 M160.017,256.846c0.018,7.176-0.008,13.738,0.05,20.164c-3.607,2.902-10.601,2.436-14.287,1.305l0.858-6.801
		c7.252,2.924,13.969-5.588,8.962-11.809C155.298,259.783,157.873,258.148,160.017,256.846 M159.804,243.567l-0.096,9.886
		c0,0.271-3.649,2.467-5.779,3.975c-1.86-2.285-3.646-3.875-5.875-5.76C151.453,249.223,156.241,246.122,159.804,243.567
		 M137.612,250.036c6.362-1.883,14.526,8.093,17.164,12.613c1.347,4.172-1.525,7.244-5.156,7.244
		c-4.074,0.525-10.983-8.221-13.552-10.783C134.093,256.17,133.577,251.217,137.612,250.036 M108.986,294.621
		c-0.259,0.791-0.445,1.586-0.595,2.385l-4.19,0.609c0.655-5.096,2.777-16.902,4.515-25.98l24.462-0.732
		c-0.306,1.885-0.658,7.227-0.798,7.256C116.49,281.262,110.887,288.824,108.986,294.621 M130.707,286.629
		c-1.597-0.998-4.574-2.66-2.637-5.209c1.472-0.434,2.647-0.918,4.335-1.248c-0.192,1.061-0.972,7.605-1.324,9.553
		c-0.008,0.004-0.013,0.004-0.021,0.006C131.441,288.02,131.127,287.125,130.707,286.629 M121.302,292.332
		c-2.981-0.127-5.481,0.098-6.3-3.553c0.807-0.854,1.723-1.676,2.764-2.451c0.285,6.496,7.234,0.352,6.492,6.287
		c-0.281,0.201-0.69,0.516-1.144,0.951C122.662,293.061,122.076,292.578,121.302,292.332 M121.808,295.107
		c-0.543,0.758-1.085,1.838-1.357,2.805c-2.733-3.049-6.823,1.207-9.692-1.529c0.458-1.793,1.226-3.551,2.346-5.223
		C116.008,294.967,119.312,292.643,121.808,295.107 M125.254,283.975c1.21,3.961,4.534,2.125,3.892,6.383
		c-0.814,0.285-1.783,0.658-2.776,1.121c0.143-6.527-7.036-1.369-6.985-6.262c1.746-1.1,3.762-2.096,6.105-2.951
		C125.167,283.084,125.212,283.719,125.254,283.975 M130.65,292.131c-0.201,1.129-0.384,2.17-0.538,3.061
		c-2.271,0.182-4.807,0.5-6.497,0.725C124.469,294.902,126.396,293.541,130.65,292.131 M110.36,298.475
		c3.333,2.689,7.58-1.785,9.684,2.281c0.022,1.041,0.071,1.447,0.242,2.191c-3.655-2.52-6.36,2.313-9.979-0.381
		C110.182,301.209,110.186,299.84,110.36,298.475 M112.059,309.281c-0.552-1.27-0.993-2.6-1.307-3.963
		c3.808,2.021,5.983-2.271,10.019-0.676c0.432,1.117,1,2.051,1.566,2.799C116.517,306.121,115.532,310.539,112.059,309.281
		 M115.797,315.223c-0.782-0.908-1.525-1.881-2.179-2.943c5.061-0.98,4.381-3.91,10.413-2.977c0.694,0.59,1.404,1.354,2.464,2.164
		C118.446,311.102,120.296,316.811,115.797,315.223 M126.472,308.613l3.492-0.637c0.269,2.129,0.704,3.568,1.951,4.91
		C130.492,311.83,126.573,308.73,126.472,308.613 M118.037,317.514c1.543,0.023,3.778-1.996,4.295-3.16
		c0.338-1.404,7.051-1.949,9.143,0.941c-5.765-0.178-5.537,3.742-10.869,4.404C119.832,319.068,118.899,318.289,118.037,317.514
		 M140.927,334.021c3.296-3.871,4.325-1.734,7.439-3.041c-0.538,2.746-4.836,3.139-6.159,3.846
		C141.781,334.557,141.351,334.293,140.927,334.021 M187.948,333.99l0.684,0.809c-0.391,0.285-0.677,0.568-0.894,0.844
		l-17.937-0.869l17.498,2.98c1.073,2.326,1.01,2.172-1.239,3.688l-17.83-2.49l17.741,4.727c0.75,1.875-2.545,3.262-3.046,4.197
		l-15.962-5.994l17.174,8.605c0.467,1.18-0.416,1.873-1.259,2.838l-15.702-8.076l14.1,9.701c-0.445,0.48-0.837,0.961-1.068,1.441
		c-7.096-2.539-13.406-7.561-20.227-10.971c2.387-2.805,8.645-11.197,7.762-15.623C174.411,331.201,181.035,332.914,187.948,333.99
		 M165.446,329.316c1.038,4.287-5.197,12.166-7.622,14.861c-0.86-0.496-1.721-0.988-2.579-1.486
		c2.485-2.598,8.46-9.805,7.978-13.775C163.963,329.049,164.707,329.17,165.446,329.316 M160.634,328.465
		c0.753,3.568-5.387,10.352-7.859,12.795c-1.009-0.594-2-1.209-3.003-1.811c2.771-1.867,8.521-7.313,7.911-11.385
		C158.669,328.188,159.656,328.311,160.634,328.465 M150.712,332.086c1.018-2.566,1.128-3.377,1.089-4.549
		c1.112,0.049,2.208,0.154,3.306,0.254c0.706,3.68-4.909,8.547-7.771,10.189c-0.908-0.551-1.828-1.082-2.729-1.643
		C145.66,335.377,149.619,334.838,150.712,332.086 M149.267,327.334c-2.696,3.844-7.657,1.164-10.299,5.412
		c-0.411-0.27-0.814-0.549-1.224-0.822c3.966-2.482,4.219-5.404,9.762-5.469C148.131,326.793,148.723,327.092,149.267,327.334
		 M143.724,324.188c0.478,0.309,0.94,0.6,1.397,0.881c-4.453,0.707-5.322,4.117-9.248,5.598c-0.493-0.338-0.995-0.66-1.486-1
		C139.303,328.539,137.241,322.648,143.724,324.188 M137.23,319.66c1.063,0.781,2.126,1.545,3.184,2.287
		c-5.428,1.242-2.746,5.693-8.507,5.979c-1.26-0.9-2.786-1.996-4.419-3.17C133.806,324.322,131.363,319.348,137.23,319.66
		 M133.295,316.703c0.474,0.365,0.966,0.736,1.455,1.105c-5.059,0.871-2.679,5.406-9.764,5.152
		c-0.649-0.467-1.301-0.932-1.944-1.393c2.281-0.355,3.215-2.871,4.865-3.477C129.041,317.957,131.855,317.186,133.295,316.703
		 M141.005,297.297c18.146-2.832-9.394,27.852-8.97,8.527l-7.279,1.111c-1.587-1.992-2.948-5.98-1.891-8.742
		c1.776-0.25,6.653-0.91,9.113-0.953c0.957-5.926,3.626-28.588,3.626-28.588l-28.719,0.961c0,0-5.326,27.545-5.054,30.525
		l6.259-0.914c-0.214,2.932,0.017,6.432,0.89,9.133c-2.298,0.535-5.969,0.945-8.525,1.578c3.411,2.811,0.542,9.377-3.729,9.377
		c-4.438-0.029-14.463-10.053-15.473-14.18c-0.912-6.527,6.808-8.08,11.013-4.229c1.886-10.182,4.61-22.438,5.251-31.316
		c-18.671,0.961,10.036-27.557,9.245-8.887l26.415-0.838l11.317,11.039C144.494,270.902,141.86,290.92,141.005,297.297
		 M148.995,289.182c-0.147,0.422-0.385,1.045-0.918,1.494c-1.661-0.275-2.747-0.791-3.728-1.049
		c0.749-4.918,0.981-7.361,1.199-9.273c1.121,0.221,1.388,0.141,2.47,0.338C145.55,285.746,150.43,285.379,148.995,289.182
		 M154.116,290.781c-1.274,0.287-2.562,0.293-3.879,0.176c3.241-6.539-2.307-4.465-0.266-9.928c0.79,0.129,1.521,0.236,2.164,0.309
		c0.746,7.109,3.659,3.576,5.58,8.512C156.481,290.201,155.233,290.527,154.116,290.781 M159.805,289.225
		c-1.606-5.424-5.759-3.104-5.445-7.787c3.766-0.734,5.085-1.816,5.698-2.211c0.16,2.287,0.177,5.512,0.86,9.67
		C160.918,288.896,159.99,289.357,159.805,289.225 M383.573,107.569l-7.017,4.996l5.661,7.759l7.018-4.996l8.776,12.027
		c0,0-2.885,2.065-4.295,3.059l-5.719-7.614l-7.404,5.271l5.583,7.712l-7.687,5.475l-6.434-8.815l6.299-4.484
		c-2.873-3.866-6.475-8.872-6.475-8.872s-1.029,0.724-6.298,4.484c-1.852-2.096-4.1-5.617-4.1-5.617s-4.206,3.004-9.292,6.617
		l4.099,5.617c-1.68,1.137-5.745,4.092-5.745,4.092l6.474,8.871l5.746-4.091c1.221,1.579,6.432,8.815,6.432,8.815l-7.156,5.096
		l-5.612-7.691l-8.323,5.928l5.613,7.689l-3.919,2.791l-9.239-12.486l5.881-4.188c0,0-4.712-7.205-5.135-7.346
		c-2.289,1.721-2.042,1.529-5.945,4.234c-2.762-3.637-4.55-6.234-4.55-6.234c1.202-0.857,3.141-2.244,5.564-3.977
		c5.856-4.188,14.562-10.418,22.671-16.203c5.055-3.605,9.876-7.04,13.629-9.697c2.858-2.025,5.098-3.602,6.346-4.459
		L383.573,107.569z M376.333,90.452c0,0,4.741,5.627,5.012,6.865c0.097,0.44-89.913,63.176-89.913,63.176h-14.306L376.333,90.452z
		 M289.829,148.458l-16.185,11.815h-7.083c-1.538-11.509-3.066-19.259-2.62-30.438H286.8
		C287.368,133.594,288.814,143.483,289.829,148.458 M238.424,129.834h23.322c-0.529,10.096,1.314,19.564,2.358,30.658h-28.043
		C237.107,149.387,238.95,139.94,238.424,129.834 M245.652,30.61c0.276-0.539,0.981-1.23,2.031-1.23c0.143,0,4.882,0,5.036,0
		c1.119,0,1.843,1.167,1.898,1.252c0,0,0,0,0.001,0.001c0.329,0.589,0.619,1.442,0.874,2.681c0,0-5.535-0.975-10.732,0
		C244.75,33.315,245.343,31.206,245.652,30.61 M215.852,55.68c20.368-29.992,51.158-25.952,69.276,1.014
		c-2.955,5.482-3.726-0.225-5.86-2.668c-1.063,1.395-1.729,4.563-3.632,5.09c-2.562-2.273-4.101-7.256-6.009-10.034
		c-1.962,2.75-3.389,7.946-6.124,10.044c-1.487-0.799-2.568-3.752-3.602-5.131c-1.028,1.379-2.115,4.33-3.599,5.129
		c-2.736-2.094-4.155-7.289-6.127-10.032c-1.901,2.759-3.449,7.735-5.984,9.995c-1.818-0.408-2.549-3.76-3.822-5.061
		c-1.064,1.395-1.729,4.561-3.634,5.09c-2.563-2.273-4.1-7.256-6.008-10.034c-1.962,2.751-3.39,7.946-6.125,10.044
		c-1.487-0.8-2.567-3.752-3.601-5.131c-0.834,1.386-2.189,3.749-3.188,4.982c-1.24,0.615-1.918-1.637-2.655-2.355
		C215.282,56.331,215.852,55.68,215.852,55.68 M211.89,65.469c2.748-0.59,3.048-4.801,0.358-5.73l-0.06-4.56
		c0.306,0.553,0.612,1.126,0.921,1.693c0.25,0.46,0.502,0.917,0.757,1.354c0.287,0.492,0.578,0.959,0.873,1.382
		c1.292,1.844,2.689,2.813,4.354,1.151c0.585-0.584,1.202-1.484,1.859-2.797c0.682,1.408,1.333,2.346,1.956,2.917
		c1.559,1.433,2.938,0.552,4.187-1.165c0.913-1.255,1.755-2.951,2.546-4.512c0.026-0.054,0.055-0.109,0.082-0.162
		c0.297-0.586,0.586-1.146,0.869-1.656c0.029-0.053,0.059-0.107,0.088-0.158l0,0c2.249,4.025,5.524,13.41,9.767,4.908
		c2.103,4.563,5.141,4.476,6.937,0.159c0.916-1.575,1.891-3.441,2.743-5.074c2.39,4.204,5.515,13.505,9.726,4.743
		c4.205,8.67,7.215-0.3,9.729-4.736c2.228,3.967,5.632,13.604,9.739,4.813c2.564,5.49,4.876,3.709,6.781,0.673
		c0.343-0.548,0.675-1.138,0.991-1.731c0.5-0.939,0.964-1.892,1.39-2.719v5.352c-3.222,0.646-2.913,5.643,0.371,5.879
		c-0.025,0-0.16-0.001-0.371,0c-0.264,0-17.825-0.002-18.466,0c3.691-0.322,3.405-6.043-0.338-5.971
		c-3.742-0.072-4.029,5.65-0.336,5.971h-18.845c3.692-0.32,3.405-6.043-0.337-5.971c-3.742-0.072-4.029,5.65-0.337,5.971h-18.845
		c3.692-0.321,3.406-6.043-0.337-5.971c-3.742-0.072-4.029,5.65-0.336,5.971h-18.534h-0.287
		C211.721,65.493,211.851,65.479,211.89,65.469 M206.859,68.299c0-1.291,1.397-1.198,1.758-1.198h83.944
		c1.186,0,1.064,2.396,0,2.396c-0.852,0-82.381,0.002-83.818,0C208.069,69.498,206.859,69.496,206.859,68.299 M209.276,72.124
		c0.104-0.29,0.236-0.598,0.449-1.012h80.834c1.031,0.535,4.399,11.057,4.399,11.057s-1.373,2.18-2.403,3.443
		c-0.313,0.549-1.374,0.728-1.815,0.293c-1.2-1.52-2.838-4.391-3.818-6.058c-1.157,1.505-2.777,5.841-4.56,6.362
		c-2.871-1.348-5.751-9.969-7.728-12.676c-1.956,3.403-4.396,8.77-6.687,12.131c-2.412,2.396-4.441-4.469-5.519-5.785
		c-1.567,1.658-2.434,5.979-4.835,6.279c-0.356-0.049-0.663-0.237-0.867-0.53c-2.258-3.351-4.708-8.593-6.601-12.05
		c-1.887,3.449-4.345,8.705-6.6,12.051c-0.203,0.292-0.511,0.48-0.865,0.529c-2.403-0.298-3.269-4.622-4.837-6.279
		c-1.049,1.262-3.104,8.188-5.518,5.785c-2.294-3.368-4.728-8.721-6.688-12.131c-1.978,2.708-4.851,11.318-7.727,12.676
		c-1.781-0.516-3.402-4.859-4.561-6.362c-2.959,4.671-4.582,10.328-7.613,1.942C206.472,78.745,209.247,72.192,209.276,72.124
		 M201.823,91.533c0.48-0.261,2.351-2.632,0.235-4.952l-0.205-6.964c0.373,0.672,0.747,1.376,1.121,2.079
		c0.935,1.752,1.881,3.502,2.884,4.777c1.466,1.869,3.05,2.711,4.884,1.028c0.801-0.735,1.648-1.946,2.556-3.771
		c0.874,1.797,1.7,3,2.485,3.742c1.871,1.764,3.507,0.877,4.99-1.056c1.052-1.372,2.027-3.269,2.952-5.118
		c0.641-1.281,1.258-2.541,1.859-3.583c0.391,0.685,0.802,1.496,1.233,2.358c0.997,1.992,2.105,4.264,3.327,5.936
		c1.397,1.912,2.944,3.023,4.641,2.021c0.107-0.066,0.219-0.129,0.317-0.211c0.003-0.003,0.007-0.007,0.011-0.01
		c0.892-0.662,1.824-1.911,2.798-3.957c0.904,1.959,1.78,3.186,2.629,3.866c0.319,0.257,0.634,0.44,0.946,0.548
		c0.023,0.008,0.046,0.019,0.069,0.025c1.511,0.471,2.919-0.714,4.211-2.531c1.231-1.734,2.354-4.041,3.359-6.048
		c0.348-0.696,0.683-1.356,1-1.942c0.417,0.748,0.851,1.614,1.303,2.519c0.978,1.956,2.042,4.099,3.199,5.692
		c1.55,2.135,3.266,3.268,5.159,1.631c0.813-0.704,1.66-1.91,2.541-3.785c1.088,2.203,2.105,3.495,3.063,4.127
		c1.684,1.108,3.178,0.15,4.527-1.637c1.114-1.475,2.131-3.506,3.073-5.4c0.585-1.177,1.144-2.301,1.679-3.201
		c0.346,0.634,0.71,1.357,1.091,2.121c1.005,2.014,2.128,4.307,3.357,6.021c1.288,1.794,2.691,2.951,4.199,2.461
		c0.001,0,0.003-0.001,0.004-0.002c0.275-0.09,0.553-0.238,0.833-0.443c0.02-0.012,0.037-0.021,0.055-0.035
		c0.033-0.025,0.066-0.059,0.099-0.086c0.864-0.693,1.758-1.953,2.682-3.971c0.824,1.721,1.608,2.883,2.36,3.618
		c0.601,0.586,1.178,0.899,1.737,0.983c0.032,0.004,0.066,0.013,0.099,0.017c1.203,0.124,2.316-0.786,3.363-2.175
		c1.154-1.529,2.229-3.639,3.252-5.594c0.217-0.413,0.431-0.819,0.643-1.211l0.04,6.693c-0.71,0.232-0.979,0.785-1.291,1.364
		c-0.496,0.917-0.496,2.092,0.001,3.009c0.313,0.578,0.58,1.078,1.29,1.311v1.435c-8.069-0.054-88.498-0.063-96.661-0.022V91.533z
		 M196.685,97.358c-0.457-0.002-0.713-0.385-0.739-0.646c-0.028-0.268-0.04-0.773-0.026-0.99c0,0,0-0.002,0-0.004
		c0,0,0-0.001,0-0.002c0-0.101,0-0.754,0.88-0.754h103.5c0.485,0,1.236,0,1.941,0c0.504,0.001,0.985,0.001,1.329,0l0,0
		c0.108-0.002,0.202,0.021,0.287,0.059c0.007,0.002,0.013,0.005,0.02,0.008c0.069,0.031,0.133,0.072,0.188,0.125
		c0.097,0.094,0.173,0.211,0.226,0.35c0.133,0.336,0.142,0.771,0.038,1.137c-0.075,0.266-0.209,0.494-0.397,0.617
		c-0.006,0.005-0.013,0.01-0.02,0.014c-0.026,0.016-0.056,0.025-0.085,0.037c-0.079,0.033-0.162,0.055-0.256,0.051l0,0
		c-0.654,0-1.439,0-2.193,0c-0.453,0-0.897,0-1.289,0C300.087,97.358,197.07,97.361,196.685,97.358 M291.026,109.488
		c-0.008,0.002-0.017,0.011-0.023,0.015l-0.011-0.015l-0.019,0.035c-0.168,0.155-1,1.86-1.079,2.013
		c-0.049,0.096-0.056,0.125,0.006,0.017c-0.605,1.238-2.993,6.91-4.929,4.276c-0.294-0.432-0.723-0.783-1.02-1.266
		c-0.05-0.082-0.102-0.166-0.151-0.248c-0.003-0.006-0.007-0.012-0.01-0.017c-0.696-1.151-1.396-2.417-2.089-3.718
		c-0.886-1.664-1.757-3.379-2.586-4.968c-0.438-0.839-0.863-1.64-1.273-2.382c-0.156-0.281-0.311-0.557-0.461-0.82
		c-0.754,1.025-1.688,2.979-2.715,5.118c-1.251,2.605-4.931,9.692-5.902,9.019c0,0.001-0.002,0.001-0.002,0.002
		c0-0.001-0.001-0.001-0.001-0.001c-1.062-0.101-2.854-3.211-3.564-4.514c-0.521-0.954-0.998-1.835-1.413-2.399l-0.105-0.184
		l-0.108,0.184c-0.412,0.563-0.888,1.44-1.407,2.391c-0.711,1.302-1.502,2.721-2.318,3.625c-0.413,0.457-0.833,0.789-1.252,0.896
		l0,0c-0.001,0-0.002,0-0.002-0.001c-0.583-0.195-1.227-0.831-1.895-1.732c-1.41-1.902-2.93-4.996-4.219-7.693
		c-0.957-2.008-1.788-3.797-2.351-4.709c-0.551,0.898-1.381,2.683-2.341,4.691c-1.292,2.703-2.82,5.811-4.23,7.717
		c-0.67,0.904-1.312,1.539-1.889,1.727c-0.001,0-0.002,0.001-0.004,0.001l0,0c-0.418-0.104-0.836-0.435-1.249-0.891
		c-0.816-0.902-1.605-2.319-2.317-3.622c-0.521-0.955-0.999-1.834-1.412-2.398l-0.107-0.184l-0.106,0.184
		c-0.413,0.564-0.889,1.441-1.407,2.393c-0.711,1.301-1.5,2.719-2.318,3.624c-0.412,0.458-0.831,0.791-1.25,0.896
		c0,0-0.001,0-0.002,0l0,0c-1.783-0.256-4.755-6.63-6.025-9.253c-0.703-1.451-1.372-2.803-1.997-3.824l-0.597-1.061l-0.057,0.104
		c-0.027-0.035-0.054-0.071-0.08-0.104c-0.45,0.908-0.956,1.93-1.496,3.004c-1.103,2.193-2.351,4.617-3.598,6.833
		c-0.754,1.341-1.509,2.607-2.227,3.692c-0.828,0.979-1.721,0.625-2.567-0.292c-0.709-0.964-1.76-2.8-2.541-4.22
		c-0.518-1.069-0.893-1.895-1.046-1.94c-0.113,0.054-0.316,0.392-0.584,0.888l-0.422,0.642c-0.151,0.231-0.354,0.604-0.635,1.12
		c-0.183,0.334-1.679,2.799-2.073,3.346c-0.464,0.507-0.938,0.857-1.399,0.947c-0.189,0.036-0.375,0.033-0.559-0.025
		c-0.236-0.076-0.467-0.238-0.689-0.504c-0.001-0.001-0.002-0.002-0.002-0.003c-1.56-2.05-2.711-3.755-3.472-5.411
		c-0.677-1.475-1.041-2.912-1.079-4.516c-0.047-1.957,0.379-4.162,1.295-6.998H300.61c0.073,0.242,0.142,0.499,0.21,0.754
		c0.06,0.219,0.116,0.44,0.172,0.668c0.024,0.099,0.048,0.199,0.071,0.301c0.046,0.195,0.092,0.386,0.135,0.585
		c0.221,1.02,0.403,2.093,0.545,3.171c0.025,0.193,0.051,0.387,0.072,0.58c0.022,0.195,0.043,0.389,0.063,0.583
		c0.039,0.396,0.071,0.786,0.098,1.173c0.002,0.035,0.006,0.071,0.008,0.107c0.031,0.498,0.053,0.998,0.064,1.498
		c-0.001,0-0.001,0-0.001,0.002c-0.216,0.393-0.419,0.77-0.617,1.139c-0.464,0.863-0.926,1.727-1.4,2.584
		c-0.025,0.039-1.212,2.143-1.575,2.734c-0.341,0.502-0.661,0.889-0.979,1.163c-0.279,0.188-0.599,0.362-0.762,0.395
		c-0.16,0.026-0.323,0.042-0.487,0.048c-0.664-0.111-1.389-0.766-2.29-2.041c-0.766-1.082-1.66-2.612-2.757-4.645l0.37,0.563
		C291.258,109.864,291.026,109.488,291.026,109.488 M195.813,124.21v-2.413c0.121-0.094,0.217-0.209,0.316-0.321
		c0.086-0.098,0.163-0.198,0.234-0.308c0.063-0.098,0.125-0.195,0.176-0.299c0.02-0.043,0.042-0.082,0.06-0.125
		c0.315-0.75,0.315-1.639,0-2.389c-0.018-0.043-0.04-0.082-0.06-0.123c-0.051-0.105-0.113-0.203-0.176-0.301
		c-0.071-0.108-0.148-0.209-0.234-0.308c-0.1-0.112-0.195-0.228-0.316-0.321v-8.789c0.387,0.722,0.767,1.464,1.145,2.203
		c1.062,2.084,2.1,4.146,3.19,5.686c1.771,2.498,3.686,3.596,6.075,1.131c0.873-0.901,1.809-2.268,2.826-4.229
		c0.759,1.661,1.49,2.882,2.197,3.743c0.471,0.574,0.933,0.988,1.38,1.26c0.59,0.356,1.158,0.469,1.709,0.389
		c0.999-0.146,1.934-0.928,2.806-2.054c1.313-1.692,2.483-4.153,3.522-6.38c0.762-1.627,1.451-3.126,2.073-4.105
		c0.568,0.875,1.223,2.373,1.971,4.035c0.962,2.136,2.076,4.542,3.36,6.246c1.594,2.116,3.447,3.146,5.588,1.233
		c0.92-0.822,1.893-2.185,2.921-4.242c0.369,0.731,0.982,1.886,1.755,2.937c0.72,0.979,1.576,1.867,2.5,2.238
		c0.647,0.262,1.329,0.264,2.019-0.133c0.02-0.011,0.039-0.024,0.059-0.035c0.134-0.082,0.264-0.185,0.404-0.291
		c3.551-2.703,6.808-11.404,6.813-11.418c0.559,0.877,1.189,2.301,1.901,3.865c0.896,1.971,1.923,4.164,3.098,5.777
		c0.726,0.994,1.506,1.765,2.348,2.127c0.49,0.211,1.001,0.283,1.534,0.178c0.7-0.139,1.438-0.583,2.215-1.419
		c0.778-0.839,1.597-2.067,2.456-3.777c0.774,1.62,1.521,2.805,2.24,3.639c0.734,0.851,1.438,1.333,2.115,1.519
		c0.473,0.131,0.931,0.119,1.375-0.01c0.872-0.252,1.689-0.954,2.454-1.903c1.309-1.626,2.462-3.976,3.46-6.044
		c0.78-1.616,1.467-3.06,2.059-3.846c0.444,0.689,0.981,1.822,1.602,3.121c0.925,1.937,2.034,4.244,3.298,6.008
		c0.985,1.377,2.065,2.422,3.225,2.7c0.012,0.001,0.021,0.005,0.031,0.006c0.003,0,0.007,0,0.009,0.001
		c0.564,0.126,1.147,0.073,1.748-0.215c0.488-0.234,0.989-0.622,1.5-1.191c0.724-0.809,1.469-1.977,2.232-3.588
		c0.765,1.5,1.494,2.607,2.194,3.401c0.597,0.677,1.173,1.12,1.728,1.364c0.607,0.268,1.189,0.301,1.754,0.148
		c1.027-0.276,1.99-1.16,2.913-2.365c1.23-1.607,2.388-3.772,3.525-5.796c0.436-0.775,0.868-1.53,1.302-2.224v8.654
		c-0.626,0.264-1.07,0.727-1.348,1.273c-0.441,0.875-0.441,1.966,0.002,2.84c0.276,0.547,0.722,1.01,1.346,1.271v1.968v0.196
		H195.813V124.21z M193.3,128.221c-0.235,0.004-0.396-0.078-0.513-0.204c-0.153-0.165-0.227-0.41-0.253-0.672
		c-0.026-0.267-0.013-0.546,0-0.762c0-0.001,0-0.003,0-0.003c0-0.002,0.001-0.002,0.001-0.005c0.004-0.231,0.085-0.392,0.207-0.505
		c0.173-0.161,0.434-0.226,0.709-0.246c0.252-0.02,0.512-0.007,0.726,0h0.002h111.896c0.177-0.006,0.436-0.018,0.693,0
		c0.208,0.014,0.414,0.049,0.583,0.126c0.234,0.108,0.394,0.297,0.367,0.626c0,0.002,0,0.002,0,0.004
		c-0.041,0.365,0.034,0.907-0.121,1.268c-0.097,0.223-0.282,0.377-0.643,0.373c-0.001,0-0.001,0-0.002,0H193.3 M213.368,129.834
		h22.855c0.447,11.18-1.079,18.93-2.617,30.438h-7.083l-16.186-11.815C211.355,143.481,212.801,133.588,213.368,129.834
		 M164.808,141.901c-3.903-2.705-3.656-2.514-5.945-4.234c-0.423,0.141-5.599,7.804-5.599,7.804l5.883,4.188l-8.777,12.027
		l-3.918-2.791l5.611-7.689l-8.322-5.928l-5.612,7.691l-7.156-5.096c0,0,5.605-7.803,6.828-9.381l5.746,4.091l6.078-8.306
		c0,0-4.065-2.955-5.746-4.092l4.1-5.617c-5.087-3.613-9.293-6.617-9.293-6.617s-2.248,3.521-4.1,5.617
		c-5.269-3.761-6.298-4.484-6.298-4.484s-3.602,5.006-6.474,8.872l6.299,4.484l-6.433,8.815l-7.687-5.475l5.583-7.712l-7.404-5.271
		l-5.719,7.614c-1.411-0.993-4.294-3.059-4.294-3.059l8.777-12.027l7.017,4.996l5.661-7.759l-7.016-4.996l4.552-6.238
		c1.217,0.838,3.461,2.416,6.341,4.455l3.517,2.471l10.337,7.389c8.204,5.854,16.988,12.139,22.772,16.273
		c2.294,1.641,4.117,2.945,5.242,3.748C169.358,135.667,167.57,138.264,164.808,141.901 M119.252,97.188
		c-0.549-0.488,4.724-6.547,5.077-6.658c0.235,0.166,0.517,0.366,0.821,0.58l1.037,0.732c0.039,0.027,0.079,0.056,0.119,0.084
		c0.839,0.593,1.84,1.298,2.974,2.1c2.085,1.472,4.637,3.273,7.554,5.332c0.667,0.471,1.357,0.957,2.061,1.455
		c0.921,0.648,1.868,1.318,2.846,2.008c0.65,0.459,1.313,0.926,1.985,1.4c1.77,1.25,3.614,2.553,5.522,3.898
		c0.87,0.615,1.752,1.237,2.648,1.869c4.231,2.987,8.715,6.152,13.295,9.385c1.233,0.871,2.473,1.746,3.718,2.624
		c5.802,4.096,11.685,8.247,17.342,12.241c0.742,0.523,1.478,1.043,2.211,1.561l1.095,0.771
		c7.413,5.234,14.311,10.103,19.957,14.088c6.995,4.938,12.072,8.521,13.811,9.748l-14.614-0.134L119.252,97.188z M336.714,279.594
		c-1.079,18.264-7.99,29.83-22.03,41.596c-11.736,9.834-63.657,34.424-63.743,34.43c-0.212,0.012-54.282-24.375-66.032-34.355
		c-13.585-11.541-21.769-24.514-21.814-44.432c-0.041-17.084,0.18-33.291,0.181-41.295c9.125-6.638,14.011-9.417,23.499-15.552
		c4.327-2.799,10.027-5.649,15.667-5.572c7.284,0.102,13.785,3.379,18.503,6.619c5.611,3.854,11.282,10.701,18.461,11.343
		c4.813,0.433,8.959-1.603,12.882-4.151c3.479-2.262,6.954-4.789,11.035-5.605c4.847-0.971,9.914,0.654,14.088,3.275
		c5.738,3.602,7.963,6.641,11.9,9.953c2.315,1.947,10.382,6.74,19.66,5.803c4.753-0.479,8.75-2.662,13.064-4.486
		c4.35-1.838,10.284-1.492,14.915-0.395C337.33,236.859,337.345,268.904,336.714,279.594 M335.963,233.827
		c-4.341-0.85-10.216-0.23-14.511,1.153c-2.306,0.743-4.415,1.901-6.589,2.944c-5.205,2.492-13.156,1.696-17.315,0.082
		c-4.386-1.703-7.295-3.398-10.417-6.366c-6.917-6.581-14.071-13.39-25.855-10.858c-3.59,0.77-6.557,2.77-9.426,4.705
		c-3.932,2.65-7.639,5.16-12.846,4.692c-4.072-0.362-8.467-3.937-12.718-7.393c-3.069-2.495-6.242-5.075-9.353-6.483
		c-11.108-5.029-17.78-5.789-28.422,0.115c-3.011,1.67-20.007,12.586-25.522,16.137c0.005-11.576,0.02-23.139,0.031-33.598
		c0.02-16.722,0.034-30.275,0.01-35.471h174.117c-0.025,5.195-0.01,18.749,0.009,35.471c0.013,10.928,0.026,23.06,0.033,35.153
		C336.779,234.016,336.367,233.907,335.963,233.827 M357.03,250.725c6.538-3.4,11.078,2.564,7.048,8.385
		c-2.595,2.576-9.453,11.289-13.551,10.783C337.224,267.775,351.495,253.75,357.03,250.725 M352.092,251.668
		c-2.229,1.885-4.015,3.475-5.875,5.76c-2.13-1.508-5.779-3.703-5.779-3.975l-0.096-9.886
		C343.904,246.122,348.693,249.223,352.092,251.668 M410.824,179.182c0.626-0.814,2.461-1.484,3.064-0.864
		c4.855,2.14-29.888,38.726-24.088,23.011C396.716,195.008,405.441,187.239,410.824,179.182 M409.646,173.299
		c4.694,4.573-15.33,21.703-19.48,25.092c-0.902,0.609-2.792,1.865-3.789,0.135c-1.145-1.046,4.549-5.387,5.124-5.928
		c6.774-6.382,11.029-11.856,16.541-19.185C408.291,173.081,408.537,172.219,409.646,173.299 M406.18,167.377
		c4.38,3.292-5.822,13.475-6.429,14.086c-0.999,1.045-16.647,19.268-16.081,11.19c9.557-9.397,11.408-10.31,19.43-22.369
		C403.687,169.401,404.696,167.067,406.18,167.377 M401.131,163.395c9.637,1.299-14.466,24.186-18.111,26.572
		c-1.811,1.254-4.088-1.135-2.827-2.086C391.773,178.229,391.43,177.751,401.131,163.395 M398.072,157.014
		c5.854,5.963-9.33,20.701-16.261,27.287c-1.143,0.869-2.285,2.807-4.001,0.846c-0.736-1.176-1.124-1.615,0.654-3.109
		c1.928-1.617,5.011-5.51,6.966-7.804c4.255-4.993,8.947-13.149,10.191-15.734C396.65,156.364,397.559,156.85,398.072,157.014
		 M391.233,151.983c5.815,1.914,1.582,8.711,0.293,10.678c-0.359,1.057-13.007,18.435-15.449,18.377
		c-0.563,0.023-1.963-2.024-1.675-2.962c0.302-0.979,2.993-2.99,3.899-4.117C393.561,154.969,389.008,151.25,391.233,151.983
		 M381.753,155.749c0.927-2.432,2.014-9.889,3.954-9.463c3.009,0.66,3.002,2.324,3.009,4.677
		c0.019,7.042-6.896,16.492-11.583,21.558c-1.76,1.9-5.349,6.279-6.017,1.879C375.265,169.168,379.303,162.186,381.753,155.749
		 M364.733,176.432c0.97-0.937,3.991-2.167,4.777-0.784c0,0,16.006,26.399,18.967,30.729c3.021,6.009-4.477,10.701-9.332-0.771
		l-16.318-25.528C362.046,178.09,364.377,176.776,364.733,176.432 M362.682,183.732c0.471,0.788,16.282,25.286,15.916,25.167
		c-11.923,5.824-25.036,7.367-38.461,5.553c-0.009-8.477-0.02-16.576-0.027-24.719C347.268,189.18,358.081,187.454,362.682,183.732
		 M340.118,275.73c0.018-5.854,0.026-12.225,0.032-18.873c2.14,1.301,4.695,2.926,4.396,2.848
		c-5.009,6.223,1.712,14.732,8.963,11.809l0.857,6.801c-2.144,0.727-11.979,1.545-14.287-0.299
		C340.102,277.262,340.116,276.502,340.118,275.73 M340.341,289.225c-0.255-0.053-1.399-0.518-1.399-0.518
		c0.704-3.627,0.852-5.02,1.175-8.24c1.028,0.271,1.497,0.816,5.669,0.971C346.1,286.125,341.965,283.779,340.341,289.225
		 M350.156,284.559c-1.786,2.193-1.685,4.191-0.561,6.398c-3.447-0.074-4.921-0.395-7.478-1.107c1.916-4.93,4.836-1.408,5.578-8.512
		c0.644-0.072,1.375-0.18,2.165-0.309C350.058,282.016,350.94,283.596,350.156,284.559 M352.069,290.676
		c-3.866-5.018,2.828-4.309,0.058-9.984c1.083-0.197,1.35-0.117,2.471-0.338c0.217,1.912,0.45,4.355,1.198,9.273
		C354.816,289.885,353.731,290.4,352.069,290.676 M321.435,356.15l-1.496,0.24c-0.231-0.48-0.623-0.961-1.069-1.441l14.102-9.701
		l-15.703,8.076c-0.203-0.232-0.408-0.447-0.596-0.66c-0.338-0.379-0.611-0.746-0.727-1.154c-0.087-0.309-0.088-0.639,0.064-1.023
		l17.174-8.605l-15.963,5.994c-0.176-0.328-0.694-0.713-1.261-1.152c-0.692-0.537-1.449-1.158-1.753-1.867
		c-0.158-0.369-0.199-0.762-0.032-1.178l17.741-4.727l-17.83,2.49c-0.705-0.475-1.195-0.787-1.504-1.061
		c-0.402-0.361-0.488-0.662-0.338-1.184c0.101-0.354,0.306-0.803,0.602-1.443l17.499-2.98l-17.936,0.869
		c-0.218-0.275-0.504-0.559-0.894-0.844l0.682-0.809c6.914-1.076,13.536-2.789,20.206-4.193c-0.201,0.998-0.033,2.199,0.37,3.498
		c0.558,1.793,1.572,3.768,2.706,5.625c1.391,2.277,2.954,4.377,4.071,5.76c0.225,0.275,0.432,0.527,0.614,0.74
		C333.914,348.992,327.631,352.51,321.435,356.15 M342.323,344.178c-0.259-0.289-0.563-0.637-0.893-1.031
		c-1.14-1.355-2.629-3.273-3.927-5.334c-1.085-1.723-2.035-3.539-2.538-5.205c-0.364-1.209-0.492-2.338-0.265-3.291
		c0.738-0.146,1.482-0.268,2.224-0.4c-0.134,1.098,0.228,2.441,0.87,3.867c0.752,1.668,1.891,3.447,3.081,5.072
		c1.477,2.016,3.031,3.797,4.026,4.836C344.043,343.189,343.182,343.682,342.323,344.178 M347.372,341.26
		c-0.079-0.078-0.161-0.16-0.246-0.246c-0.023-0.021-0.049-0.049-0.072-0.072c-1.052-1.064-2.573-2.713-3.981-4.531
		c-1.089-1.406-2.109-2.912-2.787-4.324c-0.648-1.352-0.986-2.613-0.773-3.621c0.979-0.154,1.965-0.277,2.951-0.4
		c-0.181,1.211,0.202,2.543,0.898,3.865c0.872,1.654,2.236,3.293,3.619,4.666c1.232,1.225,2.477,2.236,3.394,2.854
		C349.371,340.051,348.379,340.666,347.372,341.26 M352.811,337.98c-0.96-0.563-2.201-1.451-3.412-2.525
		c-1.303-1.156-2.568-2.523-3.408-3.93c-0.75-1.258-1.16-2.543-0.951-3.734c1.098-0.1,2.193-0.205,3.306-0.254
		c-0.002,0.514,0.032,0.98,0.085,1.43c0.144,1.234,0.481,2.232,0.984,3.066c0.766,1.273,1.901,2.17,3.284,2.939
		c1.19,0.547,2.343,0.91,2.842,1.365C354.639,336.898,353.719,337.43,352.811,337.98 M357.939,334.826
		c-0.447-0.238-1.235-0.443-2.104-0.713c-1.192-0.332-2.537-0.783-3.292-1.711c-0.374-0.391-0.652-0.854-0.764-1.422
		c0.826,0.35,1.505,0.451,2.118,0.488l0.365-0.027c0.419-0.072,1.029-0.105,1.907,0.242c0.845,0.248,1.778,0.848,3.049,2.338
		C358.795,334.293,358.364,334.557,357.939,334.826 M361.178,332.746c-0.439-0.709-0.946-1.221-1.497-1.607
		c-0.968-0.678-2.071-0.957-3.192-1.17c-0.835-0.035-1.646-0.006-2.899-0.592c-0.133-0.061-0.256-0.129-0.379-0.193
		c-0.87-0.355-1.67-0.906-2.331-1.85c0.543-0.242,1.135-0.541,1.762-0.879c1.798,0.023,3.034,0.346,4.023,0.852
		c1.153,0.592,1.973,1.434,2.932,2.355c0.762,0.734,1.614,1.516,2.806,2.262C361.992,332.197,361.589,332.477,361.178,332.746
		 M364.272,330.666c-1.24-0.467-2.178-1.133-3.022-1.844c-0.975-0.82-1.825-1.705-2.872-2.422c-0.903-0.617-1.951-1.111-3.353-1.332
		c0.938-0.494,1.731-0.813,2.412-0.99c1.314-0.342,2.202-0.15,2.886,0.322c0.313,0.131,0.594,0.297,0.819,0.521
		c0.366,0.367,0.579,0.838,0.824,1.383c0.061,0.131,0.124,0.271,0.191,0.412c0.595,0.959,1.248,1.932,2.328,2.51
		c0.369,0.197,0.788,0.35,1.273,0.439C365.268,330.006,364.766,330.328,364.272,330.666 M368.24,327.926
		c-5.759-0.283-3.081-4.738-8.508-5.979c1.058-0.742,2.122-1.506,3.184-2.287c5.858-0.316,3.435,4.666,9.743,5.096
		C371.026,325.93,369.5,327.025,368.24,327.926 M375.159,322.961c-7.114,0.242-4.679-4.268-9.765-5.152
		c0.49-0.369,0.982-0.74,1.456-1.105c1.443,0.482,4.251,1.252,5.389,1.389c1.646,0.602,2.59,3.127,4.864,3.477
		C376.46,322.029,375.81,322.494,375.159,322.961 M379.539,319.699c-5.315-0.656-5.121-4.586-10.869-4.404
		c2.096-2.891,8.804-2.346,9.143-0.941c0.514,1.162,2.757,3.186,4.296,3.16C381.247,318.289,380.314,319.068,379.539,319.699
		 M368.232,312.887c1.246-1.342,1.683-2.781,1.95-4.91l3.492,0.637C373.546,308.75,369.672,311.816,368.232,312.887 M384.35,315.223
		c-4.49,1.598-2.628-4.109-10.698-3.756c1.058-0.811,1.77-1.574,2.464-2.164c6.028-0.936,5.356,1.998,10.413,2.977
		C385.874,313.342,385.131,314.314,384.35,315.223 M388.087,309.281c-3.431,1.273-4.459-3.158-10.278-1.84
		c0.567-0.748,1.136-1.682,1.566-2.799c4.032-1.596,6.213,2.697,10.019,0.676C389.079,306.682,388.639,308.012,388.087,309.281
		 M368.945,288.996c-0.384-2.49-1.03-7.871-1.204-8.824c1.688,0.33,2.863,0.814,4.336,1.248c0.793,0.646,0.623,2.709,0.104,3.16
		C370.473,286.58,368.509,286.061,368.945,288.996 M369.085,289.73c-0.009-0.002-0.014-0.002-0.021-0.006
		c-0.029-0.16-0.063-0.361-0.097-0.58C368.998,289.328,369.035,289.521,369.085,289.73 M374.655,282.266
		c2.344,0.855,4.36,1.852,6.106,2.951c0.059,4.885-7.136-0.258-6.985,6.262c-0.993-0.463-1.962-0.836-2.776-1.121
		c-0.083-0.975,0.099-2.258,0.326-2.65C372.57,286.576,375.901,285.494,374.655,282.266 M376.53,295.916
		c-1.689-0.225-4.226-0.543-6.496-0.725c-0.153-0.891-0.337-1.932-0.538-3.061C373.75,293.541,375.676,294.902,376.53,295.916
		 M375.888,292.615c-0.744-5.932,6.213,0.205,6.492-6.287c1.041,0.775,1.957,1.598,2.765,2.451
		c-1.281,5.529-5.559,1.803-8.112,4.787C376.578,293.131,376.169,292.816,375.888,292.615 M385.647,292.48
		c0.202-0.162,1.104-1.006,1.395-1.32c1.119,1.672,1.888,3.43,2.346,5.223c-2.868,2.734-6.962-1.52-9.692,1.529
		c-0.271-0.967-0.813-2.045-1.357-2.805C380.274,292.906,383.031,294.625,385.647,292.48 M389.839,302.566
		c-3.619,2.693-6.325-2.139-9.979,0.381c0.171-0.744,0.221-1.15,0.242-2.191c2.101-4.066,6.355,0.408,9.685-2.281
		C389.96,299.84,389.964,301.209,389.839,302.566 M367.768,278.158c-0.141-0.029-0.493-5.371-0.799-7.256l24.462,0.732
		c1.737,9.078,3.859,20.885,4.516,25.98l-4.19-0.609C389.734,288.787,385.145,282.029,367.768,278.158 M418.893,305.133
		c-1.012,4.127-11.033,14.148-15.473,14.18c-4.27,0-7.139-6.566-3.728-9.377c-2.557-0.633-6.229-1.043-8.527-1.578
		c0.873-2.701,1.105-6.201,0.891-9.133l6.258,0.914c0.273-2.98-5.054-30.525-5.054-30.525l-28.719-0.961
		c0,0,2.67,22.662,3.627,28.588c2.459,0.043,7.337,0.703,9.112,0.953c1.057,2.762-0.304,6.75-1.891,8.742l-7.279-1.111
		c0.421,19.324-27.114-11.359-8.97-8.527c-0.855-6.377-3.489-26.395-3.489-26.395l11.317-11.039l26.415,0.838
		c-0.79-18.671,27.915,9.848,9.245,8.887c0.641,8.879,3.365,21.135,5.251,31.316C411.966,297.045,419.895,298.676,418.893,305.133"
		/>
	<path fill="#999999" d="M248.865,341.352c-4.398-1.096-8.679-2.699-12.724-4.768c-2.218-0.193-5.586-0.619-7.811-0.941
		c0.014-0.006,0.029-0.014,0.043-0.02c-0.728-0.115-2.344-0.367-2.636-0.418l0.001,0.002c-0.534-0.098-2.358-0.43-2.89-0.533
		c0.676,0.559,1.396,1.072,2.134,1.561c0,0,0.873,0.604,1.319,0.824c2.469,1.457,5.162,2.639,7.812,3.789
		c0.241,0.105,0.482,0.209,0.721,0.314c4.364,1.9,10.144,4.094,16.14,4.174c5.387,0.072,9.364-0.48,12.895-1.795
		c0.394-0.145,0.78-0.301,1.167-0.455c-0.575,0.018-1.149,0.031-1.725,0.031C258.431,343.117,253.589,342.525,248.865,341.352"/>
	<path fill="#999999" d="M262.615,337.674c-4.047,0-7.806-0.697-10.475-1.189l-0.284-0.053c-2.194,0.355-4.749,0.537-7.648,0.537
		c-1.776,0-3.685-0.068-5.711-0.203c3.401,1.582,6.949,2.844,10.582,3.748c5.938,1.477,12.066,2.012,18.223,1.6
		c2.987-1.373,5.784-3.018,8.341-4.92c1.259-0.938,2.473-1.895,3.501-3.031c-4.298,1.777-8.806,2.912-13.438,3.367
		C264.665,337.629,263.631,337.674,262.615,337.674"/>
	<path fill="#999999" d="M278.182,325.273c-0.181,0.135-0.845,0.629-1.805,1.285c-1.131,0.775-2.414,1.652-3.777,2.336
		c-0.067,0.033-0.138,0.066-0.204,0.102c1.389-0.453,2.754-0.967,4.088-1.551c0.937-0.41,1.859-0.859,2.769-1.336
		c1.047-0.551,2.074-1.139,3.073-1.766c-0.008-0.166-0.012-0.334-0.025-0.492l0,0c-0.06-0.627-0.184-1.154-0.36-1.582
		c-0.039-0.092-0.076-0.186-0.121-0.27c-0.05,0.045-0.102,0.096-0.151,0.141l-0.44,0.414c-0.208,0.195-0.413,0.381-0.625,0.584
		C279.845,323.863,279.062,324.615,278.182,325.273"/>
	<path fill="#999999" d="M240.528,323.189c-0.285-0.1-0.56-0.199-0.823-0.303c-0.01,0.16-0.023,0.385-0.051,0.652
		c-0.117,1.15-0.391,2.57-0.803,3.564c-0.08,0.191-0.173,0.391-0.271,0.584c-0.214,0.553-0.48,1.078-0.79,1.578
		c0.412,0.125,0.824,0.246,1.236,0.369c0.365,0.109,0.73,0.217,1.095,0.324c-0.107-1.975,0.441-4.32,1.384-6.455
		C241.188,323.408,240.862,323.303,240.528,323.189"/>
	<path fill="#999999" d="M226.604,317.457c-0.006-0.049-2.002,0.209-2.921,0.443c-1.728,0.441-3.341,1.41-3.777,1.678
		c0.236,0.439,0.533,0.918,0.906,1.41c0.779,1.029,1.622,1.764,2.314,2.268c0.068-0.369,0.201-0.922,0.471-1.553
		c0.215-0.5,0.807-1.568,1.592-2.598c0.111-0.146,0.227-0.297,0.344-0.445c0.163-0.23,0.297-0.408,0.372-0.496
		c0.228-0.258,0.459-0.486,0.686-0.689l0,0c0.003-0.002,0.006-0.008,0.01-0.01C226.601,317.463,226.604,317.461,226.604,317.457"/>
	<path fill="#999999" d="M278.03,319.928c-0.656,0.027-1.146,0.088-1.65,0.205c-0.24,0.055-0.438,0.113-0.579,0.156
		c0.003,0.006,0.006,0.012,0.009,0.018c0.433,0.434,0.864,1.553,0.909,1.65c0.021,0.047,0.422,0.965,0.545,2.018
		c0.665-0.451,1.209-0.865,1.62-1.193c0.532-0.426,0.84-0.695,1.746-1.484c0.376-0.328,0.472-0.445,0.671-0.611
		c-0.42-0.35-0.747-0.543-1.459-0.67C279.345,319.928,278.796,319.898,278.03,319.928"/>
	<path fill="#999999" d="M209.506,287.609c0-0.027,0.096-2.961,0.942-3.41c0.195-0.105,0.412-0.09,0.609,0.047
		c0.29,0.197,0.654,0.795,0.639,1.156c-0.008,0.18-0.021,0.393-0.036,0.637c-0.063,1.041-0.162,2.611-0.028,4.668
		c0.523,8.014,2.79,16.945,6.382,25.152c0.064,0.15,0.116,0.266,0.147,0.361c0.337,0.592,0.764,1.461,0.987,1.928
		c0.218-0.16,0.511-0.365,0.705-0.477c0.27-0.152,0.964-0.459,1.353-0.629c-2.651-5.951-4.014-16.219-4.366-20.881
		c-0.645-8.484-0.242-8.881-0.05-9.07c0.35-0.348,0.646-0.336,0.834-0.26c0.729,0.283,0.937,2.014,1.021,4.525
		c0.175,5.186,0.457,8.721,0.943,11.818c0.61,3.898,3.129,11.695,3.628,13.219c2.218-0.592,3.201-0.557,3.804-0.529
		c0.043,0,0.083,0.002,0.122,0.004l-0.072-0.326c-1.119-5.078-3.204-14.527-2.645-19.492c0.028-0.256,0.049-0.527,0.069-0.789
		c0.078-1.004,0.134-1.73,0.571-1.891c0.18-0.074,0.396-0.029,0.582,0.117c0.386,0.295,0.741,1.098,0.579,2.455
		c-0.441,3.711,1.647,14.5,2.956,19.576c0.116-0.047,0.224-0.098,0.428-0.227c0.34-0.217,1.494-1.023,2.038-2.309
		c0.181-0.426,0.183-0.627,0.186-1.293c0.001-0.207,0.004-0.461,0.01-0.766c-0.058-0.721-0.056-1.453,0.013-2.271
		c0.012-1.533,1.166-3.291,1.752-3.842c0.2-0.191,0.474-0.396,0.7-0.535c-0.78-2.965-1.562-6.389-1.665-9.73
		c-0.861,0.838-2.146,2.037-2.524,2.127c-0.662,0.158-1.262-0.264-1.657-0.594c-1.375-1.152-2.464-2.619-3.166-4.26
		c-0.41,0.293-0.929,0.459-1.477,0.463c-0.711-0.018-1.371-0.256-1.82-0.725c-0.436-0.453-0.665-1.035-0.846-1.545
		c-0.304-0.855-0.502-1.746-0.694-2.607c-0.151-0.688-0.309-1.395-0.519-2.072c-0.147,0.074-0.331,0.172-0.494,0.26
		c-1.159,0.615-1.587,0.811-1.87,0.697c-0.378-0.145-0.642-0.773-0.901-1.461l-0.07-0.186c-0.243-0.592-0.476-1.672-0.7-2.715
		c-0.105-0.494-0.207-0.971-0.3-1.332c-2.67,2.57-4.675,3.352-5.902,3.551c-0.028,0.004-2.865,0.418-3.24-0.123
		c-0.081-0.117-0.084-0.262-0.009-0.389c0.387-0.65,0.623-1.123,0.769-1.461c-0.912,0.717-2.451,1.48-5.015,0.68
		c-0.38-0.119-0.649-0.242-0.824-0.381c-0.349,0.313-0.981,0.83-1.507,0.99c-1.434,0.441-2.335,0.402-2.758-0.117
		c-0.257-0.316-0.266-0.738-0.188-1.125l-1.25,0.986c0.584,4.697,1.453,9.367,2.585,13.887c1.251,4.99,2.486,8.504,3.112,10.15
		c0.736,1.945,1.744,4.609,3.539,7.9c1.101,2.018,2.341,3.984,3.688,5.852c0.475-0.936,1.445-2.869,1.702-3.381
		c-0.703-1.449-6.968-14.719-7.411-28.627c-0.097-1.494-0.22-5.033,0.698-5.43c0.061-0.023,0.134-0.045,0.218-0.045
		c0.163,0,0.368,0.074,0.597,0.313l0.054,0.082c0.219,0.49,0.223,0.787,0.229,1.504c0.012,1.238,0.036,3.811,1.132,11.146
		c0.807,5.395,2.663,11.568,5.843,19.424c0.209,0.551,0.913,2.332,1.688,3.527c0.188,0.291,1.102,1.672,1.96,2.438
		c0.619-0.988,1.257-1.918,2.063-2.615C215.597,316.021,209.812,304.023,209.506,287.609"/>
	<path fill="#999999" d="M303.111,282.266c0.019,0.24-0.023,0.482-0.173,0.689c-0.382,0.531-1.287,0.635-2.767,0.322
		c-0.519-0.107-1.363-0.629-1.888-0.977c-0.055,0.143-0.152,0.313-0.33,0.486c-0.505,0.49-2.021,0.701-3.591,0.182
		c-0.56-0.184-1.087-0.445-1.578-0.787c0.182,0.363,0.441,0.838,0.809,1.455c0.074,0.127,0.07,0.271-0.011,0.389
		c-0.375,0.541-3.211,0.127-3.24,0.123c-2.678-0.434-4.911-2.523-5.983-3.527c-0.068-0.064-0.138-0.129-0.203-0.189
		c-0.091,1.154-0.39,3.066-0.703,4.184c-0.005,0.014-0.419,1.459-0.984,1.678c-0.277,0.105-0.71-0.084-1.868-0.699
		c-0.163-0.088-0.348-0.186-0.496-0.26c-0.211,0.68-0.367,1.389-0.52,2.076c-0.191,0.859-0.39,1.75-0.692,2.604
		c-0.182,0.51-0.411,1.094-0.846,1.547c-0.444,0.461-1.099,0.723-1.798,0.723h-0.022c-0.547-0.004-1.064-0.168-1.476-0.463
		c-0.704,1.641-1.792,3.107-3.167,4.262c-0.394,0.328-0.996,0.752-1.658,0.592c-0.376-0.092-1.654-1.283-2.516-2.119
		c-0.011,1.215-0.05,2.203-0.219,3.148c-0.556,3.131-1.138,5.014-1.595,6.307c0.26,0.164,0.418,0.299,0.426,0.307
		c0.264,0.225,0.454,0.451,0.543,0.566c0.193,0.244,0.766,1.088,1.025,1.725c0.398,0.969,0.607,1.996,0.677,3.326
		c0.036,0.736,0.039,1.244,0.041,1.613c0.004,0.668,0.006,0.867,0.186,1.291c0.296,0.697,0.743,1.18,1.188,1.566l0.398-1.387
		c1.604-5.566,4.025-13.977,3.737-17.082c-0.129-1.385,0.226-2.18,0.601-2.461c0.181-0.135,0.385-0.172,0.563-0.104
		c0.355,0.131,0.601,0.645,0.641,2.707c0.067,3.451-2.396,12.293-3.869,17.574c-0.187,0.668-0.357,1.283-0.508,1.83
		c0.151,0.072,0.363,0.178,0.626,0.326c0.559,0.314,1.601,0.9,2.586,2.023c0.217,0.246,0.452,0.588,0.66,0.891l0.008,0.012
		l0.205-0.025c1.747-3.318,4.668-13.26,5.129-15.545c0.604-2.992,0.766-6.617,0.941-11.807c0.086-2.512,0.293-4.242,1.021-4.527
		c0.185-0.074,0.481-0.086,0.833,0.262c0.193,0.191,0.595,0.586-0.05,9.07l-0.064,0.912c-0.288,4.102-0.611,8.75-5.736,21.461
		c0.291-0.01,0.551-0.016,0.801-0.016c1.26,0,2.239,0.102,2.974,0.309c3.221-9.139,6.784-21.24,7.234-28.121
		c0.133-2.057,0.036-3.629-0.027-4.668c-0.017-0.246-0.028-0.457-0.036-0.635c-0.016-0.363,0.347-0.961,0.637-1.158
		c0.199-0.135,0.415-0.15,0.609-0.051c0.843,0.449,0.943,3.387,0.943,3.416c-0.204,10.896-3.898,21.375-6.597,29.025
		c-0.4,1.135-0.776,2.201-1.113,3.191c0.145,0.156,0.235,0.277,0.235,0.277c0.076,0.102,0.149,0.217,0.221,0.344
		c0.921-0.455,2.343-1.33,3.165-2.021c1.107-0.934,1.681-1.965,2.056-2.76c3.943-8.357,5.696-19.006,5.714-19.111
		c0.598-3.686,1.089-9.299,1.119-10.334c0.01-0.326,0.012-0.588,0.014-0.807c0.007-0.719,0.01-1.018,0.229-1.506l0.055-0.082
		c0.345-0.359,0.635-0.344,0.813-0.266c0.918,0.395,0.794,3.934,0.697,5.438c-0.443,13.916-6.723,27.203-7.411,28.623
		c0.118,0.219,0.365,0.512,0.605,0.797c0.155,0.186,0.315,0.379,0.463,0.57c0.276,0.365,0.583,0.752,0.771,0.988
		c0.99-0.904,3.135-4.107,3.554-4.838c1.649-2.861,2.563-5.299,3.298-7.256l0.24-0.639c0.628-1.66,1.867-5.189,3.112-10.15
		c0.649-2.592,1.85-7.867,2.649-14.26c-0.302-0.076-0.592-0.18-0.868-0.316C303.406,282.445,303.255,282.359,303.111,282.266"/>
	<path fill="#999999" d="M220.387,328.215c0.854,0.342,2.923,0.906,3.813,1.141c1.872,0.469,3.771,0.834,5.678,1.139
		c0.138,0.021,0.273,0.049,0.41,0.068c0.363,0.057,0.726,0.104,1.089,0.154c0.363,0.055,0.726,0.109,1.089,0.158
		c0.659,0.084,1.319,0.162,1.98,0.238c2.25,0.25,4.509,0.432,6.77,0.551c-1.372-0.33-2.782-0.699-4.348-1.111
		c-0.02,0.023-0.154-0.014-0.373-0.1c-0.337-0.088-0.697-0.188-1.069-0.289c-0.048-0.014-0.096-0.027-0.145-0.041
		c-0.196-0.055-0.395-0.111-0.601-0.17c-0.041-0.012-0.085-0.023-0.126-0.037c-0.355-0.102-0.726-0.211-1.106-0.328
		c-0.159-0.049-0.314-0.096-0.477-0.146c-0.146-0.045-0.294-0.094-0.442-0.139c-0.184-0.061-0.366-0.119-0.555-0.18
		c-0.146-0.049-0.293-0.098-0.441-0.146c-0.206-0.07-0.415-0.141-0.627-0.213c-0.142-0.049-0.281-0.098-0.425-0.148
		c-0.241-0.084-0.487-0.172-0.736-0.264c-0.124-0.043-0.246-0.088-0.372-0.135c-0.378-0.139-0.762-0.283-1.157-0.438
		c-0.061-0.023-0.125-0.049-0.188-0.074c-0.035-0.014-0.069-0.027-0.104-0.043c-0.004,0.004-0.007,0.006-0.011,0.008l-0.158-0.063
		c0.003-0.002,0.007-0.006,0.011-0.01c-0.045-0.018-0.091-0.035-0.136-0.053c-0.123-0.049-0.245-0.096-0.371-0.15
		c-1.018-0.42-2.095-0.916-3.188-1.543c-0.52-0.256-0.914-0.521-1.259-0.789c-0.406-0.271-0.811-0.559-1.212-0.875
		c-0.242-0.193-0.467-0.385-0.683-0.576c-0.251-0.223-0.482-0.443-0.7-0.668c-0.652-0.67-1.16-1.357-1.557-2.104
		c-0.195,0.545-0.393,1.096-0.574,1.65c-0.369,1.133-0.67,2.287-0.727,3.477c-0.008,0.168-0.086,0.473,0.011,0.607
		C217.666,326.98,219.769,327.969,220.387,328.215"/>
	<path fill="#999999" d="M258.07,333.625c0.199-0.098,0.393-0.213,0.591-0.314c-1.691,0.15-5.227,0.297-10.352-0.34
		c-0.715-0.09-1.389-0.189-2.045-0.293c-0.059-0.002-0.119-0.004-0.178-0.004c-3.514-0.025-7.255-0.24-10.873-0.613
		c-0.814-0.055-1.089-0.113-1.819-0.195c-0.382-0.047-0.763-0.094-1.144-0.143c-1.766-0.234-3.525-0.514-5.271-0.859
		c-0.886-0.176-1.788-0.363-2.688-0.574c0.001,0.008,0.001,0.016,0.002,0.021c-1.302-0.342-3.767-1.063-4.965-1.607
		c-0.36-0.164-1.151-0.539-1.944-1.051c0.062,0.373,0.166,0.744,0.319,1.094c0.019,0.039,0.042,0.096,0.076,0.17
		c0.289,0.629,0.662,1.213,0.846,1.492c0.349,0.533,0.563,0.861,0.926,1.287c0.074,0.088,0.389,0.453,0.865,0.893
		c0.439,0.406,0.85,0.721,1.184,0.953c0.753,0.16,2.494,0.502,3.398,0.676l-0.008-0.014c0.95,0.174,3.541,0.578,4.725,0.764
		c0.008-0.004,0.016-0.006,0.023-0.01c1.809,0.24,4.763,0.619,6.565,0.775c6.312,0.547,11.522,0.492,15.49-0.164
		c1.706-0.281,3.032-0.65,4.104-1.029C256.778,334.229,257.488,333.91,258.07,333.625"/>
	<path fill="#999999" d="M276.839,328.234c-2.838,1.242-5.813,2.191-8.862,2.84c-0.015,0.004-0.027,0.01-0.041,0.016
		c-0.473,0.197-0.952,0.383-1.436,0.563l0.024,0.018l-0.199,0.045c-0.6,0.219-1.209,0.41-1.824,0.586
		c-0.333,0.096-0.664,0.193-1,0.271c-1.006,0.234-1.903,0.391-2.686,0.498c-0.766,0.479-1.549,0.932-2.355,1.328
		c-0.152,0.074-0.316,0.152-0.487,0.232c-0.946,0.438-2.165,0.924-3.829,1.336c3.163,0.551,7.288,1.111,11.475,0.701
		c5.063-0.496,9.975-1.822,14.617-3.926c0.512-0.773,0.949-1.623,1.26-2.6c0.396-1.246,0.764-3.092,0.832-4.783
		c-1.017,0.621-2.06,1.201-3.122,1.746C278.425,327.504,277.638,327.883,276.839,328.234"/>
	<path fill="#999999" d="M259.906,331.693c0.97-0.113,2.004-0.271,3.249-0.563c0.258-0.059,0.515-0.131,0.77-0.203
		c-0.682-0.66-1.32-1.594-2.398-3.475c-0.562-0.98-0.834-2.172-0.939-3.373c-0.208,0.074-0.496,0.203-0.939,0.27
		c-0.094,0.016-0.234,0.035-0.378,0.059c0.408,0.986,0.711,2.061,0.839,3.279c0.129,1.238-0.013,2.412-0.149,3.547
		C259.939,331.385,259.923,331.539,259.906,331.693"/>
	<path fill="#999999" d="M215.648,278.037c0.224-0.279,0.235-0.346,0.329-0.846c0.058-0.313,0.144-0.766,0.324-1.496
		c1.229-4.947,3.733-7.854,4.831-8.938c-2.495-0.563-3.362-2.471-3.336-4.344c-0.176,0.154-0.353,0.311-0.46,0.404
		c-2.183,1.955-4.148,7.781-4.965,10.916l-0.002,0.008c-0.444,2.002-1.297,3.713-2.376,5.881c-0.422,0.848-0.895,1.799-1.394,2.865
		C209.658,282.365,213.035,281.314,215.648,278.037"/>
	<path fill="#999999" d="M222.298,286.188l0.126,0.439c0.614,2.113,0.614,2.113,0.623,2.174c0.152,0.883,0.561,1.299,0.894,1.391
		c0.129-0.029,0.82-0.623,1.458-1.881l0.005-0.008c0.6-1.08,4.982-9.725,5.99-12.057c-0.527-0.166-1.038-0.381-1.685-0.705
		c-0.766-0.383-1.334-0.779-1.938-1.197c-0.114-0.08-0.23-0.16-0.349-0.242c-0.586,1.195-1.211,2.389-1.864,3.553
		c-1.154,2.061-2.422,4.086-3.769,6.02c-0.03,0.047-0.073,0.105-0.125,0.174l0.609,2.26l-0.258,0.158L222.298,286.188z"/>
	<path fill="#999999" d="M229.518,294.586c0.428-0.086,2.007-1.506,2.697-2.426c0.369-2.387,1.422-7.139,2.547-9.957
		c0.583-1.459,1.335-2.926,1.917-3.988l-0.088-0.023c-0.574-0.166-1.225-0.352-1.793-0.584c-0.344-0.139-0.606-0.223-0.841-0.299
		c-0.278-0.09-0.529-0.172-0.825-0.313c-0.581,1.227-2.466,5.395-3.025,6.75c-0.215,0.518-0.95,2.021-1.664,3.473
		c-0.655,1.336-1.331,2.715-1.567,3.262l0.006,0.021C227.365,292.092,228.252,293.467,229.518,294.586"/>
	<path fill="#999999" d="M218.365,284.178c0.197-0.104,0.675-0.525,0.866-0.695c0.107-0.096,0.198-0.176,0.257-0.221
		c0.528-0.416,0.979-1.041,1.412-1.646c0.106-0.145,0.211-0.289,0.313-0.428c1.232-1.654,2.238-3.49,3.212-5.264l0.533-0.963
		c0.108-0.186,0.219-0.373,0.303-0.566c0.03-0.066,0.162-0.303,0.94-1.592c-0.928-1.033-2.783-4.01-3.317-5.449
		c-0.505,0.162-1.018,0.889-1.338,1.342l-0.129,0.182c-0.591,0.814-1.179,1.738-1.797,2.824c-0.92,1.619-1.404,3.404-1.726,4.777
		l-0.077,0.336c-0.327,1.391-0.523,2.23-0.299,3.686C217.855,282.65,218.182,283.873,218.365,284.178"/>
	<path fill="#999999" d="M204.821,281.344c0.914-0.221,2.641-0.994,3.95-3.699l0.083-0.17c0.374-0.771,0.887-1.824,1.661-3.953
		c0.4-1.102,0.719-2.064,1.015-2.955c0.623-1.875,1.159-3.494,2.141-5.457c0.244-0.488,0.557-1.08,1.021-1.777
		c0.676-1.021,1.477-1.961,2.38-2.805c-2.081-0.494-2.949-2.033-3.21-2.928c-0.156,0.164-0.3,0.336-0.394,0.451
		c-1.114,1.377-4.843,6.268-6.033,11.48c-0.151,0.781-0.462,2.158-0.736,3.377c-0.218,0.965-0.413,1.832-0.493,2.238
		c-0.365,1.875-0.794,3.535-2.636,6.256C203.793,281.453,204.231,281.486,204.821,281.344"/>
	<path fill="#999999" d="M207.228,264.199c1.704-3.873,5.261-8.295,6.036-9.236c-0.227-0.283-0.654-0.82-0.85-1.109
		c-0.262-0.387-0.368-0.879-0.455-1.275c-0.021-0.094-0.044-0.205-0.068-0.295c-0.927,0.795-4.434,5.727-6.357,9.588
		c-2.138,4.287-3.679,10.824-4.244,13.436c-0.171,0.801-0.664,2.902-0.828,3.367c-0.289,0.807-0.782,1.82-1.144,2.559
		c-0.085,0.176-0.177,0.363-0.254,0.525c2.905-0.695,4.651-2.904,5.195-6.574c0.119-0.805,1.026-5.068,1.225-5.963
		C205.805,267.51,206.41,266.061,207.228,264.199"/>
	<path fill="#999999" d="M283.904,277.428c0.096,0.51,0.112,0.602,0.358,0.908c2.867,3.6,6.583,4.52,7.365,4.52h0.029
		c-0.535-1.158-1.044-2.182-1.495-3.086c-1.074-2.158-1.923-3.865-2.365-5.852l-0.003-0.01c-0.227-0.867-2.289-8.551-5.009-10.984
		c-0.15-0.135-0.481-0.428-0.717-0.631c0.085,1.273-0.137,4.002-3.475,4.588c0.949,0.891,3.688,3.82,4.987,9.057
		C283.761,276.664,283.847,277.123,283.904,277.428"/>
	<path fill="#999999" d="M295.639,281.779c0.563,0.066,0.927-0.029,1.042-0.094c-1.915-2.789-2.351-4.461-2.721-6.355
		c-0.078-0.406-0.279-1.299-0.493-2.244c-0.275-1.215-0.585-2.594-0.737-3.379c-1.197-5.242-4.941-10.154-6.061-11.535
		c-0.131-0.164-0.359-0.434-0.587-0.648c-0.14,0.789-0.98,2.684-3.435,3.131c0.979,0.883,1.841,1.881,2.563,2.967
		c0.459,0.689,0.769,1.277,1.011,1.762c0.977,1.953,1.514,3.568,2.133,5.438c0.304,0.912,0.616,1.855,1.017,2.961
		c0.775,2.135,1.291,3.193,1.668,3.967l0.081,0.17C292.669,281.113,294.796,281.684,295.639,281.779"/>
	<path fill="#999999" d="M301.376,281.986c0.105,0,0.211-0.008,0.318-0.021c0.006,0,0.013,0,0.018,0
		c-0.041-0.264-0.456-1.213-1.839-3.391c-0.251-0.395-0.971-2.488-1.166-3.395c-0.564-2.615-2.109-9.164-4.255-13.467
		c-1.289-2.592-3.192-6.006-6.515-9.582c-0.122,0.785-0.269,1.316-0.438,1.586c-0.389,0.613-0.754,0.867-0.973,1.02
		c-0.049,0.033-0.111,0.076-0.143,0.107c0.506,0.607,4.323,5.26,6.108,9.316c0.814,1.85,1.415,3.293,1.736,4.998
		c0.063,0.285,0.184,0.926,0.322,1.664c0.296,1.586,0.703,3.758,0.893,4.256C297.149,279.555,299.244,281.986,301.376,281.986"/>
	<path fill="#999999" d="M279.297,282.336c0.623,0.795,1.354,1.5,2.172,2.098c0.078,0.057,0.15,0.104,0.218,0.107h0.003
		c0.058,0,0.092-0.059,0.148-0.197l0.015-0.035c0.237-0.539,0.354-1.146,0.468-1.734l0.042-0.217c0.1-0.496,0.192-1.027,0.286-1.627
		c0.229-1.482,0.019-2.381-0.301-3.736l-0.079-0.338c-0.323-1.385-0.813-3.184-1.74-4.814c-0.619-1.09-1.21-2.018-1.805-2.84
		l-0.13-0.182c-0.357-0.508-0.944-1.338-1.55-1.426c-0.473,1.471-2.135,4.473-3.398,5.607c0.961,1.592,0.979,1.645,0.987,1.672
		c0.08,0.184,0.194,0.379,0.305,0.57c0.05,0.086,0.101,0.172,0.147,0.258l0.386,0.701c0.634,1.158,1.29,2.354,2.004,3.49
		c0.353,0.563,0.654,1.014,0.947,1.422c0.106,0.145,0.21,0.293,0.313,0.443C278.914,281.816,279.101,282.084,279.297,282.336"/>
	<path fill="#999999" d="M276.188,290.24c0.017,0,0.031-0.004,0.045-0.006c0.725-0.203,0.867-0.523,1.15-1.293
		c0.251-0.688,0.47-1.389,0.65-2.086c0.019-0.072,0.037-0.141,0.053-0.211c0.13-0.516,0.23-1.045,0.328-1.559
		c0.019-0.092,0.038-0.17,0.062-0.256c0.055-0.205,0.168-0.635,0.084-0.746l-0.049-0.063c-0.064-0.086-0.12-0.16-0.162-0.225
		c-1.339-1.926-2.605-3.947-3.757-6.002c-0.68-1.213-1.33-2.455-1.934-3.697c-0.168,0.115-0.33,0.227-0.491,0.338
		c-0.597,0.416-1.162,0.811-1.919,1.188c-0.701,0.352-1.24,0.574-1.815,0.744c0.88,2.102,5.446,11.109,6.059,12.215
		C275.075,289.73,275.904,290.24,276.188,290.24"/>
	<path fill="#999999" d="M266.957,277.01c-0.769,0.371-2.647,0.959-3.828,1.326c0.59,1.066,1.387,2.604,1.996,4.131
		c1.322,3.311,2.049,6.412,2.16,9.219c0.74,1,2.842,3.068,3.199,3.002c2.347-2.432,2.678-3.535,2.803-3.951
		c0.005-0.02,0.01-0.037,0.016-0.053c-0.217-0.516-0.916-1.939-1.591-3.318c-0.713-1.449-1.447-2.949-1.661-3.465
		C269.469,282.49,267.45,278.029,266.957,277.01"/>
	<path fill="#999999" d="M301.76,267.123c-0.205-0.572-0.409-1.145-0.61-1.74c-0.032-0.094-0.084-0.219-0.146-0.371
		c-0.065-0.16-0.143-0.348-0.223-0.561c-3.059-8.072-7.816-13.803-8.467-14.445c-0.597,0.205-1.218,0.336-1.85,0.389
		c-0.606,0.049-1.212,0.031-1.809-0.057c0.239,0.324,0.575,0.769,0.974,1.296c1.952,2.59,5.219,6.924,6.146,9.012
		c1.183,2.662,2.478,5.877,4.137,13.252c0.796,3.539,2.867,6.551,4.739,6.918c0.052-0.201,0.053-0.963-0.332-3.629
		C303.613,272.301,302.67,269.668,301.76,267.123"/>
	<path fill="#999999" d="M249.952,261.783c-0.614-0.842-1.751-0.951-1.965-0.971c-1.862-0.178-3.241,1.42-3.691,1.939
		c-0.311,0.361-0.727,0.932-1.022,1.709c-0.361,0.951-0.37,1.76-0.37,2.174c-0.013,6.529,0.459,9.369,0.459,9.369
		c0.178,1.064,0.618,3.512,1.533,6.547c0,0,0.946,3.506,3.026,6.211c0.479,0.623,1.709,1.775,2.209,1.543
		c-1.07-2.396-1.643-4.355-1.76-4.639c-0.251-0.611-1.464-4.482-1.672-7.693c-0.32-4.934,0.441-10.633-0.075-14.689
		c0.047-0.047,0.122-0.109,0.215-0.107c0.585,0.016,0.737,1.914,0.796,3.225c0.132,2.932-0.015,5.186-0.118,6.461
		c-0.265,3.254-0.143,4.545,0.088,6.168c0.624,4.395,2.975,10.877,3.174,11.012c0.077,0.053,0.104-0.613,0.178-1.25
		c0,0-0.058-1.137-0.06-1.514c-0.014-3.541-0.434-8.889-0.434-8.889c-0.009-4.08-0.149-6.781-0.079-10.824
		C250.401,266.607,250.367,262.352,249.952,261.783"/>
	<path fill="#999999" d="M199.802,273.961c1.663-7.391,3.014-10.73,4.146-13.279c0.935-2.104,4.113-6.338,6.012-8.867
		c0.342-0.451,0.636-0.844,0.859-1.148l-3.214-0.423c-0.736,0.761-5.423,6.511-8.394,14.353c-0.08,0.209-0.156,0.395-0.22,0.553
		c-0.063,0.156-0.116,0.281-0.147,0.375c-0.203,0.596-0.408,1.168-0.611,1.74c-0.909,2.539-1.849,5.166-2.555,10.041
		c-0.32,2.232-0.369,3.1-0.351,3.43C197.108,280.252,199.037,277.352,199.802,273.961"/>
	<path fill="#999999" d="M258.608,328.063c-0.332-3.18-1.98-5.365-3.785-7.508c-0.353-0.42-0.624-0.781-0.858-1.141
		c-1.048-1.605-1.548-3.32-1.405-4.826c0.063-0.676,0.263-1.289,0.438-1.832c0.413-1.279,0.384-1.67,0.361-1.984l-0.009-0.125
		c-0.046-0.891-0.371-1.576-0.493-1.832c-0.177-0.371-0.375-0.699-0.593-0.971c-0.131-0.164-0.222-0.141-0.478-0.051
		c-0.099,0.035-0.206,0.072-0.325,0.096c-0.567,0.111-1.15,0.135-1.736,0.063c-0.105-0.014-0.265-0.033-0.437-0.057
		c-0.3-0.039-0.642-0.086-0.823-0.104c-0.006,0-0.012-0.002-0.018-0.002c-0.291,0-0.791,0.689-0.96,0.922
		c-0.045,0.061-0.079,0.107-0.101,0.135c-0.153,0.182-0.278,0.443-0.4,0.693c-0.055,0.117-0.109,0.227-0.163,0.326
		c-0.613,1.131-0.47,2.26-0.224,3.313c0.102,0.426,0.216,0.908,0.281,1.449c0.028,0.219,0.056,0.428,0.085,0.631
		c0.242,1.76,0.417,3.031-1.394,4.631c-2.571,2.275-3.676,5.15-4.055,10.58c1.585,0.359,3.314,0.666,5.143,0.908
		c0.823-1.039,1.348-3.801,0.797-6.223c-0.006-0.025-0.422-2.494,0.022-2.639c0.204-0.068,0.334,0.217,0.403,0.371
		c1.271,2.854,1.428,6.012,0.439,8.693l0.075,0.01c0.015,0,1.417,0.172,3.312,0.301c0.058,0.002,0.119,0.006,0.18,0.01
		c-0.95-2.766-0.686-5.975,0.738-8.844c0.074-0.152,0.209-0.441,0.418-0.355c0.438,0.16-0.08,2.611-0.087,2.637
		c-0.665,2.447-0.544,4.074,0.505,6.648c1.918,0.078,3.578,0.059,4.932-0.063l0.004-0.033c0.02-0.199,0.039-0.396,0.063-0.588
		C258.595,330.195,258.722,329.15,258.608,328.063 M248.235,311.586c-0.159,0.422-0.491,0.723-0.628,0.803
		c-0.023,0.014-0.049,0.02-0.075,0.02c-0.05,0-0.1-0.025-0.128-0.072c-0.041-0.068-0.019-0.158,0.053-0.199
		c0.024-0.014,0.067-0.051,0.118-0.098c0.12-0.113,0.289-0.309,0.382-0.555c0.03-0.082,0.057-0.164,0.081-0.242
		c-0.087,0.076-0.203,0.15-0.353,0.209c-0.138,0.055-0.302,0.1-0.505,0.117c-0.024,0.002-0.05,0.002-0.074-0.002
		c-0.087-0.012-0.167-0.055-0.222-0.125c-0.206-0.254-0.288-0.518-0.245-0.783c0.084-0.502,0.595-0.828,0.933-1.045
		c0.147-0.096,0.339-0.059,0.447,0.074c0.038,0.008,0.075,0.029,0.098,0.064C248.559,310.465,248.435,311.057,248.235,311.586
		 M251.718,311.619c0.095,0.25,0.262,0.445,0.384,0.557c0.049,0.047,0.092,0.082,0.117,0.096c0.071,0.043,0.094,0.133,0.052,0.201
		c-0.027,0.047-0.077,0.072-0.128,0.072c-0.025,0-0.052-0.006-0.076-0.02c-0.135-0.082-0.468-0.381-0.626-0.805
		c-0.2-0.529-0.325-1.121,0.116-1.834c0.023-0.035,0.061-0.057,0.099-0.064c0.108-0.133,0.3-0.17,0.448-0.074
		c0.338,0.217,0.849,0.543,0.931,1.045c0.045,0.266-0.037,0.529-0.243,0.783c-0.056,0.07-0.136,0.113-0.222,0.125
		c-0.024,0.004-0.05,0.004-0.075,0.002c-0.203-0.018-0.367-0.061-0.504-0.115c-0.15-0.061-0.266-0.135-0.353-0.211
		C251.661,311.455,251.688,311.537,251.718,311.619"/>
	<path fill="#999999" d="M242.649,257.799c0,0,0.566,0.443,1.088,0.459c0.07,0.002,0.135-0.008,0.135-0.008
		c0.049-0.006,0.092-0.025,0.137-0.037c-1.229-0.85-2.203-2.324-2.119-3.848c0.05-0.934,0.736-1.596,1.176-2.363
		c0.204-0.355,0.359-0.73,0.363-1.168c0.003-0.256-0.204-0.388-0.405-0.388c-0.187,0-0.367,0.113-0.369,0.351
		c-0.004,0.348-0.134,0.656-0.311,0.945c-0.182,0.297-0.412,0.576-0.604,0.857c-0.458,0.672-0.681,1.404-0.616,2.219
		c0.011,0.133,0.036,0.262,0.058,0.393c0.11,0.68,0.351,1.18,0.524,1.48C242.068,257.318,242.483,257.668,242.649,257.799"/>
	<path fill="#999999" d="M239.437,303.973c0.452,0.158,0.864,0.383,1.204,0.678c0.679-0.979,3.129-4.533,3.537-5.322
		C242.9,300.314,240.618,302.832,239.437,303.973"/>
	<path fill="#999999" d="M241.573,306.234c0.552-0.363,3.797-5.539,3.797-5.539c-1.004,0.664-3.45,3.059-4.47,4.209
		c0.148,0.164,0.278,0.344,0.384,0.541C241.421,305.703,241.51,305.973,241.573,306.234"/>
	<path fill="#999999" d="M250.878,306.197l0.087-0.002c0.478-0.043,0.779-0.119,0.92-0.176c-0.145-0.836-1.062-4.646-1.487-5.754
		c-0.355,1.088-0.952,4.816-1.046,5.828c0.22,0.045,0.774,0.102,1.268,0.102L250.878,306.197z"/>
	<path fill="#999999" d="M256.047,300.443c0,0,2.137,4.121,3.029,5.449c0.102-0.256,0.209-0.48,0.305-0.66
		c0.096-0.178,0.212-0.328,0.331-0.477c-0.165-0.287-0.378-0.658-0.619-1.08C258.05,302.434,256.72,300.973,256.047,300.443"/>
	<path fill="#999999" d="M260.191,304.281c0.323-0.258,0.692-0.441,1.094-0.566c-1.137-1.352-2.878-3.574-3.936-4.539
		c0.287,0.691,1.863,3.463,2.709,4.938C260.103,304.17,260.148,304.227,260.191,304.281"/>
	<path fill="#999999" d="M262.605,276.992l0.747-0.313c0,0,2.661-0.947,3.528-1.311c1.237-0.52,3.575-1.674,4.705-2.568
		c3.007-2.379,3.92-5.744,4.807-6.809c3.083-0.195,4.34-1.705,4.537-3.258c0.117-0.934-0.866-3.066-0.59-3.145
		c0,0,3.418-0.756,4.184-1.92c1.132-1.721,0.495-3.928,0.495-3.928c0.044,0,3.01-1.111,1.272-5.443
		c0.351,0.875,7.013,0.168,6.857-0.275c-0.433-1.231-2.19-2.766-3.971-3.857c-2.242-1.373-4.817-1.643-6.458-1.452
		c-1.809,0.21-3.609,0.399-5.315,1.076c-2.509,0.995-3.831,2.823-4.447,5.39c-0.687,2.857-0.691,5.828-1.015,8.746
		c-0.408,3.691-1.471,7.213-4.354,9.75c-2.328,2.045-5.404,3.672-8.491,4.213C260.304,273.166,262.605,276.992,262.605,276.992"/>
	<path fill="#999999" d="M213.756,248.299c-1.737,4.332,1.229,5.443,1.272,5.443c0,0-0.638,2.207,0.495,3.928
		c0.766,1.164,4.183,1.92,4.183,1.92c0.277,0.078-0.707,2.211-0.589,3.145c0.196,1.555,1.453,3.063,4.537,3.258
		c0.887,1.064,1.8,4.43,4.806,6.809c1.132,0.895,3.469,2.049,4.705,2.568c0.868,0.363,3.529,1.311,3.529,1.311l0.747,0.313
		c0,0,2.301-3.826,3.508-5.104c-3.183-0.559-8.551-3.123-10.885-7.01c-2.34-4.482-2.601-10.039-2.61-10.273
		c-0.233-3.895-0.846-7.026-0.969-7.341c-1.598-4.08-7.561-4.364-9.159-4.55c-1.641-0.19-4.216,0.079-6.457,1.452
		c-1.781,1.092-3.537,2.626-3.971,3.857C206.743,248.467,213.405,249.174,213.756,248.299"/>
	<path fill="#999999" d="M274.564,320.428c-0.013-0.021-0.535-0.951-1.164-1.631c-0.921-0.99-2.12-1.639-3.083-2.16
		c-0.261-0.141-0.506-0.273-0.716-0.398c-0.457-0.27-1.023-0.604-1.528-1.201c-0.986-1.174-1.09-2.615-1.174-3.775
		c-0.022-0.324-0.036-0.633-0.048-0.932c-0.03-0.734-0.06-1.426-0.239-2.209c-0.218-0.957-0.596-1.738-1.119-2.324
		c-0.656-0.734-1.523-1.105-2.575-1.105c-0.041,0-0.082,0.002-0.123,0.008l-0.064,0.008c-0.198,0.016-0.392,0.053-0.579,0.111
		c-0.342,0.107-0.679,0.281-1.001,0.514c-0.069,0.051-0.137,0.1-0.202,0.152c-0.052,0.043-0.099,0.086-0.146,0.133l-0.034,0.031
		c-0.135,0.123-0.242,0.238-0.333,0.346c-0.075,0.098-0.123,0.172-0.17,0.242c-0.123,0.186-0.209,0.355-0.263,0.514
		c-0.212,0.609-0.097,1.184,0.036,1.848l0.027,0.135c0.224,1.131,1.117,2.543,1.207,2.658c0.47,0.607,0.954,1.23,1.257,1.965
		c0.433,1.035,0.531,2.131,0.287,3.168c-0.275,1.162-0.473,2.424-0.646,3.537c-0.073,0.463-0.141,0.898-0.21,1.303
		c-0.196,1.154-0.088,2.523,0.313,3.961c0.081,0.289,0.312,1.045,0.708,1.787c0.675,1.264,1.483,2.361,2.405,3.271
		c0.828-0.283,1.721-0.637,2.726-1.076c1.128-0.494,2.195-1.012,3.188-1.502c-0.236-0.221-0.522-0.494-0.821-0.805l-0.079-0.082
		c-0.862-0.891-1.841-1.904-2.678-3.502c-1.301-2.486-0.952-3.848-0.909-3.994c0.008-0.023,0.213-0.711,0.213-0.711l0.196-0.65
		l0.131,0.99c0.017,0.125,0.056,0.4,0.125,0.764c0.351,1.453,1.326,3.078,1.745,3.584c1.349,1.625,2.459,2.744,3.592,3.615
		c0.527-0.299,1.091-0.648,1.718-1.064c-0.372-1.641-0.95-3.477-2.365-4.764c-0.123-0.111-0.575-0.521-0.576-0.521l-0.228-0.201
		l0.268-0.154c0.152-0.084,0.532-0.109,1.367,0.672c0.939,0.873,1.989,2.947,2.41,4.377l0.178-0.123
		c0.254-0.17,0.475-0.326,0.678-0.469c-0.149-0.742-0.328-1.439-0.517-2.025C275.4,321.672,274.573,320.438,274.564,320.428
		 M265.075,308.631c-0.045,0.123-0.175,0.189-0.298,0.16c-0.009-0.004-0.018-0.006-0.025-0.008c-0.132-0.047-0.201-0.189-0.154-0.32
		c0.016-0.041,0.033-0.111,0.05-0.197c0.054-0.281,0.089-0.76-0.061-1.158c-0.036-0.096-0.073-0.186-0.113-0.271
		c-0.021,0.197-0.104,0.438-0.312,0.709c-0.005,0.008-0.007,0.012-0.012,0.018c-0.016,0.021-0.032,0.037-0.052,0.055
		c-0.065,0.053-0.151,0.082-0.239,0.076c-0.325-0.021-0.575-0.139-0.741-0.348c-0.315-0.393-0.216-0.98-0.15-1.369
		c0.008-0.045,0.026-0.088,0.051-0.127l-0.008-0.012c-0.06-0.004-0.113-0.01-0.178-0.012c-0.141-0.006-0.253-0.113-0.252-0.252
		c0.001-0.137,0.113-0.248,0.254-0.248c1.431,0.006,1.93,0.814,2.228,1.607C265.304,307.574,265.176,308.355,265.075,308.631"/>
	<path fill="#999999" d="M240.905,199.567l-9.13,14.283l14.458-9.02L250,221.307l3.768-16.477l14.46,9.02l-9.132-14.283l16.68-3.723
		l-16.68-3.722l9.132-14.282l-14.46,9.021L250,170.384l-3.768,16.478l-14.458-9.021l9.13,14.282l-16.68,3.722L240.905,199.567z
		 M238.503,184.488l9.119,5.688L250,179.783l2.378,10.394l9.12-5.688l-5.76,9.011l10.52,2.346l-10.52,2.35l5.76,9.008l-9.12-5.688
		L250,211.908l-2.378-10.394l-9.119,5.688l5.76-9.008l-10.521-2.35l10.521-2.346L238.503,184.488z"/>
	<path fill="#999999" d="M225.409,85.983c-1.675,0-3.037,1.346-3.037,3c0,1.656,1.362,3.002,3.037,3.002s3.038-1.346,3.038-3.002
		C228.448,87.329,227.084,85.983,225.409,85.983"/>
	<path fill="#999999" d="M274.718,91.985c1.676,0,3.038-1.347,3.038-3.002c0-1.654-1.362-3-3.038-3c-1.675,0-3.038,1.346-3.038,3
		C271.68,90.638,273.043,91.985,274.718,91.985"/>
	<path fill="#999999" d="M250.374,91.985c1.675,0,3.038-1.347,3.038-3.002c0-1.654-1.363-3-3.038-3c-1.676,0-3.039,1.346-3.039,3
		C247.335,90.638,248.698,91.985,250.374,91.985"/>
	<path fill="#999999" d="M222.92,116.549c-1.676,0-3.038,1.347-3.038,3.001c0,1.655,1.362,3.001,3.038,3.001
		c1.675,0,3.038-1.346,3.038-3.001C225.958,117.896,224.595,116.549,222.92,116.549"/>
	<path fill="#999999" d="M277.028,116.549c-1.675,0-3.038,1.347-3.038,3.001c0,1.655,1.363,3.001,3.038,3.001
		c1.676,0,3.038-1.346,3.038-3.001C280.066,117.896,278.703,116.549,277.028,116.549"/>
	<path fill="#999999" d="M250.283,116.549c-1.675,0-3.037,1.347-3.037,3.001c0,1.655,1.362,3.001,3.037,3.001
		s3.038-1.346,3.038-3.001C253.322,117.896,251.958,116.549,250.283,116.549"/>
	<polygon fill="#999999" points="146.617,198.82 148.112,195.008 148.572,193.834 147.383,193.38 145.255,192.565 144.067,192.112 
		143.606,193.286 142.112,197.098 137.15,195.199 135.961,194.745 135.5,195.918 134.411,198.696 133.951,199.872 135.14,200.325 
		140.103,202.223 138.446,206.452 137.985,207.627 139.174,208.081 141.302,208.895 142.49,209.349 142.95,208.176 144.608,203.946 
		148.64,205.489 149.827,205.942 150.287,204.769 151.377,201.991 151.837,200.816 150.649,200.362 	"/>
	<polygon fill="#999999" points="352.998,204.372 353.317,205.592 354.551,205.275 358.737,204.206 359.773,208.163 
		360.092,209.381 361.325,209.067 363.535,208.5 364.769,208.186 364.671,207.813 364.701,207.806 364.347,206.573 363.413,203.01 
		368.565,201.693 369.799,201.377 369.48,200.161 368.725,197.276 368.405,196.055 367.172,196.372 362.02,197.688 360.869,193.299 
		360.551,192.08 359.317,192.394 357.108,192.959 355.873,193.274 356.193,194.493 357.342,198.884 353.156,199.954 
		351.923,200.268 352.242,201.487 	"/>
	<path fill="#999999" d="M239.67,306.41c-0.416-0.645-1.205-1.064-2.163-1.156c-0.122-0.012-0.257-0.012-0.362-0.012
		c-0.435,0-0.858,0.072-1.258,0.213l-0.085,0.027c-0.037,0.008-0.074,0.021-0.111,0.035c-0.542,0.227-1.286,0.537-2.048,1.609
		c-0.511,0.723-0.528,1.344-0.57,2.707l-0.017,0.547c-0.017,0.48-0.006,0.686,0.003,0.85c0.009,0.18,0.018,0.324-0.008,0.68
		c-0.083,1.158-0.188,2.6-1.174,3.773c-0.726,0.863-1.753,1.406-2.746,1.932c-0.742,0.391-1.508,0.795-2.128,1.328
		c-0.854,0.729-1.562,1.705-2.163,2.98c-0.405,0.859-0.7,1.732-0.9,2.662c0.231,0.146,0.459,0.277,0.686,0.406
		c0.142,0.08,0.283,0.158,0.424,0.232c0.33-1.414,1.499-3.803,2.514-4.752c0.83-0.773,1.213-0.752,1.366-0.67l0.271,0.15
		l-0.805,0.727c-1.372,1.252-2.071,3.406-2.417,4.994c-0.003,0.01-0.005,0.02-0.007,0.029c0.532,0.26,1.084,0.506,1.683,0.752
		c0.149,0.061,0.296,0.117,0.438,0.176l0.074,0.027c0.916-0.727,1.864-1.715,3.248-3.383c0.419-0.506,1.394-2.131,1.748-3.59
		c0.067-0.359,0.106-0.635,0.123-0.756l0.13-0.994l0.196,0.652c0,0,0.199,0.668,0.212,0.705c0.044,0.152,0.392,1.52-0.908,4
		c-0.839,1.6-1.818,2.613-2.682,3.508l-0.075,0.076c-0.135,0.139-0.262,0.27-0.384,0.393l0.444,0.162
		c0.337,0.121,0.67,0.238,0.99,0.35c0.325,0.111,0.618,0.205,0.902,0.295c0.583,0.182,1.099,0.326,1.693,0.494
		c0.626,0.176,1.33,0.375,2.24,0.654c0.77-1.076,1.292-2.088,1.597-3.094c0.373-1.225,0.481-2.596,0.337-4.188
		c-0.125-1.363-0.386-2.836-0.845-4.773c-0.244-1.037-0.145-2.131,0.287-3.168c0.305-0.734,0.788-1.359,1.257-1.965
		c0.094-0.119,0.186-0.24,0.276-0.357l0.058-0.078C240.504,309.641,240.4,307.537,239.67,306.41 M236.764,307.986
		c-0.104,0.246-0.311,0.426-0.618,0.533c-0.083,0.031-0.173,0.025-0.252-0.01c-0.021-0.01-0.043-0.023-0.063-0.037
		c-0.007-0.004-0.011-0.008-0.017-0.014c-0.275-0.207-0.423-0.416-0.497-0.6c-0.016,0.094-0.025,0.189-0.034,0.293
		c-0.032,0.398,0.125,0.857,0.263,1.131c0.036,0.072,0.071,0.135,0.101,0.176c0.081,0.113,0.056,0.27-0.06,0.35
		c-0.044,0.031-0.096,0.047-0.146,0.047c-0.08,0-0.157-0.037-0.207-0.105c-0.173-0.24-0.511-0.955-0.456-1.639
		c0.067-0.84,0.323-1.752,1.701-2.145c0.134-0.039,0.273,0.039,0.313,0.172c0.038,0.133-0.04,0.27-0.175,0.309
		c-0.061,0.018-0.111,0.039-0.167,0.061l-0.005,0.014c0.034,0.029,0.064,0.064,0.086,0.107
		C236.701,306.986,236.958,307.523,236.764,307.986"/>
</g>
</svg>
