<?xml version="1.0" encoding="utf-8"?>
<!-- Generator: Adobe Illustrator 16.0.0, SVG Export Plug-In . SVG Version: 6.00 Build 0)  -->
<!DOCTYPE svg PUBLIC "-//W3C//DTD SVG 1.1//EN" "http://www.w3.org/Graphics/SVG/1.1/DTD/svg11.dtd">
<svg version="1.1" id="Camada_1" xmlns="http://www.w3.org/2000/svg" xmlns:xlink="http://www.w3.org/1999/xlink" x="0px" y="0px"
	 width="1080px" height="1080px" viewBox="0 0 1080 1080" enable-background="new 0 0 1080 1080" xml:space="preserve">
<g>
	<path fill="#575756" d="M648.374,925.07c6.8,0,11.942-5.307,11.942-12.363c0-6.91-4.595-11.742-11.178-11.742h-0.146
		c-5.087,0-12.27,3.848-12.27,12.363C636.724,922.006,642.995,925.07,648.374,925.07"/>
	<path fill="#575756" d="M348.687,911.85c-2.59,0.348-4.084,1.205-4.084,4.615v43.701c0,28.443-10.347,32.291-20.457,32.291
		c-8.916,0-20.767-3.246-20.767-31.215v-40.129c0-7.33-0.347-9.881-4.165-9.881c-3.557,0-16.045,0.764-19.245,1.238l-0.547,0.092
		l0.054,0.547c0.31,3.281,0.465,9.791,0.465,19.945v29.135c0,33.203,14.031,50.049,41.707,50.049
		c19.673,0,43.121-9.172,43.121-52.855v-22.172c0-13.436,0.164-19.471,0.456-25.377l0.036-0.602h-0.602
		C361.622,911.232,353.409,911.395,348.687,911.85"/>
	<path fill="#575756" d="M435.856,925.563c9.08,0,16.064,2.406,19.409,3.828l0.155,0.053c2.425,0.311,4.667-0.436,6.472-2.168
		c2.343-2.225,3.666-5.943,3.373-9.463l-0.018-0.199l-0.127-0.148c-2.398-2.678-13.785-7.949-29.264-7.949
		c-34.322,0-56.501,19.455-56.501,49.557c0,32.291,21.997,53.166,56.045,53.166c9.827,0,17.759-5.086,22.025-7.822l0.565-0.346
		l0.083-0.072c3.108-2.918,5.151-7.896,5.789-14.004l0.037-0.4l-1.187-0.584l-1.203,0.346c-4.01,1.131-11.468,3.246-21.276,3.246
		c-21.897,0-36.046-13.691-36.046-34.914C404.187,931.141,421.416,925.563,435.856,925.563"/>
	<path fill="#575756" d="M618.601,970.777l-7.494-53.93l0,0c-0.62-4.141-1.622-5.615-3.847-5.615
		c-3.938,0-16.756,0.873-19.455,2.568l-0.272,0.164v2.225c-6.454,15.59-15.699,38.709-22.171,56.121l-19.874-53.094
		c-2.261-6.455-3.309-8.188-6.308-7.984c-7.985,0-13.894,1.293-18.205,2.223l-1.759,0.383l0.364,2.918
		c-4.377,26.418-8.524,53.074-11.56,72.547c-1.03,6.654-1.915,12.342-2.607,16.664l-0.055,0.402l0.346,0.199
		c2.617,1.459,11.313,4.266,16.338,4.266c2.187,0,3.062-3.371,3.537-5.943c2.142-17.502,5.523-49.246,7.209-67.68
		c2.708,8.66,6.409,20.348,10.002,31.689c5.178,16.318,10.045,31.725,11.887,37.795l0.128,0.402h0.419
		c3.081,0,6.728-0.402,11.176-1.24c4.067-0.82,5.672-2.17,6.819-5.816c7.75-23.209,16.118-48.553,20.513-63.047l2.989,32.217
		c1.459,16.426,2.389,25.434,3.118,32.672l0.146,1.439c0.328,3.555,2.645,7.512,5.251,7.512c3.118,0,12.69-2.697,16.792-3.848
		l1.787-0.51l-0.091-0.51C622.338,997.67,620.569,985.51,618.601,970.777"/>
	<path fill="#575756" d="M657.764,936.482c-3.812,0-15.078,0.949-19.163,2.041l-0.474,0.129l0.054,0.492
		c0.257,2.516,0.621,7.057,0.621,17.303v26.51c0,8.314-0.273,19.053-0.419,25.453l-0.073,2.424h0.602
		c8.168,0,13.856-0.199,16.884-0.619c4.284-0.492,5.814-4.156,5.814-7.422V946.84C661.61,938.033,661.044,936.482,657.764,936.482"
		/>
	<path fill="#575756" d="M746.064,983.104v-18.287c0-19.145-8.333-29.264-24.104-29.264c-7.604,0-14.769,4.631-20.84,9.336
		c-1.605-6.199-5.179-9.336-10.629-9.336c-6.091,0-12.071,5.033-13.639,9.535l-0.036,1.752l0.273,0.162
		c2.115,1.314,2.679,2.883,2.679,7.275v25.27c0,8.188-0.126,20.84-0.455,30.705l-0.018,0.582h0.602
		c4.102,0,7.768-1.094,11.286-2.152c2.388-0.709,4.631-1.385,7.019-1.748c3.811-0.492,4.395-1.441,4.395-4.449v-46.057
		c3.118-2.203,5.799-3.754,10.793-3.754c5.798,0,9.863,4.869,9.863,11.832v39.691c0,2.754,1.296,6.637,4.158,6.637
		c5.014,0,9.718-1.494,13.473-2.697c2.079-0.658,3.867-1.24,5.123-1.35l0.549-0.037l-0.02-0.564
		C746.245,1000.68,746.064,991.617,746.064,983.104"/>
	<path fill="#575756" d="M823.88,992.328c-0.549,0.129-1.643,0.129-2.354,0.129c-3.428,0-5.031-1.787-5.031-2.992
		c0-5.814,0.199-11.576,0.364-16.662c0.146-4.031,0.255-7.512,0.255-10.32c0-18.598-13.51-26.93-26.893-26.93
		c-10.758,0-22.354,5.27-29.628,10.174l-0.235,0.164l-0.02,0.311c-0.056,1.951,0.146,6.746,3.246,9.207
		c1.768,1.404,4.121,1.73,7.073,0.947l0.4-0.182c3.047-1.367,8.134-3.646,13.075-3.646c6.743,0,11.103,3.9,11.103,9.955v1.387
		c-1.805,0.326-4.888,0.893-7.477,1.313c-10.501,2.242-30.065,6.436-30.065,23.045c0,12.324,9.863,23.537,20.676,23.537
		c6.454,0,12.417-5.25,17.468-10.592c2.225,4.266,6.69,10.592,13.69,10.592c11.251,0,15.225-9.844,15.225-18.268l-0.308-1.314
		L823.88,992.328z M794.926,985.602c0,2.498-0.364,4.01-1.187,4.977c-2.004,1.678-3.48,2.189-6.326,2.189
		c-4.065,0-8.148-2.316-8.148-7.494v-0.146c0-1.822,1.147-7.803,15.661-9.445V985.602z"/>
	<path fill="#575756" d="M871.047,966.785h-0.02c-1.058-0.529-2.496-1.203-4.046-1.951c-3.047-1.441-6.492-3.063-8.224-4.084
		c-3.101-1.859-5.015-3.117-5.015-5.543c0-2.533,2.516-4.229,6.271-4.229c3.318,0,6.93,0.801,10.212,2.279l0.183,0.035
		c2.096,0.164,3.9-0.475,5.341-1.895c2.589-2.572,3.282-6.93,3.081-9.883l-0.017-0.275l-0.222-0.145
		c-5.249-3.775-11.066-5.543-18.268-5.543h-0.146c-13.035,0-27.074,7.275-27.074,23.229c0,7.512,4.029,14.203,11.066,18.324
		c2.097,1.094,4.139,2.133,6.145,3.154c2.043,1.02,4.049,2.041,6,3.045c4.154,2.242,4.994,3.828,4.994,5.688
		c0,2.844-2.625,4.559-7.057,4.559c-7.712,0-15.314-4.34-17.446-5.652l-0.383-0.238l-0.311,0.293
		c-2.261,2.115-4.559,6.381-4.559,10.502c0,3.172,2.261,5.014,4.503,6.4l1.314,0.764c4.373,2.609,10.373,6.145,15.479,6.145
		c14.604,0,29.719-10.025,29.719-26.801C882.57,977.031,878.795,971.088,871.047,966.785"/>
	<path fill="#575756" d="M225.09,911.449c-11.688,0-22.846,1.24-27.14,2.043l-0.519,0.09l0.056,0.529
		c0.619,7.166,0.619,13.602,0.619,21.059v70.869c0,2.99,1.532,6.199,4.358,6.199c4.266,0,16.336-0.455,19.326-1.275l0.448-0.129
		l-0.028-0.455c-0.31-6.254-0.465-13.383-0.465-21.24v-11.104c4.458,0.383,9.544-0.639,12.954-1.332
		c13.929-2.789,23.666-9.207,28.935-19.07c2.616-4.904,4.011-10.447,4.011-16.045C267.644,915.096,247.187,911.449,225.09,911.449
		 M227.296,959.783c-0.583,0-3.091-0.109-5.552-0.199v-33.002c1.586-0.219,3.455-0.219,4.603-0.219
		c8.341,0,16.865,1.77,16.865,14.914C243.213,957.377,233.24,959.783,227.296,959.783"/>
	<path fill="#575756" d="M782.583,870.135c15.132,0,28.205-7.641,42.08-15.734c15.424-9.023,31.358-18.342,51.979-18.342
		c2.28,0,4.34-1.348,5.27-3.428c0.931-2.078,0.528-4.504-0.985-6.199l-23.465-25.926l16.609-36.156
		c0.859-1.877,0.639-4.084-0.564-5.779c-1.221-1.678-3.244-2.57-5.468-2.334c-5.235,0.549-28.882,3.975-44.453,14.824
		c-0.072-20.986-1.312-30.813-1.329-30.959c-0.02-0.109-0.036-0.236-0.036-0.346c0-6.164-12.235-7.367-12.362-7.367
		c-20.512-1.658-41.99,0.947-65.656,8.004c-21.24,6.326-42.207,15.535-62.5,24.432c-9.463,4.156-19.254,8.461-29.025,12.436
		c-35.918,14.621-71.654,21.732-109.249,21.732c-37.587,0-73.312-7.111-109.231-21.732c-9.681-3.939-19.472-8.242-28.935-12.398
		l-0.146-0.055c-20.275-8.898-41.242-18.105-62.456-24.414c-23.711-7.057-45.188-9.682-65.646-8.004
		c-0.128,0.02-12.38,1.203-12.38,7.367c0,0.109,0,0.236-0.018,0.363c-0.02,0.129-1.478,11.215-1.349,35.789
		c-17.14-12.652-51.051-16.463-52.492-16.625c-1.623-0.166-3.228,0.545-4.185,1.857c-0.958,1.332-1.121,3.082-0.446,4.559
		l17.704,38.506l-25.088,27.715c-1.203,1.332-1.514,3.246-0.785,4.887c0.739,1.641,2.371,2.697,4.167,2.697
		c21.852,0,38.625,9.809,54.852,19.271c14.24,8.334,27.695,16.191,43.065,16.191c20.129,0,29.765-9.572,30.394-19.07
		c0.037-0.73,0.018-1.441-0.037-2.152c0.091-1.076,0.164-2.389,0.2-3.229c0.42-7.965,1.187-19.598,1.459-28.369
		c0.273-3.043,0.491-5.906,0.491-8.441c14.969,4.631,29.291,10.23,42.665,15.662c51.288,20.857,106.532,41.225,168.176,41.225
		c27.386,0,55.518-4.012,85.984-12.271c29.244-7.932,57.979-19.088,82.248-28.953c12.997-5.287,26.928-10.721,41.386-15.26
		c-0.072,1.969-0.201,4.43-0.364,7.201c-0.329,6.07-0.729,13.455-0.584,19.418c-0.146,3.773-0.146,9.025-0.09,9.773
		c0.363,5.432,3.537,10.555,8.732,14.057C766.137,868.203,773.702,870.135,782.583,870.135 M822.165,812.795
		c0,0,5.651,9.443-22.553,17.301c-3.758,0.932-8.078,1.934-13.092,3.102c-0.165,0.035-0.328,0.072-0.492,0.09
		c-1.131,0.236-2.298,0.475-3.518,0.693c-7.112,1.332-25.818,6.18-25.818,6.18c0.09-11.559,0.876-17.246,1.185-27.529
		c0.767-0.238,1.55-0.477,2.333-0.713c5.325-1.531,10.468-2.844,15.498-3.881c21.498-4.486,36.082-5.652,43.303,0.689
		C820.287,809.842,821.363,811.172,822.165,812.795 M316.762,865.449c-5.834,2.881-12.726,3.318-19.126,2.99
		c-30.721-1.586-50.805-35.152-93.496-35.152l25.015-28.734l-17.413-40.859c0,0,20.786,4.559,27.731,6.91
		c8.798,2.955,20.275,7.111,23.848,10.174c0.036,2.992,0.092,6.199,0.191,9.555c0.01,1.203,0.037,2.424,0.064,3.664
		c0.055,3.502,0.073,7.33,0.22,10.977c-1.405,1.203-2.981,2.936-3.848,5.414c-1.897,5.396-0.337,11.25,3.081,15.699
		c4.503,5.852,12.672,8.459,19.389,10.793c8.388,2.918,17.022,5.123,25.781,6.582c6.354,1.076,15.479,2.881,16.328,10.721
		C325.095,859.324,321.047,863.334,316.762,865.449 M326.662,845.23c-1.704-1.824-3.911-3.246-6.49-4.121
		c-0.912-0.402-1.924-0.711-3.026-0.912c-12.618-2.406-26.419-5.871-36.629-9.846c-6.391-2.48-11.377-5.16-13.793-7.912
		c-2.616-2.953-2.816-6.055-2.816-6.055c-0.036-0.582-0.01-1.129,0.054-1.621c0.174-1.387,0.638-2.426,0.839-2.863
		c2.023-4.303,7.065-6.162,9.536-6.965c2.416-0.455,4.996-0.693,7.63-0.693c0.738,0,1.439,0.02,2.105,0.057
		c13.401,0.746,27.33,3.244,42.591,7.619c0.757,0.221,1.495,0.475,2.261,0.693C328.832,817.826,328.422,825.229,326.662,845.23
		 M710.181,825.813c-24.157,9.809-52.763,20.912-81.79,28.789c-30.156,8.168-57.942,12.143-84.981,12.143
		c-60.932,0-115.776-20.221-166.727-40.932c-15.214-6.199-31.679-12.617-48.963-17.594c-4.841-1.387-9.553-2.59-14.167-3.609
		c-8.459-1.879-16.583-3.156-24.504-3.832c-4.302-0.508-8.305-0.709-11.869-0.492c-3.647,0.201-6.819,0.857-9.389,2.063
		c-1.788-42.537,0.628-61.535,0.655-61.717c0.037-0.293,0.056-0.584,0.056-0.875c0-1.404,5.05-3.211,8.824-3.52
		c20.055-1.623,41.06,0.947,64.233,7.859c21.002,6.252,41.87,15.406,62.063,24.268l0.11,0.053c9.48,4.158,19.28,8.461,29.016,12.418
		c36.383,14.82,72.592,22.023,110.698,22.023c38.089,0,74.297-7.203,110.69-22.023c9.734-3.957,19.526-8.26,28.971-12.418
		l0.146-0.053c20.183-8.861,41.042-18.016,62.045-24.268c23.21-6.912,44.214-9.482,64.251-7.859c3.683,0.309,8.825,2.133,8.825,3.52
		c0,0.273,0.017,0.564,0.054,0.855c0.02,0.146,1.44,11.178,1.313,35.354c-0.054,7.602-0.235,16.482-0.675,26.746
		c-0.546-0.201-1.058-0.383-1.55-0.582c-1.769-0.676-3.372-1.295-5.16-1.568c-3.098-0.748-7.109-0.783-11.083-0.783
		c-9.519,0.582-20.876,2.971-33.876,6.234c-2.717,0.693-5.453,1.404-8.243,2.207C741.906,813.195,725.425,819.613,710.181,825.813
		 M756.802,851.594c-0.638-3.592,0.82-6.729,4.175-8.17c2.007-0.873,7.166-2.371,9.226-2.752
		c7.367-1.387,44.195-8.697,52.564-16.336c4.941-4.504,7.146-12.418,1.44-17.43c-0.438-0.383-0.929-0.748-1.149-1.295
		c-0.146-0.4-0.146-0.84-0.126-1.258c0.254-9.465,0.602-18.945,0.654-28.408c15.099-10.1,38.199-15.059,43.358-15.605
		c1.039-0.092,2.096,0.365,2.734,1.221c0.621,0.875,0.73,2.006,0.291,2.971l-18.543,36.723l24.433,25.27
		c0.783,0.855,0.985,2.115,0.51,3.189c-0.474,1.076-1.548,1.77-2.715,1.77c-21.368,0-34.206,8.314-49.959,17.504
		c-13.509,7.893-26.271,15.369-40.639,15.369c-8.333,0-15.351-1.768-20.292-5.105C760.011,857.391,757.404,854.984,756.802,851.594"
		/>
	<path fill="#575756" d="M328.358,788.855c-0.546-0.164-0.838-0.238-1.395-0.402c-0.255,5.396-1.541,6.4-4.458,5.615
		c-2.261-0.619-3.41-0.91-5.743-1.512c-2.608-0.656-3.336-0.947-3.373-4.852c-0.064-6.217-0.018-9.389,0.037-15.697
		c2.57,0.621,3.829,0.93,6.318,1.588c3.09,0.801,4.156,3.391,4.148,7.201c0.565,0.146,0.847,0.219,1.403,0.383
		c0.028-5.908,0.073-8.881,0.073-14.787c-0.547-0.164-0.838-0.238-1.403-0.4c-0.311,2.242-0.647,5.213-4.194,4.285
		c-2.489-0.658-3.738-0.986-6.308-1.588c0.055-5.633,0.082-8.459,0.018-14.002c-0.036-3.338,0.638-3.465,3.246-2.809
		c1.613,0.42,2.416,0.621,4.011,1.039c3.355,0.912,5.488,2.99,5.525,8.605c0.546,0.166,0.83,0.238,1.385,0.402
		c-0.091-4.176-0.146-6.254-0.347-10.393c-9.443-2.791-14.385-4.029-25.087-6.018c0.018,0.584,0.037,0.877,0.046,1.479
		c5.169,1.986,5.324,2.023,5.352,8.934c0.073,14.986-0.474,23.027,0.017,37.631c8.689,2.006,12.809,3.102,20.786,5.414
		C328.331,794.926,328.331,792.902,328.358,788.855"/>
	<path fill="#575756" d="M357.111,762.473c-1.294-0.584-1.942-0.875-3.246-1.457c-2.708,6.234-4.193,9.205-7.239,15.277
		c-2.688-8.406-4.02-12.654-6.973-21.186c-3.492-1.352-5.279-2.006-8.906-3.264c0,0.619-0.01,0.93-0.02,1.531
		c3.903,2.205,4.396,3.41,5.999,8.113c2.416,7.221,3.546,10.811,5.854,17.977c-4.212,8.041-6.445,12.197-10.539,20.475
		c1.367,0.475,2.042,0.693,3.373,1.168c3.335-7.039,5.142-10.539,8.605-17.375c2.899,9.279,4.338,13.838,7.512,23.355
		c2.297,0.875,3.447,1.33,5.716,2.242c-3.957-11.832-5.716-17.375-9.326-28.881C351.796,773.266,353.701,769.838,357.111,762.473"/>
	<path fill="#575756" d="M386.392,779.082c3.937,1.934,4.941,7.074,5.178,9.354c2.114,1.021,3.172,1.531,5.306,2.533
		c-0.548-5.504-3.391-11.705-10.157-15.041c-9.662-4.758-11.859,5.051-11.988,17.23c-0.154,14.75,3.419,25.543,12.553,29.336
		c4.403,1.842,8.014,1.404,9.126,1.166c-0.027-1.805-0.046-2.68-0.063-4.412c-1.158,0.803-3.867,2.098-7.75,0.492
		c-8.587-3.592-9.116-18.725-9.061-26.035C379.573,786.977,380.449,776.164,386.392,779.082"/>
	<path fill="#575756" d="M412.573,784.479c-10.21-4.521-12.498,3.703-12.398,17.121c0.092,13.328,3.153,23.885,13.109,27.676
		c9.827,3.756,12.927-4.557,12.763-17.064C425.874,799.521,422.364,788.818,412.573,784.479 M413.212,825.957
		c-7.166-2.752-7.967-14.549-8.04-22.188c-0.073-8.332,0.183-19.199,7.475-15.971c7.146,3.17,7.876,14.512,7.985,22.334
		C420.741,817.771,420.541,828.748,413.212,825.957"/>
	<path fill="#575756" d="M456.24,813.031c-0.037-10.684-11.377-15.152-15.433-16.555c-5.325-1.859-7.886-2.826-12.864-4.777
		c0,0.637,0.01,0.93,0.018,1.549c4.722,2.898,4.887,3.191,4.978,9.408c0.164,13.512,0.183,17.705,0.402,33.057
		c2.241,0.746,3.372,1.129,5.669,1.859c-0.09-8.898-0.126-12.289-0.19-19.473c1.313,0.438,1.968,0.656,3.3,1.094
		c3.855,8.387,5.816,12.252,9.727,22.299c2.552,0.748,3.683,1.059,6.125,1.713c-3.947-10.502-5.88-14.422-9.973-23.154
		C452.366,820.67,456.259,819.832,456.24,813.031 M441.836,816.422c-1.23-0.4-1.841-0.619-3.044-1.021
		c-0.037-4.102-0.055-6.125-0.1-10.574c-0.046-4.504-0.101-5.854,3.546-4.594c4.575,1.566,8.131,4.959,8.131,11.414
		C450.388,818.318,445.32,817.57,441.836,816.422"/>
	<path fill="#575756" d="M474.601,806.066c-6.035-1.223-9.007-1.914-14.804-3.5c0.008,0.619,0.008,0.947,0.008,1.549
		c4.822,2.371,5.013,2.662,5.05,8.789c0.082,13.256,0.137,16.846,0.21,32.289c3.2,0.785,4.813,1.148,8.041,1.842
		c10.539,2.223,19.764,0.4,19.744-17.303C492.833,813.871,484.939,808.182,474.601,806.066 M474.7,844.08
		c-3.738-0.783-3.747-2.643-3.755-5.104c-0.083-11.598-0.137-15.17-0.211-26.895c-0.017-3.008,1.259-3.244,4.432-2.605
		c10.237,2.061,11.541,9.553,11.577,19.473C486.798,840.252,484.573,846.104,474.7,844.08"/>
	<path fill="#575756" d="M494.583,811.207c5.151,1.824,5.323,2.135,5.142,8.26c-0.383,13.311-0.475,16.738-0.938,32.361
		c8.796,1.242,13.228,1.68,22.152,2.262c0.264-4.248,0.392-6.143,0.628-9.719c-0.628-0.035-0.947-0.053-1.567-0.107
		c-0.564,4.795-2.151,6.271-5.343,5.998c-2.479-0.201-3.71-0.328-6.18-0.584c-2.781-0.291-3.493-0.637-3.374-4.229
		c0.201-5.709,0.274-8.115,0.446-13.109c2.727,0.291,4.095,0.438,6.829,0.691c3.4,0.293,4.577,2.135,4.431,5.232
		c0.638,0.057,0.957,0.074,1.586,0.129c0.227-4.832,0.329-7.037,0.547-11.924c-0.638-0.037-0.967-0.055-1.604-0.111
		c-0.42,1.898-0.93,4.377-4.851,4.031c-2.743-0.256-4.111-0.383-6.845-0.693c0.154-4.484,0.228-6.672,0.399-11.814
		c0.101-3.098,0.857-3.373,3.729-3.098c1.788,0.182,2.681,0.254,4.478,0.398c3.801,0.293,6.152,2.061,5.925,7.002
		c0.647,0.037,0.975,0.055,1.614,0.092c0.109-3.646,0.163-5.58,0.292-9.918c-11.113-0.602-16.646-1.131-27.459-2.719
		C494.602,810.277,494.602,810.588,494.583,811.207"/>
	<path fill="#575756" d="M543.319,816.168c5.306,0.875,5.451,1.184,5.178,7.42c-0.602,13.51-0.838,16.773-1.495,32.799
		c9.007-0.383,13.528-0.729,22.554-1.768c0.292-4.375,0.438-6.309,0.692-9.955c-0.638,0.072-0.948,0.109-1.587,0.184
		c-0.602,4.939-2.205,6.727-5.433,7.037c-2.517,0.236-3.772,0.328-6.29,0.529c-2.825,0.199-3.555-0.02-3.391-3.684
		c0.292-5.816,0.418-8.223,0.674-13.273c2.771-0.201,4.14-0.291,6.91-0.547c3.428-0.309,4.577,1.33,4.395,4.467
		c0.638-0.055,0.947-0.092,1.586-0.164c0.293-4.887,0.419-7.092,0.693-12.033c-0.639,0.055-0.966,0.09-1.605,0.164
		c-0.438,1.986-0.983,4.541-4.923,4.904c-2.771,0.254-4.139,0.348-6.908,0.547c0.218-4.521,0.346-6.746,0.582-11.979
		c0.165-3.154,0.93-3.574,3.811-3.811c1.788-0.146,2.681-0.219,4.485-0.402c3.774-0.363,6.09,1.021,5.817,6.035
		c0.654-0.072,0.965-0.109,1.604-0.182c0.128-3.701,0.201-5.652,0.365-10.1c-10.939,1.33-16.519,1.768-27.659,2.188
		C543.355,815.201,543.337,815.529,543.319,816.168"/>
	<path fill="#575756" d="M592.455,811.627c5.014-0.967,5.925,3.502,6.108,5.543c2.624-0.566,3.92-0.857,6.526-1.459
		c-0.42-4.959-3.409-9.371-11.979-7.693c-12.27,2.406-16.081,13.766-16.683,24.268c-0.747,12.707,3.246,22.078,14.841,19.963
		c5.599-1.021,10.247-4.084,11.688-5.141c0.073-1.877,0.109-2.771,0.165-4.504c-1.495,1.605-5.033,4.869-9.938,5.797
		c-10.902,2.063-10.829-12.068-10.482-18.469C583.047,824.061,584.888,813.086,592.455,811.627"/>
	<path fill="#575756" d="M622.957,804.006c4.613-1.439,5.615,2.936,5.871,4.959c2.353-0.82,3.519-1.221,5.889-2.059
		c-0.602-4.906-3.445-9.08-11.268-6.584c-11.195,3.557-14.676,15.354-15.022,25.854c-0.401,12.746,3.774,21.752,15.278,18.434
		c5.562-1.604,9.28-4.904,10.52-6.053c0-1.914,0-2.826-0.017-4.576c-1.277,1.732-3.92,5.141-8.753,6.582
		c-10.757,3.191-11.158-10.959-11.029-17.34C614.552,817.352,616.03,806.176,622.957,804.006"/>
	<path fill="#575756" d="M659.715,820.943c0.09,6.109-2.7,7.84-5.854,9.043c-1.731,0.658-2.588,0.986-4.304,1.623
		c-3.354,1.24-3.335,0.986-3.391-3.992c-0.146-14.896-0.456-17.813-0.565-35.025c-4.102,2.225-6.161,3.318-10.264,5.453
		c0,0.656,0,0.984,0,1.623c4.757-0.73,4.904-0.475,4.977,4.885c0.184,13.82,0.438,16.883,0.42,33.785
		c8.076-2.789,12.142-4.34,20.329-7.531c0.055-4.611,0.055-6.635,0.055-10.428C660.553,820.598,660.281,820.725,659.715,820.943"/>
	<path fill="#575756" d="M686.206,810.168c-0.128,5.217-1.513,7.494-4.412,8.68c-2.243,0.93-3.374,1.385-5.635,2.314
		c-2.533,1.021-3.172,1.004-3.246-2.826c-0.108-6.107-0.218-8.604-0.437-13.711c2.425-0.984,3.629-1.477,6.053-2.479
		c3.009-1.24,4.212,0.072,4.359,3.281c0.564-0.236,0.856-0.346,1.421-0.584c-0.237-4.994-0.383-7.184-0.657-11.996
		c-0.546,0.236-0.838,0.346-1.385,0.582c-0.2,2.008-0.42,4.633-3.864,6.055c-2.426,0.984-3.629,1.477-6.035,2.461
		c-0.219-4.521-0.329-6.691-0.511-11.76c-0.11-3.063,0.527-3.664,2.989-4.631c1.532-0.602,2.297-0.912,3.848-1.514
		c3.245-1.293,5.36-0.564,5.615,4.193c0.565-0.219,0.838-0.328,1.403-0.545c-0.255-3.502-0.382-5.326-0.602-9.408
		c-9.425,3.646-14.13,5.504-23.502,9.115c0,0.639,0.02,0.967,0.02,1.586c4.538-0.676,4.686-0.438,4.886,5.689
		c0.456,13.291,0.875,16.59,0.912,33.619c8.076-3.227,12.124-4.904,20.274-8.24c0.019-4.631,0-6.654-0.073-10.465
		C687.064,809.822,686.771,809.932,686.206,810.168"/>
	<path fill="#575756" d="M696.307,782.529c-0.272-3.904,1.75-6.818,4.395-7.824c3.864-1.475,7.675-0.873,9.079-0.602
		c-0.128-1.768-0.201-2.68-0.328-4.611c-1.295,0.146-4.576,0.475-7.986,1.75c-6.982,2.625-10.938,8.752-10.538,15.17
		c0.767,12.307,17.229,3.646,17.74,14.074c0.293,5.854-2.88,9.371-6.107,10.686c-4.084,1.658-8.223,0.236-9.846-0.346
		c0.073,2.24,0.091,3.408,0.128,5.924c1.075-0.055,5.013,0.02,8.969-1.586c7.057-2.861,12.874-10.119,12.345-18.98
		C713.373,782.947,696.89,791.609,696.307,782.529"/>
	<path fill="#575756" d="M713.116,768.488c0.036,0.566,0.056,0.84,0.092,1.387c4.886-0.947,5.031-0.785,5.471,3.975
		c1.13,12.252,1.967,15.717,2.277,32.891c2.261-0.855,3.392-1.275,5.635-2.115c-0.402-21.715-1.86-23.775-3.119-41.313
		C719.317,765.336,717.255,766.375,713.116,768.488"/>
	<path fill="#575756" d="M747.303,757.094c-3.792,1.131-7.969,1.713-11.741,2.916c0.037,0.549,0.054,0.803,0.109,1.332
		c2.043-0.291,3.92-0.766,4.139,1.514c0.053,0.4-0.311,2.535-0.512,3.555c-2.698,13.256-3.792,17.559-7.511,36.338
		c1.257-0.457,1.895-0.674,3.173-1.111c1.402-7.148,2.004-10.121,3.154-15.662c5.195-1.77,7.803-2.625,13.017-4.193
		c1.952,4.557,2.882,7.055,4.541,13.291c2.132-0.602,3.189-0.893,5.305-1.439C753.52,774.104,752.297,770.531,747.303,757.094
		 M738.733,782.91c1.586-7.455,3.338-12.307,4.778-19.361c2.88,5.943,4.503,9.682,6.509,15.715
		C745.498,780.65,743.254,781.379,738.733,782.91"/>
	<path fill="#575756" d="M763.257,759.9c1.402,11.396,2.46,15.152,2.734,32.473c8.114-1.932,12.16-2.734,20.219-3.811
		c0.036-4.793,0-6.908-0.146-10.83c-0.565,0.092-0.84,0.146-1.405,0.219c-0.036,5.289-1.421,7.275-4.32,7.768
		c-2.261,0.383-3.371,0.602-5.632,1.059c-2.555,0.508-3.173,0.346-3.355-3.537c-0.293-6.217-0.565-8.752-1.113-13.639
		c2.479-0.584,3.722-0.857,6.2-1.367c3.081-0.621,4.413,0.893,4.685,4.121c0.565-0.111,0.858-0.166,1.424-0.256
		c-0.42-5.033-0.694-7.203-1.239-11.613c-0.585,0.109-0.876,0.162-1.441,0.273c-0.092,1.785-0.182,4.191-3.721,4.922
		c-2.479,0.51-3.719,0.783-6.198,1.367c-0.51-4.248-0.803-6.217-1.296-10.482c-0.327-2.59,0.33-3.01,2.899-3.574
		c1.605-0.346,2.409-0.512,4.013-0.838c3.391-0.695,5.688,0.127,6.197,4.338c0.565-0.109,0.859-0.164,1.441-0.256
		c-0.438-3.117-0.655-4.668-1.039-8.004c-9.938,1.732-14.841,2.846-24.595,5.379c0.054,0.51,0.073,0.766,0.126,1.275
		C762.471,754.523,762.6,754.65,763.257,759.9"/>
	<path fill="#575756" d="M565.234,601.59c-1.002-2.098-5.798-11.34-7.201-13.291c-0.62-0.875-1.167-1.807-1.843-2.645
		c-2.37-2.971-1.986-6.09-1.676-6.947c0.984-2.842,2.588-7.621,5.433-18.924c1.366-5.488,1.531-8.389,1.659-9.373
		c0.492-4.174,0.784-6.818,0.383-10.356c-0.272-2.168-0.784-6.289-3.373-10.83c-2.698-4.721-6.108-7.273-6.818-7.803
		c-0.949-0.676-2.626-1.879-5.143-2.789c-0.675-0.256-4.147-1.459-8.815-1.059c-6.007,0.51-10.108,3.373-11.642,4.449
		c-0.947,0.691-4.585,3.393-7.364,8.332c-2.681,4.795-3.119,9.098-3.375,11.961c-0.291,3.408-0.701,7.912,1.459,12.945
		c1.659,3.846,4.177,6.545,5.069,7.494c1.259,1.328,2.462,2.334,3.373,3.025c0.564-0.967,1.495-2.334,2.89-3.719
		c3.045-3.01,4.613-3.52,7.375-3.629c1.075-0.055,2.717,0.402,3.774,0.895c0.164,0.072,0.311,0.271,0.482,0.4
		c0.886-1.787,1.121-5.58,1.121-7.422c0-2.643-0.126-4.246-0.765-5.67c-0.292-0.676-0.712-1.313-0.712-1.33
		c-0.501-0.766-1.056-1.605-1.968-2.244c-0.42-0.273-0.73-0.381-1.04-0.492c-0.528-0.182-1.24-0.436-1.823-1.275
		c-0.894-1.278-0.71-2.663-0.657-3.19c0.293-2.207,1.879-3.502,2.489-3.939c0.027-0.018,0.046-0.018,0.082-0.035
		c0.73-0.42,2.735-1.332,5.142-0.693c2.061,0.545,3.191,1.896,3.628,2.406c1.459,1.732,1.788,3.592,1.97,5.215
		c0.255,2.023,0.656,7.438-0.876,14.074l-0.091,0.42c-0.292,1.258-0.62,2.807-1.585,4.467c-0.42,0.711-0.749,1.203-1.013,1.586
		c-0.19,0.273-0.374,0.457-0.41,0.639c-0.62,3.992-0.583,29.281-0.319,33.365c0.091,1.459,0.229,17.176,0.374,20.658
		c0.036,0.711,0.109,3.025-1.222,3.938c-0.874,0.619-2.024,0.492-2.352,0.457c-1.532-0.166-2.59-1.096-2.991-1.479
		c-5.761-5.324-8.405-13.619-8.405-13.619c-1.513-4.74-3.236-11.504-3.993-19.965c-5.934,7.477-10.828,16.738-13.765,27.73
		c-2.516,9.428-1.186,18.506,0.766,26.785c0,0.018,0.584,2.605,1.14,4.977c1.577-0.418,3.328-0.51,4.968-0.256
		c0.064-0.109,0.129-0.199,0.211-0.311c0.027-0.016,0.045-0.035,0.082-0.072c0.747-0.691,1.896-1.877,3.099-3.117l0.036-0.035
		c2.28-2.354,4.851-5.016,6.619-6.383c0.602-0.455,1.495-0.438,2.087,0.037c0.594,0.475,0.775,1.33,0.43,2.025
		c-0.109,0.197-0.565,0.764-1.131,1.494c-0.311,0.383-0.638,0.818-0.948,1.221c0.091-0.092,0.182-0.164,0.274-0.256
		c0.802-0.748,1.621-1.494,1.877-1.676c0.51-0.33,1.222-0.275,1.677,0.127l0.074,0.072c0.428,0.438,0.501,1.113,0.173,1.641
		c-5.224,8.314-7.32,11.104-8.322,12.053c0,0.236,0,0.438,0,0.584c0,1.877-0.521,3.336-0.866,4.303
		c-0.502,1.402-1.067,2.387-1.679,3.445c-0.374,0.639-0.793,1.258-1.203,1.877c-1.111,1.66-2.16,3.229-2.434,5.197
		c-0.228,1.678,0.219,3.264,0.691,4.941c0.202,0.709,0.42,1.459,0.565,2.188c0.274,1.313,0.492,3.318,0.529,5.615
		c0.849,0.363,1.77,0.748,2.736,1.094c0.737,0.256,1.439,0.492,2.132,0.693c1.368-2.68,3.027-5.088,4.851-6.893
		c2.752-2.734,2.826-4.777,2.325-8.75c-0.119-0.895-0.301-1.732-0.502-2.553c-0.475-2.006-0.957-4.084-0.092-6.584
		c0.491-1.439,1.331-2.732,2.289-3.992c1.084-1.439,2.871-2.844,3.454-3.281c0.055-0.984,0.529-4.211,1.003-6.93
		c1.093-6.145,1.605-6.982,3.045-7.092h0.11c1.439,0,1.868,0.566,3.537,7.092c0.528,2.08,1.312,5.326,1.494,6.473
		c0.492,0.895,0.984,1.807,1.495,2.717c0.31,0.584,0.638,1.15,0.947,1.732c0.912,1.678,1.149,3.082,1.223,3.992
		c0.073,1.297,0.017,2.701-0.803,5.252c-0.328,1.021-0.638,1.986-0.729,3.008c-0.236,2.334,0.602,5.088,2.315,7.713
		c0.401,0.621,0.856,1.24,1.478,1.969c2.023,2.391,3.938,4.832,5.414,7.641c0.511-0.092,1.095-0.236,1.35-0.293
		c0.455-0.09,1.259-0.328,2.006-0.584l0.056-0.018c-0.02-3.371,0.491-6.527,0.856-8.297c0.146-0.746,0.347-1.475,0.565-2.188
		c0.473-1.676,0.911-3.262,0.692-4.939c-0.273-1.988-1.331-3.555-2.444-5.215c-0.4-0.602-0.82-1.238-1.203-1.877
		c-0.602-1.041-1.276-2.006-1.676-3.428c-0.694-2.498-0.456-4.613,0.017-6.236c-0.893-1.094-2.588-3.92-6.363-11.232
		c-0.2-0.363-0.108-0.82,0.238-1.094c0.164-0.145,0.363-0.199,0.565-0.199c0.2,0,0.399,0.055,0.564,0.182
		c0.729,0.566,1.933,1.77,3.227,3.172c-1.094-1.949-2.06-3.756-2.37-4.482c-0.218-0.514-0.036-1.115,0.42-1.441
		c0.219-0.129,0.456-0.201,0.693-0.201c0.31,0,0.602,0.109,0.839,0.311c1.621,1.494,3.955,4.34,6.034,6.855
		c0.784,0.947,1.531,1.859,2.151,2.588c1.203-0.162,2.516-0.109,3.793,0.184c0-0.037,0.018-0.074,0.018-0.129
		c0-0.217,0.384-1.477,0.893-2.953C568.68,639.77,574.842,621.756,565.234,601.59 M530.629,557.521
		c-0.347,1.131-1.386,1.916-2.553,1.916c-0.511,0-1.021-0.146-1.459-0.439c-3.363-2.225-5.552-5.762-5.853-9.443
		c-0.146-1.971,0.365-3.83,1.532-5.543c0.163-0.236,0.327-0.473,0.509-0.711c0.484-0.656,0.932-1.275,0.949-1.768
		c0.009-1.442,1.166-2.573,2.644-2.573c0.73,0,1.441,0.293,1.95,0.803c0.492,0.492,0.767,1.167,0.757,1.877
		c-0.01,1.168-0.373,2.152-0.848,3.008c1.505,0.877,2.771,2.645,2.652,5.107c-0.053,1.293-0.902,4.01-1.193,4.939
		C530.583,555.352,530.957,556.465,530.629,557.521 M533.965,633.332c-0.737,0.766-1.696,1.168-2.79,1.168
		c-0.218,0-0.437-0.02-0.656-0.037c-1.423-0.219-2.37-1.059-3.099-2.098c-2.507-3.645,3.591-11.904,4.457-12.67
		c0.329-0.311,0.766-0.457,1.205-0.457c0.19,0,0.373,0.037,0.545,0.092c0.611,0.201,1.067,0.693,1.195,1.313
		C535.561,624.271,536.444,630.742,533.965,633.332 M544.568,634.135c-0.702,0.656-1.642,1.002-2.626,1.002
		c-0.155,0-0.318,0-0.492-0.018c-1.34-0.164-2.635-0.949-3.383-2.061c-1.85-2.736-0.829-5.469-0.017-7.658
		c0.373-1.002,0.721-1.932,0.819-2.807c0.073-0.693,0.648-1.24,1.358-1.295c1.177-0.092,1.868,0.82,2.198,1.277
		c0.081,0.107,0.126,0.182,0.19,0.236c0.812,0.857,2.945,3.994,3.254,5.578C546.272,630.307,546.016,632.822,544.568,634.135
		 M554.659,633.568c-0.165,0.037-0.311,0.074-0.456,0.092c-1.787,0.311-3.646-0.492-4.667-2.023
		c-1.276-1.951-1.714-4.139-2.098-6.072c-0.328-1.678-0.656-3.244-1.423-4.576c-0.4-0.691-0.255-1.586,0.329-2.096
		c0.602-0.549,1.514-0.602,2.151-0.146c1.496,1.039,8.935,6.453,8.86,11.34C557.34,631.746,556.263,633.096,554.659,633.568"/>
	<path fill="#575756" d="M870.792,636.67c-4.469-5.799-13.713-7.805-19.875-3.83c-1.038-4.814-7.621-37.979-9.188-50.576
		c38.817-4.521-23.63-64.581-25.49-24.814c-11.394,0.072-40.84-1.551-47.878-1.859c7.622-17.067-12.999-26.475-25.507-15.334
		c-2.862-2.115-18.159-12.709-26.984-18.908c0-15.533-0.017-31.285-0.017-46.564c27.166,3.41,51.814,0.656,77.123-11.504
		c8.604,14.622,25.196,6.945,22.354-6.637c14.841-12.381,39.307-33.586,47.475-51.233c2.846-6.181-3.845-10.503-9.043-6.729
		c2.244-4.045,2.607-10.756-4.047-11.502c1.313-4.521-2.022-12.983-7.767-10.357c1.13-4.229-3.702-9.772-7.894-8.186
		c1.13-2.262-1.296-16.5-9.136-12.052c0.219-4.723-6.125-12.999-11.833-10.339c0.219-4.539-1.002-10.191-8.66-11.066
		c-4.485,0-6.2,6.783-8.187,14.623c-3.901,14.695-12.524,28.788-21.733,40.949c-9.007-4.558-24.175,8.223-16.883,16.537
		c-6.8,5.998-24.522,10.484-41.843,11.688c-0.02-28.846-0.056-44.069,0.054-53.586H628.52c12.379-8.879,53.62-38.617,65.417-46.729
		c0.365,0.62,7.529,10.575,11.085,15.206c3.282-2.262,9.427-6.418,11.815-8.15c1.567,2.17,3.792,5.396,5.997,8.66
		c-2.334,1.641-9.407,6.619-11.632,8.188c3.374,4.648,18.397,25.451,21.752,30.118c3.884-2.733,10.465-7.364,14.329-10.1
		c-1.548-2.151-9.152-12.671-10.865-15.041l9.646-6.802c1.748,2.442,9.262,12.836,10.864,15.061
		c4.485-3.155,16.173-11.377,20.658-14.551c-3.354-4.666-12.233-17.302-17.283-23.773c-2.133,1.494-8.935,6.289-11.159,7.857
		l-7.804-10.83c4.085-2.917,7.639-5.396,11.323-7.804c-1.586-2.206-6.346-8.788-8.005-11.085c4.65-3.264,8.696-6.126,11.396-8.022
		c2.278,3.446,5.487,7.53,8.386,10.685c3.756-2.645,10.064-7.111,11.998-8.479c1.987,2.771,4.922,6.855,7.804,10.813
		c-2.39,1.677-10.064,7.092-12.309,8.66c3.302,4.594,13.896,19.254,17.194,23.848c4.539-3.209,17.157-12.088,21.696-15.297
		c-1.53-2.152-9.097-12.708-10.792-15.097l7.874-5.561c1.952,2.626,9.555,12.854,11.343,15.261l14.895-10.739
		c-3.445-4.795-18.397-25.507-21.879-30.32c-2.207,1.567-11.359,8.004-13.729,9.681l-6.218-8.605
		c2.426-1.714,11.47-8.095,13.73-9.682c-1.55-2.15-9.245-12.799-10.957-15.169c2.241-1.642,6.38-3.61,5.322-7.093
		c-0.619-2.807-9.937-14.713-12.727-15.588c-1.731-0.73-3.572,0.455-3.609,0.564L621.463,340.246
		c-1.167-6.618-3.938-23.338-5.744-34.66h35.39c2.588,0,4.687-2.078,4.687-4.631c0.618-4.084-2.244-6.965-6.4-6.345v-3.3
		c6.893-0.529,6.893-11.049,0-11.578V251.38c-0.895,1.568-2.954,5.233-3.92,6.93c-0.365-4.158-1.276-9.154-2.334-12.928
		c7.221,1.494,8.515-10.793,1.367-10.977c-1.313,0.019-6.108-0.018-7.348,0v-2.661c7.694,0.108,7.694-11.815,0-11.706v-22.443
		c-2.425,4.066-4.193,7.73-6.764,12.508c-1.514-6.746-3.865-13.146-6.983-19.107c3.264-0.219,4.703-3.41,4.303-6.309
		c0.092-5.488-6.8-4.65-10.521-4.632c0,0-0.018,0-0.036,0c6.419-0.528,6.965-10.192,0.675-11.431
		c-0.037-0.493-0.054-19.893-0.054-19.893c-2.171,3.793-4.049,7.402-6.273,11.633c-6.49-13.072-32.763-37.996-57.304-42.3
		c-0.4-5.979-3.902-10.265-6.309-11.03v-0.675V91.228h10.138v-12.49h-10.138V67.762h-15.278v10.976h-10.138v12.49h10.138v15.132
		v0.675c-2.334,0.93-5.58,4.504-6.254,10.702c-20.312,3.847-41.022,18.871-57.231,42.901c-2.17-4.066-3.719-7.238-5.834-10.738
		v18.596c-6.673,0.766-6.527,10.994,0.164,11.56c-0.045,0-4.877,0-5.059,0c-1.523,0-5.48,0.948-5.607,4.632
		c-0.418,2.971,1.112,6.217,4.467,6.326c-0.684,1.714-5.215,12.27-7.129,19.145c-2.588-4.795-4.356-8.479-6.799-12.563v22.535
		c-8.898-1.439-8.881,12.963,0,11.522v2.753c-1.205-0.018-6.036,0.019-7.331,0c-7.166,0.184-5.87,12.471,1.349,10.977
		c-1.065,3.811-1.967,8.843-2.324,13.055c-0.757-1.568-3.09-5.58-3.91-7.057v28.352c-8.57-1.112-8.57,12.689,0,11.578v3.3
		c-4.158-0.62-7.029,2.261-6.399,6.345c0,2.553,2.096,4.631,4.685,4.631h34.742c-1.557,10.958-4.074,27.859-5.269,34.66
		L296.269,225.472c-0.056-0.109-1.887-1.295-3.619-0.564c-2.78,0.875-12.107,12.781-12.717,15.588
		c-1.058,3.482,3.044,5.451,5.305,7.093c-1.768,2.442-9.353,12.944-10.957,15.169c2.215,1.551,11.359,8.005,13.747,9.682
		l-6.217,8.605c-2.443-1.713-11.486-8.076-13.747-9.681c-3.465,4.813-18.416,25.525-21.879,30.32l14.914,10.739
		c1.742-2.353,9.427-12.709,11.324-15.261l7.894,5.561c-1.749,2.443-9.225,12.891-10.812,15.097
		c4.542,3.209,17.158,12.088,21.696,15.297c3.318-4.594,13.894-19.254,17.212-23.848c-2.207-1.551-9.974-7.02-12.316-8.66
		c2.871-3.957,5.826-8.041,7.794-10.813c1.924,1.367,8.259,5.834,12.016,8.479c2.879-3.154,6.107-7.238,8.368-10.685
		c2.698,1.896,6.746,4.759,11.395,8.022c-1.676,2.314-6.39,8.861-7.996,11.085c3.675,2.407,7.23,4.887,11.332,7.804l-7.812,10.83
		c-2.271-1.604-8.998-6.345-11.159-7.857c-5.077,6.508-13.912,19.088-17.275,23.773c4.485,3.174,16.163,11.396,20.657,14.551
		c1.55-2.152,9.144-12.672,10.868-15.061l9.627,6.802c-1.76,2.423-9.263,12.835-10.867,15.041c3.884,2.735,10.447,7.366,14.331,10.1
		c3.363-4.667,18.379-25.47,21.75-30.118c-2.188-1.551-9.324-6.564-11.622-8.188c2.195-3.264,3.517-5.178,5.087-7.365
		c2.396,1.75,8.368,5.651,11.65,7.912c3.591-4.667,11.75-15.588,12.152-16.263l64.597,45.381c0.31,0.218,1.459,0.966,1.595,1.349
		h-88.09c0.109,9.443,0.073,24.596,0.054,53.203c-17.658-1.131-37.923-5.27-44.76-11.305c7.275-8.314-7.885-21.095-16.902-16.537
		c-9.199-12.161-17.822-26.236-21.723-40.949c-1.979-7.84-3.692-14.623-8.187-14.623c-7.649,0.875-8.888,6.509-8.65,11.066
		c-5.726-2.66-12.044,5.616-11.853,10.339c-7.84-4.468-10.247,9.79-9.116,12.052c-4.193-1.587-9.043,3.956-7.913,8.186
		c-5.725-2.626-9.061,5.836-7.748,10.357c-6.673,0.764-6.29,7.457-4.066,11.502c-5.179-3.754-11.889,0.549-9.043,6.729
		c8.204,17.685,32.617,38.816,47.494,51.233c-2.843,13.582,13.747,21.259,22.354,6.637c26.236,12.635,51.817,15.078,80.059,11.029
		c-0.019,15.406-0.037,31.324-0.037,47.021c-8.825,6.182-24.158,16.811-27.021,18.926c-12.525-11.141-33.127-1.715-25.507,15.334
		c-7.056,0.309-36.464,1.932-47.878,1.859c-1.86-39.766-64.306,20.293-25.489,24.814c-1.568,12.598-8.149,45.762-9.19,50.576
		c-10.264-6.709-25.853,3.592-22.698,15.643c2.425,9.828,23.628,30.924,34.331,30.924c8.742,0.418,17.404-10.813,13.328-19.107
		c2.661-0.857,11.541-2.316,11.979-2.406c20.265,34.477,97.179,70.832,132.449,92.783c2.762,1.094,7.375,2.061,8.926-1.332
		c3.864-4.721,11.959-10.701,6.545-17.355c3.883-1.971,6.436-7.82,4.776-11.139c4.996-2.5,5.224-6.365,2.735-10.996
		c1.842-1.402,4.167-4.777,1.806-7.127c-1.041-1.223-2.188-2.883-3.939-3.029c-9.08-1.42-18.087-3.463-26.801-5.434
		c-15.315-3.48-31.159-7.072-47.86-7.348c-2.662-1.219-6.181-3.262-10.365-5.996l0.027-0.074c-6.601-4.104-13.856-9.607-22.827-16.5
		c17.32,7.875,48.808-33.074,20.757-36.975l0.958-6c7.192,4.285,24.85,2.682,34.095-1.586
		c19.189,63.869,53.622,73.131,172.57,133.516C659.349,692.697,693.244,684,712.733,619.805c9.191,4.248,26.932,5.852,34.061,1.566
		l0.966,6c-28.06,3.9,3.428,44.85,20.748,36.975c-8.971,6.91-16.227,12.396-22.827,16.5l0.036,0.074
		c-4.193,2.734-7.711,4.777-10.375,5.996c-16.699,0.275-32.544,3.867-47.858,7.348c-8.716,1.971-17.723,4.014-26.802,5.434
		c-1.732,0.146-2.917,1.807-3.938,3.029c-2.334,2.332-0.073,5.76,1.806,7.127c-2.498,4.631-2.244,8.496,2.734,10.996
		c-1.66,3.318,0.893,9.168,4.776,11.139c-5.378,6.637,2.644,12.635,6.546,17.355c1.55,3.393,6.162,2.426,8.934,1.332
		c35.243-21.934,112.148-58.289,132.439-92.783c0.439,0.09,9.317,1.549,11.979,2.406c-4.155,8.531,4.961,19.982,13.984,19.088
		C853.014,676.67,883.263,651.873,870.792,636.67 M272.658,337.675c3.793-0.838,5.908,13.71,7.713,18.451
		c4.786,12.561,12.663,26.182,20.757,36.392C299.423,411.972,249.339,340.902,272.658,337.675 M261.471,348.195
		c2.016-0.966,1.706,0.092,3.711,6.254c6.145,16.975,23.994,41.404,29.537,45.235c0.565,1.841-2.17,5.834-3.272,5.778
		c-13.31-7.547-28.779-32.452-30.412-35.17C258.528,366.462,248.445,354.521,261.471,348.195 M248.537,358.606
		c1.002-0.327,2.78-1.276,4.786,2.899c2.433,5.031,11.585,20.948,19.882,30.684c3.811,4.468,9.827,12.07,13.583,15.225
		c3.473,2.918,2.716,3.773,1.276,6.072c-3.345,3.828-5.569,0.036-7.802-1.66c-10.048-9.553-19.318-14.805-34.096-41.188
		C243.431,365.751,247.88,358.186,248.537,358.606 M242.575,371.058c18.926,28.005,18.25,28.917,40.84,47.751
		c2.462,1.86-1.978,6.528-5.506,4.085c-4.631-3.027-25.826-23.447-34.951-37.76C238.217,377.695,236.148,371.933,242.575,371.058
		 M232.728,378.825c2.891-0.618,4.859,3.939,5.999,5.671c15.652,23.52,19.263,25.307,37.905,43.631
		c1.13,15.77-30.138-19.273-31.962-21.952c-0.674-0.493-9.169-10.41-13.618-17.794C229.083,385.097,229.702,381.378,232.728,378.825
		 M225.966,390.367c2.615-1.514,2.643-0.42,3.135,0.238c10.748,14.292,19.043,24.959,32.253,37.412
		c1.131,1.058,12.235,9.517,10,11.559c-1.942,3.373-5.625,0.93-7.394-0.254C255.865,432.701,219.319,401.288,225.966,390.367
		 M263.861,453.269c-9.017-2.845-51.606-44.451-46.174-53.111c1.175-1.203,4.758,0.092,5.981,1.695
		c7.93,10.318,14.896,19.545,24.759,28.441C253.588,436.404,272.129,445.591,263.861,453.269 M281.501,460.379
		c-9.043,14.53-19.719,2.534-14.239-5.488c5.778-8.441,37.003-59.948,37.003-59.948c2.797-3.957,15.142,2.898,13.044,8.661
		l-31.843,49.792C285.466,453.396,282.331,459.03,281.501,460.379 M364.184,470.261c-27.056,4.176-53.603,1.277-77.652-10.447
		c-0.929,0.602,30.267-47.77,31.05-49.1c9.445,7.639,33.093,11.029,46.967,11.924C364.769,436.24,363.566,461.035,364.184,470.261
		 M364.468,553.346c0.036,14.004-0.01,26.803,0.1,39.346c-7.038,5.652-20.675,4.74-27.877,2.535l1.678-13.256
		c14.148,5.689,27.248-10.902,17.485-23.045C355.269,559.09,360.283,555.881,364.468,553.346 M364.058,527.437l-0.191,19.292
		c0,0.529-7.12,4.813-11.277,7.748c-3.629-4.447-7.11-7.547-11.459-11.23C347.757,538.468,357.101,532.433,364.058,527.437
		 M320.755,540.054c12.417-3.664,28.343,15.809,33.493,24.616c2.625,8.131-2.981,14.129-10.065,14.129
		c-7.949,1.039-21.422-16.027-26.436-21.041C313.9,552.033,312.888,542.371,320.755,540.054 M264.919,627.043
		c-0.502,1.549-0.866,3.098-1.157,4.648l-8.177,1.186c1.276-9.938,5.424-32.965,8.815-50.67l47.712-1.439
		c-0.602,3.684-1.292,14.094-1.557,14.148C279.55,600.988,268.629,615.738,264.919,627.043 M307.29,611.453
		c-3.107-1.951-8.924-5.195-5.15-10.174c2.881-0.838,5.178-1.787,8.46-2.424c-0.365,2.061-1.887,14.84-2.57,18.633
		c-0.019,0-0.028,0-0.046,0.018C308.721,614.17,308.119,612.42,307.29,611.453 M288.939,622.576
		c-5.814-0.256-10.683,0.182-12.288-6.93c1.578-1.678,3.373-3.264,5.396-4.795c0.557,12.689,14.113,0.693,12.672,12.271
		c-0.556,0.4-1.349,1.002-2.243,1.859C291.602,623.996,290.452,623.049,288.939,622.576 M289.933,627.99
		c-1.067,1.477-2.115,3.592-2.644,5.469c-5.332-5.943-13.317,2.354-18.917-2.971c0.902-3.5,2.398-6.947,4.578-10.191
		C278.619,627.717,285.065,623.178,289.933,627.99 M296.653,606.275c2.36,7.713,8.842,4.139,7.593,12.453
		c-1.586,0.547-3.474,1.275-5.414,2.188c0.281-12.744-13.72-2.68-13.629-12.217c3.409-2.15,7.348-4.102,11.914-5.76
		C296.488,604.543,296.579,605.764,296.653,606.275 M307.181,622.191c-0.392,2.189-0.748,4.23-1.048,5.963
		c-4.429,0.363-9.38,0.965-12.672,1.422C295.12,627.59,298.877,624.928,307.181,622.191 M267.599,634.555
		c6.499,5.25,14.785-3.482,18.896,4.447c0.037,2.043,0.137,2.826,0.475,4.285c-7.138-4.922-12.417,4.504-19.472-0.748
		C267.252,639.895,267.262,637.217,267.599,634.555 M270.908,655.648c-1.076-2.479-1.934-5.086-2.543-7.73
		c7.429,3.939,11.678-4.447,19.546-1.33c0.838,2.188,1.95,4.01,3.054,5.469C279.604,649.467,277.69,658.092,270.908,655.648
		 M278.201,667.227c-1.514-1.768-2.973-3.666-4.249-5.744c9.882-1.914,8.551-7.621,20.311-5.797
		c1.358,1.148,2.744,2.643,4.813,4.211C283.379,659.186,286.989,670.326,278.201,667.227 M299.031,654.336l6.811-1.24
		c0.529,4.158,1.375,6.965,3.811,9.572C306.871,660.607,299.223,654.574,299.031,654.336 M282.576,671.693
		c3.009,0.055,7.367-3.883,8.378-6.162c0.665-2.734,13.757-3.793,17.841,1.842c-11.25-0.348-10.803,7.293-21.205,8.586
		C286.076,674.738,284.255,673.207,282.576,671.693 M327.227,703.893c6.436-7.549,8.442-3.375,14.514-5.926
		c-1.048,5.361-9.435,6.125-12.015,7.512C328.896,704.949,328.057,704.438,327.227,703.893 M418.956,703.836l1.33,1.588
		c-0.764,0.547-1.313,1.094-1.749,1.641l-34.98-1.695l34.141,5.814c2.079,4.541,1.97,4.23-2.425,7.186l-34.787-4.852l34.604,9.227
		c1.478,3.646-4.958,6.363-5.933,8.186l-31.133-11.703l33.493,16.791c0.912,2.297-0.803,3.664-2.442,5.543l-30.64-15.754
		l27.503,18.926c-0.866,0.93-1.623,1.879-2.079,2.807c-13.838-4.957-26.153-14.748-39.462-21.404
		c4.657-5.469,16.864-21.842,15.142-30.484C392.554,698.404,405.464,701.74,418.956,703.836 M375.052,694.721
		c2.033,8.369-10.137,23.738-14.86,28.99c-1.676-0.967-3.354-1.934-5.031-2.898c4.849-5.07,16.5-19.127,15.561-26.875
		C372.17,694.211,373.611,694.43,375.052,694.721 M365.671,693.061c1.468,6.965-10.511,20.203-15.333,24.963
		c-1.96-1.15-3.893-2.354-5.862-3.539c5.416-3.627,16.627-14.258,15.442-22.207C361.834,692.516,363.766,692.77,365.671,693.061
		 M346.317,700.117c1.988-4.996,2.206-6.582,2.124-8.861c2.17,0.094,4.313,0.291,6.445,0.492c1.385,7.184-9.572,16.666-15.16,19.875
		c-1.769-1.076-3.565-2.115-5.324-3.209C336.462,706.553,344.183,705.496,346.317,700.117 M343.491,690.855
		c-5.25,7.494-14.932,2.279-20.083,10.557c-0.802-0.529-1.595-1.076-2.388-1.605c7.739-4.848,8.232-10.537,19.043-10.666
		C341.285,689.799,342.433,690.381,343.491,690.855 M332.688,684.711c0.922,0.602,1.833,1.168,2.727,1.732
		c-8.688,1.367-10.392,8.021-18.041,10.922c-0.968-0.656-1.943-1.297-2.909-1.951C324.054,693.207,320.045,681.721,332.688,684.711
		 M320.017,675.887c2.069,1.531,4.148,3.008,6.208,4.467c-10.593,2.426-5.361,11.104-16.592,11.65
		c-2.461-1.75-5.434-3.885-8.624-6.182C313.335,684.984,308.575,675.268,320.017,675.887 M312.34,670.107
		c0.922,0.729,1.888,1.439,2.836,2.17c-9.863,1.695-5.223,10.537-19.043,10.045c-1.268-0.91-2.543-1.822-3.793-2.717
		c4.449-0.691,6.273-5.596,9.49-6.783C304.045,672.568,309.524,671.055,312.34,670.107 M327.383,632.256
		c35.398-5.523-18.333,54.334-17.495,16.646l-14.203,2.17c-3.099-3.902-5.751-11.67-3.682-17.066
		c3.454-0.492,12.973-1.768,17.768-1.859c1.869-11.559,7.075-55.754,7.075-55.754l-56.02,1.859c0,0-10.393,53.73-9.864,59.547
		l12.216-1.787c-0.42,5.727,0.036,12.563,1.732,17.832c-4.485,1.039-11.651,1.842-16.627,3.064
		c6.655,5.486,1.049,18.305-7.275,18.305c-8.66-0.055-28.223-19.619-30.193-27.66c-1.768-12.744,13.291-15.77,21.495-8.26
		c3.666-19.854,8.99-43.775,10.229-61.078c-36.411,1.861,19.581-53.768,18.05-17.338l51.523-1.641l22.08,21.531
		C334.192,580.768,329.052,619.822,327.383,632.256 M342.962,616.432c-0.273,0.818-0.747,2.041-1.787,2.916
		c-3.236-0.547-5.361-1.549-7.275-2.061c1.468-9.59,1.914-14.348,2.343-18.066c2.188,0.418,2.707,0.254,4.823,0.656
		C336.244,609.74,345.77,609.01,342.962,616.432 M352.953,619.549c-2.479,0.564-4.995,0.564-7.566,0.346
		c6.326-12.762-4.502-8.715-0.51-19.363c1.531,0.256,2.962,0.457,4.211,0.602c1.458,13.877,7.146,6.965,10.884,16.594
		C357.567,618.418,355.133,619.055,352.953,619.549 M364.058,616.521c-3.136-10.592-11.231-6.053-10.629-15.205
		c7.348-1.422,9.917-3.537,11.121-4.303c0.311,4.467,0.347,10.738,1.678,18.869C366.227,615.883,364.412,616.777,364.058,616.521
		 M800.577,262.156l-13.693,9.736l11.05,15.133l13.674-9.736l17.139,23.447c0,0-5.633,4.029-8.386,5.98l-11.159-14.859
		l-14.44,10.283l10.885,15.041l-14.987,10.685l-12.561-17.193l12.289-8.751c-5.599-7.549-12.618-17.303-12.618-17.303
		s-2.004,1.403-12.287,8.732c-3.612-4.084-8.005-10.957-8.005-10.957s-8.204,5.871-18.123,12.908l7.985,10.958
		c-3.263,2.225-11.195,7.985-11.195,7.985l12.617,17.303l11.214-7.967c2.388,3.081,12.562,17.192,12.562,17.192l-13.966,9.937
		l-10.957-15.004l-16.229,11.559l10.94,15.006l-7.639,5.451l-18.033-24.359l11.488-8.186c0,0-9.191-14.039-10.028-14.313
		c-4.469,3.354-3.976,2.972-11.597,8.26c-5.379-7.093-8.88-12.162-8.88-12.162c2.354-1.677,6.127-4.375,10.868-7.767
		c11.413-8.169,28.405-20.311,44.212-31.597c9.863-7.037,19.272-13.748,26.602-18.926c5.562-3.956,9.938-7.02,12.381-8.697
		L800.577,262.156z M786.448,228.754c0,0,9.245,10.976,9.773,13.401c0.199,0.856-175.396,123.232-175.396,123.232h-27.913
		L786.448,228.754z M617.706,341.904l-31.577,23.047h-13.821c-2.989-22.445-5.98-37.559-5.104-59.365h44.595
		C612.912,312.916,615.719,332.206,617.706,341.904 M517.418,305.585h45.501c-1.041,19.691,2.57,38.16,4.594,59.803h-54.697
		C514.849,343.728,518.449,325.294,517.418,305.585 M531.522,112.012c0.547-1.04,1.914-2.388,3.957-2.388c0.282,0,9.535,0,9.826,0
		c2.188,0,3.593,2.26,3.702,2.441l0,0c0.656,1.149,1.222,2.809,1.714,5.215c0,0-10.794-1.896-20.94,0
		C529.763,117.3,530.92,113.179,531.522,112.012 M473.388,160.929c39.737-58.508,99.795-50.631,135.147,1.97
		c-5.761,10.702-7.274-0.438-11.431-5.196c-2.079,2.717-3.373,8.897-7.092,9.918c-4.997-4.43-8.006-14.148-11.725-19.563
		c-3.829,5.359-6.601,15.497-11.941,19.581c-2.899-1.55-5.015-7.312-7.021-10.009c-2.006,2.697-4.139,8.459-7.021,10.009
		c-5.342-4.084-8.111-14.222-11.959-19.563c-3.701,5.379-6.729,15.078-11.669,19.49c-3.555-0.803-4.978-7.329-7.457-9.863
		c-2.079,2.717-3.373,8.897-7.092,9.918c-4.997-4.43-8.005-14.148-11.724-19.563c-3.829,5.359-6.61,15.497-11.942,19.581
		c-2.899-1.55-5.014-7.312-7.03-10.009c-1.623,2.717-4.266,7.311-6.226,9.717c-2.406,1.203-3.737-3.19-5.178-4.594
		C472.284,162.187,473.388,160.929,473.388,160.929 M465.657,180.019c5.361-1.148,5.953-9.371,0.703-11.176l-0.118-8.898
		c0.592,1.076,1.193,2.207,1.795,3.301c0.492,0.911,0.985,1.786,1.477,2.643c0.565,0.967,1.131,1.879,1.713,2.699
		c2.517,3.592,5.233,5.488,8.478,2.242c1.15-1.13,2.353-2.898,3.629-5.451c1.332,2.753,2.608,4.576,3.819,5.689
		c3.036,2.789,5.735,1.074,8.16-2.28c1.786-2.442,3.427-5.743,4.978-8.788c0.055-0.109,0.109-0.219,0.163-0.328
		c0.574-1.131,1.131-2.225,1.696-3.227c0.055-0.092,0.11-0.201,0.163-0.311l0,0c4.387,7.859,10.775,26.164,19.054,9.572
		c4.104,8.916,10.028,8.732,13.528,0.311c1.787-3.063,3.692-6.71,5.36-9.9c4.65,8.205,10.758,26.346,18.962,9.262
		c8.204,16.92,14.076-0.584,18.979-9.244c4.358,7.749,10.995,26.547,18.999,9.391c5.014,10.721,9.518,7.238,13.237,1.313
		c0.655-1.058,1.313-2.207,1.931-3.373c0.968-1.842,1.879-3.684,2.717-5.307v10.447c-6.29,1.258-5.688,10.994,0.712,11.45
		c-0.055,0.019-0.311,0-0.712,0c-0.528,0.019-34.787,0-36.026,0c7.201-0.62,6.636-11.778-0.656-11.632
		c-7.312-0.146-7.858,11.012-0.657,11.632h-36.774c7.202-0.62,6.656-11.778-0.655-11.632c-7.295-0.146-7.859,11.012-0.657,11.632
		h-36.756c7.201-0.62,6.645-11.778-0.657-11.632c-7.302-0.146-7.857,11.012-0.656,11.632h-36.155h-0.565
		C465.33,180.055,465.584,180.037,465.657,180.019 M455.84,185.544c0-2.518,2.734-2.335,3.428-2.335H623.03
		c2.317,0,2.079,4.668,0,4.668c-1.659,0-160.699,0-163.507,0C458.21,187.877,455.84,187.877,455.84,185.544 M460.561,193
		c0.201-0.565,0.456-1.167,0.875-1.97h157.693c2.005,1.04,8.569,21.569,8.569,21.569s-2.681,4.249-4.686,6.71
		c-0.602,1.076-2.681,1.422-3.537,0.584c-2.335-2.973-5.525-8.57-7.439-11.815c-2.261,2.917-5.434,11.377-8.897,12.397
		c-5.597-2.625-11.231-19.453-15.078-24.723c-3.811,6.637-8.569,17.102-13.054,23.666c-4.704,4.668-8.66-8.715-10.758-11.286
		c-3.063,3.228-4.741,11.669-9.427,12.253c-0.692-0.11-1.294-0.475-1.695-1.04c-4.395-6.546-9.188-16.755-12.872-23.501
		c-3.683,6.728-8.479,16.975-12.871,23.501c-0.402,0.565-1.004,0.93-1.696,1.04c-4.687-0.584-6.382-9.025-9.444-12.253
		c-2.041,2.462-6.054,15.972-10.758,11.286c-4.467-6.582-9.225-17.012-13.036-23.666c-3.865,5.287-9.471,22.08-15.078,24.723
		c-3.481-1.002-6.637-9.48-8.898-12.397c-5.778,9.099-8.933,20.128-14.858,3.774C455.092,205.91,460.507,193.128,460.561,193
		 M446.02,230.87c0.939-0.511,4.586-5.142,0.466-9.663l-0.401-13.584c0.729,1.313,1.459,2.681,2.188,4.048
		c1.823,3.428,3.664,6.837,5.616,9.317c2.862,3.646,5.961,5.287,9.536,2.006c1.559-1.423,3.208-3.793,4.977-7.348
		c1.715,3.5,3.318,5.852,4.851,7.293c3.647,3.445,6.837,1.713,9.736-2.061c2.061-2.681,3.957-6.363,5.761-9.974
		c1.239-2.498,2.452-4.959,3.629-7.001c0.766,1.349,1.567,2.917,2.406,4.613c1.934,3.883,4.103,8.313,6.491,11.577
		c2.717,3.72,5.742,5.889,9.044,3.938c0.218-0.129,0.428-0.256,0.618-0.42c0.01,0,0.02,0,0.02-0.018
		c1.75-1.277,3.573-3.721,5.47-7.713c1.759,3.828,3.465,6.217,5.124,7.548c0.618,0.493,1.239,0.856,1.841,1.058
		c0.054,0.018,0.091,0.037,0.136,0.055c2.955,0.93,5.698-1.386,8.214-4.941c2.406-3.373,4.595-7.876,6.555-11.796
		c0.684-1.35,1.331-2.644,1.96-3.792c0.803,1.459,1.659,3.154,2.535,4.922c1.913,3.812,3.992,7.986,6.235,11.104
		c3.025,4.158,6.381,6.382,10.063,3.174c1.605-1.368,3.245-3.72,4.96-7.385c2.133,4.303,4.119,6.818,5.979,8.059
		c3.282,2.17,6.199,0.291,8.825-3.19c2.188-2.881,4.157-6.837,5.998-10.538c1.148-2.298,2.242-4.485,3.282-6.236
		c0.674,1.223,1.386,2.645,2.114,4.139c1.97,3.92,4.157,8.388,6.563,11.742c2.516,3.5,5.252,5.743,8.188,4.795l0,0
		c0.546-0.182,1.094-0.474,1.64-0.875c0.036-0.019,0.074-0.037,0.092-0.055c0.073-0.055,0.146-0.127,0.2-0.164
		c1.678-1.367,3.428-3.829,5.234-7.749c1.603,3.354,3.135,5.616,4.611,7.056c1.166,1.131,2.28,1.75,3.374,1.915
		c0.072,0.019,0.126,0.019,0.2,0.036c2.352,0.237,4.521-1.531,6.563-4.248c2.244-2.99,4.34-7.092,6.346-10.921
		c0.42-0.802,0.839-1.587,1.24-2.353l0.091,13.055c-1.387,0.456-1.915,1.531-2.517,2.662c-0.984,1.787-0.984,4.084,0,5.871
		c0.602,1.13,1.13,2.096,2.517,2.552v2.808c-15.753-0.109-172.643-0.127-188.57-0.055V230.87z M436.002,242.228
		c-0.893,0-1.395-0.748-1.448-1.258c-0.056-0.529-0.083-1.514-0.046-1.933c0,0,0,0,0-0.019l0,0c0-0.182,0-1.477,1.714-1.477h201.906
		c0.948,0,2.407,0,3.792,0c0.985,0.018,1.914,0.018,2.589,0l0,0c0.201,0,0.401,0.055,0.565,0.127c0,0,0.019,0,0.036,0.02
		c0.128,0.055,0.256,0.127,0.365,0.236c0.183,0.182,0.328,0.42,0.438,0.674c0.255,0.656,0.274,1.514,0.072,2.225
		c-0.146,0.529-0.399,0.967-0.783,1.203c0,0.02-0.02,0.02-0.036,0.037c-0.056,0.018-0.109,0.036-0.165,0.072
		c-0.146,0.056-0.31,0.092-0.492,0.092l0,0c-1.276,0-2.807,0-4.284,0c-0.876,0-1.75,0-2.516,0
		C637.708,242.228,436.749,242.228,436.002,242.228 M620.041,265.894c-0.02,0-0.037,0.018-0.056,0.018l-0.019-0.018l-0.036,0.072
		c-0.329,0.293-1.951,3.629-2.097,3.92c-0.109,0.183-0.109,0.237,0,0.037c-1.167,2.406-5.834,13.474-9.608,8.332
		c-0.583-0.839-1.404-1.514-1.987-2.461c-0.091-0.164-0.201-0.328-0.291-0.492c-0.02,0-0.02-0.019-0.02-0.037
		c-1.367-2.242-2.733-4.703-4.084-7.238c-1.731-3.246-3.428-6.6-5.049-9.699c-0.84-1.623-1.679-3.191-2.48-4.65
		c-0.292-0.547-0.602-1.075-0.894-1.586c-1.478,1.988-3.3,5.799-5.287,9.974c-2.461,5.087-9.627,18.907-11.523,17.595l0,0l0,0
		c-2.078-0.201-5.578-6.254-6.965-8.807c-1.002-1.859-1.95-3.574-2.753-4.668l-0.2-0.364l-0.22,0.364
		c-0.801,1.094-1.732,2.809-2.734,4.65c-1.385,2.552-2.935,5.305-4.521,7.074c-0.819,0.893-1.641,1.549-2.462,1.75l0,0l0,0
		c-1.131-0.383-2.387-1.623-3.683-3.373c-2.753-3.72-5.725-9.754-8.24-15.023c-1.86-3.902-3.483-7.402-4.577-9.172
		c-1.075,1.751-2.697,5.232-4.575,9.135c-2.517,5.287-5.507,11.341-8.25,15.061c-1.306,1.768-2.562,3.008-3.684,3.373h-0.009l0,0
		c-0.821-0.201-1.633-0.84-2.426-1.732c-1.604-1.769-3.145-4.521-4.531-7.074c-1.012-1.859-1.95-3.574-2.762-4.668l-0.2-0.364
		l-0.21,0.364c-0.812,1.094-1.731,2.809-2.744,4.668c-1.386,2.534-2.926,5.306-4.522,7.057c-0.802,0.893-1.622,1.549-2.442,1.75l0,0
		l0,0c-3.482-0.492-9.28-12.928-11.76-18.051c-1.367-2.826-2.671-5.469-3.893-7.457l-1.158-2.061l-0.109,0.183
		c-0.053-0.055-0.109-0.128-0.164-0.183c-0.875,1.77-1.859,3.756-2.917,5.854c-2.152,4.284-4.585,9.006-7.021,13.327
		c-1.476,2.626-2.943,5.087-4.338,7.202c-1.623,1.914-3.355,1.222-5.014-0.564c-1.386-1.879-3.428-5.471-4.959-8.242
		c-1.002-2.078-1.732-3.682-2.042-3.773c-0.208,0.109-0.61,0.766-1.13,1.731l-0.82,1.259c-0.291,0.438-0.693,1.166-1.24,2.17
		c-0.355,0.656-3.282,5.469-4.047,6.527c-0.902,0.984-1.823,1.677-2.735,1.859c-0.364,0.072-0.729,0.055-1.084-0.055
		c-0.466-0.146-0.912-0.475-1.34-0.984h-0.008c-3.037-4.012-5.289-7.33-6.774-10.557c-1.314-2.881-2.024-5.689-2.107-8.807
		c-0.082-3.828,0.74-8.133,2.525-13.656H638.73c0.146,0.475,0.272,0.967,0.418,1.477c0.109,0.42,0.22,0.857,0.329,1.295
		c0.054,0.182,0.091,0.383,0.146,0.584c0.072,0.383,0.164,0.746,0.255,1.148c0.438,1.986,0.783,4.084,1.058,6.181
		c0.056,0.382,0.109,0.747,0.146,1.13s0.092,0.766,0.128,1.131c0.073,0.783,0.128,1.531,0.183,2.297c0,0.072,0.018,0.146,0.018,0.2
		c0.055,0.985,0.109,1.951,0.128,2.937l0,0c-0.42,0.766-0.82,1.494-1.203,2.225c-0.912,1.677-1.805,3.354-2.734,5.031
		c-0.056,0.073-2.371,4.176-3.082,5.342c-0.656,0.967-1.276,1.732-1.896,2.261c-0.548,0.365-1.167,0.712-1.495,0.767
		c-0.31,0.055-0.62,0.09-0.949,0.109c-1.294-0.219-2.698-1.496-4.467-3.994c-1.494-2.114-3.245-5.086-5.378-9.061l0.729,1.111
		C620.496,266.623,620.041,265.894,620.041,265.894 M434.298,294.61v-4.704c0.228-0.182,0.428-0.4,0.62-0.639
		c0.155-0.182,0.319-0.382,0.446-0.582c0.128-0.201,0.254-0.384,0.347-0.584c0.037-0.092,0.091-0.164,0.119-0.256
		c0.61-1.458,0.61-3.189,0-4.648c-0.028-0.092-0.083-0.164-0.119-0.237c-0.092-0.219-0.218-0.401-0.347-0.602
		c-0.127-0.2-0.291-0.401-0.456-0.603c-0.182-0.218-0.382-0.438-0.61-0.619v-17.139c0.756,1.404,1.504,2.844,2.233,4.285
		c2.069,4.065,4.094,8.094,6.218,11.104c3.464,4.867,7.192,7.001,11.851,2.205c1.714-1.768,3.538-4.43,5.515-8.258
		c1.487,3.244,2.909,5.633,4.294,7.311c0.912,1.111,1.814,1.914,2.69,2.443c1.149,0.693,2.251,0.911,3.327,0.766
		c1.952-0.292,3.774-1.806,5.47-4.012c2.57-3.3,4.85-8.096,6.874-12.434c1.494-3.173,2.835-6.108,4.047-8.023
		c1.112,1.715,2.388,4.632,3.847,7.877c1.878,4.176,4.048,8.861,6.555,12.18c3.108,4.139,6.718,6.145,10.893,2.406
		c1.807-1.604,3.702-4.248,5.708-8.26c0.721,1.423,1.914,3.665,3.428,5.726c1.404,1.896,3.063,3.646,4.868,4.357
		c1.257,0.511,2.589,0.528,3.938-0.255c0.036-0.019,0.072-0.055,0.109-0.073c0.273-0.165,0.528-0.347,0.793-0.565
		c6.928-5.27,13.283-22.244,13.301-22.28c1.085,1.714,2.316,4.503,3.701,7.549c1.751,3.847,3.756,8.132,6.053,11.268
		c1.404,1.933,2.937,3.446,4.577,4.157c0.948,0.4,1.95,0.547,2.99,0.346c1.366-0.273,2.808-1.148,4.321-2.771
		c1.514-1.641,3.117-4.029,4.795-7.365c1.495,3.154,2.953,5.469,4.357,7.092c1.441,1.66,2.808,2.607,4.139,2.953
		c0.912,0.274,1.805,0.238,2.681-0.018c1.695-0.492,3.299-1.859,4.776-3.701c2.553-3.172,4.813-7.748,6.764-11.796
		c1.514-3.155,2.845-5.962,4.012-7.493c0.857,1.33,1.914,3.555,3.118,6.09c1.805,3.773,3.975,8.277,6.436,11.705
		c1.915,2.697,4.03,4.74,6.291,5.27c0.018,0,0.036,0.018,0.054,0.018c0.02,0,0.02,0,0.02,0c1.11,0.254,2.241,0.146,3.408-0.42
		c0.967-0.456,1.933-1.203,2.935-2.334c1.405-1.568,2.862-3.847,4.359-6.982c1.494,2.918,2.898,5.086,4.266,6.637
		c1.167,1.313,2.298,2.188,3.373,2.662c1.186,0.51,2.334,0.583,3.428,0.291c2.006-0.547,3.884-2.279,5.688-4.631
		c2.389-3.136,4.649-7.348,6.874-11.304c0.838-1.514,1.695-2.972,2.533-4.34v16.884c-1.22,0.528-2.077,1.422-2.625,2.498
		c-0.855,1.695-0.855,3.828,0,5.542c0.548,1.058,1.405,1.97,2.625,2.462v3.847v0.383H434.298V294.61z M429.402,302.431
		c-0.463,0-0.784-0.146-1.002-0.4c-0.311-0.311-0.446-0.803-0.493-1.313c-0.055-0.511-0.036-1.058,0-1.478l0,0
		c0-0.019,0-0.019,0-0.019c0-0.455,0.165-0.766,0.401-0.984c0.337-0.311,0.838-0.438,1.385-0.474c0.493-0.036,0.994-0.019,1.403,0
		c0.02,0,0.02,0,0.02,0h218.278c0.346-0.019,0.857-0.036,1.35,0c0.4,0.019,0.82,0.091,1.131,0.237
		c0.473,0.219,0.783,0.583,0.729,1.221c0,0,0,0,0,0.019c-0.091,0.712,0.055,1.769-0.236,2.462c-0.184,0.438-0.548,0.729-1.259,0.729
		l0,0H429.402 M468.548,305.585h44.578c0.875,21.807-2.097,36.92-5.104,59.365H494.2l-31.569-23.047
		C464.609,332.206,467.435,312.896,468.548,305.585 M373.812,329.125c-7.612-5.288-7.129-4.905-11.597-8.26
		c-0.821,0.273-10.921,15.224-10.921,15.224l11.478,8.169l-17.129,23.465l-7.64-5.451l10.949-15.006l-16.236-11.559l-10.949,15.004
		l-13.957-9.937c0,0,10.939-15.224,13.319-18.306l11.205,7.986l11.869-16.209c0,0-7.941-5.761-11.214-7.985l7.986-10.958
		c-9.918-7.037-18.123-12.908-18.123-12.908s-4.383,6.873-7.994,10.957c-10.274-7.329-12.279-8.732-12.279-8.732
		s-7.039,9.754-12.635,17.303l12.288,8.751l-12.552,17.193l-14.996-10.685l10.885-15.041l-14.441-10.283l-11.159,14.859
		c-2.744-1.951-8.368-5.98-8.368-5.98l17.12-23.447l13.692,9.736l11.031-15.133l-13.674-9.736l8.878-12.18
		c2.37,1.623,6.746,4.705,12.362,8.697l6.865,4.814l20.174,14.422c15.999,11.412,33.127,23.664,44.414,31.742
		c4.467,3.19,8.032,5.742,10.229,7.311C382.691,316.962,379.208,322.032,373.812,329.125 M284.946,241.9
		c-1.075-0.967,9.208-12.781,9.901-13c0.464,0.328,1.013,0.729,1.604,1.148l2.023,1.423c0.073,0.054,0.155,0.108,0.238,0.163
		c1.633,1.148,3.583,2.535,5.798,4.085c4.065,2.88,9.043,6.399,14.731,10.411c1.304,0.911,2.645,1.859,4.029,2.826
		c1.788,1.275,3.639,2.588,5.543,3.938c1.276,0.875,2.562,1.805,3.874,2.717c3.456,2.443,7.047,4.978,10.775,7.604
		c1.696,1.203,3.419,2.424,5.169,3.664c8.26,5.816,16.993,11.996,25.927,18.287c2.406,1.713,4.832,3.409,7.255,5.123
		c11.324,8.004,22.792,16.1,33.831,23.885c1.45,1.021,2.881,2.042,4.312,3.045l2.133,1.514
		c14.459,10.209,27.914,19.709,38.935,27.476c13.647,9.627,23.547,16.609,26.938,19.016l-28.505-0.272L284.946,241.9z
		 M709.159,597.725c-2.096,35.627-15.588,58.197-42.973,81.133c-22.899,19.199-124.181,67.17-124.346,67.17
		c-0.419,0.035-105.893-47.551-128.812-67.004c-26.51-22.518-42.463-47.824-42.555-86.678c-0.09-33.328,0.347-64.944,0.347-80.569
		c17.804-12.946,27.332-18.36,45.836-30.339c8.442-5.452,19.564-11.013,30.566-10.868c14.213,0.201,26.894,6.602,36.092,12.91
		c10.957,7.529,22.007,20.875,36.01,22.133c9.407,0.84,17.484-3.135,25.142-8.094c6.782-4.413,13.565-9.354,21.532-10.939
		c9.444-1.896,19.326,1.275,27.478,6.381c11.193,7.037,15.533,12.963,23.21,19.418c4.521,3.811,20.255,13.162,38.359,11.322
		c9.264-0.93,17.066-5.197,25.471-8.752c8.497-3.574,20.075-2.898,29.099-0.766C710.365,514.365,710.401,576.885,709.159,597.725
		 M707.702,508.439c-8.479-1.658-19.929-0.436-28.315,2.262c-4.485,1.439-8.605,3.701-12.853,5.725
		c-10.157,4.867-25.654,3.318-33.768,0.164c-8.57-3.318-14.239-6.619-20.329-12.416c-13.492-12.836-27.459-26.108-50.431-21.186
		c-7.001,1.513-12.8,5.414-18.397,9.189c-7.665,5.178-14.896,10.064-25.051,9.152c-7.949-0.711-16.519-7.676-24.813-14.422
		c-5.981-4.868-12.18-9.9-18.251-12.654c-21.66-9.809-34.678-11.285-55.445,0.236c-5.87,3.246-39.026,24.543-49.773,31.471
		c0-22.572,0.027-45.125,0.054-65.527c0.036-32.637,0.064-59.073,0.019-69.211h339.651c-0.036,10.138-0.019,36.574,0.018,69.211
		c0.037,21.313,0.055,44.979,0.074,68.572C709.288,508.822,708.486,508.605,707.702,508.439 M748.797,541.404
		c12.745-6.637,21.606,5.014,13.747,16.354c-5.067,5.033-18.451,22.027-26.437,21.041
		C710.164,574.662,738.005,547.313,748.797,541.404 M739.171,543.246c-4.358,3.684-7.84,6.783-11.469,11.23
		c-4.155-2.936-11.268-7.219-11.268-7.748l-0.199-19.292C723.181,532.433,732.534,538.468,739.171,543.246 M853.724,401.853
		c1.223-1.604,4.815-2.898,5.982-1.695c9.48,4.174-58.289,75.535-46.984,44.889C826.214,432.72,843.223,417.57,853.724,401.853
		 M851.427,390.367c9.172,8.934-29.9,42.354-37.995,48.955c-1.751,1.184-5.45,3.627-7.384,0.254
		c-2.244-2.042,8.861-10.501,9.992-11.559c13.218-12.453,21.514-23.12,32.27-37.412
		C848.802,389.947,849.278,388.269,851.427,390.367 M844.664,378.825c8.551,6.419-11.341,26.274-12.527,27.478
		c-1.95,2.022-32.488,37.577-31.377,21.824c18.651-18.324,22.261-20.111,37.905-43.631
		C839.815,382.764,841.782,378.207,844.664,378.825 M834.818,371.058c18.798,2.534-28.204,47.168-35.334,51.836
		c-3.52,2.443-7.966-2.225-5.506-4.085C816.569,399.994,815.894,399.063,834.818,371.058 M828.855,358.606
		c11.416,11.632-18.195,40.384-31.724,53.22c-2.223,1.696-4.446,5.488-7.802,1.66c-1.44-2.299-2.188-3.154,1.276-6.072
		c3.755-3.154,9.771-10.757,13.582-15.225c8.315-9.735,17.468-25.652,19.892-30.684C826.085,357.33,827.854,358.279,828.855,358.606
		 M815.511,348.779c11.341,3.736,3.098,17.01,0.582,20.84c-0.711,2.06-25.378,35.954-30.138,35.844
		c-1.111,0.056-3.848-3.938-3.263-5.778c0.582-1.915,5.834-5.835,7.603-8.023C820.05,354.613,811.171,347.357,815.511,348.779
		 M797.022,356.126c1.805-4.741,3.92-19.289,7.714-18.451c5.87,1.294,5.852,4.539,5.87,9.115
		c0.037,13.748-13.455,32.182-22.591,42.063c-3.444,3.701-10.445,12.252-11.741,3.665
		C784.368,382.308,792.245,368.687,797.022,356.126 M763.823,396.474c1.895-1.824,7.784-4.23,9.315-1.531
		c0,0,31.231,51.507,36.992,59.948c5.91,11.723-8.713,20.876-18.195-1.495l-31.834-49.792
		C758.587,399.72,763.128,397.149,763.823,396.474 M759.829,410.714c0.91,1.55,31.761,49.336,31.031,49.1
		c-23.247,11.357-48.826,14.385-75.027,10.829c0-16.536-0.036-32.326-0.054-48.205C729.745,421.361,750.839,417.99,759.829,410.714
		 M715.797,590.195c0.036-11.416,0.056-23.85,0.072-36.813c4.175,2.535,9.152,5.707,8.57,5.543
		c-9.773,12.143,3.336,28.734,17.485,23.045l1.676,13.256c-4.191,1.422-23.372,3.027-27.877-0.584
		C715.78,593.184,715.797,591.689,715.797,590.195 M716.236,616.521c-0.492-0.109-2.736-1.02-2.736-1.02
		c1.386-7.074,1.679-9.791,2.298-16.082c2.006,0.547,2.918,1.605,11.066,1.896C727.465,610.469,719.406,605.893,716.236,616.521
		 M735.378,607.406c-3.481,4.285-3.28,8.186-1.095,12.488c-6.727-0.145-9.589-0.766-14.584-2.168
		c3.736-9.609,9.444-2.736,10.885-16.594c1.257-0.145,2.681-0.346,4.229-0.602C735.196,602.445,736.91,605.527,735.378,607.406
		 M739.115,619.348c-7.546-9.791,5.507-8.404,0.109-19.471c2.115-0.402,2.645-0.238,4.815-0.656
		c0.437,3.719,0.893,8.477,2.351,18.066C744.477,617.799,742.362,618.801,739.115,619.348 M679.351,747.066l-2.917,0.473
		c-0.456-0.928-1.203-1.877-2.079-2.807l27.514-18.926l-30.65,15.754c-0.382-0.457-0.783-0.877-1.147-1.297
		c-0.657-0.727-1.203-1.457-1.423-2.24c-0.163-0.602-0.182-1.26,0.128-2.006l33.492-16.791l-31.14,11.703
		c-0.328-0.637-1.35-1.385-2.443-2.24c-1.35-1.059-2.845-2.281-3.428-3.648c-0.31-0.729-0.383-1.494-0.055-2.297l34.604-9.227
		l-34.786,4.852c-1.369-0.912-2.334-1.533-2.936-2.063c-0.785-0.709-0.948-1.293-0.657-2.313c0.201-0.676,0.602-1.57,1.167-2.811
		l34.149-5.814l-34.988,1.695c-0.438-0.547-0.984-1.094-1.75-1.641l1.331-1.588c13.492-2.096,26.4-5.432,39.418-8.186
		c-0.4,1.951-0.073,4.303,0.711,6.838c1.095,3.5,3.082,7.348,5.287,10.977c2.717,4.43,5.762,8.531,7.949,11.23
		c0.439,0.527,0.84,1.021,1.187,1.439C703.709,733.1,691.44,739.973,679.351,747.066 M720.1,723.711
		c-0.492-0.564-1.094-1.24-1.731-2.006c-2.225-2.645-5.143-6.383-7.676-10.412c-2.115-3.354-3.956-6.908-4.941-10.154
		c-0.711-2.354-0.967-4.557-0.512-6.418c1.441-0.291,2.882-0.51,4.34-0.783c-0.272,2.15,0.438,4.775,1.695,7.547
		c1.458,3.264,3.683,6.729,5.999,9.9c2.882,3.922,5.927,7.402,7.857,9.428C723.455,721.777,721.777,722.744,720.1,723.711
		 M729.947,718.023c-0.146-0.148-0.311-0.311-0.476-0.477c-0.036-0.053-0.09-0.09-0.146-0.145c-2.043-2.08-5.014-5.287-7.768-8.842
		c-2.115-2.736-4.102-5.689-5.434-8.443c-1.257-2.625-1.914-5.086-1.512-7.057c1.914-0.291,3.848-0.545,5.762-0.783
		c-0.347,2.371,0.4,4.959,1.749,7.549c1.715,3.227,4.376,6.416,7.076,9.098c2.387,2.389,4.813,4.357,6.617,5.561
		C733.847,715.67,731.913,716.873,729.947,718.023 M740.557,711.623c-1.86-1.096-4.284-2.826-6.654-4.924
		c-2.535-2.262-4.997-4.922-6.637-7.676c-1.478-2.441-2.261-4.959-1.86-7.275c2.135-0.201,4.283-0.398,6.455-0.492
		c-0.02,1.004,0.053,1.914,0.165,2.791c0.271,2.406,0.929,4.357,1.913,5.979c1.495,2.48,3.7,4.23,6.399,5.727
		c2.334,1.076,4.575,1.787,5.543,2.662C744.13,709.508,742.345,710.547,740.557,711.623 M750.566,705.479
		c-0.873-0.475-2.406-0.875-4.103-1.404c-2.333-0.639-4.958-1.514-6.416-3.336c-0.729-0.748-1.278-1.66-1.497-2.771
		c1.606,0.693,2.936,0.875,4.139,0.947l0.714-0.055c0.819-0.127,2.003-0.199,3.718,0.475c1.641,0.492,3.465,1.66,5.943,4.559
		C752.244,704.438,751.388,704.949,750.566,705.479 M756.892,701.412c-0.873-1.387-1.858-2.389-2.916-3.135
		c-1.896-1.332-4.049-1.861-6.236-2.281c-1.64-0.072-3.207-0.018-5.652-1.166c-0.255-0.109-0.509-0.236-0.747-0.365
		c-1.695-0.693-3.263-1.768-4.538-3.609c1.058-0.475,2.205-1.057,3.428-1.715c3.517,0.037,5.923,0.676,7.856,1.66
		c2.244,1.15,3.848,2.789,5.708,4.594c1.494,1.441,3.153,2.955,5.487,4.412C758.479,700.336,757.695,700.883,756.892,701.412
		 M762.927,697.365c-2.423-0.912-4.247-2.225-5.906-3.609c-1.897-1.605-3.557-3.318-5.597-4.725
		c-1.769-1.203-3.811-2.168-6.547-2.588c1.841-0.967,3.392-1.586,4.706-1.934c2.568-0.674,4.301-0.311,5.633,0.621
		c0.621,0.256,1.166,0.582,1.604,1.021c0.713,0.711,1.13,1.641,1.605,2.697c0.109,0.256,0.237,0.529,0.364,0.803
		c1.166,1.859,2.442,3.773,4.541,4.904c0.728,0.383,1.55,0.674,2.496,0.857C764.861,696.068,763.895,696.709,762.927,697.365
		 M770.658,692.004c-11.231-0.547-5.999-9.244-16.593-11.65c2.063-1.459,4.141-2.936,6.2-4.467
		c11.433-0.619,6.71,9.098,19.017,9.936C776.092,688.119,773.12,690.254,770.658,692.004 M784.151,682.322
		c-13.876,0.475-9.116-8.313-19.035-10.045c0.948-0.73,1.914-1.441,2.846-2.17c2.807,0.947,8.276,2.461,10.501,2.715
		c3.209,1.188,5.051,6.109,9.499,6.783C786.702,680.5,785.426,681.412,784.151,682.322 M792.701,675.959
		c-10.375-1.275-9.992-8.951-21.204-8.586c4.083-5.635,17.175-4.576,17.832-1.842c1.002,2.279,5.396,6.217,8.386,6.162
		C796.039,673.207,794.215,674.738,792.701,675.959 M770.642,662.668c2.442-2.607,3.279-5.414,3.808-9.572l6.819,1.24
		C781.014,654.609,773.448,660.59,770.642,662.668 M802.091,667.227c-8.752,3.117-5.123-8.021-20.876-7.33
		c2.06-1.568,3.464-3.063,4.813-4.211c11.76-1.824,10.447,3.902,20.311,5.797C805.064,663.561,803.605,665.459,802.091,667.227
		 M809.384,655.648c-6.69,2.479-8.697-6.162-20.055-3.592c1.111-1.459,2.205-3.281,3.062-5.469c7.859-3.117,12.107,5.27,19.547,1.33
		C811.317,650.563,810.46,653.17,809.384,655.648 M772.027,616.066c-0.73-4.85-2.006-15.352-2.334-17.211
		c3.282,0.637,5.579,1.586,8.459,2.424c1.533,1.275,1.203,5.289,0.201,6.182C775.015,611.344,771.187,610.342,772.027,616.066
		 M772.318,617.506c-0.018-0.018-0.036-0.018-0.054-0.018c-0.056-0.311-0.111-0.711-0.185-1.131
		C772.136,616.723,772.208,617.088,772.318,617.506 M783.185,602.939c4.559,1.658,8.495,3.609,11.906,5.76
		c0.109,9.518-13.932-0.51-13.638,12.217c-1.934-0.912-3.812-1.641-5.417-2.188c-0.146-1.914,0.201-4.412,0.638-5.178
		C779.1,611.344,785.609,609.248,783.185,602.939 M786.831,629.576c-3.302-0.457-8.24-1.059-12.673-1.422
		c-0.291-1.732-0.655-3.773-1.038-5.963C781.416,624.928,785.172,627.59,786.831,629.576 M785.572,623.123
		c-1.438-11.561,12.125,0.4,12.673-12.271c2.023,1.531,3.828,3.117,5.397,4.795c-2.499,10.775-10.849,3.52-15.826,9.336
		C786.921,624.125,786.12,623.523,785.572,623.123 M804.626,622.867c0.381-0.311,2.149-1.969,2.715-2.57
		c2.171,3.244,3.685,6.691,4.577,10.191c-5.596,5.324-13.582-2.973-18.906,2.971c-0.529-1.877-1.587-3.992-2.645-5.469
		C794.142,623.688,799.521,627.061,804.626,622.867 M812.794,642.539c-7.057,5.252-12.345-4.174-19.455,0.748
		c0.328-1.459,0.42-2.242,0.456-4.285c4.103-7.93,12.398,0.803,18.907-4.447C813.031,637.217,813.049,639.895,812.794,642.539
		 M769.746,594.916c-0.271-0.055-0.966-10.465-1.567-14.148l47.732,1.439c3.374,17.705,7.529,40.732,8.806,50.67l-8.185-1.186
		C812.593,615.664,803.642,602.482,769.746,594.916 M869.478,647.553c-1.987,8.041-21.531,27.586-30.191,27.66
		c-8.333,0-13.932-12.818-7.275-18.305c-4.978-1.223-12.144-2.025-16.629-3.064c1.696-5.27,2.152-12.105,1.732-17.832l12.216,1.787
		c0.529-5.816-9.862-59.547-9.862-59.547l-56.029-1.859c0,0,5.213,44.195,7.091,55.754c4.796,0.092,14.295,1.367,17.759,1.859
		c2.079,5.396-0.582,13.164-3.682,17.066l-14.203-2.17c0.82,37.688-52.892-22.17-17.485-16.646
		c-1.679-12.434-6.818-51.488-6.818-51.488l22.079-21.531l51.523,1.641c-1.53-36.43,54.462,19.199,18.051,17.338
		c1.239,17.303,6.564,41.225,10.229,61.078C855.968,631.764,871.43,634.955,869.478,647.553"/>
	<path fill="#575756" d="M537.794,718.205c-8.588-2.135-16.938-5.27-24.833-9.299c-4.321-0.383-10.893-1.223-15.223-1.842
		c0.017-0.018,0.053-0.018,0.072-0.037c-1.414-0.219-4.577-0.711-5.143-0.82l0,0c-1.038-0.182-4.594-0.82-5.633-1.039
		c1.322,1.094,2.726,2.096,4.165,3.045c0,0,1.705,1.186,2.581,1.604c4.813,2.846,10.063,5.16,15.233,7.402
		c0.464,0.203,0.938,0.4,1.402,0.621c8.515,3.699,19.792,7.967,31.488,8.133c10.511,0.145,18.26-0.932,25.151-3.502
		c0.766-0.273,1.531-0.584,2.279-0.895c-1.13,0.037-2.242,0.074-3.354,0.074C556.446,721.65,547.001,720.484,537.794,718.205"/>
	<path fill="#575756" d="M564.615,711.021c-7.896,0-15.225-1.352-20.439-2.316l-0.546-0.109c-4.285,0.711-9.263,1.059-14.934,1.059
		c-3.454,0-7.183-0.129-11.13-0.402c6.627,3.082,13.556,5.541,20.64,7.313c11.585,2.879,23.547,3.92,35.542,3.117
		c5.836-2.68,11.287-5.889,16.282-9.592c2.462-1.822,4.832-3.699,6.838-5.906c-8.388,3.465-17.193,5.67-26.219,6.564
		C568.608,710.93,566.601,711.021,564.615,711.021"/>
	<path fill="#575756" d="M594.971,686.826c-0.347,0.273-1.642,1.24-3.501,2.516c-2.224,1.514-4.723,3.227-7.384,4.559
		c-0.128,0.072-0.255,0.127-0.401,0.201c2.717-0.895,5.379-1.896,7.985-3.027c1.823-0.803,3.628-1.678,5.396-2.607
		c2.043-1.074,4.049-2.225,5.999-3.445c-0.017-0.33-0.017-0.656-0.055-0.947l0,0c-0.109-1.24-0.346-2.262-0.711-3.102
		c-0.072-0.182-0.127-0.363-0.219-0.527c-0.109,0.092-0.2,0.201-0.31,0.291l-0.857,0.785c-0.4,0.4-0.802,0.748-1.221,1.148
		C598.216,684.09,596.702,685.551,594.971,686.826"/>
	<path fill="#575756" d="M521.522,682.779c-0.557-0.201-1.086-0.4-1.595-0.602c-0.02,0.309-0.056,0.746-0.109,1.275
		c-0.229,2.244-0.757,5.014-1.569,6.947c-0.146,0.383-0.327,0.766-0.529,1.146c-0.418,1.078-0.929,2.1-1.53,3.082
		c0.803,0.236,1.604,0.475,2.406,0.713c0.711,0.219,1.422,0.418,2.134,0.637c-0.2-3.846,0.857-8.424,2.698-12.598
		C522.806,683.197,522.168,682.996,521.522,682.779"/>
	<path fill="#575756" d="M494.364,671.584c-0.017-0.09-3.9,0.42-5.705,0.875c-3.365,0.855-6.51,2.754-7.367,3.264
		c0.466,0.857,1.04,1.787,1.769,2.752c1.532,2.006,3.173,3.447,4.521,4.432c0.129-0.729,0.383-1.805,0.912-3.027
		c0.42-0.984,1.577-3.063,3.109-5.086c0.219-0.273,0.438-0.566,0.666-0.857c0.328-0.455,0.582-0.803,0.729-0.967
		c0.447-0.51,0.894-0.947,1.34-1.35l0,0c0.01,0,0.01-0.016,0.019-0.016C494.364,671.604,494.364,671.604,494.364,671.584"/>
	<path fill="#575756" d="M594.68,676.416c-1.276,0.055-2.225,0.164-3.21,0.383c-0.474,0.109-0.855,0.236-1.13,0.309
		c0,0.02,0,0.039,0.019,0.039c0.838,0.855,1.677,3.023,1.768,3.225c0.037,0.092,0.821,1.879,1.058,3.939
		c1.295-0.895,2.353-1.695,3.172-2.334c1.041-0.838,1.643-1.35,3.392-2.9c0.748-0.637,0.931-0.875,1.313-1.184
		c-0.821-0.693-1.459-1.076-2.845-1.313C597.25,676.416,596.174,676.342,594.68,676.416"/>
	<path fill="#575756" d="M461.017,613.367c0-0.053,0.183-5.779,1.833-6.654c0.374-0.201,0.801-0.182,1.184,0.092
		c0.565,0.383,1.276,1.549,1.249,2.26c-0.018,0.346-0.046,0.766-0.073,1.24c-0.128,2.023-0.311,5.086-0.055,9.098
		c1.02,15.625,5.442,33.057,12.453,49.064c0.127,0.291,0.228,0.527,0.291,0.711c0.657,1.148,1.477,2.861,1.914,3.756
		c0.429-0.309,1.004-0.713,1.386-0.93c0.529-0.291,1.879-0.895,2.636-1.223c-5.169-11.613-7.832-31.633-8.524-40.73
		c-1.259-16.555-0.474-17.322-0.092-17.703c0.676-0.676,1.259-0.656,1.623-0.492c1.423,0.547,1.824,3.92,1.997,8.822
		c0.337,10.121,0.885,17.012,1.833,23.049c1.204,7.602,6.108,22.826,7.093,25.779c4.322-1.148,6.236-1.076,7.413-1.021
		c0.081,0,0.153,0,0.236,0l-0.138-0.639c-2.188-9.9-6.253-28.332-5.159-38.016c0.055-0.508,0.091-1.02,0.127-1.529
		c0.164-1.971,0.272-3.393,1.112-3.703c0.364-0.145,0.784-0.053,1.148,0.238c0.749,0.564,1.44,2.133,1.131,4.777
		c-0.866,7.238,3.209,28.297,5.763,38.197c0.218-0.092,0.437-0.201,0.838-0.438c0.656-0.439,2.907-2.008,3.975-4.504
		c0.347-0.838,0.355-1.223,0.364-2.533c0-0.402,0-0.895,0.019-1.496c-0.118-1.404-0.108-2.826,0.018-4.412
		c0.02-3.008,2.28-6.418,3.41-7.512c0.4-0.365,0.93-0.768,1.367-1.039c-1.513-5.779-3.036-12.473-3.246-18.98
		c-1.677,1.641-4.175,3.975-4.923,4.156c-1.294,0.291-2.461-0.51-3.227-1.166c-2.68-2.242-4.813-5.105-6.181-8.314
		c-0.803,0.584-1.805,0.895-2.88,0.912c-1.386-0.037-2.681-0.51-3.555-1.422c-0.839-0.877-1.295-2.008-1.642-3.01
		c-0.592-1.676-0.984-3.408-1.349-5.086c-0.311-1.332-0.611-2.717-1.021-4.047c-0.281,0.145-0.646,0.346-0.965,0.51
		c-2.261,1.203-3.1,1.586-3.646,1.367c-0.74-0.293-1.25-1.512-1.751-2.863l-0.146-0.346c-0.474-1.166-0.929-3.264-1.368-5.305
		c-0.2-0.967-0.4-1.896-0.582-2.59c-5.196,4.996-9.116,6.527-11.506,6.91c-0.063,0.02-5.596,0.82-6.326-0.238
		c-0.155-0.217-0.165-0.508-0.018-0.746c0.748-1.275,1.221-2.207,1.495-2.863c-1.768,1.404-4.777,2.9-9.773,1.332
		c-0.747-0.236-1.276-0.475-1.603-0.748c-0.694,0.619-1.924,1.623-2.955,1.932c-2.79,0.877-4.548,0.785-5.378-0.217
		c-0.492-0.621-0.51-1.441-0.365-2.207l-2.435,1.932c1.14,9.152,2.836,18.27,5.042,27.094c2.443,9.738,4.851,16.592,6.071,19.803
		c1.441,3.791,3.401,8.986,6.911,15.406c2.142,3.936,4.558,7.766,7.183,11.412c0.93-1.824,2.826-5.598,3.318-6.6
		c-1.367-2.826-13.582-28.697-14.448-55.848c-0.192-2.898-0.43-9.809,1.357-10.574c0.127-0.055,0.265-0.092,0.428-0.092
		c0.32,0,0.721,0.146,1.167,0.602l0.101,0.166c0.428,0.947,0.438,1.529,0.456,2.936c0.018,2.406,0.064,7.438,2.206,21.732
		c1.567,10.52,5.196,22.57,11.395,37.904c0.402,1.078,1.777,4.541,3.282,6.875c0.374,0.564,2.15,3.262,3.829,4.758
		c1.203-1.932,2.453-3.736,4.029-5.105C472.886,668.777,461.601,645.383,461.017,613.367"/>
	<path fill="#575756" d="M643.615,602.939c0.036,0.473-0.055,0.947-0.348,1.348c-0.747,1.021-2.497,1.24-5.396,0.621
		c-1.003-0.201-2.662-1.223-3.684-1.896c-0.091,0.273-0.291,0.602-0.639,0.947c-0.984,0.949-3.938,1.369-7,0.348
		c-1.095-0.348-2.134-0.875-3.081-1.531c0.346,0.711,0.856,1.641,1.567,2.844c0.146,0.238,0.146,0.529-0.019,0.746
		c-0.729,1.059-6.254,0.258-6.309,0.238c-5.232-0.84-9.59-4.904-11.688-6.875c-0.127-0.125-0.254-0.254-0.383-0.363
		c-0.182,2.242-0.765,5.98-1.385,8.15c0,0.037-0.802,2.863-1.914,3.281c-0.529,0.199-1.386-0.164-3.646-1.367
		c-0.311-0.164-0.676-0.365-0.968-0.51c-0.4,1.33-0.711,2.715-1.002,4.047c-0.383,1.678-0.767,3.428-1.368,5.086
		c-0.346,1.002-0.802,2.133-1.64,3.01c-0.876,0.912-2.134,1.422-3.5,1.422h-0.056c-1.058,0-2.079-0.328-2.881-0.912
		c-1.367,3.209-3.482,6.072-6.163,8.314c-0.783,0.656-1.95,1.477-3.245,1.166c-0.729-0.182-3.227-2.498-4.904-4.139
		c-0.018,2.371-0.091,4.303-0.438,6.145c-1.075,6.107-2.205,9.771-3.101,12.289c0.512,0.328,0.821,0.602,0.84,0.602
		c0.511,0.438,0.875,0.895,1.058,1.111c0.363,0.475,1.494,2.115,1.986,3.355c0.785,1.896,1.187,3.902,1.332,6.492
		c0.072,1.439,0.072,2.441,0.072,3.152c0,1.313,0.019,1.695,0.364,2.516c0.585,1.369,1.44,2.297,2.316,3.064l0.784-2.717
		c3.116-10.848,7.84-27.258,7.293-33.311c-0.256-2.717,0.438-4.266,1.167-4.814c0.345-0.254,0.748-0.326,1.094-0.201
		c0.692,0.256,1.167,1.26,1.258,5.289c0.128,6.727-4.686,23.975-7.548,34.275c-0.365,1.297-0.712,2.518-1.003,3.574
		c0.311,0.146,0.71,0.346,1.223,0.639c1.093,0.602,3.135,1.75,5.049,3.939c0.42,0.473,0.876,1.148,1.294,1.75v0.018l0.42-0.055
		c3.392-6.473,9.099-25.854,9.992-30.32c1.185-5.834,1.494-12.908,1.841-23.029c0.165-4.902,0.565-8.275,1.986-8.822
		c0.366-0.164,0.949-0.184,1.623,0.492c0.384,0.381,1.167,1.148-0.09,17.703l-0.128,1.768c-0.565,8.004-1.186,17.084-11.195,41.881
		c0.585-0.037,1.077-0.037,1.568-0.037c2.461,0,4.376,0.201,5.799,0.602c6.29-17.832,13.235-41.441,14.11-54.861
		c0.255-4.012,0.073-7.074-0.055-9.098c-0.018-0.475-0.055-0.895-0.055-1.24c-0.036-0.711,0.675-1.877,1.24-2.26
		c0.383-0.256,0.803-0.293,1.186-0.092c1.641,0.857,1.842,6.602,1.842,6.654c-0.401,21.26-7.604,41.699-12.873,56.629
		c-0.784,2.209-1.514,4.285-2.169,6.219c0.273,0.311,0.456,0.547,0.456,0.547c0.146,0.184,0.291,0.42,0.419,0.676
		c1.805-0.895,4.575-2.609,6.181-3.957c2.169-1.824,3.282-3.83,4.011-5.379c7.694-16.301,11.122-37.084,11.158-37.285
		c1.149-7.184,2.115-18.141,2.17-20.166c0.019-0.639,0.019-1.148,0.036-1.566c0-1.406,0.019-1.988,0.438-2.936l0.108-0.166
		c0.675-0.691,1.24-0.674,1.587-0.51c1.786,0.766,1.55,7.676,1.368,10.611c-0.876,27.148-13.11,53.057-14.459,55.828
		c0.218,0.42,0.711,1.004,1.167,1.551c0.309,0.365,0.619,0.746,0.91,1.111c0.549,0.711,1.131,1.477,1.496,1.932
		c1.932-1.768,6.126-8.004,6.946-9.424c3.209-5.6,4.996-10.357,6.437-14.168l0.455-1.238c1.24-3.246,3.647-10.121,6.071-19.803
		c1.276-5.066,3.61-15.352,5.18-27.822c-0.585-0.146-1.167-0.346-1.696-0.619C644.18,603.285,643.889,603.121,643.615,602.939"/>
	<path fill="#575756" d="M482.24,692.568c1.659,0.676,5.688,1.77,7.438,2.225c3.647,0.912,7.348,1.643,11.068,2.225
		c0.272,0.037,0.528,0.092,0.802,0.129c0.712,0.127,1.423,0.219,2.123,0.309c0.711,0.111,1.415,0.221,2.125,0.311
		c1.286,0.164,2.57,0.311,3.865,0.455c4.386,0.492,8.788,0.857,13.2,1.078c-2.68-0.639-5.424-1.352-8.478-2.172
		c-0.036,0.057-0.301-0.018-0.73-0.182c-0.655-0.182-1.358-0.363-2.077-0.566c-0.101-0.035-0.2-0.055-0.293-0.09
		c-0.383-0.109-0.765-0.201-1.167-0.328c-0.082-0.018-0.163-0.037-0.244-0.074c-0.694-0.199-1.415-0.4-2.162-0.637
		c-0.311-0.092-0.611-0.182-0.929-0.291c-0.274-0.074-0.575-0.166-0.857-0.256c-0.365-0.129-0.712-0.238-1.086-0.365
		c-0.281-0.09-0.573-0.182-0.866-0.273c-0.399-0.146-0.801-0.273-1.221-0.418c-0.273-0.094-0.547-0.184-0.82-0.293
		c-0.474-0.164-0.957-0.328-1.44-0.51c-0.246-0.092-0.483-0.166-0.729-0.256c-0.729-0.273-1.485-0.564-2.261-0.857
		c-0.109-0.055-0.237-0.109-0.363-0.145c-0.065-0.039-0.129-0.055-0.202-0.092c0,0-0.01,0.018-0.018,0.018l-0.31-0.127
		c0,0,0.017,0,0.017-0.02c-0.081-0.016-0.172-0.053-0.254-0.09c-0.246-0.109-0.483-0.201-0.73-0.293
		c-1.986-0.82-4.083-1.785-6.217-3.025c-1.012-0.492-1.786-1.004-2.46-1.533c-0.785-0.529-1.578-1.094-2.353-1.713
		c-0.473-0.365-0.912-0.746-1.331-1.113c-0.492-0.436-0.948-0.873-1.367-1.313c-1.277-1.313-2.271-2.643-3.045-4.102
		c-0.382,1.059-0.766,2.135-1.112,3.229c-0.729,2.205-1.313,4.447-1.421,6.781c-0.02,0.33-0.165,0.912,0.017,1.186
		C476.935,690.162,481.036,692.096,482.24,692.568"/>
	<path fill="#575756" d="M555.753,703.125c0.383-0.182,0.766-0.398,1.148-0.619c-3.3,0.309-10.191,0.584-20.202-0.656
		c-1.386-0.182-2.698-0.365-3.992-0.564c-0.109,0-0.22-0.02-0.338-0.02c-6.854-0.035-14.157-0.455-21.213-1.184
		c-1.585-0.109-2.124-0.219-3.546-0.385c-0.748-0.09-1.486-0.182-2.233-0.273c-3.446-0.473-6.875-1.002-10.283-1.676
		c-1.732-0.348-3.483-0.711-5.242-1.131c0.01,0.018,0.01,0.037,0.01,0.037c-2.553-0.658-7.348-2.061-9.691-3.137
		c-0.702-0.311-2.251-1.039-3.793-2.043c0.119,0.73,0.319,1.459,0.63,2.135c0.036,0.072,0.073,0.182,0.146,0.328
		c0.565,1.238,1.295,2.369,1.641,2.916c0.683,1.039,1.094,1.678,1.805,2.518c0.146,0.164,0.765,0.875,1.695,1.732
		c0.858,0.801,1.659,1.402,2.315,1.859c1.459,0.309,4.859,0.982,6.619,1.313l-0.009-0.02c1.85,0.348,6.9,1.131,9.216,1.496
		c0.018-0.018,0.026-0.018,0.036-0.018c3.537,0.455,9.298,1.203,12.818,1.514c12.306,1.057,22.471,0.947,30.21-0.33
		c3.337-0.547,5.907-1.277,8.006-2.004C553.218,704.311,554.605,703.691,555.753,703.125"/>
	<path fill="#575756" d="M592.364,692.605c-5.543,2.426-11.341,4.285-17.284,5.543c-0.036,0.02-0.055,0.02-0.091,0.035
		c-0.912,0.385-1.859,0.748-2.79,1.096l0.037,0.035l-0.384,0.092c-1.167,0.42-2.37,0.803-3.555,1.148
		c-0.656,0.184-1.296,0.365-1.95,0.512c-1.97,0.473-3.721,0.766-5.252,0.984c-1.494,0.93-3.008,1.805-4.576,2.588
		c-0.31,0.146-0.62,0.291-0.967,0.457c-1.842,0.855-4.211,1.787-7.457,2.605c6.163,1.076,14.203,2.17,22.372,1.367
		c9.881-0.965,19.472-3.553,28.515-7.656c1.003-1.512,1.859-3.172,2.461-5.068c0.767-2.443,1.496-6.035,1.623-9.334
		c-1.986,1.203-4.011,2.332-6.089,3.391C595.463,691.184,593.913,691.932,592.364,692.605"/>
	<path fill="#575756" d="M559.326,699.371c1.896-0.238,3.92-0.529,6.346-1.113c0.491-0.109,1.002-0.256,1.494-0.383
		c-1.331-1.293-2.571-3.117-4.687-6.783c-1.094-1.914-1.621-4.248-1.821-6.582c-0.403,0.146-0.968,0.402-1.843,0.529
		c-0.182,0.018-0.455,0.057-0.729,0.109c0.803,1.916,1.385,4.012,1.641,6.398c0.256,2.408-0.037,4.705-0.292,6.912
		C559.399,698.77,559.363,699.061,559.326,699.371"/>
	<path fill="#575756" d="M472.995,594.697c0.429-0.547,0.456-0.674,0.639-1.658c0.109-0.602,0.273-1.496,0.629-2.918
		c2.396-9.645,7.283-15.314,9.425-17.43c-4.867-1.094-6.555-4.832-6.51-8.479c-0.337,0.291-0.683,0.602-0.893,0.783
		c-4.257,3.813-8.095,15.189-9.691,21.297v0.018c-0.866,3.902-2.534,7.238-4.631,11.469c-0.82,1.658-1.75,3.52-2.726,5.598
		C461.309,603.141,467.891,601.08,472.995,594.697"/>
	<path fill="#575756" d="M485.959,610.598l0.256,0.855c1.185,4.121,1.185,4.121,1.203,4.23c0.309,1.732,1.103,2.533,1.75,2.717
		c0.255-0.057,1.605-1.223,2.846-3.666l0.008-0.018c1.176-2.113,9.718-18.961,11.687-23.52c-1.03-0.328-2.023-0.748-3.291-1.367
		c-1.495-0.748-2.598-1.531-3.773-2.352c-0.219-0.148-0.456-0.311-0.675-0.457c-1.149,2.316-2.37,4.648-3.646,6.91
		c-2.252,4.029-4.722,7.986-7.348,11.76c-0.055,0.092-0.146,0.201-0.246,0.328l1.193,4.412l-0.509,0.311L485.959,610.598z"/>
	<path fill="#575756" d="M500.044,626.969c0.829-0.162,3.911-2.936,5.26-4.721c0.729-4.668,2.771-13.93,4.978-19.438
		c1.131-2.844,2.599-5.705,3.737-7.766l-0.174-0.057c-1.12-0.326-2.388-0.691-3.49-1.129c-0.675-0.275-1.187-0.438-1.65-0.602
		c-0.538-0.164-1.03-0.328-1.605-0.602c-1.139,2.389-4.813,10.537-5.896,13.164c-0.42,1.02-1.86,3.957-3.246,6.783
		c-1.285,2.605-2.607,5.305-3.063,6.361l0.02,0.037C495.851,622.102,497.573,624.781,500.044,626.969"/>
	<path fill="#575756" d="M478.293,606.658c0.382-0.184,1.322-1.021,1.686-1.35c0.21-0.182,0.383-0.346,0.511-0.438
		c1.02-0.803,1.896-2.023,2.753-3.189c0.2-0.293,0.401-0.566,0.61-0.84c2.398-3.227,4.367-6.818,6.264-10.281l1.038-1.879
		c0.211-0.346,0.42-0.73,0.584-1.094c0.063-0.129,0.319-0.584,1.841-3.1c-1.805-2.025-5.434-7.84-6.472-10.631
		c-0.985,0.311-1.988,1.715-2.607,2.609l-0.255,0.346c-1.15,1.604-2.297,3.408-3.5,5.523c-1.797,3.154-2.745,6.637-3.374,9.318
		l-0.146,0.654c-0.638,2.717-1.021,4.34-0.583,7.184C477.299,603.686,477.936,606.074,478.293,606.658"/>
	<path fill="#575756" d="M451.864,601.152c1.788-0.438,5.16-1.951,7.713-7.238l0.164-0.33c0.73-1.494,1.732-3.553,3.236-7.711
		c0.785-2.133,1.404-4.029,1.979-5.762c1.22-3.645,2.261-6.818,4.175-10.646c0.473-0.947,1.094-2.098,1.996-3.465
		c1.322-1.988,2.872-3.83,4.641-5.469c-4.057-0.969-5.753-3.957-6.263-5.709c-0.301,0.311-0.583,0.658-0.767,0.877
		c-2.179,2.697-9.454,12.232-11.768,22.406c-0.292,1.514-0.902,4.213-1.441,6.582c-0.42,1.879-0.803,3.574-0.967,4.359
		c-0.71,3.664-1.54,6.891-5.132,12.215C449.859,601.352,450.717,601.426,451.864,601.152"/>
	<path fill="#575756" d="M456.568,567.695c3.318-7.566,10.266-16.191,11.77-18.014c-0.446-0.564-1.268-1.605-1.649-2.17
		c-0.512-0.746-0.73-1.713-0.894-2.479c-0.036-0.182-0.091-0.4-0.127-0.584c-1.805,1.549-8.66,11.178-12.408,18.707
		c-4.165,8.369-7.174,21.113-8.277,26.201c-0.337,1.566-1.295,5.668-1.613,6.58c-0.565,1.566-1.533,3.537-2.244,4.979
		c-0.155,0.346-0.337,0.711-0.493,1.037c5.672-1.367,9.08-5.668,10.138-12.834c0.238-1.568,2.006-9.883,2.389-11.633
		C453.798,574.148,454.964,571.324,456.568,567.695"/>
	<path fill="#575756" d="M606.148,593.494c0.182,1.002,0.219,1.186,0.692,1.77c5.598,7.037,12.835,8.824,14.368,8.824h0.054
		c-1.039-2.26-2.023-4.248-2.916-6.018c-2.099-4.211-3.738-7.547-4.614-11.414v-0.016c-0.437-1.697-4.466-16.684-9.772-21.443
		c-0.292-0.256-0.948-0.82-1.403-1.221c0.163,2.479-0.256,7.803-6.782,8.953c1.858,1.732,7.201,7.457,9.734,17.666
		C605.874,592.018,606.037,592.91,606.148,593.494"/>
	<path fill="#575756" d="M629.029,601.99c1.112,0.129,1.824-0.053,2.043-0.182c-3.738-5.434-4.595-8.697-5.306-12.398
		c-0.165-0.803-0.548-2.533-0.968-4.377c-0.527-2.369-1.147-5.066-1.439-6.6c-2.334-10.209-9.645-19.799-11.814-22.496
		c-0.255-0.311-0.711-0.84-1.147-1.26c-0.274,1.531-1.915,5.232-6.71,6.107c1.914,1.715,3.592,3.666,5.014,5.779
		c0.893,1.352,1.494,2.498,1.968,3.447c1.896,3.811,2.954,6.963,4.157,10.592c0.602,1.787,1.204,3.629,1.987,5.779
		c1.514,4.158,2.517,6.236,3.245,7.73l0.165,0.348C623.249,600.697,627.389,601.809,629.029,601.99"/>
	<path fill="#575756" d="M640.224,602.393c0.201,0,0.42-0.02,0.62-0.037c0.018,0,0.036,0,0.036,0
		c-0.073-0.512-0.894-2.371-3.592-6.619c-0.474-0.766-1.877-4.85-2.261-6.617c-1.112-5.105-4.121-17.885-8.314-26.273
		c-2.497-5.051-6.217-11.723-12.707-18.689c-0.238,1.533-0.512,2.572-0.857,3.082c-0.747,1.203-1.459,1.695-1.878,1.988
		c-0.11,0.072-0.22,0.162-0.292,0.219c0.984,1.186,8.441,10.264,11.925,18.178c1.586,3.611,2.752,6.418,3.372,9.754
		c0.129,0.547,0.365,1.787,0.638,3.246c0.585,3.082,1.368,7.328,1.752,8.295C631.984,597.652,636.066,602.393,640.224,602.393"/>
	<path fill="#575756" d="M597.158,603.066c1.204,1.549,2.645,2.936,4.231,4.104c0.162,0.107,0.291,0.199,0.418,0.199h0.019
		c0.108,0,0.182-0.109,0.291-0.383l0.02-0.055c0.473-1.059,0.692-2.242,0.912-3.391l0.09-0.42c0.201-0.967,0.383-2.006,0.548-3.172
		c0.455-2.898,0.036-4.65-0.585-7.293L602.956,592c-0.638-2.699-1.586-6.219-3.409-9.389c-1.203-2.135-2.352-3.939-3.5-5.543
		l-0.257-0.365c-0.71-0.986-1.841-2.607-3.025-2.771c-0.931,2.861-4.175,8.715-6.636,10.939c1.877,3.1,1.914,3.209,1.932,3.264
		c0.146,0.346,0.382,0.729,0.602,1.111c0.091,0.164,0.183,0.328,0.273,0.492l0.747,1.367c1.24,2.262,2.517,4.594,3.92,6.818
		c0.693,1.094,1.277,1.971,1.843,2.773c0.219,0.273,0.418,0.564,0.619,0.855C596.411,602.063,596.776,602.574,597.158,603.066"/>
	<path fill="#575756" d="M591.087,618.49c0.036,0,0.073,0,0.092,0c1.422-0.4,1.696-1.02,2.242-2.533
		c0.492-1.332,0.912-2.699,1.275-4.066c0.036-0.127,0.073-0.273,0.093-0.418c0.254-1.004,0.456-2.025,0.638-3.027
		c0.055-0.182,0.091-0.328,0.127-0.512c0.11-0.4,0.329-1.238,0.164-1.439l-0.091-0.129c-0.128-0.162-0.236-0.309-0.329-0.436
		c-2.606-3.756-5.087-7.695-7.328-11.705c-1.313-2.371-2.59-4.795-3.774-7.221c-0.311,0.219-0.638,0.438-0.948,0.656
		c-1.167,0.82-2.261,1.586-3.738,2.314c-1.366,0.693-2.424,1.131-3.537,1.459c1.715,4.104,10.611,21.678,11.816,23.83
		C588.918,617.506,590.54,618.49,591.087,618.49"/>
	<path fill="#575756" d="M573.093,592.691c-1.514,0.711-5.18,1.861-7.477,2.572c1.148,2.096,2.698,5.086,3.884,8.059
		c2.588,6.471,4.011,12.525,4.23,17.994c1.439,1.951,5.543,5.982,6.234,5.854c4.577-4.74,5.215-6.893,5.47-7.711
		c0.019-0.037,0.019-0.074,0.037-0.111c-0.438-1.004-1.787-3.773-3.117-6.453c-1.386-2.826-2.826-5.762-3.228-6.766
		C577.978,603.377,574.04,594.68,573.093,592.691"/>
	<path fill="#575756" d="M640.971,573.402c-0.4-1.113-0.783-2.242-1.185-3.391c-0.073-0.184-0.164-0.438-0.293-0.73
		c-0.126-0.309-0.272-0.676-0.437-1.094c-5.962-15.752-15.242-26.93-16.52-28.188c-1.147,0.402-2.37,0.657-3.59,0.766
		c-1.187,0.092-2.371,0.057-3.538-0.109c0.475,0.621,1.13,1.496,1.896,2.535c3.812,5.051,10.193,13.492,11.998,17.576
		c2.314,5.195,4.831,11.469,8.059,25.854c1.567,6.891,5.598,12.781,9.262,13.492c0.092-0.4,0.092-1.879-0.656-7.074
		C644.58,583.504,642.759,578.361,640.971,573.402"/>
	<path fill="#575756" d="M539.909,562.975c-1.205-1.643-3.41-1.842-3.829-1.879c-3.629-0.346-6.327,2.752-7.202,3.773
		c-0.61,0.713-1.422,1.824-1.997,3.338c-0.7,1.859-0.72,3.428-0.72,4.246c-0.027,12.727,0.894,18.27,0.894,18.27
		c0.346,2.078,1.203,6.855,2.99,12.781c0,0,1.841,6.838,5.907,12.107c0.931,1.221,3.337,3.463,4.303,3.008
		c-2.088-4.668-3.2-8.496-3.428-9.043c-0.492-1.186-2.853-8.752-3.263-15.006c-0.621-9.627,0.856-20.748-0.146-28.662
		c0.09-0.092,0.236-0.217,0.418-0.201c1.14,0.02,1.44,3.721,1.551,6.273c0.256,5.725-0.019,10.117-0.229,12.617
		c-0.521,6.344-0.282,8.861,0.174,12.033c1.221,8.568,5.797,21.221,6.189,21.477c0.155,0.109,0.2-1.203,0.347-2.443
		c0,0-0.119-2.223-0.119-2.951c-0.027-6.912-0.848-17.34-0.848-17.34c-0.01-7.949-0.282-13.219-0.155-21.115
		C540.783,572.4,540.711,564.084,539.909,562.975"/>
	<path fill="#575756" d="M442.073,586.729c3.246-14.402,5.88-20.93,8.095-25.889c1.824-4.104,8.022-12.361,11.724-17.301
		c0.665-0.877,1.24-1.643,1.677-2.244l-6.271-0.821c-1.441,1.477-10.574,12.69-16.373,27.987c-0.146,0.42-0.301,0.785-0.428,1.094
		c-0.119,0.293-0.228,0.549-0.283,0.73c-0.401,1.146-0.802,2.277-1.194,3.391c-1.778,4.959-3.6,10.082-4.986,19.582
		c-0.62,4.357-0.721,6.053-0.684,6.691C436.823,599.018,440.588,593.35,442.073,586.729"/>
	<path fill="#575756" d="M556.791,692.277c-0.638-6.199-3.864-10.465-7.384-14.641c-0.675-0.82-1.221-1.531-1.677-2.225
		c-2.042-3.135-3.008-6.49-2.734-9.426c0.127-1.313,0.511-2.516,0.857-3.572c0.801-2.498,0.747-3.246,0.711-3.867l-0.02-0.236
		c-0.09-1.75-0.729-3.082-0.966-3.592c-0.347-0.711-0.73-1.348-1.157-1.877c-0.265-0.328-0.429-0.273-0.939-0.111
		c-0.183,0.074-0.401,0.148-0.63,0.184c-1.103,0.219-2.241,0.273-3.392,0.127c-0.199-0.018-0.509-0.053-0.846-0.109
		c-0.585-0.072-1.26-0.164-1.606-0.201c-0.017,0-0.026,0-0.036,0c-0.565,0-1.549,1.352-1.878,1.787
		c-0.082,0.129-0.146,0.219-0.191,0.275c-0.301,0.346-0.537,0.855-0.773,1.348c-0.109,0.219-0.22,0.438-0.329,0.639
		c-1.185,2.205-0.911,4.412-0.438,6.455c0.201,0.838,0.429,1.785,0.556,2.842c0.056,0.42,0.102,0.822,0.164,1.223
		c0.475,3.428,0.812,5.908-2.727,9.025c-5.013,4.447-7.164,10.047-7.902,20.641c3.09,0.711,6.463,1.313,10.037,1.785
		c1.604-2.023,2.625-7.42,1.549-12.143c-0.008-0.055-0.819-4.867,0.047-5.16c0.392-0.127,0.646,0.438,0.792,0.73
		c2.472,5.561,2.78,11.723,0.857,16.955l0.137,0.018c0.026,0,2.763,0.346,6.464,0.584c0.108,0.018,0.236,0.018,0.346,0.037
		c-1.852-5.398-1.331-11.668,1.44-17.268c0.146-0.291,0.42-0.855,0.82-0.691c0.857,0.311-0.146,5.104-0.164,5.141
		c-1.304,4.777-1.066,7.949,0.985,12.982c3.736,0.146,6.982,0.109,9.608-0.129l0.018-0.072c0.037-0.383,0.073-0.766,0.128-1.131
		C556.775,696.436,557.011,694.393,556.791,692.277 M536.554,660.133c-0.309,0.82-0.957,1.406-1.221,1.568
		c-0.037,0.02-0.093,0.037-0.146,0.037c-0.093,0-0.202-0.055-0.256-0.145c-0.073-0.129-0.037-0.311,0.108-0.385
		c0.047-0.035,0.128-0.09,0.237-0.182c0.228-0.236,0.557-0.602,0.739-1.094c0.063-0.164,0.109-0.309,0.154-0.475
		c-0.164,0.146-0.392,0.291-0.692,0.42c-0.255,0.109-0.584,0.182-0.976,0.219c-0.046,0-0.101,0-0.146,0
		c-0.175-0.02-0.32-0.109-0.43-0.236c-0.409-0.492-0.564-1.021-0.482-1.533c0.164-0.984,1.157-1.623,1.823-2.041
		c0.282-0.184,0.666-0.109,0.866,0.145c0.073,0.02,0.146,0.057,0.2,0.129C537.193,657.945,536.956,659.096,536.554,660.133
		 M543.355,660.207c0.183,0.492,0.511,0.857,0.747,1.076c0.093,0.09,0.183,0.162,0.229,0.182c0.137,0.09,0.182,0.273,0.101,0.4
		c-0.055,0.092-0.146,0.146-0.256,0.146c-0.045,0-0.091-0.018-0.136-0.037c-0.265-0.164-0.922-0.746-1.231-1.566
		c-0.382-1.039-0.629-2.188,0.236-3.594c0.037-0.072,0.109-0.109,0.192-0.127c0.209-0.256,0.583-0.328,0.865-0.145
		c0.658,0.438,1.659,1.074,1.824,2.041c0.09,0.529-0.072,1.041-0.476,1.531c-0.108,0.146-0.272,0.221-0.437,0.236
		c-0.056,0.02-0.092,0.02-0.146,0.02c-0.401-0.035-0.711-0.129-0.984-0.238c-0.291-0.107-0.511-0.254-0.685-0.398
		C543.245,659.879,543.3,660.043,543.355,660.207"/>
	<path fill="#575756" d="M525.66,555.207c0,0,1.103,0.875,2.123,0.893c0.138,0.02,0.257-0.018,0.257-0.018
		c0.101,0,0.182-0.037,0.272-0.072c-2.396-1.643-4.304-4.521-4.139-7.494c0.1-1.824,1.441-3.119,2.298-4.613
		c0.401-0.693,0.71-1.422,0.71-2.279c0-0.492-0.399-0.766-0.783-0.766c-0.364,0-0.73,0.219-0.73,0.693
		c0,0.674-0.254,1.275-0.602,1.84c-0.363,0.584-0.802,1.131-1.184,1.678c-0.894,1.313-1.322,2.736-1.203,4.32
		c0.036,0.275,0.073,0.512,0.118,0.768c0.219,1.332,0.684,2.314,1.029,2.898C524.53,554.277,525.341,554.951,525.66,555.207"/>
	<path fill="#575756" d="M519.398,645.293c0.875,0.311,1.687,0.73,2.352,1.313c1.321-1.914,6.099-8.842,6.893-10.375
		C526.144,638.146,521.703,643.051,519.398,645.293"/>
	<path fill="#575756" d="M523.555,649.688c1.085-0.713,7.42-10.795,7.42-10.795c-1.969,1.295-6.737,5.963-8.725,8.205
		c0.292,0.328,0.539,0.674,0.748,1.057C523.272,648.666,523.445,649.176,523.555,649.688"/>
	<path fill="#575756" d="M541.714,649.633l0.173-0.02c0.93-0.072,1.522-0.236,1.796-0.328c-0.291-1.641-2.078-9.08-2.907-11.23
		c-0.685,2.115-1.852,9.391-2.033,11.359c0.418,0.09,1.513,0.199,2.471,0.199L541.714,649.633z"/>
	<path fill="#575756" d="M551.797,638.4c0,0,4.175,8.041,5.906,10.631c0.201-0.492,0.42-0.949,0.602-1.295
		c0.183-0.348,0.42-0.639,0.638-0.93c-0.309-0.549-0.729-1.275-1.203-2.098C555.717,642.285,553.109,639.422,551.797,638.4"/>
	<path fill="#575756" d="M559.892,645.895c0.619-0.512,1.349-0.875,2.133-1.113c-2.224-2.643-5.615-6.963-7.693-8.842
		c0.565,1.332,3.646,6.746,5.286,9.607C559.709,645.676,559.801,645.785,559.892,645.895"/>
	<path fill="#575756" d="M564.595,592.656l1.459-0.621c0,0,5.196-1.84,6.874-2.553c2.426-1.002,6.983-3.262,9.188-5.014
		c5.854-4.631,7.641-11.193,9.372-13.273c6.018-0.381,8.46-3.336,8.844-6.361c0.236-1.807-1.679-5.982-1.15-6.127
		c0,0,6.674-1.479,8.169-3.756c2.206-3.354,0.967-7.658,0.967-7.658c0.091,0,5.87-2.17,2.479-10.61
		c0.692,1.695,13.674,0.326,13.383-0.549c-0.857-2.406-4.285-5.396-7.749-7.512c-4.377-2.68-9.39-3.207-12.599-2.844
		c-3.537,0.42-7.037,0.783-10.375,2.096c-4.886,1.951-7.476,5.525-8.66,10.521c-1.349,5.579-1.349,11.36-1.986,17.065
		c-0.804,7.203-2.863,14.076-8.498,19.018c-4.538,3.992-10.537,7.164-16.554,8.223C560.11,585.18,564.595,592.656,564.595,592.656"
		/>
	<path fill="#575756" d="M469.295,536.683c-3.391,8.44,2.408,10.61,2.489,10.61c0,0-1.248,4.305,0.957,7.658
		c1.496,2.277,8.167,3.756,8.167,3.756c0.539,0.145-1.385,4.32-1.147,6.127c0.383,3.025,2.826,5.98,8.842,6.361
		c1.732,2.08,3.52,8.643,9.381,13.273c2.206,1.752,6.764,4.012,9.18,5.014c1.696,0.713,6.884,2.553,6.884,2.553l1.457,0.621
		c0,0,4.495-7.477,6.848-9.955c-6.218-1.096-16.684-6.09-21.242-13.676c-4.558-8.75-5.067-19.58-5.087-20.037
		c-0.456-7.602-1.649-13.709-1.896-14.331c-3.108-7.967-14.75-8.516-17.867-8.879c-3.191-0.363-8.223,0.164-12.589,2.844
		c-3.474,2.115-6.901,5.105-7.75,7.512C455.62,537.009,468.62,538.378,469.295,536.683"/>
	<path fill="#575756" d="M587.914,677.381c-0.017-0.037-1.038-1.857-2.261-3.189c-1.805-1.914-4.139-3.189-6.016-4.195
		c-0.511-0.291-0.985-0.545-1.405-0.783c-0.874-0.529-1.986-1.184-2.972-2.352c-1.932-2.279-2.132-5.105-2.297-7.365
		c-0.036-0.621-0.072-1.223-0.091-1.805c-0.055-1.441-0.109-2.791-0.456-4.32c-0.438-1.861-1.167-3.393-2.187-4.521
		c-1.277-1.441-2.974-2.172-5.034-2.172c-0.072,0-0.146,0.02-0.236,0.02l-0.127,0.018c-0.384,0.035-0.767,0.109-1.131,0.219
		c-0.657,0.219-1.313,0.547-1.95,1.004c-0.129,0.09-0.274,0.199-0.384,0.291c-0.108,0.092-0.201,0.182-0.292,0.254l-0.072,0.074
		c-0.256,0.236-0.475,0.455-0.639,0.674c-0.163,0.184-0.256,0.33-0.328,0.475c-0.255,0.363-0.42,0.693-0.529,0.984
		c-0.4,1.203-0.182,2.314,0.073,3.609l0.056,0.275c0.437,2.205,2.188,4.957,2.352,5.176c0.911,1.188,1.859,2.408,2.461,3.83
		c0.84,2.023,1.021,4.156,0.547,6.18c-0.528,2.279-0.91,4.742-1.258,6.91c-0.146,0.895-0.273,1.752-0.401,2.535
		c-0.382,2.262-0.163,4.922,0.602,7.73c0.164,0.566,0.62,2.041,1.387,3.482c1.313,2.461,2.898,4.613,4.703,6.381
		c1.605-0.547,3.355-1.238,5.306-2.096c2.207-0.967,4.285-1.969,6.217-2.936c-0.456-0.418-1.021-0.947-1.604-1.568l-0.146-0.146
		c-1.677-1.75-3.591-3.719-5.232-6.836c-2.533-4.852-1.841-7.512-1.769-7.805c0.019-0.035,0.419-1.367,0.419-1.367l0.383-1.275
		l0.256,1.932c0.037,0.236,0.109,0.785,0.237,1.477c0.693,2.846,2.588,6.018,3.409,7.002c2.626,3.172,4.794,5.359,7.002,7.055
		c1.038-0.582,2.132-1.275,3.354-2.078c-0.729-3.209-1.86-6.783-4.613-9.299c-0.236-0.217-1.111-1.02-1.111-1.02l-0.456-0.383
		l0.529-0.309c0.291-0.166,1.038-0.201,2.661,1.313c1.824,1.711,3.883,5.76,4.703,8.551l0.347-0.238
		c0.492-0.348,0.931-0.639,1.313-0.93c-0.291-1.441-0.638-2.809-1.002-3.939C589.557,679.807,587.934,677.4,587.914,677.381
		 M569.409,654.373c-0.073,0.236-0.329,0.363-0.584,0.311c-0.018,0-0.036,0-0.036-0.02c-0.255-0.09-0.401-0.365-0.311-0.619
		c0.036-0.072,0.073-0.219,0.093-0.383c0.108-0.547,0.182-1.496-0.111-2.262c-0.072-0.182-0.146-0.365-0.218-0.529
		c-0.036,0.385-0.2,0.857-0.62,1.387c0,0,0,0.02-0.02,0.035c-0.017,0.037-0.053,0.074-0.09,0.092
		c-0.128,0.109-0.292,0.164-0.475,0.164c-0.639-0.055-1.111-0.271-1.44-0.676c-0.619-0.783-0.418-1.914-0.292-2.678
		c0.02-0.092,0.056-0.184,0.092-0.256l-0.018-0.018c-0.11,0-0.22-0.02-0.347-0.02c-0.273-0.018-0.491-0.219-0.491-0.492
		s0.235-0.492,0.509-0.492c2.79,0.02,3.757,1.605,4.34,3.137C569.864,652.313,569.61,653.826,569.409,654.373"/>
	<path fill="#575756" d="M522.26,441.619l-17.813,27.857l28.206-17.594L540,484.027l7.348-32.145l28.204,17.594l-17.793-27.857
		l32.526-7.275l-32.526-7.256l17.793-27.859l-28.204,17.594L540,384.678l-7.348,32.144l-28.206-17.594l17.813,27.859l-32.537,7.256
		L522.26,441.619z M517.573,412.191l17.796,11.104L540,403.019l4.649,20.275l17.777-11.104l-11.231,17.575l20.529,4.577
		l-20.529,4.595l11.231,17.575L544.65,445.41L540,465.685l-4.631-20.275l-17.796,11.104l11.231-17.575l-20.52-4.595l20.52-4.577
		L517.573,412.191z"/>
	<path fill="#575756" d="M492.031,220.039c-3.263,0-5.925,2.627-5.925,5.854s2.663,5.853,5.925,5.853
		c3.264,0,5.926-2.626,5.926-5.853S495.294,220.039,492.031,220.039"/>
	<path fill="#575756" d="M588.225,231.745c3.264,0,5.926-2.626,5.926-5.853s-2.662-5.854-5.926-5.854
		c-3.263,0-5.927,2.627-5.927,5.854S584.962,231.745,588.225,231.745"/>
	<path fill="#575756" d="M540.731,231.745c3.272,0,5.924-2.626,5.924-5.853s-2.651-5.854-5.924-5.854
		c-3.266,0-5.927,2.627-5.927,5.854S537.465,231.745,540.731,231.745"/>
	<path fill="#575756" d="M487.181,279.66c-3.264,0-5.926,2.643-5.926,5.853c0,3.245,2.662,5.87,5.926,5.87
		c3.263,0,5.925-2.625,5.925-5.87C493.106,282.302,490.444,279.66,487.181,279.66"/>
	<path fill="#575756" d="M592.728,279.66c-3.264,0-5.925,2.643-5.925,5.853c0,3.245,2.661,5.87,5.925,5.87
		c3.265,0,5.926-2.625,5.926-5.87C598.654,282.302,595.992,279.66,592.728,279.66"/>
	<path fill="#575756" d="M540.556,279.66c-3.272,0-5.917,2.643-5.917,5.853c0,3.245,2.645,5.87,5.917,5.87s5.936-2.625,5.936-5.87
		C546.491,282.302,543.828,279.66,540.556,279.66"/>
	<polygon fill="#575756" points="338.331,440.16 341.248,432.72 342.141,430.423 339.827,429.548 335.669,427.961 333.354,427.069 
		332.46,429.367 329.544,436.787 319.863,433.084 317.536,432.21 316.644,434.49 314.52,439.923 313.626,442.201 315.943,443.095 
		325.624,446.795 322.388,455.037 321.484,457.333 323.809,458.208 327.957,459.814 330.272,460.689 331.176,458.41 334.411,450.15 
		342.27,453.16 344.585,454.053 345.496,451.755 347.611,446.34 348.505,444.042 346.19,443.167 	"/>
	<polygon fill="#575756" points="740.92,450.99 741.541,453.359 743.948,452.757 752.115,450.662 754.141,458.374 754.76,460.761 
		757.166,460.142 761.489,459.048 763.895,458.428 763.694,457.699 763.767,457.681 763.073,455.273 761.251,448.328 
		771.296,445.757 773.702,445.136 773.084,442.766 771.607,437.133 770.986,434.763 768.579,435.382 758.534,437.953 
		756.29,429.384 755.653,427.013 753.265,427.615 748.943,428.728 746.536,429.347 747.157,431.718 749.399,440.287 741.25,442.366 
		738.824,442.986 739.462,445.355 	"/>
	<path fill="#575756" d="M519.854,650.033c-0.813-1.258-2.353-2.061-4.221-2.242c-0.247-0.035-0.502-0.035-0.703-0.035
		c-0.856,0-1.677,0.145-2.46,0.418l-0.165,0.055c-0.072,0.018-0.146,0.035-0.218,0.072c-1.059,0.438-2.508,1.039-3.993,3.137
		c-0.995,1.404-1.031,2.625-1.113,5.268l-0.037,1.076c-0.036,0.932-0.008,1.332,0.01,1.66c0.019,0.346,0.037,0.637-0.01,1.33
		c-0.162,2.262-0.363,5.07-2.297,7.348c-1.412,1.695-3.408,2.754-5.359,3.775c-1.44,0.766-2.936,1.549-4.147,2.588
		c-1.669,1.422-3.045,3.338-4.221,5.816c-0.785,1.678-1.368,3.373-1.751,5.197c0.446,0.291,0.894,0.547,1.332,0.783
		c0.273,0.164,0.555,0.311,0.83,0.475c0.646-2.771,2.926-7.439,4.903-9.281c1.623-1.514,2.361-1.457,2.672-1.313l0.52,0.291
		l-1.56,1.422c-2.68,2.445-4.047,6.656-4.722,9.738c0,0.018-0.009,0.035-0.019,0.072c1.039,0.492,2.115,0.984,3.282,1.457
		c0.291,0.109,0.583,0.238,0.856,0.348l0.146,0.055c1.787-1.424,3.646-3.355,6.345-6.6c0.812-0.984,2.717-4.158,3.409-7.002
		c0.128-0.711,0.2-1.24,0.236-1.477l0.256-1.951l0.374,1.277c0,0,0.392,1.313,0.42,1.385c0.081,0.291,0.755,2.953-1.778,7.805
		c-1.632,3.117-3.537,5.086-5.232,6.836l-0.146,0.146c-0.255,0.271-0.51,0.527-0.747,0.766l0.865,0.311
		c0.666,0.254,1.305,0.473,1.934,0.691c0.628,0.221,1.213,0.402,1.759,0.566c1.141,0.363,2.151,0.637,3.309,0.965
		c1.213,0.348,2.591,0.73,4.368,1.277c1.495-2.096,2.517-4.066,3.118-6.035c0.728-2.389,0.938-5.051,0.655-8.168
		c-0.245-2.662-0.748-5.525-1.65-9.299c-0.473-2.023-0.282-4.176,0.556-6.18c0.602-1.441,1.542-2.662,2.463-3.848
		c0.182-0.219,0.354-0.457,0.528-0.693l0.127-0.146C521.477,656.342,521.276,652.24,519.854,650.033 M514.183,653.115
		c-0.2,0.475-0.602,0.838-1.203,1.039c-0.164,0.055-0.348,0.055-0.493-0.02c-0.045-0.018-0.091-0.053-0.127-0.072
		c-0.009-0.018-0.019-0.018-0.028-0.018c-0.537-0.42-0.829-0.82-0.975-1.186c-0.018,0.182-0.054,0.383-0.054,0.584
		c-0.074,0.766,0.235,1.66,0.51,2.205c0.064,0.146,0.137,0.256,0.201,0.348c0.146,0.217,0.09,0.51-0.129,0.674
		c-0.082,0.055-0.182,0.092-0.281,0.092c-0.155,0-0.301-0.074-0.402-0.201c-0.337-0.475-0.992-1.861-0.893-3.209
		c0.137-1.641,0.628-3.41,3.318-4.176c0.265-0.072,0.538,0.074,0.611,0.328c0.072,0.256-0.073,0.529-0.337,0.602
		c-0.119,0.037-0.22,0.092-0.329,0.129l-0.009,0.018c0.073,0.055,0.126,0.127,0.163,0.219
		C514.055,651.164,514.566,652.203,514.183,653.115"/>
</g>
</svg>
