<?xml version="1.0" encoding="utf-8"?>
<!-- Generator: Adobe Illustrator 16.0.0, SVG Export Plug-In . SVG Version: 6.00 Build 0)  -->
<!DOCTYPE svg PUBLIC "-//W3C//DTD SVG 1.1//EN" "http://www.w3.org/Graphics/SVG/1.1/DTD/svg11.dtd">
<svg version="1.1" id="Camada_1" xmlns="http://www.w3.org/2000/svg" xmlns:xlink="http://www.w3.org/1999/xlink" x="0px" y="0px"
	 width="1080px" height="1080px" viewBox="0 0 1080 1080" enable-background="new 0 0 1080 1080" xml:space="preserve">
<g>
	<g>
		<path fill="#003A5D" d="M139.366,854.588v49.557h-23.894v-134.58c15.925-0.676,25.247-1,27.938-1
			c21.255,0,36.817,3.248,46.658,9.775c9.815,6.525,14.743,16.732,14.743,30.564c0,30.889-18.201,46.332-54.615,46.332
			C147.504,855.236,143.878,855.029,139.366,854.588z M139.366,790.234v43.123c4.043,0.43,7.216,0.637,9.543,0.637
			c10.907,0,18.889-1.82,23.907-5.459c5.018-3.654,7.54-9.568,7.54-17.785c0-13.975-11.245-20.982-33.736-20.982
			C144.1,789.768,141.693,789.936,139.366,790.234z"/>
		<path fill="#003A5D" d="M222.192,769.473H246.1v91.289c0,7.229,2.197,13.105,6.605,17.654c4.418,4.525,10.491,6.787,18.2,6.787
			c8.644,0,15.379-2.211,20.189-6.656c4.81-4.445,7.214-10.529,7.214-18.252v-90.822h23.908v92.666
			c0,13.848-4.653,24.689-13.935,32.527c-9.283,7.84-21.671,11.779-37.182,11.779c-15.638,0-27.677-3.836-36.167-11.492
			c-8.501-7.672-12.739-18.631-12.739-32.904V769.473z"/>
		<path fill="#003A5D" d="M438.296,776.637l-9.828,19.773c-5.33-5.342-13.91-7.994-25.727-7.994c-11.22,0-20.423,4.693-27.6,14.104
			c-7.163,9.414-10.752,21.322-10.752,35.713c0,14.404,3.328,25.832,9.973,34.297c6.654,8.449,15.535,12.674,26.624,12.674
			c12.688,0,22.608-4.523,29.771-13.6l11.142,19.307c-9.751,10.361-24.038,15.535-42.85,15.535s-33.424-6.188-43.836-18.576
			c-10.428-12.365-15.628-29.252-15.628-50.65c0-19.916,5.759-36.582,17.305-49.959c11.57-13.404,26.351-20.086,44.369-20.086
			C416.703,767.174,429.041,770.332,438.296,776.637z"/>
		<path fill="#003A5D" d="M635.971,904.234h-23.168l-13.975-72.619l-27.119,74.375h-8.541l-27.135-74.375l-14.509,72.619H498.45
			l27.093-134.762h12.7l29.138,90.73l28.51-90.73H608.5L635.971,904.234z"/>
		<path fill="#003A5D" d="M651.688,904.145v-79.602H639.09v-18.85h35.855v98.451H651.688z M663.557,767.537
			c3.68,0,6.824,1.301,9.412,3.914c2.613,2.598,3.914,5.732,3.914,9.41c0,3.68-1.301,6.826-3.914,9.426
			c-2.588,2.6-5.732,3.9-9.412,3.9c-3.678,0-6.838-1.301-9.426-3.9c-2.613-2.6-3.912-5.746-3.912-9.426
			c0-3.678,1.299-6.813,3.912-9.41C656.719,768.838,659.879,767.537,663.557,767.537z"/>
		<path fill="#003A5D" d="M761.279,904.145V847.24c0-8.396-1.625-14.533-4.834-18.381c-3.225-3.861-8.465-5.785-15.758-5.785
			c-3.367,0-6.98,0.938-10.816,2.834c-3.822,1.898-6.799,4.264-8.957,7.084v71.152H697.93v-98.451h16.563l4.225,9.203
			c6.254-7.371,15.473-11.051,27.666-11.051c11.699,0,20.941,3.512,27.703,10.545c6.787,7.008,10.152,16.795,10.152,29.367v60.387
			H761.279z"/>
		<path fill="#003A5D" d="M860.096,894.316c-2.08,3.432-5.721,6.24-10.906,8.396c-5.162,2.186-10.584,3.277-16.225,3.277
			c-10.596,0-18.93-2.666-25-7.957c-6.059-5.303-9.1-12.83-9.1-22.568c0-11.4,4.277-20.32,12.83-26.74
			c8.555-6.461,20.684-9.66,36.453-9.66c2.691,0,5.877,0.441,9.543,1.379c0-11.584-7.307-17.369-21.959-17.369
			c-8.631,0-15.859,1.43-21.697,4.316l-4.953-17.836c7.893-3.797,17.305-5.709,28.211-5.709c15.016,0,26.014,3.42,32.996,10.26
			c6.994,6.836,10.502,19.771,10.502,38.83v21.061c0,13.105,2.613,21.359,7.893,24.729c-1.898,3.313-4.016,5.342-6.344,6.096
			c-2.328,0.779-4.992,1.17-7.996,1.17c-3.303,0-6.279-1.236-8.916-3.68C862.801,899.854,861.02,897.188,860.096,894.316z
			 M857.885,857.811c-3.924-0.779-6.875-1.182-8.826-1.182c-18.135,0-27.209,5.939-27.209,17.836
			c0,8.813,5.121,13.221,15.354,13.221c13.779,0,20.682-6.891,20.682-20.67V857.811z"/>
		<path fill="#003A5D" d="M895.77,897.799l8.178-18.291c6.852,5.461,14.611,8.178,23.27,8.178c8.932,0,13.416-3.186,13.416-9.555
			c0-3.73-1.363-6.801-4.055-9.191c-2.678-2.379-7.918-5.199-15.719-8.465c-16.979-7.045-25.467-16.912-25.467-29.588
			c0-8.516,3.25-15.172,9.75-19.902c6.5-4.746,14.793-7.139,24.922-7.139c10.219,0,19.852,2.301,28.859,6.904l-6.629,17.822
			c-5.018-4.275-12.012-6.42-20.943-6.42c-8.033,0-12.053,3.184-12.053,9.555c0,2.508,1.326,4.783,3.953,6.811
			c2.625,2.018,8.268,4.719,16.912,8.113c8.633,3.418,14.875,7.541,18.656,12.377c3.809,4.848,5.707,10.697,5.707,17.563
			c0,9.127-3.393,16.316-10.164,21.555c-6.775,5.238-15.979,7.865-27.629,7.865c-6.551,0-11.803-0.533-15.742-1.625
			C907.027,903.299,901.943,901.115,895.77,897.799z"/>
	</g>
	<g>
		<g>
			<path fill="#4F5858" d="M335.178,487.956l-0.495-1.184c-1.364-3.342-2.963-6.592-4.627-9.777c1.144,0,2.236,0,3.393,0h1.235
				h3.042h0.793l-0.325-0.767c-0.715-1.729-1.366-3.509-1.755-5.368c-0.338-1.743-0.402-3.55-0.429-5.345l-0.013-0.545h-0.547
				h-0.767H331.2c-1.248,0-2.471,0-3.706,0c0.182-2.756,0.56-5.5,1.041-8.229l0.118-0.65h-0.638h-5.135h-0.143
				c-1.768,0-3.496,0-5.251,0h-0.468l-0.064,0.443c-0.533,2.794-0.91,5.602-1.092,8.437c-1.262,0-2.495,0-3.745,0
				c-1.442,0-2.86,0-4.29,0h-0.545v0.56c0.012,1.845,0.128,3.73,0.454,5.563c0.404,1.913,1.067,3.772,1.834,5.54l0.129,0.363h0.391
				c1.418,0,2.833,0,4.251,0c1.326,0,2.652,0,3.964,0c1.652,3.134,3.186,6.292,4.576,9.556c0.261,0.611,0.481,1.196,0.742,1.807
				c1.509,3.9,2.887,7.825,4.394,11.726l0.118,0.352h0.39c1.741,0,3.496,0,5.212,0h0.949h4.342h0.794l-0.272-0.742
				C338.051,495.781,336.673,491.868,335.178,487.956z M330.393,496.691c-1.363-3.796-2.69-7.645-4.29-11.363
				c-0.974-2.365-2.093-4.653-3.225-6.968c-0.752-1.573-1.546-3.185-2.249-4.771l-0.156-0.337h-0.338c-1.43,0-2.847,0-4.29,0
				c-1.287,0-2.562,0-3.849,0c-0.404-1.496-0.715-3.017-0.922-4.551c1.221,0,2.456,0,3.665,0c1.43,0.013,2.835,0,4.277,0h0.56
				l-0.025-0.559c-0.039-2.782,0.104-5.564,0.429-8.307h2.897h1.469c-0.338,2.756-0.52,5.552-0.468,8.333l0.052,0.532h0.535
				c1.417,0,2.86,0,4.263,0c1.274,0,2.535,0,3.772,0c0.207,1.534,0.505,3.042,0.91,4.551c-1.196,0-2.394,0-3.577,0
				c-1.416,0-2.846,0-4.263,0h-0.846l0.338,0.779c1.755,3.939,3.797,7.736,5.474,11.713c1.508,3.587,2.808,7.293,4.146,10.946
				C333.268,496.691,331.836,496.691,330.393,496.691z"/>
			<path fill="#4F5858" d="M740.975,500.436h4.342h0.896c1.742,0,3.512,0,5.264,0h0.354l0.154-0.352
				c1.51-3.9,2.875-7.825,4.381-11.726c1.537-3.888,3.381-7.67,5.33-11.363c1.314,0,2.627,0,3.953,0h2.016h2.234h0.391l0.143-0.363
				c0.742-1.768,1.418-3.626,1.809-5.54c0.352-1.832,0.441-3.718,0.469-5.563v-0.56h-0.547c-1.43,0-2.848,0-4.291,0h-0.207h-3.537
				c-0.195-2.835-0.584-5.643-1.078-8.437l-0.092-0.443h-0.467c-1.756,0-3.498,0-5.254,0c-1.74,0-3.496,0-5.252,0h-0.676l0.145,0.65
				c0.492,2.729,0.869,5.474,1.039,8.229c-1.234,0-2.445,0-3.693,0h-3.482h-0.779h-0.572v0.545
				c-0.027,1.794-0.131,3.602-0.441,5.345c-0.354,1.859-1.016,3.639-1.73,5.368l-0.326,0.767h0.846h3.004h1.248
				c1.131,0,2.25,0,3.367,0c-1.678,3.186-3.25,6.435-4.615,9.79l-0.494,1.171c-1.496,3.898-2.887,7.826-4.381,11.738l-0.301,0.742
				H740.975z M749.451,485.745c1.676-3.978,3.73-7.774,5.473-11.713l0.324-0.779h-0.818c-1.43,0-2.859,0-4.277,0
				c-1.209,0-2.367,0-3.563,0c0.377-1.509,0.676-3.017,0.871-4.551c1.262,0,2.537,0,3.797,0c1.441,0,2.848,0,4.289,0h0.508
				l0.025-0.532c0.066-2.781-0.076-5.577-0.416-8.333c1.43,0,2.873,0,4.316,0c0.352,2.742,0.52,5.525,0.441,8.307v0.559h0.533
				c1.457,0,2.873,0,4.291,0h2.418h1.221c-0.182,1.534-0.48,3.055-0.896,4.551h-0.324h-3.537c-1.418,0-2.848,0-4.264,0h-0.377
				l-0.117,0.337c-1.768,3.938-3.795,7.735-5.498,11.739c-1.574,3.718-2.9,7.566-4.277,11.363c-1.43,0-2.875,0-4.277,0
				C746.654,493.038,747.941,489.332,749.451,485.745z"/>
			<path fill="#4F5858" d="M596.189,621.01c-7.086-3.795-12.936-9.203-17.512-15.613c-1.416-1.951-2.691-3.979-3.834-6.109
				c-5.252-9.607-7.969-20.723-7.969-31.67c0-10.934,2.717-22.063,7.969-31.679c1.143-2.093,2.418-4.16,3.834-6.084
				c4.576-6.408,10.426-11.817,17.512-15.612c1.416-0.754,2.82-1.444,4.277-2.042l0.83-0.338l-0.648-0.586
				c-1.457-1.287-2.926-2.522-4.459-3.718c-3.588-2.781-7.385-5.291-11.35-7.475l-0.324-0.182l-0.273,0.234
				c-2.016,1.457-3.836,3.108-5.564,4.916c-1.352,1.43-2.613,2.924-3.834,4.51c-4.031,5.291-7.166,11.35-9.529,17.304
				c-3.277,8.319-5.357,17.144-6.41,26.076c-0.585,4.887-0.871,9.814-0.871,14.676c0,4.875,0.286,9.775,0.871,14.664
				c1.053,8.957,3.133,17.799,6.41,26.092c2.363,5.98,5.498,12.014,9.529,17.318c1.221,1.572,2.482,3.066,3.834,4.496
				c1.729,1.82,3.549,3.473,5.564,4.941l0.273,0.207l0.324-0.154c3.965-2.213,7.762-4.721,11.35-7.504
				c1.533-1.195,3.002-2.416,4.459-3.705l0.648-0.596l-0.83-0.326C599.01,622.451,597.605,621.752,596.189,621.01z"/>
			<path fill="#4F5858" d="M558.904,613.639c-4.862-15.08-6.825-31.59-6.825-46.021c0-14.443,1.963-30.937,6.825-46.018
				c3.105-9.775,7.447-18.927,13.207-26.521l0.469-0.611l-0.715-0.259c-4.238-1.534-8.58-2.744-12.961-3.626
				c-2.678-0.56-5.383-0.964-8.087-1.274c-2.042-0.247-4.068-0.39-6.11-0.494l-0.571-0.027v157.69l0.571-0.039
				c2.042-0.115,4.068-0.273,6.11-0.506c2.704-0.313,5.409-0.729,8.087-1.273c4.381-0.885,8.723-2.094,12.961-3.627l0.715-0.246
				l-0.469-0.611C566.352,632.594,562.01,623.416,558.904,613.639z"/>
			<path fill="#4F5858" d="M330.277,652.236L330.277,652.236l-0.794-0.922l-0.012,0.012c-1.925-2.066-4.16-3.756-6.592-5.018
				c-2.912-1.496-6.11-2.354-9.451-2.535c-6.306-0.287-12.532,2.08-17.107,6.383l-0.234,0.221c-3.849,3.73-6.371,8.594-7.229,13.885
				c-0.183,1.027-0.273,2.041-0.325,3.068c-0.286,6.268,1.794,12.547,5.85,17.342l-0.027,0.014l0.572,0.625
				c5.643,6.266,14.119,9.125,22.361,7.279c1.962-0.416,3.848-1.105,5.589-2.016c1.977-1.014,3.796-2.287,5.436-3.822l0.025-0.039
				l0.442-0.389l-0.025-0.027c2.704-2.639,4.719-5.824,5.927-9.307c0.821-2.367,1.314-4.863,1.417-7.412
				c0.17-3.262-0.337-6.537-1.417-9.607C333.682,657.15,332.215,654.537,330.277,652.236z M325.479,683.074l-0.35,0.338
				c-0.69,0.648-1.47,1.26-2.25,1.807c-1.975,1.324-4.172,2.313-6.512,2.809c-6.605,1.469-13.326-0.754-17.902-5.656l0.013-0.012
				l-0.39-0.404l-0.143-0.182c-3.368-3.9-5.096-9.086-4.889-14.236c0.052-0.83,0.13-1.664,0.273-2.482
				c0.715-4.303,2.756-8.281,5.902-11.285l0.259-0.232c3.68-3.434,8.646-5.316,13.676-5.084c3.525,0.156,6.866,1.301,9.711,3.238
				c1.301,0.883,2.497,1.949,3.577,3.146l0.467,0.572h0.014c3.223,3.873,4.862,8.918,4.627,13.949
				C331.355,674.547,329.237,679.447,325.479,683.074z"/>
			<path fill="#4F5858" d="M751.309,626.51l0.104-0.027c0.988-0.025,1.979-0.143,2.951-0.311c5.072-0.91,9.66-3.459,13.145-7.24
				l0.039,0.023l0.117-0.143l0.363-0.48c4.213-4.838,6.371-11.244,6.098-17.629c-0.287-5.889-2.547-11.479-6.461-15.795
				c-0.379-0.441-0.793-0.834-1.197-1.234l-0.246-0.223c-4.564-4.25-10.752-6.578-16.979-6.279c-1.34,0.053-2.652,0.221-3.926,0.508
				c-4.836,1.092-9.205,3.678-12.533,7.436l-0.428,0.416l0.025,0.039c-2.691,3.199-4.512,6.996-5.344,11.09
				c-1.717,8.346,0.807,17.084,6.879,23.074l-0.027,0.016l0.494,0.402c3.055,2.887,6.852,4.873,10.934,5.811
				C747.266,626.406,749.268,626.586,751.309,626.51z M736.955,616.199v0.039c-4.861-4.85-6.863-11.908-5.498-18.615
				c0.691-3.264,2.133-6.305,4.266-8.879l0.051,0.064l0.391-0.584c2.443-2.744,5.629-4.76,9.152-5.734
				c1.338-0.363,2.703-0.598,4.135-0.676c5.004-0.223,9.957,1.637,13.662,5.031v0.025l0.311,0.273
				c1.783,1.703,3.213,3.717,4.24,5.914c1.145,2.432,1.807,5.109,1.896,7.854c0.17,3.34-0.506,6.668-1.896,9.672
				c-0.793,1.676-1.809,3.248-3.018,4.654l-0.232,0.258c-2.834,3.174-6.631,5.318-10.83,6.061c-0.766,0.143-1.572,0.234-2.393,0.26
				l-0.232,0.012c-1.926,0.066-3.811-0.168-5.643-0.688c-2.951-0.834-5.668-2.354-7.904-4.461L736.955,616.199z"/>
			<path fill="#4F5858" d="M717.781,637.857l-0.066,0.064c-4.25-3.834-9.826-6.029-15.586-6.045c-0.35,0-0.703,0.016-1.066,0.039
				h-0.221v0.014c-0.922,0.053-1.82,0.156-2.742,0.313c-5.266,0.936-9.934,3.613-13.496,7.605l-0.193,0.234
				c-4.188,4.836-6.344,11.232-6.086,17.615c0.039,1.014,0.17,2.041,0.338,3.068c0.873,5.355,3.459,10.283,7.412,14.027l0.039,0.051
				h0.012c3.705,3.498,8.373,5.693,13.43,6.281c0.857,0.076,1.729,0.127,2.574,0.127c0.338,0,0.662,0,1-0.012
				c6.424-0.285,12.365-3.197,16.615-8.047l0.039-0.064c3.406-3.9,5.514-8.738,6.033-13.898c0.104-1.207,0.156-2.469,0.104-3.691
				c-0.262-6.539-2.979-12.701-7.709-17.188L717.781,637.857z M721.291,658.738c-0.43,4.158-2.105,8.072-4.809,11.23l-0.105,0.117
				c-3.445,3.889-8.242,6.266-13.455,6.486c-0.273,0.014-0.531,0.014-0.793,0.014c-0.676,0-1.379-0.037-2.08-0.104
				c-4.029-0.455-7.734-2.17-10.686-4.939l0,0l-0.223-0.17c-3.211-3.055-5.275-7.045-5.992-11.402
				c-0.143-0.818-0.234-1.65-0.273-2.482c-0.232-5.16,1.521-10.348,4.863-14.26l0.234-0.262c2.885-3.197,6.656-5.367,10.879-6.121
				c0.729-0.105,1.471-0.211,2.211-0.262h0.195c0.287-0.012,0.598-0.012,0.871-0.012c4.771,0,9.426,1.871,12.924,5.146l0.064,0.066
				c3.848,3.652,6.057,8.656,6.279,13.949C721.408,656.748,721.396,657.736,721.291,658.738z"/>
			<path fill="#4F5858" d="M808.666,666.289c-0.09-1.688-0.26-3.367-0.52-5.043c-1.533-9.217-5.916-17.656-12.676-24.129
				l-0.545-0.545l-0.027,0.012c-1.443-1.34-3.016-2.574-4.641-3.691c-0.596-0.391-1.156-0.781-1.74-1.158
				c-2.018-1.209-4.098-2.236-6.268-3.107c6.344-8.111,9.541-18.445,9.1-28.729c-0.494-11.025-5.018-21.451-12.947-29.146
				l0.012-0.027l-0.584-0.52c-3.016-2.834-6.461-5.174-10.166-6.969c-5.955-2.848-12.559-4.265-19.215-3.939
				c-1.053,0.039-2.094,0.131-3.133,0.262c-9.791,1.247-18.695,6.045-25.26,13.506l0,0l-0.469,0.469l0.014,0.025
				c-1.975,2.314-3.719,4.824-5.16,7.514c-0.482,0.912-0.938,1.82-1.354,2.77c-1.689,3.758-2.82,7.748-3.393,11.818
				c-1.457-0.846-2.82-1.898-4.004-3.135c-1.586-1.676-2.77-3.652-3.563-5.797l-0.092-0.326l0.092-0.35
				c0.143-0.365,0.234-0.715,0.338-1.066c0.17-0.715,0.324-1.43,0.455-2.158c0.377-2.432,0.299-5.084-0.793-7.293
				c-0.391-0.832-0.938-1.613-1.652-2.275l-0.219-0.195c-3.174-2.781-7.773-2.184-11.402-0.729
				c-1.756,0.703-3.445,1.639-5.018,2.691l-25.027-23.699l4.811-59.018c1.678-1.248,3.355-2.483,5.045-3.73
				c7.098-5.227,14.273-10.337,21.646-15.172c3.887-2.547,7.813-5.057,11.816-7.396c2.391-1.366,4.797-2.679,7.254-3.927
				c3.314-1.664,6.863-3.313,10.453-4.302c0.143,0.064,0.311,0.104,0.48,0.13c4.822,0.637,16.342,2.249,15.471,9.229
				c-0.572,4.472-5.006,10.778-7.488,14.573c-5.953,9.036-14.43,21.205-7.971,32.137c-0.271,0.456-0.492,0.924-0.688,1.43
				c-0.793,2.068,0.182,4.512,2.248,5.357c0.209,0.079,0.457,0.143,0.676,0.195c0.441,4.147,1.717,7.709,3.291,11.57
				c2.48,5.981,3.457,9.841,1.885,16.286c-0.262,1.223,0.441,2.51,1.664,2.848c1.248,0.286,2.494-0.508,2.744-1.716
				c1.857-7.615,0.791-12.166-2.107-19.237c-1.65-4.031-2.873-7.542-3.096-11.948c0.039-0.104,0.119-0.208,0.145-0.325
				c0.156-0.442,0.494-0.779,0.871-1.026c0.184,5.133,1.508,9.073,3.445,13.831c2.482,5.994,3.459,9.842,1.91,16.298
				c-0.285,1.21,0.416,2.51,1.637,2.822c1.25,0.326,2.484-0.495,2.783-1.716c1.82-7.602,0.779-12.139-2.133-19.224
				c-1.844-4.499-3.08-8.151-3.133-13.052c0.639-0.04,1.262-0.04,1.912-0.04c0.117,5.331,1.43,9.347,3.445,14.261
				c2.482,5.993,3.471,9.842,1.898,16.3c-0.301,1.208,0.43,2.51,1.664,2.832c1.248,0.313,2.443-0.48,2.77-1.715
				c1.818-7.601,0.793-12.152-2.121-19.225c-1.729-4.199-2.963-7.734-3.119-12.258c0.584,0.039,1.17,0.091,1.742,0.143
				c0.078,5.446,1.416,9.556,3.498,14.573c0.4,1.053,0.805,2.042,1.156,3.003c1.572,4.433,2.014,7.969,0.715,13.295
				c-0.287,1.21,0.416,2.51,1.664,2.822c1.234,0.326,2.457-0.495,2.756-1.716c1.846-7.602,0.779-12.139-2.133-19.224
				c-1.533-3.757-2.664-6.955-3.002-10.831c-0.064-0.533-0.117-1.053-0.117-1.56h0.117l1.625,0.105
				c0.025,5.653,1.377,9.802,3.51,15.002c2.471,6.006,3.457,9.828,1.871,16.298c-0.273,1.222,0.441,2.497,1.68,2.808
				c1.207,0.338,2.455-0.453,2.74-1.701c1.859-7.59,0.795-12.141-2.119-19.225c-1.844-4.472-3.08-8.138-3.119-13.002
				c0.402,0.027,0.793,0.027,1.195,0.027c0.287,4.823,1.6,8.686,3.432,13.131c2.471,5.979,3.447,9.827,1.887,16.286
				c-0.299,1.223,0.402,2.51,1.65,2.82c1.248,0.34,2.471-0.467,2.744-1.689c1.846-7.626,0.805-12.152-2.107-19.25
				c-1.6-3.874-2.807-7.318-3.068-11.531c0.521-0.064,1.066-0.128,1.572-0.234c0.379,4.408,1.691,8.099,3.355,12.182
				c2.482,5.993,3.459,9.842,1.898,16.3c-0.299,1.222,0.441,2.508,1.678,2.821c0.676,0.182,1.391,0,1.924-0.417
				c0.402-0.325,0.701-0.767,0.832-1.287c1.533-6.34,1.039-10.539-0.832-15.883c-0.379-1.065-0.793-2.158-1.287-3.341
				c-1.611-3.913-2.834-7.357-3.096-11.595c0.34-0.143,0.65-0.274,0.977-0.429c0.508,3.886,1.729,7.253,3.225,10.893l0.182,0.404
				c2.326,5.759,3.25,9.568,1.717,15.873c-0.287,1.235,0.414,2.519,1.662,2.832c1.236,0.324,2.471-0.469,2.756-1.688
				c1.848-7.604,0.781-12.155-2.131-19.241c-1.689-4.159-2.953-7.734-3.121-12.285c0.963-1.026,1.717-2.209,2.301-3.497
				c0.938-2.016,0.131-4.472-1.883-5.473c-0.43-0.222-0.846-0.352-1.301-0.39c-0.533-0.066-1.094,0-1.611,0.168
				c-0.301-2.613,0.428-5.227,1.611-7.683c1.352-2.835,3.25-5.485,4.875-7.813c2.496-3.523,4.965-7.098,6.682-11.077
				c6.137-14.093-1.898-26.156-11.557-36.011l-0.156-0.17c-0.26-0.311-0.586-0.545-0.975-0.688
				c-6.902-2.458-14.105-3.523-21.217-2.379c-1.859,0.312-3.68,0.755-5.5,1.366c-8.152,2.754-14.781,8.318-20.203,14.884
				c-4.211,0.962-8.385,2.835-12.232,4.771c-1.756,0.885-3.51,1.82-5.252,2.808l-0.703,0.39
				c-10.906,0.273-35.268,0.091-35.268,0.091l2.092-25.545h-86.297c-1.025-1.938-1.975-3.913-2.848-5.915l51.611-48.909
				l21.389,24.299c0.037,0.052,0.037,0.091,0.088,0.129c0.859,0.976,2.289,1.028,3.238,0.157l4.447-4.199l4.289-4.083
				c0.975-0.858,2.275-1.299,3.588-1.223c0.26,0.013,0.52,0.027,0.793,0.104h0.117c0.988,0.249,1.924,0.781,2.613,1.548l0.234,0.274
				c0.844,1.053,1.273,2.404,1.195,3.73v0.104c-0.078,1.353-0.648,2.653-1.625,3.614l-2.418,2.3l-6.174,5.851l-0.027,0.013
				c-0.922,0.872-0.988,2.354-0.156,3.291l25.818,29.327l0.039,0.014c0.82,0.962,2.275,1.041,3.199,0.155l35.881-33.983
				c0.936-0.87,0.986-2.352,0.156-3.313l-25.273-28.666l-0.572-0.663c-0.846-0.949-2.301-1.014-3.211-0.143l-9.789,9.255
				l-0.143,0.144c-0.975,0.87-2.289,1.313-3.602,1.247h-0.117c-1.314-0.077-2.51-0.675-3.406-1.649l-0.037-0.052l-0.365-0.443
				c-0.715-1.001-1.092-2.261-1.041-3.497c0.092-1.391,0.625-2.729,1.637-3.693l9.818-9.359c0.922-0.845,0.986-2.339,0.168-3.276
				l-8.932-10.14l-0.078-0.079c-0.896-1.053-1.338-2.443-1.287-3.847c0.08-1.366,0.625-2.692,1.598-3.681l0.523-0.441
				c0.922-0.702,2.039-1.065,3.209-1.053l0.104,0.013c1.326,0.066,2.574,0.638,3.498,1.585l9.035,10.258v0.027
				c0.781,0.896,2.08,1.026,2.99,0.35c0.104-0.052,0.17-0.118,0.246-0.195l9.934-9.386c0.988-0.873,2.275-1.327,3.613-1.262
				c0.234,0,0.494,0.04,0.754,0.104c1.066,0.209,1.99,0.767,2.742,1.561l0.404,0.469c0.74,1.027,1.092,2.275,1.039,3.535v0.118
				c-0.076,1.325-0.621,2.611-1.598,3.548l-0.078,0.091l-9.75,9.231l-0.053,0.039c-0.898,0.858-0.963,2.327-0.129,3.289
				l25.805,29.302l0.025,0.04c0.82,0.961,2.301,1.04,3.238,0.155l36.648-34.763c0.934-0.858,1.014-2.327,0.17-3.289l-25.834-29.329
				c-0.832-0.962-2.301-1.041-3.248-0.143l-0.742,0.715l-7.801,7.384l-0.402,0.3l0.039,0.025c-0.949,0.754-2.172,1.144-3.393,1.092
				h-0.105c-1.273-0.091-2.418-0.663-3.328-1.561h0.027l-0.313-0.338c-0.859-1.026-1.301-2.404-1.248-3.757
				c0.066-1.403,0.623-2.729,1.625-3.718l9.047-8.58l-0.051-0.052c0.545-0.87,0.48-2.054-0.207-2.848l-21.557-24.454l3.926-3.718
				l0.443-0.363l-0.027-0.026c0.949-1.117,1.51-2.535,1.6-4.017c0.064-1.664-0.492-3.289-1.547-4.551h-0.025l-5.162-5.863
				l-0.039-0.064c-1.105-1.223-2.611-1.938-4.225-2.015c-1.533-0.066-3.105,0.466-4.277,1.494l-0.182,0.156L572.463,408.016
				c-2.742-15.133-1.689-30.576,2.381-45.371l0.428-1.457h38.416c0.598,0,1.184-0.259,1.613-0.701
				c5.172-5.384,8.279-11.558,8.879-19.033c0.467-5.877-0.703-11.662-1.939-17.356c-0.699-3.107-2.209-8.931-0.895-11.896
				c0.232-0.521,0.26-1.092,0.104-1.625c-0.365-1.221-1.6-1.95-2.834-1.573c-1.313,0.429-2.51,1.144-3.563,2.068
				c0,0.025,0,0.025-0.039,0.038c-0.975-2.703-2.145-5.331-3.457-7.877c1.688-4.914,0.506-9.647-0.938-14.443
				c-0.533-1.821-1.82-5.5-0.768-7.241c0.586-1.015-0.09-2.093-1.092-2.47c-0.469-0.157-0.975-0.182-1.43-0.066
				c-0.064,0-0.131,0.039-0.182,0.052c-0.572,0.13-1.117,0.325-1.639,0.586c-0.104,0.025-0.17,0.064-0.258,0.104
				c-0.43-0.897-0.859-1.78-1.326-2.665v-2.093c1.09-4.707,0.064-9.191-1.094-13.767c-0.52-1.938-1.664-5.733-0.729-7.592
				l0.209-0.689c0-0.195-0.039-0.377-0.117-0.572c-0.299-0.923-1.352-1.378-2.273-1.131c-1.002,0.273-1.926,0.754-2.758,1.378
				c-0.143,0.117-0.299,0.234-0.455,0.351c-0.117,0.169-0.273,0.272-0.416,0.416l-0.025,0.027l-0.078,0.09
				c-0.703,0.715-1.287,1.547-1.717,2.457c-0.092,0.183-0.168,0.339-0.26,0.547c-0.467,1.091-0.729,2.261-0.754,3.418v0.039v0.273
				c0,0.403,0.025,0.806,0.143,1.183c-0.012,0.026-0.039,0.04-0.064,0.078c-3.521-8.151-8.541-15.536-14.859-21.58
				c-1.248-1.183-2.496-2.289-3.834-3.38c-2.666-2.119-5.486-4.043-8.557-5.733c-1.846-1.027-3.756-1.95-5.707-2.756
				c-0.402-1.235-0.961-2.392-1.676-3.432c-1.951-2.795-4.927-4.836-8.087-6.188c-1.001-0.429-2.026-0.793-3.028-1.066v-15.821
				h11.623v-15.926h-11.623v-12.064h-15.383v12.064h-11.324h-0.311v15.926h0.311h11.324v15.809
				c-1.067,0.312-2.171,0.701-3.225,1.156c-3.185,1.404-6.201,3.523-8.099,6.384c-0.611,0.948-1.08,1.963-1.455,3.055
				c-2.041,0.844-4.03,1.793-5.941,2.86c-3.042,1.69-5.89,3.614-8.542,5.759c-8.164,6.591-14.495,15.21-18.708,24.934
				c-0.013-0.038-0.038-0.052-0.052-0.078c0.039-0.208,0.091-0.429,0.118-0.624l0.025-0.559c0-2.471-1.001-4.966-2.742-6.734
				c-0.209-0.247-0.468-0.481-0.729-0.702c-0.441-0.351-0.896-0.651-1.391-0.91c-0.481-0.248-0.975-0.456-1.495-0.611l-0.195-0.091
				l-0.079,0.026c-0.35-0.078-0.767-0.026-1.117,0.104c-0.897,0.377-1.392,1.403-0.924,2.314c0.961,1.859-0.168,5.655-0.688,7.592
				c-1.17,4.588-2.197,9.061-1.104,13.78v2.093c-0.468,0.873-0.912,1.755-1.326,2.653c-0.651-0.325-1.339-0.572-2.056-0.742
				c-1.001-0.22-2.261,0.143-2.638,1.158c-0.183,0.466-0.143,0.961,0.104,1.378c1.028,1.716-0.259,5.42-0.779,7.241
				c-1.457,4.796-2.626,9.529-0.937,14.443c-1.313,2.547-2.471,5.175-3.484,7.877c-0.456-0.402-0.974-0.805-1.495-1.157
				c-0.638-0.377-1.287-0.676-1.938-0.91l-0.116-0.025l-0.586-0.197l-0.013,0.091c-0.365-0.025-0.728,0.052-1.028,0.209
				c-1.157,0.533-1.65,1.936-1.13,3.08c1.312,2.965-0.195,8.789-0.885,11.896c-1.26,5.695-2.404,11.466-1.95,17.304
				c0.586,7.436,3.654,13.612,8.777,18.979c0.429,0.495,1.038,0.806,1.716,0.806h17.485h20.944l0.415,1.444
				c4.043,14.808,5.11,30.251,2.393,45.384L371.709,279.365c-1.171-1.028-2.744-1.6-4.302-1.534
				c-1.639,0.077-3.134,0.792-4.24,2.015l-0.05,0.039l-5.436,6.188l0.014,0.025c-0.885,1.183-1.353,2.705-1.301,4.213
				c0.079,1.495,0.65,2.924,1.625,4.029l-0.052,0.052l0.443,0.364l3.898,3.691l-21.528,24.467c-0.754,0.846-0.754,2.185-0.039,3.082
				l8.737,8.308l0.208,0.168c0.924,0.976,1.444,2.249,1.484,3.589l0.012,0.038c0.064,1.339-0.365,2.705-1.235,3.757l-0.261,0.286
				c-0.844,0.91-2.002,1.482-3.275,1.585l-0.196,0.027c-1.312,0.052-2.599-0.402-3.587-1.248l-7.944-7.542l-0.779-0.728
				c-0.937-0.897-2.392-0.819-3.225,0.143l-25.818,29.329c-0.845,0.961-0.793,2.431,0.144,3.289l36.673,34.763
				c0.937,0.885,2.379,0.806,3.225-0.18l25.833-29.316c0.844-0.962,0.779-2.431-0.157-3.289l-9.724-9.23l-0.195-0.195
				c-0.924-0.937-1.469-2.184-1.521-3.511v-0.104c-0.064-1.248,0.286-2.522,1.041-3.55l0.311-0.362l0.027-0.027l0.039-0.039
				c0.701-0.806,1.664-1.352,2.729-1.573c0.298-0.052,0.533-0.104,0.793-0.104c1.312-0.064,2.574,0.365,3.548,1.208l9.985,9.439
				c0.064,0.077,0.143,0.143,0.234,0.195c0.922,0.676,2.224,0.545,2.977-0.338l8.932-10.14l0.156-0.157
				c0.897-0.947,2.145-1.52,3.471-1.585l0.116-0.013c1.237-0.013,2.484,0.429,3.459,1.26l0.325,0.338
				c0.937,0.949,1.457,2.238,1.533,3.577c0.052,1.378-0.377,2.742-1.235,3.782l-9.061,10.283c-0.819,0.937-0.767,2.431,0.143,3.276
				l9.775,9.269l0.183,0.169c0.949,0.949,1.469,2.249,1.508,3.602c0.052,1.378-0.39,2.756-1.262,3.821l-0.272,0.311
				c-0.885,0.885-2.056,1.444-3.342,1.521h-0.104c-1.312,0.066-2.586-0.377-3.587-1.26l-0.155-0.131l-9.75-9.255
				c-0.937-0.871-2.394-0.806-3.237,0.143l-25.833,29.354c-0.832,0.937-0.767,2.418,0.169,3.289l35.88,33.983
				c0.897,0.885,2.379,0.807,3.212-0.155l25.818-29.341c0.831-0.937,0.793-2.418-0.13-3.291l-8.553-8.099l-0.118-0.091
				c-0.935-0.922-1.482-2.157-1.573-3.484l-0.013-0.207c-0.052-1.327,0.365-2.678,1.169-3.706l0.3-0.351
				c0.715-0.767,1.652-1.287,2.717-1.496c0.222-0.077,0.493-0.091,0.74-0.104c1.353-0.077,2.64,0.365,3.641,1.248l4.263,4.07
				l4.433,4.186c0.937,0.871,2.406,0.819,3.239-0.143c0.052-0.052,0.077-0.091,0.143-0.169l21.358-24.272l51.599,48.909
				c-0.858,2.002-1.834,3.977-2.848,5.915H411.75l2.066,25.545c-3.471,0.104-26.987,0.118-35.283-0.091l-0.688-0.402
				c-1.716-0.976-3.458-1.911-5.239-2.795c-3.836-1.936-8.047-3.809-12.246-4.771c-5.396-6.565-12.039-12.13-20.191-14.884
				c-1.805-0.611-3.639-1.055-5.486-1.366c-3.925-0.65-7.865-0.611-11.804-0.014c-3.184,0.468-6.33,1.301-9.438,2.394
				c-0.39,0.143-0.728,0.377-0.988,0.715c-9.71,9.867-17.835,21.984-11.687,36.141c0.779,1.807,1.716,3.548,2.744,5.212
				c1.235,2.002,2.586,3.952,3.925,5.877c3.03,4.381,7.15,9.867,6.474,15.496c-0.949-0.311-1.989-0.247-2.899,0.222
				c-1.99,1.001-2.781,3.457-1.859,5.473c0.585,1.287,1.339,2.456,2.288,3.497c-0.182,4.551-1.403,8.126-3.106,12.285
				c-2.938,7.085-3.979,11.637-2.133,19.241c0.273,1.219,1.495,2.012,2.731,1.688c1.233-0.313,1.963-1.597,1.677-2.832
				c-1.561-6.447-0.56-10.295,1.898-16.277c1.481-3.639,2.729-7.007,3.21-10.893c0.311,0.155,0.651,0.286,0.976,0.429
				c-0.249,4.238-1.457,7.682-3.069,11.595c-2.912,7.085-3.978,11.622-2.118,19.224c0.298,1.235,1.519,2.028,2.754,1.704
				c1.223-0.313,1.95-1.6,1.651-2.821c-1.56-6.458-0.559-10.307,1.898-16.3c1.704-4.083,2.991-7.774,3.353-12.182
				c0.56,0.105,1.08,0.17,1.573,0.234c-0.234,4.213-1.455,7.658-3.041,11.531c-2.926,7.098-3.979,11.624-2.145,19.25
				c0.299,1.223,1.494,2.029,2.769,1.689c1.208-0.311,1.936-1.598,1.664-2.82c-1.353-5.51-0.821-9.109,0.896-13.791
				c0.3-0.779,0.624-1.625,0.988-2.495c1.834-4.445,3.146-8.308,3.419-13.131c0.417,0,0.794,0,1.196-0.027
				c-0.039,4.864-1.274,8.53-3.121,13.002c-1.13,2.756-1.976,5.096-2.483,7.409c-0.715,3.212-0.752,6.315,0,10.177
				c0.091,0.547,0.222,1.092,0.352,1.639c0.311,1.248,1.559,2.039,2.769,1.701c1.208-0.311,1.938-1.586,1.638-2.808
				c-1.546-6.471-0.558-10.292,1.911-16.298c2.145-5.2,3.458-9.349,3.486-15.002l1.649-0.105h0.091c0,0.547-0.04,1.067-0.091,1.587
				c-0.35,3.861-1.455,7.059-3.042,10.804c-2.885,7.085-3.938,11.622-2.093,19.224c0.286,1.221,1.521,2.042,2.744,1.716
				c1.248-0.313,1.95-1.612,1.639-2.822c-1.237-5.3-0.82-8.862,0.752-13.283c0.353-0.974,0.754-1.95,1.144-3.016
				c2.081-5.018,3.419-9.127,3.498-14.573c0.572-0.052,1.157-0.104,1.768-0.143c-0.183,4.524-1.403,8.06-3.121,12.258
				c-2.937,7.073-3.964,11.624-2.145,19.225c0.326,1.234,1.536,2.028,2.783,1.715c1.208-0.322,1.938-1.624,1.625-2.832
				c-1.534-6.458-0.545-10.307,1.911-16.3c2.029-4.914,3.341-8.93,3.471-14.261c0.636,0,1.26,0.013,1.884,0.064
				c-0.025,4.876-1.273,8.528-3.119,13.027c-2.912,7.098-3.952,11.622-2.145,19.237c0.313,1.234,1.56,2.029,2.795,1.703
				c1.221-0.313,1.936-1.612,1.637-2.822c-1.56-6.457-0.572-10.305,1.898-16.298c1.95-4.758,3.276-8.698,3.458-13.831
				c0.39,0.247,0.715,0.584,0.858,1.026c0.052,0.118,0.116,0.222,0.168,0.325c-0.234,4.406-1.417,7.917-3.106,11.948
				c-2.912,7.071-3.979,11.622-2.133,19.237c0.299,1.208,1.521,2.002,2.756,1.716c1.248-0.338,1.962-1.625,1.664-2.848
				c-1.573-6.444-0.572-10.305,1.898-16.286c1.585-3.861,2.86-7.423,3.314-11.57c0.197-0.052,0.429-0.116,0.638-0.195
				c2.093-0.845,3.042-3.289,2.261-5.343c-0.195-0.52-0.415-0.988-0.676-1.43c6.462-10.946-2.042-23.115-7.983-32.151
				c-2.495-3.795-6.916-10.101-7.5-14.573c-0.885-6.98,10.661-8.592,15.496-9.243c0.157-0.013,0.313-0.052,0.468-0.116
				c3.575,0.989,7.137,2.638,10.478,4.302c2.431,1.248,4.837,2.562,7.216,3.927c4.017,2.34,7.93,4.85,11.83,7.396
				c4.629,3.055,9.23,6.215,13.742,9.438c4.369,3.108,8.671,6.267,12.934,9.465l3.757,46.177l1.041,12.841l-1.041,1.002
				l-16.691,15.832l-7.268,6.865c-1.585-1.053-3.262-1.988-5.03-2.691c-3.706-1.48-8.36-2.08-11.533,0.859l-0.039,0.025
				l-0.025,0.014c-0.715,0.688-1.274,1.469-1.677,2.313c-1.067,2.211-1.131,4.85-0.767,7.281c0.091,0.729,0.259,1.443,0.441,2.158
				c0.116,0.352,0.234,0.701,0.325,1.066l0.116,0.35l-0.116,0.326c-0.781,2.145-1.95,4.121-3.55,5.797
				c-1.183,1.236-2.522,2.289-4.017,3.135c-0.559-4.07-1.69-8.061-3.367-11.818c-0.429-0.949-0.871-1.857-1.364-2.77
				c-1.535-2.807-3.342-5.447-5.436-7.852l-0.091-0.078v-0.012l-0.09-0.066c-6.58-7.461-15.47-12.259-25.248-13.506
				c-1.038-0.131-2.093-0.223-3.171-0.262c-2.874-0.131-5.786,0.053-8.633,0.547c-7.695,1.364-14.951,4.967-20.683,10.348h-0.039
				l-0.636,0.584l0.025,0.016c-7.877,7.668-12.428,18.109-12.895,29.107c-0.468,10.283,2.742,20.617,9.113,28.729
				c-2.185,0.871-4.29,1.898-6.267,3.107c-0.597,0.377-1.196,0.768-1.78,1.158c-1.729,1.195-3.393,2.508-4.928,3.953l-0.545,0.492
				l0.025,0.014c-6.617,6.408-10.932,14.795-12.426,23.895c-0.286,1.742-0.469,3.51-0.547,5.291
				c-0.481,11.049,3.276,22.178,10.621,30.551l0.468,0.561l0.012-0.041c7.268,8.021,17.213,12.883,28.029,13.402
				c4.238,0.195,8.437-0.297,12.454-1.43c4.201-1.156,8.19-2.988,11.804-5.434c1.847-1.234,3.614-2.625,5.253-4.16l0.259-0.246
				c3.341-3.211,6.149-6.941,8.281-11.049c0.273-0.521,0.521-1.029,0.742-1.561c7.566,7.566,17.966,11.998,28.626,12.023
				c0.597,0,1.208-0.012,1.808-0.025c2.288-0.117,4.576-0.441,6.797-0.924c6.294-1.379,12.078-4.238,16.967-8.318
				c0.703-0.561,1.366-1.172,2.054-1.783l0.273-0.258c6.694-6.449,11.075-14.859,12.609-24.051c0.286-1.744,0.456-3.512,0.535-5.291
				c0.468-11.078-3.303-22.191-10.622-30.539l-0.248-0.287c-1.43-1.598-2.977-3.094-4.601-4.445
				c-3.511-2.898-7.488-5.199-11.804-6.787c-1.184-0.441-2.431-0.818-3.64-1.143c-0.17-0.039-0.352-0.092-0.522-0.129
				c0.951-1.445,2.081-2.771,3.419-3.9c1.782-1.521,3.863-2.588,6.151-3.225c2.002,0.922,4.185,1.625,6.396,1.729
				c0.311,0.012,0.584,0.012,0.883,0.012c0.482-0.012,0.976-0.064,1.469-0.143c1.314-0.246,2.562-0.768,3.602-1.611l0.064,0.053
				l0.417-0.469l0.13-0.131c3.042-3.055,2.821-7.877,1.768-11.725c-0.52-1.898-1.274-3.719-2.145-5.461l10.503-9.971l3.16-3.018
				l6.188,75.482c0.286,3.613,1.04,7.137,2.197,10.555c7.229,21.102,29.797,37.883,52.131,44.396c6.514,1.898,13,2.912,19.071,2.912
				h71.988h2.287c0.508,0,1.014-0.012,1.547-0.012c5.615-0.158,11.57-1.172,17.512-2.9c25.947-7.553,52.234-29.004,54.367-54.951
				l6.148-75.482l13.691,12.988c-0.691,1.301-1.264,2.678-1.73,4.082c-0.168,0.455-0.299,0.922-0.416,1.379
				c-0.871,3.146-1.158,6.93,0.416,9.867c0.285,0.572,0.662,1.143,1.143,1.639l-0.09,0.09l0.508,0.324l0.104,0.104
				c1.104,0.988,2.418,1.6,3.875,1.859c0.492,0.078,0.986,0.131,1.506,0.143c2.471,0.08,5.006-0.699,7.229-1.74
				c2.289,0.637,4.381,1.703,6.176,3.225c1.326,1.129,2.471,2.455,3.418,3.9c-0.193,0.037-0.363,0.09-0.506,0.129
				c-1.209,0.324-2.457,0.701-3.641,1.143c-6.381,2.342-12.012,6.24-16.484,11.324l-0.26,0.262
				c-1.078,1.234-2.066,2.547-2.977,3.898c-5.316,7.736-7.969,17.174-7.566,26.574l0.025,0.234c0.08,1.689,0.26,3.365,0.521,5.057
				c1.039,6.291,3.42,12.258,7.02,17.445c1.639,2.406,3.523,4.654,5.682,6.684l0.26,0.246c5.33,4.99,11.777,8.477,18.914,10.035
				c2.25,0.508,4.512,0.807,6.801,0.924c0.611,0.014,1.209,0.025,1.807,0.025c10.699-0.025,21.086-4.457,28.613-12.023
				c0.246,0.531,0.494,1.039,0.74,1.561c2.096,3.988,4.797,7.617,8.021,10.764l-0.078,0.064l0.611,0.455
				c1.639,1.533,3.408,2.938,5.279,4.172c6.564,4.42,14.365,6.891,22.348,6.891c0.609,0,1.221,0,1.859-0.027
				c10.816-0.52,20.748-5.381,28.016-13.35l0.039,0.039l0.416-0.533l0.168-0.182c7.242-8.359,11.037-19.436,10.543-30.447
				L808.666,666.289z M766.311,506.141c0.223-0.506,0.82-0.767,1.354-0.532l0.025,0.026c0.547,0.259,0.74,0.922,0.508,1.455
				c-0.182,0.365-0.352,0.703-0.533,1.003c-4.199,7.084-14.717,6.435-22.348,5.771l-2.42-0.182
				c-3.561-0.273-7.24-0.638-10.803-0.417c-2.949,0.17-6.563,0.846-7.746,3.925c-0.209,0.547-0.807,0.86-1.342,0.611
				c-0.545-0.208-0.818-0.858-0.609-1.403c0.207-0.639,0.521-1.223,0.922-1.768c0.184-0.091,0.326-0.195,0.441-0.352
				c4.045-4.029,14.068-2.808,19.268-2.392h0.027h0.09l2.172,0.182c6.787,0.584,17.473,1.26,20.605-5.187
				C766.053,506.662,766.168,506.415,766.311,506.141z M741.234,442.675c1.338-0.443,2.703-0.806,4.082-1.055
				c6.447-1.221,12.986-0.271,19.24,1.886c1.066,1.08,2.107,2.224,3.107,3.368c6.889,7.929,11.727,17.303,7.008,28.028
				c-0.65,1.481-1.445,2.912-2.303,4.304c-1.092,1.807-2.313,3.548-3.51,5.291l-1.195,1.716c-3.926,5.708-7.592,11.738-5.734,18.954
				c-2.209,3.563-11.582,2.887-16.613,2.458l-1.859-0.17h-0.117c-6.098-0.493-14.6-1.403-20.125,1.782
				c-2.717-8.126,4.629-18.461,8.879-24.923c3.018-4.603,7.516-11.038,8.217-16.563c1.145-9.203-7.955-12.376-15.301-13.793
				C729.469,448.992,734.838,444.845,741.234,442.675z M665.793,465.841l2.873,0.064c8.229,0.182,16.484,0.157,24.701,0.027
				c-8.449,5.304-16.641,11.023-24.701,16.913c-1.521,1.104-3.029,2.211-4.537,3.328L665.793,465.841z M356.993,517.803
				c-0.52,0.249-1.144-0.064-1.339-0.611c-1.21-3.08-4.824-3.755-7.736-3.925c-3.6-0.222-7.266,0.13-10.841,0.417l-2.394,0.182
				c-3.614,0.312-7.865,0.624-11.804,0.129c-4.744-0.624-8.997-2.431-11.075-6.903c-0.261-0.52-0.04-1.196,0.481-1.455
				c0.545-0.261,1.156-0.026,1.391,0.506c0.13,0.273,0.273,0.521,0.39,0.742c1.573,3.198,4.967,4.642,8.814,5.214
				c3.939,0.584,8.36,0.259,11.804-0.027l2.159-0.182h0.064h0.027l0,0c5.212-0.417,15.249-1.638,19.28,2.392
				c0.143,0.157,0.271,0.261,0.454,0.352c0.404,0.545,0.702,1.129,0.937,1.768C357.812,516.945,357.552,517.595,356.993,517.803z
				 M339.703,467.751c0.688,5.525,5.2,11.948,8.215,16.563c4.238,6.462,11.585,16.797,8.868,24.923
				c-5.54-3.186-14.041-2.275-20.165-1.782h-0.104l-1.834,0.17c-3.171,0.259-8.06,0.636-11.804-0.014
				c-2.209-0.39-3.977-1.117-4.81-2.444c2.041-7.943-2.626-14.469-6.916-20.67c-2.172-3.082-4.316-6.176-5.836-9.607
				c-5.409-12.273,1.716-22.79,10.126-31.383c2.418-0.845,4.928-1.509,7.436-1.911c3.939-0.663,7.879-0.703,11.804,0.025
				c1.354,0.249,2.731,0.611,4.07,1.055c6.396,2.17,11.765,6.317,16.223,11.283C347.644,455.375,338.519,458.548,339.703,467.751z
				 M403.417,477.165c-5.513-3.888-11.102-7.657-16.81-11.232c5.617,0.079,11.193,0.13,16.81,0.079
				c3.587-0.027,7.189-0.079,10.777-0.17l1.664,20.333C411.75,483.119,407.603,480.103,403.417,477.165z M734.318,324.332
				l-7.334,6.93l0.016,0.025c-1.68,1.782-2.629,4.122-2.756,6.565v0.066c-0.08,2.56,0.791,5.134,2.455,7.097l0.391,0.507
				l0.039-0.012c1.73,1.743,3.979,2.781,6.434,2.899c2.498,0.13,4.98-0.794,6.84-2.458l0.168-0.168l4.746-4.447l2.145-2.066
				l22.803,25.87l-33.332,31.565l-22.803-25.87l8.449-7.983v-0.039c1.586-1.625,2.549-3.77,2.783-6.031h0.012l0.027-0.624
				c0.131-2.549-0.715-5.11-2.355-7.073l-0.375-0.402c-1.34-1.457-3.121-2.485-5.07-2.899c-0.494-0.079-0.963-0.143-1.443-0.157
				c-2.549-0.143-5.02,0.754-6.902,2.431l-7.125,6.748l-1.156,1.092l-7.736-8.814l-0.037,0.027c-1.68-1.73-3.928-2.783-6.371-2.887
				c-0.064,0-0.131,0-0.182,0c-2.432-0.066-4.824,0.831-6.645,2.443l-0.598,0.547l0.039,0.013c-1.73,1.795-2.691,4.159-2.807,6.644
				c-0.105,2.456,0.674,4.939,2.221,6.876v0.027l7.725,8.774l-8.504,8.06v0.012c-1.664,1.782-2.652,4.134-2.744,6.592l-0.039,0.077
				c-0.064,2.522,0.754,5.083,2.395,7.033l0.311,0.353c1.715,1.859,4.07,2.976,6.604,3.119c2.51,0.091,4.994-0.794,6.84-2.458
				l0.207-0.182l8.086-7.656l2.393,2.742l20.359,23.128l-32.514,30.811l-22.777-25.87l1.469-1.366l5.799-5.512v-0.025
				c1.715-1.782,2.691-4.161,2.795-6.644c0.092-2.483-0.703-4.953-2.25-6.903l0.025-0.013l-0.455-0.508
				c-1.377-1.481-3.146-2.521-5.133-2.937c-0.262-0.04-0.533-0.079-0.781-0.131c-0.234-0.026-0.455-0.039-0.676-0.039
				c-2.471-0.131-4.875,0.715-6.709,2.302l-0.012-0.027l-1.391,1.339l-5.838,5.525l-19.943-22.66l80.289-76.052L734.318,324.332z
				 M711.32,282.849c0.301-0.234,0.676-0.352,1.039-0.352c0.404,0.026,0.779,0.182,1.066,0.468l5.277,6.006
				c0.223,0.313,0.365,0.715,0.338,1.131c-0.023,0.404-0.154,0.806-0.428,1.106L566.119,435.642h-16.107L711.32,282.849z
				 M576.818,435.642h-1.975h-1.99l1.99-1.859l0.766-0.728C575.986,433.913,576.416,434.771,576.818,435.642z M546.293,432.794
				l-2.988,2.847h-3.186h-3.423l-3.003-2.847c6.009-21.918,3.782-43.616-4.512-64.195c-1.001-2.497-2.093-4.953-3.289-7.411h28.201
				c-1.169,2.458-2.275,4.94-3.276,7.423C542.484,389.178,540.3,410.876,546.293,432.794z M509.747,361.188h11.336h0.195
				c3.355,6.773,6.018,13.728,7.904,20.853c4.095,15.315,4.628,31.252,0.715,47.166l-0.715-0.69l-8.099-7.63l-9.672-9.179
				C514.882,395.171,514.063,377.492,509.747,361.188z M550.817,382.041c1.897-7.098,4.563-14.08,7.904-20.853h0.183h11.348
				c-4.314,16.304-5.133,33.983-1.689,50.52l-9.658,9.166l-8.087,7.643l-0.728,0.69
				C546.164,413.307,546.709,397.368,550.817,382.041z M592.275,274.359c0.064-0.039,0.117-0.052,0.17-0.117
				c1.611-1.378,2.027-3.99,2.027-6.045v-0.208v-0.13c0-0.936,0.131-1.963,0.611-2.782c0.299-0.429,0.688-0.819,1.105-1.157
				c0.234-0.196,0.467-0.377,0.715-0.52c0.701-0.468,0.961-1.352,0.559-2.106v-0.039l-0.039-0.091
				c-0.039-0.052,0.012,0.026-0.039-0.065l-0.025-0.052l-0.039-0.104c-0.066-0.208-0.131-0.468-0.131-0.702v-0.104
				c0.014-0.818,0.195-1.638,0.508-2.405c0.039-0.117,0.104-0.234,0.182-0.352c0.064-0.169,0.117-0.298,0.221-0.441
				c0.195,1.703,0.65,3.418,1.08,5.069c1.08,4.187,2.092,8.412,0.949,12.702h-3.939h-4.406
				C591.963,274.606,592.121,274.489,592.275,274.359z M525.333,196.864v-6.578h11.622v-12.039h6.283v12.039h11.635v6.578h-11.635
				v19.631c-1.053-0.104-2.08-0.156-3.119-0.169h-0.027c-1.044,0-2.097,0.064-3.137,0.169v-19.631H525.333z M529.182,223.619
				c3.316-1.833,7.436-2.6,10.911-2.6h0.027c3.405,0,7.461,0.741,10.698,2.496c1.183,0.624,2.235,1.378,3.173,2.3
				c-1.065-0.286-2.105-0.533-3.173-0.754c-3.522-0.701-7.11-1.104-10.698-1.104h-0.118c-3.643,0-7.284,0.377-10.82,1.104
				c-0.974,0.208-1.975,0.429-2.937,0.677C527.088,224.893,528.104,224.203,529.182,223.619z M505.144,242.704
				c4.681-4.329,10.063-7.878,15.938-10.31c2.601-1.065,5.306-1.95,8.099-2.547c3.459-0.793,7.085-1.197,10.82-1.197h0.118
				c3.703,0,7.254,0.417,10.698,1.197c2.769,0.597,5.474,1.482,8.087,2.547c5.863,2.432,11.271,5.981,15.939,10.31
				c1.338,1.235,2.598,2.535,3.834,3.9c5.174,5.811,9.32,12.714,12.09,20.214c-0.014,0.339-0.014,0.677-0.014,1.041v0.52
				c0,0.961-0.143,2.639-0.793,3.302c-0.857-0.768-1-2.756-0.975-3.822l0,0c0-2.093-0.781-4.056-2.172-5.629
				c-0.219-0.26-0.467-0.52-0.699-0.729c0.023-0.247,0.076-0.494,0.104-0.702h0.012v-0.559c0-2.405-1.65-3.939-3.328-5.395
				c-0.43-0.365-1.742-1.457-1.779-2.016c-0.014-0.962-0.885-1.638-1.783-1.664c-0.234-0.014-0.441,0.026-0.662,0.104
				c-0.689,0.208-1.248,0.793-1.287,1.56c-0.014,0.559-1.326,1.651-1.754,2.016c-0.287,0.247-0.535,0.493-0.793,0.727
				c-1.34,1.248-2.535,2.653-2.535,4.667c0,0.416,0.025,0.845,0.154,1.261c-0.559,0.468-1.039,1.027-1.441,1.651
				c-0.131,0.196-0.262,0.391-0.365,0.585c-0.703,1.249-1.08,2.639-1.08,4.043v0.325c0.016,1.352-0.414,2.77-1.715,3.38v0.014
				c-0.402,0.169-0.818,0.272-1.209,0.272c-0.404,0-0.818-0.09-1.195-0.259c-1.25-0.585-1.717-1.924-1.743-3.225
				c0.026-0.143,0.026-0.298,0.026-0.455c0-2.067-0.793-4.03-2.145-5.603c-0.234-0.26-0.469-0.52-0.729-0.729
				c0.09-0.416,0.13-0.832,0.13-1.248v-0.013c0-1.807-0.923-3.107-2.093-4.264c-0.417-0.377-0.818-0.753-1.248-1.13
				c-0.416-0.365-1.768-1.457-1.768-2.016c-0.039-0.962-0.873-1.638-1.807-1.664c-0.963-0.014-1.898,0.663-1.898,1.664
				c-0.04,0.429-0.807,1.196-1.366,1.678l-0.402,0.338c-1.69,1.456-3.368,2.989-3.368,5.395c0,0.416,0.04,0.845,0.156,1.261
				c-0.545,0.468-1.039,1.027-1.416,1.651c-0.143,0.196-0.285,0.391-0.377,0.585c-0.703,1.249-1.08,2.613-1.08,4.03l-0.051,0.351
				l0.051,0.052c-0.051,1.483-0.883,2.6-2.275,3.147c-0.636,0.208-1.26,0.325-1.911,0.338l-0.025-0.013
				c-0.65,0.013-1.305-0.091-1.914-0.325c-1.587-0.547-2.549-1.781-2.549-3.471c0-2.081-0.779-4.043-2.145-5.616
				c-0.222-0.26-0.481-0.52-0.728-0.729c0.052-0.247,0.091-0.494,0.128-0.702h0.027v-0.559c0-2.405-1.689-3.939-3.368-5.395
				l-0.39-0.338c-0.559-0.482-1.339-1.235-1.364-1.665c-0.039-0.976-0.872-1.651-1.794-1.677c-0.962-0.014-1.886,0.663-1.938,1.664
				c0,0.559-1.339,1.651-1.768,2.016c-0.39,0.377-0.831,0.753-1.235,1.13c-1.131,1.157-2.093,2.457-2.093,4.264
				c0,0.416,0.052,0.845,0.17,1.261c-0.56,0.481-1.055,1.027-1.47,1.651c-0.118,0.196-0.234,0.391-0.377,0.585
				c-0.703,1.261-1.041,2.651-1.041,4.121v0.234l0.013,0.195c-0.013,1.287-0.494,2.653-1.768,3.237
				c-0.363,0.156-0.767,0.247-1.169,0.247c-0.404,0-0.806-0.104-1.144-0.259c-1.339-0.624-1.808-2.067-1.782-3.419v-0.039v-0.013
				v-0.143v-0.039c0-2.093-0.794-4.056-2.17-5.629c-0.222-0.26-0.456-0.52-0.715-0.729c0.064-0.247,0.089-0.494,0.116-0.702h0.04
				v-0.559c0-2.015-1.171-3.419-2.549-4.667c-0.259-0.234-0.545-0.48-0.792-0.727c-0.429-0.365-1.743-1.457-1.77-2.002
				c-0.038-0.976-0.883-1.651-1.82-1.677c-0.961-0.014-1.884,0.663-1.911,1.664c-0.013,0.559-1.352,1.651-1.78,2.016
				c-1.639,1.456-3.329,2.989-3.329,5.395c0,0.416,0.052,0.845,0.13,1.261c-0.52,0.468-1.001,1.027-1.417,1.651
				c-0.131,0.196-0.261,0.391-0.365,0.585c-0.703,1.261-1.105,2.651-1.105,4.108v0.143c0,1.04-0.13,2.924-0.949,3.679
				c-0.688-0.715-0.806-2.562-0.806-3.445v-0.169v-0.052c0-0.052,0-0.104,0-0.143c0-0.364,0-0.702-0.025-1.041
				C492.639,257.575,498.137,249.242,505.144,242.704z M573.309,267.989v-0.286c0.014-0.832,0.232-1.651,0.648-2.393
				c0.08-0.129,0.156-0.247,0.234-0.364c0.184-0.299,0.418-0.56,0.652-0.806c0.258-0.286,0.559-0.546,0.883-0.741
				c0.701-0.481,0.975-1.404,0.57-2.185l-0.051-0.065c0-0.013-0.025-0.039-0.025-0.052l-0.039-0.064l-0.027-0.091
				c-0.09-0.208-0.143-0.456-0.143-0.702c0-1.079,1.484-2.249,2.184-2.886l0.482-0.416c0.193-0.182,0.416-0.377,0.57-0.56
				c0.379,0.326,0.717,0.65,1.107,0.975c0.701,0.637,2.17,1.807,2.17,2.886v0.013c0,0.169-0.025,0.325-0.076,0.494l-0.016,0.116l0,0
				c-0.064,0.13-0.104,0.273-0.18,0.377c-0.457,0.806-0.131,1.729,0.623,2.21c0.168,0.13,0.352,0.248,0.521,0.391
				c0.193,0.182,0.35,0.351,0.531,0.533c0.807,0.975,1.313,2.171,1.313,3.471c-0.012,2.197,0.508,5.005,2.314,6.461
				c0.184,0.143,0.402,0.272,0.584,0.403h-18.926c0.064-0.039,0.18-0.091,0.271-0.13l0.09-0.039c2.535-1.235,3.746-3.744,3.746-6.5
				L573.309,267.989z M551.104,261.372v-0.157l-0.116-0.078v-0.026l-0.052-0.065v-0.052l-0.027-0.052
				c-0.039-0.091-0.078-0.248-0.091-0.391c-0.013-0.09-0.038-0.195-0.038-0.312c0-0.091,0.025-0.183,0.038-0.273
				c0.209-0.988,1.456-2.028,2.159-2.613c0.35-0.325,0.701-0.649,1.065-0.975c0.325,0.326,0.702,0.65,1.053,0.975
				c0.741,0.637,2.185,1.807,2.185,2.886v0.143c0,0.104-0.039,0.234-0.064,0.365l-0.054,0.116v0.014
				c-0.024,0.117-0.089,0.26-0.144,0.364c-0.441,0.806-0.143,1.729,0.626,2.21c0.183,0.13,0.351,0.248,0.506,0.403
				c0.194,0.169,0.364,0.338,0.534,0.52c0.053,0.078,0.144,0.169,0.221,0.247c0.702,0.923,1.079,2.042,1.079,3.225
				c0,0.091,0,0.169,0,0.272c-0.026,0.104,0,0.117,0,0.221c0,2.705,1.287,5.096,3.849,6.267c0.064,0.039,0.155,0.078,0.232,0.104
				H542.77c0.234-0.065,0.469-0.155,0.69-0.234c2.925-1.131,4.692-3.51,4.601-6.643v-0.014c0-0.883,0.223-1.754,0.664-2.509
				c0.051-0.129,0.117-0.234,0.221-0.364c0.402-0.611,0.949-1.144,1.549-1.547c0.115-0.091,0.232-0.183,0.323-0.272
				C551.261,262.646,551.389,261.97,551.104,261.372z M519.978,267.833c0-0.896,0.222-1.742,0.676-2.522
				c0.079-0.129,0.143-0.247,0.207-0.364c0.105-0.117,0.17-0.234,0.222-0.325c0.404-0.481,0.846-0.884,1.327-1.222
				c0.727-0.494,0.988-1.43,0.572-2.185l-0.039-0.025c-0.025-0.026-0.04-0.052-0.052-0.104l-0.027-0.039c0-0.04,0-0.052-0.025-0.104
				c-0.091-0.208-0.118-0.456-0.118-0.702c0-1.079,1.444-2.249,2.184-2.886c0.325-0.325,0.715-0.649,1.041-0.975
				c0.364,0.326,0.729,0.65,1.065,0.975c0.702,0.585,1.938,1.612,2.171,2.613c0.027,0.09,0.027,0.182,0.027,0.273v0.065v0.014
				c0,0.09-0.027,0.168-0.027,0.286v0.039l-0.091,0.221v0.065c-0.039,0.078-0.091,0.208-0.143,0.299
				c-0.351,0.663-0.234,1.391,0.234,1.898c0.091,0.104,0.234,0.221,0.365,0.311c0.195,0.104,0.377,0.261,0.52,0.404
				c0.195,0.182,0.39,0.351,0.52,0.533c0.844,0.975,1.339,2.171,1.339,3.484c0.025,3.211,1.936,5.604,4.927,6.669
				c0.182,0.052,0.364,0.117,0.559,0.182h-21.489c0.064-0.026,0.143-0.065,0.234-0.104c2.574-1.171,3.846-3.627,3.846-6.383v-0.065
				v-0.182L519.978,267.833z M497.708,261.215c-0.064-0.129,0.027,0.014-0.064-0.117v-0.04c0-0.052-0.04-0.064-0.052-0.078
				c-0.091-0.247-0.118-0.494-0.118-0.741c0-1.079,1.444-2.249,2.197-2.886c0.353-0.325,0.703-0.649,1.028-0.975
				c0.365,0.326,0.728,0.65,1.08,0.975c0.728,0.637,2.197,1.807,2.197,2.886v0.104l0,0c0,0.13-0.052,0.261-0.079,0.391l-0.052,0.195
				c-0.025,0.078-0.104,0.208-0.13,0.299c-0.466,0.793-0.156,1.729,0.599,2.184c0.183,0.13,0.351,0.286,0.545,0.429
				c0.066,0.104,0.209,0.208,0.286,0.286c0.078,0.078,0.13,0.168,0.234,0.247c0.833,0.961,1.301,2.157,1.314,3.458l-0.013,0.129
				v0.13c-0.014,2.756,1.221,5.291,3.834,6.487c0.091,0.04,0.195,0.091,0.286,0.13h-18.942c0.17-0.13,0.377-0.26,0.586-0.403
				c1.753-1.443,2.3-4.147,2.3-6.318l0.013-0.377c0-0.806,0.234-1.599,0.624-2.301c0.105-0.129,0.156-0.247,0.261-0.364
				c0.39-0.611,0.922-1.144,1.561-1.547C497.903,262.906,498.164,261.97,497.708,261.215z M480.782,262.008
				c0.442-1.651,0.922-3.367,1.117-5.083c0.584,1.001,0.897,2.158,0.897,3.315v0.117c-0.027,0.117-0.027,0.248-0.052,0.377
				l-0.064,0.129v0.079c-0.054,0.091-0.091,0.195-0.143,0.299c-0.429,0.806-0.143,1.729,0.597,2.21
				c0.222,0.13,0.441,0.286,0.65,0.468c0.429,0.325,0.832,0.702,1.105,1.157c0.493,0.819,0.636,1.82,0.636,2.782
				c0,0.079,0.014,0,0.014,0.052l-0.014,0.248v0.012c-0.04,2.093,0.429,4.811,2.172,6.188c0.169,0.13,0.337,0.248,0.506,0.351
				h-8.319C478.727,270.42,479.715,266.195,480.782,262.008z M480.951,277.726h118.098c0.949,1.664,1.834,3.368,2.588,5.123
				c-1.027,1.469-1.65,3.21-1.65,5.032v0.545h0.039c0,0.195,0.023,0.365,0.104,0.545c-0.742,0.547-1.418,1.131-1.951,1.859
				c-0.637,0.912-0.988,1.913-1.156,2.978c-0.17-0.779-0.43-1.534-0.832-2.209c-0.08-0.143-0.156-0.273-0.26-0.429l-0.066-0.079
				c-0.092-0.155-0.219-0.311-0.35-0.48c-0.43-0.585-0.963-1.119-1.535-1.586c0.078-0.364,0.129-0.781,0.129-1.144
				c0-2.471-2.025-4.004-3.807-5.357c-0.365-0.273-1.898-1.391-1.938-1.846c-0.039-1.13-1.211-1.755-2.248-1.755
				c-0.949,0.027-2.057,0.69-2.082,1.77c-0.051,0.467-1.561,1.559-1.949,1.832c-1.299,0.989-2.744,2.081-3.406,3.55
				c-0.248,0.545-0.402,1.144-0.402,1.807v0.545h0.051c0,0.195,0.039,0.39,0.104,0.599c-0.258,0.208-0.506,0.429-0.766,0.676
				l-0.08,0.077c-1.441,1.457-2.352,3.328-2.377,5.409v0.052c0,0.833-0.078,2.12-0.363,3.173c-0.105,0.377-0.234,0.752-0.391,1.014
				c-0.639-1.053-0.781-2.835-0.818-3.94v-0.767l0,0c-0.105-1.274-0.535-2.456-1.236-3.523c-0.117-0.195-0.26-0.39-0.402-0.584
				c-0.441-0.585-0.975-1.119-1.561-1.586c0.09-0.364,0.143-0.781,0.143-1.144c0-2.471-2.027-4.004-3.809-5.357
				c-0.363-0.273-1.924-1.391-1.924-1.846c-0.078-1.13-1.223-1.755-2.236-1.755c-1.001,0.027-2.094,0.69-2.094,1.77
				c-0.051,0.375-1.053,1.157-1.611,1.598l-0.352,0.234c-1.768,1.354-3.796,2.887-3.796,5.357v0.545h0.026
				c0.038,0.195,0.064,0.39,0.117,0.599c-0.26,0.208-0.533,0.442-0.768,0.676l-0.091,0.077c-1.442,1.481-2.38,3.38-2.38,5.473
				l0.027,0.249c-0.027,0.922-0.092,2.145-0.377,3.158c-0.262-1.013-0.325-2.236-0.325-3.173v-0.767h-0.052
				c-0.027-0.351-0.066-0.676-0.118-0.974c-0.208-0.91-0.571-1.768-1.077-2.549c-0.131-0.195-0.262-0.39-0.393-0.584
				c-0.467-0.585-0.986-1.119-1.585-1.586c0.104-0.364,0.155-0.781,0.155-1.144c0-2.471-2.039-4.004-3.809-5.357
				c-0.376-0.273-1.936-1.391-1.936-1.846c-0.04-1.065-1.08-1.677-2.055-1.755h-0.182c-0.992,0.027-2.07,0.663-2.124,1.755
				c-0.013,0.456-1.546,1.573-1.936,1.846c-1.755,1.354-3.809,2.887-3.809,5.357v0.077l0.025,0.027c0,0.351,0.027,0.701,0.144,1.04
				c-0.286,0.208-0.533,0.442-0.767,0.676c-0.04,0.025-0.052,0.052-0.091,0.077c-1.092,1.106-1.871,2.458-2.197,3.939
				c-0.13,0.508-0.168,1.014-0.168,1.534v0.249c0,0.922-0.079,2.145-0.352,3.158c-0.271-1.013-0.351-2.236-0.351-3.173v-0.767
				h-0.039c-0.091-1.274-0.52-2.456-1.208-3.523c-0.118-0.195-0.261-0.39-0.417-0.584c-0.441-0.585-0.976-1.119-1.561-1.586
				c0.104-0.364,0.143-0.781,0.143-1.144c0-2.471-2.027-4.004-3.809-5.357l-0.338-0.247c-0.56-0.441-1.585-1.235-1.585-1.6
				c-0.039-1.13-1.21-1.755-2.236-1.755c-0.989,0.027-2.054,0.663-2.12,1.755c-0.025,0.456-1.559,1.573-1.923,1.846
				c-1.768,1.354-3.809,2.887-3.809,5.357v0.545h0.039c0,0.195,0.052,0.39,0.116,0.599c-0.259,0.208-0.52,0.442-0.793,0.688
				c-0.025,0.013-0.038,0.039-0.052,0.064c-1.482,1.481-2.379,3.38-2.379,5.473l0.015,0.249c-0.015,1.078-0.183,2.912-0.781,3.95
				c-0.195-0.286-0.323-0.649-0.429-1.039c-0.272-0.976-0.351-2.145-0.39-2.926v-0.767l0,0c-0.116-1.274-0.521-2.456-1.221-3.523
				c-0.143-0.195-0.286-0.39-0.417-0.584c-0.443-0.585-0.976-1.119-1.548-1.586c0.091-0.364,0.143-0.781,0.143-1.144
				c0-2.471-2.042-4.004-3.809-5.357c-0.377-0.273-1.911-1.391-1.938-1.846c-0.064-1.13-1.208-1.755-2.234-1.755
				c-0.989,0.027-2.056,0.663-2.107,1.755c-0.025,0.456-1.559,1.573-1.936,1.846c-1.77,1.354-3.809,2.887-3.809,5.357v0.077v0.027
				c0.013,0.351,0.077,0.701,0.129,1.053c-0.259,0.195-0.521,0.417-0.74,0.663c-0.039,0.025-0.066,0.052-0.104,0.077
				c-0.535,0.56-0.976,1.171-1.378,1.821c-0.377,0.676-0.65,1.43-0.806,2.184c-0.17-1.08-0.532-2.041-1.183-2.953
				c-0.52-0.728-1.21-1.339-1.911-1.859c0.091-0.363,0.116-0.728,0.116-1.09v-0.56l0,0c-0.064-0.611-0.156-1.223-0.351-1.807
				c-0.143-0.481-0.325-0.962-0.56-1.43c-0.195-0.443-0.454-0.845-0.715-1.248C479.131,281.093,480.001,279.39,480.951,277.726z
				 M473.566,289.648c0.468-1.548,0.988-3.121,1.196-4.733c0.118,0.17,0.222,0.353,0.313,0.547c0.156,0.286,0.299,0.597,0.351,0.91
				c0.143,0.429,0.195,0.846,0.234,1.26v0.249c0,0.195-0.04,0.39-0.091,0.572l-0.04,0.038l-0.052,0.118l-0.091,0.143
				c-0.545,0.832-0.156,1.833,0.65,2.315c0.728,0.429,1.521,0.935,2.002,1.61c0.545,0.754,0.688,1.691,0.688,2.574v0.56h0.014
				c0.039,1.989,0.35,4.81,1.546,6.306c0.664,0.858,1.573,1.312,2.653,1.312c0.298,0,0.584-0.013,0.845-0.091
				c0.728-0.182,1.339-0.611,1.82-1.221c1.196-1.496,1.494-4.317,1.534-6.306l0,0v-0.56c0-1.208,0.547-2.313,1.391-3.171
				c0.027-0.013,0.027-0.04,0.079-0.066c0.155-0.155,0.325-0.325,0.508-0.454l0.052-0.052c0.207-0.143,0.377-0.273,0.611-0.391
				h-0.052c0.896-0.454,1.351-1.468,0.752-2.365c-0.052-0.091-0.116-0.222-0.156-0.352l-0.025-0.064
				c-0.054-0.104-0.066-0.222-0.079-0.326l0.013-0.128c0-0.976,1.691-2.159,2.379-2.705c0.404-0.286,0.806-0.584,1.184-0.91
				c0.377,0.325,0.779,0.624,1.169,0.91c0.677,0.545,2.418,1.729,2.418,2.705c0,0.195-0.064,0.39-0.143,0.572l-0.038,0.156
				l-0.13,0.143c-0.56,0.832-0.156,1.833,0.676,2.315c0.65,0.39,1.247,0.883,1.716,1.495c0.079,0.091,0.155,0.194,0.234,0.337
				c0.429,0.637,0.676,1.378,0.715,2.145v0.456c0.039,2.288,0.559,5.291,2.352,6.889c0.651,0.586,1.496,0.949,2.379,1.041
				c0.13,0,0.273,0,0.429,0c1.041,0,1.989-0.365,2.783-1.041c1.729-1.521,2.249-4.342,2.327-6.578h0.013v-0.56
				c0-1.208,0.52-2.3,1.378-3.171c0-0.013,0.04-0.04,0.079-0.079c0.181-0.183,0.351-0.338,0.558-0.506
				c0.182-0.143,0.377-0.273,0.559-0.392c0.885-0.441,1.327-1.455,0.767-2.353c-0.079-0.091-0.131-0.222-0.195-0.352v-0.064
				c-0.052-0.116-0.064-0.234-0.091-0.351v-0.104c0-0.976,1.716-2.159,2.406-2.705c0.39-0.286,0.779-0.584,1.156-0.91
				c0.402,0.325,0.779,0.624,1.196,0.91c0.69,0.545,2.367,1.729,2.367,2.705c0,0.22-0.04,0.441-0.104,0.636l-0.079,0.143
				l-0.052,0.091c-0.547,0.779-0.234,1.677,0.441,2.197c0.079,0.052,0.131,0.079,0.195,0.118c0.663,0.39,1.235,0.883,1.703,1.495
				c0.091,0.091,0.168,0.194,0.259,0.337c0.417,0.637,0.677,1.378,0.715,2.145v0.456c0.04,2.145,0.443,5.187,1.99,6.772
				c0.729,0.767,1.677,1.157,2.717,1.157c0.17,0,0.352,0,0.52-0.013c0.846-0.118,1.573-0.507,2.197-1.144
				c1.496-1.508,1.911-4.329,1.963-6.461h0.027v-0.56c0-1.208,0.52-2.3,1.366-3.171c0.012,0,0.025-0.027,0.077-0.079
				c0.182-0.183,0.377-0.338,0.586-0.506c0.182-0.143,0.363-0.261,0.545-0.392c0.871-0.441,1.339-1.455,0.754-2.353
				c-0.079-0.091-0.13-0.222-0.182-0.352v-0.052c-0.052-0.116-0.077-0.247-0.077-0.363v-0.104c0-0.976,1.677-2.159,2.377-2.705
				c0.408-0.286,0.797-0.584,1.187-0.91l0.118,0.104c0.338,0.259,0.688,0.545,1.039,0.806c0.689,0.545,2.406,1.729,2.406,2.705
				c0,0.22-0.04,0.415-0.144,0.636l-0.052,0.143l-0.064,0.079c-0.56,0.844-0.183,1.832,0.637,2.327
				c0.676,0.39,1.26,0.883,1.715,1.495c0.092,0.091,0.156,0.194,0.248,0.337c0.455,0.676,0.715,1.443,0.715,2.276v0.064v0.013
				c0,0.079,0,0.13,0.039,0.182c0,2.133,0.364,5.239,1.963,6.839c0.598,0.624,1.365,1.014,2.196,1.144
				c0.17,0.013,0.353,0.013,0.521,0.013c1.066,0,1.988-0.39,2.704-1.157c1.573-1.585,1.976-4.627,1.989-6.772v-0.249
				c0-1.208,0.545-2.313,1.379-3.184l0.064-0.054c0.182-0.168,0.377-0.35,0.598-0.518c0.183-0.143,0.351-0.273,0.559-0.392
				l0.209-0.077l0.012-0.054l0.053-0.025c0.702-0.521,0.961-1.418,0.468-2.172c-0.079-0.116-0.13-0.259-0.194-0.377v-0.064
				c-0.053-0.104-0.064-0.234-0.079-0.326l0.015-0.128c0-0.976,1.689-2.159,2.365-2.705c0.416-0.286,0.818-0.584,1.195-0.91
				c0.352,0.325,0.767,0.624,1.158,0.91c0.701,0.545,2.416,1.729,2.416,2.705c0,0.195-0.064,0.39-0.129,0.584l-0.104,0.195
				l-0.053,0.079c-0.559,0.844-0.182,1.832,0.65,2.327c0.664,0.39,1.275,0.883,1.703,1.495c0.092,0.104,0.184,0.221,0.26,0.337
				c0.416,0.637,0.676,1.366,0.703,2.145v0.767h0.025c0.09,2.105,0.533,4.679,1.988,6.252c0.818,0.885,1.912,1.366,3.16,1.366
				c0.115,0,0.26,0,0.391,0c0.883-0.091,1.703-0.454,2.391-1.041c0.623-0.545,1.092-1.287,1.443-2.079
				c0.662-1.575,0.857-3.434,0.857-4.98v-0.039c0-1.248,0.559-2.353,1.404-3.223l0.078-0.054c0.156-0.155,0.324-0.325,0.482-0.454
				l0.064-0.052c0.207-0.143,0.389-0.286,0.598-0.404l0.234-0.104v-0.027c0.701-0.533,1.002-1.416,0.506-2.197
				c-0.051-0.116-0.131-0.259-0.195-0.39l0,0v-0.013c-0.039-0.143-0.064-0.261-0.078-0.365v-0.128c0-0.976,1.717-2.159,2.418-2.705
				c0.391-0.286,0.756-0.584,1.145-0.91c0.377,0.325,0.781,0.624,1.17,0.91c0.701,0.545,2.393,1.729,2.393,2.705
				c0,0.195-0.012,0.39-0.117,0.584l-0.078,0.195l0,0l-0.051,0.079c-0.586,0.844-0.17,1.832,0.65,2.327
				c0.648,0.39,1.248,0.883,1.689,1.495c0.078,0.091,0.17,0.182,0.234,0.286v0.025c0.441,0.664,0.701,1.393,0.754,2.172v0.767l0,0
				c0.039,1.989,0.363,4.81,1.559,6.306c0.482,0.609,1.092,1.039,1.795,1.221c0.273,0.079,0.572,0.091,0.857,0.091
				c1.092,0,2.002-0.454,2.641-1.312c1.195-1.496,1.506-4.317,1.545-6.306h0.039v-0.56c0-0.883,0.117-1.82,0.676-2.574
				c0.469-0.675,1.264-1.181,1.979-1.61c0.83-0.456,1.232-1.444,0.676-2.29c-0.08-0.116-0.145-0.259-0.209-0.39l0,0v-0.013
				c-0.025-0.143-0.064-0.273-0.064-0.39v-0.104c0-1.067,0.324-2.107,0.885-2.978c0.232,1.612,0.754,3.198,1.207,4.746
				c1.533,5.136,2.781,10.074-0.168,15.002c-0.027,0.025-0.066,0.077-0.078,0.128H473.8c0-0.052-0.025-0.104-0.052-0.128
				C470.797,299.722,472.033,294.784,473.566,289.648z M469.264,308.888l0.168-0.364h51.65h37.822h51.65l0.156,0.364
				c0.74,1.664,1.365,3.366,1.938,5.096c-0.391,0.663-0.756,1.366-1.053,2.093c-0.105,0.286-0.223,0.545-0.326,0.858
				c-0.559,1.585-0.885,3.289-0.949,4.978h-0.012v0.572c0,0.663,0.076,1.326,0.234,1.977c-0.988,0.897-1.77,1.872-2.381,3.042
				c-1.105,2.042-1.443,4.342-1.443,6.642v0.56h0.014v0.027c0,1.467-0.143,4.524-1.195,5.616c-1.287-1.198-1.484-4.511-1.484-6.176
				l0,0c0-3.03-0.922-5.993-2.717-8.412c-0.35-0.429-0.688-0.846-1.076-1.248l0.023-0.052c0.092-0.468,0.156-0.937,0.184-1.391l0,0
				v-0.586c0-3.457-2.016-5.681-4.277-7.994l0,0c-0.703-0.729-2.367-2.328-2.404-3.355c-0.039-1.196-0.988-2.224-2.197-2.249
				c-1.287-0.039-2.303,0.989-2.354,2.249c-0.014,1.027-1.689,2.625-2.42,3.355c-2.234,2.313-4.262,4.537-4.262,7.994
				c0,0.677,0.064,1.378,0.219,2.028c-0.779,0.78-1.416,1.689-1.986,2.639c-0.145,0.286-0.301,0.586-0.43,0.885
				c-0.873,1.729-1.326,3.627-1.354,5.564h-0.051v1.104h0.051c-0.039,0.767-0.104,1.573-0.324,2.354
				c-0.352,1.221-0.988,2.34-2.107,2.964l-0.023,0.025c-0.482,0.261-1.053,0.417-1.6,0.417h-0.104
				c-0.508-0.012-1.016-0.156-1.457-0.402c-1.885-0.976-2.457-3.329-2.457-5.266c0.025-0.222,0.025-0.417,0.025-0.651v-0.545h-0.025
				c-0.092-2.821-1.016-5.564-2.717-7.84c-0.324-0.429-0.689-0.846-1.08-1.248l0.039-0.052c0.092-0.468,0.156-0.937,0.195-1.391
				h0.025v-0.586c0-3.457-2.055-5.681-4.303-7.994c-0.702-0.729-2.379-2.328-2.431-3.355c-0.026-1.053-0.741-1.99-1.755-2.197
				c-0.168-0.026-0.299-0.052-0.417-0.052c-1.272-0.039-2.313,1.001-2.364,2.249c-0.015,1.027-1.691,2.625-2.395,3.355
				c-1.09,1.129-2.131,2.209-2.911,3.432c-0.831,1.299-1.403,2.769-1.403,4.562c0,0.677,0.104,1.378,0.26,2.028
				c-0.768,0.78-1.443,1.689-1.99,2.639c-0.168,0.286-0.338,0.586-0.441,0.885c-0.846,1.729-1.313,3.627-1.363,5.564h-0.027v1.104
				c-0.064,2.185-1.053,4.095-3.133,5.032c-0.807,0.351-1.664,0.52-2.535,0.533l-0.064-0.013c-0.845,0.013-1.734-0.143-2.513-0.48
				c-2.352-0.976-3.457-3.148-3.457-5.631c0-3.015-0.951-5.966-2.744-8.385c-0.325-0.429-0.69-0.846-1.08-1.248v-0.078
				c0.13-0.454,0.183-0.91,0.209-1.364h0.025v-0.586c0-1.793-0.533-3.262-1.378-4.562c-0.779-1.223-1.807-2.303-2.937-3.432
				c-0.689-0.729-2.341-2.302-2.393-3.343c-0.025-1.208-0.961-2.236-2.197-2.261c-0.168,0-0.351,0-0.572,0.052
				c-0.988,0.234-1.741,1.145-1.768,2.197c-0.027,1.027-1.729,2.625-2.406,3.355c-2.288,2.313-4.302,4.537-4.302,7.994
				c0,0.677,0.079,1.378,0.247,2.028c-0.779,0.78-1.442,1.689-1.987,2.639c-0.157,0.286-0.286,0.586-0.443,0.885
				c-0.831,1.729-1.3,3.627-1.378,5.564l0,0v1.104l0,0v0.064c0,1.95-0.572,4.317-2.431,5.293c-0.442,0.259-0.949,0.39-1.469,0.402
				h-0.091c-0.558,0-1.105-0.143-1.573-0.417c-1.95-1.026-2.471-3.511-2.471-5.538v-0.365c0-3.015-0.935-5.966-2.742-8.385
				c-0.338-0.429-0.676-0.846-1.065-1.248l0.038-0.078c0.091-0.454,0.17-0.91,0.209-1.364h0.013v-0.586
				c0-3.457-2.029-5.681-4.303-7.994c-0.702-0.729-2.366-2.302-2.418-3.343c-0.012-1.208-0.961-2.236-2.211-2.261
				c-1.273-0.039-2.288,1.001-2.313,2.249c-0.039,1.027-1.743,2.625-2.431,3.355l0,0c-2.249,2.313-4.277,4.537-4.277,7.994
				c0,0.677,0.077,1.378,0.234,2.028c-0.767,0.78-1.43,1.689-1.99,2.639c-0.155,0.286-0.325,0.586-0.468,0.885
				c-0.819,1.729-1.274,3.627-1.351,5.564h-0.013v1.104c-0.027,1.689-0.3,4.551-1.457,5.643c-1.065-1.106-1.223-4.201-1.223-5.643
				V334.5v-0.158c0.027-0.038,0.027-0.104,0.027-0.195c0-2.3-0.326-4.601-1.418-6.642c-0.636-1.171-1.442-2.145-2.392-3.042v-0.026
				c0.116-0.454,0.168-0.91,0.208-1.364h0.013v-0.586c0-2.937-0.819-6.006-2.34-8.501
				C467.898,312.254,468.549,310.552,469.264,308.888z M467.262,356.496c-8.777-9.634-7.697-19.488-5.096-31.382
				c0.624-2.731,1.287-5.54,1.482-8.36c1.001,1.743,1.481,3.796,1.481,5.732v0.209c-0.013,0.234-0.027,0.441-0.091,0.649
				l-0.052,0.222v0.091c-0.066,0.169-0.155,0.35-0.222,0.545c-0.481,1.028-0.195,2.288,0.742,2.938
				c0.897,0.742,1.795,1.534,2.34,2.601c0.703,1.327,0.858,2.937,0.858,4.406c0,0.066,0,0.104,0,0.157v0.299v0.039
				c-0.013,2.951,0.493,7.138,2.769,9.243c0.858,0.779,1.911,1.248,3.082,1.235c1.157-0.013,2.17-0.547,2.964-1.314
				c2.327-2.197,2.938-6.383,2.951-9.425v-0.441c0.012-1.314,0.325-2.639,0.897-3.849c0.116-0.195,0.208-0.39,0.299-0.56
				c0.56-0.961,1.248-1.793,2.105-2.47l0.014-0.012c0.844-0.688,1.105-1.884,0.611-2.873v0.025c-0.091-0.22,0,0-0.066-0.22
				l-0.04-0.104c-0.012-0.014-0.012-0.066-0.038-0.105v-0.025c-0.143-0.417-0.182-0.833-0.182-1.262
				c0-1.755,1.768-3.509,2.924-4.692c0.493-0.495,1.015-1.014,1.509-1.561c0.441,0.547,0.949,1.065,1.455,1.561
				c1.144,1.184,2.938,2.937,2.938,4.692v0.222c0,0.222-0.025,0.429-0.091,0.636l-0.064,0.222v0.091
				c-0.052,0.169-0.13,0.35-0.234,0.545c-0.481,1.028-0.17,2.263,0.74,2.938h0.027c0.247,0.195,0.468,0.417,0.703,0.651
				c0.259,0.259,0.493,0.533,0.701,0.831c1.197,1.585,1.821,3.523,1.821,5.5v0.22v0.158c-0.052,3.834,1.312,7.786,4.875,9.697
				c1.131,0.625,2.367,0.924,3.641,0.924h0.129c1.223,0,2.458-0.299,3.523-0.897c3.538-1.847,4.94-5.732,4.916-9.504v-0.077
				l-0.014-0.261v-0.39c0.039-1.352,0.337-2.665,0.91-3.9c0.105-0.195,0.222-0.39,0.313-0.56c0.533-0.961,1.248-1.793,2.081-2.47
				c0.87-0.688,1.129-1.884,0.661-2.885v0.025c-0.104-0.22-0.025-0.025-0.077-0.22l-0.052-0.104
				c-0.039-0.091-0.039-0.039-0.039-0.052v-0.014l-0.013-0.064c-0.118-0.417-0.182-0.833-0.182-1.262
				c0-1.755,1.793-3.509,2.924-4.692c0.338-0.313,0.678-0.676,0.988-1.014l0.494-0.547c0.482,0.547,0.988,1.065,1.496,1.561
				c1.144,1.184,2.951,2.937,2.951,4.692v0.222c-0.027,0.222-0.066,0.429-0.118,0.636l-0.04,0.222v0.091
				c-0.077,0.169-0.155,0.35-0.232,0.545c-0.468,1.028-0.183,2.263,0.74,2.938h0.015c0.247,0.195,0.441,0.417,0.7,0.651
				c0.234,0.259,0.495,0.533,0.69,0.831c0.636,0.82,1.104,1.743,1.403,2.717c0.286,0.91,0.39,1.859,0.39,2.808
				c0.04,4.42,2.16,8.229,6.346,9.973c1.299,0.545,2.781,0.831,4.202,0.831h0.116c1.47-0.025,2.951-0.338,4.303-0.949
				c3.927-1.755,5.877-5.382,5.877-9.62v-0.454c0-0.872,0.144-1.755,0.402-2.574c0.118-0.429,0.286-0.845,0.468-1.262
				c0.104-0.195,0.223-0.39,0.313-0.56c0.546-0.961,1.262-1.793,2.08-2.47c0.871-0.661,1.144-1.884,0.662-2.86v-0.025
				c-0.09-0.195,0,0.025-0.076-0.195l-0.053-0.118v-0.038v-0.014l-0.039-0.064c-0.13-0.417-0.194-0.833-0.194-1.262
				c0-1.755,1.793-3.509,2.937-4.692c0.508-0.495,1.002-1.014,1.496-1.561c0.143,0.195,0.312,0.338,0.494,0.521
				c0.299,0.364,0.623,0.728,0.976,1.04c1.156,1.184,2.937,2.937,2.937,4.692v0.222c0,0.222-0.052,0.441-0.091,0.663l-0.038,0.195
				l-0.014,0.064c-0.053,0.183-0.143,0.365-0.234,0.572c-0.467,1.028-0.168,2.263,0.754,2.938c0.247,0.195,0.496,0.417,0.703,0.651
				c0.259,0.259,0.494,0.533,0.727,0.831c1.133,1.536,1.729,3.395,1.795,5.305v0.22c0,0.157,0,0.3,0,0.429
				c-0.012,0.091-0.012,0.157,0,0.222c0,3.77,1.379,7.605,4.889,9.425c1.092,0.599,2.301,0.897,3.537,0.897l0.129,0.012
				c1.273-0.012,2.523-0.311,3.652-0.937l0.053-0.04l0.09-0.037c3.432-1.938,4.758-5.838,4.746-9.62v-0.118l-0.027-0.454
				c0.039-1.339,0.365-2.64,0.938-3.836c0.092-0.195,0.182-0.39,0.299-0.56c0.52-0.961,1.234-1.793,2.08-2.47
				c0.846-0.661,1.131-1.884,0.664-2.86v-0.025c-0.053-0.079-0.08-0.13-0.08-0.195l-0.076-0.118v-0.038v-0.014l-0.039-0.064
				c-0.119-0.417-0.195-0.833-0.195-1.262c0-1.755,1.82-3.509,2.963-4.692c0.494-0.495,1.014-1.014,1.471-1.561
				c0.48,0.547,0.961,1.065,1.469,1.561c1.17,1.184,2.951,2.937,2.951,4.692v0.222c0,0.234-0.039,0.441-0.092,0.663l-0.025,0.195
				l-0.041,0.052c-0.023,0.195-0.127,0.377-0.207,0.584c-0.455,0.988-0.221,2.172,0.625,2.848l0.104,0.091
				c0.273,0.195,0.494,0.417,0.729,0.651c0.26,0.259,0.48,0.533,0.701,0.831c1.184,1.585,1.807,3.523,1.807,5.525
				c-0.025,3.121,0.561,7.411,2.926,9.66c0.818,0.767,1.832,1.274,2.99,1.314c1.182,0.012,2.223-0.456,3.068-1.235
				c0.039-0.039,0.104-0.104,0.17-0.13c2.117-2.158,2.598-6.162,2.598-9.087v-0.286v-0.234c0-1.469,0.17-3.08,0.846-4.406
				c0.572-1.079,1.482-1.925,2.459-2.679c0.844-0.661,1.104-1.896,0.637-2.885l0,0c-0.105-0.195,0,0.025-0.092-0.195l-0.053-0.118
				v-0.038v-0.014l-0.025-0.091c-0.145-0.39-0.195-0.806-0.195-1.235l-0.014-0.247c0.014-1.248,0.273-2.522,0.689-3.718
				c0.078-0.195,0.156-0.39,0.234-0.597c0.156-0.392,0.352-0.781,0.547-1.145c0.234,2.807,0.883,5.629,1.469,8.333
				c2.65,11.894,3.719,21.748-5.057,31.382H467.262z M431.654,393.884l-5.708,6.487l-5.838-5.512l-1.469-1.416v0.038
				c-1.859-1.559-4.224-2.379-6.63-2.249c-0.48,0.013-0.974,0.091-1.467,0.17c-2.016,0.416-3.811,1.481-5.188,3.015l-0.157,0.143
				c-0.767,0.897-1.351,1.911-1.78,2.99c-0.508,1.339-0.754,2.782-0.69,4.211c0.054,1.144,0.286,2.263,0.69,3.303
				c0.493,1.3,1.248,2.483,2.261,3.497l0,0l7.085,6.748l-9.347,10.634l-13.404,15.236l-12.167-11.519l-20.372-19.292l20.372-23.128
				l2.392-2.742l8.087,7.643l0.402,0.441l0.052-0.064c1.821,1.533,4.2,2.366,6.592,2.263c2.587-0.13,4.993-1.301,6.721-3.225
				l0.222-0.234c0.415-0.52,0.792-1.092,1.104-1.676c0.883-1.639,1.339-3.484,1.248-5.357v-0.077V384.2
				c-0.064-1.6-0.48-3.133-1.248-4.499c-0.456-0.831-1.041-1.625-1.743-2.314l-0.156-0.183l-8.099-7.656l7.424-8.424l0.116-0.157
				c1.651-1.962,2.509-4.537,2.393-7.096c-0.118-2.613-1.198-5.098-3.057-6.93l-0.259-0.234c-1.859-1.652-4.265-2.549-6.721-2.483
				c-0.039,0-0.079,0-0.157,0c-2.417,0.104-4.667,1.156-6.369,2.86h-0.014l-7.774,8.814l-1.157-1.092l-7.332-6.955l-0.014,0.039
				c-1.859-1.573-4.236-2.406-6.655-2.263c-0.456,0.014-0.963,0.079-1.444,0.157c-1.975,0.415-3.743,1.442-5.082,2.912l-0.325,0.377
				c-1.691,1.962-2.535,4.536-2.406,7.085l0.027,0.624h0.012c0.234,2.326,1.235,4.51,2.887,6.162v0.027l8.32,7.865l-22.765,25.87
				l-8.385-7.943l-11.804-11.154l-13.143-12.468l13.143-14.924l9.622-10.946l2.182,2.066l4.719,4.447l0.039,0.052
				c1.886,1.741,4.433,2.705,6.969,2.574c2.535-0.118,4.835-1.223,6.591-3.069l0.039,0.014l0.273-0.339
				c1.65-1.936,2.508-4.537,2.404-7.097v-0.053c-0.116-2.547-1.131-4.991-2.938-6.786v-0.012l-7.123-6.735l19.955-22.672
				l12.233,11.596l25.572,24.22l16.691,15.808l11.545,10.947l14.235,13.481L431.654,393.884z M361.478,291.312l-0.079-0.091
				c-0.286-0.286-0.441-0.703-0.454-1.119c-0.013-0.429,0.091-0.846,0.377-1.184l5.148-5.863l0.143-0.143
				c0.273-0.247,0.624-0.39,1.014-0.416c0.39,0,0.793,0.118,1.08,0.364l161.257,152.781h-16.121L361.478,291.312z M507.133,435.642
				h-1.989h-1.99c0.417-0.871,0.821-1.729,1.237-2.586l0.753,0.728L507.133,435.642z M406.797,604.148l-0.013,0.012l-0.131,0.145
				c-0.495,0.402-1.067,0.637-1.664,0.74c-0.286,0.053-0.56,0.064-0.818,0.064c-0.261,0.027-0.495,0-0.754,0
				c-1.768-0.129-3.614-0.83-5.148-1.598l-0.729-0.377l-0.779,0.182c-3.264,0.754-6.213,2.184-8.801,4.367
				c-2.613,2.225-4.588,5.031-6.097,8.074l-1.378,2.809l3.029,0.545l0.091,0.014c1.065,0.182,2.158,0.416,3.237,0.676
				c1.104,0.326,2.184,0.637,3.237,1.053c5.057,1.859,9.581,4.822,13.338,8.619c0.468,0.455,0.883,0.949,1.339,1.43l0.195,0.248
				c6.514,7.436,9.842,17.303,9.386,27.131v0.104c-0.064,1.549-0.234,3.096-0.506,4.629c-1.249,7.813-4.849,15.002-10.414,20.645
				c-0.261,0.287-0.586,0.545-0.833,0.832l-0.271,0.248c-4.719,4.418-10.493,7.5-16.81,8.918c-1.99,0.441-4.018,0.703-6.06,0.779
				c-0.518,0.027-1.065,0.051-1.598,0.051c-10.271-0.023-20.164-4.615-26.962-12.35l-0.157-0.17l-0.168-0.18l-2.86-3.367
				l-1.223,3.484l-0.079,0.221c-0.259,0.754-0.584,1.469-0.883,2.209c-0.338,0.715-0.676,1.443-1.053,2.145
				c-1.911,3.693-4.435,7.047-7.423,9.906l-0.247,0.234c-0.69,0.625-1.353,1.223-2.107,1.82c-3.496,2.795-7.539,4.941-11.804,6.279
				c-3.913,1.234-8.06,1.807-12.207,1.611c-9.595-0.467-18.474-4.77-24.936-11.867h0.027l-0.545-0.572
				c-6.462-7.424-9.803-17.318-9.388-27.16v-0.088c0.079-1.549,0.234-3.082,0.495-4.615c1.339-8.047,5.109-15.486,10.972-21.193l0,0
				l0.584-0.557c1.378-1.275,2.835-2.459,4.356-3.512c0.521-0.35,1.041-0.688,1.6-0.988c2.611-1.637,5.498-2.912,8.489-3.781
				l3.575-1.053l-2.535-2.797l-0.364-0.377l-0.26-0.273l-0.169-0.232c-6.487-7.463-9.83-17.316-9.386-27.146
				c0.415-9.787,4.42-19.057,11.427-25.908l0.04,0.025l0.402-0.416l0.39-0.365l0,0c4.901-4.51,10.973-7.578,17.433-8.865
				c2.771-0.557,5.591-0.768,8.438-0.637c1.117,0.053,2.261,0.156,3.366,0.326c8.321,1.184,15.927,5.303,21.595,11.596v0.025
				l0.377,0.363l0.377,0.469l0.012-0.012c1.743,2.053,3.237,4.264,4.512,6.617c0.454,0.805,0.858,1.637,1.248,2.482
				c1.898,4.25,3.03,8.865,3.329,13.533l0.194,3.199l2.899-1.197c3.119-1.287,5.979-3.107,8.294-5.563l0.325-0.326
				c2.197-2.432,3.73-5.266,4.667-8.387l0.247-0.752l-0.259-0.768l-0.054-0.066c-0.18-0.572-0.375-1.156-0.518-1.74l-0.027-0.066
				c-0.155-0.533-0.246-1.066-0.364-1.613c-0.247-1.688-0.286-4.107,1.053-5.381l0.066-0.078c1.728-1.547,4.914-0.676,6.837,0.078
				c1.755,0.701,3.446,1.691,4.979,2.795c0.144,0.182,0.299,0.338,0.454,0.48c1.055,0.807,2.068,1.664,3.03,2.59
				c0.194,0.193,0.404,0.4,0.572,0.584c0.599,0.572,1.17,1.168,1.704,1.779l0.064,0.053l0.027,0.066
				c0.064,0.037,0.091,0.076,0.116,0.129c1.08,1.223,2.056,2.484,2.978,3.836l0.195,0.285l0.039,0.053
				c0.195,0.285,0.351,0.547,0.533,0.832l0.012,0.012c0.143,0.273,0.325,0.561,0.481,0.832c0.091,0.143,0.182,0.301,0.325,0.443
				c0.039,0.053,0.091,0.09,0.143,0.129c0.924,1.73,1.704,3.549,2.236,5.422C407.929,599.078,408.486,602.484,406.797,604.148z
				 M407.213,586.207c-1.015-1.506-2.145-2.936-3.328-4.289c0,0-2.783-2.938-4.031-4.043l21.79-20.631l1.144,14.184L407.213,586.207
				z M645.33,652.34c-1.91,23.141-25.688,42.434-49.141,49.754c-5.994,1.885-11.947,2.977-17.512,3.145
				c-0.533,0.027-75.822,0.027-75.822,0.027c-5.994,0-12.493-1.119-19.071-3.172c-23.441-7.32-47.243-26.613-49.116-49.754
				l-3.016-36.725l-14.209-174.591h245.098l-2.664,32.943L645.33,652.34z M657.186,571.428l1.172-14.184l21.775,20.631
				c-1.367,1.17-6.344,6.826-7.346,8.332L657.186,571.428z M804.129,666.73c0.455,9.818-2.885,19.658-9.307,27.082h-0.039
				l-0.223,0.313c-6.473,7.305-15.471,11.738-25.246,12.205c-0.545,0.027-1.105,0.027-1.65,0.027
				c-8.113,0-16.043-2.859-22.348-7.918c-0.756-0.598-1.482-1.234-2.172-1.885l-0.26-0.234c-2.99-2.846-5.473-6.176-7.371-9.842
				c-0.363-0.701-0.729-1.43-1.025-2.145c-0.354-0.74-0.652-1.455-0.91-2.209l-0.066-0.209l-1.221-3.523l-2.549,3.004l-0.326,0.391
				l-0.168,0.18l-0.131,0.17c-6.799,7.734-16.693,12.326-26.988,12.35c-0.52,0-1.053-0.023-1.598-0.051
				c-2.018-0.076-4.059-0.338-6.061-0.779c-6.305-1.418-12.102-4.5-16.822-8.932l-0.232-0.234c-3.822-3.627-6.762-7.969-8.75-12.754
				c-1.17-2.781-2.027-5.705-2.523-8.723c-0.246-1.494-0.414-2.988-0.492-4.51l0,0v-0.223c-0.262-5.758,0.793-11.529,3.016-16.836
				c1.561-3.742,3.705-7.24,6.41-10.348l0.207-0.246c4.004-4.5,8.996-7.943,14.639-9.998c1.053-0.416,2.133-0.727,3.236-1.053
				c1.078-0.26,2.146-0.494,3.264-0.676l3.068-0.559l-1.365-2.809c-1.51-3.043-3.496-5.85-6.098-8.074
				c-2.561-2.184-5.525-3.613-8.826-4.367l-0.742-0.182l-0.727,0.377c-1.768,0.871-3.928,1.664-5.916,1.598
				c-0.273,0-0.547-0.012-0.807-0.064c-0.609-0.104-1.182-0.338-1.678-0.74l-0.076-0.078l-0.119-0.117
				c-1.623-1.678-1.076-5.045-0.559-7.098c0.547-1.873,1.34-3.691,2.264-5.422c0.064-0.039,0.104-0.076,0.129-0.129
				c0.131-0.143,0.26-0.301,0.324-0.455c0.158-0.26,0.326-0.547,0.482-0.807l0.014-0.014c0.182-0.273,0.35-0.559,0.545-0.844
				l0.039-0.041c0.977-1.455,2.029-2.846,3.172-4.158c0.025-0.027,0.092-0.066,0.117-0.104l0.104-0.131
				c0.535-0.6,1.08-1.195,1.678-1.768c0.182-0.184,0.377-0.391,0.586-0.584c0.975-0.926,1.949-1.783,3.029-2.59
				c0.168-0.143,0.311-0.299,0.428-0.48c1.561-1.104,3.238-2.094,5.006-2.795c1.936-0.779,5.109-1.625,6.852-0.064l0.025,0.051
				c1.377,1.287,1.338,3.693,1.053,5.395c-0.078,0.547-0.182,1.094-0.324,1.613l-0.053,0.066c-0.145,0.609-0.313,1.195-0.533,1.779
				l-0.287,0.795l0.234,0.752c0.963,3.121,2.498,5.955,4.668,8.387l0.301,0.326c2.352,2.455,5.197,4.275,8.318,5.563l2.938,1.197
				l0.184-3.199c0.285-4.668,1.416-9.27,3.328-13.533c0.375-0.846,0.779-1.678,1.209-2.482c1.299-2.406,2.885-4.668,4.639-6.736
				l0.041,0.014l0.273-0.377l0.324-0.338h-0.012c5.705-6.318,13.283-10.438,21.645-11.635c1.078-0.156,2.195-0.26,3.355-0.313
				c6.629-0.313,13.234,1.301,18.992,4.525c2.6,1.43,4.99,3.209,7.176,5.264l0.559,0.547h0.014
				c6.967,6.824,10.984,16.082,11.4,25.83c0.43,9.83-2.898,19.684-9.359,27.119l-0.326,0.352l-0.129,0.182l-2.912,3.174l3.563,1.053
				c2.99,0.869,5.861,2.145,8.527,3.781c0.533,0.301,1.066,0.639,1.572,0.988c1.51,1.053,2.99,2.209,4.33,3.484l0.689,0.639l0,0
				c5.771,5.693,9.566,13.092,10.908,21.139c0.232,1.533,0.389,3.066,0.453,4.615V666.73z"/>
			<path fill="#4F5858" d="M791.141,664.262c-0.869-5.305-3.418-10.205-7.316-13.924l-0.273-0.258
				c-4.303-3.992-10.037-6.32-15.887-6.32c-0.363,0-0.742,0.014-1.094,0.014c-6.305,0.313-12.115,3.146-16.314,7.826l-0.494,0.533
				l0.025,0.014c-1.961,2.314-3.457,4.979-4.471,7.824c-1.105,3.07-1.6,6.346-1.471,9.607c0.119,2.549,0.611,5.02,1.471,7.385
				c1.248,3.51,3.211,6.695,5.902,9.361v0.039l0.545,0.467c3.082,2.861,6.799,4.85,10.906,5.76c1.652,0.377,3.328,0.547,4.994,0.547
				c6.447,0,12.623-2.693,17.121-7.516h0.012l0.664-0.766l0,0c4.121-4.811,6.291-11.193,5.992-17.525
				C791.428,666.303,791.299,665.289,791.141,664.262z M782.08,681.736L782.08,681.736l-0.322,0.4
				c-3.682,4.057-8.764,6.344-14.094,6.344c-1.354,0-2.703-0.154-4.043-0.453c-3.316-0.729-6.357-2.354-8.867-4.682l-0.584-0.623
				l0,0c-3.537-3.576-5.564-8.334-5.76-13.363c-0.223-5.137,1.508-10.299,4.85-14.223l0.051,0.039l0.184-0.313
				c3.406-3.834,8.125-6.15,13.299-6.41c0.273,0,0.572-0.014,0.871-0.014c4.783,0,9.385,1.859,12.883,5.123l0.234,0.234
				c3.133,3.016,5.16,6.969,5.875,11.258c0.119,0.818,0.234,1.652,0.234,2.482C787.152,672.674,785.408,677.82,782.08,681.736z"/>
			<path fill="#4F5858" d="M596.189,548.013c2.938-1.247,6.148-1.923,9.451-1.923c7.346,0,14.43,3.262,18.863,9.178l1.391,1.832
				l-0.402-2.275c-2.287-12.71-7.93-24.502-16.148-34.485l-0.232-0.273l-0.338,0.091c-4.576,1.378-8.775,3.419-12.584,5.979
				c-7.787,5.266-13.832,12.793-17.512,21.435c-1.988,4.655-3.303,9.646-3.834,14.794c-0.156,1.742-0.275,3.484-0.275,5.252
				s0.119,3.523,0.275,5.24c0.531,5.16,1.846,10.152,3.834,14.82c3.68,8.631,9.725,16.145,17.512,21.424
				c3.809,2.561,8.008,4.604,12.584,5.994l0.338,0.078l0.232-0.273c8.219-9.973,13.861-21.764,16.148-34.49l0.402-2.275
				l-1.391,1.859c-4.434,5.891-11.518,9.164-18.863,9.164c-3.303,0-6.514-0.676-9.451-1.949
				c-7.787-3.277-13.572-10.518-13.572-19.592S588.402,551.289,596.189,548.013z"/>
			<path fill="#4F5858" d="M378.938,631.916c-0.365-0.023-0.742-0.039-1.092-0.039c-5.747,0.016-11.363,2.225-15.626,6.072
				l-0.027-0.051l-0.429,0.48c-4.719,4.484-7.423,10.66-7.709,17.16c-0.064,1.223,0,2.484,0.118,3.691
				c0.532,5.018,2.495,9.736,5.745,13.586l-0.04,0.039l0.377,0.389c4.252,4.811,10.192,7.711,16.615,7.996
				c0.3,0.012,0.624,0.012,0.976,0.012c0.897,0,1.741-0.051,2.587-0.127c4.979-0.572,9.607-2.732,13.273-6.125h0.013l0.207-0.207
				c3.967-3.744,6.514-8.672,7.411-14.027c0.17-1.027,0.261-2.055,0.313-3.068c0.273-6.41-1.911-12.832-6.124-17.668l-0.273-0.299
				c-3.523-3.9-8.151-6.564-13.351-7.488c-0.949-0.182-1.923-0.285-2.872-0.326H378.938z M392.002,642.967l0.222,0.262
				c3.38,3.912,5.108,9.1,4.874,14.26c-0.013,0.832-0.104,1.664-0.259,2.482c-0.703,4.357-2.796,8.361-5.994,11.402l-0.182,0.156
				c-2.951,2.756-6.682,4.498-10.725,4.953c-0.677,0.066-1.405,0.104-2.093,0.104c-0.261,0-0.532,0-0.793-0.014
				c-5.212-0.221-9.998-2.598-13.442-6.486l-0.182-0.209c-2.678-3.146-4.317-7.031-4.731-11.139c-0.118-1.002-0.13-1.99-0.105-3.004
				c0.234-5.293,2.445-10.297,6.293-13.949l0.168-0.182c3.484-3.199,8.06-5.031,12.793-5.031c0.311,0,0.585,0,0.897,0.012h0.208
				c0.754,0.051,1.482,0.156,2.184,0.262C385.36,637.611,389.155,639.781,392.002,642.967z"/>
			<path fill="#4F5858" d="M347.397,585.361l-0.143-0.168l-0.116-0.117c-3.315-3.719-7.645-6.305-12.455-7.396
				c-1.272-0.287-2.586-0.455-3.925-0.508c-2.692-0.129-5.343,0.221-7.879,1.016c-3.327,1.025-6.46,2.795-9.034,5.172h-0.015
				l-0.39,0.404c-4.64,4.445-7.293,10.531-7.552,16.939c-0.313,6.436,1.884,12.883,6.134,17.732l0.234,0.234
				c2.86,3.211,6.526,5.576,10.621,6.824c0.885,0.287,1.794,0.508,2.756,0.678c0.949,0.168,1.964,0.285,2.938,0.311h0.13
				c2.002,0.104,4.029-0.076,5.979-0.52c4.019-0.922,7.801-2.9,10.831-5.707h0.052l0.273-0.313c6.24-5.98,8.866-14.834,7.111-23.283
				C352.091,592.486,350.206,588.602,347.397,585.361z M343.095,616.199L343.095,616.199l-0.611,0.561
				c-2.222,2.066-4.901,3.574-7.801,4.393c-1.911,0.533-3.886,0.768-5.902,0.676c-0.806-0.037-1.585-0.129-2.392-0.271
				c-1.221-0.223-2.379-0.547-3.51-0.988c-2.794-1.08-5.329-2.848-7.357-5.135l-0.261-0.273c-3.341-3.9-5.096-9.088-4.848-14.248
				c0.247-5.162,2.34-10.063,6.058-13.703l0.597-0.521h-0.052c1.755-1.545,3.718-2.756,5.863-3.586
				c2.433-0.938,5.032-1.391,7.658-1.287c1.43,0.078,2.808,0.313,4.146,0.676c3.484,0.975,6.58,2.938,9.063,5.682l0.494,0.559
				c2.145,2.588,3.602,5.629,4.277,8.893C349.882,604.33,347.905,611.365,343.095,616.199z"/>
			<path fill="#4F5858" d="M505.144,572.961c0.194-1.768,0.273-3.551,0.273-5.344c0-1.781-0.079-3.586-0.273-5.357
				c-1.534-14.648-9.359-28.023-21.359-36.124c-3.784-2.56-8.022-4.601-12.571-5.979l-0.337-0.091l-0.249,0.273
				c-8.215,9.983-13.871,21.775-16.119,34.485l-0.404,2.275l1.378-1.832c4.433-5.916,11.533-9.178,18.838-9.178
				c3.328,0,6.539,0.676,9.464,1.923c7.787,3.276,13.597,10.53,13.597,19.604s-5.784,16.33-13.597,19.617
				c-2.926,1.248-6.136,1.924-9.464,1.924c-7.306,0-14.405-3.273-18.838-9.164l-1.378-1.859l0.404,2.275
				c2.249,12.727,7.929,24.518,16.134,34.49l0.234,0.273l0.337-0.078c4.563-1.391,8.788-3.434,12.571-5.982
				C495.785,601.027,503.61,587.625,505.144,572.961z"/>
			<path fill="#4F5858" d="M521.083,582.334c0.624-4.9,0.885-9.842,0.885-14.717c0-4.889-0.261-9.814-0.885-14.715
				c-1.053-8.933-3.133-17.743-6.435-26.037c-2.353-5.968-5.486-12.039-9.504-17.317c-2.705-3.587-5.863-6.8-9.411-9.413
				l-0.247-0.234l-0.313,0.182c-3.991,2.197-7.801,4.694-11.388,7.475c-1.521,1.196-3.003,2.431-4.459,3.718l-0.637,0.586
				l0.819,0.338c1.469,0.597,2.924,1.287,4.277,2.042c9.231,4.926,16.406,12.648,21.359,21.696
				c5.253,9.604,7.982,20.745,7.982,31.679c0,10.947-2.729,22.074-7.982,31.682c-4.953,9.061-12.128,16.77-21.359,21.711
				c-1.353,0.742-2.808,1.441-4.277,2.041l-0.819,0.326l0.637,0.596c1.457,1.289,2.938,2.498,4.459,3.693
				c3.587,2.795,7.397,5.303,11.388,7.516l0.313,0.154l0.247-0.207c3.548-2.613,6.707-5.85,9.411-9.438
				c4.018-5.293,7.151-11.338,9.504-17.318C517.949,600.08,520.03,591.264,521.083,582.334z"/>
			<path fill="#4F5858" d="M529.182,489.307c-2.717,0.311-5.382,0.715-8.099,1.274c-4.381,0.883-8.75,2.093-12.973,3.626
				l-0.69,0.259l0.441,0.611c5.773,7.566,10.115,16.732,13.222,26.469c4.862,15.094,6.825,31.613,6.825,46.07
				c0,14.455-1.962,30.967-6.825,46.035c-3.106,9.775-7.448,18.941-13.222,26.521l-0.441,0.611l0.69,0.246
				c4.263,1.533,8.592,2.742,12.973,3.627c2.717,0.545,5.382,0.961,8.099,1.273c2.015,0.248,4.056,0.391,6.097,0.506l0.572,0.039
				v-157.69l-0.572,0.027C533.238,488.917,531.196,489.06,529.182,489.307z"/>
		</g>
	</g>
</g>
</svg>
