<?xml version="1.0" encoding="utf-8"?>
<!-- Generator: Adobe Illustrator 16.0.0, SVG Export Plug-In . SVG Version: 6.00 Build 0)  -->
<!DOCTYPE svg PUBLIC "-//W3C//DTD SVG 1.1 Tiny//EN" "http://www.w3.org/Graphics/SVG/1.1/DTD/svg11-tiny.dtd">
<svg version="1.1" baseProfile="tiny" id="Camada_1"
	 xmlns="http://www.w3.org/2000/svg" xmlns:xlink="http://www.w3.org/1999/xlink" x="0px" y="0px" width="500px" height="500px"
	 viewBox="0 0 500 500" xml:space="preserve">
<g>
	<path fill="#999999" d="M16.615,433.26v28.869H2.695v-78.397c9.277-0.396,14.708-0.583,16.276-0.583
		c12.381,0,21.447,1.892,27.179,5.693c5.718,3.802,8.589,9.748,8.589,17.806c0,17.993-10.604,26.99-31.816,26.99
		C21.355,433.638,19.243,433.517,16.615,433.26z M16.615,395.771v25.12c2.355,0.251,4.203,0.372,5.559,0.372
		c6.354,0,11.003-1.061,13.926-3.181c2.924-2.128,4.393-5.574,4.393-10.36c0-8.141-6.55-12.223-19.652-12.223
		C19.372,395.499,17.969,395.598,16.615,395.771z"/>
	<path fill="#999999" d="M64.864,383.677h13.927v53.179c0,4.212,1.28,7.636,3.848,10.285c2.573,2.636,6.111,3.954,10.602,3.954
		c5.036,0,8.959-1.288,11.761-3.878c2.802-2.589,4.203-6.134,4.203-10.633v-52.907h13.927v53.982c0,8.067-2.71,14.382-8.118,18.948
		c-5.408,4.567-12.625,6.861-21.66,6.861c-9.11,0-16.123-2.234-21.069-6.693c-4.953-4.47-7.421-10.854-7.421-19.169L64.864,383.677
		L64.864,383.677z"/>
	<path fill="#999999" d="M190.754,387.85l-5.725,11.519c-3.105-3.111-8.104-4.656-14.988-4.656c-6.535,0-11.896,2.733-16.078,8.217
		c-4.173,5.483-6.264,12.421-6.264,20.805c0,8.39,1.939,15.047,5.81,19.979c3.877,4.923,9.05,7.383,15.51,7.383
		c7.392,0,13.171-2.635,17.343-7.922l6.491,11.247c-5.681,6.036-14.003,9.05-24.961,9.05c-10.959,0-19.472-3.604-25.536-10.821
		c-6.075-7.203-9.105-17.041-9.105-29.507c0-11.602,3.355-21.31,10.082-29.104c6.739-7.808,15.35-11.699,25.847-11.699
		C178.174,382.338,185.362,384.177,190.754,387.85z"/>
	<path fill="#999999" d="M305.907,462.181h-13.496l-8.141-42.304l-15.798,43.327h-4.976l-15.808-43.327l-8.452,42.304h-13.442
		l15.784-78.504h7.398l16.975,52.854l16.607-52.854h7.346L305.907,462.181z"/>
	<path fill="#999999" d="M315.064,462.129v-46.371h-7.34v-10.981h20.887v57.353H315.064L315.064,462.129z M321.978,382.55
		c2.144,0,3.976,0.757,5.484,2.279c1.52,1.513,2.279,3.339,2.279,5.481c0,2.144-0.76,3.977-2.279,5.491
		c-1.509,1.515-3.341,2.272-5.484,2.272c-2.142,0-3.982-0.759-5.49-2.272c-1.522-1.515-2.279-3.348-2.279-5.491
		c0-2.143,0.757-3.969,2.279-5.481C317.995,383.307,319.836,382.55,321.978,382.55z"/>
	<path fill="#999999" d="M378.904,462.129v-33.149c0-4.892-0.947-8.466-2.815-10.708c-1.879-2.249-4.931-3.37-9.181-3.37
		c-1.961,0-4.065,0.547-6.3,1.651c-2.227,1.105-3.961,2.483-5.218,4.127v41.449h-13.389v-57.353h9.648l2.461,5.361
		c3.644-4.293,9.014-6.438,16.118-6.438c6.813,0,12.197,2.047,16.137,6.144c3.953,4.083,5.914,9.784,5.914,17.107v35.179H378.904
		L378.904,462.129z"/>
	<path fill="#999999" d="M436.47,456.403c-1.211,1.999-3.333,3.635-6.354,4.891c-3.006,1.272-6.165,1.91-9.451,1.91
		c-6.172,0-11.027-1.553-14.563-4.636c-3.53-3.089-5.302-7.475-5.302-13.146c0-6.643,2.492-11.838,7.475-15.578
		c4.984-3.765,12.049-5.627,21.235-5.627c1.568,0,3.424,0.256,5.56,0.804c0-6.749-4.257-10.119-12.793-10.119
		c-5.027,0-9.237,0.833-12.639,2.515l-2.885-10.391c4.599-2.211,10.08-3.326,16.434-3.326c8.748,0,15.154,1.992,19.222,5.978
		c4.074,3.982,6.118,11.518,6.118,22.62v12.269c0,7.635,1.521,12.443,4.598,14.406c-1.106,1.93-2.339,3.112-3.694,3.551
		c-1.357,0.454-2.909,0.683-4.659,0.683c-1.924,0-3.659-0.721-5.194-2.145C438.046,459.63,437.009,458.077,436.47,456.403z
		 M435.183,435.138c-2.286-0.454-4.006-0.688-5.143-0.688c-10.563,0-15.851,3.46-15.851,10.39c0,5.134,2.983,7.701,8.945,7.701
		c8.026,0,12.049-4.013,12.049-12.041L435.183,435.138L435.183,435.138z"/>
	<path fill="#999999" d="M457.253,458.433l4.764-10.656c3.991,3.182,8.511,4.764,13.556,4.764c5.203,0,7.814-1.854,7.814-5.565
		c0-2.173-0.794-3.962-2.361-5.354c-1.561-1.386-4.612-3.028-9.157-4.931c-9.891-4.104-14.836-9.852-14.836-17.237
		c0-4.96,1.894-8.837,5.68-11.593c3.787-2.765,8.618-4.159,14.518-4.159c5.953,0,11.566,1.342,16.813,4.022l-3.862,10.382
		c-2.923-2.49-6.997-3.739-12.199-3.739c-4.68,0-7.022,1.854-7.022,5.564c0,1.462,0.773,2.788,2.304,3.969
		c1.529,1.176,4.816,2.749,9.853,4.726c5.028,1.992,8.664,4.394,10.867,7.211c2.219,2.824,3.324,6.231,3.324,10.231
		c0,5.316-1.976,9.504-5.921,12.557c-3.946,3.052-9.309,4.582-16.095,4.582c-3.816,0-6.876-0.312-9.172-0.947
		C463.81,461.636,460.848,460.364,457.253,458.433z"/>
</g>
<g>
	<g>
		<path fill="#999999" d="M130.683,219.682l-0.289-0.69c-0.794-1.947-1.727-3.841-2.695-5.695c0.666,0,1.302,0,1.977,0h0.72h1.772
			h0.461l-0.189-0.447c-0.416-1.007-0.795-2.044-1.022-3.126c-0.197-1.016-0.234-2.069-0.25-3.114l-0.008-0.317h-0.318h-0.447
			h-2.029c-0.727,0-1.439,0-2.159,0c0.106-1.606,0.327-3.205,0.607-4.794l0.069-0.379h-0.372h-2.991h-0.083c-1.03,0-2.037,0-3.059,0
			h-0.272l-0.037,0.258c-0.311,1.629-0.53,3.264-0.636,4.915c-0.735,0-1.454,0-2.182,0c-0.84,0-1.666,0-2.5,0h-0.318v0.327
			c0.007,1.074,0.075,2.172,0.265,3.24c0.235,1.114,0.622,2.197,1.068,3.227l0.075,0.213h0.228c0.827,0,1.651,0,2.477,0
			c0.772,0,1.544,0,2.309,0c0.961,1.825,1.855,3.664,2.666,5.565c0.152,0.356,0.28,0.697,0.432,1.054
			c0.88,2.271,1.683,4.558,2.561,6.83l0.069,0.205h0.227c1.014,0,2.037,0,3.036,0h0.553h2.529h0.462l-0.158-0.432
			C132.356,224.24,131.554,221.96,130.683,219.682z M127.896,224.771c-0.794-2.212-1.567-4.454-2.5-6.62
			c-0.566-1.378-1.219-2.711-1.878-4.06c-0.439-0.916-0.901-1.855-1.311-2.779l-0.091-0.196h-0.197c-0.833,0-1.659,0-2.5,0
			c-0.75,0-1.492,0-2.242,0c-0.235-0.872-0.417-1.757-0.537-2.651c0.711,0,1.431,0,2.135,0c0.833,0.008,1.651,0,2.491,0h0.326
			l-0.015-0.326c-0.022-1.619,0.061-3.24,0.25-4.838h1.688h0.855c-0.197,1.605-0.303,3.234-0.272,4.854l0.03,0.311h0.312
			c0.826,0,1.666,0,2.483,0c0.743,0,1.477,0,2.198,0c0.12,0.894,0.293,1.772,0.529,2.651c-0.696,0-1.395,0-2.084,0
			c-0.824,0-1.658,0-2.483,0h-0.493l0.197,0.453c1.022,2.294,2.211,4.507,3.189,6.823c0.878,2.09,1.636,4.249,2.415,6.377
			C129.57,224.771,128.736,224.771,127.896,224.771z"/>
		<path fill="#999999" d="M367.077,226.95h2.529h0.521c1.015,0,2.047,0,3.066,0h0.207l0.09-0.204
			c0.879-2.272,1.675-4.559,2.552-6.831c0.896-2.265,1.97-4.468,3.104-6.619c0.767,0,1.53,0,2.304,0h1.174h1.301h0.228l0.084-0.211
			c0.433-1.03,0.826-2.113,1.054-3.229c0.205-1.066,0.258-2.165,0.273-3.24v-0.326h-0.318c-0.833,0-1.659,0-2.499,0h-0.122h-2.06
			c-0.113-1.652-0.34-3.287-0.628-4.914l-0.053-0.26h-0.272c-1.023,0-2.039,0-3.062,0c-1.014,0-2.036,0-3.06,0h-0.395l0.085,0.379
			c0.288,1.59,0.507,3.189,0.605,4.795c-0.719,0-1.424,0-2.151,0h-2.028h-0.454h-0.333v0.317c-0.015,1.045-0.075,2.099-0.256,3.113
			c-0.207,1.083-0.593,2.12-1.008,3.126l-0.19,0.448h0.493h1.749h0.728c0.658,0,1.311,0,1.961,0
			c-0.977,1.855-1.893,3.748-2.688,5.703l-0.287,0.682c-0.873,2.271-1.683,4.56-2.553,6.838l-0.175,0.432L367.077,226.95
			L367.077,226.95z M372.016,218.394c0.976-2.318,2.172-4.529,3.188-6.824l0.188-0.453h-0.476c-0.833,0-1.667,0-2.493,0
			c-0.703,0-1.379,0-2.074,0c0.219-0.879,0.394-1.758,0.507-2.651c0.735,0,1.478,0,2.212,0c0.84,0,1.659,0,2.499,0h0.295l0.015-0.31
			c0.038-1.621-0.044-3.249-0.242-4.854c0.834,0,1.674,0,2.516,0c0.204,1.597,0.302,3.218,0.256,4.839v0.326h0.311
			c0.848,0,1.673,0,2.5,0h1.407h0.713c-0.106,0.893-0.28,1.779-0.522,2.65h-0.188h-2.061c-0.825,0-1.66,0-2.484,0h-0.22
			l-0.068,0.197c-1.029,2.294-2.21,4.506-3.202,6.838c-0.917,2.166-1.689,4.407-2.491,6.619c-0.833,0-1.675,0-2.492,0
			C370.386,222.643,371.135,220.482,372.016,218.394z"/>
		<path fill="#999999" d="M282.732,297.19c-4.127-2.211-7.535-5.361-10.2-9.095c-0.825-1.137-1.568-2.318-2.234-3.559
			c-3.06-5.598-4.643-12.072-4.643-18.449c0-6.37,1.583-12.854,4.643-18.455c0.666-1.219,1.409-2.423,2.234-3.544
			c2.665-3.732,6.073-6.884,10.2-9.095c0.825-0.438,1.644-0.841,2.492-1.188l0.483-0.197l-0.377-0.342
			c-0.85-0.749-1.704-1.47-2.599-2.167c-2.089-1.619-4.302-3.081-6.611-4.354l-0.188-0.105l-0.159,0.136
			c-1.175,0.849-2.235,1.811-3.24,2.864c-0.789,0.833-1.523,1.702-2.234,2.627c-2.349,3.082-4.175,6.611-5.551,10.08
			c-1.91,4.846-3.121,9.986-3.735,15.191c-0.34,2.847-0.507,5.716-0.507,8.549c0,2.84,0.167,5.695,0.507,8.542
			c0.614,5.219,1.825,10.369,3.735,15.2c1.376,3.483,3.202,6.999,5.551,10.089c0.711,0.915,1.445,1.786,2.234,2.618
			c1.006,1.061,2.066,2.022,3.24,2.878l0.159,0.121l0.188-0.09c2.31-1.29,4.522-2.75,6.611-4.371
			c0.895-0.696,1.749-1.407,2.599-2.158l0.377-0.347l-0.483-0.189C284.377,298.03,283.558,297.623,282.732,297.19z"/>
		<path fill="#999999" d="M261.012,292.896c-2.831-8.784-3.975-18.402-3.975-26.809c0-8.414,1.144-18.021,3.975-26.808
			c1.811-5.694,4.339-11.026,7.694-15.45l0.273-0.355l-0.416-0.151c-2.469-0.894-4.999-1.598-7.552-2.111
			c-1.56-0.326-3.135-0.563-4.71-0.743c-1.189-0.144-2.369-0.227-3.56-0.287l-0.332-0.016v91.86l0.332-0.021
			c1.19-0.067,2.37-0.16,3.56-0.296c1.575-0.182,3.15-0.424,4.71-0.741c2.553-0.516,5.083-1.22,7.552-2.112l0.416-0.144
			l-0.273-0.356C265.352,303.939,262.823,298.593,261.012,292.896z"/>
		<path fill="#999999" d="M127.828,315.382L127.828,315.382l-0.462-0.538l-0.007,0.008c-1.122-1.204-2.423-2.188-3.84-2.924
			c-1.696-0.871-3.56-1.371-5.506-1.477c-3.674-0.167-7.3,1.212-9.966,3.719l-0.136,0.129c-2.243,2.173-3.712,5.006-4.211,8.088
			c-0.106,0.598-0.159,1.188-0.189,1.788c-0.167,3.65,1.045,7.308,3.408,10.102l-0.016,0.008l0.333,0.364
			c3.287,3.651,8.226,5.317,13.026,4.24c1.143-0.241,2.242-0.643,3.256-1.174c1.151-0.591,2.211-1.331,3.166-2.227l0.015-0.022
			l0.257-0.227l-0.014-0.016c1.575-1.537,2.749-3.394,3.453-5.422c0.479-1.378,0.765-2.832,0.826-4.317
			c0.099-1.901-0.197-3.809-0.826-5.598C129.812,318.244,128.957,316.722,127.828,315.382z M125.033,333.346l-0.204,0.197
			c-0.403,0.377-0.857,0.733-1.311,1.052c-1.151,0.772-2.431,1.348-3.794,1.637c-3.848,0.855-7.763-0.438-10.428-3.296l0.007-0.006
			l-0.227-0.235l-0.083-0.105c-1.962-2.272-2.969-5.293-2.848-8.293c0.03-0.483,0.076-0.97,0.159-1.447
			c0.417-2.506,1.605-4.823,3.438-6.573l0.151-0.135c2.144-2.001,5.037-3.098,7.967-2.962c2.054,0.091,4,0.758,5.658,1.886
			c0.758,0.515,1.454,1.136,2.083,1.833l0.272,0.333h0.007c1.877,2.257,2.833,5.195,2.695,8.127
			C128.456,328.378,127.222,331.232,125.033,333.346z"/>
		<path fill="#999999" d="M373.097,300.395l0.061-0.016c0.576-0.015,1.153-0.083,1.719-0.181c2.955-0.53,5.628-2.016,7.658-4.218
			l0.022,0.014l0.068-0.084l0.212-0.279c2.454-2.818,3.711-6.55,3.553-10.271c-0.167-3.43-1.484-6.687-3.765-9.201
			c-0.221-0.257-0.462-0.485-0.697-0.718l-0.143-0.13c-2.66-2.477-6.264-3.832-9.892-3.657c-0.78,0.029-1.544,0.129-2.287,0.295
			c-2.817,0.636-5.362,2.143-7.301,4.333l-0.25,0.242l0.015,0.022c-1.567,1.863-2.628,4.074-3.113,6.46
			c-1,4.861,0.471,9.951,4.008,13.441l-0.016,0.009l0.288,0.234c1.779,1.683,3.991,2.839,6.369,3.386
			C370.742,300.334,371.909,300.438,373.097,300.395z M364.734,294.389v0.022c-2.831-2.826-3.996-6.937-3.201-10.844
			c0.401-1.901,1.242-3.673,2.484-5.173l0.03,0.037l0.228-0.34c1.423-1.599,3.279-2.773,5.331-3.34
			c0.779-0.213,1.574-0.35,2.409-0.396c2.915-0.129,5.8,0.955,7.959,2.932v0.015l0.182,0.158c1.036,0.993,1.871,2.167,2.469,3.445
			c0.667,1.418,1.053,2.977,1.104,4.576c0.1,1.945-0.294,3.885-1.104,5.634c-0.462,0.977-1.054,1.893-1.759,2.712l-0.135,0.15
			c-1.651,1.849-3.862,3.099-6.309,3.53c-0.446,0.083-0.915,0.137-1.395,0.152l-0.135,0.006c-1.121,0.039-2.22-0.097-3.287-0.4
			c-1.72-0.485-3.302-1.371-4.605-2.6L364.734,294.389z"/>
		<path fill="#999999" d="M353.565,307.005l-0.038,0.037c-2.477-2.232-5.725-3.512-9.079-3.521c-0.205,0-0.41,0.01-0.621,0.022
			h-0.129v0.009c-0.538,0.031-1.061,0.091-1.598,0.183c-3.067,0.544-5.787,2.104-7.861,4.43l-0.113,0.137
			c-2.439,2.817-3.696,6.543-3.546,10.261c0.022,0.592,0.1,1.189,0.198,1.787c0.508,3.119,2.015,5.991,4.316,8.172l0.023,0.029
			h0.007c2.159,2.038,4.878,3.317,7.823,3.659c0.5,0.045,1.007,0.074,1.5,0.074c0.196,0,0.387,0,0.583-0.007
			c3.742-0.166,7.202-1.862,9.679-4.688l0.022-0.036c1.984-2.272,3.213-5.091,3.515-8.097c0.061-0.703,0.091-1.438,0.061-2.151
			c-0.153-3.809-1.735-7.397-4.491-10.013L353.565,307.005z M355.61,319.17c-0.251,2.421-1.226,4.701-2.801,6.541l-0.061,0.068
			c-2.008,2.265-4.803,3.65-7.839,3.778c-0.16,0.008-0.311,0.008-0.462,0.008c-0.395,0-0.805-0.021-1.213-0.061
			c-2.347-0.265-4.504-1.265-6.224-2.878l0,0l-0.132-0.099c-1.87-1.779-3.071-4.103-3.49-6.643c-0.082-0.475-0.137-0.96-0.158-1.445
			c-0.135-3.006,0.887-6.028,2.833-8.307l0.137-0.152c1.681-1.862,3.876-3.127,6.337-3.565c0.425-0.061,0.857-0.123,1.288-0.152
			h0.114c0.166-0.009,0.347-0.009,0.506-0.009c2.779,0,5.492,1.091,7.529,2.998l0.037,0.039c2.241,2.127,3.529,5.043,3.658,8.126
			C355.678,318.01,355.671,318.585,355.61,319.17z"/>
		<path fill="#999999" d="M406.511,323.567c-0.053-0.983-0.152-1.962-0.304-2.938c-0.894-5.369-3.446-10.285-7.384-14.056
			l-0.318-0.317l-0.016,0.007c-0.841-0.781-1.757-1.499-2.703-2.151c-0.347-0.228-0.674-0.454-1.014-0.674
			c-1.177-0.704-2.387-1.303-3.652-1.81c3.697-4.726,5.559-10.745,5.303-16.736c-0.288-6.422-2.924-12.496-7.543-16.979l0.006-0.017
			l-0.34-0.302c-1.756-1.651-3.763-3.015-5.922-4.061c-3.469-1.659-7.315-2.484-11.193-2.294c-0.612,0.022-1.219,0.076-1.825,0.152
			c-5.703,0.727-10.891,3.521-14.714,7.868l0,0l-0.273,0.273l0.009,0.014c-1.152,1.349-2.168,2.811-3.007,4.378
			c-0.28,0.53-0.547,1.06-0.789,1.613c-0.984,2.188-1.644,4.514-1.977,6.885c-0.85-0.493-1.644-1.105-2.332-1.826
			c-0.924-0.977-1.613-2.128-2.076-3.378l-0.054-0.188l0.054-0.205c0.083-0.212,0.137-0.416,0.197-0.619
			c0.099-0.418,0.188-0.835,0.266-1.259c0.219-1.416,0.174-2.961-0.463-4.248c-0.228-0.485-0.547-0.94-0.962-1.326l-0.128-0.112
			c-1.85-1.621-4.528-1.273-6.642-0.426c-1.022,0.41-2.008,0.954-2.923,1.568l-14.58-13.806l2.802-34.381
			c0.979-0.728,1.955-1.447,2.939-2.173c4.136-3.045,8.314-6.021,12.61-8.838c2.264-1.484,4.551-2.947,6.883-4.31
			c1.393-0.796,2.794-1.561,4.227-2.287c1.93-0.97,3.996-1.931,6.09-2.507c0.082,0.037,0.181,0.061,0.278,0.076
			c2.81,0.371,9.52,1.311,9.013,5.377c-0.334,2.605-2.916,6.278-4.361,8.488c-3.469,5.265-8.406,12.353-4.645,18.722
			c-0.157,0.266-0.285,0.539-0.4,0.834c-0.463,1.204,0.105,2.628,1.31,3.12c0.122,0.046,0.267,0.083,0.395,0.113
			c0.257,2.416,0.999,4.491,1.917,6.74c1.444,3.483,2.014,5.732,1.098,9.487c-0.152,0.713,0.257,1.462,0.969,1.658
			c0.728,0.167,1.453-0.295,1.599-0.998c1.082-4.437,0.462-7.088-1.227-11.208c-0.962-2.348-1.673-4.393-1.805-6.959
			c0.022-0.061,0.069-0.121,0.085-0.19c0.092-0.257,0.289-0.453,0.508-0.597c0.107,2.99,0.878,5.285,2.006,8.058
			c1.447,3.491,2.016,5.732,1.113,9.494c-0.166,0.704,0.242,1.462,0.953,1.644c0.729,0.19,1.447-0.289,1.621-1
			c1.061-4.429,0.455-7.071-1.242-11.199c-1.073-2.621-1.794-4.748-1.825-7.604c0.373-0.022,0.735-0.022,1.114-0.022
			c0.067,3.105,0.833,5.445,2.007,8.307c1.445,3.492,2.022,5.734,1.105,9.496c-0.175,0.704,0.25,1.462,0.97,1.649
			c0.727,0.184,1.423-0.279,1.613-0.999c1.059-4.428,0.462-7.079-1.235-11.199c-1.008-2.446-1.727-4.505-1.816-7.141
			c0.34,0.022,0.681,0.053,1.014,0.083c0.046,3.173,0.825,5.567,2.038,8.49c0.233,0.613,0.469,1.188,0.674,1.749
			c0.916,2.582,1.173,4.643,0.416,7.745c-0.168,0.705,0.243,1.462,0.969,1.645c0.719,0.188,1.433-0.289,1.605-1.001
			c1.076-4.428,0.454-7.07-1.242-11.199c-0.893-2.188-1.552-4.051-1.748-6.309c-0.037-0.311-0.069-0.613-0.069-0.909h0.069
			l0.946,0.062c0.016,3.293,0.802,5.71,2.044,8.739c1.44,3.499,2.015,5.726,1.091,9.494c-0.159,0.712,0.257,1.455,0.979,1.637
			c0.703,0.196,1.43-0.265,1.596-0.992c1.084-4.42,0.464-7.072-1.234-11.198c-1.073-2.605-1.794-4.741-1.816-7.575
			c0.234,0.017,0.462,0.017,0.696,0.017c0.167,2.81,0.932,5.06,1.999,7.648c1.439,3.483,2.008,5.726,1.1,9.487
			c-0.174,0.713,0.234,1.462,0.961,1.643c0.728,0.199,1.439-0.271,1.598-0.983c1.076-4.442,0.47-7.079-1.227-11.214
			c-0.932-2.258-1.636-4.263-1.787-6.718c0.304-0.037,0.621-0.074,0.915-0.136c0.222,2.568,0.986,4.717,1.954,7.097
			c1.447,3.491,2.017,5.732,1.106,9.495c-0.174,0.712,0.257,1.462,0.978,1.644c0.395,0.106,0.811,0,1.12-0.243
			c0.235-0.188,0.409-0.447,0.485-0.75c0.893-3.693,0.605-6.14-0.485-9.253c-0.221-0.619-0.462-1.256-0.749-1.945
			c-0.938-2.279-1.65-4.286-1.803-6.755c0.197-0.083,0.378-0.159,0.568-0.25c0.296,2.264,1.007,4.225,1.878,6.347l0.106,0.234
			c1.355,3.355,1.895,5.573,1,9.247c-0.166,0.719,0.241,1.468,0.97,1.649c0.719,0.189,1.439-0.272,1.605-0.983
			c1.075-4.43,0.453-7.08-1.242-11.209c-0.984-2.422-1.721-4.506-1.817-7.155c0.56-0.598,0.999-1.287,1.34-2.038
			c0.546-1.174,0.076-2.604-1.098-3.188c-0.25-0.129-0.492-0.205-0.758-0.227c-0.31-0.039-0.637,0-0.938,0.098
			c-0.176-1.522,0.249-3.046,0.938-4.476c0.788-1.652,1.895-3.195,2.841-4.552c1.453-2.053,2.893-4.135,3.893-6.452
			c3.574-8.211-1.106-15.238-6.733-20.979l-0.091-0.098c-0.151-0.182-0.341-0.317-0.568-0.401
			c-4.021-1.432-8.216-2.052-12.359-1.386c-1.082,0.182-2.143,0.44-3.204,0.796c-4.748,1.605-8.609,4.846-11.769,8.67
			c-2.453,0.561-4.885,1.652-7.126,2.779c-1.022,0.516-2.044,1.062-3.06,1.637l-0.409,0.228c-6.354,0.158-20.545,0.052-20.545,0.052
			l1.219-14.881h-50.272c-0.597-1.129-1.15-2.279-1.658-3.445l30.065-28.492l12.46,14.155c0.021,0.03,0.021,0.054,0.051,0.075
			c0.501,0.568,1.334,0.6,1.887,0.092l2.591-2.446l2.498-2.379c0.568-0.499,1.325-0.756,2.091-0.712
			c0.151,0.008,0.302,0.016,0.462,0.061h0.067c0.575,0.145,1.121,0.455,1.522,0.902l0.137,0.159c0.491,0.614,0.74,1.399,0.695,2.173
			v0.061c-0.046,0.789-0.378,1.547-0.946,2.105l-1.408,1.34l-3.597,3.409l-0.016,0.007c-0.538,0.508-0.576,1.371-0.091,1.918
			l15.04,17.084l0.022,0.008c0.478,0.561,1.325,0.605,1.862,0.09l20.903-19.797c0.546-0.506,0.574-1.369,0.091-1.93l-14.723-16.699
			l-0.333-0.386c-0.492-0.553-1.34-0.591-1.87-0.084l-5.704,5.392l-0.083,0.084c-0.567,0.507-1.333,0.766-2.098,0.727h-0.067
			c-0.766-0.045-1.463-0.393-1.984-0.961l-0.021-0.029l-0.214-0.258c-0.416-0.584-0.635-1.318-0.605-2.038
			c0.053-0.811,0.364-1.59,0.953-2.151l5.72-5.452c0.537-0.491,0.575-1.362,0.098-1.908l-5.204-5.907l-0.045-0.045
			c-0.521-0.613-0.78-1.424-0.749-2.242c0.047-0.795,0.364-1.567,0.93-2.145l0.306-0.256c0.537-0.41,1.188-0.621,1.87-0.613
			l0.06,0.007c0.772,0.038,1.499,0.372,2.038,0.923l5.263,5.977v0.016c0.455,0.521,1.212,0.598,1.742,0.203
			c0.061-0.029,0.099-0.068,0.144-0.113l5.786-5.467c0.576-0.51,1.326-0.773,2.105-0.736c0.136,0,0.288,0.023,0.439,0.061
			c0.62,0.122,1.158,0.447,1.598,0.91l0.235,0.273c0.431,0.598,0.635,1.324,0.604,2.059v0.068c-0.045,0.772-0.362,1.521-0.931,2.067
			l-0.045,0.054l-5.681,5.377l-0.03,0.023c-0.523,0.499-0.562,1.354-0.076,1.914l15.033,17.071l0.015,0.022
			c0.479,0.56,1.34,0.607,1.887,0.09l21.349-20.25c0.543-0.5,0.59-1.355,0.099-1.916l-15.049-17.086
			c-0.485-0.561-1.341-0.605-1.893-0.083l-0.433,0.417l-4.544,4.301l-0.234,0.175l0.022,0.015c-0.553,0.439-1.265,0.666-1.976,0.637
			h-0.062c-0.742-0.053-1.409-0.387-1.938-0.91h0.016l-0.182-0.196c-0.502-0.598-0.759-1.4-0.729-2.188
			c0.038-0.817,0.363-1.59,0.947-2.166l5.271-4.998l-0.03-0.03c0.317-0.507,0.28-1.197-0.121-1.659l-12.558-14.246l2.287-2.166
			l0.259-0.211l-0.016-0.016c0.553-0.65,0.88-1.477,0.932-2.34c0.037-0.969-0.287-1.916-0.9-2.65h-0.015l-3.008-3.416l-0.022-0.037
			c-0.645-0.713-1.521-1.129-2.461-1.174c-0.894-0.039-1.81,0.271-2.491,0.87l-0.107,0.091l-79.031,74.878
			c-1.597-8.816-0.983-17.813,1.388-26.431l0.249-0.85h22.379c0.349,0,0.689-0.15,0.939-0.408c3.014-3.136,4.822-6.732,5.174-11.088
			c0.271-3.423-0.411-6.793-1.131-10.109c-0.407-1.811-1.286-5.203-0.521-6.931c0.136-0.304,0.152-0.636,0.062-0.946
			c-0.214-0.711-0.933-1.137-1.652-0.916c-0.764,0.25-1.461,0.666-2.075,1.204c0,0.015,0,0.015-0.022,0.022
			c-0.567-1.574-1.25-3.106-2.014-4.59c0.983-2.861,0.295-5.619-0.546-8.412c-0.312-1.063-1.061-3.205-0.447-4.219
			c0.341-0.592-0.053-1.219-0.637-1.439c-0.273-0.092-0.568-0.105-0.833-0.038c-0.037,0-0.076,0.022-0.106,0.03
			c-0.333,0.076-0.65,0.189-0.954,0.342c-0.061,0.014-0.099,0.037-0.15,0.061c-0.251-0.523-0.501-1.037-0.772-1.553v-1.22
			c0.635-2.741,0.036-5.354-0.638-8.02c-0.303-1.129-0.969-3.34-0.425-4.423l0.122-0.401c0-0.113-0.023-0.22-0.069-0.333
			c-0.173-0.537-0.786-0.803-1.322-0.658c-0.585,0.158-1.123,0.438-1.607,0.803c-0.084,0.068-0.175,0.136-0.266,0.203
			c-0.067,0.099-0.158,0.159-0.241,0.243l-0.016,0.016l-0.045,0.052c-0.409,0.417-0.75,0.902-1,1.432
			c-0.053,0.107-0.097,0.198-0.152,0.318c-0.272,0.637-0.424,1.317-0.438,1.992v0.022v0.159c0,0.234,0.015,0.469,0.083,0.688
			c-0.007,0.016-0.022,0.023-0.037,0.046c-2.051-4.748-4.977-9.051-8.655-12.571c-0.729-0.688-1.454-1.333-2.234-1.97
			c-1.553-1.234-3.196-2.354-4.984-3.339c-1.076-0.599-2.188-1.136-3.325-1.605c-0.233-0.72-0.559-1.394-0.977-1.999
			c-1.136-1.629-2.869-2.817-4.711-3.605c-0.582-0.25-1.18-0.462-1.765-0.621v-9.217h6.772v-9.277h-6.772V36.53h-8.96v7.027h-6.597
			h-0.181v9.277h0.181h6.597v9.21c-0.621,0.182-1.265,0.408-1.879,0.674c-1.855,0.817-3.612,2.052-4.718,3.719
			c-0.355,0.552-0.629,1.144-0.848,1.78c-1.189,0.49-2.348,1.044-3.46,1.666c-1.772,0.984-3.431,2.105-4.977,3.354
			c-4.755,3.84-8.443,8.861-10.897,14.525c-0.008-0.022-0.023-0.029-0.031-0.045c0.022-0.121,0.053-0.25,0.07-0.363l0.014-0.326
			c0-1.439-0.583-2.893-1.597-3.922c-0.122-0.145-0.272-0.281-0.425-0.41c-0.257-0.203-0.522-0.379-0.811-0.529
			c-0.279-0.145-0.568-0.266-0.87-0.355l-0.114-0.053l-0.046,0.014c-0.204-0.045-0.447-0.014-0.651,0.061
			c-0.522,0.22-0.811,0.818-0.539,1.349c0.56,1.083-0.097,3.294-0.4,4.423c-0.682,2.672-1.28,5.278-0.643,8.027v1.219
			c-0.272,0.509-0.531,1.022-0.772,1.546c-0.379-0.189-0.78-0.333-1.198-0.433c-0.583-0.128-1.317,0.084-1.537,0.675
			c-0.106,0.272-0.083,0.56,0.061,0.803c0.599,1-0.151,3.157-0.454,4.218c-0.85,2.794-1.53,5.552-0.546,8.414
			c-0.765,1.483-1.439,3.015-2.03,4.589c-0.266-0.234-0.567-0.469-0.871-0.675c-0.372-0.219-0.75-0.393-1.129-0.529l-0.068-0.014
			l-0.341-0.116l-0.007,0.054c-0.213-0.016-0.425,0.029-0.6,0.121c-0.673,0.311-0.96,1.129-0.658,1.795
			c0.764,1.727-0.114,5.119-0.516,6.93c-0.734,3.317-1.401,6.68-1.136,10.08c0.341,4.332,2.128,7.93,5.112,11.056
			c0.25,0.289,0.605,0.47,1,0.47h10.186h12.201l0.241,0.842c2.355,8.625,2.978,17.622,1.395,26.438l-79.125-74.944
			c-0.682-0.6-1.599-0.933-2.506-0.895c-0.955,0.045-1.826,0.461-2.47,1.174l-0.029,0.022l-3.167,3.604l0.008,0.016
			c-0.516,0.688-0.788,1.575-0.758,2.453c0.046,0.871,0.378,1.704,0.947,2.348l-0.03,0.03l0.257,0.212l2.271,2.15l-12.541,14.253
			c-0.439,0.493-0.439,1.272-0.022,1.796l5.089,4.84l0.122,0.098c0.538,0.568,0.841,1.31,0.864,2.09l0.007,0.022
			c0.037,0.78-0.213,1.576-0.72,2.188l-0.152,0.167c-0.492,0.53-1.167,0.863-1.908,0.923l-0.114,0.016
			c-0.765,0.031-1.515-0.233-2.09-0.727l-4.627-4.394l-0.454-0.424c-0.546-0.523-1.394-0.478-1.878,0.083l-15.04,17.086
			c-0.493,0.56-0.463,1.416,0.083,1.915l21.364,20.252c0.545,0.516,1.386,0.469,1.878-0.104l15.049-17.078
			c0.492-0.561,0.454-1.416-0.091-1.916l-5.665-5.377l-0.114-0.113c-0.539-0.547-0.856-1.273-0.886-2.046v-0.061
			c-0.037-0.728,0.167-1.47,0.607-2.068l0.181-0.211l0.016-0.016l0.023-0.022c0.408-0.47,0.969-0.788,1.589-0.916
			c0.174-0.031,0.311-0.061,0.463-0.061c0.763-0.038,1.499,0.212,2.067,0.703l5.816,5.499c0.038,0.044,0.083,0.083,0.137,0.113
			c0.537,0.394,1.295,0.317,1.734-0.196l5.203-5.908l0.09-0.091c0.523-0.552,1.25-0.886,2.022-0.923l0.068-0.008
			c0.72-0.008,1.447,0.25,2.016,0.734l0.189,0.196c0.545,0.553,0.848,1.304,0.893,2.083c0.03,0.803-0.219,1.598-0.719,2.204
			l-5.279,5.989c-0.477,0.547-0.447,1.416,0.083,1.91l5.694,5.398l0.107,0.099c0.552,0.553,0.855,1.31,0.878,2.099
			c0.03,0.803-0.228,1.605-0.736,2.226l-0.158,0.181c-0.516,0.516-1.198,0.842-1.947,0.887h-0.062
			c-0.764,0.038-1.506-0.22-2.089-0.734l-0.091-0.076l-5.679-5.392c-0.545-0.507-1.395-0.47-1.885,0.084l-15.049,17.1
			c-0.485,0.546-0.447,1.408,0.098,1.917l20.902,19.795c0.522,0.516,1.385,0.471,1.871-0.09l15.041-17.092
			c0.483-0.547,0.461-1.41-0.077-1.918l-4.983-4.717l-0.068-0.055c-0.544-0.536-0.863-1.256-0.916-2.028l-0.008-0.12
			c-0.03-0.773,0.212-1.561,0.681-2.16l0.175-0.204c0.417-0.446,0.962-0.749,1.583-0.872c0.128-0.045,0.288-0.053,0.432-0.06
			c0.788-0.046,1.538,0.212,2.121,0.727l2.483,2.371l2.583,2.438c0.546,0.507,1.401,0.477,1.886-0.084
			c0.031-0.03,0.045-0.053,0.083-0.098l12.443-14.14l30.058,28.491c-0.5,1.167-1.068,2.316-1.659,3.445H175.29l1.203,14.881
			c-2.022,0.063-15.721,0.069-20.554-0.052l-0.401-0.234c-0.999-0.568-2.015-1.113-3.052-1.628
			c-2.235-1.129-4.688-2.219-7.134-2.779c-3.143-3.824-7.013-7.066-11.762-8.67c-1.052-0.357-2.12-0.615-3.196-0.797
			c-2.286-0.379-4.582-0.355-6.876-0.008c-1.855,0.271-3.688,0.758-5.499,1.395c-0.227,0.084-0.424,0.22-0.576,0.416
			c-5.657,5.748-10.389,12.807-6.808,21.055c0.454,1.052,1,2.066,1.599,3.035c0.719,1.167,1.506,2.303,2.287,3.423
			c1.765,2.553,4.165,5.749,3.771,9.028c-0.552-0.182-1.158-0.144-1.688,0.129c-1.159,0.584-1.62,2.015-1.083,3.188
			c0.341,0.75,0.78,1.431,1.333,2.037c-0.106,2.651-0.818,4.733-1.81,7.157c-1.711,4.127-2.318,6.778-1.242,11.208
			c0.159,0.711,0.871,1.172,1.591,0.983c0.718-0.182,1.144-0.931,0.977-1.649c-0.909-3.756-0.326-5.998,1.106-9.482
			c0.862-2.12,1.589-4.082,1.87-6.346c0.181,0.09,0.379,0.167,0.568,0.25c-0.145,2.469-0.849,4.476-1.788,6.755
			c-1.696,4.128-2.317,6.77-1.233,11.198c0.173,0.72,0.885,1.182,1.604,0.993c0.712-0.183,1.136-0.933,0.961-1.644
			c-0.908-3.763-0.326-6.004,1.105-9.495c0.993-2.379,1.743-4.528,1.954-7.098c0.326,0.062,0.628,0.1,0.916,0.137
			c-0.136,2.454-0.848,4.461-1.771,6.718c-1.705,4.135-2.317,6.771-1.249,11.214c0.174,0.713,0.87,1.182,1.613,0.983
			c0.704-0.181,1.127-0.93,0.969-1.643c-0.788-3.21-0.478-5.306,0.522-8.034c0.174-0.453,0.363-0.946,0.575-1.453
			c1.069-2.589,1.833-4.84,1.992-7.648c0.243,0,0.463,0,0.697-0.016c-0.023,2.832-0.742,4.969-1.818,7.573
			c-0.658,1.605-1.151,2.969-1.446,4.316c-0.417,1.871-0.438,3.679,0,5.929c0.053,0.318,0.129,0.636,0.205,0.954
			c0.181,0.728,0.908,1.188,1.613,0.991c0.704-0.181,1.129-0.924,0.954-1.636c-0.9-3.77-0.325-5.995,1.114-9.494
			c1.249-3.029,2.014-5.445,2.03-8.74l0.961-0.061h0.053c0,0.319-0.023,0.622-0.053,0.925c-0.205,2.249-0.847,4.112-1.772,6.294
			c-1.68,4.127-2.294,6.77-1.219,11.199c0.167,0.71,0.886,1.189,1.599,0.999c0.727-0.183,1.135-0.939,0.955-1.644
			c-0.721-3.087-0.478-5.163,0.438-7.738c0.205-0.567,0.439-1.136,0.666-1.757c1.212-2.924,1.992-5.316,2.038-8.49
			c0.333-0.03,0.674-0.061,1.03-0.082c-0.107,2.635-0.817,4.694-1.818,7.141c-1.711,4.12-2.309,6.771-1.25,11.199
			c0.19,0.719,0.895,1.182,1.621,0.998c0.704-0.188,1.13-0.945,0.947-1.649c-0.894-3.761-0.317-6.004,1.114-9.496
			c1.182-2.861,1.946-5.201,2.021-8.307c0.371,0,0.735,0.008,1.098,0.037c-0.015,2.841-0.742,4.968-1.817,7.589
			c-1.697,4.136-2.302,6.771-1.25,11.207c0.182,0.719,0.909,1.183,1.628,0.992c0.712-0.183,1.128-0.939,0.954-1.645
			c-0.909-3.762-0.333-6.003,1.106-9.494c1.136-2.771,1.908-5.067,2.014-8.058c0.228,0.145,0.417,0.341,0.5,0.599
			c0.03,0.068,0.068,0.129,0.098,0.188c-0.136,2.567-0.825,4.611-1.809,6.96c-1.696,4.12-2.318,6.771-1.243,11.207
			c0.174,0.704,0.886,1.166,1.605,1c0.727-0.197,1.143-0.946,0.97-1.66c-0.917-3.753-0.333-6.003,1.105-9.486
			c0.923-2.249,1.666-4.325,1.93-6.74c0.116-0.029,0.251-0.067,0.373-0.114c1.219-0.492,1.772-1.915,1.318-3.111
			c-0.114-0.303-0.243-0.577-0.394-0.834c3.764-6.376-1.189-13.465-4.651-18.729c-1.454-2.211-4.029-5.884-4.369-8.489
			c-0.516-4.065,6.209-5.005,9.027-5.384c0.091-0.008,0.182-0.031,0.272-0.068c2.083,0.577,4.157,1.537,6.104,2.506
			c1.416,0.727,2.817,1.493,4.203,2.287c2.339,1.365,4.619,2.827,6.891,4.31c2.697,1.78,5.377,3.621,8.006,5.498
			c2.544,1.811,5.051,3.65,7.535,5.514l2.188,26.9l0.606,7.48l-0.606,0.583l-9.723,9.224l-4.234,3.999
			c-0.924-0.614-1.899-1.158-2.93-1.567c-2.16-0.862-4.87-1.213-6.718,0.5l-0.022,0.014l-0.015,0.01
			c-0.417,0.399-0.743,0.855-0.977,1.347c-0.622,1.288-0.658,2.825-0.447,4.242c0.054,0.424,0.151,0.84,0.257,1.256
			c0.067,0.206,0.136,0.41,0.189,0.622l0.068,0.204l-0.068,0.189c-0.455,1.249-1.136,2.4-2.067,3.377
			c-0.69,0.72-1.47,1.333-2.34,1.825c-0.326-2.37-0.984-4.696-1.962-6.884c-0.25-0.553-0.507-1.082-0.793-1.613
			c-0.895-1.636-1.947-3.173-3.167-4.575l-0.052-0.045v-0.007l-0.053-0.038c-3.833-4.347-9.011-7.141-14.708-7.868
			c-0.605-0.076-1.22-0.13-1.848-0.153c-1.674-0.075-3.371,0.031-5.029,0.319c-4.483,0.795-8.71,2.894-12.049,6.028h-0.023
			l-0.371,0.34l0.015,0.009c-4.589,4.468-7.239,10.551-7.512,16.957c-0.273,5.99,1.597,12.011,5.309,16.736
			c-1.272,0.507-2.5,1.104-3.65,1.81c-0.349,0.22-0.697,0.447-1.038,0.674c-1.007,0.697-1.976,1.462-2.87,2.304l-0.318,0.287
			l0.014,0.007c-3.854,3.733-6.368,8.619-7.238,13.921c-0.167,1.015-0.273,2.044-0.318,3.082
			c-0.281,6.437,1.908,12.919,6.187,17.798l0.272,0.326l0.007-0.023c4.234,4.672,10.027,7.505,16.329,7.807
			c2.468,0.113,4.914-0.173,7.255-0.834c2.446-0.673,4.771-1.74,6.876-3.165c1.075-0.719,2.105-1.529,3.059-2.423l0.151-0.143
			c1.946-1.871,3.582-4.045,4.824-6.437c0.159-0.304,0.303-0.601,0.432-0.91c4.408,4.408,10.466,6.99,16.675,7.005
			c0.348,0,0.704-0.008,1.054-0.015c1.333-0.069,2.666-0.258,3.959-0.539c3.666-0.803,7.036-2.469,9.884-4.846
			c0.409-0.326,0.795-0.683,1.196-1.039l0.159-0.15c3.9-3.756,6.452-8.655,7.345-14.01c0.167-1.017,0.267-2.047,0.312-3.083
			c0.272-6.452-1.924-12.928-6.188-17.79l-0.144-0.168c-0.833-0.93-1.735-1.802-2.681-2.588c-2.045-1.688-4.362-3.028-6.876-3.954
			c-0.69-0.257-1.416-0.477-2.12-0.666c-0.099-0.022-0.205-0.053-0.305-0.075c0.554-0.843,1.212-1.613,1.992-2.272
			c1.039-0.885,2.25-1.508,3.583-1.878c1.167,0.536,2.438,0.947,3.726,1.008c0.181,0.006,0.34,0.006,0.515,0.006
			c0.281-0.006,0.568-0.037,0.855-0.082c0.766-0.145,1.493-0.448,2.098-0.939l0.038,0.03l0.243-0.272l0.076-0.076
			c1.771-1.78,1.643-4.589,1.029-6.831c-0.302-1.104-0.741-2.166-1.249-3.182l6.119-5.808l1.841-1.759l3.604,43.972
			c0.167,2.105,0.605,4.158,1.28,6.148c4.211,12.294,17.358,22.069,30.369,25.863c3.794,1.104,7.573,1.697,11.109,1.697h41.936
			h1.333c0.295,0,0.59-0.008,0.901-0.008c3.271-0.092,6.739-0.684,10.2-1.689c15.116-4.4,30.429-16.896,31.672-32.012l3.581-43.972
			l7.977,7.566c-0.403,0.758-0.737,1.56-1.009,2.378c-0.098,0.265-0.174,0.536-0.242,0.803c-0.507,1.834-0.675,4.037,0.242,5.749
			c0.166,0.333,0.386,0.666,0.666,0.954l-0.053,0.053l0.296,0.188l0.062,0.061c0.643,0.575,1.407,0.933,2.257,1.083
			c0.286,0.046,0.574,0.077,0.877,0.084c1.439,0.047,2.916-0.408,4.211-1.014c1.334,0.37,2.553,0.992,3.598,1.878
			c0.773,0.659,1.44,1.43,1.991,2.272c-0.111,0.022-0.211,0.053-0.294,0.075c-0.704,0.188-1.432,0.408-2.122,0.666
			c-3.716,1.364-6.997,3.634-9.602,6.596l-0.151,0.153c-0.628,0.719-1.205,1.483-1.734,2.271c-3.097,4.507-4.643,10.004-4.407,15.48
			l0.015,0.137c0.046,0.983,0.151,1.96,0.303,2.946c0.605,3.664,1.993,7.14,4.091,10.162c0.954,1.401,2.051,2.711,3.31,3.894
			l0.15,0.144c3.105,2.907,6.86,4.938,11.019,5.846c1.311,0.296,2.629,0.47,3.962,0.539c0.356,0.008,0.704,0.015,1.053,0.015
			c6.232-0.015,12.283-2.597,16.668-7.005c0.144,0.309,0.288,0.605,0.432,0.91c1.221,2.321,2.794,4.437,4.673,6.271l-0.046,0.036
			l0.355,0.266c0.956,0.893,1.986,1.711,3.075,2.43c3.825,2.575,8.368,4.015,13.02,4.015c0.354,0,0.711,0,1.082-0.016
			c6.301-0.303,12.087-3.135,16.321-7.777l0.021,0.023l0.243-0.311l0.099-0.105c4.218-4.87,6.429-11.323,6.142-17.737
			L406.511,323.567z M381.837,230.274c0.13-0.295,0.478-0.447,0.788-0.31l0.015,0.015c0.319,0.15,0.432,0.537,0.296,0.849
			c-0.105,0.212-0.205,0.408-0.311,0.584c-2.445,4.126-8.573,3.749-13.019,3.361l-1.41-0.106c-2.073-0.158-4.217-0.371-6.293-0.242
			c-1.718,0.099-3.823,0.493-4.513,2.287c-0.122,0.318-0.47,0.501-0.781,0.355c-0.317-0.121-0.477-0.5-0.354-0.818
			c0.12-0.371,0.304-0.711,0.536-1.028c0.108-0.054,0.19-0.114,0.258-0.206c2.356-2.347,8.194-1.636,11.224-1.394h0.016h0.053
			l1.266,0.106c3.954,0.341,10.179,0.733,12.004-3.021C381.686,230.578,381.753,230.435,381.837,230.274z M367.229,193.303
			c0.778-0.258,1.574-0.47,2.377-0.614c3.757-0.711,7.565-0.158,11.209,1.099c0.62,0.629,1.227,1.295,1.809,1.962
			c4.014,4.619,6.833,10.08,4.084,16.328c-0.379,0.861-0.843,1.695-1.343,2.506c-0.635,1.054-1.347,2.067-2.044,3.083l-0.697,1
			c-2.286,3.324-4.422,6.838-3.34,11.041c-1.286,2.075-6.746,1.682-9.678,1.433l-1.083-0.1h-0.068
			c-3.552-0.287-8.504-0.817-11.723,1.039c-1.583-4.734,2.696-10.755,5.172-14.52c1.758-2.681,4.378-6.43,4.787-9.648
			c0.667-5.361-4.635-7.21-8.913-8.035C360.374,196.983,363.502,194.567,367.229,193.303z M323.281,206.798l1.673,0.037
			c4.794,0.105,9.603,0.092,14.389,0.016c-4.921,3.09-9.693,6.422-14.389,9.854c-0.887,0.643-1.764,1.288-2.644,1.938
			L323.281,206.798z M143.391,237.068c-0.303,0.145-0.667-0.037-0.781-0.356c-0.705-1.794-2.81-2.188-4.506-2.286
			c-2.097-0.13-4.233,0.075-6.316,0.242l-1.394,0.106c-2.105,0.182-4.582,0.363-6.876,0.075c-2.764-0.363-5.241-1.416-6.452-4.021
			c-0.152-0.302-0.023-0.697,0.28-0.848c0.317-0.151,0.673-0.015,0.811,0.294c0.076,0.161,0.159,0.306,0.227,0.434
			c0.917,1.863,2.894,2.704,5.135,3.038c2.294,0.339,4.87,0.151,6.876-0.016l1.257-0.106h0.037h0.016l0,0
			c3.036-0.244,8.884-0.954,11.232,1.393c0.083,0.092,0.158,0.153,0.265,0.206c0.235,0.317,0.408,0.657,0.546,1.029
			C143.869,236.568,143.717,236.947,143.391,237.068z M133.318,207.911c0.401,3.219,3.03,6.96,4.786,9.648
			c2.469,3.765,6.749,9.785,5.166,14.52c-3.227-1.857-8.179-1.326-11.747-1.039h-0.06l-1.069,0.1
			c-1.847,0.15-4.695,0.369-6.876-0.009c-1.287-0.227-2.317-0.649-2.803-1.424c1.189-4.627-1.53-8.428-4.029-12.041
			c-1.265-1.796-2.514-3.599-3.399-5.597c-3.151-7.148,1-13.276,5.898-18.281c1.409-0.493,2.871-0.879,4.333-1.114
			c2.294-0.386,4.59-0.409,6.876,0.015c0.789,0.146,1.591,0.356,2.372,0.615c3.725,1.264,6.853,3.68,9.45,6.572
			C137.945,200.701,132.629,202.55,133.318,207.911z M170.434,213.395c-3.21-2.265-6.466-4.46-9.792-6.542
			c3.272,0.045,6.521,0.075,9.792,0.045c2.091-0.016,4.189-0.045,6.279-0.099l0.969,11.845
			C175.29,216.863,172.874,215.106,170.434,213.395z M363.199,124.363l-4.272,4.037l0.009,0.015c-0.979,1.037-1.532,2.4-1.605,3.824
			v0.039c-0.047,1.49,0.462,2.99,1.431,4.134l0.228,0.295l0.022-0.007c1.009,1.016,2.318,1.62,3.749,1.689
			c1.455,0.076,2.901-0.463,3.983-1.432l0.099-0.098l2.765-2.592l1.25-1.203l13.283,15.07l-19.417,18.388l-13.283-15.07l4.921-4.651
			v-0.021c0.924-0.947,1.486-2.197,1.622-3.514h0.007l0.016-0.363c0.076-1.485-0.416-2.977-1.372-4.121l-0.219-0.233
			c-0.78-0.849-1.817-1.447-2.953-1.688c-0.288-0.047-0.561-0.084-0.842-0.092c-1.483-0.084-2.923,0.439-4.02,1.416l-4.151,3.931
			l-0.673,0.637l-4.507-5.135l-0.021,0.016c-0.979-1.008-2.287-1.62-3.71-1.682c-0.038,0-0.077,0-0.106,0
			c-1.417-0.038-2.812,0.483-3.872,1.423l-0.349,0.318l0.023,0.008c-1.008,1.046-1.567,2.423-1.635,3.871
			c-0.062,1.43,0.392,2.877,1.294,4.006v0.016l4.5,5.111l-4.954,4.694v0.007c-0.969,1.038-1.546,2.408-1.599,3.841l-0.023,0.044
			c-0.037,1.47,0.44,2.961,1.396,4.098l0.182,0.205c0.999,1.084,2.371,1.734,3.847,1.817c1.463,0.054,2.909-0.462,3.984-1.433
			l0.12-0.105l4.711-4.46l1.395,1.597l11.86,13.474l-18.941,17.948l-13.269-15.069l0.855-0.796l3.379-3.211v-0.015
			c0.999-1.038,1.567-2.424,1.628-3.87c0.054-1.447-0.409-2.886-1.311-4.021l0.015-0.008l-0.265-0.296
			c-0.803-0.863-1.833-1.468-2.991-1.711c-0.153-0.023-0.31-0.046-0.455-0.077c-0.136-0.014-0.265-0.021-0.394-0.021
			c-1.439-0.076-2.84,0.416-3.908,1.34l-0.007-0.016l-0.81,0.78l-3.401,3.22l-11.618-13.201l46.772-44.304L363.199,124.363z
			 M349.802,100.198c0.176-0.137,0.394-0.206,0.605-0.206c0.234,0.015,0.453,0.106,0.621,0.272l3.073,3.5
			c0.13,0.182,0.214,0.416,0.198,0.658c-0.015,0.235-0.091,0.47-0.251,0.645l-88.833,84.139h-9.383L349.802,100.198z
			 M271.448,189.206h-1.15h-1.159l1.159-1.083l0.446-0.425C270.964,188.199,271.215,188.698,271.448,189.206z M253.667,187.547
			l-1.741,1.659h-1.856h-1.993l-1.75-1.659c3.501-12.768,2.204-25.408-2.628-37.396c-0.584-1.454-1.219-2.886-1.916-4.317h16.429
			c-0.682,1.432-1.325,2.879-1.909,4.324C251.447,162.139,250.175,174.779,253.667,187.547z M232.377,145.833h6.603h0.114
			c1.955,3.945,3.507,7.998,4.604,12.148c2.387,8.922,2.695,18.205,0.416,27.476l-0.416-0.401l-4.719-4.445l-5.634-5.348
			C235.368,165.63,234.892,155.331,232.377,145.833z M256.302,157.981c1.105-4.135,2.658-8.203,4.604-12.148h0.106h6.612
			c-2.514,9.498-2.99,19.797-0.984,29.43l-5.627,5.341l-4.711,4.452l-0.423,0.401C253.591,176.195,253.909,166.91,256.302,157.981z
			 M280.453,95.252c0.037-0.022,0.068-0.03,0.099-0.068c0.938-0.803,1.182-2.324,1.182-3.522V91.54v-0.075
			c0-0.545,0.076-1.144,0.355-1.62c0.175-0.25,0.4-0.477,0.644-0.674c0.136-0.115,0.271-0.221,0.416-0.303
			c0.409-0.273,0.561-0.788,0.327-1.228v-0.022l-0.023-0.053c-0.022-0.031,0.007,0.015-0.022-0.039l-0.015-0.029l-0.023-0.061
			c-0.037-0.121-0.075-0.272-0.075-0.408v-0.062c0.008-0.477,0.113-0.954,0.296-1.401c0.021-0.068,0.061-0.136,0.106-0.205
			c0.036-0.098,0.066-0.174,0.128-0.256c0.113,0.991,0.379,1.99,0.629,2.952c0.63,2.438,1.219,4.9,0.553,7.399h-2.295h-2.566
			C280.272,95.396,280.363,95.327,280.453,95.252z M241.456,50.108v-3.832h6.771v-7.014h3.659v7.014h6.779v3.832h-6.779v11.436
			c-0.611-0.061-1.211-0.092-1.816-0.1h-0.016c-0.607,0-1.222,0.037-1.827,0.1V50.108H241.456z M243.698,65.694
			c1.932-1.068,4.332-1.516,6.357-1.516h0.014c1.985,0,4.347,0.432,6.232,1.454c0.689,0.364,1.303,0.804,1.85,1.34
			c-0.621-0.167-1.227-0.31-1.85-0.438c-2.051-0.409-4.141-0.644-6.232-0.644h-0.067c-2.122,0-4.243,0.22-6.304,0.644
			c-0.567,0.121-1.149,0.25-1.711,0.394C242.479,66.437,243.07,66.034,243.698,65.694z M229.695,76.812
			c2.727-2.522,5.862-4.59,9.284-6.006c1.516-0.621,3.092-1.137,4.719-1.484c2.015-0.461,4.127-0.697,6.303-0.697h0.068
			c2.158,0,4.227,0.244,6.232,0.697c1.613,0.348,3.189,0.863,4.71,1.484c3.417,1.416,6.567,3.483,9.286,6.006
			c0.78,0.719,1.514,1.477,2.234,2.271c3.014,3.385,5.429,7.406,7.042,11.775c-0.008,0.197-0.008,0.395-0.008,0.606v0.304
			c0,0.559-0.084,1.537-0.462,1.924c-0.499-0.448-0.582-1.606-0.567-2.228l0,0c0-1.219-0.456-2.362-1.266-3.278
			c-0.128-0.152-0.271-0.303-0.407-0.425c0.014-0.145,0.044-0.288,0.062-0.409h0.006v-0.326c0-1.4-0.961-2.295-1.939-3.143
			c-0.25-0.213-1.015-0.848-1.035-1.174c-0.009-0.561-0.517-0.955-1.039-0.97c-0.137-0.009-0.257,0.015-0.385,0.061
			c-0.401,0.121-0.729,0.462-0.751,0.909c-0.009,0.326-0.772,0.961-1.021,1.174c-0.167,0.145-0.312,0.287-0.462,0.424
			c-0.78,0.727-1.478,1.545-1.478,2.719c0,0.242,0.015,0.492,0.09,0.734c-0.325,0.272-0.604,0.598-0.839,0.962
			c-0.076,0.114-0.152,0.228-0.213,0.341c-0.409,0.728-0.629,1.537-0.629,2.355v0.188c0.01,0.788-0.242,1.614-0.999,1.97v0.008
			c-0.233,0.099-0.477,0.158-0.705,0.158c-0.234,0-0.476-0.053-0.695-0.15c-0.729-0.342-1.001-1.121-1.016-1.879
			c0.015-0.084,0.015-0.174,0.015-0.266c0-1.203-0.462-2.348-1.249-3.264c-0.137-0.151-0.273-0.303-0.425-0.424
			c0.053-0.243,0.075-0.485,0.075-0.727v-0.008c0-1.054-0.537-1.811-1.22-2.484c-0.242-0.221-0.476-0.439-0.726-0.658
			c-0.242-0.213-1.031-0.849-1.031-1.175c-0.021-0.561-0.508-0.954-1.051-0.97c-0.563-0.008-1.106,0.387-1.106,0.97
			c-0.023,0.249-0.47,0.696-0.796,0.978l-0.234,0.197c-0.983,0.848-1.962,1.741-1.962,3.143c0,0.242,0.023,0.492,0.091,0.734
			c-0.317,0.272-0.604,0.598-0.824,0.962c-0.084,0.114-0.166,0.228-0.221,0.341c-0.408,0.728-0.629,1.522-0.629,2.348l-0.029,0.204
			l0.029,0.03c-0.029,0.864-0.514,1.515-1.325,1.834c-0.37,0.121-0.733,0.189-1.112,0.196l-0.016-0.007
			c-0.378,0.007-0.76-0.054-1.114-0.189c-0.925-0.319-1.485-1.038-1.485-2.023c0-1.211-0.453-2.354-1.249-3.271
			c-0.13-0.151-0.28-0.303-0.425-0.425c0.031-0.145,0.054-0.287,0.074-0.409h0.016v-0.325c0-1.401-0.982-2.295-1.961-3.143
			l-0.228-0.197c-0.325-0.281-0.78-0.72-0.794-0.97c-0.023-0.569-0.509-0.962-1.045-0.978c-0.561-0.008-1.1,0.387-1.13,0.97
			c0,0.326-0.78,0.962-1.03,1.175c-0.227,0.219-0.483,0.438-0.719,0.658c-0.658,0.674-1.22,1.431-1.22,2.484
			c0,0.241,0.031,0.491,0.1,0.734c-0.327,0.279-0.615,0.598-0.856,0.961c-0.069,0.115-0.136,0.229-0.22,0.341
			c-0.41,0.735-0.606,1.544-0.606,2.401V91.6l0.008,0.113c-0.008,0.749-0.289,1.546-1.03,1.886
			c-0.212,0.092-0.447,0.145-0.682,0.145c-0.235,0-0.469-0.061-0.667-0.15c-0.78-0.364-1.053-1.205-1.038-1.992v-0.023v-0.008
			v-0.083v-0.022c0-1.219-0.462-2.363-1.264-3.279c-0.13-0.151-0.266-0.303-0.417-0.424c0.038-0.145,0.051-0.289,0.068-0.41h0.022
			v-0.324c0-1.175-0.682-1.992-1.485-2.72c-0.15-0.136-0.316-0.279-0.46-0.423c-0.251-0.213-1.016-0.849-1.032-1.167
			c-0.022-0.568-0.514-0.962-1.06-0.977c-0.56-0.009-1.098,0.386-1.113,0.97c-0.007,0.326-0.788,0.961-1.037,1.174
			c-0.955,0.848-1.939,1.741-1.939,3.143c0,0.243,0.03,0.492,0.075,0.735c-0.303,0.272-0.583,0.598-0.826,0.962
			c-0.076,0.113-0.151,0.227-0.212,0.34c-0.41,0.734-0.644,1.545-0.644,2.394v0.083c0,0.605-0.075,1.703-0.553,2.144
			c-0.4-0.417-0.468-1.493-0.468-2.007v-0.1v-0.029c0-0.03,0-0.061,0-0.084c0-0.211,0-0.408-0.015-0.605
			C222.411,85.475,225.613,80.62,229.695,76.812z M269.404,91.541v-0.167c0.009-0.484,0.136-0.962,0.378-1.395
			c0.046-0.074,0.09-0.144,0.136-0.211c0.107-0.174,0.243-0.326,0.38-0.471c0.15-0.166,0.326-0.317,0.516-0.431
			c0.407-0.28,0.567-0.817,0.332-1.272l-0.03-0.039c0-0.008-0.015-0.021-0.015-0.029l-0.022-0.037l-0.017-0.054
			c-0.053-0.121-0.082-0.266-0.082-0.409c0-0.628,0.863-1.31,1.271-1.682l0.281-0.242c0.112-0.105,0.242-0.219,0.331-0.325
			c0.222,0.189,0.418,0.378,0.646,0.567c0.409,0.371,1.264,1.053,1.264,1.682v0.008c0,0.098-0.016,0.189-0.045,0.287l-0.009,0.067
			l0,0c-0.037,0.076-0.061,0.159-0.104,0.22c-0.266,0.47-0.077,1.008,0.363,1.288c0.097,0.075,0.204,0.144,0.303,0.228
			c0.113,0.105,0.204,0.204,0.31,0.311c0.471,0.567,0.765,1.264,0.765,2.021c-0.007,1.28,0.295,2.916,1.349,3.764
			c0.106,0.084,0.233,0.158,0.34,0.235h-11.025c0.037-0.022,0.104-0.054,0.157-0.075l0.053-0.023
			c1.477-0.719,2.183-2.182,2.183-3.787L269.404,91.541z M256.469,87.687v-0.092l-0.066-0.045v-0.016l-0.03-0.037v-0.031
			l-0.017-0.03c-0.022-0.053-0.046-0.145-0.054-0.228c-0.007-0.053-0.021-0.113-0.021-0.182c0-0.053,0.015-0.107,0.021-0.159
			c0.123-0.575,0.849-1.182,1.258-1.522c0.204-0.189,0.409-0.378,0.621-0.567c0.189,0.189,0.409,0.378,0.613,0.567
			c0.432,0.371,1.272,1.053,1.272,1.682v0.083c0,0.061-0.022,0.137-0.036,0.213l-0.032,0.067v0.008
			c-0.014,0.068-0.052,0.152-0.083,0.213c-0.257,0.469-0.084,1.007,0.364,1.287c0.106,0.076,0.204,0.145,0.295,0.234
			c0.112,0.099,0.211,0.197,0.311,0.303c0.03,0.047,0.083,0.1,0.128,0.145c0.41,0.537,0.629,1.189,0.629,1.879
			c0,0.053,0,0.098,0,0.158c-0.015,0.061,0,0.068,0,0.129c0,1.576,0.75,2.969,2.242,3.65c0.037,0.023,0.091,0.045,0.136,0.061
			h-12.405c0.137-0.037,0.273-0.09,0.402-0.137c1.703-0.658,2.732-2.045,2.68-3.869v-0.009c0-0.514,0.131-1.021,0.388-1.462
			c0.029-0.074,0.067-0.136,0.128-0.211c0.234-0.355,0.553-0.667,0.902-0.901c0.066-0.053,0.135-0.106,0.188-0.158
			C256.561,88.429,256.635,88.035,256.469,87.687z M238.337,91.45c0-0.521,0.129-1.016,0.395-1.469
			c0.045-0.076,0.082-0.145,0.119-0.213c0.062-0.068,0.1-0.137,0.129-0.189c0.236-0.279,0.494-0.516,0.773-0.711
			c0.425-0.288,0.576-0.833,0.334-1.273l-0.023-0.015c-0.014-0.015-0.023-0.03-0.029-0.061l-0.017-0.022
			c0-0.023,0-0.031-0.014-0.061c-0.054-0.121-0.069-0.266-0.069-0.408c0-0.629,0.841-1.311,1.271-1.683
			c0.19-0.188,0.417-0.378,0.607-0.567c0.213,0.189,0.425,0.379,0.621,0.567c0.408,0.341,1.128,0.939,1.264,1.522
			c0.017,0.053,0.017,0.106,0.017,0.16v0.037v0.008c0,0.053-0.017,0.099-0.017,0.167v0.022l-0.053,0.129v0.037
			c-0.022,0.046-0.053,0.121-0.083,0.175c-0.204,0.386-0.137,0.81,0.136,1.105c0.053,0.061,0.137,0.129,0.213,0.181
			c0.113,0.061,0.221,0.152,0.303,0.236c0.113,0.105,0.228,0.204,0.303,0.311c0.492,0.568,0.78,1.264,0.78,2.029
			c0.015,1.871,1.128,3.264,2.87,3.885c0.107,0.03,0.213,0.068,0.326,0.105h-12.519c0.037-0.015,0.083-0.037,0.136-0.061
			c1.5-0.682,2.241-2.112,2.241-3.719V91.64v-0.105L238.337,91.45z M225.364,87.595c-0.038-0.075,0.016,0.008-0.038-0.068v-0.023
			c0-0.029-0.023-0.037-0.029-0.045c-0.053-0.145-0.07-0.288-0.07-0.432c0-0.629,0.842-1.311,1.28-1.682
			c0.206-0.189,0.41-0.378,0.599-0.567c0.212,0.189,0.425,0.378,0.629,0.567c0.425,0.371,1.28,1.053,1.28,1.682v0.061l0,0
			c0,0.076-0.03,0.152-0.046,0.228l-0.03,0.114c-0.015,0.045-0.061,0.121-0.075,0.174c-0.272,0.462-0.091,1.008,0.349,1.272
			c0.106,0.075,0.204,0.166,0.317,0.249c0.039,0.061,0.122,0.121,0.167,0.167s0.075,0.099,0.136,0.144
			c0.485,0.561,0.758,1.257,0.766,2.015l-0.007,0.075v0.076c-0.009,1.605,0.711,3.082,2.233,3.779
			c0.053,0.023,0.113,0.053,0.167,0.075h-11.034c0.099-0.075,0.219-0.151,0.341-0.235c1.021-0.84,1.34-2.415,1.34-3.68l0.007-0.22
			c0-0.47,0.136-0.932,0.364-1.341c0.061-0.075,0.09-0.144,0.151-0.212c0.227-0.356,0.537-0.667,0.909-0.901
			C225.478,88.58,225.629,88.035,225.364,87.595z M215.503,88.057c0.257-0.962,0.537-1.962,0.651-2.961
			c0.34,0.583,0.523,1.257,0.523,1.931v0.068c-0.017,0.068-0.017,0.145-0.031,0.22l-0.037,0.075v0.046
			c-0.031,0.054-0.053,0.114-0.083,0.175c-0.25,0.469-0.083,1.008,0.348,1.287c0.129,0.076,0.257,0.166,0.379,0.271
			c0.25,0.19,0.484,0.41,0.644,0.675c0.288,0.478,0.37,1.06,0.37,1.62c0,0.047,0.008,0,0.008,0.031l-0.008,0.145v0.006
			c-0.023,1.221,0.25,2.804,1.266,3.605c0.099,0.076,0.196,0.145,0.295,0.205h-4.846C214.307,92.957,214.882,90.495,215.503,88.057z
			 M215.602,97.213h68.797c0.554,0.97,1.069,1.962,1.509,2.985c-0.599,0.855-0.961,1.869-0.961,2.931v0.317h0.022
			c0,0.113,0.013,0.213,0.061,0.318c-0.433,0.318-0.826,0.658-1.137,1.082c-0.371,0.531-0.576,1.115-0.673,1.734
			c-0.101-0.453-0.251-0.894-0.486-1.286c-0.047-0.083-0.091-0.159-0.151-0.251l-0.038-0.045c-0.054-0.091-0.127-0.182-0.204-0.279
			c-0.25-0.342-0.56-0.652-0.895-0.924c0.046-0.213,0.075-0.455,0.075-0.667c0-1.439-1.178-2.333-2.217-3.121
			c-0.213-0.159-1.105-0.81-1.13-1.075c-0.022-0.658-0.704-1.022-1.308-1.022c-0.554,0.017-1.199,0.401-1.214,1.031
			c-0.029,0.272-0.91,0.908-1.136,1.067c-0.755,0.576-1.598,1.213-1.983,2.068c-0.145,0.317-0.234,0.666-0.234,1.053v0.316h0.03
			c0,0.114,0.022,0.229,0.06,0.35c-0.149,0.121-0.295,0.25-0.446,0.394l-0.047,0.045c-0.839,0.849-1.37,1.938-1.385,3.151v0.029
			c0,0.486-0.046,1.236-0.212,1.85c-0.06,0.219-0.136,0.438-0.227,0.59c-0.372-0.613-0.455-1.651-0.477-2.295v-0.447l0,0
			c-0.061-0.742-0.312-1.43-0.721-2.052c-0.067-0.114-0.15-0.228-0.233-0.341c-0.258-0.34-0.568-0.651-0.909-0.924
			c0.052-0.211,0.083-0.455,0.083-0.666c0-1.439-1.181-2.332-2.22-3.121c-0.211-0.158-1.12-0.81-1.12-1.074
			c-0.045-0.658-0.712-1.023-1.303-1.023c-0.583,0.016-1.22,0.402-1.22,1.031c-0.03,0.219-0.613,0.675-0.938,0.932l-0.205,0.136
			c-1.029,0.789-2.211,1.683-2.211,3.12v0.318h0.016c0.021,0.113,0.037,0.227,0.067,0.349c-0.151,0.121-0.311,0.257-0.447,0.394
			l-0.053,0.045c-0.841,0.863-1.387,1.97-1.387,3.188l0.016,0.146c-0.016,0.537-0.054,1.249-0.22,1.84
			c-0.152-0.591-0.188-1.303-0.188-1.85v-0.446h-0.03c-0.017-0.204-0.039-0.394-0.07-0.567c-0.121-0.529-0.332-1.029-0.627-1.484
			c-0.076-0.113-0.152-0.228-0.229-0.341c-0.271-0.341-0.574-0.651-0.924-0.924c0.061-0.212,0.091-0.454,0.091-0.667
			c0-1.439-1.188-2.332-2.22-3.12c-0.219-0.159-1.127-0.81-1.127-1.075c-0.023-0.62-0.629-0.978-1.197-1.023h-0.105
			c-0.579,0.017-1.207,0.387-1.238,1.023c-0.008,0.266-0.9,0.916-1.127,1.075c-1.022,0.789-2.22,1.683-2.22,3.12v0.045l0.015,0.016
			c0,0.205,0.017,0.41,0.084,0.606c-0.166,0.121-0.31,0.257-0.446,0.394c-0.023,0.016-0.03,0.03-0.054,0.045
			c-0.637,0.645-1.09,1.432-1.279,2.295c-0.076,0.297-0.098,0.591-0.098,0.893v0.146c0,0.537-0.047,1.249-0.205,1.839
			c-0.158-0.59-0.205-1.302-0.205-1.849v-0.446h-0.022c-0.054-0.742-0.303-1.431-0.704-2.052c-0.068-0.113-0.152-0.229-0.242-0.341
			c-0.258-0.341-0.569-0.651-0.91-0.924c0.061-0.212,0.084-0.454,0.084-0.667c0-1.439-1.182-2.332-2.219-3.12l-0.197-0.144
			c-0.326-0.257-0.924-0.719-0.924-0.932c-0.021-0.658-0.705-1.023-1.302-1.023c-0.576,0.016-1.197,0.387-1.235,1.023
			c-0.015,0.266-0.908,0.916-1.12,1.074c-1.031,0.789-2.22,1.682-2.22,3.121v0.317h0.023c0,0.114,0.031,0.228,0.068,0.349
			c-0.151,0.121-0.303,0.258-0.462,0.4c-0.015,0.008-0.022,0.023-0.03,0.038c-0.863,0.862-1.386,1.97-1.386,3.188l0.008,0.145
			c-0.008,0.629-0.106,1.697-0.455,2.301c-0.113-0.166-0.188-0.377-0.25-0.604c-0.159-0.569-0.205-1.25-0.227-1.704v-0.447l0,0
			c-0.067-0.742-0.304-1.432-0.711-2.053c-0.083-0.113-0.167-0.227-0.243-0.34c-0.258-0.34-0.569-0.652-0.902-0.924
			c0.053-0.212,0.083-0.455,0.083-0.666c0-1.439-1.19-2.333-2.219-3.121c-0.219-0.159-1.113-0.811-1.128-1.076
			c-0.038-0.658-0.705-1.021-1.302-1.021c-0.576,0.016-1.198,0.387-1.228,1.021c-0.015,0.267-0.908,0.917-1.128,1.076
			c-1.03,0.789-2.219,1.682-2.219,3.121v0.045v0.016c0.007,0.203,0.045,0.408,0.075,0.613c-0.15,0.113-0.304,0.242-0.431,0.386
			c-0.023,0.015-0.039,0.03-0.062,0.045c-0.311,0.326-0.568,0.683-0.803,1.062c-0.22,0.393-0.378,0.832-0.469,1.271
			c-0.099-0.629-0.31-1.189-0.689-1.721c-0.304-0.424-0.706-0.779-1.114-1.082c0.053-0.212,0.068-0.424,0.068-0.635v-0.326l0,0
			c-0.038-0.356-0.091-0.713-0.205-1.053c-0.083-0.281-0.189-0.562-0.326-0.834c-0.113-0.258-0.264-0.492-0.416-0.727
			C214.542,99.175,215.049,98.183,215.602,97.213z M211.3,104.157c0.272-0.9,0.576-1.817,0.697-2.756
			c0.069,0.099,0.129,0.205,0.182,0.318c0.092,0.166,0.174,0.348,0.206,0.53c0.083,0.249,0.113,0.492,0.136,0.733v0.146
			c0,0.113-0.024,0.228-0.054,0.333l-0.023,0.021l-0.03,0.069l-0.053,0.083c-0.317,0.484-0.091,1.068,0.379,1.35
			c0.424,0.25,0.886,0.544,1.166,0.938c0.318,0.439,0.401,0.984,0.401,1.499v0.327h0.008c0.023,1.158,0.204,2.801,0.9,3.673
			c0.387,0.499,0.916,0.765,1.545,0.765c0.173,0,0.34-0.008,0.493-0.054c0.424-0.105,0.78-0.355,1.061-0.711
			c0.696-0.872,0.87-2.515,0.894-3.673l0,0v-0.327c0-0.703,0.318-1.347,0.81-1.847c0.015-0.008,0.015-0.023,0.045-0.039
			c0.091-0.09,0.19-0.189,0.296-0.264l0.03-0.031c0.121-0.082,0.22-0.158,0.356-0.228h-0.03c0.522-0.265,0.787-0.854,0.438-1.378
			c-0.03-0.053-0.067-0.129-0.091-0.205l-0.014-0.037c-0.032-0.061-0.04-0.129-0.047-0.189l0.007-0.074
			c0-0.569,0.986-1.258,1.386-1.576c0.236-0.166,0.47-0.34,0.69-0.53c0.22,0.19,0.453,0.364,0.682,0.53
			c0.394,0.317,1.408,1.007,1.408,1.576c0,0.113-0.038,0.227-0.083,0.332l-0.022,0.092l-0.076,0.084
			c-0.326,0.483-0.091,1.066,0.394,1.348c0.379,0.228,0.727,0.515,1,0.871c0.046,0.053,0.089,0.113,0.136,0.196
			c0.251,0.371,0.394,0.803,0.417,1.249v0.266c0.022,1.333,0.325,3.082,1.371,4.014c0.379,0.342,0.872,0.553,1.385,0.606
			c0.076,0,0.16,0,0.25,0c0.607,0,1.159-0.213,1.622-0.606c1.007-0.886,1.31-2.529,1.355-3.832h0.007v-0.326
			c0-0.704,0.303-1.34,0.803-1.848c0-0.008,0.023-0.023,0.045-0.046c0.106-0.106,0.205-0.196,0.325-0.294
			c0.106-0.084,0.22-0.16,0.326-0.229c0.516-0.257,0.773-0.847,0.447-1.37c-0.046-0.053-0.076-0.129-0.113-0.205v-0.037
			c-0.031-0.068-0.038-0.137-0.053-0.205v-0.061c0-0.568,1-1.258,1.401-1.576c0.228-0.166,0.454-0.34,0.673-0.529
			c0.234,0.189,0.455,0.363,0.697,0.529c0.401,0.318,1.38,1.008,1.38,1.576c0,0.129-0.023,0.258-0.062,0.371l-0.046,0.084
			l-0.03,0.053c-0.319,0.453-0.137,0.977,0.257,1.279c0.046,0.03,0.076,0.045,0.113,0.068c0.387,0.228,0.72,0.516,0.992,0.871
			c0.053,0.053,0.098,0.113,0.151,0.196c0.242,0.372,0.394,0.803,0.415,1.249v0.267c0.024,1.249,0.259,3.021,1.16,3.944
			c0.426,0.447,0.977,0.674,1.584,0.674c0.098,0,0.203,0,0.302-0.008c0.493-0.068,0.917-0.295,1.28-0.666
			c0.871-0.879,1.112-2.521,1.144-3.764h0.016v-0.326c0-0.704,0.302-1.34,0.796-1.848c0.007,0,0.014-0.016,0.045-0.045
			c0.105-0.107,0.219-0.197,0.341-0.295c0.106-0.084,0.212-0.152,0.317-0.229c0.508-0.258,0.779-0.848,0.439-1.371
			c-0.046-0.053-0.076-0.13-0.105-0.205v-0.03c-0.031-0.067-0.045-0.144-0.045-0.212v-0.06c0-0.569,0.977-1.259,1.385-1.576
			c0.237-0.167,0.463-0.341,0.691-0.53l0.068,0.061c0.196,0.151,0.4,0.318,0.605,0.47c0.4,0.317,1.402,1.007,1.402,1.576
			c0,0.128-0.024,0.241-0.084,0.37l-0.031,0.084l-0.037,0.045c-0.326,0.492-0.107,1.068,0.371,1.355
			c0.393,0.229,0.734,0.516,0.998,0.871c0.054,0.053,0.092,0.113,0.146,0.197c0.265,0.393,0.416,0.84,0.416,1.325v0.037v0.008
			c0,0.046,0,0.075,0.022,0.106c0,1.242,0.213,3.051,1.145,3.984c0.349,0.363,0.795,0.59,1.278,0.666
			c0.1,0.007,0.207,0.007,0.305,0.007c0.62,0,1.156-0.228,1.575-0.673c0.915-0.924,1.15-2.696,1.157-3.945v-0.146
			c0-0.703,0.318-1.347,0.804-1.854l0.038-0.031c0.105-0.098,0.219-0.204,0.348-0.302c0.106-0.084,0.205-0.16,0.326-0.229
			l0.122-0.045l0.006-0.031l0.03-0.014c0.41-0.305,0.562-0.826,0.274-1.266c-0.046-0.067-0.075-0.151-0.113-0.22v-0.037
			c-0.03-0.061-0.037-0.136-0.046-0.19l0.009-0.074c0-0.568,0.983-1.258,1.377-1.576c0.243-0.166,0.477-0.34,0.697-0.529
			c0.204,0.189,0.446,0.363,0.674,0.529c0.409,0.318,1.407,1.008,1.407,1.576c0,0.113-0.038,0.227-0.074,0.34l-0.062,0.114
			l-0.03,0.046c-0.326,0.492-0.106,1.066,0.378,1.355c0.388,0.228,0.743,0.515,0.993,0.871c0.054,0.061,0.106,0.129,0.15,0.196
			c0.242,0.371,0.394,0.796,0.409,1.249v0.447h0.015c0.053,1.227,0.312,2.725,1.159,3.642c0.476,0.516,1.114,0.796,1.84,0.796
			c0.067,0,0.151,0,0.229,0c0.515-0.053,0.992-0.264,1.393-0.605c0.362-0.318,0.638-0.75,0.841-1.212
			c0.386-0.917,0.5-2.001,0.5-2.901v-0.023c0-0.727,0.324-1.369,0.817-1.877l0.045-0.031c0.091-0.09,0.189-0.189,0.281-0.264
			l0.037-0.031c0.12-0.082,0.227-0.166,0.349-0.234l0.136-0.061v-0.017c0.408-0.31,0.584-0.825,0.294-1.279
			c-0.029-0.067-0.076-0.151-0.112-0.228l0,0v-0.008c-0.023-0.083-0.038-0.152-0.046-0.213v-0.074c0-0.568,1.001-1.258,1.409-1.576
			c0.227-0.166,0.439-0.34,0.667-0.529c0.22,0.189,0.455,0.363,0.682,0.529c0.407,0.318,1.395,1.008,1.395,1.576
			c0,0.113-0.008,0.227-0.069,0.34l-0.045,0.115l0,0l-0.03,0.045c-0.341,0.492-0.099,1.067,0.38,1.355
			c0.376,0.229,0.726,0.515,0.983,0.871c0.045,0.053,0.1,0.106,0.136,0.167v0.015c0.257,0.387,0.409,0.811,0.439,1.265v0.447l0,0
			c0.022,1.158,0.212,2.802,0.908,3.673c0.281,0.355,0.637,0.605,1.046,0.711c0.158,0.047,0.332,0.053,0.499,0.053
			c0.636,0,1.166-0.264,1.539-0.764c0.695-0.871,0.876-2.515,0.899-3.673h0.022v-0.327c0-0.514,0.068-1.06,0.395-1.499
			c0.273-0.394,0.736-0.688,1.152-0.938c0.483-0.266,0.717-0.84,0.394-1.333c-0.047-0.067-0.085-0.151-0.122-0.228l0,0v-0.008
			c-0.014-0.083-0.037-0.158-0.037-0.227v-0.061c0-0.622,0.188-1.228,0.517-1.735c0.136,0.938,0.438,1.863,0.703,2.765
			c0.893,2.992,1.62,5.869-0.099,8.739c-0.016,0.015-0.038,0.046-0.046,0.075h-77.113c0-0.031-0.015-0.061-0.03-0.075
			C209.687,110.027,210.407,107.15,211.3,104.157z M208.794,115.366l0.098-0.212h30.088h22.032h30.089l0.092,0.212
			c0.431,0.97,0.795,1.961,1.129,2.969c-0.228,0.387-0.44,0.796-0.613,1.219c-0.062,0.167-0.13,0.318-0.19,0.5
			c-0.325,0.924-0.516,1.916-0.554,2.9h-0.006v0.333c0,0.386,0.044,0.772,0.137,1.151c-0.576,0.523-1.031,1.091-1.388,1.772
			c-0.644,1.19-0.841,2.529-0.841,3.869v0.326h0.009v0.016c0,0.855-0.084,2.636-0.695,3.272c-0.751-0.698-0.865-2.629-0.865-3.599
			l0,0c0-1.765-0.536-3.491-1.583-4.9c-0.204-0.249-0.4-0.493-0.626-0.727l0.013-0.03c0.055-0.272,0.091-0.547,0.107-0.811l0,0
			v-0.342c0-2.014-1.175-3.309-2.492-4.656l0,0c-0.409-0.425-1.38-1.356-1.4-1.955c-0.022-0.696-0.575-1.295-1.279-1.31
			c-0.75-0.022-1.341,0.576-1.371,1.31c-0.009,0.599-0.984,1.529-1.41,1.955c-1.302,1.348-2.483,2.643-2.483,4.656
			c0,0.395,0.038,0.803,0.128,1.182c-0.454,0.455-0.824,0.984-1.156,1.537c-0.085,0.167-0.176,0.342-0.251,0.516
			c-0.509,1.008-0.772,2.113-0.789,3.242h-0.029v0.643h0.029c-0.021,0.447-0.061,0.916-0.188,1.371
			c-0.205,0.711-0.577,1.363-1.229,1.727l-0.014,0.015c-0.28,0.153-0.612,0.243-0.932,0.243h-0.061
			c-0.296-0.007-0.592-0.09-0.849-0.234c-1.098-0.568-1.432-1.939-1.432-3.067c0.016-0.13,0.016-0.243,0.016-0.38v-0.316h-0.016
			c-0.054-1.645-0.592-3.242-1.583-4.568c-0.188-0.249-0.401-0.492-0.63-0.727l0.023-0.03c0.054-0.272,0.092-0.546,0.114-0.81h0.015
			v-0.342c0-2.014-1.197-3.31-2.507-4.656c-0.409-0.426-1.386-1.357-1.416-1.955c-0.016-0.613-0.432-1.159-1.023-1.28
			c-0.098-0.015-0.174-0.03-0.242-0.03c-0.74-0.022-1.348,0.584-1.378,1.311c-0.009,0.598-0.984,1.529-1.394,1.955
			c-0.636,0.656-1.242,1.286-1.697,1.998c-0.483,0.758-0.816,1.613-0.816,2.658c0,0.395,0.061,0.803,0.151,1.182
			c-0.447,0.454-0.841,0.983-1.16,1.537c-0.098,0.166-0.196,0.342-0.257,0.516c-0.492,1.008-0.765,2.113-0.794,3.241h-0.016v0.643
			c-0.037,1.273-0.613,2.386-1.824,2.932c-0.471,0.204-0.97,0.304-1.478,0.312l-0.036-0.008c-0.493,0.008-1.011-0.084-1.465-0.28
			c-1.37-0.568-2.014-1.834-2.014-3.28c0-1.756-0.554-3.476-1.598-4.885c-0.189-0.25-0.402-0.492-0.63-0.727v-0.045
			c0.076-0.266,0.106-0.531,0.122-0.795h0.014v-0.342c0-1.045-0.311-1.9-0.803-2.658c-0.453-0.712-1.053-1.342-1.71-1.998
			c-0.402-0.426-1.364-1.342-1.395-1.948c-0.015-0.704-0.56-1.303-1.28-1.317c-0.098,0-0.204,0-0.332,0.03
			c-0.576,0.137-1.016,0.667-1.03,1.28c-0.016,0.598-1.008,1.529-1.402,1.955c-1.333,1.347-2.506,2.643-2.506,4.656
			c0,0.395,0.046,0.803,0.144,1.182c-0.454,0.454-0.839,0.983-1.157,1.537c-0.092,0.166-0.167,0.342-0.259,0.516
			c-0.484,1.008-0.757,2.113-0.802,3.241l0,0v0.643l0,0v0.038c0,1.136-0.333,2.515-1.416,3.083
			c-0.257,0.151-0.553,0.228-0.856,0.234h-0.052c-0.325,0-0.644-0.083-0.917-0.243c-1.136-0.598-1.439-2.045-1.439-3.227v-0.213
			c0-1.756-0.544-3.475-1.598-4.884c-0.196-0.25-0.393-0.493-0.62-0.728l0.022-0.045c0.053-0.265,0.099-0.53,0.122-0.795h0.007
			v-0.342c0-2.014-1.182-3.309-2.507-4.656c-0.409-0.424-1.377-1.341-1.408-1.947c-0.007-0.703-0.56-1.303-1.288-1.317
			c-0.742-0.022-1.333,0.583-1.348,1.311c-0.023,0.599-1.015,1.529-1.416,1.954l0,0c-1.31,1.348-2.492,2.643-2.492,4.656
			c0,0.395,0.045,0.803,0.137,1.182c-0.448,0.455-0.833,0.984-1.16,1.537c-0.091,0.168-0.189,0.342-0.272,0.517
			c-0.478,1.007-0.742,2.112-0.788,3.241h-0.007v0.643c-0.016,0.984-0.175,2.651-0.849,3.287c-0.62-0.645-0.712-2.447-0.712-3.287
			v-0.117v-0.092c0.016-0.021,0.016-0.061,0.016-0.113c0-1.34-0.19-2.68-0.827-3.869c-0.37-0.683-0.839-1.25-1.394-1.772v-0.015
			c0.068-0.265,0.098-0.531,0.122-0.795h0.007v-0.342c0-1.711-0.478-3.498-1.363-4.952
			C207.998,117.327,208.377,116.336,208.794,115.366z M207.627,143.101c-5.112-5.613-4.483-11.354-2.968-18.281
			c0.363-1.592,0.75-3.229,0.863-4.871c0.583,1.016,0.863,2.211,0.863,3.34v0.121c-0.008,0.137-0.016,0.258-0.053,0.379l-0.03,0.129
			v0.053c-0.039,0.099-0.091,0.204-0.129,0.318c-0.281,0.598-0.114,1.332,0.432,1.711c0.523,0.432,1.045,0.894,1.363,1.516
			c0.41,0.772,0.5,1.711,0.5,2.566c0,0.038,0,0.061,0,0.092v0.174v0.022c-0.007,1.72,0.288,4.159,1.613,5.384
			c0.5,0.455,1.114,0.728,1.796,0.72c0.674-0.007,1.263-0.317,1.727-0.765c1.355-1.28,1.711-3.719,1.719-5.491v-0.257
			c0.006-0.766,0.188-1.537,0.522-2.242c0.068-0.113,0.121-0.227,0.174-0.326c0.326-0.56,0.727-1.045,1.227-1.438l0.007-0.007
			c0.492-0.401,0.644-1.098,0.356-1.674v0.015c-0.053-0.128,0,0-0.039-0.128l-0.023-0.062c-0.007-0.008-0.007-0.038-0.022-0.062
			v-0.014c-0.083-0.243-0.106-0.485-0.106-0.735c0-1.022,1.031-2.044,1.704-2.733c0.287-0.288,0.592-0.59,0.879-0.909
			c0.256,0.319,0.553,0.62,0.847,0.909c0.667,0.689,1.711,1.711,1.711,2.733v0.13c0,0.129-0.015,0.25-0.053,0.37l-0.037,0.13v0.053
			c-0.03,0.098-0.076,0.203-0.137,0.317c-0.279,0.599-0.099,1.317,0.432,1.712h0.016c0.144,0.113,0.272,0.242,0.41,0.379
			c0.15,0.15,0.287,0.311,0.409,0.484c0.696,0.923,1.06,2.052,1.06,3.203v0.128v0.093c-0.03,2.233,0.764,4.535,2.84,5.648
			c0.659,0.364,1.379,0.538,2.121,0.538h0.075c0.712,0,1.432-0.174,2.052-0.522c2.061-1.076,2.878-3.339,2.864-5.536v-0.045
			l-0.008-0.152v-0.228c0.023-0.787,0.196-1.552,0.53-2.271c0.061-0.113,0.129-0.227,0.182-0.326
			c0.312-0.56,0.728-1.045,1.213-1.438c0.507-0.401,0.658-1.099,0.385-1.681v0.015c-0.061-0.128-0.015-0.015-0.045-0.128
			l-0.03-0.062c-0.023-0.053-0.023-0.022-0.023-0.03v-0.008l-0.007-0.037c-0.069-0.243-0.106-0.485-0.106-0.735
			c0-1.022,1.045-2.044,1.704-2.733c0.197-0.182,0.395-0.394,0.574-0.591l0.289-0.318c0.28,0.318,0.574,0.62,0.871,0.909
			c0.666,0.689,1.719,1.711,1.719,2.733v0.13c-0.016,0.129-0.037,0.25-0.068,0.369l-0.023,0.131v0.053
			c-0.045,0.098-0.09,0.203-0.135,0.317c-0.273,0.599-0.107,1.317,0.431,1.712h0.009c0.145,0.113,0.258,0.242,0.408,0.379
			c0.137,0.15,0.287,0.311,0.401,0.484c0.37,0.477,0.644,1.014,0.817,1.582c0.167,0.53,0.228,1.082,0.228,1.636
			c0.022,2.575,1.259,4.794,3.696,5.81c0.758,0.318,1.621,0.484,2.447,0.484h0.068c0.855-0.015,1.719-0.197,2.506-0.553
			c2.29-1.022,3.425-3.135,3.425-5.604v-0.265c0-0.508,0.083-1.021,0.233-1.499c0.07-0.249,0.167-0.493,0.273-0.735
			c0.061-0.113,0.13-0.227,0.183-0.326c0.318-0.56,0.734-1.045,1.212-1.438c0.507-0.386,0.666-1.099,0.386-1.666v-0.015
			c-0.053-0.113,0,0.015-0.045-0.113l-0.031-0.069v-0.022v-0.008l-0.021-0.037c-0.076-0.243-0.114-0.485-0.114-0.735
			c0-1.022,1.045-2.044,1.712-2.733c0.296-0.288,0.583-0.591,0.87-0.909c0.084,0.114,0.182,0.196,0.288,0.304
			c0.175,0.212,0.363,0.424,0.569,0.605c0.672,0.689,1.711,1.711,1.711,2.733v0.13c0,0.129-0.03,0.256-0.054,0.386l-0.021,0.114
			l-0.008,0.037c-0.03,0.105-0.084,0.213-0.137,0.333c-0.271,0.599-0.098,1.317,0.438,1.712c0.145,0.113,0.289,0.242,0.41,0.379
			c0.15,0.15,0.287,0.311,0.425,0.484c0.659,0.895,1.006,1.978,1.044,3.09v0.128c0,0.091,0,0.175,0,0.249
			c-0.008,0.054-0.008,0.093,0,0.131c0,2.195,0.804,4.43,2.849,5.489c0.635,0.35,1.34,0.523,2.06,0.523l0.075,0.007
			c0.742-0.007,1.47-0.182,2.129-0.546l0.03-0.023l0.053-0.021c1.999-1.13,2.771-3.401,2.765-5.604v-0.068l-0.016-0.264
			c0.022-0.781,0.212-1.539,0.546-2.235c0.053-0.114,0.105-0.228,0.174-0.326c0.303-0.56,0.719-1.045,1.213-1.438
			c0.492-0.385,0.658-1.098,0.387-1.666v-0.015c-0.031-0.046-0.047-0.075-0.047-0.114l-0.045-0.068v-0.022v-0.009l-0.023-0.037
			c-0.068-0.242-0.113-0.484-0.113-0.734c0-1.022,1.061-2.045,1.728-2.733c0.287-0.288,0.589-0.591,0.855-0.909
			c0.28,0.318,0.561,0.62,0.856,0.909c0.681,0.69,1.719,1.711,1.719,2.733v0.129c0,0.137-0.023,0.258-0.054,0.387l-0.015,0.113
			l-0.023,0.03c-0.013,0.114-0.074,0.22-0.121,0.341c-0.265,0.574-0.128,1.265,0.364,1.658l0.062,0.053
			c0.158,0.114,0.286,0.244,0.424,0.38c0.151,0.151,0.28,0.311,0.408,0.484c0.689,0.923,1.053,2.052,1.053,3.218
			c-0.015,1.818,0.327,4.318,1.705,5.627c0.476,0.447,1.067,0.743,1.741,0.766c0.688,0.008,1.295-0.265,1.788-0.719
			c0.022-0.023,0.061-0.061,0.099-0.076c1.233-1.257,1.513-3.589,1.513-5.293v-0.167v-0.136c0-0.856,0.1-1.795,0.493-2.566
			c0.334-0.629,0.864-1.123,1.433-1.561c0.491-0.386,0.643-1.105,0.371-1.682l0,0c-0.061-0.113,0,0.015-0.054-0.113l-0.03-0.069
			v-0.022v-0.008l-0.016-0.053c-0.084-0.227-0.113-0.469-0.113-0.719l-0.008-0.145c0.008-0.727,0.159-1.469,0.401-2.165
			c0.045-0.114,0.091-0.228,0.136-0.349c0.091-0.229,0.206-0.454,0.319-0.667c0.137,1.636,0.515,3.279,0.855,4.854
			c1.544,6.929,2.167,12.669-2.946,18.281h-84.743V143.101z M186.884,164.88l-3.325,3.779l-3.4-3.211l-0.856-0.825v0.022
			c-1.083-0.908-2.461-1.386-3.862-1.311c-0.28,0.008-0.568,0.053-0.855,0.099c-1.174,0.243-2.22,0.863-3.021,1.757l-0.092,0.084
			c-0.447,0.521-0.787,1.112-1.038,1.741c-0.295,0.78-0.438,1.62-0.4,2.454c0.031,0.666,0.166,1.317,0.4,1.924
			c0.289,0.757,0.728,1.446,1.318,2.037l0,0l4.127,3.931l-5.446,6.195l-7.809,8.874l-7.087-6.709l-11.867-11.239l11.867-13.472
			l1.394-1.599l4.71,4.453l0.235,0.257l0.03-0.037c1.061,0.893,2.447,1.379,3.84,1.318c1.507-0.076,2.909-0.758,3.916-1.879
			l0.129-0.137c0.242-0.303,0.461-0.637,0.642-0.977c0.516-0.955,0.781-2.029,0.728-3.121v-0.044v-0.007
			c-0.037-0.933-0.279-1.825-0.728-2.621c-0.265-0.484-0.605-0.947-1.014-1.348l-0.091-0.107l-4.718-4.459l4.324-4.908l0.068-0.092
			c0.962-1.143,1.461-2.643,1.394-4.133c-0.068-1.522-0.698-2.971-1.78-4.037l-0.151-0.137c-1.083-0.963-2.484-1.484-3.915-1.446
			c-0.023,0-0.046,0-0.091,0c-1.408,0.062-2.719,0.673-3.711,1.666h-0.007l-4.529,5.135l-0.673-0.637l-4.271-4.052l-0.009,0.023
			c-1.083-0.916-2.467-1.402-3.876-1.318c-0.266,0.008-0.562,0.047-0.842,0.092c-1.149,0.241-2.18,0.84-2.961,1.695l-0.189,0.221
			c-0.985,1.143-1.477,2.642-1.401,4.127l0.015,0.363h0.008c0.136,1.354,0.719,2.627,1.681,3.59v0.016l4.847,4.582l-13.261,15.07
			l-4.885-4.628l-6.876-6.497l-7.657-7.264l7.657-8.693l5.604-6.377l1.271,1.203l2.749,2.592l0.022,0.029
			c1.098,1.015,2.582,1.576,4.06,1.5c1.477-0.068,2.817-0.713,3.839-1.788l0.023,0.009l0.159-0.198
			c0.961-1.127,1.461-2.643,1.401-4.134v-0.031c-0.068-1.483-0.66-2.907-1.712-3.953v-0.007l-4.149-3.923l11.624-13.208l7.127,6.755
			l14.896,14.109l9.724,9.209l6.725,6.377l8.293,7.854L186.884,164.88z M146.004,105.128l-0.046-0.054
			c-0.167-0.167-0.258-0.409-0.265-0.651c-0.007-0.25,0.053-0.493,0.22-0.689l2.999-3.416l0.083-0.084
			c0.159-0.143,0.364-0.227,0.591-0.241c0.227,0,0.461,0.068,0.628,0.212l93.939,89.002h-9.391L146.004,105.128z M230.854,189.206
			h-1.159h-1.159c0.243-0.508,0.479-1.007,0.721-1.507l0.438,0.425L230.854,189.206z M172.404,287.368l-0.008,0.008l-0.077,0.084
			c-0.288,0.234-0.621,0.371-0.969,0.431c-0.167,0.03-0.326,0.037-0.476,0.037c-0.152,0.016-0.289,0-0.44,0
			c-1.029-0.074-2.104-0.483-2.998-0.932l-0.426-0.219l-0.454,0.106c-1.901,0.439-3.619,1.271-5.126,2.543
			c-1.522,1.297-2.673,2.932-3.552,4.704l-0.803,1.637l1.765,0.317l0.053,0.008c0.62,0.105,1.256,0.242,1.886,0.394
			c0.643,0.189,1.272,0.372,1.885,0.614c2.946,1.082,5.582,2.809,7.769,5.021c0.274,0.265,0.516,0.552,0.781,0.833l0.114,0.145
			c3.795,4.331,5.734,10.079,5.468,15.806v0.061c-0.037,0.9-0.136,1.803-0.294,2.695c-0.729,4.552-2.825,8.74-6.068,12.027
			c-0.151,0.167-0.341,0.317-0.485,0.484l-0.157,0.144c-2.749,2.575-6.113,4.37-9.793,5.197c-1.159,0.256-2.341,0.408-3.529,0.453
			c-0.302,0.015-0.621,0.029-0.932,0.029c-5.983-0.014-11.746-2.688-15.706-7.194l-0.092-0.1l-0.098-0.104l-1.666-1.961
			l-0.712,2.028l-0.046,0.129c-0.151,0.44-0.34,0.856-0.514,1.287c-0.197,0.416-0.394,0.842-0.614,1.25
			c-1.113,2.15-2.583,4.104-4.325,5.771l-0.144,0.137c-0.401,0.363-0.788,0.712-1.227,1.06c-2.037,1.628-4.392,2.878-6.876,3.658
			c-2.279,0.719-4.696,1.053-7.111,0.938c-5.59-0.271-10.762-2.779-14.526-6.913h0.016l-0.318-0.332
			c-3.764-4.326-5.71-10.09-5.469-15.823v-0.051c0.046-0.903,0.136-1.796,0.288-2.688c0.781-4.688,2.976-9.021,6.392-12.346l0,0
			l0.34-0.325c0.803-0.743,1.651-1.432,2.537-2.045c0.304-0.205,0.606-0.402,0.933-0.576c1.52-0.953,3.202-1.696,4.944-2.202
			l2.083-0.614l-1.477-1.629l-0.212-0.22l-0.151-0.159l-0.099-0.135c-3.778-4.349-5.726-10.087-5.468-15.813
			c0.242-5.702,2.575-11.102,6.656-15.093l0.023,0.015l0.235-0.242l0.227-0.213l0,0c2.855-2.627,6.392-4.416,10.156-5.165
			c1.614-0.323,3.257-0.446,4.915-0.37c0.651,0.03,1.317,0.091,1.961,0.189c4.848,0.689,9.278,3.089,12.581,6.755v0.016l0.219,0.21
			l0.219,0.273l0.007-0.007c1.016,1.196,1.886,2.484,2.628,3.855c0.265,0.469,0.5,0.953,0.728,1.445
			c1.105,2.476,1.765,5.165,1.939,7.884l0.113,1.863l1.688-0.696c1.817-0.75,3.483-1.812,4.832-3.242l0.189-0.189
			c1.28-1.417,2.172-3.068,2.719-4.886l0.144-0.438l-0.151-0.447l-0.032-0.039c-0.104-0.334-0.218-0.674-0.302-1.014l-0.016-0.038
			c-0.091-0.311-0.144-0.62-0.212-0.94c-0.144-0.982-0.166-2.392,0.615-3.135l0.038-0.045c1.007-0.901,2.863-0.394,3.983,0.045
			c1.022,0.41,2.008,0.985,2.901,1.629c0.083,0.106,0.173,0.197,0.264,0.279c0.615,0.471,1.205,0.969,1.765,1.51
			c0.113,0.112,0.235,0.232,0.333,0.34c0.349,0.333,0.682,0.68,0.993,1.035l0.038,0.03l0.016,0.041
			c0.038,0.021,0.052,0.044,0.068,0.074c0.629,0.713,1.197,1.446,1.734,2.234l0.113,0.166l0.023,0.03
			c0.114,0.166,0.206,0.318,0.312,0.484l0.006,0.008c0.083,0.159,0.189,0.327,0.28,0.485c0.053,0.083,0.105,0.176,0.19,0.258
			c0.022,0.03,0.053,0.053,0.083,0.074c0.538,1.009,0.992,2.067,1.302,3.159C173.063,284.415,173.388,286.399,172.404,287.368z
			 M172.647,276.917c-0.593-0.878-1.25-1.711-1.939-2.499c0,0-1.621-1.712-2.349-2.355l12.694-12.019l0.666,8.264L172.647,276.917z
			 M311.359,315.442c-1.111,13.48-14.964,24.719-28.627,28.983c-3.491,1.099-6.959,1.734-10.2,1.832
			c-0.311,0.016-44.17,0.016-44.17,0.016c-3.492,0-7.278-0.652-11.109-1.848c-13.655-4.265-27.521-15.503-28.612-28.983
			l-1.757-21.394l-8.277-101.708h142.781l-1.553,19.191L311.359,315.442z M318.267,268.308l0.682-8.264l12.686,12.019
			c-0.795,0.682-3.695,3.977-4.279,4.854L318.267,268.308z M403.867,323.825c0.265,5.719-1.681,11.451-5.422,15.776h-0.023
			l-0.129,0.183c-3.771,4.254-9.013,6.838-14.707,7.109c-0.317,0.016-0.643,0.016-0.962,0.016c-4.726,0-9.346-1.666-13.019-4.613
			c-0.439-0.349-0.862-0.718-1.265-1.098l-0.151-0.136c-1.742-1.659-3.188-3.599-4.294-5.734c-0.213-0.407-0.425-0.832-0.598-1.249
			c-0.206-0.431-0.379-0.847-0.53-1.287l-0.038-0.122l-0.712-2.052l-1.484,1.75l-0.189,0.228l-0.099,0.104l-0.076,0.1
			c-3.96,4.505-9.724,7.181-15.721,7.195c-0.304,0-0.614-0.015-0.931-0.03c-1.177-0.044-2.365-0.197-3.532-0.453
			c-3.673-0.827-7.05-2.622-9.799-5.205l-0.135-0.136c-2.227-2.112-3.939-4.643-5.098-7.43c-0.682-1.62-1.181-3.323-1.47-5.081
			c-0.144-0.87-0.241-1.74-0.287-2.627l0,0v-0.13c-0.152-3.355,0.462-6.717,1.757-9.809c0.91-2.18,2.158-4.217,3.734-6.027
			l0.12-0.145c2.333-2.62,5.241-4.627,8.529-5.823c0.612-0.243,1.242-0.425,1.884-0.614c0.628-0.151,1.251-0.288,1.901-0.394
			l1.787-0.325l-0.795-1.637c-0.88-1.771-2.036-3.407-3.552-4.703c-1.491-1.272-3.219-2.104-5.142-2.544l-0.433-0.106l-0.423,0.22
			c-1.03,0.508-2.288,0.97-3.446,0.931c-0.16,0-0.319-0.007-0.471-0.036c-0.354-0.062-0.688-0.197-0.977-0.432l-0.045-0.046
			l-0.069-0.067c-0.945-0.979-0.627-2.939-0.326-4.135c0.319-1.092,0.781-2.15,1.319-3.159c0.037-0.022,0.061-0.045,0.075-0.075
			c0.076-0.083,0.151-0.175,0.188-0.265c0.092-0.151,0.189-0.318,0.282-0.471l0.007-0.009c0.106-0.158,0.204-0.324,0.317-0.49
			l0.022-0.024c0.569-0.848,1.182-1.658,1.848-2.422c0.015-0.016,0.055-0.038,0.069-0.061l0.061-0.078
			c0.312-0.348,0.628-0.694,0.977-1.028c0.106-0.107,0.221-0.228,0.342-0.34c0.567-0.54,1.136-1.039,1.765-1.51
			c0.098-0.083,0.181-0.173,0.249-0.28c0.909-0.642,1.886-1.219,2.917-1.628c1.127-0.453,2.976-0.945,3.99-0.037l0.016,0.03
			c0.802,0.75,0.778,2.151,0.612,3.143c-0.045,0.319-0.105,0.638-0.188,0.94l-0.031,0.038c-0.084,0.354-0.183,0.695-0.31,1.036
			l-0.169,0.463l0.138,0.438c0.56,1.817,1.454,3.468,2.719,4.886l0.176,0.189c1.369,1.431,3.026,2.49,4.845,3.241l1.712,0.697
			l0.107-1.863c0.166-2.72,0.824-5.401,1.938-7.884c0.218-0.493,0.454-0.978,0.704-1.446c0.757-1.401,1.681-2.72,2.702-3.924
			l0.024,0.007l0.158-0.219l0.189-0.197h-0.008c3.324-3.679,7.738-6.079,12.609-6.777c0.629-0.091,1.279-0.151,1.954-0.182
			c3.862-0.182,7.71,0.758,11.064,2.635c1.515,0.834,2.906,1.87,4.18,3.066l0.326,0.32h0.008c4.059,3.975,6.399,9.368,6.642,15.047
			c0.251,5.726-1.689,11.466-5.452,15.797l-0.19,0.205l-0.074,0.105l-1.697,1.85l2.076,0.614c1.741,0.505,3.414,1.25,4.967,2.201
			c0.311,0.176,0.622,0.373,0.916,0.577c0.88,0.612,1.742,1.286,2.522,2.029l0.401,0.372l0,0c3.362,3.316,5.572,7.627,6.354,12.314
			c0.136,0.893,0.227,1.786,0.264,2.688V323.825L403.867,323.825z"/>
		<path fill="#999999" d="M396.302,322.387c-0.507-3.09-1.992-5.944-4.263-8.111l-0.159-0.149c-2.506-2.326-5.847-3.683-9.255-3.683
			c-0.211,0-0.432,0.008-0.638,0.008c-3.672,0.183-7.057,1.833-9.503,4.559l-0.288,0.312l0.015,0.009
			c-1.143,1.348-2.014,2.899-2.604,4.557c-0.644,1.789-0.932,3.697-0.856,5.598c0.069,1.485,0.355,2.924,0.856,4.302
			c0.728,2.044,1.87,3.9,3.438,5.453v0.022l0.318,0.271c1.795,1.667,3.96,2.826,6.353,3.355c0.962,0.22,1.938,0.318,2.908,0.318
			c3.756,0,7.354-1.568,9.975-4.377h0.007l0.387-0.447l0,0c2.399-2.802,3.665-6.52,3.49-10.208
			C396.468,323.575,396.393,322.984,396.302,322.387z M391.022,332.566L391.022,332.566l-0.187,0.232
			c-2.146,2.364-5.106,3.696-8.212,3.696c-0.788,0-1.574-0.09-2.354-0.264c-1.932-0.426-3.703-1.372-5.165-2.728l-0.341-0.363l0,0
			c-2.061-2.083-3.242-4.855-3.356-7.784c-0.129-2.992,0.88-6,2.827-8.286l0.029,0.022l0.106-0.182
			c1.984-2.233,4.733-3.582,7.748-3.733c0.158,0,0.332-0.009,0.507-0.009c2.786,0,5.468,1.083,7.505,2.984l0.136,0.136
			c1.825,1.758,3.007,4.06,3.423,6.559c0.069,0.477,0.137,0.963,0.137,1.446C393.978,327.287,392.961,330.285,391.022,332.566z"/>
		<path fill="#999999" d="M282.732,254.667c1.712-0.728,3.582-1.121,5.507-1.121c4.278,0,8.405,1.901,10.988,5.348l0.81,1.066
			l-0.233-1.325c-1.333-7.403-4.62-14.272-9.407-20.088l-0.136-0.159l-0.196,0.054c-2.666,0.802-5.112,1.991-7.331,3.481
			c-4.536,3.068-8.058,7.453-10.2,12.488c-1.159,2.71-1.925,5.618-2.234,8.617c-0.091,1.015-0.16,2.028-0.16,3.06
			c0,1.03,0.069,2.052,0.16,3.053c0.31,3.006,1.075,5.914,2.234,8.632c2.143,5.029,5.664,9.406,10.2,12.481
			c2.219,1.491,4.665,2.683,7.331,3.492l0.196,0.046l0.136-0.159c4.788-5.811,8.074-12.679,9.407-20.093l0.233-1.325l-0.81,1.084
			c-2.583,3.431-6.71,5.338-10.988,5.338c-1.925,0-3.796-0.394-5.507-1.137c-4.536-1.908-7.906-6.127-7.906-11.412
			C274.826,260.802,278.196,256.575,282.732,254.667z"/>
		<path fill="#999999" d="M156.175,303.544c-0.213-0.014-0.432-0.022-0.636-0.022c-3.348,0.009-6.619,1.296-9.103,3.537
			l-0.016-0.029l-0.25,0.279c-2.75,2.612-4.325,6.21-4.491,9.995c-0.038,0.714,0,1.448,0.068,2.151
			c0.31,2.924,1.454,5.671,3.348,7.915l-0.024,0.021l0.219,0.227c2.478,2.803,5.938,4.493,9.679,4.659
			c0.175,0.006,0.363,0.006,0.568,0.006c0.522,0,1.015-0.029,1.507-0.073c2.9-0.333,5.596-1.592,7.732-3.568h0.008l0.12-0.12
			c2.311-2.182,3.794-5.053,4.317-8.173c0.099-0.597,0.152-1.195,0.182-1.786c0.159-3.734-1.113-7.475-3.568-10.292l-0.158-0.174
			c-2.053-2.272-4.749-3.824-7.779-4.362c-0.552-0.106-1.12-0.166-1.672-0.19H156.175L156.175,303.544z M163.785,309.981
			l0.129,0.153c1.969,2.278,2.975,5.301,2.839,8.307c-0.007,0.485-0.061,0.97-0.151,1.445c-0.41,2.539-1.629,4.871-3.492,6.643
			l-0.106,0.091c-1.718,1.605-3.892,2.62-6.248,2.885c-0.395,0.039-0.818,0.061-1.219,0.061c-0.151,0-0.31,0-0.461-0.008
			c-3.037-0.128-5.825-1.514-7.831-3.777l-0.106-0.122c-1.56-1.833-2.514-4.097-2.756-6.488c-0.069-0.585-0.076-1.16-0.062-1.75
			c0.137-3.084,1.425-5.999,3.667-8.127l0.097-0.106c2.029-1.863,4.695-2.93,7.452-2.93c0.181,0,0.341,0,0.522,0.007h0.121
			c0.439,0.029,0.864,0.092,1.273,0.152C159.916,306.862,162.127,308.127,163.785,309.981z"/>
		<path fill="#999999" d="M137.801,276.424l-0.083-0.097l-0.067-0.069c-1.932-2.166-4.454-3.674-7.256-4.309
			c-0.741-0.167-1.506-0.266-2.286-0.295c-1.568-0.076-3.113,0.128-4.59,0.591c-1.938,0.597-3.764,1.628-5.263,3.013h-0.009
			l-0.227,0.235c-2.703,2.59-4.249,6.135-4.399,9.867c-0.182,3.75,1.098,7.506,3.574,10.33l0.136,0.137
			c1.666,1.87,3.801,3.248,6.188,3.975c0.515,0.169,1.045,0.297,1.605,0.396c0.553,0.098,1.144,0.166,1.711,0.181h0.076
			c1.167,0.061,2.347-0.044,3.483-0.302c2.341-0.538,4.544-1.69,6.31-3.325h0.03l0.159-0.182c3.634-3.484,5.165-8.642,4.142-13.564
			C140.535,280.574,139.437,278.312,137.801,276.424z M135.295,294.389L135.295,294.389l-0.356,0.326
			c-1.294,1.204-2.855,2.082-4.544,2.56c-1.113,0.311-2.264,0.447-3.438,0.394c-0.469-0.021-0.923-0.075-1.393-0.158
			c-0.711-0.13-1.386-0.318-2.045-0.574c-1.627-0.63-3.104-1.659-4.287-2.992l-0.151-0.159c-1.946-2.272-2.969-5.295-2.825-8.3
			c0.144-3.008,1.363-5.862,3.529-7.983l0.348-0.303h-0.03c1.022-0.9,2.165-1.605,3.416-2.089c1.417-0.548,2.931-0.811,4.46-0.75
			c0.833,0.046,1.636,0.182,2.416,0.395c2.03,0.567,3.833,1.71,5.279,3.31l0.288,0.325c1.25,1.508,2.098,3.279,2.492,5.18
			C139.249,287.475,138.097,291.572,135.295,294.389z"/>
		<path fill="#999999" d="M229.695,269.2c0.113-1.03,0.16-2.068,0.16-3.113c0-1.038-0.047-2.089-0.16-3.121
			c-0.894-8.532-5.452-16.323-12.443-21.043c-2.204-1.491-4.672-2.681-7.323-3.482l-0.196-0.054l-0.145,0.159
			c-4.786,5.815-8.08,12.686-9.391,20.089l-0.235,1.325l0.803-1.066c2.583-3.447,6.718-5.348,10.975-5.348
			c1.938,0,3.808,0.394,5.512,1.121c4.536,1.907,7.921,6.134,7.921,11.42c0,5.285-3.37,9.513-7.921,11.428
			c-1.705,0.727-3.574,1.121-5.512,1.121c-4.256,0-8.392-1.907-10.975-5.339l-0.803-1.083l0.235,1.325
			c1.311,7.413,4.619,14.282,9.398,20.092l0.137,0.159l0.196-0.045c2.658-0.811,5.12-2.001,7.323-3.485
			C224.243,285.55,228.802,277.742,229.695,269.2z"/>
		<path fill="#999999" d="M238.979,274.661c0.365-2.855,0.518-5.734,0.518-8.574c0-2.849-0.152-5.718-0.518-8.571
			c-0.612-5.205-1.824-10.337-3.748-15.168c-1.37-3.477-3.196-7.013-5.536-10.088c-1.576-2.091-3.415-3.962-5.482-5.484
			l-0.144-0.136l-0.183,0.105c-2.325,1.28-4.544,2.734-6.634,4.354c-0.886,0.697-1.749,1.417-2.597,2.166l-0.371,0.342l0.477,0.197
			c0.856,0.348,1.703,0.749,2.491,1.189c5.378,2.869,9.558,7.367,12.443,12.639c3.061,5.595,4.65,12.085,4.65,18.454
			c0,6.377-1.59,12.859-4.65,18.457c-2.885,5.278-7.065,9.769-12.443,12.646c-0.788,0.433-1.635,0.84-2.491,1.19l-0.477,0.189
			l0.371,0.347c0.848,0.751,1.711,1.455,2.597,2.15c2.09,1.629,4.31,3.089,6.634,4.379l0.183,0.09l0.144-0.121
			c2.067-1.521,3.907-3.406,5.482-5.496c2.34-3.084,4.166-6.606,5.536-10.09C237.155,284.998,238.367,279.862,238.979,274.661z"/>
		<path fill="#999999" d="M243.698,220.468c-1.582,0.182-3.135,0.418-4.719,0.743c-2.551,0.514-5.096,1.219-7.557,2.111l-0.401,0.15
			l0.257,0.356c3.363,4.408,5.893,9.747,7.702,15.42c2.834,8.792,3.977,18.416,3.977,26.838c0,8.42-1.143,18.039-3.977,26.817
			c-1.808,5.694-4.337,11.033-7.702,15.449l-0.257,0.356l0.401,0.143c2.484,0.894,5.006,1.598,7.557,2.113
			c1.584,0.317,3.137,0.56,4.719,0.741c1.174,0.145,2.363,0.229,3.552,0.294l0.333,0.023v-91.861l-0.333,0.016
			C246.062,220.241,244.872,220.323,243.698,220.468z"/>
	</g>
</g>
</svg>
