<?xml version="1.0" encoding="utf-8"?>
<!-- Generator: Adobe Illustrator 16.0.0, SVG Export Plug-In . SVG Version: 6.00 Build 0)  -->
<!DOCTYPE svg PUBLIC "-//W3C//DTD SVG 1.1//EN" "http://www.w3.org/Graphics/SVG/1.1/DTD/svg11.dtd">
<svg version="1.1" id="Camada_1" xmlns="http://www.w3.org/2000/svg" xmlns:xlink="http://www.w3.org/1999/xlink" x="0px" y="0px"
	 width="153.061px" height="113.613px" viewBox="0 0 153.061 113.613" enable-background="new 0 0 153.061 113.613"
	 xml:space="preserve">
<g>
	<g>
		<g>
			<path fill="#FFFFFF" d="M147.331,4.308c0.002-0.205-0.131-0.455-0.42-0.57h-13.656v7.016l0,0v0.027h7.043v7.043h7.043v-0.027
				C147.343,16.726,147.331,4.308,147.331,4.308z"/>
			<path fill="#FFFFFF" d="M141.384,22.814h-8.35v-9.707c-4.732,0-8.719,0-8.719,0v60.621c0,0.211-0.123,0.477-0.434,0.588
				l-36.729,0.021c-1.766-0.178-3.352-1.584-3.645-3.293l-0.01-12.168c0-0.213,0.141-0.484,0.461-0.59c0,0,11.117-0.02,11.906-0.02
				c2.574,0,8.613-0.185,13.547-2.76c7.08-3.543,9.893-11.48,9.893-19.85c0-8.183-3.424-16.42-10.789-19.826
				c-5.605-2.592-10.693-2.705-15.52-2.705c-8.227,0-40.01-0.018-46.771-0.018c-8.583,0-17.624,1.41-25.135,6.775
				C12.615,26,5.719,35.944,5.719,51.288c0,11.481,3.997,19.989,11.079,25.677c6.117,4.721,13.979,7.08,26.102,7.08
				c0.822,0,1.339,0.037,2.107,0.039c0,0.008,0.27-0.018,0.27-0.008c2.908,0,6.686,0,12.498,0l0.002-0.006
				c2.098,0,3.887-1.65,3.986-3.727l-0.002-0.893c0.002-0.049,0.015-0.094,0.015-0.143L61.772,58.82c0-0.215,0.14-0.483,0.46-0.59
				l4.776,0.004c0-3.123,0-6.809,0-9.708c-2.908,0-6.684,0-12.498,0v0.007c-2.101,0-3.887,1.649-3.985,3.726l0.004,17.665
				c0,0.016-0.002,0.043-0.002,0.068v0.559c-0.098,2.074-1.885,3.725-3.985,3.725v0.006c-1.14,0,0.057,0-2.852,0v-0.006
				c-0.063,0-0.121,0.01-0.182,0.006c-6.098-0.244-10.935-1.4-14.531-5.549c-3.646-4.076-5.899-10.408-5.899-19.525
				c0-9.766,2.708-17.073,7.538-21.475c3.647-3.324,9.659-4.95,13.092-4.947l28.468,0.029c0.31,0.104,0.446,0.354,0.456,0.563
				c0,6.764,0,56.039,0,56.039c-0.059,2.1,2.063,4.498,4.136,4.658c0.04,0.002,31.168,0.006,48.133,0.008v0.002
				c2.906,0,6.686,0,12.496,0l0.002-0.006c2.1,0,3.889-1.65,3.986-3.725l-0.002-1.043l0.002-0.004V22.814L141.384,22.814z
				 M83.497,23.342c0.012-0.192,0.137-0.413,0.395-0.525c4.328-0.002,8.484-0.041,11.002,0.301
				c7.561,1.023,11.037,4.967,10.947,12.904c-0.066,5.911-3.348,11.4-10.373,12.441c-3.361,0.498-9.959,0.225-9.959,0.221
				c0,0,0-0.008,0-0.013c0,0-1.316-0.062-1.686-0.088c-0.203-0.122-0.316-0.304-0.326-0.475V23.342L83.497,23.342z"/>
		</g>
	</g>
	<g>
		<path fill="#FFFFFF" d="M10.375,97.55l-1.309-0.125v-1.684h4.76l4.24,11.993h0.021l1.186,0.063v1.767h-5.363v-1.684l0.79-0.063
			c0.436-0.042,0.644-0.166,0.499-0.624l-0.438-1.288H9.898l-0.624,1.829l1.248,0.063v1.767H5.719v-1.684l0.687-0.063
			c0.353-0.042,0.478-0.187,0.624-0.582L10.375,97.55z M10.397,103.993h3.866l-1.871-5.925h-0.063L10.397,103.993z"/>
		<path fill="#FFFFFF" d="M26.986,99.046v-2.099c0-0.354-0.188-0.479-0.541-0.499l-0.894-0.063v-1.642h3.866v12.638
			c0.02,0.354,0.166,0.478,0.519,0.478l0.728,0.042v1.663h-3.367v-1.227l-0.063-0.021c-0.644,1.039-1.684,1.518-2.827,1.518
			c-3.243,0-4.199-2.495-4.199-5.093c0-3.555,1.829-5.944,5.072-5.944C26.009,98.797,26.507,98.9,26.986,99.046z M26.986,100.937
			c-0.375-0.167-0.936-0.333-1.581-0.333c-1.974,0-2.639,1.871-2.639,3.908c0,1.891,0.458,3.491,2.244,3.491
			c1.165,0,1.976-0.769,1.976-1.684V100.937z"/>
		<path fill="#FFFFFF" d="M31.746,99.108h3.512v1.351c0.728-1.039,1.788-1.662,3.16-1.662c1.33,0,2.287,0.54,2.765,1.662
			c0.727-1.039,1.787-1.662,3.16-1.662c1.953,0,3.117,1.164,3.117,3.616v5.425l1.184,0.063v1.663h-4.946v-1.579l0.687-0.063
			c0.374-0.041,0.581-0.166,0.603-0.665v-4.303c0-1.268-0.104-2.244-1.435-2.244c-1.392,0-2.016,0.914-2.016,2.141v4.988
			l1.143,0.063v1.663h-4.905v-1.579l0.686-0.063c0.395-0.041,0.603-0.166,0.603-0.686v-4.282c0-1.268-0.104-2.244-1.434-2.244
			c-1.455,0-2.017,1.019-2.017,2.099v5.03l1.123,0.063v1.663h-4.905v-1.579l0.686-0.063c0.395-0.041,0.604-0.166,0.604-0.686h0.02
			v-5.736c0-0.458-0.125-0.624-0.519-0.646l-0.873-0.062V99.108z"/>
		<path fill="#FFFFFF" d="M53.636,107.838l1.185,0.063v1.663h-4.946v-1.579l0.685-0.063c0.375-0.041,0.604-0.166,0.604-0.665v-5.778
			c0-0.457-0.125-0.603-0.521-0.603l-0.727-0.041v-1.726h3.72V107.838z M52.181,94.66c0.914,0,1.579,0.687,1.579,1.559
			c0,0.873-0.665,1.518-1.601,1.518c-0.956,0-1.579-0.645-1.579-1.518C50.581,95.346,51.204,94.66,52.181,94.66z"/>
		<path fill="#FFFFFF" d="M55.902,99.108h3.513v1.351c0.727-1.039,1.995-1.662,3.367-1.662c2.078,0,3.304,1.164,3.304,3.616v5.425
			l1.186,0.063v1.663h-4.947v-1.579l0.686-0.063c0.395-0.041,0.603-0.166,0.603-0.686v-4.282c0-1.371-0.291-2.244-1.704-2.244
			c-1.372,0-2.141,1.019-2.141,2.099v5.03l1.185,0.063v1.663h-4.946v-1.579l0.685-0.063c0.395-0.041,0.604-0.166,0.604-0.686v-5.758
			c0-0.457-0.146-0.624-0.521-0.644l-0.873-0.063V99.108z"/>
		<path fill="#FFFFFF" d="M72.261,107.838l1.185,0.063v1.663H68.5v-1.579l0.686-0.063c0.375-0.041,0.603-0.166,0.603-0.665v-5.778
			c0-0.457-0.125-0.603-0.52-0.603l-0.727-0.041v-1.726h3.72V107.838z M70.807,94.66c0.914,0,1.579,0.687,1.579,1.559
			c0,0.873-0.665,1.518-1.601,1.518c-0.956,0-1.579-0.645-1.579-1.518C69.206,95.346,69.83,94.66,70.807,94.66z"/>
		<path fill="#FFFFFF" d="M78.893,100.501c-0.895,0-1.56,0.416-1.56,1.247c0,0.956,0.999,1.247,1.976,1.518
			c1.62,0.457,3.408,0.977,3.408,3.242c0,2.161-1.788,3.326-4.012,3.326c-1.309,0-2.951-0.208-3.823-0.646v-2.888l1.869-0.146v0.997
			c0,0.396,0.104,0.563,0.479,0.707c0.396,0.146,0.873,0.209,1.371,0.209c1.04,0,1.642-0.396,1.642-1.269
			c0-0.997-0.913-1.185-2.036-1.476c-1.537-0.395-3.221-0.915-3.221-3.222c0-2.162,1.828-3.305,4.012-3.305
			c1.413,0,2.639,0.437,3.45,0.831v2.494l-1.871,0.146v-0.874c0-0.395-0.104-0.561-0.478-0.707
			C79.704,100.542,79.392,100.501,78.893,100.501z"/>
		<path fill="#FFFFFF" d="M87.477,96.904v2.204h2.766l-0.208,1.745h-2.558v5.467c0,1.269,0.5,1.643,1.353,1.643
			c0.562,0,1.079-0.229,1.413-0.437l0.624,1.601c-0.624,0.437-1.664,0.727-2.641,0.727c-3.243,0-3.221-1.995-3.221-3.45v-5.55
			h-1.477l0.207-1.517c1.456-0.125,1.954-1.247,2.391-2.433H87.477z"/>
		<path fill="#FFFFFF" d="M92.946,101.477c0-0.457-0.125-0.603-0.52-0.624l-0.873-0.062v-1.684h3.513v1.56
			c0.478-1.04,1.579-1.871,2.952-1.871c0.687,0,1.311,0.124,1.994,0.457v3.098l-1.932,0.145v-0.956c0-0.249-0.042-0.437-0.208-0.52
			c-0.187-0.083-0.332-0.104-0.561-0.104c-1.124,0-1.892,0.894-1.892,2.1v4.821l1.808,0.083v1.643h-5.569v-1.579l0.685-0.063
			c0.395-0.041,0.603-0.166,0.603-0.686V101.477z"/>
		<path fill="#FFFFFF" d="M110.594,107.256c0,0.458,0.123,0.582,0.518,0.603l0.667,0.042v1.663h-3.305v-1.206l-0.063-0.021
			c-0.645,0.936-1.705,1.497-2.85,1.497c-2.93,0-4.156-2.079-4.156-5.051c0-3.659,1.747-5.986,5.487-5.986
			c0.686,0,2.204,0.166,3.701,0.727V107.256z M108.182,100.875c-0.312-0.146-0.955-0.271-1.6-0.271c-1.976,0-2.64,1.85-2.64,4.096
			c0,1.725,0.415,3.367,2.16,3.367c1.29,0,2.079-0.916,2.079-1.809V100.875z"/>
		<path fill="#FFFFFF" d="M116.291,96.904v2.204h2.764l-0.208,1.745h-2.556v5.467c0,1.269,0.498,1.643,1.351,1.643
			c0.561,0,1.081-0.229,1.413-0.437l0.624,1.601c-0.624,0.437-1.663,0.727-2.641,0.727c-3.241,0-3.222-1.995-3.222-3.45v-5.55
			h-1.476l0.208-1.517c1.456-0.125,1.954-1.247,2.39-2.433H116.291z"/>
		<path fill="#FFFFFF" d="M124.233,107.838l1.185,0.063v1.663h-4.947v-1.579l0.685-0.063c0.375-0.041,0.604-0.166,0.604-0.665
			v-5.778c0-0.457-0.126-0.603-0.521-0.603l-0.727-0.041v-1.726h3.722V107.838z M122.777,94.66c0.915,0,1.579,0.687,1.579,1.559
			c0,0.873-0.664,1.518-1.6,1.518c-0.955,0-1.579-0.645-1.579-1.518C121.177,95.346,121.801,94.66,122.777,94.66z"/>
		<path fill="#FFFFFF" d="M136.911,99.108v1.621l-0.644,0.041c-0.271,0.021-0.438,0.104-0.563,0.499l-2.681,8.294h-3.181
			l-2.91-8.272c-0.123-0.374-0.229-0.499-0.601-0.521l-0.604-0.041v-1.621h4.884v1.662l-1.268,0.063l2.14,6.838h0.043l2.079-6.838
			l-1.081-0.063v-1.662H136.911z"/>
		<path fill="#FFFFFF" d="M142.441,98.797c1.539,0,4.635,0.478,4.635,5.258c0,3.991-2.224,5.82-4.967,5.82
			c-2.786,0-4.614-1.788-4.614-5.55C137.494,100.002,140.301,98.797,142.441,98.797z M144.54,104.387
			c0-2.328-0.561-3.762-2.223-3.762c-1.643,0-2.309,1.413-2.309,3.409c0,1.933,0.271,4.011,2.266,4.011
			C143.897,108.046,144.54,106.55,144.54,104.387z"/>
	</g>
</g>
</svg>
