<?xml version="1.0" encoding="utf-8"?>
<!-- Generator: Adobe Illustrator 16.0.0, SVG Export Plug-In . SVG Version: 6.00 Build 0)  -->
<!DOCTYPE svg PUBLIC "-//W3C//DTD SVG 1.1//EN" "http://www.w3.org/Graphics/SVG/1.1/DTD/svg11.dtd">
<svg version="1.1" id="Camada_1" xmlns="http://www.w3.org/2000/svg" xmlns:xlink="http://www.w3.org/1999/xlink" x="0px" y="0px"
	 width="1080px" height="1080px" viewBox="0 0 1080 1080" enable-background="new 0 0 1080 1080" xml:space="preserve">
<g>
	<path d="M640.893,898.506c6.332,0,11.119-4.939,11.119-11.51c0-6.434-4.277-10.932-10.404-10.932h-0.137
		c-4.736,0-11.424,3.582-11.424,11.51C630.047,895.654,635.887,898.506,640.893,898.506"/>
	<path d="M361.872,886.199c-2.401,0.322-3.803,1.119-3.803,4.295v40.688c0,26.48-9.624,30.063-19.045,30.063
		c-8.301,0-19.334-3.021-19.334-29.061v-37.361c0-6.824-0.314-9.201-3.871-9.201c-3.31,0-14.938,0.713-17.925,1.154l-0.51,0.086
		l0.052,0.508c0.297,3.057,0.441,9.117,0.441,18.57v27.127c0,30.91,13.07,46.596,38.829,46.596c18.308,0,40.137-8.539,40.137-49.211
		v-20.641c0-12.51,0.17-18.129,0.441-23.629l0.025-0.561h-0.568C373.924,885.621,366.268,885.775,361.872,886.199"/>
	<path d="M443.045,898.963c8.445,0,14.938,2.242,18.062,3.566l0.145,0.051c2.249,0.287,4.337-0.408,6.025-2.021
		c2.182-2.07,3.421-5.533,3.141-8.809l-0.017-0.188l-0.11-0.135c-2.241-2.496-12.851-7.402-27.245-7.402
		c-31.963,0-52.613,18.113-52.613,46.139c0,30.061,20.48,49.498,52.172,49.498c9.149,0,16.551-4.736,20.506-7.283l0.526-0.322
		l0.085-0.068c2.886-2.715,4.804-7.35,5.397-13.035l0.034-0.375l-1.104-0.543l-1.137,0.322c-3.727,1.053-10.669,3.021-19.81,3.021
		c-20.37,0-33.542-12.748-33.542-32.506C413.56,904.158,429.593,898.963,443.045,898.963"/>
	<path d="M613.174,941.061l-6.977-50.211l0,0c-0.578-3.854-1.512-5.229-3.582-5.229c-3.666,0-15.6,0.814-18.111,2.395l-0.256,0.152
		v2.07c-6.008,14.514-14.615,36.037-20.641,52.248l-18.502-49.43c-2.105-6.01-3.082-7.621-5.874-7.436
		c-7.443,0-12.935,1.205-16.949,2.072l-1.63,0.355l0.34,2.717c-4.082,24.596-7.944,49.412-10.771,67.541
		c-0.959,6.197-1.791,11.492-2.419,15.516l-0.067,0.373l0.339,0.188c2.428,1.357,10.524,3.973,15.192,3.973
		c2.054,0,2.86-3.141,3.293-5.535c2.003-16.295,5.144-45.848,6.723-63.01c2.521,8.063,5.975,18.943,9.311,29.502
		c4.82,15.193,9.352,29.537,11.066,35.189l0.119,0.373h0.391c2.869,0,6.264-0.373,10.406-1.154c3.785-0.764,5.277-2.02,6.348-5.416
		c7.215-21.607,15.006-45.203,19.096-58.697l2.785,29.994c1.357,15.293,2.223,23.68,2.902,30.418l0.135,1.342
		c0.307,3.311,2.463,6.994,4.889,6.994c2.904,0,11.814-2.514,15.635-3.582l1.664-0.477l-0.086-0.475
		C616.655,966.1,615.008,954.777,613.174,941.061"/>
	<path d="M649.635,909.131c-3.547,0-14.037,0.883-17.84,1.902l-0.441,0.119l0.051,0.457c0.238,2.344,0.578,6.57,0.578,16.109V952.4
		c0,7.74-0.256,17.738-0.391,23.697l-0.068,2.258h0.561c7.604,0,12.9-0.188,15.719-0.578c3.988-0.459,5.414-3.871,5.414-6.908
		v-52.096C653.217,910.574,652.692,909.131,649.635,909.131"/>
	<path d="M731.844,952.535V935.51c0-17.822-7.758-27.244-22.439-27.244c-7.08,0-13.75,4.313-19.402,8.691
		c-1.494-5.771-4.822-8.691-9.896-8.691c-5.67,0-11.238,4.686-12.697,8.879l-0.033,1.629l0.254,0.152
		c1.969,1.223,2.494,2.682,2.494,6.773v23.527c0,7.621-0.117,19.402-0.424,28.584l-0.016,0.545h0.559
		c3.82,0,7.232-1.02,10.508-2.004c2.225-0.662,4.313-1.291,6.535-1.629c3.549-0.459,4.092-1.342,4.092-4.143v-42.879
		c2.902-2.053,5.396-3.496,10.049-3.496c5.398,0,9.184,4.533,9.184,11.018v36.953c0,2.563,1.205,6.18,3.869,6.18
		c4.668,0,9.049-1.393,12.545-2.514c1.936-0.611,3.598-1.154,4.77-1.256l0.51-0.033l-0.018-0.527
		C732.014,968.9,731.844,960.463,731.844,952.535"/>
	<path d="M804.293,961.125c-0.51,0.119-1.529,0.119-2.191,0.119c-3.189,0-4.684-1.664-4.684-2.783c0-5.416,0.186-10.779,0.34-15.516
		c0.135-3.752,0.236-6.994,0.236-9.607c0-17.314-12.578-25.072-25.037-25.072c-10.016,0-20.811,4.906-27.584,9.473l-0.221,0.152
		l-0.018,0.289c-0.051,1.816,0.137,6.279,3.021,8.572c1.646,1.307,3.836,1.611,6.586,0.883l0.375-0.17
		c2.834-1.273,7.57-3.395,12.17-3.395c6.281,0,10.338,3.631,10.338,9.268v1.289c-1.68,0.307-4.549,0.832-6.959,1.223
		c-9.777,2.088-27.992,5.992-27.992,21.457c0,11.475,9.184,21.914,19.25,21.914c6.008,0,11.559-4.889,16.262-9.863
		c2.07,3.973,6.229,9.863,12.748,9.863c10.473,0,14.174-9.166,14.174-17.01l-0.289-1.221L804.293,961.125z M777.336,954.861
		c0,2.326-0.34,3.734-1.104,4.635c-1.867,1.561-3.242,2.037-5.891,2.037c-3.785,0-7.586-2.156-7.586-6.977v-0.137
		c0-1.697,1.068-7.266,14.58-8.793V954.861z"/>
	<path d="M848.205,937.344h-0.016c-0.984-0.492-2.326-1.121-3.77-1.816c-2.834-1.342-6.043-2.852-7.654-3.803
		c-2.887-1.73-4.668-2.902-4.668-5.16c0-2.359,2.342-3.938,5.838-3.938c3.09,0,6.451,0.746,9.506,2.121l0.17,0.035
		c1.953,0.152,3.633-0.441,4.975-1.766c2.41-2.395,3.055-6.451,2.867-9.201l-0.016-0.254l-0.205-0.137
		c-4.889-3.514-10.303-5.16-17.008-5.16h-0.137c-12.137,0-25.207,6.773-25.207,21.627c0,6.992,3.752,13.223,10.305,17.059
		c1.951,1.02,3.854,1.986,5.721,2.938c1.9,0.949,3.768,1.9,5.584,2.834c3.871,2.088,4.65,3.564,4.65,5.297
		c0,2.646-2.443,4.242-6.568,4.242c-7.18,0-14.26-4.039-16.244-5.262l-0.357-0.221l-0.289,0.271
		c-2.104,1.969-4.242,5.941-4.242,9.777c0,2.955,2.104,4.668,4.191,5.959l1.223,0.713c4.074,2.428,9.658,5.721,14.412,5.721
		c13.596,0,27.668-9.336,27.668-24.953C858.934,946.883,855.42,941.35,848.205,937.344"/>
	<path d="M246.817,885.826c-10.897,0-21.286,1.154-25.275,1.9l-0.476,0.084l0.034,0.492c0.586,6.672,0.586,12.664,0.586,19.607
		v65.98c0,2.783,1.417,5.771,4.049,5.771c3.988,0,15.218-0.426,18.001-1.189l0.416-0.117l-0.017-0.426
		c-0.297-5.822-0.441-12.459-0.441-19.775v-10.338c4.15,0.357,8.878-0.594,12.069-1.238c12.96-2.598,22.016-8.572,26.922-17.756
		c2.444-4.566,3.734-9.727,3.734-14.938C286.42,889.221,267.39,885.826,246.817,885.826 M248.854,930.826
		c-0.526,0-2.869-0.104-5.16-0.188v-30.725c1.477-0.203,3.208-0.203,4.295-0.203c7.757,0,15.701,1.646,15.701,13.885
		C263.69,928.584,254.396,930.826,248.854,930.826"/>
	<path d="M765.844,847.361c14.09,0,26.26-7.113,39.178-14.65c14.361-8.402,29.197-17.076,48.395-17.076
		c2.123,0,4.041-1.256,4.906-3.191s0.492-4.193-0.916-5.771l-21.846-24.137l15.463-33.662c0.799-1.748,0.594-3.803-0.525-5.381
		c-1.139-1.561-3.021-2.393-5.094-2.172c-4.871,0.508-26.887,3.699-41.383,13.799c-0.068-19.537-1.223-28.686-1.24-28.822
		c-0.018-0.102-0.033-0.221-0.033-0.322c0-5.738-11.391-6.857-11.51-6.857c-19.096-1.545-39.092,0.883-61.125,7.451
		c-19.775,5.891-39.297,14.463-58.189,22.746c-8.811,3.871-17.926,7.877-27.023,11.576c-33.441,13.615-66.711,20.234-101.723,20.234
		c-34.984,0-68.246-6.619-101.677-20.234c-9.014-3.666-18.13-7.672-26.956-11.541l-0.136-0.053
		c-18.868-8.283-38.389-16.855-58.139-22.729c-22.075-6.568-42.063-9.014-61.126-7.451c-0.11,0.016-11.509,1.119-11.509,6.857
		c0,0.102-0.017,0.221-0.017,0.34c-0.026,0.119-1.384,10.439-1.257,33.32c-15.973-11.779-47.529-15.328-48.878-15.48
		c-1.52-0.152-3.005,0.51-3.896,1.732c-0.891,1.238-1.052,2.867-0.407,4.242l16.466,35.852l-23.341,25.801
		c-1.12,1.24-1.408,3.021-0.729,4.549c0.679,1.529,2.198,2.514,3.87,2.514c20.353,0,35.97,9.131,51.06,17.941
		c13.274,7.758,25.802,15.074,40.095,15.074c18.74,0,27.72-8.912,28.297-17.756c0.051-0.68,0.025-1.342-0.025-2.004
		c0.076-1,0.152-2.223,0.195-3.004c0.382-7.418,1.095-18.248,1.341-26.412c0.271-2.836,0.458-5.5,0.476-7.859
		c13.919,4.311,27.261,9.523,39.703,14.58c47.768,19.42,99.2,38.381,156.591,38.381c25.488,0,51.68-3.734,80.045-11.424
		c27.229-7.385,53.98-17.773,76.572-26.957c12.104-4.922,25.072-9.98,38.533-14.207c-0.068,1.834-0.186,4.125-0.34,6.705
		c-0.305,5.652-0.678,12.527-0.543,18.078c-0.135,3.514-0.135,8.402-0.084,9.098c0.34,5.059,3.293,9.83,8.131,13.088
		C750.533,845.561,757.578,847.361,765.844,847.361 M802.698,793.975c0,0,5.262,8.793-20.998,16.109
		c-3.498,0.865-7.52,1.799-12.188,2.887c-0.154,0.033-0.307,0.066-0.459,0.084c-1.053,0.221-2.139,0.441-3.275,0.645
		c-6.621,1.24-24.037,5.756-24.037,5.756c0.086-10.764,0.814-16.059,1.104-25.633c0.713-0.221,1.443-0.441,2.172-0.662
		c4.957-1.426,9.744-2.648,14.43-3.615c20.014-4.176,33.592-5.262,40.314,0.645C800.948,791.225,801.949,792.465,802.698,793.975
		 M332.166,842.998c-5.432,2.682-11.848,3.09-17.806,2.783c-28.603-1.477-47.309-32.727-87.047-32.727l23.272-26.752l-16.211-38.041
		c0,0,19.352,4.244,25.836,6.434c8.182,2.75,18.867,6.621,22.186,9.473c0.034,2.783,0.102,5.771,0.187,8.895
		c0.018,1.121,0.034,2.258,0.06,3.412c0.043,3.26,0.06,6.824,0.204,10.219c-1.315,1.119-2.775,2.732-3.591,5.041
		c-1.765,5.025-0.306,10.473,2.869,14.615c4.201,5.449,11.798,7.877,18.062,10.049c7.808,2.717,15.846,4.77,24.002,6.129
		c5.924,1,14.411,2.682,15.2,9.98C339.907,837.295,336.138,841.029,332.166,842.998 M341.384,824.174
		c-1.596-1.697-3.649-3.021-6.061-3.836c-0.84-0.375-1.782-0.662-2.809-0.85c-11.755-2.24-24.605-5.467-34.111-9.166
		c-5.94-2.309-10.575-4.805-12.832-7.367c-2.428-2.75-2.614-5.637-2.614-5.637c-0.043-0.543-0.018-1.051,0.033-1.51
		c0.17-1.291,0.611-2.258,0.798-2.666c1.876-4.006,6.569-5.736,8.87-6.484c2.249-0.424,4.659-0.645,7.104-0.645
		c0.679,0,1.341,0.018,1.961,0.051c12.484,0.697,25.453,3.021,39.644,7.096c0.714,0.203,1.409,0.441,2.105,0.645
		C343.386,798.66,343.013,805.553,341.384,824.174 M698.438,806.096c-22.49,9.133-49.125,19.469-76.148,26.803
		c-28.076,7.604-53.945,11.305-79.111,11.305c-56.746,0-107.797-18.824-155.233-38.107c-14.165-5.771-29.493-11.746-45.577-16.381
		c-4.516-1.291-8.903-2.41-13.198-3.361c-7.885-1.748-15.438-2.938-22.805-3.564c-4.007-0.475-7.741-0.662-11.06-0.459
		c-3.387,0.188-6.356,0.799-8.733,1.918c-1.681-39.602,0.577-57.289,0.603-57.459c0.034-0.271,0.06-0.543,0.06-0.814
		c0-1.307,4.702-2.988,8.216-3.275c18.655-1.512,38.219,0.881,59.793,7.314c19.547,5.822,38.982,14.344,57.773,22.594l0.119,0.051
		c8.818,3.871,17.942,7.877,27.007,11.561c33.882,13.801,67.585,20.506,103.061,20.506c35.461,0,69.174-6.705,103.055-20.506
		c9.064-3.684,18.18-7.689,26.973-11.561l0.135-0.051c18.791-8.25,38.211-16.771,57.766-22.594
		c21.609-6.434,41.164-8.826,59.818-7.314c3.43,0.287,8.217,1.984,8.217,3.275c0,0.254,0.018,0.525,0.051,0.797
		c0.018,0.137,1.342,10.406,1.223,32.914c-0.051,7.08-0.221,15.346-0.629,24.902c-0.51-0.186-0.984-0.355-1.443-0.543
		c-1.646-0.629-3.139-1.205-4.803-1.459c-2.887-0.697-6.621-0.73-10.32-0.73c-8.861,0.543-19.438,2.768-31.539,5.805
		c-2.529,0.645-5.076,1.307-7.674,2.055C727.975,794.35,712.629,800.324,698.438,806.096 M741.842,830.098
		c-0.594-3.344,0.764-6.264,3.887-7.605c1.867-0.814,6.672-2.207,8.59-2.563c6.857-1.291,41.146-8.098,48.938-15.209
		c4.602-4.193,6.654-11.561,1.342-16.229c-0.408-0.355-0.865-0.695-1.07-1.205c-0.135-0.373-0.135-0.781-0.117-1.172
		c0.236-8.809,0.559-17.637,0.611-26.445c14.055-9.404,35.561-14.021,40.365-14.531c0.967-0.084,1.951,0.34,2.547,1.137
		c0.576,0.816,0.678,1.867,0.271,2.768l-17.264,34.188l22.746,23.527c0.729,0.797,0.916,1.969,0.475,2.971
		c-0.441,1-1.443,1.646-2.529,1.646c-19.895,0-31.844,7.74-46.51,16.295c-12.578,7.35-24.461,14.311-37.838,14.311
		c-7.756,0-14.293-1.646-18.893-4.754C744.83,835.496,742.403,833.254,741.842,830.098"/>
	<path d="M342.962,771.688c-0.525-0.152-0.78-0.221-1.307-0.373c-0.237,5.023-1.435,5.957-4.142,5.229
		c-2.122-0.578-3.191-0.85-5.348-1.41c-2.436-0.611-3.106-0.883-3.148-4.516c-0.06-5.787-0.009-8.74,0.042-14.615
		c2.386,0.578,3.557,0.867,5.874,1.479c2.868,0.746,3.87,3.156,3.853,6.705c0.535,0.135,0.798,0.203,1.324,0.355
		c0.018-5.5,0.051-8.268,0.068-13.766c-0.526-0.154-0.79-0.221-1.308-0.375c-0.288,2.088-0.61,4.855-3.912,3.99
		c-2.317-0.611-3.488-0.918-5.865-1.477c0.034-5.246,0.068-7.877,0.018-13.037c-0.034-3.107,0.594-3.225,3.004-2.615
		c1.511,0.391,2.258,0.578,3.734,0.969c3.132,0.848,5.109,2.783,5.144,8.012c0.526,0.152,0.781,0.221,1.29,0.373
		c-0.076-3.887-0.136-5.822-0.306-9.676c-8.801-2.596-13.401-3.75-23.365-5.602c0.025,0.543,0.025,0.814,0.042,1.375
		c4.804,1.852,4.957,1.885,4.991,8.318c0.067,13.953-0.45,21.439,0.008,35.035c8.089,1.867,11.925,2.887,19.343,5.041
		C342.928,777.34,342.928,775.455,342.962,771.688"/>
	<path d="M369.722,747.125c-1.205-0.543-1.808-0.814-3.021-1.357c-2.521,5.805-3.904,8.572-6.73,14.225
		c-2.512-7.826-3.751-11.781-6.501-19.725c-3.259-1.256-4.905-1.867-8.301-3.039c0,0.578,0,0.865,0,1.426
		c3.615,2.055,4.082,3.174,5.576,7.555c2.249,6.721,3.302,10.064,5.44,16.736c-3.904,7.486-5.992,11.355-9.794,19.063
		c1.256,0.441,1.884,0.645,3.14,1.086c3.106-6.551,4.778-9.811,8.004-16.176c2.699,8.641,4.04,12.883,6.985,21.744
		c2.155,0.814,3.208,1.238,5.33,2.088c-3.684-11.016-5.313-16.178-8.675-26.889C364.774,757.174,366.54,753.982,369.722,747.125"/>
	<path d="M396.975,762.59c3.684,1.799,4.609,6.586,4.838,8.707c1.952,0.951,2.945,1.426,4.939,2.359
		c-0.525-5.127-3.157-10.898-9.454-14.004c-9.006-4.43-11.051,4.701-11.17,16.041c-0.145,13.732,3.191,23.781,11.679,27.313
		c4.107,1.715,7.469,1.307,8.504,1.086c-0.033-1.68-0.042-2.494-0.067-4.107c-1.069,0.746-3.599,1.951-7.197,0.459
		c-8.012-3.346-8.487-17.434-8.445-24.24C390.644,769.939,391.45,759.873,396.975,762.59"/>
	<path d="M421.36,767.613c-9.498-4.209-11.637,3.445-11.552,15.939c0.102,12.408,2.937,22.236,12.222,25.768
		c9.133,3.496,12.019-4.244,11.865-15.889C433.743,781.617,430.467,771.654,421.36,767.613 M421.963,806.23
		c-6.688-2.563-7.418-13.545-7.494-20.658c-0.077-7.758,0.178-17.873,6.959-14.869c6.646,2.953,7.342,13.512,7.436,20.793
		C428.956,798.609,428.769,808.828,421.963,806.23"/>
	<path d="M462.006,794.195c-0.034-9.947-10.584-14.105-14.36-15.412c-4.957-1.732-7.351-2.631-11.984-4.447
		c0.017,0.594,0.017,0.865,0.034,1.441c4.388,2.699,4.549,2.971,4.617,8.76c0.17,12.578,0.17,16.482,0.391,30.775
		c2.088,0.695,3.14,1.053,5.278,1.73c-0.093-8.283-0.118-11.439-0.187-18.129c1.223,0.408,1.833,0.611,3.072,1.02
		c3.582,7.809,5.415,11.406,9.064,20.76c2.368,0.695,3.412,0.984,5.704,1.596c-3.684-9.777-5.483-13.428-9.303-21.559
		C458.407,801.309,462.031,800.527,462.006,794.195 M448.595,797.354c-1.137-0.373-1.697-0.578-2.817-0.951
		c-0.043-3.818-0.06-5.703-0.102-9.846c-0.034-4.191-0.085-5.449,3.31-4.277c4.252,1.461,7.554,4.617,7.57,10.627
		C456.565,799.119,451.846,798.422,448.595,797.354"/>
	<path d="M479.099,787.711c-5.619-1.137-8.377-1.781-13.767-3.258c0,0.576,0,0.883,0,1.441c4.481,2.207,4.668,2.479,4.702,8.182
		c0.085,12.342,0.127,15.686,0.203,30.063c2.971,0.73,4.465,1.07,7.47,1.715c9.828,2.07,18.4,0.373,18.383-16.109
		C496.091,794.977,488.741,789.68,479.099,787.711 M479.201,823.104c-3.479-0.73-3.479-2.461-3.496-4.752
		c-0.077-10.797-0.119-14.123-0.195-25.039c-0.025-2.801,1.18-3.021,4.116-2.426c9.54,1.918,10.745,8.895,10.787,18.129
		C490.456,819.539,488.385,824.988,479.201,823.104"/>
	<path d="M497.704,792.498c4.804,1.697,4.974,1.986,4.804,7.689c-0.374,12.393-0.441,15.584-0.883,30.131
		c8.19,1.154,12.323,1.561,20.624,2.105c0.255-3.955,0.356-5.721,0.586-9.049c-0.586-0.033-0.874-0.051-1.469-0.102
		c-0.525,4.465-1.994,5.84-4.956,5.584c-2.309-0.186-3.463-0.305-5.763-0.543c-2.589-0.271-3.251-0.594-3.132-3.938
		c0.187-5.313,0.254-7.555,0.407-12.205c2.537,0.271,3.811,0.408,6.365,0.645c3.157,0.271,4.252,1.986,4.125,4.873
		c0.586,0.051,0.883,0.066,1.477,0.119c0.204-4.5,0.289-6.553,0.51-11.102c-0.603-0.035-0.9-0.051-1.494-0.104
		c-0.407,1.766-0.883,4.074-4.523,3.752c-2.555-0.238-3.828-0.355-6.374-0.645c0.144-4.176,0.212-6.213,0.373-11
		c0.102-2.885,0.798-3.141,3.463-2.885c1.663,0.17,2.504,0.236,4.176,0.373c3.53,0.271,5.729,1.918,5.517,6.518
		c0.603,0.035,0.899,0.051,1.503,0.086c0.102-3.396,0.152-5.195,0.263-9.234c-10.338-0.561-15.498-1.053-25.564-2.529
		C497.72,791.633,497.72,791.922,497.704,792.498"/>
	<path d="M543.076,797.115c4.949,0.814,5.084,1.104,4.83,6.908c-0.561,12.578-0.781,15.617-1.393,30.539
		c8.387-0.357,12.596-0.68,20.998-1.646c0.271-4.074,0.408-5.875,0.645-9.27c-0.594,0.068-0.883,0.102-1.477,0.17
		c-0.561,4.6-2.053,6.264-5.059,6.553c-2.342,0.221-3.514,0.305-5.855,0.492c-2.631,0.188-3.311-0.018-3.158-3.43
		c0.271-5.414,0.391-7.654,0.629-12.357c2.58-0.186,3.854-0.271,6.434-0.508c3.191-0.289,4.26,1.238,4.09,4.158
		c0.596-0.051,0.883-0.086,1.477-0.152c0.273-4.551,0.391-6.604,0.646-11.203c-0.594,0.051-0.9,0.084-1.494,0.152
		c-0.408,1.85-0.916,4.227-4.584,4.566c-2.58,0.236-3.854,0.322-6.434,0.508c0.205-4.209,0.324-6.279,0.545-11.152
		c0.152-2.936,0.865-3.326,3.547-3.547c1.664-0.137,2.496-0.203,4.176-0.373c3.514-0.34,5.67,0.949,5.414,5.617
		c0.611-0.066,0.9-0.102,1.494-0.168c0.119-3.447,0.188-5.264,0.34-9.404c-10.186,1.238-15.379,1.646-25.742,2.037
		C543.112,796.217,543.112,796.521,543.076,797.115"/>
	<path d="M588.832,792.889c4.668-0.9,5.518,3.26,5.688,5.16c2.443-0.525,3.648-0.797,6.076-1.357
		c-0.391-4.617-3.174-8.725-11.152-7.164c-11.424,2.24-14.973,12.816-15.531,22.594c-0.697,11.832,3.021,20.557,13.816,18.588
		c5.211-0.951,9.539-3.803,10.881-4.787c0.068-1.748,0.102-2.58,0.152-4.193c-1.391,1.494-4.684,4.533-9.25,5.398
		c-10.152,1.918-10.084-11.238-9.762-17.195C580.073,804.465,581.787,794.246,588.832,792.889"/>
	<path d="M617.231,785.793c4.295-1.34,5.229,2.732,5.467,4.617c2.189-0.764,3.275-1.137,5.482-1.918
		c-0.561-4.566-3.209-8.453-10.49-6.127c-10.422,3.309-13.664,14.291-13.988,24.07c-0.373,11.865,3.514,20.25,14.227,17.16
		c5.176-1.494,8.639-4.566,9.793-5.635c0-1.783,0-2.631-0.016-4.262c-1.189,1.613-3.65,4.787-8.148,6.129
		c-10.016,2.971-10.389-10.203-10.27-16.143C609.406,798.219,610.781,787.813,617.231,785.793"/>
	<path d="M651.451,801.563c0.086,5.688-2.512,7.299-5.447,8.42c-1.613,0.611-2.412,0.916-4.008,1.51
		c-3.123,1.154-3.105,0.918-3.156-3.717c-0.137-13.867-0.424-16.584-0.527-32.607c-3.818,2.07-5.736,3.088-9.557,5.074
		c0,0.611,0,0.918,0,1.512c4.432-0.68,4.566-0.441,4.635,4.549c0.17,12.867,0.408,15.719,0.391,31.453
		c7.52-2.596,11.305-4.039,18.926-7.01c0.053-4.295,0.053-6.178,0.053-9.709C652.233,801.24,651.979,801.359,651.451,801.563"/>
	<path d="M676.115,791.531c-0.117,4.854-1.408,6.977-4.107,8.08c-2.088,0.865-3.141,1.289-5.244,2.154
		c-2.359,0.951-2.955,0.936-3.021-2.631c-0.102-5.686-0.205-8.012-0.408-12.764c2.258-0.918,3.379-1.375,5.637-2.309
		c2.801-1.154,3.92,0.066,4.057,3.055c0.525-0.221,0.797-0.322,1.324-0.543c-0.221-4.65-0.357-6.688-0.611-11.17
		c-0.51,0.221-0.781,0.322-1.291,0.543c-0.186,1.867-0.391,4.313-3.598,5.637c-2.258,0.916-3.379,1.375-5.619,2.291
		c-0.203-4.209-0.307-6.229-0.475-10.949c-0.104-2.852,0.492-3.412,2.783-4.311c1.426-0.561,2.139-0.85,3.582-1.408
		c3.021-1.207,4.99-0.527,5.229,3.902c0.525-0.203,0.779-0.305,1.307-0.508c-0.238-3.26-0.357-4.957-0.561-8.76
		c-8.775,3.395-13.156,5.127-21.881,8.488c0,0.594,0.018,0.898,0.018,1.477c4.227-0.629,4.361-0.408,4.549,5.295
		c0.424,12.375,0.814,15.447,0.85,31.303c7.52-3.006,11.287-4.566,18.875-7.674c0.018-4.311,0-6.195-0.068-9.742
		C676.914,791.209,676.643,791.311,676.115,791.531"/>
	<path d="M685.52,765.797c-0.254-3.633,1.631-6.348,4.092-7.281c3.598-1.375,7.146-0.814,8.453-0.561
		c-0.119-1.646-0.188-2.496-0.305-4.295c-1.207,0.137-4.262,0.441-7.436,1.629c-6.502,2.445-10.186,8.148-9.813,14.123
		c0.713,11.459,16.041,3.396,16.518,13.105c0.271,5.449-2.682,8.725-5.688,9.947c-3.801,1.545-7.654,0.221-9.166-0.322
		c0.068,2.088,0.086,3.174,0.119,5.516c1.002-0.051,4.668,0.018,8.352-1.477c6.568-2.664,11.984-9.42,11.492-17.67
		C701.408,766.188,686.063,774.25,685.52,765.797"/>
	<path d="M701.17,752.727c0.035,0.525,0.053,0.781,0.086,1.291c4.549-0.883,4.686-0.73,5.092,3.699
		c1.053,11.408,1.834,14.633,2.123,30.623c2.104-0.799,3.156-1.189,5.244-1.969c-0.373-20.217-1.73-22.135-2.902-38.465
		C706.942,749.789,705.024,750.758,701.17,752.727"/>
	<path d="M732.998,742.117c-3.531,1.053-7.418,1.596-10.932,2.717c0.035,0.508,0.051,0.746,0.102,1.238
		c1.902-0.271,3.65-0.713,3.854,1.41c0.051,0.373-0.289,2.359-0.475,3.309c-2.512,12.342-3.531,16.348-6.994,33.832
		c1.172-0.426,1.766-0.629,2.953-1.037c1.309-6.654,1.867-9.42,2.938-14.58c4.838-1.646,7.266-2.445,12.119-3.904
		c1.816,4.244,2.682,6.568,4.227,12.375c1.986-0.561,2.971-0.832,4.939-1.342C738.787,757.955,737.651,754.627,732.998,742.117
		 M725.02,766.154c1.477-6.943,3.107-11.459,4.447-18.027c2.684,5.533,4.193,9.014,6.061,14.631
		C731.319,764.049,729.231,764.729,725.02,766.154"/>
	<path d="M747.852,744.732c1.307,10.607,2.291,14.105,2.545,30.23c7.555-1.799,11.322-2.545,18.826-3.547
		c0.033-4.465,0-6.434-0.137-10.084c-0.525,0.086-0.779,0.137-1.307,0.205c-0.033,4.922-1.324,6.771-4.023,7.23
		c-2.104,0.357-3.139,0.561-5.244,0.984c-2.377,0.477-2.953,0.322-3.123-3.293c-0.271-5.789-0.527-8.148-1.035-12.697
		c2.307-0.543,3.461-0.797,5.77-1.273c2.869-0.576,4.109,0.832,4.363,3.838c0.525-0.104,0.799-0.154,1.324-0.238
		c-0.391-4.686-0.645-6.705-1.154-10.813c-0.543,0.102-0.814,0.152-1.342,0.254c-0.084,1.664-0.17,3.904-3.463,4.584
		c-2.309,0.475-3.463,0.729-5.771,1.271c-0.475-3.955-0.746-5.787-1.205-9.76c-0.305-2.41,0.307-2.801,2.699-3.326
		c1.494-0.322,2.24-0.477,3.734-0.781c3.158-0.645,5.297,0.119,5.771,4.039c0.527-0.102,0.799-0.152,1.342-0.236
		c-0.408-2.904-0.611-4.346-0.969-7.453c-9.25,1.613-13.816,2.648-22.898,5.008c0.051,0.475,0.068,0.713,0.119,1.189
		C747.121,739.725,747.24,739.844,747.852,744.732"/>
	<path d="M563.489,597.34c-0.934-1.951-5.396-10.559-6.705-12.375c-0.576-0.814-1.086-1.68-1.713-2.461
		c-2.207-2.766-1.852-5.67-1.563-6.467c0.916-2.648,2.41-7.096,5.059-17.619c1.273-5.109,1.426-7.809,1.545-8.727
		c0.457-3.887,0.729-6.348,0.355-9.641c-0.254-2.02-0.729-5.857-3.141-10.084c-2.512-4.396-5.686-6.771-6.348-7.264
		c-0.883-0.629-2.445-1.75-4.787-2.598c-0.627-0.238-3.861-1.357-8.208-0.984c-5.602,0.475-9.421,3.141-10.847,4.141
		c-0.883,0.646-4.261,3.158-6.841,7.758c-2.504,4.465-2.902,8.471-3.14,11.137c-0.289,3.174-0.662,7.365,1.357,12.051
		c1.528,3.582,3.879,6.094,4.702,6.977c1.188,1.24,2.292,2.174,3.141,2.818c0.543-0.9,1.4-2.174,2.698-3.463
		c2.835-2.801,4.295-3.275,6.867-3.379c1.01-0.051,2.528,0.375,3.505,0.832c0.17,0.068,0.306,0.256,0.458,0.373
		c0.816-1.662,1.037-5.193,1.037-6.908c0-2.461-0.104-3.955-0.697-5.279c-0.28-0.627-0.679-1.221-0.679-1.238
		c-0.459-0.713-0.977-1.494-1.834-2.088c-0.39-0.256-0.662-0.357-0.967-0.459c-0.484-0.17-1.146-0.406-1.698-1.188
		c-0.823-1.189-0.653-2.479-0.594-2.971c0.263-2.055,1.748-3.26,2.309-3.666c0.025-0.018,0.051-0.018,0.067-0.035
		c0.696-0.391,2.547-1.238,4.795-0.645c1.928,0.51,2.971,1.766,3.379,2.24c1.357,1.613,1.662,3.344,1.832,4.855
		c0.238,1.885,0.611,6.926-0.814,13.104l-0.084,0.391c-0.271,1.172-0.578,2.615-1.477,4.16c-0.391,0.66-0.697,1.119-0.943,1.477
		c-0.17,0.254-0.355,0.424-0.381,0.594c-0.586,3.717-0.543,27.262-0.297,31.063c0.084,1.359,0.211,15.99,0.355,19.232
		c0.025,0.662,0.086,2.818-1.146,3.668c-0.814,0.576-1.883,0.457-2.189,0.424c-1.435-0.152-2.401-1.018-2.783-1.375
		c-5.364-4.957-7.834-12.68-7.834-12.68c-1.409-4.414-3.005-10.711-3.718-18.588c-5.517,6.959-10.066,15.582-12.799,25.818
		c-2.343,8.775-1.104,17.23,0.704,24.936c0.009,0.018,0.543,2.428,1.062,4.635c1.477-0.391,3.106-0.475,4.617-0.238
		c0.067-0.102,0.118-0.186,0.203-0.287c0.018-0.018,0.051-0.035,0.076-0.068c0.705-0.645,1.757-1.748,2.886-2.902l0.025-0.035
		c2.122-2.189,4.532-4.668,6.162-5.941c0.568-0.424,1.409-0.406,1.952,0.035c0.561,0.441,0.729,1.238,0.391,1.883
		c-0.102,0.188-0.51,0.713-1.035,1.393c-0.306,0.357-0.611,0.764-0.9,1.137c0.085-0.084,0.17-0.152,0.255-0.236
		c0.747-0.697,1.52-1.393,1.757-1.563c0.483-0.305,1.129-0.254,1.554,0.119l0.076,0.068c0.398,0.406,0.467,1.035,0.161,1.527
		c-4.863,7.74-6.807,10.338-7.758,11.221c0.018,0.221,0.018,0.406,0.018,0.543c0,1.748-0.492,3.105-0.815,4.006
		c-0.458,1.307-1.001,2.223-1.562,3.209c-0.348,0.594-0.747,1.17-1.12,1.748c-1.035,1.545-2.003,3.004-2.258,4.838
		c-0.221,1.561,0.204,3.037,0.646,4.6c0.187,0.662,0.373,1.357,0.518,2.037c0.246,1.223,0.449,3.09,0.483,5.229
		c0.798,0.34,1.646,0.695,2.563,1.018c0.679,0.238,1.341,0.459,1.978,0.645c1.265-2.494,2.817-4.734,4.507-6.416
		c2.571-2.545,2.631-4.447,2.173-8.146c-0.103-0.832-0.289-1.613-0.467-2.377c-0.434-1.867-0.892-3.803-0.094-6.129
		c0.458-1.34,1.248-2.545,2.139-3.717c1.01-1.342,2.683-2.648,3.208-3.055c0.06-0.918,0.493-3.922,0.951-6.451
		c1.019-5.721,1.485-6.502,2.827-6.604h0.109c1.332,0,1.732,0.527,3.285,6.604c0.492,1.936,1.223,4.957,1.393,6.025
		c0.457,0.832,0.916,1.682,1.391,2.529c0.289,0.543,0.594,1.07,0.883,1.613c0.85,1.563,1.07,2.869,1.139,3.717
		c0.066,1.205,0.016,2.514-0.748,4.889c-0.305,0.951-0.594,1.852-0.68,2.801c-0.221,2.174,0.561,4.736,2.156,7.182
		c0.373,0.576,0.799,1.154,1.375,1.832c1.885,2.225,3.666,4.498,5.041,7.113c0.477-0.086,1.02-0.221,1.258-0.271
		c0.424-0.086,1.17-0.307,1.867-0.543l0.051-0.018c-0.018-3.141,0.457-6.076,0.797-7.723c0.137-0.697,0.322-1.375,0.527-2.037
		c0.441-1.563,0.848-3.039,0.645-4.602c-0.256-1.85-1.24-3.309-2.275-4.854c-0.373-0.561-0.764-1.154-1.119-1.748
		c-0.561-0.969-1.189-1.867-1.563-3.191c-0.645-2.326-0.424-4.295,0.018-5.807c-0.832-1.018-2.41-3.648-5.924-10.455
		c-0.188-0.34-0.104-0.766,0.221-1.02c0.152-0.135,0.338-0.186,0.525-0.186s0.373,0.051,0.525,0.168
		c0.68,0.527,1.801,1.646,3.006,2.955c-1.02-1.816-1.918-3.498-2.207-4.176c-0.203-0.477-0.033-1.035,0.391-1.342
		c0.203-0.119,0.424-0.188,0.645-0.188c0.289,0,0.561,0.104,0.781,0.289c1.51,1.393,3.684,4.041,5.619,6.383
		c0.729,0.883,1.426,1.732,2.002,2.41c1.121-0.152,2.342-0.102,3.531,0.17c0-0.033,0.018-0.068,0.018-0.119
		c0-0.203,0.355-1.375,0.83-2.75C566.698,632.885,572.434,616.113,563.489,597.34 M531.28,556.313
		c-0.331,1.053-1.308,1.781-2.377,1.781c-0.483,0-0.95-0.135-1.366-0.406c-3.132-2.07-5.169-5.365-5.44-8.793
		c-0.153-1.834,0.322-3.564,1.409-5.16c0.152-0.221,0.322-0.441,0.475-0.662c0.459-0.611,0.883-1.189,0.883-1.646
		c0.017-1.342,1.095-2.395,2.461-2.395c0.688,0,1.35,0.271,1.816,0.748c0.467,0.457,0.722,1.086,0.713,1.748
		c-0.008,1.086-0.356,2.002-0.78,2.801c1.392,0.814,2.571,2.461,2.461,4.752c-0.051,1.207-0.84,3.734-1.12,4.602
		C531.228,554.293,531.568,555.328,531.28,556.313 M534.378,626.893c-0.688,0.713-1.587,1.086-2.589,1.086
		c-0.212,0-0.416-0.016-0.611-0.033c-1.341-0.203-2.206-0.984-2.886-1.951c-2.342-3.396,3.345-11.086,4.143-11.799
		c0.305-0.287,0.713-0.424,1.12-0.424c0.17,0,0.339,0.033,0.509,0.086c0.568,0.186,0.984,0.645,1.112,1.221
		C535.863,618.457,536.677,624.482,534.378,626.893 M544.248,627.641c-0.662,0.611-1.527,0.934-2.445,0.934
		c-0.152,0-0.305,0-0.457-0.018c-1.24-0.152-2.445-0.883-3.141-1.918c-1.731-2.547-0.78-5.092-0.017-7.129
		c0.34-0.934,0.662-1.801,0.747-2.615c0.076-0.645,0.611-1.154,1.273-1.205c1.086-0.084,1.731,0.764,2.053,1.189
		c0.068,0.102,0.119,0.168,0.17,0.221c0.746,0.797,2.742,3.717,3.029,5.193C545.836,624.076,545.598,626.418,544.248,627.641
		 M553.643,627.113c-0.152,0.035-0.287,0.068-0.424,0.086c-1.664,0.287-3.395-0.459-4.346-1.885
		c-1.188-1.816-1.596-3.854-1.951-5.652c-0.307-1.563-0.611-3.021-1.324-4.262c-0.373-0.645-0.238-1.477,0.305-1.951
		c0.561-0.51,1.41-0.561,2.004-0.137c1.393,0.969,8.318,6.01,8.25,10.559C556.139,625.416,555.137,626.672,553.643,627.113"/>
	<path d="M847.969,630c-4.16-5.398-12.766-7.266-18.504-3.564c-0.967-4.482-7.094-35.359-8.555-47.088
		c36.139-4.211-21.998-60.125-23.73-23.104c-10.609,0.068-38.023-1.443-44.576-1.73c7.096-15.889-12.102-24.648-23.746-14.277
		c-2.666-1.969-16.908-11.83-25.123-17.602c0-14.463-0.018-29.129-0.018-43.354c25.293,3.174,48.242,0.611,71.803-10.711
		c8.012,13.613,23.459,6.467,20.811-6.18c13.818-11.525,36.598-31.267,44.203-47.698c2.648-5.755-3.582-9.777-8.42-6.264
		c2.088-3.769,2.428-10.015-3.768-10.711c1.223-4.21-1.885-12.086-7.232-9.642c1.053-3.938-3.445-9.099-7.35-7.621
		c1.053-2.105-1.205-15.363-8.504-11.221c0.203-4.396-5.703-12.104-11.018-9.625c0.205-4.227-0.934-9.488-8.063-10.304
		c-4.176,0-5.771,6.315-7.621,13.614c-3.633,13.682-11.662,26.803-20.234,38.125c-8.385-4.244-22.508,7.655-15.719,15.396
		c-6.33,5.584-22.83,9.76-38.957,10.881c-0.016-26.854-0.051-41.029,0.051-49.889h-81.291c11.525-8.268,49.922-35.953,60.904-43.507
		c0.34,0.577,7.012,9.845,10.322,14.157c3.055-2.105,8.775-5.976,10.998-7.588c1.461,2.02,3.531,5.024,5.586,8.063
		c-2.174,1.527-8.76,6.162-10.83,7.622c3.141,4.329,17.127,23.696,20.25,28.042c3.615-2.546,9.744-6.857,13.342-9.404
		c-1.441-2.002-8.52-11.797-10.115-14.004l8.979-6.332c1.631,2.275,8.623,11.951,10.117,14.021
		c4.176-2.937,15.057-10.592,19.232-13.545c-3.123-4.346-11.391-16.109-16.092-22.136c-1.986,1.392-8.318,5.856-10.389,7.316
		l-7.266-10.083c3.803-2.717,7.113-5.025,10.541-7.266c-1.477-2.054-5.906-8.182-7.451-10.32c4.328-3.039,8.098-5.703,10.609-7.469
		c2.121,3.208,5.109,7.01,7.809,9.947c3.496-2.461,9.369-6.621,11.168-7.894c1.852,2.58,4.584,6.382,7.266,10.065
		c-2.223,1.563-9.369,6.604-11.457,8.063c3.072,4.278,12.934,17.925,16.006,22.203c4.229-2.987,15.975-11.255,20.201-14.241
		c-1.426-2.004-8.471-11.832-10.049-14.056l7.332-5.177c1.816,2.443,8.895,11.967,10.559,14.207l13.869-9.998
		c-3.209-4.465-17.129-23.748-20.371-28.229c-2.053,1.459-10.574,7.451-12.781,9.014l-5.789-8.012
		c2.258-1.596,10.678-7.537,12.783-9.014c-1.443-2.004-8.607-11.917-10.203-14.123c2.088-1.528,5.941-3.361,4.957-6.604
		c-0.576-2.614-9.25-13.699-11.848-14.514c-1.613-0.679-3.328,0.424-3.361,0.526L615.84,354.025
		c-1.088-6.162-3.668-21.729-5.348-32.27h32.947c2.41,0,4.363-1.936,4.363-4.312c0.576-3.802-2.088-6.484-5.959-5.907v-3.072
		c6.416-0.492,6.416-10.287,0-10.779V271.29c-0.832,1.46-2.75,4.872-3.648,6.45c-0.34-3.87-1.189-8.521-2.174-12.035
		c6.723,1.393,7.928-10.049,1.273-10.219c-1.223,0.018-5.688-0.017-6.842,0v-2.479c7.164,0.102,7.164-10.999,0-10.897v-20.896
		c-2.256,3.785-3.902,7.197-6.297,11.645c-1.408-6.281-3.598-12.238-6.502-17.789c3.039-0.204,4.381-3.175,4.008-5.874
		c0.084-5.109-6.332-4.328-9.795-4.312c0,0-0.018,0-0.035,0c5.977-0.492,6.484-9.488,0.629-10.643
		c-0.033-0.459-0.051-18.52-0.051-18.52c-2.02,3.53-3.77,6.892-5.84,10.83c-6.043-12.172-30.504-35.376-53.352-39.382
		c-0.373-5.567-3.633-9.557-5.873-10.27v-0.628v-14.09h9.438v-11.627h-9.438v-10.219h-14.233v10.219h-9.43v11.627h9.43v14.09v0.628
		c-2.164,0.866-5.178,4.192-5.822,9.964c-18.901,3.582-38.177,17.568-53.267,39.941c-2.021-3.785-3.48-6.738-5.433-9.998v17.314
		c-6.212,0.713-6.076,10.236,0.153,10.762c-0.051,0-4.55,0-4.719,0c-1.409,0-5.109,0.883-5.22,4.312
		c-0.399,2.767,1.026,5.788,4.15,5.891c-0.629,1.595-4.847,11.424-6.638,17.823c-2.401-4.465-4.04-7.893-6.314-11.695v20.98
		c-8.283-1.341-8.283,12.068,0,10.729v2.563c-1.12-0.017-5.636,0.018-6.841,0c-6.654,0.17-5.449,11.611,1.273,10.219
		c-1.002,3.548-1.851,8.232-2.173,12.154c-0.705-1.46-2.886-5.194-3.649-6.569v26.396c-7.97-1.035-7.962,11.814,0,10.779v3.072
		c-3.862-0.577-6.536,2.105-5.95,5.907c0,2.376,1.961,4.312,4.354,4.312h32.354c-1.451,10.201-3.803,25.938-4.905,32.27
		L313.07,247.169c-0.052-0.103-1.749-1.205-3.361-0.526c-2.598,0.814-11.271,11.899-11.84,14.514
		c-0.984,3.242,2.835,5.075,4.939,6.604c-1.646,2.273-8.708,12.052-10.202,14.123c2.063,1.442,10.567,7.451,12.791,9.014
		l-5.788,8.012c-2.275-1.596-10.678-7.52-12.791-9.014c-3.233,4.48-17.145,23.764-20.369,28.229l13.876,9.998
		c1.63-2.189,8.785-11.831,10.55-14.207l7.351,5.177c-1.63,2.274-8.581,12.001-10.074,14.056
		c4.234,2.986,15.981,11.254,20.208,14.241c3.081-4.278,12.935-17.925,16.016-22.203c-2.054-1.442-9.285-6.535-11.458-8.063
		c2.682-3.684,5.415-7.485,7.257-10.065c1.791,1.272,7.698,5.433,11.178,7.894c2.699-2.938,5.687-6.739,7.809-9.947
		c2.504,1.766,6.28,4.43,10.601,7.469c-1.554,2.156-5.949,8.25-7.443,10.32c3.42,2.24,6.73,4.549,10.541,7.266l-7.265,10.083
		c-2.113-1.494-8.386-5.907-10.389-7.316c-4.728,6.06-12.952,17.772-16.092,22.136c4.176,2.953,15.056,10.608,19.231,13.545
		c1.452-2.003,8.521-11.797,10.117-14.021l8.979,6.332c-1.646,2.258-8.631,11.95-10.134,14.004
		c3.616,2.547,9.744,6.858,13.359,9.404c3.123-4.346,17.11-23.713,20.233-28.042c-2.036-1.442-8.674-6.11-10.813-7.622
		c2.054-3.038,3.276-4.82,4.736-6.857c2.224,1.629,7.791,5.262,10.847,7.367c3.344-4.346,10.94-14.514,11.305-15.142l60.142,42.25
		c0.289,0.204,1.375,0.899,1.494,1.257h-82.005c0.102,8.792,0.067,22.898,0.051,49.531c-16.448-1.053-35.324-4.905-41.69-10.523
		c6.79-7.741-7.333-19.641-15.718-15.396c-8.572-11.322-16.602-24.427-20.234-38.125c-1.842-7.299-3.438-13.614-7.621-13.614
		c-7.113,0.815-8.268,6.06-8.063,10.304c-5.33-2.479-11.203,5.229-11.017,9.625c-7.308-4.159-9.557,9.115-8.504,11.221
		c-3.904-1.478-8.403,3.683-7.351,7.621c-5.338-2.444-8.444,5.432-7.223,9.642c-6.221,0.713-5.864,6.942-3.776,10.711
		c-4.838-3.497-11.068,0.509-8.42,6.264c7.639,16.466,30.359,36.14,44.211,47.698c-2.657,12.646,12.799,19.793,20.803,6.18
		c24.426,11.764,48.25,14.038,74.535,10.27c-0.008,14.344-0.017,29.162-0.017,43.777c-8.216,5.754-22.491,15.65-25.165,17.619
		c-11.653-10.371-30.843-1.596-23.756,14.277c-6.569,0.287-33.949,1.799-44.576,1.73c-1.731-37.021-59.861,18.893-23.713,23.104
		c-1.46,11.729-7.605,42.605-8.564,47.088c-9.548-6.248-24.07,3.344-21.133,14.564c2.249,9.148,21.999,28.789,31.954,28.789
		c8.148,0.389,16.211-10.066,12.426-17.791c2.47-0.797,10.745-2.154,11.152-2.24c18.859,32.1,90.458,65.947,123.305,86.385
		c2.58,1.018,6.866,1.918,8.317-1.24c3.59-4.396,11.136-9.963,6.094-16.158c3.616-1.834,5.983-7.283,4.439-10.373
		c4.643-2.324,4.863-5.924,2.555-10.234c1.697-1.309,3.87-4.447,1.663-6.639c-0.95-1.137-2.028-2.682-3.649-2.816
		c-8.462-1.324-16.848-3.227-24.953-5.059c-14.275-3.242-29.019-6.586-44.559-6.842c-2.479-1.137-5.754-3.037-9.658-5.584
		l0.017-0.068c-6.137-3.818-12.9-8.945-21.244-15.361c16.135,7.332,45.441-30.793,19.326-34.426l0.883-5.584
		c6.705,3.988,23.137,2.496,31.76-1.477c17.857,59.463,49.922,68.086,160.657,124.305c110.964-56.424,142.519-64.52,160.666-124.289
		c8.555,3.957,25.072,5.449,31.709,1.461l0.898,5.584c-26.123,3.633,3.191,41.758,19.318,34.426
		c-8.352,6.434-15.107,11.543-21.252,15.361l0.033,0.068c-3.904,2.547-7.18,4.447-9.658,5.584
		c-15.549,0.256-30.301,3.6-44.559,6.842c-8.115,1.832-16.5,3.734-24.953,5.059c-1.613,0.135-2.717,1.68-3.666,2.816
		c-2.174,2.174-0.068,5.365,1.68,6.639c-2.326,4.311-2.088,7.91,2.547,10.234c-1.545,3.09,0.832,8.539,4.447,10.373
		c-5.008,6.178,2.461,11.762,6.094,16.158c1.443,3.158,5.736,2.258,8.318,1.24c32.811-20.42,104.41-54.268,123.303-86.385
		c0.408,0.086,8.674,1.443,11.152,2.24c-3.869,7.945,4.617,18.605,13.02,17.773C831.418,667.242,859.578,644.156,847.969,630
		 M291.104,351.631c3.514-0.78,5.5,12.766,7.181,17.179c4.447,11.696,11.78,24.376,19.317,33.882
		C316.023,420.803,269.377,354.636,291.104,351.631 M280.681,361.426c1.876-0.9,1.596,0.085,3.463,5.822
		c5.721,15.804,22.322,38.55,27.482,42.114c0.526,1.714-2.012,5.433-3.038,5.381c-12.392-7.027-26.804-30.215-28.314-32.744
		C277.932,378.435,268.545,367.316,280.681,361.426 M268.647,371.118c0.925-0.306,2.58-1.188,4.447,2.699
		c2.257,4.685,10.778,19.504,18.511,28.568c3.548,4.159,9.149,11.237,12.646,14.174c3.233,2.716,2.528,3.514,1.196,5.653
		c-3.123,3.564-5.194,0.033-7.266-1.545c-9.353-8.895-17.993-13.784-31.76-38.346C263.877,377.772,268.036,370.729,268.647,371.118
		 M263.079,382.712c17.637,26.073,16.992,26.922,38.032,44.457c2.3,1.731-1.842,6.077-5.135,3.802
		c-4.312-2.817-24.036-21.829-32.541-35.154C259.022,388.891,257.104,383.527,263.079,382.712 M253.913,389.943
		c2.699-0.577,4.532,3.666,5.602,5.279c14.564,21.896,17.925,23.561,35.29,40.62c1.044,14.683-28.059-17.942-29.765-20.438
		c-0.637-0.458-8.53-9.692-12.681-16.567C250.517,395.783,251.103,392.32,253.913,389.943 M247.615,400.688
		c2.444-1.409,2.462-0.391,2.92,0.22c10.015,13.309,17.738,23.239,30.045,34.833c1.044,0.984,11.382,8.86,9.303,10.762
		c-1.809,3.141-5.246,0.866-6.875-0.237C275.454,440.104,241.436,410.855,247.615,400.688 M282.906,459.251
		c-8.386-2.647-48.039-41.384-42.989-49.447c1.095-1.12,4.431,0.085,5.56,1.579c7.384,9.607,13.886,18.196,23.068,26.48
		C273.348,443.549,290.612,452.104,282.906,459.251 M299.32,465.871c-8.411,13.529-18.35,2.359-13.24-5.109
		c5.372-7.859,34.441-55.813,34.441-55.813c2.598-3.684,14.098,2.699,12.137,8.063l-29.638,46.357
		C303.02,459.369,300.101,464.615,299.32,465.871 M376.301,475.071c-25.182,3.888-49.906,1.188-72.278-9.727
		c-0.883,0.561,28.161-44.474,28.899-45.713c8.793,7.112,30.817,10.271,43.727,11.102
		C376.844,443.396,375.723,466.482,376.301,475.071 M376.572,552.426c0.034,13.035-0.017,24.951,0.085,36.631
		c-6.553,5.262-19.249,4.414-25.938,2.359l1.554-12.34c13.172,5.295,25.368-10.152,16.278-21.457
		C368,557.771,372.677,554.785,376.572,552.426 M376.181,528.305l-0.17,17.959c0,0.492-6.628,4.48-10.49,7.213
		c-3.386-4.141-6.62-7.027-10.677-10.455C361.023,538.574,369.715,532.955,376.181,528.305 M335.884,540.051
		c11.552-3.412,26.379,14.717,31.166,22.916c2.444,7.57-2.768,13.154-9.354,13.154c-7.409,0.969-19.954-14.92-24.613-19.588
		C329.493,551.203,328.551,542.207,335.884,540.051 M283.89,621.037c-0.476,1.443-0.807,2.885-1.078,4.328l-7.613,1.104
		c1.188-9.252,5.042-30.689,8.199-47.172l44.423-1.342c-0.552,3.43-1.188,13.121-1.443,13.172
		C297.521,596.779,287.353,610.512,283.89,621.037 M323.34,606.523c-2.903-1.816-8.301-4.838-4.787-9.473
		c2.665-0.779,4.804-1.662,7.876-2.258c-0.356,1.92-1.765,13.818-2.41,17.35c-0.009,0-0.017,0-0.034,0.016
		C324.68,609.053,324.103,607.424,323.34,606.523 M306.262,616.879c-5.415-0.238-9.964,0.168-11.44-6.451
		c1.46-1.563,3.123-3.039,5.007-4.465c0.526,11.814,13.139,0.645,11.798,11.424c-0.509,0.373-1.256,0.934-2.071,1.732
		C308.724,618.201,307.672,617.318,306.262,616.879 M307.179,621.92c-0.984,1.375-1.969,3.344-2.461,5.092
		c-4.966-5.533-12.392,2.189-17.604-2.768c0.832-3.258,2.224-6.467,4.261-9.488C296.646,621.664,302.647,617.438,307.179,621.92
		 M313.443,601.703c2.189,7.18,8.232,3.854,7.062,11.594c-1.477,0.508-3.242,1.188-5.042,2.037
		c0.264-11.865-12.781-2.496-12.68-11.373c3.166-2.004,6.832-3.82,11.084-5.365C313.273,600.09,313.358,601.227,313.443,601.703
		 M323.237,616.521c-0.373,2.037-0.695,3.938-0.976,5.551c-4.125,0.34-8.733,0.9-11.806,1.324
		C312.017,621.547,315.514,619.068,323.237,616.521 M286.385,628.031c6.052,4.889,13.767-3.242,17.586,4.141
		c0.042,1.902,0.136,2.631,0.441,3.99c-6.638-4.584-11.543,4.191-18.121-0.697C286.063,633.004,286.071,630.508,286.385,628.031
		 M289.474,647.67c-1.001-2.309-1.799-4.736-2.376-7.197c6.917,3.666,10.863-4.143,18.197-1.238c0.78,2.037,1.815,3.734,2.843,5.092
		C297.572,641.916,295.781,649.945,289.474,647.67 M296.264,658.449c-1.426-1.646-2.767-3.412-3.955-5.348
		c9.184-1.781,7.953-7.096,18.91-5.398c1.256,1.07,2.546,2.463,4.464,3.922C301.068,650.963,304.429,661.334,296.264,658.449
		 M315.65,646.447l6.34-1.154c0.483,3.871,1.281,6.484,3.539,8.912C322.949,652.287,315.837,646.668,315.65,646.447 M300.33,662.607
		c2.801,0.051,6.866-3.615,7.8-5.736c0.611-2.547,12.808-3.531,16.602,1.713c-10.465-0.322-10.049,6.791-19.741,7.996
		C303.59,665.443,301.9,664.018,300.33,662.607 M341.901,692.586c5.983-7.027,7.851-3.141,13.512-5.518
		c-0.976,4.99-8.784,5.703-11.187,6.994C343.454,693.57,342.674,693.094,341.901,692.586 M427.301,692.535l1.239,1.477
		c-0.704,0.508-1.23,1.018-1.621,1.527l-32.574-1.578l31.776,5.414c1.952,4.227,1.834,3.938-2.257,6.688l-32.371-4.514l32.218,8.588
		c1.358,3.395-4.617,5.924-5.533,7.621l-28.993-10.896l31.199,15.633c0.841,2.139-0.764,3.412-2.291,5.16l-28.518-14.666
		l25.606,17.621c-0.807,0.865-1.52,1.748-1.944,2.613c-12.884-4.617-24.342-13.732-36.733-19.928
		c4.338-5.094,15.702-20.336,14.106-28.383C402.713,687.477,414.748,690.582,427.301,692.535 M386.434,684.047
		c1.884,7.791-9.438,22.102-13.843,26.99c-1.57-0.9-3.132-1.799-4.686-2.699c4.516-4.719,15.362-17.807,14.488-25.021
		C383.735,683.572,385.094,683.775,386.434,684.047 M377.692,682.502c1.375,6.484-9.777,18.809-14.275,23.238
		c-1.833-1.068-3.633-2.189-5.449-3.293c5.033-3.377,15.473-13.273,14.36-20.676C374.128,681.992,375.91,682.23,377.692,682.502
		 M359.674,689.072c1.842-4.652,2.046-6.129,1.978-8.25c2.021,0.084,4.006,0.271,6.009,0.457c1.273,6.689-8.92,15.516-14.123,18.504
		c-1.646-1.002-3.31-1.971-4.956-2.988C350.499,695.064,357.696,694.078,359.674,689.072 M357.052,680.449
		c-4.906,6.977-13.902,2.121-18.707,9.828c-0.746-0.492-1.477-1.002-2.224-1.494c7.206-4.516,7.664-9.813,17.73-9.93
		C354.989,679.463,356.066,680.008,357.052,680.449 M346.985,674.729c0.865,0.559,1.706,1.086,2.538,1.611
		c-8.089,1.273-9.668,7.469-16.797,10.168c-0.899-0.611-1.816-1.205-2.699-1.816C338.956,682.639,335.205,671.943,346.985,674.729
		 M335.187,666.512c1.936,1.426,3.854,2.801,5.78,4.158c-9.854,2.258-4.982,10.338-15.455,10.848
		c-2.283-1.629-5.059-3.615-8.021-5.754C328.975,674.982,324.527,665.936,335.187,666.512 M328.042,661.131
		c0.865,0.68,1.748,1.342,2.647,2.02c-9.191,1.58-4.872,9.813-17.738,9.354c-1.18-0.848-2.359-1.697-3.531-2.529
		c4.143-0.645,5.84-5.211,8.836-6.314C320.318,663.422,325.427,662.014,328.042,661.131 M342.046,625.891
		c32.956-5.143-17.06,50.586-16.296,15.498l-13.224,2.021c-2.868-3.633-5.347-10.865-3.429-15.889
		c3.226-0.459,12.086-1.646,16.551-1.732c1.739-10.762,6.586-51.908,6.586-51.908l-52.163,1.732c0,0-9.667,50.023-9.175,55.439
		l11.364-1.664c-0.391,5.33,0.034,11.695,1.621,16.602c-4.176,0.967-10.838,1.713-15.489,2.852
		c6.195,5.109,0.984,17.043-6.773,17.043c-8.054-0.051-26.26-18.266-28.093-25.752c-1.663-11.865,12.357-14.682,19.996-7.689
		c3.429-18.484,8.368-40.756,9.54-56.865c-33.916,1.732,18.23-50.059,16.788-16.143l47.971-1.527l20.556,20.047
		C348.377,577.955,343.591,614.314,342.046,625.891 M356.558,611.158c-0.271,0.764-0.704,1.9-1.672,2.715
		c-3.013-0.51-4.99-1.443-6.764-1.918c1.357-8.928,1.782-13.359,2.172-16.822c2.037,0.391,2.521,0.238,4.481,0.611
		C350.295,604.928,359.156,604.248,356.558,611.158 M365.861,614.061c-2.325,0.525-4.651,0.525-7.045,0.322
		c5.882-11.883-4.192-8.113-0.492-18.027c1.443,0.238,2.768,0.424,3.938,0.561c1.357,12.918,6.637,6.484,10.134,15.447
		C370.156,613.008,367.881,613.602,365.861,614.061 M376.19,611.242c-2.929-9.861-10.456-5.635-9.888-14.156
		c6.841-1.324,9.234-3.293,10.346-4.006c0.297,4.158,0.314,9.998,1.57,17.568C378.219,610.648,376.521,611.48,376.19,611.242
		 M782.598,281.322l-12.748,9.064l10.287,14.089l12.732-9.064l15.955,21.829c0,0-5.244,3.752-7.809,5.568l-10.389-13.835
		l-13.443,9.574l10.135,14.004l-13.955,9.947l-11.695-16.007l11.441-8.148c-5.211-7.027-11.746-16.109-11.746-16.109
		s-1.867,1.308-11.441,8.131c-3.361-3.802-7.451-10.201-7.451-10.201s-7.639,5.466-16.873,12.018l7.436,10.202
		c-3.039,2.071-10.424,7.435-10.424,7.435l11.746,16.109l10.439-7.418c2.225,2.869,11.697,16.008,11.697,16.008l-13.004,9.25
		l-10.201-13.97l-15.107,10.763l10.186,13.97l-7.113,5.075l-16.789-22.678l10.695-7.622c0,0-8.555-13.07-9.336-13.325
		c-4.16,3.123-3.701,2.768-10.797,7.689c-5.008-6.604-8.266-11.322-8.266-11.322c2.189-1.561,5.703-4.074,10.117-7.23
		c10.625-7.605,26.445-18.91,41.162-29.418c9.184-6.552,17.943-12.799,24.768-17.619c5.176-3.684,9.25-6.535,11.525-8.098
		L782.598,281.322z M769.444,250.225c0,0,8.605,10.219,9.098,12.477c0.188,0.797-163.297,114.732-163.297,114.732h-25.988
		L769.444,250.225z M612.342,355.569l-29.4,21.456h-12.867c-2.783-20.896-5.566-34.968-4.752-55.27h41.52
		C607.877,328.58,610.492,346.539,612.342,355.569 M518.973,321.756h42.361c-0.969,18.332,2.393,35.527,4.277,55.678h-50.933
		C516.58,357.268,519.932,340.105,518.973,321.756 M532.094,141.535c0.509-0.967,1.782-2.224,3.7-2.224c0.255,0,8.87,0,9.141,0
		c2.037,0,3.344,2.104,3.445,2.274l0,0c0.611,1.07,1.139,2.614,1.596,4.855c0,0-10.057-1.766-19.495,0
		C530.465,146.458,531.543,142.621,532.094,141.535 M477.979,187.078c36.987-54.472,92.912-47.139,125.826,1.834
		c-5.365,9.964-6.773-0.408-10.645-4.838c-1.936,2.529-3.141,8.283-6.604,9.234c-4.65-4.125-7.451-13.173-10.914-18.215
		c-3.564,4.991-6.145,14.43-11.119,18.231c-2.697-1.442-4.668-6.808-6.535-9.319c-1.867,2.512-3.852,7.877-6.535,9.319
		c-4.973-3.802-7.553-13.24-11.134-18.214c-3.455,5.008-6.264,14.038-10.873,18.146c-3.293-0.748-4.625-6.824-6.942-9.184
		c-1.927,2.529-3.141,8.283-6.595,9.234c-4.659-4.125-7.443-13.173-10.915-18.215c-3.556,4.991-6.153,14.43-11.118,18.231
		c-2.707-1.442-4.668-6.808-6.544-9.319c-1.511,2.529-3.972,6.807-5.788,9.048c-2.258,1.12-3.479-2.971-4.821-4.278
		C476.943,188.25,477.979,187.078,477.979,187.078 M470.782,204.852c4.99-1.07,5.533-8.726,0.653-10.406l-0.11-8.283
		c0.561,1.001,1.111,2.054,1.672,3.072c0.45,0.849,0.917,1.664,1.375,2.461c0.518,0.9,1.044,1.748,1.587,2.513
		c2.343,3.344,4.889,5.109,7.91,2.088c1.053-1.053,2.173-2.699,3.378-5.075c1.231,2.563,2.411,4.26,3.548,5.296
		c2.835,2.597,5.339,1.001,7.604-2.122c1.664-2.274,3.191-5.348,4.617-8.182c0.051-0.102,0.103-0.204,0.153-0.306
		c0.543-1.052,1.069-2.071,1.578-3.005c0.051-0.084,0.11-0.187,0.161-0.288l0,0c4.083,7.315,10.032,24.358,17.73,8.911
		c3.819,8.301,9.336,8.131,12.604,0.289c1.672-2.852,3.438-6.246,4.982-9.217c4.337,7.639,10.023,24.527,17.662,8.623
		c7.639,15.752,13.105-0.543,17.672-8.606c4.057,7.214,10.234,24.715,17.688,8.741c4.668,9.982,8.859,6.74,12.322,1.223
		c0.611-0.984,1.223-2.054,1.801-3.141c0.898-1.714,1.748-3.429,2.529-4.939v9.727c-5.857,1.172-5.297,10.236,0.662,10.66
		c-0.051,0.018-0.289,0-0.662,0c-0.492,0.018-32.389,0-33.543,0c6.705-0.577,6.18-10.965-0.611-10.83
		c-6.807-0.135-7.316,10.253-0.611,10.83h-34.229c6.695-0.577,6.188-10.965-0.612-10.83c-6.798-0.135-7.315,10.253-0.61,10.83
		h-34.229c6.705-0.577,6.187-10.965-0.611-10.83c-6.799-0.135-7.316,10.253-0.611,10.83h-33.661h-0.518
		C470.476,204.885,470.714,204.868,470.782,204.852 M461.649,209.994c0-2.342,2.529-2.172,3.191-2.172h152.458
		c2.156,0,1.936,4.345,0,4.345c-1.545,0-149.624,0-152.238,0C463.839,212.167,461.649,212.167,461.649,209.994 M466.029,216.938
		c0.187-0.527,0.441-1.087,0.823-1.834h146.814c1.867,0.968,7.979,20.081,7.979,20.081s-2.496,3.955-4.363,6.247
		c-0.561,1.002-2.494,1.324-3.293,0.543c-2.172-2.767-5.143-7.979-6.926-11c-2.104,2.717-5.059,10.593-8.283,11.543
		c-5.211-2.443-10.457-18.111-14.039-23.018c-3.547,6.179-7.977,15.922-12.152,22.033c-4.381,4.346-8.064-8.113-10.016-10.508
		c-2.852,3.005-4.414,10.864-8.775,11.408c-0.646-0.103-1.205-0.441-1.58-0.969c-4.09-6.094-8.547-15.6-11.992-21.88
		c-3.421,6.264-7.894,15.804-11.984,21.88c-0.373,0.527-0.925,0.866-1.57,0.969c-4.362-0.544-5.933-8.403-8.784-11.408
		c-1.901,2.292-5.636,14.871-10.023,10.508c-4.167-6.128-8.581-15.838-12.146-22.033c-3.599,4.923-8.81,20.557-14.038,23.018
		c-3.226-0.934-6.179-8.826-8.275-11.543c-5.372,8.471-8.326,18.74-13.825,3.514C460.945,228.955,465.978,217.056,466.029,216.938
		 M452.5,252.193c0.874-0.475,4.261-4.787,0.425-8.996l-0.374-12.646c0.68,1.223,1.358,2.495,2.037,3.768
		c1.697,3.191,3.412,6.366,5.237,8.675c2.665,3.396,5.542,4.923,8.869,1.867c1.46-1.324,2.996-3.53,4.65-6.841
		c1.579,3.26,3.09,5.449,4.507,6.79c3.403,3.208,6.374,1.596,9.064-1.919c1.91-2.494,3.684-5.924,5.355-9.285
		c1.172-2.324,2.292-4.617,3.378-6.518c0.714,1.256,1.46,2.716,2.241,4.295c1.816,3.615,3.828,7.74,6.043,10.779
		c2.546,3.462,5.347,5.482,8.437,3.666c0.187-0.119,0.391-0.238,0.577-0.391c0,0,0.009,0,0.017-0.018
		c1.613-1.188,3.311-3.463,5.075-7.18c1.647,3.564,3.242,5.789,4.779,7.027c0.585,0.459,1.146,0.798,1.723,0.984
		c0.034,0.018,0.085,0.034,0.119,0.051c2.749,0.866,5.304-1.289,7.655-4.6c2.224-3.141,4.277-7.333,6.094-10.982
		c0.628-1.256,1.239-2.461,1.816-3.531c0.763,1.358,1.544,2.938,2.369,4.584c1.781,3.547,3.717,7.435,5.805,10.337
		c2.818,3.87,5.941,5.941,9.369,2.954c1.494-1.273,3.021-3.463,4.617-6.875c1.986,4.006,3.838,6.349,5.568,7.502
		c3.055,2.021,5.771,0.272,8.217-2.97c2.035-2.683,3.869-6.366,5.584-9.812c1.068-2.139,2.088-4.176,3.055-5.805
		c0.629,1.137,1.291,2.461,1.969,3.853c1.834,3.649,3.871,7.809,6.111,10.932c2.344,3.259,4.889,5.347,7.621,4.464l0,0
		c0.51-0.169,1.02-0.441,1.529-0.814c0.033-0.017,0.066-0.033,0.084-0.051c0.068-0.051,0.137-0.119,0.188-0.152
		c1.561-1.273,3.191-3.564,4.871-7.215c1.494,3.123,2.92,5.229,4.295,6.569c1.086,1.053,2.121,1.63,3.141,1.782
		c0.068,0.018,0.119,0.018,0.186,0.034c2.189,0.221,4.211-1.426,6.111-3.955c2.088-2.784,4.041-6.603,5.908-10.168
		c0.391-0.747,0.779-1.477,1.154-2.189l0.084,12.153c-1.289,0.425-1.781,1.426-2.342,2.479c-0.918,1.664-0.918,3.803,0,5.467
		c0.561,1.052,1.053,1.951,2.342,2.376v2.614c-14.666-0.102-160.742-0.119-175.561-0.051V252.193z M443.164,262.769
		c-0.832,0-1.29-0.696-1.341-1.171c-0.051-0.492-0.068-1.409-0.051-1.799c0,0,0,0,0-0.018l0,0c0-0.17,0-1.375,1.604-1.375h187.978
		c0.883,0,2.24,0,3.531,0c0.916,0.018,1.781,0.018,2.41,0l0,0c0.188,0,0.373,0.051,0.525,0.119c0,0,0.018,0,0.035,0.017
		c0.119,0.051,0.236,0.118,0.34,0.221c0.17,0.17,0.305,0.391,0.406,0.628c0.238,0.611,0.256,1.409,0.068,2.07
		c-0.137,0.493-0.373,0.9-0.73,1.121c0,0.018-0.016,0.018-0.033,0.033c-0.051,0.018-0.102,0.035-0.152,0.068
		c-0.137,0.051-0.289,0.085-0.459,0.085l0,0c-1.188,0-2.613,0-3.988,0c-0.816,0-1.631,0-2.344,0
		C630.963,262.769,443.868,262.769,443.164,262.769 M614.516,284.802c-0.018,0-0.035,0.017-0.051,0.017l-0.018-0.017l-0.035,0.067
		c-0.305,0.272-1.814,3.379-1.951,3.65c-0.102,0.17-0.102,0.221,0,0.033c-1.086,2.241-5.432,12.545-8.945,7.758
		c-0.543-0.781-1.307-1.408-1.852-2.291c-0.084-0.153-0.186-0.307-0.271-0.459c-0.016,0-0.016-0.017-0.016-0.033
		c-1.273-2.088-2.547-4.38-3.803-6.739c-1.613-3.021-3.191-6.146-4.701-9.03c-0.781-1.512-1.563-2.971-2.309-4.329
		c-0.273-0.509-0.561-1.001-0.832-1.477c-1.375,1.851-3.072,5.397-4.924,9.285c-2.291,4.735-8.963,17.603-10.727,16.38l0,0l0,0
		c-1.936-0.186-5.195-5.822-6.484-8.198c-0.934-1.731-1.816-3.327-2.564-4.346l-0.186-0.339l-0.205,0.339
		c-0.746,1.019-1.611,2.614-2.545,4.329c-1.291,2.376-2.734,4.939-4.211,6.586c-0.764,0.832-1.527,1.443-2.291,1.629l0,0l0,0
		c-1.053-0.355-2.225-1.51-3.43-3.14c-2.563-3.463-5.33-9.081-7.672-13.987c-1.74-3.633-3.242-6.892-4.269-8.538
		c-1.002,1.63-2.513,4.872-4.244,8.505c-2.351,4.922-5.126,10.558-7.689,14.021c-1.222,1.646-2.376,2.801-3.429,3.14l0,0h-0.009
		c-0.755-0.186-1.519-0.78-2.266-1.611c-1.477-1.647-2.92-4.211-4.21-6.587c-0.95-1.731-1.816-3.327-2.563-4.346l-0.194-0.339
		l-0.195,0.339c-0.747,1.019-1.613,2.614-2.555,4.346c-1.299,2.359-2.725,4.939-4.21,6.569c-0.756,0.832-1.511,1.443-2.267,1.629
		c0,0,0,0-0.008,0l0,0c-3.234-0.457-8.632-12.035-10.94-16.805c-1.281-2.631-2.495-5.092-3.633-6.942l-1.086-1.918l-0.103,0.169
		c-0.042-0.051-0.093-0.118-0.136-0.169c-0.831,1.646-1.748,3.497-2.716,5.448c-2.003,3.99-4.277,8.387-6.535,12.409
		c-1.375,2.444-2.75,4.735-4.057,6.705c-1.494,1.782-3.124,1.138-4.651-0.526c-1.29-1.748-3.199-5.092-4.617-7.673
		c-0.942-1.935-1.63-3.429-1.901-3.514c-0.203,0.103-0.577,0.713-1.061,1.612l-0.772,1.172c-0.271,0.407-0.645,1.086-1.154,2.02
		c-0.322,0.611-3.038,5.093-3.76,6.077c-0.84,0.917-1.706,1.562-2.538,1.731c-0.339,0.068-0.679,0.051-1.019-0.051
		c-0.424-0.136-0.849-0.441-1.256-0.917l0,0c-2.835-3.734-4.923-6.823-6.298-9.828c-1.239-2.683-1.9-5.296-1.969-8.198
		c-0.085-3.565,0.696-7.571,2.359-12.715h183.37c0.135,0.441,0.254,0.9,0.391,1.375c0.102,0.391,0.203,0.798,0.305,1.205
		c0.051,0.17,0.086,0.357,0.137,0.543c0.068,0.357,0.152,0.696,0.236,1.07c0.408,1.85,0.73,3.802,0.986,5.754
		c0.051,0.356,0.102,0.696,0.135,1.053s0.086,0.713,0.119,1.053c0.068,0.729,0.119,1.426,0.17,2.139
		c0,0.067,0.018,0.135,0.018,0.187c0.051,0.917,0.102,1.816,0.117,2.733l0,0c-0.391,0.713-0.764,1.391-1.119,2.07
		c-0.85,1.562-1.682,3.123-2.547,4.686c-0.051,0.067-2.207,3.887-2.869,4.973c-0.611,0.9-1.188,1.613-1.766,2.105
		c-0.508,0.34-1.086,0.662-1.391,0.713c-0.289,0.051-0.578,0.085-0.883,0.102c-1.205-0.203-2.512-1.392-4.158-3.717
		c-1.393-1.97-3.021-4.736-5.008-8.438l0.678,1.036C614.94,285.48,614.516,284.802,614.516,284.802 M441.585,311.537v-4.379
		c0.221-0.17,0.391-0.374,0.577-0.595c0.153-0.17,0.289-0.356,0.425-0.543c0.119-0.187,0.229-0.356,0.322-0.544
		c0.034-0.084,0.068-0.152,0.103-0.237c0.577-1.358,0.577-2.97,0-4.329c-0.034-0.084-0.068-0.152-0.103-0.22
		c-0.093-0.204-0.203-0.374-0.322-0.561c-0.136-0.187-0.271-0.373-0.425-0.56c-0.187-0.204-0.356-0.408-0.577-0.578v-15.955
		c0.705,1.307,1.393,2.647,2.071,3.988c1.936,3.785,3.819,7.537,5.806,10.338c3.208,4.532,6.688,6.518,11.033,2.054
		c1.579-1.646,3.276-4.124,5.127-7.689c1.383,3.021,2.716,5.245,3.988,6.807c0.857,1.036,1.698,1.782,2.513,2.274
		c1.069,0.646,2.104,0.85,3.106,0.713c1.816-0.271,3.505-1.68,5.092-3.734c2.386-3.072,4.507-7.536,6.399-11.576
		c1.375-2.953,2.632-5.687,3.769-7.469c1.019,1.596,2.216,4.312,3.573,7.333c1.749,3.888,3.769,8.249,6.103,11.339
		c2.895,3.854,6.264,5.721,10.151,2.24c1.672-1.493,3.438-3.955,5.305-7.689c0.67,1.324,1.782,3.412,3.183,5.33
		c1.307,1.766,2.868,3.396,4.54,4.057c1.18,0.477,2.419,0.493,3.676-0.236c0.033-0.018,0.067-0.052,0.102-0.068
		c0.237-0.152,0.476-0.322,0.729-0.526c6.451-4.905,12.366-20.709,12.375-20.743c1.019,1.596,2.164,4.193,3.462,7.027
		c1.621,3.582,3.488,7.57,5.627,10.49c1.307,1.8,2.734,3.209,4.262,3.871c0.883,0.373,1.816,0.509,2.783,0.322
		c1.273-0.255,2.613-1.07,4.023-2.58c1.408-1.527,2.902-3.752,4.465-6.857c1.391,2.936,2.75,5.092,4.057,6.603
		c1.34,1.544,2.613,2.427,3.854,2.75c0.848,0.255,1.68,0.221,2.494-0.017c1.578-0.459,3.072-1.732,4.447-3.446
		c2.377-2.954,4.482-7.214,6.299-10.983c1.408-2.936,2.646-5.551,3.734-6.977c0.797,1.24,1.781,3.311,2.902,5.67
		c1.68,3.514,3.699,7.707,5.992,10.898c1.781,2.512,3.75,4.413,5.855,4.905c0.018,0,0.035,0.017,0.051,0.017
		c0.018,0,0.018,0,0.018,0c1.035,0.238,2.088,0.137,3.174-0.391c0.9-0.424,1.799-1.119,2.732-2.172
		c1.309-1.46,2.666-3.582,4.059-6.502c1.391,2.717,2.697,4.736,3.971,6.18c1.088,1.222,2.139,2.036,3.141,2.478
		c1.104,0.476,2.174,0.544,3.191,0.272c1.867-0.51,3.615-2.123,5.297-4.313c2.223-2.92,4.328-6.841,6.398-10.523
		c0.781-1.41,1.578-2.768,2.359-4.041v15.719c-1.137,0.492-1.936,1.324-2.443,2.326c-0.799,1.578-0.799,3.564,0,5.16
		c0.508,0.984,1.307,1.833,2.443,2.291v3.582v0.356H441.585V311.537z M437.019,318.819c-0.425,0-0.713-0.136-0.934-0.374
		c-0.271-0.288-0.408-0.746-0.459-1.222s-0.017-0.984,0-1.375l0,0c0-0.017,0-0.017,0-0.017c0.018-0.425,0.153-0.713,0.382-0.917
		c0.314-0.288,0.79-0.407,1.29-0.441c0.45-0.034,0.926-0.017,1.316,0l0,0h203.229c0.322-0.017,0.799-0.034,1.256,0
		c0.375,0.017,0.764,0.085,1.053,0.221c0.441,0.204,0.73,0.543,0.68,1.138c0,0,0,0,0,0.017c-0.086,0.662,0.051,1.646-0.221,2.292
		c-0.17,0.407-0.51,0.679-1.172,0.679l0,0H437.019 M473.464,321.756h41.521c0.814,20.302-1.97,34.373-4.762,55.27h-12.858
		l-29.4-21.456C469.814,346.539,472.436,328.563,473.464,321.756 M385.28,343.67c-7.096-4.922-6.646-4.566-10.796-7.689
		c-0.772,0.255-10.177,14.174-10.177,14.174l10.686,7.605l-15.938,21.846l-7.121-5.075l10.193-13.97l-15.107-10.763l-10.202,13.97
		l-12.994-9.25c0,0,10.177-14.174,12.4-17.043l10.439,7.435l11.033-15.091c0,0-7.384-5.363-10.439-7.435l7.452-10.202
		c-9.234-6.552-16.882-12.018-16.882-12.018s-4.082,6.399-7.443,10.201c-9.573-6.823-11.44-8.131-11.44-8.131
		s-6.535,9.082-11.755,16.109l11.432,8.148l-11.678,16.007l-13.954-9.947l10.135-14.004l-13.444-9.574l-10.389,13.835
		c-2.563-1.816-7.8-5.568-7.8-5.568l15.931-21.829l12.748,9.064l10.287-14.089l-12.748-9.064l8.274-11.34
		c2.207,1.512,6.29,4.38,11.518,8.098l6.383,4.48l18.774,13.428c14.903,10.626,30.859,22.033,41.358,29.553
		c4.167,2.971,7.478,5.348,9.522,6.807C393.538,332.348,390.288,337.066,385.28,343.67 M302.537,262.463
		c-0.993-0.899,8.581-11.898,9.217-12.103c0.434,0.306,0.942,0.679,1.494,1.069l1.884,1.324c0.077,0.051,0.145,0.102,0.213,0.152
		c1.527,1.069,3.344,2.359,5.406,3.803c3.785,2.682,8.419,5.958,13.724,9.692c1.205,0.849,2.462,1.731,3.734,2.631
		c1.673,1.188,3.396,2.411,5.178,3.667c1.171,0.814,2.376,1.68,3.599,2.529c3.208,2.274,6.569,4.634,10.032,7.078
		c1.578,1.12,3.174,2.258,4.804,3.412c7.689,5.414,15.829,11.169,24.155,17.025c2.24,1.596,4.481,3.174,6.747,4.77
		c10.533,7.452,21.219,14.989,31.497,22.237c1.341,0.95,2.682,1.901,4.014,2.835l1.995,1.408
		c13.461,9.506,25.988,18.35,36.241,25.582c12.696,8.962,21.931,15.463,25.08,17.704l-26.54-0.255L302.537,262.463z
		 M697.487,593.742c-1.951,33.168-14.512,54.182-40.008,75.537c-21.32,17.873-115.615,62.535-115.768,62.535
		c-0.383,0.033-98.598-44.271-119.935-62.383c-24.665-20.963-39.534-44.525-39.619-80.697c-0.068-31.029,0.331-60.465,0.339-75.012
		c16.567-12.052,25.445-17.094,42.675-28.246c7.859-5.075,18.214-10.252,28.449-10.117c13.232,0.188,25.038,6.146,33.61,12.019
		c10.185,7.011,20.488,19.437,33.525,20.606c8.741,0.781,16.27-2.918,23.391-7.535c6.322-4.108,12.637-8.709,20.055-10.186
		c8.793-1.766,17.994,1.188,25.582,5.941c10.422,6.553,14.463,12.068,21.607,18.078c4.211,3.547,18.859,12.256,35.715,10.541
		c8.623-0.865,15.889-4.838,23.715-8.148c7.91-3.326,18.689-2.699,27.092-0.713C698.608,516.133,698.641,574.34,697.487,593.742
		 M696.129,510.617c-7.893-1.545-18.553-0.408-26.361,2.104c-4.176,1.342-8.012,3.447-11.967,5.33
		c-9.455,4.533-23.885,3.09-31.438,0.152c-7.979-3.088-13.258-6.16-18.928-11.559c-12.561-11.95-25.563-24.309-46.951-19.725
		c-6.518,1.408-11.916,5.041-17.127,8.555c-7.138,4.821-13.877,9.371-23.333,8.521c-7.393-0.662-15.379-7.146-23.094-13.427
		c-5.576-4.532-11.339-9.218-16.983-11.78c-20.183-9.133-32.294-10.508-51.62,0.221c-5.466,3.021-36.343,22.848-46.357,29.299
		c0.017-21.016,0.033-42.014,0.051-61.008c0.042-30.385,0.067-54.998,0.025-64.436h316.221c-0.033,9.438-0.016,34.051,0.018,64.436
		c0.033,19.844,0.051,41.877,0.068,63.842C697.606,510.973,696.86,510.77,696.129,510.617 M734.391,541.307
		c11.865-6.18,20.115,4.668,12.799,15.227c-4.719,4.686-17.178,20.506-24.613,19.588
		C698.42,572.268,724.342,546.807,734.391,541.307 M725.428,543.021c-4.057,3.428-7.299,6.314-10.678,10.455
		c-3.869-2.732-10.49-6.721-10.49-7.213l-0.186-17.959C710.541,532.955,719.248,538.574,725.428,543.021 M832.08,411.383
		c1.137-1.494,4.48-2.699,5.568-1.579c8.826,3.888-54.27,70.326-43.744,41.792C806.465,440.121,822.303,426.015,832.08,411.383
		 M829.942,400.688c8.537,8.317-27.84,39.433-35.375,45.577c-1.631,1.104-5.076,3.378-6.875,0.237
		c-2.088-1.901,8.25-9.777,9.301-10.762c12.307-11.594,20.031-21.524,30.047-34.833
		C827.496,400.298,827.938,398.736,829.942,400.688 M823.643,389.943c7.961,5.975-10.557,24.461-11.66,25.58
		c-1.816,1.885-30.25,34.986-29.215,20.319c17.365-17.06,20.727-18.724,35.291-40.62
		C819.129,393.609,820.961,389.366,823.643,389.943 M814.477,382.712c17.502,2.359-26.26,43.913-32.896,48.259
		c-3.275,2.275-7.418-2.07-5.127-3.802C797.485,409.65,796.858,408.785,814.477,382.712 M808.926,371.118
		c10.627,10.83-16.939,37.599-29.535,49.55c-2.07,1.578-4.143,5.109-7.266,1.545c-1.342-2.14-2.037-2.938,1.188-5.653
		c3.498-2.937,9.1-10.015,12.646-14.174c7.74-9.064,16.262-23.884,18.52-28.568C806.346,369.93,807.992,370.813,808.926,371.118
		 M796.5,361.969c10.559,3.48,2.887,15.838,0.545,19.402c-0.662,1.918-23.629,33.475-28.061,33.372
		c-1.035,0.052-3.582-3.667-3.039-5.381c0.545-1.782,5.434-5.432,7.08-7.469C800.727,367.4,792.461,360.645,796.5,361.969
		 M779.289,368.81c1.68-4.413,3.648-17.959,7.18-17.179c5.465,1.205,5.449,4.227,5.465,8.488
		c0.035,12.799-12.525,29.96-21.031,39.16c-3.207,3.445-9.727,11.407-10.932,3.412C767.508,393.186,774.842,380.506,779.289,368.81
		 M748.377,406.375c1.766-1.697,7.248-3.938,8.674-1.426c0,0,29.078,47.953,34.443,55.813c5.498,10.915-8.115,19.436-16.941-1.393
		l-29.639-46.357C743.506,409.396,747.733,407.003,748.377,406.375 M744.66,419.632c0.848,1.442,29.57,45.934,28.891,45.713
		c-21.643,10.575-45.459,13.394-69.852,10.083c0-15.396-0.033-30.096-0.051-44.881C716.653,429.545,736.291,426.404,744.66,419.632
		 M703.666,586.73c0.033-10.625,0.051-22.203,0.068-34.271c3.887,2.359,8.521,5.313,7.979,5.16
		c-9.1,11.305,3.105,26.752,16.277,21.457l1.563,12.34c-3.904,1.324-21.762,2.818-25.955-0.543
		C703.649,589.516,703.666,588.123,703.666,586.73 M704.074,611.242c-0.459-0.102-2.547-0.951-2.547-0.951
		c1.289-6.586,1.563-9.115,2.139-14.971c1.867,0.51,2.717,1.494,10.303,1.766C714.53,605.607,707.028,601.346,704.074,611.242
		 M721.897,602.756c-3.242,3.988-3.055,7.621-1.018,11.627c-6.264-0.137-8.93-0.713-13.58-2.02
		c3.48-8.945,8.793-2.547,10.133-15.447c1.172-0.137,2.496-0.322,3.939-0.561C721.727,598.139,723.323,601.006,721.897,602.756
		 M725.377,613.873c-7.027-9.115,5.127-7.824,0.102-18.129c1.969-0.373,2.461-0.221,4.48-0.611
		c0.408,3.463,0.832,7.895,2.191,16.822C730.367,612.43,728.399,613.363,725.377,613.873 M669.735,732.781l-2.717,0.441
		c-0.424-0.865-1.121-1.748-1.936-2.613l25.615-17.621l-28.535,14.666c-0.355-0.424-0.729-0.814-1.068-1.205
		c-0.611-0.678-1.121-1.357-1.324-2.088c-0.152-0.561-0.17-1.17,0.119-1.867l31.182-15.633l-28.992,10.896
		c-0.307-0.594-1.256-1.289-2.275-2.088c-1.256-0.984-2.646-2.121-3.191-3.395c-0.287-0.678-0.355-1.391-0.051-2.139l32.219-8.588
		l-32.389,4.514c-1.271-0.848-2.172-1.426-2.732-1.918c-0.73-0.662-0.883-1.205-0.611-2.156c0.188-0.627,0.561-1.459,1.088-2.613
		l31.793-5.414l-32.574,1.578c-0.408-0.51-0.918-1.02-1.631-1.527l1.24-1.477c12.561-1.953,24.578-5.059,36.699-7.623
		c-0.373,1.816-0.068,4.006,0.662,6.365c1.018,3.26,2.869,6.842,4.922,10.219c2.529,4.125,5.365,7.945,7.402,10.457
		c0.406,0.492,0.779,0.951,1.102,1.342C692.412,719.779,680.989,726.178,669.735,732.781 M707.672,711.037
		c-0.459-0.527-1.018-1.154-1.613-1.867c-2.07-2.461-4.785-5.941-7.145-9.693c-1.971-3.123-3.684-6.434-4.602-9.455
		c-0.662-2.189-0.898-4.242-0.475-5.975c1.34-0.271,2.682-0.475,4.039-0.73c-0.254,2.004,0.408,4.447,1.58,7.027
		c1.357,3.039,3.428,6.264,5.584,9.219c2.682,3.648,5.518,6.891,7.316,8.775C710.795,709.238,709.235,710.137,707.672,711.037
		 M716.838,705.74c-0.135-0.135-0.287-0.289-0.441-0.441c-0.033-0.051-0.084-0.084-0.135-0.135
		c-1.902-1.936-4.668-4.924-7.232-8.232c-1.969-2.547-3.818-5.297-5.059-7.859c-1.17-2.445-1.781-4.736-1.408-6.57
		c1.783-0.271,3.582-0.51,5.363-0.73c-0.322,2.207,0.375,4.617,1.631,7.029c1.596,3.004,4.074,5.975,6.586,8.469
		c2.223,2.225,4.48,4.059,6.162,5.178C720.471,703.551,718.672,704.672,716.838,705.74 M726.717,699.783
		c-1.73-1.02-3.988-2.631-6.195-4.584c-2.359-2.105-4.65-4.584-6.178-7.146c-1.375-2.273-2.105-4.617-1.732-6.773
		c1.986-0.186,3.99-0.373,6.01-0.457c-0.018,0.934,0.051,1.781,0.152,2.596c0.254,2.242,0.865,4.059,1.783,5.568
		c1.391,2.309,3.445,3.938,5.957,5.33c2.174,1.002,4.262,1.664,5.16,2.479C730.045,697.813,728.381,698.781,726.717,699.783
		 M736.037,694.063c-0.814-0.441-2.24-0.814-3.82-1.307c-2.172-0.596-4.617-1.41-5.975-3.107c-0.68-0.695-1.188-1.545-1.393-2.58
		c1.494,0.645,2.734,0.814,3.854,0.883l0.662-0.051c0.764-0.119,1.867-0.188,3.463,0.441c1.527,0.459,3.227,1.545,5.535,4.244
		C737.598,693.094,736.801,693.57,736.037,694.063 M741.928,690.277c-0.816-1.291-1.732-2.225-2.717-2.92
		c-1.766-1.24-3.768-1.732-5.805-2.123c-1.527-0.066-2.988-0.016-5.262-1.086c-0.238-0.102-0.477-0.221-0.697-0.34
		c-1.578-0.645-3.039-1.646-4.227-3.359c0.984-0.441,2.055-0.986,3.191-1.596c3.275,0.033,5.518,0.627,7.316,1.543
		c2.088,1.07,3.582,2.598,5.313,4.279c1.393,1.34,2.938,2.75,5.109,4.107C743.405,689.275,742.674,689.785,741.928,690.277
		 M747.545,686.508c-2.258-0.848-3.955-2.07-5.5-3.361c-1.764-1.492-3.309-3.088-5.211-4.396c-1.646-1.119-3.547-2.02-6.094-2.41
		c1.715-0.898,3.158-1.477,4.381-1.799c2.393-0.629,4.006-0.289,5.244,0.578c0.578,0.236,1.086,0.543,1.494,0.949
		c0.662,0.662,1.053,1.527,1.494,2.514c0.102,0.236,0.221,0.492,0.34,0.746c1.086,1.73,2.273,3.514,4.227,4.566
		c0.678,0.355,1.441,0.627,2.324,0.797C749.346,685.303,748.446,685.896,747.545,686.508 M754.742,681.518
		c-10.455-0.51-5.584-8.605-15.445-10.848c1.918-1.357,3.852-2.732,5.77-4.158c10.645-0.576,6.248,8.471,17.705,9.252
		C759.801,677.902,757.035,679.889,754.742,681.518 M767.305,672.504c-12.918,0.441-8.488-7.74-17.723-9.354
		c0.883-0.678,1.783-1.34,2.648-2.02c2.615,0.883,7.707,2.291,9.777,2.529c2.988,1.104,4.703,5.688,8.844,6.314
		C769.682,670.807,768.492,671.656,767.305,672.504 M775.266,666.58c-9.658-1.188-9.303-8.334-19.742-7.996
		c3.803-5.244,15.99-4.26,16.602-1.713c0.934,2.121,5.025,5.787,7.809,5.736C778.371,664.018,776.674,665.443,775.266,666.58
		 M754.727,654.205c2.273-2.428,3.055-5.041,3.547-8.912l6.35,1.154C764.385,646.703,757.34,652.27,754.727,654.205
		 M784.008,658.449c-8.148,2.902-4.77-7.469-19.436-6.824c1.918-1.459,3.225-2.852,4.48-3.922c10.949-1.697,9.727,3.633,18.91,5.398
		C786.774,655.037,785.416,656.803,784.008,658.449 M790.797,647.67c-6.229,2.309-8.096-5.736-18.672-3.344
		c1.035-1.357,2.055-3.055,2.852-5.092c7.316-2.904,11.271,4.904,18.197,1.238C792.596,642.934,791.799,645.361,790.797,647.67
		 M756.016,610.818c-0.678-4.516-1.867-14.293-2.172-16.025c3.055,0.596,5.193,1.479,7.875,2.258
		c1.426,1.189,1.121,4.924,0.188,5.756C758.801,606.422,755.235,605.488,756.016,610.818 M756.287,612.158
		c-0.016-0.016-0.033-0.016-0.051-0.016c-0.051-0.289-0.102-0.662-0.17-1.053C756.117,611.43,756.186,611.77,756.287,612.158
		 M766.405,598.596c4.244,1.545,7.91,3.361,11.084,5.365c0.104,8.859-12.969-0.477-12.695,11.373
		c-1.801-0.85-3.549-1.529-5.043-2.037c-0.135-1.783,0.188-4.109,0.594-4.822C762.602,606.422,768.662,604.469,766.405,598.596
		 M769.799,623.396c-3.072-0.424-7.672-0.984-11.797-1.324c-0.271-1.613-0.611-3.514-0.967-5.551
		C764.758,619.068,768.254,621.547,769.799,623.396 M768.629,617.387c-1.342-10.762,11.287,0.373,11.797-11.424
		c1.885,1.426,3.564,2.902,5.025,4.465c-2.326,10.031-10.102,3.275-14.734,8.691C769.885,618.32,769.137,617.76,768.629,617.387
		 M786.367,617.15c0.355-0.289,2.002-1.834,2.529-2.395c2.02,3.021,3.428,6.23,4.26,9.488c-5.211,4.957-12.646-2.766-17.602,2.768
		c-0.492-1.748-1.477-3.717-2.463-5.092C776.606,617.914,781.614,621.055,786.367,617.15 M793.971,635.465
		c-6.568,4.889-11.49-3.887-18.111,0.697c0.307-1.359,0.391-2.088,0.424-3.99c3.82-7.383,11.543,0.748,17.604-4.141
		C794.192,630.508,794.209,633.004,793.971,635.465 M753.895,591.127c-0.256-0.051-0.9-9.742-1.461-13.172l44.441,1.342
		c3.139,16.482,7.01,37.92,8.197,47.172l-7.621-1.104C793.785,610.445,785.451,598.172,753.895,591.127 M846.746,640.133
		c-1.85,7.486-20.047,25.684-28.109,25.752c-7.758,0-12.969-11.934-6.773-17.043c-4.635-1.139-11.305-1.885-15.48-2.852
		c1.578-4.906,2.002-11.271,1.611-16.602l11.373,1.664c0.492-5.416-9.184-55.439-9.184-55.439l-52.162-1.732
		c0,0,4.854,41.146,6.604,51.908c4.463,0.086,13.307,1.273,16.533,1.732c1.934,5.023-0.543,12.256-3.43,15.889l-13.223-2.021
		c0.764,35.088-49.244-20.641-16.279-15.498c-1.563-11.576-6.348-47.936-6.348-47.936l20.555-20.047l47.971,1.527
		c-1.426-33.916,50.705,17.875,16.805,16.143c1.154,16.109,6.111,38.381,9.523,56.865
		C834.168,625.434,848.563,628.404,846.746,640.133"/>
	<path d="M537.933,705.91c-7.978-1.986-15.761-4.906-23.103-8.656c-4.022-0.357-10.15-1.139-14.19-1.715
		c0.034-0.018,0.051-0.018,0.085-0.035c-1.324-0.203-4.261-0.66-4.796-0.764h0.009c-0.968-0.17-4.286-0.764-5.245-0.967
		c1.222,1.018,2.529,1.951,3.87,2.834c0,0,1.579,1.104,2.394,1.494c4.481,2.648,9.379,4.805,14.19,6.893
		c0.441,0.186,0.875,0.373,1.308,0.576c7.927,3.447,18.417,7.418,29.315,7.572c9.785,0.135,17-0.867,23.416-3.26
		c0.713-0.256,1.426-0.543,2.123-0.832c-1.053,0.033-2.088,0.068-3.123,0.068C555.307,709.119,546.514,708.031,537.933,705.91"/>
	<path d="M562.912,699.223c-7.35,0-14.174-1.256-19.029-2.156l-0.518-0.102c-3.981,0.662-8.624,0.984-13.885,0.984
		c-3.226,0-6.688-0.119-10.371-0.373c6.179,2.869,12.62,5.16,19.215,6.807c10.788,2.682,21.922,3.648,33.092,2.902
		c5.432-2.494,10.508-5.482,15.158-8.928c2.291-1.699,4.498-3.447,6.365-5.5c-7.809,3.225-16.006,5.279-24.408,6.109
		C566.629,699.137,564.762,699.223,562.912,699.223"/>
	<path d="M591.174,676.697c-0.322,0.254-1.527,1.154-3.258,2.342c-2.072,1.41-4.396,3.004-6.875,4.244
		c-0.119,0.068-0.238,0.119-0.373,0.188c2.529-0.832,5.006-1.766,7.434-2.818c1.697-0.748,3.379-1.563,5.025-2.428
		c1.9-1.002,3.768-2.07,5.584-3.209c-0.016-0.305-0.016-0.609-0.051-0.883l0,0c-0.102-1.154-0.322-2.104-0.662-2.885
		c-0.068-0.17-0.119-0.34-0.203-0.492c-0.102,0.084-0.188,0.188-0.289,0.271l-0.797,0.73c-0.375,0.373-0.748,0.695-1.139,1.068
		C594.196,674.15,592.787,675.508,591.174,676.697"/>
	<path d="M522.792,672.928c-0.509-0.186-1.018-0.373-1.493-0.559c-0.018,0.287-0.034,0.695-0.085,1.188
		c-0.221,2.088-0.713,4.668-1.46,6.467c-0.152,0.357-0.322,0.713-0.492,1.07c-0.391,1.002-0.883,1.951-1.442,2.869
		c0.755,0.221,1.502,0.441,2.257,0.662c0.662,0.203,1.324,0.389,1.978,0.594c-0.195-3.582,0.807-7.844,2.521-11.73
		C523.998,673.318,523.403,673.133,522.792,672.928"/>
	<path d="M497.509,662.506c-0.009-0.084-3.642,0.391-5.305,0.814c-3.141,0.799-6.077,2.564-6.866,3.039
		c0.433,0.797,0.976,1.664,1.655,2.563c1.408,1.867,2.937,3.209,4.192,4.125c0.136-0.678,0.373-1.68,0.865-2.816
		c0.391-0.918,1.46-2.854,2.886-4.736c0.204-0.256,0.408-0.527,0.629-0.799c0.288-0.424,0.534-0.746,0.679-0.898
		c0.407-0.477,0.832-0.883,1.239-1.258l0,0l0.017-0.016C497.5,662.523,497.509,662.523,497.509,662.506"/>
	<path d="M590.903,667.004c-1.188,0.051-2.07,0.152-2.986,0.357c-0.441,0.102-0.799,0.221-1.053,0.287c0,0.018,0,0.035,0.018,0.035
		c0.779,0.797,1.561,2.818,1.646,3.004c0.033,0.086,0.764,1.748,0.984,3.666c1.205-0.83,2.189-1.578,2.953-2.172
		c0.967-0.781,1.527-1.256,3.156-2.699c0.697-0.594,0.867-0.814,1.223-1.104c-0.764-0.645-1.357-1.002-2.648-1.223
		C593.297,667.004,592.295,666.936,590.903,667.004"/>
	<path d="M466.453,608.307c0-0.053,0.17-5.383,1.715-6.197c0.356-0.186,0.747-0.17,1.104,0.086c0.526,0.355,1.188,1.443,1.154,2.104
		c-0.009,0.324-0.034,0.713-0.051,1.154c-0.119,1.885-0.306,4.736-0.052,8.471c0.942,14.549,5.059,30.775,11.586,45.68
		c0.11,0.271,0.212,0.492,0.263,0.662c0.611,1.068,1.392,2.664,1.8,3.496c0.39-0.289,0.916-0.662,1.272-0.865
		c0.492-0.271,1.757-0.832,2.462-1.137c-4.821-10.814-7.291-29.451-7.928-37.922c-1.171-15.414-0.441-16.127-0.102-16.482
		c0.645-0.629,1.188-0.611,1.52-0.459c1.332,0.51,1.706,3.65,1.858,8.217c0.322,9.42,0.832,15.836,1.715,21.455
		c1.103,7.078,5.678,21.252,6.586,24.002c4.022-1.068,5.813-1,6.908-0.949c0.085,0,0.153,0,0.221,0l-0.136-0.596
		c-2.02-9.217-5.813-26.377-4.804-35.391c0.051-0.477,0.094-0.951,0.136-1.426c0.136-1.834,0.238-3.158,1.035-3.447
		c0.323-0.135,0.714-0.051,1.053,0.221c0.696,0.527,1.341,1.986,1.053,4.447c-0.798,6.74,2.996,26.346,5.364,35.563
		c0.221-0.084,0.415-0.188,0.78-0.408c0.62-0.406,2.716-1.867,3.7-4.191c0.34-0.781,0.34-1.139,0.34-2.359
		c0.009-0.373,0.017-0.832,0.017-1.393c-0.102-1.307-0.093-2.631,0.034-4.107c0.018-2.801,2.105-5.975,3.175-6.994
		c0.364-0.34,0.865-0.713,1.272-0.967c-1.417-5.381-2.834-11.611-3.021-17.672c-1.569,1.529-3.904,3.701-4.583,3.871
		c-1.205,0.271-2.3-0.475-3.021-1.086c-2.495-2.088-4.464-4.754-5.737-7.74c-0.747,0.543-1.697,0.83-2.69,0.848
		c-1.29-0.033-2.487-0.475-3.302-1.324c-0.798-0.814-1.205-1.867-1.536-2.801c-0.552-1.561-0.917-3.174-1.265-4.736
		c-0.271-1.238-0.561-2.529-0.942-3.768c-0.263,0.135-0.603,0.322-0.891,0.475c-2.105,1.121-2.886,1.477-3.396,1.273
		c-0.695-0.271-1.171-1.408-1.646-2.664l-0.118-0.324c-0.441-1.086-0.866-3.037-1.273-4.939c-0.195-0.898-0.373-1.764-0.543-2.41
		c-4.855,4.652-8.487,6.078-10.729,6.434c-0.051,0.018-5.194,0.764-5.882-0.221c-0.144-0.203-0.152-0.475-0.017-0.695
		c0.704-1.189,1.129-2.055,1.4-2.666c-1.663,1.309-4.447,2.699-9.115,1.24c-0.688-0.221-1.172-0.441-1.494-0.697
		c-0.628,0.578-1.782,1.512-2.732,1.801c-2.614,0.814-4.244,0.729-5.008-0.205c-0.467-0.576-0.483-1.34-0.348-2.053l-2.267,1.799
		c1.053,8.521,2.64,17.008,4.693,25.225c2.274,9.064,4.516,15.447,5.661,18.434c1.324,3.531,3.157,8.369,6.417,14.344
		c2.003,3.668,4.252,7.232,6.705,10.627c0.856-1.697,2.622-5.211,3.089-6.145c-1.273-2.631-12.654-26.719-13.461-51.994
		c-0.178-2.699-0.398-9.133,1.273-9.846c0.102-0.051,0.237-0.084,0.391-0.084c0.297,0,0.661,0.135,1.086,0.561l0.102,0.152
		c0.391,0.883,0.399,1.426,0.407,2.732c0.026,2.24,0.068,6.926,2.055,20.234c1.468,9.795,4.838,21.014,10.609,35.291
		c0.39,1,1.663,4.227,3.072,6.398c0.339,0.527,2.003,3.039,3.564,4.43c1.12-1.799,2.274-3.479,3.743-4.752
		C477.52,659.893,467.013,638.113,466.453,608.307"/>
	<path d="M636.463,598.596c0.035,0.441-0.051,0.883-0.322,1.256c-0.695,0.951-2.326,1.154-5.025,0.578
		c-0.934-0.188-2.477-1.137-3.428-1.766c-0.086,0.254-0.271,0.561-0.594,0.883c-0.918,0.883-3.668,1.273-6.52,0.322
		c-1.018-0.322-1.986-0.814-2.867-1.426c0.322,0.662,0.797,1.527,1.459,2.648c0.135,0.221,0.135,0.492-0.018,0.695
		c-0.678,0.984-5.822,0.238-5.873,0.221c-4.871-0.781-8.928-4.566-10.881-6.398c-0.119-0.119-0.236-0.238-0.355-0.34
		c-0.17,2.088-0.713,5.566-1.291,7.588c0,0.033-0.746,2.664-1.781,3.055c-0.492,0.188-1.291-0.152-3.396-1.273
		c-0.287-0.152-0.627-0.34-0.898-0.475c-0.373,1.238-0.662,2.529-0.934,3.768c-0.357,1.563-0.713,3.191-1.273,4.736
		c-0.322,0.934-0.746,1.986-1.527,2.801c-0.814,0.85-1.986,1.324-3.26,1.324h-0.051c-0.984,0-1.936-0.305-2.682-0.848
		c-1.273,2.986-3.242,5.652-5.738,7.74c-0.73,0.611-1.816,1.375-3.021,1.086c-0.678-0.17-3.004-2.326-4.566-3.854
		c-0.016,2.207-0.084,4.006-0.406,5.721c-1.002,5.686-2.055,9.098-2.887,11.441c0.477,0.305,0.764,0.559,0.781,0.559
		c0.475,0.408,0.814,0.832,0.984,1.037c0.34,0.441,1.393,1.969,1.85,3.123c0.73,1.766,1.104,3.633,1.24,6.043
		c0.068,1.34,0.068,2.273,0.068,2.936c0,1.223,0.016,1.58,0.338,2.344c0.545,1.273,1.342,2.139,2.156,2.852l0.73-2.529
		c2.902-10.1,7.299-25.377,6.789-31.014c-0.236-2.529,0.408-3.971,1.088-4.48c0.322-0.238,0.695-0.307,1.018-0.188
		c0.645,0.238,1.086,1.172,1.172,4.924c0.119,6.264-4.363,22.32-7.027,31.912c-0.34,1.205-0.662,2.342-0.934,3.326
		c0.287,0.137,0.662,0.322,1.137,0.594c1.018,0.561,2.92,1.631,4.701,3.668c0.391,0.441,0.816,1.068,1.205,1.629v0.018l0.391-0.051
		c3.158-6.027,8.471-24.07,9.303-28.23c1.104-5.432,1.393-12.018,1.715-21.438c0.152-4.566,0.525-7.707,1.85-8.217
		c0.34-0.152,0.883-0.17,1.512,0.459c0.355,0.355,1.086,1.068-0.086,16.482l-0.119,1.646c-0.525,7.451-1.104,15.904-10.422,38.99
		c0.543-0.033,1.002-0.033,1.459-0.033c2.293,0,4.074,0.186,5.398,0.561c5.857-16.602,12.324-38.584,13.139-51.078
		c0.238-3.734,0.068-6.586-0.051-8.471c-0.018-0.441-0.051-0.83-0.051-1.154c-0.033-0.66,0.629-1.748,1.154-2.104
		c0.355-0.238,0.746-0.271,1.104-0.086c1.527,0.799,1.715,6.145,1.715,6.197c-0.375,19.791-7.08,38.82-11.984,52.723
		c-0.73,2.055-1.41,3.988-2.02,5.789c0.254,0.287,0.424,0.508,0.424,0.508c0.135,0.17,0.271,0.391,0.391,0.629
		c1.68-0.832,4.26-2.428,5.754-3.684c2.02-1.697,3.055-3.564,3.734-5.008c7.164-15.176,10.355-34.527,10.389-34.713
		c1.068-6.688,1.969-16.891,2.02-18.773c0.018-0.596,0.018-1.07,0.035-1.461c0-1.307,0.016-1.85,0.406-2.732l0.102-0.152
		c0.629-0.646,1.154-0.629,1.477-0.477c1.664,0.713,1.443,7.146,1.273,9.881c-0.814,25.273-12.205,49.395-13.461,51.977
		c0.205,0.389,0.662,0.934,1.086,1.441c0.289,0.34,0.578,0.697,0.85,1.035c0.51,0.662,1.053,1.375,1.393,1.801
		c1.799-1.646,5.703-7.453,6.467-8.777c2.988-5.211,4.65-9.641,5.992-13.189l0.424-1.154c1.154-3.021,3.395-9.42,5.652-18.434
		c1.189-4.719,3.361-14.293,4.822-25.904c-0.545-0.135-1.088-0.322-1.58-0.576C636.99,598.918,636.717,598.766,636.463,598.596"/>
	<path d="M486.212,682.043c1.562,0.629,5.313,1.648,6.926,2.072c3.395,0.848,6.85,1.527,10.313,2.07
		c0.246,0.033,0.5,0.086,0.746,0.119c0.654,0.119,1.315,0.203,1.978,0.289c0.662,0.102,1.324,0.203,1.978,0.287
		c1.197,0.154,2.402,0.289,3.599,0.426c4.083,0.457,8.19,0.797,12.299,1c-2.495-0.594-5.059-1.256-7.902-2.02
		c-0.033,0.051-0.279-0.016-0.67-0.17c-0.611-0.17-1.273-0.338-1.952-0.525c-0.085-0.033-0.17-0.051-0.255-0.086
		c-0.356-0.102-0.713-0.186-1.095-0.305c-0.076-0.018-0.152-0.033-0.229-0.068c-0.645-0.186-1.315-0.373-2.011-0.594
		c-0.289-0.084-0.569-0.17-0.866-0.271c-0.263-0.068-0.534-0.152-0.798-0.238c-0.331-0.117-0.671-0.221-1.01-0.338
		c-0.264-0.086-0.535-0.17-0.798-0.256c-0.374-0.135-0.764-0.254-1.146-0.391c-0.246-0.084-0.51-0.17-0.772-0.271
		c-0.441-0.152-0.883-0.305-1.333-0.475c-0.229-0.086-0.449-0.152-0.67-0.238c-0.696-0.254-1.393-0.525-2.105-0.797
		c-0.118-0.051-0.237-0.102-0.339-0.137c-0.068-0.033-0.136-0.051-0.188-0.084c-0.017,0-0.017,0.016-0.025,0.016l-0.279-0.117
		c0,0,0,0,0.017-0.018c-0.085-0.018-0.17-0.051-0.255-0.086c-0.221-0.102-0.441-0.186-0.67-0.271
		c-1.842-0.764-3.812-1.662-5.797-2.816c-0.934-0.459-1.646-0.934-2.275-1.426c-0.746-0.492-1.477-1.02-2.206-1.596
		c-0.441-0.34-0.849-0.697-1.239-1.037c-0.459-0.406-0.874-0.814-1.273-1.221c-1.188-1.223-2.104-2.461-2.826-3.82
		c-0.348,0.984-0.713,1.986-1.044,3.006c-0.662,2.053-1.214,4.141-1.315,6.314c-0.009,0.305-0.161,0.848,0.017,1.104
		C481.272,679.803,485.092,681.604,486.212,682.043"/>
	<path d="M554.662,691.873c0.355-0.17,0.713-0.375,1.068-0.578c-3.072,0.289-9.488,0.543-18.798-0.611
		c-1.308-0.17-2.529-0.34-3.718-0.525c-0.102,0-0.221-0.018-0.322-0.018c-6.383-0.033-13.173-0.424-19.75-1.104
		c-1.477-0.102-1.978-0.203-3.302-0.355c-0.696-0.086-1.392-0.17-2.079-0.256c-3.2-0.441-6.399-0.934-9.574-1.561
		c-1.612-0.322-3.251-0.662-4.88-1.053c0,0.018,0,0.033,0,0.033c-2.359-0.611-6.841-1.918-9.014-2.92
		c-0.653-0.287-2.088-0.967-3.531-1.9c0.11,0.68,0.298,1.357,0.577,1.986c0.034,0.068,0.085,0.17,0.136,0.305
		c0.526,1.154,1.206,2.207,1.537,2.717c0.636,0.967,1.026,1.561,1.688,2.342c0.136,0.152,0.696,0.814,1.562,1.613
		c0.807,0.746,1.545,1.307,2.156,1.73c1.366,0.289,4.532,0.918,6.179,1.223l-0.018-0.018c1.724,0.324,6.434,1.053,8.581,1.393
		c0.009-0.018,0.025-0.018,0.043-0.018c3.275,0.426,8.648,1.121,11.924,1.41c11.458,0.984,20.922,0.883,28.128-0.307
		c3.105-0.508,5.498-1.188,7.451-1.867C552.303,692.977,553.592,692.398,554.662,691.873"/>
	<path d="M588.748,682.078c-5.162,2.258-10.559,3.988-16.094,5.16c-0.033,0.018-0.051,0.018-0.084,0.033
		c-0.85,0.357-1.73,0.697-2.598,1.02l0.035,0.033l-0.357,0.086c-1.086,0.391-2.207,0.746-3.311,1.068
		c-0.609,0.17-1.205,0.34-1.816,0.477c-1.832,0.439-3.463,0.713-4.889,0.916c-1.391,0.865-2.801,1.68-4.26,2.41
		c-0.289,0.135-0.578,0.271-0.9,0.424c-1.713,0.799-3.92,1.664-6.941,2.428c5.736,1.002,13.223,2.02,20.828,1.273
		c9.199-0.9,18.129-3.311,26.547-7.129c0.934-1.41,1.732-2.955,2.293-4.719c0.713-2.275,1.391-5.619,1.51-8.691
		c-1.85,1.119-3.734,2.172-5.67,3.156C591.633,680.754,590.19,681.449,588.748,682.078"/>
	<path d="M557.989,688.375c1.766-0.221,3.65-0.492,5.908-1.035c0.459-0.102,0.934-0.238,1.393-0.355
		c-1.24-1.205-2.395-2.904-4.363-6.314c-1.02-1.783-1.512-3.957-1.697-6.129c-0.373,0.137-0.9,0.373-1.715,0.492
		c-0.17,0.018-0.424,0.051-0.68,0.102c0.748,1.783,1.291,3.734,1.529,5.959c0.236,2.24-0.035,4.379-0.271,6.434
		C558.057,687.814,558.024,688.088,557.989,688.375"/>
	<path d="M477.605,590.924c0.407-0.51,0.425-0.629,0.603-1.545c0.103-0.561,0.264-1.393,0.586-2.717
		c2.232-8.979,6.781-14.258,8.776-16.227c-4.532-1.02-6.111-4.498-6.061-7.895c-0.322,0.273-0.637,0.561-0.832,0.73
		c-3.972,3.549-7.536,14.141-9.021,19.826l-0.009,0.018c-0.798,3.633-2.351,6.738-4.312,10.678
		c-0.764,1.545-1.621,3.275-2.529,5.211C466.724,598.783,472.87,596.865,477.605,590.924"/>
	<path d="M489.683,605.727l0.229,0.797c1.121,3.836,1.121,3.836,1.138,3.938c0.271,1.613,1.019,2.359,1.621,2.529
		c0.229-0.051,1.485-1.137,2.648-3.412l0.008-0.016c1.087-1.969,9.048-17.654,10.881-21.898c-0.968-0.305-1.884-0.695-3.056-1.273
		c-1.392-0.695-2.427-1.426-3.53-2.189c-0.204-0.135-0.416-0.287-0.628-0.424c-1.069,2.156-2.198,4.328-3.378,6.434
		c-2.105,3.752-4.405,7.436-6.85,10.949c-0.06,0.084-0.136,0.186-0.229,0.305l1.104,4.107l-0.467,0.289L489.683,605.727z"/>
	<path d="M502.796,620.969c0.781-0.152,3.65-2.732,4.906-4.396c0.662-4.346,2.58-12.969,4.617-18.096
		c1.061-2.646,2.427-5.313,3.479-7.23l-0.152-0.051c-1.044-0.305-2.224-0.645-3.26-1.053c-0.619-0.254-1.104-0.406-1.527-0.561
		c-0.51-0.152-0.959-0.305-1.494-0.559c-1.052,2.223-4.481,9.811-5.5,12.254c-0.39,0.951-1.723,3.684-3.021,6.316
		c-1.188,2.426-2.419,4.939-2.843,5.924l0.009,0.033C498.891,616.438,500.505,618.932,502.796,620.969"/>
	<path d="M482.545,602.059c0.357-0.17,1.223-0.949,1.57-1.256c0.195-0.17,0.365-0.322,0.467-0.406
		c0.959-0.748,1.782-1.885,2.563-2.971c0.195-0.271,0.391-0.527,0.577-0.781c2.232-3.006,4.057-6.35,5.822-9.574l0.977-1.748
		c0.194-0.322,0.398-0.68,0.551-1.02c0.052-0.117,0.289-0.543,1.706-2.885c-1.688-1.885-5.05-7.299-6.025-9.896
		c-0.926,0.289-1.842,1.596-2.428,2.428l-0.237,0.322c-1.069,1.494-2.139,3.174-3.268,5.143c-1.664,2.938-2.547,6.18-3.124,8.676
		l-0.152,0.609c-0.586,2.529-0.942,4.041-0.543,6.689C481.611,599.293,482.206,601.516,482.545,602.059"/>
	<path d="M457.949,596.934c1.655-0.408,4.787-1.816,7.172-6.74l0.145-0.305c0.687-1.393,1.612-3.311,3.021-7.182
		c0.729-1.984,1.307-3.75,1.85-5.363c1.12-3.395,2.105-6.348,3.888-9.914c0.441-0.881,1.001-1.951,1.85-3.225
		c1.223-1.85,2.683-3.564,4.329-5.092c-3.785-0.9-5.364-3.684-5.84-5.313c-0.288,0.287-0.543,0.609-0.713,0.814
		c-2.028,2.512-8.793,11.389-10.957,20.861c-0.28,1.408-0.84,3.922-1.332,6.129c-0.399,1.748-0.765,3.326-0.9,4.057
		c-0.662,3.412-1.442,6.416-4.786,11.373C456.082,597.119,456.88,597.188,457.949,596.934"/>
	<path d="M462.311,565.783c3.098-7.043,9.557-15.072,10.966-16.77c-0.407-0.527-1.188-1.494-1.545-2.021
		c-0.476-0.695-0.662-1.594-0.814-2.309c-0.043-0.168-0.085-0.373-0.136-0.543c-1.681,1.443-8.046,10.406-11.543,17.416
		c-3.888,7.793-6.68,19.658-7.707,24.393c-0.305,1.461-1.205,5.279-1.511,6.129c-0.518,1.459-1.417,3.293-2.07,4.635
		c-0.153,0.322-0.323,0.662-0.459,0.967c5.279-1.273,8.445-5.279,9.43-11.951c0.221-1.459,1.867-9.199,2.232-10.828
		C459.731,571.793,460.835,569.162,462.311,565.783"/>
	<path d="M601.58,589.803c0.17,0.934,0.203,1.104,0.645,1.646c5.211,6.553,11.951,8.217,13.377,8.217h0.051
		c-0.967-2.105-1.885-3.955-2.717-5.602c-1.951-3.922-3.479-7.027-4.295-10.627v-0.018c-0.406-1.578-4.158-15.531-9.098-19.961
		c-0.271-0.238-0.883-0.764-1.307-1.139c0.152,2.309-0.238,7.266-6.314,8.336c1.73,1.611,6.705,6.941,9.064,16.447
		C601.326,588.428,601.479,589.26,601.58,589.803"/>
	<path d="M622.883,597.713c1.035,0.119,1.697-0.051,1.902-0.17c-3.48-5.059-4.277-8.096-4.939-11.541
		c-0.154-0.748-0.51-2.361-0.9-4.074c-0.492-2.207-1.07-4.719-1.342-6.146c-2.172-9.506-8.979-18.434-10.998-20.945
		c-0.238-0.289-0.662-0.781-1.07-1.172c-0.254,1.426-1.783,4.871-6.246,5.688c1.781,1.596,3.344,3.41,4.668,5.381
		c0.832,1.256,1.391,2.324,1.832,3.207c1.766,3.549,2.75,6.484,3.871,9.863c0.561,1.662,1.121,3.377,1.85,5.381
		c1.41,3.869,2.344,5.805,3.021,7.197l0.154,0.322C617.502,596.508,621.356,597.543,622.883,597.713"/>
	<path d="M633.307,598.088c0.186,0,0.389-0.018,0.576-0.035c0.018,0,0.033,0,0.033,0c-0.066-0.475-0.83-2.207-3.344-6.162
		c-0.441-0.713-1.748-4.516-2.104-6.162c-1.037-4.752-3.838-16.65-7.74-24.459c-2.326-4.703-5.789-10.916-11.832-17.4
		c-0.221,1.426-0.475,2.395-0.799,2.869c-0.695,1.121-1.357,1.578-1.748,1.85c-0.102,0.068-0.203,0.154-0.271,0.205
		c0.916,1.104,7.859,9.557,11.102,16.924c1.477,3.361,2.563,5.975,3.141,9.08c0.119,0.51,0.34,1.664,0.594,3.021
		c0.543,2.869,1.273,6.824,1.629,7.725C625.633,593.674,629.436,598.088,633.307,598.088"/>
	<path d="M593.211,598.715c1.121,1.443,2.463,2.732,3.939,3.82c0.152,0.102,0.271,0.186,0.391,0.186h0.016
		c0.102,0,0.17-0.102,0.271-0.355l0.018-0.051c0.441-0.984,0.645-2.088,0.85-3.158l0.084-0.391c0.188-0.898,0.357-1.867,0.51-2.953
		c0.424-2.699,0.033-4.328-0.543-6.789l-0.137-0.611c-0.594-2.514-1.477-5.789-3.174-8.742c-1.121-1.986-2.189-3.668-3.26-5.16
		l-0.238-0.34c-0.66-0.916-1.713-2.428-2.816-2.58c-0.865,2.664-3.887,8.113-6.18,10.184c1.748,2.887,1.783,2.988,1.799,3.039
		c0.137,0.322,0.357,0.68,0.561,1.035c0.086,0.154,0.17,0.307,0.256,0.459l0.695,1.273c1.154,2.104,2.342,4.277,3.65,6.348
		c0.645,1.02,1.188,1.834,1.713,2.58c0.205,0.256,0.391,0.527,0.578,0.799C592.516,597.781,592.856,598.256,593.211,598.715"/>
	<path d="M587.559,613.076c0.035,0,0.068,0,0.086,0c1.324-0.373,1.578-0.951,2.088-2.359c0.457-1.24,0.848-2.514,1.188-3.785
		c0.033-0.119,0.068-0.256,0.084-0.391c0.238-0.934,0.426-1.885,0.596-2.818c0.051-0.17,0.084-0.305,0.119-0.475
		c0.102-0.375,0.305-1.154,0.152-1.342l-0.086-0.119c-0.119-0.152-0.221-0.289-0.305-0.406c-2.428-3.498-4.736-7.164-6.824-10.898
		c-1.223-2.207-2.41-4.465-3.514-6.723c-0.289,0.205-0.594,0.408-0.883,0.611c-1.086,0.764-2.105,1.477-3.48,2.156
		c-1.271,0.645-2.258,1.053-3.293,1.357c1.596,3.82,9.881,20.184,11,22.186C585.539,612.158,587.049,613.076,587.559,613.076"/>
	<path d="M570.805,589.057c-1.408,0.662-4.82,1.73-6.959,2.393c1.068,1.953,2.512,4.736,3.615,7.504
		c2.41,6.025,3.734,11.662,3.938,16.754c1.342,1.816,5.16,5.568,5.807,5.449c4.26-4.414,4.854-6.418,5.092-7.182
		c0.018-0.033,0.018-0.066,0.033-0.102c-0.406-0.934-1.662-3.514-2.902-6.008c-1.289-2.633-2.631-5.365-3.004-6.299
		C575.354,599.004,571.688,590.906,570.805,589.057"/>
	<path d="M634.002,571.098c-0.373-1.035-0.73-2.088-1.104-3.158c-0.068-0.17-0.152-0.406-0.271-0.678
		c-0.119-0.289-0.254-0.629-0.408-1.02C626.668,551.576,618.03,541.17,616.84,540c-1.068,0.373-2.207,0.611-3.344,0.713
		c-1.104,0.084-2.207,0.051-3.293-0.102c0.441,0.576,1.053,1.391,1.766,2.359c3.547,4.701,9.488,12.561,11.17,16.363
		c2.154,4.838,4.498,10.678,7.502,24.07c1.461,6.416,5.211,11.898,8.623,12.561c0.086-0.373,0.086-1.748-0.611-6.586
		C637.364,580.502,635.666,575.715,634.002,571.098"/>
	<path d="M539.92,561.387c-1.12-1.527-3.191-1.713-3.582-1.748c-3.378-0.322-5.882,2.564-6.705,3.514
		c-0.56,0.662-1.315,1.697-1.85,3.107c-0.662,1.73-0.679,3.191-0.679,3.955c-0.018,11.848,0.84,17.008,0.84,17.008
		c0.322,1.936,1.12,6.383,2.775,11.9c0,0,1.731,6.365,5.5,11.271c0.874,1.137,3.106,3.225,4.015,2.801
		c-1.944-4.346-2.979-7.91-3.2-8.42c-0.45-1.104-2.648-8.148-3.03-13.971c-0.585-8.963,0.807-19.316-0.136-26.684
		c0.077-0.086,0.221-0.205,0.391-0.188c1.061,0.018,1.341,3.463,1.451,5.84c0.238,5.33-0.034,9.42-0.221,11.746
		c-0.475,5.908-0.254,8.25,0.161,11.203c1.129,7.979,5.399,19.76,5.764,19.996c0.135,0.102,0.186-1.119,0.322-2.273
		c0,0-0.102-2.072-0.111-2.75c-0.025-6.434-0.789-16.145-0.789-16.145c-0.018-7.4-0.271-12.307-0.135-19.656
		C540.727,570.164,540.666,562.424,539.92,561.387"/>
	<path d="M448.834,583.506c3.021-13.41,5.466-19.486,7.528-24.104c1.697-3.82,7.469-11.51,10.914-16.109
		c0.62-0.814,1.163-1.527,1.57-2.088l-5.848-0.764c-1.332,1.375-9.846,11.814-15.234,26.055c-0.153,0.391-0.289,0.73-0.408,1.02
		c-0.11,0.271-0.203,0.51-0.263,0.68c-0.365,1.068-0.738,2.121-1.112,3.156c-1.646,4.617-3.36,9.387-4.634,18.23
		c-0.586,4.057-0.679,5.637-0.645,6.23C443.936,594.947,447.441,589.668,448.834,583.506"/>
	<path d="M555.629,681.771c-0.594-5.771-3.598-9.742-6.875-13.629c-0.627-0.766-1.137-1.428-1.561-2.072
		c-1.902-2.92-2.801-6.043-2.547-8.775c0.119-1.223,0.477-2.342,0.799-3.328c0.746-2.324,0.695-3.021,0.662-3.598l-0.018-0.221
		c-0.084-1.629-0.68-2.869-0.9-3.344c-0.322-0.662-0.678-1.256-1.078-1.748c-0.236-0.307-0.406-0.256-0.865-0.102
		c-0.186,0.066-0.373,0.135-0.594,0.168c-1.035,0.205-2.088,0.256-3.158,0.119c-0.187-0.016-0.475-0.051-0.789-0.102
		c-0.543-0.068-1.162-0.152-1.493-0.186c-0.009,0-0.025,0-0.034,0c-0.526,0-1.435,1.256-1.74,1.662
		c-0.085,0.119-0.152,0.205-0.187,0.256c-0.271,0.322-0.51,0.797-0.729,1.256c-0.094,0.203-0.188,0.406-0.289,0.594
		c-1.12,2.055-0.857,4.107-0.407,6.01c0.178,0.779,0.391,1.662,0.509,2.646c0.051,0.391,0.103,0.764,0.153,1.139
		c0.441,3.191,0.764,5.5-2.529,8.402c-4.668,4.141-6.68,9.354-7.367,19.215c2.886,0.662,6.026,1.223,9.336,1.664
		c1.502-1.885,2.453-6.91,1.451-11.305c-0.008-0.053-0.772-4.533,0.043-4.805c0.373-0.119,0.611,0.408,0.729,0.68
		c2.309,5.176,2.598,10.914,0.798,15.785l0.136,0.018c0.034,0,2.58,0.322,6.017,0.543c0.102,0.018,0.213,0.018,0.332,0.033
		c-1.732-5.023-1.248-10.863,1.332-16.074c0.137-0.271,0.391-0.797,0.764-0.645c0.799,0.289-0.135,4.752-0.152,4.787
		c-1.213,4.447-0.992,7.4,0.916,12.086c3.48,0.135,6.502,0.102,8.945-0.119l0.018-0.068c0.035-0.355,0.068-0.713,0.119-1.053
		C555.614,685.643,555.834,683.742,555.629,681.771 M536.797,651.846c-0.297,0.764-0.9,1.307-1.138,1.461
		c-0.051,0.016-0.093,0.033-0.145,0.033c-0.093,0-0.178-0.051-0.229-0.137c-0.077-0.117-0.034-0.287,0.093-0.355
		c0.043-0.035,0.128-0.086,0.213-0.17c0.221-0.221,0.525-0.561,0.695-1.018c0.051-0.154,0.103-0.289,0.145-0.441
		c-0.152,0.135-0.365,0.271-0.637,0.389c-0.255,0.104-0.543,0.17-0.916,0.205c-0.052,0-0.085,0-0.137,0
		c-0.161-0.018-0.305-0.102-0.407-0.221c-0.373-0.459-0.526-0.951-0.441-1.426c0.153-0.918,1.087-1.512,1.698-1.902
		c0.263-0.17,0.61-0.102,0.806,0.137c0.076,0.018,0.145,0.051,0.179,0.119C537.382,649.809,537.153,650.879,536.797,651.846
		 M543.119,651.914c0.17,0.459,0.475,0.797,0.705,1.002c0.084,0.084,0.152,0.152,0.203,0.17c0.137,0.084,0.17,0.254,0.094,0.373
		c-0.043,0.084-0.145,0.135-0.23,0.135c-0.051,0-0.102-0.016-0.135-0.033c-0.254-0.152-0.85-0.695-1.137-1.461
		c-0.375-0.967-0.596-2.035,0.203-3.344c0.051-0.066,0.119-0.102,0.188-0.119c0.186-0.236,0.543-0.305,0.814-0.135
		c0.602,0.408,1.535,1.002,1.688,1.9c0.086,0.492-0.066,0.969-0.441,1.426c-0.102,0.137-0.254,0.205-0.406,0.221
		c-0.051,0.018-0.086,0.018-0.137,0.018c-0.363-0.033-0.67-0.119-0.908-0.221c-0.279-0.102-0.492-0.238-0.645-0.373
		C543.018,651.607,543.061,651.762,543.119,651.914"/>
	<path d="M526.645,554.156c0,0,1.027,0.814,1.978,0.832c0.128,0.018,0.246-0.018,0.246-0.018c0.085,0,0.17-0.033,0.246-0.068
		c-2.231-1.527-3.997-4.209-3.845-6.977c0.085-1.697,1.341-2.902,2.139-4.293c0.365-0.646,0.646-1.324,0.654-2.123
		c0.008-0.457-0.374-0.713-0.739-0.713c-0.339,0-0.661,0.205-0.67,0.645c-0.009,0.629-0.246,1.189-0.561,1.715
		c-0.331,0.543-0.755,1.053-1.095,1.563c-0.832,1.223-1.239,2.547-1.12,4.023c0.017,0.254,0.067,0.475,0.102,0.713
		c0.204,1.238,0.637,2.154,0.951,2.699C525.594,553.291,526.34,553.918,526.645,554.156"/>
	<path d="M520.814,638.029c0.823,0.287,1.57,0.678,2.182,1.221c1.239-1.781,5.687-8.232,6.434-9.658
		C527.104,631.375,522.962,635.941,520.814,638.029"/>
	<path d="M524.693,642.119c1.002-0.662,6.892-10.049,6.892-10.049c-1.815,1.205-6.264,5.551-8.113,7.639
		c0.271,0.305,0.509,0.629,0.695,0.984C524.422,641.168,524.575,641.645,524.693,642.119"/>
	<path d="M541.6,642.068l0.152-0.018c0.867-0.066,1.41-0.221,1.664-0.305c-0.254-1.527-1.918-8.453-2.699-10.457
		c-0.645,1.969-1.731,8.742-1.901,10.576c0.407,0.084,1.409,0.186,2.309,0.186L541.6,642.068z"/>
	<path d="M550.979,631.611c0,0,3.887,7.486,5.5,9.896c0.186-0.457,0.391-0.883,0.561-1.205s0.391-0.594,0.594-0.865
		c-0.289-0.51-0.68-1.188-1.121-1.953C554.629,635.229,552.201,632.563,550.979,631.611"/>
	<path d="M558.516,638.588c0.576-0.475,1.256-0.814,1.986-1.035c-2.072-2.461-5.229-6.484-7.164-8.232
		c0.525,1.24,3.395,6.281,4.922,8.945C558.346,638.385,558.43,638.486,558.516,638.588"/>
	<path d="M562.895,589.023l1.357-0.578c0,0,4.838-1.715,6.4-2.377c2.258-0.934,6.502-3.037,8.555-4.668
		c5.449-4.311,7.113-10.422,8.725-12.357c5.602-0.355,7.877-3.105,8.234-5.924c0.221-1.68-1.563-5.568-1.07-5.703
		c0,0,6.213-1.375,7.605-3.498c2.053-3.123,0.898-7.129,0.898-7.129c0.086,0,5.467-2.02,2.309-9.879
		c0.645,1.578,12.732,0.305,12.459-0.51c-0.797-2.24-3.988-5.023-7.213-6.992c-4.074-2.496-8.742-2.988-11.73-2.648
		c-3.293,0.391-6.551,0.729-9.658,1.951c-4.549,1.816-6.959,5.145-8.063,9.795c-1.256,5.193-1.256,10.574-1.852,15.889
		c-0.746,6.705-2.664,13.104-7.91,17.705c-4.227,3.717-9.811,6.67-15.412,7.654C558.719,582.063,562.895,589.023,562.895,589.023"/>
	<path d="M474.177,536.91c-3.157,7.859,2.224,9.879,2.309,9.879c0,0-1.154,4.006,0.899,7.129c1.393,2.123,7.597,3.498,7.597,3.498
		c0.501,0.135-1.282,4.023-1.069,5.703c0.356,2.818,2.64,5.568,8.241,5.924c1.612,1.936,3.259,8.047,8.725,12.357
		c2.054,1.631,6.298,3.734,8.547,4.668c1.57,0.662,6.408,2.377,6.408,2.377l1.357,0.578c0,0,4.176-6.961,6.366-9.27
		c-5.771-1.018-15.523-5.67-19.759-12.73c-4.252-8.148-4.728-18.23-4.753-18.656c-0.416-7.078-1.527-12.764-1.748-13.342
		c-2.903-7.418-13.733-7.926-16.636-8.266c-2.987-0.34-7.655,0.152-11.729,2.648c-3.233,1.969-6.425,4.752-7.214,6.992
		C461.437,537.215,473.532,538.488,474.177,536.91"/>
	<path d="M584.606,667.904c-0.018-0.035-0.967-1.732-2.105-2.971c-1.68-1.783-3.854-2.971-5.602-3.904
		c-0.475-0.271-0.916-0.51-1.307-0.73c-0.814-0.492-1.85-1.104-2.768-2.189c-1.799-2.121-1.984-4.752-2.139-6.857
		c-0.033-0.578-0.066-1.137-0.084-1.68c-0.051-1.342-0.102-2.598-0.424-4.023c-0.408-1.732-1.088-3.158-2.037-4.211
		c-1.189-1.34-2.768-2.02-4.686-2.02c-0.068,0-0.137,0.018-0.221,0.018l-0.119,0.016c-0.355,0.035-0.713,0.104-1.053,0.205
		c-0.611,0.203-1.223,0.51-1.816,0.934c-0.119,0.084-0.254,0.186-0.355,0.271c-0.102,0.084-0.188,0.17-0.271,0.238l-0.068,0.066
		c-0.238,0.221-0.441,0.426-0.594,0.629c-0.152,0.17-0.238,0.305-0.307,0.441c-0.236,0.34-0.391,0.645-0.492,0.916
		c-0.373,1.121-0.17,2.156,0.068,3.361l0.051,0.254c0.408,2.055,2.037,4.617,2.189,4.822c0.85,1.104,1.732,2.24,2.293,3.564
		c0.779,1.883,0.949,3.869,0.508,5.754c-0.492,2.121-0.848,4.414-1.17,6.434c-0.137,0.832-0.256,1.629-0.375,2.359
		c-0.355,2.105-0.152,4.584,0.561,7.197c0.152,0.525,0.578,1.9,1.291,3.242c1.223,2.291,2.699,4.295,4.379,5.941
		c1.494-0.51,3.123-1.154,4.939-1.953c2.055-0.898,3.99-1.832,5.789-2.732c-0.424-0.391-0.951-0.883-1.494-1.459l-0.137-0.137
		c-1.561-1.629-3.344-3.463-4.871-6.365c-2.359-4.516-1.715-6.994-1.646-7.266c0.018-0.033,0.391-1.273,0.391-1.273l0.355-1.188
		l0.238,1.799c0.035,0.221,0.102,0.73,0.221,1.375c0.645,2.648,2.41,5.602,3.174,6.52c2.445,2.953,4.465,4.99,6.52,6.568
		c0.967-0.543,1.986-1.188,3.123-1.936c-0.68-2.986-1.732-6.314-4.295-8.656c-0.221-0.203-1.035-0.951-1.035-0.951l-0.424-0.355
		l0.492-0.289c0.271-0.152,0.967-0.188,2.479,1.223c1.697,1.596,3.615,5.363,4.379,7.961l0.322-0.221
		c0.459-0.322,0.865-0.594,1.223-0.867c-0.271-1.34-0.594-2.613-0.934-3.666C586.133,670.162,584.623,667.922,584.606,667.904
		 M567.377,646.482c-0.068,0.221-0.307,0.34-0.545,0.287c-0.016,0-0.033,0-0.033-0.016c-0.238-0.086-0.373-0.34-0.289-0.578
		c0.035-0.066,0.068-0.203,0.086-0.355c0.102-0.51,0.17-1.393-0.102-2.105c-0.068-0.17-0.137-0.34-0.205-0.492
		c-0.033,0.357-0.186,0.799-0.576,1.291c0,0,0,0.016-0.018,0.033c-0.018,0.033-0.051,0.068-0.084,0.084
		c-0.119,0.104-0.271,0.154-0.441,0.154c-0.594-0.051-1.035-0.256-1.342-0.629c-0.576-0.73-0.391-1.783-0.271-2.496
		c0.018-0.084,0.051-0.168,0.086-0.236l-0.018-0.018c-0.102,0-0.203-0.018-0.322-0.018c-0.256-0.016-0.459-0.203-0.459-0.457
		c0-0.256,0.221-0.459,0.475-0.459c2.598,0.018,3.498,1.494,4.041,2.92C567.801,644.564,567.563,645.973,567.377,646.482"/>
	<path d="M523.479,448.404l-16.575,25.938l26.26-16.381l6.841,29.926l6.832-29.926l26.26,16.381l-16.566-25.938l30.283-6.773
		l-30.283-6.756l16.566-25.938l-26.26,16.381l-6.832-29.926l-6.841,29.926l-26.26-16.381l16.575,25.938l-30.291,6.756
		L523.479,448.404z M519.117,421.007l16.559,10.338l4.329-18.876l4.312,18.876l16.559-10.338l-10.457,16.364l19.113,4.26
		l-19.113,4.277l10.457,16.364l-16.559-10.337l-4.312,18.875l-4.329-18.875l-16.559,10.337l10.465-16.364l-19.113-4.277l19.113-4.26
		L519.117,421.007z"/>
	<path d="M495.336,242.11c-3.047,0-5.517,2.444-5.517,5.449s2.47,5.448,5.517,5.448s5.525-2.443,5.525-5.448
		S498.383,242.11,495.336,242.11"/>
	<path d="M584.895,253.008c3.037,0,5.516-2.443,5.516-5.448s-2.479-5.449-5.516-5.449c-3.039,0-5.518,2.444-5.518,5.449
		S581.856,253.008,584.895,253.008"/>
	<path d="M540.684,253.008c3.039,0,5.508-2.443,5.508-5.448s-2.469-5.449-5.508-5.449c-3.056,0-5.526,2.444-5.526,5.449
		S537.628,253.008,540.684,253.008"/>
	<path d="M490.812,297.617c-3.039,0-5.518,2.462-5.518,5.449c0,3.021,2.479,5.467,5.518,5.467c3.047,0,5.517-2.445,5.517-5.467
		C496.329,300.079,493.859,297.617,490.812,297.617"/>
	<path d="M589.086,297.617c-3.037,0-5.516,2.462-5.516,5.449c0,3.021,2.479,5.467,5.516,5.467c3.039,0,5.518-2.445,5.518-5.467
		C594.604,300.079,592.125,297.617,589.086,297.617"/>
	<path d="M540.514,297.617c-3.039,0-5.517,2.462-5.517,5.449c0,3.021,2.479,5.467,5.517,5.467c3.039,0,5.525-2.445,5.525-5.467
		C546.039,300.079,543.553,297.617,540.514,297.617"/>
	<polygon points="352.23,447.047 354.946,440.121 355.787,437.982 353.622,437.167 349.76,435.689 347.604,434.858 346.764,436.997 
		344.049,443.906 335.035,440.46 332.879,439.645 332.048,441.768 330.07,446.826 329.229,448.947 331.394,449.779 340.399,453.225 
		337.394,460.897 336.562,463.037 338.719,463.852 342.589,465.345 344.745,466.16 345.576,464.038 348.581,456.348 
		355.914,459.149 358.069,459.98 358.901,457.842 360.879,452.801 361.719,450.662 359.563,449.848 	"/>
	<polygon points="727.057,457.129 727.635,459.336 729.875,458.775 737.481,456.824 739.364,464.004 739.942,466.228 
		742.182,465.65 746.205,464.632 748.446,464.055 748.258,463.376 748.326,463.359 747.682,461.118 745.985,454.65 755.338,452.258 
		757.578,451.68 757,449.474 755.625,444.229 755.049,442.021 752.809,442.599 743.455,444.992 741.367,437.014 740.774,434.808 
		738.549,435.367 734.526,436.402 732.285,436.98 732.864,439.188 734.951,447.165 727.364,449.1 725.106,449.678 725.699,451.884 	
		"/>
	<path d="M521.239,642.441c-0.755-1.17-2.189-1.918-3.93-2.088c-0.221-0.033-0.467-0.033-0.662-0.033
		c-0.789,0-1.553,0.135-2.283,0.391l-0.152,0.051c-0.068,0.018-0.136,0.033-0.204,0.068c-0.976,0.406-2.334,0.967-3.717,2.918
		c-0.926,1.309-0.96,2.445-1.036,4.906l-0.025,1.002c-0.034,0.865-0.017,1.238,0,1.545c0.018,0.322,0.034,0.594-0.017,1.238
		c-0.153,2.105-0.34,4.719-2.122,6.842c-1.324,1.578-3.191,2.563-4.99,3.514c-1.35,0.713-2.742,1.443-3.87,2.41
		c-1.545,1.324-2.835,3.105-3.922,5.414c-0.747,1.563-1.272,3.141-1.646,4.838c0.425,0.271,0.832,0.51,1.257,0.73
		c0.254,0.152,0.509,0.289,0.764,0.441c0.594-2.58,2.725-6.926,4.565-8.641c1.511-1.408,2.207-1.357,2.479-1.221l0.492,0.271
		l-1.46,1.322c-2.495,2.275-3.76,6.197-4.388,9.066c-0.008,0.016-0.008,0.033-0.008,0.066c0.959,0.459,1.969,0.918,3.055,1.359
		c0.271,0.102,0.535,0.221,0.798,0.322l0.128,0.051c1.672-1.324,3.386-3.123,5.898-6.145c0.764-0.918,2.529-3.871,3.174-6.52
		c0.119-0.662,0.188-1.154,0.221-1.375l0.238-1.816l0.356,1.189c0,0,0.364,1.221,0.391,1.289c0.084,0.271,0.713,2.75-1.655,7.266
		c-1.52,2.902-3.302,4.736-4.863,6.365l-0.136,0.137c-0.255,0.254-0.476,0.492-0.696,0.713l0.798,0.287
		c0.611,0.238,1.223,0.441,1.8,0.646c0.594,0.203,1.128,0.373,1.646,0.525c1.052,0.34,1.985,0.594,3.072,0.9
		c1.137,0.322,2.41,0.678,4.065,1.188c1.4-1.951,2.351-3.785,2.902-5.619c0.679-2.223,0.874-4.701,0.611-7.604
		c-0.229-2.479-0.705-5.145-1.536-8.658c-0.441-1.883-0.255-3.887,0.526-5.754c0.543-1.342,1.426-2.479,2.283-3.582
		c0.161-0.203,0.33-0.424,0.5-0.645l0.103-0.137C522.75,648.314,522.563,644.496,521.239,642.441 M515.96,645.311
		c-0.195,0.441-0.568,0.781-1.129,0.967c-0.152,0.053-0.306,0.053-0.449-0.016c-0.043-0.018-0.077-0.051-0.11-0.068
		c-0.018-0.018-0.025-0.018-0.034-0.018c-0.501-0.391-0.764-0.764-0.908-1.104c-0.025,0.17-0.043,0.357-0.06,0.543
		c-0.051,0.715,0.221,1.545,0.476,2.055c0.067,0.137,0.136,0.238,0.187,0.322c0.145,0.205,0.102,0.477-0.102,0.629
		c-0.085,0.051-0.187,0.084-0.271,0.084c-0.153,0-0.289-0.068-0.374-0.186c-0.322-0.441-0.934-1.732-0.832-2.988
		c0.119-1.527,0.586-3.174,3.09-3.887c0.246-0.068,0.492,0.068,0.568,0.305c0.077,0.238-0.076,0.492-0.313,0.561
		c-0.11,0.033-0.204,0.084-0.306,0.119l-0.009,0.018c0.06,0.051,0.119,0.117,0.161,0.203
		C515.849,643.494,516.308,644.461,515.96,645.311"/>
</g>
</svg>
