<?xml version="1.0" encoding="utf-8"?>
<!-- Generator: Adobe Illustrator 16.0.0, SVG Export Plug-In . SVG Version: 6.00 Build 0)  -->
<!DOCTYPE svg PUBLIC "-//W3C//DTD SVG 1.1//EN" "http://www.w3.org/Graphics/SVG/1.1/DTD/svg11.dtd">
<svg version="1.1" id="Camada_1" xmlns="http://www.w3.org/2000/svg" xmlns:xlink="http://www.w3.org/1999/xlink" x="0px" y="0px"
	 width="1080px" height="1080px" viewBox="0 0 1080 1080" enable-background="new 0 0 1080 1080" xml:space="preserve">
<g>
	<path fill="#FFFFFF" d="M638.792,891.024c6.198,0,10.887-4.835,10.887-11.268c0-6.302-4.189-10.704-10.188-10.704h-0.133
		c-4.637,0-11.187,3.507-11.187,11.268C628.171,888.231,633.889,891.024,638.792,891.024"/>
	<path fill="#FFFFFF" d="M365.594,878.974c-2.353,0.317-3.724,1.1-3.724,4.206v39.839c0,25.929-9.432,29.435-18.647,29.435
		c-8.127,0-18.931-2.958-18.931-28.454v-36.58c0-6.682-0.308-9.009-3.798-9.009c-3.24,0-14.626,0.697-17.543,1.131l-0.499,0.082
		l0.051,0.498c0.29,2.991,0.423,8.925,0.423,18.183v26.561c0,30.266,12.799,45.622,38.028,45.622
		c17.925,0,39.298-8.358,39.298-48.182v-20.212c0-12.249,0.16-17.749,0.425-23.135l0.033-0.548h-0.558
		C377.387,878.41,369.899,878.559,365.594,878.974"/>
	<path fill="#FFFFFF" d="M445.064,891.474c8.277,0,14.636,2.194,17.685,3.49l0.15,0.049c2.201,0.283,4.245-0.397,5.899-1.978
		c2.128-2.026,3.341-5.417,3.075-8.625l-0.016-0.184l-0.118-0.133c-2.193-2.443-12.572-7.247-26.676-7.247
		c-31.294,0-51.506,17.736-51.506,45.175c0,29.434,20.045,48.465,51.084,48.465c8.957,0,16.195-4.638,20.075-7.129l0.518-0.317
		l0.073-0.066c2.833-2.659,4.703-7.195,5.286-12.764l0.033-0.366l-1.081-0.531l-1.104,0.316c-3.648,1.029-10.445,2.957-19.396,2.957
		c-19.952,0-32.851-12.481-32.851-31.826C416.195,896.559,431.902,891.474,445.064,891.474"/>
	<path fill="#FFFFFF" d="M611.651,932.692l-6.83-49.163l0,0c-0.565-3.772-1.479-5.119-3.508-5.119
		c-3.589,0-15.273,0.798-17.734,2.343l-0.249,0.149v2.029c-5.883,14.209-14.31,35.283-20.21,51.157l-18.117-48.399
		c-2.061-5.883-3.024-7.462-5.75-7.279c-7.287,0-12.664,1.179-16.604,2.026l-1.594,0.35l0.331,2.658
		c-3.988,24.086-7.778,48.384-10.537,66.134c-0.946,6.066-1.753,11.252-2.377,15.191l-0.058,0.365l0.323,0.182
		c2.377,1.33,10.306,3.891,14.884,3.891c2.003,0,2.802-3.074,3.225-5.416c1.952-15.958,5.036-44.894,6.574-61.698
		c2.477,7.896,5.851,18.55,9.124,28.888c4.721,14.874,9.157,28.919,10.837,34.454l0.116,0.366h0.383
		c2.809,0,6.132-0.366,10.188-1.13c3.707-0.748,5.17-1.979,6.216-5.304c7.063-21.155,14.692-44.26,18.699-57.474l2.725,29.369
		c1.33,14.975,2.178,23.185,2.843,29.783l0.133,1.313c0.3,3.241,2.409,6.848,4.786,6.848c2.843,0,11.568-2.459,15.308-3.508
		l1.628-0.465l-0.082-0.465C615.06,957.208,613.446,946.121,611.651,932.692"/>
	<path fill="#FFFFFF" d="M647.352,901.429c-3.474,0-13.745,0.863-17.468,1.861l-0.432,0.116l0.048,0.45
		c0.234,2.292,0.565,6.431,0.565,15.773v24.164c0,7.579-0.247,17.369-0.382,23.204l-0.065,2.209h0.548
		c7.446,0,12.631-0.183,15.391-0.565c3.906-0.447,5.302-3.787,5.302-6.763v-51.01C650.859,902.843,650.343,901.429,647.352,901.429"
		/>
	<path fill="#FFFFFF" d="M727.845,943.927v-16.67c0-17.452-7.596-26.675-21.973-26.675c-6.931,0-13.463,4.222-18.997,8.508
		c-1.463-5.649-4.721-8.508-9.689-8.508c-5.552,0-11.002,4.586-12.433,8.691l-0.033,1.596l0.249,0.149
		c1.928,1.197,2.443,2.627,2.443,6.632v23.036c0,7.464-0.116,18.998-0.415,27.989l-0.016,0.531h0.548
		c3.739,0,7.08-0.996,10.287-1.962c2.178-0.646,4.223-1.264,6.398-1.596c3.475-0.446,4.006-1.312,4.006-4.053v-41.985
		c2.842-2.011,5.285-3.423,9.84-3.423c5.284,0,8.991,4.438,8.991,10.787v36.182c0,2.51,1.181,6.05,3.791,6.05
		c4.569,0,8.857-1.363,12.281-2.459c1.895-0.599,3.523-1.13,4.67-1.232l0.5-0.031l-0.017-0.516
		C728.01,959.95,727.845,951.688,727.845,943.927"/>
	<path fill="#FFFFFF" d="M798.781,952.338c-0.5,0.115-1.497,0.115-2.145,0.115c-3.125,0-4.588-1.628-4.588-2.726
		c0-5.301,0.183-10.554,0.333-15.191c0.133-3.673,0.232-6.846,0.232-9.407c0-16.951-12.316-24.547-24.515-24.547
		c-9.808,0-20.377,4.804-27.009,9.274l-0.217,0.148l-0.016,0.282c-0.052,1.778,0.133,6.151,2.959,8.393
		c1.611,1.282,3.755,1.58,6.448,0.865l0.365-0.165c2.776-1.248,7.413-3.324,11.917-3.324c6.149,0,10.122,3.556,10.122,9.073v1.264
		c-1.646,0.3-4.454,0.813-6.814,1.198c-9.573,2.044-27.408,5.866-27.408,21.007c0,11.235,8.992,21.457,18.848,21.457
		c5.884,0,11.318-4.785,15.922-9.656c2.029,3.889,6.102,9.656,12.483,9.656c10.255,0,13.877-8.975,13.877-16.653l-0.282-1.195
		L798.781,952.338z M772.387,946.206c0,2.275-0.333,3.654-1.079,4.536c-1.829,1.529-3.176,1.995-5.769,1.995
		c-3.705,0-7.43-2.112-7.43-6.832v-0.132c0-1.663,1.048-7.115,14.277-8.61V946.206z"/>
	<path fill="#FFFFFF" d="M841.779,929.052h-0.018c-0.963-0.481-2.276-1.096-3.69-1.779c-2.775-1.311-5.916-2.792-7.495-3.722
		c-2.826-1.694-4.571-2.842-4.571-5.051c0-2.312,2.295-3.856,5.719-3.856c3.024,0,6.314,0.73,9.308,2.077l0.166,0.032
		c1.91,0.15,3.557-0.432,4.87-1.729c2.359-2.344,2.991-6.315,2.808-9.009l-0.016-0.249l-0.2-0.134
		c-4.786-3.438-10.089-5.051-16.653-5.051h-0.133c-11.883,0-24.683,6.63-24.683,21.172c0,6.849,3.675,12.95,10.089,16.705
		c1.912,0.997,3.773,1.944,5.602,2.875c1.86,0.931,3.69,1.861,5.468,2.776c3.79,2.045,4.554,3.491,4.554,5.186
		c0,2.593-2.393,4.154-6.433,4.154c-7.03,0-13.96-3.955-15.904-5.151l-0.35-0.216l-0.281,0.267
		c-2.063,1.928-4.156,5.815-4.156,9.571c0,2.894,2.062,4.571,4.105,5.835l1.196,0.699c3.989,2.374,9.458,5.6,14.11,5.6
		c13.314,0,27.092-9.141,27.092-24.432C852.281,938.392,848.841,932.975,841.779,929.052"/>
	<path fill="#FFFFFF" d="M252.931,878.609c-10.661,0-20.831,1.131-24.747,1.861l-0.465,0.083l0.041,0.481
		c0.575,6.532,0.575,12.399,0.575,19.197v64.604c0,2.726,1.386,5.65,3.964,5.65c3.896,0,14.899-0.415,17.624-1.162l0.399-0.117
		l-0.017-0.415c-0.282-5.701-0.432-12.201-0.432-19.363v-10.122c4.072,0.349,8.7-0.581,11.816-1.212
		c12.698-2.542,21.565-8.395,26.368-17.386c2.387-4.47,3.658-9.523,3.658-14.627C291.717,881.935,273.075,878.609,252.931,878.609
		 M254.934,922.67c-0.521,0-2.816-0.099-5.06-0.184v-30.082c1.446-0.199,3.149-0.199,4.205-0.199
		c7.595,0,15.373,1.612,15.373,13.596C269.452,920.475,260.361,922.67,254.934,922.67"/>
	<path fill="#FFFFFF" d="M761.135,840.946c13.795,0,25.713-6.963,38.36-14.342c14.061-8.229,28.588-16.721,47.386-16.721
		c2.077,0,3.955-1.231,4.802-3.124c0.849-1.895,0.482-4.106-0.897-5.652l-21.39-23.635l15.142-32.956
		c0.78-1.713,0.58-3.724-0.517-5.271c-1.112-1.527-2.958-2.344-4.985-2.126c-4.771,0.498-26.327,3.622-40.521,13.512
		c-0.066-19.13-1.196-28.088-1.212-28.221c-0.018-0.102-0.033-0.218-0.033-0.315c0-5.618-11.153-6.716-11.27-6.716
		c-18.697-1.514-38.276,0.864-59.85,7.297c-19.363,5.767-38.477,14.16-56.976,22.271c-8.626,3.789-17.552,7.712-26.459,11.334
		c-32.743,13.329-65.318,19.813-99.6,19.813c-34.262,0-66.821-6.483-99.563-19.813c-8.825-3.59-17.75-7.513-26.385-11.3
		l-0.133-0.051c-18.474-8.111-37.587-16.505-56.933-22.255c-21.607-6.433-41.186-8.827-59.844-7.297
		c-0.107,0.017-11.275,1.098-11.275,6.716c0,0.098-0.01,0.214-0.018,0.331c-0.016,0.117-1.346,10.221-1.229,32.627
		c-15.632-11.534-46.537-15.01-47.851-15.16c-1.487-0.148-2.942,0.5-3.822,1.698c-0.864,1.212-1.022,2.808-0.398,4.154l16.13,35.102
		l-22.861,25.263c-1.097,1.216-1.38,2.959-0.716,4.454c0.666,1.498,2.162,2.46,3.79,2.46c19.928,0,35.218,8.941,50.002,17.569
		c12.989,7.595,25.256,14.758,39.258,14.758c18.35,0,27.134-8.727,27.706-17.386c0.042-0.665,0.025-1.313-0.024-1.96
		c0.075-0.981,0.149-2.179,0.184-2.942c0.382-7.263,1.079-17.865,1.321-25.86c0.257-2.776,0.447-5.386,0.456-7.696
		c13.638,4.221,26.692,9.324,38.884,14.276c46.762,19.015,97.121,37.581,153.315,37.581c24.965,0,50.609-3.657,78.383-11.186
		c26.658-7.231,52.853-17.404,74.975-26.396c11.85-4.818,24.548-9.771,37.729-13.909c-0.067,1.793-0.185,4.037-0.333,6.563
		c-0.3,5.535-0.664,12.266-0.532,17.702c-0.132,3.438-0.132,8.225-0.084,8.908c0.333,4.952,3.226,9.622,7.962,12.813
		C746.143,839.186,753.041,840.946,761.135,840.946 M797.218,788.677c0,0,5.153,8.609-20.56,15.771
		c-3.424,0.848-7.362,1.763-11.935,2.826c-0.147,0.033-0.298,0.066-0.447,0.083c-1.031,0.215-2.095,0.434-3.207,0.633
		c-6.482,1.213-23.535,5.633-23.535,5.633c0.081-10.537,0.799-15.723,1.079-25.097c0.698-0.216,1.414-0.432,2.128-0.647
		c4.854-1.396,9.542-2.593,14.127-3.542c19.597-4.087,32.893-5.151,39.475,0.634C795.506,785.983,796.488,787.196,797.218,788.677
		 M336.5,836.676c-5.319,2.627-11.602,3.026-17.436,2.726c-28.006-1.446-46.32-32.044-85.229-32.044l22.793-26.193l-15.871-37.246
		c0,0,18.948,4.154,25.287,6.298c8.013,2.694,18.483,6.481,21.732,9.273c0.032,2.727,0.09,5.651,0.175,8.71
		c0.016,1.099,0.033,2.21,0.065,3.34c0.041,3.192,0.059,6.684,0.199,10.008c-1.288,1.096-2.726,2.676-3.515,4.937
		c-1.729,4.916-0.308,10.255,2.81,14.308c4.112,5.338,11.55,7.712,17.675,9.84c7.646,2.66,15.523,4.67,23.501,6
		c5.801,0.981,14.111,2.628,14.892,9.773C344.087,831.091,340.398,834.747,336.5,836.676 M345.524,818.243
		c-1.561-1.66-3.572-2.957-5.924-3.756c-0.823-0.364-1.754-0.649-2.75-0.83c-11.512-2.193-24.092-5.354-33.4-8.977
		c-5.825-2.26-10.361-4.704-12.572-7.211c-2.377-2.694-2.56-5.519-2.56-5.519c-0.034-0.532-0.017-1.032,0.042-1.479
		c0.158-1.264,0.59-2.213,0.771-2.611c1.846-3.924,6.433-5.618,8.693-6.349c2.193-0.415,4.554-0.631,6.947-0.631
		c0.673,0,1.313,0.017,1.929,0.048c12.216,0.684,24.913,2.96,38.815,6.949c0.69,0.2,1.372,0.432,2.062,0.631
		C347.494,793.263,347.119,800.012,345.524,818.243 M695.136,800.543c-22.022,8.942-48.1,19.064-74.56,26.245
		c-27.489,7.446-52.82,11.068-77.468,11.068c-55.554,0-105.54-18.433-151.994-37.313c-13.861-5.65-28.869-11.502-44.626-16.038
		c-4.421-1.264-8.709-2.358-12.914-3.29c-7.72-1.713-15.123-2.878-22.337-3.492c-3.924-0.466-7.579-0.649-10.821-0.449
		c-3.324,0.184-6.224,0.782-8.56,1.88c-1.636-38.777,0.565-56.096,0.599-56.261c0.033-0.267,0.051-0.532,0.051-0.797
		c0-1.28,4.604-2.927,8.044-3.208c18.274-1.479,37.43,0.864,58.554,7.162c19.139,5.702,38.16,14.044,56.568,22.121l0.107,0.051
		c8.642,3.79,17.566,7.712,26.443,11.318c33.174,13.512,66.183,20.079,100.918,20.079c34.722,0,67.729-6.567,100.903-20.079
		c8.875-3.606,17.801-7.528,26.41-11.318l0.133-0.051c18.398-8.077,37.413-16.419,56.559-22.121
		c21.157-6.298,40.305-8.642,58.571-7.162c3.357,0.281,8.044,1.943,8.044,3.208c0,0.249,0.017,0.515,0.051,0.781
		c0.016,0.133,1.312,10.188,1.196,32.227c-0.05,6.932-0.216,15.024-0.615,24.383c-0.499-0.183-0.964-0.352-1.412-0.532
		c-1.614-0.617-3.076-1.181-4.704-1.431c-2.825-0.682-6.482-0.715-10.106-0.715c-8.674,0.532-19.029,2.71-30.88,5.686
		c-2.477,0.631-4.969,1.279-7.513,2.011C724.055,789.041,709.031,794.893,695.136,800.543 M737.633,824.045
		c-0.581-3.275,0.748-6.136,3.807-7.445c1.829-0.799,6.532-2.162,8.411-2.512c6.713-1.263,40.286-7.927,47.917-14.89
		c4.503-4.106,6.515-11.319,1.313-15.892c-0.399-0.348-0.85-0.68-1.049-1.179c-0.131-0.365-0.131-0.765-0.115-1.147
		c0.233-8.625,0.548-17.268,0.598-25.896c13.762-9.207,34.819-13.728,39.523-14.225c0.948-0.086,1.911,0.332,2.494,1.112
		c0.565,0.797,0.665,1.828,0.267,2.709l-16.904,33.475l22.271,23.034c0.716,0.782,0.897,1.928,0.466,2.91
		c-0.432,0.979-1.414,1.61-2.478,1.61c-19.479,0-31.179,7.58-45.539,15.957c-12.316,7.197-23.949,14.011-37.047,14.011
		c-7.596,0-13.995-1.612-18.499-4.654C740.56,829.33,738.182,827.136,737.633,824.045"/>
	<path fill="#FFFFFF" d="M347.071,766.854c-0.507-0.148-0.765-0.216-1.28-0.366c-0.233,4.92-1.395,5.834-4.054,5.119
		c-2.069-0.564-3.118-0.829-5.236-1.379c-2.377-0.598-3.041-0.863-3.076-4.422c-0.066-5.667-0.015-8.559,0.035-14.311
		c2.343,0.566,3.489,0.849,5.75,1.447c2.816,0.731,3.789,3.092,3.781,6.565c0.522,0.134,0.772,0.2,1.287,0.349
		c0.018-5.386,0.06-8.095,0.067-13.479c-0.507-0.151-0.766-0.218-1.279-0.366c-0.284,2.045-0.599,4.752-3.823,3.906
		c-2.278-0.599-3.416-0.899-5.751-1.447c0.041-5.136,0.066-7.712,0.017-12.764c-0.033-3.041,0.582-3.158,2.95-2.56
		c1.471,0.382,2.201,0.563,3.656,0.946c3.066,0.833,5.003,2.727,5.036,7.847c0.507,0.148,0.757,0.216,1.264,0.364
		c-0.074-3.806-0.133-5.7-0.308-9.474c-8.61-2.543-13.113-3.673-22.871-5.484c0.018,0.532,0.025,0.799,0.033,1.347
		c4.713,1.811,4.854,1.845,4.887,8.144c0.067,13.662-0.431,20.99,0.017,34.304c7.912,1.83,11.669,2.827,18.939,4.937
		C347.037,772.388,347.037,770.543,347.071,766.854"/>
	<path fill="#FFFFFF" d="M373.281,742.804c-1.181-0.532-1.778-0.798-2.958-1.329c-2.476,5.683-3.822,8.394-6.598,13.928
		c-2.46-7.662-3.674-11.534-6.366-19.313c-3.184-1.229-4.803-1.827-8.119-2.976c0,0.565-0.008,0.848-0.008,1.396
		c3.547,2.013,4.005,3.108,5.467,7.396c2.194,6.582,3.226,9.856,5.327,16.387c-3.831,7.331-5.875,11.12-9.598,18.668
		c1.237,0.432,1.853,0.63,3.075,1.063c3.04-6.417,4.687-9.608,7.845-15.84c2.643,8.459,3.954,12.614,6.838,21.289
		c2.103,0.798,3.143,1.216,5.212,2.046c-3.606-10.787-5.202-15.84-8.494-26.327C368.428,752.644,370.163,749.52,373.281,742.804"/>
	<path fill="#FFFFFF" d="M399.964,757.944c3.599,1.764,4.513,6.449,4.729,8.526c1.92,0.931,2.893,1.396,4.837,2.311
		c-0.507-5.018-3.092-10.67-9.257-13.711c-8.81-4.339-10.82,4.603-10.937,15.707c-0.133,13.445,3.125,23.282,11.443,26.74
		c4.014,1.681,7.304,1.282,8.318,1.064c-0.024-1.646-0.033-2.442-0.058-4.022c-1.056,0.731-3.524,1.913-7.056,0.45
		c-7.837-3.276-8.311-17.071-8.261-23.736C393.757,765.141,394.556,755.284,399.964,757.944"/>
	<path fill="#FFFFFF" d="M423.84,762.864c-9.308-4.122-11.4,3.375-11.311,15.606c0.092,12.15,2.876,21.773,11.959,25.23
		c8.95,3.425,11.775-4.154,11.626-15.556C435.957,776.577,432.758,766.818,423.84,762.864 M424.421,800.677
		c-6.539-2.511-7.263-13.263-7.329-20.229c-0.075-7.595,0.166-17.501,6.814-14.56c6.507,2.893,7.181,13.23,7.28,20.36
		C431.278,793.215,431.095,803.22,424.421,800.677"/>
	<path fill="#FFFFFF" d="M463.638,788.893c-0.033-9.739-10.362-13.813-14.068-15.093c-4.854-1.693-7.188-2.574-11.728-4.354
		c0.01,0.583,0.01,0.848,0.025,1.412c4.305,2.644,4.455,2.91,4.529,8.577c0.158,12.316,0.166,16.139,0.373,30.132
		c2.046,0.682,3.076,1.031,5.171,1.696c-0.085-8.11-0.117-11.203-0.184-17.752c1.196,0.399,1.794,0.599,3.008,0.998
		c3.515,7.646,5.303,11.169,8.876,20.326c2.326,0.683,3.349,0.965,5.584,1.563c-3.606-9.574-5.369-13.147-9.1-21.108
		C460.107,795.855,463.663,795.092,463.638,788.893 M450.509,791.982c-1.124-0.363-1.671-0.563-2.768-0.931
		c-0.034-3.739-0.052-5.584-0.101-9.639c-0.033-4.105-0.083-5.336,3.241-4.188c4.171,1.43,7.403,4.522,7.412,10.405
		C458.311,793.711,453.691,793.031,450.509,791.982"/>
	<path fill="#FFFFFF" d="M480.375,782.542c-5.502-1.111-8.203-1.744-13.487-3.189c0,0.564,0,0.865,0,1.412
		c4.396,2.16,4.57,2.427,4.604,8.011c0.082,12.083,0.132,15.358,0.2,29.436c2.906,0.715,4.377,1.048,7.32,1.678
		c9.614,2.029,18.017,0.366,17.999-15.773C497.003,789.656,489.807,784.47,480.375,782.542 M480.466,817.198
		c-3.407-0.716-3.407-2.41-3.425-4.655c-0.065-10.57-0.115-13.828-0.183-24.516c-0.024-2.741,1.147-2.959,4.031-2.377
		c9.333,1.878,10.521,8.71,10.562,17.752C491.493,813.706,489.466,819.041,480.466,817.198"/>
	<path fill="#FFFFFF" d="M498.59,787.231c4.695,1.661,4.861,1.943,4.695,7.528c-0.356,12.133-0.432,15.257-0.864,29.501
		c8.028,1.13,12.067,1.529,20.194,2.062c0.248-3.873,0.358-5.602,0.582-8.859c-0.582-0.034-0.865-0.05-1.438-0.101
		c-0.514,4.371-1.952,5.718-4.861,5.468c-2.26-0.181-3.39-0.298-5.634-0.532c-2.543-0.265-3.192-0.579-3.074-3.855
		c0.182-5.202,0.249-7.396,0.398-11.949c2.491,0.267,3.739,0.399,6.233,0.633c3.09,0.266,4.171,1.943,4.038,4.768
		c0.58,0.051,0.864,0.067,1.445,0.118c0.199-4.404,0.291-6.415,0.498-10.869c-0.581-0.035-0.88-0.051-1.461-0.102
		c-0.392,1.729-0.855,3.989-4.422,3.673c-2.51-0.231-3.756-0.349-6.25-0.63c0.15-4.09,0.217-6.083,0.366-10.771
		c0.1-2.824,0.781-3.074,3.399-2.824c1.628,0.164,2.452,0.23,4.08,0.363c3.466,0.267,5.617,1.878,5.401,6.384
		c0.599,0.034,0.89,0.05,1.479,0.081c0.1-3.324,0.151-5.085,0.258-9.039c-10.129-0.551-15.175-1.031-25.03-2.479
		C498.607,786.382,498.607,786.663,498.59,787.231"/>
	<path fill="#FFFFFF" d="M543.017,791.752c4.845,0.798,4.979,1.079,4.729,6.764c-0.549,12.314-0.765,15.291-1.363,29.899
		c8.211-0.349,12.333-0.665,20.562-1.611c0.265-3.989,0.396-5.75,0.631-9.074c-0.583,0.066-0.865,0.099-1.447,0.165
		c-0.548,4.505-2.011,6.132-4.952,6.417c-2.294,0.216-3.44,0.298-5.735,0.48c-2.575,0.184-3.24-0.015-3.09-3.357
		c0.266-5.301,0.382-7.494,0.614-12.099c2.526-0.184,3.773-0.267,6.3-0.5c3.124-0.282,4.171,1.213,4.004,4.072
		c0.583-0.049,0.865-0.083,1.447-0.149c0.266-4.455,0.381-6.465,0.632-10.97c-0.583,0.05-0.882,0.084-1.463,0.15
		c-0.399,1.812-0.897,4.139-4.488,4.471c-2.526,0.232-3.772,0.317-6.298,0.498c0.199-4.122,0.315-6.149,0.531-10.92
		c0.15-2.875,0.847-3.258,3.475-3.474c1.627-0.133,2.443-0.198,4.088-0.363c3.44-0.334,5.552,0.93,5.302,5.5
		c0.598-0.067,0.881-0.1,1.462-0.165c0.118-3.376,0.184-5.154,0.333-9.208c-9.973,1.213-15.058,1.611-25.213,1.995
		C543.05,790.872,543.042,791.169,543.017,791.752"/>
	<path fill="#FFFFFF" d="M587.817,787.613c4.571-0.883,5.402,3.191,5.568,5.051c2.395-0.513,3.573-0.78,5.949-1.33
		c-0.381-4.519-3.106-8.542-10.918-7.013c-11.186,2.193-14.66,12.55-15.209,22.121c-0.681,11.585,2.96,20.128,13.529,18.201
		c5.103-0.931,9.342-3.723,10.654-4.688c0.066-1.713,0.1-2.527,0.15-4.104c-1.363,1.461-4.589,4.437-9.059,5.284
		c-9.939,1.878-9.873-11.002-9.557-16.837C579.241,798.948,580.919,788.943,587.817,787.613"/>
	<path fill="#FFFFFF" d="M615.623,780.664c4.205-1.312,5.119,2.676,5.352,4.521c2.145-0.746,3.207-1.113,5.369-1.878
		c-0.549-4.47-3.143-8.275-10.271-5.999c-10.205,3.242-13.38,13.995-13.695,23.568c-0.366,11.617,3.44,19.826,13.928,16.803
		c5.068-1.463,8.459-4.472,9.59-5.519c0-1.745,0-2.576-0.018-4.17c-1.163,1.577-3.572,4.686-7.978,5.999
		c-9.807,2.908-10.171-9.988-10.055-15.807C607.961,792.831,609.308,782.643,615.623,780.664"/>
	<path fill="#FFFFFF" d="M649.131,796.105c0.082,5.567-2.46,7.146-5.337,8.244c-1.578,0.599-2.36,0.896-3.921,1.479
		c-3.059,1.13-3.042,0.899-3.092-3.64c-0.133-13.578-0.416-16.236-0.517-31.929c-3.738,2.03-5.616,3.026-9.356,4.971
		c0,0.599,0,0.896,0,1.479c4.338-0.664,4.471-0.433,4.537,4.455c0.167,12.598,0.399,15.39,0.383,30.797
		c7.363-2.543,11.069-3.955,18.531-6.864c0.05-4.205,0.05-6.051,0.05-9.508C649.896,795.789,649.646,795.905,649.131,796.105"/>
	<path fill="#FFFFFF" d="M673.28,786.283c-0.116,4.753-1.38,6.83-4.021,7.91c-2.044,0.848-3.074,1.263-5.136,2.111
		c-2.311,0.932-2.892,0.914-2.959-2.577c-0.1-5.566-0.199-7.843-0.398-12.497c2.21-0.898,3.307-1.346,5.519-2.261
		c2.741-1.13,3.838,0.066,3.972,2.993c0.515-0.216,0.78-0.317,1.296-0.532c-0.217-4.557-0.349-6.551-0.599-10.937
		c-0.498,0.216-0.765,0.314-1.263,0.532c-0.183,1.827-0.383,4.221-3.523,5.516c-2.21,0.898-3.307,1.349-5.501,2.244
		c-0.2-4.121-0.3-6.098-0.466-10.72c-0.1-2.793,0.481-3.341,2.727-4.221c1.395-0.548,2.094-0.833,3.505-1.381
		c2.96-1.18,4.889-0.515,5.12,3.822c0.515-0.199,0.765-0.298,1.279-0.497c-0.232-3.191-0.348-4.854-0.548-8.577
		c-8.593,3.325-12.882,5.021-21.424,8.311c0,0.583,0.017,0.881,0.017,1.447c4.138-0.617,4.271-0.398,4.454,5.186
		c0.416,12.114,0.799,15.124,0.832,30.648c7.362-2.944,11.053-4.471,18.482-7.514c0.016-4.221,0-6.066-0.067-9.54
		C674.061,785.967,673.794,786.065,673.28,786.283"/>
	<path fill="#FFFFFF" d="M682.488,761.085c-0.249-3.556,1.596-6.216,4.004-7.13c3.525-1.346,7-0.799,8.279-0.548
		c-0.118-1.611-0.184-2.444-0.3-4.205c-1.18,0.134-4.172,0.432-7.28,1.596c-6.365,2.394-9.972,7.979-9.606,13.83
		c0.699,11.217,15.707,3.321,16.171,12.829c0.267,5.335-2.624,8.542-5.567,9.739c-3.722,1.514-7.495,0.218-8.975-0.313
		c0.066,2.043,0.082,3.106,0.116,5.4c0.98-0.051,4.571,0.016,8.178-1.445c6.432-2.611,11.733-9.225,11.253-17.303
		C698.043,761.469,683.02,769.364,682.488,761.085"/>
	<path fill="#FFFFFF" d="M697.812,748.288c0.033,0.517,0.049,0.766,0.083,1.263c4.453-0.864,4.587-0.715,4.985,3.625
		c1.03,11.167,1.795,14.326,2.079,29.983c2.06-0.782,3.091-1.166,5.135-1.929c-0.365-19.794-1.695-21.674-2.842-37.663
		C703.463,745.412,701.585,746.36,697.812,748.288"/>
	<path fill="#FFFFFF" d="M728.975,737.9c-3.457,1.032-7.264,1.563-10.702,2.659c0.033,0.5,0.048,0.731,0.099,1.213
		c1.86-0.266,3.573-0.697,3.772,1.38c0.05,0.367-0.282,2.311-0.465,3.242c-2.46,12.081-3.457,16.005-6.848,33.124
		c1.146-0.415,1.729-0.614,2.892-1.014c1.28-6.517,1.828-9.226,2.875-14.276c4.737-1.613,7.114-2.393,11.867-3.824
		c1.778,4.156,2.627,6.433,4.139,12.116c1.943-0.548,2.907-0.813,4.836-1.313C734.643,753.407,733.529,750.149,728.975,737.9
		 M721.162,761.437c1.447-6.798,3.043-11.221,4.355-17.651c2.625,5.417,4.105,8.824,5.934,14.326
		C727.329,759.375,725.285,760.039,721.162,761.437"/>
	<path fill="#FFFFFF" d="M743.518,740.462c1.28,10.387,2.244,13.81,2.492,29.599c7.397-1.76,11.086-2.491,18.433-3.473
		c0.033-4.372,0-6.3-0.134-9.872c-0.515,0.082-0.763,0.133-1.278,0.199c-0.034,4.818-1.297,6.631-3.939,7.079
		c-2.062,0.349-3.075,0.549-5.136,0.964c-2.327,0.466-2.893,0.315-3.059-3.225c-0.266-5.667-0.515-7.978-1.013-12.433
		c2.26-0.531,3.391-0.779,5.649-1.244c2.81-0.566,4.023,0.813,4.272,3.756c0.516-0.1,0.78-0.15,1.297-0.232
		c-0.383-4.588-0.632-6.565-1.13-10.587c-0.533,0.099-0.799,0.148-1.314,0.247c-0.082,1.63-0.166,3.823-3.391,4.489
		c-2.26,0.465-3.39,0.715-5.65,1.246c-0.465-3.873-0.731-5.669-1.181-9.557c-0.299-2.359,0.3-2.742,2.643-3.259
		c1.464-0.316,2.195-0.465,3.657-0.763c3.091-0.633,5.186,0.114,5.65,3.954c0.517-0.098,0.782-0.148,1.313-0.231
		c-0.399-2.843-0.598-4.255-0.947-7.297c-9.059,1.58-13.529,2.593-22.42,4.904c0.048,0.466,0.065,0.696,0.114,1.162
		C742.803,735.557,742.92,735.674,743.518,740.462"/>
	<path fill="#FFFFFF" d="M563.002,596.145c-0.913-1.911-5.285-10.337-6.564-12.117c-0.565-0.797-1.064-1.646-1.678-2.409
		c-2.162-2.71-1.812-5.55-1.529-6.331c0.897-2.594,2.359-6.948,4.953-17.252c1.246-5.003,1.396-7.646,1.512-8.543
		c0.45-3.806,0.715-6.218,0.349-9.44c-0.25-1.979-0.714-5.734-3.075-9.872c-2.459-4.306-5.566-6.634-6.215-7.114
		c-0.863-0.615-2.393-1.713-4.688-2.543c-0.614-0.234-3.789-1.33-8.045-0.965c-5.476,0.465-9.215,3.074-10.611,4.055
		c-0.863,0.634-4.181,3.094-6.707,7.597c-2.442,4.371-2.841,8.294-3.074,10.903c-0.274,3.109-0.647,7.213,1.33,11.801
		c1.504,3.507,3.806,5.967,4.613,6.832c1.153,1.211,2.242,2.127,3.073,2.758c0.524-0.881,1.371-2.128,2.634-3.391
		c2.775-2.743,4.205-3.207,6.732-3.31c0.98-0.048,2.477,0.367,3.432,0.816c0.158,0.066,0.29,0.248,0.439,0.365
		c0.808-1.628,1.023-5.085,1.023-6.764c0-2.412-0.108-3.875-0.689-5.17c-0.268-0.614-0.657-1.197-0.657-1.213
		c-0.457-0.699-0.956-1.463-1.794-2.045c-0.384-0.25-0.657-0.349-0.948-0.448c-0.474-0.165-1.121-0.399-1.663-1.163
		c-0.805-1.165-0.639-2.429-0.588-2.909c0.265-2.011,1.71-3.191,2.26-3.591c0.033-0.016,0.049-0.016,0.074-0.031
		c0.673-0.384,2.494-1.213,4.695-0.633c1.878,0.499,2.909,1.728,3.307,2.193c1.331,1.58,1.629,3.274,1.797,4.755
		c0.231,1.844,0.598,6.779-0.799,12.829l-0.084,0.383c-0.266,1.146-0.563,2.56-1.445,4.072c-0.382,0.648-0.68,1.099-0.93,1.446
		c-0.168,0.25-0.342,0.416-0.366,0.582c-0.573,3.64-0.532,26.691-0.3,30.415c0.084,1.329,0.217,15.656,0.351,18.831
		c0.032,0.649,0.091,2.758-1.115,3.591c-0.798,0.564-1.845,0.449-2.143,0.415c-1.405-0.149-2.361-0.998-2.727-1.347
		c-5.252-4.853-7.671-12.416-7.671-12.416c-1.379-4.32-2.949-10.487-3.64-18.2c-5.41,6.817-9.864,15.259-12.54,25.281
		c-2.293,8.594-1.081,16.869,0.698,24.415c0,0.018,0.531,2.378,1.031,4.536c1.444-0.381,3.041-0.466,4.528-0.231
		c0.058-0.1,0.115-0.184,0.191-0.281c0.024-0.019,0.05-0.034,0.082-0.067c0.682-0.632,1.721-1.713,2.825-2.843l0.026-0.031
		c2.076-2.146,4.429-4.572,6.033-5.819c0.555-0.415,1.37-0.398,1.902,0.035c0.548,0.431,0.715,1.212,0.392,1.843
		c-0.1,0.183-0.508,0.7-1.022,1.364c-0.292,0.348-0.591,0.747-0.873,1.114c0.083-0.084,0.167-0.151,0.249-0.234
		c0.731-0.681,1.488-1.361,1.721-1.529c0.466-0.298,1.104-0.249,1.521,0.117l0.075,0.066c0.382,0.398,0.447,1.013,0.149,1.496
		c-4.753,7.579-6.665,10.121-7.588,10.984c0.009,0.219,0.009,0.399,0.009,0.533c0,1.712-0.482,3.042-0.797,3.922
		c-0.45,1.279-0.973,2.179-1.53,3.142c-0.332,0.581-0.723,1.148-1.097,1.712c-1.015,1.515-1.962,2.941-2.211,4.736
		c-0.216,1.529,0.2,2.977,0.631,4.506c0.184,0.646,0.375,1.33,0.517,1.994c0.241,1.197,0.439,3.023,0.474,5.119
		c0.772,0.333,1.611,0.682,2.501,0.998c0.664,0.231,1.314,0.446,1.945,0.631c1.237-2.445,2.758-4.639,4.412-6.282
		c2.519-2.494,2.576-4.355,2.119-7.979c-0.1-0.814-0.272-1.579-0.449-2.327c-0.432-1.827-0.88-3.723-0.09-6
		c0.448-1.313,1.22-2.494,2.085-3.641c0.997-1.311,2.626-2.593,3.149-2.991c0.058-0.896,0.481-3.839,0.922-6.314
		c0.997-5.603,1.463-6.366,2.776-6.468h0.1c1.313,0,1.695,0.516,3.225,6.468c0.482,1.894,1.196,4.851,1.363,5.899
		c0.448,0.813,0.896,1.646,1.362,2.477c0.282,0.53,0.582,1.047,0.864,1.579c0.831,1.529,1.048,2.809,1.113,3.64
		c0.066,1.18,0.017,2.461-0.731,4.786c-0.299,0.93-0.582,1.813-0.664,2.743c-0.217,2.127,0.548,4.636,2.109,7.029
		c0.367,0.567,0.783,1.131,1.348,1.796c1.845,2.177,3.588,4.403,4.936,6.964c0.466-0.084,0.997-0.218,1.23-0.265
		c0.415-0.085,1.146-0.301,1.828-0.532l0.049-0.019c-0.016-3.074,0.45-5.949,0.783-7.562c0.132-0.681,0.313-1.345,0.514-1.994
		c0.433-1.529,0.831-2.976,0.632-4.505c-0.249-1.812-1.214-3.24-2.227-4.753c-0.367-0.548-0.748-1.13-1.098-1.713
		c-0.549-0.946-1.163-1.826-1.529-3.125c-0.631-2.276-0.415-4.205,0.018-5.684c-0.814-0.997-2.36-3.573-5.801-10.239
		c-0.183-0.331-0.099-0.746,0.216-0.995c0.149-0.135,0.332-0.182,0.516-0.182c0.183,0,0.365,0.047,0.514,0.164
		c0.666,0.517,1.764,1.611,2.943,2.895c-0.997-1.779-1.879-3.426-2.16-4.091c-0.2-0.465-0.034-1.013,0.381-1.313
		c0.2-0.114,0.417-0.182,0.633-0.182c0.282,0,0.548,0.098,0.764,0.282c1.479,1.362,3.606,3.955,5.502,6.25
		c0.714,0.863,1.396,1.694,1.961,2.359c1.097-0.149,2.293-0.099,3.457,0.166c0-0.034,0.016-0.065,0.016-0.115
		c0-0.2,0.35-1.347,0.815-2.692C566.145,630.949,571.761,614.527,563.002,596.145 M531.457,555.974
		c-0.315,1.028-1.271,1.744-2.327,1.744c-0.466,0-0.932-0.133-1.329-0.399c-3.075-2.026-5.069-5.252-5.336-8.608
		c-0.141-1.796,0.325-3.488,1.389-5.052c0.149-0.216,0.307-0.432,0.466-0.649c0.439-0.599,0.855-1.163,0.863-1.612
		c0.009-1.314,1.071-2.343,2.409-2.343c0.675,0,1.322,0.266,1.78,0.731c0.455,0.45,0.705,1.064,0.688,1.713
		c0,1.063-0.34,1.96-0.765,2.742c1.363,0.798,2.526,2.409,2.411,4.653c-0.051,1.179-0.815,3.656-1.088,4.503
		C531.407,553.994,531.749,555.011,531.457,555.974 M534.499,625.083c-0.681,0.696-1.554,1.061-2.544,1.061
		c-0.199,0-0.397-0.016-0.598-0.032c-1.304-0.199-2.161-0.962-2.826-1.912c-2.292-3.324,3.275-10.853,4.056-11.55
		c0.299-0.282,0.698-0.414,1.097-0.414c0.175,0,0.341,0.031,0.499,0.081c0.565,0.184,0.972,0.631,1.097,1.197
		C535.946,616.822,536.75,622.721,534.499,625.083 M544.156,625.812c-0.642,0.599-1.496,0.915-2.394,0.915
		c-0.143,0-0.292,0-0.449-0.017c-1.214-0.148-2.394-0.864-3.075-1.877c-1.695-2.495-0.765-4.988-0.018-6.981
		c0.334-0.914,0.649-1.761,0.741-2.559c0.074-0.633,0.589-1.13,1.237-1.181c1.072-0.083,1.704,0.747,2.011,1.163
		c0.067,0.1,0.117,0.167,0.167,0.218c0.738,0.778,2.692,3.638,2.977,5.085C545.717,622.321,545.486,624.617,544.156,625.812
		 M553.363,625.298c-0.148,0.031-0.281,0.066-0.414,0.082c-1.63,0.283-3.325-0.448-4.256-1.845
		c-1.163-1.777-1.563-3.771-1.912-5.535c-0.298-1.528-0.599-2.957-1.295-4.17c-0.366-0.634-0.232-1.447,0.298-1.912
		c0.549-0.5,1.38-0.548,1.962-0.133c1.362,0.946,8.145,5.883,8.078,10.337C555.806,623.635,554.826,624.864,553.363,625.298"/>
	<path fill="#FFFFFF" d="M841.545,628.122c-4.072-5.284-12.498-7.114-18.117-3.489c-0.947-4.389-6.947-34.62-8.375-46.104
		c35.384-4.123-21.541-58.87-23.236-22.622c-10.389,0.066-37.229-1.413-43.646-1.694c6.947-15.559-11.851-24.135-23.253-13.978
		c-2.608-1.929-16.553-11.586-24.597-17.237c0-14.16-0.018-28.521-0.018-42.448c24.766,3.107,47.235,0.599,70.305-10.488
		c7.845,13.33,22.97,6.334,20.377-6.05c13.528-11.285,35.834-30.614,43.279-46.704c2.593-5.633-3.507-9.571-8.243-6.133
		c2.044-3.688,2.376-9.805-3.69-10.486c1.197-4.121-1.844-11.834-7.079-9.44c1.029-3.856-3.375-8.909-7.198-7.462
		c1.031-2.063-1.179-15.042-8.327-10.987c0.2-4.304-5.583-11.85-10.785-9.423c0.199-4.139-0.915-9.291-7.896-10.089
		c-4.088,0-5.65,6.183-7.462,13.329c-3.557,13.396-11.418,26.243-19.812,37.33c-8.211-4.156-22.038,7.495-15.392,15.074
		c-6.199,5.468-22.354,9.558-38.143,10.654c-0.017-26.294-0.05-40.172,0.051-48.848h-79.597
		c11.285-8.095,48.881-35.201,59.634-42.598c0.332,0.564,6.864,9.639,10.105,13.861c2.992-2.063,8.594-5.851,10.771-7.43
		c1.429,1.978,3.457,4.92,5.468,7.895c-2.128,1.496-8.576,6.033-10.604,7.463c3.074,4.238,16.77,23.201,19.828,27.457
		c3.541-2.494,9.54-6.714,13.063-9.209c-1.412-1.96-8.343-11.551-9.905-13.711l8.793-6.199c1.596,2.227,8.443,11.701,9.905,13.729
		c4.088-2.875,14.742-10.371,18.831-13.264c-3.058-4.254-11.152-15.772-15.757-21.672c-1.944,1.362-8.145,5.733-10.172,7.163
		l-7.112-9.873c3.723-2.659,6.964-4.919,10.321-7.113c-1.446-2.011-5.784-8.011-7.296-10.105c4.237-2.976,7.928-5.584,10.387-7.313
		c2.078,3.141,5.004,6.864,7.646,9.739c3.425-2.41,9.175-6.482,10.936-7.729c1.813,2.525,4.487,6.248,7.114,9.855
		c-2.177,1.529-9.173,6.465-11.22,7.896c3.01,4.188,12.665,17.55,15.674,21.739c4.139-2.926,15.64-11.02,19.778-13.944
		c-1.396-1.962-8.293-11.585-9.84-13.763l7.182-5.068c1.777,2.393,8.707,11.717,10.337,13.911l13.578-9.79
		c-3.14-4.371-16.771-23.252-19.944-27.641c-2.01,1.431-10.354,7.298-12.515,8.826l-5.668-7.845
		c2.211-1.562,10.455-7.38,12.516-8.825c-1.413-1.961-8.427-11.667-9.988-13.828c2.043-1.496,5.816-3.291,4.854-6.465
		c-0.565-2.561-9.059-13.414-11.603-14.211c-1.578-0.665-3.257,0.416-3.29,0.516L614.261,357.907
		c-1.064-6.033-3.59-21.273-5.236-31.596h32.261c2.361,0,4.271-1.895,4.271-4.221c0.563-3.723-2.045-6.35-5.835-5.784v-3.009
		c6.284-0.482,6.284-10.072,0-10.553v-25.846c-0.813,1.43-2.69,4.77-3.571,6.316c-0.333-3.79-1.165-8.344-2.129-11.784
		c6.583,1.362,7.763-9.84,1.246-10.006c-1.196,0.017-5.567-0.017-6.697,0v-2.427c7.014,0.101,7.014-10.77,0-10.67v-20.46
		c-2.21,3.707-3.823,7.047-6.166,11.401c-1.379-6.148-3.523-11.983-6.366-17.418c2.976-0.199,4.289-3.108,3.924-5.75
		c0.082-5.004-6.2-4.238-9.591-4.223c0,0-0.016,0-0.033,0c5.849-0.481,6.349-9.291,0.614-10.42
		c-0.034-0.449-0.05-18.133-0.05-18.133c-1.978,3.456-3.689,6.748-5.717,10.603c-5.917-11.917-29.867-34.637-52.237-38.559
		c-0.366-5.452-3.558-9.356-5.752-10.056V144.7v-13.795h9.241v-11.385h-9.241v-10.006H533.26v10.006h-9.232v11.385h9.232V144.7
		v0.615c-2.118,0.848-5.077,4.105-5.7,9.756c-18.506,3.508-37.388,17.202-52.163,39.108c-1.978-3.706-3.399-6.599-5.319-9.79v16.953
		c-6.082,0.698-5.949,10.021,0.15,10.537c-0.05,0-4.454,0-4.62,0c-1.379,0-4.995,0.865-5.103,4.223
		c-0.391,2.709,1.005,5.668,4.063,5.767c-0.624,1.563-4.746,11.186-6.498,17.451c-2.353-4.372-3.965-7.728-6.191-11.451v20.543
		c-8.111-1.313-8.103,11.817,0,10.504v2.51c-1.097-0.017-5.511,0.017-6.689,0c-6.524,0.166-5.343,11.368,1.238,10.006
		c-0.981,3.474-1.804,8.061-2.128,11.899c-0.682-1.429-2.817-5.086-3.565-6.432v25.846c-7.803-1.015-7.803,11.566,0,10.553v3.009
		c-3.781-0.565-6.406,2.062-5.825,5.784c0,2.326,1.912,4.221,4.263,4.221h31.671c-1.413,9.99-3.715,25.396-4.804,31.596
		L317.81,253.282c-0.05-0.1-1.72-1.181-3.299-0.516c-2.535,0.797-11.036,11.65-11.585,14.211c-0.963,3.174,2.776,4.969,4.838,6.465
		c-1.613,2.227-8.526,11.801-9.989,13.828c2.01,1.412,10.345,7.297,12.524,8.825l-5.668,7.845
		c-2.227-1.563-10.464-7.363-12.524-8.826c-3.167,4.389-16.786,23.27-19.944,27.641l13.588,9.79
		c1.586-2.145,8.601-11.585,10.329-13.911l7.196,5.068c-1.596,2.229-8.411,11.752-9.863,13.763
		c4.146,2.925,15.647,11.019,19.785,13.944c3.016-4.189,12.664-17.551,15.682-21.739c-2.012-1.413-9.091-6.399-11.227-7.896
		c2.625-3.607,5.311-7.33,7.112-9.855c1.746,1.246,7.528,5.318,10.946,7.729c2.634-2.875,5.566-6.599,7.636-9.739
		c2.46,1.729,6.15,4.337,10.388,7.313c-1.527,2.11-5.834,8.077-7.295,10.105c3.356,2.194,6.598,4.454,10.328,7.113l-7.121,9.873
		c-2.062-1.463-8.203-5.784-10.172-7.163c-4.621,5.933-12.681,17.4-15.748,21.672c4.088,2.893,14.733,10.389,18.83,13.264
		c1.422-1.961,8.337-11.551,9.907-13.729l8.784,6.199c-1.613,2.211-8.443,11.701-9.914,13.711c3.539,2.495,9.531,6.715,13.071,9.209
		c3.058-4.256,16.752-23.219,19.819-27.457c-1.993-1.413-8.501-5.983-10.596-7.463c2.012-2.975,3.208-4.721,4.639-6.715
		c2.185,1.596,7.629,5.152,10.619,7.214c3.274-4.255,10.721-14.211,11.077-14.825l58.887,41.367c0.283,0.199,1.338,0.881,1.454,1.23
		h-80.292c0.099,8.609,0.065,22.42,0.049,48.499c-16.105-1.032-34.579-4.804-40.812-10.306c6.64-7.579-7.188-19.23-15.398-15.074
		c-8.393-11.087-16.255-23.916-19.812-37.33c-1.795-7.146-3.358-13.329-7.463-13.329c-6.963,0.798-8.094,5.933-7.887,10.089
		c-5.219-2.427-10.978,5.119-10.794,9.423c-7.148-4.071-9.35,8.925-8.318,10.987c-3.824-1.447-8.236,3.605-7.205,7.462
		c-5.22-2.394-8.262,5.319-7.064,9.44c-6.091,0.697-5.743,6.799-3.706,10.486c-4.729-3.422-10.837,0.5-8.244,6.133
		c7.479,16.123,29.734,35.386,43.297,46.704c-2.602,12.384,12.53,19.38,20.367,6.05c23.918,11.518,47.244,13.746,72.981,10.055
		c-0.008,14.045-0.024,28.556-0.024,42.866c-8.046,5.633-22.022,15.324-24.633,17.253c-11.417-10.157-30.197-1.564-23.259,13.978
		c-6.433,0.281-33.242,1.761-43.646,1.694c-1.695-36.248-58.611,18.499-23.227,22.622c-1.43,11.483-7.438,41.715-8.377,46.104
		c-9.356-6.117-23.567,3.274-20.693,14.26c2.203,8.958,21.54,28.188,31.289,28.188c7.969,0.384,15.863-9.855,12.158-17.416
		c2.426-0.782,10.521-2.112,10.919-2.194c18.466,31.427,88.578,64.57,120.731,84.58c2.527,0.997,6.73,1.879,8.144-1.214
		c3.523-4.303,10.903-9.755,5.966-15.82c3.541-1.797,5.867-7.131,4.354-10.156c4.547-2.276,4.755-5.801,2.494-10.021
		c1.67-1.28,3.79-4.356,1.637-6.499c-0.939-1.114-1.985-2.625-3.581-2.759c-8.277-1.298-16.486-3.159-24.433-4.955
		c-13.969-3.173-28.404-6.446-43.629-6.696c-2.426-1.114-5.634-2.975-9.456-5.468l0.024-0.066
		c-6.009-3.739-12.631-8.76-20.801-15.043c15.789,7.183,44.492-30.149,18.915-33.705l0.871-5.468
		c6.557,3.904,22.654,2.444,31.09-1.447c17.485,58.223,48.882,66.665,157.312,121.711
		c108.649-55.245,139.545-63.173,157.313-121.694c8.377,3.875,24.549,5.335,31.047,1.431l0.881,5.468
		c-25.579,3.556,3.124,40.888,18.913,33.705c-8.176,6.302-14.791,11.304-20.807,15.043l0.033,0.066
		c-3.823,2.493-7.032,4.354-9.457,5.468c-15.226,0.25-29.668,3.523-43.629,6.696c-7.945,1.796-16.155,3.657-24.433,4.955
		c-1.579,0.134-2.659,1.645-3.59,2.759c-2.128,2.126-0.067,5.252,1.646,6.499c-2.277,4.221-2.045,7.745,2.492,10.021
		c-1.512,3.025,0.815,8.359,4.354,10.156c-4.902,6.05,2.411,11.518,5.966,15.82c1.415,3.093,5.619,2.211,8.146,1.214
		c32.128-19.995,102.233-53.134,120.73-84.58c0.399,0.082,8.493,1.412,10.92,2.194c-3.789,7.776,4.522,18.215,12.748,17.4
		C825.339,664.589,852.913,641.983,841.545,628.122 M296.295,355.564c3.448-0.765,5.385,12.498,7.03,16.819
		c4.354,11.452,11.535,23.867,18.913,33.175C320.694,423.292,275.03,358.505,296.295,355.564 M286.09,365.153
		c1.845-0.88,1.563,0.084,3.391,5.701c5.601,15.474,21.863,37.745,26.917,41.236c0.515,1.678-1.97,5.318-2.984,5.268
		c-12.133-6.88-26.234-29.584-27.722-32.061C283.406,381.808,274.214,370.922,286.09,365.153 M274.306,374.645
		c0.915-0.3,2.527-1.165,4.354,2.642c2.219,4.588,10.563,19.098,18.133,27.973c3.475,4.072,8.959,11.004,12.383,13.879
		c3.158,2.659,2.477,3.439,1.164,5.534c-3.059,3.489-5.087,0.033-7.115-1.513c-9.157-8.709-17.617-13.496-31.088-37.546
		C269.644,381.16,273.707,374.262,274.306,374.645 M268.864,385.995c17.26,25.53,16.637,26.361,37.238,43.53
		c2.242,1.694-1.813,5.95-5.029,3.724c-4.221-2.761-23.542-21.375-31.86-34.422C264.891,392.046,263.004,386.793,268.864,385.995
		 M259.888,393.076c2.634-0.565,4.429,3.591,5.477,5.169c14.261,21.439,17.551,23.069,34.553,39.772
		c1.031,14.377-27.473-17.567-29.135-20.011c-0.622-0.449-8.36-9.491-12.415-16.223
		C256.563,398.794,257.138,395.403,259.888,393.076 M253.723,403.597c2.385-1.379,2.408-0.381,2.857,0.217
		c9.798,13.029,17.36,22.752,29.41,34.105c1.031,0.963,11.152,8.675,9.107,10.537c-1.763,3.074-5.127,0.848-6.731-0.233
		C280.979,442.19,247.662,413.553,253.723,403.597 M288.268,460.937c-8.211-2.592-47.037-40.52-42.084-48.414
		c1.064-1.098,4.339,0.083,5.443,1.546c7.23,9.407,13.588,17.816,22.579,25.927C278.909,445.563,295.813,453.94,288.268,460.937
		 M304.348,467.421c-8.235,13.245-17.976,2.309-12.972-5.004c5.269-7.695,33.723-54.648,33.723-54.648
		c2.551-3.606,13.812,2.643,11.892,7.896l-29.027,45.39C307.963,461.054,305.104,466.188,304.348,467.421 M379.721,476.428
		c-24.656,3.806-48.864,1.163-70.778-9.523c-0.856,0.548,27.581-43.546,28.305-44.759c8.609,6.964,30.167,10.056,42.814,10.869
		C380.252,445.413,379.156,468.019,379.721,476.428 M379.98,552.168c0.033,12.763-0.009,24.433,0.091,35.865
		c-6.416,5.154-18.848,4.321-25.405,2.311l1.529-12.081c12.897,5.184,24.831-9.941,15.938-21.01
		C371.593,557.401,376.173,554.479,379.98,552.168 M379.606,528.548l-0.175,17.586c0,0.483-6.482,4.388-10.272,7.063
		c-3.307-4.056-6.48-6.88-10.454-10.237C364.754,538.604,373.263,533.104,379.606,528.548 M340.14,540.052
		c11.319-3.342,25.828,14.409,30.522,22.438c2.394,7.412-2.717,12.879-9.166,12.879c-7.246,0.947-19.527-14.608-24.1-19.18
		C333.89,550.971,332.959,542.163,340.14,540.052 M289.231,619.346c-0.457,1.415-0.78,2.827-1.047,4.24l-7.462,1.079
		c1.163-9.058,4.944-30.05,8.035-46.187l43.496-1.313c-0.539,3.357-1.171,12.848-1.421,12.898
		C302.577,595.598,292.622,609.044,289.231,619.346 M327.858,605.137c-2.834-1.78-8.127-4.737-4.688-9.274
		c2.618-0.765,4.713-1.629,7.712-2.209c-0.34,1.877-1.729,13.527-2.353,16.985c-0.007,0-0.024,0-0.04,0.016
		C329.17,607.612,328.614,606.017,327.858,605.137 M311.137,615.275c-5.302-0.232-9.748,0.167-11.202-6.317
		c1.431-1.526,3.066-2.974,4.912-4.369c0.506,11.568,12.863,0.631,11.551,11.186c-0.507,0.364-1.23,0.914-2.036,1.694
		C313.557,616.572,312.516,615.707,311.137,615.275 M312.035,620.21c-0.965,1.348-1.928,3.276-2.411,4.986
		c-4.853-5.417-12.133,2.145-17.235-2.706c0.814-3.192,2.178-6.333,4.171-9.294C301.73,619.963,307.597,615.824,312.035,620.21
		 M318.167,600.416c2.144,7.031,8.062,3.773,6.915,11.353c-1.447,0.498-3.167,1.163-4.937,1.996
		c0.265-11.619-12.507-2.445-12.415-11.139c3.107-1.959,6.697-3.739,10.853-5.25C318.01,598.838,318.093,599.95,318.167,600.416
		 M327.758,614.925c-0.358,1.996-0.682,3.857-0.948,5.438c-4.038,0.332-8.559,0.88-11.559,1.295
		C316.772,619.845,320.196,617.418,327.758,614.925 M291.674,626.194c5.935,4.787,13.479-3.173,17.228,4.055
		c0.041,1.863,0.126,2.578,0.433,3.907c-6.508-4.489-11.311,4.104-17.742-0.681C291.359,631.063,291.376,628.622,291.674,626.194
		 M294.699,645.425c-0.98-2.261-1.762-4.639-2.326-7.047c6.78,3.59,10.645-4.057,17.816-1.214c0.765,1.996,1.778,3.657,2.791,4.987
		C302.627,639.79,300.881,647.65,294.699,645.425 M301.348,655.979c-1.389-1.612-2.709-3.341-3.872-5.235
		c8.999-1.743,7.794-6.948,18.515-5.287c1.229,1.049,2.494,2.413,4.379,3.841C306.061,648.647,309.35,658.805,301.348,655.979
		 M320.328,644.228l6.217-1.13c0.474,3.79,1.245,6.349,3.465,8.727C327.476,649.946,320.51,644.444,320.328,644.228
		 M305.336,660.051c2.743,0.05,6.715-3.541,7.63-5.618c0.606-2.492,12.548-3.458,16.263,1.678
		c-10.246-0.313-9.849,6.648-19.329,7.83C308.528,662.826,306.865,661.43,305.336,660.051 M346.04,689.401
		c5.858-6.879,7.687-3.074,13.229-5.4c-0.965,4.886-8.609,5.584-10.953,6.849C347.552,690.366,346.787,689.902,346.04,689.401
		 M429.658,689.352l1.212,1.446c-0.698,0.5-1.205,0.998-1.597,1.497l-31.893-1.548l31.122,5.304
		c1.903,4.138,1.794,3.856-2.212,6.547l-31.702-4.419l31.545,8.408c1.338,3.325-4.521,5.801-5.419,7.463l-28.379-10.671
		l30.539,15.31c0.832,2.093-0.738,3.34-2.234,5.053L392.71,709.38l25.08,17.252c-0.799,0.848-1.487,1.713-1.903,2.561
		c-12.614-4.521-23.842-13.446-35.975-19.512c4.255-4.988,15.374-19.912,13.812-27.791
		C405.583,684.399,417.358,687.442,429.658,689.352 M389.636,681.043c1.845,7.628-9.241,21.64-13.546,26.425
		c-1.539-0.881-3.066-1.761-4.588-2.641c4.421-4.622,15.041-17.436,14.178-24.5C387.001,680.577,388.323,680.776,389.636,681.043
		 M381.076,679.53c1.346,6.348-9.574,18.414-13.979,22.754c-1.786-1.048-3.547-2.146-5.336-3.226
		c4.938-3.308,15.158-12.997,14.069-20.244C377.584,679.03,379.339,679.264,381.076,679.53 M363.441,685.963
		c1.806-4.556,2.005-6.002,1.929-8.079c1.979,0.082,3.931,0.265,5.884,0.449c1.255,6.548-8.726,15.19-13.828,18.116
		c-1.612-0.981-3.241-1.928-4.854-2.926C354.449,691.829,361.496,690.864,363.441,685.963 M360.865,677.519
		c-4.795,6.83-13.611,2.078-18.316,9.622c-0.731-0.48-1.444-0.979-2.177-1.462c7.064-4.42,7.513-9.605,17.368-9.724
		C358.855,676.555,359.902,677.086,360.865,677.519 M351.009,671.919c0.849,0.548,1.68,1.063,2.494,1.577
		c-7.929,1.247-9.474,7.313-16.455,9.957c-0.88-0.599-1.77-1.181-2.642-1.779C343.148,679.663,339.484,669.192,351.009,671.919
		 M339.458,663.873c1.895,1.397,3.782,2.743,5.669,4.071c-9.657,2.211-4.887,10.123-15.134,10.62
		c-2.235-1.593-4.954-3.539-7.854-5.633C333.375,672.165,329.029,663.308,339.458,663.873 M332.461,658.605
		c0.848,0.664,1.721,1.313,2.592,1.976c-8.991,1.547-4.77,9.609-17.367,9.159c-1.146-0.829-2.311-1.662-3.457-2.477
		c4.056-0.633,5.717-5.104,8.658-6.183C324.899,660.847,329.901,659.47,332.461,658.605 M346.172,624.101
		c32.277-5.037-16.704,49.527-15.947,15.175l-12.947,1.977c-2.815-3.556-5.242-10.635-3.356-15.555
		c3.149-0.449,11.825-1.612,16.196-1.697c1.711-10.536,6.449-50.825,6.449-50.825l-51.066,1.696c0,0-9.465,48.979-8.984,54.282
		l11.129-1.63c-0.383,5.221,0.033,11.452,1.586,16.255c-4.088,0.947-10.62,1.678-15.165,2.793
		c6.065,5.003,0.955,16.688-6.632,16.688c-7.887-0.05-25.721-17.884-27.516-25.214c-1.619-11.616,12.107-14.378,19.588-7.529
		c3.348-18.1,8.194-39.905,9.332-55.678c-33.199,1.696,17.85-49.015,16.446-15.806l46.969-1.497l20.128,19.63
		C352.381,577.165,347.694,612.767,346.172,624.101 M360.384,609.674c-0.258,0.747-0.682,1.861-1.629,2.659
		c-2.96-0.497-4.887-1.412-6.632-1.878c1.33-8.742,1.745-13.079,2.127-16.471c1.994,0.381,2.478,0.232,4.396,0.6
		C354.25,603.574,362.935,602.91,360.384,609.674 M369.491,612.517c-2.269,0.516-4.555,0.516-6.897,0.316
		c5.767-11.636-4.105-7.947-0.474-17.65c1.405,0.23,2.701,0.415,3.848,0.547c1.329,12.649,6.507,6.349,9.922,15.125
		C373.696,611.485,371.469,612.066,369.491,612.517 M379.614,609.756c-2.867-9.656-10.238-5.516-9.689-13.861
		c6.697-1.295,9.041-3.224,10.138-3.923c0.282,4.074,0.308,9.79,1.528,17.204C381.59,609.176,379.929,609.989,379.614,609.756
		 M777.539,286.722l-12.482,8.875l10.072,13.796l12.466-8.876l15.623,21.374c0,0-5.136,3.673-7.645,5.452l-10.173-13.547
		l-13.163,9.375l9.923,13.712l-13.662,9.739l-11.452-15.674l11.203-7.977c-5.103-6.881-11.502-15.773-11.502-15.773
		s-1.828,1.279-11.201,7.961c-3.291-3.723-7.298-9.988-7.298-9.988s-7.479,5.352-16.521,11.768l7.28,9.988
		c-2.975,2.028-10.205,7.279-10.205,7.279l11.501,15.773l10.223-7.264c2.177,2.81,11.452,15.674,11.452,15.674l-12.732,9.058
		l-9.99-13.679l-14.791,10.539l9.973,13.678l-6.964,4.969l-16.438-22.205l10.47-7.462c0,0-8.377-12.798-9.141-13.047
		c-4.072,3.058-3.623,2.709-10.569,7.528c-4.905-6.465-8.095-11.086-8.095-11.086c2.144-1.529,5.584-3.988,9.905-7.08
		c10.403-7.446,25.896-18.515,40.304-28.803c8.992-6.416,17.568-12.532,24.25-17.252c5.068-3.607,9.058-6.398,11.284-7.928
		L777.539,286.722z M764.658,256.273c0,0,8.426,10.006,8.91,12.216c0.182,0.781-159.89,112.338-159.89,112.338h-25.446
		L764.658,256.273z M610.837,359.42l-28.788,21.009h-12.598c-2.725-20.461-5.452-34.238-4.653-54.117h40.653
		C606.465,332.993,609.025,350.577,610.837,359.42 M519.407,326.312h41.483c-0.945,17.95,2.344,34.787,4.189,54.516h-49.869
		C517.064,361.082,520.356,344.278,519.407,326.312 M532.264,149.853c0.498-0.947,1.745-2.178,3.614-2.178c0.251,0,8.693,0,8.958,0
		c1.996,0,3.275,2.062,3.374,2.228l0,0c0.599,1.048,1.114,2.56,1.563,4.754c0,0-9.847-1.729-19.096,0
		C530.659,154.673,531.724,150.917,532.264,149.853 M479.268,194.445c36.226-53.335,90.981-46.155,123.209,1.796
		c-5.252,9.756-6.631-0.4-10.421-4.737c-1.896,2.476-3.074,8.11-6.466,9.041c-4.554-4.038-7.295-12.897-10.687-17.834
		c-3.491,4.887-6.017,14.128-10.887,17.851c-2.642-1.413-4.571-6.664-6.398-9.125c-1.828,2.461-3.772,7.712-6.398,9.125
		c-4.872-3.723-7.396-12.964-10.904-17.834c-3.382,4.903-6.133,13.746-10.645,17.768c-3.232-0.731-4.529-6.682-6.798-8.991
		c-1.887,2.476-3.075,8.11-6.457,9.041c-4.563-4.038-7.296-12.897-10.687-17.834c-3.491,4.887-6.033,14.128-10.888,17.851
		c-2.65-1.413-4.568-6.664-6.416-9.125c-1.479,2.477-3.887,6.666-5.666,8.859c-2.202,1.097-3.407-2.908-4.721-4.188
		C478.264,195.593,479.268,194.445,479.268,194.445 M472.223,211.847c4.885-1.047,5.427-8.542,0.646-10.188l-0.114-8.111
		c0.547,0.98,1.097,2.011,1.644,3.009c0.441,0.831,0.898,1.629,1.348,2.409c0.507,0.881,1.021,1.712,1.554,2.46
		c2.294,3.274,4.778,5.003,7.735,2.045c1.041-1.03,2.138-2.644,3.31-4.97c1.212,2.51,2.367,4.172,3.473,5.186
		c2.774,2.543,5.235,0.98,7.446-2.078c1.629-2.227,3.124-5.234,4.529-8.011c0.049-0.1,0.1-0.2,0.149-0.3
		c0.522-1.029,1.039-2.027,1.546-2.941c0.049-0.082,0.107-0.182,0.157-0.281l0,0c3.989,7.162,9.822,23.85,17.361,8.725
		c3.739,8.128,9.14,7.961,12.339,0.283c1.63-2.793,3.358-6.117,4.879-9.025c4.246,7.48,9.814,24.018,17.293,8.443
		c7.479,15.424,12.832-0.531,17.303-8.426c3.973,7.063,10.021,24.199,17.317,8.559c4.571,9.773,8.677,6.598,12.067,1.196
		c0.599-0.964,1.197-2.011,1.763-3.074c0.88-1.679,1.711-3.358,2.477-4.837v9.523c-5.734,1.146-5.187,10.021,0.646,10.438
		c-0.049,0.018-0.282,0-0.646,0c-0.483,0.018-31.713,0-32.843,0c6.564-0.564,6.049-10.736-0.599-10.604
		c-6.665-0.133-7.163,10.039-0.599,10.604h-33.523c6.564-0.564,6.065-10.736-0.599-10.604c-6.646-0.133-7.164,10.039-0.598,10.604
		h-33.507c6.564-0.564,6.05-10.736-0.599-10.604c-6.665-0.133-7.164,10.039-0.598,10.604h-32.959h-0.515
		C471.923,211.88,472.156,211.864,472.223,211.847 M463.28,216.883c0-2.293,2.486-2.127,3.125-2.127H615.69
		c2.111,0,1.895,4.255,0,4.255c-1.513,0-146.5,0-149.061,0C465.434,219.011,463.28,219.011,463.28,216.883 M467.576,223.681
		c0.184-0.515,0.424-1.063,0.806-1.795h143.751c1.829,0.947,7.812,19.662,7.812,19.662s-2.443,3.873-4.271,6.116
		c-0.548,0.981-2.443,1.296-3.225,0.532c-2.128-2.709-5.035-7.813-6.78-10.771c-2.062,2.659-4.953,10.371-8.111,11.302
		c-5.102-2.393-10.237-17.734-13.744-22.537c-3.475,6.051-7.813,15.59-11.901,21.573c-4.288,4.255-7.895-7.944-9.806-10.288
		c-2.792,2.941-4.321,10.637-8.592,11.17c-0.632-0.101-1.182-0.434-1.547-0.948c-4.005-5.966-8.376-15.274-11.742-21.424
		c-3.35,6.133-7.729,15.475-11.733,21.424c-0.366,0.515-0.907,0.848-1.538,0.948c-4.271-0.533-5.818-8.229-8.609-11.17
		c-1.861,2.244-5.519,14.56-9.807,10.288c-4.079-5.999-8.408-15.507-11.891-21.573c-3.525,4.82-8.636,20.127-13.747,22.537
		c-3.165-0.914-6.049-8.643-8.102-11.302c-5.268,8.294-8.152,18.349-13.545,3.44C462.6,235.448,467.528,223.798,467.576,223.681
		 M454.322,258.202c0.865-0.466,4.181-4.688,0.425-8.81l-0.366-12.382c0.665,1.196,1.33,2.443,1.995,3.689
		c1.662,3.125,3.34,6.232,5.127,8.493c2.609,3.323,5.428,4.819,8.686,1.828c1.42-1.296,2.932-3.457,4.544-6.698
		c1.554,3.191,3.025,5.336,4.422,6.648c3.324,3.141,6.231,1.563,8.874-1.878c1.869-2.443,3.607-5.802,5.245-9.092
		c1.139-2.276,2.235-4.521,3.307-6.382c0.698,1.229,1.43,2.659,2.194,4.205c1.77,3.54,3.747,7.578,5.916,10.554
		c2.485,3.391,5.236,5.368,8.253,3.59c0.191-0.116,0.383-0.233,0.565-0.382c0,0,0.017,0,0.017-0.018
		c1.586-1.162,3.248-3.39,4.977-7.03c1.604,3.491,3.167,5.668,4.68,6.881c0.565,0.449,1.121,0.782,1.679,0.964
		c0.04,0.017,0.084,0.033,0.116,0.051c2.693,0.848,5.202-1.264,7.496-4.504c2.185-3.075,4.188-7.181,5.966-10.754
		c0.624-1.23,1.214-2.41,1.787-3.457c0.74,1.329,1.513,2.875,2.318,4.487c1.746,3.474,3.639,7.28,5.684,10.122
		c2.761,3.789,5.818,5.816,9.175,2.893c1.463-1.247,2.959-3.392,4.521-6.732c1.944,3.923,3.757,6.217,5.452,7.346
		c2.993,1.979,5.65,0.267,8.044-2.908c1.995-2.626,3.79-6.232,5.468-9.606c1.049-2.094,2.045-4.089,2.992-5.684
		c0.615,1.113,1.263,2.409,1.928,3.772c1.796,3.574,3.79,7.646,5.983,10.703c2.294,3.191,4.787,5.236,7.463,4.371l0,0
		c0.498-0.166,0.998-0.432,1.496-0.797c0.033-0.017,0.066-0.033,0.083-0.051c0.066-0.049,0.133-0.116,0.184-0.148
		c1.528-1.246,3.124-3.49,4.77-7.064c1.462,3.059,2.858,5.119,4.204,6.434c1.064,1.029,2.078,1.594,3.075,1.744
		c0.067,0.017,0.117,0.017,0.183,0.033c2.144,0.216,4.122-1.396,5.984-3.873c2.044-2.726,3.956-6.465,5.783-9.955
		c0.382-0.732,0.764-1.445,1.13-2.145l0.084,11.9c-1.264,0.416-1.746,1.396-2.294,2.427c-0.897,1.629-0.897,3.723,0,5.352
		c0.548,1.03,1.03,1.911,2.294,2.327v2.559c-14.359-0.1-157.388-0.115-171.906-0.049V258.202z M445.19,268.556
		c-0.814,0-1.271-0.681-1.321-1.146c-0.051-0.482-0.067-1.379-0.042-1.762c0,0,0,0,0-0.018l0,0c0-0.165,0-1.346,1.57-1.346h184.056
		c0.863,0,2.193,0,3.455,0c0.899,0.017,1.747,0.017,2.36,0l0,0c0.184,0,0.366,0.051,0.517,0.117c0,0,0.016,0,0.033,0.016
		c0.116,0.051,0.232,0.117,0.333,0.217c0.165,0.166,0.299,0.382,0.397,0.615c0.233,0.598,0.249,1.379,0.067,2.027
		c-0.133,0.482-0.365,0.881-0.716,1.098c0,0.016-0.016,0.016-0.033,0.033c-0.049,0.016-0.1,0.033-0.149,0.066
		c-0.133,0.049-0.282,0.082-0.449,0.082l0,0c-1.163,0-2.559,0-3.904,0c-0.799,0-1.596,0-2.295,0
		C629.069,268.556,445.879,268.556,445.19,268.556 M612.965,290.13c-0.018,0-0.033,0.016-0.051,0.016l-0.016-0.016l-0.033,0.066
		c-0.3,0.266-1.78,3.307-1.913,3.573c-0.1,0.167-0.1,0.216,0,0.033c-1.063,2.193-5.317,12.282-8.759,7.596
		c-0.532-0.765-1.279-1.38-1.812-2.243c-0.082-0.15-0.184-0.301-0.265-0.449c-0.018,0-0.018-0.018-0.018-0.033
		c-1.246-2.045-2.492-4.289-3.723-6.599c-1.579-2.959-3.124-6.017-4.604-8.842c-0.766-1.479-1.528-2.909-2.262-4.239
		c-0.265-0.498-0.547-0.98-0.813-1.445c-1.346,1.811-3.008,5.285-4.82,9.091c-2.244,4.638-8.774,17.235-10.503,16.039l0,0l0,0
		c-1.896-0.183-5.087-5.7-6.351-8.027c-0.913-1.695-1.777-3.258-2.51-4.255l-0.183-0.333l-0.199,0.333
		c-0.731,0.997-1.578,2.56-2.492,4.238c-1.264,2.326-2.677,4.836-4.123,6.448c-0.748,0.815-1.496,1.413-2.244,1.596l0,0l0,0
		c-1.03-0.349-2.176-1.479-3.356-3.075c-2.51-3.391-5.218-8.891-7.512-13.695c-1.704-3.557-3.176-6.748-4.181-8.359
		c-0.98,1.596-2.459,4.77-4.163,8.327c-2.294,4.819-5.02,10.337-7.53,13.728c-1.188,1.613-2.325,2.743-3.356,3.075l0,0l0,0
		c-0.748-0.183-1.496-0.765-2.219-1.579c-1.454-1.612-2.867-4.121-4.13-6.448c-0.924-1.695-1.778-3.258-2.51-4.255l-0.184-0.333
		l-0.199,0.333c-0.73,0.997-1.578,2.56-2.493,4.255c-1.271,2.31-2.676,4.836-4.121,6.432c-0.741,0.815-1.479,1.413-2.228,1.596l0,0
		l0,0c-3.175-0.448-8.46-11.784-10.721-16.454c-1.246-2.576-2.443-4.986-3.557-6.798l-1.055-1.878l-0.101,0.166
		c-0.042-0.051-0.09-0.117-0.141-0.166c-0.807,1.611-1.703,3.424-2.66,5.335c-1.961,3.905-4.188,8.211-6.398,12.149
		c-1.346,2.394-2.692,4.637-3.963,6.565c-1.472,1.745-3.06,1.113-4.563-0.516c-1.264-1.712-3.124-4.986-4.521-7.513
		c-0.912-1.895-1.586-3.357-1.861-3.439c-0.199,0.1-0.563,0.697-1.029,1.578l-0.756,1.147c-0.267,0.399-0.633,1.063-1.13,1.978
		c-0.325,0.598-2.985,4.986-3.683,5.949c-0.83,0.898-1.67,1.53-2.491,1.696c-0.334,0.067-0.666,0.05-0.998-0.05
		c-0.416-0.133-0.832-0.432-1.222-0.898h-0.009c-2.767-3.656-4.819-6.68-6.166-9.623c-1.206-2.625-1.853-5.186-1.928-8.027
		c-0.076-3.49,0.681-7.412,2.31-12.448H630c0.132,0.432,0.249,0.881,0.383,1.346c0.1,0.383,0.199,0.781,0.299,1.181
		c0.05,0.166,0.083,0.349,0.133,0.531c0.066,0.35,0.149,0.682,0.233,1.047c0.397,1.813,0.714,3.723,0.964,5.635
		c0.049,0.35,0.1,0.682,0.133,1.03c0.033,0.35,0.082,0.698,0.115,1.031c0.066,0.714,0.117,1.396,0.167,2.094
		c0,0.066,0.017,0.134,0.017,0.183c0.05,0.897,0.1,1.778,0.116,2.676l0,0c-0.382,0.698-0.748,1.363-1.097,2.027
		c-0.832,1.53-1.645,3.059-2.494,4.588c-0.049,0.066-2.161,3.806-2.808,4.869c-0.599,0.881-1.164,1.58-1.729,2.062
		c-0.499,0.333-1.063,0.647-1.364,0.698c-0.281,0.05-0.564,0.083-0.863,0.1c-1.18-0.199-2.46-1.363-4.072-3.641
		c-1.363-1.928-2.959-4.637-4.903-8.26l0.666,1.014C613.379,290.794,612.965,290.13,612.965,290.13 M443.635,316.307v-4.288
		c0.216-0.166,0.391-0.365,0.565-0.582c0.149-0.166,0.29-0.349,0.416-0.531c0.115-0.184,0.231-0.35,0.315-0.532
		c0.033-0.083,0.075-0.149,0.099-0.233c0.565-1.328,0.565-2.908,0-4.238c-0.023-0.083-0.065-0.148-0.099-0.216
		c-0.084-0.199-0.2-0.365-0.315-0.548c-0.126-0.184-0.267-0.365-0.416-0.549c-0.175-0.199-0.35-0.398-0.565-0.564V288.4
		c0.698,1.28,1.372,2.594,2.035,3.907c1.888,3.705,3.732,7.379,5.678,10.121c3.148,4.438,6.549,6.383,10.802,2.011
		c1.555-1.612,3.217-4.038,5.02-7.529c1.363,2.959,2.659,5.136,3.915,6.665c0.839,1.014,1.653,1.745,2.451,2.227
		c1.047,0.633,2.061,0.832,3.041,0.699c1.778-0.267,3.441-1.646,4.987-3.656c2.343-3.009,4.421-7.381,6.265-11.336
		c1.355-2.893,2.577-5.568,3.69-7.313c1.005,1.563,2.177,4.221,3.506,7.18c1.713,3.806,3.69,8.077,5.969,11.103
		c2.841,3.772,6.133,5.601,9.938,2.193c1.646-1.462,3.374-3.872,5.202-7.528c0.648,1.296,1.746,3.34,3.117,5.219
		c1.279,1.728,2.801,3.323,4.445,3.972c1.147,0.466,2.36,0.481,3.59-0.232c0.033-0.017,0.066-0.05,0.101-0.066
		c0.24-0.149,0.473-0.315,0.715-0.515c6.314-4.804,12.116-20.277,12.124-20.311c0.988,1.562,2.119,4.104,3.382,6.881
		c1.596,3.506,3.424,7.412,5.519,10.271c1.279,1.762,2.676,3.141,4.172,3.789c0.864,0.365,1.777,0.498,2.725,0.315
		c1.247-0.249,2.561-1.047,3.939-2.526c1.38-1.494,2.844-3.672,4.371-6.715c1.363,2.876,2.692,4.986,3.974,6.466
		c1.313,1.513,2.56,2.377,3.771,2.692c0.831,0.25,1.646,0.217,2.442-0.017c1.548-0.448,3.01-1.695,4.355-3.373
		c2.326-2.893,4.388-7.064,6.166-10.755c1.381-2.875,2.594-5.435,3.657-6.83c0.78,1.213,1.744,3.24,2.842,5.551
		c1.646,3.441,3.624,7.546,5.867,10.67c1.744,2.46,3.673,4.322,5.733,4.805c0.017,0,0.034,0.016,0.05,0.016c0.018,0,0.018,0,0.018,0
		c1.014,0.233,2.044,0.134,3.108-0.382c0.88-0.415,1.761-1.097,2.675-2.128c1.28-1.429,2.61-3.506,3.974-6.365
		c1.361,2.659,2.642,4.637,3.888,6.049c1.064,1.197,2.095,1.996,3.075,2.428c1.08,0.465,2.129,0.532,3.126,0.266
		c1.827-0.499,3.54-2.077,5.185-4.221c2.178-2.859,4.238-6.699,6.266-10.305c0.764-1.381,1.546-2.709,2.311-3.957v15.391
		c-1.115,0.482-1.895,1.297-2.395,2.277c-0.781,1.546-0.781,3.49,0,5.053c0.5,0.965,1.279,1.795,2.395,2.244v3.507v0.349h-193.18
		V316.307z M439.172,323.437c-0.422,0-0.706-0.133-0.914-0.365c-0.274-0.283-0.406-0.731-0.448-1.197
		c-0.05-0.466-0.024-0.963,0-1.346l0,0c0-0.017,0-0.017,0-0.017c0.009-0.415,0.15-0.698,0.375-0.897
		c0.298-0.283,0.765-0.398,1.263-0.433c0.44-0.033,0.897-0.017,1.279,0c0.008,0,0.008,0,0.008,0h198.987
		c0.318-0.017,0.783-0.033,1.231,0c0.365,0.017,0.747,0.083,1.031,0.217c0.431,0.199,0.712,0.531,0.664,1.113c0,0,0,0,0,0.017
		c-0.084,0.647,0.048,1.611-0.217,2.243c-0.166,0.399-0.498,0.665-1.146,0.665l0,0H439.172 M474.858,326.312h40.644
		c0.799,19.879-1.919,33.656-4.653,54.117h-12.599l-28.786-21.009C471.275,350.577,473.852,332.977,474.858,326.312
		 M388.506,347.769c-6.949-4.819-6.5-4.471-10.571-7.528c-0.747,0.249-9.956,13.878-9.956,13.878l10.455,7.445l-15.607,21.391
		l-6.964-4.969l9.972-13.678l-14.793-10.539l-9.988,13.679l-12.715-9.058c0,0,9.965-13.878,12.134-16.688l10.222,7.28l10.811-14.776
		c0,0-7.237-5.251-10.221-7.279l7.289-9.988c-9.042-6.416-16.521-11.768-16.521-11.768s-4.006,6.266-7.296,9.988
		c-9.366-6.682-11.194-7.961-11.194-7.961s-6.406,8.893-11.51,15.773l11.194,7.977l-11.442,15.674l-13.662-9.739l9.921-13.712
		l-13.163-9.375l-10.171,13.547c-2.51-1.779-7.629-5.452-7.629-5.452l15.598-21.374l12.481,8.876l10.064-13.796l-12.473-8.875
		l8.102-11.102c2.16,1.479,6.149,4.287,11.268,7.928l6.25,4.388l18.39,13.146c14.585,10.404,30.209,21.573,40.496,28.937
		c4.072,2.908,7.314,5.235,9.324,6.664C396.599,336.683,393.416,341.304,388.506,347.769 M307.496,268.257
		c-0.979-0.881,8.395-11.65,9.026-11.85c0.415,0.299,0.913,0.664,1.462,1.047l1.846,1.296c0.066,0.05,0.133,0.101,0.206,0.149
		c1.489,1.048,3.267,2.311,5.294,3.723c3.706,2.627,8.244,5.835,13.431,9.49c1.179,0.832,2.41,1.695,3.663,2.576
		c1.639,1.164,3.316,2.361,5.062,3.59c1.155,0.798,2.327,1.646,3.523,2.477c3.15,2.228,6.433,4.538,9.823,6.931
		c1.546,1.097,3.117,2.211,4.712,3.341c7.528,5.303,15.499,10.938,23.642,16.671c2.194,1.563,4.396,3.108,6.615,4.671
		c10.314,7.296,20.776,14.676,30.832,21.772c1.321,0.931,2.626,1.861,3.938,2.775l1.944,1.38
		c13.18,9.307,25.447,17.966,35.484,25.047c12.44,8.775,21.475,15.141,24.566,17.335l-25.995-0.249L307.496,268.257z
		 M694.205,592.621c-1.911,32.478-14.211,53.054-39.174,73.963c-20.876,17.499-113.203,61.229-113.354,61.229
		c-0.381,0.032-96.537-43.347-117.431-61.08c-24.157-20.525-38.709-43.597-38.793-79.014c-0.074-30.384,0.325-59.201,0.325-73.446
		c16.222-11.801,24.913-16.736,41.784-27.656c7.694-4.971,17.833-10.039,27.854-9.906c12.964,0.184,24.516,6.018,32.909,11.768
		c9.98,6.865,20.062,19.031,32.825,20.179c8.568,0.763,15.938-2.86,22.912-7.38c6.191-4.023,12.373-8.527,19.637-9.974
		c8.609-1.729,17.617,1.164,25.048,5.817c10.204,6.416,14.16,11.817,21.157,17.701c4.122,3.473,18.464,11.999,34.969,10.32
		c8.442-0.848,15.557-4.735,23.22-7.978c7.745-3.259,18.298-2.642,26.524-0.698C695.302,516.632,695.335,573.624,694.205,592.621
		 M692.875,511.23c-7.729-1.511-18.165-0.399-25.812,2.062c-4.089,1.313-7.846,3.375-11.718,5.22
		c-9.258,4.437-23.385,3.024-30.781,0.149c-7.811-3.026-12.98-6.033-18.531-11.319c-12.3-11.702-25.031-23.8-45.973-19.313
		c-6.381,1.381-11.666,4.936-16.769,8.377c-6.998,4.721-13.588,9.174-22.846,8.344c-7.239-0.649-15.058-6.997-22.611-13.146
		c-5.46-4.438-11.104-9.025-16.639-11.535c-19.752-8.942-31.612-10.289-50.541,0.217c-5.353,2.957-35.586,22.371-45.383,28.686
		c0.008-20.576,0.024-41.135,0.05-59.732c0.041-29.751,0.058-53.852,0.024-63.092H694.97c-0.033,9.24-0.018,33.341,0.015,63.092
		c0.033,19.43,0.051,41.002,0.067,62.51C694.321,511.581,693.589,511.382,692.875,511.23 M730.337,541.28
		c11.619-6.049,19.696,4.571,12.532,14.908c-4.621,4.588-16.821,20.079-24.1,19.18C695.119,571.597,720.497,546.665,730.337,541.28
		 M721.561,542.96c-3.971,3.357-7.146,6.182-10.454,10.237c-3.788-2.676-10.271-6.58-10.271-7.063l-0.183-17.586
		C706.986,533.104,715.512,538.604,721.561,542.96 M825.989,414.068c1.112-1.463,4.388-2.644,5.451-1.546
		c8.644,3.807-53.135,68.857-42.83,40.92C800.908,442.206,816.413,428.396,825.989,414.068 M823.894,403.597
		c8.36,8.146-27.257,38.609-34.637,44.626c-1.596,1.081-4.969,3.308-6.731,0.233c-2.044-1.862,8.077-9.574,9.107-10.537
		c12.05-11.354,19.613-21.076,29.419-34.105C821.5,403.216,821.933,401.687,823.894,403.597 M817.727,393.076
		c7.796,5.851-10.337,23.949-11.417,25.047c-1.778,1.845-29.618,34.255-28.604,19.895c17.003-16.703,20.293-18.333,34.554-39.772
		C813.307,396.667,815.102,392.511,817.727,393.076 M808.752,385.995c17.137,2.312-25.711,42.998-32.21,47.254
		c-3.208,2.227-7.263-2.029-5.019-3.724C792.115,412.372,791.5,411.525,808.752,385.995 M803.318,374.645
		c10.405,10.604-16.588,36.813-28.919,48.515c-2.028,1.546-4.055,5.002-7.114,1.513c-1.313-2.095-1.995-2.875,1.164-5.534
		c3.423-2.875,8.908-9.807,12.382-13.879c7.579-8.875,15.922-23.385,18.133-27.973C800.791,373.479,802.405,374.345,803.318,374.645
		 M791.153,365.687c10.336,3.406,2.825,15.506,0.531,18.996c-0.648,1.879-23.137,32.775-27.474,32.676
		c-1.015,0.051-3.507-3.59-2.975-5.268c0.531-1.746,5.318-5.319,6.93-7.314C795.29,371.005,787.196,364.39,791.153,365.687
		 M774.299,372.384c1.645-4.321,3.573-17.584,7.03-16.819c5.352,1.179,5.334,4.138,5.352,8.31
		c0.033,12.531-12.266,29.335-20.593,38.344c-3.141,3.373-9.524,11.168-10.703,3.341
		C762.765,396.251,769.945,383.836,774.299,372.384 M744.032,409.165c1.729-1.662,7.098-3.856,8.493-1.396
		c0,0,28.471,46.953,33.724,54.648c5.384,10.686-7.944,19.029-16.588-1.363l-29.02-45.39
		C739.263,412.123,743.401,409.779,744.032,409.165 M740.393,422.146c0.832,1.412,28.953,44.975,28.288,44.759
		c-21.19,10.354-44.509,13.114-68.392,9.872c0-15.074-0.034-29.467-0.051-43.943C712.969,431.853,732.199,428.776,740.393,422.146
		 M700.255,585.757c0.034-10.404,0.049-21.739,0.066-33.557c3.806,2.311,8.343,5.201,7.811,5.053
		c-8.907,11.068,3.042,26.193,15.939,21.01l1.529,12.081c-3.823,1.296-21.307,2.758-25.412-0.53
		C700.239,588.483,700.255,587.121,700.255,585.757 M700.654,609.756c-0.449-0.099-2.492-0.93-2.492-0.93
		c1.263-6.448,1.529-8.926,2.094-14.66c1.828,0.5,2.658,1.463,10.09,1.729C710.892,604.24,703.544,600.067,700.654,609.756
		 M718.106,601.448c-3.176,3.904-2.992,7.462-0.998,11.385c-6.134-0.133-8.742-0.7-13.297-1.979
		c3.408-8.761,8.61-2.494,9.924-15.125c1.146-0.132,2.443-0.316,3.855-0.547C717.939,596.926,719.502,599.735,718.106,601.448
		 M721.512,612.333c-6.881-8.926,5.02-7.663,0.1-17.749c1.929-0.367,2.41-0.219,4.389-0.6c0.399,3.392,0.813,7.729,2.143,16.471
		C726.4,610.921,724.471,611.836,721.512,612.333 M667.031,728.759l-2.659,0.434c-0.415-0.848-1.098-1.713-1.896-2.561l25.08-17.252
		l-27.939,14.361c-0.348-0.417-0.714-0.798-1.046-1.182c-0.598-0.664-1.097-1.329-1.297-2.044c-0.148-0.548-0.165-1.146,0.117-1.827
		l30.531-15.31l-28.387,10.671c-0.3-0.582-1.231-1.264-2.228-2.043c-1.23-0.965-2.594-2.079-3.125-3.324
		c-0.282-0.664-0.349-1.363-0.05-2.096l31.546-8.408l-31.712,4.419c-1.247-0.829-2.128-1.396-2.678-1.877
		c-0.713-0.648-0.863-1.181-0.598-2.112c0.184-0.613,0.55-1.428,1.064-2.558l31.13-5.304l-31.895,1.548
		c-0.399-0.499-0.897-0.997-1.595-1.497l1.213-1.446c12.299-1.909,24.067-4.952,35.933-7.462c-0.364,1.778-0.065,3.922,0.648,6.233
		c0.997,3.191,2.81,6.699,4.82,10.005c2.476,4.04,5.252,7.778,7.247,10.239c0.399,0.48,0.764,0.93,1.079,1.313
		C689.236,716.028,678.05,722.295,667.031,728.759 M704.177,707.468c-0.449-0.513-0.998-1.13-1.579-1.826
		c-2.027-2.41-4.687-5.817-6.997-9.492c-1.927-3.057-3.606-6.298-4.504-9.259c-0.648-2.143-0.881-4.153-0.465-5.848
		c1.312-0.267,2.626-0.466,3.955-0.716c-0.249,1.961,0.397,4.354,1.545,6.881c1.33,2.976,3.358,6.132,5.47,9.026
		c2.625,3.571,5.4,6.746,7.162,8.593C707.235,705.707,705.705,706.587,704.177,707.468 M713.153,702.284
		c-0.134-0.134-0.283-0.284-0.433-0.434c-0.033-0.05-0.083-0.082-0.133-0.133c-1.86-1.894-4.57-4.818-7.081-8.061
		c-1.928-2.492-3.738-5.186-4.952-7.694c-1.147-2.394-1.745-4.638-1.38-6.433c1.746-0.267,3.507-0.5,5.253-0.716
		c-0.316,2.162,0.365,4.521,1.595,6.882c1.563,2.941,3.989,5.85,6.448,8.293c2.179,2.178,4.388,3.974,6.034,5.069
		C716.709,700.138,714.947,701.236,713.153,702.284 M722.824,696.449c-1.695-0.997-3.905-2.577-6.066-4.486
		c-2.31-2.061-4.553-4.489-6.049-6.997c-1.347-2.229-2.061-4.521-1.695-6.633c1.944-0.185,3.906-0.367,5.883-0.449
		c-0.017,0.914,0.05,1.745,0.151,2.542c0.247,2.194,0.847,3.974,1.743,5.452c1.363,2.261,3.375,3.855,5.833,5.221
		c2.128,0.979,4.175,1.628,5.055,2.425C726.082,694.521,724.454,695.468,722.824,696.449 M731.949,690.85
		c-0.798-0.434-2.193-0.799-3.74-1.28c-2.127-0.583-4.521-1.38-5.85-3.043c-0.665-0.681-1.163-1.514-1.363-2.525
		c1.463,0.632,2.677,0.797,3.773,0.864l0.647-0.051c0.749-0.114,1.829-0.182,3.392,0.433c1.495,0.449,3.157,1.512,5.419,4.154
		C733.478,689.902,732.698,690.366,731.949,690.85 M737.717,687.141c-0.798-1.263-1.694-2.175-2.659-2.858
		c-1.729-1.213-3.69-1.694-5.684-2.077c-1.496-0.065-2.927-0.017-5.153-1.063c-0.232-0.099-0.465-0.216-0.681-0.333
		c-1.547-0.63-2.977-1.611-4.138-3.29c0.962-0.433,2.01-0.964,3.123-1.563c3.209,0.035,5.403,0.617,7.163,1.514
		c2.046,1.048,3.509,2.543,5.204,4.188c1.362,1.313,2.874,2.691,5.001,4.021C739.163,686.162,738.448,686.66,737.717,687.141
		 M743.219,683.453c-2.212-0.833-3.873-2.029-5.387-3.292c-1.729-1.463-3.239-3.025-5.102-4.305
		c-1.612-1.098-3.475-1.979-5.965-2.36c1.677-0.881,3.089-1.444,4.286-1.762c2.345-0.614,3.922-0.281,5.137,0.564
		c0.564,0.233,1.063,0.532,1.462,0.93c0.648,0.649,1.029,1.498,1.461,2.462c0.102,0.233,0.217,0.483,0.334,0.73
		c1.063,1.697,2.227,3.441,4.139,4.471c0.664,0.351,1.412,0.617,2.277,0.782C744.982,682.272,744.099,682.854,743.219,683.453
		 M750.266,678.564c-10.238-0.497-5.468-8.425-15.125-10.62c1.879-1.328,3.773-2.674,5.651-4.071
		c10.421-0.565,6.115,8.292,17.334,9.059C755.219,675.025,752.51,676.972,750.266,678.564 M762.566,669.74
		c-12.648,0.432-8.313-7.58-17.353-9.159c0.863-0.662,1.745-1.312,2.593-1.976c2.559,0.864,7.545,2.241,9.573,2.476
		c2.926,1.079,4.604,5.568,8.658,6.183C764.891,668.078,763.729,668.911,762.566,669.74 M770.36,663.94
		c-9.456-1.165-9.107-8.161-19.329-7.83c3.723-5.136,15.655-4.17,16.254-1.678c0.915,2.077,4.92,5.668,7.646,5.618
		C773.402,661.43,771.739,662.826,770.36,663.94 M750.249,651.824c2.228-2.378,2.991-4.937,3.473-8.727l6.218,1.13
		C759.706,644.478,752.809,649.93,750.249,651.824 M778.919,655.979c-7.979,2.843-4.671-7.313-19.03-6.682
		c1.878-1.428,3.157-2.792,4.388-3.841c10.72-1.661,9.523,3.559,18.516,5.287C781.628,652.638,780.298,654.366,778.919,655.979
		 M785.567,645.425c-6.099,2.262-7.927-5.617-18.282-3.273c1.016-1.33,2.012-2.991,2.792-4.987
		c7.164-2.843,11.036,4.804,17.818,1.214C787.329,640.786,786.548,643.164,785.567,645.425 M751.512,609.341
		c-0.664-4.42-1.827-13.993-2.127-15.688c2.992,0.58,5.084,1.444,7.711,2.209c1.396,1.163,1.098,4.82,0.184,5.634
		C754.239,605.038,750.748,604.123,751.512,609.341 M751.779,610.654c-0.017-0.016-0.034-0.016-0.051-0.016
		c-0.05-0.285-0.1-0.649-0.166-1.032C751.613,609.939,751.678,610.272,751.779,610.654 M761.683,597.376
		c4.156,1.511,7.747,3.291,10.854,5.25c0.1,8.678-12.698-0.465-12.432,11.139c-1.763-0.833-3.476-1.498-4.938-1.996
		c-0.134-1.746,0.183-4.023,0.582-4.721C757.961,605.038,763.894,603.126,761.683,597.376 M765.008,621.657
		c-3.008-0.415-7.514-0.963-11.551-1.295c-0.267-1.58-0.599-3.441-0.947-5.438C760.072,617.418,763.494,619.845,765.008,621.657
		 M763.861,615.774c-1.313-10.537,11.052,0.364,11.551-11.186c1.846,1.396,3.491,2.843,4.92,4.369
		c-2.275,9.824-9.889,3.21-14.426,8.511C765.09,616.688,764.36,616.139,763.861,615.774 M781.229,615.54
		c0.349-0.281,1.963-1.794,2.477-2.344c1.979,2.961,3.357,6.102,4.173,9.294c-5.104,4.851-12.383-2.711-17.236,2.706
		c-0.48-1.71-1.445-3.639-2.409-4.986C771.673,616.29,776.576,619.364,781.229,615.54 M788.676,633.476
		c-6.434,4.785-11.252-3.809-17.735,0.681c0.3-1.329,0.383-2.044,0.416-3.907c3.74-7.228,11.303,0.732,17.235-4.055
		C788.891,628.622,788.908,631.063,788.676,633.476 M749.435,590.063c-0.249-0.051-0.88-9.541-1.431-12.898l43.514,1.313
		c3.074,16.137,6.864,37.129,8.026,46.187l-7.462-1.079C788.492,608.977,780.331,596.958,749.435,590.063 M840.348,638.045
		c-1.811,7.33-19.628,25.147-27.523,25.214c-7.594,0-12.698-11.685-6.632-16.688c-4.537-1.115-11.069-1.846-15.157-2.793
		c1.546-4.803,1.961-11.034,1.579-16.255l11.135,1.63c0.483-5.303-8.99-54.282-8.99-54.282l-51.075-1.696
		c0,0,4.753,40.289,6.466,50.825c4.37,0.085,13.029,1.248,16.188,1.697c1.895,4.92-0.532,11.999-3.357,15.555l-12.947-1.977
		c0.748,34.353-48.217-20.212-15.939-15.175c-1.529-11.334-6.216-46.936-6.216-46.936l20.126-19.63l46.972,1.497
		c-1.397-33.209,49.643,17.502,16.453,15.806c1.131,15.772,5.982,37.578,9.323,55.678
		C828.032,623.651,842.127,626.562,840.348,638.045"/>
	<path fill="#FFFFFF" d="M537.982,702.449c-7.821-1.943-15.433-4.803-22.629-8.477c-3.939-0.348-9.94-1.113-13.887-1.678
		c0.024-0.019,0.05-0.019,0.075-0.034c-1.297-0.2-4.172-0.649-4.688-0.747l0,0c-0.947-0.168-4.188-0.748-5.136-0.947
		c1.196,0.998,2.477,1.909,3.79,2.773c0,0,1.555,1.083,2.35,1.464c4.389,2.593,9.184,4.704,13.887,6.749
		c0.433,0.182,0.865,0.364,1.28,0.563c7.763,3.375,18.043,7.264,28.705,7.413c9.589,0.133,16.653-0.847,22.936-3.191
		c0.697-0.248,1.396-0.532,2.078-0.814c-1.031,0.034-2.046,0.067-3.059,0.067C554.992,705.591,546.382,704.526,537.982,702.449"/>
	<path fill="#FFFFFF" d="M562.439,695.901c-7.198,0-13.878-1.23-18.633-2.112l-0.506-0.097c-3.897,0.646-8.444,0.961-13.605,0.961
		c-3.156,0-6.547-0.116-10.154-0.362c6.05,2.808,12.366,5.05,18.814,6.663c10.571,2.625,21.473,3.572,32.409,2.841
		c5.318-2.441,10.289-5.366,14.843-8.742c2.244-1.661,4.404-3.374,6.232-5.385c-7.645,3.159-15.672,5.17-23.9,5.983
		C566.078,695.816,564.25,695.901,562.439,695.901"/>
	<path fill="#FFFFFF" d="M590.111,673.846c-0.315,0.248-1.495,1.13-3.19,2.293c-2.027,1.38-4.305,2.942-6.73,4.154
		c-0.118,0.067-0.233,0.118-0.365,0.184c2.475-0.813,4.902-1.729,7.278-2.758c1.662-0.731,3.308-1.529,4.92-2.378
		c1.861-0.98,3.689-2.026,5.468-3.141c-0.016-0.301-0.016-0.598-0.049-0.864l0,0c-0.101-1.13-0.317-2.062-0.649-2.824
		c-0.066-0.168-0.115-0.333-0.199-0.483c-0.1,0.084-0.183,0.183-0.282,0.266l-0.781,0.715c-0.365,0.364-0.731,0.682-1.113,1.047
		C593.07,671.352,591.69,672.682,590.111,673.846"/>
	<path fill="#FFFFFF" d="M523.148,670.155c-0.5-0.184-0.989-0.364-1.454-0.548c-0.017,0.282-0.041,0.681-0.092,1.162
		c-0.217,2.045-0.698,4.571-1.43,6.334c-0.142,0.349-0.308,0.697-0.482,1.045c-0.381,0.982-0.855,1.914-1.404,2.81
		c0.74,0.218,1.472,0.434,2.202,0.648c0.647,0.199,1.297,0.383,1.944,0.582c-0.189-3.507,0.781-7.677,2.461-11.485
		C524.327,670.539,523.746,670.355,523.148,670.155"/>
	<path fill="#FFFFFF" d="M498.401,659.951c-0.018-0.083-3.566,0.383-5.203,0.797c-3.075,0.781-5.942,2.511-6.716,2.977
		c0.416,0.779,0.948,1.627,1.613,2.508c1.388,1.83,2.884,3.141,4.113,4.039c0.125-0.664,0.358-1.645,0.84-2.758
		c0.382-0.897,1.429-2.792,2.825-4.638c0.199-0.25,0.399-0.516,0.615-0.782c0.29-0.414,0.531-0.73,0.664-0.88
		c0.399-0.466,0.815-0.863,1.215-1.229l0,0c0.008,0,0.016-0.02,0.016-0.02C498.39,659.966,498.401,659.966,498.401,659.951"/>
	<path fill="#FFFFFF" d="M589.845,664.354c-1.163,0.051-2.028,0.149-2.925,0.348c-0.432,0.103-0.781,0.22-1.03,0.285
		c0,0.017,0,0.033,0.016,0.033c0.766,0.781,1.529,2.76,1.613,2.94c0.033,0.085,0.747,1.713,0.964,3.59
		c1.18-0.813,2.144-1.544,2.892-2.127c0.947-0.763,1.496-1.229,3.091-2.641c0.683-0.583,0.849-0.798,1.197-1.083
		c-0.748-0.63-1.33-0.979-2.593-1.196C592.189,664.354,591.207,664.288,589.845,664.354"/>
	<path fill="#FFFFFF" d="M467.992,606.882c0-0.05,0.166-5.269,1.67-6.067c0.349-0.183,0.731-0.165,1.08,0.083
		c0.517,0.351,1.164,1.414,1.14,2.062c-0.009,0.316-0.042,0.699-0.059,1.131c-0.117,1.845-0.291,4.637-0.051,8.293
		c0.932,14.245,4.953,30.133,11.352,44.726c0.109,0.266,0.2,0.483,0.259,0.648c0.599,1.048,1.354,2.608,1.752,3.423
		c0.385-0.282,0.908-0.646,1.257-0.846c0.482-0.267,1.721-0.814,2.4-1.113c-4.711-10.589-7.13-28.837-7.761-37.13
		c-1.147-15.093-0.433-15.79-0.092-16.141c0.624-0.614,1.154-0.598,1.487-0.447c1.297,0.498,1.662,3.572,1.812,8.043
		c0.316,9.226,0.814,15.507,1.679,21.01c1.089,6.931,5.567,20.809,6.458,23.502c3.938-1.049,5.691-0.981,6.756-0.931
		c0.083,0,0.149,0,0.215,0l-0.124-0.583c-1.985-9.026-5.693-25.829-4.703-34.652c0.051-0.466,0.092-0.932,0.124-1.397
		c0.142-1.794,0.24-3.093,1.014-3.374c0.324-0.134,0.707-0.051,1.041,0.216c0.68,0.516,1.312,1.943,1.028,4.355
		c-0.789,6.599,2.935,25.794,5.252,34.818c0.207-0.083,0.407-0.182,0.765-0.399c0.606-0.398,2.651-1.827,3.624-4.103
		c0.324-0.767,0.324-1.114,0.331-2.312c0.009-0.365,0.009-0.814,0.018-1.362c-0.108-1.281-0.091-2.576,0.025-4.023
		c0.017-2.742,2.068-5.851,3.107-6.849c0.366-0.332,0.848-0.696,1.247-0.947c-1.381-5.268-2.775-11.365-2.959-17.301
		c-1.529,1.496-3.813,3.624-4.488,3.789c-1.179,0.266-2.243-0.466-2.949-1.064c-2.443-2.042-4.38-4.653-5.626-7.576
		c-0.73,0.532-1.653,0.813-2.625,0.83c-1.265-0.033-2.443-0.467-3.242-1.296c-0.772-0.798-1.18-1.83-1.495-2.744
		c-0.55-1.529-0.897-3.106-1.238-4.636c-0.274-1.213-0.558-2.477-0.923-3.691c-0.267,0.134-0.598,0.316-0.881,0.466
		c-2.061,1.098-2.824,1.446-3.323,1.247c-0.683-0.266-1.148-1.381-1.605-2.609l-0.124-0.315c-0.432-1.064-0.848-2.974-1.246-4.836
		c-0.183-0.883-0.366-1.729-0.532-2.361c-4.745,4.556-8.311,5.949-10.496,6.301c-0.059,0.016-5.095,0.747-5.759-0.219
		c-0.148-0.198-0.148-0.465-0.016-0.681c0.68-1.163,1.104-2.011,1.362-2.609c-1.621,1.279-4.354,2.645-8.916,1.213
		c-0.674-0.215-1.156-0.431-1.464-0.681c-0.623,0.565-1.753,1.479-2.685,1.764c-2.551,0.796-4.153,0.713-4.903-0.2
		c-0.447-0.565-0.465-1.313-0.332-2.013l-2.227,1.763c1.039,8.343,2.593,16.653,4.604,24.699c2.226,8.874,4.42,15.124,5.534,18.05
		c1.304,3.454,3.091,8.192,6.29,14.042c1.952,3.59,4.164,7.082,6.558,10.406c0.847-1.662,2.576-5.104,3.023-6.019
		c-1.246-2.574-12.381-26.158-13.179-50.907c-0.166-2.644-0.383-8.941,1.246-9.641c0.108-0.051,0.232-0.082,0.383-0.082
		c0.3,0,0.655,0.133,1.063,0.547l0.101,0.15c0.382,0.863,0.398,1.396,0.407,2.677c0.024,2.194,0.058,6.779,2.012,19.811
		c1.437,9.59,4.736,20.576,10.388,34.556c0.373,0.979,1.62,4.138,3,6.265c0.331,0.516,1.961,2.977,3.49,4.337
		c1.097-1.76,2.227-3.406,3.672-4.653C478.821,657.392,468.532,636.066,467.992,606.882"/>
	<path fill="#FFFFFF" d="M634.454,597.376c0.033,0.431-0.051,0.864-0.316,1.229c-0.682,0.93-2.276,1.13-4.919,0.565
		c-0.914-0.183-2.426-1.115-3.357-1.729c-0.084,0.247-0.266,0.548-0.581,0.863c-0.899,0.865-3.59,1.246-6.383,0.314
		c-0.998-0.314-1.945-0.797-2.81-1.395c0.315,0.647,0.781,1.496,1.429,2.592c0.134,0.216,0.134,0.482-0.016,0.681
		c-0.665,0.966-5.7,0.234-5.751,0.219c-4.77-0.767-8.742-4.471-10.654-6.267c-0.114-0.116-0.231-0.233-0.348-0.333
		c-0.166,2.044-0.697,5.45-1.263,7.43c0,0.034-0.731,2.608-1.745,2.991c-0.482,0.184-1.263-0.149-3.324-1.247
		c-0.283-0.149-0.616-0.332-0.882-0.466c-0.366,1.215-0.647,2.479-0.913,3.691c-0.35,1.529-0.699,3.125-1.247,4.636
		c-0.315,0.914-0.732,1.946-1.497,2.744c-0.797,0.829-1.943,1.296-3.19,1.296h-0.049c-0.965,0-1.896-0.298-2.627-0.83
		c-1.246,2.923-3.174,5.534-5.617,7.576c-0.715,0.599-1.778,1.348-2.958,1.064c-0.666-0.165-2.943-2.276-4.472-3.771
		c-0.017,2.16-0.083,3.923-0.397,5.602c-0.981,5.566-2.013,8.908-2.826,11.201c0.465,0.298,0.748,0.548,0.764,0.548
		c0.466,0.399,0.799,0.814,0.965,1.014c0.333,0.434,1.363,1.928,1.812,3.058c0.714,1.729,1.079,3.559,1.212,5.918
		c0.067,1.313,0.067,2.229,0.067,2.875c0,1.197,0.017,1.547,0.331,2.295c0.532,1.245,1.314,2.093,2.112,2.792l0.714-2.479
		c2.843-9.887,7.148-24.848,6.649-30.363c-0.233-2.478,0.398-3.891,1.063-4.389c0.315-0.233,0.681-0.3,0.996-0.183
		c0.633,0.231,1.064,1.146,1.147,4.818c0.117,6.134-4.271,21.856-6.88,31.247c-0.333,1.181-0.648,2.294-0.916,3.258
		c0.284,0.132,0.649,0.316,1.115,0.582c0.997,0.548,2.857,1.596,4.604,3.59c0.382,0.432,0.798,1.049,1.18,1.597v0.017l0.383-0.051
		c3.092-5.899,8.293-23.567,9.107-27.641c1.08-5.316,1.363-11.766,1.68-20.991c0.148-4.471,0.514-7.545,1.811-8.043
		c0.333-0.15,0.864-0.167,1.479,0.447c0.351,0.351,1.063,1.048-0.082,16.141l-0.117,1.61c-0.514,7.296-1.08,15.574-10.203,38.177
		c0.531-0.033,0.979-0.033,1.428-0.033c2.244,0,3.989,0.184,5.286,0.55c5.734-16.255,12.065-37.777,12.863-50.012
		c0.233-3.656,0.067-6.448-0.05-8.293c-0.016-0.432-0.049-0.814-0.049-1.131c-0.033-0.647,0.614-1.711,1.13-2.062
		c0.349-0.23,0.731-0.266,1.08-0.083c1.495,0.782,1.679,6.018,1.679,6.067c-0.365,19.379-6.93,38.012-11.734,51.622
		c-0.714,2.012-1.379,3.907-1.977,5.667c0.248,0.285,0.414,0.501,0.414,0.501c0.133,0.165,0.266,0.383,0.383,0.613
		c1.646-0.813,4.171-2.377,5.635-3.605c1.977-1.663,2.991-3.489,3.656-4.904c7.013-14.857,10.139-33.805,10.172-33.988
		c1.047-6.548,1.928-16.536,1.978-18.382c0.017-0.583,0.017-1.049,0.033-1.429c0-1.281,0.017-1.813,0.399-2.677l0.099-0.15
		c0.615-0.63,1.131-0.614,1.446-0.465c1.629,0.699,1.412,6.997,1.247,9.673c-0.797,24.748-11.95,48.367-13.18,50.894
		c0.199,0.381,0.646,0.913,1.063,1.413c0.281,0.332,0.565,0.68,0.831,1.013c0.498,0.649,1.03,1.346,1.363,1.761
		c1.761-1.611,5.584-7.295,6.332-8.593c2.926-5.102,4.554-9.438,5.867-12.912l0.415-1.13c1.13-2.961,3.323-9.226,5.535-18.05
		c1.163-4.622,3.289-13.997,4.719-25.363c-0.532-0.133-1.063-0.317-1.545-0.566C634.969,597.689,634.703,597.541,634.454,597.376"/>
	<path fill="#FFFFFF" d="M487.339,679.081c1.52,0.614,5.194,1.611,6.78,2.028c3.324,0.83,6.707,1.495,10.097,2.027
		c0.242,0.034,0.482,0.082,0.731,0.116c0.641,0.117,1.289,0.2,1.928,0.281c0.648,0.103,1.297,0.2,1.945,0.283
		c1.163,0.15,2.344,0.284,3.523,0.418c3.989,0.446,8.012,0.777,12.034,0.978c-2.444-0.58-4.954-1.229-7.729-1.976
		c-0.033,0.047-0.282-0.019-0.664-0.168c-0.599-0.165-1.248-0.332-1.903-0.516c-0.092-0.031-0.175-0.048-0.258-0.082
		c-0.35-0.1-0.698-0.184-1.063-0.299c-0.084-0.019-0.15-0.033-0.232-0.065c-0.633-0.184-1.28-0.367-1.962-0.583
		c-0.282-0.082-0.565-0.167-0.847-0.266c-0.258-0.066-0.532-0.149-0.782-0.234c-0.332-0.114-0.657-0.216-0.997-0.332
		c-0.249-0.082-0.515-0.166-0.781-0.247c-0.366-0.134-0.74-0.25-1.113-0.383c-0.25-0.083-0.499-0.168-0.756-0.267
		c-0.433-0.149-0.873-0.301-1.306-0.466c-0.233-0.082-0.448-0.148-0.664-0.233c-0.674-0.248-1.363-0.515-2.061-0.779
		c-0.109-0.051-0.225-0.101-0.333-0.134c-0.066-0.035-0.125-0.05-0.183-0.084c-0.009,0-0.017,0.019-0.017,0.019l-0.283-0.117
		c0,0,0.008,0,0.018-0.018c-0.084-0.018-0.166-0.049-0.242-0.081c-0.224-0.102-0.44-0.184-0.655-0.267
		c-1.813-0.75-3.731-1.63-5.677-2.76c-0.923-0.449-1.62-0.914-2.236-1.397c-0.723-0.48-1.445-0.996-2.151-1.56
		c-0.433-0.334-0.831-0.684-1.214-1.017c-0.448-0.398-0.855-0.797-1.246-1.196c-1.163-1.194-2.07-2.41-2.767-3.739
		c-0.35,0.966-0.698,1.946-1.022,2.944c-0.656,2.01-1.189,4.053-1.289,6.181c-0.015,0.3-0.158,0.832,0.018,1.082
		C482.502,676.886,486.242,678.649,487.339,679.081"/>
	<path fill="#FFFFFF" d="M554.361,688.705c0.349-0.167,0.697-0.366,1.046-0.566c-3.008,0.281-9.29,0.532-18.414-0.599
		c-1.272-0.165-2.469-0.332-3.641-0.515c-0.099,0-0.207-0.017-0.314-0.017c-6.25-0.033-12.898-0.415-19.33-1.079
		c-1.446-0.1-1.945-0.2-3.241-0.35c-0.682-0.083-1.355-0.168-2.027-0.249c-3.142-0.432-6.267-0.916-9.374-1.529
		c-1.579-0.317-3.184-0.649-4.787-1.03c0.009,0.017,0.009,0.032,0.009,0.032c-2.317-0.599-6.698-1.878-8.834-2.858
		c-0.632-0.282-2.044-0.947-3.458-1.862c0.117,0.665,0.3,1.33,0.574,1.944c0.033,0.065,0.075,0.168,0.133,0.3
		c0.516,1.131,1.181,2.161,1.505,2.66c0.614,0.946,0.996,1.529,1.645,2.293c0.134,0.15,0.689,0.797,1.537,1.579
		c0.791,0.731,1.514,1.279,2.111,1.694c1.337,0.284,4.429,0.898,6.042,1.197l-0.018-0.018c1.695,0.317,6.301,1.032,8.41,1.365
		c0.009-0.019,0.017-0.019,0.033-0.019c3.216,0.417,8.477,1.099,11.685,1.38c11.219,0.966,20.478,0.865,27.54-0.297
		c3.042-0.501,5.386-1.166,7.297-1.831C552.051,689.785,553.315,689.219,554.361,688.705"/>
	<path fill="#FFFFFF" d="M587.735,679.115c-5.053,2.21-10.338,3.904-15.757,5.053c-0.033,0.016-0.05,0.016-0.084,0.032
		c-0.829,0.349-1.692,0.681-2.542,0.996l0.033,0.035l-0.349,0.083c-1.063,0.382-2.161,0.731-3.241,1.048
		c-0.598,0.164-1.18,0.329-1.778,0.463c-1.794,0.433-3.391,0.699-4.787,0.898c-1.362,0.849-2.741,1.646-4.172,2.358
		c-0.282,0.134-0.565,0.267-0.88,0.418c-1.679,0.779-3.84,1.628-6.799,2.375c5.618,0.982,12.947,1.978,20.395,1.247
		c9.008-0.88,17.75-3.241,25.993-6.981c0.915-1.376,1.695-2.891,2.245-4.618c0.697-2.229,1.362-5.504,1.479-8.512
		c-1.812,1.1-3.656,2.128-5.551,3.093C590.56,677.817,589.147,678.498,587.735,679.115"/>
	<path fill="#FFFFFF" d="M557.618,685.28c1.729-0.216,3.573-0.482,5.783-1.014c0.449-0.099,0.915-0.231,1.362-0.349
		c-1.212-1.181-2.342-2.843-4.271-6.184c-0.997-1.744-1.479-3.872-1.662-6c-0.366,0.134-0.88,0.364-1.679,0.481
		c-0.166,0.018-0.415,0.052-0.664,0.103c0.73,1.743,1.263,3.655,1.496,5.83c0.232,2.195-0.033,4.29-0.268,6.302
		C557.685,684.732,557.652,684.997,557.618,685.28"/>
	<path fill="#FFFFFF" d="M478.912,589.863c0.39-0.5,0.415-0.614,0.59-1.514c0.1-0.548,0.25-1.361,0.564-2.659
		c2.194-8.793,6.648-13.96,8.593-15.888c-4.438-0.998-5.975-4.406-5.933-7.729c-0.308,0.266-0.615,0.548-0.813,0.713
		c-3.882,3.474-7.382,13.846-8.827,19.413l-0.009,0.017c-0.788,3.556-2.302,6.599-4.221,10.454
		c-0.749,1.514-1.587,3.208-2.484,5.104C468.259,597.557,474.267,595.679,478.912,589.863"/>
	<path fill="#FFFFFF" d="M490.738,604.354l0.224,0.782c1.089,3.755,1.089,3.755,1.106,3.856c0.274,1.58,0.998,2.311,1.594,2.476
		c0.226-0.051,1.456-1.115,2.594-3.341v-0.017c1.073-1.927,8.858-17.284,10.654-21.439c-0.94-0.3-1.846-0.681-2.992-1.248
		c-1.363-0.68-2.376-1.396-3.448-2.143c-0.199-0.134-0.406-0.282-0.615-0.415c-1.047,2.108-2.152,4.235-3.316,6.297
		c-2.061,3.674-4.304,7.282-6.696,10.722c-0.06,0.081-0.135,0.183-0.233,0.299l1.088,4.021l-0.456,0.282L490.738,604.354z"/>
	<path fill="#FFFFFF" d="M503.569,619.279c0.765-0.148,3.573-2.676,4.803-4.303c0.657-4.255,2.525-12.699,4.529-17.717
		c1.038-2.594,2.368-5.203,3.407-7.081l-0.157-0.05c-1.015-0.3-2.179-0.633-3.185-1.031c-0.605-0.249-1.079-0.398-1.502-0.548
		c-0.491-0.149-0.932-0.299-1.464-0.548c-1.03,2.177-4.387,9.605-5.376,11.999c-0.383,0.931-1.687,3.605-2.959,6.184
		c-1.171,2.375-2.368,4.835-2.784,5.801l0.008,0.032C499.746,614.844,501.324,617.285,503.569,619.279"/>
	<path fill="#FFFFFF" d="M483.74,600.765c0.349-0.166,1.206-0.931,1.545-1.229c0.183-0.165,0.349-0.316,0.458-0.398
		c0.939-0.731,1.736-1.846,2.509-2.909c0.191-0.267,0.374-0.514,0.558-0.764c2.194-2.941,3.98-6.215,5.709-9.375l0.955-1.712
		c0.183-0.314,0.382-0.666,0.532-0.997c0.05-0.115,0.282-0.532,1.678-2.825c-1.652-1.845-4.952-7.146-5.899-9.688
		c-0.905,0.282-1.812,1.561-2.376,2.374l-0.232,0.317c-1.048,1.463-2.095,3.109-3.2,5.037c-1.637,2.875-2.501,6.048-3.066,8.491
		l-0.142,0.6c-0.573,2.476-0.922,3.954-0.532,6.548C482.834,598.056,483.417,600.233,483.74,600.765"/>
	<path fill="#FFFFFF" d="M459.656,595.747c1.629-0.399,4.695-1.78,7.031-6.599l0.142-0.3c0.673-1.363,1.579-3.241,2.95-7.031
		c0.714-1.943,1.28-3.672,1.811-5.252c1.105-3.325,2.062-6.215,3.807-9.707c0.433-0.864,0.99-1.91,1.812-3.156
		c1.205-1.813,2.625-3.49,4.239-4.987c-3.708-0.88-5.253-3.606-5.719-5.201c-0.273,0.281-0.531,0.598-0.697,0.797
		c-1.979,2.46-8.609,11.151-10.721,20.428c-0.274,1.378-0.831,3.838-1.313,6c-0.383,1.71-0.738,3.258-0.882,3.971
		c-0.646,3.343-1.412,6.284-4.686,11.138C457.829,595.929,458.611,595.996,459.656,595.747"/>
	<path fill="#FFFFFF" d="M463.938,565.248c3.032-6.897,9.356-14.758,10.728-16.421c-0.398-0.516-1.155-1.463-1.503-1.979
		c-0.467-0.681-0.657-1.562-0.807-2.261c-0.033-0.165-0.084-0.364-0.125-0.53c-1.646,1.41-7.887,10.187-11.311,17.052
		c-3.797,7.629-6.531,19.247-7.546,23.885c-0.298,1.428-1.179,5.167-1.471,5.999c-0.507,1.428-1.388,3.224-2.036,4.537
		c-0.148,0.316-0.316,0.648-0.448,0.947c5.169-1.248,8.277-5.17,9.24-11.703c0.217-1.427,1.829-9.007,2.178-10.603
		C461.411,571.133,462.483,568.555,463.938,565.248"/>
	<path fill="#FFFFFF" d="M600.3,588.766c0.165,0.914,0.198,1.081,0.631,1.613c5.103,6.414,11.7,8.042,13.098,8.042h0.049
		c-0.946-2.061-1.845-3.872-2.659-5.483c-1.91-3.84-3.406-6.88-4.205-10.403v-0.02c-0.399-1.545-4.072-15.206-8.908-19.544
		c-0.268-0.231-0.863-0.747-1.28-1.115c0.15,2.263-0.232,7.114-6.183,8.163c1.695,1.578,6.565,6.797,8.876,16.105
		C600.051,587.42,600.198,588.233,600.3,588.766"/>
	<path fill="#FFFFFF" d="M621.157,596.512c1.015,0.115,1.663-0.051,1.863-0.167c-3.408-4.952-4.189-7.93-4.839-11.303
		c-0.147-0.731-0.498-2.309-0.88-3.987c-0.482-2.161-1.048-4.622-1.313-6.018c-2.126-9.309-8.792-18.051-10.77-20.51
		c-0.232-0.283-0.647-0.765-1.047-1.147c-0.25,1.397-1.746,4.771-6.117,5.569c1.745,1.562,3.274,3.34,4.571,5.269
		c0.814,1.229,1.362,2.277,1.795,3.142c1.729,3.473,2.693,6.348,3.79,9.656c0.547,1.628,1.097,3.307,1.811,5.269
		c1.381,3.789,2.294,5.683,2.959,7.047l0.15,0.316C615.889,595.331,619.661,596.345,621.157,596.512"/>
	<path fill="#FFFFFF" d="M631.364,596.877c0.184,0,0.383-0.017,0.565-0.032c0.016,0,0.032,0,0.032,0
		c-0.066-0.467-0.813-2.162-3.273-6.035c-0.432-0.696-1.713-4.42-2.061-6.035c-1.016-4.651-3.758-16.302-7.58-23.948
		c-2.277-4.603-5.668-10.688-11.585-17.036c-0.216,1.397-0.466,2.344-0.78,2.809c-0.681,1.099-1.33,1.546-1.711,1.811
		c-0.1,0.067-0.2,0.152-0.268,0.199c0.898,1.084,7.696,9.36,10.87,16.573c1.445,3.291,2.509,5.85,3.075,8.892
		c0.116,0.498,0.332,1.628,0.582,2.959c0.532,2.808,1.245,6.679,1.596,7.563C623.851,592.554,627.573,596.877,631.364,596.877"/>
	<path fill="#FFFFFF" d="M592.105,597.49c1.098,1.414,2.411,2.675,3.856,3.739c0.15,0.102,0.267,0.184,0.383,0.184h0.016
		c0.101,0,0.166-0.099,0.268-0.349l0.016-0.05c0.434-0.963,0.632-2.043,0.832-3.091l0.082-0.383c0.184-0.88,0.349-1.827,0.498-2.891
		c0.415-2.643,0.033-4.239-0.531-6.648l-0.133-0.599c-0.582-2.46-1.445-5.667-3.107-8.561c-1.098-1.945-2.146-3.591-3.191-5.054
		l-0.233-0.332c-0.647-0.896-1.679-2.375-2.758-2.524c-0.847,2.609-3.807,7.944-6.052,9.971c1.713,2.827,1.746,2.926,1.764,2.976
		c0.132,0.316,0.349,0.665,0.548,1.014c0.083,0.149,0.166,0.3,0.248,0.449l0.683,1.247c1.131,2.061,2.294,4.188,3.573,6.215
		c0.632,0.998,1.164,1.796,1.678,2.527c0.2,0.25,0.384,0.516,0.565,0.781C591.424,596.577,591.757,597.044,592.105,597.49"/>
	<path fill="#FFFFFF" d="M586.571,611.552c0.034,0,0.067,0,0.083,0c1.298-0.365,1.546-0.932,2.045-2.31
		c0.448-1.212,0.83-2.459,1.164-3.707c0.032-0.116,0.065-0.25,0.081-0.382c0.233-0.913,0.417-1.844,0.583-2.758
		c0.049-0.169,0.083-0.302,0.115-0.467c0.101-0.366,0.3-1.13,0.15-1.313l-0.083-0.117c-0.116-0.149-0.216-0.281-0.299-0.398
		c-2.378-3.423-4.638-7.013-6.682-10.67c-1.196-2.16-2.359-4.37-3.44-6.582c-0.282,0.2-0.582,0.399-0.863,0.599
		c-1.064,0.749-2.062,1.446-3.408,2.111c-1.247,0.633-2.211,1.031-3.225,1.329c1.563,3.74,9.674,19.763,10.771,21.724
		C584.593,610.654,586.073,611.552,586.571,611.552"/>
	<path fill="#FFFFFF" d="M570.167,588.033c-1.381,0.649-4.72,1.695-6.814,2.346c1.046,1.909,2.46,4.636,3.539,7.346
		c2.36,5.899,3.657,11.417,3.856,16.404c1.313,1.778,5.053,5.451,5.685,5.334c4.171-4.322,4.752-6.281,4.985-7.028
		c0.017-0.035,0.017-0.067,0.033-0.102c-0.398-0.915-1.627-3.441-2.842-5.883c-1.264-2.576-2.575-5.253-2.941-6.167
		C574.62,597.774,571.031,589.847,570.167,588.033"/>
	<path fill="#FFFFFF" d="M632.045,570.449c-0.365-1.014-0.715-2.043-1.081-3.09c-0.066-0.168-0.149-0.399-0.266-0.665
		c-0.116-0.282-0.249-0.615-0.399-0.998c-5.435-14.36-13.896-24.55-15.058-25.695c-1.047,0.366-2.161,0.599-3.274,0.698
		c-1.082,0.083-2.161,0.049-3.225-0.1c0.433,0.566,1.03,1.364,1.729,2.311c3.474,4.604,9.292,12.301,10.936,16.021
		c2.112,4.739,4.405,10.455,7.348,23.569c1.43,6.283,5.102,11.65,8.442,12.299c0.084-0.366,0.084-1.712-0.598-6.449
		C635.334,579.659,633.672,574.97,632.045,570.449"/>
	<path fill="#FFFFFF" d="M539.916,560.943c-1.097-1.497-3.115-1.681-3.497-1.711c-3.309-0.317-5.76,2.509-6.566,3.441
		c-0.557,0.646-1.288,1.66-1.819,3.038c-0.64,1.696-0.656,3.126-0.656,3.873c-0.025,11.603,0.821,16.653,0.821,16.653
		c0.318,1.896,1.098,6.249,2.719,11.651c0,0,1.688,6.233,5.386,11.036c0.854,1.114,3.041,3.157,3.931,2.742
		c-1.912-4.255-2.926-7.743-3.133-8.244c-0.441-1.08-2.602-7.977-2.967-13.678c-0.575-8.776,0.781-18.914-0.133-26.127
		c0.074-0.082,0.214-0.2,0.382-0.184c1.03,0.017,1.313,3.391,1.413,5.718c0.232,5.218-0.025,9.223-0.217,11.502
		c-0.465,5.783-0.248,8.078,0.166,10.968c1.105,7.813,5.285,19.348,5.635,19.58c0.141,0.101,0.184-1.096,0.315-2.227
		c0,0-0.1-2.029-0.1-2.693c-0.032-6.299-0.781-15.807-0.781-15.807c-0.008-7.246-0.257-12.049-0.133-19.246
		C540.715,569.536,540.649,561.956,539.916,560.943"/>
	<path fill="#FFFFFF" d="M450.732,582.6c2.959-13.13,5.353-19.081,7.379-23.602c1.662-3.74,7.314-11.27,10.688-15.771
		c0.599-0.798,1.131-1.497,1.529-2.045l-5.717-0.747c-1.313,1.346-9.64,11.566-14.925,25.512c-0.143,0.381-0.283,0.713-0.399,0.998
		c-0.101,0.265-0.2,0.497-0.249,0.664c-0.366,1.046-0.731,2.077-1.097,3.091c-1.614,4.521-3.284,9.189-4.538,17.851
		c-0.565,3.973-0.666,5.519-0.633,6.101C445.946,593.802,449.369,588.632,450.732,582.6"/>
	<path fill="#FFFFFF" d="M555.307,678.814c-0.581-5.651-3.521-9.54-6.729-13.345c-0.615-0.748-1.114-1.397-1.53-2.029
		c-1.86-2.859-2.742-5.914-2.492-8.594c0.115-1.195,0.465-2.292,0.781-3.255c0.73-2.279,0.681-2.96,0.647-3.523l-0.017-0.218
		c-0.083-1.596-0.665-2.81-0.881-3.274c-0.315-0.648-0.664-1.229-1.063-1.71c-0.232-0.301-0.39-0.25-0.849-0.101
		c-0.174,0.066-0.365,0.133-0.58,0.167c-1.008,0.197-2.046,0.248-3.092,0.115c-0.184-0.017-0.466-0.049-0.764-0.099
		c-0.533-0.067-1.149-0.149-1.464-0.184c-0.018,0-0.032,0-0.032,0c-0.516,0-1.413,1.229-1.713,1.627
		c-0.083,0.117-0.142,0.2-0.184,0.25c-0.266,0.317-0.49,0.782-0.705,1.231c-0.092,0.199-0.191,0.399-0.291,0.58
		c-1.09,2.013-0.832,4.024-0.399,5.885c0.184,0.764,0.383,1.628,0.499,2.593c0.05,0.381,0.1,0.748,0.149,1.112
		c0.433,3.125,0.747,5.386-2.478,8.229c-4.569,4.055-6.531,9.156-7.213,18.813c2.827,0.649,5.901,1.197,9.149,1.631
		c1.472-1.846,2.403-6.766,1.422-11.069c-0.017-0.05-0.756-4.438,0.034-4.704c0.364-0.116,0.597,0.398,0.723,0.665
		c2.252,5.069,2.534,10.686,0.781,15.457l0.124,0.017c0.033,0,2.526,0.315,5.9,0.531c0.099,0.018,0.208,0.018,0.315,0.034
		c-1.695-4.92-1.214-10.638,1.313-15.741c0.134-0.266,0.383-0.779,0.749-0.631c0.78,0.282-0.133,4.654-0.15,4.688
		c-1.196,4.355-0.979,7.246,0.897,11.833c3.406,0.135,6.366,0.102,8.759-0.116l0.017-0.066c0.034-0.349,0.067-0.697,0.116-1.029
		C555.291,682.604,555.507,680.742,555.307,678.814 M536.86,649.513c-0.283,0.75-0.881,1.281-1.114,1.431
		c-0.041,0.016-0.082,0.031-0.133,0.031c-0.092,0-0.183-0.048-0.233-0.132c-0.065-0.114-0.033-0.283,0.101-0.349
		c0.034-0.032,0.116-0.083,0.207-0.165c0.209-0.218,0.509-0.551,0.675-0.998c0.058-0.151,0.1-0.284,0.148-0.434
		c-0.148,0.134-0.365,0.268-0.632,0.384c-0.24,0.099-0.532,0.165-0.897,0.199c-0.04,0-0.082,0-0.133,0
		c-0.148-0.017-0.291-0.101-0.391-0.216c-0.374-0.448-0.515-0.931-0.44-1.396c0.15-0.899,1.063-1.481,1.662-1.862
		c0.267-0.167,0.605-0.101,0.797,0.133c0.067,0.017,0.135,0.049,0.175,0.115C537.441,647.518,537.216,648.566,536.86,649.513
		 M543.06,649.579c0.165,0.449,0.464,0.781,0.68,0.98c0.084,0.084,0.158,0.149,0.2,0.169c0.133,0.081,0.166,0.246,0.1,0.363
		c-0.05,0.083-0.142,0.134-0.233,0.134c-0.049,0-0.092-0.017-0.132-0.032c-0.24-0.151-0.831-0.683-1.113-1.432
		c-0.358-0.945-0.583-1.994,0.207-3.273c0.041-0.066,0.108-0.101,0.174-0.116c0.191-0.232,0.532-0.299,0.798-0.134
		c0.599,0.399,1.514,0.981,1.662,1.862c0.084,0.481-0.065,0.946-0.432,1.396c-0.101,0.134-0.249,0.2-0.398,0.216
		c-0.05,0.019-0.083,0.019-0.133,0.019c-0.366-0.034-0.658-0.117-0.898-0.218c-0.267-0.099-0.473-0.231-0.632-0.365
		C542.958,649.281,543,649.43,543.06,649.579"/>
	<path fill="#FFFFFF" d="M526.92,553.862c0,0,1.015,0.798,1.944,0.815c0.116,0.016,0.232-0.018,0.232-0.018
		c0.084,0,0.165-0.032,0.25-0.066c-2.194-1.495-3.923-4.122-3.772-6.83c0.082-1.662,1.313-2.843,2.095-4.205
		c0.364-0.632,0.64-1.298,0.647-2.079c0-0.447-0.367-0.697-0.725-0.697c-0.331,0-0.655,0.2-0.655,0.63
		c-0.009,0.617-0.242,1.165-0.548,1.682c-0.333,0.532-0.74,1.029-1.08,1.529c-0.815,1.196-1.214,2.491-1.098,3.938
		c0.024,0.247,0.066,0.465,0.101,0.697c0.199,1.213,0.632,2.111,0.938,2.643C525.889,553.016,526.628,553.63,526.92,553.862"/>
	<path fill="#FFFFFF" d="M521.22,635.983c0.797,0.282,1.529,0.665,2.136,1.197c1.203-1.745,5.559-8.062,6.291-9.457
		C527.369,629.468,523.314,633.94,521.22,635.983"/>
	<path fill="#FFFFFF" d="M525.009,639.989c0.98-0.646,6.756-9.838,6.756-9.838c-1.786,1.179-6.142,5.434-7.953,7.479
		c0.267,0.298,0.5,0.614,0.682,0.962C524.743,639.058,524.9,639.523,525.009,639.989"/>
	<path fill="#FFFFFF" d="M541.564,639.94l0.148-0.019c0.849-0.065,1.388-0.215,1.637-0.298c-0.256-1.496-1.886-8.276-2.65-10.238
		c-0.624,1.928-1.688,8.561-1.854,10.354c0.392,0.084,1.38,0.182,2.253,0.182L541.564,639.94z"/>
	<path fill="#FFFFFF" d="M550.754,629.701c0,0,3.806,7.331,5.385,9.689c0.184-0.446,0.383-0.864,0.549-1.179
		c0.166-0.316,0.382-0.582,0.581-0.849c-0.282-0.5-0.665-1.164-1.097-1.912C554.327,633.242,551.95,630.634,550.754,629.701"/>
	<path fill="#FFFFFF" d="M558.133,636.532c0.564-0.466,1.23-0.799,1.945-1.014c-2.027-2.41-5.119-6.349-7.014-8.062
		c0.515,1.214,3.323,6.152,4.818,8.761C557.967,636.332,558.051,636.434,558.133,636.532"/>
	<path fill="#FFFFFF" d="M562.422,588.002l1.33-0.565c0,0,4.736-1.68,6.265-2.328c2.21-0.913,6.366-2.974,8.377-4.569
		c5.335-4.224,6.964-10.204,8.542-12.101c5.485-0.349,7.713-3.042,8.061-5.801c0.217-1.646-1.527-5.452-1.046-5.584
		c0,0,6.083-1.347,7.446-3.424c2.011-3.058,0.881-6.98,0.881-6.98c0.082,0,5.351-1.979,2.26-9.673
		c0.633,1.546,12.466,0.298,12.2-0.499c-0.782-2.194-3.906-4.922-7.063-6.846c-3.99-2.445-8.561-2.926-11.485-2.594
		c-3.225,0.381-6.416,0.713-9.456,1.91c-4.456,1.778-6.815,5.037-7.896,9.591c-1.229,5.087-1.229,10.354-1.812,15.558
		c-0.73,6.563-2.609,12.829-7.745,17.334c-4.138,3.641-9.605,6.531-15.093,7.497C558.332,581.188,562.422,588.002,562.422,588.002"
		/>
	<path fill="#FFFFFF" d="M475.547,536.977c-3.092,7.694,2.185,9.673,2.26,9.673c0,0-1.131,3.923,0.881,6.98
		c1.362,2.077,7.445,3.424,7.445,3.424c0.483,0.132-1.263,3.938-1.047,5.584c0.349,2.759,2.576,5.452,8.061,5.801
		c1.579,1.896,3.199,7.877,8.544,12.101c2.012,1.596,6.166,3.656,8.376,4.569c1.538,0.648,6.267,2.328,6.267,2.328l1.329,0.565
		c0,0,4.097-6.814,6.24-9.074c-5.657-0.998-15.199-5.553-19.354-12.468c-4.155-7.976-4.619-17.852-4.645-18.265
		c-0.407-6.932-1.504-12.498-1.721-13.063c-2.842-7.264-13.446-7.762-16.288-8.094c-2.917-0.332-7.497,0.148-11.485,2.594
		c-3.158,1.924-6.282,4.651-7.064,6.846C463.081,537.274,474.923,538.522,475.547,536.977"/>
	<path fill="#FFFFFF" d="M583.678,665.235c-0.016-0.031-0.947-1.694-2.061-2.907c-1.645-1.747-3.772-2.909-5.483-3.824
		c-0.466-0.266-0.898-0.497-1.28-0.713c-0.799-0.483-1.813-1.082-2.709-2.146c-1.763-2.077-1.943-4.651-2.095-6.712
		c-0.033-0.566-0.065-1.114-0.082-1.646c-0.051-1.314-0.101-2.543-0.416-3.94c-0.399-1.695-1.063-3.092-1.995-4.121
		c-1.164-1.313-2.708-1.978-4.587-1.978c-0.065,0-0.133,0.015-0.216,0.015l-0.117,0.02c-0.349,0.031-0.697,0.098-1.029,0.198
		c-0.599,0.199-1.197,0.498-1.78,0.912c-0.114,0.085-0.247,0.185-0.347,0.267c-0.101,0.085-0.184,0.167-0.268,0.233l-0.065,0.067
		c-0.233,0.215-0.433,0.414-0.583,0.614c-0.147,0.166-0.232,0.301-0.299,0.434c-0.232,0.331-0.383,0.631-0.481,0.896
		c-0.365,1.099-0.166,2.112,0.066,3.29l0.049,0.251c0.399,2.01,1.996,4.521,2.145,4.721c0.832,1.079,1.696,2.193,2.244,3.488
		c0.765,1.846,0.931,3.79,0.499,5.635c-0.481,2.077-0.832,4.322-1.146,6.301c-0.134,0.814-0.25,1.596-0.365,2.309
		c-0.351,2.061-0.151,4.488,0.548,7.048c0.149,0.516,0.564,1.861,1.263,3.175c1.197,2.242,2.643,4.205,4.288,5.816
		c1.463-0.498,3.059-1.131,4.837-1.912c2.011-0.88,3.905-1.795,5.667-2.676c-0.415-0.383-0.931-0.864-1.462-1.429l-0.134-0.132
		c-1.529-1.597-3.273-3.391-4.771-6.233c-2.309-4.421-1.678-6.848-1.611-7.114c0.017-0.033,0.382-1.245,0.382-1.245l0.35-1.165
		l0.233,1.764c0.033,0.215,0.099,0.713,0.216,1.347c0.631,2.592,2.359,5.482,3.107,6.381c2.394,2.892,4.371,4.886,6.382,6.432
		c0.947-0.532,1.944-1.163,3.06-1.894c-0.665-2.926-1.695-6.183-4.205-8.476c-0.217-0.2-1.016-0.931-1.016-0.931l-0.415-0.352
		l0.482-0.281c0.266-0.149,0.948-0.184,2.427,1.196c1.662,1.563,3.54,5.252,4.288,7.794l0.316-0.214
		c0.448-0.318,0.847-0.583,1.195-0.849c-0.266-1.313-0.58-2.559-0.913-3.591C585.174,667.447,583.696,665.254,583.678,665.235
		 M566.809,644.26c-0.065,0.218-0.299,0.333-0.531,0.284c-0.018,0-0.034,0-0.034-0.018c-0.231-0.082-0.364-0.333-0.282-0.564
		c0.033-0.065,0.066-0.2,0.083-0.348c0.101-0.5,0.166-1.365-0.099-2.062c-0.066-0.167-0.133-0.333-0.2-0.481
		c-0.033,0.349-0.184,0.778-0.565,1.263c0,0,0,0.017-0.017,0.033c-0.017,0.033-0.05,0.065-0.083,0.081
		c-0.117,0.102-0.265,0.152-0.432,0.152c-0.582-0.051-1.015-0.25-1.313-0.617c-0.563-0.713-0.382-1.744-0.267-2.441
		c0.018-0.085,0.051-0.168,0.085-0.234l-0.018-0.016c-0.101,0-0.199-0.017-0.316-0.017c-0.248-0.018-0.447-0.199-0.447-0.449
		c0-0.249,0.216-0.448,0.465-0.448c2.543,0.015,3.423,1.462,3.955,2.857C567.224,642.382,566.991,643.762,566.809,644.26"/>
	<path fill="#FFFFFF" d="M523.828,450.317l-16.237,25.396l25.711-16.038L540,488.976l6.699-29.301l25.711,16.038l-16.223-25.396
		l29.651-6.633l-29.651-6.613l16.223-25.396l-25.711,16.038L540,398.412l-6.698,29.301l-25.711-16.038l16.237,25.396l-29.668,6.613
		L523.828,450.317z M519.558,423.491l16.213,10.122L540,415.132l4.23,18.481l16.213-10.122l-10.239,16.023l18.716,4.17
		l-18.716,4.188l10.239,16.023l-16.213-10.122l-4.23,18.48l-4.229-18.48l-16.213,10.122l10.237-16.023l-18.716-4.188l18.716-4.17
		L519.558,423.491z"/>
	<path fill="#FFFFFF" d="M496.273,248.329c-2.984,0-5.401,2.394-5.401,5.335c0,2.942,2.417,5.335,5.401,5.335
		c2.975,0,5.4-2.393,5.4-5.335C501.673,250.723,499.247,248.329,496.273,248.329"/>
	<path fill="#FFFFFF" d="M583.962,258.999c2.974,0,5.401-2.393,5.401-5.335c0-2.941-2.428-5.335-5.401-5.335
		c-2.978,0-5.402,2.394-5.402,5.335C578.56,256.606,580.985,258.999,583.962,258.999"/>
	<path fill="#FFFFFF" d="M540.665,258.999c2.976,0,5.401-2.393,5.401-5.335c0-2.941-2.426-5.335-5.401-5.335
		c-2.983,0-5.401,2.394-5.401,5.335C535.264,256.606,537.682,258.999,540.665,258.999"/>
	<path fill="#FFFFFF" d="M491.843,302.678c-2.975,0-5.401,2.41-5.401,5.335c0,2.959,2.427,5.352,5.401,5.352
		c2.982,0,5.401-2.393,5.401-5.352C497.244,305.088,494.825,302.678,491.843,302.678"/>
	<path fill="#FFFFFF" d="M588.067,302.678c-2.975,0-5.401,2.41-5.401,5.335c0,2.959,2.427,5.352,5.401,5.352
		s5.402-2.393,5.402-5.352C593.469,305.088,591.041,302.678,588.067,302.678"/>
	<path fill="#FFFFFF" d="M540.499,302.678c-2.976,0-5.394,2.41-5.394,5.335c0,2.959,2.418,5.352,5.394,5.352
		c2.983,0,5.418-2.393,5.418-5.352C545.917,305.088,543.483,302.678,540.499,302.678"/>
	<polygon fill="#FFFFFF" points="356.155,448.987 358.813,442.206 359.635,440.112 357.517,439.315 353.735,437.868 
		351.625,437.054 350.802,439.147 348.143,445.913 339.317,442.538 337.198,441.74 336.383,443.817 334.455,448.772 
		333.633,450.849 335.752,451.663 344.57,455.038 341.618,462.55 340.805,464.644 342.914,465.441 346.705,466.904 348.815,467.702 
		349.631,465.626 352.58,458.097 359.752,460.838 361.863,461.651 362.686,459.559 364.622,454.621 365.436,452.528 
		363.325,451.729 	"/>
	<polygon fill="#FFFFFF" points="723.157,458.86 723.722,461.021 725.916,460.472 733.363,458.562 735.207,465.591 735.773,467.769 
		737.967,467.204 741.905,466.206 744.099,465.641 743.917,464.976 743.984,464.96 743.352,462.767 741.69,456.435 750.848,454.089 
		753.041,453.524 752.477,451.365 751.13,446.229 750.565,444.067 748.371,444.633 739.213,446.977 737.168,439.165 
		736.588,437.004 734.408,437.552 730.471,438.566 728.278,439.132 728.842,441.292 730.886,449.104 723.456,450.998 
		721.246,451.564 721.828,453.724 	"/>
	<path fill="#FFFFFF" d="M521.635,640.305c-0.748-1.145-2.145-1.878-3.855-2.044c-0.217-0.033-0.449-0.033-0.642-0.033
		c-0.771,0-1.52,0.134-2.235,0.383l-0.148,0.049c-0.066,0.018-0.133,0.035-0.199,0.067c-0.965,0.398-2.294,0.948-3.641,2.858
		c-0.914,1.281-0.947,2.393-1.013,4.803l-0.034,0.98c-0.034,0.85-0.017,1.214,0,1.514c0.018,0.317,0.034,0.582-0.008,1.213
		c-0.15,2.062-0.332,4.62-2.086,6.698c-1.297,1.546-3.117,2.509-4.887,3.439c-1.313,0.7-2.677,1.413-3.789,2.361
		c-1.513,1.296-2.777,3.041-3.84,5.301c-0.722,1.529-1.246,3.074-1.604,4.737c0.407,0.266,0.815,0.499,1.222,0.715
		c0.25,0.149,0.5,0.281,0.748,0.434c0.591-2.526,2.677-6.781,4.473-8.461c1.479-1.379,2.159-1.329,2.434-1.196l0.474,0.267
		l-1.421,1.295c-2.443,2.229-3.682,6.065-4.297,8.875c-0.008,0.019-0.016,0.034-0.016,0.066c0.946,0.449,1.928,0.899,2.992,1.329
		c0.266,0.102,0.531,0.219,0.78,0.317l0.133,0.05c1.628-1.297,3.315-3.059,5.775-6.018c0.74-0.896,2.477-3.787,3.108-6.38
		c0.115-0.649,0.183-1.131,0.216-1.349l0.233-1.777l0.34,1.163c0,0,0.366,1.196,0.383,1.262c0.082,0.268,0.697,2.694-1.612,7.115
		c-1.496,2.843-3.234,4.637-4.771,6.233l-0.132,0.133c-0.242,0.248-0.466,0.482-0.681,0.698l0.78,0.281
		c0.607,0.233,1.197,0.434,1.762,0.633c0.582,0.199,1.114,0.364,1.613,0.514c1.029,0.332,1.951,0.582,3.008,0.882
		c1.113,0.314,2.36,0.665,3.988,1.162c1.364-1.912,2.294-3.704,2.843-5.5c0.664-2.177,0.849-4.605,0.599-7.445
		c-0.233-2.429-0.691-5.037-1.513-8.477c-0.433-1.846-0.25-3.809,0.515-5.636c0.539-1.313,1.396-2.425,2.243-3.508
		c0.158-0.198,0.317-0.414,0.483-0.63l0.107-0.133C523.114,646.056,522.931,642.316,521.635,640.305 M516.465,643.114
		c-0.191,0.433-0.557,0.766-1.104,0.946c-0.149,0.051-0.307,0.051-0.44-0.016c-0.05-0.017-0.083-0.051-0.116-0.067
		c-0.017-0.016-0.017-0.016-0.034-0.016c-0.48-0.383-0.747-0.747-0.88-1.08c-0.025,0.166-0.051,0.35-0.059,0.532
		c-0.059,0.697,0.217,1.511,0.466,2.011c0.059,0.134,0.125,0.231,0.184,0.316c0.141,0.199,0.09,0.466-0.109,0.613
		c-0.082,0.052-0.174,0.084-0.266,0.084c-0.142,0-0.274-0.066-0.365-0.184c-0.309-0.432-0.906-1.694-0.814-2.927
		c0.124-1.494,0.582-3.104,3.025-3.805c0.249-0.066,0.488,0.066,0.564,0.301c0.067,0.231-0.076,0.48-0.315,0.547
		c-0.101,0.035-0.2,0.084-0.3,0.117v0.016c0.059,0.051,0.117,0.118,0.149,0.2C516.35,641.337,516.806,642.283,516.465,643.114"/>
</g>
</svg>
