<?xml version="1.0" encoding="utf-8"?>
<!-- Generator: Adobe Illustrator 16.0.0, SVG Export Plug-In . SVG Version: 6.00 Build 0)  -->
<!DOCTYPE svg PUBLIC "-//W3C//DTD SVG 1.1//EN" "http://www.w3.org/Graphics/SVG/1.1/DTD/svg11.dtd">
<svg version="1.1" id="Camada_1" xmlns="http://www.w3.org/2000/svg" xmlns:xlink="http://www.w3.org/1999/xlink" x="0px" y="0px"
	 width="500px" height="500px" viewBox="0 0 500 500" enable-background="new 0 0 500 500" xml:space="preserve">
<g>
	<path fill="#999999" d="M303.93,441.639c3.39,0,5.946-2.645,5.946-6.152c0-3.44-2.286-5.842-5.561-5.842h-0.077
		c-2.533,0-6.102,1.907-6.102,6.149C298.137,440.108,301.257,441.639,303.93,441.639"/>
	<path fill="#999999" d="M154.789,435.059c-1.289,0.17-2.034,0.601-2.034,2.292v21.748c0,14.161-5.146,16.071-10.179,16.071
		c-4.437,0-10.334-1.61-10.334-15.528v-19.978c0-3.643-0.17-4.916-2.072-4.916c-1.768,0-7.986,0.382-9.58,0.62l-0.27,0.038
		l0.026,0.273c0.155,1.633,0.232,4.881,0.232,9.926v14.498c0,16.529,6.984,24.909,20.757,24.909c9.788,0,21.456-4.562,21.456-26.298
		v-11.033c0-6.69,0.086-9.699,0.232-12.632l0.016-0.302h-0.302C161.229,434.748,157.138,434.825,154.789,435.059"/>
	<path fill="#999999" d="M198.176,441.884c4.514,0,7.987,1.192,9.657,1.904l0.074,0.02c1.207,0.161,2.32-0.211,3.222-1.07
		c1.167-1.112,1.825-2.964,1.68-4.716l-0.009-0.098l-0.063-0.072c-1.193-1.335-6.862-3.952-14.562-3.952
		c-17.085,0-28.124,9.679-28.124,24.661c0,16.069,10.948,26.452,27.892,26.452c4.889,0,8.839-2.527,10.96-3.886l0.282-0.178
		l0.043-0.035c1.543-1.455,2.565-3.932,2.88-6.971l0.021-0.197l-0.59-0.293l-0.604,0.171c-1.992,0.567-5.703,1.623-10.588,1.623
		c-10.894,0-17.934-6.822-17.934-17.38C182.414,444.656,190.985,441.884,198.176,441.884"/>
	<path fill="#999999" d="M289.111,464.385l-3.723-26.842l-0.001-0.003c-0.307-2.063-0.806-2.792-1.911-2.792
		c-1.963,0-8.343,0.44-9.689,1.277l-0.137,0.084v1.106c-3.209,7.758-7.806,19.262-11.033,27.927l-9.885-26.421
		c-1.125-3.211-1.646-4.071-3.141-3.974c-3.978,0-6.914,0.641-9.059,1.107l-0.875,0.188l0.184,1.455
		c-2.182,13.143-4.246,26.409-5.754,36.101c-0.517,3.312-0.956,6.139-1.296,8.294l-0.033,0.198l0.175,0.098
		c1.303,0.729,5.629,2.129,8.129,2.129c1.093,0,1.525-1.68,1.759-2.96c1.067-8.715,2.749-24.509,3.592-33.677
		c1.347,4.305,3.189,10.121,4.977,15.764c2.573,8.119,5.002,15.789,5.913,18.809l0.062,0.206h0.214c1.53,0,3.348-0.206,5.562-0.624
		c2.023-0.403,2.817-1.078,3.396-2.893c3.851-11.553,8.02-24.158,10.2-31.377l1.491,16.034c0.727,8.172,1.186,12.655,1.555,16.257
		l0.072,0.719c0.162,1.769,1.313,3.742,2.615,3.742c1.549,0,6.313-1.347,8.35-1.921l0.894-0.25l-0.043-0.257
		C290.975,477.761,290.091,471.708,289.111,464.385"/>
	<path fill="#999999" d="M308.604,447.316c-1.896,0-7.505,0.468-9.534,1.012l-0.238,0.064l0.025,0.245
		c0.134,1.254,0.309,3.513,0.309,8.611v13.193c0,4.14-0.131,9.479-0.208,12.669l-0.029,1.207h0.294c4.064,0,6.895-0.104,8.407-0.312
		c2.131-0.244,2.89-2.064,2.89-3.688v-27.854C310.519,448.086,310.233,447.316,308.604,447.316"/>
	<path fill="#999999" d="M352.547,470.52v-9.104c0-9.525-4.147-14.562-11.996-14.562c-3.785,0-7.349,2.303-10.369,4.646
		c-0.801-3.084-2.58-4.646-5.293-4.646c-3.029,0-6.007,2.502-6.785,4.746l-0.017,0.87l0.137,0.085
		c1.051,0.654,1.339,1.431,1.339,3.614v12.576c0,4.072-0.073,10.376-0.234,15.275l-0.01,0.298h0.298
		c2.045,0,3.863-0.544,5.621-1.069c1.187-0.354,2.307-0.689,3.486-0.871c1.903-0.246,2.191-0.717,2.191-2.213v-22.921
		c1.555-1.1,2.886-1.868,5.371-1.868c2.89,0,4.908,2.42,4.908,5.886v19.751c0,1.373,0.643,3.306,2.07,3.306
		c2.499,0,4.832-0.746,6.705-1.347c1.033-0.328,1.925-0.614,2.549-0.669l0.276-0.023l-0.016-0.278
		C352.639,479.259,352.547,474.752,352.547,470.52"/>
	<path fill="#999999" d="M391.275,475.101c-0.276,0.069-0.813,0.069-1.17,0.069c-1.708,0-2.505-0.887-2.505-1.486
		c0-2.897,0.1-5.765,0.185-8.292c0.067-2.008,0.125-3.74,0.125-5.134c0-9.259-6.725-13.404-13.39-13.404
		c-5.353,0-11.124,2.616-14.737,5.064l-0.123,0.081l-0.004,0.148c-0.03,0.97,0.065,3.357,1.607,4.583
		c0.883,0.701,2.054,0.863,3.525,0.471l0.199-0.087c1.513-0.68,4.043-1.816,6.507-1.816c3.359,0,5.528,1.948,5.528,4.96v0.685
		c-0.904,0.165-2.439,0.441-3.727,0.655c-5.226,1.116-14.959,3.2-14.959,11.468c0,6.132,4.904,11.716,10.289,11.716
		c3.208,0,6.18-2.617,8.689-5.275c1.104,2.127,3.333,5.275,6.819,5.275c5.592,0,7.575-4.898,7.575-9.091l-0.157-0.656
		L391.275,475.101z M376.867,471.755c0,1.249-0.188,2.001-0.595,2.479c-0.992,0.836-1.728,1.091-3.149,1.091
		c-2.018,0-4.055-1.151-4.055-3.727v-0.076c0-0.903,0.569-3.884,7.799-4.693V471.755z"/>
	<path fill="#999999" d="M414.75,462.399l-0.013-0.007c-0.522-0.261-1.241-0.601-2.013-0.965c-1.515-0.717-3.231-1.53-4.093-2.034
		c-1.548-0.923-2.495-1.55-2.495-2.761c0-1.26,1.255-2.106,3.123-2.106c1.644,0,3.446,0.402,5.078,1.134l0.096,0.023
		c1.043,0.078,1.935-0.238,2.65-0.945c1.291-1.279,1.635-3.448,1.535-4.917l-0.009-0.134l-0.109-0.079
		c-2.617-1.88-5.504-2.755-9.087-2.755h-0.077c-6.487,0-13.469,3.616-13.469,11.554c0,3.746,2.001,7.071,5.505,9.127
		c1.041,0.536,2.061,1.054,3.062,1.562c1.016,0.515,2.011,1.021,2.985,1.522c2.066,1.109,2.481,1.906,2.481,2.833
		c0,1.415-1.313,2.258-3.512,2.258c-3.837,0-7.619-2.151-8.687-2.81l-0.187-0.115l-0.161,0.147
		c-1.124,1.046-2.262,3.176-2.262,5.228c0,1.577,1.127,2.49,2.236,3.18l0.655,0.386c2.181,1.289,5.169,3.057,7.707,3.057
		c7.271,0,14.789-4.987,14.789-13.335C420.482,467.495,418.607,464.537,414.75,462.399"/>
	<path fill="#999999" d="M93.284,434.854c-5.819,0-11.372,0.622-13.506,1.016l-0.258,0.048l0.023,0.262
		c0.313,3.567,0.313,6.771,0.313,10.482v35.265c0,1.496,0.758,3.086,2.165,3.086c2.127,0,8.132-0.223,9.62-0.635l0.222-0.062
		l-0.012-0.229c-0.155-3.106-0.235-6.662-0.235-10.566v-5.525c2.221,0.187,4.751-0.321,6.452-0.66
		c6.93-1.393,11.771-4.588,14.394-9.494c1.307-2.441,1.996-5.203,1.996-7.983C114.456,436.673,104.281,434.854,93.284,434.854
		 M94.378,458.911c-0.284,0-1.535-0.051-2.763-0.102v-16.419c0.792-0.112,1.719-0.112,2.294-0.112c4.152,0,8.395,0.884,8.395,7.423
		C102.304,457.714,97.339,458.911,94.378,458.911"/>
	<path fill="#999999" d="M370.721,414.297c7.531,0,14.043-3.804,20.94-7.834c7.674-4.485,15.61-9.122,25.869-9.122
		c1.134,0,2.165-0.669,2.625-1.704c0.461-1.034,0.266-2.246-0.493-3.086l-11.682-12.908l8.27-17.99
		c0.43-0.936,0.325-2.037-0.28-2.875c-0.602-0.833-1.617-1.282-2.716-1.165c-2.605,0.27-14.38,1.98-22.124,7.382
		c-0.038-10.448-0.657-15.342-0.666-15.41c-0.009-0.056-0.014-0.114-0.014-0.171c0-3.071-6.096-3.662-6.155-3.666
		c-10.207-0.826-20.895,0.475-32.673,3.981c-10.569,3.147-21.01,7.73-31.107,12.162c-4.707,2.067-9.573,4.206-14.444,6.189
		c-17.875,7.276-35.658,10.814-54.367,10.814c-18.704,0-36.483-3.538-54.354-10.814c-4.818-1.963-9.691-4.103-14.404-6.171
		l-0.071-0.03c-10.089-4.428-20.523-9.007-31.081-12.152c-11.8-3.511-22.485-4.811-32.669-3.98
		c-0.062,0.006-6.158,0.605-6.158,3.667c0,0.059-0.003,0.117-0.01,0.175c-0.01,0.069-0.737,5.582-0.67,17.819
		c-8.534-6.3-25.406-8.194-26.125-8.273c-0.812-0.089-1.606,0.266-2.083,0.927c-0.477,0.66-0.561,1.526-0.221,2.267l8.805,19.158
		l-12.479,13.791c-0.6,0.662-0.753,1.618-0.39,2.433c0.363,0.817,1.175,1.345,2.07,1.345c10.876,0,19.224,4.877,27.294,9.595
		c7.091,4.143,13.787,8.056,21.43,8.056c10.021,0,14.817-4.769,15.126-9.493c0.024-0.365,0.012-0.721-0.015-1.071
		c0.044-0.534,0.081-1.192,0.102-1.607c0.208-3.962,0.587-9.749,0.721-14.119c0.143-1.519,0.246-2.941,0.249-4.197
		c7.444,2.306,14.576,5.091,21.228,7.795c25.529,10.381,53.021,20.517,83.702,20.517c13.623,0,27.619-2.001,42.788-6.112
		c14.551-3.945,28.854-9.495,40.927-14.404c6.475-2.631,13.399-5.339,20.596-7.599c-0.034,0.986-0.101,2.208-0.176,3.585
		c-0.167,3.022-0.367,6.693-0.293,9.667c-0.078,1.875-0.072,4.491-0.048,4.864c0.178,2.698,1.762,5.245,4.348,6.99
		C362.537,413.337,366.301,414.297,370.721,414.297 M390.42,385.762c0,0,2.816,4.695-11.224,8.61
		c-1.869,0.462-4.021,0.963-6.514,1.542c-0.079,0.017-0.163,0.033-0.244,0.049c-0.567,0.115-1.149,0.229-1.751,0.34
		c-3.537,0.66-12.854,3.079-12.854,3.079c0.05-5.754,0.437-8.591,0.587-13.702c0.391-0.116,0.776-0.237,1.169-0.35
		c2.647-0.763,5.208-1.418,7.714-1.94c10.692-2.232,17.955-2.811,21.542,0.345C389.483,384.293,390.018,384.955,390.42,385.762
		 M138.907,411.963c-2.903,1.436-6.335,1.655-9.518,1.49c-15.29-0.789-25.285-17.493-46.53-17.493l12.444-14.301l-8.667-20.331
		c0,0,10.344,2.27,13.807,3.436c4.375,1.475,10.087,3.543,11.864,5.062c0.02,1.496,0.051,3.083,0.097,4.757
		c0.008,0.596,0.02,1.205,0.033,1.824c0.023,1.738,0.033,3.646,0.108,5.462c-0.702,0.597-1.483,1.459-1.917,2.69
		c-0.944,2.686-0.164,5.604,1.532,7.813c2.244,2.921,6.307,4.21,9.653,5.371c4.175,1.452,8.471,2.55,12.831,3.281
		c3.164,0.533,7.703,1.432,8.125,5.331C143.048,408.914,141.033,410.91,138.907,411.963 M143.834,401.904
		c-0.851-0.908-1.95-1.619-3.233-2.054c-0.454-0.194-0.956-0.35-1.507-0.455c-6.281-1.2-13.147-2.921-18.231-4.896
		c-3.175-1.235-5.657-2.568-6.861-3.936c-1.299-1.477-1.401-3.021-1.401-3.021c-0.02-0.288-0.006-0.556,0.025-0.804
		c0.087-0.689,0.319-1.203,0.42-1.418c1.006-2.149,3.513-3.074,4.743-3.468c1.204-0.227,2.49-0.353,3.797-0.353
		c0.367,0,0.718,0.011,1.048,0.028c6.673,0.37,13.604,1.614,21.193,3.801c0.378,0.108,0.751,0.227,1.126,0.338
		C144.908,388.268,144.708,391.951,143.834,401.904 M334.692,392.233c-12.021,4.889-26.256,10.412-40.706,14.329
		c-15.001,4.067-28.834,6.045-42.284,6.045c-30.332,0-57.623-10.065-82.976-20.374c-7.573-3.079-15.765-6.272-24.365-8.748
		c-2.412-0.695-4.756-1.292-7.052-1.802c-4.214-0.935-8.254-1.567-12.193-1.901c-2.142-0.256-4.136-0.356-5.912-0.251
		c-1.811,0.109-3.395,0.43-4.67,1.03c-0.894-21.166,0.312-30.62,0.324-30.714c0.02-0.143,0.029-0.288,0.029-0.435
		c0-0.699,2.516-1.597,4.393-1.754c9.975-0.801,20.431,0.476,31.963,3.909c10.451,3.111,20.839,7.671,30.883,12.08l0.062,0.025
		c4.716,2.071,9.592,4.21,14.436,6.184c18.107,7.372,36.129,10.956,55.092,10.956c18.951,0,36.969-3.584,55.08-10.956
		c4.847-1.974,9.716-4.111,14.423-6.178l0.071-0.03c10.04-4.407,20.422-8.968,30.881-12.081c11.544-3.439,22.001-4.717,31.967-3.909
		c1.836,0.156,4.39,1.068,4.39,1.754c0,0.136,0.012,0.28,0.03,0.43c0.01,0.068,0.717,5.556,0.65,17.592
		c-0.019,3.781-0.115,8.202-0.334,13.313c-0.267-0.1-0.521-0.198-0.771-0.296c-0.876-0.338-1.674-0.642-2.563-0.777
		c-1.543-0.371-3.544-0.387-5.521-0.387c-4.738,0.288-10.389,1.476-16.859,3.1c-1.349,0.339-2.713,0.697-4.102,1.099
		C350.474,385.958,342.276,389.151,334.692,392.233 M357.893,405.068c-0.315-1.786,0.41-3.347,2.082-4.067
		c0.997-0.43,3.563-1.178,4.584-1.368c3.669-0.69,21.998-4.322,26.162-8.133c2.459-2.239,3.552-6.176,0.718-8.668
		c-0.219-0.19-0.463-0.375-0.57-0.646c-0.08-0.197-0.075-0.416-0.068-0.63c0.127-4.709,0.304-9.423,0.327-14.134
		c7.51-5.021,19.011-7.496,21.575-7.763c0.517-0.051,1.051,0.177,1.363,0.607c0.312,0.431,0.365,0.996,0.145,1.48l-9.231,18.267
		l12.166,12.573c0.39,0.435,0.491,1.059,0.254,1.591c-0.237,0.533-0.77,0.88-1.353,0.88c-10.639,0-17.021,4.136-24.861,8.716
		c-6.726,3.931-13.077,7.642-20.232,7.642c-4.143,0-7.635-0.878-10.097-2.539C359.493,407.958,358.191,406.755,357.893,405.068"/>
	<path fill="#999999" d="M144.678,373.846c-0.277-0.077-0.417-0.117-0.696-0.194c-0.13,2.68-0.768,3.179-2.217,2.787
		c-1.129-0.304-1.7-0.453-2.856-0.747c-1.3-0.329-1.663-0.471-1.684-2.416c-0.03-3.095-0.007-4.67,0.024-7.813
		c1.273,0.307,1.901,0.466,3.139,0.791c1.537,0.403,2.069,1.687,2.063,3.579c0.281,0.076,0.422,0.115,0.703,0.193
		c0.009-2.942,0.031-4.418,0.036-7.359c-0.279-0.082-0.42-0.12-0.7-0.2c-0.152,1.114-0.324,2.601-2.088,2.135
		c-1.238-0.326-1.864-0.485-3.138-0.794c0.026-2.801,0.042-4.203,0.009-6.964c-0.019-1.665,0.32-1.721,1.611-1.396
		c0.806,0.202,1.205,0.307,1.995,0.518c1.671,0.449,2.733,1.484,2.75,4.278c0.277,0.08,0.417,0.121,0.691,0.202
		c-0.044-2.074-0.073-3.113-0.171-5.178c-4.702-1.385-7.16-2.002-12.485-2.991c0.01,0.295,0.014,0.441,0.023,0.739
		c2.57,0.988,2.648,1.002,2.665,4.44c0.036,7.461-0.238,11.462,0.007,18.729c4.323,1.004,6.373,1.549,10.342,2.694
		C144.662,376.871,144.662,375.863,144.678,373.846"/>
	<path fill="#999999" d="M158.985,360.717c-0.644-0.291-0.967-0.437-1.616-0.723c-1.348,3.103-2.087,4.575-3.602,7.6
		c-1.339-4.178-2.002-6.297-3.47-10.538c-1.742-0.674-2.627-1.001-4.437-1.631c-0.001,0.308-0.002,0.461-0.005,0.768
		c1.937,1.098,2.185,1.693,2.981,4.032c1.205,3.592,1.767,5.385,2.913,8.945c-2.09,4.007-3.207,6.075-5.242,10.194
		c0.677,0.232,1.012,0.348,1.68,0.583c1.661-3.504,2.557-5.248,4.28-8.65c1.446,4.62,2.162,6.888,3.739,11.62
		c1.145,0.444,1.713,0.668,2.844,1.117c-1.968-5.888-2.839-8.646-4.637-14.372C156.339,366.09,157.285,364.383,158.985,360.717"/>
	<path fill="#999999" d="M173.555,368.983c1.963,0.964,2.46,3.518,2.58,4.661c1.049,0.5,1.575,0.752,2.639,1.253
		c-0.274-2.735-1.688-5.827-5.053-7.482c-4.809-2.364-5.904,2.507-5.968,8.57c-0.079,7.342,1.703,12.717,6.246,14.604
		c2.192,0.912,3.988,0.695,4.542,0.574c-0.015-0.895-0.023-1.333-0.035-2.192c-0.574,0.399-1.921,1.043-3.851,0.24
		c-4.278-1.78-4.537-9.315-4.513-12.954C170.164,372.912,170.599,367.531,173.555,368.983"/>
	<path fill="#999999" d="M186.586,371.669c-5.079-2.251-6.221,1.845-6.173,8.516c0.049,6.64,1.571,11.888,6.529,13.779
		c4.884,1.865,6.429-2.271,6.347-8.496C193.205,379.156,191.454,373.826,186.586,371.669 M186.906,392.313
		c-3.571-1.367-3.967-7.241-4.003-11.046c-0.041-4.142,0.093-9.549,3.719-7.944c3.555,1.573,3.923,7.225,3.975,11.11
		C190.648,388.232,190.548,393.703,186.906,392.313"/>
	<path fill="#999999" d="M208.314,385.877c-0.018-5.315-5.659-7.536-7.678-8.24c-2.65-0.923-3.927-1.4-6.404-2.375
		c0.007,0.313,0.008,0.469,0.014,0.773c2.348,1.443,2.432,1.583,2.47,4.682c0.087,6.723,0.096,8.811,0.207,16.448
		c1.115,0.375,1.68,0.56,2.821,0.928c-0.047-4.427-0.063-6.119-0.096-9.69c0.65,0.22,0.979,0.329,1.642,0.546
		c1.917,4.168,2.894,6.093,4.845,11.096c1.265,0.366,1.826,0.523,3.049,0.848c-1.969-5.221-2.932-7.177-4.969-11.521
		C206.386,389.679,208.324,389.264,208.314,385.877 M201.148,387.564c-0.609-0.202-0.913-0.305-1.512-0.51
		c-0.02-2.043-0.029-3.049-0.053-5.263c-0.021-2.239-0.047-2.907,1.768-2.282c2.274,0.782,4.042,2.472,4.047,5.675
		C205.402,388.507,202.882,388.14,201.148,387.564"/>
	<path fill="#999999" d="M217.451,382.415c-3.003-0.611-4.48-0.958-7.364-1.745c0.002,0.314,0.002,0.469,0.003,0.774
		c2.397,1.176,2.496,1.324,2.515,4.365c0.041,6.602,0.065,8.393,0.104,16.075c1.592,0.389,2.39,0.569,3.997,0.91
		c5.249,1.118,9.836,0.204,9.829-8.606C226.529,386.296,222.601,383.463,217.451,382.415 M217.504,401.329
		c-1.86-0.382-1.864-1.317-1.872-2.541c-0.037-5.767-0.064-7.545-0.102-13.381c-0.01-1.495,0.628-1.617,2.201-1.301
		c5.1,1.031,5.744,4.755,5.766,9.69C223.522,399.43,222.413,402.34,217.504,401.329"/>
	<path fill="#999999" d="M227.395,384.974c2.565,0.906,2.654,1.058,2.563,4.109c-0.193,6.625-0.233,8.33-0.469,16.106
		c4.377,0.61,6.585,0.836,11.024,1.123c0.132-2.12,0.193-3.057,0.313-4.838c-0.313-0.02-0.471-0.029-0.785-0.048
		c-0.279,2.385-1.066,3.117-2.65,2.983c-1.234-0.103-1.852-0.161-3.08-0.291c-1.383-0.146-1.737-0.319-1.677-2.104
		c0.099-2.844,0.138-4.04,0.222-6.529c1.356,0.15,2.035,0.221,3.398,0.34c1.691,0.151,2.275,1.068,2.207,2.613
		c0.314,0.022,0.473,0.034,0.789,0.057c0.108-2.403,0.159-3.497,0.27-5.931c-0.318-0.021-0.477-0.03-0.796-0.055
		c-0.214,0.943-0.469,2.175-2.417,2.003c-1.366-0.12-2.047-0.188-3.406-0.341c0.076-2.229,0.113-3.327,0.199-5.881
		c0.053-1.541,0.428-1.674,1.854-1.54c0.891,0.086,1.336,0.123,2.229,0.194c1.89,0.151,3.063,1.032,2.95,3.483
		c0.322,0.021,0.481,0.028,0.803,0.048c0.051-1.817,0.078-2.772,0.144-4.938c-5.53-0.295-8.285-0.563-13.665-1.349
		C227.407,384.509,227.404,384.665,227.395,384.974"/>
	<path fill="#999999" d="M251.65,387.436c2.639,0.441,2.719,0.593,2.58,3.691c-0.302,6.728-0.416,8.353-0.744,16.323
		c4.48-0.187,6.729-0.361,11.226-0.874c0.142-2.18,0.21-3.137,0.343-4.955c-0.315,0.038-0.475,0.057-0.789,0.093
		c-0.302,2.455-1.102,3.345-2.708,3.496c-1.252,0.119-1.879,0.172-3.13,0.266c-1.408,0.105-1.771-0.01-1.684-1.827
		c0.139-2.895,0.203-4.098,0.332-6.61c1.378-0.094,2.064-0.147,3.439-0.27c1.704-0.153,2.274,0.662,2.187,2.224
		c0.318-0.031,0.477-0.05,0.793-0.083c0.138-2.433,0.203-3.529,0.342-5.992c-0.318,0.034-0.478,0.052-0.796,0.084
		c-0.224,0.985-0.49,2.263-2.452,2.439c-1.376,0.123-2.065,0.179-3.442,0.272c0.115-2.251,0.172-3.358,0.296-5.961
		c0.074-1.568,0.458-1.773,1.889-1.895c0.896-0.074,1.344-0.114,2.235-0.2c1.885-0.183,3.036,0.511,2.9,3.002
		c0.318-0.038,0.478-0.057,0.795-0.093c0.066-1.84,0.102-2.811,0.176-5.027c-5.437,0.663-8.211,0.888-13.757,1.095
		C251.667,386.96,251.66,387.119,251.65,387.436"/>
	<path fill="#999999" d="M276.102,385.182c2.496-0.48,2.95,1.738,3.04,2.756c1.307-0.277,1.957-0.423,3.246-0.728
		c-0.202-2.468-1.692-4.661-5.959-3.827c-6.101,1.194-8.002,6.846-8.306,12.074c-0.366,6.33,1.616,10.99,7.389,9.936
		c2.786-0.51,5.104-2.033,5.818-2.555c0.034-0.937,0.051-1.383,0.084-2.241c-0.749,0.8-2.508,2.418-4.952,2.882
		c-5.42,1.03-5.39-6.009-5.21-9.185C271.419,391.372,272.343,385.902,276.102,385.182"/>
	<path fill="#999999" d="M291.284,381.389c2.295-0.718,2.789,1.458,2.919,2.463c1.171-0.403,1.759-0.607,2.931-1.025
		c-0.297-2.439-1.716-4.514-5.61-3.274c-5.566,1.772-7.303,7.639-7.469,12.871c-0.203,6.338,1.871,10.825,7.6,9.172
		c2.766-0.796,4.619-2.443,5.233-3.019c-0.001-0.951-0.002-1.402-0.006-2.27c-0.638,0.859-1.948,2.556-4.358,3.271
		c-5.35,1.59-5.547-5.447-5.483-8.623C287.1,388.033,287.832,382.469,291.284,381.389"/>
	<path fill="#999999" d="M309.573,389.814c0.052,3.04-1.339,3.907-2.912,4.504c-0.858,0.327-1.286,0.488-2.143,0.806
		c-1.668,0.619-1.659,0.49-1.684-1.984c-0.07-7.413-0.229-8.864-0.287-17.428c-2.041,1.1-3.063,1.646-5.104,2.709
		c0.002,0.328,0.002,0.49,0.005,0.807c2.363-0.367,2.434-0.238,2.469,2.43c0.093,6.874,0.217,8.403,0.21,16.815
		c4.02-1.392,6.047-2.158,10.118-3.75c0.028-2.293,0.031-3.295,0.027-5.186C309.992,389.646,309.855,389.703,309.573,389.814"/>
	<path fill="#999999" d="M322.762,384.455c-0.068,2.592-0.755,3.725-2.194,4.315c-1.123,0.462-1.685,0.691-2.807,1.149
		c-1.26,0.513-1.582,0.501-1.618-1.404c-0.057-3.037-0.109-4.279-0.219-6.816c1.206-0.493,1.809-0.741,3.016-1.238
		c1.498-0.618,2.099,0.037,2.171,1.633c0.279-0.116,0.42-0.173,0.7-0.29c-0.112-2.481-0.186-3.577-0.321-5.967
		c-0.277,0.114-0.417,0.171-0.694,0.283c-0.096,1.001-0.203,2.307-1.921,3.013c-1.204,0.495-1.806,0.742-3.008,1.233
		c-0.1-2.251-0.155-3.337-0.248-5.856c-0.055-1.52,0.261-1.82,1.486-2.304c0.765-0.303,1.146-0.454,1.912-0.756
		c1.619-0.64,2.674-0.28,2.802,2.091c0.277-0.111,0.415-0.169,0.692-0.28c-0.126-1.738-0.188-2.642-0.294-4.682
		c-4.695,1.821-7.031,2.748-11.701,4.541c0.007,0.323,0.01,0.479,0.016,0.792c2.255-0.338,2.323-0.215,2.426,2.831
		c0.226,6.613,0.436,8.26,0.458,16.729c4.018-1.604,6.035-2.441,10.084-4.102c0.012-2.306,0.002-3.314-0.031-5.207
		C323.186,384.279,323.044,384.339,322.762,384.455"/>
	<path fill="#999999" d="M327.781,370.695c-0.128-1.938,0.879-3.389,2.188-3.89c1.925-0.737,3.824-0.432,4.521-0.297
		c-0.067-0.883-0.099-1.34-0.158-2.298c-0.652,0.075-2.282,0.236-3.979,0.873c-3.473,1.303-5.441,4.355-5.242,7.548
		c0.379,6.127,8.572,1.817,8.827,7.002c0.145,2.912-1.434,4.669-3.037,5.317c-2.035,0.823-4.099,0.124-4.902-0.173
		c0.03,1.114,0.043,1.7,0.061,2.952c0.536-0.023,2.503,0.004,4.464-0.79c3.515-1.423,6.411-5.041,6.148-9.444
		C336.279,370.905,328.08,375.217,327.781,370.695"/>
	<path fill="#999999" d="M336.151,363.71c0.02,0.28,0.028,0.419,0.048,0.692c2.433-0.478,2.506-0.392,2.724,1.975
		c0.557,6.097,0.978,7.821,1.132,16.368c1.123-0.427,1.686-0.636,2.808-1.05c-0.208-10.811-0.925-11.832-1.553-20.563
		C339.242,362.145,338.21,362.659,336.151,363.71"/>
	<path fill="#999999" d="M353.169,358.041c-1.891,0.56-3.97,0.852-5.851,1.452c0.021,0.269,0.034,0.401,0.059,0.664
		c1.016-0.143,1.944-0.385,2.062,0.751c0.02,0.197-0.154,1.262-0.253,1.774c-1.345,6.593-1.887,8.736-3.748,18.078
		c0.633-0.226,0.949-0.336,1.582-0.556c0.699-3.558,1.001-5.031,1.569-7.786c2.592-0.886,3.889-1.309,6.482-2.092
		c0.968,2.271,1.436,3.508,2.262,6.609c1.057-0.298,1.584-0.44,2.642-0.716C356.259,366.51,355.648,364.73,353.169,358.041
		 M348.904,370.894c0.784-3.72,1.654-6.131,2.374-9.646c1.429,2.963,2.244,4.822,3.24,7.83
		C352.271,369.766,351.149,370.131,348.904,370.894"/>
	<path fill="#999999" d="M361.103,359.438c0.701,5.671,1.223,7.545,1.358,16.164c4.042-0.965,6.058-1.361,10.065-1.901
		c0.021-2.385,0.003-3.436-0.066-5.383c-0.284,0.043-0.426,0.064-0.71,0.108c-0.015,2.63-0.705,3.615-2.145,3.862
		c-1.12,0.193-1.681,0.298-2.806,0.521c-1.263,0.254-1.579,0.181-1.671-1.76c-0.146-3.09-0.273-4.351-0.546-6.787
		c1.231-0.286,1.848-0.421,3.082-0.676c1.529-0.314,2.191,0.441,2.327,2.047c0.285-0.051,0.429-0.076,0.713-0.125
		c-0.21-2.503-0.352-3.581-0.622-5.777c-0.286,0.053-0.43,0.08-0.717,0.135c-0.047,0.893-0.087,2.084-1.847,2.449
		c-1.234,0.256-1.851,0.391-3.085,0.68c-0.254-2.116-0.398-3.093-0.65-5.221c-0.153-1.283,0.169-1.494,1.445-1.771
		c0.798-0.174,1.197-0.26,1.996-0.421c1.691-0.346,2.829,0.062,3.084,2.155c0.286-0.053,0.431-0.078,0.718-0.129
		c-0.218-1.545-0.327-2.314-0.517-3.982c-4.939,0.863-7.386,1.418-12.238,2.68c0.023,0.258,0.036,0.384,0.063,0.636
		C360.71,356.763,360.78,356.822,361.103,359.438"/>
	<path fill="#999999" d="M262.559,280.658c-0.498-1.047-2.887-5.649-3.583-6.618c-0.313-0.434-0.583-0.898-0.918-1.316
		c-1.18-1.479-0.985-3.029-0.836-3.455c0.493-1.416,1.292-3.793,2.701-9.425c0.685-2.73,0.766-4.17,0.824-4.657
		c0.244-2.085,0.397-3.398,0.189-5.16c-0.127-1.079-0.389-3.124-1.679-5.388c-1.338-2.351-3.034-3.618-3.393-3.879
		c-0.469-0.341-1.305-0.94-2.555-1.394c-0.338-0.123-2.063-0.726-4.386-0.528c-2.992,0.257-5.035,1.679-5.796,2.223
		c-0.472,0.338-2.28,1.681-3.659,4.145c-1.339,2.384-1.553,4.53-1.68,5.952c-0.151,1.694-0.352,3.938,0.725,6.446
		c0.821,1.908,2.076,3.257,2.518,3.725c0.63,0.666,1.226,1.162,1.678,1.506c0.287-0.485,0.748-1.16,1.441-1.848
		c1.516-1.5,2.298-1.758,3.669-1.813c0.537-0.022,1.354,0.207,1.878,0.448c0.085,0.039,0.159,0.135,0.242,0.199
		c0.437-0.885,0.557-2.773,0.557-3.691c0.001-1.319-0.06-2.118-0.375-2.823c-0.15-0.331-0.359-0.655-0.361-0.657
		c-0.245-0.381-0.523-0.808-0.979-1.117c-0.21-0.141-0.36-0.193-0.519-0.249c-0.261-0.094-0.614-0.22-0.906-0.638
		c-0.442-0.634-0.354-1.324-0.321-1.585c0.141-1.096,0.933-1.746,1.235-1.956c0.015-0.01,0.024-0.015,0.038-0.024
		c0.366-0.206,1.36-0.66,2.562-0.343c1.029,0.27,1.591,0.944,1.804,1.197c0.723,0.863,0.886,1.792,0.984,2.595
		c0.12,1.007,0.321,3.706-0.437,7.006l-0.049,0.213c-0.14,0.624-0.313,1.396-0.79,2.22c-0.208,0.354-0.37,0.598-0.502,0.792
		c-0.093,0.138-0.189,0.219-0.204,0.314c-0.313,1.985-0.288,14.568-0.159,16.604c0.046,0.724,0.113,8.548,0.19,10.282
		c0.016,0.352,0.05,1.509-0.611,1.963c-0.437,0.3-1.008,0.244-1.171,0.227c-0.764-0.083-1.287-0.553-1.486-0.736
		c-2.868-2.651-4.188-6.78-4.188-6.78c-0.753-2.362-1.607-5.726-1.986-9.937c-2.95,3.724-5.384,8.33-6.844,13.8
		c-1.254,4.696-0.592,9.214,0.377,13.335c0.003,0.009,0.291,1.296,0.565,2.469c0.788-0.203,1.659-0.252,2.472-0.126
		c0.033-0.05,0.063-0.101,0.105-0.146c0.012-0.013,0.026-0.028,0.041-0.041c0.375-0.347,0.941-0.933,1.543-1.553l0.016-0.017
		c1.133-1.172,2.418-2.496,3.295-3.174c0.302-0.229,0.748-0.223,1.039,0.015c0.3,0.242,0.389,0.664,0.213,1.005
		c-0.053,0.103-0.276,0.387-0.559,0.745c-0.156,0.196-0.322,0.408-0.473,0.606c0.043-0.04,0.087-0.082,0.134-0.125
		c0.397-0.366,0.807-0.743,0.938-0.83c0.254-0.168,0.604-0.143,0.83,0.058l0.039,0.037c0.213,0.223,0.248,0.557,0.088,0.816
		c-2.601,4.141-3.642,5.531-4.146,6c0.004,0.113,0.004,0.216,0.004,0.293c0,0.933-0.262,1.659-0.434,2.141
		c-0.248,0.696-0.533,1.188-0.834,1.709c-0.186,0.319-0.396,0.634-0.6,0.936c-0.552,0.825-1.074,1.605-1.209,2.592
		c-0.115,0.833,0.109,1.622,0.345,2.458c0.102,0.354,0.206,0.723,0.28,1.09c0.132,0.652,0.239,1.651,0.261,2.795
		c0.425,0.184,0.88,0.365,1.365,0.539c0.364,0.129,0.717,0.242,1.061,0.344c0.679-1.327,1.503-2.527,2.409-3.428
		c1.372-1.362,1.407-2.374,1.16-4.359c-0.055-0.439-0.152-0.859-0.249-1.27c-0.235-0.998-0.478-2.032-0.048-3.274
		c0.246-0.712,0.664-1.354,1.14-1.985c0.54-0.718,1.434-1.414,1.716-1.628c0.031-0.495,0.265-2.106,0.505-3.449
		c0.545-3.062,0.798-3.481,1.513-3.534l0.059-0.002c0.715,0,0.928,0.283,1.758,3.53c0.265,1.038,0.648,2.652,0.74,3.222
		c0.246,0.449,0.491,0.899,0.741,1.354c0.161,0.289,0.32,0.576,0.481,0.861c0.451,0.834,0.569,1.534,0.602,1.987
		c0.042,0.648,0.014,1.344-0.397,2.615c-0.164,0.51-0.32,0.991-0.366,1.496c-0.109,1.167,0.301,2.532,1.155,3.842
		c0.196,0.302,0.43,0.609,0.735,0.974c1.006,1.195,1.959,2.411,2.69,3.802c0.264-0.045,0.554-0.11,0.671-0.137
		c0.234-0.053,0.629-0.17,1.003-0.297l0.029-0.005c-0.013-1.677,0.243-3.249,0.421-4.132c0.075-0.369,0.179-0.736,0.279-1.093
		c0.238-0.835,0.462-1.623,0.346-2.456c-0.134-0.985-0.656-1.767-1.209-2.593c-0.203-0.301-0.413-0.615-0.599-0.936
		c-0.301-0.52-0.637-0.993-0.835-1.707c-0.346-1.242-0.229-2.296,0.006-3.097c-0.441-0.547-1.284-1.955-3.167-5.591
		c-0.097-0.187-0.049-0.416,0.115-0.549c0.085-0.068,0.187-0.102,0.288-0.102c0.1,0,0.197,0.031,0.281,0.096
		c0.357,0.282,0.954,0.882,1.599,1.58c-0.542-0.977-1.023-1.87-1.175-2.231c-0.108-0.26-0.02-0.558,0.213-0.716
		c0.104-0.072,0.225-0.107,0.346-0.107c0.147,0,0.294,0.053,0.407,0.157c0.813,0.739,1.977,2.158,3.004,3.407
		c0.391,0.475,0.764,0.928,1.072,1.288c0.604-0.081,1.251-0.047,1.894,0.094c0.001-0.022,0.002-0.037,0.002-0.06
		c0.002-0.111,0.197-0.733,0.445-1.47C264.267,299.655,267.341,290.692,262.559,280.658 M245.337,258.72
		c-0.173,0.564-0.694,0.956-1.268,0.956c-0.256,0-0.51-0.076-0.731-0.224c-1.673-1.1-2.761-2.856-2.909-4.699
		c-0.078-0.976,0.177-1.903,0.76-2.757c0.079-0.118,0.166-0.235,0.253-0.354c0.241-0.325,0.469-0.632,0.471-0.877
		c0.009-0.716,0.584-1.278,1.315-1.278c0.365,0,0.72,0.146,0.971,0.396c0.248,0.247,0.384,0.578,0.38,0.936
		c-0.006,0.582-0.188,1.071-0.419,1.497c0.744,0.438,1.376,1.321,1.318,2.546c-0.028,0.635-0.451,1.995-0.598,2.45
		C245.313,257.646,245.498,258.197,245.337,258.72 M246.995,296.45c-0.365,0.382-0.845,0.583-1.385,0.583
		c-0.11,0-0.22-0.009-0.328-0.024c-0.713-0.102-1.178-0.518-1.54-1.042c-1.251-1.811,1.786-5.925,2.216-6.306
		c0.164-0.147,0.379-0.227,0.598-0.227c0.093,0,0.187,0.015,0.273,0.046c0.303,0.097,0.531,0.351,0.594,0.657
		C247.792,291.942,248.229,295.163,246.995,296.45 M252.272,296.85c-0.352,0.324-0.814,0.503-1.305,0.503
		c-0.08,0-0.163-0.006-0.244-0.016c-0.664-0.077-1.311-0.469-1.683-1.021c-0.923-1.359-0.417-2.721-0.012-3.814
		c0.186-0.499,0.359-0.965,0.407-1.395c0.039-0.35,0.325-0.622,0.678-0.648c0.583-0.047,0.929,0.416,1.096,0.639
		c0.037,0.053,0.064,0.091,0.092,0.119c0.401,0.421,1.461,1.988,1.623,2.773C253.117,294.942,252.99,296.195,252.272,296.85
		 M257.291,296.565c-0.075,0.022-0.15,0.038-0.228,0.053c-0.884,0.152-1.814-0.252-2.315-1.01c-0.64-0.971-0.856-2.061-1.048-3.026
		c-0.165-0.829-0.323-1.613-0.706-2.277c-0.198-0.341-0.127-0.782,0.166-1.045c0.294-0.266,0.745-0.291,1.069-0.066
		c0.741,0.516,4.444,3.21,4.406,5.646C258.622,295.659,258.093,296.336,257.291,296.565"/>
	<path fill="#999999" d="M414.621,298.114c-2.223-2.887-6.825-3.883-9.894-1.908c-0.513-2.391-3.793-18.899-4.572-25.168
		c19.319-2.253-11.758-32.143-12.683-12.349c-5.671,0.037-20.327-0.771-23.826-0.93c3.791-8.487-6.471-13.17-12.693-7.63
		c-1.428-1.049-9.035-6.322-13.43-9.404c-0.002-7.733-0.008-15.576-0.016-23.183c13.522,1.696,25.79,0.331,38.385-5.718
		c4.281,7.272,12.539,3.453,11.121-3.304c7.39-6.161,19.566-16.714,23.633-25.497c1.413-3.074-1.914-5.225-4.5-3.347
		c1.111-2.018,1.3-5.353-2.021-5.729c0.656-2.25-1.006-6.461-3.858-5.152c0.562-2.101-1.844-4.868-3.935-4.075
		c0.565-1.124-0.64-8.214-4.541-5.993c0.103-2.354-3.048-6.475-5.893-5.151c0.114-2.261-0.502-5.073-4.308-5.499
		c-2.236,0-3.088,3.369-4.074,7.27c-1.939,7.319-6.235,14.33-10.815,20.383c-4.481-2.268-12.031,4.088-8.404,8.227
		c-3.378,2.982-12.203,5.219-20.821,5.814c-0.008-14.348-0.027-21.932,0.026-26.664h-43.449c6.158-4.424,26.68-19.221,32.557-23.258
		c0.179,0.313,3.743,5.27,5.515,7.568c1.633-1.128,4.688-3.189,5.881-4.059c0.777,1.088,1.885,2.69,2.981,4.311
		c-1.164,0.821-4.678,3.295-5.785,4.074c1.675,2.319,9.149,12.674,10.824,14.994c1.931-1.359,5.201-3.664,7.132-5.023
		c-0.777-1.077-4.554-6.311-5.41-7.494l4.796-3.377c0.877,1.215,4.611,6.387,5.41,7.493c2.229-1.571,8.047-5.669,10.276-7.239
		c-1.668-2.322-6.08-8.609-8.599-11.839c-1.057,0.745-4.441,3.13-5.554,3.911l-3.884-5.383c2.038-1.46,3.808-2.684,5.637-3.891
		c-0.789-1.092-3.158-4.373-3.98-5.512c2.312-1.626,4.329-3.048,5.669-3.994c1.13,1.713,2.731,3.746,4.171,5.319
		c1.869-1.319,5.012-3.539,5.978-4.218c0.982,1.373,2.445,3.412,3.877,5.375c-1.186,0.836-5.009,3.529-6.127,4.314
		c1.648,2.285,6.915,9.581,8.563,11.865c2.26-1.592,8.537-6.015,10.798-7.607c-0.769-1.074-4.532-6.331-5.38-7.514l3.928-2.767
		c0.967,1.302,4.746,6.389,5.637,7.587l7.421-5.342c-1.724-2.385-9.162-12.689-10.889-15.085c-1.103,0.776-5.652,3.979-6.838,4.815
		l-3.093-4.285c1.212-0.854,5.71-4.022,6.835-4.816c-0.775-1.075-4.597-6.369-5.451-7.552c1.114-0.819,3.172-1.792,2.642-3.529
		c-0.305-1.394-4.946-7.323-6.33-7.757c-0.862-0.357-1.771,0.231-1.798,0.281l-80.925,57.12c-0.578-3.294-1.957-11.614-2.854-17.251
		h17.606c1.284,0,2.33-1.033,2.33-2.302c0.312-2.034-1.116-3.469-3.183-3.159v-1.642c3.433-0.262,3.432-5.504,0-5.765v-14.111
		c-0.444,0.783-1.471,2.605-1.954,3.449c-0.175-2.07-0.628-4.557-1.154-6.434c3.594,0.744,4.238-5.367,0.676-5.461
		c-0.653,0.012-3.036-0.006-3.65,0.002v-1.324c3.827,0.052,3.824-5.88,0-5.826V79.606c-1.212,2.02-2.091,3.848-3.372,6.225
		c-0.754-3.359-1.918-6.548-3.473-9.515c1.623-0.105,2.341-1.692,2.137-3.142c0.047-2.73-3.382-2.314-5.229-2.295
		c-0.006,0-0.011,0-0.016,0c3.187-0.268,3.462-5.075,0.334-5.691c-0.02-0.245-0.032-9.904-0.032-9.904
		c-1.073,1.889-2.01,3.691-3.121,5.793c-3.224-6.508-16.308-18.909-28.513-21.05c-0.2-2.976-1.944-5.112-3.145-5.487v-0.346v-7.521
		h5.043v-6.224h-5.043v-5.462h-7.604v5.462h-5.042v6.224h5.042v7.521v0.346c-1.159,0.459-2.771,2.236-3.111,5.318
		c-10.105,1.921-20.409,9.394-28.479,21.35c-1.078-2.019-1.854-3.597-2.9-5.343v9.261c-3.32,0.377-3.249,5.471,0.08,5.754
		c-0.024,0-2.429,0-2.521,0c-0.754,0-2.728,0.471-2.789,2.297c-0.211,1.479,0.554,3.098,2.224,3.146
		c-0.34,0.855-2.595,6.109-3.55,9.533c-1.287-2.391-2.164-4.222-3.381-6.252V90.82c-4.426-0.722-4.424,6.452,0,5.731v1.371
		c-0.598-0.011-3.008,0.007-3.652,0c-3.561,0.092-2.917,6.204,0.676,5.459c-0.532,1.901-0.984,4.404-1.158,6.497
		c-0.377-0.778-1.54-2.776-1.949-3.51v14.112c-4.26-0.555-4.258,6.312,0,5.758v1.645c-2.065-0.309-3.496,1.124-3.182,3.159
		c0,1.269,1.045,2.302,2.329,2.302h17.291c-0.773,5.455-2.028,13.863-2.622,17.251l-80.924-57.12
		c-0.026-0.05-0.936-0.639-1.798-0.281c-1.385,0.434-6.026,6.363-6.33,7.757c-0.523,1.735,1.517,2.712,2.642,3.529
		c-0.879,1.217-4.656,6.446-5.452,7.552c1.101,0.776,5.651,3.981,6.837,4.816l-3.094,4.285c-1.213-0.854-5.709-4.021-6.836-4.815
		c-1.729,2.396-9.166,12.697-10.89,15.085l7.421,5.342c0.868-1.17,4.691-6.316,5.635-7.587l3.929,2.767
		c-0.87,1.215-4.59,6.409-5.381,7.514c2.261,1.593,8.538,6.015,10.797,7.607c1.649-2.283,6.916-9.58,8.565-11.865
		c-1.099-0.771-4.964-3.494-6.126-4.314c1.43-1.963,2.894-4.002,3.876-5.375c0.958,0.675,4.114,2.902,5.979,4.218
		c1.438-1.573,3.039-3.606,4.168-5.319c1.341,0.946,3.358,2.368,5.669,3.994c-0.834,1.155-3.181,4.405-3.979,5.512
		c1.829,1.207,3.598,2.431,5.637,3.891l-3.885,5.383c-1.129-0.795-4.479-3.154-5.555-3.911c-2.526,3.239-6.92,9.505-8.598,11.839
		c2.231,1.57,8.047,5.668,10.278,7.239c0.777-1.077,4.556-6.311,5.409-7.493l4.796,3.377c-0.878,1.215-4.61,6.388-5.41,7.494
		c1.932,1.359,5.202,3.664,7.133,5.023c1.673-2.319,9.149-12.674,10.823-14.994c-1.089-0.768-4.639-3.267-5.785-4.074
		c1.096-1.62,1.754-2.572,2.534-3.66c1.191,0.868,4.164,2.807,5.798,3.934c1.787-2.32,5.847-7.752,6.045-8.094l32.146,22.585
		c0.156,0.108,0.729,0.479,0.798,0.673h-43.836c0.054,4.703,0.036,12.238,0.025,26.474c-8.789-0.556-18.875-2.619-22.28-5.624
		c3.627-4.139-3.922-10.494-8.404-8.227c-4.58-6.057-8.874-13.061-10.815-20.383c-0.986-3.9-1.838-7.27-4.074-7.27
		c-3.805,0.429-4.421,3.236-4.308,5.499c-2.848-1.319-5.991,2.794-5.893,5.151c-3.902-2.223-5.105,4.872-4.54,5.993
		c-2.09-0.792-4.497,1.974-3.935,4.075c-2.853-1.307-4.514,2.902-3.858,5.152c-3.323,0.381-3.132,3.71-2.021,5.729
		c-2.582-1.87-5.917,0.267-4.499,3.347c4.082,8.799,16.228,19.318,23.634,25.497c-1.419,6.759,6.84,10.575,11.121,3.304
		c13.055,6.283,25.789,7.505,39.843,5.483c-0.008,7.675-0.015,15.595-0.016,23.401c-4.39,3.081-12.022,8.369-13.45,9.42
		c-6.229-5.546-16.484-0.848-12.694,7.63c-3.51,0.161-18.146,0.966-23.826,0.93c-0.927-19.794-32.001,10.097-12.683,12.349
		c-0.778,6.269-4.06,22.777-4.572,25.168c-5.109-3.343-12.869,1.785-11.298,7.782c1.203,4.896,11.759,15.387,17.083,15.391
		c4.352,0.208,8.663-5.385,6.638-9.508c1.321-0.429,5.744-1.158,5.961-1.203c10.082,17.162,48.357,35.255,65.912,46.181
		c1.376,0.547,3.67,1.023,4.443-0.662c1.921-2.354,5.952-5.332,3.259-8.643c1.934-0.979,3.201-3.894,2.375-5.542
		c2.484-1.238,2.6-3.166,1.36-5.47c0.915-0.696,2.073-2.377,0.896-3.55c-0.511-0.605-1.087-1.429-1.954-1.508
		c-4.521-0.702-9.005-1.721-13.341-2.704c-7.625-1.73-15.506-3.519-23.815-3.653c-1.327-0.604-3.078-1.625-5.161-2.987l0.01-0.035
		c-3.282-2.043-6.896-4.776-11.358-8.214c8.623,3.922,24.291-16.456,10.331-18.394l0.476-2.986
		c3.581,2.133,12.366,1.328,16.973-0.79c9.546,31.786,26.684,36.391,85.875,66.443c59.311-30.158,76.18-34.49,85.877-66.437
		c4.58,2.115,13.406,2.91,16.954,0.783l0.475,2.986c-13.958,1.938,1.708,22.313,10.331,18.394c-4.463,3.438-8.074,6.171-11.36,8.214
		l0.014,0.035c-2.084,1.362-3.836,2.384-5.163,2.987c-8.309,0.135-16.188,1.923-23.814,3.653c-4.336,0.983-8.82,2.002-13.34,2.704
		c-0.861,0.076-1.453,0.904-1.955,1.508c-1.159,1.166-0.039,2.864,0.896,3.55c-1.241,2.308-1.12,4.231,1.359,5.47
		c-0.824,1.65,0.442,4.562,2.377,5.542c-2.672,3.306,1.317,6.294,3.259,8.643c0.772,1.686,3.064,1.21,4.441,0.661
		c17.54-10.917,55.818-29.007,65.911-46.18c0.219,0.045,4.64,0.774,5.961,1.203c-2.063,4.244,2.471,9.942,6.963,9.5
		C405.772,318.016,420.826,305.683,414.621,298.114 M116.957,149.314c1.883-0.413,2.941,6.826,3.838,9.187
		c2.38,6.249,6.299,13.027,10.328,18.105C130.279,186.292,105.349,150.924,116.957,149.314 M111.39,154.554
		c1.003-0.486,0.848,0.041,1.846,3.108c3.059,8.447,11.937,20.608,14.698,22.513c0.279,0.912-1.081,2.9-1.627,2.878
		c-6.625-3.757-14.325-16.151-15.136-17.503C109.921,163.642,104.903,157.696,111.39,154.554 M104.954,159.729
		c0.498-0.16,1.381-0.632,2.378,1.441c1.209,2.51,5.765,10.43,9.895,15.275c1.898,2.227,4.89,6.006,6.762,7.576
		c1.728,1.45,1.352,1.877,0.636,3.02c-1.666,1.902-2.775,0.021-3.882-0.821c-5-4.76-9.616-7.375-16.972-20.503
		C102.41,163.291,104.625,159.521,104.954,159.729 M101.984,165.925c9.422,13.941,9.081,14.395,20.328,23.771
		c1.224,0.923-0.988,3.242-2.745,2.025c-2.306-1.507-12.851-11.668-17.394-18.792C99.814,169.229,98.785,166.361,101.984,165.925
		 M97.084,169.79c1.439-0.301,2.419,1.965,2.988,2.822c7.787,11.708,9.585,12.594,18.862,21.717
		c0.562,7.852-14.998-9.59-15.906-10.921c-0.336-0.253-4.562-5.183-6.779-8.86C95.267,172.916,95.578,171.067,97.084,169.79
		 M93.718,175.539c1.303-0.759,1.314-0.212,1.558,0.111c5.351,7.114,9.481,12.429,16.059,18.624c0.558,0.525,6.085,4.74,4.974,5.755
		c-0.968,1.681-2.804,0.46-3.678-0.131C108.596,196.601,90.411,180.968,93.718,175.539 M112.578,206.837
		c-4.484-1.412-25.682-22.115-22.979-26.426c0.585-0.601,2.367,0.049,2.974,0.84c3.946,5.144,7.417,9.734,12.325,14.156
		C107.468,198.444,116.695,203.025,112.578,206.837 M121.354,210.376c-4.499,7.239-9.812,1.265-7.084-2.725
		c2.876-4.203,18.415-29.832,18.415-29.832c1.391-1.974,7.533,1.438,6.488,4.302l-15.842,24.782
		C123.33,206.903,121.77,209.707,121.354,210.376 M162.5,215.3c-13.46,2.074-26.675,0.634-38.637-5.201
		c-0.466,0.297,15.06-23.773,15.452-24.431c4.698,3.8,16.468,5.483,23.371,5.926C162.792,198.367,162.192,210.708,162.5,215.3
		 M162.646,256.647c0.016,6.967-0.008,13.336,0.048,19.575c-3.502,2.818-10.292,2.365-13.87,1.268l0.833-6.604
		c7.04,2.838,13.561-5.425,8.7-11.464C158.065,259.5,160.564,257.911,162.646,256.647 M162.438,243.755l-0.091,9.599
		c0,0.265-3.543,2.395-5.61,3.859c-1.808-2.219-3.541-3.764-5.705-5.592C154.332,249.246,158.98,246.234,162.438,243.755
		 M140.894,250.035c6.177-1.828,14.102,7.859,16.664,12.245c1.308,4.05-1.481,7.033-5.005,7.033
		c-3.957,0.51-10.663-7.979-13.157-10.47C137.479,255.991,136.977,251.183,140.894,250.035 M113.105,293.318
		c-0.252,0.77-0.432,1.541-0.578,2.315l-4.068,0.594c0.636-4.949,2.696-16.41,4.382-25.222l23.75-0.713
		c-0.298,1.831-0.64,7.018-0.776,7.044C120.389,280.352,114.95,287.691,113.105,293.318 M134.191,285.561
		c-1.55-0.969-4.44-2.582-2.56-5.058c1.428-0.42,2.57-0.891,4.209-1.212c-0.186,1.03-0.944,7.385-1.285,9.274
		c-0.008,0.004-0.012,0.005-0.021,0.007C134.904,286.911,134.599,286.041,134.191,285.561 M125.06,291.097
		c-2.895-0.124-5.321,0.095-6.116-3.448c0.782-0.83,1.672-1.627,2.683-2.381c0.276,6.308,7.023,0.342,6.303,6.105
		c-0.273,0.194-0.669,0.499-1.111,0.923C126.382,291.804,125.812,291.337,125.06,291.097 M125.552,293.791
		c-0.528,0.736-1.054,1.785-1.317,2.723c-2.654-2.959-6.624,1.172-9.41-1.484c0.445-1.742,1.19-3.448,2.276-5.069
		C119.921,293.654,123.129,291.396,125.552,293.791 M128.897,282.984c1.176,3.844,4.402,2.063,3.779,6.195
		c-0.79,0.276-1.73,0.639-2.694,1.09c0.139-6.339-6.83-1.329-6.781-6.08c1.694-1.066,3.652-2.035,5.927-2.864
		C128.813,282.118,128.857,282.734,128.897,282.984 M134.136,290.902c-0.196,1.095-0.373,2.104-0.521,2.971
		c-2.206,0.176-4.667,0.484-6.308,0.703C128.135,293.594,130.005,292.271,134.136,290.902 M114.439,297.06
		c3.234,2.611,7.357-1.733,9.4,2.215c0.021,1.01,0.069,1.405,0.235,2.129c-3.548-2.446-6.174,2.244-9.688-0.371
		C114.265,299.715,114.27,298.385,114.439,297.06 M116.087,307.553c-0.535-1.233-0.962-2.524-1.268-3.848
		c3.697,1.961,5.809-2.205,9.726-0.657c0.419,1.085,0.97,1.99,1.52,2.719C120.415,304.484,119.46,308.774,116.087,307.553
		 M119.717,313.318c-0.76-0.881-1.48-1.824-2.115-2.856c4.912-0.951,4.252-3.796,10.107-2.89c0.674,0.572,1.365,1.314,2.392,2.102
		C122.288,309.319,124.085,314.861,119.717,313.318 M130.08,306.902l3.39-0.617c0.261,2.066,0.683,3.465,1.894,4.767
		C133.983,310.026,130.178,307.018,130.08,306.902 M121.891,315.544c1.499,0.022,3.668-1.938,4.17-3.068
		c0.328-1.364,6.845-1.893,8.876,0.913c-5.597-0.171-5.375,3.633-10.552,4.275C123.633,317.054,122.728,316.296,121.891,315.544
		 M144.113,331.568c3.2-3.758,4.199-1.682,7.222-2.952c-0.521,2.668-4.694,3.049-5.979,3.733
		C144.943,332.089,144.525,331.833,144.113,331.568 M189.76,331.539l0.664,0.784c-0.38,0.277-0.657,0.553-0.868,0.82l-17.412-0.844
		l16.986,2.893c1.043,2.26,0.98,2.108-1.203,3.58l-17.309-2.416l17.223,4.587c0.729,1.82-2.47,3.166-2.956,4.075l-15.497-5.82
		l16.672,8.355c0.454,1.146-0.403,1.819-1.221,2.755l-15.244-7.84l13.688,9.418c-0.433,0.466-0.813,0.933-1.038,1.397
		c-6.888-2.464-13.016-7.339-19.636-10.648c2.317-2.724,8.393-10.871,7.536-15.168C176.62,328.833,183.05,330.495,189.76,331.539
		 M167.915,327.001c1.008,4.164-5.045,11.813-7.399,14.429c-0.835-0.481-1.671-0.961-2.504-1.443
		c2.413-2.521,8.213-9.519,7.745-13.374C166.476,326.743,167.199,326.859,167.915,327.001 M163.245,326.174
		c0.73,3.465-5.23,10.051-7.63,12.422c-0.979-0.575-1.941-1.174-2.915-1.756c2.69-1.813,8.271-7.1,7.68-11.052
		C161.337,325.906,162.294,326.026,163.245,326.174 M153.613,329.69c0.987-2.493,1.093-3.278,1.056-4.416
		c1.081,0.047,2.143,0.15,3.209,0.247c0.686,3.572-4.767,8.296-7.544,9.892c-0.881-0.534-1.775-1.052-2.65-1.596
		C148.708,332.886,152.552,332.362,153.613,329.69 M152.208,325.077c-2.618,3.73-7.433,1.131-9.999,5.255
		c-0.398-0.263-0.79-0.535-1.188-0.8c3.851-2.409,4.096-5.246,9.477-5.309C151.107,324.553,151.682,324.843,152.208,325.077
		 M146.829,322.021c0.462,0.3,0.912,0.583,1.356,0.856c-4.324,0.687-5.167,3.996-8.978,5.434c-0.48-0.326-0.968-0.64-1.444-0.971
		C142.536,326.246,140.535,320.528,146.829,322.021 M140.524,317.629c1.031,0.758,2.063,1.499,3.09,2.219
		c-5.27,1.206-2.666,5.528-8.259,5.805c-1.224-0.874-2.704-1.939-4.291-3.078C137.199,322.154,134.828,317.323,140.524,317.629
		 M136.703,314.758c0.461,0.354,0.939,0.714,1.413,1.072c-4.911,0.846-2.601,5.248-9.479,5.001
		c-0.631-0.452-1.263-0.903-1.887-1.351c2.214-0.346,3.121-2.788,4.723-3.376C132.573,315.974,135.305,315.226,136.703,314.758
		 M144.189,295.917c17.617-2.75-9.119,27.038-8.708,8.278l-7.066,1.08c-1.541-1.937-2.862-5.809-1.836-8.487
		c1.724-0.244,6.459-0.884,8.847-0.927c0.929-5.752,3.521-27.752,3.521-27.752l-27.882,0.934c0,0-5.17,26.74-4.907,29.632
		l6.076-0.887c-0.208,2.846,0.017,6.244,0.863,8.866c-2.23,0.52-5.795,0.919-8.277,1.532c3.312,2.729,0.526,9.103-3.62,9.103
		c-4.308-0.026-14.04-9.758-15.021-13.766c-0.885-6.335,6.61-7.843,10.692-4.105c1.831-9.883,4.475-21.781,5.097-30.401
		c-18.126,0.933,9.743-26.753,8.975-8.627l25.645-0.813l10.986,10.717C147.576,270.293,145.018,289.727,144.189,295.917
		 M151.945,288.039c-0.142,0.41-0.372,1.014-0.891,1.45c-1.613-0.268-2.667-0.769-3.618-1.019c0.727-4.774,0.953-7.146,1.164-9.002
		c1.088,0.215,1.347,0.136,2.398,0.328C148.601,284.705,153.339,284.347,151.945,288.039 M156.917,289.591
		c-1.237,0.279-2.486,0.286-3.766,0.172c3.146-6.349-2.239-4.335-0.258-9.638c0.768,0.125,1.477,0.229,2.102,0.299
		c0.724,6.903,3.552,3.471,5.416,8.264C159.213,289.029,158.001,289.345,156.917,289.591 M162.439,288.08
		c-1.559-5.264-5.589-3.012-5.286-7.561c3.656-0.711,4.938-1.762,5.532-2.144c0.156,2.219,0.171,5.348,0.835,9.386
		C163.52,287.762,162.619,288.209,162.439,288.08 M379.674,111.729l-6.813,4.851l5.496,7.531l6.813-4.85l8.521,11.676
		c0,0-2.801,2.006-4.17,2.969l-5.552-7.392l-7.189,5.116l5.421,7.487l-7.461,5.313l-6.246-8.557l6.113-4.354
		c-2.788-3.753-6.285-8.613-6.285-8.613s-0.998,0.703-6.114,4.354c-1.796-2.034-3.979-5.454-3.979-5.454s-4.083,2.917-9.021,6.424
		l3.979,5.454c-1.632,1.104-5.578,3.973-5.578,3.973l6.285,8.612l5.578-3.972c1.187,1.533,6.245,8.558,6.245,8.558l-6.949,4.946
		l-5.449-7.466l-8.078,5.755l5.448,7.465l-3.803,2.709l-8.972-12.121l5.71-4.066c0,0-4.573-6.994-4.985-7.131
		c-2.222,1.67-1.981,1.484-5.771,4.111c-2.682-3.531-4.416-6.054-4.416-6.054c1.167-0.831,3.048-2.177,5.401-3.86
		c5.685-4.064,14.137-10.112,22.009-15.729c4.907-3.502,9.587-6.835,13.231-9.415c2.774-1.966,4.949-3.495,6.16-4.328
		L379.674,111.729z M372.646,95.11c0,0,4.604,5.463,4.865,6.664c0.095,0.429-87.287,61.332-87.287,61.332h-13.889L372.646,95.11z
		 M288.668,151.423l-15.712,11.471h-6.878c-1.493-11.174-2.976-18.695-2.543-29.549h22.191
		C286.279,136.994,287.681,146.594,288.668,151.423 M238.763,133.345h22.642c-0.514,9.799,1.276,18.992,2.29,29.762H236.47
		C237.486,152.325,239.275,143.154,238.763,133.345 M245.78,37.015c0.269-0.523,0.953-1.193,1.972-1.193c0.139,0,4.739,0,4.889,0
		c1.088,0,1.79,1.133,1.843,1.215c0.001,0.002,0.001,0.002,0.002,0.002c0.319,0.57,0.602,1.4,0.849,2.602c0,0-5.373-0.945-10.418,0
		C244.906,39.642,245.48,37.595,245.78,37.015 M216.851,61.354c19.771-29.117,49.664-25.195,67.252,0.983
		c-2.868,5.321-3.616-0.218-5.688-2.59c-1.032,1.354-1.677,4.429-3.525,4.94c-2.487-2.206-3.981-7.043-5.833-9.74
		c-1.905,2.669-3.29,7.715-5.946,9.75c-1.443-0.775-2.492-3.641-3.496-4.98c-0.998,1.338-2.053,4.203-3.494,4.979
		c-2.655-2.034-4.033-7.076-5.946-9.739c-1.848,2.678-3.35,7.508-5.811,9.703c-1.765-0.396-2.475-3.65-3.711-4.913
		c-1.033,1.354-1.678,4.428-3.527,4.94c-2.486-2.206-3.98-7.043-5.834-9.74c-1.904,2.67-3.289,7.715-5.944,9.75
		c-1.444-0.775-2.493-3.641-3.495-4.98c-0.811,1.346-2.126,3.64-3.096,4.838c-1.205,0.596-1.862-1.589-2.578-2.289
		C216.296,61.985,216.851,61.354,216.851,61.354 M213.003,70.858c2.668-0.573,2.959-4.662,0.348-5.564l-0.057-4.426
		c0.297,0.535,0.594,1.094,0.894,1.644c0.243,0.446,0.487,0.89,0.735,1.315c0.277,0.477,0.561,0.932,0.848,1.341
		c1.254,1.79,2.609,2.731,4.227,1.118c0.567-0.566,1.166-1.441,1.805-2.716c0.662,1.368,1.295,2.276,1.898,2.833
		c1.514,1.391,2.854,0.534,4.064-1.132c0.887-1.218,1.703-2.864,2.471-4.38c0.026-0.053,0.055-0.105,0.081-0.158
		c0.287-0.568,0.567-1.113,0.843-1.607c0.029-0.052,0.057-0.104,0.086-0.153v0.001c2.184,3.907,5.362,13.018,9.481,4.764
		c2.041,4.429,4.991,4.346,6.734,0.154c0.89-1.529,1.835-3.34,2.663-4.926c2.319,4.08,5.354,13.111,9.44,4.604
		c4.083,8.418,7.005-0.29,9.445-4.597c2.163,3.851,5.468,13.205,9.454,4.671c2.491,5.33,4.733,3.6,6.584,0.653
		c0.333-0.532,0.655-1.104,0.962-1.682c0.486-0.912,0.936-1.836,1.35-2.639v5.195c-3.127,0.629-2.829,5.477,0.36,5.707
		c-0.024,0-0.156,0-0.36,0c-0.256,0-17.305-0.001-17.927,0c3.584-0.313,3.306-5.865-0.328-5.797
		c-3.634-0.068-3.912,5.486-0.326,5.797h-18.295c3.584-0.311,3.307-5.866-0.326-5.797c-3.634-0.068-3.913,5.486-0.328,5.797h-18.294
		c3.586-0.313,3.307-5.866-0.327-5.797c-3.633-0.068-3.912,5.486-0.326,5.797H212.89h-0.279
		C212.839,70.88,212.966,70.866,213.003,70.858 M208.12,73.605c0-1.255,1.355-1.165,1.705-1.165h81.493c1.152,0,1.034,2.328,0,2.328
		c-0.825,0-79.976,0.002-81.37,0C209.294,74.769,208.12,74.767,208.12,73.605 M210.466,77.317c0.1-0.281,0.229-0.58,0.436-0.982
		h78.475c1,0.52,4.271,10.734,4.271,10.734s-1.333,2.116-2.332,3.343c-0.304,0.532-1.335,0.706-1.764,0.284
		c-1.165-1.475-2.755-4.263-3.707-5.881c-1.123,1.461-2.695,5.67-4.426,6.177c-2.787-1.308-5.583-9.679-7.501-12.306
		c-1.899,3.304-4.268,8.513-6.493,11.777c-2.341,2.326-4.312-4.34-5.357-5.617c-1.521,1.61-2.362,5.804-4.693,6.097
		c-0.346-0.048-0.643-0.231-0.841-0.515c-2.192-3.254-4.571-8.344-6.408-11.698c-1.832,3.349-4.218,8.45-6.406,11.698
		c-0.199,0.283-0.498,0.467-0.84,0.514c-2.334-0.289-3.174-4.486-4.697-6.096c-1.018,1.225-3.014,7.947-5.357,5.617
		c-2.225-3.271-4.588-8.467-6.49-11.777c-1.922,2.629-4.709,10.988-7.502,12.306c-1.729-0.501-3.303-4.718-4.428-6.177
		c-2.872,4.535-4.448,10.027-7.391,1.885C207.743,83.744,210.439,77.384,210.466,77.317 M203.23,96.16
		c0.467-0.253,2.282-2.555,0.229-4.808l-0.198-6.761c0.362,0.652,0.725,1.335,1.089,2.019c0.906,1.701,1.825,3.399,2.799,4.639
		c1.423,1.813,2.961,2.631,4.741,0.997c0.778-0.714,1.601-1.89,2.481-3.659c0.848,1.744,1.65,2.912,2.413,3.632
		c1.815,1.712,3.403,0.851,4.843-1.025c1.022-1.333,1.97-3.172,2.867-4.968c0.622-1.245,1.221-2.467,1.805-3.479
		c0.379,0.664,0.779,1.451,1.199,2.29c0.967,1.933,2.043,4.139,3.229,5.761c1.356,1.856,2.859,2.936,4.506,1.964
		c0.104-0.065,0.211-0.126,0.308-0.206c0.003-0.002,0.007-0.006,0.011-0.009c0.865-0.643,1.77-1.855,2.715-3.842
		c0.879,1.901,1.729,3.093,2.553,3.754c0.312,0.249,0.617,0.427,0.919,0.53c0.021,0.008,0.045,0.02,0.067,0.026
		c1.467,0.457,2.834-0.694,4.088-2.458c1.194-1.684,2.285-3.923,3.261-5.872c0.339-0.675,0.664-1.316,0.972-1.885
		c0.404,0.727,0.825,1.567,1.264,2.444c0.949,1.899,1.983,3.979,3.106,5.527c1.504,2.073,3.169,3.172,5.008,1.583
		c0.789-0.684,1.612-1.854,2.468-3.675c1.057,2.139,2.044,3.393,2.973,4.006c1.635,1.076,3.085,0.146,4.396-1.588
		c1.081-1.432,2.068-3.404,2.984-5.244c0.567-1.142,1.108-2.232,1.628-3.107c0.337,0.617,0.69,1.319,1.06,2.061
		c0.976,1.954,2.066,4.181,3.259,5.844c1.251,1.743,2.613,2.866,4.077,2.391c0.001-0.001,0.004-0.001,0.005-0.002
		c0.267-0.087,0.535-0.23,0.809-0.43c0.019-0.014,0.034-0.021,0.053-0.035c0.031-0.023,0.065-0.057,0.096-0.084
		c0.839-0.673,1.706-1.895,2.603-3.854c0.801,1.67,1.563,2.797,2.291,3.512c0.584,0.568,1.145,0.873,1.688,0.955
		c0.031,0.004,0.065,0.013,0.096,0.016c1.168,0.12,2.25-0.764,3.266-2.11c1.12-1.485,2.163-3.533,3.156-5.432
		c0.21-0.401,0.418-0.795,0.624-1.175l0.038,6.498c-0.688,0.227-0.949,0.762-1.254,1.324c-0.479,0.891-0.479,2.031,0.002,2.921
		c0.304,0.562,0.563,1.046,1.252,1.272v1.393c-7.833-0.053-85.913-0.063-93.839-0.022V96.16z M198.241,101.815
		c-0.441-0.002-0.691-0.374-0.717-0.628c-0.027-0.259-0.038-0.751-0.025-0.962v-0.002c0-0.002,0-0.002,0-0.002
		c0-0.1,0-0.732,0.854-0.732h100.478c0.471-0.002,1.201,0,1.886,0c0.489,0,0.957,0,1.289,0h0.001
		c0.104-0.004,0.196,0.021,0.278,0.056c0.007,0.003,0.012,0.005,0.019,0.008c0.067,0.031,0.131,0.071,0.183,0.122
		c0.095,0.09,0.167,0.205,0.219,0.338c0.129,0.328,0.138,0.75,0.036,1.105c-0.072,0.258-0.201,0.479-0.384,0.599
		c-0.007,0.005-0.015,0.009-0.021,0.013c-0.025,0.016-0.054,0.025-0.082,0.035c-0.076,0.033-0.157,0.055-0.248,0.051h-0.001
		c-0.635,0-1.396,0-2.129,0c-0.439,0-0.871,0-1.251,0C298.626,101.815,198.616,101.817,198.241,101.815 M289.829,113.591
		c-0.008,0.002-0.017,0.01-0.023,0.014l-0.011-0.014l-0.018,0.034c-0.163,0.15-0.971,1.806-1.048,1.954
		c-0.047,0.093-0.053,0.121,0.007,0.016c-0.589,1.202-2.906,6.709-4.785,4.151c-0.284-0.419-0.702-0.76-0.989-1.229
		c-0.049-0.079-0.098-0.16-0.147-0.241c-0.003-0.005-0.006-0.011-0.009-0.016c-0.676-1.117-1.357-2.348-2.028-3.609
		c-0.859-1.615-1.706-3.279-2.512-4.822c-0.423-0.814-0.839-1.592-1.234-2.313c-0.153-0.273-0.302-0.541-0.448-0.797
		c-0.731,0.996-1.638,2.893-2.636,4.969c-1.215,2.529-4.786,9.41-5.73,8.756c0,0.001-0.001,0.001-0.002,0.001h-0.001
		c-1.03-0.099-2.771-3.117-3.46-4.382c-0.506-0.927-0.97-1.781-1.372-2.33l-0.103-0.178l-0.104,0.179
		c-0.4,0.546-0.862,1.397-1.367,2.319c-0.688,1.265-1.457,2.642-2.251,3.52c-0.399,0.445-0.808,0.767-1.214,0.87h-0.002
		c0,0-0.001,0-0.001-0.001c-0.564-0.19-1.19-0.807-1.839-1.682c-1.369-1.848-2.844-4.85-4.096-7.469
		c-0.93-1.949-1.735-3.686-2.281-4.572c-0.536,0.873-1.342,2.604-2.272,4.555c-1.255,2.625-2.739,5.642-4.107,7.492
		c-0.651,0.877-1.272,1.493-1.833,1.676c-0.001,0-0.003,0.001-0.004,0.001l0,0c-0.408-0.103-0.813-0.423-1.213-0.865
		c-0.792-0.875-1.56-2.251-2.25-3.516c-0.506-0.927-0.969-1.781-1.37-2.329l-0.104-0.178l-0.105,0.179
		c-0.398,0.548-0.861,1.399-1.363,2.321c-0.691,1.264-1.458,2.641-2.252,3.52c-0.4,0.443-0.807,0.768-1.215,0.87l0,0h-0.001
		c-1.731-0.248-4.616-6.437-5.85-8.982c-0.682-1.409-1.331-2.722-1.938-3.713l-0.58-1.03l-0.056,0.101
		c-0.025-0.033-0.051-0.069-0.076-0.101c-0.438,0.883-0.93,1.873-1.453,2.916c-1.07,2.131-2.282,4.483-3.492,6.634
		c-0.732,1.304-1.465,2.532-2.162,3.585c-0.804,0.951-1.671,0.606-2.491-0.283c-0.688-0.936-1.71-2.72-2.468-4.098
		c-0.502-1.037-0.865-1.838-1.016-1.883c-0.109,0.053-0.307,0.38-0.566,0.861l-0.41,0.623c-0.146,0.225-0.343,0.586-0.616,1.088
		c-0.177,0.323-1.629,2.717-2.013,3.248c-0.449,0.492-0.91,0.832-1.357,0.919c-0.184,0.036-0.365,0.032-0.544-0.024
		c-0.228-0.074-0.453-0.23-0.669-0.49c0,0-0.002,0-0.002-0.002c-1.514-1.99-2.632-3.646-3.369-5.253
		c-0.658-1.431-1.012-2.827-1.049-4.382c-0.045-1.901,0.369-4.042,1.258-6.797h98.02c0.069,0.236,0.138,0.486,0.203,0.734
		c0.058,0.212,0.113,0.427,0.167,0.646c0.023,0.097,0.046,0.194,0.07,0.293c0.043,0.189,0.089,0.375,0.131,0.567
		c0.213,0.99,0.391,2.033,0.527,3.079c0.024,0.188,0.049,0.375,0.07,0.563c0.022,0.189,0.041,0.379,0.061,0.566
		c0.038,0.383,0.069,0.764,0.095,1.139c0.002,0.034,0.007,0.068,0.008,0.104c0.031,0.483,0.052,0.969,0.063,1.454
		c-0.001,0.001-0.002,0.001-0.002,0.003c-0.208,0.381-0.405,0.746-0.598,1.105c-0.45,0.838-0.899,1.676-1.359,2.508
		c-0.025,0.039-1.178,2.081-1.529,2.654c-0.332,0.488-0.642,0.863-0.95,1.129c-0.271,0.184-0.581,0.352-0.74,0.383
		c-0.155,0.027-0.313,0.041-0.474,0.047c-0.643-0.107-1.347-0.742-2.223-1.98c-0.742-1.051-1.611-2.537-2.676-4.508l0.359,0.545
		C290.054,113.956,289.829,113.591,289.829,113.591 M197.396,127.884v-2.343c0.117-0.092,0.211-0.203,0.308-0.312
		c0.083-0.095,0.159-0.193,0.228-0.299c0.061-0.096,0.122-0.189,0.17-0.291c0.02-0.041,0.041-0.079,0.059-0.121
		c0.305-0.728,0.305-1.59,0-2.318c-0.018-0.041-0.039-0.08-0.059-0.12c-0.048-0.103-0.109-0.197-0.17-0.292
		c-0.068-0.104-0.145-0.203-0.228-0.298c-0.097-0.109-0.19-0.222-0.308-0.313v-8.532c0.376,0.7,0.745,1.422,1.111,2.139
		c1.03,2.023,2.037,4.025,3.098,5.52c1.719,2.425,3.578,3.491,5.898,1.098c0.848-0.875,1.756-2.201,2.742-4.105
		c0.736,1.613,1.448,2.798,2.134,3.634c0.458,0.558,0.904,0.96,1.339,1.224c0.572,0.346,1.126,0.453,1.66,0.376
		c0.97-0.142,1.876-0.901,2.724-1.993c1.273-1.643,2.41-4.033,3.419-6.193c0.74-1.579,1.409-3.035,2.014-3.986
		c0.551,0.85,1.186,2.304,1.912,3.918c0.935,2.074,2.017,4.41,3.263,6.063c1.548,2.055,3.347,3.055,5.426,1.197
		c0.892-0.798,1.837-2.12,2.835-4.118c0.358,0.71,0.953,1.83,1.704,2.85c0.698,0.951,1.53,1.814,2.427,2.176
		c0.629,0.252,1.289,0.254,1.96-0.13c0.019-0.011,0.036-0.024,0.056-0.036c0.131-0.079,0.256-0.178,0.394-0.281
		c3.445-2.625,6.608-11.072,6.614-11.086c0.542,0.854,1.154,2.236,1.846,3.754c0.87,1.912,1.867,4.043,3.007,5.609
		c0.704,0.965,1.462,1.713,2.278,2.064c0.477,0.204,0.973,0.273,1.489,0.172c0.682-0.135,1.396-0.566,2.151-1.377
		c0.755-0.814,1.549-2.008,2.384-3.668c0.752,1.572,1.477,2.724,2.175,3.533c0.713,0.826,1.396,1.293,2.054,1.475
		c0.458,0.127,0.904,0.116,1.335-0.01c0.847-0.246,1.641-0.927,2.382-1.848c1.272-1.579,2.392-3.86,3.359-5.867
		c0.758-1.57,1.424-2.971,1.999-3.733c0.431,0.669,0.953,1.768,1.555,3.03c0.896,1.879,1.976,4.119,3.202,5.832
		c0.956,1.336,2.005,2.351,3.129,2.621c0.012,0,0.021,0.004,0.031,0.006c0.003,0,0.007,0,0.009,0
		c0.548,0.123,1.113,0.071,1.696-0.208c0.475-0.228,0.96-0.604,1.457-1.157c0.701-0.783,1.426-1.918,2.167-3.484
		c0.742,1.458,1.449,2.533,2.13,3.304c0.579,0.657,1.138,1.088,1.678,1.325c0.589,0.259,1.155,0.291,1.702,0.144
		c0.997-0.269,1.932-1.127,2.829-2.297c1.193-1.561,2.317-3.661,3.422-5.626c0.423-0.753,0.843-1.485,1.263-2.158v8.402
		c-0.607,0.254-1.039,0.703-1.308,1.234c-0.43,0.85-0.43,1.908,0.002,2.758c0.268,0.53,0.7,0.979,1.306,1.233v1.911v0.19H197.396
		V127.884z M194.957,131.776c-0.229,0.004-0.386-0.074-0.499-0.197c-0.148-0.161-0.219-0.398-0.244-0.653
		c-0.026-0.258-0.013-0.528,0-0.738c0-0.001,0-0.003,0-0.003c0-0.002,0.001-0.003,0.001-0.005c0.003-0.226,0.081-0.38,0.2-0.49
		c0.168-0.156,0.421-0.219,0.689-0.239c0.244-0.019,0.495-0.006,0.703,0h0.002h108.629c0.173-0.005,0.424-0.018,0.674,0
		c0.202,0.015,0.402,0.047,0.565,0.123c0.228,0.104,0.383,0.288,0.356,0.607c0,0.002,0.001,0.002,0.001,0.004
		c-0.041,0.354,0.033,0.881-0.118,1.23c-0.094,0.217-0.273,0.365-0.623,0.361c-0.002,0-0.002,0-0.003,0H194.957 M214.439,133.345
		h22.188c0.436,10.852-1.047,18.376-2.539,29.549h-6.877l-15.714-11.471C212.484,146.591,213.888,136.987,214.439,133.345
		 M167.296,145.058c-3.79-2.627-3.549-2.441-5.771-4.111c-0.411,0.137-5.435,7.576-5.435,7.576l5.71,4.066l-8.52,11.676
		l-3.805-2.709l5.449-7.465l-8.08-5.755l-5.448,7.466l-6.948-4.946c0,0,5.442-7.573,6.629-9.106l5.579,3.971l5.9-8.063
		c0,0-3.947-2.869-5.578-3.973l3.98-5.454c-4.938-3.507-9.021-6.424-9.021-6.424s-2.183,3.42-3.98,5.454
		c-5.114-3.65-6.115-4.354-6.115-4.354s-3.496,4.86-6.284,8.613l6.115,4.354l-6.246,8.557l-7.462-5.313l5.419-7.487l-7.188-5.116
		l-5.552,7.392c-1.37-0.963-4.169-2.969-4.169-2.969l8.521-11.676l6.813,4.85l5.496-7.531l-6.812-4.851l4.419-6.057
		c1.182,0.812,3.36,2.345,6.156,4.325l3.414,2.398l10.036,7.173c7.965,5.682,16.492,11.783,22.108,15.798
		c2.226,1.594,3.996,2.859,5.088,3.638C171.713,139.004,169.977,141.526,167.296,145.058 M123.071,101.65
		c-0.534-0.474,4.585-6.356,4.928-6.464c0.227,0.161,0.502,0.355,0.797,0.563l1.007,0.711c0.038,0.027,0.076,0.054,0.115,0.081
		c0.815,0.575,1.786,1.26,2.888,2.038c2.025,1.429,4.502,3.178,7.333,5.176c0.648,0.457,1.318,0.931,2.001,1.413
		c0.894,0.63,1.813,1.279,2.763,1.949c0.63,0.445,1.273,0.899,1.927,1.36c1.717,1.212,3.508,2.478,5.361,3.784
		c0.845,0.598,1.702,1.201,2.571,1.815c4.108,2.898,8.46,5.972,12.907,9.11c1.197,0.845,2.4,1.694,3.609,2.547
		c5.632,3.977,11.343,8.007,16.835,11.884c0.72,0.508,1.435,1.013,2.146,1.515l1.064,0.75c7.195,5.08,13.893,9.807,19.374,13.676
		c6.791,4.793,11.72,8.272,13.407,9.464l-14.188-0.13L123.071,101.65z M334.184,278.731c-1.049,17.731-7.757,28.959-21.388,40.381
		c-11.392,9.547-61.8,33.42-61.881,33.424c-0.207,0.012-52.699-23.662-64.105-33.353c-13.188-11.203-21.133-23.797-21.178-43.134
		c-0.039-16.584,0.175-32.319,0.176-40.091c8.859-6.442,13.602-9.142,22.813-15.097c4.202-2.718,9.735-5.484,15.21-5.41
		c7.071,0.098,13.384,3.279,17.963,6.426c5.447,3.742,10.952,10.388,17.921,11.012c4.674,0.42,8.699-1.556,12.506-4.029
		c3.378-2.197,6.752-4.65,10.715-5.443c4.704-0.941,9.624,0.637,13.677,3.18c5.57,3.497,7.729,6.447,11.552,9.663
		c2.247,1.892,10.078,6.543,19.086,5.635c4.614-0.467,8.494-2.585,12.684-4.355c4.223-1.785,9.983-1.449,14.479-0.385
		C334.781,237.243,334.797,268.354,334.184,278.731 M333.454,234.3c-4.215-0.825-9.917-0.224-14.087,1.12
		c-2.238,0.721-4.285,1.845-6.396,2.856c-5.054,2.421-12.772,1.647-16.811,0.081c-4.258-1.652-7.082-3.3-10.112-6.18
		c-6.715-6.39-13.66-12.999-25.1-10.543c-3.485,0.748-6.366,2.689-9.151,4.567c-3.817,2.574-7.416,5.011-12.47,4.556
		c-3.955-0.351-8.221-3.821-12.348-7.176c-2.979-2.423-6.061-4.927-9.08-6.294c-10.783-4.882-17.26-5.621-27.592,0.111
		c-2.923,1.621-19.422,12.219-24.778,15.666c0.006-11.238,0.02-22.463,0.032-32.617c0.019-16.233,0.033-29.392,0.009-34.436h169.034
		c-0.025,5.044-0.01,18.202,0.007,34.436c0.015,10.609,0.027,22.387,0.034,34.127C334.245,234.484,333.846,234.377,333.454,234.3
		 M353.905,250.705c6.349-3.302,10.756,2.491,6.844,8.139c-2.52,2.502-9.177,10.961-13.155,10.47
		C334.678,267.258,348.532,253.641,353.905,250.705 M349.113,251.621c-2.164,1.828-3.896,3.373-5.704,5.592
		c-2.066-1.465-5.61-3.595-5.61-3.859l-0.092-9.599C341.164,246.234,345.813,249.246,349.113,251.621 M406.13,181.251
		c0.607-0.791,2.39-1.44,2.975-0.84c4.714,2.078-29.015,37.595-23.384,22.34C392.434,196.614,400.904,189.071,406.13,181.251
		 M404.986,175.539c4.558,4.44-14.881,21.071-18.912,24.359c-0.874,0.591-2.709,1.812-3.678,0.131
		c-1.11-1.015,4.416-5.229,4.974-5.755c6.577-6.195,10.709-11.51,16.06-18.624C403.672,175.327,403.91,174.491,404.986,175.539
		 M401.62,169.79c4.254,3.196-5.65,13.082-6.24,13.676c-0.971,1.013-16.161,18.703-15.611,10.863
		c9.277-9.123,11.075-10.009,18.861-21.717C399.201,171.755,400.181,169.489,401.62,169.79 M396.719,165.925
		c9.356,1.261-14.042,23.479-17.581,25.796c-1.759,1.217-3.97-1.103-2.745-2.025C387.636,180.324,387.301,179.862,396.719,165.925
		 M393.749,159.729c5.684,5.789-9.057,20.097-15.786,26.491c-1.109,0.843-2.218,2.724-3.884,0.821
		c-0.714-1.143-1.091-1.569,0.637-3.02c1.869-1.57,4.862-5.35,6.76-7.576c4.132-4.846,8.688-12.766,9.896-15.275
		C392.37,159.098,393.252,159.569,393.749,159.729 M387.11,154.845c5.646,1.859,1.536,8.458,0.285,10.366
		c-0.348,1.026-12.628,17.896-14.998,17.841c-0.547,0.023-1.906-1.965-1.627-2.875c0.295-0.951,2.907-2.903,3.787-3.997
		C389.37,157.743,384.95,154.134,387.11,154.845 M377.907,158.501c0.899-2.36,1.956-9.6,3.839-9.187
		c2.921,0.642,2.913,2.256,2.921,4.54c0.019,6.836-6.693,16.011-11.245,20.928c-1.708,1.846-5.192,6.098-5.841,1.824
		C371.609,171.528,375.53,164.75,377.907,158.501 M361.384,178.58c0.941-0.908,3.875-2.104,4.638-0.761
		c0,0,15.538,25.629,18.414,29.832c2.932,5.834-4.347,10.39-9.06-0.748l-15.842-24.782
		C358.777,180.19,361.038,178.915,361.384,178.58 M359.394,185.668c0.457,0.765,15.807,24.548,15.451,24.431
		c-11.575,5.654-24.305,7.153-37.338,5.391c-0.01-8.229-0.02-16.091-0.028-23.996C344.43,190.957,354.927,189.28,359.394,185.668
		 M337.489,274.981c0.017-5.683,0.026-11.869,0.032-18.322c2.076,1.263,4.558,2.841,4.267,2.764
		c-4.862,6.04,1.662,14.302,8.701,11.464l0.833,6.604c-2.081,0.705-11.631,1.499-13.872-0.291
		C337.472,276.467,337.487,275.729,337.489,274.981 M337.705,288.08c-0.247-0.052-1.359-0.503-1.359-0.503
		c0.685-3.521,0.826-4.873,1.141-7.999c0.998,0.265,1.453,0.793,5.504,0.941C343.295,285.072,339.282,282.794,337.705,288.08
		 M347.233,283.551c-1.734,2.13-1.636,4.068-0.544,6.212c-3.347-0.072-4.777-0.384-7.26-1.075c1.861-4.786,4.695-1.367,5.417-8.264
		c0.623-0.07,1.333-0.174,2.101-0.299C347.138,281.082,347.994,282.616,347.233,283.551 M349.09,289.489
		c-3.754-4.871,2.746-4.184,0.057-9.692c1.052-0.192,1.309-0.113,2.398-0.328c0.21,1.856,0.436,4.228,1.162,9.002
		C351.757,288.721,350.702,289.222,349.09,289.489 M319.351,353.052l-1.453,0.232c-0.225-0.465-0.604-0.932-1.038-1.397l13.69-9.418
		l-15.244,7.84c-0.198-0.225-0.396-0.435-0.58-0.641c-0.327-0.369-0.592-0.725-0.704-1.12c-0.085-0.299-0.086-0.62,0.062-0.994
		l16.672-8.355l-15.496,5.82c-0.17-0.319-0.674-0.69-1.225-1.118c-0.671-0.521-1.405-1.125-1.7-1.813
		c-0.152-0.358-0.193-0.739-0.031-1.144l17.223-4.587l-17.309,2.416c-0.686-0.46-1.161-0.764-1.461-1.029
		c-0.391-0.35-0.475-0.642-0.327-1.15c0.098-0.341,0.296-0.776,0.585-1.4L328,332.3l-17.411,0.844
		c-0.211-0.268-0.489-0.543-0.868-0.82l0.661-0.784c6.713-1.044,13.142-2.706,19.617-4.071c-0.195,0.969-0.032,2.136,0.359,3.396
		c0.541,1.74,1.526,3.658,2.627,5.46c1.35,2.212,2.869,4.25,3.952,5.593c0.218,0.267,0.419,0.511,0.596,0.719
		C331.466,346.104,325.365,349.519,319.351,353.052 M339.629,341.43c-0.252-0.281-0.547-0.619-0.868-1.001
		c-1.106-1.317-2.551-3.18-3.812-5.179c-1.054-1.673-1.976-3.437-2.464-5.054c-0.353-1.172-0.479-2.269-0.257-3.195
		c0.717-0.142,1.44-0.258,2.158-0.389c-0.129,1.066,0.221,2.371,0.846,3.755c0.729,1.619,1.834,3.347,2.991,4.924
		c1.433,1.957,2.942,3.686,3.908,4.695C341.299,340.469,340.464,340.948,339.629,341.43 M344.531,338.596
		c-0.076-0.074-0.155-0.154-0.239-0.237c-0.022-0.022-0.047-0.048-0.07-0.071c-1.021-1.032-2.498-2.633-3.865-4.399
		c-1.056-1.365-2.047-2.828-2.705-4.197c-0.629-1.312-0.958-2.537-0.751-3.517c0.949-0.147,1.908-0.268,2.866-0.386
		c-0.176,1.174,0.195,2.466,0.871,3.75c0.847,1.606,2.171,3.198,3.514,4.53c1.196,1.189,2.404,2.172,3.294,2.771
		C346.471,337.422,345.508,338.021,344.531,338.596 M349.811,335.413c-0.933-0.545-2.138-1.409-3.313-2.452
		c-1.265-1.121-2.493-2.449-3.31-3.814c-0.728-1.22-1.126-2.469-0.923-3.625c1.066-0.097,2.129-0.2,3.21-0.247
		c-0.002,0.499,0.03,0.952,0.081,1.389c0.14,1.196,0.469,2.167,0.956,2.977c0.743,1.235,1.846,2.106,3.189,2.854
		c1.155,0.531,2.273,0.883,2.758,1.324C351.585,334.361,350.692,334.879,349.811,335.413 M354.788,332.35
		c-0.434-0.23-1.199-0.43-2.041-0.691c-1.158-0.322-2.464-0.76-3.196-1.661c-0.363-0.378-0.634-0.828-0.742-1.381
		c0.802,0.341,1.461,0.439,2.058,0.476l0.354-0.028c0.406-0.069,0.998-0.102,1.851,0.235c0.82,0.241,1.727,0.823,2.961,2.27
		C355.619,331.833,355.201,332.089,354.788,332.35 M357.934,330.332c-0.429-0.688-0.92-1.186-1.454-1.561
		c-0.938-0.66-2.01-0.929-3.099-1.136c-0.811-0.035-1.599-0.007-2.815-0.575c-0.127-0.06-0.248-0.124-0.367-0.188
		c-0.846-0.346-1.621-0.88-2.263-1.796c0.526-0.234,1.102-0.524,1.709-0.854c1.746,0.023,2.945,0.337,3.907,0.828
		c1.119,0.573,1.914,1.391,2.845,2.286c0.74,0.714,1.568,1.472,2.725,2.194C358.724,329.797,358.333,330.069,357.934,330.332
		 M360.937,328.312c-1.203-0.453-2.112-1.099-2.934-1.789c-0.946-0.798-1.773-1.655-2.788-2.351
		c-0.878-0.601-1.896-1.079-3.255-1.294c0.91-0.48,1.681-0.788,2.34-0.961c1.278-0.333,2.14-0.147,2.804,0.313
		c0.303,0.127,0.575,0.287,0.794,0.506c0.356,0.356,0.563,0.813,0.802,1.342c0.058,0.128,0.12,0.264,0.185,0.4
		c0.576,0.931,1.212,1.876,2.261,2.437c0.358,0.192,0.765,0.341,1.236,0.427C361.904,327.672,361.416,327.985,360.937,328.312
		 M364.788,325.652c-5.592-0.275-2.99-4.601-8.26-5.805c1.026-0.72,2.06-1.461,3.091-2.219c5.688-0.309,3.334,4.529,9.459,4.945
		C367.493,323.713,366.013,324.778,364.788,325.652 M371.505,320.831c-6.906,0.236-4.54-4.143-9.479-5.001
		c0.477-0.358,0.954-0.719,1.414-1.072c1.401,0.468,4.127,1.215,5.231,1.347c1.597,0.584,2.515,3.035,4.722,3.376
		C372.77,319.928,372.138,320.379,371.505,320.831 M375.759,317.664c-5.161-0.636-4.972-4.451-10.554-4.275
		c2.035-2.806,8.549-2.277,8.876-0.912c0.5,1.129,2.678,3.092,4.171,3.067C377.416,316.296,376.51,317.054,375.759,317.664
		 M364.781,311.052c1.21-1.302,1.634-2.701,1.894-4.767l3.39,0.617C369.94,307.037,366.18,310.012,364.781,311.052 M380.429,313.318
		c-4.359,1.553-2.552-3.989-10.387-3.645c1.027-0.787,1.718-1.529,2.392-2.102c5.853-0.908,5.2,1.939,10.109,2.89
		C381.907,311.494,381.188,312.438,380.429,313.318 M384.058,307.553c-3.331,1.233-4.33-3.066-9.979-1.786
		c0.55-0.729,1.102-1.634,1.521-2.719c3.914-1.548,6.031,2.618,9.727,0.657C385.02,305.028,384.594,306.319,384.058,307.553
		 M365.474,287.859c-0.373-2.418-1.002-7.642-1.17-8.568c1.638,0.321,2.781,0.792,4.209,1.212c0.77,0.628,0.605,2.631,0.103,3.068
		C366.956,285.514,365.051,285.009,365.474,287.859 M365.61,288.572c-0.009-0.002-0.013-0.003-0.021-0.007
		c-0.028-0.156-0.061-0.352-0.093-0.563C365.525,288.182,365.561,288.367,365.61,288.572 M371.016,281.325
		c2.275,0.829,4.233,1.798,5.93,2.864c0.056,4.743-6.929-0.25-6.783,6.08c-0.964-0.451-1.904-0.813-2.695-1.09
		c-0.08-0.945,0.096-2.193,0.317-2.573C368.991,285.509,372.226,284.459,371.016,281.325 M372.837,294.576
		c-1.642-0.219-4.104-0.527-6.308-0.703c-0.148-0.866-0.327-1.876-0.521-2.971C370.139,292.271,372.008,293.594,372.837,294.576
		 M372.214,291.373c-0.723-5.76,6.031,0.197,6.303-6.105c1.01,0.754,1.9,1.551,2.684,2.381c-1.244,5.367-5.396,1.749-7.876,4.647
		C372.883,291.872,372.486,291.567,372.214,291.373 M381.688,291.241c0.196-0.157,1.071-0.976,1.354-1.281
		c1.087,1.621,1.832,3.327,2.277,5.069c-2.784,2.655-6.76-1.475-9.41,1.484c-0.262-0.938-0.789-1.984-1.316-2.723
		C376.471,291.653,379.149,293.323,381.688,291.241 M385.758,301.032c-3.514,2.615-6.141-2.075-9.688,0.371
		c0.166-0.724,0.214-1.119,0.235-2.129c2.04-3.948,6.17,0.396,9.4-2.215C385.875,298.385,385.878,299.715,385.758,301.032
		 M364.331,277.337c-0.137-0.026-0.479-5.213-0.776-7.044l23.748,0.713c1.687,8.812,3.746,20.272,4.383,25.222l-4.068-0.594
		C385.655,287.654,381.2,281.095,364.331,277.337 M413.964,303.523c-0.982,4.008-10.712,13.736-15.021,13.766
		c-4.146,0-6.932-6.373-3.62-9.103c-2.481-0.613-6.045-1.013-8.277-1.532c0.848-2.622,1.073-6.021,0.863-8.866l6.076,0.887
		c0.266-2.892-4.906-29.632-4.906-29.632l-27.88-0.934c0,0,2.592,22,3.521,27.752c2.388,0.043,7.123,0.683,8.847,0.927
		c1.026,2.679-0.295,6.551-1.835,8.487l-7.067-1.08c0.409,18.76-26.322-11.028-8.708-8.278c-0.83-6.19-3.387-25.624-3.387-25.624
		l10.986-10.717l25.645,0.813c-0.769-18.127,27.101,9.561,8.976,8.627c0.62,8.62,3.266,20.519,5.097,30.401
		C407.239,295.672,414.936,297.257,413.964,303.523"/>
	<path fill="#999999" d="M248.9,338.686c-4.271-1.063-8.426-2.621-12.354-4.629c-2.152-0.188-5.423-0.601-7.582-0.913
		c0.014-0.007,0.028-0.014,0.042-0.019c-0.706-0.113-2.275-0.357-2.56-0.407l0.002,0.002c-0.52-0.095-2.289-0.416-2.806-0.518
		c0.656,0.543,1.354,1.041,2.071,1.515c0,0,0.848,0.586,1.282,0.801c2.396,1.414,5.012,2.562,7.583,3.68
		c0.234,0.102,0.468,0.203,0.699,0.305c4.236,1.845,9.847,3.974,15.668,4.052c5.229,0.069,9.092-0.467,12.52-1.742
		c0.38-0.141,0.756-0.292,1.132-0.443c-0.559,0.018-1.116,0.032-1.675,0.032C258.186,340.4,253.486,339.825,248.9,338.686"/>
	<path fill="#999999" d="M262.247,335.115c-3.928,0-7.577-0.677-10.168-1.155l-0.276-0.051c-2.13,0.346-4.61,0.521-7.425,0.521
		c-1.723,0-3.576-0.066-5.545-0.197c3.304,1.537,6.748,2.762,10.273,3.64c5.766,1.436,11.716,1.952,17.691,1.554
		c2.901-1.334,5.614-2.93,8.099-4.777c1.221-0.908,2.398-1.838,3.396-2.941c-4.171,1.724-8.548,2.826-13.046,3.267
		C264.238,335.072,263.234,335.115,262.247,335.115"/>
	<path fill="#999999" d="M277.361,323.076c-0.176,0.132-0.82,0.611-1.752,1.249c-1.099,0.752-2.345,1.604-3.668,2.267
		c-0.065,0.032-0.133,0.064-0.198,0.1c1.348-0.439,2.675-0.939,3.969-1.507c0.91-0.397,1.806-0.834,2.689-1.297
		c1.015-0.535,2.014-1.104,2.981-1.714c-0.007-0.16-0.01-0.324-0.024-0.478l0,0c-0.058-0.608-0.178-1.12-0.35-1.536
		c-0.037-0.09-0.074-0.18-0.117-0.261c-0.048,0.043-0.099,0.093-0.147,0.138l-0.427,0.399c-0.202,0.189-0.4,0.37-0.608,0.569
		C278.974,321.708,278.215,322.438,277.361,323.076"/>
	<path fill="#999999" d="M240.805,321.054c-0.276-0.097-0.542-0.194-0.798-0.293c-0.01,0.154-0.023,0.372-0.051,0.633
		c-0.112,1.116-0.379,2.494-0.779,3.46c-0.076,0.187-0.168,0.38-0.262,0.568c-0.207,0.536-0.468,1.044-0.768,1.53
		c0.401,0.12,0.801,0.241,1.201,0.359c0.354,0.104,0.709,0.21,1.062,0.313c-0.103-1.916,0.429-4.193,1.343-6.266
		C241.447,321.266,241.13,321.164,240.805,321.054"/>
	<path fill="#999999" d="M227.287,315.49c-0.005-0.049-1.942,0.201-2.834,0.429c-1.678,0.43-3.244,1.369-3.669,1.63
		c0.229,0.426,0.519,0.892,0.88,1.368c0.758,0.998,1.575,1.711,2.248,2.201c0.067-0.357,0.194-0.895,0.457-1.507
		c0.208-0.485,0.782-1.522,1.544-2.522c0.109-0.144,0.221-0.29,0.334-0.432c0.16-0.226,0.289-0.397,0.362-0.481
		c0.221-0.251,0.444-0.474,0.666-0.67l0,0c0.003-0.003,0.005-0.007,0.009-0.01C227.285,315.495,227.287,315.492,227.287,315.49"/>
	<path fill="#999999" d="M277.213,317.888c-0.638,0.026-1.112,0.085-1.603,0.198c-0.234,0.055-0.427,0.11-0.563,0.152
		c0.003,0.007,0.006,0.011,0.01,0.018c0.419,0.422,0.839,1.506,0.882,1.602c0.02,0.046,0.409,0.937,0.53,1.959
		c0.646-0.438,1.173-0.841,1.572-1.159c0.516-0.413,0.815-0.675,1.694-1.441c0.365-0.317,0.458-0.431,0.651-0.593
		c-0.407-0.34-0.724-0.528-1.416-0.65C278.489,317.887,277.957,317.858,277.213,317.888"/>
	<path fill="#999999" d="M210.691,286.513c0-0.027,0.093-2.876,0.914-3.313c0.189-0.101,0.399-0.085,0.592,0.047
		c0.281,0.191,0.635,0.771,0.619,1.122c-0.007,0.174-0.019,0.382-0.035,0.619c-0.062,1.01-0.156,2.535-0.026,4.53
		c0.507,7.78,2.708,16.45,6.194,24.419c0.063,0.146,0.114,0.259,0.144,0.35c0.327,0.576,0.741,1.42,0.958,1.873
		c0.213-0.155,0.496-0.354,0.686-0.463c0.262-0.148,0.936-0.446,1.313-0.611c-2.574-5.777-3.896-15.744-4.238-20.271
		c-0.625-8.235-0.235-8.621-0.049-8.806c0.34-0.336,0.627-0.325,0.81-0.251c0.708,0.275,0.909,1.955,0.991,4.393
		c0.17,5.036,0.444,8.467,0.916,11.473c0.593,3.785,3.039,11.355,3.523,12.834c2.152-0.574,3.105-0.541,3.691-0.515
		c0.041,0.001,0.08,0.003,0.118,0.004l-0.069-0.316c-1.086-4.928-3.111-14.103-2.568-18.923c0.029-0.248,0.048-0.511,0.068-0.766
		c0.076-0.975,0.131-1.681,0.555-1.836c0.174-0.071,0.383-0.027,0.565,0.113c0.374,0.287,0.719,1.066,0.562,2.384
		c-0.429,3.604,1.6,14.077,2.869,19.005c0.113-0.046,0.219-0.095,0.416-0.22c0.33-0.211,1.449-0.994,1.979-2.241
		c0.176-0.413,0.178-0.607,0.181-1.256c0.001-0.201,0.003-0.446,0.01-0.742c-0.058-0.701-0.055-1.412,0.011-2.205
		c0.012-1.489,1.133-3.194,1.701-3.731c0.194-0.185,0.46-0.384,0.679-0.519c-0.756-2.879-1.514-6.202-1.614-9.446
		c-0.837,0.814-2.084,1.978-2.452,2.065c-0.642,0.152-1.224-0.255-1.608-0.577c-1.335-1.119-2.392-2.543-3.074-4.136
		c-0.398,0.285-0.901,0.445-1.434,0.45c-0.689-0.018-1.33-0.249-1.767-0.704c-0.423-0.44-0.645-1.005-0.821-1.499
		c-0.295-0.831-0.486-1.695-0.674-2.532c-0.147-0.666-0.299-1.353-0.502-2.011c-0.145,0.071-0.323,0.167-0.48,0.251
		c-1.126,0.597-1.541,0.787-1.816,0.679c-0.367-0.142-0.623-0.753-0.875-1.419l-0.068-0.181c-0.235-0.573-0.46-1.622-0.678-2.634
		c-0.104-0.481-0.203-0.942-0.293-1.295c-2.591,2.496-4.537,3.253-5.729,3.447c-0.029,0.004-2.783,0.405-3.146-0.12
		c-0.078-0.113-0.08-0.254-0.01-0.376c0.377-0.631,0.606-1.092,0.746-1.419c-0.885,0.696-2.379,1.437-4.867,0.66
		c-0.369-0.114-0.631-0.235-0.801-0.369c-0.338,0.305-0.952,0.805-1.462,0.96c-1.392,0.43-2.267,0.393-2.677-0.113
		c-0.25-0.307-0.259-0.716-0.184-1.092l-1.213,0.958c0.566,4.559,1.411,9.093,2.51,13.481c1.215,4.845,2.414,8.254,3.021,9.854
		c0.715,1.887,1.692,4.474,3.436,7.667c1.068,1.96,2.272,3.87,3.58,5.682c0.461-0.908,1.404-2.786,1.652-3.281
		c-0.682-1.407-6.764-14.291-7.195-27.792c-0.092-1.451-0.213-4.887,0.679-5.271c0.06-0.024,0.13-0.044,0.212-0.044
		c0.158,0,0.357,0.072,0.578,0.304l0.054,0.079c0.212,0.477,0.216,0.764,0.222,1.461c0.012,1.2,0.035,3.7,1.1,10.819
		c0.783,5.238,2.586,11.231,5.672,18.857c0.203,0.533,0.887,2.264,1.639,3.426c0.184,0.281,1.069,1.622,1.902,2.366
		c0.602-0.961,1.221-1.863,2.004-2.539C216.603,314.095,210.987,302.447,210.691,286.513"/>
	<path fill="#999999" d="M301.561,281.325c0.018,0.232-0.021,0.467-0.167,0.67c-0.372,0.514-1.249,0.615-2.686,0.312
		c-0.504-0.104-1.324-0.609-1.833-0.947c-0.053,0.138-0.148,0.304-0.321,0.473c-0.49,0.475-1.962,0.68-3.485,0.177
		c-0.543-0.179-1.055-0.434-1.532-0.765c0.177,0.351,0.429,0.813,0.785,1.412c0.072,0.122,0.068,0.263-0.011,0.376
		c-0.364,0.525-3.116,0.124-3.145,0.12c-2.6-0.421-4.768-2.449-5.809-3.425c-0.067-0.063-0.135-0.125-0.198-0.184
		c-0.089,1.121-0.379,2.978-0.683,4.062c-0.005,0.013-0.406,1.418-0.955,1.629c-0.271,0.103-0.688-0.081-1.815-0.68
		c-0.156-0.084-0.337-0.18-0.48-0.251c-0.205,0.659-0.356,1.347-0.504,2.015c-0.187,0.834-0.379,1.698-0.672,2.528
		c-0.178,0.494-0.4,1.061-0.82,1.501c-0.433,0.447-1.067,0.702-1.746,0.702h-0.021c-0.533-0.003-1.035-0.164-1.435-0.45
		c-0.683,1.593-1.74,3.018-3.075,4.138c-0.381,0.32-0.966,0.731-1.608,0.575c-0.365-0.09-1.605-1.245-2.442-2.058
		c-0.01,1.18-0.048,2.14-0.212,3.056c-0.54,3.039-1.105,4.869-1.549,6.123c0.253,0.16,0.406,0.291,0.413,0.298
		c0.256,0.219,0.441,0.438,0.527,0.549c0.188,0.238,0.744,1.058,0.996,1.676c0.387,0.94,0.589,1.937,0.656,3.229
		c0.034,0.714,0.038,1.208,0.039,1.565c0.005,0.649,0.006,0.843,0.181,1.255c0.287,0.676,0.722,1.145,1.154,1.52l0.387-1.346
		c1.557-5.405,3.908-13.568,3.629-16.585c-0.125-1.345,0.218-2.115,0.582-2.388c0.176-0.132,0.374-0.169,0.547-0.102
		c0.346,0.128,0.584,0.625,0.623,2.628c0.065,3.352-2.328,11.935-3.757,17.063c-0.181,0.646-0.348,1.245-0.493,1.775
		c0.146,0.069,0.354,0.173,0.608,0.317c0.542,0.306,1.554,0.874,2.511,1.964c0.209,0.238,0.438,0.572,0.64,0.866l0.008,0.01
		l0.2-0.024c1.695-3.221,4.531-12.872,4.978-15.092c0.588-2.905,0.744-6.425,0.916-11.462c0.081-2.438,0.282-4.119,0.989-4.394
		c0.18-0.073,0.469-0.084,0.809,0.252c0.188,0.186,0.58,0.568-0.047,8.807l-0.062,0.885c-0.281,3.983-0.595,8.495-5.57,20.834
		c0.281-0.008,0.534-0.015,0.776-0.015c1.224,0,2.175,0.1,2.887,0.301c3.128-8.873,6.587-20.62,7.023-27.3
		c0.131-1.997,0.036-3.523-0.025-4.534c-0.016-0.236-0.027-0.443-0.035-0.615c-0.016-0.354,0.337-0.933,0.617-1.124
		c0.194-0.131,0.404-0.146,0.593-0.049c0.818,0.435,0.916,3.287,0.916,3.316c-0.198,10.577-3.786,20.75-6.405,28.178
		c-0.388,1.103-0.753,2.137-1.08,3.098c0.141,0.153,0.229,0.271,0.229,0.271c0.075,0.098,0.146,0.209,0.215,0.332
		c0.893-0.441,2.272-1.29,3.072-1.962c1.074-0.905,1.631-1.907,1.995-2.678c3.828-8.113,5.53-18.452,5.547-18.556
		c0.58-3.576,1.058-9.025,1.086-10.031c0.009-0.316,0.012-0.571,0.014-0.782c0.007-0.699,0.01-0.988,0.223-1.464l0.053-0.078
		c0.335-0.35,0.617-0.334,0.79-0.259c0.891,0.383,0.771,3.819,0.677,5.28c-0.431,13.509-6.527,26.409-7.195,27.786
		c0.114,0.213,0.355,0.498,0.588,0.775c0.151,0.18,0.307,0.366,0.449,0.551c0.269,0.356,0.565,0.731,0.749,0.96
		c0.962-0.877,3.043-3.985,3.45-4.694c1.602-2.779,2.488-5.146,3.202-7.045l0.233-0.619c0.609-1.612,1.812-5.038,3.021-9.854
		c0.63-2.518,1.795-7.638,2.571-13.844c-0.293-0.074-0.575-0.175-0.842-0.307C301.848,281.499,301.701,281.416,301.561,281.325"/>
	<path fill="#999999" d="M221.253,325.932c0.828,0.332,2.837,0.88,3.701,1.108c1.818,0.455,3.659,0.811,5.512,1.105
		c0.134,0.021,0.265,0.047,0.398,0.066c0.352,0.055,0.705,0.1,1.057,0.149c0.353,0.053,0.703,0.106,1.057,0.152
		c0.64,0.084,1.282,0.159,1.923,0.231c2.185,0.244,4.378,0.42,6.572,0.535c-1.332-0.319-2.701-0.679-4.222-1.079
		c-0.019,0.023-0.149-0.014-0.361-0.095c-0.327-0.087-0.676-0.183-1.038-0.282c-0.046-0.014-0.094-0.026-0.14-0.039
		c-0.191-0.054-0.385-0.107-0.584-0.165c-0.04-0.011-0.082-0.023-0.121-0.035c-0.346-0.1-0.705-0.206-1.076-0.32
		c-0.152-0.046-0.304-0.092-0.462-0.142c-0.141-0.044-0.285-0.09-0.429-0.136c-0.179-0.058-0.355-0.114-0.539-0.174
		c-0.141-0.047-0.283-0.094-0.429-0.142c-0.198-0.067-0.403-0.137-0.609-0.208c-0.136-0.046-0.272-0.094-0.411-0.143
		c-0.234-0.083-0.474-0.167-0.715-0.256c-0.12-0.043-0.238-0.086-0.361-0.131c-0.367-0.136-0.739-0.275-1.123-0.425
		c-0.059-0.023-0.121-0.049-0.183-0.073c-0.035-0.014-0.067-0.026-0.101-0.04c-0.003,0.003-0.006,0.006-0.01,0.009l-0.153-0.063
		c0.003-0.003,0.006-0.007,0.009-0.009c-0.043-0.017-0.086-0.034-0.131-0.051c-0.119-0.049-0.237-0.096-0.36-0.146
		c-0.987-0.407-2.033-0.889-3.095-1.498c-0.505-0.248-0.887-0.507-1.221-0.767c-0.395-0.264-0.787-0.543-1.178-0.851
		c-0.235-0.188-0.453-0.373-0.662-0.559c-0.242-0.215-0.469-0.431-0.68-0.647c-0.633-0.652-1.127-1.319-1.512-2.043
		c-0.189,0.528-0.381,1.063-0.557,1.603c-0.359,1.1-0.65,2.221-0.706,3.375c-0.008,0.163-0.083,0.458,0.011,0.589
		C218.611,324.734,220.653,325.693,221.253,325.932"/>
	<path fill="#999999" d="M257.835,331.184c0.194-0.093,0.381-0.205,0.573-0.305c-1.642,0.146-5.074,0.289-10.049-0.33
		c-0.694-0.088-1.348-0.185-1.985-0.285c-0.057-0.002-0.115-0.004-0.172-0.004c-3.412-0.022-7.043-0.231-10.557-0.594
		c-0.791-0.053-1.057-0.11-1.766-0.189c-0.371-0.046-0.74-0.092-1.11-0.139c-1.714-0.228-3.423-0.5-5.117-0.835
		c-0.86-0.17-1.735-0.353-2.608-0.557c0,0.008,0,0.014,0.002,0.021c-1.264-0.332-3.658-1.03-4.82-1.561
		c-0.35-0.16-1.119-0.523-1.889-1.021c0.06,0.364,0.162,0.724,0.311,1.063c0.018,0.038,0.04,0.092,0.073,0.164
		c0.28,0.611,0.644,1.178,0.821,1.449c0.338,0.519,0.547,0.837,0.898,1.249c0.073,0.086,0.379,0.44,0.84,0.867
		c0.427,0.394,0.825,0.698,1.15,0.926c0.73,0.154,2.421,0.487,3.298,0.655l-0.007-0.013c0.922,0.168,3.438,0.562,4.587,0.742
		c0.008-0.005,0.015-0.007,0.022-0.011c1.756,0.234,4.623,0.602,6.374,0.753c6.128,0.531,11.186,0.477,15.038-0.16
		c1.655-0.273,2.943-0.63,3.983-0.997C256.58,331.771,257.271,331.463,257.835,331.184"/>
	<path fill="#999999" d="M276.056,325.951c-2.754,1.205-5.643,2.127-8.604,2.757c-0.013,0.005-0.026,0.009-0.04,0.016
		c-0.457,0.189-0.923,0.372-1.393,0.547l0.023,0.016l-0.192,0.045c-0.584,0.212-1.175,0.397-1.771,0.567
		c-0.323,0.093-0.645,0.188-0.972,0.264c-0.977,0.228-1.846,0.379-2.606,0.484c-0.743,0.465-1.504,0.903-2.287,1.288
		c-0.147,0.072-0.308,0.148-0.473,0.226c-0.918,0.427-2.103,0.898-3.717,1.299c3.07,0.533,7.074,1.078,11.14,0.68
		c4.914-0.481,9.684-1.77,14.19-3.812c0.496-0.751,0.921-1.574,1.222-2.521c0.385-1.212,0.742-3.003,0.809-4.646
		c-0.986,0.604-1.999,1.167-3.031,1.696C277.597,325.241,276.833,325.61,276.056,325.951"/>
	<path fill="#999999" d="M259.617,329.309c0.941-0.108,1.945-0.264,3.154-0.545c0.251-0.058,0.5-0.127,0.748-0.197
		c-0.662-0.642-1.282-1.547-2.329-3.373c-0.545-0.953-0.81-2.108-0.912-3.274c-0.202,0.072-0.482,0.197-0.912,0.261
		c-0.091,0.015-0.229,0.035-0.366,0.057c0.396,0.958,0.688,2,0.813,3.186c0.126,1.201-0.013,2.34-0.145,3.441
		C259.65,329.01,259.634,329.159,259.617,329.309"/>
	<path fill="#999999" d="M216.652,277.221c0.218-0.272,0.229-0.337,0.319-0.823c0.058-0.303,0.14-0.742,0.315-1.452
		c1.192-4.802,3.625-7.623,4.689-8.676c-2.422-0.545-3.265-2.398-3.238-4.216c-0.171,0.147-0.342,0.3-0.446,0.392
		c-2.119,1.897-4.027,7.554-4.819,10.597l-0.002,0.009c-0.433,1.943-1.26,3.604-2.308,5.708c-0.409,0.822-0.868,1.746-1.353,2.782
		C210.838,281.421,214.115,280.401,216.652,277.221"/>
	<path fill="#999999" d="M223.108,285.133l0.123,0.425c0.597,2.052,0.597,2.053,0.604,2.111c0.148,0.856,0.545,1.261,0.867,1.351
		c0.125-0.028,0.797-0.605,1.416-1.826l0.004-0.01c0.582-1.048,4.838-9.438,5.816-11.703c-0.514-0.16-1.008-0.368-1.637-0.682
		c-0.742-0.373-1.294-0.759-1.881-1.164c-0.109-0.078-0.224-0.157-0.338-0.235c-0.568,1.159-1.175,2.318-1.809,3.448
		c-1.121,2-2.353,3.966-3.659,5.845c-0.03,0.045-0.071,0.102-0.122,0.169l0.593,2.192l-0.251,0.155L223.108,285.133z"/>
	<path fill="#999999" d="M230.116,293.285c0.416-0.084,1.949-1.463,2.619-2.354c0.359-2.316,1.381-6.932,2.473-9.665
		c0.565-1.418,1.297-2.842,1.861-3.872l-0.086-0.023c-0.557-0.161-1.188-0.342-1.741-0.567c-0.333-0.135-0.588-0.217-0.815-0.289
		c-0.271-0.088-0.515-0.169-0.801-0.304c-0.564,1.188-2.395,5.236-2.938,6.552c-0.208,0.503-0.923,1.961-1.615,3.37
		c-0.637,1.298-1.293,2.638-1.521,3.168l0.006,0.019C228.027,290.863,228.889,292.199,230.116,293.285"/>
	<path fill="#999999" d="M219.29,283.181c0.191-0.1,0.654-0.511,0.841-0.674c0.104-0.093,0.192-0.172,0.249-0.216
		c0.513-0.404,0.951-1.009,1.371-1.598c0.104-0.14,0.205-0.279,0.305-0.415c1.195-1.605,2.172-3.388,3.117-5.111l0.52-0.933
		c0.104-0.182,0.211-0.363,0.293-0.552c0.029-0.063,0.156-0.292,0.913-1.545c-0.9-1.002-2.702-3.892-3.221-5.289
		c-0.49,0.157-0.987,0.861-1.3,1.303l-0.125,0.175c-0.572,0.791-1.143,1.69-1.744,2.743c-0.893,1.571-1.363,3.304-1.675,4.638
		l-0.075,0.326c-0.317,1.35-0.508,2.165-0.29,3.577C218.794,281.698,219.113,282.885,219.29,283.181"/>
	<path fill="#999999" d="M206.141,280.432c0.887-0.215,2.563-0.967,3.835-3.593l0.08-0.165c0.364-0.748,0.862-1.771,1.613-3.836
		c0.389-1.072,0.697-2.006,0.985-2.871c0.604-1.82,1.125-3.392,2.077-5.298c0.238-0.474,0.541-1.049,0.992-1.725
		c0.656-0.992,1.434-1.903,2.311-2.723c-2.021-0.479-2.863-1.974-3.115-2.844c-0.152,0.161-0.293,0.328-0.383,0.439
		c-1.083,1.336-4.702,6.085-5.857,11.146c-0.146,0.759-0.449,2.095-0.715,3.276c-0.212,0.938-0.401,1.78-0.479,2.174
		c-0.355,1.821-0.771,3.432-2.559,6.073C205.144,280.536,205.568,280.567,206.141,280.432"/>
	<path fill="#999999" d="M208.478,263.787c1.654-3.762,5.107-8.054,5.859-8.968c-0.219-0.274-0.634-0.796-0.824-1.076
		c-0.254-0.375-0.357-0.854-0.441-1.238c-0.02-0.092-0.043-0.199-0.066-0.287c-0.9,0.771-4.305,5.561-6.172,9.308
		c-2.076,4.162-3.571,10.509-4.121,13.043c-0.164,0.778-0.644,2.818-0.804,3.27c-0.279,0.784-0.759,1.767-1.109,2.483
		c-0.083,0.172-0.172,0.354-0.246,0.51c2.818-0.674,4.515-2.818,5.043-6.381c0.116-0.781,0.997-4.921,1.188-5.789
		C207.097,267,207.684,265.593,208.478,263.787"/>
	<path fill="#999999" d="M282.915,276.628c0.093,0.495,0.108,0.583,0.348,0.883c2.784,3.494,6.392,4.387,7.15,4.387h0.028
		c-0.521-1.125-1.015-2.118-1.451-2.995c-1.043-2.095-1.867-3.752-2.297-5.682l-0.002-0.011c-0.22-0.84-2.224-8.3-4.862-10.662
		c-0.147-0.132-0.469-0.414-0.696-0.611c0.082,1.235-0.133,3.885-3.374,4.453c0.922,0.863,3.58,3.707,4.842,8.791
		C282.777,275.887,282.86,276.332,282.915,276.628"/>
	<path fill="#999999" d="M294.308,280.853c0.548,0.065,0.898-0.027,1.012-0.092c-1.858-2.706-2.282-4.33-2.642-6.169
		c-0.075-0.396-0.271-1.261-0.479-2.179c-0.266-1.179-0.568-2.518-0.715-3.28c-1.162-5.089-4.798-9.857-5.884-11.198
		c-0.127-0.157-0.35-0.421-0.57-0.629c-0.135,0.767-0.952,2.605-3.334,3.04c0.951,0.856,1.787,1.824,2.489,2.879
		c0.446,0.67,0.745,1.24,0.98,1.711c0.949,1.896,1.47,3.464,2.07,5.278c0.295,0.886,0.599,1.802,0.987,2.874
		c0.754,2.073,1.254,3.1,1.619,3.851l0.078,0.165C291.425,280.207,293.49,280.759,294.308,280.853"/>
	<path fill="#999999" d="M299.877,281.053c0.104,0,0.204-0.006,0.31-0.019c0.005,0,0.012,0,0.018,0
		c-0.04-0.256-0.442-1.178-1.786-3.294c-0.244-0.383-0.942-2.415-1.132-3.295c-0.548-2.539-2.048-8.896-4.131-13.074
		c-1.251-2.514-3.1-5.83-6.323-9.301c-0.119,0.76-0.261,1.276-0.426,1.539c-0.377,0.595-0.731,0.841-0.943,0.989
		c-0.047,0.033-0.108,0.074-0.141,0.104c0.491,0.59,4.198,5.107,5.932,9.045c0.791,1.797,1.374,3.197,1.687,4.853
		c0.06,0.276,0.177,0.898,0.312,1.615c0.287,1.54,0.684,3.648,0.868,4.133C295.774,278.693,297.808,281.053,299.877,281.053"/>
	<path fill="#999999" d="M278.443,281.393c0.604,0.772,1.313,1.457,2.107,2.037c0.077,0.055,0.147,0.101,0.212,0.103h0.004
		c0.055,0,0.089-0.056,0.145-0.19l0.014-0.034c0.23-0.523,0.345-1.111,0.454-1.683l0.041-0.21c0.097-0.483,0.187-0.999,0.277-1.58
		c0.222-1.438,0.018-2.312-0.292-3.627l-0.076-0.328c-0.314-1.345-0.789-3.092-1.69-4.674c-0.601-1.058-1.174-1.96-1.751-2.759
		l-0.126-0.175c-0.347-0.492-0.917-1.299-1.505-1.384c-0.46,1.427-2.073,4.341-3.299,5.443c0.933,1.546,0.95,1.598,0.958,1.622
		c0.078,0.179,0.188,0.369,0.296,0.554c0.049,0.084,0.098,0.168,0.144,0.25l0.374,0.682c0.615,1.125,1.252,2.286,1.945,3.39
		c0.342,0.545,0.635,0.983,0.92,1.379c0.103,0.141,0.202,0.285,0.304,0.43C278.072,280.889,278.252,281.148,278.443,281.393"/>
	<path fill="#999999" d="M275.424,289.065c0.017,0,0.031-0.002,0.043-0.006c0.705-0.197,0.843-0.507,1.117-1.254
		c0.244-0.668,0.457-1.35,0.632-2.025c0.019-0.07,0.036-0.137,0.053-0.205c0.125-0.5,0.222-1.015,0.316-1.512
		c0.019-0.09,0.037-0.166,0.061-0.249c0.052-0.199,0.162-0.617,0.082-0.726l-0.049-0.061c-0.062-0.083-0.115-0.154-0.156-0.216
		c-1.301-1.87-2.53-3.834-3.647-5.828c-0.66-1.177-1.291-2.383-1.877-3.588c-0.163,0.11-0.321,0.22-0.478,0.326
		c-0.579,0.405-1.128,0.786-1.863,1.154c-0.68,0.341-1.204,0.557-1.762,0.723c0.854,2.04,5.287,10.783,5.881,11.856
		C274.345,288.571,275.149,289.065,275.424,289.065"/>
	<path fill="#999999" d="M266.464,276.223c-0.747,0.359-2.571,0.93-3.718,1.286c0.574,1.037,1.346,2.528,1.939,4.013
		c1.283,3.211,1.988,6.223,2.097,8.948c0.719,0.972,2.759,2.979,3.106,2.913c2.276-2.358,2.599-3.432,2.719-3.835
		c0.007-0.019,0.011-0.037,0.016-0.053c-0.211-0.499-0.888-1.882-1.545-3.22c-0.691-1.407-1.403-2.864-1.61-3.363
		C268.903,281.542,266.943,277.213,266.464,276.223"/>
	<path fill="#999999" d="M300.25,266.623c-0.198-0.555-0.397-1.111-0.593-1.688c-0.031-0.092-0.08-0.214-0.142-0.361
		c-0.063-0.154-0.14-0.338-0.218-0.543c-2.968-7.836-7.587-13.401-8.219-14.022c-0.58,0.197-1.182,0.323-1.795,0.376
		c-0.59,0.047-1.176,0.03-1.757-0.057c0.233,0.315,0.559,0.748,0.945,1.262c1.896,2.514,5.066,6.721,5.967,8.746
		c1.148,2.585,2.405,5.708,4.017,12.866c0.771,3.435,2.782,6.36,4.601,6.716c0.05-0.195,0.05-0.934-0.322-3.522
		C302.048,271.65,301.134,269.095,300.25,266.623"/>
	<path fill="#999999" d="M249.954,261.439c-0.596-0.815-1.7-0.922-1.906-0.941c-1.809-0.172-3.147,1.379-3.584,1.884
		c-0.302,0.35-0.705,0.904-0.992,1.656c-0.352,0.926-0.36,1.711-0.36,2.111c-0.013,6.341,0.446,9.096,0.446,9.096
		c0.173,1.034,0.6,3.41,1.488,6.356c0,0,0.919,3.403,2.938,6.028c0.465,0.605,1.659,1.724,2.146,1.498
		c-1.04-2.326-1.595-4.228-1.71-4.502c-0.243-0.593-1.42-4.353-1.622-7.469c-0.312-4.79,0.429-10.321-0.072-14.261
		c0.044-0.045,0.118-0.106,0.208-0.104c0.567,0.015,0.716,1.857,0.772,3.131c0.127,2.847-0.015,5.032-0.115,6.272
		c-0.257,3.158-0.138,4.413,0.086,5.987c0.606,4.267,2.887,10.561,3.081,10.69c0.075,0.051,0.101-0.595,0.172-1.214
		c0-0.001-0.057-1.104-0.058-1.47c-0.013-3.437-0.421-8.628-0.421-8.628c-0.009-3.962-0.144-6.584-0.075-10.51
		C250.39,266.123,250.358,261.993,249.954,261.439"/>
	<path fill="#999999" d="M201.269,273.263c1.614-7.176,2.926-10.417,4.025-12.891c0.908-2.043,3.994-6.152,5.837-8.608
		c0.331-0.438,0.616-0.82,0.833-1.116l-3.119-0.41c-0.716,0.739-5.265,6.321-8.149,13.935c-0.077,0.202-0.151,0.382-0.213,0.536
		c-0.062,0.15-0.112,0.273-0.144,0.363c-0.197,0.579-0.396,1.134-0.593,1.689c-0.882,2.467-1.795,5.016-2.48,9.749
		c-0.311,2.165-0.358,3.008-0.341,3.329C198.654,279.37,200.527,276.556,201.269,273.263"/>
	<path fill="#999999" d="M258.357,325.784c-0.322-3.086-1.922-5.208-3.674-7.289c-0.342-0.406-0.605-0.758-0.833-1.106
		c-1.018-1.559-1.503-3.225-1.364-4.686c0.061-0.656,0.255-1.251,0.425-1.779c0.402-1.241,0.373-1.621,0.352-1.926l-0.01-0.12
		c-0.044-0.866-0.36-1.53-0.478-1.78c-0.172-0.359-0.364-0.679-0.575-0.941c-0.127-0.159-0.216-0.138-0.464-0.049
		c-0.096,0.031-0.2,0.069-0.316,0.092c-0.551,0.108-1.116,0.131-1.686,0.061c-0.102-0.012-0.257-0.031-0.423-0.054
		c-0.292-0.039-0.622-0.083-0.8-0.102c-0.006,0-0.012-0.001-0.018-0.001c-0.281,0-0.767,0.669-0.932,0.894
		c-0.043,0.06-0.076,0.106-0.097,0.131c-0.149,0.178-0.271,0.43-0.391,0.673c-0.053,0.115-0.104,0.222-0.157,0.318
		c-0.595,1.098-0.456,2.192-0.217,3.215c0.099,0.414,0.209,0.882,0.272,1.407c0.028,0.211,0.054,0.416,0.083,0.612
		c0.236,1.708,0.405,2.942-1.353,4.497c-2.496,2.208-3.569,4.998-3.937,10.271c1.539,0.35,3.219,0.646,4.993,0.882
		c0.798-1.01,1.308-3.69,0.773-6.042c-0.006-0.024-0.41-2.422,0.021-2.56c0.197-0.067,0.324,0.209,0.391,0.359
		c1.233,2.769,1.387,5.835,0.427,8.438l0.072,0.009c0.016,0.002,1.378,0.168,3.215,0.292c0.058,0.003,0.117,0.008,0.176,0.012
		c-0.923-2.685-0.666-5.802,0.716-8.588c0.073-0.146,0.204-0.427,0.406-0.345c0.425,0.156-0.077,2.535-0.084,2.56
		c-0.646,2.376-0.529,3.957,0.49,6.454c1.861,0.076,3.474,0.058,4.787-0.061l0.003-0.032c0.021-0.192,0.039-0.385,0.062-0.569
		C258.346,327.855,258.469,326.841,258.357,325.784 M248.288,309.789c-0.156,0.41-0.479,0.701-0.609,0.779
		c-0.024,0.013-0.049,0.02-0.073,0.02c-0.049,0-0.098-0.025-0.125-0.069c-0.041-0.068-0.019-0.155,0.052-0.194
		c0.023-0.015,0.064-0.05,0.113-0.096c0.116-0.109,0.28-0.298,0.372-0.538c0.029-0.08,0.055-0.158,0.078-0.236
		c-0.085,0.075-0.197,0.147-0.343,0.205c-0.133,0.053-0.292,0.096-0.489,0.112c-0.023,0.003-0.048,0.001-0.072-0.001
		c-0.084-0.013-0.163-0.055-0.216-0.121c-0.2-0.248-0.278-0.504-0.237-0.762c0.082-0.486,0.577-0.804,0.905-1.015
		c0.144-0.092,0.329-0.056,0.434,0.072c0.038,0.008,0.073,0.028,0.096,0.063C248.602,308.702,248.482,309.273,248.288,309.789
		 M251.669,309.821c0.092,0.243,0.255,0.431,0.372,0.54c0.048,0.045,0.09,0.079,0.114,0.094c0.068,0.041,0.09,0.128,0.051,0.194
		c-0.027,0.046-0.075,0.07-0.125,0.07c-0.025,0-0.051-0.006-0.073-0.02c-0.132-0.079-0.454-0.37-0.607-0.78
		c-0.195-0.515-0.316-1.088,0.112-1.779c0.022-0.036,0.059-0.057,0.096-0.064c0.105-0.129,0.292-0.163,0.436-0.072
		c0.326,0.212,0.823,0.528,0.903,1.015c0.043,0.258-0.037,0.515-0.237,0.762c-0.053,0.067-0.131,0.108-0.215,0.121
		c-0.024,0.003-0.048,0.004-0.073,0.001c-0.197-0.018-0.354-0.059-0.489-0.112c-0.146-0.057-0.256-0.13-0.342-0.204
		C251.614,309.663,251.64,309.741,251.669,309.821"/>
	<path fill="#999999" d="M242.864,257.571c0,0,0.55,0.433,1.058,0.448c0.067,0.001,0.131-0.01,0.131-0.01
		c0.047-0.006,0.089-0.024,0.133-0.035c-1.194-0.824-2.139-2.257-2.059-3.735c0.049-0.906,0.717-1.55,1.143-2.294
		c0.197-0.345,0.35-0.709,0.353-1.134c0.002-0.248-0.198-0.378-0.394-0.378c-0.182,0-0.356,0.111-0.358,0.341
		c-0.005,0.339-0.131,0.638-0.302,0.918c-0.176,0.288-0.4,0.56-0.586,0.832c-0.445,0.653-0.661,1.363-0.598,2.153
		c0.01,0.129,0.035,0.256,0.055,0.383c0.108,0.659,0.342,1.146,0.51,1.438C242.3,257.106,242.704,257.445,242.864,257.571"/>
	<path fill="#999999" d="M239.746,302.398c0.438,0.154,0.838,0.373,1.169,0.657c0.658-0.951,3.037-4.399,3.434-5.167
		C243.108,298.848,240.892,301.291,239.746,302.398"/>
	<path fill="#999999" d="M241.82,304.593c0.535-0.352,3.687-5.375,3.687-5.375c-0.975,0.643-3.35,2.968-4.339,4.085
		c0.145,0.159,0.27,0.333,0.372,0.525C241.673,304.076,241.758,304.34,241.82,304.593"/>
	<path fill="#999999" d="M250.854,304.558l0.084-0.002c0.465-0.042,0.757-0.116,0.894-0.171c-0.14-0.812-1.031-4.51-1.444-5.586
		c-0.346,1.057-0.925,4.677-1.015,5.658c0.213,0.044,0.752,0.099,1.229,0.099L250.854,304.558z"/>
	<path fill="#999999" d="M255.872,298.973c0,0,2.073,3.999,2.94,5.29c0.099-0.249,0.202-0.467,0.297-0.641
		c0.091-0.173,0.204-0.32,0.32-0.464c-0.16-0.278-0.367-0.639-0.602-1.048C257.816,300.903,256.526,299.485,255.872,298.973"/>
	<path fill="#999999" d="M259.894,302.697c0.315-0.249,0.673-0.428,1.063-0.549c-1.104-1.313-2.795-3.471-3.82-4.406
		c0.279,0.671,1.808,3.361,2.63,4.791C259.809,302.589,259.853,302.645,259.894,302.697"/>
	<path fill="#999999" d="M262.239,276.206l0.725-0.304c0,0,2.583-0.919,3.426-1.273c1.201-0.502,3.47-1.624,4.567-2.493
		c2.919-2.309,3.806-5.575,4.666-6.607c2.993-0.191,4.213-1.657,4.404-3.164c0.114-0.905-0.84-2.978-0.571-3.053
		c0,0,3.316-0.733,4.061-1.865c1.099-1.67,0.48-3.812,0.48-3.812c0.042,0,2.922-1.079,1.235-5.284
		c0.34,0.849,6.808,0.162,6.657-0.269c-0.421-1.195-2.127-2.685-3.854-3.744c-2.176-1.335-4.676-1.596-6.27-1.41
		c-1.757,0.204-3.504,0.389-5.16,1.045c-2.436,0.965-3.719,2.741-4.317,5.231c-0.668,2.774-0.672,5.658-0.985,8.492
		c-0.396,3.583-1.428,7.002-4.227,9.463c-2.259,1.987-5.246,3.567-8.243,4.091C260.004,272.491,262.239,276.206,262.239,276.206"/>
	<path fill="#999999" d="M214.816,248.351c-1.688,4.205,1.193,5.284,1.235,5.284c0,0-0.62,2.141,0.481,3.812
		c0.742,1.132,4.061,1.865,4.061,1.865c0.269,0.075-0.687,2.147-0.572,3.053c0.189,1.508,1.41,2.973,4.404,3.164
		c0.861,1.032,1.748,4.299,4.665,6.607c1.099,0.869,3.366,1.991,4.569,2.493c0.842,0.354,3.426,1.273,3.426,1.273l0.725,0.304
		c0,0,2.232-3.715,3.406-4.956c-3.09-0.542-8.302-3.03-10.568-6.804c-2.271-4.353-2.523-9.746-2.535-9.974
		c-0.225-3.781-0.818-6.821-0.939-7.128c-1.551-3.961-7.34-4.237-8.891-4.417c-1.594-0.186-4.094,0.075-6.27,1.41
		c-1.729,1.06-3.434,2.549-3.855,3.744C208.007,248.513,214.475,249.199,214.816,248.351"/>
	<path fill="#999999" d="M273.848,318.372c-0.013-0.021-0.52-0.922-1.13-1.583c-0.895-0.962-2.059-1.591-2.993-2.097
		c-0.254-0.138-0.491-0.267-0.694-0.388c-0.444-0.261-0.995-0.585-1.484-1.166c-0.958-1.139-1.058-2.539-1.139-3.665
		c-0.022-0.314-0.036-0.613-0.047-0.905c-0.03-0.712-0.058-1.383-0.233-2.143c-0.21-0.93-0.578-1.689-1.086-2.256
		c-0.637-0.714-1.479-1.076-2.5-1.076c-0.041,0-0.079,0.005-0.12,0.01l-0.062,0.007c-0.192,0.015-0.381,0.052-0.562,0.107
		c-0.333,0.105-0.659,0.273-0.973,0.499c-0.067,0.049-0.133,0.097-0.196,0.148c-0.05,0.041-0.097,0.085-0.143,0.129l-0.032,0.03
		c-0.131,0.12-0.235,0.231-0.323,0.336c-0.073,0.096-0.12,0.166-0.165,0.234c-0.12,0.183-0.203,0.346-0.256,0.5
		c-0.206,0.592-0.094,1.149,0.036,1.792l0.025,0.131c0.218,1.1,1.085,2.471,1.173,2.581c0.455,0.591,0.926,1.195,1.22,1.909
		c0.42,1.004,0.515,2.067,0.278,3.076c-0.268,1.127-0.459,2.351-0.627,3.432c-0.07,0.449-0.135,0.871-0.204,1.265
		c-0.189,1.121-0.085,2.45,0.305,3.845c0.08,0.282,0.304,1.015,0.688,1.737c0.653,1.226,1.438,2.292,2.335,3.174
		c0.803-0.274,1.67-0.617,2.646-1.043c1.094-0.48,2.131-0.982,3.096-1.46c-0.231-0.214-0.509-0.479-0.799-0.78l-0.077-0.079
		c-0.837-0.865-1.786-1.848-2.6-3.4c-1.263-2.414-0.924-3.736-0.882-3.878c0.007-0.022,0.207-0.689,0.207-0.689l0.189-0.633
		l0.127,0.964c0.017,0.12,0.054,0.388,0.121,0.741c0.342,1.41,1.288,2.987,1.695,3.479c1.309,1.577,2.387,2.663,3.487,3.51
		c0.512-0.292,1.058-0.63,1.666-1.033c-0.36-1.594-0.922-3.375-2.296-4.624c-0.119-0.109-0.558-0.508-0.559-0.508l-0.221-0.195
		l0.26-0.148c0.147-0.083,0.516-0.108,1.327,0.65c0.912,0.849,1.931,2.862,2.341,4.25l0.172-0.119
		c0.246-0.165,0.459-0.316,0.657-0.456c-0.146-0.719-0.318-1.396-0.501-1.964C274.659,319.58,273.857,318.384,273.848,318.372
		 M264.636,306.92c-0.042,0.119-0.17,0.185-0.288,0.155c-0.01-0.004-0.018-0.006-0.024-0.009c-0.129-0.044-0.196-0.184-0.15-0.31
		c0.015-0.04,0.032-0.107,0.048-0.189c0.053-0.275,0.087-0.739-0.059-1.127c-0.034-0.093-0.071-0.18-0.109-0.263
		c-0.021,0.19-0.102,0.424-0.304,0.688c-0.004,0.007-0.006,0.012-0.01,0.019c-0.017,0.019-0.032,0.034-0.051,0.051
		c-0.064,0.052-0.146,0.081-0.232,0.075c-0.315-0.021-0.559-0.136-0.72-0.338c-0.307-0.382-0.21-0.951-0.146-1.329
		c0.007-0.045,0.025-0.087,0.049-0.123l-0.008-0.011c-0.058-0.004-0.11-0.013-0.172-0.013c-0.137-0.005-0.246-0.11-0.245-0.244
		c0-0.134,0.109-0.241,0.247-0.241c1.389,0.006,1.872,0.792,2.162,1.562C264.859,305.895,264.734,306.651,264.636,306.92"/>
	<path fill="#999999" d="M241.171,201.039l-8.863,13.866l14.036-8.755l3.658,15.995l3.657-15.995l14.036,8.755l-8.864-13.866
		l16.192-3.612l-16.192-3.613l8.864-13.864l-14.036,8.756l-3.657-15.996l-3.658,15.996l-14.036-8.756l8.863,13.864l-16.193,3.613
		L241.171,201.039z M238.84,186.401l8.853,5.523l2.31-10.092l2.308,10.092l8.854-5.523l-5.591,8.747l10.212,2.278l-10.212,2.279
		l5.591,8.746l-8.854-5.522l-2.308,10.091l-2.31-10.091l-8.853,5.522l5.592-8.746l-10.215-2.279l10.215-2.278L238.84,186.401z"/>
	<path fill="#999999" d="M226.129,90.772c-1.626,0-2.948,1.307-2.948,2.912c0,1.607,1.322,2.914,2.948,2.914
		s2.948-1.307,2.948-2.914C229.077,92.079,227.755,90.772,226.129,90.772"/>
	<path fill="#999999" d="M273.998,96.599c1.626,0,2.948-1.307,2.948-2.914c0-1.605-1.322-2.912-2.948-2.912
		s-2.949,1.307-2.949,2.912C271.049,95.292,272.372,96.599,273.998,96.599"/>
	<path fill="#999999" d="M250.365,96.599c1.626,0,2.949-1.307,2.949-2.914c0-1.605-1.323-2.912-2.949-2.912
		c-1.627,0-2.95,1.307-2.95,2.912C247.414,95.292,248.738,96.599,250.365,96.599"/>
	<path fill="#999999" d="M223.711,120.446c-1.627,0-2.948,1.307-2.948,2.914c0,1.605,1.321,2.913,2.948,2.913
		c1.626,0,2.95-1.308,2.95-2.913C226.661,121.753,225.337,120.446,223.711,120.446"/>
	<path fill="#999999" d="M276.24,120.446c-1.627,0-2.95,1.307-2.95,2.914c0,1.605,1.323,2.913,2.95,2.913
		c1.626,0,2.95-1.308,2.95-2.913C279.191,121.753,277.866,120.446,276.24,120.446"/>
	<path fill="#999999" d="M250.277,120.446c-1.626,0-2.949,1.307-2.949,2.914c0,1.605,1.323,2.913,2.949,2.913
		s2.949-1.308,2.949-2.913C253.226,121.753,251.903,120.446,250.277,120.446"/>
	<polygon fill="#999999" points="149.637,200.314 151.087,196.614 151.534,195.476 150.38,195.034 148.314,194.243 147.161,193.802 
		146.714,194.942 145.262,198.643 140.445,196.8 139.292,196.358 138.844,197.497 137.788,200.195 137.342,201.335 138.494,201.776 
		143.313,203.618 141.703,207.724 141.257,208.864 142.411,209.306 144.476,210.096 145.63,210.537 146.077,209.397 
		147.686,205.292 151.6,206.789 152.754,207.229 153.2,206.09 154.257,203.394 154.704,202.253 153.55,201.812 	"/>
	<polygon fill="#999999" points="349.991,205.704 350.301,206.888 351.498,206.581 355.563,205.543 356.569,209.386 
		356.878,210.567 358.076,210.262 360.222,209.714 361.419,209.407 361.325,209.046 361.355,209.038 361.01,207.842 
		360.104,204.384 365.105,203.104 366.303,202.798 365.992,201.614 365.259,198.815 364.95,197.632 363.753,197.938 358.75,199.216 
		357.633,194.955 357.323,193.771 356.126,194.077 353.982,194.626 352.782,194.932 353.092,196.114 354.209,200.377 
		350.146,201.415 348.948,201.722 349.26,202.903 	"/>
	<path fill="#999999" d="M239.973,304.765c-0.403-0.626-1.169-1.033-2.101-1.123c-0.117-0.01-0.248-0.01-0.351-0.01
		c-0.423,0-0.833,0.067-1.222,0.205l-0.082,0.026c-0.037,0.009-0.072,0.02-0.107,0.034c-0.527,0.221-1.25,0.521-1.99,1.563
		c-0.494,0.7-0.512,1.304-0.552,2.627l-0.018,0.531c-0.015,0.466-0.005,0.665,0.004,0.824c0.009,0.176,0.018,0.316-0.008,0.661
		c-0.079,1.124-0.183,2.522-1.14,3.661c-0.704,0.84-1.701,1.367-2.665,1.876c-0.722,0.379-1.464,0.772-2.067,1.289
		c-0.828,0.709-1.516,1.655-2.1,2.894c-0.394,0.835-0.68,1.682-0.874,2.587c0.226,0.14,0.445,0.268,0.665,0.393
		c0.139,0.077,0.275,0.153,0.414,0.227c0.319-1.374,1.453-3.693,2.438-4.612c0.806-0.754,1.179-0.731,1.327-0.652l0.262,0.146
		l-0.781,0.707c-1.332,1.215-2.012,3.306-2.346,4.847c-0.004,0.01-0.005,0.02-0.008,0.029c0.518,0.251,1.053,0.49,1.635,0.729
		c0.145,0.058,0.287,0.114,0.426,0.171l0.072,0.027c0.888-0.707,1.809-1.666,3.151-3.284c0.408-0.492,1.354-2.069,1.698-3.486
		c0.065-0.35,0.104-0.616,0.119-0.733l0.125-0.966l0.191,0.634c0,0,0.193,0.649,0.207,0.685c0.041,0.147,0.379,1.476-0.883,3.883
		c-0.814,1.555-1.766,2.538-2.604,3.405l-0.074,0.074c-0.13,0.135-0.253,0.263-0.371,0.381l0.431,0.158
		c0.328,0.118,0.651,0.233,0.963,0.34c0.315,0.107,0.599,0.2,0.874,0.285c0.566,0.178,1.067,0.318,1.645,0.479
		c0.609,0.172,1.291,0.365,2.176,0.636c0.747-1.044,1.254-2.026,1.551-3.002c0.361-1.189,0.467-2.522,0.325-4.066
		c-0.12-1.323-0.375-2.751-0.819-4.634c-0.236-1.007-0.141-2.068,0.278-3.075c0.297-0.713,0.766-1.319,1.22-1.906
		c0.092-0.117,0.181-0.233,0.27-0.349l0.056-0.074C240.782,307.901,240.681,305.858,239.973,304.765 M237.153,306.294
		c-0.102,0.239-0.304,0.413-0.601,0.52c-0.08,0.029-0.17,0.023-0.244-0.011c-0.021-0.008-0.043-0.022-0.063-0.036
		c-0.006-0.005-0.01-0.009-0.016-0.014c-0.268-0.2-0.41-0.403-0.482-0.582c-0.015,0.092-0.023,0.185-0.033,0.283
		c-0.03,0.389,0.121,0.833,0.256,1.1c0.034,0.071,0.07,0.13,0.098,0.172c0.078,0.108,0.053,0.26-0.059,0.339
		c-0.043,0.03-0.092,0.044-0.143,0.044c-0.076,0-0.152-0.036-0.199-0.102c-0.168-0.232-0.496-0.928-0.443-1.592
		c0.065-0.816,0.314-1.701,1.652-2.081c0.129-0.037,0.266,0.036,0.304,0.167c0.038,0.129-0.038,0.262-0.17,0.3
		c-0.059,0.018-0.107,0.038-0.161,0.057l-0.004,0.015c0.032,0.029,0.062,0.063,0.082,0.106
		C237.091,305.323,237.341,305.844,237.153,306.294"/>
</g>
</svg>
