<svg width="186" height="106" viewBox="0 0 186 106" fill="none" xmlns="http://www.w3.org/2000/svg">
<path d="M38.0406 62.9173C37.7035 62.5882 37.2907 62.3466 36.8383 62.2138L33.5274 58.6113L31.7812 60.2816L35.3302 63.7571C35.4811 64.2005 35.7401 64.5996 36.084 64.9183C36.9335 65.7283 38.0596 65.9369 38.5997 65.3836C39.1398 64.8304 38.8917 63.7273 38.0448 62.9187H38.0415L38.0406 62.9173Z" fill="#9F616A"/>
<path d="M36.6605 61.2956L34.9016 63.5019L25.8105 56.6354L25.8027 56.6197L20.4902 46.7281C20.2713 46.3195 20.1387 45.8705 20.1004 45.4088C20.0622 44.947 20.1191 44.4824 20.2677 44.0434C20.4162 43.6045 20.6533 43.2006 20.9644 42.8566C21.2754 42.5126 21.6537 42.2357 22.076 42.0432C22.4983 41.8506 22.9557 41.7464 23.4199 41.737C23.8842 41.7276 24.3454 41.8131 24.7752 41.9883C25.2051 42.1636 25.5944 42.4248 25.9192 42.7559C26.2439 43.0869 26.4973 43.4809 26.6637 43.9134L30.1107 52.9156L36.6609 61.2926L36.6605 61.2956Z" fill="#D6D6E3"/>
<path d="M21.6897 38.4146H25.3959V44.2814L21.3096 42.9412L21.6897 38.4146Z" fill="#9F616A"/>
<path d="M28.9607 35.9755C28.9607 36.7786 28.722 37.5637 28.2749 38.2315C27.8277 38.8992 27.1922 39.4197 26.4486 39.727C25.705 40.0343 24.8867 40.1147 24.0973 39.9581C23.3079 39.8014 22.5828 39.4146 22.0137 38.8468C21.4446 38.2789 21.057 37.5554 20.9 36.7677C20.743 35.98 20.8235 35.1636 21.1316 34.4216C21.4396 33.6797 21.9612 33.0455 22.6304 32.5993C23.2996 32.1531 24.0864 31.915 24.8912 31.915C25.9705 31.915 27.0056 32.3428 27.7688 33.1043C28.532 33.8658 28.9607 34.8986 28.9607 35.9755Z" fill="#9F616A"/>
<path d="M22.0103 38.5729L21.613 39.325L19.8604 36.0016C18.8051 32.7767 22.4907 30.9248 22.4907 30.9248C23.6931 29.5114 26.1105 31.1645 26.1105 31.1645C29.5968 30.392 27.914 33.3237 27.914 33.3237C27.914 33.3237 26.7244 33.3502 26.7244 34.3091C26.7244 35.2679 25.4295 35.2022 25.4295 35.2022L24.4149 36.9745L23.8542 36.2944C21.77 35.4137 22.0103 38.5729 22.0103 38.5729Z" fill="#2F2E43"/>
<path d="M23.4769 98.5281H20.1885V103.183H23.4769V98.5281Z" fill="#9F616A"/>
<path d="M26.6787 106.001C25.2355 106.001 23.1281 105.85 23.1124 105.849C22.5487 105.899 19.7345 106.12 19.5946 105.477C19.5208 105.046 19.5509 104.603 19.6825 104.185C19.9542 101.501 20.0548 101.47 20.1144 101.453C20.2101 101.424 20.4897 101.558 20.9436 101.849L20.9718 101.868L20.978 101.901C20.9859 101.941 21.1861 102.927 22.1401 102.777C22.7933 102.674 23.0053 102.53 23.0729 102.459C23.0027 102.429 22.9428 102.379 22.9001 102.315C22.8641 102.252 22.8422 102.181 22.836 102.109C22.8298 102.037 22.8394 101.964 22.8641 101.895C22.9969 101.503 23.1662 101.123 23.3698 100.762L23.4121 100.687L27.1495 103.204L29.458 103.862C29.5437 103.886 29.6227 103.929 29.6894 103.988C29.756 104.047 29.8084 104.12 29.8427 104.202C29.8904 104.316 29.9014 104.441 29.8744 104.561C29.8474 104.681 29.7837 104.79 29.692 104.873C29.2728 105.249 28.4388 105.893 27.5648 105.973C27.3324 105.996 27.0246 106.003 26.679 106.003L26.6787 106.001Z" fill="#2F2E43"/>
<path d="M10.2513 95.1381L12.7866 97.2282L15.7586 93.639L13.2232 91.5489L10.2513 95.1381Z" fill="#9F616A"/>
<path d="M13.45 101.43C12.3381 100.512 10.8102 99.056 10.7991 99.0451C10.3327 98.727 8.02261 97.1071 8.32504 96.5223C8.54313 96.142 8.84964 95.8195 9.21872 95.5821C11.1425 93.6845 11.2382 93.7253 11.2965 93.7502C11.3889 93.7895 11.5194 94.0684 11.6828 94.5822L11.6923 94.6136L11.6766 94.6433C11.6534 94.6809 11.1804 95.5694 12.0112 96.0583C12.5811 96.3935 12.8357 96.4171 12.933 96.4062C12.8982 96.3376 12.884 96.2603 12.8921 96.1838C12.9049 96.1123 12.9329 96.0443 12.9744 95.9846C13.0158 95.9249 13.0697 95.8748 13.1323 95.8377C13.4855 95.6197 13.8582 95.4351 14.2457 95.2861L14.3257 95.2547L15.5974 99.5691L16.9558 101.545C17.0061 101.618 17.0392 101.702 17.0528 101.79C17.0665 101.878 17.0601 101.967 17.0344 102.052C16.9984 102.17 16.9266 102.274 16.829 102.35C16.7314 102.425 16.6128 102.469 16.4894 102.474C15.9273 102.497 14.8734 102.463 14.1495 101.969C13.9578 101.838 13.7159 101.648 13.4491 101.429L13.45 101.43Z" fill="#2F2E43"/>
<path d="M28.9139 62.6273L23.9013 99.8316H20.1417L17.6353 62.6273H28.9155H28.9139Z" fill="#2F2E43"/>
<path d="M19.2025 82.9492L11.7163 92.6407L14.9199 95.281L27.7673 83.0885L28.9153 62.627L26.6179 64.6767L19.2025 82.9492Z" fill="#2F2E43"/>
<path d="M26.6178 40.7416L28.9152 62.6273H17.6352L16.7605 55.5243C16.2216 51.1373 17.1184 46.694 19.3171 42.857L21.0473 39.8391L26.6178 40.7416Z" fill="#D6D6E3"/>
<path d="M27.6292 68.8466C27.4598 68.4076 27.1847 68.0169 26.8282 67.709L25.3137 63.0583L23.0288 63.8558L24.8113 68.4862C24.7632 68.9525 24.8328 69.4233 25.0138 69.8558C25.4488 70.9433 26.388 71.5997 27.1087 71.3208C27.8294 71.0418 28.062 69.934 27.6268 68.8466H27.6292Z" fill="#9F616A"/>
<path d="M27.0431 66.7893L24.5258 68.068L19.1095 58.0566V58.0396L18.3888 46.8405C18.3591 46.3776 18.4248 45.9136 18.582 45.477C18.7391 45.0405 18.9842 44.6408 19.3023 44.3025C19.6203 43.9642 20.0045 43.6945 20.431 43.5102C20.8576 43.3259 21.3175 43.2308 21.7824 43.2308C22.2472 43.2308 22.7072 43.3259 23.1337 43.5102C23.5603 43.6945 23.9445 43.9642 24.2625 44.3025C24.5805 44.6408 24.8257 45.0405 24.9828 45.477C25.1399 45.9136 25.2057 46.3776 25.176 46.8405L24.5683 56.4569L27.0424 66.791L27.0431 66.7893Z" fill="#D6D6E3"/>
<path d="M183.035 83.1425H64.6014C63.4975 83.1425 62.6027 82.3482 62.6016 81.3693V1.77326C62.6029 0.794346 63.4975 0.00115357 64.6014 0H183.035C184.139 0 185.033 0.794346 185.035 1.77326V81.3693C185.033 82.3482 184.139 83.1411 183.035 83.1425ZM64.6014 0.393595C63.7429 0.393595 63.0469 1.01144 63.046 1.7728V81.3688C63.046 82.1302 63.7429 82.7471 64.6014 82.748H183.035C183.893 82.748 184.589 82.1302 184.59 81.3688V1.7728C184.59 1.01144 183.893 0.394518 183.035 0.393595H64.6014Z" fill="#E6E6E6"/>
<path d="M171.518 18.4637H76.1937C75.6635 18.4631 75.1552 18.2527 74.7803 17.8786C74.4053 17.5045 74.1945 16.9973 74.1938 16.4683V9.59514C74.1945 9.0661 74.4053 8.55891 74.7803 8.18482C75.1552 7.81074 75.6635 7.60031 76.1937 7.5997H171.518C172.048 7.60031 172.557 7.81074 172.931 8.18482C173.306 8.55891 173.517 9.0661 173.518 9.59514V16.4683C173.517 16.9973 173.306 17.5045 172.931 17.8786C172.557 18.2527 172.048 18.4631 171.518 18.4637ZM76.1937 8.04313C75.7813 8.04362 75.386 8.20729 75.0944 8.49824C74.8028 8.78919 74.6387 9.18367 74.6383 9.59514V16.4683C74.6387 16.8798 74.8028 17.2743 75.0944 17.5652C75.386 17.8562 75.7813 18.0198 76.1937 18.0203H171.518C171.93 18.0198 172.326 17.8562 172.617 17.5652C172.909 17.2743 173.073 16.8798 173.074 16.4683V9.59514C173.073 9.18367 172.909 8.78919 172.617 8.49824C172.326 8.20729 171.93 8.04362 171.518 8.04313H76.1937Z" fill="#3F3D56"/>
<path d="M113.968 39.6866H76.1937C75.6635 39.686 75.1552 39.4755 74.7803 39.1014C74.4053 38.7274 74.1945 38.2202 74.1938 37.6911V30.818C74.1945 30.2889 74.4053 29.7817 74.7803 29.4076C75.1552 29.0336 75.6635 28.8231 76.1937 28.8225H113.968C114.498 28.8231 115.007 29.0336 115.381 29.4076C115.756 29.7817 115.967 30.2889 115.968 30.818V37.6911C115.967 38.2202 115.756 38.7274 115.381 39.1014C115.007 39.4755 114.498 39.686 113.968 39.6866ZM76.1937 29.2659C75.7813 29.2664 75.386 29.4301 75.0944 29.7211C74.8028 30.012 74.6387 30.4065 74.6383 30.818V37.6911C74.6387 38.1026 74.8028 38.4971 75.0944 38.788C75.386 39.079 75.7813 39.2426 76.1937 39.2431H113.968C114.38 39.2426 114.776 39.079 115.067 38.788C115.359 38.4971 115.523 38.1026 115.523 37.6911V30.818C115.523 30.4065 115.359 30.012 115.067 29.7211C114.776 29.4301 114.38 29.2664 113.968 29.2659H76.1937Z" fill="#3F3D56"/>
<path d="M171.518 39.6866H133.744C133.214 39.686 132.705 39.4755 132.331 39.1014C131.956 38.7274 131.745 38.2202 131.744 37.6911V30.818C131.745 30.2889 131.956 29.7817 132.331 29.4076C132.705 29.0336 133.214 28.8231 133.744 28.8225H171.518C172.048 28.8231 172.557 29.0336 172.932 29.4076C173.307 29.7817 173.518 30.2889 173.518 30.818V37.6911C173.518 38.2202 173.307 38.7274 172.932 39.1014C172.557 39.4755 172.048 39.686 171.518 39.6866ZM133.744 29.2659C133.332 29.2664 132.936 29.4301 132.645 29.7211C132.353 30.012 132.189 30.4065 132.189 30.818V37.6911C132.189 38.1026 132.353 38.4971 132.645 38.7881C132.936 39.079 133.332 39.2427 133.744 39.2431H171.518C171.931 39.2426 172.326 39.079 172.618 38.788C172.909 38.4971 173.073 38.1026 173.074 37.6911V30.818C173.073 30.4065 172.909 30.012 172.618 29.7211C172.326 29.4301 171.931 29.2664 171.518 29.2659H133.744Z" fill="#3F3D56"/>
<path d="M136.273 75.5703H110.942C110.442 75.5697 109.962 75.3709 109.607 75.0176C109.253 74.6643 109.054 74.1852 109.054 73.6856V71.2467C109.054 70.7471 109.253 70.2682 109.608 69.9149C109.962 69.5616 110.442 69.3629 110.942 69.3623H136.273C136.774 69.3629 137.254 69.5616 137.608 69.9149C137.962 70.2682 138.161 70.7471 138.162 71.2467V73.6856C138.161 74.1852 137.962 74.6643 137.608 75.0176C137.254 75.3709 136.774 75.5697 136.273 75.5703Z" fill="#E6E6E6"/>
<path d="M80.4156 51.2155C80.064 51.2154 79.7204 51.1113 79.4282 50.9163C79.136 50.7213 78.9082 50.4442 78.7738 50.1201C78.6393 49.796 78.6042 49.4394 78.6729 49.0954C78.7416 48.7513 78.9109 48.4353 79.1596 48.1874C79.4082 47.9394 79.7249 47.7705 80.0697 47.7021C80.4146 47.6337 80.7719 47.6689 81.0967 47.8032C81.4215 47.9374 81.6991 48.1648 81.8944 48.4565C82.0897 48.7481 82.1939 49.091 82.1939 49.4418C82.1939 49.9122 82.0066 50.3634 81.6732 50.696C81.3399 51.0287 80.8877 51.2155 80.4163 51.2155H80.4156ZM80.4156 48.1115C80.1519 48.1115 79.8941 48.1895 79.6749 48.3357C79.4557 48.4819 79.2848 48.6896 79.1839 48.9327C79.083 49.1758 79.0566 49.4433 79.108 49.7013C79.1594 49.9594 79.2864 50.1964 79.4729 50.3825C79.6593 50.5685 79.8969 50.6952 80.1555 50.7465C80.4141 50.7979 80.6822 50.7715 80.9258 50.6708C81.1694 50.5702 81.3776 50.3996 81.5241 50.1809C81.6706 49.9621 81.7488 49.7049 81.7488 49.4418C81.7488 49.089 81.6083 48.7506 81.3583 48.5012C81.1083 48.2517 80.7692 48.1115 80.4156 48.1115Z" fill="#E6E6E6"/>
<path d="M80.4156 56.9804C80.064 56.9802 79.7204 56.8761 79.4282 56.6811C79.136 56.4861 78.9082 56.2091 78.7738 55.8849C78.6393 55.5608 78.6042 55.2042 78.6729 54.8602C78.7416 54.5162 78.9109 54.2002 79.1596 53.9522C79.4082 53.7042 79.7249 53.5353 80.0697 53.467C80.4146 53.3986 80.7719 53.4337 81.0967 53.568C81.4215 53.7023 81.6991 53.9296 81.8944 54.2213C82.0897 54.513 82.1939 54.8559 82.1939 55.2066C82.1939 55.6771 82.0066 56.1282 81.6732 56.4609C81.3399 56.7935 80.8877 56.9804 80.4163 56.9804H80.4156ZM80.4156 53.8763C80.1519 53.8763 79.8941 53.9544 79.6749 54.1005C79.4557 54.2467 79.2848 54.4545 79.1839 54.6976C79.083 54.9406 79.0566 55.2081 79.108 55.4662C79.1594 55.7242 79.2864 55.9613 79.4729 56.1473C79.6593 56.3333 79.8969 56.46 80.1555 56.5114C80.4141 56.5627 80.6822 56.5364 80.9258 56.4357C81.1694 56.335 81.3776 56.1645 81.5241 55.9457C81.6706 55.7269 81.7488 55.4698 81.7488 55.2066C81.7488 54.8538 81.6083 54.5155 81.3583 54.266C81.1083 54.0165 80.7692 53.8763 80.4156 53.8763Z" fill="#E6E6E6"/>
<path d="M80.4156 62.7447C80.064 62.7446 79.7204 62.6404 79.4282 62.4454C79.136 62.2505 78.9082 61.9734 78.7738 61.6493C78.6393 61.3252 78.6042 60.9685 78.6729 60.6245C78.7416 60.2805 78.9109 59.9645 79.1596 59.7165C79.4082 59.4685 79.7249 59.2997 80.0697 59.2313C80.4146 59.1629 80.7719 59.1981 81.0967 59.3323C81.4215 59.4666 81.6991 59.694 81.8944 59.9856C82.0897 60.2773 82.1939 60.6202 82.1939 60.971C82.1939 61.4414 82.0066 61.8926 81.6732 62.2252C81.3399 62.5578 80.8877 62.7447 80.4163 62.7447H80.4156ZM80.4156 59.6407C80.1519 59.6407 79.8941 59.7187 79.6749 59.8649C79.4557 60.0111 79.2848 60.2188 79.1839 60.4619C79.083 60.705 79.0566 60.9725 79.108 61.2305C79.1594 61.4886 79.2864 61.7256 79.4729 61.9116C79.6593 62.0977 79.8969 62.2244 80.1555 62.2757C80.4141 62.3271 80.6822 62.3007 80.9258 62.2C81.1694 62.0993 81.3776 61.9288 81.5241 61.7101C81.6706 61.4913 81.7488 61.2341 81.7488 60.971C81.7488 60.6182 81.6083 60.2798 81.3583 60.0303C81.1083 59.7809 80.7692 59.6407 80.4156 59.6407Z" fill="#35789A"/>
<path d="M88.9243 48.0008C88.5412 48.0008 88.1739 48.1526 87.903 48.4229C87.6321 48.6931 87.48 49.0597 87.48 49.4419C87.48 49.8241 87.6321 50.1907 87.903 50.461C88.1739 50.7312 88.5412 50.8831 88.9243 50.8831H109.589C109.972 50.8831 110.34 50.7312 110.61 50.461C110.881 50.1907 111.033 49.8241 111.033 49.4419C111.033 49.0597 110.881 48.6931 110.61 48.4229C110.34 48.1526 109.972 48.0008 109.589 48.0008H88.9243Z" fill="#E6E6E6"/>
<path d="M88.9242 53.7654C88.5443 53.7701 88.1816 53.9241 87.9147 54.1938C87.6477 54.4636 87.498 54.8274 87.498 55.2065C87.498 55.5856 87.6477 55.9494 87.9147 56.2192C88.1816 56.4889 88.5443 56.6429 88.9242 56.6477H109.589C109.972 56.6477 110.339 56.4958 110.61 56.2255C110.881 55.9553 111.033 55.5887 111.033 55.2065C111.033 54.8243 110.881 54.4577 110.61 54.1875C110.339 53.9172 109.972 53.7654 109.589 53.7654H88.9242Z" fill="#E6E6E6"/>
<path d="M88.9242 59.5602C88.5443 59.565 88.1816 59.7189 87.9147 59.9887C87.6477 60.2584 87.498 60.6222 87.498 61.0013C87.498 61.3804 87.6477 61.7442 87.9147 62.014C88.1816 62.2837 88.5443 62.4377 88.9242 62.4425H109.589C109.972 62.4425 110.339 62.2906 110.61 62.0204C110.881 61.7501 111.033 61.3836 111.033 61.0013C111.033 60.6191 110.881 60.2526 110.61 59.9823C110.339 59.712 109.972 59.5602 109.589 59.5602H88.9242Z" fill="#E6E6E6"/>
<path d="M138.077 51.2155C137.725 51.2155 137.382 51.1115 137.089 50.9166C136.797 50.7217 136.569 50.4447 136.435 50.1206C136.3 49.7965 136.265 49.4398 136.333 49.0958C136.402 48.7517 136.571 48.4357 136.82 48.1876C137.069 47.9395 137.385 47.7706 137.73 47.7022C138.075 47.6337 138.432 47.6689 138.757 47.8031C139.082 47.9374 139.36 48.1647 139.555 48.4564C139.75 48.7481 139.855 49.091 139.855 49.4418C139.855 49.9122 139.667 50.3634 139.334 50.696C139.001 51.0287 138.548 51.2155 138.077 51.2155ZM138.077 48.1115C137.813 48.1115 137.555 48.1895 137.336 48.3357C137.117 48.4819 136.946 48.6897 136.845 48.9327C136.744 49.1758 136.718 49.4433 136.769 49.7013C136.821 49.9594 136.948 50.1964 137.134 50.3825C137.321 50.5685 137.558 50.6952 137.817 50.7465C138.075 50.7979 138.344 50.7715 138.587 50.6708C138.831 50.5702 139.039 50.3996 139.185 50.1809C139.332 49.9621 139.41 49.7049 139.41 49.4418C139.41 49.2671 139.376 49.0941 139.309 48.9327C139.242 48.7713 139.143 48.6247 139.02 48.5012C138.896 48.3776 138.749 48.2796 138.587 48.2128C138.425 48.1459 138.252 48.1115 138.077 48.1115Z" fill="#E6E6E6"/>
<path d="M138.077 56.9804C137.725 56.9804 137.382 56.8763 137.089 56.6814C136.797 56.4865 136.569 56.2095 136.435 55.8854C136.3 55.5613 136.265 55.2047 136.333 54.8606C136.402 54.5165 136.571 54.2005 136.82 53.9524C137.069 53.7044 137.385 53.5354 137.73 53.467C138.075 53.3986 138.432 53.4337 138.757 53.5679C139.082 53.7022 139.36 53.9295 139.555 54.2212C139.75 54.5129 139.855 54.8558 139.855 55.2066C139.855 55.6771 139.667 56.1282 139.334 56.4609C139.001 56.7935 138.548 56.9804 138.077 56.9804ZM138.077 53.8763C137.813 53.8763 137.555 53.9544 137.336 54.1005C137.117 54.2467 136.946 54.4545 136.845 54.6976C136.744 54.9406 136.718 55.2081 136.769 55.4662C136.821 55.7242 136.948 55.9613 137.134 56.1473C137.321 56.3333 137.558 56.46 137.817 56.5114C138.075 56.5627 138.344 56.5364 138.587 56.4357C138.831 56.335 139.039 56.1645 139.185 55.9457C139.332 55.7269 139.41 55.4698 139.41 55.2066C139.41 55.0319 139.376 54.859 139.309 54.6976C139.242 54.5362 139.143 54.3895 139.02 54.266C138.896 54.1425 138.749 54.0445 138.587 53.9776C138.425 53.9108 138.252 53.8763 138.077 53.8763Z" fill="#35789A"/>
<path d="M138.077 62.7943C137.725 62.7943 137.382 62.6903 137.089 62.4954C136.797 62.3005 136.569 62.0235 136.435 61.6994C136.3 61.3753 136.265 61.0186 136.333 60.6746C136.402 60.3305 136.571 60.0145 136.82 59.7664C137.069 59.5183 137.385 59.3494 137.73 59.281C138.075 59.2125 138.432 59.2477 138.757 59.3819C139.082 59.5162 139.36 59.7435 139.555 60.0352C139.75 60.3269 139.855 60.6698 139.855 61.0206C139.855 61.491 139.667 61.9422 139.334 62.2748C139.001 62.6075 138.548 62.7943 138.077 62.7943ZM138.077 59.6903C137.813 59.6903 137.555 59.7683 137.336 59.9145C137.117 60.0607 136.946 60.2684 136.845 60.5115C136.744 60.7546 136.718 61.0221 136.769 61.2801C136.821 61.5382 136.948 61.7752 137.134 61.9613C137.321 62.1473 137.558 62.274 137.817 62.3253C138.075 62.3767 138.344 62.3503 138.587 62.2496C138.831 62.149 139.039 61.9784 139.185 61.7597C139.332 61.5409 139.41 61.2837 139.41 61.0206C139.41 60.8459 139.376 60.6729 139.309 60.5115C139.242 60.3501 139.143 60.2035 139.02 60.08C138.896 59.9564 138.749 59.8584 138.587 59.7916C138.425 59.7247 138.252 59.6903 138.077 59.6903Z" fill="#E6E6E6"/>
<path d="M146.52 48.0008C146.137 48.0008 145.77 48.1526 145.499 48.4229C145.228 48.6931 145.076 49.0597 145.076 49.4419C145.076 49.8241 145.228 50.1907 145.499 50.461C145.77 50.7312 146.137 50.8831 146.52 50.8831H167.185C167.568 50.8831 167.936 50.7312 168.207 50.461C168.477 50.1907 168.63 49.8241 168.63 49.4419C168.63 49.0597 168.477 48.6931 168.207 48.4229C167.936 48.1526 167.568 48.0008 167.185 48.0008H146.52Z" fill="#E6E6E6"/>
<path d="M146.521 53.7654C146.33 53.763 146.14 53.7985 145.962 53.8698C145.785 53.9411 145.624 54.0469 145.488 54.181C145.352 54.315 145.244 54.4747 145.17 54.6508C145.096 54.8268 145.058 55.0157 145.058 55.2065C145.058 55.3973 145.096 55.5862 145.17 55.7623C145.244 55.9383 145.352 56.098 145.488 56.2321C145.624 56.3661 145.785 56.4719 145.962 56.5433C146.14 56.6146 146.33 56.6501 146.521 56.6477H167.186C167.569 56.6477 167.936 56.4958 168.207 56.2256C168.478 55.9553 168.63 55.5887 168.63 55.2065C168.63 54.8243 168.478 54.4577 168.207 54.1875C167.936 53.9172 167.569 53.7654 167.186 53.7654H146.521Z" fill="#E6E6E6"/>
<path d="M146.521 59.5602C146.33 59.5578 146.14 59.5933 145.962 59.6646C145.785 59.7359 145.624 59.8417 145.488 59.9758C145.352 60.1098 145.244 60.2695 145.17 60.4456C145.096 60.6216 145.058 60.8105 145.058 61.0013C145.058 61.1921 145.096 61.381 145.17 61.5571C145.244 61.7331 145.352 61.8928 145.488 62.0269C145.624 62.1609 145.785 62.2667 145.962 62.3381C146.14 62.4094 146.33 62.4449 146.521 62.4425H167.186C167.569 62.4425 167.936 62.2906 168.207 62.0204C168.478 61.7501 168.63 61.3835 168.63 61.0013C168.63 60.6191 168.478 60.2525 168.207 59.9823C167.936 59.712 167.569 59.5602 167.186 59.5602H146.521Z" fill="#E6E6E6"/>
<path d="M80.4438 32.8134C80.0608 32.8134 79.6934 32.9652 79.4225 33.2355C79.1517 33.5058 78.9995 33.8723 78.9995 34.2545C78.9995 34.6368 79.1517 35.0033 79.4225 35.2736C79.6934 35.5439 80.0608 35.6957 80.4438 35.6957H105.108C105.491 35.6957 105.859 35.5439 106.13 35.2736C106.4 35.0033 106.553 34.6368 106.553 34.2545C106.553 33.8723 106.4 33.5058 106.13 33.2355C105.859 32.9652 105.491 32.8134 105.108 32.8134H80.4438Z" fill="#E6E6E6"/>
<path d="M80.4438 11.5903C80.0608 11.5903 79.6934 11.7422 79.4225 12.0124C79.1517 12.2827 78.9995 12.6493 78.9995 13.0315C78.9995 13.4137 79.1517 13.7803 79.4225 14.0505C79.6934 14.3208 80.0608 14.4726 80.4438 14.4726H105.108C105.491 14.4726 105.859 14.3208 106.13 14.0505C106.4 13.7803 106.553 13.4137 106.553 13.0315C106.553 12.6493 106.4 12.2827 106.13 12.0124C105.859 11.7422 105.491 11.5903 105.108 11.5903H80.4438Z" fill="#35789A"/>
<path d="M109.165 33.3288C109.145 33.3288 109.126 33.3339 109.109 33.3436C109.092 33.3533 109.078 33.3673 109.069 33.3842C109.059 33.4011 109.054 33.4202 109.054 33.4397C109.054 33.4592 109.059 33.4783 109.069 33.4951L110.012 35.1249C110.022 35.1417 110.036 35.1557 110.053 35.1654C110.069 35.1751 110.089 35.1802 110.108 35.1802C110.128 35.1802 110.147 35.1751 110.164 35.1654C110.18 35.1557 110.194 35.1417 110.204 35.1249L111.147 33.4951C111.157 33.4783 111.162 33.4592 111.162 33.4397C111.162 33.4202 111.157 33.4011 111.148 33.3842C111.138 33.3673 111.124 33.3533 111.107 33.3436C111.09 33.3339 111.071 33.3288 111.051 33.3288H109.165Z" fill="#35789A"/>
<path d="M137.994 32.8134C137.611 32.8134 137.244 32.9652 136.973 33.2355C136.702 33.5058 136.55 33.8723 136.55 34.2545C136.55 34.6368 136.702 35.0033 136.973 35.2736C137.244 35.5439 137.611 35.6957 137.994 35.6957H162.659C163.042 35.6957 163.409 35.5439 163.68 35.2736C163.951 35.0033 164.103 34.6368 164.103 34.2545C164.103 33.8723 163.951 33.5058 163.68 33.2355C163.409 32.9652 163.042 32.8134 162.659 32.8134H137.994Z" fill="#E6E6E6"/>
<path d="M166.715 33.3288C166.695 33.3288 166.676 33.3339 166.659 33.3436C166.642 33.3533 166.628 33.3673 166.618 33.3842C166.609 33.4011 166.603 33.4202 166.604 33.4397C166.604 33.4592 166.609 33.4783 166.619 33.4951L167.562 35.1249C167.571 35.1418 167.585 35.1558 167.602 35.1655C167.619 35.1752 167.638 35.1804 167.658 35.1804C167.677 35.1804 167.697 35.1752 167.714 35.1655C167.73 35.1558 167.745 35.1418 167.754 35.1249L168.697 33.4951C168.707 33.4783 168.712 33.4592 168.712 33.4397C168.712 33.4202 168.707 33.4011 168.697 33.3842C168.688 33.3673 168.674 33.3533 168.657 33.3436C168.64 33.3339 168.621 33.3288 168.601 33.3288H166.715Z" fill="#35789A"/>
<path d="M138.077 56.0935C138.568 56.0935 138.966 55.6964 138.966 55.2066C138.966 54.7168 138.568 54.3198 138.077 54.3198C137.586 54.3198 137.188 54.7168 137.188 55.2066C137.188 55.6964 137.586 56.0935 138.077 56.0935Z" fill="#35789A"/>
<path d="M80.4162 61.8883C80.907 61.8883 81.305 61.4913 81.305 61.0015C81.305 60.5117 80.907 60.1146 80.4162 60.1146C79.9253 60.1146 79.5273 60.5117 79.5273 61.0015C79.5273 61.4913 79.9253 61.8883 80.4162 61.8883Z" fill="#35789A"/>
<path d="M50.4795 106H0.180485C0.132043 105.998 0.0861515 105.978 0.0524845 105.943C0.0188174 105.908 0 105.862 0 105.813C0 105.765 0.0188174 105.719 0.0524845 105.684C0.0861515 105.649 0.132043 105.629 0.180485 105.627H50.4795C50.528 105.629 50.5738 105.649 50.6075 105.684C50.6412 105.719 50.66 105.765 50.66 105.813C50.66 105.862 50.6412 105.908 50.6075 105.943C50.5738 105.978 50.528 105.998 50.4795 106Z" fill="#F2F2F2"/>
<path d="M57.9745 56.8082L37.2283 71.3164C36.8179 71.6027 36.3104 71.7148 35.8172 71.6282C35.3239 71.5416 34.8853 71.2634 34.5974 70.8545L33.1944 68.8571C32.9075 68.4475 32.7951 67.9412 32.8818 67.4491C32.9686 66.957 33.2474 66.5193 33.6571 66.232L54.4032 51.7238C54.8137 51.4376 55.3211 51.3254 55.8143 51.412C56.3075 51.4985 56.7461 51.7767 57.034 52.1855L58.437 54.183C58.724 54.5925 58.8365 55.0989 58.7497 55.591C58.663 56.0832 58.3842 56.5209 57.9745 56.8082Z" fill="#35789A"/>
</svg>
