<?xml version="1.0" encoding="utf-8"?>
<!-- Generator: Adobe Illustrator 16.0.0, SVG Export Plug-In . SVG Version: 6.00 Build 0)  -->
<!DOCTYPE svg PUBLIC "-//W3C//DTD SVG 1.1//EN" "http://www.w3.org/Graphics/SVG/1.1/DTD/svg11.dtd">
<svg version="1.1" id="Camada_1" xmlns="http://www.w3.org/2000/svg" xmlns:xlink="http://www.w3.org/1999/xlink" x="0px" y="0px"
	 width="1080px" height="1080px" viewBox="0 0 1080 1080" enable-background="new 0 0 1080 1080" xml:space="preserve">
<g>
	<path fill="#4F5858" d="M642.971,905.912c6.475,0,11.355-5.049,11.355-11.745c0-6.569-4.365-11.156-10.617-11.156h-0.146
		c-4.838,0-11.652,3.644-11.652,11.743C631.91,902.991,637.867,905.912,642.971,905.912"/>
	<path fill="#4F5858" d="M358.204,893.351c-2.46,0.325-3.884,1.146-3.884,4.374v41.527c0,27.039-9.825,30.686-19.434,30.686
		c-8.473,0-19.734-3.073-19.734-29.651v-38.142c0-6.955-0.324-9.388-3.956-9.388c-3.376,0-15.248,0.729-18.291,1.184l-0.516,0.074
		l0.05,0.521c0.297,3.118,0.442,9.318,0.442,18.952v27.682c0,31.561,13.336,47.563,39.634,47.563
		c18.689,0,40.967-8.712,40.967-50.215v-21.065c0-12.774,0.164-18.519,0.444-24.12l0.029-0.575h-0.577
		C370.5,892.757,362.689,892.904,358.204,893.351"/>
	<path fill="#4F5858" d="M441.046,906.38c8.618,0,15.251,2.278,18.438,3.638l0.144,0.037c2.304,0.307,4.43-0.402,6.151-2.044
		c2.227-2.124,3.484-5.658,3.206-9.005l-0.017-0.185l-0.121-0.138c-2.277-2.55-13.102-7.548-27.802-7.548
		c-32.622,0-53.699,18.481-53.699,47.088c0,30.683,20.904,50.509,53.257,50.509c9.337,0,16.877-4.825,20.928-7.419l0.539-0.341
		l0.081-0.066c2.947-2.778,4.899-7.507,5.499-13.31l0.039-0.379l-1.125-0.557l-1.154,0.325c-3.806,1.083-10.891,3.099-20.217,3.099
		c-20.803,0-34.244-13.027-34.244-33.186C410.949,911.676,427.315,906.38,441.046,906.38"/>
	<path fill="#4F5858" d="M614.676,949.345l-7.107-51.253l-0.002-0.005c-0.584-3.937-1.541-5.33-3.65-5.33
		c-3.748,0-15.93,0.84-18.5,2.439l-0.26,0.161v2.112c-6.128,14.812-14.906,36.777-21.068,53.322l-18.875-50.448
		c-2.147-6.132-3.143-7.774-5.995-7.587c-7.594,0-13.202,1.223-17.296,2.114l-1.672,0.36l0.349,2.778
		c-4.165,25.093-8.106,50.425-10.985,68.93c-0.984,6.324-1.824,11.722-2.475,15.836l-0.061,0.379l0.334,0.188
		c2.485,1.392,10.747,4.064,15.52,4.064c2.086,0,2.913-3.209,3.357-5.653c2.039-16.638,5.25-46.797,6.859-64.301
		c2.572,8.219,6.09,19.323,9.503,30.099c4.913,15.504,9.55,30.147,11.29,35.915l0.116,0.391h0.408c2.921,0,6.394-0.391,10.62-1.191
		c3.863-0.769,5.38-2.06,6.482-5.523c7.352-22.058,15.313-46.127,19.477-59.909l2.848,30.615
		c1.387,15.604,2.264,24.164,2.969,31.041l0.139,1.372c0.309,3.375,2.508,7.146,4.992,7.146c2.957,0,12.057-2.57,15.943-3.67
		l1.705-0.477l-0.082-0.489C618.237,974.884,616.547,963.328,614.676,949.345"/>
	<path fill="#4F5858" d="M651.897,916.755c-3.619,0-14.33,0.894-18.205,1.933l-0.455,0.121l0.051,0.468
		c0.254,2.396,0.588,6.708,0.588,16.442v25.193c0,7.905-0.25,18.098-0.398,24.188l-0.057,2.306h0.563
		c7.76,0,13.164-0.199,16.053-0.594c4.068-0.468,5.518-3.943,5.518-7.042v-53.186C655.553,918.224,655.008,916.755,651.897,916.755"
		/>
	<path fill="#4F5858" d="M735.801,961.058v-17.383c0-18.188-7.92-27.804-22.904-27.804c-7.227,0-14.031,4.397-19.801,8.871
		c-1.529-5.889-4.926-8.871-10.105-8.871c-5.781,0-11.469,4.776-12.955,9.061l-0.031,1.663l0.26,0.161
		c2.006,1.249,2.557,2.732,2.557,6.902v24.013c0,7.776-0.139,19.812-0.447,29.167l-0.018,0.568h0.568
		c3.904,0,7.377-1.038,10.734-2.042c2.264-0.678,4.402-1.316,6.656-1.663c3.633-0.47,4.182-1.37,4.182-4.226v-43.767
		c2.969-2.098,5.512-3.566,10.256-3.566c5.518,0,9.371,4.621,9.371,11.238v37.715c0,2.62,1.229,6.311,3.955,6.311
		c4.771,0,9.227-1.427,12.803-2.57c1.973-0.629,3.676-1.174,4.865-1.277l0.527-0.047l-0.027-0.53
		C735.977,977.745,735.801,969.141,735.801,961.058"/>
	<path fill="#4F5858" d="M809.748,969.807c-0.527,0.131-1.553,0.131-2.234,0.131c-3.262,0-4.781-1.693-4.781-2.837
		c0-5.531,0.188-11.007,0.352-15.834c0.129-3.833,0.24-7.143,0.24-9.802c0-17.679-12.842-25.594-25.568-25.594
		c-10.221,0-21.24,4.993-28.141,9.669l-0.234,0.156l-0.008,0.283c-0.057,1.851,0.127,6.411,3.07,8.75
		c1.686,1.338,3.922,1.648,6.732,0.9l0.379-0.169c2.889-1.298,7.721-3.466,12.424-3.466c6.414,0,10.557,3.719,10.557,9.47v1.308
		c-1.727,0.313-4.658,0.842-7.115,1.249c-9.98,2.135-28.564,6.113-28.564,21.898c0,11.708,9.365,22.37,19.648,22.37
		c6.125,0,11.799-4.998,16.592-10.073c2.109,4.061,6.361,10.073,13.02,10.073c10.678,0,14.465-9.353,14.465-17.358l-0.301-1.254
		L809.748,969.807z M782.239,963.415c0,2.388-0.359,3.823-1.137,4.735c-1.895,1.598-3.299,2.084-6.012,2.084
		c-3.854,0-7.742-2.198-7.742-7.114v-0.146c0-1.726,1.086-7.418,14.891-8.964V963.415z"/>
	<path fill="#4F5858" d="M854.571,945.553l-0.021-0.012c-1-0.498-2.371-1.146-3.844-1.843c-2.893-1.368-6.172-2.921-7.814-3.885
		c-2.955-1.761-4.766-2.958-4.766-5.271c0-2.404,2.396-4.021,5.965-4.021c3.137,0,6.58,0.768,9.693,2.163l0.184,0.047
		c1.992,0.147,3.695-0.456,5.061-1.808c2.465-2.441,3.121-6.581,2.932-9.386l-0.016-0.257l-0.211-0.15
		c-4.994-3.59-10.506-5.26-17.348-5.26h-0.148c-12.387,0-25.717,6.904-25.717,22.06c0,7.154,3.82,13.502,10.512,17.427
		c1.986,1.024,3.934,2.014,5.844,2.982c1.939,0.982,3.84,1.948,5.699,2.907c3.947,2.118,4.74,3.641,4.74,5.409
		c0,2.701-2.506,4.313-6.705,4.313c-7.326,0-14.549-4.109-16.586-5.367l-0.357-0.22l-0.307,0.283
		c-2.146,1.997-4.318,6.064-4.318,9.979c0,3.013,2.15,4.757,4.27,6.071l1.25,0.737c4.164,2.462,9.871,5.837,14.717,5.837
		c13.881,0,28.238-9.523,28.238-25.462C865.516,955.285,861.936,949.635,854.571,945.553"/>
	<path fill="#4F5858" d="M240.766,892.96c-11.111,0-21.715,1.188-25.789,1.939l-0.492,0.091l0.045,0.498
		c0.596,6.813,0.596,12.932,0.596,20.016v67.335c0,2.857,1.448,5.894,4.135,5.894c4.061,0,15.525-0.426,18.367-1.212l0.424-0.116
		l-0.021-0.44c-0.297-5.931-0.449-12.721-0.449-20.177v-10.548c4.24,0.355,9.07-0.613,12.318-1.263
		c13.231-2.659,22.477-8.759,27.482-18.126c2.495-4.664,3.812-9.936,3.812-15.244C281.193,896.431,261.763,892.96,240.766,892.96
		 M242.856,938.893c-0.543,0-2.932-0.097-5.275-0.194v-31.348c1.512-0.215,3.281-0.215,4.38-0.215
		c7.927,0,16.029,1.687,16.029,14.173C257.99,936.607,248.508,938.893,242.856,938.893"/>
	<path fill="#4F5858" d="M770.504,853.708c14.379,0,26.811-7.265,39.982-14.959c14.652-8.565,29.805-17.417,49.395-17.417
		c2.164,0,4.133-1.277,5.012-3.254c0.881-1.974,0.508-4.289-0.941-5.894l-22.305-24.646l15.789-34.351
		c0.822-1.786,0.621-3.889-0.535-5.489c-1.15-1.59-3.088-2.448-5.186-2.224c-4.975,0.515-27.455,3.781-42.244,14.094
		c-0.072-19.95-1.256-29.294-1.271-29.423c-0.018-0.109-0.025-0.22-0.025-0.327c0-5.866-11.639-6.993-11.752-7
		c-19.49-1.579-39.896,0.905-62.385,7.604c-20.182,6.008-40.117,14.76-59.396,23.222c-8.988,3.946-18.281,8.029-27.58,11.816
		c-34.133,13.895-68.088,20.649-103.812,20.649c-35.71,0-69.658-6.755-103.784-20.649c-9.197-3.747-18.502-7.831-27.502-11.781
		l-0.136-0.059c-19.265-8.454-39.187-17.197-59.345-23.203c-22.53-6.705-42.934-9.187-62.381-7.601
		c-0.117,0.011-11.756,1.155-11.756,7.002c0,0.11-0.006,0.223-0.021,0.334c-0.019,0.134-1.407,10.658-1.279,34.025
		c-16.294-12.028-48.511-15.648-49.882-15.799c-1.549-0.168-3.066,0.508-3.977,1.769s-1.071,2.914-0.421,4.327l16.812,36.583
		l-23.826,26.331c-1.146,1.265-1.438,3.089-0.744,4.646c0.694,1.561,2.244,2.566,3.953,2.566c20.767,0,36.705,9.313,52.116,18.319
		c13.537,7.91,26.322,15.383,40.919,15.383c19.131,0,28.291-9.105,28.881-18.126c0.047-0.697,0.023-1.378-0.029-2.047
		c0.086-1.02,0.154-2.275,0.195-3.068c0.396-7.565,1.12-18.614,1.375-26.959c0.273-2.898,0.472-5.616,0.478-8.013
		c14.213,4.401,27.831,9.718,40.531,14.882c48.745,19.821,101.238,39.173,159.819,39.173c26.013,0,52.736-3.817,81.699-11.671
		c27.785-7.531,55.096-18.128,78.146-27.502c12.363-5.024,25.584-10.193,39.324-14.508c-0.064,1.883-0.191,4.215-0.334,6.846
		c-0.318,5.77-0.701,12.779-0.561,18.458c-0.148,3.58-0.137,8.574-0.09,9.285c0.338,5.152,3.363,10.017,8.301,13.35
		C754.877,851.874,762.063,853.708,770.504,853.708 M808.117,799.221c0,0,5.377,8.967-21.432,16.441
		c-3.568,0.884-7.678,1.841-12.436,2.944c-0.152,0.033-0.313,0.063-0.467,0.094c-1.084,0.22-2.195,0.436-3.346,0.65
		c-6.754,1.259-24.541,5.878-24.541,5.878c0.096-10.986,0.834-16.402,1.121-26.162c0.746-0.223,1.484-0.454,2.232-0.669
		c5.055-1.457,9.943-2.706,14.729-3.705c20.416-4.264,34.281-5.365,41.133,0.657C806.326,796.416,807.348,797.682,808.117,799.221
		 M327.878,849.25c-5.543,2.741-12.097,3.16-18.173,2.847c-29.195-1.507-48.281-33.401-88.846-33.401l23.762-27.308l-16.547-38.819
		c0,0,19.75,4.333,26.362,6.56c8.354,2.816,19.261,6.765,22.653,9.664c0.037,2.856,0.098,5.887,0.186,9.084
		c0.016,1.135,0.037,2.3,0.063,3.485c0.043,3.316,0.063,6.958,0.206,10.427c-1.34,1.141-2.832,2.787-3.659,5.138
		c-1.803,5.129-0.314,10.7,2.925,14.917c4.284,5.576,12.042,8.036,18.431,10.256c7.971,2.771,16.174,4.869,24.498,6.266
		c6.041,1.016,14.708,2.731,15.516,10.179C335.785,843.429,331.938,847.241,327.878,849.25 M337.285,830.046
		c-1.623-1.737-3.722-3.094-6.174-3.922c-0.867-0.372-1.823-0.669-2.877-0.87c-11.991-2.29-25.103-5.578-34.81-9.351
		c-6.063-2.357-10.802-4.902-13.101-7.513c-2.48-2.818-2.675-5.768-2.675-5.768c-0.038-0.549-0.011-1.062,0.049-1.534
		c0.167-1.316,0.608-2.297,0.802-2.708c1.92-4.104,6.707-5.868,9.057-6.621c2.298-0.433,4.755-0.674,7.25-0.674
		c0.701,0,1.371,0.021,2.002,0.054c12.74,0.709,25.975,3.083,40.465,7.258c0.723,0.208,1.434,0.433,2.15,0.646
		C339.336,804.006,338.953,811.041,337.285,830.046 M701.707,811.579c-22.951,9.334-50.133,19.882-77.723,27.359
		c-28.643,7.767-55.055,11.542-80.738,11.542c-57.914,0-110.023-19.219-158.435-38.901c-14.458-5.88-30.102-11.976-46.521-16.704
		c-4.605-1.326-9.082-2.465-13.465-3.438c-8.046-1.784-15.761-2.993-23.281-3.632c-4.088-0.486-7.896-0.679-11.287-0.478
		c-3.458,0.206-6.482,0.821-8.918,1.965c-1.705-40.412,0.597-58.466,0.62-58.644c0.037-0.271,0.056-0.55,0.056-0.83
		c0-1.336,4.803-3.048,8.387-3.35c19.047-1.529,39.012,0.908,61.031,7.464c19.955,5.942,39.789,14.647,58.969,23.065l0.117,0.051
		c9.004,3.953,18.313,8.036,27.563,11.805c34.575,14.077,68.983,20.92,105.191,20.92c36.187,0,70.589-6.843,105.169-20.92
		c9.256-3.769,18.553-7.85,27.541-11.795l0.135-0.059c19.17-8.415,38.994-17.12,58.965-23.065
		c22.041-6.567,42.008-9.007,61.037-7.466c3.506,0.298,8.383,2.04,8.383,3.35c0,0.26,0.02,0.535,0.057,0.821
		c0.018,0.131,1.367,10.606,1.242,33.59c-0.037,7.22-0.221,15.66-0.639,25.418c-0.51-0.189-0.994-0.381-1.473-0.563
		c-1.672-0.647-3.197-1.228-4.893-1.485c-2.945-0.708-6.768-0.739-10.543-0.739c-9.047,0.55-19.836,2.818-32.191,5.92
		c-2.576,0.646-5.18,1.331-7.832,2.096C731.844,799.597,716.188,805.694,701.707,811.579 M746.008,836.087
		c-0.602-3.41,0.783-6.392,3.975-7.767c1.906-0.821,6.803-2.248,8.754-2.613c7.006-1.316,42.004-8.253,49.955-15.529
		c4.693-4.273,6.781-11.792,1.369-16.55c-0.416-0.364-0.883-0.718-1.09-1.232c-0.15-0.376-0.143-0.795-0.131-1.202
		c0.244-8.992,0.582-17.992,0.627-26.987c14.338-9.589,36.299-14.313,41.195-14.821c0.986-0.098,2.006,0.337,2.602,1.158
		c0.596,0.823,0.697,1.903,0.275,2.827l-17.625,34.879l23.229,24.008c0.746,0.828,0.939,2.021,0.484,3.036
		c-0.451,1.02-1.467,1.679-2.582,1.679c-20.313,0-32.5,7.898-47.469,16.646c-12.842,7.503-24.969,14.59-38.631,14.59
		c-7.91,0-14.578-1.677-19.279-4.849C749.065,841.603,746.578,839.306,746.008,836.087"/>
	<path fill="#4F5858" d="M338.897,776.471c-0.53-0.149-0.796-0.225-1.329-0.374c-0.248,5.117-1.466,6.071-4.234,5.323
		c-2.155-0.58-3.245-0.865-5.453-1.427c-2.483-0.629-3.176-0.898-3.214-4.612c-0.059-5.908-0.015-8.918,0.045-14.917
		c2.433,0.587,3.63,0.889,5.994,1.511c2.934,0.77,3.951,3.219,3.939,6.832c0.537,0.147,0.807,0.222,1.342,0.369
		c0.018-5.617,0.059-8.436,0.068-14.052c-0.533-0.154-0.801-0.229-1.336-0.381c-0.291,2.126-0.619,4.965-3.988,4.076
		c-2.363-0.624-3.559-0.928-5.99-1.516c0.048-5.349,0.078-8.026,0.018-13.296c-0.035-3.181,0.61-3.286,3.076-2.666
		c1.538,0.386,2.301,0.585,3.809,0.989c3.191,0.856,5.219,2.832,5.252,8.167c0.529,0.154,0.795,0.231,1.32,0.389
		c-0.084-3.962-0.14-5.945-0.327-9.889c-8.979-2.643-13.671-3.822-23.839-5.712c0.02,0.564,0.027,0.845,0.044,1.413
		c4.909,1.888,5.058,1.913,5.089,8.479c0.068,14.245-0.455,21.884,0.012,35.76c8.256,1.916,12.17,2.957,19.747,5.144
		C338.867,782.245,338.867,780.322,338.897,776.471"/>
	<path fill="#4F5858" d="M366.216,751.401c-1.23-0.557-1.848-0.833-3.087-1.38c-2.572,5.924-3.983,8.735-6.877,14.512
		c-2.557-7.978-3.821-12.023-6.625-20.123c-3.325-1.286-5.016-1.911-8.471-3.113c-0.002,0.588-0.004,0.88-0.01,1.465
		c3.699,2.096,4.172,3.234,5.693,7.701c2.299,6.857,3.373,10.279,5.561,17.078c-3.992,7.652-6.123,11.601-10.008,19.466
		c1.292,0.444,1.932,0.664,3.207,1.113c3.171-6.691,4.882-10.02,8.172-16.517c2.76,8.822,4.127,13.151,7.139,22.187
		c2.187,0.849,3.271,1.276,5.431,2.135c-3.757-11.242-5.421-16.51-8.854-27.443C361.162,761.661,362.969,758.401,366.216,751.401"/>
	<path fill="#4F5858" d="M394.035,767.186c3.75,1.841,4.697,6.717,4.926,8.899c2.002,0.956,3.008,1.438,5.038,2.393
		c-0.521-5.223-3.223-11.126-9.647-14.285c-9.182-4.517-11.273,4.785-11.395,16.362c-0.15,14.021,3.251,24.281,11.926,27.886
		c4.186,1.742,7.616,1.328,8.674,1.097c-0.029-1.707-0.044-2.545-0.067-4.187c-1.095,0.763-3.669,1.992-7.353,0.461
		c-8.168-3.401-8.662-17.787-8.617-24.735C387.561,774.687,388.391,764.414,394.035,767.186"/>
	<path fill="#4F5858" d="M418.916,772.313c-9.697-4.297-11.879,3.524-11.787,16.262c0.094,12.676,3,22.695,12.465,26.31
		c9.328,3.562,12.275-4.339,12.119-16.223C431.555,786.609,428.212,776.431,418.916,772.313 M419.528,811.729
		c-6.819-2.61-7.572-13.825-7.645-21.089c-0.076-7.908,0.178-18.233,7.102-15.17c6.788,3.005,7.49,13.794,7.59,21.216
		C426.672,803.94,426.481,814.386,419.528,811.729"/>
	<path fill="#4F5858" d="M460.403,799.442c-0.033-10.15-10.806-14.391-14.661-15.733c-5.06-1.763-7.496-2.673-12.226-4.534
		c0.012,0.599,0.016,0.893,0.025,1.476c4.483,2.755,4.643,3.021,4.717,8.938c0.166,12.838,0.181,16.823,0.393,31.406
		c2.131,0.716,3.207,1.068,5.389,1.772c-0.09-8.452-0.121-11.685-0.184-18.502c1.244,0.418,1.871,0.626,3.136,1.04
		c3.66,7.959,5.524,11.634,9.248,21.188c2.417,0.699,3.489,0.999,5.821,1.618c-3.759-9.97-5.596-13.703-9.486-21.998
		C456.723,806.7,460.424,805.909,460.403,799.442 M446.718,802.665c-1.163-0.386-1.741-0.582-2.886-0.973
		c-0.037-3.901-0.055-5.823-0.098-10.05c-0.042-4.275-0.091-5.55,3.374-4.359c4.341,1.494,7.716,4.722,7.726,10.838
		C454.843,804.464,450.031,803.763,446.718,802.665"/>
	<path fill="#4F5858" d="M477.85,792.833c-5.734-1.167-8.555-1.831-14.061-3.335c0.002,0.601,0.004,0.896,0.006,1.48
		c4.578,2.245,4.766,2.53,4.801,8.335c0.078,12.604,0.125,16.023,0.199,30.695c3.039,0.739,4.564,1.085,7.631,1.737
		c10.023,2.133,18.783,0.389,18.769-16.435C495.182,800.242,487.682,794.833,477.85,792.833 M477.95,828.946
		c-3.553-0.731-3.558-2.517-3.572-4.853c-0.073-11.011-0.123-14.405-0.196-25.547c-0.02-2.855,1.199-3.09,4.203-2.484
		c9.736,1.968,10.969,9.077,11.01,18.503C489.442,825.319,487.324,830.876,477.95,828.946"/>
	<path fill="#4F5858" d="M496.836,797.719c4.898,1.729,5.066,2.019,4.896,7.847c-0.37,12.648-0.446,15.904-0.895,30.753
		c8.356,1.165,12.572,1.596,21.048,2.143c0.253-4.046,0.371-5.835,0.6-9.236c-0.6-0.037-0.898-0.056-1.498-0.093
		c-0.535,4.554-2.039,5.952-5.064,5.697c-2.355-0.196-3.533-0.309-5.879-0.555c-2.643-0.278-3.316-0.61-3.2-4.018
		c0.187-5.431,0.263-7.714,0.423-12.466c2.588,0.287,3.887,0.421,6.49,0.649c3.227,0.288,4.343,2.037,4.211,4.989
		c0.602,0.042,0.903,0.065,1.507,0.107c0.208-4.591,0.304-6.678,0.517-11.322c-0.607-0.04-0.912-0.061-1.521-0.105
		c-0.406,1.801-0.893,4.151-4.613,3.822c-2.609-0.229-3.91-0.36-6.504-0.648c0.143-4.257,0.215-6.354,0.38-11.23
		c0.101-2.942,0.815-3.195,3.538-2.938c1.699,0.161,2.551,0.233,4.258,0.369c3.607,0.288,5.848,1.97,5.633,6.651
		c0.613,0.038,0.919,0.054,1.531,0.089c0.1-3.468,0.151-5.293,0.276-9.428c-10.56-0.563-15.821-1.073-26.092-2.575
		C496.859,796.83,496.852,797.127,496.836,797.719"/>
	<path fill="#4F5858" d="M543.147,802.418c5.039,0.842,5.193,1.132,4.926,7.049c-0.574,12.845-0.793,15.948-1.42,31.169
		c8.557-0.357,12.852-0.691,21.436-1.67c0.271-4.163,0.4-5.991,0.654-9.46c-0.603,0.07-0.904,0.105-1.508,0.176
		c-0.575,4.687-2.103,6.387-5.171,6.675c-2.39,0.227-3.584,0.327-5.975,0.507c-2.689,0.201-3.381-0.019-3.214-3.486
		c0.265-5.529,0.387-7.826,0.635-12.623c2.629-0.18,3.941-0.283,6.566-0.517c3.252-0.29,4.342,1.265,4.174,4.249
		c0.607-0.063,0.91-0.096,1.515-0.161c0.263-4.645,0.388-6.738,0.651-11.441c-0.607,0.065-0.91,0.099-1.52,0.161
		c-0.426,1.883-0.936,4.322-4.682,4.659c-2.627,0.233-3.941,0.339-6.574,0.52c0.221-4.299,0.33-6.413,0.566-11.381
		c0.143-2.996,0.873-3.389,3.607-3.618c1.711-0.143,2.564-0.218,4.267-0.384c3.6-0.349,5.798,0.976,5.54,5.732
		c0.606-0.072,0.91-0.105,1.516-0.178c0.128-3.513,0.193-5.367,0.338-9.599c-10.381,1.268-15.68,1.693-26.27,2.091
		C543.182,801.51,543.17,801.814,543.147,802.418"/>
	<path fill="#4F5858" d="M589.838,798.114c4.766-0.917,5.633,3.318,5.805,5.263c2.494-0.529,3.734-0.808,6.197-1.39
		c-0.387-4.711-3.23-8.899-11.379-7.307c-11.646,2.28-15.277,13.069-15.857,23.054c-0.701,12.087,3.086,20.984,14.105,18.971
		c5.322-0.974,9.748-3.881,11.111-4.879c0.064-1.787,0.098-2.639,0.16-4.278c-1.43,1.527-4.787,4.617-9.455,5.504
		c-10.35,1.967-10.291-11.473-9.947-17.537C580.896,809.935,582.659,799.492,589.838,798.114"/>
	<path fill="#4F5858" d="M618.828,790.873c4.379-1.373,5.324,2.783,5.572,4.701c2.236-0.768,3.355-1.16,5.594-1.958
		c-0.564-4.656-3.275-8.618-10.711-6.251c-10.629,3.384-13.941,14.585-14.26,24.576c-0.387,12.101,3.57,20.668,14.51,17.513
		c5.281-1.521,8.818-4.666,9.992-5.763c-0.002-1.817-0.004-2.678-0.012-4.334c-1.217,1.64-3.717,4.877-8.322,6.245
		c-10.213,3.033-10.59-10.403-10.467-16.466C610.838,803.559,612.235,792.936,618.828,790.873"/>
	<path fill="#4F5858" d="M653.748,806.96c0.1,5.805-2.557,7.46-5.561,8.6c-1.639,0.624-2.457,0.933-4.092,1.539
		c-3.186,1.181-3.168,0.936-3.213-3.789c-0.135-14.154-0.439-16.926-0.549-33.276c-3.896,2.1-5.848,3.141-9.746,5.173
		c0.004,0.627,0.004,0.936,0.008,1.541c4.514-0.701,4.646-0.456,4.715,4.639c0.176,13.125,0.414,16.044,0.398,32.106
		c7.676-2.656,11.547-4.12,19.322-7.158c0.053-4.381,0.059-6.294,0.051-9.903C654.549,806.642,654.283,806.749,653.748,806.96"/>
	<path fill="#4F5858" d="M678.93,796.728c-0.131,4.946-1.441,7.112-4.191,8.241c-2.143,0.88-3.215,1.319-5.355,2.192
		c-2.408,0.981-3.021,0.958-3.092-2.683c-0.109-5.796-0.209-8.17-0.416-13.014c2.301-0.942,3.451-1.415,5.758-2.364
		c2.859-1.179,4.006,0.07,4.143,3.12c0.535-0.223,0.803-0.332,1.34-0.555c-0.217-4.741-0.355-6.832-0.615-11.395
		c-0.529,0.218-0.795,0.325-1.326,0.542c-0.184,1.911-0.387,4.404-3.666,5.752c-2.301,0.944-3.449,1.417-5.744,2.354
		c-0.191-4.299-0.297-6.371-0.473-11.182c-0.105-2.902,0.498-3.476,2.838-4.399c1.459-0.577,2.189-0.867,3.65-1.442
		c3.09-1.224,5.105-0.536,5.35,3.992c0.527-0.213,0.793-0.323,1.32-0.536c-0.24-3.318-0.357-5.042-0.561-8.938
		c-8.963,3.478-13.426,5.246-22.342,8.672c0.012,0.615,0.018,0.915,0.029,1.511c4.307-0.646,4.438-0.411,4.633,5.405
		c0.432,12.627,0.83,15.771,0.875,31.943c7.67-3.062,11.523-4.661,19.254-7.832c0.021-4.402,0.004-6.329-0.061-9.942
		C679.739,796.393,679.469,796.505,678.93,796.728"/>
	<path fill="#4F5858" d="M688.514,770.455c-0.244-3.7,1.68-6.472,4.176-7.428c3.676-1.406,7.301-0.823,8.635-0.566
		c-0.129-1.686-0.189-2.559-0.303-4.388c-1.244,0.143-4.357,0.452-7.598,1.668c-6.627,2.486-10.389,8.314-10.008,14.412
		c0.725,11.696,16.369,3.471,16.854,13.368c0.275,5.562-2.736,8.916-5.799,10.153c-3.885,1.573-7.826,0.235-9.359-0.33
		c0.059,2.128,0.082,3.246,0.115,5.637c1.023-0.047,4.779,0.007,8.523-1.509c6.709-2.718,12.242-9.624,11.74-18.034
		C704.739,770.855,689.084,779.088,688.514,770.455"/>
	<path fill="#4F5858" d="M704.494,757.117c0.035,0.535,0.053,0.8,0.092,1.321c4.645-0.912,4.785-0.748,5.199,3.771
		c1.063,11.64,1.865,14.933,2.162,31.253c2.145-0.813,3.217-1.214,5.361-2.004c-0.398-20.643-1.768-22.591-2.967-39.262
		C710.397,754.126,708.428,755.11,704.494,757.117"/>
	<path fill="#4F5858" d="M736.99,746.293c-3.611,1.068-7.58,1.625-11.174,2.771c0.043,0.515,0.066,0.768,0.111,1.27
		c1.941-0.273,3.715-0.736,3.938,1.432c0.037,0.379-0.293,2.411-0.482,3.389c-2.568,12.59-3.604,16.681-7.156,34.52
		c1.209-0.431,1.813-0.644,3.021-1.063c1.334-6.792,1.912-9.607,2.996-14.867c4.949-1.689,7.426-2.496,12.377-3.993
		c1.85,4.337,2.742,6.698,4.318,12.62c2.018-0.568,3.025-0.842,5.043-1.365C742.891,762.464,741.723,759.065,736.99,746.293
		 M728.844,770.832c1.498-7.101,3.158-11.706,4.533-18.416c2.729,5.657,4.285,9.208,6.188,14.952
		C735.274,768.68,733.131,769.377,728.844,770.832"/>
	<path fill="#4F5858" d="M752.137,748.957c1.34,10.831,2.336,14.409,2.596,30.865c7.717-1.843,11.566-2.601,19.217-3.632
		c0.041-4.552,0.006-6.559-0.127-10.277c-0.541,0.082-0.813,0.122-1.354,0.208c-0.029,5.021-1.348,6.902-4.096,7.375
		c-2.141,0.367-3.211,0.568-5.355,0.996c-2.414,0.484-3.018,0.344-3.193-3.361c-0.277-5.9-0.521-8.307-1.041-12.959
		c2.352-0.547,3.529-0.805,5.885-1.289c2.92-0.601,4.184,0.842,4.443,3.908c0.545-0.098,0.818-0.147,1.361-0.24
		c-0.402-4.778-0.67-6.837-1.188-11.032c-0.547,0.103-0.822,0.154-1.369,0.259c-0.09,1.703-0.166,3.979-3.525,4.676
		c-2.357,0.488-3.535,0.748-5.891,1.298c-0.484-4.041-0.76-5.905-1.242-9.968c-0.293-2.451,0.322-2.852,2.76-3.382
		c1.523-0.332,2.285-0.494,3.813-0.803c3.229-0.659,5.4,0.117,5.887,4.116c0.547-0.101,0.822-0.149,1.371-0.247
		c-0.416-2.949-0.625-4.419-0.986-7.604c-9.43,1.65-14.102,2.708-23.369,5.117c0.047,0.491,0.07,0.731,0.119,1.214
		C751.387,743.852,751.52,743.966,752.137,748.957"/>
	<path fill="#4F5858" d="M563.979,598.536c-0.951-1.997-5.514-10.784-6.843-12.634c-0.597-0.828-1.112-1.717-1.751-2.515
		c-2.254-2.823-1.884-5.784-1.598-6.598c0.941-2.704,2.466-7.243,5.16-17.995c1.307-5.213,1.461-7.961,1.571-8.892
		c0.466-3.98,0.761-6.488,0.362-9.854c-0.242-2.061-0.742-5.964-3.203-10.285c-2.556-4.49-5.795-6.91-6.48-7.408
		c-0.894-0.65-2.49-1.796-4.877-2.661c-0.646-0.234-3.94-1.387-8.375-1.008c-5.713,0.488-9.612,3.205-11.066,4.244
		c-0.9,0.644-4.354,3.209-6.988,7.912c-2.555,4.552-2.964,8.649-3.205,11.364c-0.289,3.235-0.671,7.52,1.385,12.308
		c1.566,3.646,3.962,6.221,4.805,7.112c1.203,1.272,2.34,2.219,3.203,2.876c0.55-0.926,1.43-2.215,2.753-3.526
		c2.895-2.865,4.387-3.356,7.007-3.464c1.025-0.042,2.585,0.396,3.584,0.855c0.163,0.075,0.304,0.258,0.463,0.382
		c0.834-1.691,1.063-5.298,1.063-7.05c0.002-2.519-0.111-4.043-0.717-5.391c-0.285-0.632-0.686-1.251-0.688-1.256
		c-0.471-0.725-1.001-1.541-1.871-2.131c-0.398-0.269-0.686-0.369-0.989-0.477c-0.498-0.178-1.172-0.419-1.73-1.217
		c-0.845-1.211-0.675-2.529-0.612-3.026c0.268-2.093,1.78-3.334,2.357-3.735c0.027-0.018,0.047-0.027,0.074-0.047
		c0.699-0.393,2.598-1.26,4.891-0.653c1.963,0.514,3.038,1.802,3.443,2.286c1.381,1.648,1.692,3.422,1.879,4.954
		c0.23,1.922,0.613,7.075-0.834,13.375l-0.093,0.407c-0.265,1.193-0.595,2.666-1.509,4.24c-0.395,0.676-0.705,1.14-0.956,1.511
		c-0.177,0.263-0.362,0.419-0.391,0.602c-0.597,3.791-0.55,27.815-0.304,31.7c0.088,1.382,0.217,16.324,0.363,19.633
		c0.03,0.674,0.095,2.882-1.167,3.75c-0.834,0.572-1.923,0.467-2.235,0.433c-1.457-0.159-2.457-1.056-2.839-1.408
		c-5.478-5.062-7.994-12.945-7.994-12.945c-1.438-4.509-3.071-10.931-3.794-18.972c-5.634,7.11-10.279,15.906-13.068,26.351
		c-2.393,8.965-1.127,17.591,0.721,25.458c0.005,0.02,0.555,2.478,1.08,4.716c1.506-0.389,3.168-0.479,4.719-0.239
		c0.064-0.096,0.12-0.193,0.203-0.282c0.021-0.023,0.049-0.052,0.077-0.077c0.716-0.662,1.798-1.782,2.946-2.966l0.029-0.03
		c2.164-2.236,4.616-4.767,6.293-6.061c0.576-0.438,1.427-0.423,1.983,0.026c0.571,0.463,0.741,1.27,0.405,1.92
		c-0.102,0.196-0.527,0.739-1.066,1.424c-0.298,0.375-0.615,0.779-0.904,1.158c0.084-0.077,0.169-0.157,0.258-0.238
		c0.758-0.699,1.541-1.42,1.789-1.586c0.486-0.32,1.153-0.271,1.585,0.109l0.076,0.07c0.404,0.426,0.474,1.064,0.165,1.561
		c-4.963,7.907-6.95,10.562-7.914,11.455c0.008,0.216,0.01,0.412,0.01,0.56c-0.002,1.781-0.5,3.169-0.828,4.088
		c-0.475,1.328-1.02,2.267-1.596,3.263c-0.354,0.61-0.755,1.209-1.142,1.787c-1.056,1.576-2.052,3.063-2.31,4.948
		c-0.221,1.591,0.208,3.097,0.658,4.692c0.193,0.678,0.393,1.38,0.534,2.081c0.253,1.247,0.458,3.152,0.499,5.337
		c0.81,0.352,1.679,0.697,2.605,1.029c0.696,0.246,1.369,0.463,2.025,0.657c1.295-2.533,2.87-4.827,4.6-6.546
		c2.619-2.601,2.688-4.533,2.217-8.324c-0.105-0.84-0.293-1.642-0.477-2.421c-0.449-1.908-0.911-3.882-0.092-6.254
		c0.47-1.361,1.27-2.587,2.177-3.791c1.032-1.37,2.736-2.701,3.276-3.108c0.058-0.944,0.506-4.021,0.964-6.586
		c1.041-5.845,1.522-6.647,2.888-6.747l0.114-0.005c1.362,0,1.769,0.54,3.353,6.742c0.508,1.981,1.241,5.063,1.418,6.149
		c0.467,0.858,0.937,1.719,1.414,2.584c0.305,0.552,0.611,1.102,0.916,1.646c0.864,1.591,1.09,2.929,1.15,3.794
		c0.081,1.237,0.025,2.565-0.758,4.993c-0.314,0.973-0.611,1.895-0.7,2.855c-0.21,2.229,0.574,4.835,2.206,7.337
		c0.374,0.575,0.819,1.165,1.405,1.859c1.919,2.28,3.739,4.603,5.138,7.26c0.5-0.087,1.055-0.213,1.279-0.262
		c0.445-0.101,1.201-0.325,1.915-0.566l0.054-0.009c-0.021-3.204,0.465-6.205,0.805-7.892c0.145-0.704,0.343-1.405,0.535-2.086
		c0.453-1.593,0.88-3.099,0.661-4.689c-0.259-1.883-1.255-3.373-2.311-4.949c-0.388-0.577-0.788-1.176-1.143-1.786
		c-0.575-0.994-1.216-1.899-1.595-3.261c-0.66-2.374-0.438-4.386,0.012-5.913c-0.845-1.045-2.451-3.732-6.047-10.674
		c-0.187-0.357-0.094-0.795,0.221-1.05c0.16-0.129,0.355-0.194,0.549-0.194c0.189,0,0.379,0.063,0.537,0.185
		c0.684,0.538,1.823,1.684,3.053,3.017c-1.035-1.863-1.955-3.571-2.244-4.261c-0.206-0.496-0.037-1.064,0.406-1.368
		c0.199-0.138,0.43-0.203,0.66-0.203c0.281,0,0.563,0.1,0.779,0.299c1.551,1.413,3.773,4.119,5.735,6.507
		c0.745,0.907,1.456,1.771,2.046,2.46c1.156-0.154,2.391-0.091,3.616,0.178c0.001-0.042,0.003-0.07,0.003-0.114
		c0.004-0.211,0.376-1.401,0.851-2.807C567.24,634.809,573.109,617.697,563.979,598.536 M531.096,556.65
		c-0.33,1.076-1.326,1.824-2.422,1.824c-0.489,0-0.973-0.145-1.395-0.426c-3.195-2.1-5.273-5.456-5.556-8.974
		c-0.149-1.864,0.338-3.635,1.448-5.263c0.154-0.227,0.32-0.451,0.486-0.678c0.461-0.62,0.893-1.205,0.896-1.673
		c0.016-1.368,1.117-2.441,2.514-2.441c0.696,0,1.373,0.276,1.854,0.756c0.475,0.471,0.732,1.105,0.725,1.789
		c-0.011,1.108-0.359,2.044-0.801,2.857c1.422,0.835,2.627,2.521,2.519,4.86c-0.056,1.212-0.863,3.81-1.142,4.678
		C531.049,554.597,531.403,555.649,531.096,556.65 M534.26,628.692c-0.697,0.728-1.611,1.111-2.643,1.111
		c-0.211,0-0.42-0.015-0.626-0.047c-1.36-0.192-2.25-0.987-2.94-1.988c-2.389-3.457,3.409-11.313,4.229-12.041
		c0.314-0.28,0.727-0.433,1.143-0.433c0.178,0,0.355,0.028,0.524,0.087c0.577,0.187,1.011,0.671,1.131,1.256
		C535.782,620.083,536.615,626.232,534.26,628.692 M544.338,629.455c-0.673,0.617-1.559,0.959-2.494,0.959
		c-0.152,0-0.309-0.012-0.467-0.028c-1.268-0.149-2.5-0.896-3.211-1.95c-1.762-2.595-0.796-5.195-0.021-7.284
		c0.354-0.952,0.684-1.841,0.775-2.661c0.076-0.669,0.621-1.188,1.295-1.24c1.113-0.088,1.772,0.796,2.092,1.222
		c0.072,0.101,0.123,0.173,0.176,0.227c0.766,0.805,2.791,3.796,3.098,5.295C545.949,625.811,545.708,628.204,544.338,629.455
		 M553.918,628.91c-0.143,0.042-0.285,0.075-0.432,0.101c-1.689,0.292-3.465-0.479-4.422-1.928c-1.22-1.851-1.634-3.934-2-5.777
		c-0.316-1.585-0.616-3.08-1.35-4.348c-0.377-0.652-0.242-1.494,0.318-1.997c0.561-0.508,1.421-0.555,2.043-0.124
		c1.414,0.982,8.485,6.128,8.41,10.777C556.462,627.18,555.451,628.473,553.918,628.91"/>
	<path fill="#4F5858" d="M854.326,631.866c-4.244-5.51-13.033-7.412-18.893-3.642c-0.977-4.565-7.242-36.087-8.729-48.055
		c36.887-4.304-22.451-61.373-24.217-23.58c-10.828,0.072-38.813-1.469-45.494-1.773c7.24-16.207-12.355-25.148-24.236-14.57
		c-2.725-2.002-17.252-12.07-25.643-17.955c-0.004-14.766-0.016-29.74-0.029-44.265c25.818,3.237,49.244,0.632,73.291-10.917
		c8.174,13.885,23.943,6.594,21.234-6.309c14.109-11.764,37.361-31.912,45.125-48.685c2.699-5.869-3.654-9.976-8.592-6.39
		c2.123-3.852,2.48-10.221-3.857-10.939c1.252-4.297-1.922-12.336-7.369-9.838c1.074-4.012-3.521-9.296-7.512-7.781
		c1.078-2.146-1.221-15.686-8.67-11.443c0.195-4.494-5.82-12.363-11.25-9.836c0.217-4.317-0.959-9.687-8.227-10.5
		c-4.27,0-5.896,6.432-7.779,13.878c-3.703,13.978-11.906,27.364-20.65,38.922c-8.557-4.331-22.973,7.805-16.047,15.706
		c-6.451,5.694-23.303,9.967-39.756,11.102c-0.018-27.395-0.053-41.875,0.049-50.91h-82.961
		c11.758-8.447,50.941-36.699,62.162-44.41c0.342,0.598,7.146,10.063,10.529,14.451c3.119-2.152,8.953-6.09,11.229-7.748
		c1.486,2.075,3.6,5.137,5.695,8.23c-2.225,1.567-8.932,6.29-11.047,7.78c3.197,4.428,17.469,24.198,20.666,28.628
		c3.688-2.596,9.934-6.996,13.619-9.592c-1.484-2.057-8.697-12.049-10.33-14.309l9.156-6.449c1.676,2.321,8.805,12.195,10.33,14.308
		c4.258-2.998,15.365-10.823,19.623-13.822c-3.186-4.433-11.609-16.438-16.418-22.604c-2.02,1.422-8.482,5.975-10.604,7.469
		l-7.418-10.277c3.893-2.789,7.271-5.127,10.762-7.43c-1.504-2.084-6.029-8.352-7.598-10.525c4.412-3.104,8.264-5.818,10.822-7.625
		c2.158,3.27,5.217,7.152,7.965,10.156c3.568-2.52,9.57-6.758,11.414-8.053c1.875,2.621,4.67,6.514,7.402,10.263
		c-2.264,1.595-9.564,6.737-11.699,8.239c3.146,4.361,13.203,18.293,16.352,22.653c4.314-3.04,16.303-11.483,20.619-14.524
		c-1.469-2.053-8.656-12.09-10.273-14.347l7.5-5.283c1.846,2.485,9.061,12.197,10.762,14.485l14.168-10.198
		c-3.289-4.555-17.492-24.231-20.791-28.804c-2.104,1.482-10.791,7.6-13.055,9.196l-5.906-8.183
		c2.316-1.633,10.902-7.682,13.053-9.197c-1.482-2.053-8.777-12.16-10.408-14.42c2.127-1.563,6.055-3.422,5.043-6.738
		c-0.582-2.662-9.443-13.983-12.088-14.811c-1.646-0.684-3.383,0.441-3.432,0.536L617.403,350.197
		c-1.104-6.289-3.738-22.176-5.449-32.94h33.619c2.451,0,4.447-1.972,4.447-4.394c0.596-3.884-2.129-6.623-6.076-6.033v-3.133
		c6.555-0.5,6.553-10.51,0-11.008v-26.945c-0.848,1.498-2.809,4.977-3.73,6.587c-0.336-3.953-1.199-8.698-2.205-12.282
		c6.863,1.42,8.092-10.25,1.291-10.428c-1.25,0.02-5.799-0.012-6.971,0.002v-2.527c7.307,0.1,7.303-11.227,0-11.126v-21.321
		c-2.313,3.859-3.992,7.348-6.438,11.887c-1.439-6.414-3.664-12.502-6.631-18.167c3.098-0.2,4.469-3.229,4.08-5.997
		c0.088-5.215-6.459-4.42-9.986-4.383c-0.01,0-0.021,0-0.029,0c6.084-0.51,6.609-9.69,0.637-10.867
		c-0.037-0.469-0.061-18.912-0.061-18.912c-2.049,3.607-3.836,7.048-5.959,11.063c-6.156-12.426-31.14-36.105-54.443-40.193
		c-0.381-5.683-3.713-9.761-6.002-10.479v-0.658v-14.362h9.628v-11.884h-9.628V91.268h-14.521v10.428h-9.626v11.884h9.626v14.362
		v0.658c-2.212,0.879-5.29,4.271-5.94,10.155c-19.295,3.669-38.97,17.937-54.377,40.765c-2.061-3.854-3.541-6.866-5.539-10.2v17.682
		c-6.34,0.722-6.205,10.446,0.154,10.987c-0.049,0-4.639,0-4.815,0c-1.44,0-5.208,0.899-5.325,4.384
		c-0.404,2.825,1.057,5.918,4.244,6.011c-0.647,1.633-4.953,11.664-6.776,18.201c-2.459-4.564-4.133-8.061-6.456-11.938v21.416
		c-8.45-1.377-8.447,12.32,0,10.942v2.618c-1.142-0.02-5.742,0.014-6.973,0c-6.801,0.176-5.57,11.847,1.291,10.426
		c-1.018,3.629-1.881,8.406-2.213,12.404c-0.719-1.486-2.941-5.301-3.723-6.702v26.945c-8.132-1.058-8.129,12.052,0,10.993v3.141
		c-3.943-0.588-6.674,2.147-6.074,6.033c0,2.422,1.994,4.394,4.447,4.394h33.016c-1.477,10.417-3.873,26.473-5.007,32.94
		L308.393,241.132c-0.049-0.095-1.787-1.22-3.434-0.536c-2.645,0.827-11.506,12.148-12.086,14.811
		c-0.999,3.314,2.897,5.178,5.045,6.738c-1.679,2.324-8.889,12.31-10.41,14.42c2.102,1.482,10.789,7.602,13.053,9.197l-5.906,8.183
		c-2.317-1.632-10.902-7.681-13.055-9.196c-3.301,4.574-17.5,24.244-20.792,28.804l14.169,10.198
		c1.658-2.232,8.959-12.061,10.76-14.485l7.502,5.283c-1.661,2.319-8.764,12.237-10.273,14.347
		c4.316,3.041,16.303,11.482,20.617,14.524c3.148-4.358,13.205-18.292,16.354-22.653c-2.098-1.475-9.479-6.674-11.699-8.239
		c2.73-3.749,5.527-7.642,7.402-10.263c1.829,1.287,7.855,5.541,11.416,8.053c2.746-3.005,5.804-6.887,7.961-10.156
		c2.561,1.807,6.41,4.521,10.824,7.625c-1.593,2.206-6.074,8.412-7.599,10.525c3.491,2.303,6.871,4.641,10.763,7.43l-7.418,10.277
		c-2.156-1.519-8.553-6.023-10.604-7.469c-4.823,6.186-13.214,18.148-16.419,22.604c4.26,2.999,15.365,10.823,19.625,13.822
		c1.484-2.056,8.698-12.049,10.328-14.308l9.156,6.449c-1.676,2.321-8.803,12.195-10.33,14.309
		c3.688,2.596,9.934,6.996,13.621,9.592c3.195-4.429,17.468-24.197,20.665-28.628c-2.081-1.466-8.858-6.239-11.045-7.78
		c2.093-3.094,3.349-4.913,4.837-6.988c2.275,1.656,7.951,5.359,11.069,7.51c3.412-4.43,11.165-14.803,11.544-15.455l61.379,43.125
		c0.299,0.207,1.393,0.916,1.523,1.285h-83.7c0.103,8.979,0.069,23.366,0.048,50.548c-16.781-1.062-36.041-5.001-42.541-10.739
		c6.926-7.901-7.488-20.035-16.047-15.706c-8.746-11.565-16.943-24.939-20.648-38.922c-1.885-7.446-3.511-13.878-7.781-13.878
		c-7.265,0.818-8.441,6.18-8.225,10.5c-5.437-2.521-11.439,5.333-11.251,9.836c-7.451-4.246-9.748,9.303-8.669,11.443
		c-3.99-1.514-8.587,3.768-7.514,7.781c-5.447-2.496-8.618,5.54-7.367,9.838c-6.345,0.727-5.98,7.083-3.859,10.939
		c-4.93-3.57-11.299,0.508-8.59,6.39c7.793,16.801,30.983,36.888,45.125,48.685c-2.708,12.904,13.061,20.192,21.234,6.309
		c24.928,11.995,49.242,14.328,76.076,10.469c-0.016,14.654-0.027,29.777-0.029,44.684c-8.383,5.883-22.955,15.98-25.683,17.984
		c-11.894-10.588-31.475-1.618-24.237,14.57c-6.703,0.307-34.647,1.844-45.494,1.773c-1.769-37.793-61.102,19.278-24.215,23.58
		c-1.486,11.968-7.753,43.489-8.73,48.055c-9.756-6.383-24.572,3.408-21.573,14.858c2.297,9.351,22.452,29.381,32.618,29.39
		c8.309,0.396,16.541-10.283,12.674-18.156c2.523-0.82,10.966-2.21,11.381-2.297c19.252,32.77,92.334,67.316,125.854,88.176
		c2.627,1.046,7.008,1.956,8.482-1.265c3.668-4.495,11.365-10.179,6.222-16.501c3.69-1.868,6.112-7.433,4.534-10.58
		c4.744-2.367,4.966-6.046,2.6-10.445c1.746-1.329,3.959-4.537,1.711-6.778c-0.977-1.155-2.076-2.727-3.732-2.877
		c-8.63-1.342-17.192-3.286-25.473-5.164c-14.559-3.305-29.607-6.719-45.472-6.977c-2.532-1.153-5.878-3.104-9.854-5.704
		l0.019-0.065c-6.267-3.901-13.167-9.121-21.686-15.685c16.464,7.487,46.379-31.422,19.726-35.12l0.908-5.702
		c6.836,4.072,23.611,2.535,32.407-1.508c18.228,60.69,50.95,69.484,163.971,126.867c113.247-57.584,145.456-65.856,163.974-126.855
		c8.744,4.039,25.598,5.559,32.371,1.496l0.908,5.702c-26.652,3.698,3.258,42.604,19.725,35.12
		c-8.521,6.563-15.416,11.783-21.689,15.685l0.023,0.065c-3.979,2.601-7.324,4.551-9.855,5.704
		c-15.865,0.258-30.912,3.672-45.473,6.977c-8.279,1.878-16.842,3.822-25.471,5.164c-1.646,0.146-2.775,1.724-3.734,2.877
		c-2.213,2.227-0.074,5.471,1.711,6.778c-2.369,4.406-2.139,8.08,2.598,10.445c-1.574,3.15,0.846,8.709,4.537,10.58
		c-5.1,6.313,2.516,12.018,6.223,16.501c1.475,3.221,5.852,2.313,8.48,1.263c33.492-20.844,106.58-55.386,125.852-88.174
		c0.418,0.087,8.859,1.477,11.383,2.297c-3.941,8.104,4.717,18.984,13.293,18.14C837.43,669.867,866.172,646.318,854.326,631.866
		 M285.967,347.752c3.596-0.79,5.615,13.033,7.329,17.54c4.544,11.932,12.027,24.874,19.719,34.571
		C311.405,418.356,263.803,350.824,285.967,347.752 M275.338,357.754c1.914-0.927,1.619,0.08,3.525,5.936
		c5.84,16.129,22.791,39.35,28.063,42.986c0.532,1.74-2.063,5.537-3.107,5.494c-12.649-7.173-27.351-30.839-28.899-33.418
		C272.531,375.108,262.949,363.754,275.338,357.754 M263.048,367.638c0.95-0.306,2.636-1.206,4.542,2.753
		c2.308,4.791,11.007,19.912,18.893,29.166c3.623,4.251,9.337,11.467,12.91,14.466c3.299,2.769,2.579,3.583,1.215,5.765
		c-3.182,3.633-5.298,0.043-7.413-1.568c-9.548-9.087-18.36-14.082-32.407-39.146C258.191,374.438,262.42,367.239,263.048,367.638
		 M257.377,379.467c17.99,26.62,17.34,27.485,38.813,45.387c2.338,1.764-1.885,6.191-5.24,3.868
		c-4.402-2.876-24.537-22.279-33.211-35.881C253.233,385.776,251.27,380.301,257.377,379.467 M248.022,386.847
		c2.748-0.574,4.619,3.753,5.707,5.39c14.868,22.354,18.301,24.045,36.013,41.464c1.072,14.993-28.636-18.31-30.37-20.851
		c-0.643-0.482-8.712-9.896-12.943-16.919C244.553,392.816,245.147,389.287,248.022,386.847 M241.594,397.824
		c2.488-1.447,2.51-0.406,2.975,0.213c10.217,13.584,18.104,23.73,30.662,35.561c1.066,1.003,11.619,9.05,9.497,10.988
		c-1.848,3.207-5.353,0.879-7.022-0.251C270.002,438.039,235.281,408.189,241.594,397.824 M277.606,457.583
		c-8.563-2.696-49.036-42.226-43.878-50.456c1.119-1.147,4.52,0.092,5.68,1.603c7.534,9.821,14.161,18.587,23.533,27.03
		C267.848,441.56,285.466,450.306,277.606,457.583 M294.363,464.342c-8.591,13.822-18.735,2.414-13.525-5.202
		c5.491-8.026,35.161-56.961,35.161-56.961c2.655-3.771,14.383,2.743,12.387,8.214l-30.248,47.318
		C298.137,457.711,295.156,463.064,294.363,464.342 M372.927,473.742c-25.7,3.961-50.934,1.211-73.774-9.929
		c-0.891,0.565,28.754-45.394,29.502-46.649c8.972,7.257,31.444,10.471,44.625,11.314
		C373.485,441.412,372.339,464.974,372.927,473.742 M373.204,552.691c0.032,13.303-0.015,25.465,0.091,37.379
		c-6.687,5.379-19.648,4.514-26.482,2.418l1.591-12.606c13.443,5.417,25.894-10.358,16.612-21.892
		C364.457,558.138,369.231,555.104,373.204,552.691 M372.809,528.074l-0.176,18.328c0,0.505-6.766,4.572-10.713,7.369
		c-3.451-4.235-6.76-7.185-10.892-10.677C357.33,538.56,366.205,532.811,372.809,528.074 M331.672,540.066
		c11.794-3.49,26.926,15.006,31.816,23.381c2.497,7.732-2.828,13.43-9.557,13.43c-7.553,0.973-20.359-15.237-25.121-19.99
		C325.151,551.438,324.194,542.258,331.672,540.066 M278.611,622.712c-0.48,1.469-0.824,2.942-1.104,4.421l-7.768,1.132
		c1.214-9.447,5.147-31.333,8.368-48.158l45.346-1.358c-0.568,3.494-1.221,13.396-1.48,13.448
		C292.52,597.952,282.135,611.967,278.611,622.712 M318.873,607.897c-2.959-1.85-8.479-4.93-4.888-9.655
		c2.728-0.803,4.907-1.701,8.036-2.313c-0.355,1.967-1.801,14.1-2.453,17.706c-0.015,0.007-0.023,0.01-0.04,0.014
		C320.235,610.478,319.653,608.816,318.873,607.897 M301.44,618.469c-5.526-0.236-10.16,0.181-11.679-6.584
		c1.495-1.583,3.194-3.105,5.124-4.546c0.527,12.045,13.41,0.652,12.035,11.656c-0.521,0.372-1.279,0.954-2.121,1.764
		C303.961,619.818,302.875,618.928,301.44,618.469 M302.379,623.614c-1.008,1.405-2.013,3.408-2.516,5.197
		c-5.066-5.648-12.646,2.238-17.967-2.832c0.85-3.326,2.273-6.584,4.348-9.681C291.626,623.353,297.752,619.044,302.379,623.614
		 M308.766,602.979c2.243,7.34,8.404,3.939,7.215,11.83c-1.509,0.528-3.305,1.221-5.146,2.079
		c0.265-12.101-13.042-2.537-12.948-11.607c3.236-2.037,6.975-3.884,11.318-5.469C308.604,601.326,308.688,602.502,308.766,602.979
		 M318.768,618.097c-0.373,2.092-0.712,4.021-0.996,5.672c-4.209,0.339-8.91,0.927-12.043,1.345
		C307.312,623.235,310.881,620.71,318.768,618.097 M281.158,629.854c6.176,4.987,14.049-3.309,17.949,4.229
		c0.041,1.929,0.133,2.683,0.449,4.064c-6.775-4.671-11.789,4.285-18.498-0.709C280.826,634.926,280.835,632.386,281.158,629.854
		 M284.307,649.89c-1.023-2.355-1.84-4.82-2.423-7.347c7.06,3.744,11.092-4.21,18.571-1.254c0.8,2.072,1.853,3.801,2.902,5.19
		C292.571,644.03,290.746,652.221,284.307,649.89 M291.236,660.9c-1.45-1.684-2.827-3.484-4.039-5.456
		c9.381-1.815,8.12-7.248,19.302-5.518c1.287,1.095,2.604,2.51,4.566,4.014C296.147,653.262,299.576,663.845,291.236,660.9
		 M311.024,648.649l6.473-1.179c0.498,3.945,1.305,6.614,3.615,9.101C318.476,654.613,311.211,648.867,311.024,648.649
		 M295.389,665.147c2.861,0.045,7.003-3.7,7.962-5.858c0.627-2.604,13.069-3.613,16.947,1.744
		c-10.687-0.327-10.263,6.938-20.147,8.165C298.715,668.031,296.986,666.584,295.389,665.147 M337.819,695.746
		c6.108-7.175,8.017-3.213,13.789-5.637c-0.996,5.092-8.963,5.819-11.417,7.129C339.403,696.738,338.604,696.252,337.819,695.746
		 M424.977,695.69l1.268,1.497c-0.725,0.53-1.254,1.055-1.656,1.566l-33.248-1.611l32.436,5.522c1.99,4.314,1.872,4.027-2.299,6.838
		l-33.049-4.616l32.886,8.759c1.39,3.476-4.718,6.046-5.646,7.781l-29.589-11.112l31.833,15.953c0.866,2.188-0.77,3.474-2.331,5.261
		l-29.106-14.971l26.137,17.982c-0.826,0.892-1.553,1.782-1.981,2.671c-13.152-4.705-24.851-14.014-37.493-20.333
		c4.424-5.202,16.023-20.757,14.388-28.962C399.887,690.521,412.164,693.695,424.977,695.69 M383.266,687.025
		c1.925,7.949-9.633,22.553-14.127,27.549c-1.596-0.92-3.191-1.834-4.781-2.756c4.606-4.815,15.681-18.175,14.787-25.535
		C380.519,686.531,381.898,686.754,383.266,687.025 M374.348,685.446c1.396,6.614-9.984,19.19-14.568,23.718
		c-1.87-1.099-3.707-2.24-5.566-3.354c5.137-3.462,15.794-13.556,14.664-21.104C370.706,684.934,372.533,685.163,374.348,685.446
		 M355.957,692.158c1.886-4.757,2.089-6.258,2.017-8.431c2.063,0.091,4.093,0.287,6.128,0.472c1.31,6.82-9.101,15.842-14.404,18.889
		c-1.685-1.021-3.39-2.009-5.061-3.047C346.592,698.261,353.932,697.262,355.957,692.158 M353.276,683.351
		c-4.998,7.124-14.192,2.159-19.09,10.033c-0.762-0.5-1.51-1.02-2.268-1.524c7.352-4.601,7.82-10.018,18.094-10.139
		C351.172,682.35,352.27,682.904,353.276,683.351 M343.003,677.518c0.884,0.573,1.742,1.111,2.591,1.635
		c-8.256,1.31-9.867,7.629-17.143,10.375c-0.916-0.624-1.846-1.223-2.757-1.854C334.807,685.584,330.987,674.667,343.003,677.518
		 M330.965,669.128c1.969,1.448,3.941,2.863,5.9,4.238c-10.061,2.302-5.09,10.556-15.77,11.084c-2.334-1.67-5.162-3.702-8.191-5.878
		C324.617,677.771,320.09,668.546,330.965,669.128 M323.67,663.646c0.88,0.676,1.792,1.363,2.698,2.049
		c-9.378,1.616-4.967,10.021-18.099,9.549c-1.205-0.863-2.412-1.726-3.604-2.579c4.229-0.66,5.96-5.323,9.019-6.446
		C315.786,665.969,321,664.54,323.67,663.646 M337.963,627.673c33.637-5.251-17.412,51.627-16.627,15.806l-13.492,2.063
		c-2.942-3.695-5.465-11.088-3.506-16.205c3.291-0.466,12.332-1.688,16.892-1.769c1.774-10.983,6.724-52.99,6.724-52.99
		l-53.236,1.782c0,0-9.873,51.057-9.369,56.58l11.603-1.693c-0.397,5.434,0.031,11.922,1.648,16.929
		c-4.26,0.992-11.065,1.754-15.804,2.926c6.322,5.211,1.005,17.382-6.912,17.382c-8.227-0.054-26.809-18.635-28.681-26.285
		c-1.69-12.097,12.62-14.976,20.415-7.838c3.496-18.872,8.545-41.591,9.733-58.049c-34.61,1.78,18.603-51.082,17.137-16.473
		l48.966-1.553l20.978,20.463C344.431,578.748,339.547,615.852,337.963,627.673 M352.774,612.631
		c-0.272,0.781-0.713,1.935-1.701,2.77c-3.08-0.512-5.094-1.469-6.909-1.945c1.388-9.117,1.819-13.644,2.223-17.188
		c2.078,0.409,2.571,0.26,4.579,0.625C346.387,606.263,355.434,605.58,352.774,612.631 M362.267,615.595
		c-2.362,0.533-4.748,0.545-7.19,0.327c6.008-12.122-4.275-8.277-0.492-18.402c1.465,0.24,2.82,0.437,4.012,0.57
		c1.383,13.181,6.783,6.629,10.342,15.778C366.65,614.521,364.336,615.125,362.267,615.595 M372.811,612.709
		c-2.979-10.053-10.674-5.752-10.094-14.435c6.98-1.358,9.427-3.365,10.563-4.095c0.297,4.237,0.327,10.212,1.596,17.921
		C374.875,612.101,373.153,612.954,372.811,612.709 M787.598,275.983l-13.008,9.263l10.494,14.38l13.008-9.261l16.27,22.294
		c0,0-5.348,3.829-7.961,5.67l-10.602-14.115l-13.725,9.771l10.35,14.296l-14.248,10.146l-11.926-16.34l11.674-8.313
		c-5.324-7.165-12-16.446-12-16.446s-1.908,1.342-11.676,8.314c-3.43-3.885-7.598-10.414-7.598-10.414s-7.797,5.568-17.225,12.266
		l7.598,10.414c-3.113,2.105-10.65,7.584-10.65,7.584l12.002,16.444l10.65-7.583c2.264,2.928,11.924,16.34,11.924,16.34
		l-13.268,9.445l-10.404-14.256l-15.426,10.986l10.404,14.256l-7.264,5.172l-17.127-23.145l10.9-7.764
		c0,0-8.732-13.355-9.518-13.615c-4.242,3.189-3.785,2.834-11.021,7.848c-5.119-6.74-8.432-11.557-8.432-11.557
		c2.227-1.588,5.82-4.157,10.313-7.37c10.855-7.763,26.992-19.31,42.023-30.034c9.371-6.685,18.307-13.05,25.264-17.977
		c5.299-3.754,9.451-6.674,11.764-8.264L787.598,275.983z M774.178,244.255c0,0,8.789,10.43,9.289,12.724
		c0.18,0.817-166.666,117.107-166.666,117.107h-26.518L774.178,244.255z M613.83,351.775l-30,21.902h-13.131
		c-2.851-21.334-5.684-35.697-4.855-56.421h42.371C609.27,324.227,611.948,342.556,613.83,351.775 M518.543,317.257h43.23
		c-0.98,18.712,2.438,36.265,4.373,56.829h-51.982C516.102,353.499,519.518,335.988,518.543,317.257 M531.94,133.327
		c0.514-0.999,1.82-2.278,3.766-2.278c0.264,0,9.049,0,9.336,0c2.075,0,3.416,2.162,3.518,2.318
		c0.002,0.002,0.002,0.002,0.003,0.002c0.61,1.092,1.148,2.674,1.62,4.969c0,0-10.26-1.806-19.893,0
		C530.27,138.342,531.369,134.434,531.94,133.327 M476.703,179.8c37.754-55.595,94.829-48.106,128.412,1.878
		c-5.477,10.162-6.906-0.415-10.861-4.944c-1.971,2.586-3.205,8.456-6.733,9.434c-4.748-4.213-7.601-13.448-11.138-18.599
		c-3.637,5.097-6.281,14.73-11.353,18.616c-2.757-1.48-4.759-6.952-6.677-9.509c-1.906,2.555-3.92,8.025-6.67,9.507
		c-5.071-3.883-7.701-13.511-11.355-18.597c-3.526,5.113-6.395,14.338-11.095,18.527c-3.37-0.756-4.724-6.968-7.084-9.38
		c-1.974,2.586-3.206,8.454-6.735,9.434c-4.75-4.213-7.6-13.449-11.139-18.599c-3.637,5.098-6.281,14.73-11.352,18.616
		c-2.758-1.481-4.76-6.952-6.674-9.509c-1.547,2.568-4.06,6.949-5.912,9.236c-2.299,1.139-3.555-3.033-4.92-4.369
		C475.647,181.004,476.703,179.8,476.703,179.8 M469.358,197.946c5.094-1.094,5.649-8.901,0.664-10.623l-0.109-8.452
		c0.566,1.024,1.134,2.088,1.707,3.139c0.463,0.854,0.931,1.699,1.403,2.512c0.53,0.911,1.071,1.777,1.618,2.561
		c2.395,3.418,4.984,5.214,8.069,2.135c1.084-1.082,2.228-2.753,3.446-5.186c1.264,2.611,2.472,4.348,3.626,5.408
		c2.889,2.656,5.447,1.021,7.761-2.16c1.693-2.326,3.253-5.469,4.719-8.362c0.05-0.101,0.102-0.202,0.152-0.302
		c0.551-1.086,1.086-2.125,1.611-3.07c0.055-0.098,0.107-0.197,0.162-0.293v0.001c4.17,7.462,10.24,24.856,18.104,9.099
		c3.896,8.455,9.528,8.295,12.857,0.295c1.699-2.921,3.505-6.38,5.086-9.406c4.429,7.791,10.222,25.032,18.026,8.791
		c7.795,16.073,13.375-0.555,18.033-8.778c4.131,7.354,10.439,25.216,18.053,8.92c4.756,10.177,9.039,6.874,12.57,1.248
		c0.637-1.017,1.252-2.108,1.838-3.211c0.928-1.741,1.787-3.506,2.578-5.039v9.921c-5.973,1.199-5.402,10.458,0.688,10.896
		c-0.049,0.001-0.299-0.001-0.688,0c-0.49,0.001-33.043-0.002-34.23,0c6.842-0.597,6.311-11.2-0.627-11.068
		c-6.938-0.132-7.468,10.475-0.623,11.068h-34.932c6.844-0.594,6.313-11.201-0.623-11.068c-6.938-0.132-7.471,10.475-0.625,11.068
		h-34.932c6.846-0.596,6.314-11.201-0.624-11.068c-6.937-0.132-7.47,10.475-0.624,11.068h-34.355h-0.531
		C469.044,197.988,469.285,197.962,469.358,197.946 M460.033,203.192c0-2.396,2.588-2.223,3.256-2.223h155.604
		c2.199,0,1.973,4.442,0,4.442c-1.578,0-152.704,0.004-155.368,0C462.276,205.412,460.033,205.408,460.033,203.192 M464.512,210.279
		c0.191-0.537,0.438-1.107,0.832-1.875h149.84c1.91,0.991,8.154,20.496,8.154,20.496s-2.545,4.041-4.455,6.383
		c-0.578,1.017-2.547,1.348-3.365,0.543c-2.225-2.816-5.26-8.14-7.078-11.229c-2.145,2.789-5.146,10.826-8.451,11.793
		c-5.322-2.498-10.66-18.48-14.324-23.496c-3.626,6.309-8.148,16.254-12.396,22.486c-4.47,4.441-8.232-8.284-10.229-10.724
		c-2.904,3.073-4.511,11.081-8.961,11.64c-0.661-0.092-1.23-0.441-1.608-0.983c-4.186-6.212-8.728-15.929-12.234-22.335
		c-3.497,6.393-8.055,16.135-12.233,22.336c-0.377,0.541-0.947,0.891-1.604,0.98c-4.455-0.551-6.06-8.566-8.968-11.638
		c-1.942,2.339-5.755,15.175-10.228,10.724c-4.251-6.244-8.762-16.165-12.395-22.486c-3.668,5.02-8.992,20.98-14.323,23.496
		c-3.302-0.957-6.308-9.008-8.454-11.793c-5.484,8.657-8.494,19.144-14.113,3.598C459.315,222.552,464.46,210.406,464.512,210.279
		 M450.696,246.258c0.892-0.483,4.357-4.878,0.438-9.18l-0.381-12.908c0.692,1.245,1.385,2.549,2.08,3.854
		c1.731,3.248,3.485,6.491,5.344,8.856c2.717,3.463,5.654,5.023,9.053,1.905c1.486-1.363,3.057-3.607,4.738-6.988
		c1.619,3.33,3.151,5.561,4.607,6.936c3.467,3.27,6.5,1.625,9.248-1.957c1.951-2.545,3.76-6.058,5.473-9.486
		c1.189-2.377,2.332-4.71,3.448-6.643c0.723,1.27,1.486,2.773,2.286,4.373c1.848,3.691,3.902,7.902,6.166,11
		c2.592,3.545,5.459,5.604,8.604,3.75c0.199-0.125,0.406-0.241,0.587-0.393c0.006-0.005,0.013-0.013,0.021-0.019
		c1.652-1.228,3.381-3.542,5.188-7.335c1.676,3.631,3.299,5.906,4.871,7.167c0.594,0.477,1.177,0.815,1.754,1.015
		c0.043,0.015,0.087,0.035,0.129,0.049c2.802,0.873,5.412-1.324,7.806-4.693c2.282-3.216,4.366-7.49,6.228-11.211
		c0.646-1.289,1.266-2.515,1.854-3.6c0.772,1.388,1.576,2.992,2.413,4.668c1.813,3.626,3.786,7.598,5.931,10.552
		c2.873,3.959,6.054,6.058,9.563,3.023c1.508-1.306,3.078-3.541,4.711-7.017c2.017,4.083,3.902,6.479,5.677,7.648
		c3.12,2.057,5.89,0.281,8.392-3.031c2.065-2.734,3.949-6.499,5.697-10.012c1.084-2.181,2.119-4.265,3.111-5.934
		c0.642,1.176,1.316,2.518,2.021,3.934c1.863,3.73,3.945,7.982,6.223,11.158c2.389,3.327,4.99,5.472,7.785,4.564
		c0.002-0.002,0.006-0.002,0.008-0.004c0.51-0.166,1.023-0.441,1.545-0.821c0.035-0.024,0.066-0.041,0.1-0.067
		c0.063-0.045,0.125-0.108,0.184-0.158c1.602-1.285,3.258-3.619,4.971-7.359c1.527,3.188,2.982,5.342,4.375,6.706
		c1.113,1.086,2.184,1.667,3.221,1.823c0.061,0.008,0.123,0.023,0.184,0.03c2.229,0.229,4.293-1.458,6.234-4.03
		c2.139-2.836,4.129-6.746,6.027-10.37c0.4-0.766,0.797-1.519,1.191-2.244l0.072,12.407c-1.314,0.432-1.813,1.455-2.393,2.528
		c-0.918,1.7-0.918,3.878,0.002,5.577c0.58,1.072,1.076,1.998,2.391,2.43v2.659c-14.957-0.101-164.043-0.118-179.176-0.042V246.258z
		 M441.172,257.057c-0.846-0.004-1.32-0.715-1.37-1.199c-0.052-0.495-0.072-1.434-0.048-1.836c0-0.001,0-0.004,0-0.006
		s0-0.003,0-0.004c0-0.188,0-1.397,1.631-1.397h191.852c0.9-0.003,2.293-0.001,3.6,0c0.936,0.001,1.828,0.001,2.463,0h0.002
		c0.199-0.006,0.373,0.04,0.531,0.106c0.014,0.006,0.023,0.01,0.035,0.015c0.129,0.06,0.248,0.136,0.35,0.233
		c0.178,0.172,0.318,0.392,0.418,0.646c0.246,0.625,0.262,1.432,0.068,2.109c-0.139,0.492-0.385,0.914-0.734,1.144
		c-0.012,0.008-0.025,0.017-0.037,0.024c-0.049,0.029-0.104,0.047-0.158,0.068c-0.145,0.062-0.299,0.103-0.473,0.096h-0.002
		c-1.213-0.001-2.666,0-4.066,0c-0.838,0-1.662,0-2.387,0C632.846,257.057,441.887,257.061,441.172,257.057 M616.047,279.54
		c-0.014,0.003-0.029,0.02-0.043,0.028l-0.02-0.028l-0.035,0.065c-0.311,0.287-1.854,3.448-2,3.731
		c-0.09,0.177-0.102,0.231,0.012,0.03c-1.123,2.295-5.549,12.809-9.135,7.926c-0.545-0.8-1.342-1.45-1.891-2.346
		c-0.094-0.152-0.188-0.306-0.281-0.46c-0.006-0.01-0.012-0.021-0.018-0.03c-1.291-2.133-2.59-4.481-3.873-6.891
		c-1.641-3.086-3.256-6.264-4.795-9.209c-0.809-1.555-1.6-3.039-2.357-4.414c-0.291-0.523-0.576-1.033-0.855-1.521
		c-1.396,1.9-3.128,5.521-5.031,9.486c-2.32,4.83-9.141,17.967-10.943,16.719c0,0.001-0.002,0.001-0.003,0.002
		c0-0.001-0.001-0.001-0.002-0.001c-1.968-0.188-5.29-5.952-6.607-8.366c-0.965-1.77-1.851-3.4-2.618-4.449l-0.197-0.339
		l-0.199,0.341c-0.765,1.043-1.646,2.669-2.609,4.43c-1.316,2.414-2.783,5.043-4.297,6.72c-0.766,0.849-1.544,1.463-2.32,1.661
		h-0.002c0,0-0.002,0-0.002-0.002c-1.08-0.363-2.273-1.541-3.512-3.211c-2.615-3.527-5.432-9.261-7.82-14.262
		c-1.774-3.722-3.314-7.037-4.356-8.729c-1.022,1.664-2.562,4.973-4.34,8.695c-2.396,5.012-5.228,10.772-7.842,14.305
		c-1.241,1.676-2.431,2.852-3.501,3.201c-0.002,0-0.004,0.002-0.006,0.002l0,0c-0.777-0.195-1.551-0.807-2.316-1.652
		c-1.513-1.672-2.977-4.299-4.296-6.713c-0.966-1.77-1.851-3.4-2.617-4.447l-0.198-0.339l-0.199,0.341
		c-0.765,1.047-1.646,2.672-2.607,4.434c-1.318,2.413-2.781,5.04-4.297,6.719c-0.765,0.848-1.541,1.466-2.318,1.661
		c0,0-0.002,0-0.003,0h-0.001c-3.305-0.474-8.813-12.289-11.169-17.151c-1.303-2.69-2.542-5.195-3.701-7.089l-1.106-1.966
		l-0.105,0.19c-0.049-0.063-0.098-0.132-0.146-0.19c-0.836,1.684-1.773,3.576-2.774,5.566c-2.043,4.068-4.357,8.561-6.668,12.667
		c-1.398,2.487-2.798,4.834-4.128,6.846c-1.534,1.814-3.19,1.157-4.758-0.542c-1.314-1.785-3.264-5.191-4.712-7.823
		c-0.959-1.981-1.653-3.511-1.938-3.596c-0.209,0.101-0.586,0.726-1.082,1.646l-0.783,1.189c-0.28,0.428-0.654,1.119-1.176,2.075
		c-0.338,0.619-3.111,5.188-3.843,6.203c-0.859,0.938-1.737,1.588-2.595,1.755c-0.35,0.068-0.695,0.063-1.035-0.047
		c-0.438-0.142-0.865-0.441-1.277-0.935c-0.002-0.001-0.004-0.003-0.004-0.005c-2.891-3.801-5.025-6.961-6.435-10.029
		c-1.256-2.733-1.931-5.399-2.002-8.369c-0.087-3.629,0.704-7.716,2.401-12.975h187.158c0.133,0.448,0.262,0.926,0.389,1.399
		c0.109,0.405,0.215,0.815,0.318,1.235c0.045,0.185,0.088,0.371,0.133,0.56c0.084,0.36,0.17,0.715,0.25,1.084
		c0.408,1.89,0.746,3.881,1.008,5.878c0.049,0.358,0.094,0.717,0.135,1.076c0.043,0.361,0.078,0.721,0.115,1.08
		c0.074,0.732,0.133,1.457,0.182,2.174c0.004,0.066,0.012,0.132,0.014,0.197c0.059,0.925,0.1,1.851,0.121,2.777
		c-0.002,0.001-0.004,0.002-0.004,0.005c-0.398,0.729-0.775,1.427-1.143,2.11c-0.859,1.6-1.717,3.201-2.596,4.789
		c-0.047,0.074-2.248,3.974-2.92,5.069c-0.633,0.931-1.227,1.647-1.814,2.155c-0.518,0.35-1.109,0.672-1.412,0.732
		c-0.297,0.05-0.598,0.077-0.904,0.088c-1.229-0.206-2.572-1.418-4.244-3.782c-1.418-2.006-3.076-4.843-5.109-8.608l0.686,1.043
		C616.479,280.236,616.047,279.54,616.047,279.54 M439.557,306.83v-4.472c0.225-0.175,0.402-0.388,0.586-0.597
		c0.16-0.18,0.304-0.368,0.435-0.568c0.116-0.182,0.233-0.363,0.326-0.557c0.036-0.078,0.077-0.15,0.11-0.23
		c0.584-1.391,0.584-3.036,0-4.428c-0.033-0.079-0.074-0.152-0.11-0.229c-0.093-0.195-0.21-0.377-0.326-0.557
		c-0.131-0.201-0.274-0.389-0.435-0.57c-0.184-0.208-0.361-0.422-0.586-0.597v-16.292c0.718,1.338,1.422,2.715,2.121,4.086
		c1.968,3.862,3.892,7.686,5.914,10.537c3.284,4.631,6.832,6.666,11.262,2.098c1.619-1.672,3.354-4.205,5.238-7.841
		c1.406,3.08,2.764,5.343,4.072,6.938c0.874,1.065,1.729,1.833,2.559,2.336c1.093,0.66,2.148,0.867,3.168,0.719
		c1.852-0.271,3.584-1.72,5.201-3.806c2.432-3.136,4.603-7.7,6.529-11.825c1.41-3.016,2.689-5.796,3.844-7.612
		c1.052,1.622,2.266,4.399,3.652,7.48c1.783,3.96,3.849,8.42,6.229,11.579c2.954,3.922,6.39,5.831,10.359,2.285
		c1.704-1.523,3.508-4.049,5.414-7.863c0.683,1.355,1.82,3.496,3.252,5.442c1.334,1.815,2.922,3.464,4.635,4.151
		c1.2,0.484,2.463,0.488,3.742-0.246c0.034-0.021,0.07-0.046,0.107-0.068c0.248-0.151,0.488-0.34,0.749-0.538
		c6.581-5.011,12.619-21.14,12.631-21.165c1.034,1.627,2.204,4.267,3.524,7.167c1.662,3.651,3.564,7.719,5.742,10.708
		c1.344,1.843,2.791,3.271,4.35,3.943c0.91,0.391,1.857,0.522,2.844,0.328c1.3-0.257,2.666-1.08,4.106-2.63
		c1.442-1.554,2.96-3.833,4.552-7.002c1.437,3.002,2.82,5.199,4.153,6.745c1.361,1.578,2.667,2.47,3.921,2.815
		c0.876,0.241,1.727,0.222,2.549-0.018c1.617-0.47,3.133-1.771,4.549-3.529c2.428-3.015,4.564-7.37,6.414-11.202
		c1.446-2.998,2.719-5.672,3.816-7.129c0.824,1.277,1.82,3.376,2.969,5.785c1.713,3.589,3.771,7.866,6.113,11.137
		c1.826,2.552,3.828,4.488,5.977,5.004c0.021,0.002,0.039,0.009,0.059,0.012c0.006,0,0.012,0,0.016,0
		c1.047,0.234,2.127,0.137,3.24-0.396c0.906-0.435,1.834-1.154,2.781-2.21c1.34-1.497,2.723-3.662,4.137-6.651
		c1.418,2.782,2.77,4.834,4.068,6.307c1.105,1.255,2.174,2.076,3.203,2.53c1.125,0.495,2.205,0.556,3.25,0.274
		c1.904-0.514,3.689-2.152,5.4-4.386c2.279-2.979,4.426-6.991,6.535-10.743c0.807-1.438,1.609-2.836,2.412-4.121v16.043
		c-1.16,0.486-1.984,1.344-2.498,2.359c-0.818,1.621-0.818,3.644,0.004,5.264c0.512,1.014,1.338,1.871,2.494,2.356v3.647v0.364
		H439.557V306.83z M434.901,314.264c-0.438,0.008-0.736-0.143-0.953-0.377c-0.283-0.307-0.418-0.76-0.467-1.246
		c-0.05-0.494-0.023-1.01,0-1.411c0-0.002,0-0.005,0-0.006c0-0.003,0.002-0.005,0.002-0.009c0.007-0.43,0.156-0.726,0.383-0.936
		c0.321-0.299,0.803-0.418,1.314-0.457c0.467-0.035,0.947-0.012,1.346,0h0.002h207.416c0.33-0.01,0.809-0.033,1.287,0
		c0.385,0.027,0.768,0.09,1.08,0.234c0.434,0.199,0.729,0.551,0.68,1.161c0,0.003,0.002,0.004,0.002,0.006
		c-0.078,0.677,0.063,1.683-0.227,2.351c-0.178,0.413-0.521,0.698-1.189,0.689c-0.002,0-0.002,0-0.004,0H434.901 M472.099,317.257
		h42.365c0.829,20.721-1.999,35.089-4.851,56.421h-13.131l-30.002-21.902C468.365,342.551,471.046,324.214,472.099,317.257
		 M382.084,339.621c-7.236-5.014-6.777-4.658-11.02-7.848c-0.784,0.26-10.378,14.465-10.378,14.465l10.903,7.764l-16.269,22.295
		l-7.265-5.172l10.403-14.256l-15.427-10.986l-10.402,14.256l-13.267-9.445c0,0,10.392-14.462,12.657-17.389l10.651,7.583
		l11.267-15.396c0,0-7.536-5.479-10.651-7.584l7.599-10.414c-9.429-6.697-17.225-12.266-17.225-12.266s-4.168,6.529-7.6,10.414
		c-9.767-6.973-11.676-8.314-11.676-8.314s-6.676,9.281-12,16.446l11.676,8.313l-11.925,16.34l-14.249-10.146l10.348-14.296
		l-13.724-9.771l-10.601,14.115c-2.615-1.841-7.961-5.67-7.961-5.67l16.27-22.294l13.008,9.261l10.494-14.38l-13.007-9.263
		l8.438-11.563c2.257,1.551,6.416,4.477,11.754,8.258l6.52,4.58l19.162,13.695c15.207,10.85,31.49,22.5,42.211,30.166
		c4.252,3.042,7.631,5.459,9.717,6.945C390.518,328.064,387.204,332.881,382.084,339.621 M297.641,256.741
		c-1.02-0.905,8.755-12.137,9.41-12.341c0.435,0.307,0.959,0.678,1.522,1.074l1.923,1.357c0.072,0.052,0.145,0.104,0.219,0.156
		c1.557,1.098,3.41,2.404,5.514,3.891c3.865,2.729,8.596,6.066,14.002,9.883c1.237,0.873,2.517,1.776,3.819,2.697
		c1.708,1.204,3.464,2.443,5.276,3.724c1.205,0.849,2.433,1.716,3.68,2.597c3.279,2.314,6.7,4.73,10.236,7.226
		c1.613,1.14,3.248,2.293,4.909,3.466c7.845,5.535,16.154,11.402,24.644,17.395c2.288,1.613,4.584,3.236,6.893,4.863
		c10.754,7.593,21.658,15.289,32.145,22.69c1.376,0.971,2.739,1.934,4.098,2.894l2.031,1.432
		c13.74,9.701,26.526,18.725,36.992,26.111c12.968,9.154,22.378,15.797,25.602,18.071l-27.091-0.249L297.641,256.741z
		 M700.739,594.859c-2.002,33.854-14.811,55.294-40.838,77.102c-21.752,18.229-117.998,63.813-118.155,63.821
		c-0.394,0.021-100.622-45.181-122.401-63.684c-25.182-21.391-40.352-45.438-40.437-82.358c-0.075-31.668,0.333-61.712,0.335-76.55
		c16.915-12.304,25.971-17.456,43.559-28.828c8.022-5.188,18.587-10.471,29.041-10.328c13.502,0.187,25.555,6.263,34.299,12.27
		c10.4,7.146,20.912,19.834,34.219,21.026c8.924,0.801,16.608-2.971,23.879-7.695c6.449-4.193,12.891-8.878,20.457-10.393
		c8.982-1.799,18.377,1.215,26.113,6.072c10.637,6.676,14.76,12.31,22.059,18.449c4.291,3.611,19.244,12.495,36.443,10.759
		c8.809-0.89,16.219-4.935,24.217-8.317c8.063-3.407,19.063-2.767,27.646-0.732C701.881,515.642,701.908,575.045,700.739,594.859
		 M699.346,510.021c-8.047-1.576-18.936-0.428-26.896,2.138c-4.275,1.378-8.184,3.523-12.215,5.455
		c-9.648,4.623-24.387,3.146-32.096,0.155c-8.131-3.156-13.523-6.301-19.311-11.801c-12.82-12.199-26.082-24.82-47.926-20.129
		c-6.654,1.428-12.154,5.135-17.473,8.721c-7.289,4.915-14.158,9.567-23.811,8.698c-7.551-0.67-15.696-7.296-23.576-13.702
		c-5.688-4.626-11.57-9.408-17.336-12.017c-20.59-9.322-32.957-10.733-52.685,0.212c-5.58,3.096-37.085,23.33-47.31,29.912
		c0.011-21.459,0.037-42.889,0.059-62.278c0.036-30.996,0.064-56.12,0.018-65.751h322.752c-0.047,9.631-0.018,34.755,0.016,65.751
		c0.025,20.257,0.051,42.745,0.063,65.162C700.858,510.373,700.094,510.169,699.346,510.021 M738.395,541.346
		c12.121-6.305,20.535,4.755,13.066,15.541c-4.811,4.776-17.523,20.928-25.119,19.99
		C701.684,572.95,728.137,546.951,738.395,541.346 M729.244,543.095c-4.133,3.492-7.441,6.441-10.891,10.677
		c-3.947-2.797-10.713-6.864-10.713-7.369l-0.178-18.328C714.067,532.811,722.944,538.56,729.244,543.095 M838.114,408.729
		c1.16-1.511,4.561-2.75,5.68-1.603c9,3.967-55.4,71.782-44.65,42.654C811.961,438.065,828.133,423.663,838.114,408.729
		 M835.928,397.824c8.701,8.479-28.416,40.232-36.109,46.512c-1.672,1.129-5.176,3.457-7.023,0.25
		c-2.123-1.938,8.432-9.985,9.496-10.988c12.559-11.83,20.447-21.977,30.662-35.561
		C833.418,397.418,833.873,395.822,835.928,397.824 M829.502,386.847c8.121,6.103-10.791,24.979-11.916,26.112
		c-1.852,1.935-30.857,35.713-29.807,20.741c17.713-17.419,21.146-19.109,36.014-41.464
		C824.883,390.6,826.752,386.272,829.502,386.847 M820.145,379.467c17.863,2.406-26.814,44.83-33.57,49.255
		c-3.357,2.323-7.58-2.104-5.242-3.868C802.799,406.961,802.162,406.078,820.145,379.467 M814.473,367.638
		c10.854,11.053-17.293,38.371-30.143,50.581c-2.117,1.611-4.234,5.201-7.414,1.568c-1.365-2.182-2.084-2.996,1.213-5.765
		c3.572-2.999,9.287-10.215,12.91-14.466c7.889-9.254,16.586-24.375,18.893-29.166C811.838,366.432,813.524,367.332,814.473,367.638
		 M801.795,358.311c10.781,3.549,2.934,16.148,0.545,19.793c-0.666,1.959-24.111,34.172-28.639,34.064
		c-1.043,0.045-3.639-3.752-3.104-5.489c0.561-1.816,5.549-5.543,7.229-7.632C806.112,363.846,797.672,356.953,801.795,358.311
		 M784.225,365.292c1.717-4.507,3.734-18.33,7.33-17.54c5.576,1.223,5.563,4.307,5.576,8.668
		c0.035,13.053-12.781,30.57-21.471,39.959c-3.262,3.523-9.914,11.643-11.152,3.484
		C772.198,390.166,779.684,377.224,784.225,365.292 M752.674,403.631c1.799-1.735,7.4-4.017,8.855-1.452
		c0,0,29.67,48.935,35.16,56.961c5.598,11.138-8.299,19.837-17.299-1.429l-30.248-47.318
		C747.696,406.704,752.016,404.27,752.674,403.631 M748.875,417.164c0.871,1.459,30.18,46.871,29.502,46.649
		c-22.102,10.796-46.408,13.656-71.293,10.292c-0.018-15.712-0.037-30.725-0.053-45.818
		C720.301,427.263,740.346,424.061,748.875,417.164 M707.049,587.698c0.031-10.85,0.049-22.661,0.061-34.983
		c3.965,2.411,8.703,5.423,8.146,5.275c-9.283,11.535,3.174,27.309,16.613,21.892l1.592,12.606
		c-3.975,1.347-22.207,2.862-26.486-0.555C707.018,590.535,707.045,589.127,707.049,587.698 M707.461,612.709
		c-0.471-0.099-2.594-0.959-2.594-0.959c1.307-6.725,1.578-9.305,2.178-15.274c1.906,0.506,2.775,1.514,10.51,1.799
		C718.137,606.965,710.473,602.616,707.461,612.709 M725.655,604.06c-3.311,4.067-3.123,7.77-1.039,11.862
		c-6.391-0.138-9.121-0.731-13.861-2.054c3.553-9.138,8.965-2.609,10.342-15.778c1.191-0.134,2.547-0.33,4.012-0.57
		C725.473,599.348,727.108,602.275,725.655,604.06 M729.199,615.4c-7.166-9.302,5.244-7.989,0.109-18.508
		c2.006-0.365,2.5-0.216,4.578-0.625c0.402,3.544,0.834,8.07,2.221,17.188C734.293,613.932,732.28,614.889,729.199,615.4
		 M672.416,736.767l-2.773,0.444c-0.43-0.889-1.154-1.779-1.982-2.671l26.139-17.982l-29.107,14.971
		c-0.377-0.431-0.756-0.831-1.105-1.224c-0.625-0.704-1.131-1.385-1.346-2.14c-0.16-0.571-0.162-1.184,0.119-1.897l31.834-15.953
		l-29.588,11.112c-0.326-0.608-1.287-1.319-2.338-2.136c-1.283-0.994-2.686-2.146-3.248-3.461c-0.293-0.686-0.369-1.41-0.061-2.185
		l32.885-8.759l-33.049,4.616c-1.309-0.881-2.217-1.459-2.789-1.967c-0.746-0.669-0.906-1.228-0.625-2.196
		c0.186-0.652,0.566-1.484,1.115-2.675l32.436-5.522l-33.246,1.611c-0.402-0.512-0.934-1.036-1.656-1.566l1.264-1.497
		c12.816-1.995,25.092-5.169,37.455-7.774c-0.373,1.85-0.063,4.079,0.686,6.483c1.033,3.325,2.916,6.986,5.018,10.429
		c2.576,4.222,5.477,8.113,7.547,10.677c0.414,0.51,0.799,0.976,1.137,1.373C695.549,723.499,683.903,730.02,672.416,736.767
		 M711.135,714.574c-0.48-0.536-1.043-1.182-1.656-1.911c-2.111-2.515-4.871-6.069-7.277-9.889
		c-2.012-3.192-3.773-6.561-4.705-9.647c-0.674-2.24-0.914-4.334-0.49-6.102c1.369-0.271,2.748-0.494,4.121-0.742
		c-0.248,2.035,0.422,4.526,1.613,7.169c1.395,3.092,3.504,6.39,5.713,9.402c2.734,3.737,5.617,7.037,7.461,8.964
		C714.324,712.74,712.729,713.654,711.135,714.574 M720.494,709.164c-0.145-0.143-0.297-0.295-0.455-0.453
		c-0.043-0.043-0.09-0.092-0.135-0.136c-1.949-1.972-4.77-5.028-7.381-8.401c-2.018-2.605-3.908-5.398-5.166-8.016
		c-1.201-2.502-1.828-4.843-1.434-6.712c1.814-0.283,3.643-0.513,5.473-0.739c-0.336,2.243,0.373,4.711,1.664,7.162
		c1.615,3.068,4.145,6.106,6.709,8.65c2.283,2.27,4.59,4.145,6.289,5.291C724.199,706.924,722.362,708.065,720.494,709.164
		 M730.576,703.088c-1.779-1.043-4.08-2.691-6.324-4.683c-2.416-2.142-4.762-4.677-6.318-7.285c-1.391-2.329-2.15-4.713-1.764-6.921
		c2.035-0.185,4.066-0.381,6.129-0.472c-0.004,0.951,0.059,1.819,0.156,2.652c0.266,2.284,0.893,4.137,1.824,5.683
		c1.42,2.36,3.525,4.023,6.09,5.45c2.205,1.013,4.342,1.686,5.266,2.528C733.965,701.079,732.26,702.066,730.576,703.088
		 M740.082,697.238c-0.83-0.441-2.291-0.82-3.9-1.321c-2.211-0.615-4.703-1.45-6.102-3.171c-0.693-0.723-1.209-1.581-1.416-2.637
		c1.531,0.648,2.789,0.838,3.928,0.908l0.676-0.054c0.777-0.134,1.908-0.194,3.535,0.448c1.566,0.461,3.297,1.572,5.652,4.334
		C741.668,696.252,740.869,696.738,740.082,697.238 M746.086,693.384c-0.816-1.313-1.756-2.264-2.775-2.979
		c-1.793-1.258-3.838-1.772-5.918-2.168c-1.547-0.067-3.053-0.012-5.375-1.099c-0.244-0.112-0.475-0.236-0.701-0.358
		c-1.613-0.659-3.096-1.679-4.32-3.429c1.006-0.446,2.104-1.001,3.264-1.63c3.334,0.044,5.625,0.643,7.459,1.581
		c2.139,1.095,3.656,2.657,5.434,4.366c1.412,1.361,2.992,2.81,5.201,4.191C747.596,692.364,746.848,692.884,746.086,693.384
		 M751.821,689.527c-2.299-0.865-4.035-2.098-5.602-3.417c-1.807-1.522-3.385-3.159-5.324-4.488
		c-1.676-1.146-3.617-2.061-6.215-2.47c1.74-0.917,3.211-1.506,4.471-1.836c2.438-0.634,4.082-0.28,5.35,0.597
		c0.578,0.243,1.102,0.55,1.518,0.968c0.68,0.679,1.074,1.551,1.529,2.562c0.111,0.245,0.23,0.503,0.354,0.765
		c1.102,1.777,2.314,3.581,4.316,4.652c0.686,0.367,1.461,0.649,2.361,0.813C753.668,688.305,752.737,688.903,751.821,689.527
		 M759.176,684.45c-10.676-0.526-5.711-8.785-15.771-11.084c1.961-1.375,3.934-2.79,5.9-4.238
		c10.861-0.587,6.367,8.649,18.063,9.444C764.34,680.748,761.514,682.78,759.176,684.45 M772.002,675.244
		c-13.188,0.451-8.672-7.91-18.1-9.549c0.908-0.686,1.82-1.373,2.699-2.049c2.676,0.894,7.879,2.32,9.988,2.572
		c3.049,1.115,4.801,5.796,9.016,6.446C774.414,673.519,773.207,674.381,772.002,675.244 M780.121,669.198
		c-9.854-1.216-9.492-8.501-20.148-8.165c3.885-5.357,16.32-4.348,16.947-1.742c0.953,2.154,5.111,5.903,7.963,5.856
		C783.287,666.584,781.557,668.031,780.121,669.198 M759.16,656.571c2.311-2.486,3.119-5.157,3.615-9.101l6.473,1.179
		C769.012,648.904,761.832,654.586,759.16,656.571 M789.037,660.9c-8.322,2.963-4.871-7.617-19.83-6.96
		c1.961-1.504,3.279-2.919,4.566-4.014c11.174-1.733,9.93,3.704,19.303,5.518C791.864,657.416,790.487,659.217,789.037,660.9
		 M795.967,649.89c-6.359,2.357-8.266-5.854-19.053-3.41c1.051-1.39,2.104-3.118,2.904-5.19c7.473-2.956,11.516,4.998,18.57,1.254
		C797.805,645.069,796.99,647.534,795.967,649.89 M760.483,612.287c-0.711-4.616-1.91-14.59-2.232-16.358
		c3.129,0.612,5.309,1.511,8.037,2.313c1.469,1.199,1.156,5.022,0.195,5.857C763.315,607.807,759.676,606.845,760.483,612.287
		 M760.742,613.648c-0.016-0.004-0.023-0.007-0.039-0.014c-0.053-0.297-0.115-0.669-0.178-1.073
		C760.582,612.902,760.651,613.258,760.742,613.648 M771.067,599.812c4.344,1.585,8.082,3.432,11.32,5.469
		c0.107,9.056-13.229-0.477-12.949,11.607c-1.842-0.858-3.637-1.551-5.146-2.079c-0.154-1.806,0.182-4.187,0.605-4.914
		C767.201,607.799,773.375,605.795,771.067,599.812 M774.543,625.113c-3.133-0.418-7.834-1.006-12.043-1.345
		c-0.283-1.651-0.625-3.58-0.996-5.672C769.391,620.71,772.961,623.235,774.543,625.113 M773.352,618.995
		c-1.379-10.995,11.518,0.379,12.035-11.656c1.93,1.44,3.629,2.963,5.125,4.546c-2.375,10.247-10.303,3.34-15.039,8.874
		C774.631,619.949,773.873,619.367,773.352,618.995 M791.444,618.745c0.373-0.3,2.045-1.864,2.584-2.446
		c2.074,3.097,3.498,6.354,4.348,9.681c-5.316,5.068-12.906-2.816-17.967,2.832c-0.502-1.789-1.506-3.789-2.516-5.197
		C781.483,619.533,786.594,622.721,791.444,618.745 M799.213,637.439c-6.709,4.994-11.725-3.962-18.498,0.709
		c0.316-1.382,0.408-2.136,0.449-4.064c3.895-7.538,11.781,0.758,17.951-4.229C799.438,632.386,799.446,634.926,799.213,637.439
		 M758.301,592.196c-0.262-0.052-0.914-9.954-1.48-13.448l45.344,1.358c3.221,16.825,7.154,38.711,8.369,48.158l-7.768-1.132
		C799.018,611.896,790.512,599.371,758.301,592.196 M853.071,642.197c-1.877,7.652-20.453,26.228-28.682,26.285
		c-7.916,0-13.234-12.171-6.912-17.382c-4.738-1.172-11.543-1.934-15.805-2.926c1.617-5.007,2.049-11.495,1.65-16.929l11.6,1.693
		c0.506-5.523-9.367-56.58-9.367-56.58l-53.234-1.782c0,0,4.949,42.007,6.723,52.99c4.559,0.08,13.6,1.303,16.891,1.769
		c1.959,5.117-0.563,12.51-3.504,16.205l-13.494-2.063c0.781,35.821-50.258-21.057-16.627-15.806
		c-1.586-11.821-6.467-48.925-6.467-48.925l20.979-20.463l48.965,1.553c-1.467-34.611,51.744,18.255,17.137,16.473
		c1.188,16.458,6.236,39.177,9.732,58.049C840.231,627.205,854.926,630.229,853.071,642.197"/>
	<path fill="#4F5858" d="M537.897,709.335c-8.153-2.03-16.088-5.005-23.586-8.839c-4.11-0.357-10.355-1.146-14.479-1.742
		c0.025-0.012,0.055-0.025,0.08-0.037c-1.348-0.215-4.345-0.681-4.887-0.776l0.003,0.005c-0.989-0.183-4.371-0.796-5.356-0.989
		c1.253,1.036,2.586,1.987,3.955,2.893c0,0,1.619,1.118,2.447,1.527c4.574,2.701,9.568,4.893,14.479,7.025
		c0.447,0.194,0.895,0.389,1.336,0.583c8.09,3.522,18.802,7.587,29.917,7.736c9.985,0.134,17.358-0.891,23.903-3.325
		c0.729-0.27,1.445-0.56,2.162-0.847c-1.065,0.032-2.131,0.061-3.196,0.061C555.629,712.609,546.653,711.513,537.897,709.335"/>
	<path fill="#4F5858" d="M563.385,702.518c-7.502,0-14.469-1.291-19.416-2.206l-0.527-0.098c-4.066,0.661-8.803,0.996-14.176,0.996
		c-3.293,0-6.83-0.126-10.588-0.377c6.307,2.936,12.883,5.272,19.616,6.949c11.009,2.738,22.368,3.728,33.778,2.966
		c5.539-2.545,10.721-5.595,15.462-9.122c2.333-1.735,4.581-3.511,6.487-5.617c-7.965,3.293-16.322,5.397-24.908,6.239
		C567.185,702.436,565.268,702.518,563.385,702.518"/>
	<path fill="#4F5858" d="M592.24,679.531c-0.334,0.25-1.566,1.165-3.345,2.384c-2.098,1.436-4.476,3.063-7.003,4.329
		c-0.125,0.061-0.254,0.124-0.379,0.189c2.574-0.84,5.106-1.794,7.578-2.877c1.736-0.76,3.447-1.593,5.133-2.477
		c1.939-1.021,3.846-2.11,5.695-3.272c-0.014-0.307-0.02-0.62-0.047-0.912l0,0c-0.109-1.162-0.34-2.14-0.668-2.931
		c-0.072-0.173-0.141-0.346-0.225-0.5c-0.092,0.082-0.188,0.178-0.279,0.262l-0.816,0.765c-0.387,0.362-0.766,0.706-1.16,1.085
		C595.323,676.919,593.871,678.311,592.24,679.531"/>
	<path fill="#4F5858" d="M522.442,675.668c-0.527-0.183-1.035-0.37-1.525-0.56c-0.018,0.295-0.043,0.711-0.094,1.21
		c-0.217,2.13-0.725,4.762-1.488,6.606c-0.148,0.355-0.321,0.723-0.501,1.083c-0.396,1.024-0.892,1.997-1.464,2.926
		c0.764,0.229,1.527,0.456,2.291,0.684c0.676,0.201,1.354,0.401,2.028,0.601c-0.198-3.66,0.819-8.008,2.565-11.966
		C523.666,676.074,523.062,675.881,522.442,675.668"/>
	<path fill="#4F5858" d="M496.631,665.045c-0.01-0.094-3.709,0.386-5.412,0.82c-3.202,0.819-6.193,2.613-7.003,3.111
		c0.438,0.813,0.988,1.7,1.679,2.612c1.446,1.908,3.008,3.268,4.291,4.203c0.128-0.684,0.373-1.708,0.874-2.877
		c0.397-0.927,1.494-2.907,2.949-4.818c0.206-0.271,0.419-0.55,0.638-0.823c0.303-0.428,0.551-0.758,0.69-0.919
		c0.421-0.479,0.849-0.902,1.271-1.279l0,0c0.006-0.005,0.012-0.014,0.018-0.019C496.627,665.054,496.631,665.05,496.631,665.045"/>
	<path fill="#4F5858" d="M591.959,669.624c-1.217,0.05-2.125,0.161-3.061,0.379c-0.446,0.104-0.813,0.208-1.074,0.29
		c0.006,0.012,0.012,0.021,0.018,0.033c0.801,0.805,1.602,2.876,1.684,3.059c0.039,0.087,0.783,1.787,1.012,3.74
		c1.232-0.838,2.24-1.604,3.004-2.213c0.984-0.788,1.557-1.288,3.234-2.753c0.697-0.605,0.875-0.823,1.244-1.132
		c-0.777-0.647-1.383-1.008-2.703-1.242C594.395,669.622,593.379,669.568,591.959,669.624"/>
	<path fill="#4F5858" d="M464.94,609.717c0-0.054,0.178-5.491,1.747-6.324c0.361-0.193,0.764-0.163,1.13,0.087
		c0.537,0.367,1.211,1.474,1.184,2.145c-0.015,0.332-0.037,0.728-0.066,1.182c-0.119,1.927-0.301,4.839-0.053,8.651
		c0.969,14.854,5.17,31.41,11.829,46.624c0.12,0.278,0.216,0.494,0.272,0.669c0.626,1.098,1.416,2.711,1.83,3.574
		c0.404-0.295,0.947-0.676,1.308-0.882c0.501-0.285,1.786-0.854,2.507-1.167c-4.914-11.032-7.439-30.065-8.094-38.708
		c-1.193-15.724-0.448-16.461-0.092-16.812c0.648-0.644,1.197-0.622,1.546-0.481c1.353,0.526,1.735,3.732,1.894,8.389
		c0.324,9.613,0.847,16.167,1.748,21.906c1.132,7.227,5.801,21.681,6.727,24.504c4.109-1.097,5.932-1.031,7.049-0.982
		c0.08,0.002,0.154,0.005,0.227,0.007l-0.133-0.604c-2.074-9.411-5.94-26.929-4.903-36.13c0.053-0.476,0.091-0.978,0.13-1.465
		c0.145-1.859,0.248-3.206,1.059-3.506c0.333-0.136,0.732-0.051,1.079,0.218c0.714,0.55,1.373,2.035,1.073,4.552
		c-0.818,6.881,3.054,26.878,5.479,36.287c0.215-0.087,0.416-0.181,0.795-0.419c0.629-0.402,2.768-1.896,3.777-4.28
		c0.335-0.788,0.338-1.159,0.344-2.396c0.002-0.384,0.006-0.852,0.018-1.418c-0.107-1.338-0.103-2.694,0.023-4.21
		c0.021-2.844,2.162-6.1,3.246-7.124c0.373-0.353,0.88-0.734,1.299-0.991c-1.445-5.496-2.893-11.842-3.085-18.035
		c-1.598,1.553-3.979,3.775-4.681,3.943c-1.227,0.29-2.338-0.488-3.071-1.102c-2.55-2.138-4.567-4.855-5.869-7.896
		c-0.761,0.543-1.722,0.85-2.737,0.858c-1.317-0.032-2.541-0.477-3.374-1.345c-0.808-0.84-1.231-1.918-1.567-2.862
		c-0.563-1.586-0.931-3.237-1.286-4.835c-0.282-1.271-0.573-2.584-0.962-3.84c-0.273,0.138-0.615,0.318-0.916,0.479
		c-2.148,1.142-2.942,1.504-3.467,1.296c-0.701-0.27-1.189-1.437-1.67-2.709l-0.131-0.344c-0.451-1.097-0.881-3.098-1.298-5.031
		c-0.196-0.917-0.385-1.799-0.557-2.471c-4.948,4.765-8.665,6.211-10.939,6.581c-0.053,0.007-5.313,0.773-6.007-0.229
		c-0.15-0.215-0.154-0.484-0.018-0.718c0.719-1.206,1.156-2.083,1.426-2.708c-1.69,1.329-4.543,2.743-9.295,1.259
		c-0.705-0.22-1.205-0.449-1.529-0.704c-0.646,0.58-1.818,1.537-2.792,1.833c-2.658,0.82-4.329,0.748-5.111-0.217
		c-0.476-0.585-0.493-1.366-0.349-2.084l-2.316,1.829c1.082,8.704,2.693,17.362,4.791,25.74c2.32,9.25,4.609,15.762,5.77,18.816
		c1.365,3.604,3.232,8.541,6.561,14.643c2.039,3.74,4.338,7.387,6.836,10.846c0.88-1.733,2.68-5.318,3.155-6.266
		c-1.303-2.686-12.915-27.285-13.738-53.064c-0.178-2.771-0.407-9.331,1.295-10.063c0.113-0.047,0.247-0.084,0.404-0.084
		c0.304,0,0.683,0.138,1.105,0.58l0.101,0.151c0.404,0.908,0.412,1.457,0.424,2.788c0.022,2.292,0.066,7.063,2.098,20.659
		c1.496,10.001,4.938,21.445,10.832,36.007c0.389,1.02,1.691,4.321,3.128,6.539c0.349,0.538,2.042,3.099,3.632,4.519
		c1.148-1.834,2.331-3.558,3.826-4.849C476.229,662.381,465.506,640.141,464.94,609.717"/>
	<path fill="#4F5858" d="M638.449,599.812c0.033,0.444-0.043,0.893-0.32,1.279c-0.709,0.98-2.385,1.175-5.129,0.596
		c-0.961-0.201-2.525-1.164-3.498-1.81c-0.102,0.264-0.283,0.58-0.613,0.9c-0.936,0.909-3.746,1.299-6.656,0.339
		c-1.037-0.342-2.014-0.828-2.926-1.46c0.338,0.672,0.818,1.554,1.5,2.696c0.139,0.233,0.131,0.503-0.02,0.718
		c-0.695,1.003-5.951,0.236-6.006,0.229c-4.963-0.803-9.104-4.677-11.092-6.538c-0.127-0.12-0.256-0.239-0.377-0.352
		c-0.168,2.141-0.723,5.685-1.303,7.755c-0.01,0.025-0.777,2.706-1.824,3.11c-0.516,0.196-1.316-0.154-3.465-1.298
		c-0.301-0.161-0.645-0.342-0.918-0.479c-0.391,1.258-0.682,2.572-0.963,3.848c-0.355,1.592-0.723,3.243-1.283,4.827
		c-0.338,0.944-0.764,2.025-1.568,2.865c-0.824,0.855-2.035,1.342-3.332,1.342h-0.041c-1.016-0.007-1.975-0.313-2.736-0.858
		c-1.305,3.041-3.322,5.761-5.871,7.898c-0.729,0.611-1.846,1.396-3.072,1.1c-0.697-0.171-3.066-2.379-4.664-3.93
		c-0.02,2.252-0.092,4.084-0.404,5.836c-1.031,5.803-2.109,9.295-2.958,11.691c0.483,0.305,0.776,0.555,0.79,0.568
		c0.489,0.417,0.842,0.836,1.006,1.048c0.359,0.454,1.42,2.019,1.902,3.197c0.738,1.797,1.125,3.7,1.253,6.168
		c0.067,1.363,0.073,2.306,0.076,2.989c0.009,1.239,0.011,1.608,0.344,2.395c0.548,1.291,1.379,2.187,2.204,2.902l0.738-2.57
		c2.973-10.318,7.462-25.907,6.928-31.666c-0.238-2.567,0.418-4.039,1.113-4.561c0.336-0.25,0.713-0.32,1.044-0.194
		c0.659,0.246,1.114,1.195,1.188,5.02c0.125,6.399-4.443,22.787-7.174,32.578c-0.345,1.237-0.662,2.378-0.941,3.391
		c0.281,0.134,0.676,0.33,1.162,0.606c1.035,0.582,2.967,1.667,4.793,3.749c0.4,0.456,0.838,1.092,1.223,1.653l0.016,0.021
		l0.381-0.047c3.238-6.151,8.652-24.579,9.506-28.816c1.121-5.548,1.42-12.268,1.746-21.886c0.158-4.656,0.541-7.865,1.893-8.392
		c0.342-0.14,0.893-0.159,1.543,0.484c0.359,0.354,1.105,1.085-0.09,16.813l-0.119,1.689c-0.535,7.605-1.135,16.22-10.635,39.781
		c0.539-0.017,1.021-0.028,1.484-0.028c2.336,0,4.15,0.189,5.512,0.573c5.971-16.94,12.576-39.372,13.41-52.126
		c0.248-3.814,0.066-6.729-0.051-8.656c-0.029-0.453-0.051-0.847-0.066-1.176c-0.029-0.674,0.643-1.78,1.18-2.147
		c0.371-0.248,0.77-0.278,1.131-0.091c1.563,0.83,1.748,6.274,1.748,6.331c-0.377,20.198-7.227,39.622-12.229,53.803
		c-0.742,2.104-1.438,4.081-2.063,5.915c0.268,0.292,0.436,0.517,0.436,0.517c0.143,0.187,0.277,0.399,0.41,0.636
		c1.705-0.844,4.342-2.465,5.867-3.749c2.051-1.729,3.113-3.639,3.809-5.112c7.311-15.492,10.561-35.232,10.592-35.429
		c1.107-6.83,2.02-17.235,2.074-19.155c0.018-0.604,0.023-1.09,0.025-1.494c0.014-1.334,0.018-1.886,0.424-2.793l0.102-0.149
		c0.641-0.669,1.178-0.639,1.508-0.494c1.703,0.73,1.473,7.293,1.293,10.081c-0.822,25.795-12.461,50.425-13.738,53.057
		c0.219,0.404,0.678,0.949,1.121,1.478c0.289,0.344,0.586,0.699,0.859,1.055c0.514,0.679,1.08,1.396,1.43,1.832
		c1.836-1.675,5.811-7.611,6.588-8.965c3.057-5.307,4.75-9.823,6.113-13.451l0.445-1.183c1.164-3.078,3.461-9.62,5.77-18.816
		c1.203-4.807,3.428-14.583,4.91-26.433c-0.559-0.141-1.098-0.334-1.607-0.585C638.996,600.144,638.717,599.984,638.449,599.812"/>
	<path fill="#4F5858" d="M485.109,684.983c1.583,0.634,5.417,1.679,7.066,2.116c3.472,0.868,6.989,1.546,10.524,2.109
		c0.256,0.04,0.508,0.09,0.762,0.127c0.672,0.105,1.345,0.191,2.018,0.287c0.674,0.099,1.344,0.201,2.018,0.29
		c1.223,0.159,2.447,0.305,3.672,0.442c4.17,0.466,8.357,0.802,12.549,1.022c-2.544-0.61-5.158-1.296-8.061-2.061
		c-0.035,0.044-0.285-0.026-0.689-0.183c-0.625-0.166-1.293-0.349-1.983-0.538c-0.088-0.025-0.178-0.052-0.267-0.075
		c-0.365-0.103-0.732-0.205-1.114-0.315c-0.076-0.021-0.158-0.044-0.233-0.067c-0.659-0.189-1.344-0.394-2.052-0.611
		c-0.294-0.088-0.581-0.175-0.883-0.269c-0.269-0.084-0.545-0.173-0.819-0.26c-0.341-0.109-0.68-0.22-1.028-0.332
		c-0.271-0.089-0.543-0.18-0.819-0.271c-0.381-0.128-0.77-0.259-1.162-0.395c-0.262-0.089-0.521-0.181-0.787-0.274
		c-0.446-0.156-0.903-0.32-1.364-0.488c-0.23-0.082-0.456-0.164-0.69-0.25c-0.7-0.258-1.412-0.526-2.145-0.81
		c-0.111-0.045-0.231-0.094-0.348-0.141c-0.066-0.025-0.129-0.051-0.192-0.077c-0.006,0.005-0.012,0.01-0.019,0.015l-0.293-0.117
		c0.006-0.005,0.012-0.012,0.018-0.017c-0.082-0.032-0.166-0.065-0.25-0.098c-0.229-0.092-0.455-0.181-0.688-0.279
		c-1.886-0.778-3.882-1.697-5.909-2.862c-0.963-0.473-1.693-0.966-2.332-1.462c-0.753-0.503-1.502-1.036-2.246-1.623
		c-0.45-0.357-0.865-0.713-1.267-1.066c-0.464-0.412-0.895-0.823-1.297-1.237c-1.209-1.244-2.151-2.519-2.886-3.901
		c-0.363,1.011-0.728,2.03-1.064,3.06c-0.686,2.101-1.242,4.24-1.348,6.445c-0.014,0.312-0.158,0.875,0.021,1.125
		C480.065,682.696,483.963,684.527,485.109,684.983"/>
	<path fill="#4F5858" d="M554.959,695.012c0.37-0.18,0.728-0.393,1.095-0.582c-3.135,0.278-9.688,0.552-19.188-0.632
		c-1.325-0.166-2.573-0.351-3.791-0.542c-0.108-0.003-0.222-0.007-0.329-0.007c-6.514-0.045-13.447-0.444-20.156-1.137
		c-1.508-0.101-2.018-0.209-3.371-0.36c-0.707-0.087-1.414-0.176-2.119-0.267c-3.273-0.433-6.535-0.952-9.771-1.593
		c-1.643-0.325-3.314-0.674-4.982-1.063c0.001,0.015,0.001,0.026,0.004,0.038c-2.413-0.634-6.982-1.967-9.203-2.979
		c-0.668-0.305-2.135-0.999-3.604-1.948c0.113,0.694,0.308,1.382,0.593,2.027c0.033,0.075,0.077,0.178,0.141,0.315
		c0.535,1.168,1.228,2.248,1.566,2.768c0.646,0.989,1.045,1.597,1.717,2.385c0.139,0.162,0.722,0.84,1.604,1.654
		c0.814,0.753,1.575,1.335,2.195,1.768c1.395,0.295,4.623,0.931,6.298,1.252l-0.014-0.023c1.761,0.32,6.565,1.07,8.759,1.415
		c0.014-0.008,0.027-0.012,0.042-0.02c3.354,0.447,8.829,1.148,12.171,1.438c11.699,1.013,21.358,0.91,28.714-0.306
		c3.161-0.522,5.619-1.205,7.606-1.906C552.563,696.133,553.88,695.543,554.959,695.012"/>
	<path fill="#4F5858" d="M589.75,685.021c-5.26,2.302-10.773,4.063-16.428,5.263c-0.025,0.009-0.05,0.019-0.076,0.03
		c-0.875,0.364-1.764,0.711-2.66,1.043l0.046,0.033l-0.37,0.084c-1.111,0.404-2.241,0.76-3.381,1.085
		c-0.617,0.176-1.23,0.357-1.854,0.503c-1.865,0.435-3.527,0.723-4.979,0.924c-1.418,0.887-2.871,1.726-4.365,2.46
		c-0.283,0.139-0.588,0.283-0.903,0.431c-1.754,0.814-4.015,1.715-7.099,2.479c5.863,1.02,13.51,2.058,21.27,1.298
		c9.385-0.919,18.49-3.38,27.096-7.278c0.947-1.434,1.76-3.006,2.334-4.815c0.734-2.312,1.416-5.732,1.543-8.869
		c-1.883,1.153-3.818,2.229-5.787,3.237C592.692,683.666,591.233,684.37,589.75,685.021"/>
	<path fill="#4F5858" d="M558.363,691.432c1.798-0.209,3.714-0.503,6.022-1.041c0.479-0.11,0.953-0.243,1.427-0.377
		c-1.265-1.226-2.448-2.953-4.446-6.44c-1.041-1.82-1.546-4.025-1.742-6.254c-0.385,0.138-0.92,0.376-1.741,0.5
		c-0.173,0.028-0.435,0.065-0.699,0.107c0.757,1.829,1.316,3.819,1.554,6.081c0.24,2.295-0.023,4.47-0.277,6.572
		C558.424,690.86,558.395,691.146,558.363,691.432"/>
	<path fill="#4F5858" d="M476.324,591.974c0.414-0.52,0.436-0.641,0.609-1.569c0.107-0.58,0.266-1.42,0.601-2.773
		c2.278-9.169,6.921-14.557,8.955-16.566c-4.625-1.041-6.233-4.579-6.184-8.05c-0.325,0.283-0.653,0.573-0.852,0.748
		c-4.046,3.623-7.69,14.424-9.204,20.233l-0.004,0.017c-0.823,3.711-2.402,6.883-4.404,10.898c-0.781,1.572-1.658,3.335-2.582,5.313
		C465.223,599.996,471.481,598.048,476.324,591.974"/>
	<path fill="#4F5858" d="M488.651,607.081l0.234,0.812c1.139,3.918,1.139,3.92,1.154,4.032c0.283,1.635,1.04,2.407,1.656,2.577
		c0.24-0.054,1.521-1.155,2.703-3.486l0.009-0.017c1.11-2.002,9.236-18.022,11.104-22.347c-0.978-0.307-1.923-0.704-3.122-1.305
		c-1.42-0.711-2.473-1.445-3.592-2.222c-0.211-0.147-0.428-0.298-0.646-0.447c-1.085,2.215-2.244,4.425-3.454,6.584
		c-2.14,3.819-4.491,7.573-6.986,11.157c-0.056,0.087-0.136,0.196-0.232,0.323l1.131,4.188l-0.479,0.295L488.651,607.081z"/>
	<path fill="#4F5858" d="M502.033,622.648c0.793-0.161,3.721-2.793,5-4.497c0.686-4.423,2.637-13.233,4.723-18.455
		c1.08-2.706,2.475-5.424,3.553-7.393l-0.164-0.045c-1.063-0.306-2.269-0.652-3.324-1.083c-0.635-0.257-1.123-0.414-1.557-0.554
		c-0.518-0.166-0.982-0.318-1.529-0.578c-1.078,2.271-4.572,9.999-5.609,12.51c-0.397,0.961-1.761,3.746-3.084,6.437
		c-1.215,2.479-2.469,5.035-2.905,6.048l0.012,0.037C498.043,618.024,499.688,620.574,502.033,622.648"/>
	<path fill="#4F5858" d="M481.362,603.354c0.366-0.189,1.25-0.974,1.605-1.287c0.199-0.176,0.367-0.326,0.477-0.41
		c0.979-0.771,1.813-1.927,2.618-3.05c0.196-0.269,0.39-0.535,0.581-0.793c2.283-3.065,4.148-6.469,5.953-9.76l0.988-1.782
		c0.2-0.346,0.404-0.692,0.561-1.053c0.056-0.121,0.301-0.559,1.744-2.949c-1.72-1.913-5.159-7.433-6.149-10.099
		c-0.937,0.3-1.886,1.645-2.48,2.486l-0.239,0.334c-1.094,1.511-2.184,3.226-3.33,5.237c-1.705,3-2.604,6.31-3.199,8.856
		l-0.143,0.622c-0.605,2.578-0.971,4.133-0.555,6.83C480.414,600.524,481.022,602.789,481.362,603.354"/>
	<path fill="#4F5858" d="M456.254,598.104c1.693-0.409,4.895-1.843,7.322-6.857l0.154-0.315c0.693-1.429,1.645-3.382,3.078-7.327
		c0.743-2.045,1.332-3.827,1.883-5.48c1.152-3.476,2.146-6.476,3.967-10.115c0.453-0.905,1.031-2.002,1.893-3.293
		c1.254-1.893,2.738-3.635,4.412-5.199c-3.857-0.917-5.467-3.768-5.949-5.429c-0.291,0.307-0.557,0.625-0.73,0.84
		c-2.066,2.55-8.977,11.617-11.184,21.281c-0.281,1.445-0.856,3.999-1.364,6.256c-0.404,1.789-0.767,3.398-0.914,4.149
		c-0.679,3.478-1.473,6.553-4.886,11.598C454.35,598.305,455.16,598.365,456.254,598.104"/>
	<path fill="#4F5858" d="M460.717,566.324c3.158-7.183,9.752-15.378,11.188-17.123c-0.42-0.523-1.211-1.52-1.574-2.056
		c-0.484-0.716-0.683-1.63-0.843-2.364c-0.038-0.173-0.083-0.379-0.128-0.548c-1.717,1.474-8.219,10.616-11.785,17.773
		c-3.962,7.947-6.817,20.064-7.865,24.903c-0.316,1.485-1.231,5.382-1.537,6.242c-0.533,1.497-1.449,3.375-2.118,4.743
		c-0.158,0.327-0.327,0.674-0.47,0.973c5.383-1.286,8.62-5.381,9.629-12.185c0.221-1.492,1.902-9.396,2.271-11.054
		C458.078,572.459,459.2,569.771,460.717,566.324"/>
	<path fill="#4F5858" d="M602.846,590.842c0.178,0.945,0.209,1.115,0.666,1.687c5.314,6.673,12.201,8.375,13.652,8.375h0.053
		c-0.992-2.147-1.936-4.042-2.771-5.719c-1.99-4.001-3.564-7.163-4.383-10.847l-0.006-0.02c-0.42-1.606-4.244-15.85-9.285-20.361
		c-0.279-0.25-0.893-0.791-1.328-1.167c0.156,2.357-0.254,7.419-6.441,8.504c1.76,1.648,6.834,7.079,9.244,16.786
		C602.582,589.427,602.74,590.278,602.846,590.842"/>
	<path fill="#4F5858" d="M624.6,598.908c1.045,0.124,1.717-0.052,1.932-0.173c-3.549-5.169-4.357-8.271-5.043-11.78
		c-0.146-0.754-0.52-2.407-0.916-4.161c-0.508-2.25-1.084-4.807-1.365-6.264c-2.221-9.715-9.16-18.82-11.234-21.381
		c-0.242-0.302-0.668-0.803-1.088-1.2c-0.26,1.462-1.818,4.973-6.367,5.803c1.816,1.637,3.412,3.484,4.752,5.498
		c0.852,1.279,1.424,2.369,1.873,3.266c1.813,3.623,2.807,6.616,3.955,10.08c0.563,1.691,1.143,3.44,1.883,5.486
		c1.439,3.958,2.395,5.92,3.092,7.354l0.15,0.316C619.094,597.676,623.037,598.73,624.6,598.908"/>
	<path fill="#4F5858" d="M635.233,599.292c0.197,0,0.393-0.012,0.592-0.037c0.01,0,0.023,0,0.033,0
		c-0.076-0.489-0.846-2.248-3.408-6.287c-0.467-0.732-1.801-4.612-2.162-6.292c-1.047-4.848-3.91-16.986-7.887-24.964
		c-2.391-4.802-5.918-11.133-12.076-17.761c-0.227,1.454-0.498,2.439-0.813,2.939c-0.719,1.137-1.396,1.606-1.801,1.89
		c-0.09,0.063-0.207,0.143-0.266,0.199c0.938,1.127,8.014,9.753,11.322,17.271c1.512,3.429,2.625,6.103,3.221,9.265
		c0.115,0.528,0.338,1.714,0.596,3.085c0.549,2.939,1.305,6.965,1.656,7.889C627.399,594.785,631.283,599.292,635.233,599.292"/>
	<path fill="#4F5858" d="M594.307,599.939c1.154,1.477,2.51,2.782,4.025,3.889c0.146,0.105,0.279,0.194,0.404,0.198h0.006
		c0.105,0,0.17-0.107,0.275-0.364l0.027-0.065c0.439-0.999,0.656-2.123,0.867-3.213l0.078-0.402
		c0.184-0.921,0.355-1.905,0.529-3.015c0.424-2.748,0.033-4.413-0.559-6.928l-0.145-0.624c-0.6-2.568-1.506-5.903-3.227-8.925
		c-1.148-2.021-2.242-3.742-3.346-5.268l-0.24-0.334c-0.662-0.94-1.75-2.479-2.873-2.643c-0.877,2.725-3.957,8.288-6.3,10.394
		c1.782,2.951,1.815,3.05,1.83,3.099c0.149,0.339,0.36,0.704,0.565,1.058c0.093,0.159,0.187,0.317,0.273,0.477l0.715,1.301
		c1.176,2.146,2.393,4.364,3.715,6.472c0.652,1.04,1.213,1.878,1.756,2.633c0.197,0.27,0.389,0.545,0.58,0.821
		C593.598,598.979,593.944,599.475,594.307,599.939"/>
	<path fill="#4F5858" d="M588.543,614.591c0.032,0,0.059-0.004,0.084-0.012c1.344-0.376,1.607-0.968,2.131-2.395
		c0.467-1.274,0.873-2.575,1.207-3.866c0.035-0.133,0.068-0.26,0.1-0.393c0.238-0.954,0.424-1.937,0.605-2.887
		c0.035-0.17,0.072-0.315,0.115-0.475c0.1-0.381,0.311-1.179,0.156-1.385l-0.092-0.116c-0.119-0.157-0.221-0.295-0.299-0.414
		c-2.484-3.568-4.832-7.317-6.966-11.125c-1.259-2.247-2.466-4.551-3.584-6.853c-0.31,0.211-0.612,0.419-0.91,0.625
		c-1.106,0.771-2.153,1.501-3.558,2.203c-1.299,0.649-2.299,1.062-3.363,1.377c1.631,3.896,10.095,20.592,11.229,22.641
		C586.483,613.646,588.018,614.591,588.543,614.591"/>
	<path fill="#4F5858" d="M571.433,590.07c-1.425,0.685-4.907,1.774-7.096,2.455c1.095,1.979,2.57,4.827,3.701,7.66
		c2.45,6.133,3.798,11.882,4.004,17.086c1.372,1.854,5.269,5.688,5.931,5.564c4.35-4.507,4.963-6.554,5.193-7.325
		c0.012-0.035,0.02-0.068,0.029-0.099c-0.402-0.954-1.696-3.595-2.949-6.148c-1.32-2.688-2.682-5.469-3.077-6.423
		C576.09,600.228,572.348,591.96,571.433,590.07"/>
	<path fill="#4F5858" d="M635.946,571.74c-0.379-1.06-0.758-2.121-1.131-3.225c-0.061-0.174-0.154-0.405-0.271-0.688
		c-0.121-0.295-0.266-0.646-0.414-1.039c-5.668-14.961-14.488-25.586-15.693-26.774c-1.107,0.379-2.258,0.62-3.428,0.721
		c-1.125,0.089-2.246,0.056-3.354-0.109c0.443,0.603,1.066,1.428,1.805,2.408c3.617,4.799,9.674,12.833,11.391,16.701
		c2.193,4.935,4.594,10.896,7.67,24.564c1.475,6.561,5.314,12.146,8.785,12.824c0.096-0.372,0.096-1.782-0.615-6.725
		C639.379,581.339,637.633,576.458,635.946,571.74"/>
	<path fill="#4F5858" d="M539.912,561.843c-1.139-1.558-3.246-1.761-3.641-1.799c-3.453-0.329-6.01,2.632-6.844,3.598
		c-0.576,0.666-1.348,1.726-1.895,3.164c-0.67,1.766-0.688,3.265-0.688,4.03c-0.022,12.105,0.852,17.367,0.852,17.367
		c0.33,1.975,1.146,6.51,2.842,12.137c0,0,1.754,6.498,5.609,11.511c0.889,1.155,3.168,3.29,4.096,2.86
		c-1.984-4.441-3.045-8.071-3.262-8.598c-0.466-1.132-2.713-8.309-3.1-14.259c-0.594-9.147,0.818-19.709-0.139-27.23
		c0.085-0.087,0.226-0.204,0.397-0.199c1.084,0.028,1.366,3.548,1.475,5.978c0.244,5.436-0.026,9.61-0.219,11.976
		c-0.491,6.031-0.263,8.427,0.163,11.435c1.157,8.145,5.514,20.161,5.884,20.411c0.144,0.097,0.19-1.136,0.329-2.317
		c0-0.002-0.107-2.107-0.111-2.807c-0.025-6.563-0.804-16.474-0.804-16.474c-0.017-7.565-0.276-12.571-0.146-20.066
		C540.744,570.786,540.682,562.897,539.912,561.843"/>
	<path fill="#4F5858" d="M446.95,584.417c3.084-13.701,5.587-19.89,7.687-24.613c1.733-3.901,7.626-11.748,11.145-16.438
		c0.633-0.837,1.178-1.564,1.593-2.129l-5.958-0.785c-1.365,1.412-10.051,12.07-15.559,26.606c-0.148,0.386-0.289,0.729-0.406,1.024
		c-0.118,0.287-0.217,0.521-0.275,0.694c-0.375,1.104-0.755,2.163-1.131,3.226c-1.686,4.708-3.428,9.575-4.736,18.612
		c-0.594,4.137-0.685,5.746-0.65,6.359C441.957,596.078,445.534,590.704,446.95,584.417"/>
	<path fill="#4F5858" d="M555.955,684.7c-0.615-5.892-3.67-9.944-7.015-13.916c-0.653-0.776-1.157-1.447-1.592-2.112
		c-1.942-2.977-2.868-6.158-2.604-8.948c0.115-1.251,0.486-2.39,0.813-3.396c0.767-2.372,0.711-3.097,0.67-3.679l-0.017-0.229
		c-0.085-1.653-0.688-2.921-0.913-3.398c-0.328-0.688-0.696-1.296-1.1-1.799c-0.242-0.304-0.41-0.26-0.885-0.093
		c-0.184,0.063-0.383,0.133-0.604,0.175c-1.052,0.208-2.133,0.25-3.219,0.117c-0.195-0.023-0.49-0.061-0.809-0.103
		c-0.557-0.075-1.188-0.159-1.526-0.194c-0.011,0-0.022-0.003-0.032-0.003c-0.539,0-1.467,1.279-1.779,1.708
		c-0.083,0.112-0.147,0.201-0.186,0.25c-0.285,0.337-0.518,0.821-0.744,1.286c-0.101,0.216-0.201,0.421-0.302,0.605
		c-1.137,2.096-0.87,4.187-0.415,6.138c0.188,0.79,0.4,1.687,0.522,2.688c0.052,0.404,0.103,0.795,0.157,1.169
		c0.449,3.263,0.773,5.618-2.582,8.586c-4.768,4.217-6.816,9.545-7.518,19.611c2.939,0.666,6.145,1.232,9.533,1.684
		c1.525-1.927,2.498-7.045,1.477-11.537c-0.01-0.045-0.781-4.622,0.041-4.889c0.379-0.126,0.62,0.402,0.748,0.688
		c2.355,5.288,2.646,11.143,0.814,16.112l0.139,0.019c0.027,0.003,2.629,0.318,6.139,0.557c0.107,0.007,0.221,0.015,0.334,0.021
		c-1.762-5.127-1.271-11.077,1.367-16.396c0.139-0.28,0.389-0.816,0.777-0.659c0.811,0.299-0.15,4.841-0.162,4.888
		c-1.232,4.537-1.009,7.555,0.936,12.323c3.555,0.146,6.633,0.11,9.142-0.114l0.007-0.063c0.037-0.367,0.072-0.734,0.116-1.087
		C555.934,688.655,556.168,686.719,555.955,684.7 M536.729,654.16c-0.296,0.783-0.911,1.34-1.164,1.487
		c-0.045,0.025-0.091,0.037-0.139,0.037c-0.094,0-0.186-0.047-0.238-0.133c-0.076-0.129-0.035-0.295,0.098-0.37
		c0.045-0.027,0.125-0.096,0.219-0.182c0.223-0.209,0.535-0.571,0.709-1.027c0.056-0.154,0.105-0.304,0.149-0.451
		c-0.161,0.143-0.376,0.28-0.653,0.391c-0.254,0.101-0.559,0.183-0.935,0.215c-0.047,0.005-0.093,0.003-0.14-0.002
		c-0.16-0.023-0.309-0.104-0.41-0.231c-0.383-0.473-0.533-0.962-0.453-1.455c0.154-0.929,1.102-1.534,1.728-1.937
		c0.274-0.176,0.628-0.107,0.829,0.138c0.072,0.015,0.139,0.054,0.182,0.122C537.33,652.083,537.1,653.178,536.729,654.16
		 M543.186,654.223c0.176,0.464,0.485,0.823,0.711,1.032c0.092,0.084,0.171,0.149,0.218,0.178c0.131,0.077,0.173,0.243,0.096,0.371
		c-0.052,0.087-0.143,0.134-0.237,0.134c-0.048,0-0.096-0.012-0.141-0.037c-0.251-0.15-0.867-0.707-1.16-1.49
		c-0.373-0.982-0.604-2.077,0.216-3.398c0.042-0.067,0.11-0.107,0.183-0.121c0.201-0.246,0.555-0.313,0.83-0.139
		c0.625,0.402,1.572,1.009,1.727,1.937c0.081,0.494-0.07,0.982-0.452,1.455c-0.103,0.129-0.251,0.208-0.411,0.231
		c-0.046,0.005-0.093,0.007-0.14,0.002c-0.376-0.032-0.679-0.111-0.935-0.215c-0.277-0.109-0.49-0.248-0.653-0.391
		C543.08,653.919,543.129,654.068,543.186,654.223"/>
	<path fill="#4F5858" d="M526.373,554.457c0,0,1.051,0.823,2.018,0.854c0.129,0.002,0.25-0.017,0.25-0.017
		c0.09-0.012,0.17-0.047,0.254-0.067c-2.28-1.574-4.084-4.311-3.93-7.134c0.093-1.729,1.366-2.959,2.18-4.378
		c0.379-0.66,0.667-1.354,0.674-2.168c0.005-0.473-0.379-0.721-0.75-0.721c-0.347,0-0.682,0.213-0.686,0.652
		c-0.008,0.646-0.248,1.217-0.576,1.752c-0.336,0.552-0.764,1.068-1.119,1.59c-0.849,1.247-1.262,2.604-1.141,4.112
		c0.02,0.245,0.066,0.486,0.106,0.729c0.204,1.259,0.649,2.187,0.973,2.743C525.297,553.568,526.067,554.216,526.373,554.457"/>
	<path fill="#4F5858" d="M520.421,640.048c0.837,0.294,1.601,0.711,2.231,1.256c1.258-1.815,5.8-8.401,6.557-9.865
		C526.838,633.268,522.61,637.934,520.421,640.048"/>
	<path fill="#4F5858" d="M524.378,644.238c1.023-0.673,7.04-10.265,7.04-10.265c-1.861,1.23-6.396,5.669-8.287,7.802
		c0.275,0.305,0.517,0.637,0.713,1.004C524.099,643.254,524.262,643.755,524.378,644.238"/>
	<path fill="#4F5858" d="M541.629,644.171l0.16-0.002c0.886-0.082,1.445-0.223,1.705-0.328c-0.266-1.548-1.968-8.611-2.756-10.665
		c-0.66,2.017-1.766,8.93-1.939,10.804c0.407,0.084,1.437,0.189,2.35,0.189L541.629,644.171z"/>
	<path fill="#4F5858" d="M551.211,633.506c0,0,3.959,7.639,5.613,10.102c0.189-0.475,0.389-0.892,0.566-1.224
		c0.176-0.329,0.392-0.61,0.613-0.884c-0.306-0.531-0.701-1.221-1.148-2.002C554.922,637.194,552.458,634.485,551.211,633.506"/>
	<path fill="#4F5858" d="M558.891,640.618c0.6-0.475,1.283-0.816,2.027-1.048c-2.107-2.507-5.336-6.626-7.295-8.413
		c0.533,1.282,3.453,6.418,5.021,9.149C558.729,640.412,558.811,640.518,558.891,640.618"/>
	<path fill="#4F5858" d="M563.365,590.037l1.385-0.58c0,0,4.932-1.756,6.54-2.43c2.294-0.962,6.627-3.104,8.723-4.762
		c5.572-4.409,7.266-10.646,8.909-12.618c5.715-0.362,8.045-3.162,8.41-6.041c0.217-1.729-1.605-5.684-1.092-5.828
		c0,0,6.334-1.401,7.754-3.561c2.098-3.188,0.916-7.278,0.916-7.278c0.082,0,5.58-2.061,2.359-10.09
		c0.65,1.621,12.998,0.309,12.711-0.512c-0.803-2.283-4.061-5.127-7.359-7.15c-4.156-2.547-8.93-3.045-11.973-2.691
		c-3.352,0.389-6.688,0.742-9.852,1.995c-4.65,1.843-7.102,5.234-8.243,9.989c-1.273,5.297-1.282,10.803-1.882,16.215
		c-0.756,6.841-2.726,13.369-8.07,18.069c-4.313,3.792-10.017,6.809-15.738,7.81C559.1,582.943,563.365,590.037,563.365,590.037"/>
	<path fill="#4F5858" d="M472.817,536.85c-3.221,8.029,2.278,10.09,2.359,10.09c0,0-1.183,4.089,0.918,7.278
		c1.419,2.159,7.754,3.561,7.754,3.561c0.514,0.145-1.311,4.1-1.092,5.828c0.363,2.881,2.693,5.679,8.408,6.041
		c1.645,1.972,3.338,8.209,8.909,12.618c2.098,1.658,6.429,3.8,8.723,4.762c1.608,0.674,6.542,2.43,6.542,2.43l1.385,0.58
		c0,0,4.264-7.094,6.502-9.463c-5.898-1.033-15.85-5.786-20.178-12.992c-4.338-8.31-4.818-18.607-4.838-19.043
		c-0.433-7.22-1.566-13.024-1.796-13.609c-2.961-7.563-14.015-8.09-16.978-8.434c-3.041-0.354-7.814,0.145-11.971,2.691
		c-3.299,2.023-6.555,4.867-7.358,7.15C459.818,537.158,472.166,538.471,472.817,536.85"/>
	<path fill="#4F5858" d="M585.533,670.548c-0.024-0.04-0.991-1.761-2.158-3.021c-1.707-1.836-3.93-3.038-5.715-4.004
		c-0.483-0.263-0.938-0.508-1.326-0.739c-0.848-0.498-1.898-1.118-2.832-2.227c-1.83-2.175-2.021-4.849-2.177-6.998
		c-0.042-0.601-0.066-1.172-0.089-1.729c-0.057-1.358-0.109-2.641-0.443-4.093c-0.404-1.772-1.105-3.223-2.076-4.308
		c-1.215-1.361-2.822-2.052-4.773-2.052c-0.076,0-0.15,0.008-0.228,0.017l-0.119,0.014c-0.366,0.028-0.726,0.099-1.072,0.206
		c-0.634,0.201-1.259,0.521-1.856,0.952c-0.129,0.094-0.254,0.185-0.375,0.283c-0.096,0.079-0.182,0.161-0.271,0.245l-0.063,0.059
		c-0.25,0.229-0.449,0.442-0.617,0.641c-0.14,0.183-0.229,0.318-0.315,0.449c-0.228,0.347-0.387,0.66-0.487,0.952
		c-0.393,1.132-0.18,2.196,0.068,3.424l0.05,0.25c0.415,2.099,2.071,4.716,2.237,4.929c0.871,1.127,1.768,2.282,2.33,3.644
		c0.801,1.918,0.984,3.948,0.532,5.873c-0.511,2.153-0.876,4.49-1.198,6.553c-0.135,0.858-0.259,1.665-0.389,2.416
		c-0.362,2.141-0.162,4.678,0.581,7.342c0.151,0.538,0.579,1.937,1.313,3.314c1.25,2.341,2.749,4.378,4.459,6.062
		c1.534-0.523,3.189-1.179,5.052-1.992c2.09-0.917,4.069-1.876,5.909-2.786c-0.439-0.409-0.969-0.914-1.523-1.489l-0.146-0.152
		c-1.599-1.653-3.411-3.529-4.963-6.492c-2.412-4.61-1.766-7.134-1.686-7.405c0.014-0.042,0.395-1.316,0.395-1.316l0.363-1.207
		l0.242,1.839c0.031,0.231,0.104,0.741,0.231,1.415c0.651,2.694,2.46,5.704,3.235,6.642c2.5,3.013,4.559,5.087,6.659,6.703
		c0.978-0.557,2.021-1.204,3.183-1.974c-0.688-3.043-1.761-6.443-4.384-8.829c-0.228-0.208-1.065-0.969-1.067-0.969l-0.422-0.374
		l0.496-0.283c0.282-0.158,0.986-0.205,2.535,1.242c1.74,1.621,3.686,5.466,4.467,8.116l0.33-0.228
		c0.47-0.317,0.877-0.605,1.256-0.872c-0.277-1.373-0.608-2.666-0.958-3.751C587.083,672.854,585.55,670.569,585.533,670.548
		 M567.946,648.683c-0.082,0.227-0.324,0.351-0.552,0.297c-0.018-0.007-0.032-0.012-0.048-0.017
		c-0.244-0.084-0.373-0.351-0.285-0.592c0.027-0.077,0.061-0.205,0.092-0.364c0.1-0.524,0.166-1.411-0.111-2.149
		c-0.067-0.178-0.137-0.344-0.211-0.503c-0.039,0.364-0.194,0.812-0.578,1.316c-0.008,0.012-0.013,0.021-0.021,0.033
		c-0.029,0.037-0.062,0.067-0.097,0.098c-0.121,0.101-0.279,0.154-0.442,0.143c-0.604-0.039-1.067-0.257-1.376-0.643
		c-0.584-0.729-0.399-1.817-0.277-2.538c0.014-0.086,0.049-0.166,0.094-0.236l-0.015-0.021c-0.11-0.007-0.21-0.021-0.329-0.023
		c-0.26-0.01-0.469-0.211-0.467-0.466c0-0.255,0.21-0.461,0.471-0.461c2.652,0.012,3.577,1.512,4.128,2.98
		C568.369,646.725,568.131,648.17,567.946,648.683"/>
	<path fill="#4F5858" d="M523.141,446.515l-16.924,26.477l26.801-16.718l6.984,30.54l6.982-30.54l26.804,16.718l-16.927-26.477
		l30.918-6.898l-30.918-6.899l16.927-26.473l-26.804,16.719l-6.982-30.542l-6.984,30.542l-26.801-16.719l16.924,26.473
		l-30.919,6.899L523.141,446.515z M518.69,418.564l16.903,10.546l4.409-19.269l4.406,19.269l16.906-10.546l-10.676,16.701
		l19.5,4.351l-19.5,4.354l10.676,16.698l-16.906-10.545l-4.406,19.269l-4.409-19.269l-16.903,10.545l10.676-16.698l-19.502-4.354
		l19.502-4.351L518.69,418.564z"/>
	<path fill="#4F5858" d="M494.419,235.971c-3.104,0-5.63,2.495-5.63,5.562c0,3.068,2.525,5.563,5.63,5.563s5.631-2.495,5.631-5.563
		C500.05,238.466,497.524,235.971,494.419,235.971"/>
	<path fill="#4F5858" d="M585.821,247.096c3.104,0,5.631-2.496,5.631-5.564c0-3.065-2.526-5.561-5.631-5.561
		c-3.105,0-5.633,2.495-5.633,5.561C580.188,244.6,582.715,247.096,585.821,247.096"/>
	<path fill="#4F5858" d="M540.694,247.096c3.105,0,5.633-2.496,5.633-5.564c0-3.065-2.527-5.561-5.633-5.561
		c-3.104,0-5.631,2.495-5.631,5.561C535.063,244.6,537.589,247.096,540.694,247.096"/>
	<path fill="#4F5858" d="M489.803,292.631c-3.105,0-5.63,2.495-5.63,5.562c0,3.068,2.524,5.563,5.63,5.563s5.633-2.495,5.633-5.563
		C495.436,295.126,492.908,292.631,489.803,292.631"/>
	<path fill="#4F5858" d="M590.102,292.631c-3.105,0-5.633,2.495-5.633,5.562c0,3.068,2.527,5.563,5.633,5.563
		s5.631-2.495,5.631-5.563C595.733,295.126,593.207,292.631,590.102,292.631"/>
	<path fill="#4F5858" d="M540.527,292.631c-3.104,0-5.63,2.495-5.63,5.562c0,3.068,2.525,5.563,5.63,5.563s5.632-2.495,5.632-5.563
		C546.158,295.126,543.631,292.631,540.527,292.631"/>
	<polygon fill="#4F5858" points="348.365,445.131 351.135,438.065 351.988,435.891 349.784,435.047 345.84,433.537 343.637,432.695 
		342.783,434.873 340.014,441.938 330.816,438.419 328.613,437.576 327.758,439.752 325.74,444.902 324.888,447.078 327.09,447.922 
		336.291,451.439 333.217,459.278 332.364,461.455 334.569,462.297 338.512,463.807 340.715,464.648 341.569,462.474 
		344.641,454.634 352.115,457.492 354.317,458.334 355.17,456.158 357.188,451.009 358.041,448.831 355.838,447.989 	"/>
	<polygon fill="#4F5858" points="730.922,455.422 731.514,457.682 733.801,457.097 741.559,455.113 743.481,462.45 744.073,464.708 
		746.36,464.123 750.455,463.076 752.742,462.492 752.561,461.803 752.617,461.788 751.959,459.503 750.229,452.898 759.78,450.457 
		762.067,449.872 761.475,447.613 760.074,442.268 759.483,440.007 757.198,440.592 747.645,443.033 745.514,434.896 
		744.922,432.636 742.635,433.22 738.541,434.268 736.252,434.852 736.844,437.111 738.975,445.249 731.217,447.231 
		728.932,447.816 729.524,450.075 	"/>
	<path fill="#4F5858" d="M520.853,644.566c-0.771-1.195-2.233-1.972-4.011-2.143c-0.225-0.021-0.475-0.021-0.67-0.021
		c-0.807,0-1.591,0.131-2.332,0.394l-0.157,0.049c-0.069,0.017-0.138,0.04-0.207,0.065c-1.005,0.421-2.384,0.996-3.796,2.984
		c-0.945,1.34-0.979,2.491-1.056,5.017l-0.032,1.016c-0.031,0.891-0.01,1.27,0.006,1.573c0.018,0.335,0.033,0.604-0.014,1.261
		c-0.154,2.147-0.348,4.818-2.178,6.993c-1.344,1.603-3.248,2.608-5.089,3.581c-1.375,0.725-2.795,1.476-3.946,2.463
		c-1.582,1.352-2.893,3.159-4.008,5.524c-0.752,1.595-1.299,3.211-1.67,4.937c0.43,0.27,0.852,0.513,1.271,0.751
		c0.263,0.147,0.524,0.293,0.787,0.433c0.611-2.622,2.777-7.052,4.658-8.808c1.538-1.437,2.249-1.395,2.531-1.244l0.502,0.278
		l-1.49,1.35c-2.544,2.319-3.841,6.312-4.481,9.254c-0.005,0.02-0.009,0.038-0.013,0.057c0.986,0.479,2.009,0.936,3.119,1.392
		c0.277,0.112,0.548,0.22,0.813,0.327l0.137,0.052c1.698-1.348,3.456-3.181,6.021-6.272c0.777-0.938,2.584-3.948,3.24-6.654
		c0.125-0.667,0.197-1.177,0.228-1.401l0.241-1.843l0.363,1.209c0,0,0.371,1.24,0.395,1.308c0.082,0.283,0.725,2.816-1.684,7.414
		c-1.555,2.968-3.371,4.846-4.971,6.502l-0.141,0.143c-0.25,0.258-0.484,0.501-0.711,0.728l0.824,0.3
		c0.624,0.227,1.241,0.444,1.836,0.649c0.604,0.206,1.146,0.382,1.672,0.545c1.08,0.34,2.035,0.606,3.14,0.917
		c1.159,0.325,2.464,0.695,4.153,1.212c1.425-1.993,2.395-3.868,2.958-5.732c0.692-2.271,0.894-4.813,0.624-7.763
		c-0.23-2.526-0.715-5.256-1.564-8.848c-0.453-1.923-0.27-3.95,0.531-5.873c0.566-1.361,1.461-2.519,2.33-3.642
		c0.175-0.222,0.344-0.444,0.512-0.664l0.107-0.143C522.4,650.556,522.205,646.654,520.853,644.566 M515.467,647.487
		c-0.192,0.456-0.577,0.788-1.146,0.989c-0.154,0.057-0.322,0.047-0.467-0.019c-0.041-0.017-0.08-0.042-0.117-0.068
		c-0.013-0.009-0.02-0.016-0.03-0.025c-0.51-0.384-0.784-0.771-0.921-1.113c-0.029,0.176-0.047,0.354-0.063,0.543
		c-0.06,0.739,0.231,1.59,0.486,2.098c0.066,0.136,0.134,0.25,0.187,0.327c0.15,0.208,0.104,0.498-0.109,0.648
		c-0.082,0.056-0.178,0.084-0.271,0.084c-0.146,0-0.291-0.068-0.383-0.194c-0.32-0.444-0.947-1.771-0.846-3.038
		c0.125-1.558,0.6-3.248,3.153-3.974c0.248-0.072,0.508,0.07,0.581,0.318c0.072,0.245-0.073,0.5-0.324,0.573
		c-0.111,0.032-0.205,0.072-0.309,0.109l-0.009,0.025c0.063,0.055,0.119,0.122,0.159,0.201
		C515.35,645.633,515.826,646.629,515.467,647.487"/>
</g>
</svg>
