<?xml version="1.0" encoding="utf-8"?>
<!-- Generator: Adobe Illustrator 16.0.0, SVG Export Plug-In . SVG Version: 6.00 Build 0)  -->
<!DOCTYPE svg PUBLIC "-//W3C//DTD SVG 1.1//EN" "http://www.w3.org/Graphics/SVG/1.1/DTD/svg11.dtd">
<svg version="1.1" id="Camada_1" xmlns="http://www.w3.org/2000/svg" xmlns:xlink="http://www.w3.org/1999/xlink" x="0px" y="0px"
	 width="500px" height="500px" viewBox="0 0 500 500" enable-background="new 0 0 500 500" xml:space="preserve">
<g>
	<path fill="#999999" d="M304.753,444.564c3.441,0,6.036-2.686,6.036-6.246c0-3.492-2.321-5.932-5.645-5.932h-0.079
		c-2.572,0-6.194,1.938-6.194,6.244C298.871,443.01,302.038,444.564,304.753,444.564"/>
	<path fill="#999999" d="M153.335,437.885c-1.309,0.174-2.066,0.609-2.066,2.326v22.082c0,14.377-5.224,16.316-10.332,16.316
		c-4.506,0-10.494-1.635-10.494-15.768v-20.281c0-3.697-0.172-4.992-2.104-4.992c-1.795,0-8.107,0.387-9.727,0.629l-0.273,0.041
		l0.027,0.277c0.156,1.656,0.235,4.955,0.235,10.076v14.719c0,16.783,7.089,25.291,21.073,25.291
		c9.938,0,21.782-4.633,21.782-26.701v-11.199c0-6.793,0.088-9.848,0.237-12.826l0.016-0.307h-0.307
		C159.872,437.568,155.719,437.648,153.335,437.885"/>
	<path fill="#999999" d="M197.384,444.813c4.582,0,8.109,1.213,9.804,1.936l0.076,0.02c1.226,0.164,2.355-0.215,3.271-1.086
		c1.184-1.129,1.853-3.01,1.705-4.789l-0.008-0.098l-0.066-0.074c-1.211-1.355-6.967-4.014-14.783-4.014
		c-17.346,0-28.553,9.828-28.553,25.037c0,16.316,11.115,26.857,28.318,26.857c4.965,0,8.974-2.564,11.127-3.943l0.287-0.184
		l0.043-0.033c1.567-1.479,2.605-3.992,2.926-7.078l0.02-0.201l-0.598-0.297l-0.613,0.174c-2.025,0.576-5.793,1.648-10.752,1.648
		c-11.061,0-18.208-6.928-18.208-17.646C181.38,447.629,190.081,444.813,197.384,444.813"/>
	<path fill="#999999" d="M289.707,467.658l-3.781-27.254v-0.002c-0.31-2.092-0.819-2.834-1.94-2.834
		c-1.994,0-8.471,0.447-9.837,1.297l-0.139,0.086v1.123c-3.26,7.877-7.925,19.557-11.202,28.355l-10.035-26.826
		c-1.144-3.262-1.673-4.135-3.188-4.035c-4.038,0-7.021,0.652-9.197,1.125l-0.888,0.189l0.185,1.479
		c-2.215,13.342-4.311,26.813-5.841,36.652c-0.523,3.361-0.971,6.232-1.316,8.42l-0.032,0.201l0.179,0.1
		c1.32,0.74,5.713,2.162,8.252,2.162c1.109,0,1.549-1.709,1.784-3.008c1.085-8.846,2.794-24.883,3.649-34.189
		c1.367,4.371,3.236,10.275,5.052,16.004c2.612,8.244,5.078,16.031,6.003,19.096l0.063,0.209h0.217c1.553,0,3.398-0.209,5.646-0.633
		c2.055-0.41,2.861-1.096,3.447-2.938c3.91-11.73,8.145-24.527,10.357-31.855l1.513,16.279c0.738,8.297,1.204,12.85,1.579,16.504
		l0.074,0.73c0.163,1.795,1.333,3.799,2.654,3.799c1.571,0,6.412-1.367,8.479-1.951l0.905-0.254l-0.043-0.26
		C291.599,481.238,290.7,475.094,289.707,467.658"/>
	<path fill="#999999" d="M309.497,450.328c-1.923,0-7.618,0.479-9.679,1.029l-0.244,0.064l0.028,0.25
		c0.135,1.271,0.313,3.566,0.313,8.742v13.395c0,4.203-0.133,9.625-0.211,12.861l-0.03,1.227h0.299c4.125,0,7-0.104,8.534-0.316
		c2.164-0.248,2.936-2.096,2.936-3.742v-28.281C311.443,451.111,311.152,450.328,309.497,450.328"/>
	<path fill="#999999" d="M354.112,473.887v-9.242c0-9.672-4.21-14.785-12.179-14.785c-3.844,0-7.459,2.338-10.528,4.717
		c-0.813-3.131-2.618-4.717-5.374-4.717c-3.074,0-6.098,2.541-6.888,4.818l-0.017,0.883l0.137,0.086
		c1.067,0.666,1.358,1.455,1.358,3.672v12.768c0,4.135-0.072,10.533-0.235,15.508l-0.01,0.303h0.302
		c2.076,0,3.924-0.551,5.709-1.084c1.203-0.361,2.34-0.701,3.539-0.885c1.933-0.25,2.223-0.73,2.223-2.248v-23.271
		c1.579-1.115,2.932-1.896,5.455-1.896c2.933,0,4.981,2.457,4.981,5.977v20.053c0,1.393,0.652,3.357,2.103,3.357
		c2.538,0,4.907-0.762,6.809-1.369c1.048-0.334,1.954-0.623,2.585-0.678l0.281-0.025l-0.015-0.281
		C354.205,482.76,354.112,478.184,354.112,473.887"/>
	<path fill="#999999" d="M393.431,478.539c-0.28,0.07-0.825,0.07-1.187,0.07c-1.734,0-2.543-0.9-2.543-1.51
		c0-2.941,0.1-5.852,0.187-8.418c0.068-2.039,0.127-3.801,0.127-5.213c0-9.4-6.828-13.609-13.595-13.609
		c-5.435,0-11.295,2.656-14.964,5.143l-0.123,0.082l-0.006,0.152c-0.028,0.982,0.068,3.408,1.634,4.652
		c0.896,0.709,2.086,0.875,3.58,0.479l0.202-0.09c1.535-0.691,4.105-1.844,6.605-1.844c3.41,0,5.614,1.977,5.614,5.035v0.695
		c-0.92,0.168-2.477,0.447-3.784,0.662c-5.306,1.139-15.188,3.252-15.188,11.646c0,6.225,4.979,11.895,10.447,11.895
		c3.256,0,6.273-2.658,8.821-5.355c1.123,2.158,3.383,5.355,6.925,5.355c5.675,0,7.69-4.973,7.69-9.23l-0.16-0.666L393.431,478.539z
		 M378.804,475.139c0,1.27-0.191,2.033-0.604,2.52c-1.009,0.85-1.755,1.107-3.196,1.107c-2.05,0-4.116-1.168-4.116-3.783v-0.076
		c0-0.918,0.576-3.945,7.917-4.766V475.139L378.804,475.139z"/>
	<path fill="#999999" d="M417.265,465.643l-0.012-0.006c-0.53-0.266-1.26-0.609-2.043-0.98c-1.539-0.729-3.283-1.555-4.156-2.066
		c-1.571-0.936-2.534-1.572-2.534-2.803c0-1.277,1.274-2.137,3.173-2.137c1.668,0,3.499,0.406,5.154,1.148l0.097,0.025
		c1.06,0.078,1.965-0.242,2.69-0.959c1.313-1.301,1.659-3.502,1.56-4.994l-0.009-0.135l-0.112-0.082
		c-2.654-1.906-5.587-2.795-9.223-2.795h-0.08c-6.587,0-13.673,3.672-13.673,11.73c0,3.803,2.029,7.18,5.588,9.266
		c1.057,0.545,2.092,1.072,3.106,1.584c1.032,0.523,2.043,1.037,3.029,1.549c2.101,1.125,2.521,1.934,2.521,2.875
		c0,1.438-1.331,2.295-3.563,2.295c-3.896,0-7.736-2.186-8.819-2.855l-0.19-0.117l-0.163,0.15c-1.142,1.063-2.297,3.225-2.297,5.307
		c0,1.602,1.144,2.529,2.271,3.227l0.665,0.393c2.215,1.309,5.248,3.104,7.826,3.104c7.379,0,15.015-5.063,15.015-13.537
		C423.083,470.816,421.181,467.813,417.265,465.643"/>
	<path fill="#999999" d="M90.89,437.678c-5.908,0-11.546,0.631-13.713,1.031l-0.262,0.047l0.023,0.266
		c0.318,3.623,0.318,6.875,0.318,10.643v35.803c0,1.521,0.77,3.135,2.197,3.135c2.16,0,8.256-0.227,9.767-0.645l0.225-0.063
		l-0.011-0.234c-0.158-3.152-0.238-6.764-0.238-10.729v-5.607c2.254,0.188,4.822-0.328,6.55-0.672
		c7.036-1.414,11.951-4.658,14.613-9.639c1.325-2.479,2.026-5.283,2.026-8.104C112.386,439.523,102.054,437.678,90.89,437.678
		 M92.001,462.102c-0.289,0-1.559-0.053-2.805-0.104v-16.67c0.803-0.113,1.744-0.113,2.328-0.113c4.215,0,8.523,0.896,8.523,7.535
		C100.048,460.885,95.007,462.102,92.001,462.102"/>
	<path fill="#999999" d="M372.566,416.807c7.645,0,14.255-3.863,21.257-7.957c7.792-4.553,15.849-9.26,26.267-9.26
		c1.148,0,2.195-0.678,2.663-1.73c0.47-1.047,0.271-2.279-0.5-3.133l-11.86-13.104l8.395-18.266c0.44-0.951,0.332-2.07-0.283-2.918
		c-0.612-0.846-1.642-1.303-2.757-1.184c-2.645,0.273-14.6,2.01-22.465,7.494c-0.037-10.609-0.665-15.576-0.674-15.645
		c-0.008-0.059-0.014-0.117-0.014-0.176c0-3.117-6.188-3.717-6.249-3.721c-10.362-0.84-21.214,0.48-33.169,4.043
		c-10.733,3.193-21.332,7.848-31.584,12.348c-4.778,2.098-9.721,4.27-14.665,6.281c-18.148,7.389-36.203,10.98-55.199,10.98
		c-18.986,0-37.039-3.592-55.184-10.98c-4.891-1.99-9.839-4.162-14.624-6.264l-0.071-0.029
		c-10.244-4.496-20.836-9.146-31.556-12.338c-11.979-3.566-22.829-4.887-33.171-4.041c-0.061,0.006-6.249,0.613-6.249,3.723
		c0,0.057-0.003,0.117-0.011,0.178c-0.01,0.07-0.747,5.666-0.681,18.092c-8.663-6.396-25.794-8.32-26.523-8.4
		c-0.823-0.09-1.63,0.27-2.115,0.939c-0.483,0.67-0.569,1.551-0.222,2.301l8.938,19.453l-12.668,14
		c-0.611,0.672-0.766,1.643-0.396,2.471c0.37,0.828,1.193,1.365,2.104,1.365c11.041,0,19.516,4.951,27.71,9.74
		c7.198,4.207,13.997,8.18,21.757,8.18c10.174,0,15.045-4.842,15.357-9.639c0.023-0.371,0.013-0.73-0.016-1.088
		c0.045-0.543,0.082-1.209,0.104-1.631c0.211-4.025,0.596-9.898,0.731-14.334c0.145-1.543,0.251-2.988,0.254-4.264
		c7.558,2.342,14.799,5.168,21.552,7.914c25.92,10.539,53.83,20.83,84.979,20.83c13.831,0,28.041-2.031,43.442-6.207
		c14.772-4.006,29.295-9.639,41.553-14.623c6.571-2.674,13.603-5.422,20.907-7.715c-0.032,1-0.101,2.24-0.177,3.639
		c-0.167,3.068-0.371,6.797-0.297,9.816c-0.079,1.902-0.072,4.559-0.048,4.936c0.18,2.74,1.789,5.328,4.413,7.1
		C364.255,415.83,368.076,416.807,372.566,416.807 M392.563,387.834c0,0,2.86,4.768-11.394,8.74
		c-1.899,0.471-4.084,0.98-6.611,1.568c-0.082,0.016-0.168,0.033-0.249,0.047c-0.577,0.119-1.167,0.232-1.78,0.348
		c-3.59,0.67-13.049,3.125-13.049,3.125c0.05-5.84,0.443-8.721,0.595-13.91c0.396-0.119,0.79-0.242,1.188-0.357
		c2.687-0.773,5.285-1.438,7.832-1.969c10.854-2.266,18.228-2.854,21.872,0.35C391.612,386.342,392.155,387.016,392.563,387.834
		 M137.208,414.436c-2.945,1.457-6.431,1.68-9.662,1.514c-15.524-0.801-25.672-17.76-47.242-17.76l12.635-14.521l-8.797-20.643
		c0,0,10.5,2.307,14.017,3.49c4.442,1.496,10.24,3.596,12.044,5.139c0.02,1.518,0.053,3.131,0.1,4.83
		c0.008,0.604,0.021,1.221,0.034,1.854c0.022,1.764,0.032,3.699,0.109,5.543c-0.713,0.607-1.507,1.484-1.946,2.732
		c-0.959,2.727-0.167,5.689,1.555,7.932c2.277,2.963,6.403,4.273,9.801,5.451c4.237,1.475,8.601,2.592,13.026,3.334
		c3.211,0.539,7.819,1.453,8.249,5.412C141.413,411.34,139.368,413.367,137.208,414.436 M142.211,404.225
		c-0.862-0.924-1.978-1.645-3.281-2.086c-0.462-0.199-0.97-0.355-1.53-0.463c-6.376-1.219-13.349-2.967-18.509-4.973
		c-3.226-1.254-5.745-2.605-6.966-3.994c-1.319-1.498-1.422-3.066-1.422-3.066c-0.021-0.293-0.007-0.564,0.025-0.816
		c0.09-0.699,0.323-1.221,0.426-1.439c1.021-2.182,3.566-3.121,4.816-3.521c1.221-0.229,2.527-0.357,3.855-0.357
		c0.372,0,0.729,0.01,1.064,0.027c6.773,0.377,13.811,1.639,21.515,3.859c0.384,0.111,0.763,0.23,1.145,0.344
		C143.302,390.379,143.098,394.119,142.211,404.225 M335.983,394.404c-12.202,4.963-26.656,10.572-41.326,14.549
		c-15.23,4.129-29.273,6.137-42.931,6.137c-30.795,0-58.502-10.219-84.244-20.688c-7.688-3.125-16.004-6.365-24.734-8.881
		c-2.451-0.703-4.83-1.311-7.16-1.824c-4.279-0.953-8.381-1.596-12.379-1.934c-2.174-0.258-4.199-0.361-6.002-0.254
		c-1.84,0.109-3.447,0.436-4.742,1.045c-0.906-21.488,0.316-31.088,0.33-31.184c0.02-0.143,0.028-0.291,0.028-0.441
		c0-0.709,2.554-1.619,4.46-1.779c10.127-0.814,20.744,0.482,32.452,3.969c10.61,3.158,21.157,7.787,31.354,12.262l0.063,0.029
		c4.788,2.102,9.738,4.271,14.656,6.275c18.385,7.484,36.68,11.123,55.934,11.123c19.241,0,37.534-3.639,55.921-11.123
		c4.92-2.004,9.863-4.174,14.643-6.27l0.071-0.033c10.194-4.475,20.734-9.102,31.354-12.264c11.722-3.492,22.339-4.789,32.456-3.969
		c1.864,0.158,4.458,1.084,4.458,1.779c0,0.141,0.009,0.285,0.028,0.438c0.011,0.07,0.727,5.641,0.66,17.859
		c-0.019,3.84-0.118,8.328-0.339,13.516c-0.27-0.1-0.529-0.201-0.784-0.299c-0.889-0.344-1.698-0.652-2.601-0.791
		c-1.566-0.375-3.599-0.391-5.605-0.391c-4.811,0.293-10.548,1.498-17.117,3.146c-1.37,0.344-2.754,0.709-4.166,1.115
		C352.007,388.033,343.683,391.275,335.983,394.404 M359.539,407.436c-0.32-1.811,0.416-3.398,2.111-4.129
		c1.015-0.438,3.619-1.195,4.658-1.389c3.724-0.701,22.333-4.391,26.561-8.258c2.494-2.271,3.604-6.271,0.729-8.799
		c-0.221-0.195-0.47-0.383-0.578-0.656c-0.081-0.199-0.077-0.424-0.07-0.641c0.13-4.781,0.31-9.566,0.332-14.35
		c7.625-5.098,19.301-7.611,21.905-7.879c0.523-0.055,1.066,0.178,1.382,0.615c0.317,0.438,0.373,1.012,0.148,1.502L407.344,382
		l12.351,12.766c0.398,0.441,0.502,1.074,0.259,1.615c-0.24,0.541-0.779,0.893-1.373,0.893c-10.801,0-17.282,4.199-25.239,8.85
		c-6.829,3.99-13.279,7.758-20.542,7.758c-4.204,0-7.752-0.891-10.25-2.578C361.164,410.371,359.843,409.146,359.539,407.436"/>
	<path fill="#999999" d="M143.068,375.738c-0.281-0.08-0.424-0.121-0.707-0.199c-0.131,2.721-0.779,3.227-2.25,2.83
		c-1.146-0.311-1.727-0.461-2.9-0.76c-1.32-0.334-1.689-0.479-1.709-2.453c-0.029-3.141-0.009-4.74,0.023-7.93
		c1.294,0.313,1.932,0.471,3.188,0.803c1.561,0.41,2.101,1.711,2.095,3.633c0.286,0.078,0.429,0.117,0.714,0.197
		c0.009-2.988,0.03-4.488,0.035-7.471c-0.283-0.084-0.426-0.123-0.711-0.205c-0.154,1.133-0.329,2.641-2.119,2.168
		c-1.259-0.332-1.892-0.494-3.186-0.805c0.026-2.846,0.041-4.27,0.01-7.07c-0.02-1.691,0.324-1.748,1.635-1.418
		c0.817,0.205,1.224,0.313,2.025,0.525c1.697,0.455,2.774,1.506,2.791,4.342c0.282,0.082,0.424,0.125,0.703,0.207
		c-0.044-2.105-0.074-3.162-0.174-5.258c-4.773-1.406-7.268-2.031-12.675-3.037c0.009,0.301,0.015,0.449,0.022,0.752
		c2.609,1.002,2.689,1.016,2.707,4.508c0.035,7.574-0.244,11.637,0.006,19.016c4.391,1.018,6.471,1.572,10.499,2.734
		C143.052,378.809,143.053,377.783,143.068,375.738"/>
	<path fill="#999999" d="M157.595,362.406c-0.654-0.295-0.982-0.443-1.643-0.732c-1.367,3.15-2.117,4.645-3.654,7.715
		c-1.361-4.24-2.033-6.393-3.524-10.697c-1.768-0.686-2.667-1.018-4.504-1.656c-0.002,0.311-0.003,0.467-0.006,0.777
		c1.968,1.115,2.219,1.721,3.027,4.096c1.222,3.646,1.794,5.465,2.957,9.08c-2.122,4.07-3.257,6.17-5.321,10.352
		c0.686,0.236,1.027,0.354,1.704,0.592c1.687-3.557,2.597-5.326,4.346-8.781c1.468,4.689,2.194,6.992,3.796,11.797
		c1.163,0.451,1.738,0.68,2.887,1.135c-1.996-5.979-2.881-8.779-4.707-14.592C154.908,367.863,155.868,366.127,157.595,362.406"/>
	<path fill="#999999" d="M172.388,370.801c1.993,0.977,2.496,3.57,2.618,4.73c1.064,0.51,1.599,0.766,2.679,1.273
		c-0.276-2.777-1.713-5.916-5.131-7.596c-4.881-2.402-5.993,2.545-6.058,8.699c-0.081,7.457,1.729,12.912,6.342,14.828
		c2.226,0.926,4.05,0.705,4.611,0.582c-0.017-0.906-0.022-1.352-0.036-2.225c-0.582,0.406-1.95,1.059-3.909,0.244
		c-4.343-1.807-4.604-9.457-4.583-13.152C168.945,374.787,169.384,369.326,172.388,370.801"/>
	<path fill="#999999" d="M185.616,373.525c-5.156-2.285-6.314,1.875-6.268,8.646c0.05,6.74,1.596,12.068,6.627,13.99
		c4.961,1.895,6.529-2.307,6.445-8.625C192.336,381.129,190.558,375.715,185.616,373.525 M185.943,394.484
		c-3.627-1.387-4.027-7.35-4.064-11.213c-0.042-4.205,0.092-9.695,3.775-8.066c3.609,1.598,3.982,7.336,4.035,11.281
		C189.74,390.344,189.64,395.896,185.943,394.484"/>
	<path fill="#999999" d="M207.676,387.951c-0.019-5.396-5.745-7.652-7.797-8.365c-2.689-0.938-3.984-1.422-6.499-2.41
		c0.006,0.316,0.008,0.475,0.013,0.783c2.384,1.465,2.469,1.605,2.508,4.754c0.089,6.826,0.096,8.945,0.209,16.699
		c1.132,0.381,1.704,0.566,2.866,0.941c-0.049-4.494-0.066-6.213-0.1-9.838c0.662,0.223,0.994,0.334,1.668,0.553
		c1.945,4.232,2.938,6.188,4.918,11.268c1.285,0.371,1.855,0.529,3.095,0.861c-1.997-5.305-2.976-7.287-5.044-11.699
		C205.718,391.811,207.687,391.391,207.676,387.951 M200.4,389.666c-0.619-0.205-0.926-0.311-1.534-0.518
		c-0.021-2.074-0.028-3.096-0.053-5.344c-0.022-2.273-0.048-2.951,1.794-2.318c2.309,0.793,4.104,2.512,4.108,5.764
		C204.719,390.621,202.161,390.248,200.4,389.666"/>
	<path fill="#999999" d="M216.952,384.438c-3.049-0.621-4.547-0.973-7.476-1.773c0.001,0.318,0.001,0.475,0.002,0.785
		c2.435,1.197,2.534,1.348,2.553,4.436c0.042,6.701,0.067,8.518,0.106,16.322c1.616,0.391,2.427,0.576,4.058,0.924
		c5.329,1.131,9.986,0.203,9.979-8.74C226.169,388.377,222.181,385.5,216.952,384.438 M217.007,403.641
		c-1.89-0.391-1.893-1.34-1.901-2.582c-0.038-5.855-0.065-7.658-0.104-13.584c-0.01-1.518,0.639-1.643,2.236-1.32
		c5.178,1.047,5.832,4.826,5.854,9.838C223.118,401.711,221.991,404.666,217.007,403.641"/>
	<path fill="#999999" d="M227.048,387.035c2.604,0.918,2.695,1.072,2.603,4.172c-0.196,6.727-0.235,8.457-0.475,16.354
		c4.442,0.619,6.685,0.848,11.191,1.139c0.134-2.15,0.196-3.102,0.317-4.91c-0.317-0.021-0.478-0.029-0.795-0.051
		c-0.285,2.422-1.085,3.164-2.693,3.029c-1.254-0.104-1.879-0.162-3.125-0.293c-1.406-0.148-1.764-0.326-1.703-2.137
		c0.1-2.889,0.141-4.102,0.224-6.629c1.377,0.152,2.067,0.225,3.452,0.344c1.715,0.154,2.31,1.086,2.239,2.656
		c0.319,0.021,0.48,0.033,0.802,0.055c0.111-2.439,0.162-3.549,0.274-6.021c-0.324-0.02-0.485-0.031-0.809-0.055
		c-0.218,0.957-0.476,2.209-2.454,2.033c-1.388-0.123-2.078-0.191-3.458-0.344c0.075-2.264,0.115-3.381,0.203-5.973
		c0.052-1.564,0.433-1.697,1.88-1.563c0.904,0.086,1.357,0.125,2.266,0.197c1.918,0.152,3.107,1.047,2.993,3.537
		c0.327,0.02,0.489,0.029,0.814,0.047c0.054-1.844,0.081-2.816,0.147-5.014c-5.615-0.299-8.413-0.57-13.873-1.369
		C227.06,386.563,227.057,386.723,227.048,387.035"/>
	<path fill="#999999" d="M251.673,389.533c2.679,0.449,2.761,0.604,2.62,3.748c-0.307,6.83-0.423,8.48-0.757,16.572
		c4.551-0.189,6.834-0.367,11.399-0.887c0.144-2.215,0.213-3.186,0.346-5.031c-0.319,0.039-0.479,0.057-0.799,0.094
		c-0.307,2.492-1.119,3.396-2.752,3.549c-1.271,0.123-1.904,0.174-3.178,0.271c-1.429,0.105-1.796-0.01-1.707-1.854
		c0.14-2.941,0.204-4.162,0.335-6.715c1.398-0.094,2.097-0.148,3.492-0.273c1.729-0.152,2.31,0.672,2.22,2.26
		c0.324-0.033,0.483-0.051,0.806-0.084c0.139-2.471,0.207-3.584,0.346-6.086c-0.323,0.035-0.482,0.053-0.807,0.088
		c-0.227,1-0.498,2.297-2.488,2.475c-1.396,0.125-2.097,0.182-3.497,0.277c0.117-2.285,0.176-3.41,0.3-6.053
		c0.076-1.592,0.464-1.801,1.92-1.924c0.91-0.074,1.365-0.115,2.269-0.203c1.914-0.186,3.084,0.52,2.945,3.049
		c0.321-0.041,0.485-0.057,0.808-0.096c0.067-1.867,0.102-2.854,0.178-5.104c-5.52,0.674-8.337,0.9-13.966,1.113
		C251.69,389.051,251.685,389.213,251.673,389.533"/>
	<path fill="#999999" d="M276.5,387.246c2.532-0.488,2.995,1.764,3.087,2.797c1.325-0.279,1.986-0.43,3.295-0.738
		c-0.206-2.504-1.719-4.732-6.051-3.885c-6.193,1.213-8.123,6.949-8.431,12.26c-0.374,6.424,1.64,11.156,7.5,10.084
		c2.829-0.516,5.181-2.063,5.908-2.594c0.034-0.949,0.052-1.402,0.085-2.275c-0.761,0.813-2.545,2.455-5.028,2.928
		c-5.503,1.047-5.471-6.1-5.289-9.326C271.745,393.531,272.683,387.979,276.5,387.246"/>
	<path fill="#999999" d="M291.914,383.395c2.329-0.73,2.832,1.48,2.963,2.5c1.189-0.406,1.784-0.617,2.974-1.039
		c-0.298-2.477-1.741-4.584-5.695-3.324c-5.65,1.799-7.412,7.756-7.58,13.066c-0.207,6.434,1.897,10.988,7.714,9.313
		c2.809-0.809,4.688-2.48,5.313-3.064c0-0.967-0.002-1.426-0.006-2.305c-0.646,0.871-1.977,2.592-4.426,3.318
		c-5.43,1.615-5.63-5.529-5.565-8.754C287.665,390.143,288.407,384.492,291.914,383.395"/>
	<path fill="#999999" d="M310.484,391.949c0.051,3.088-1.36,3.967-2.957,4.572c-0.871,0.332-1.308,0.496-2.177,0.818
		c-1.693,0.629-1.687,0.498-1.709-2.014c-0.072-7.527-0.233-9.002-0.292-17.693c-2.07,1.115-3.107,1.668-5.182,2.75
		c0.002,0.332,0.002,0.496,0.004,0.818c2.399-0.371,2.471-0.242,2.508,2.467c0.093,6.979,0.219,8.531,0.211,17.072
		c4.081-1.412,6.138-2.191,10.275-3.807c0.028-2.33,0.03-3.348,0.026-5.266C310.909,391.779,310.767,391.836,310.484,391.949"/>
	<path fill="#999999" d="M323.871,386.508c-0.068,2.631-0.765,3.781-2.228,4.383c-1.14,0.467-1.711,0.699-2.849,1.164
		c-1.279,0.523-1.606,0.51-1.645-1.428c-0.057-3.08-0.11-4.342-0.221-6.918c1.224-0.502,1.837-0.752,3.062-1.256
		c1.522-0.629,2.132,0.037,2.203,1.658c0.286-0.119,0.427-0.178,0.712-0.295c-0.114-2.521-0.188-3.635-0.325-6.059
		c-0.283,0.115-0.424,0.172-0.705,0.287c-0.1,1.018-0.208,2.342-1.951,3.059c-1.224,0.504-1.834,0.754-3.054,1.252
		c-0.103-2.285-0.158-3.387-0.252-5.945c-0.057-1.543,0.266-1.85,1.509-2.338c0.777-0.309,1.165-0.463,1.941-0.77
		c1.644-0.65,2.715-0.283,2.846,2.125c0.279-0.113,0.421-0.172,0.701-0.287c-0.128-1.764-0.19-2.682-0.299-4.754
		c-4.765,1.85-7.137,2.791-11.879,4.613c0.006,0.326,0.01,0.486,0.016,0.803c2.289-0.342,2.358-0.219,2.464,2.873
		c0.228,6.715,0.441,8.387,0.466,16.988c4.077-1.629,6.127-2.48,10.237-4.166c0.009-2.34,0-3.365-0.032-5.287
		C324.301,386.33,324.158,386.389,323.871,386.508"/>
	<path fill="#999999" d="M328.967,372.539c-0.13-1.967,0.895-3.441,2.222-3.951c1.955-0.748,3.881-0.438,4.59-0.301
		c-0.066-0.896-0.101-1.359-0.159-2.332c-0.662,0.074-2.317,0.238-4.04,0.887c-3.523,1.322-5.524,4.42-5.322,7.664
		c0.387,6.219,8.706,1.844,8.962,7.107c0.146,2.957-1.455,4.74-3.082,5.398c-2.066,0.836-4.161,0.125-4.978-0.176
		c0.03,1.131,0.044,1.725,0.061,2.996c0.544-0.025,2.542,0.004,4.532-0.803c3.568-1.443,6.512-5.117,6.243-9.588
		C337.595,372.752,329.272,377.129,328.967,372.539"/>
	<path fill="#999999" d="M337.464,365.447c0.021,0.283,0.029,0.426,0.049,0.703c2.471-0.486,2.546-0.398,2.767,2.004
		c0.564,6.188,0.991,7.939,1.148,16.617c1.14-0.432,1.711-0.645,2.851-1.064c-0.211-10.977-0.939-12.014-1.578-20.877
		C340.604,363.855,339.556,364.379,337.464,365.447"/>
	<path fill="#999999" d="M354.744,359.691c-1.921,0.568-4.03,0.863-5.94,1.473c0.022,0.273,0.033,0.408,0.059,0.676
		c1.031-0.145,1.975-0.393,2.093,0.76c0.021,0.203-0.156,1.285-0.257,1.803c-1.364,6.695-1.916,8.869-3.804,18.355
		c0.644-0.229,0.963-0.342,1.606-0.566c0.707-3.609,1.016-5.107,1.593-7.904c2.631-0.898,3.948-1.328,6.581-2.123
		c0.984,2.307,1.458,3.563,2.297,6.711c1.073-0.303,1.608-0.447,2.681-0.727C357.884,368.289,357.261,366.482,354.744,359.691
		 M350.413,372.74c0.795-3.777,1.68-6.227,2.41-9.795c1.45,3.01,2.278,4.896,3.288,7.951
		C353.832,371.594,352.691,371.965,350.413,372.74"/>
	<path fill="#999999" d="M362.798,361.107c0.714,5.76,1.242,7.66,1.38,16.412c4.104-0.982,6.149-1.383,10.217-1.932
		c0.024-2.42,0.004-3.488-0.065-5.465c-0.288,0.043-0.433,0.066-0.72,0.111c-0.015,2.67-0.718,3.67-2.179,3.922
		c-1.138,0.193-1.707,0.301-2.849,0.529c-1.282,0.256-1.602,0.184-1.695-1.787c-0.147-3.139-0.277-4.418-0.556-6.891
		c1.253-0.291,1.878-0.428,3.131-0.686c1.552-0.32,2.224,0.447,2.362,2.078c0.29-0.053,0.435-0.078,0.724-0.129
		c-0.215-2.541-0.358-3.637-0.632-5.865c-0.291,0.053-0.438,0.082-0.727,0.137c-0.05,0.906-0.09,2.117-1.876,2.486
		c-1.254,0.26-1.878,0.398-3.13,0.691c-0.259-2.15-0.406-3.141-0.663-5.303c-0.155-1.303,0.172-1.514,1.468-1.797
		c0.809-0.178,1.215-0.264,2.025-0.428c1.719-0.35,2.874,0.063,3.131,2.191c0.293-0.057,0.438-0.082,0.73-0.133
		c-0.223-1.568-0.333-2.35-0.525-4.043c-5.014,0.879-7.497,1.439-12.427,2.721c0.024,0.262,0.038,0.389,0.065,0.645
		C362.399,358.393,362.469,358.453,362.798,361.107"/>
	<path fill="#999999" d="M262.749,281.125c-0.504-1.063-2.931-5.734-3.639-6.719c-0.317-0.439-0.591-0.912-0.93-1.336
		c-1.199-1.502-1.004-3.074-0.851-3.508c0.502-1.438,1.313-3.852,2.743-9.568c0.696-2.771,0.778-4.234,0.835-4.729
		c0.249-2.117,0.406-3.449,0.194-5.24c-0.129-1.095-0.394-3.17-1.703-5.469c-1.359-2.388-3.08-3.675-3.445-3.938
		c-0.476-0.347-1.324-0.955-2.594-1.416c-0.344-0.124-2.097-0.737-4.453-0.535c-3.039,0.26-5.111,1.703-5.885,2.258
		c-0.48,0.34-2.316,1.703-3.717,4.206c-1.358,2.421-1.574,4.6-1.702,6.042c-0.155,1.719-0.358,3.998,0.735,6.543
		c0.833,1.939,2.107,3.309,2.555,3.781c0.64,0.678,1.244,1.182,1.702,1.531c0.294-0.492,0.761-1.178,1.464-1.875
		c1.54-1.523,2.333-1.785,3.727-1.844c0.546-0.021,1.375,0.211,1.905,0.457c0.087,0.039,0.161,0.135,0.246,0.203
		c0.444-0.9,0.565-2.818,0.565-3.752c0.002-1.338-0.059-2.148-0.382-2.865c-0.151-0.336-0.364-0.664-0.365-0.666
		c-0.25-0.387-0.532-0.82-0.995-1.135c-0.211-0.143-0.363-0.195-0.525-0.254c-0.266-0.094-0.624-0.223-0.92-0.645
		c-0.449-0.646-0.358-1.347-0.326-1.61c0.143-1.114,0.947-1.772,1.254-1.987c0.014-0.009,0.025-0.014,0.039-0.024
		c0.372-0.209,1.383-0.671,2.601-0.348c1.043,0.273,1.616,0.957,1.831,1.216c0.734,0.876,0.899,1.819,0.998,2.632
		c0.122,1.023,0.328,3.764-0.443,7.115l-0.049,0.215c-0.141,0.635-0.316,1.418-0.803,2.254c-0.21,0.359-0.373,0.607-0.508,0.805
		c-0.094,0.139-0.193,0.223-0.208,0.318c-0.315,2.016-0.291,14.791-0.161,16.855c0.047,0.734,0.115,8.682,0.193,10.439
		c0.018,0.359,0.05,1.535-0.62,1.994c-0.443,0.305-1.022,0.25-1.188,0.23c-0.775-0.084-1.307-0.561-1.51-0.748
		c-2.912-2.691-4.25-6.885-4.25-6.885c-0.766-2.395-1.634-5.811-2.019-10.086c-2.995,3.781-5.465,8.457-6.948,14.012
		c-1.271,4.768-0.598,9.354,0.385,13.537c0.002,0.01,0.293,1.316,0.574,2.508c0.8-0.209,1.684-0.256,2.509-0.129
		c0.032-0.051,0.063-0.102,0.107-0.15c0.013-0.014,0.026-0.027,0.04-0.039c0.383-0.354,0.957-0.949,1.567-1.58l0.015-0.016
		c1.152-1.188,2.455-2.533,3.348-3.221c0.306-0.232,0.758-0.225,1.055,0.014c0.303,0.246,0.394,0.674,0.216,1.021
		c-0.054,0.102-0.282,0.393-0.568,0.756c-0.157,0.199-0.326,0.414-0.481,0.615c0.047-0.041,0.09-0.082,0.139-0.127
		c0.402-0.371,0.818-0.754,0.951-0.842c0.259-0.17,0.613-0.145,0.842,0.059l0.042,0.037c0.215,0.227,0.252,0.566,0.087,0.83
		c-2.638,4.205-3.695,5.615-4.207,6.09c0.002,0.113,0.004,0.219,0.004,0.297c-0.002,0.949-0.266,1.686-0.439,2.174
		c-0.254,0.707-0.542,1.207-0.848,1.736c-0.19,0.324-0.402,0.643-0.609,0.949c-0.56,0.838-1.09,1.629-1.227,2.631
		c-0.117,0.846,0.11,1.646,0.35,2.494c0.104,0.363,0.209,0.734,0.283,1.107c0.136,0.664,0.244,1.678,0.266,2.838
		c0.431,0.188,0.893,0.371,1.386,0.549c0.37,0.129,0.728,0.244,1.076,0.35c0.69-1.346,1.526-2.568,2.446-3.482
		c1.394-1.383,1.43-2.41,1.178-4.426c-0.055-0.445-0.153-0.873-0.252-1.287c-0.238-1.014-0.483-2.064-0.048-3.324
		c0.249-0.725,0.673-1.377,1.157-2.018c0.549-0.727,1.454-1.436,1.742-1.652c0.029-0.502,0.27-2.137,0.514-3.502
		c0.552-3.107,0.808-3.533,1.533-3.588l0.062-0.002c0.724,0,0.939,0.287,1.784,3.584c0.269,1.055,0.658,2.693,0.752,3.271
		c0.249,0.455,0.498,0.914,0.753,1.375c0.162,0.291,0.323,0.584,0.485,0.873c0.461,0.846,0.58,1.559,0.613,2.018
		c0.043,0.658,0.014,1.363-0.404,2.656c-0.164,0.518-0.324,1.008-0.371,1.52c-0.111,1.184,0.305,2.568,1.173,3.9
		c0.198,0.307,0.436,0.619,0.747,0.986c1.021,1.215,1.987,2.449,2.731,3.863c0.266-0.047,0.562-0.115,0.681-0.143
		c0.236-0.051,0.64-0.172,1.018-0.299l0.029-0.006c-0.012-1.703,0.247-3.299,0.428-4.195c0.076-0.373,0.181-0.748,0.286-1.109
		c0.239-0.846,0.466-1.648,0.35-2.494c-0.137-1-0.668-1.793-1.229-2.631c-0.205-0.307-0.418-0.625-0.606-0.951
		c-0.306-0.527-0.646-1.01-0.849-1.732c-0.351-1.264-0.232-2.332,0.008-3.145c-0.449-0.557-1.306-1.984-3.218-5.676
		c-0.098-0.189-0.048-0.422,0.117-0.557c0.086-0.07,0.19-0.105,0.294-0.105c0.101,0,0.201,0.033,0.285,0.1
		c0.363,0.285,0.971,0.895,1.625,1.604c-0.553-0.99-1.041-1.9-1.195-2.266c-0.108-0.264-0.019-0.566,0.218-0.727
		c0.104-0.074,0.228-0.109,0.35-0.109c0.15,0,0.298,0.053,0.414,0.158c0.824,0.752,2.009,2.191,3.051,3.461
		c0.396,0.482,0.774,0.941,1.087,1.309c0.614-0.082,1.272-0.049,1.923,0.094c0-0.021,0-0.035,0.002-0.061
		c0.002-0.113,0.2-0.744,0.451-1.492C264.485,300.412,267.605,291.313,262.749,281.125 M245.265,258.854
		c-0.176,0.572-0.705,0.971-1.287,0.971c-0.26,0-0.518-0.076-0.741-0.227c-1.7-1.117-2.805-2.902-2.955-4.773
		c-0.08-0.99,0.181-1.932,0.771-2.799c0.082-0.119,0.17-0.238,0.258-0.359c0.244-0.33,0.475-0.641,0.477-0.889
		c0.01-0.727,0.595-1.297,1.337-1.297c0.37,0,0.731,0.146,0.986,0.401c0.251,0.249,0.389,0.588,0.385,0.951
		c-0.006,0.59-0.191,1.086-0.426,1.52c0.757,0.445,1.397,1.342,1.34,2.584c-0.03,0.645-0.46,2.027-0.606,2.488
		C245.24,257.762,245.427,258.32,245.265,258.854 M246.947,297.16c-0.369,0.387-0.855,0.592-1.404,0.592
		c-0.111,0-0.223-0.008-0.332-0.027c-0.723-0.102-1.196-0.523-1.564-1.055c-1.27-1.84,1.814-6.016,2.249-6.402
		c0.167-0.15,0.387-0.23,0.608-0.23c0.094,0,0.188,0.014,0.278,0.045c0.308,0.102,0.537,0.357,0.601,0.668
		C247.757,292.582,248.198,295.852,246.947,297.16 M252.304,297.564c-0.355,0.328-0.826,0.512-1.324,0.512
		c-0.081,0-0.165-0.008-0.248-0.016c-0.674-0.08-1.329-0.479-1.707-1.037c-0.938-1.379-0.424-2.762-0.012-3.873
		c0.188-0.506,0.365-0.979,0.412-1.416c0.04-0.354,0.331-0.631,0.689-0.658c0.592-0.049,0.941,0.424,1.111,0.648
		c0.038,0.055,0.064,0.094,0.094,0.121c0.406,0.43,1.483,2.02,1.646,2.816C253.163,295.629,253.034,296.9,252.304,297.564
		 M257.4,297.275c-0.076,0.023-0.149,0.039-0.229,0.053c-0.898,0.158-1.842-0.254-2.351-1.025c-0.648-0.982-0.869-2.09-1.063-3.07
		c-0.17-0.844-0.33-1.639-0.719-2.313c-0.201-0.346-0.129-0.795,0.17-1.063c0.297-0.27,0.756-0.293,1.086-0.064
		c0.752,0.52,4.512,3.258,4.473,5.729C258.753,296.355,258.216,297.043,257.4,297.275"/>
	<path fill="#999999" d="M417.133,298.846c-2.256-2.928-6.929-3.939-10.044-1.936c-0.52-2.428-3.852-19.189-4.643-25.551
		c19.615-2.289-11.937-32.634-12.874-12.537c-5.759,0.037-20.641-0.781-24.19-0.945c3.85-8.617-6.569-13.371-12.888-7.747
		c-1.449-1.064-9.173-6.418-13.635-9.547c-0.002-7.852-0.008-15.814-0.016-23.537c13.729,1.722,26.185,0.338,38.971-5.805
		c4.346,7.383,12.731,3.507,11.292-3.354c7.502-6.256,19.864-16.97,23.993-25.889c1.437-3.12-1.942-5.303-4.569-3.396
		c1.129-2.048,1.321-5.436-2.05-5.816c0.665-2.285-1.022-6.559-3.919-5.231c0.571-2.134-1.874-4.942-3.995-4.136
		c0.573-1.144-0.649-8.342-4.609-6.087c0.104-2.39-3.095-6.572-5.981-5.228c0.114-2.298-0.51-5.152-4.375-5.584
		c-2.27,0-3.136,3.419-4.136,7.379c-1.97,7.432-6.332,14.551-10.979,20.695c-4.551-2.303-12.216,4.15-8.534,8.351
		c-3.431,3.028-12.391,5.301-21.138,5.903c-0.011-14.564-0.028-22.265,0.024-27.069h-44.111c6.25-4.493,27.086-19.514,33.053-23.614
		c0.182,0.318,3.8,5.35,5.6,7.684c1.658-1.144,4.759-3.238,5.97-4.119c0.789,1.104,1.914,2.73,3.027,4.376
		c-1.183,0.833-4.749,3.345-5.872,4.138c1.699,2.354,9.287,12.865,10.986,15.223c1.962-1.381,5.284-3.721,7.244-5.102
		c-0.79-1.093-4.626-6.406-5.494-7.608l4.869-3.429c0.892,1.234,4.681,6.484,5.491,7.607c2.266-1.594,8.172-5.754,10.436-7.349
		c-1.694-2.357-6.173-8.741-8.729-12.019c-1.073,0.755-4.512,3.176-5.638,3.97l-3.944-5.465c2.07-1.481,3.866-2.726,5.721-3.95
		c-0.799-1.107-3.206-4.439-4.04-5.596c2.347-1.65,4.395-3.094,5.757-4.055c1.145,1.737,2.771,3.803,4.233,5.399
		c1.896-1.339,5.09-3.594,6.067-4.282c1,1.395,2.485,3.465,3.939,5.456c-1.204,0.849-5.087,3.585-6.223,4.383
		c1.673,2.317,7.021,9.727,8.696,12.045c2.293-1.617,8.666-6.106,10.961-7.724c-0.78-1.091-4.602-6.428-5.463-7.629l3.991-2.809
		c0.979,1.321,4.817,6.486,5.722,7.703l7.532-5.424c-1.749-2.422-9.301-12.884-11.055-15.314c-1.119,0.787-5.737,4.04-6.941,4.89
		l-3.142-4.352c1.232-0.867,5.798-4.085,6.941-4.89c-0.787-1.092-4.668-6.466-5.535-7.666c1.133-0.832,3.222-1.821,2.683-3.584
		c-0.31-1.415-5.021-7.436-6.429-7.875c-0.874-0.363-1.797,0.234-1.823,0.285l-82.163,57.991
		c-0.586-3.344-1.986-11.791-2.896-17.515h17.874c1.307,0,2.366-1.049,2.366-2.337c0.315-2.065-1.133-3.522-3.229-3.207v-1.665
		c3.484-0.267,3.482-5.59,0-5.854v-14.327c-0.451,0.797-1.494,2.646-1.984,3.503c-0.182-2.103-0.637-4.626-1.172-6.532
		c3.649,0.756,4.3-5.449,0.685-5.543c-0.664,0.01-3.083-0.008-3.704,0v-1.345c3.883,0.054,3.881-5.968,0-5.914V77.003
		c-1.231,2.051-2.124,3.906-3.425,6.319c-0.766-3.41-1.949-6.646-3.524-9.659c1.646-0.105,2.375-1.718,2.169-3.188
		c0.046-2.772-3.434-2.351-5.311-2.331c-0.006,0-0.012,0-0.016,0c3.235-0.271,3.513-5.152,0.339-5.777
		c-0.021-0.25-0.032-10.057-0.032-10.057c-1.09,1.919-2.04,3.747-3.168,5.883c-3.274-6.608-16.558-19.199-28.951-21.372
		c-0.201-3.021-1.973-5.19-3.188-5.572V30.9v-7.639h5.119v-6.318h-5.119v-5.545h-7.722v5.545h-5.119v6.318h5.119V30.9v0.349
		c-1.177,0.468-2.813,2.271-3.16,5.4c-10.258,1.95-20.72,9.537-28.912,21.675c-1.097-2.049-1.884-3.651-2.945-5.424v9.402
		c-3.372,0.384-3.3,5.555,0.082,5.842c-0.025,0-2.467,0-2.562,0c-0.767,0-2.769,0.479-2.831,2.331
		c-0.215,1.503,0.563,3.147,2.258,3.196c-0.346,0.868-2.635,6.202-3.604,9.678c-1.309-2.426-2.198-4.286-3.434-6.348V88.39
		c-4.492-0.733-4.491,6.551,0,5.818V95.6c-0.607-0.011-3.053,0.007-3.707,0c-3.615,0.093-2.962,6.299,0.688,5.544
		c-0.541,1.93-1.002,4.469-1.178,6.595c-0.381-0.79-1.564-2.819-1.979-3.563v14.327c-4.324-0.562-4.323,6.408,0,5.846v1.671
		c-2.098-0.313-3.549,1.141-3.23,3.207c0,1.288,1.061,2.336,2.363,2.336h17.557c-0.785,5.539-2.06,14.076-2.662,17.516
		L126.85,91.083c-0.028-0.049-0.951-0.647-1.826-0.284c-1.406,0.44-6.118,6.459-6.427,7.874c-0.532,1.764,1.54,2.754,2.682,3.584
		c-0.893,1.235-4.727,6.545-5.535,7.668c1.118,0.787,5.736,4.041,6.94,4.889l-3.14,4.352c-1.233-0.869-5.799-4.085-6.941-4.89
		c-1.756,2.432-9.307,12.892-11.058,15.315l7.534,5.424c0.883-1.188,4.766-6.414,5.723-7.703l3.988,2.809
		c-0.883,1.233-4.659,6.507-5.463,7.629c2.295,1.616,8.669,6.105,10.963,7.723c1.674-2.317,7.021-9.727,8.695-12.046
		c-1.114-0.784-5.039-3.548-6.221-4.381c1.451-1.992,2.939-4.063,3.936-5.456c0.973,0.684,4.178,2.946,6.072,4.282
		c1.459-1.599,3.085-3.662,4.232-5.401c1.361,0.963,3.41,2.404,5.756,4.055c-0.848,1.174-3.23,4.473-4.041,5.597
		c1.856,1.225,3.654,2.468,5.723,3.951l-3.944,5.465c-1.147-0.807-4.548-3.204-5.638-3.972c-2.565,3.289-7.027,9.649-8.73,12.019
		c2.264,1.597,8.169,5.756,10.436,7.351c0.787-1.094,4.624-6.407,5.49-7.608l4.87,3.43c-0.893,1.235-4.683,6.485-5.493,7.608
		c1.959,1.381,5.281,3.721,7.242,5.1c1.699-2.354,9.287-12.866,10.988-15.222c-1.105-0.78-4.71-3.317-5.873-4.137
		c1.114-1.646,1.779-2.613,2.571-3.716c1.21,0.881,4.228,2.851,5.888,3.992c1.814-2.354,5.937-7.87,6.138-8.217l32.636,22.931
		c0.16,0.108,0.742,0.487,0.811,0.684h-44.506c0.055,4.774,0.037,12.425,0.025,26.877c-8.922-0.564-19.162-2.659-22.62-5.711
		c3.683-4.2-3.981-10.653-8.532-8.351c-4.65-6.149-9.01-13.262-10.979-20.695c-1.003-3.96-1.867-7.379-4.139-7.379
		c-3.862,0.434-4.488,3.285-4.373,5.584c-2.891-1.341-6.082,2.834-5.982,5.228c-3.962-2.257-5.184,4.947-4.609,6.087
		c-2.122-0.807-4.566,2.002-3.995,4.136c-2.897-1.327-4.583,2.946-3.919,5.231c-3.371,0.387-3.178,3.766-2.051,5.816
		c-2.621-1.898-6.008,0.271-4.568,3.396c4.144,8.934,16.476,19.615,23.996,25.887c-1.441,6.862,6.943,10.738,11.291,3.355
		c13.254,6.378,26.182,7.618,40.449,5.566c-0.008,7.793-0.014,15.834-0.016,23.759c-4.457,3.128-12.204,8.499-13.654,9.563
		c-6.325-5.63-16.737-0.859-12.889,7.747c-3.563,0.164-18.423,0.98-24.189,0.943c-0.941-20.095-32.49,10.252-12.875,12.539
		c-0.793,6.361-4.123,23.123-4.644,25.551c-5.187-3.393-13.065,1.813-11.472,7.9c1.222,4.973,11.939,15.623,17.345,15.627
		c4.419,0.211,8.796-5.467,6.739-9.654c1.341-0.436,5.832-1.174,6.05-1.219c10.237,17.422,49.097,35.793,66.921,46.885
		c1.396,0.555,3.727,1.039,4.51-0.674c1.951-2.391,6.043-5.412,3.309-8.773c1.961-0.994,3.25-3.951,2.41-5.625
		c2.523-1.258,2.64-3.215,1.384-5.555c0.928-0.705,2.104-2.412,0.909-3.604c-0.52-0.615-1.105-1.451-1.984-1.529
		c-4.59-0.715-9.142-1.748-13.545-2.746c-7.741-1.758-15.742-3.572-24.18-3.711c-1.346-0.613-3.124-1.65-5.24-3.033l0.01-0.033
		c-3.332-2.074-7-4.852-11.528-8.342c8.753,3.98,24.659-16.707,10.487-18.672l0.482-3.031c3.636,2.164,12.556,1.346,17.232-0.805
		c9.691,32.271,27.091,36.947,87.186,67.459c60.218-30.617,77.345-35.018,87.189-67.451c4.65,2.148,13.611,2.955,17.212,0.797
		l0.484,3.031c-14.172,1.965,1.73,22.652,10.488,18.672c-4.533,3.49-8.198,6.268-11.533,8.342l0.012,0.033
		c-2.114,1.383-3.894,2.42-5.24,3.033c-8.436,0.139-16.438,1.953-24.179,3.711c-4.403,0.998-8.955,2.031-13.544,2.746
		c-0.876,0.076-1.476,0.916-1.984,1.529c-1.18,1.184-0.04,2.91,0.909,3.604c-1.26,2.342-1.138,4.299,1.382,5.555
		c-0.84,1.674,0.448,4.631,2.41,5.625c-2.711,3.355,1.338,6.389,3.31,8.773c0.783,1.713,3.112,1.23,4.509,0.672
		c17.81-11.084,56.671-29.449,66.919-46.885c0.221,0.047,4.711,0.785,6.053,1.221c-2.097,4.311,2.507,10.094,7.066,9.646
		C408.151,319.053,423.434,306.531,417.133,298.846 M114.924,147.777c1.911-0.42,2.985,6.93,3.896,9.327
		c2.418,6.344,6.396,13.226,10.486,18.383C128.45,185.318,103.138,149.41,114.924,147.777 M109.273,153.095
		c1.018-0.493,0.861,0.043,1.874,3.156c3.104,8.576,12.12,20.923,14.921,22.855c0.284,0.928-1.096,2.945-1.651,2.924
		c-6.726-3.815-14.544-16.399-15.366-17.77C107.781,162.324,102.685,156.286,109.273,153.095 M102.738,158.351
		c0.506-0.162,1.402-0.642,2.416,1.464c1.227,2.548,5.852,10.588,10.046,15.509c1.925,2.26,4.964,6.098,6.865,7.691
		c1.753,1.472,1.37,1.906,0.646,3.064c-1.692,1.934-2.817,0.022-3.943-0.834c-5.076-4.831-9.761-7.486-17.23-20.814
		C100.154,161.966,102.404,158.139,102.738,158.351 M99.722,164.64c9.566,14.154,9.221,14.615,20.638,24.134
		c1.245,0.937-1.001,3.291-2.786,2.057c-2.342-1.53-13.047-11.847-17.658-19.079C97.519,167.996,96.474,165.083,99.722,164.64
		 M94.748,168.564c1.46-0.306,2.456,1.994,3.034,2.865c7.906,11.887,9.731,12.787,19.148,22.049
		c0.57,7.972-15.226-9.736-16.147-11.088c-0.342-0.256-4.633-5.262-6.882-8.996C92.903,171.738,93.218,169.862,94.748,168.564
		 M91.331,174.401c1.322-0.769,1.334-0.216,1.581,0.113c5.433,7.224,9.626,12.618,16.303,18.908c0.567,0.534,6.18,4.813,5.05,5.843
		c-0.982,1.705-2.845,0.469-3.732-0.133C106.435,195.785,87.973,179.913,91.331,174.401 M110.479,206.177
		c-4.554-1.435-26.073-22.453-23.331-26.829c0.595-0.61,2.402,0.049,3.02,0.853c4.006,5.222,7.531,9.882,12.514,14.373
		C105.29,197.656,114.657,202.307,110.479,206.177 M119.388,209.771c-4.568,7.349-9.961,1.282-7.191-2.767
		c2.92-4.269,18.696-30.288,18.696-30.288c1.411-2.004,7.647,1.459,6.587,4.367l-16.084,25.162
		C121.396,206.246,119.811,209.091,119.388,209.771 M161.162,214.769c-13.665,2.106-27.082,0.645-39.228-5.28
		c-0.473,0.302,15.289-24.136,15.688-24.804c4.771,3.858,16.72,5.566,23.729,6.016C161.459,197.578,160.851,210.105,161.162,214.769
		 M161.31,256.748c0.018,7.072-0.008,13.539,0.049,19.875c-3.557,2.861-10.448,2.4-14.08,1.287l0.844-6.705
		c7.148,2.881,13.77-5.508,8.834-11.641C156.659,259.643,159.198,258.031,161.31,256.748 M161.1,243.66l-0.093,9.743
		c0,0.27-3.599,2.432-5.697,3.92c-1.834-2.252-3.594-3.82-5.791-5.678C152.87,249.234,157.589,246.177,161.1,243.66
		 M139.228,250.035c6.27-1.856,14.316,7.979,16.916,12.432c1.328,4.111-1.502,7.141-5.081,7.141
		c-4.016,0.516-10.825-8.102-13.356-10.629C135.759,256.08,135.251,251.199,139.228,250.035 M111.013,293.979
		c-0.256,0.783-0.438,1.566-0.588,2.352l-4.129,0.604c0.645-5.023,2.736-16.662,4.449-25.609l24.111-0.721
		c-0.303,1.857-0.648,7.123-0.787,7.15C118.408,280.813,112.887,288.266,111.013,293.979 M132.421,286.102
		c-1.573-0.982-4.508-2.621-2.6-5.135c1.451-0.426,2.609-0.902,4.273-1.23c-0.189,1.047-0.959,7.5-1.305,9.416
		c-0.008,0.004-0.012,0.006-0.021,0.008C133.146,287.475,132.836,286.592,132.421,286.102 M123.152,291.725
		c-2.938-0.125-5.402,0.096-6.209-3.502c0.795-0.842,1.697-1.652,2.725-2.416c0.279,6.404,7.129,0.346,6.398,6.197
		c-0.277,0.197-0.681,0.508-1.128,0.938C124.492,292.441,123.914,291.969,123.152,291.725 M123.651,294.461
		c-0.536,0.746-1.07,1.809-1.337,2.762c-2.694-3.002-6.725,1.191-9.554-1.506c0.451-1.768,1.208-3.5,2.312-5.146
		C117.933,294.32,121.191,292.029,123.651,294.461 M127.047,283.486c1.192,3.904,4.47,2.096,3.837,6.291
		c-0.803,0.281-1.758,0.65-2.736,1.107c0.141-6.436-6.936-1.352-6.885-6.174c1.721-1.082,3.709-2.064,6.02-2.908
		C126.961,282.609,127.006,283.234,127.047,283.486 M132.366,291.525c-0.2,1.113-0.379,2.139-0.531,3.016
		c-2.238,0.182-4.738,0.492-6.402,0.715C126.275,294.258,128.173,292.914,132.366,291.525 M112.368,297.777
		c3.283,2.652,7.469-1.76,9.544,2.248c0.021,1.027,0.069,1.428,0.238,2.164c-3.603-2.484-6.269,2.277-9.835-0.377
		C112.191,300.473,112.197,299.125,112.368,297.777 M114.041,308.432c-0.543-1.254-0.978-2.563-1.288-3.906
		c3.754,1.99,5.897-2.24,9.875-0.668c0.426,1.102,0.985,2.021,1.543,2.76C118.437,305.316,117.466,309.672,114.041,308.432
		 M117.726,314.285c-0.772-0.896-1.502-1.852-2.147-2.9c4.987-0.967,4.317-3.854,10.263-2.934c0.685,0.58,1.386,1.332,2.429,2.133
		C120.337,310.223,122.159,315.852,117.726,314.285 M128.247,307.771l3.441-0.629c0.265,2.1,0.693,3.52,1.923,4.842
		C132.21,310.943,128.347,307.887,128.247,307.771 M119.933,316.543c1.523,0.023,3.725-1.967,4.234-3.115
		c0.333-1.383,6.949-1.92,9.012,0.928c-5.682-0.172-5.457,3.689-10.713,4.344C121.702,318.078,120.782,317.309,119.933,316.543
		 M142.495,332.813c3.248-3.814,4.264-1.707,7.332-2.996c-0.53,2.709-4.766,3.096-6.071,3.791
		C143.337,333.34,142.913,333.082,142.495,332.813 M188.839,332.783l0.673,0.797c-0.385,0.283-0.666,0.563-0.879,0.832
		l-17.679-0.855l17.246,2.936c1.059,2.293,0.995,2.143-1.223,3.637l-17.572-2.453l17.485,4.656c0.739,1.848-2.507,3.215-3.001,4.137
		l-15.732-5.908l16.926,8.482c0.461,1.164-0.41,1.848-1.239,2.797l-15.477-7.961l13.896,9.563c-0.438,0.475-0.823,0.947-1.054,1.422
		c-6.992-2.504-13.213-7.455-19.936-10.814c2.352-2.764,8.521-11.035,7.651-15.398C175.497,330.035,182.027,331.723,188.839,332.783
		 M166.659,328.178c1.023,4.225-5.121,11.99-7.512,14.646c-0.848-0.488-1.695-0.975-2.542-1.465
		c2.448-2.561,8.337-9.664,7.862-13.578C165.2,327.914,165.933,328.033,166.659,328.178 M161.919,327.338
		c0.742,3.516-5.311,10.201-7.746,12.609c-0.994-0.584-1.973-1.189-2.961-1.783c2.732-1.84,8.398-7.207,7.799-11.221
		C159.983,327.064,160.953,327.188,161.919,327.338 M152.14,330.906c1.003-2.529,1.111-3.328,1.072-4.484
		c1.097,0.049,2.176,0.154,3.258,0.252c0.697,3.627-4.838,8.424-7.659,10.045c-0.896-0.543-1.802-1.07-2.689-1.621
		C147.16,334.15,151.063,333.621,152.14,330.906 M150.714,326.223c-2.658,3.787-7.546,1.146-10.15,5.334
		c-0.404-0.264-0.803-0.541-1.206-0.809c3.909-2.447,4.159-5.328,9.622-5.393C149.596,325.691,150.179,325.986,150.714,326.223
		 M145.251,323.121c0.471,0.305,0.928,0.592,1.379,0.869c-4.391,0.695-5.248,4.057-9.116,5.516c-0.485-0.33-0.981-0.65-1.466-0.984
		C140.894,327.41,138.863,321.605,145.251,323.121 M138.851,318.66c1.047,0.77,2.095,1.521,3.138,2.254
		c-5.351,1.223-2.708,5.613-8.386,5.893c-1.241-0.887-2.744-1.967-4.355-3.125C135.476,323.256,133.068,318.352,138.851,318.66
		 M134.973,315.744c0.468,0.359,0.952,0.727,1.435,1.092c-4.986,0.859-2.641,5.326-9.624,5.076
		c-0.642-0.459-1.282-0.918-1.916-1.373c2.247-0.35,3.169-2.828,4.794-3.426C130.781,316.98,133.552,316.221,134.973,315.744
		 M142.572,296.617c17.885-2.791-9.258,27.451-8.842,8.404l-7.173,1.098c-1.563-1.965-2.905-5.896-1.864-8.617
		c1.75-0.248,6.559-0.898,8.982-0.939c0.943-5.84,3.574-28.178,3.574-28.178l-28.307,0.949c0,0-5.249,27.146-4.982,30.084l6.17-0.9
		c-0.211,2.889,0.018,6.34,0.877,9.002c-2.266,0.527-5.883,0.934-8.402,1.555c3.361,2.771,0.533,9.244-3.676,9.244
		c-4.375-0.029-14.256-9.91-15.251-13.979c-0.897-6.432,6.711-7.963,10.854-4.166c1.86-10.035,4.546-22.115,5.177-30.865
		c-18.402,0.943,9.891-27.163,9.111-8.76l26.037-0.826l11.154,10.881C146.011,270.604,143.415,290.332,142.572,296.617
		 M150.447,288.619c-0.145,0.416-0.379,1.029-0.904,1.473c-1.637-0.271-2.707-0.781-3.674-1.033
		c0.738-4.848,0.969-7.256,1.182-9.141c1.105,0.217,1.367,0.139,2.435,0.332C147.052,285.234,151.863,284.871,150.447,288.619
		 M155.495,290.195c-1.258,0.283-2.525,0.291-3.824,0.176c3.194-6.447-2.274-4.402-0.262-9.787c0.779,0.129,1.5,0.232,2.133,0.303
		c0.735,7.01,3.606,3.525,5.5,8.391C157.825,289.625,156.594,289.945,155.495,290.195 M161.102,288.66
		c-1.583-5.344-5.677-3.057-5.368-7.674c3.712-0.723,5.012-1.789,5.617-2.18c0.157,2.254,0.173,5.432,0.848,9.531
		C162.198,288.338,161.284,288.791,161.102,288.66 M381.654,109.616l-6.916,4.926l5.581,7.646l6.915-4.926l8.65,11.855
		c0,0-2.844,2.035-4.232,3.016l-5.638-7.506l-7.298,5.195l5.504,7.603l-7.577,5.394l-6.34-8.688l6.206-4.42
		c-2.829-3.81-6.379-8.744-6.379-8.744s-1.015,0.713-6.21,4.42c-1.824-2.066-4.039-5.536-4.039-5.536s-4.146,2.96-9.16,6.521
		l4.042,5.536c-1.657,1.121-5.663,4.033-5.663,4.033l6.38,8.744l5.663-4.032c1.204,1.558,6.342,8.69,6.342,8.69l-7.054,5.02
		l-5.533-7.579l-8.202,5.841l5.531,7.581l-3.861,2.751l-9.108-12.307l5.797-4.129c0,0-4.644-7.102-5.061-7.24
		c-2.256,1.696-2.013,1.507-5.86,4.173c-2.724-3.583-4.483-6.144-4.483-6.144c1.184-0.846,3.095-2.211,5.484-3.92
		c5.773-4.127,14.353-10.268,22.344-15.971c4.983-3.554,9.735-6.938,13.434-9.557c2.818-1.996,5.025-3.549,6.255-4.396
		L381.654,109.616z M374.517,92.745c0,0,4.674,5.547,4.94,6.767c0.095,0.434-88.622,62.268-88.622,62.268h-14.1L374.517,92.745z
		 M289.259,149.917l-15.953,11.646h-6.983c-1.515-11.344-3.021-18.981-2.582-30h22.53
		C286.832,135.268,288.255,145.014,289.259,149.917 M238.589,131.562h22.987c-0.519,9.95,1.298,19.282,2.325,30.218h-27.641
		C237.291,150.833,239.109,141.523,238.589,131.562 M245.714,33.762c0.272-0.532,0.967-1.212,2.002-1.212c0.141,0,4.812,0,4.963,0
		c1.104,0,1.817,1.15,1.871,1.233c0.002,0,0.002,0,0.002,0.001c0.323,0.58,0.61,1.422,0.862,2.643c0,0-5.456-0.961-10.578,0
		C244.825,36.429,245.41,34.35,245.714,33.762 M216.343,58.472c20.074-29.562,50.423-25.578,68.28,0.999
		c-2.911,5.403-3.671-0.221-5.775-2.63c-1.049,1.375-1.704,4.498-3.58,5.018c-2.525-2.241-4.042-7.151-5.922-9.891
		c-1.936,2.711-3.342,7.833-6.037,9.899c-1.466-0.786-2.531-3.696-3.552-5.057c-1.012,1.358-2.082,4.267-3.544,5.056
		c-2.698-2.064-4.097-7.185-6.039-9.889c-1.876,2.719-3.4,7.625-5.899,9.852c-1.793-0.402-2.512-3.705-3.768-4.988
		c-1.05,1.375-1.704,4.496-3.582,5.018c-2.525-2.241-4.04-7.152-5.922-9.891c-1.934,2.712-3.34,7.833-6.035,9.899
		c-1.467-0.788-2.531-3.696-3.549-5.057c-0.823,1.365-2.158,3.695-3.145,4.911c-1.221,0.605-1.891-1.613-2.615-2.323
		C215.781,59.113,216.343,58.472,216.343,58.472 M212.437,68.122c2.709-0.581,3.004-4.733,0.354-5.647l-0.058-4.495
		c0.302,0.544,0.603,1.11,0.907,1.669c0.246,0.453,0.495,0.904,0.747,1.336c0.282,0.483,0.569,0.944,0.86,1.36
		c1.273,1.817,2.648,2.772,4.289,1.136c0.578-0.576,1.186-1.465,1.832-2.756c0.673,1.387,1.315,2.311,1.93,2.874
		c1.535,1.412,2.896,0.543,4.125-1.148c0.9-1.236,1.73-2.908,2.51-4.446c0.025-0.053,0.054-0.107,0.081-0.161
		c0.293-0.577,0.577-1.13,0.857-1.632c0.028-0.053,0.058-0.105,0.085-0.156l0,0c2.219,3.969,5.445,13.218,9.627,4.839
		c2.072,4.496,5.066,4.41,6.836,0.155c0.904-1.553,1.864-3.392,2.705-5c2.355,4.144,5.436,13.31,9.586,4.676
		c4.145,8.545,7.11-0.297,9.588-4.67c2.195,3.91,5.551,13.408,9.6,4.743c2.528,5.411,4.807,3.655,6.683,0.664
		c0.339-0.54,0.666-1.12,0.978-1.706c0.493-0.928,0.952-1.865,1.37-2.68v5.275c-3.176,0.637-2.871,5.559,0.365,5.793
		c-0.024,0.001-0.157,0-0.365,0c-0.261,0.001-17.57-0.002-18.199,0c3.638-0.316,3.354-5.955-0.334-5.885
		c-3.689-0.07-3.971,5.568-0.331,5.885H250.49c3.64-0.316,3.355-5.955-0.332-5.885c-3.688-0.07-3.971,5.568-0.331,5.885h-18.573
		c3.639-0.316,3.355-5.955-0.333-5.885c-3.688-0.07-3.97,5.568-0.331,5.885h-18.268h-0.283
		C212.271,68.144,212.4,68.13,212.437,68.122 M207.479,70.911c0-1.272,1.376-1.182,1.732-1.182h82.738c1.17,0,1.05,2.361,0,2.361
		c-0.841,0-81.196,0.002-82.614,0C208.672,72.09,207.479,72.089,207.479,70.911 M209.861,74.679
		c0.102-0.286,0.233-0.589,0.443-0.998h79.674c1.016,0.527,4.334,10.898,4.334,10.898s-1.354,2.15-2.368,3.396
		c-0.307,0.54-1.354,0.716-1.789,0.288c-1.184-1.498-2.798-4.328-3.764-5.971c-1.14,1.483-2.735,5.756-4.495,6.271
		c-2.829-1.329-5.665-9.827-7.614-12.495c-1.929,3.356-4.332,8.644-6.592,11.957c-2.378,2.361-4.376-4.405-5.439-5.7
		c-1.543,1.634-2.397,5.891-4.765,6.188c-0.35-0.048-0.654-0.235-0.854-0.522c-2.227-3.303-4.642-8.471-6.507-11.877
		c-1.859,3.4-4.282,8.58-6.505,11.877c-0.2,0.289-0.502,0.475-0.854,0.521c-2.367-0.293-3.221-4.556-4.768-6.188
		c-1.032,1.243-3.059,8.067-5.438,5.7c-2.26-3.319-4.66-8.595-6.591-11.957c-1.95,2.67-4.782,11.157-7.615,12.495
		c-1.756-0.51-3.354-4.791-4.495-6.271c-2.916,4.604-4.516,10.181-7.504,1.914C207.097,81.205,209.833,74.747,209.861,74.679
		 M202.515,93.81c0.475-0.257,2.317-2.594,0.232-4.882l-0.202-6.864c0.368,0.663,0.735,1.356,1.105,2.05
		c0.921,1.728,1.854,3.452,2.843,4.71c1.445,1.842,3.006,2.671,4.813,1.013c0.79-0.725,1.625-1.918,2.52-3.715
		c0.861,1.77,1.676,2.957,2.449,3.688c1.844,1.739,3.456,0.864,4.918-1.041c1.037-1.353,1.999-3.22,2.91-5.044
		c0.633-1.265,1.239-2.504,1.832-3.531c0.387,0.675,0.791,1.475,1.217,2.324c0.982,1.963,2.075,4.201,3.279,5.85
		c1.377,1.885,2.902,2.979,4.574,1.994c0.105-0.066,0.217-0.129,0.313-0.209c0.004-0.002,0.007-0.006,0.01-0.01
		c0.879-0.653,1.799-1.883,2.758-3.9c0.893,1.932,1.755,3.141,2.591,3.811c0.316,0.254,0.626,0.434,0.934,0.54
		c0.022,0.008,0.046,0.019,0.068,0.025c1.49,0.464,2.878-0.704,4.15-2.495c1.214-1.71,2.321-3.982,3.312-5.961
		c0.342-0.686,0.672-1.338,0.985-1.914c0.412,0.738,0.838,1.591,1.282,2.482c0.966,1.927,2.014,4.039,3.154,5.61
		c1.527,2.104,3.219,3.222,5.085,1.607c0.802-0.693,1.638-1.884,2.507-3.731c1.071,2.171,2.074,3.445,3.018,4.068
		c1.659,1.092,3.13,0.148,4.462-1.613c1.099-1.454,2.099-3.455,3.029-5.322c0.576-1.16,1.127-2.268,1.653-3.156
		c0.343,0.625,0.7,1.339,1.075,2.092c0.991,1.984,2.098,4.244,3.309,5.934c1.271,1.768,2.655,2.91,4.14,2.426
		c0.004,0,0.004-0.002,0.005-0.002c0.271-0.088,0.544-0.234,0.82-0.436c0.02-0.014,0.036-0.022,0.053-0.036
		c0.034-0.024,0.067-0.058,0.1-0.085c0.85-0.682,1.731-1.924,2.643-3.913c0.813,1.696,1.585,2.841,2.327,3.566
		c0.59,0.577,1.161,0.886,1.71,0.969c0.033,0.005,0.065,0.013,0.098,0.017c1.188,0.122,2.283-0.775,3.317-2.144
		c1.137-1.508,2.194-3.587,3.203-5.515c0.216-0.406,0.425-0.807,0.635-1.191l0.037,6.596c-0.698,0.23-0.962,0.773-1.271,1.344
		c-0.489,0.906-0.489,2.063,0.002,2.967c0.309,0.57,0.57,1.063,1.269,1.293v1.413c-7.951-0.054-87.225-0.063-95.271-0.022V93.81
		L202.515,93.81z M197.45,99.55c-0.449-0.001-0.701-0.377-0.729-0.637c-0.027-0.262-0.039-0.762-0.025-0.975
		c0-0.001,0-0.002,0-0.005c0,0,0,0,0-0.001c0-0.1,0-0.743,0.867-0.743h102.011c0.481-0.002,1.221,0,1.917,0c0.496,0,0.97,0,1.309,0
		l0,0c0.107-0.004,0.198,0.021,0.283,0.058c0.008,0.002,0.012,0.004,0.018,0.007c0.07,0.032,0.134,0.072,0.187,0.124
		c0.096,0.091,0.169,0.208,0.223,0.344c0.131,0.331,0.139,0.762,0.036,1.122c-0.074,0.262-0.206,0.485-0.39,0.608
		c-0.008,0.004-0.014,0.01-0.02,0.012c-0.026,0.016-0.056,0.025-0.084,0.037c-0.08,0.033-0.161,0.053-0.253,0.049h-0.002
		c-0.646,0-1.417,0-2.16,0c-0.449,0-0.884,0-1.271,0C299.367,99.55,197.831,99.554,197.45,99.55 M290.435,111.506
		c-0.006,0.002-0.014,0.011-0.021,0.015l-0.012-0.015l-0.018,0.035c-0.165,0.152-0.986,1.833-1.063,1.983
		c-0.049,0.096-0.055,0.123,0.006,0.017c-0.598,1.221-2.951,6.811-4.858,4.214c-0.288-0.425-0.711-0.771-1.004-1.247
		c-0.05-0.081-0.101-0.161-0.149-0.244c-0.004-0.005-0.006-0.011-0.011-0.017c-0.686-1.134-1.375-2.382-2.059-3.664
		c-0.873-1.641-1.731-3.33-2.548-4.896c-0.432-0.825-0.852-1.616-1.256-2.347c-0.153-0.278-0.306-0.55-0.455-0.81
		c-0.741,1.012-1.662,2.938-2.675,5.045c-1.232,2.568-4.859,9.553-5.818,8.889c0,0.001,0,0.001-0.002,0.002
		c0-0.001,0-0.001-0.002-0.001c-1.045-0.1-2.813-3.165-3.511-4.448c-0.514-0.941-0.985-1.808-1.393-2.366l-0.105-0.179l-0.106,0.18
		c-0.406,0.557-0.875,1.421-1.386,2.356c-0.7,1.282-1.48,2.68-2.286,3.571c-0.407,0.453-0.821,0.779-1.233,0.885h-0.002
		c0,0-0.002,0-0.002-0.002c-0.572-0.193-1.207-0.818-1.866-1.708c-1.389-1.875-2.889-4.923-4.157-7.583
		c-0.944-1.978-1.763-3.74-2.316-4.641c-0.544,0.885-1.361,2.644-2.307,4.623c-1.274,2.664-2.781,5.728-4.171,7.605
		c-0.66,0.893-1.293,1.518-1.862,1.703c0,0-0.002,0-0.003,0l0,0c-0.412-0.103-0.824-0.428-1.23-0.878
		c-0.805-0.89-1.584-2.286-2.285-3.568c-0.514-0.942-0.982-1.808-1.391-2.365l-0.105-0.18l-0.106,0.18
		c-0.405,0.558-0.876,1.422-1.386,2.358c-0.701,1.282-1.48,2.679-2.285,3.572c-0.406,0.451-0.82,0.779-1.232,0.883
		c0,0-0.001,0-0.002,0h-0.001c-1.757-0.253-4.686-6.533-5.938-9.119c-0.693-1.43-1.352-2.764-1.968-3.77l-0.588-1.046l-0.058,0.102
		c-0.025-0.034-0.051-0.069-0.077-0.102c-0.444,0.896-0.942,1.901-1.475,2.96c-1.087,2.162-2.317,4.551-3.546,6.735
		c-0.744,1.321-1.487,2.571-2.195,3.64c-0.816,0.965-1.695,0.615-2.529-0.289c-0.699-0.949-1.735-2.761-2.506-4.159
		c-0.51-1.054-0.879-1.866-1.029-1.912c-0.112,0.054-0.313,0.386-0.576,0.875l-0.418,0.633c-0.148,0.228-0.348,0.595-0.623,1.103
		c-0.18,0.331-1.654,2.76-2.045,3.3c-0.457,0.5-0.924,0.845-1.38,0.933c-0.187,0.035-0.368,0.033-0.55-0.025
		c-0.232-0.074-0.459-0.233-0.68-0.496c0-0.002-0.002-0.002-0.002-0.002c-1.537-2.021-2.672-3.702-3.42-5.334
		c-0.668-1.453-1.027-2.871-1.066-4.45c-0.045-1.93,0.375-4.103,1.277-6.899h99.516c0.071,0.238,0.14,0.492,0.207,0.746
		c0.059,0.215,0.116,0.433,0.169,0.656c0.024,0.098,0.047,0.197,0.071,0.297c0.045,0.191,0.09,0.381,0.133,0.576
		c0.217,1.005,0.397,2.063,0.536,3.127c0.025,0.189,0.05,0.38,0.072,0.57c0.022,0.193,0.042,0.385,0.062,0.576
		c0.038,0.389,0.069,0.773,0.095,1.155c0.003,0.035,0.007,0.069,0.009,0.104c0.031,0.491,0.052,0.984,0.063,1.477
		c0,0.001,0,0.002,0,0.004c-0.214,0.387-0.415,0.758-0.608,1.121c-0.457,0.852-0.912,1.702-1.382,2.547
		c-0.024,0.039-1.194,2.113-1.551,2.695c-0.337,0.494-0.652,0.875-0.965,1.146c-0.275,0.186-0.592,0.355-0.751,0.388
		c-0.159,0.027-0.318,0.041-0.481,0.048c-0.653-0.109-1.369-0.755-2.258-2.012c-0.753-1.066-1.634-2.575-2.715-4.578l0.363,0.555
		C290.664,111.877,290.435,111.506,290.435,111.506 M196.591,126.018v-2.378c0.12-0.094,0.214-0.205,0.313-0.316
		c0.085-0.098,0.162-0.197,0.23-0.304c0.063-0.097,0.124-0.192,0.175-0.296c0.018-0.041,0.04-0.08,0.058-0.122
		c0.311-0.74,0.311-1.614,0-2.354c-0.018-0.043-0.04-0.082-0.058-0.123c-0.05-0.103-0.112-0.2-0.175-0.296
		c-0.068-0.106-0.146-0.206-0.23-0.303c-0.099-0.111-0.192-0.225-0.313-0.316v-8.663c0.382,0.71,0.756,1.442,1.129,2.171
		c1.047,2.055,2.068,4.088,3.145,5.604c1.746,2.463,3.633,3.545,5.988,1.116c0.859-0.89,1.781-2.237,2.785-4.17
		c0.747,1.638,1.469,2.843,2.164,3.689c0.467,0.567,0.92,0.976,1.361,1.243c0.582,0.35,1.142,0.462,1.684,0.382
		c0.985-0.145,1.906-0.915,2.766-2.024c1.294-1.667,2.448-4.094,3.473-6.287c0.75-1.604,1.43-3.082,2.043-4.047
		c0.561,0.861,1.205,2.338,1.942,3.977c0.948,2.106,2.046,4.477,3.312,6.157c1.57,2.085,3.397,3.1,5.508,1.216
		c0.906-0.811,1.866-2.154,2.88-4.182c0.363,0.721,0.968,1.858,1.729,2.894c0.709,0.965,1.553,1.842,2.465,2.208
		c0.638,0.256,1.309,0.259,1.988-0.132c0.02-0.01,0.039-0.024,0.059-0.035c0.133-0.081,0.259-0.182,0.398-0.286
		c3.5-2.666,6.71-11.242,6.716-11.256c0.551,0.867,1.173,2.27,1.875,3.812c0.883,1.942,1.896,4.104,3.052,5.693
		c0.716,0.979,1.484,1.739,2.314,2.097c0.482,0.208,0.986,0.278,1.513,0.176c0.69-0.138,1.415-0.575,2.185-1.398
		c0.764-0.826,1.573-2.039,2.419-3.725c0.764,1.597,1.5,2.766,2.208,3.587c0.726,0.839,1.418,1.315,2.085,1.497
		c0.467,0.13,0.917,0.118,1.355-0.01c0.859-0.248,1.664-0.939,2.419-1.877c1.291-1.602,2.427-3.918,3.409-5.956
		c0.77-1.594,1.445-3.016,2.029-3.79c0.438,0.68,0.97,1.795,1.58,3.076c0.912,1.908,2.004,4.183,3.25,5.922
		c0.97,1.356,2.035,2.387,3.178,2.66c0.011,0.002,0.021,0.006,0.03,0.006c0.003,0,0.007,0,0.009,0.002
		c0.556,0.123,1.131,0.07,1.723-0.213c0.483-0.229,0.977-0.613,1.479-1.175c0.714-0.795,1.447-1.946,2.201-3.535
		c0.754,1.479,1.473,2.569,2.163,3.353c0.588,0.668,1.155,1.104,1.703,1.346c0.598,0.263,1.173,0.295,1.729,0.146
		c1.012-0.273,1.962-1.144,2.87-2.332c1.213-1.585,2.354-3.718,3.475-5.712c0.431-0.766,0.857-1.508,1.283-2.191v8.529
		c-0.614,0.259-1.055,0.716-1.326,1.256c-0.436,0.861-0.436,1.938,0,2.799c0.271,0.539,0.712,0.995,1.326,1.253v1.939v0.194H196.593
		v-0.194H196.591z M194.115,129.97c-0.232,0.004-0.391-0.076-0.505-0.201c-0.151-0.162-0.224-0.403-0.249-0.661
		c-0.026-0.262-0.013-0.538,0-0.751v-0.002c0-0.004,0-0.004,0-0.006c0.006-0.229,0.084-0.386,0.204-0.498
		c0.171-0.158,0.427-0.223,0.699-0.242c0.249-0.02,0.505-0.006,0.716,0h0.001H305.27c0.176-0.006,0.429-0.018,0.684,0
		c0.206,0.014,0.408,0.048,0.574,0.124c0.232,0.106,0.388,0.293,0.361,0.618c0,0,0.002,0,0.002,0.002
		c-0.041,0.359,0.032,0.895-0.119,1.25c-0.098,0.221-0.277,0.371-0.634,0.367c-0.003,0-0.003,0-0.003,0H194.115 M213.895,131.562
		h22.526c0.441,11.019-1.063,18.656-2.58,30h-6.98l-15.953-11.646C211.909,145.011,213.335,135.26,213.895,131.562 M166.032,143.454
		c-3.848-2.666-3.604-2.478-5.86-4.173c-0.417,0.139-5.517,7.691-5.517,7.691l5.797,4.127l-8.65,11.855l-3.863-2.749l5.531-7.581
		l-8.202-5.841l-5.532,7.579l-7.054-5.021c0,0,5.526-7.689,6.731-9.246l5.663,4.032l5.99-8.187c0,0-4.007-2.912-5.663-4.033
		l4.04-5.536c-5.013-3.562-9.158-6.521-9.158-6.521s-2.218,3.47-4.042,5.536c-5.192-3.707-6.207-4.422-6.207-4.422
		s-3.55,4.937-6.381,8.746l6.209,4.42l-6.342,8.688l-7.578-5.395l5.505-7.602l-7.298-5.195l-5.637,7.506
		c-1.391-0.98-4.233-3.016-4.233-3.016l8.651-11.855l6.916,4.926l5.58-7.646l-6.916-4.926l4.488-6.147
		c1.2,0.825,3.411,2.38,6.249,4.392l3.466,2.434l10.188,7.283c8.086,5.769,16.743,11.963,22.444,16.041
		c2.262,1.617,4.059,2.901,5.168,3.692C170.517,137.309,168.755,139.869,166.032,143.454 M121.132,99.384
		c-0.542-0.482,4.655-6.454,5.002-6.563c0.232,0.164,0.511,0.361,0.811,0.572l1.021,0.721c0.039,0.027,0.078,0.055,0.117,0.084
		c0.828,0.584,1.813,1.278,2.932,2.069c2.055,1.45,4.57,3.226,7.446,5.255c0.657,0.464,1.337,0.945,2.03,1.434
		c0.907,0.641,1.842,1.299,2.807,1.98c0.641,0.451,1.291,0.912,1.955,1.38c1.744,1.231,3.563,2.516,5.444,3.842
		c0.858,0.606,1.728,1.22,2.609,1.843c4.172,2.945,8.589,6.063,13.104,9.25c1.216,0.858,2.438,1.721,3.665,2.586
		c5.717,4.036,11.516,8.129,17.092,12.064c0.73,0.518,1.457,1.029,2.18,1.539l1.08,0.762c7.306,5.158,14.104,9.957,19.67,13.884
		c6.896,4.87,11.899,8.401,13.612,9.61l-14.405-0.133L121.132,99.384z M335.467,279.17c-1.063,18.002-7.873,29.4-21.713,40.996
		c-11.566,9.691-62.741,33.93-62.825,33.938c-0.211,0.01-53.504-24.025-65.086-33.863c-13.389-11.375-21.454-24.16-21.501-43.793
		c-0.038-16.838,0.179-32.813,0.179-40.704c8.994-6.542,13.81-9.281,23.162-15.328c4.265-2.759,9.883-5.568,15.441-5.492
		c7.18,0.099,13.587,3.331,18.237,6.523c5.53,3.801,11.12,10.547,18.194,11.182c4.745,0.424,8.832-1.58,12.697-4.093
		c3.429-2.229,6.854-4.721,10.878-5.526c4.775-0.955,9.771,0.646,13.885,3.229c5.657,3.551,7.849,6.546,11.73,9.811
		c2.281,1.92,10.231,6.644,19.378,5.721c4.683-0.473,8.624-2.623,12.876-4.422c4.287-1.813,10.136-1.473,14.7-0.39
		C336.075,237.048,336.091,268.635,335.467,279.17 M334.729,234.06c-4.279-0.84-10.07-0.229-14.304,1.137
		c-2.271,0.73-4.351,1.873-6.494,2.9c-5.13,2.457-12.967,1.672-17.065,0.082c-4.323-1.679-7.19-3.349-10.267-6.275
		c-6.818-6.486-13.87-13.195-25.484-10.701c-3.537,0.758-6.462,2.729-9.291,4.637c-3.875,2.613-7.528,5.086-12.661,4.624
		c-4.014-0.355-8.345-3.88-12.535-7.286c-3.024-2.459-6.151-5.002-9.217-6.389c-10.948-4.957-17.524-5.707-28.014,0.111
		c-2.968,1.646-19.72,12.406-25.156,15.906c0.005-11.41,0.02-22.805,0.031-33.114c0.019-16.481,0.034-29.841,0.01-34.962h171.615
		c-0.024,5.121-0.009,18.48,0.008,34.962c0.014,10.771,0.028,22.729,0.034,34.647C335.531,234.246,335.126,234.138,334.729,234.06
		 M355.491,250.715c6.442-3.352,10.918,2.529,6.947,8.264c-2.558,2.539-9.317,11.129-13.357,10.629
		C335.972,267.52,350.036,253.697,355.491,250.715 M350.624,251.645c-2.195,1.857-3.956,3.426-5.79,5.678
		c-2.099-1.488-5.696-3.65-5.696-3.92l-0.094-9.743C342.555,246.177,347.276,249.234,350.624,251.645 M408.514,180.201
		c0.616-0.804,2.426-1.463,3.02-0.853c4.785,2.108-29.457,38.169-23.741,22.68C394.607,195.798,403.207,188.14,408.514,180.201
		 M407.351,174.401c4.628,4.509-15.108,21.393-19.2,24.731c-0.889,0.602-2.751,1.838-3.733,0.133
		c-1.128-1.03,4.483-5.309,5.051-5.843c6.676-6.288,10.872-11.685,16.303-18.908C406.018,174.185,406.259,173.336,407.351,174.401
		 M403.936,168.564c4.317,3.245-5.738,13.283-6.336,13.884c-0.983,1.03-16.409,18.991-15.851,11.03
		c9.419-9.262,11.244-10.162,19.15-22.049C401.478,170.56,402.473,168.259,403.936,168.564 M398.96,164.64
		c9.497,1.279-14.259,23.838-17.852,26.19c-1.784,1.235-4.03-1.12-2.788-2.057C389.736,179.26,389.399,178.79,398.96,164.64
		 M395.945,158.351c5.77,5.877-9.196,20.402-16.028,26.894c-1.125,0.857-2.252,2.767-3.943,0.835
		c-0.725-1.16-1.107-1.594,0.646-3.065c1.899-1.595,4.938-5.432,6.865-7.69c4.193-4.922,8.817-12.961,10.046-15.509
		C394.542,157.709,395.439,158.189,395.945,158.351 M389.202,153.392c5.732,1.887,1.561,8.586,0.29,10.523
		c-0.354,1.041-12.821,18.17-15.229,18.113c-0.556,0.023-1.935-1.994-1.649-2.92c0.297-0.966,2.949-2.946,3.842-4.059
		C391.497,156.333,387.011,152.669,389.202,153.392 M379.86,157.104c0.914-2.397,1.985-9.746,3.897-9.327
		c2.965,0.65,2.959,2.289,2.965,4.608c0.019,6.941-6.797,16.255-11.415,21.248c-1.735,1.874-5.272,6.19-5.931,1.853
		C373.465,170.33,377.447,163.448,379.86,157.104 M363.083,177.488c0.955-0.922,3.936-2.135,4.71-0.771
		c0,0,15.775,26.02,18.694,30.288c2.979,5.922-4.413,10.547-9.198-0.759l-16.084-25.162
		C360.438,179.123,362.734,177.83,363.083,177.488 M361.063,184.685c0.465,0.775,16.049,24.922,15.687,24.804
		c-11.749,5.741-24.675,7.263-37.907,5.474c-0.009-8.354-0.019-16.337-0.028-24.362
		C345.871,190.054,356.529,188.351,361.063,184.685 M338.823,275.361c0.017-5.77,0.026-12.049,0.032-18.602
		c2.107,1.281,4.628,2.883,4.333,2.805c-4.938,6.135,1.688,14.521,8.832,11.641l0.848,6.705c-2.115,0.715-11.808,1.521-14.083-0.295
		C338.808,276.871,338.822,276.121,338.823,275.361 M339.042,288.66c-0.251-0.053-1.38-0.51-1.38-0.51
		c0.694-3.574,0.841-4.945,1.159-8.121c1.015,0.268,1.477,0.803,5.588,0.957C344.72,285.607,340.645,283.295,339.042,288.66
		 M348.718,284.063c-1.76,2.162-1.661,4.131-0.554,6.307c-3.398-0.074-4.85-0.389-7.369-1.092c1.887-4.859,4.766-1.389,5.496-8.391
		c0.635-0.07,1.355-0.174,2.133-0.303C348.62,281.557,349.489,283.113,348.718,284.063 M350.602,290.092
		c-3.812-4.945,2.787-4.248,0.058-9.842c1.066-0.193,1.329-0.113,2.436-0.332c0.212,1.885,0.442,4.293,1.181,9.141
		C353.311,289.311,352.24,289.82,350.602,290.092 M320.408,354.625l-1.475,0.238c-0.229-0.475-0.614-0.947-1.055-1.422l13.9-9.563
		l-15.477,7.959c-0.2-0.227-0.404-0.439-0.589-0.648c-0.333-0.375-0.601-0.736-0.715-1.139c-0.086-0.303-0.088-0.629,0.063-1.01
		l16.927-8.48l-15.732,5.908c-0.173-0.324-0.685-0.703-1.243-1.135c-0.682-0.529-1.429-1.143-1.727-1.844
		c-0.158-0.363-0.198-0.748-0.032-1.16l17.486-4.656l-17.574,2.453c-0.694-0.469-1.178-0.775-1.482-1.045
		c-0.397-0.355-0.482-0.652-0.333-1.168c0.1-0.346,0.301-0.789,0.592-1.424l17.249-2.936l-17.679,0.857
		c-0.213-0.271-0.497-0.551-0.879-0.834l0.672-0.795c6.813-1.063,13.34-2.75,19.916-4.133c-0.2,0.982-0.035,2.168,0.363,3.447
		c0.551,1.768,1.551,3.715,2.668,5.545c1.37,2.244,2.913,4.313,4.013,5.676c0.221,0.271,0.427,0.52,0.604,0.729
		C332.708,347.57,326.516,351.037,320.408,354.625 M340.996,342.824c-0.255-0.285-0.556-0.629-0.881-1.016
		c-1.122-1.336-2.59-3.227-3.868-5.258c-1.069-1.697-2.008-3.488-2.503-5.129c-0.359-1.193-0.485-2.305-0.261-3.244
		c0.729-0.145,1.462-0.264,2.19-0.395c-0.131,1.082,0.225,2.406,0.86,3.811c0.74,1.645,1.862,3.398,3.034,4.998
		c1.456,1.988,2.988,3.744,3.971,4.77C342.692,341.85,341.843,342.336,340.996,342.824 M345.974,339.947
		c-0.078-0.076-0.16-0.156-0.244-0.24c-0.022-0.021-0.047-0.047-0.069-0.072c-1.037-1.049-2.537-2.674-3.926-4.467
		c-1.073-1.385-2.078-2.869-2.746-4.264c-0.639-1.328-0.972-2.574-0.763-3.566c0.965-0.15,1.938-0.275,2.909-0.395
		c-0.179,1.193,0.198,2.504,0.885,3.809c0.86,1.633,2.203,3.248,3.567,4.602c1.215,1.205,2.439,2.203,3.344,2.811
		C347.943,338.758,346.965,339.363,345.974,339.947 M351.333,336.719c-0.947-0.557-2.17-1.434-3.361-2.49
		c-1.284-1.141-2.532-2.486-3.36-3.873c-0.74-1.24-1.144-2.508-0.938-3.682c1.082-0.098,2.163-0.201,3.259-0.252
		c-0.001,0.508,0.03,0.969,0.083,1.412c0.142,1.215,0.475,2.199,0.972,3.021c0.753,1.254,1.874,2.139,3.235,2.898
		c1.175,0.539,2.311,0.896,2.802,1.344C353.136,335.648,352.229,336.174,351.333,336.719 M356.388,333.607
		c-0.439-0.234-1.218-0.436-2.072-0.701c-1.176-0.328-2.502-0.771-3.246-1.688c-0.369-0.385-0.643-0.842-0.751-1.402
		c0.813,0.344,1.481,0.445,2.087,0.482l0.359-0.029c0.413-0.07,1.014-0.104,1.882,0.24c0.832,0.244,1.751,0.836,3.005,2.303
		C357.231,333.082,356.806,333.34,356.388,333.607 M359.58,331.557c-0.433-0.697-0.933-1.201-1.474-1.582
		c-0.956-0.67-2.042-0.945-3.147-1.152c-0.823-0.039-1.623-0.008-2.858-0.584c-0.131-0.061-0.253-0.127-0.375-0.193
		c-0.856-0.35-1.646-0.893-2.297-1.822c0.537-0.236,1.119-0.531,1.735-0.867c1.773,0.025,2.992,0.342,3.966,0.842
		c1.138,0.582,1.945,1.412,2.891,2.322c0.749,0.725,1.59,1.492,2.765,2.229C360.383,331.016,359.987,331.293,359.58,331.557
		 M362.63,329.506c-1.223-0.459-2.146-1.113-2.979-1.814c-0.961-0.811-1.801-1.682-2.832-2.389
		c-0.891-0.607-1.922-1.096-3.303-1.313c0.925-0.486,1.707-0.801,2.377-0.977c1.295-0.336,2.168-0.15,2.844,0.316
		c0.309,0.131,0.586,0.293,0.809,0.516c0.36,0.361,0.569,0.826,0.813,1.363c0.059,0.129,0.122,0.266,0.189,0.406
		c0.584,0.945,1.229,1.902,2.294,2.475c0.363,0.193,0.776,0.344,1.254,0.432C363.613,328.857,363.118,329.176,362.63,329.506
		 M366.541,326.807c-5.677-0.277-3.037-4.672-8.386-5.893c1.043-0.732,2.091-1.484,3.138-2.254c5.774-0.313,3.385,4.6,9.603,5.021
		C369.287,324.84,367.783,325.92,366.541,326.807 M373.36,321.912c-7.011,0.24-4.609-4.205-9.621-5.076
		c0.481-0.365,0.966-0.732,1.435-1.09c1.421,0.475,4.188,1.234,5.309,1.367c1.623,0.594,2.554,3.082,4.795,3.428
		C374.644,320.994,374.002,321.453,373.36,321.912 M377.678,318.699c-5.24-0.648-5.047-4.521-10.712-4.344
		c2.065-2.848,8.676-2.311,9.011-0.926c0.506,1.145,2.717,3.139,4.233,3.113C379.36,317.309,378.441,318.078,377.678,318.699
		 M366.531,311.984c1.229-1.322,1.659-2.744,1.923-4.842l3.443,0.629C371.77,307.908,367.952,310.928,366.531,311.984
		 M382.419,314.285c-4.426,1.576-2.589-4.049-10.545-3.699c1.043-0.803,1.745-1.553,2.431-2.135c5.94-0.92,5.279,1.969,10.262,2.934
		C383.922,312.434,383.191,313.389,382.419,314.285 M386.104,308.432c-3.382,1.252-4.396-3.115-10.131-1.814
		c0.56-0.738,1.118-1.658,1.543-2.76c3.975-1.572,6.124,2.658,9.876,0.668C387.081,305.869,386.648,307.178,386.104,308.432
		 M367.236,288.438c-0.378-2.455-1.017-7.76-1.186-8.701c1.663,0.328,2.822,0.805,4.271,1.23c0.782,0.639,0.615,2.672,0.104,3.115
		C368.742,286.053,366.805,285.543,367.236,288.438 M367.374,289.16c-0.01-0.002-0.013-0.004-0.021-0.008
		c-0.028-0.156-0.062-0.354-0.096-0.57C367.288,288.764,367.325,288.953,367.374,289.16 M372.864,281.803
		c2.311,0.844,4.297,1.826,6.019,2.908c0.059,4.816-7.033-0.252-6.886,6.174c-0.979-0.457-1.934-0.826-2.734-1.107
		c-0.083-0.961,0.095-2.227,0.321-2.613C370.809,286.049,374.091,284.984,372.864,281.803 M374.711,295.256
		c-1.664-0.221-4.165-0.533-6.402-0.715c-0.152-0.877-0.331-1.902-0.528-3.014C371.974,292.914,373.87,294.258,374.711,295.256
		 M374.078,292.004c-0.733-5.848,6.124,0.201,6.4-6.197c1.025,0.764,1.928,1.574,2.725,2.416c-1.264,5.449-5.478,1.777-7.996,4.719
		C374.759,292.512,374.356,292.201,374.078,292.004 M383.698,291.871c0.198-0.16,1.09-0.99,1.374-1.301
		c1.102,1.646,1.861,3.379,2.313,5.146c-2.825,2.695-6.861-1.496-9.554,1.506c-0.267-0.953-0.802-2.016-1.338-2.762
		C378.402,292.289,381.119,293.986,383.698,291.871 M387.829,301.813c-3.566,2.654-6.233-2.107-9.836,0.375
		c0.168-0.734,0.217-1.135,0.238-2.162c2.07-4.008,6.266,0.404,9.546-2.248C387.949,299.125,387.953,300.473,387.829,301.813
		 M366.076,277.754c-0.139-0.027-0.486-5.293-0.788-7.15l24.11,0.721c1.713,8.947,3.804,20.586,4.45,25.609l-4.13-0.604
		C387.727,288.229,383.203,281.568,366.076,277.754 M416.466,304.34c-0.997,4.068-10.875,13.945-15.249,13.979
		c-4.211,0-7.039-6.473-3.676-9.244c-2.521-0.621-6.139-1.027-8.405-1.555c0.862-2.662,1.091-6.113,0.879-9.002l6.169,0.9
		c0.269-2.938-4.98-30.084-4.98-30.084l-28.308-0.949c0,0,2.633,22.338,3.574,28.178c2.425,0.041,7.23,0.691,8.981,0.939
		c1.043,2.721-0.299,6.652-1.863,8.617l-7.175-1.098c0.414,19.047-26.725-11.195-8.84-8.404c-0.843-6.285-3.44-26.014-3.44-26.014
		l11.155-10.881l26.036,0.826c-0.778-18.405,27.514,9.707,9.112,8.76c0.632,8.75,3.316,20.83,5.175,30.865
		C409.639,296.369,417.453,297.977,416.466,304.34"/>
	<path fill="#999999" d="M248.881,340.039c-4.335-1.08-8.554-2.662-12.541-4.699c-2.186-0.189-5.507-0.609-7.698-0.928
		c0.013-0.006,0.027-0.012,0.042-0.02c-0.718-0.113-2.311-0.361-2.599-0.41l0.002,0.002c-0.526-0.1-2.324-0.424-2.849-0.527
		c0.667,0.553,1.376,1.057,2.104,1.539c0,0,0.86,0.594,1.3,0.811c2.434,1.438,5.089,2.604,7.7,3.736
		c0.237,0.102,0.476,0.207,0.71,0.309c4.302,1.875,9.996,4.037,15.908,4.115c5.31,0.07,9.229-0.475,12.71-1.77
		c0.386-0.143,0.769-0.297,1.149-0.447c-0.567,0.018-1.135,0.031-1.7,0.031C258.31,341.781,253.537,341.197,248.881,340.039"/>
	<path fill="#999999" d="M262.433,336.414c-3.988,0-7.692-0.688-10.322-1.172l-0.279-0.055c-2.164,0.355-4.682,0.531-7.539,0.531
		c-1.75,0-3.632-0.066-5.629-0.199c3.353,1.559,6.85,2.803,10.432,3.695c5.851,1.455,11.892,1.98,17.958,1.576
		c2.945-1.352,5.702-2.975,8.223-4.85c1.239-0.922,2.437-1.867,3.45-2.988c-4.236,1.752-8.68,2.871-13.244,3.32
		C264.454,336.369,263.436,336.414,262.433,336.414"/>
	<path fill="#999999" d="M277.777,324.191c-0.178,0.133-0.833,0.619-1.778,1.27c-1.115,0.762-2.379,1.629-3.722,2.301
		c-0.067,0.031-0.138,0.066-0.202,0.1c1.368-0.445,2.713-0.953,4.028-1.529c0.925-0.402,1.834-0.846,2.73-1.314
		c1.031-0.543,2.044-1.123,3.028-1.74c-0.009-0.164-0.011-0.332-0.024-0.486h-0.002c-0.057-0.619-0.179-1.139-0.354-1.559
		c-0.038-0.092-0.076-0.184-0.122-0.266c-0.048,0.045-0.097,0.094-0.146,0.139l-0.437,0.408c-0.204,0.191-0.405,0.375-0.614,0.576
		C279.415,322.803,278.644,323.543,277.777,324.191"/>
	<path fill="#999999" d="M240.663,322.137c-0.28-0.096-0.55-0.197-0.811-0.297c-0.01,0.156-0.023,0.379-0.05,0.643
		c-0.116,1.135-0.386,2.533-0.792,3.514c-0.078,0.189-0.17,0.387-0.266,0.576c-0.212,0.545-0.475,1.063-0.779,1.557
		c0.406,0.121,0.813,0.242,1.22,0.363c0.358,0.107,0.719,0.215,1.077,0.318c-0.105-1.945,0.436-4.258,1.365-6.361
		C241.315,322.354,240.993,322.25,240.663,322.137"/>
	<path fill="#999999" d="M226.939,316.488c-0.006-0.049-1.971,0.205-2.879,0.436c-1.701,0.438-3.291,1.393-3.723,1.656
		c0.233,0.432,0.525,0.904,0.894,1.391c0.769,1.012,1.6,1.736,2.282,2.234c0.067-0.363,0.197-0.91,0.464-1.531
		c0.211-0.492,0.794-1.545,1.567-2.561c0.111-0.145,0.224-0.293,0.34-0.438c0.161-0.227,0.292-0.404,0.367-0.49
		c0.224-0.256,0.451-0.479,0.676-0.68l0,0c0.002-0.002,0.006-0.008,0.008-0.01C226.939,316.494,226.939,316.492,226.939,316.488"/>
	<path fill="#999999" d="M277.629,318.926c-0.647,0.025-1.131,0.084-1.629,0.199c-0.236,0.055-0.433,0.111-0.571,0.154
		c0.004,0.006,0.008,0.012,0.01,0.018c0.427,0.428,0.852,1.529,0.896,1.627c0.021,0.047,0.414,0.951,0.536,1.988
		c0.656-0.445,1.193-0.852,1.599-1.176c0.523-0.42,0.827-0.686,1.72-1.465c0.371-0.322,0.465-0.439,0.66-0.602
		c-0.413-0.344-0.734-0.537-1.437-0.66C278.922,318.924,278.384,318.893,277.629,318.926"/>
	<path fill="#999999" d="M210.087,287.072c0-0.029,0.096-2.922,0.93-3.365c0.191-0.104,0.406-0.086,0.6,0.047
		c0.287,0.195,0.646,0.783,0.631,1.141c-0.008,0.178-0.02,0.387-0.035,0.627c-0.063,1.027-0.161,2.574-0.029,4.602
		c0.516,7.898,2.751,16.703,6.29,24.791c0.063,0.148,0.115,0.262,0.146,0.355c0.332,0.582,0.754,1.441,0.973,1.9
		c0.216-0.156,0.504-0.361,0.696-0.469c0.267-0.152,0.949-0.453,1.333-0.621c-2.613-5.865-3.956-15.986-4.303-20.58
		c-0.635-8.361-0.239-8.754-0.051-8.939c0.346-0.342,0.639-0.332,0.823-0.256c0.719,0.279,0.923,1.984,1.007,4.461
		c0.172,5.111,0.45,8.596,0.93,11.646c0.602,3.844,3.084,11.529,3.576,13.029c2.186-0.582,3.154-0.547,3.748-0.521
		c0.043,0.002,0.083,0.002,0.121,0.002l-0.07-0.318c-1.104-5.004-3.158-14.318-2.607-19.211c0.029-0.254,0.049-0.521,0.069-0.779
		c0.077-0.99,0.132-1.705,0.562-1.863c0.178-0.072,0.39-0.029,0.574,0.115c0.38,0.291,0.73,1.082,0.57,2.418
		c-0.434,3.66,1.625,14.291,2.914,19.295c0.115-0.045,0.221-0.096,0.423-0.221c0.334-0.215,1.472-1.008,2.009-2.275
		c0.179-0.42,0.179-0.617,0.182-1.277c0.003-0.203,0.004-0.453,0.01-0.754c-0.057-0.711-0.054-1.432,0.013-2.238
		c0.011-1.512,1.148-3.242,1.728-3.785c0.196-0.189,0.467-0.393,0.689-0.529c-0.768-2.924-1.539-6.297-1.641-9.588
		c-0.849,0.824-2.115,2.006-2.488,2.096c-0.652,0.154-1.244-0.26-1.633-0.586c-1.355-1.137-2.43-2.58-3.121-4.199
		c-0.405,0.289-0.916,0.451-1.455,0.457c-0.701-0.018-1.352-0.254-1.794-0.715c-0.431-0.447-0.655-1.02-0.834-1.521
		c-0.3-0.844-0.495-1.723-0.684-2.572c-0.15-0.676-0.305-1.373-0.513-2.041c-0.145,0.074-0.326,0.17-0.486,0.256
		c-1.142,0.605-1.565,0.799-1.844,0.688c-0.373-0.143-0.632-0.764-0.889-1.439l-0.068-0.182c-0.24-0.584-0.469-1.648-0.69-2.678
		c-0.103-0.486-0.204-0.955-0.296-1.313c-2.631,2.533-4.606,3.303-5.815,3.5c-0.028,0.004-2.825,0.41-3.194-0.123
		c-0.08-0.113-0.082-0.256-0.01-0.381c0.383-0.643,0.614-1.109,0.758-1.439c-0.898,0.705-2.416,1.459-4.943,0.668
		c-0.373-0.117-0.64-0.24-0.813-0.375c-0.344,0.307-0.967,0.818-1.484,0.975c-1.412,0.438-2.302,0.398-2.717-0.115
		c-0.254-0.313-0.264-0.727-0.186-1.107l-1.232,0.973c0.575,4.629,1.433,9.232,2.547,13.688c1.234,4.918,2.451,8.381,3.068,10.004
		c0.727,1.916,1.719,4.541,3.489,7.787c1.085,1.988,2.307,3.928,3.636,5.766c0.467-0.92,1.424-2.828,1.677-3.332
		c-0.692-1.426-6.867-14.506-7.304-28.215c-0.096-1.473-0.218-4.963,0.687-5.35c0.062-0.025,0.132-0.045,0.216-0.045
		c0.161,0,0.363,0.072,0.588,0.309l0.054,0.08c0.216,0.48,0.218,0.775,0.226,1.482c0.012,1.219,0.035,3.756,1.115,10.984
		c0.795,5.32,2.625,11.402,5.76,19.146c0.206,0.541,0.898,2.299,1.664,3.477c0.184,0.285,1.085,1.648,1.93,2.402
		c0.611-0.977,1.238-1.893,2.034-2.578C216.091,315.072,210.389,303.246,210.087,287.072"/>
	<path fill="#999999" d="M302.348,281.803c0.019,0.236-0.023,0.475-0.171,0.68c-0.376,0.523-1.268,0.627-2.728,0.318
		c-0.51-0.107-1.343-0.621-1.859-0.965c-0.055,0.141-0.151,0.309-0.327,0.479c-0.496,0.486-1.992,0.691-3.539,0.182
		c-0.552-0.182-1.069-0.439-1.556-0.775c0.18,0.357,0.435,0.824,0.796,1.434c0.075,0.125,0.071,0.268-0.009,0.383
		c-0.369,0.533-3.164,0.125-3.192,0.121c-2.64-0.426-4.842-2.486-5.899-3.479c-0.066-0.063-0.135-0.125-0.199-0.186
		c-0.09,1.137-0.385,3.021-0.692,4.125c-0.006,0.014-0.413,1.438-0.971,1.652c-0.274,0.105-0.7-0.08-1.842-0.689
		c-0.16-0.084-0.342-0.18-0.489-0.254c-0.207,0.668-0.361,1.367-0.512,2.045c-0.188,0.848-0.384,1.725-0.682,2.566
		c-0.178,0.504-0.406,1.078-0.833,1.525c-0.439,0.455-1.084,0.713-1.773,0.713h-0.021c-0.54-0.004-1.049-0.168-1.455-0.457
		c-0.692,1.617-1.766,3.063-3.121,4.201c-0.388,0.322-0.981,0.74-1.634,0.584c-0.371-0.092-1.631-1.266-2.481-2.09
		c-0.009,1.197-0.047,2.172-0.215,3.104c-0.549,3.084-1.121,4.941-1.571,6.217c0.257,0.16,0.412,0.293,0.42,0.303
		c0.259,0.219,0.447,0.441,0.535,0.555c0.189,0.242,0.755,1.074,1.01,1.701c0.395,0.955,0.599,1.967,0.668,3.279
		c0.034,0.725,0.038,1.227,0.041,1.59c0.005,0.658,0.005,0.854,0.182,1.273c0.292,0.688,0.732,1.164,1.172,1.543l0.392-1.367
		c1.582-5.486,3.969-13.775,3.685-16.836c-0.128-1.365,0.223-2.148,0.592-2.426c0.179-0.133,0.38-0.17,0.556-0.104
		c0.35,0.129,0.592,0.635,0.631,2.67c0.067,3.4-2.36,12.115-3.813,17.322c-0.185,0.656-0.352,1.264-0.503,1.803
		c0.151,0.07,0.36,0.174,0.619,0.322c0.55,0.309,1.577,0.887,2.55,1.994c0.211,0.242,0.442,0.58,0.648,0.877l0.01,0.014l0.202-0.025
		c1.72-3.271,4.6-13.07,5.055-15.322c0.596-2.951,0.754-6.523,0.927-11.637c0.086-2.477,0.29-4.184,1.009-4.463
		c0.181-0.074,0.474-0.084,0.82,0.258c0.19,0.188,0.586,0.576-0.047,8.941l-0.065,0.896c-0.283,4.045-0.604,8.625-5.655,21.152
		c0.287-0.008,0.544-0.014,0.789-0.014c1.243,0,2.208,0.1,2.933,0.305c3.175-9.008,6.687-20.936,7.13-27.717
		c0.132-2.029,0.036-3.578-0.027-4.604c-0.017-0.242-0.028-0.449-0.035-0.625c-0.016-0.359,0.342-0.947,0.627-1.141
		c0.196-0.133,0.41-0.15,0.603-0.049c0.829,0.441,0.929,3.336,0.929,3.365c-0.2,10.74-3.842,21.068-6.502,28.609
		c-0.396,1.119-0.766,2.168-1.099,3.145c0.144,0.154,0.233,0.273,0.233,0.273c0.075,0.1,0.147,0.213,0.218,0.34
		c0.907-0.449,2.308-1.313,3.118-1.994c1.092-0.92,1.655-1.936,2.026-2.719c3.888-8.236,5.616-18.734,5.633-18.838
		c0.588-3.631,1.073-9.164,1.104-10.186c0.009-0.32,0.011-0.58,0.013-0.793c0.006-0.711,0.01-1.004,0.225-1.486l0.054-0.078
		c0.341-0.357,0.626-0.342,0.804-0.264c0.904,0.387,0.781,3.877,0.685,5.359c-0.436,13.717-6.623,26.813-7.303,28.211
		c0.116,0.215,0.359,0.504,0.598,0.787c0.151,0.182,0.311,0.371,0.454,0.561c0.274,0.359,0.575,0.742,0.761,0.973
		c0.977-0.891,3.091-4.045,3.503-4.766c1.625-2.82,2.525-5.223,3.25-7.152l0.236-0.629c0.621-1.637,1.842-5.115,3.069-10.006
		c0.639-2.555,1.822-7.754,2.61-14.055c-0.296-0.074-0.582-0.178-0.854-0.311C302.638,281.979,302.49,281.895,302.348,281.803"/>
	<path fill="#999999" d="M220.812,327.092c0.843,0.336,2.882,0.893,3.759,1.123c1.845,0.463,3.716,0.824,5.595,1.123
		c0.137,0.021,0.271,0.049,0.406,0.068c0.357,0.055,0.715,0.1,1.072,0.152s0.713,0.107,1.074,0.154
		c0.648,0.086,1.3,0.162,1.952,0.236c2.217,0.246,4.442,0.424,6.671,0.543c-1.352-0.326-2.741-0.689-4.285-1.098
		c-0.019,0.025-0.151-0.014-0.367-0.096c-0.332-0.088-0.688-0.186-1.054-0.287c-0.048-0.014-0.095-0.027-0.142-0.039
		c-0.195-0.057-0.391-0.109-0.594-0.168c-0.04-0.012-0.084-0.023-0.123-0.037c-0.351-0.1-0.715-0.209-1.092-0.324
		c-0.156-0.045-0.31-0.092-0.469-0.143c-0.143-0.043-0.291-0.092-0.436-0.137c-0.182-0.061-0.362-0.119-0.547-0.178
		c-0.145-0.049-0.289-0.096-0.436-0.145c-0.203-0.066-0.409-0.137-0.619-0.211c-0.139-0.047-0.276-0.094-0.418-0.145
		c-0.236-0.084-0.481-0.17-0.725-0.258c-0.123-0.045-0.243-0.09-0.369-0.135c-0.371-0.137-0.749-0.281-1.139-0.43
		c-0.059-0.023-0.124-0.049-0.186-0.076c-0.035-0.014-0.068-0.027-0.102-0.039c-0.004,0.002-0.008,0.004-0.01,0.008l-0.156-0.063
		c0.002-0.002,0.006-0.006,0.008-0.012c-0.043-0.014-0.087-0.033-0.131-0.051c-0.123-0.047-0.243-0.096-0.368-0.148
		c-1.002-0.412-2.063-0.902-3.142-1.521c-0.512-0.25-0.9-0.514-1.24-0.777c-0.4-0.268-0.798-0.551-1.193-0.861
		c-0.239-0.191-0.46-0.381-0.674-0.568c-0.247-0.219-0.475-0.438-0.689-0.658c-0.643-0.662-1.145-1.338-1.535-2.074
		c-0.192,0.537-0.387,1.078-0.565,1.627c-0.364,1.117-0.66,2.254-0.716,3.428c-0.008,0.166-0.086,0.465,0.011,0.598
		C218.13,325.875,220.204,326.848,220.812,327.092"/>
	<path fill="#999999" d="M257.954,332.424c0.198-0.096,0.388-0.209,0.582-0.311c-1.667,0.148-5.151,0.293-10.202-0.336
		c-0.705-0.088-1.369-0.186-2.017-0.289c-0.057-0.002-0.117-0.004-0.174-0.004c-3.465-0.023-7.151-0.236-10.717-0.604
		c-0.804-0.053-1.074-0.111-1.794-0.191c-0.376-0.045-0.751-0.094-1.127-0.143c-1.74-0.23-3.476-0.506-5.196-0.848
		c-0.873-0.172-1.763-0.357-2.648-0.564c0.001,0.008,0.001,0.014,0.002,0.02c-1.283-0.336-3.712-1.045-4.893-1.582
		c-0.355-0.162-1.137-0.533-1.918-1.037c0.061,0.369,0.164,0.734,0.316,1.08c0.018,0.039,0.041,0.094,0.073,0.166
		c0.286,0.623,0.653,1.195,0.833,1.471c0.345,0.527,0.557,0.852,0.913,1.27c0.074,0.086,0.384,0.447,0.854,0.879
		c0.434,0.4,0.838,0.709,1.167,0.939c0.742,0.158,2.457,0.496,3.35,0.666l-0.008-0.012c0.936,0.17,3.489,0.568,4.656,0.752
		c0.008-0.004,0.016-0.006,0.023-0.01c1.783,0.238,4.695,0.611,6.471,0.766c6.221,0.539,11.357,0.482,15.27-0.162
		c1.68-0.277,2.986-0.641,4.043-1.016C256.679,333.02,257.379,332.705,257.954,332.424"/>
	<path fill="#999999" d="M276.453,327.111c-2.798,1.223-5.728,2.16-8.734,2.797c-0.013,0.006-0.029,0.012-0.04,0.018
		c-0.467,0.193-0.938,0.377-1.416,0.555l0.024,0.018l-0.197,0.043c-0.59,0.217-1.19,0.406-1.798,0.578
		c-0.328,0.092-0.652,0.189-0.985,0.268c-0.992,0.232-1.876,0.385-2.647,0.49c-0.753,0.473-1.525,0.918-2.321,1.309
		c-0.15,0.072-0.312,0.15-0.479,0.229c-0.933,0.434-2.135,0.912-3.775,1.318c3.118,0.543,7.183,1.096,11.311,0.689
		c4.991-0.486,9.831-1.797,14.407-3.869c0.503-0.764,0.937-1.598,1.241-2.561c0.39-1.23,0.754-3.049,0.819-4.715
		c-1,0.611-2.029,1.186-3.076,1.721C278.017,326.391,277.24,326.766,276.453,327.111"/>
	<path fill="#999999" d="M259.763,330.52c0.956-0.111,1.976-0.268,3.203-0.553c0.255-0.059,0.508-0.131,0.759-0.201
		c-0.671-0.652-1.302-1.57-2.365-3.426c-0.554-0.967-0.822-2.139-0.927-3.324c-0.204,0.072-0.486,0.199-0.925,0.266
		c-0.093,0.016-0.23,0.035-0.372,0.057c0.403,0.975,0.701,2.033,0.825,3.234c0.129,1.221-0.012,2.377-0.146,3.494
		C259.796,330.217,259.781,330.367,259.763,330.52"/>
	<path fill="#999999" d="M216.142,277.635c0.219-0.275,0.231-0.34,0.322-0.834c0.059-0.311,0.143-0.754,0.32-1.475
		c1.212-4.873,3.681-7.74,4.763-8.809c-2.46-0.553-3.315-2.434-3.288-4.281c-0.174,0.15-0.349,0.305-0.453,0.398
		c-2.152,1.926-4.089,7.67-4.894,10.758l-0.003,0.01c-0.438,1.975-1.277,3.658-2.341,5.795c-0.415,0.836-0.882,1.771-1.374,2.826
		C210.24,281.9,213.567,280.865,216.142,277.635"/>
	<path fill="#999999" d="M222.697,285.668l0.123,0.434c0.606,2.082,0.606,2.084,0.615,2.143c0.15,0.871,0.553,1.279,0.879,1.371
		c0.129-0.029,0.809-0.615,1.438-1.855l0.003-0.008c0.592-1.064,4.912-9.584,5.904-11.885c-0.519-0.16-1.021-0.371-1.658-0.691
		c-0.756-0.377-1.315-0.77-1.91-1.182c-0.111-0.078-0.229-0.158-0.344-0.238c-0.577,1.178-1.194,2.354-1.838,3.502
		c-1.138,2.029-2.387,4.027-3.714,5.934c-0.03,0.045-0.073,0.104-0.124,0.172l0.601,2.225l-0.254,0.158L222.697,285.668z"/>
	<path fill="#999999" d="M229.812,293.945c0.422-0.086,1.979-1.484,2.658-2.391c0.366-2.352,1.4-7.035,2.512-9.813
		c0.573-1.439,1.314-2.885,1.889-3.932l-0.088-0.023c-0.564-0.162-1.205-0.348-1.768-0.576c-0.337-0.137-0.597-0.219-0.827-0.295
		c-0.274-0.088-0.522-0.168-0.813-0.307c-0.572,1.207-2.431,5.316-2.981,6.65c-0.212,0.512-0.937,1.994-1.64,3.424
		c-0.646,1.318-1.313,2.678-1.545,3.215l0.006,0.021C227.69,291.486,228.564,292.844,229.812,293.945"/>
	<path fill="#999999" d="M218.82,283.686c0.195-0.1,0.664-0.516,0.854-0.684c0.106-0.094,0.196-0.174,0.254-0.219
		c0.52-0.41,0.965-1.023,1.392-1.623c0.104-0.141,0.207-0.283,0.31-0.42c1.215-1.629,2.205-3.439,3.166-5.189l0.525-0.949
		c0.105-0.182,0.215-0.367,0.297-0.559c0.029-0.064,0.161-0.297,0.928-1.568c-0.914-1.016-2.742-3.951-3.269-5.369
		c-0.499,0.16-1.004,0.875-1.319,1.322l-0.127,0.178c-0.581,0.805-1.162,1.713-1.771,2.785c-0.907,1.594-1.384,3.354-1.701,4.709
		l-0.075,0.332c-0.322,1.369-0.517,2.195-0.295,3.631C218.317,282.182,218.64,283.387,218.82,283.686"/>
	<path fill="#999999" d="M205.47,280.895c0.901-0.217,2.603-0.98,3.894-3.646l0.081-0.168c0.369-0.76,0.875-1.797,1.639-3.896
		c0.395-1.086,0.707-2.033,1-2.914c0.613-1.848,1.143-3.443,2.109-5.377c0.24-0.482,0.548-1.066,1.006-1.752
		c0.666-1.006,1.457-1.932,2.347-2.764c-2.051-0.486-2.907-2.004-3.164-2.887c-0.154,0.162-0.296,0.332-0.388,0.445
		c-1.099,1.357-4.773,6.178-5.947,11.316c-0.148,0.77-0.455,2.129-0.725,3.328c-0.215,0.949-0.408,1.805-0.486,2.205
		c-0.361,1.85-0.783,3.484-2.598,6.168C204.456,281,204.888,281.033,205.47,280.895"/>
	<path fill="#999999" d="M207.843,263.996c1.678-3.818,5.186-8.176,5.948-9.104c-0.224-0.277-0.644-0.809-0.837-1.094
		c-0.258-0.381-0.363-0.867-0.448-1.256c-0.021-0.092-0.044-0.201-0.067-0.293c-0.914,0.785-4.37,5.646-6.268,9.451
		c-2.105,4.227-3.624,10.67-4.182,13.242c-0.169,0.789-0.654,2.861-0.817,3.32c-0.284,0.793-0.771,1.793-1.126,2.521
		c-0.084,0.174-0.174,0.357-0.251,0.518c2.863-0.684,4.585-2.863,5.122-6.48c0.116-0.793,1.01-4.994,1.206-5.877
		C206.44,267.258,207.036,265.83,207.843,263.996"/>
	<path fill="#999999" d="M283.414,277.033c0.098,0.502,0.112,0.594,0.354,0.896c2.828,3.549,6.49,4.453,7.261,4.453h0.028
		c-0.528-1.143-1.029-2.146-1.475-3.041c-1.058-2.127-1.895-3.809-2.331-5.768l-0.004-0.008c-0.223-0.855-2.254-8.43-4.936-10.828
		c-0.147-0.131-0.474-0.42-0.705-0.621c0.084,1.254-0.138,3.945-3.425,4.521c0.936,0.877,3.634,3.764,4.914,8.926
		C283.276,276.283,283.36,276.732,283.414,277.033"/>
	<path fill="#999999" d="M294.984,281.324c0.556,0.063,0.914-0.029,1.028-0.094c-1.889-2.75-2.318-4.396-2.682-6.264
		c-0.078-0.4-0.278-1.281-0.487-2.215c-0.271-1.195-0.577-2.555-0.727-3.328c-1.18-5.166-4.87-10.008-5.975-11.369
		c-0.128-0.162-0.354-0.428-0.577-0.637c-0.139,0.775-0.966,2.643-3.385,3.084c0.965,0.871,1.813,1.854,2.525,2.922
		c0.452,0.682,0.757,1.26,0.996,1.736c0.963,1.928,1.492,3.52,2.102,5.361c0.301,0.898,0.608,1.83,1.003,2.918
		c0.764,2.104,1.272,3.148,1.644,3.91l0.08,0.168C292.058,280.668,294.153,281.227,294.984,281.324"/>
	<path fill="#999999" d="M300.638,281.525c0.105,0,0.208-0.006,0.314-0.02c0.004,0,0.012,0,0.018,0
		c-0.042-0.26-0.451-1.195-1.812-3.342c-0.25-0.389-0.958-2.453-1.151-3.346c-0.556-2.578-2.077-9.033-4.193-13.275
		c-1.271-2.553-3.146-5.918-6.42-9.443c-0.122,0.773-0.267,1.297-0.432,1.564c-0.383,0.604-0.742,0.854-0.959,1.004
		c-0.047,0.033-0.108,0.076-0.14,0.105c0.497,0.6,4.261,5.186,6.021,9.184c0.803,1.822,1.395,3.246,1.711,4.926
		c0.063,0.281,0.18,0.912,0.317,1.643c0.291,1.563,0.692,3.701,0.881,4.193C296.472,279.129,298.537,281.525,300.638,281.525"/>
	<path fill="#999999" d="M278.876,281.871c0.615,0.785,1.334,1.479,2.142,2.066c0.078,0.057,0.146,0.105,0.213,0.107h0.006
		c0.055,0,0.087-0.057,0.145-0.193l0.015-0.035c0.234-0.531,0.351-1.129,0.461-1.709l0.041-0.215
		c0.098-0.488,0.188-1.014,0.282-1.604c0.227-1.461,0.019-2.346-0.297-3.684l-0.077-0.33c-0.318-1.365-0.802-3.139-1.715-4.746
		c-0.61-1.074-1.193-1.99-1.779-2.801l-0.127-0.18c-0.353-0.5-0.931-1.316-1.529-1.402c-0.466,1.449-2.104,4.406-3.348,5.525
		c0.945,1.568,0.964,1.623,0.972,1.648c0.08,0.18,0.192,0.373,0.301,0.563c0.05,0.084,0.099,0.168,0.146,0.254l0.379,0.689
		c0.626,1.141,1.272,2.322,1.975,3.441c0.349,0.553,0.647,0.998,0.935,1.4c0.104,0.143,0.207,0.291,0.309,0.438
		C278.499,281.359,278.683,281.623,278.876,281.871"/>
	<path fill="#999999" d="M275.811,289.662c0.018,0,0.03-0.002,0.045-0.006c0.715-0.201,0.855-0.516,1.133-1.275
		c0.248-0.676,0.465-1.367,0.643-2.055c0.019-0.07,0.035-0.137,0.053-0.209c0.127-0.506,0.227-1.031,0.321-1.535
		c0.019-0.09,0.038-0.168,0.062-0.252c0.055-0.201,0.167-0.627,0.083-0.736l-0.049-0.063c-0.063-0.082-0.116-0.156-0.159-0.221
		c-1.319-1.896-2.568-3.889-3.702-5.914c-0.67-1.195-1.313-2.422-1.906-3.645c-0.166,0.113-0.325,0.225-0.483,0.332
		c-0.588,0.41-1.146,0.801-1.892,1.17c-0.69,0.348-1.224,0.566-1.788,0.734c0.865,2.072,5.368,10.951,5.969,12.039
		C274.716,289.158,275.531,289.662,275.811,289.662"/>
	<path fill="#999999" d="M266.714,276.623c-0.757,0.365-2.61,0.945-3.772,1.307c0.582,1.051,1.365,2.566,1.968,4.072
		c1.301,3.262,2.018,6.32,2.129,9.086c0.729,0.986,2.801,3.023,3.152,2.959c2.313-2.398,2.64-3.486,2.763-3.895
		c0.006-0.02,0.01-0.037,0.014-0.053c-0.213-0.508-0.9-1.912-1.566-3.271c-0.704-1.426-1.427-2.906-1.639-3.412
		C269.19,282.023,267.199,277.629,266.714,276.623"/>
	<path fill="#999999" d="M301.018,266.877c-0.202-0.564-0.406-1.129-0.604-1.717c-0.029-0.09-0.081-0.213-0.142-0.363
		c-0.064-0.158-0.141-0.344-0.222-0.553c-3.014-7.955-7.704-13.605-8.345-14.238c-0.588,0.202-1.199,0.331-1.821,0.384
		c-0.599,0.048-1.194,0.029-1.782-0.057c0.234,0.321,0.565,0.756,0.959,1.28c1.921,2.551,5.143,6.822,6.057,8.879
		c1.166,2.625,2.44,5.795,4.077,13.063c0.784,3.488,2.825,6.459,4.671,6.818c0.05-0.197,0.05-0.947-0.327-3.576
		C302.842,271.98,301.913,269.385,301.018,266.877"/>
	<path fill="#999999" d="M249.954,261.613c-0.606-0.826-1.727-0.936-1.938-0.957c-1.835-0.176-3.194,1.4-3.64,1.914
		c-0.306,0.355-0.716,0.918-1.007,1.684c-0.356,0.938-0.365,1.734-0.365,2.141c-0.012,6.439,0.452,9.236,0.452,9.236
		c0.175,1.049,0.609,3.461,1.51,6.453c0,0,0.935,3.457,2.983,6.121c0.473,0.615,1.686,1.75,2.178,1.521
		c-1.055-2.361-1.618-4.293-1.732-4.57c-0.25-0.604-1.443-4.418-1.65-7.582c-0.314-4.865,0.436-10.482-0.073-14.48
		c0.046-0.047,0.12-0.109,0.212-0.107c0.576,0.018,0.727,1.889,0.783,3.18c0.131,2.891-0.013,5.111-0.115,6.367
		c-0.261,3.209-0.141,4.482,0.088,6.082c0.613,4.33,2.932,10.721,3.127,10.854c0.076,0.049,0.102-0.604,0.176-1.234
		c0,0-0.058-1.119-0.06-1.492c-0.013-3.488-0.427-8.76-0.427-8.76c-0.01-4.021-0.146-6.684-0.078-10.67
		C250.395,266.369,250.363,262.176,249.954,261.613"/>
	<path fill="#999999" d="M200.523,273.617c1.64-7.285,2.971-10.576,4.088-13.088c0.921-2.074,4.055-6.246,5.926-8.74
		c0.336-0.443,0.625-0.832,0.847-1.131l-3.169-0.418c-0.725,0.752-5.344,6.418-8.271,14.147c-0.078,0.205-0.154,0.389-0.217,0.545
		c-0.063,0.152-0.115,0.279-0.146,0.369c-0.198,0.588-0.402,1.15-0.603,1.715c-0.896,2.506-1.822,5.092-2.518,9.896
		c-0.314,2.201-0.363,3.057-0.347,3.381C197.868,279.816,199.77,276.959,200.523,273.617"/>
	<path fill="#999999" d="M258.483,326.939c-0.325-3.131-1.95-5.287-3.729-7.398c-0.348-0.414-0.614-0.77-0.847-1.123
		c-1.03-1.582-1.524-3.275-1.385-4.76c0.062-0.664,0.259-1.27,0.432-1.805c0.409-1.262,0.379-1.646,0.358-1.957l-0.01-0.121
		c-0.046-0.879-0.365-1.553-0.487-1.807c-0.173-0.367-0.37-0.689-0.582-0.957c-0.13-0.16-0.22-0.137-0.473-0.049
		c-0.097,0.033-0.203,0.072-0.319,0.094c-0.56,0.109-1.135,0.133-1.712,0.061c-0.104-0.012-0.261-0.031-0.431-0.055
		c-0.295-0.039-0.631-0.084-0.811-0.102c-0.006,0-0.011-0.002-0.018-0.002c-0.286,0-0.779,0.68-0.945,0.908
		c-0.045,0.059-0.08,0.107-0.1,0.133c-0.15,0.178-0.275,0.438-0.396,0.684c-0.054,0.113-0.106,0.225-0.161,0.322
		c-0.604,1.113-0.462,2.227-0.219,3.262c0.1,0.42,0.213,0.898,0.277,1.43c0.026,0.217,0.054,0.424,0.084,0.621
		c0.237,1.736,0.41,2.988-1.375,4.566c-2.533,2.242-3.622,5.074-3.996,10.428c1.563,0.354,3.268,0.654,5.069,0.895
		c0.812-1.023,1.328-3.746,0.784-6.135c-0.006-0.021-0.416-2.457,0.022-2.6c0.202-0.064,0.329,0.215,0.397,0.367
		c1.254,2.813,1.408,5.924,0.434,8.566l0.074,0.012c0.014,0,1.396,0.168,3.264,0.293c0.057,0.004,0.117,0.01,0.176,0.014
		c-0.936-2.727-0.675-5.891,0.728-8.719c0.074-0.15,0.208-0.434,0.413-0.35c0.432,0.158-0.078,2.574-0.084,2.598
		c-0.656,2.412-0.539,4.018,0.496,6.555c1.89,0.076,3.526,0.057,4.862-0.063l0.002-0.035c0.021-0.193,0.04-0.389,0.063-0.576
		C258.471,329.043,258.597,328.016,258.483,326.939 M248.261,310.701c-0.158,0.416-0.485,0.713-0.619,0.791
		c-0.023,0.014-0.049,0.02-0.074,0.02c-0.05,0-0.1-0.023-0.126-0.07c-0.042-0.068-0.019-0.156,0.052-0.195
		c0.024-0.016,0.064-0.053,0.115-0.098c0.119-0.113,0.285-0.305,0.379-0.547c0.029-0.084,0.055-0.16,0.078-0.24
		c-0.084,0.076-0.199,0.15-0.348,0.209c-0.135,0.053-0.297,0.096-0.497,0.113c-0.024,0.004-0.048,0.002-0.074,0
		c-0.085-0.014-0.164-0.057-0.218-0.123c-0.203-0.252-0.283-0.512-0.241-0.773c0.082-0.494,0.587-0.816,0.919-1.031
		c0.145-0.092,0.334-0.057,0.441,0.074c0.037,0.006,0.074,0.027,0.096,0.064C248.578,309.598,248.456,310.18,248.261,310.701
		 M251.694,310.734c0.093,0.246,0.259,0.438,0.379,0.549c0.048,0.045,0.091,0.08,0.116,0.096c0.068,0.041,0.091,0.129,0.049,0.197
		c-0.026,0.047-0.074,0.07-0.125,0.07c-0.025,0-0.051-0.008-0.074-0.02c-0.133-0.08-0.463-0.375-0.616-0.793
		c-0.2-0.521-0.322-1.104,0.114-1.807c0.022-0.037,0.059-0.057,0.096-0.066c0.107-0.129,0.295-0.164,0.442-0.072
		c0.333,0.215,0.835,0.537,0.917,1.029c0.043,0.264-0.036,0.523-0.239,0.775c-0.056,0.068-0.134,0.111-0.22,0.123
		c-0.024,0.002-0.047,0.002-0.073,0c-0.2-0.016-0.362-0.059-0.497-0.113c-0.146-0.059-0.261-0.133-0.348-0.209
		C251.638,310.572,251.665,310.654,251.694,310.734"/>
	<path fill="#999999" d="M242.754,257.686c0,0,0.559,0.439,1.073,0.455c0.068,0.002,0.133-0.01,0.133-0.01
		c0.048-0.006,0.09-0.023,0.135-0.035c-1.213-0.838-2.172-2.293-2.09-3.793c0.05-0.918,0.728-1.574,1.159-2.328
		c0.202-0.35,0.354-0.721,0.359-1.154c0.002-0.25-0.202-0.381-0.399-0.381c-0.185,0-0.362,0.112-0.365,0.346
		c-0.003,0.344-0.131,0.646-0.305,0.932c-0.18,0.293-0.406,0.57-0.597,0.846c-0.452,0.664-0.671,1.385-0.606,2.186
		c0.01,0.131,0.036,0.26,0.056,0.389c0.11,0.668,0.348,1.162,0.519,1.459C242.181,257.215,242.591,257.559,242.754,257.686"/>
	<path fill="#999999" d="M239.589,303.197c0.445,0.156,0.852,0.379,1.186,0.668c0.67-0.965,3.086-4.467,3.488-5.246
		C243.001,299.592,240.753,302.074,239.589,303.197"/>
	<path fill="#999999" d="M241.694,305.426c0.544-0.357,3.743-5.457,3.743-5.457c-0.99,0.654-3.402,3.014-4.406,4.146
		c0.146,0.164,0.275,0.34,0.379,0.535C241.544,304.902,241.632,305.17,241.694,305.426"/>
	<path fill="#999999" d="M250.866,305.389l0.086-0.002c0.47-0.043,0.768-0.117,0.904-0.172c-0.141-0.824-1.046-4.578-1.464-5.672
		c-0.351,1.072-0.938,4.748-1.031,5.746c0.217,0.045,0.764,0.098,1.249,0.098L250.866,305.389z"/>
	<path fill="#999999" d="M255.96,299.719c0,0,2.106,4.063,2.984,5.371c0.102-0.252,0.208-0.475,0.302-0.65
		c0.095-0.176,0.209-0.324,0.327-0.469c-0.164-0.283-0.373-0.65-0.61-1.066C257.933,301.682,256.624,300.24,255.96,299.719"/>
	<path fill="#999999" d="M260.045,303.5c0.318-0.252,0.682-0.434,1.079-0.557c-1.123-1.332-2.839-3.523-3.882-4.473
		c0.285,0.682,1.838,3.412,2.672,4.865C259.957,303.391,260.001,303.447,260.045,303.5"/>
	<path fill="#999999" d="M262.423,276.605l0.737-0.309c0,0,2.621-0.934,3.476-1.291c1.222-0.512,3.524-1.652,4.639-2.533
		c2.964-2.344,3.862-5.66,4.738-6.709c3.039-0.191,4.278-1.68,4.472-3.211c0.114-0.92-0.854-3.023-0.583-3.1
		c0,0,3.37-0.746,4.126-1.893c1.114-1.697,0.487-3.871,0.487-3.871c0.041,0,2.966-1.096,1.254-5.365
		c0.347,0.861,6.91,0.163,6.759-0.272c-0.427-1.214-2.16-2.727-3.912-3.801c-2.212-1.354-4.748-1.62-6.367-1.432
		c-1.783,0.206-3.556,0.395-5.238,1.061c-2.474,0.979-3.777,2.784-4.384,5.311c-0.678,2.819-0.682,5.745-1.001,8.624
		c-0.401,3.637-1.448,7.107-4.291,9.609c-2.292,2.014-5.323,3.619-8.366,4.15C260.156,272.834,262.423,276.605,262.423,276.605"/>
	<path fill="#999999" d="M214.277,248.325c-1.713,4.269,1.212,5.365,1.256,5.365c0,0-0.63,2.174,0.486,3.871
		c0.755,1.146,4.124,1.893,4.124,1.893c0.272,0.076-0.697,2.18-0.581,3.1c0.193,1.531,1.432,3.02,4.471,3.211
		c0.875,1.049,1.775,4.365,4.737,6.709c1.116,0.881,3.418,2.021,4.638,2.533c0.855,0.357,3.479,1.291,3.479,1.291l0.736,0.309
		c0,0,2.269-3.771,3.457-5.031c-3.137-0.551-8.427-3.078-10.729-6.91c-2.307-4.418-2.563-9.893-2.572-10.125
		c-0.23-3.838-0.834-6.924-0.955-7.235c-1.575-4.021-7.451-4.302-9.028-4.484c-1.614-0.188-4.154,0.077-6.364,1.432
		c-1.754,1.074-3.486,2.587-3.913,3.801C207.365,248.489,213.931,249.186,214.277,248.325"/>
	<path fill="#999999" d="M274.211,319.416c-0.014-0.021-0.527-0.938-1.147-1.607c-0.907-0.975-2.089-1.617-3.038-2.129
		c-0.258-0.139-0.499-0.271-0.707-0.393c-0.448-0.266-1.008-0.596-1.504-1.184c-0.974-1.158-1.076-2.58-1.159-3.721
		c-0.021-0.32-0.035-0.623-0.046-0.92c-0.03-0.723-0.059-1.402-0.236-2.176c-0.217-0.941-0.588-1.715-1.104-2.291
		c-0.646-0.723-1.5-1.092-2.537-1.092c-0.039,0-0.08,0.006-0.121,0.01l-0.063,0.008c-0.195,0.016-0.388,0.051-0.571,0.109
		c-0.336,0.107-0.669,0.277-0.987,0.506c-0.068,0.051-0.135,0.1-0.2,0.15c-0.051,0.043-0.097,0.086-0.144,0.133l-0.032,0.029
		c-0.133,0.121-0.24,0.236-0.329,0.34c-0.075,0.1-0.122,0.17-0.168,0.24c-0.122,0.184-0.205,0.35-0.259,0.504
		c-0.208,0.602-0.096,1.168,0.036,1.822l0.027,0.133c0.221,1.115,1.101,2.506,1.19,2.619c0.463,0.602,0.938,1.215,1.239,1.938
		c0.424,1.021,0.521,2.1,0.281,3.125c-0.272,1.145-0.467,2.387-0.636,3.482c-0.072,0.457-0.14,0.887-0.207,1.285
		c-0.194,1.141-0.086,2.488,0.308,3.904c0.082,0.287,0.309,1.029,0.698,1.762c0.666,1.246,1.464,2.328,2.373,3.225
		c0.814-0.277,1.695-0.627,2.685-1.059c1.111-0.488,2.163-0.998,3.144-1.482c-0.233-0.217-0.516-0.486-0.811-0.793l-0.078-0.08
		c-0.851-0.879-1.813-1.875-2.639-3.453c-1.28-2.449-0.938-3.791-0.896-3.936c0.008-0.023,0.21-0.701,0.21-0.701l0.193-0.641
		l0.127,0.977c0.019,0.121,0.058,0.396,0.124,0.754c0.346,1.432,1.31,3.031,1.722,3.531c1.329,1.602,2.423,2.703,3.54,3.564
		c0.521-0.297,1.075-0.643,1.693-1.051c-0.367-1.617-0.938-3.426-2.331-4.693c-0.122-0.113-0.567-0.518-0.569-0.518l-0.225-0.199
		l0.266-0.15c0.149-0.084,0.522-0.107,1.349,0.66c0.923,0.863,1.958,2.906,2.375,4.318l0.175-0.123
		c0.249-0.168,0.466-0.32,0.668-0.461c-0.146-0.732-0.324-1.42-0.511-1.996C275.035,320.643,274.221,319.426,274.211,319.416
		 M264.859,307.789c-0.043,0.121-0.173,0.188-0.292,0.158c-0.01-0.004-0.018-0.008-0.027-0.01c-0.13-0.045-0.197-0.186-0.15-0.314
		c0.014-0.039,0.032-0.109,0.048-0.193c0.053-0.279,0.089-0.75-0.06-1.143c-0.035-0.096-0.072-0.184-0.112-0.268
		c-0.021,0.193-0.103,0.432-0.309,0.699c-0.003,0.008-0.005,0.012-0.009,0.018c-0.016,0.02-0.032,0.035-0.051,0.051
		c-0.065,0.055-0.148,0.082-0.236,0.076c-0.321-0.02-0.567-0.135-0.73-0.342c-0.311-0.387-0.213-0.965-0.149-1.348
		c0.008-0.047,0.027-0.09,0.051-0.127l-0.008-0.01c-0.058-0.004-0.112-0.012-0.176-0.014c-0.139-0.004-0.249-0.111-0.249-0.246
		c0.002-0.135,0.112-0.246,0.253-0.246c1.408,0.006,1.901,0.805,2.194,1.584C265.083,306.748,264.958,307.518,264.859,307.789"/>
	<path fill="#999999" d="M241.034,200.292l-8.998,14.078l14.25-8.89l3.715,16.238l3.711-16.238l14.254,8.89l-8.999-14.078
		l16.439-3.668l-16.439-3.669l8.999-14.076l-14.254,8.889l-3.711-16.238l-3.715,16.238l-14.25-8.889l8.998,14.076l-16.439,3.669
		L241.034,200.292z M238.669,185.428l8.987,5.608l2.345-10.245l2.344,10.245l8.988-5.608l-5.676,8.881l10.368,2.314l-10.368,2.314
		l5.676,8.879l-8.988-5.606l-2.344,10.245l-2.345-10.245l-8.987,5.606l5.676-8.879l-10.369-2.314l10.369-2.314L238.669,185.428z"/>
	<path fill="#999999" d="M225.763,88.34c-1.65,0-2.994,1.326-2.994,2.958c0,1.63,1.344,2.957,2.994,2.957
		c1.651,0,2.994-1.327,2.994-2.957C228.757,89.667,227.414,88.34,225.763,88.34"/>
	<path fill="#999999" d="M274.364,94.254c1.651,0,2.994-1.326,2.994-2.957s-1.343-2.957-2.994-2.957
		c-1.649,0-2.995,1.326-2.995,2.957S272.714,94.254,274.364,94.254"/>
	<path fill="#999999" d="M250.369,94.254c1.649,0,2.993-1.326,2.993-2.957s-1.344-2.957-2.993-2.957
		c-1.651,0-2.995,1.326-2.995,2.957S248.718,94.254,250.369,94.254"/>
	<path fill="#999999" d="M223.309,118.466c-1.651,0-2.993,1.328-2.993,2.959s1.342,2.958,2.993,2.958
		c1.65,0,2.995-1.327,2.995-2.958S224.959,118.466,223.309,118.466"/>
	<path fill="#999999" d="M276.639,118.466c-1.651,0-2.992,1.328-2.992,2.959s1.341,2.958,2.992,2.958s2.995-1.327,2.995-2.958
		S278.29,118.466,276.639,118.466"/>
	<path fill="#999999" d="M250.28,118.466c-1.65,0-2.993,1.328-2.993,2.959s1.343,2.958,2.993,2.958c1.651,0,2.995-1.327,2.995-2.958
		S251.931,118.466,250.28,118.466"/>
	<polygon fill="#999999" points="148.104,199.556 149.575,195.798 150.03,194.642 148.857,194.194 146.761,193.39 145.589,192.944 
		145.136,194.101 143.661,197.857 138.771,195.988 137.6,195.539 137.146,196.695 136.073,199.434 135.618,200.591 136.791,201.04 
		141.683,202.91 140.048,207.078 139.595,208.236 140.767,208.683 142.864,209.485 144.034,209.933 144.489,208.777 
		146.122,204.609 150.096,206.128 151.267,206.576 151.721,205.419 152.794,202.681 153.247,201.523 152.077,201.076 	"/>
	<polygon fill="#999999" points="351.519,205.027 351.833,206.23 353.048,205.917 357.174,204.863 358.196,208.764 358.509,209.966 
		359.725,209.654 361.904,209.097 363.12,208.787 363.025,208.419 363.053,208.414 362.703,207.197 361.783,203.685 
		366.861,202.388 368.078,202.076 367.762,200.875 367.019,198.033 366.702,196.832 365.489,197.142 360.41,198.441 
		359.279,194.114 358.962,192.912 357.746,193.222 355.568,193.78 354.352,194.089 354.666,195.292 355.8,199.618 351.674,200.673 
		350.459,200.984 350.773,202.185 	"/>
	<path fill="#999999" d="M239.819,305.6c-0.409-0.635-1.188-1.047-2.132-1.139c-0.121-0.012-0.252-0.012-0.357-0.012
		c-0.428,0-0.845,0.07-1.238,0.209l-0.085,0.025c-0.036,0.01-0.072,0.023-0.109,0.037c-0.534,0.225-1.268,0.529-2.018,1.586
		c-0.504,0.713-0.521,1.324-0.562,2.668l-0.018,0.539c-0.018,0.475-0.007,0.676,0.004,0.838c0.008,0.18,0.016,0.32-0.009,0.67
		c-0.081,1.143-0.185,2.563-1.157,3.719c-0.715,0.852-1.729,1.387-2.706,1.902c-0.731,0.387-1.485,0.785-2.099,1.311
		c-0.841,0.719-1.538,1.682-2.131,2.938c-0.4,0.85-0.689,1.709-0.889,2.627c0.229,0.143,0.453,0.27,0.678,0.398
		c0.139,0.078,0.277,0.154,0.417,0.229c0.325-1.395,1.478-3.748,2.478-4.682c0.817-0.764,1.195-0.742,1.346-0.662l0.268,0.148
		l-0.793,0.717c-1.353,1.234-2.042,3.357-2.383,4.922c-0.002,0.01-0.004,0.02-0.006,0.029c0.523,0.256,1.066,0.498,1.658,0.74
		c0.146,0.059,0.291,0.117,0.433,0.174l0.072,0.027c0.901-0.717,1.838-1.691,3.201-3.336c0.412-0.498,1.372-2.1,1.722-3.537
		c0.067-0.355,0.105-0.625,0.122-0.746l0.128-0.979l0.193,0.643c0,0,0.197,0.658,0.21,0.695c0.044,0.15,0.386,1.498-0.895,3.941
		c-0.827,1.58-1.794,2.578-2.644,3.457l-0.074,0.076c-0.134,0.139-0.258,0.266-0.378,0.389l0.438,0.158
		c0.332,0.119,0.66,0.236,0.976,0.346c0.321,0.109,0.609,0.201,0.891,0.289c0.573,0.18,1.081,0.322,1.668,0.488
		c0.617,0.172,1.312,0.369,2.209,0.645c0.758-1.061,1.272-2.057,1.572-3.049c0.369-1.207,0.475-2.559,0.333-4.127
		c-0.123-1.344-0.381-2.795-0.833-4.705c-0.24-1.023-0.143-2.1,0.284-3.123c0.3-0.725,0.776-1.34,1.237-1.936
		c0.092-0.119,0.183-0.236,0.271-0.354l0.059-0.076C240.642,308.785,240.538,306.711,239.819,305.6 M236.953,307.154
		c-0.101,0.242-0.306,0.418-0.608,0.525c-0.082,0.029-0.17,0.023-0.248-0.01c-0.022-0.008-0.043-0.023-0.061-0.035
		c-0.01-0.006-0.013-0.01-0.018-0.016c-0.271-0.203-0.417-0.41-0.49-0.592c-0.014,0.094-0.025,0.188-0.033,0.289
		c-0.031,0.393,0.122,0.846,0.259,1.117c0.034,0.07,0.07,0.133,0.099,0.172c0.08,0.111,0.055,0.266-0.059,0.346
		c-0.043,0.031-0.094,0.045-0.145,0.045c-0.077,0-0.154-0.037-0.203-0.105c-0.17-0.234-0.503-0.941-0.449-1.613
		c0.066-0.828,0.318-1.729,1.678-2.113c0.131-0.039,0.27,0.039,0.309,0.17c0.037,0.129-0.039,0.266-0.173,0.305
		c-0.06,0.018-0.108,0.039-0.163,0.059l-0.006,0.012c0.034,0.029,0.063,0.064,0.084,0.107
		C236.892,306.168,237.146,306.697,236.953,307.154"/>
</g>
</svg>
