<?xml version="1.0" encoding="utf-8"?>
<!-- Generator: Adobe Illustrator 16.0.0, SVG Export Plug-In . SVG Version: 6.00 Build 0)  -->
<!DOCTYPE svg PUBLIC "-//W3C//DTD SVG 1.1//EN" "http://www.w3.org/Graphics/SVG/1.1/DTD/svg11.dtd">
<svg version="1.1" id="Modo_de_isolamento" xmlns="http://www.w3.org/2000/svg" xmlns:xlink="http://www.w3.org/1999/xlink" x="0px"
	 y="0px" width="201.667px" height="65.332px" viewBox="0 0 201.667 65.332" enable-background="new 0 0 201.667 65.332"
	 xml:space="preserve">
<g>
	<path fill="#004770" d="M138.729,21.504v1.576h-2.722c-0.481,0-0.865,0.135-1.151,0.404c-0.285,0.27-0.469,0.569-0.548,0.896
		c-0.081,0.329-0.139,0.633-0.177,0.911c-0.035,0.277-0.053,0.553-0.053,0.825v0.167v0.142c0,0.119,0.004,0.25,0.01,0.392
		c0.008,0.141,0.023,0.311,0.043,0.512c0.024,0.201,0.073,0.417,0.149,0.647c0.076,0.231,0.183,0.444,0.323,0.641
		c0.182,0.223,0.38,0.362,0.591,0.416c0.212,0.056,0.484,0.084,0.82,0.084h2.715v1.602h-2.777c-0.525,0-0.971-0.053-1.339-0.16
		c-0.368-0.106-0.738-0.321-1.11-0.647c-0.445-0.443-0.759-0.978-0.946-1.602c-0.185-0.623-0.278-1.298-0.278-2.025v-0.551
		c0-0.333,0.028-0.658,0.088-0.975c0.057-0.315,0.131-0.614,0.218-0.896s0.191-0.53,0.308-0.742
		c0.117-0.215,0.289-0.453,0.516-0.719c0.226-0.265,0.5-0.46,0.822-0.584c0.322-0.123,0.623-0.206,0.906-0.249
		c0.281-0.042,0.565-0.064,0.849-0.064H138.729z"/>
	<path fill="#004770" d="M140.1,24.08c0.168-0.676,0.395-1.175,0.68-1.5c0.285-0.324,0.548-0.562,0.789-0.711
		c0.241-0.148,0.495-0.265,0.763-0.346c0.267-0.082,0.505-0.135,0.718-0.159c0.213-0.027,0.457-0.04,0.735-0.04
		c0.526,0,0.942,0.046,1.245,0.135c0.303,0.091,0.512,0.156,0.625,0.199c0.113,0.042,0.276,0.13,0.483,0.263
		c0.208,0.133,0.393,0.301,0.554,0.506c0.372,0.419,0.643,0.963,0.813,1.635c0.167,0.67,0.25,1.356,0.25,2.056
		c0,0.693-0.083,1.383-0.25,2.07c-0.17,0.688-0.445,1.242-0.83,1.659c-0.384,0.42-0.835,0.702-1.356,0.847
		c-0.517,0.146-1.022,0.219-1.512,0.219c-0.49,0-0.961-0.065-1.415-0.193c-0.153-0.033-0.294-0.079-0.422-0.135
		c-0.127-0.056-0.286-0.142-0.477-0.261c-0.19-0.12-0.383-0.285-0.576-0.495c-0.193-0.209-0.357-0.455-0.494-0.736
		c-0.135-0.283-0.264-0.671-0.383-1.166c-0.121-0.496-0.182-1.106-0.182-1.833C139.857,25.384,139.938,24.713,140.1,24.08
		 M141.789,24.743c-0.087,0.409-0.132,0.861-0.132,1.354c0,0.487,0.072,1.062,0.213,1.721c0.143,0.661,0.428,1.08,0.852,1.256
		c0.423,0.174,0.781,0.262,1.075,0.262c0.284,0,0.559-0.047,0.821-0.142c0.629-0.265,1.021-0.822,1.175-1.676
		c0.102-0.435,0.153-0.895,0.153-1.381c0-0.495-0.035-0.898-0.103-1.209c-0.072-0.311-0.117-0.51-0.145-0.595
		c-0.024-0.085-0.079-0.214-0.163-0.39c-0.085-0.175-0.204-0.344-0.356-0.506c-0.154-0.163-0.318-0.274-0.489-0.341
		c-0.172-0.062-0.328-0.107-0.466-0.132c-0.139-0.026-0.282-0.039-0.427-0.039c-0.271,0-0.538,0.046-0.802,0.141
		C142.425,23.306,142.021,23.864,141.789,24.743"/>
	<polygon fill="#004770" points="150.958,30.719 149.258,30.719 149.258,21.504 151.705,21.504 153.7,28.567 155.708,21.504 
		158.131,21.504 158.131,30.719 156.497,30.719 156.628,23.556 154.622,30.719 152.855,30.719 150.784,23.491 	"/>
	<path fill="#004770" d="M161.817,30.72h-1.656v-9.216h3.597c0.548,0,1.001,0.028,1.361,0.084c0.357,0.056,0.676,0.187,0.954,0.393
		c0.365,0.24,0.64,0.592,0.822,1.056c0.182,0.464,0.275,0.961,0.275,1.492c0,0.473-0.072,0.919-0.214,1.339
		c-0.143,0.421-0.348,0.749-0.614,0.986c-0.268,0.235-0.505,0.385-0.713,0.45c-0.208,0.063-0.374,0.111-0.5,0.141
		c-0.124,0.03-0.247,0.046-0.372,0.046h-0.932h-2.008V30.72z M163.737,23.157h-1.92v2.704h2.008c1,0,1.502-0.448,1.502-1.346
		c0-0.538-0.141-0.898-0.422-1.083C164.624,23.25,164.233,23.157,163.737,23.157"/>
	<path fill="#004770" d="M173.937,29.194v1.524h-2.105h-0.144h-0.121c-0.306,0-0.579-0.017-0.817-0.05
		c-0.238-0.035-0.496-0.125-0.773-0.27c-0.277-0.146-0.521-0.348-0.734-0.604c-0.213-0.256-0.368-0.532-0.467-0.826
		c-0.098-0.295-0.166-0.608-0.203-0.942c-0.035-0.333-0.055-0.678-0.055-1.038v-5.485h1.647v5.063v0.57
		c0,0.158,0.011,0.375,0.037,0.647c0.026,0.273,0.1,0.521,0.224,0.743c0.11,0.223,0.293,0.39,0.549,0.5
		c0.256,0.111,0.585,0.167,0.987,0.167H173.937z"/>
	<path fill="#004770" d="M181.176,21.504v1.603h-2.721c-0.592,0-1.05,0.182-1.377,0.544c-0.324,0.363-0.487,0.9-0.487,1.608h4.585
		v1.603h-4.585c0,0.771,0.12,1.311,0.362,1.622c0.241,0.311,0.466,0.496,0.674,0.55c0.209,0.056,0.485,0.084,0.828,0.084h2.721
		v1.602h-2.785c-0.528,0-0.976-0.053-1.344-0.16c-0.369-0.106-0.742-0.321-1.114-0.647c-0.446-0.443-0.763-0.978-0.948-1.602
		c-0.188-0.623-0.281-1.298-0.281-2.025l0.023-0.551c0-0.333,0.029-0.658,0.087-0.975c0.059-0.315,0.132-0.614,0.219-0.896
		c0.088-0.282,0.192-0.53,0.307-0.742c0.118-0.215,0.289-0.453,0.517-0.719c0.225-0.265,0.5-0.46,0.821-0.584
		c0.322-0.123,0.624-0.206,0.906-0.249c0.281-0.042,0.565-0.064,0.85-0.064H181.176z"/>
	<polygon fill="#004770" points="184.028,30.719 182.075,30.719 184.818,26.117 182.163,21.504 184.092,21.504 185.716,24.438 
		187.33,21.504 189.238,21.504 186.705,25.989 189.424,30.719 187.439,30.719 185.784,27.515 	"/>
	<path fill="#004770" d="M190.258,24.08c0.169-0.676,0.395-1.175,0.68-1.5c0.285-0.324,0.548-0.562,0.789-0.711
		c0.242-0.148,0.496-0.265,0.764-0.346c0.266-0.082,0.506-0.135,0.717-0.159c0.213-0.027,0.458-0.04,0.736-0.04
		c0.526,0,0.942,0.046,1.244,0.135c0.303,0.091,0.512,0.156,0.625,0.199c0.114,0.042,0.276,0.13,0.485,0.263
		c0.207,0.133,0.391,0.301,0.552,0.506c0.373,0.419,0.644,0.963,0.811,1.635c0.169,0.67,0.253,1.356,0.253,2.056
		c0,0.693-0.084,1.383-0.253,2.07c-0.167,0.688-0.443,1.242-0.827,1.659c-0.384,0.42-0.835,0.702-1.355,0.847
		c-0.519,0.146-1.024,0.219-1.513,0.219c-0.491,0-0.962-0.065-1.415-0.193c-0.155-0.033-0.295-0.079-0.423-0.135
		c-0.127-0.056-0.287-0.142-0.477-0.261c-0.19-0.12-0.382-0.285-0.575-0.495c-0.194-0.209-0.359-0.455-0.493-0.736
		c-0.137-0.283-0.264-0.671-0.385-1.166c-0.12-0.496-0.18-1.106-0.18-1.833C190.018,25.384,190.097,24.713,190.258,24.08
		 M191.948,24.743c-0.088,0.409-0.133,0.861-0.133,1.354c0,0.487,0.072,1.062,0.215,1.721c0.143,0.661,0.426,1.08,0.85,1.256
		c0.423,0.174,0.783,0.262,1.074,0.262c0.285,0,0.56-0.047,0.824-0.142c0.627-0.265,1.02-0.822,1.173-1.676
		c0.102-0.435,0.153-0.895,0.153-1.381c0-0.495-0.034-0.898-0.103-1.209c-0.071-0.311-0.117-0.51-0.144-0.595
		c-0.025-0.085-0.081-0.214-0.164-0.39c-0.083-0.175-0.202-0.344-0.356-0.506c-0.155-0.163-0.317-0.274-0.489-0.341
		c-0.171-0.062-0.327-0.107-0.465-0.132c-0.14-0.026-0.283-0.039-0.429-0.039c-0.27,0-0.537,0.046-0.8,0.141
		C192.583,23.306,192.181,23.864,191.948,24.743"/>
	<path fill="#004770" d="M138.75,35.995v1.602h-2.721c-0.592,0-1.05,0.182-1.377,0.545c-0.325,0.364-0.487,0.9-0.487,1.609h4.585
		v1.602h-4.585c0,0.769,0.121,1.31,0.361,1.621c0.242,0.313,0.467,0.495,0.675,0.551c0.209,0.057,0.485,0.084,0.828,0.084h2.721
		v1.603h-2.787c-0.526,0-0.974-0.054-1.343-0.16c-0.37-0.107-0.741-0.324-1.113-0.648c-0.445-0.443-0.763-0.978-0.948-1.602
		c-0.188-0.624-0.281-1.299-0.281-2.024l0.022-0.551c0-0.334,0.03-0.659,0.088-0.975c0.057-0.316,0.132-0.616,0.219-0.897
		c0.088-0.282,0.19-0.53,0.307-0.743c0.117-0.214,0.289-0.453,0.516-0.718c0.226-0.267,0.502-0.46,0.823-0.583
		c0.321-0.124,0.624-0.207,0.905-0.251c0.281-0.042,0.565-0.063,0.849-0.063H138.75z"/>
	<path fill="#004770" d="M142.448,35.995h4.354v1.653h-4.092c-0.863,0-1.295,0.402-1.295,1.205c0,0.342,0.099,0.59,0.297,0.743
		c0.191,0.171,0.441,0.256,0.756,0.256h2.183c0.424,0,0.801,0.035,1.13,0.103c0.3,0.077,0.609,0.284,0.927,0.622
		c0.318,0.338,0.476,0.964,0.476,1.878c0,0.248-0.015,0.476-0.049,0.685c-0.032,0.209-0.097,0.456-0.197,0.737
		c-0.097,0.282-0.266,0.531-0.504,0.744c-0.237,0.214-0.521,0.363-0.849,0.448c-0.301,0.094-0.688,0.142-1.164,0.142h-4.41v-1.653
		h4.147c0.409,0,0.726-0.071,0.948-0.213c0.224-0.141,0.334-0.408,0.334-0.801v-0.191c-0.019-0.266-0.079-0.457-0.174-0.576
		c-0.126-0.129-0.266-0.214-0.424-0.258c-0.158-0.043-0.345-0.063-0.566-0.063h-1.956c-0.843,0-1.492-0.205-1.951-0.615
		c-0.458-0.41-0.687-1.098-0.687-2.063c0-0.487,0.07-0.923,0.208-1.308c0.14-0.385,0.33-0.681,0.572-0.891
		c0.242-0.209,0.519-0.355,0.833-0.442C141.581,36.042,141.964,35.995,142.448,35.995"/>
	<path fill="#004770" d="M150.004,45.21h-1.656v-9.215h3.597c0.547,0,1.002,0.028,1.36,0.084c0.359,0.056,0.677,0.187,0.955,0.393
		c0.365,0.24,0.639,0.592,0.822,1.055c0.182,0.464,0.274,0.962,0.274,1.494c0,0.472-0.071,0.917-0.213,1.338
		c-0.144,0.421-0.348,0.749-0.614,0.984c-0.268,0.236-0.505,0.387-0.713,0.451s-0.374,0.111-0.499,0.142s-0.249,0.046-0.373,0.046
		h-0.932h-2.008V45.21z M151.923,37.648h-1.919v2.704h2.008c1,0,1.501-0.448,1.501-1.346c0-0.539-0.141-0.898-0.422-1.083
		C152.812,37.741,152.421,37.648,151.923,37.648"/>
	<path fill="#004770" d="M156.136,38.571c0.167-0.676,0.394-1.175,0.679-1.499c0.285-0.326,0.549-0.563,0.79-0.712
		c0.241-0.148,0.495-0.265,0.763-0.346c0.267-0.081,0.505-0.134,0.719-0.16c0.212-0.025,0.456-0.038,0.734-0.038
		c0.526,0,0.941,0.044,1.245,0.134c0.304,0.09,0.511,0.155,0.625,0.198c0.113,0.042,0.274,0.131,0.482,0.264
		c0.209,0.134,0.392,0.301,0.554,0.505c0.373,0.42,0.644,0.965,0.812,1.635c0.169,0.672,0.251,1.356,0.251,2.058
		c0,0.691-0.082,1.382-0.251,2.069c-0.168,0.688-0.444,1.242-0.828,1.66c-0.384,0.419-0.835,0.701-1.355,0.846
		c-0.518,0.146-1.023,0.218-1.513,0.218c-0.491,0-0.961-0.063-1.415-0.19c-0.154-0.035-0.294-0.08-0.422-0.136
		c-0.128-0.056-0.286-0.144-0.478-0.263c-0.189-0.121-0.383-0.284-0.576-0.494s-0.358-0.455-0.492-0.737
		c-0.137-0.281-0.264-0.67-0.385-1.165s-0.182-1.107-0.182-1.834C155.893,39.874,155.974,39.204,156.136,38.571 M157.824,39.234
		c-0.087,0.408-0.131,0.86-0.131,1.355c0,0.486,0.071,1.059,0.213,1.72c0.144,0.661,0.427,1.079,0.851,1.255
		c0.423,0.175,0.783,0.262,1.074,0.262c0.285,0,0.56-0.047,0.824-0.141c0.629-0.264,1.02-0.824,1.174-1.675
		c0.1-0.436,0.152-0.896,0.152-1.381c0-0.496-0.035-0.898-0.103-1.209c-0.071-0.313-0.117-0.511-0.143-0.596
		c-0.025-0.086-0.082-0.217-0.164-0.391c-0.085-0.174-0.203-0.344-0.358-0.505c-0.152-0.163-0.316-0.275-0.488-0.339
		c-0.172-0.064-0.326-0.109-0.465-0.135s-0.282-0.038-0.429-0.038c-0.27,0-0.536,0.047-0.799,0.14
		C158.46,37.798,158.058,38.355,157.824,39.234"/>
	<path fill="#004770" d="M166.468,45.21h-1.657v-9.215h4.07c0.204,0,0.415,0.012,0.631,0.038c0.215,0.025,0.457,0.075,0.723,0.147
		c0.268,0.071,0.518,0.243,0.752,0.514c0.235,0.269,0.406,0.578,0.516,0.929c0.096,0.376,0.142,0.76,0.142,1.153
		c0,0.436-0.054,0.829-0.164,1.179c-0.125,0.359-0.3,0.655-0.527,0.892c-0.228,0.234-0.522,0.403-0.889,0.506l1.942,3.857h-1.854
		l-1.744-3.602h-1.941V45.21z M168.497,37.648h-2.029v2.333h2.029c0.3,0,0.55-0.021,0.752-0.065c0.2-0.042,0.377-0.152,0.531-0.332
		c0.132-0.181,0.197-0.44,0.197-0.782c0-0.496-0.129-0.812-0.388-0.948C169.329,37.717,168.963,37.648,168.497,37.648"/>
	<polygon fill="#004770" points="176.393,45.211 174.672,45.211 174.672,37.623 172.15,37.623 172.15,36.021 178.938,36.021 
		178.938,37.623 176.393,37.623 	"/>
	<rect x="179.673" y="35.995" fill="#004770" width="1.733" height="9.216"/>
	<polygon fill="#004770" points="190.247,35.995 186.979,45.211 185.256,45.211 181.834,35.995 183.699,35.995 186.068,42.852 
		188.493,35.995 	"/>
	<path fill="#004770" d="M190.324,38.571c0.168-0.676,0.395-1.175,0.68-1.499c0.285-0.326,0.548-0.563,0.789-0.712
		c0.242-0.148,0.495-0.265,0.762-0.346c0.268-0.081,0.506-0.134,0.719-0.16c0.213-0.025,0.457-0.038,0.735-0.038
		c0.526,0,0.941,0.044,1.245,0.134c0.303,0.09,0.512,0.155,0.626,0.198c0.112,0.042,0.273,0.131,0.482,0.264
		c0.208,0.134,0.392,0.301,0.554,0.505c0.373,0.42,0.643,0.965,0.811,1.635c0.169,0.672,0.253,1.356,0.253,2.058
		c0,0.691-0.084,1.382-0.253,2.069c-0.168,0.688-0.444,1.242-0.827,1.66c-0.384,0.419-0.835,0.701-1.355,0.846
		c-0.519,0.146-1.024,0.218-1.513,0.218c-0.491,0-0.963-0.063-1.416-0.19c-0.154-0.035-0.294-0.08-0.422-0.136
		c-0.129-0.056-0.288-0.144-0.479-0.263c-0.189-0.121-0.381-0.284-0.574-0.494s-0.358-0.455-0.494-0.737
		c-0.136-0.281-0.264-0.67-0.383-1.165c-0.121-0.495-0.182-1.107-0.182-1.834C190.082,39.874,190.162,39.204,190.324,38.571
		 M192.012,39.234c-0.086,0.408-0.131,0.86-0.131,1.355c0,0.486,0.071,1.059,0.215,1.72c0.141,0.661,0.424,1.079,0.85,1.255
		c0.423,0.175,0.781,0.262,1.074,0.262c0.285,0,0.558-0.047,0.822-0.141c0.629-0.264,1.02-0.824,1.174-1.675
		c0.102-0.436,0.153-0.896,0.153-1.381c0-0.496-0.034-0.898-0.104-1.209c-0.069-0.313-0.117-0.511-0.143-0.596
		c-0.024-0.086-0.08-0.217-0.164-0.391s-0.203-0.344-0.356-0.505c-0.154-0.163-0.316-0.275-0.489-0.339
		c-0.171-0.064-0.327-0.109-0.465-0.135c-0.139-0.025-0.283-0.038-0.428-0.038c-0.272,0-0.537,0.047-0.801,0.14
		C192.649,37.798,192.247,38.355,192.012,39.234"/>
	<path fill="#004770" d="M133.881,59.528h-1.658v-9.217h3.602c0.548,0,1.003,0.029,1.363,0.085c0.357,0.056,0.676,0.187,0.953,0.392
		c0.367,0.241,0.642,0.592,0.824,1.057c0.184,0.463,0.275,0.961,0.275,1.492c0,0.474-0.072,0.919-0.214,1.338
		c-0.143,0.422-0.348,0.75-0.616,0.986c-0.266,0.236-0.504,0.387-0.712,0.451c-0.209,0.063-0.375,0.11-0.5,0.141
		c-0.125,0.029-0.249,0.045-0.374,0.045h-0.933h-2.01V59.528z M135.802,51.966h-1.921v2.704h2.01c1.004,0,1.505-0.448,1.505-1.346
		c0-0.538-0.142-0.898-0.423-1.083C136.691,52.058,136.3,51.966,135.802,51.966"/>
	<path fill="#004770" d="M140.514,55.9v-5.589h1.658v5.538c0,0.17,0.006,0.344,0.022,0.52c0.015,0.177,0.041,0.375,0.083,0.601
		c0.038,0.229,0.124,0.434,0.251,0.617c0.129,0.183,0.31,0.324,0.545,0.422c0.234,0.1,0.527,0.147,0.878,0.147
		c0.467,0,0.829-0.085,1.081-0.256c0.253-0.171,0.429-0.417,0.527-0.737c0.1-0.32,0.149-0.758,0.149-1.313v-5.538h1.647V55.9
		c0,0.239-0.009,0.479-0.023,0.718c-0.013,0.239-0.033,0.475-0.055,0.705c-0.058,0.385-0.27,0.865-0.634,1.442
		c-0.362,0.576-1.264,0.865-2.703,0.865c-1.461,0-2.364-0.268-2.705-0.802c-0.341-0.533-0.535-0.901-0.583-1.102
		c-0.048-0.2-0.084-0.361-0.105-0.48c-0.022-0.12-0.033-0.257-0.033-0.41v-0.34v-0.314V55.9z"/>
	<path fill="#004770" d="M155.074,50.312v1.577h-2.724c-0.482,0-0.867,0.135-1.152,0.404c-0.286,0.27-0.469,0.568-0.549,0.896
		c-0.081,0.329-0.139,0.633-0.176,0.911c-0.036,0.276-0.054,0.553-0.054,0.825v0.167v0.142c0,0.12,0.003,0.25,0.009,0.391
		c0.009,0.142,0.024,0.313,0.045,0.513c0.022,0.2,0.072,0.417,0.148,0.647c0.077,0.23,0.184,0.443,0.324,0.641
		c0.182,0.223,0.379,0.361,0.591,0.416c0.211,0.057,0.486,0.083,0.821,0.083h2.717v1.603h-2.78c-0.525,0-0.971-0.052-1.34-0.16
		c-0.368-0.107-0.738-0.322-1.111-0.647c-0.446-0.443-0.76-0.978-0.947-1.602c-0.185-0.624-0.278-1.298-0.278-2.025v-0.551
		c0-0.334,0.029-0.658,0.088-0.975c0.057-0.316,0.131-0.614,0.219-0.896c0.087-0.282,0.19-0.53,0.307-0.744
		c0.117-0.214,0.289-0.452,0.517-0.717c0.226-0.266,0.501-0.46,0.824-0.584c0.32-0.123,0.624-0.207,0.905-0.25
		c0.282-0.042,0.566-0.064,0.851-0.064H155.074z"/>
	<polygon fill="#004770" points="161.597,59.527 159.895,59.527 159.895,50.312 162.342,50.312 164.341,57.375 166.35,50.312 
		168.778,50.312 168.778,59.527 167.141,59.527 167.274,52.363 165.264,59.527 163.495,59.527 161.421,52.3 	"/>
	<rect x="170.566" y="50.313" fill="#004770" width="1.735" height="9.216"/>
	<polygon fill="#004770" points="175.827,59.527 174.125,59.527 174.125,50.312 176.233,50.312 179.45,56.952 179.385,50.312 
		181.054,50.312 181.054,59.527 179.143,59.527 175.762,52.567 	"/>
	<path fill="#004770" d="M183.513,59.527h-1.757l3.317-9.216h1.757l3.37,9.216h-1.844l-0.725-2.204h-3.437L183.513,59.527z
		 M184.731,55.696h2.362l-1.196-3.526L184.731,55.696z"/>
	<path fill="#004770" d="M193.242,50.312h4.359v1.654h-4.094c-0.864,0-1.296,0.401-1.296,1.205c0,0.341,0.098,0.589,0.296,0.742
		c0.189,0.172,0.443,0.258,0.757,0.258h2.186c0.424,0,0.801,0.035,1.131,0.102c0.301,0.077,0.609,0.284,0.928,0.622
		c0.318,0.338,0.476,0.963,0.476,1.878c0,0.247-0.015,0.477-0.049,0.686c-0.033,0.209-0.097,0.455-0.197,0.737
		s-0.268,0.529-0.506,0.742c-0.237,0.214-0.521,0.364-0.849,0.449c-0.301,0.095-0.689,0.141-1.164,0.141h-4.415v-1.652h4.15
		c0.411,0,0.726-0.071,0.95-0.212c0.223-0.141,0.336-0.408,0.336-0.801v-0.193c-0.023-0.264-0.081-0.457-0.176-0.576
		c-0.127-0.129-0.267-0.214-0.425-0.256c-0.157-0.043-0.346-0.064-0.566-0.064h-1.958c-0.844,0-1.494-0.205-1.953-0.615
		c-0.458-0.41-0.688-1.099-0.688-2.063c0-0.488,0.07-0.925,0.209-1.309c0.139-0.384,0.329-0.681,0.571-0.89
		c0.242-0.21,0.519-0.356,0.836-0.443C192.375,50.36,192.759,50.312,193.242,50.312"/>
	<path fill="#004770" d="M85.354,43.251v-2.852v-2.854c0,0,0.005-0.307,0.033-0.803h-6.663c0,0-4.286-0.076-6.574-1.646
		c-1.853-1.269-2.278-1.938-3.386-3.466c-1.627-2.247-1.693-6.286-1.693-6.286v-1.881v-1.881c0,0,0.066-4.038,1.693-6.285
		c1.108-1.526,1.533-2.197,3.386-3.466c2.288-1.569,6.574-1.645,6.574-1.645h15.433v-6.86H74.396c0,0-5.486,0.115-8.418,2.495
		c-2.37,1.923-2.917,2.939-4.334,5.256c-2.084,3.408-2.167,9.533-2.167,9.533v2.853v2.854c0,0,0.083,6.126,2.167,9.532
		c1.417,2.317,1.964,3.334,4.334,5.257c2.932,2.381,8.418,2.495,8.418,2.495h10.969C85.356,43.384,85.354,43.251,85.354,43.251"/>
	<path fill="#004770" d="M123.631,53.676h-1.879h-15.47c0,0-4.284-0.075-6.575-1.644c-1.85-1.27-2.277-1.938-3.385-3.467
		c-1.48-2.044-1.593-4.963-1.593-4.963v0.003c-0.088-0.788-0.098-1.325-0.098-1.325s-0.062-1.41-0.062-1.881
		c0-0.472,0.062-1.882,0.062-1.882s0.013-0.747,0.154-1.774c0.19-1.365,0.61-3.229,1.537-4.512c1.108-1.526,1.535-2.196,3.385-3.466
		c2.291-1.568,6.575-1.644,6.575-1.644h11.361h0.029c-0.193,1.361-0.611,3.244-1.529,4.51c-1.109,1.527-1.535,2.197-3.388,3.466
		c-2.069,1.419-5.759,1.616-6.453,1.642v0.004h-2.483h-0.446h-0.009h-2.481h-0.447h-0.009h-2.483h-0.446h-0.009h-1.022
		c-0.142,1.027-0.154,1.774-0.154,1.774s-0.063,1.41-0.063,1.882c0,0.471,0.063,1.881,0.063,1.881s0.009,0.536,0.097,1.322h1.079
		H97.5h0.572h2.355h0.01h0.574h2.353h0.011h0.572h2.355h4.204c0,0,5.49-0.114,8.424-2.495c2.371-1.923,2.919-2.939,4.335-5.257
		c0.814-1.33,1.323-3.086,1.641-4.73c0,0,0.077-0.346,0.1-0.526c0.078-0.638,0.072-0.661,0.072-1.281
		c0-4.833-2.232-8.869-8.541-9.052h-14.582c0,0-5.487,0.116-8.419,2.495c-2.37,1.924-2.917,2.94-4.333,5.257
		c-2.086,3.408-2.168,9.533-2.168,9.533v2.854v2.852c0,0,0.082,6.126,2.168,9.533c1.416,2.317,1.963,3.333,4.333,5.258
		c2.932,2.379,8.419,2.495,8.419,2.495h19.809h2.403h1.227v-6.861H123.631z"/>
	<g>
		<path fill="#D6378C" d="M51.177,41.924c5.828-11.989,4.646-26.567-7.459-34.267S14.494,2.795,7.34,14.042
			C0.187,25.29,3.47,39.149,13.179,47.974c4.793,4.356,16.208,12.335,21.898,11.58C40.063,58.892,47.315,49.87,51.177,41.924"/>
		<path fill="#FFFFFF" d="M41.701,38.217c0.53,0.248,1.108,0.433,1.732,0.556c0.542,0.107,1.086,0.155,1.625,0.152
			c0.591-0.007,1.178-0.078,1.754-0.22c0.515-0.126,1.03-0.305,1.534-0.537c0.77-0.354,1.408-0.773,1.946-1.28
			c0.205-0.193,0.38-0.389,0.531-0.593c0.114-0.152,0.212-0.309,0.296-0.47c0.051-0.099,0.099-0.199,0.14-0.301
			c0.133-0.33,0.204-0.658,0.214-0.98c0.01-0.317-0.039-0.63-0.146-0.936c-0.119-0.337-0.303-0.606-0.524-0.813
			c-0.483-0.452-1.145-0.604-1.687-0.488c-0.062,0.014-0.125,0.028-0.188,0.043c-0.008,0.002-0.016,0.003-0.024,0.005
			c-0.196,0.049-0.369,0.102-0.523,0.161c-0.09,0.036-0.175,0.073-0.256,0.114c-0.041,0.021-0.082,0.04-0.122,0.062
			c-0.123,0.062-0.241,0.121-0.355,0.178c-0.349,0.172-0.661,0.32-0.958,0.453c-0.209,0.094-0.421,0.167-0.628,0.218
			c-0.037,0.009-0.073,0.017-0.109,0.025c-0.146,0.029-0.291,0.041-0.433,0.035c-0.2-0.009-0.396-0.05-0.588-0.125
			c-0.313-0.126-0.513-0.319-0.612-0.591c-0.007-0.02-0.015-0.039-0.021-0.059c-0.109-0.367-0.008-0.702,0.292-0.971
			c0.156-0.138,0.318-0.249,0.489-0.333c0.119-0.058,0.242-0.104,0.367-0.135c0.116-0.027,0.234-0.045,0.354-0.049
			c0.457-0.016,0.939-0.02,1.476-0.008c0.012,0,0.024,0,0.037,0c0.154,0.002,0.32,0,0.492-0.009c0.135-0.007,0.272-0.019,0.414-0.04
			c0.101-0.016,0.204-0.035,0.306-0.06c0.063-0.016,0.126-0.033,0.189-0.053c0.159-0.05,0.309-0.12,0.449-0.205
			c0.356-0.215,0.643-0.532,0.814-0.919c0.012-0.026,0.021-0.053,0.031-0.08c0.206-0.52,0.191-1.102-0.045-1.614
			c-0.012-0.026-0.027-0.051-0.041-0.077c-0.122-0.243-0.278-0.458-0.475-0.647c-0.05-0.049-0.104-0.095-0.16-0.142
			c-0.04-0.032-0.081-0.065-0.123-0.096c-0.1-0.073-0.203-0.139-0.311-0.2c-0.257-0.148-0.536-0.265-0.834-0.349
			c-1.375-0.379-3.546-0.303-4.778,0.111c-0.949,0.318-2.218,0.86-2.97,1.555c-1.008,0.929-2.451,2.602-2.089,5.03
			c0.046,0.315,0.087,0.629,0.178,0.936c0.156,0.526,0.406,1.039,0.752,1.547c0.599,0.875,1.362,1.557,2.279,2.044L41.701,38.217z"
			/>
		<path fill="#FFFFFF" d="M18.41,23.844c0.196-0.148,0.354-0.315,0.472-0.501c0.214-0.339,0.295-0.742,0.224-1.24
			c-0.002-0.013-0.005-0.024-0.007-0.038c-0.026-0.168-0.068-0.34-0.128-0.515c-0.126-0.374-0.329-0.762-0.58-1.157
			c-0.062-0.099-0.125-0.197-0.194-0.297c-0.223-0.325-0.462-0.66-0.691-1.003c-0.119-0.176-0.232-0.354-0.342-0.533
			c-0.271-0.442-0.566-0.924-0.708-1.44c-0.064-0.232-0.046-0.468,0.017-0.667c0.057-0.181,0.158-0.346,0.316-0.503
			c0.139-0.138,0.288-0.279,0.447-0.425c0.27-0.247,0.527-0.531,0.734-0.832c0.293-0.427,0.45-0.869,0.459-1.289
			c0.017-0.833-0.55-1.6-1.376-1.937c-0.094-0.039-0.192-0.069-0.291-0.096c-0.251-0.068-0.517-0.1-0.802-0.093
			c-0.154,0.004-0.308,0.017-0.463,0.038c-0.133,0.019-0.268,0.044-0.404,0.077c-0.104,0.022-0.208,0.051-0.314,0.082
			c-0.204,0.059-0.404,0.123-0.607,0.192c-0.646,0.221-1.305,0.476-1.985,0.884c-0.059,0.036-0.118,0.072-0.18,0.111
			c-0.037,0.022-0.073,0.045-0.11,0.066c-0.035,0.021-0.07,0.042-0.105,0.065c-0.638,0.399-1.258,0.912-1.781,1.431
			c-0.111,0.11-0.216,0.223-0.316,0.334c-0.354,0.399-0.643,0.811-0.854,1.231c-0.001,0.001-0.001,0.002-0.002,0.004
			c-0.127,0.256-0.218,0.502-0.268,0.746c-0.035,0.169-0.05,0.339-0.047,0.512c0.001,0.081,0.01,0.162,0.021,0.241
			c0.069,0.504,0.325,1.025,0.705,1.377c0.263,0.245,0.575,0.409,0.913,0.492c0.389,0.095,0.789,0.075,1.204-0.037
			c0.151-0.041,0.306-0.09,0.474-0.146c0.147-0.048,0.286-0.056,0.418-0.02c0.231,0.063,0.441,0.262,0.631,0.615
			c0.163,0.303,0.34,0.638,0.545,1.035c0.169,0.329,0.331,0.656,0.494,0.978c0.217,0.434,0.43,0.843,0.63,1.164
			c0.077,0.123,0.153,0.242,0.23,0.354c0.132,0.19,0.263,0.355,0.396,0.5c0.231,0.251,0.469,0.431,0.72,0.556
			c0.045,0.023,0.091,0.047,0.137,0.065c0.292,0.119,0.587,0.165,0.879,0.155c0.409-0.011,0.813-0.131,1.182-0.336
			C18.227,23.966,18.289,23.926,18.41,23.844"/>
		<path fill="#FFFFFF" d="M21.492,10.467c0.061,0.079,0.13,0.151,0.208,0.217c0.143,0.115,0.314,0.207,0.521,0.267
			c0.005,0.001,0.01,0.003,0.016,0.004c0.069,0.019,0.14,0.035,0.211,0.045c0.153,0.02,0.309,0.017,0.467-0.009
			c0.039-0.007,0.079-0.014,0.117-0.022c0.128-0.032,0.262-0.07,0.395-0.118c0.07-0.023,0.14-0.05,0.209-0.078
			c0.172-0.07,0.352-0.157,0.558-0.277c0.094-0.054,0.188-0.08,0.287-0.078c0.089,0.003,0.182,0.027,0.278,0.079
			c0.084,0.043,0.168,0.086,0.25,0.133c0.141,0.077,0.286,0.134,0.432,0.169c0.207,0.049,0.409,0.042,0.593-0.008
			c0.367-0.103,0.672-0.38,0.729-0.782c0.006-0.047,0.009-0.094,0.008-0.142c0-0.123-0.023-0.255-0.068-0.397
			c-0.025-0.077-0.056-0.154-0.092-0.233c-0.031-0.067-0.067-0.136-0.107-0.205c-0.03-0.054-0.064-0.107-0.099-0.161
			c-0.069-0.105-0.142-0.208-0.218-0.309c-0.246-0.326-0.561-0.646-0.835-0.936c-0.989-1.046-2.295-0.241-3.014,0.575
			c-0.071,0.08-0.154,0.167-0.239,0.268c-0.071,0.08-0.137,0.157-0.199,0.231c-0.083,0.1-0.159,0.194-0.229,0.287
			c-0.027,0.035-0.053,0.07-0.078,0.105c-0.042,0.059-0.081,0.117-0.115,0.175c-0.06,0.099-0.105,0.194-0.138,0.292
			c-0.006,0.016-0.012,0.034-0.017,0.051c-0.032,0.11-0.046,0.214-0.042,0.317c0.006,0.143,0.048,0.28,0.13,0.421
			C21.442,10.395,21.458,10.418,21.492,10.467"/>
		<path fill="#FFFFFF" d="M29.293,13.938c-0.196-0.362-0.436-0.711-0.719-1.043c-0.146-0.171-0.305-0.328-0.473-0.474
			c-0.388-0.334-0.831-0.598-1.327-0.784c-0.012-0.003-0.022-0.008-0.034-0.013c-0.088-0.032-0.176-0.063-0.264-0.091
			c-0.313-0.098-0.627-0.165-0.941-0.204c-0.116-0.014-0.232-0.024-0.348-0.032c-0.252-0.013-0.502-0.013-0.749-0.004
			c-0.983,0.039-1.914,0.261-2.727,0.655c-0.07,0.033-0.141,0.067-0.21,0.102c0,0.001-0.001,0.001-0.002,0.001
			c-0.854,0.432-1.498,0.967-1.984,1.503c-0.249,0.276-0.458,0.553-0.629,0.817c-0.181,0.278-0.322,0.542-0.431,0.775
			c-0.057,0.12-0.104,0.232-0.144,0.333c-0.047,0.12-0.088,0.238-0.125,0.355c-0.127,0.4-0.201,0.796-0.221,1.189
			c-0.03,0.605,0.065,1.207,0.288,1.813c0.032,0.086,0.066,0.173,0.102,0.256c0.271,0.638,0.642,1.183,1.11,1.629
			c0.324,0.308,0.694,0.569,1.109,0.783c0.096,0.049,0.192,0.097,0.292,0.142c0.235,0.103,0.475,0.19,0.719,0.265
			c0.313,0.096,0.633,0.164,0.957,0.208c0.085,0.012,0.172,0.023,0.259,0.031c0.282,0.027,0.56,0.037,0.834,0.033
			c0.884-0.015,1.729-0.189,2.524-0.525c0.111-0.048,0.22-0.098,0.33-0.15l0.286-0.149c0.15-0.082,0.3-0.168,0.446-0.262
			c0.224-0.143,0.43-0.292,0.623-0.446c0.3-0.241,0.565-0.499,0.795-0.774c0.104-0.125,0.203-0.253,0.294-0.386
			c0.113-0.165,0.218-0.333,0.313-0.502c0.151-0.27,0.278-0.543,0.379-0.819c0.184-0.5,0.286-1.011,0.308-1.528
			c0.013-0.312-0.002-0.627-0.05-0.945C29.795,15.083,29.596,14.494,29.293,13.938 M24.667,16.922
			c-0.014,0.04-0.032,0.077-0.053,0.11c-0.036,0.06-0.081,0.112-0.136,0.16c-0.03,0.025-0.063,0.049-0.1,0.071
			c-0.022,0.015-0.047,0.028-0.072,0.04c-0.02,0.011-0.041,0.02-0.062,0.028c-0.047,0.019-0.097,0.033-0.15,0.043
			c-0.035,0.008-0.07,0.013-0.108,0.017c-0.024,0.002-0.049,0.005-0.074,0.006h-0.046c-0.017,0.001-0.034,0-0.05-0.001
			c-0.123-0.006-0.243-0.033-0.356-0.081c-0.035-0.015-0.07-0.032-0.104-0.052c-0.011-0.005-0.021-0.01-0.031-0.017
			c-0.039-0.024-0.075-0.051-0.11-0.079c-0.026-0.021-0.051-0.045-0.075-0.069c-0.01-0.011-0.02-0.022-0.028-0.033
			c-0.04-0.048-0.071-0.099-0.093-0.152c-0.032-0.077-0.045-0.16-0.04-0.249c0.001-0.012,0.002-0.022,0.003-0.034
			c0.01-0.083,0.035-0.157,0.078-0.225c0.027-0.044,0.061-0.086,0.103-0.125c0.012-0.011,0.025-0.022,0.039-0.034
			c0.011-0.008,0.024-0.018,0.039-0.029c0.028-0.02,0.063-0.043,0.104-0.064c0.038-0.021,0.083-0.04,0.132-0.058
			c0.096-0.034,0.212-0.061,0.349-0.062l0,0c0.011,0,0.022-0.001,0.033-0.001c0.129,0.002,0.262,0.028,0.39,0.079
			c0.032,0.013,0.064,0.026,0.096,0.042c0.014,0.008,0.028,0.016,0.042,0.023c0.039,0.022,0.074,0.048,0.107,0.076
			c0.01,0.009,0.019,0.018,0.028,0.025c0.001,0.002,0.002,0.002,0.003,0.003c0.052,0.051,0.092,0.104,0.121,0.166
			c0.012,0.025,0.022,0.052,0.03,0.079c0.015,0.056,0.024,0.107,0.026,0.16C24.706,16.769,24.695,16.846,24.667,16.922"/>
		<path fill="#FFFFFF" d="M43.851,23.394c-0.103-0.382-0.259-0.753-0.466-1.108c-0.63-1.079-1.475-1.974-2.517-2.671
			c-0.211-0.141-0.43-0.274-0.658-0.399c-0.296-0.162-0.619-0.288-0.933-0.41c-0.004-0.002-0.007-0.003-0.01-0.004
			c-0.319-0.125-0.672-0.203-1.081-0.244c-0.412-0.039-0.809-0.011-1.183,0.084c-0.014,0.004-0.029,0.008-0.044,0.012
			c-0.257,0.07-0.507,0.175-0.746,0.308c-0.375,0.213-0.704,0.512-1.002,0.911c-0.218,0.293-0.409,0.635-0.581,1.048
			c-0.117,0.275-0.218,0.557-0.309,0.84c-0.244,0.768-0.397,1.561-0.452,2.369c-0.045,0.656-0.001,1.241,0.134,1.787
			c0.021,0.06,0.042,0.119,0.063,0.179c0.025,0.077,0.054,0.155,0.082,0.231c0.02,0.053,0.04,0.104,0.062,0.154
			c0.062,0.139,0.13,0.265,0.204,0.381c0.079,0.123,0.166,0.236,0.259,0.336c0.145,0.156,0.309,0.284,0.491,0.388
			c0.024,0.014,0.048,0.024,0.072,0.037c0.115,0.059,0.233,0.104,0.352,0.136c0.226,0.059,0.457,0.071,0.681,0.035
			c0.1-0.017,0.169-0.035,0.237-0.059c0.083-0.026,0.166-0.06,0.243-0.101c0.083-0.042,0.162-0.092,0.237-0.148
			c0.113-0.087,0.218-0.19,0.311-0.309c0.004-0.006,0.01-0.013,0.014-0.018c0.086-0.113,0.157-0.239,0.225-0.367
			c0.031-0.062,0.061-0.121,0.091-0.181c0.013-0.028,0.027-0.056,0.041-0.084c0.049-0.098,0.089-0.205,0.13-0.31
			c0.026-0.07,0.052-0.138,0.082-0.207c0.071-0.165,0.164-0.311,0.276-0.438c0.193-0.218,0.45-0.38,0.773-0.489
			c0.006-0.002,0.012-0.005,0.018-0.007c0.023-0.007,0.046-0.014,0.069-0.021c0.249-0.067,0.493-0.055,0.725,0.035
			c0.001,0.001,0.003,0.002,0.004,0.002c0.183,0.073,0.359,0.163,0.506,0.243c0.11,0.06,0.22,0.123,0.327,0.185
			s0.215,0.125,0.326,0.184c0.021,0.012,0.042,0.024,0.063,0.035c0.143,0.074,0.282,0.136,0.416,0.184
			c0.14,0.049,0.276,0.085,0.412,0.106c0.089,0.016,0.176,0.024,0.265,0.026c0.039,0.001,0.077,0,0.115,0.001
			c0.163-0.003,0.322-0.025,0.472-0.066c0.165-0.045,0.318-0.11,0.458-0.197c0.217-0.133,0.401-0.313,0.543-0.534
			c0.059-0.092,0.112-0.188,0.155-0.293c0.04-0.096,0.074-0.192,0.099-0.291c0.054-0.201,0.075-0.409,0.065-0.62
			c-0.005-0.097-0.015-0.194-0.031-0.293C43.911,23.638,43.883,23.517,43.851,23.394 M39.218,22.964
			c0,0.026-0.004,0.052-0.014,0.077c-0.005,0.013-0.01,0.025-0.017,0.036c-0.006,0.014-0.014,0.025-0.023,0.038
			c-0.024,0.029-0.052,0.054-0.085,0.074c-0.022,0.014-0.046,0.025-0.071,0.034c-0.024,0.01-0.048,0.016-0.073,0.021
			c-0.006,0.001-0.011,0.002-0.017,0.004c-0.013,0.001-0.026,0.004-0.039,0.005c-0.02,0.003-0.038,0.004-0.057,0.004
			c-0.018,0.001-0.035,0.001-0.052-0.001c-0.002,0.001-0.005,0-0.007,0c-0.013,0-0.025-0.001-0.036-0.002
			c-0.011,0-0.023,0-0.033-0.001c-0.015,0-0.032-0.001-0.048,0c0,0,0,0,0,0c-0.021,0.001-0.044,0.005-0.07,0.007
			c-0.003,0-0.005,0.001-0.008,0.001c0,0-0.001,0-0.002,0.001c-0.037,0.006-0.082,0.009-0.125,0.017
			c-0.024,0.006-0.05,0.013-0.073,0.023c-0.009,0.004-0.019,0.009-0.028,0.012c-0.014,0.007-0.028,0.015-0.043,0.021
			c-0.003,0.002-0.007,0.003-0.012,0.006c-0.008,0.005-0.018,0.008-0.027,0.013c-0.02,0.01-0.04,0.02-0.061,0.028
			c-0.001,0-0.002,0.001-0.003,0.002c-0.022,0.008-0.045,0.018-0.068,0.025c-0.015,0.004-0.03,0.008-0.045,0.011
			c-0.014,0.003-0.028,0.006-0.042,0.007c-0.012,0.002-0.022,0.004-0.038,0.005c-0.035,0.002-0.069-0.002-0.101-0.013
			c-0.017-0.006-0.034-0.014-0.049-0.022c-0.003-0.003-0.007-0.004-0.011-0.007c-0.025-0.015-0.048-0.035-0.066-0.057
			c-0.012-0.017-0.024-0.032-0.034-0.051c-0.009-0.015-0.017-0.033-0.024-0.052c-0.002-0.007-0.004-0.015-0.006-0.022
			c-0.003-0.009-0.006-0.021-0.008-0.031c-0.002-0.007-0.003-0.017-0.004-0.025c-0.008-0.074,0-0.155,0.029-0.246
			c0.035-0.111,0.088-0.203,0.14-0.303c0.019-0.036,0.039-0.073,0.058-0.11c0.028-0.059,0.056-0.106,0.086-0.148
			c0.042-0.055,0.084-0.097,0.135-0.124c0.032-0.017,0.065-0.029,0.1-0.036c0.002,0,0.004,0,0.006,0c0.051-0.01,0.108-0.011,0.164,0
			c0.055,0.008,0.103,0.028,0.146,0.055c0.001,0.001,0.001,0.001,0.001,0.001c0.043,0.025,0.088,0.054,0.128,0.087
			c0.031,0.025,0.063,0.05,0.092,0.073c0.146,0.123,0.257,0.216,0.354,0.342c0.031,0.042,0.058,0.09,0.071,0.139
			c0.003,0.016,0.007,0.031,0.01,0.047C39.218,22.939,39.218,22.952,39.218,22.964"/>
		<path fill="#FFFFFF" d="M27.61,23.654c-0.271-0.197-0.621-0.413-0.691-0.454c-0.469-0.271-0.963-0.407-1.471-0.41
			c-0.079-0.001-0.159,0.002-0.239,0.008c-0.285,0.022-0.533,0.082-0.759,0.179c-0.077,0.031-0.165,0.078-0.209,0.104
			c-0.035,0.021-0.07,0.041-0.104,0.063c-0.031,0.021-0.061,0.042-0.091,0.064c-0.169,0.126-0.316,0.268-0.443,0.425
			c-0.142,0.177-0.257,0.376-0.347,0.595c-0.052,0.129-0.095,0.265-0.13,0.407c-0.054,0.223-0.083,0.454-0.087,0.7
			c-0.004,0.22,0.01,0.45,0.046,0.693c0.063,0.44,0.186,0.858,0.308,1.243c0.077,0.242,0.161,0.476,0.25,0.702
			c0.278,0.703,0.62,1.332,1.036,1.908c0.152,0.212,0.309,0.403,0.47,0.58c0.239,0.262,0.489,0.484,0.754,0.676
			c0.11,0.078,0.219,0.147,0.329,0.208c0.135,0.076,0.27,0.141,0.405,0.19c0.108,0.038,0.217,0.069,0.327,0.093
			c0.119,0.024,0.238,0.036,0.357,0.037c0.166,0.001,0.329-0.021,0.488-0.067c0.076-0.021,0.152-0.048,0.227-0.08
			c0.374-0.165,0.68-0.46,0.864-0.832c0.123-0.247,0.162-0.506,0.232-0.744c0.092-0.317,0-1.046,0.008-1.138
			c0.024-0.298,0.456-0.066,0.636,0.03c0.335,0.182,0.672,0.336,0.994,0.475c0.395,0.17,0.845,0.453,1.527,0.229
			c0.076-0.026,0.163-0.064,0.208-0.087c0.034-0.017,0.07-0.033,0.104-0.053c0.031-0.018,0.061-0.035,0.092-0.054
			c0.169-0.109,0.321-0.233,0.452-0.375c0.148-0.16,0.272-0.34,0.374-0.543c0.059-0.118,0.109-0.243,0.153-0.377
			c0.067-0.205,0.11-0.424,0.132-0.657c0.019-0.208,0.021-0.426,0.005-0.661c-0.029-0.42-0.116-0.823-0.206-1.196
			c-0.056-0.234-0.12-0.462-0.189-0.681c-0.217-0.685-0.498-1.303-0.855-1.874c-0.131-0.211-0.267-0.403-0.408-0.581
			c-0.209-0.263-0.432-0.492-0.671-0.688c-0.1-0.083-0.199-0.154-0.299-0.219c-0.124-0.08-0.247-0.149-0.374-0.204
			c-0.101-0.045-0.202-0.082-0.305-0.11c-0.111-0.031-0.225-0.049-0.338-0.057c-0.158-0.013-0.316-0.003-0.47,0.029
			c-0.076,0.016-0.15,0.037-0.223,0.063c-0.368,0.131-0.682,0.392-0.884,0.732c-0.133,0.227-0.189,0.47-0.273,0.69
			c-0.111,0.294-0.074,0.992-0.087,1.076c-0.044,0.283-0.445,0.053-0.612-0.052"/>
		<path fill="#FFFFFF" d="M36.925,32.899c-0.281-0.47-0.583-0.857-0.923-1.188c-0.035-0.033-0.068-0.063-0.104-0.096
			c-0.125-0.114-0.25-0.217-0.377-0.308c-0.103-0.075-0.206-0.144-0.311-0.202c-0.095-0.055-0.189-0.102-0.288-0.144
			c-0.155-0.067-0.311-0.121-0.466-0.16c-0.448-0.118-0.893-0.124-1.33-0.019c-0.042,0.011-0.085,0.021-0.128,0.035
			c-0.258,0.076-0.496,0.188-0.716,0.33c-0.272,0.177-0.518,0.401-0.729,0.678c-0.19,0.249-0.342,0.51-0.457,0.78
			c-0.105,0.251-0.18,0.512-0.219,0.781c-0.022,0.152-0.032,0.308-0.034,0.466c0,0.108,0.003,0.219,0.013,0.328
			c0.014,0.156,0.032,0.315,0.065,0.476c0.064,0.321,0.17,0.636,0.274,0.927c0.1,0.28,0.168,0.554,0.206,0.826
			c0.023,0.17,0.035,0.339,0.035,0.511c0,0.246-0.026,0.564-0.225,0.849c-0.07,0.102-0.168,0.171-0.277,0.197
			c-0.028,0.007-0.056,0.01-0.083,0.011c-0.142,0.005-0.275-0.064-0.358-0.193c-0.125-0.194-0.229-0.408-0.299-0.614
			c-0.088-0.262-0.166-0.53-0.241-0.79c-0.048-0.166-0.097-0.333-0.147-0.498c-0.084-0.271-0.193-0.529-0.325-0.776
			c-0.309-0.574-0.751-1.082-1.336-1.537c-0.015-0.012-0.03-0.022-0.044-0.034c-0.088-0.067-0.178-0.129-0.27-0.188
			c-0.104-0.064-0.209-0.124-0.316-0.176c-0.118-0.057-0.237-0.106-0.358-0.147c-0.134-0.045-0.267-0.08-0.398-0.105
			c-0.373-0.072-0.735-0.065-1.083,0.019c-0.024,0.006-0.048,0.014-0.072,0.021c-0.213,0.06-0.424,0.146-0.629,0.264
			c-0.411,0.235-0.742,0.542-1.002,0.925c-0.171,0.252-0.312,0.535-0.422,0.857c-0.015,0.041-0.028,0.084-0.042,0.127
			c-0.038,0.125-0.069,0.258-0.096,0.396c-0.031,0.159-0.054,0.329-0.071,0.514c-0.004,0.046-0.01,0.092-0.014,0.142
			c-0.102,1.405,0.188,2.807,0.886,4.283c0.383,0.809,0.933,1.521,1.643,2.127c0.316,0.271,0.663,0.521,1.042,0.747
			c0.108,0.066,0.218,0.126,0.329,0.186c0.081,0.041,0.192,0.094,0.253,0.122c0.728,0.344,1.49,0.534,2.275,0.565
			c1.003,0.039,1.935-0.044,2.844-0.256c0.035-0.008,0.07-0.016,0.104-0.023c0.027-0.008,0.053-0.014,0.08-0.021
			c0.033-0.008,0.066-0.016,0.099-0.024c1.243-0.302,2.331-0.836,3.234-1.585c1.015-0.843,1.695-1.829,2.038-2.946
			c0.172-0.56,0.261-1.152,0.262-1.776c0-0.504-0.053-0.987-0.158-1.438C37.997,35.026,37.548,33.936,36.925,32.899"/>
		<path fill="#FFFFFF" d="M22.498,36.508c-0.073-0.265-0.168-0.529-0.29-0.788c-0.083-0.179-0.173-0.344-0.271-0.501
			c-0.204-0.327-0.439-0.604-0.709-0.832c-0.21-0.178-0.44-0.325-0.691-0.445c-0.011-0.005-0.022-0.009-0.034-0.015
			c-0.281-0.131-0.575-0.221-0.878-0.274c-0.332-0.058-0.676-0.072-1.035-0.05c-0.613,0.039-1.211,0.147-1.809,0.3
			c-0.48,0.123-0.962,0.302-1.437,0.558c-0.277,0.148-0.556,0.322-0.824,0.511c-0.346,0.242-0.661,0.5-0.942,0.766
			c-0.307,0.29-0.575,0.591-0.802,0.905c-0.083,0.115-0.157,0.229-0.226,0.344c-0.228,0.379-0.381,0.757-0.466,1.139
			c-0.112,0.506-0.103,1.018-0.006,1.549c0.045,0.247,0.108,0.498,0.189,0.754c0.09,0.288,0.188,0.576,0.286,0.866
			c0.163,0.481,0.324,0.977,0.503,1.536c0.043,0.097,0.084,0.195,0.125,0.294c0.087,0.212,0.176,0.438,0.274,0.651
			c0.067,0.146,0.139,0.289,0.214,0.435c0.299,0.575,0.67,1.148,1.154,1.747c0.001,0.001,0.002,0.002,0.002,0.003
			c0.095,0.116,0.193,0.229,0.294,0.336c0.121,0.129,0.245,0.25,0.374,0.365c0.125,0.11,0.254,0.213,0.387,0.309
			c0.008,0.005,0.015,0.012,0.021,0.016c0.152,0.107,0.303,0.2,0.456,0.28c0.292,0.154,0.59,0.259,0.911,0.312
			c0.329,0.053,0.668,0.034,1.019-0.053c0,0.004,0.235-0.062,0.436-0.142c0.21-0.088,0.424-0.2,0.631-0.343
			c0.215-0.148,0.414-0.313,0.589-0.493c0.084-0.086,0.117-0.166,0.142-0.252c0.052-0.181,0.079-0.38,0.08-0.596
			c0.001-0.196-0.018-0.404-0.055-0.627c-0.021-0.128-0.049-0.26-0.083-0.396c-0.088-0.354-0.218-0.734-0.387-1.141
			c-0.104-0.252-0.229-0.511-0.349-0.761c-0.02-0.041-0.04-0.082-0.059-0.123c-0.175-0.367-0.24-0.669-0.188-0.896
			c0.033-0.147,0.113-0.263,0.243-0.348c0.28-0.182,0.594-0.34,0.958-0.482c1.181-0.466,1.985-1.035,2.301-2.271
			C22.715,37.987,22.697,37.241,22.498,36.508 M18.324,38.601c0,0,0,0,0,0.002c-0.014,0.051-0.031,0.096-0.053,0.132
			c-0.018,0.026-0.036,0.051-0.054,0.071c-0.088,0.102-0.143,0.151-0.268,0.205c-0.041,0.019-0.081,0.038-0.123,0.051
			c-0.013,0.003-0.027,0.006-0.04,0.008c-0.011,0.003-0.021,0.004-0.032,0.004c-0.022,0.002-0.044,0-0.066-0.004
			c-0.011-0.003-0.021-0.006-0.032-0.011c-0.012-0.004-0.024-0.009-0.035-0.015c-0.027-0.015-0.054-0.034-0.076-0.057
			c-0.015-0.017-0.029-0.032-0.041-0.052c-0.012-0.017-0.021-0.036-0.03-0.055c-0.002-0.004-0.004-0.009-0.006-0.013
			c-0.005-0.011-0.216-0.517-0.223-0.532c0,0,0,0-0.001-0.001c-0.008-0.015-0.015-0.03-0.021-0.046
			c-0.004-0.011-0.009-0.021-0.012-0.031c-0.004-0.011-0.007-0.021-0.01-0.031c-0.003-0.009-0.005-0.017-0.008-0.029
			c-0.006-0.027-0.01-0.053-0.007-0.08c0.001-0.014,0.004-0.028,0.009-0.042c0.001-0.003,0.002-0.007,0.003-0.009
			c0.009-0.023,0.022-0.045,0.042-0.065c0.012-0.014,0.027-0.025,0.044-0.04c0.016-0.012,0.034-0.022,0.054-0.034
			c0.008-0.005,0.015-0.009,0.023-0.013c0.011-0.006,0.023-0.013,0.035-0.018c0.009-0.005,0.018-0.01,0.027-0.015
			c0.083-0.035,0.174-0.064,0.25-0.075c0.095-0.013,0.114-0.008,0.136-0.009c0.008,0,0.02-0.001,0.036,0.001
			c0.026,0.002,0.063,0.005,0.105,0.019c0.058,0.02,0.123,0.051,0.181,0.108c0.037,0.037,0.071,0.083,0.1,0.139
			c0.002,0.003,0.003,0.006,0.005,0.009c0.042,0.082,0.074,0.188,0.093,0.308S18.337,38.548,18.324,38.601"/>
	</g>
</g>
</svg>
