<?xml version="1.0" encoding="utf-8"?>
<!-- Generator: Adobe Illustrator 16.0.0, SVG Export Plug-In . SVG Version: 6.00 Build 0)  -->
<!DOCTYPE svg PUBLIC "-//W3C//DTD SVG 1.1//EN" "http://www.w3.org/Graphics/SVG/1.1/DTD/svg11.dtd">
<svg version="1.1" id="Modo_de_isolamento" xmlns="http://www.w3.org/2000/svg" xmlns:xlink="http://www.w3.org/1999/xlink" x="0px"
	 y="0px" width="201.667px" height="65.332px" viewBox="0 0 201.667 65.332" enable-background="new 0 0 201.667 65.332"
	 xml:space="preserve">
<g>
	<path fill="#FFFFFF" d="M138.729,21.505v1.576h-2.722c-0.481,0-0.865,0.135-1.151,0.404c-0.285,0.27-0.469,0.568-0.548,0.896
		c-0.081,0.328-0.139,0.633-0.177,0.91c-0.035,0.277-0.053,0.553-0.053,0.826v0.166v0.143c0,0.119,0.004,0.25,0.01,0.391
		c0.008,0.141,0.023,0.311,0.043,0.512c0.024,0.201,0.073,0.418,0.149,0.648c0.076,0.23,0.183,0.443,0.323,0.641
		c0.182,0.223,0.38,0.361,0.591,0.416c0.212,0.055,0.484,0.084,0.82,0.084h2.715v1.602h-2.777c-0.525,0-0.971-0.053-1.339-0.16
		c-0.368-0.107-0.738-0.322-1.11-0.648c-0.445-0.443-0.759-0.977-0.946-1.602c-0.185-0.623-0.278-1.297-0.278-2.025v-0.551
		c0-0.332,0.028-0.658,0.088-0.975c0.057-0.314,0.131-0.613,0.218-0.896c0.087-0.281,0.191-0.529,0.308-0.742
		c0.117-0.215,0.289-0.453,0.516-0.719c0.226-0.264,0.5-0.459,0.822-0.584c0.322-0.123,0.623-0.205,0.906-0.248
		c0.281-0.043,0.565-0.064,0.849-0.064H138.729z"/>
	<path fill="#FFFFFF" d="M140.1,24.081c0.168-0.676,0.395-1.176,0.68-1.5c0.285-0.324,0.548-0.563,0.789-0.711
		c0.241-0.148,0.495-0.266,0.763-0.346c0.267-0.082,0.505-0.135,0.718-0.16c0.213-0.027,0.457-0.039,0.735-0.039
		c0.526,0,0.942,0.045,1.245,0.135c0.303,0.09,0.512,0.156,0.625,0.199c0.113,0.041,0.276,0.129,0.483,0.262
		c0.208,0.133,0.393,0.301,0.554,0.506c0.372,0.42,0.643,0.963,0.813,1.635c0.167,0.67,0.25,1.357,0.25,2.057
		c0,0.693-0.083,1.383-0.25,2.07c-0.17,0.688-0.445,1.242-0.83,1.658c-0.384,0.42-0.835,0.703-1.356,0.848
		c-0.517,0.145-1.022,0.219-1.512,0.219c-0.49,0-0.961-0.066-1.415-0.193c-0.153-0.033-0.294-0.08-0.422-0.135
		c-0.127-0.057-0.286-0.143-0.477-0.262c-0.19-0.119-0.383-0.285-0.576-0.494s-0.357-0.455-0.494-0.736
		c-0.135-0.283-0.264-0.672-0.383-1.166c-0.121-0.496-0.182-1.107-0.182-1.834C139.857,25.384,139.938,24.714,140.1,24.081
		 M141.789,24.743c-0.087,0.41-0.132,0.861-0.132,1.355c0,0.486,0.072,1.061,0.213,1.721c0.143,0.66,0.428,1.08,0.852,1.256
		c0.423,0.174,0.781,0.262,1.075,0.262c0.284,0,0.559-0.047,0.821-0.143c0.629-0.264,1.021-0.822,1.175-1.676
		c0.102-0.434,0.153-0.895,0.153-1.381c0-0.494-0.035-0.898-0.103-1.209c-0.072-0.311-0.117-0.51-0.145-0.594
		c-0.024-0.086-0.079-0.215-0.163-0.391c-0.085-0.174-0.204-0.344-0.356-0.506c-0.154-0.162-0.318-0.273-0.489-0.34
		c-0.172-0.063-0.328-0.107-0.466-0.133c-0.139-0.025-0.282-0.039-0.427-0.039c-0.271,0-0.538,0.047-0.802,0.141
		C142.425,23.306,142.021,23.864,141.789,24.743"/>
	<polygon fill="#FFFFFF" points="150.958,30.72 149.258,30.72 149.258,21.505 151.705,21.505 153.7,28.567 155.708,21.505 
		158.131,21.505 158.131,30.72 156.497,30.72 156.628,23.556 154.622,30.72 152.855,30.72 150.784,23.491 	"/>
	<path fill="#FFFFFF" d="M161.817,30.72h-1.656v-9.215h3.597c0.548,0,1.001,0.027,1.361,0.084c0.357,0.055,0.676,0.186,0.954,0.393
		c0.365,0.24,0.64,0.592,0.822,1.055c0.182,0.465,0.275,0.961,0.275,1.492c0,0.473-0.072,0.92-0.214,1.34
		c-0.143,0.42-0.348,0.748-0.614,0.986c-0.268,0.234-0.505,0.385-0.713,0.449s-0.374,0.111-0.5,0.141
		c-0.124,0.031-0.247,0.047-0.372,0.047h-0.932h-2.008V30.72z M163.737,23.157h-1.92v2.705h2.008c1,0,1.502-0.449,1.502-1.346
		c0-0.539-0.141-0.898-0.422-1.084C164.624,23.251,164.233,23.157,163.737,23.157"/>
	<path fill="#FFFFFF" d="M173.937,29.194v1.525h-2.105h-0.144h-0.121c-0.306,0-0.579-0.018-0.817-0.051
		c-0.238-0.035-0.496-0.125-0.773-0.27s-0.521-0.348-0.734-0.604c-0.213-0.256-0.368-0.531-0.467-0.826
		c-0.098-0.295-0.166-0.607-0.203-0.941c-0.035-0.334-0.055-0.678-0.055-1.039v-5.484h1.647v5.063v0.57
		c0,0.158,0.011,0.375,0.037,0.646c0.026,0.273,0.1,0.521,0.224,0.744c0.11,0.223,0.293,0.389,0.549,0.5s0.585,0.166,0.987,0.166
		H173.937z"/>
	<path fill="#FFFFFF" d="M181.176,21.505v1.602h-2.721c-0.592,0-1.05,0.182-1.377,0.545c-0.324,0.363-0.487,0.9-0.487,1.607h4.585
		v1.604h-4.585c0,0.77,0.12,1.311,0.362,1.621c0.241,0.311,0.466,0.496,0.674,0.551c0.209,0.055,0.485,0.084,0.828,0.084h2.721
		v1.602h-2.785c-0.528,0-0.976-0.053-1.344-0.16c-0.369-0.107-0.742-0.322-1.114-0.648c-0.446-0.443-0.763-0.977-0.948-1.602
		c-0.188-0.623-0.281-1.297-0.281-2.025l0.023-0.551c0-0.332,0.029-0.658,0.087-0.975c0.059-0.314,0.132-0.613,0.219-0.896
		c0.088-0.281,0.192-0.529,0.307-0.742c0.118-0.215,0.289-0.453,0.517-0.719c0.225-0.264,0.5-0.459,0.821-0.584
		c0.322-0.123,0.624-0.205,0.906-0.248c0.281-0.043,0.565-0.064,0.85-0.064H181.176z"/>
	<polygon fill="#FFFFFF" points="184.028,30.72 182.075,30.72 184.818,26.118 182.163,21.505 184.092,21.505 185.716,24.438 
		187.33,21.505 189.238,21.505 186.705,25.989 189.424,30.72 187.439,30.72 185.784,27.515 	"/>
	<path fill="#FFFFFF" d="M190.258,24.081c0.169-0.676,0.395-1.176,0.68-1.5c0.285-0.324,0.548-0.563,0.789-0.711
		c0.242-0.148,0.496-0.266,0.764-0.346c0.266-0.082,0.506-0.135,0.717-0.16c0.213-0.027,0.458-0.039,0.736-0.039
		c0.526,0,0.942,0.045,1.244,0.135c0.303,0.09,0.512,0.156,0.625,0.199c0.114,0.041,0.276,0.129,0.485,0.262
		c0.207,0.133,0.391,0.301,0.552,0.506c0.373,0.42,0.644,0.963,0.811,1.635c0.169,0.67,0.253,1.357,0.253,2.057
		c0,0.693-0.084,1.383-0.253,2.07c-0.167,0.688-0.443,1.242-0.827,1.658c-0.384,0.42-0.835,0.703-1.355,0.848
		c-0.519,0.145-1.024,0.219-1.513,0.219c-0.491,0-0.962-0.066-1.415-0.193c-0.155-0.033-0.295-0.08-0.423-0.135
		c-0.127-0.057-0.287-0.143-0.477-0.262c-0.19-0.119-0.382-0.285-0.575-0.494c-0.194-0.209-0.359-0.455-0.493-0.736
		c-0.137-0.283-0.264-0.672-0.385-1.166c-0.12-0.496-0.18-1.107-0.18-1.834C190.018,25.384,190.097,24.714,190.258,24.081
		 M191.948,24.743c-0.088,0.41-0.133,0.861-0.133,1.355c0,0.486,0.072,1.061,0.215,1.721s0.426,1.08,0.85,1.256
		c0.423,0.174,0.783,0.262,1.074,0.262c0.285,0,0.56-0.047,0.824-0.143c0.627-0.264,1.02-0.822,1.173-1.676
		c0.102-0.434,0.153-0.895,0.153-1.381c0-0.494-0.034-0.898-0.103-1.209c-0.071-0.311-0.117-0.51-0.144-0.594
		c-0.025-0.086-0.081-0.215-0.164-0.391c-0.083-0.174-0.202-0.344-0.356-0.506c-0.155-0.162-0.317-0.273-0.489-0.34
		c-0.171-0.063-0.327-0.107-0.465-0.133c-0.14-0.025-0.283-0.039-0.429-0.039c-0.27,0-0.537,0.047-0.8,0.141
		C192.583,23.306,192.181,23.864,191.948,24.743"/>
	<path fill="#FFFFFF" d="M138.75,35.995v1.602h-2.721c-0.592,0-1.05,0.182-1.377,0.545c-0.325,0.365-0.487,0.9-0.487,1.609h4.585
		v1.602h-4.585c0,0.77,0.121,1.311,0.361,1.621c0.242,0.313,0.467,0.496,0.675,0.551c0.209,0.057,0.485,0.084,0.828,0.084h2.721
		v1.604h-2.787c-0.526,0-0.974-0.055-1.343-0.16c-0.37-0.107-0.741-0.324-1.113-0.648c-0.445-0.443-0.763-0.979-0.948-1.602
		c-0.188-0.625-0.281-1.299-0.281-2.025l0.022-0.551c0-0.334,0.03-0.658,0.088-0.975c0.057-0.316,0.132-0.615,0.219-0.896
		c0.088-0.283,0.19-0.531,0.307-0.744s0.289-0.453,0.516-0.717c0.226-0.268,0.502-0.461,0.823-0.584
		c0.321-0.123,0.624-0.207,0.905-0.25c0.281-0.043,0.565-0.064,0.849-0.064H138.75z"/>
	<path fill="#FFFFFF" d="M142.448,35.995h4.354v1.654h-4.092c-0.863,0-1.295,0.402-1.295,1.205c0,0.342,0.099,0.59,0.297,0.742
		c0.191,0.172,0.441,0.256,0.756,0.256h2.183c0.424,0,0.801,0.035,1.13,0.104c0.3,0.076,0.609,0.283,0.927,0.621
		c0.318,0.338,0.476,0.965,0.476,1.879c0,0.248-0.015,0.475-0.049,0.684c-0.032,0.209-0.097,0.457-0.197,0.738
		c-0.097,0.281-0.266,0.531-0.504,0.744c-0.237,0.213-0.521,0.363-0.849,0.447c-0.301,0.094-0.688,0.143-1.164,0.143h-4.41v-1.654
		h4.147c0.409,0,0.726-0.07,0.948-0.213c0.224-0.141,0.334-0.408,0.334-0.801v-0.191c-0.019-0.266-0.079-0.457-0.174-0.576
		c-0.126-0.129-0.266-0.213-0.424-0.258c-0.158-0.043-0.345-0.063-0.566-0.063h-1.956c-0.843,0-1.492-0.205-1.951-0.615
		c-0.458-0.41-0.687-1.098-0.687-2.064c0-0.486,0.07-0.922,0.208-1.307c0.14-0.385,0.33-0.682,0.572-0.891
		c0.242-0.209,0.519-0.355,0.833-0.443C141.581,36.042,141.964,35.995,142.448,35.995"/>
	<path fill="#FFFFFF" d="M150.004,45.21h-1.656v-9.215h3.597c0.547,0,1.002,0.029,1.36,0.084c0.359,0.057,0.677,0.188,0.955,0.393
		c0.365,0.24,0.639,0.592,0.822,1.055c0.182,0.465,0.274,0.963,0.274,1.494c0,0.473-0.071,0.918-0.213,1.338
		c-0.144,0.422-0.348,0.75-0.614,0.984c-0.268,0.236-0.505,0.387-0.713,0.451s-0.374,0.111-0.499,0.143
		c-0.125,0.029-0.249,0.045-0.373,0.045h-0.932h-2.008V45.21z M151.923,37.649h-1.919v2.703h2.008c1,0,1.501-0.447,1.501-1.346
		c0-0.539-0.141-0.898-0.422-1.082C152.812,37.741,152.421,37.649,151.923,37.649"/>
	<path fill="#FFFFFF" d="M156.136,38.571c0.167-0.676,0.394-1.174,0.679-1.498c0.285-0.326,0.549-0.563,0.79-0.713
		c0.241-0.148,0.495-0.264,0.763-0.346c0.267-0.08,0.505-0.133,0.719-0.16c0.212-0.025,0.456-0.037,0.734-0.037
		c0.526,0,0.941,0.043,1.245,0.133c0.304,0.09,0.511,0.156,0.625,0.199c0.113,0.041,0.274,0.131,0.482,0.264
		c0.209,0.133,0.392,0.301,0.554,0.504c0.373,0.42,0.644,0.965,0.812,1.635c0.169,0.672,0.251,1.357,0.251,2.059
		c0,0.691-0.082,1.381-0.251,2.068c-0.168,0.688-0.444,1.242-0.828,1.66c-0.384,0.42-0.835,0.701-1.355,0.846
		c-0.518,0.146-1.023,0.219-1.513,0.219c-0.491,0-0.961-0.064-1.415-0.191c-0.154-0.035-0.294-0.08-0.422-0.135
		c-0.128-0.057-0.286-0.145-0.478-0.264c-0.189-0.121-0.383-0.283-0.576-0.494c-0.193-0.209-0.358-0.455-0.492-0.736
		c-0.137-0.281-0.264-0.67-0.385-1.166c-0.121-0.494-0.182-1.107-0.182-1.834C155.893,39.874,155.974,39.204,156.136,38.571
		 M157.824,39.235c-0.087,0.408-0.131,0.859-0.131,1.355c0,0.486,0.071,1.059,0.213,1.719c0.144,0.662,0.427,1.08,0.851,1.256
		c0.423,0.174,0.783,0.262,1.074,0.262c0.285,0,0.56-0.047,0.824-0.141c0.629-0.264,1.02-0.824,1.174-1.676
		c0.1-0.436,0.152-0.896,0.152-1.381c0-0.496-0.035-0.898-0.103-1.209c-0.071-0.313-0.117-0.51-0.143-0.596
		c-0.025-0.086-0.082-0.217-0.164-0.391c-0.085-0.174-0.203-0.344-0.358-0.504c-0.152-0.164-0.316-0.275-0.488-0.34
		s-0.326-0.109-0.465-0.135s-0.282-0.037-0.429-0.037c-0.27,0-0.536,0.047-0.799,0.139C158.46,37.798,158.058,38.356,157.824,39.235
		"/>
	<path fill="#FFFFFF" d="M166.468,45.21h-1.657v-9.215h4.07c0.204,0,0.415,0.012,0.631,0.039c0.215,0.025,0.457,0.074,0.723,0.146
		c0.268,0.072,0.518,0.244,0.752,0.514c0.235,0.27,0.406,0.578,0.516,0.93c0.096,0.375,0.142,0.76,0.142,1.152
		c0,0.436-0.054,0.83-0.164,1.18c-0.125,0.359-0.3,0.654-0.527,0.891c-0.228,0.234-0.522,0.404-0.889,0.506l1.942,3.857h-1.854
		l-1.744-3.602h-1.941V45.21z M168.497,37.649h-2.029v2.332h2.029c0.3,0,0.55-0.021,0.752-0.064c0.2-0.043,0.377-0.152,0.531-0.332
		c0.132-0.182,0.197-0.441,0.197-0.783c0-0.496-0.129-0.811-0.388-0.947C169.329,37.718,168.963,37.649,168.497,37.649"/>
	<polygon fill="#FFFFFF" points="176.393,45.212 174.672,45.212 174.672,37.624 172.15,37.624 172.15,36.021 178.938,36.021 
		178.938,37.624 176.393,37.624 	"/>
	<rect x="179.673" y="35.995" fill="#FFFFFF" width="1.733" height="9.217"/>
	<polygon fill="#FFFFFF" points="190.247,35.995 186.979,45.212 185.256,45.212 181.834,35.995 183.699,35.995 186.068,42.853 
		188.493,35.995 	"/>
	<path fill="#FFFFFF" d="M190.324,38.571c0.168-0.676,0.395-1.174,0.68-1.498c0.285-0.326,0.548-0.563,0.789-0.713
		c0.242-0.148,0.495-0.264,0.762-0.346c0.268-0.08,0.506-0.133,0.719-0.16c0.213-0.025,0.457-0.037,0.735-0.037
		c0.526,0,0.941,0.043,1.245,0.133c0.303,0.09,0.512,0.156,0.626,0.199c0.112,0.041,0.273,0.131,0.482,0.264
		c0.208,0.133,0.392,0.301,0.554,0.504c0.373,0.42,0.643,0.965,0.811,1.635c0.169,0.672,0.253,1.357,0.253,2.059
		c0,0.691-0.084,1.381-0.253,2.068c-0.168,0.688-0.444,1.242-0.827,1.66c-0.384,0.42-0.835,0.701-1.355,0.846
		c-0.519,0.146-1.024,0.219-1.513,0.219c-0.491,0-0.963-0.064-1.416-0.191c-0.154-0.035-0.294-0.08-0.422-0.135
		c-0.129-0.057-0.288-0.145-0.479-0.264c-0.189-0.121-0.381-0.283-0.574-0.494c-0.193-0.209-0.358-0.455-0.494-0.736
		c-0.136-0.281-0.264-0.67-0.383-1.166c-0.121-0.494-0.182-1.107-0.182-1.834C190.082,39.874,190.162,39.204,190.324,38.571
		 M192.012,39.235c-0.086,0.408-0.131,0.859-0.131,1.355c0,0.486,0.071,1.059,0.215,1.719c0.141,0.662,0.424,1.08,0.85,1.256
		c0.423,0.174,0.781,0.262,1.074,0.262c0.285,0,0.558-0.047,0.822-0.141c0.629-0.264,1.02-0.824,1.174-1.676
		c0.102-0.436,0.153-0.896,0.153-1.381c0-0.496-0.034-0.898-0.104-1.209c-0.069-0.313-0.117-0.51-0.143-0.596
		c-0.024-0.086-0.08-0.217-0.164-0.391s-0.203-0.344-0.356-0.504c-0.154-0.164-0.316-0.275-0.489-0.34
		c-0.171-0.064-0.327-0.109-0.465-0.135c-0.139-0.025-0.283-0.037-0.428-0.037c-0.272,0-0.537,0.047-0.801,0.139
		C192.649,37.798,192.247,38.356,192.012,39.235"/>
	<path fill="#FFFFFF" d="M133.881,59.528h-1.658v-9.217h3.602c0.548,0,1.003,0.029,1.363,0.086c0.357,0.055,0.676,0.186,0.953,0.391
		c0.367,0.242,0.642,0.592,0.824,1.057c0.184,0.463,0.275,0.961,0.275,1.492c0,0.475-0.072,0.92-0.214,1.338
		c-0.143,0.422-0.348,0.75-0.616,0.986c-0.266,0.236-0.504,0.387-0.712,0.451c-0.209,0.064-0.375,0.111-0.5,0.141
		s-0.249,0.045-0.374,0.045h-0.933h-2.01V59.528z M135.802,51.966h-1.921v2.705h2.01c1.004,0,1.505-0.449,1.505-1.346
		c0-0.539-0.142-0.898-0.423-1.084C136.691,52.058,136.3,51.966,135.802,51.966"/>
	<path fill="#FFFFFF" d="M140.514,55.901v-5.59h1.658v5.539c0,0.17,0.006,0.344,0.022,0.52c0.015,0.176,0.041,0.375,0.083,0.6
		c0.038,0.229,0.124,0.434,0.251,0.617c0.129,0.184,0.31,0.324,0.545,0.422c0.234,0.1,0.527,0.148,0.878,0.148
		c0.467,0,0.829-0.086,1.081-0.256c0.253-0.172,0.429-0.418,0.527-0.738c0.1-0.32,0.149-0.758,0.149-1.313v-5.539h1.647v5.59
		c0,0.238-0.009,0.479-0.023,0.717c-0.013,0.24-0.033,0.475-0.055,0.705c-0.058,0.385-0.27,0.865-0.634,1.443
		c-0.362,0.576-1.264,0.865-2.703,0.865c-1.461,0-2.364-0.268-2.705-0.803c-0.341-0.533-0.535-0.9-0.583-1.102
		c-0.048-0.199-0.084-0.361-0.105-0.48c-0.022-0.119-0.033-0.256-0.033-0.41v-0.34v-0.314V55.901z"/>
	<path fill="#FFFFFF" d="M155.074,50.312v1.578h-2.724c-0.482,0-0.867,0.135-1.152,0.404c-0.286,0.27-0.469,0.568-0.549,0.896
		c-0.081,0.328-0.139,0.633-0.176,0.91c-0.036,0.277-0.054,0.553-0.054,0.826v0.166v0.143c0,0.119,0.003,0.25,0.009,0.391
		c0.009,0.141,0.024,0.313,0.045,0.512c0.022,0.201,0.072,0.418,0.148,0.648c0.077,0.23,0.184,0.443,0.324,0.641
		c0.182,0.223,0.379,0.361,0.591,0.416c0.211,0.057,0.486,0.082,0.821,0.082h2.717v1.604h-2.78c-0.525,0-0.971-0.053-1.34-0.16
		c-0.368-0.107-0.738-0.322-1.111-0.648c-0.446-0.443-0.76-0.977-0.947-1.602c-0.185-0.623-0.278-1.297-0.278-2.025v-0.551
		c0-0.334,0.029-0.658,0.088-0.975c0.057-0.316,0.131-0.613,0.219-0.896c0.087-0.281,0.19-0.529,0.307-0.744
		c0.117-0.213,0.289-0.451,0.517-0.717c0.226-0.266,0.501-0.459,0.824-0.584c0.32-0.123,0.624-0.207,0.905-0.25
		c0.282-0.041,0.566-0.064,0.851-0.064H155.074z"/>
	<polygon fill="#FFFFFF" points="161.597,59.528 159.895,59.528 159.895,50.312 162.342,50.312 164.341,57.376 166.35,50.312 
		168.778,50.312 168.778,59.528 167.141,59.528 167.274,52.364 165.264,59.528 163.495,59.528 161.421,52.3 	"/>
	<rect x="170.566" y="50.313" fill="#FFFFFF" width="1.735" height="9.215"/>
	<polygon fill="#FFFFFF" points="175.827,59.528 174.125,59.528 174.125,50.312 176.233,50.312 179.45,56.952 179.385,50.312 
		181.054,50.312 181.054,59.528 179.143,59.528 175.762,52.567 	"/>
	<path fill="#FFFFFF" d="M183.513,59.528h-1.757l3.317-9.217h1.757l3.37,9.217h-1.844l-0.725-2.205h-3.437L183.513,59.528z
		 M184.731,55.696h2.362l-1.196-3.525L184.731,55.696z"/>
	<path fill="#FFFFFF" d="M193.242,50.312h4.359v1.654h-4.094c-0.864,0-1.296,0.402-1.296,1.205c0,0.342,0.098,0.59,0.296,0.742
		c0.189,0.172,0.443,0.258,0.757,0.258h2.186c0.424,0,0.801,0.035,1.131,0.102c0.301,0.078,0.609,0.285,0.928,0.623
		c0.318,0.338,0.476,0.963,0.476,1.877c0,0.248-0.015,0.477-0.049,0.686c-0.033,0.209-0.097,0.455-0.197,0.738
		c-0.1,0.281-0.268,0.529-0.506,0.742c-0.237,0.213-0.521,0.363-0.849,0.449c-0.301,0.094-0.689,0.141-1.164,0.141h-4.415v-1.652
		h4.15c0.411,0,0.726-0.072,0.95-0.213c0.223-0.141,0.336-0.408,0.336-0.801v-0.193c-0.023-0.264-0.081-0.457-0.176-0.576
		c-0.127-0.129-0.267-0.213-0.425-0.256c-0.157-0.043-0.346-0.064-0.566-0.064h-1.958c-0.844,0-1.494-0.205-1.953-0.615
		c-0.458-0.41-0.688-1.098-0.688-2.063c0-0.488,0.07-0.924,0.209-1.309c0.139-0.383,0.329-0.68,0.571-0.889
		c0.242-0.211,0.519-0.357,0.836-0.443C192.375,50.36,192.759,50.312,193.242,50.312"/>
	<path fill="#FFFFFF" d="M85.354,43.251v-2.852v-2.854c0,0,0.005-0.307,0.033-0.803h-6.663c0,0-4.286-0.076-6.574-1.645
		c-1.853-1.27-2.278-1.939-3.386-3.467c-1.627-2.246-1.693-6.285-1.693-6.285v-1.881v-1.881c0,0,0.066-4.039,1.693-6.285
		c1.108-1.527,1.533-2.197,3.386-3.467c2.288-1.568,6.574-1.645,6.574-1.645h15.433V3.329H74.396c0,0-5.486,0.115-8.418,2.494
		c-2.37,1.924-2.917,2.939-4.334,5.256c-2.084,3.408-2.167,9.533-2.167,9.533v2.854v2.854c0,0,0.083,6.125,2.167,9.531
		c1.417,2.318,1.964,3.334,4.334,5.258c2.932,2.381,8.418,2.494,8.418,2.494h10.969C85.356,43.384,85.354,43.251,85.354,43.251"/>
	<path fill="#FFFFFF" d="M123.631,53.677h-1.879h-15.47c0,0-4.284-0.076-6.575-1.645c-1.85-1.27-2.277-1.938-3.385-3.467
		c-1.48-2.043-1.593-4.963-1.593-4.963v0.004c-0.088-0.789-0.098-1.326-0.098-1.326s-0.062-1.41-0.062-1.881
		s0.062-1.881,0.062-1.881s0.013-0.748,0.154-1.775c0.19-1.365,0.61-3.229,1.537-4.512c1.108-1.525,1.535-2.195,3.385-3.465
		c2.291-1.568,6.575-1.645,6.575-1.645h11.361h0.029c-0.193,1.361-0.611,3.244-1.529,4.51c-1.109,1.527-1.535,2.197-3.388,3.467
		c-2.069,1.418-5.759,1.615-6.453,1.641v0.004h-2.483h-0.446h-0.009h-2.481h-0.447h-0.009h-2.483h-0.446h-0.009h-1.022
		c-0.142,1.027-0.154,1.775-0.154,1.775s-0.063,1.41-0.063,1.881s0.063,1.881,0.063,1.881s0.009,0.537,0.097,1.322h1.079H97.5h0.572
		h2.355h0.01h0.574h2.353h0.011h0.572h2.355h4.204c0,0,5.49-0.113,8.424-2.494c2.371-1.924,2.919-2.939,4.335-5.258
		c0.814-1.33,1.323-3.086,1.641-4.73c0,0,0.077-0.346,0.1-0.525c0.078-0.639,0.072-0.662,0.072-1.281
		c0-4.834-2.232-8.869-8.541-9.053h-14.582c0,0-5.487,0.117-8.419,2.496c-2.37,1.924-2.917,2.939-4.333,5.256
		c-2.086,3.408-2.168,9.533-2.168,9.533v2.854v2.852c0,0,0.082,6.127,2.168,9.533c1.416,2.318,1.963,3.334,4.333,5.258
		c2.932,2.379,8.419,2.496,8.419,2.496h19.809h2.403h1.227v-6.861H123.631z"/>
	<g>
		<path fill="#D6378C" d="M51.177,41.925c5.828-11.99,4.646-26.568-7.459-34.268S14.494,2.796,7.34,14.042
			C0.187,25.29,3.47,39.149,13.179,47.974c4.793,4.357,16.208,12.336,21.898,11.58C40.063,58.892,47.315,49.87,51.177,41.925"/>
		<path fill="#FFFFFF" d="M41.701,38.218c0.53,0.248,1.108,0.432,1.732,0.555c0.542,0.107,1.086,0.156,1.625,0.152
			c0.591-0.006,1.178-0.078,1.754-0.219c0.515-0.127,1.03-0.305,1.534-0.537c0.77-0.355,1.408-0.773,1.946-1.281
			c0.205-0.193,0.38-0.389,0.531-0.592c0.114-0.152,0.212-0.309,0.296-0.471c0.051-0.098,0.099-0.199,0.14-0.301
			c0.133-0.33,0.204-0.658,0.214-0.98c0.01-0.316-0.039-0.629-0.146-0.936c-0.119-0.336-0.303-0.605-0.524-0.813
			c-0.483-0.453-1.145-0.605-1.687-0.488c-0.062,0.014-0.125,0.027-0.188,0.043c-0.008,0.002-0.016,0.002-0.024,0.004
			c-0.196,0.049-0.369,0.102-0.523,0.162c-0.09,0.035-0.175,0.072-0.256,0.113c-0.041,0.021-0.082,0.041-0.122,0.063
			c-0.123,0.061-0.241,0.121-0.355,0.178c-0.349,0.172-0.661,0.32-0.958,0.453c-0.209,0.094-0.421,0.166-0.628,0.217
			c-0.037,0.01-0.073,0.018-0.109,0.025c-0.146,0.029-0.291,0.041-0.433,0.035c-0.2-0.008-0.396-0.049-0.588-0.125
			c-0.313-0.125-0.513-0.318-0.612-0.59c-0.007-0.02-0.015-0.039-0.021-0.059c-0.109-0.367-0.008-0.703,0.292-0.971
			c0.156-0.139,0.318-0.25,0.489-0.334c0.119-0.057,0.242-0.104,0.367-0.135c0.116-0.027,0.234-0.045,0.354-0.049
			c0.457-0.016,0.939-0.02,1.476-0.008c0.012,0,0.024,0,0.037,0c0.154,0.002,0.32,0,0.492-0.008c0.135-0.008,0.272-0.02,0.414-0.041
			c0.101-0.016,0.204-0.035,0.306-0.059c0.063-0.016,0.126-0.033,0.189-0.053c0.159-0.051,0.309-0.121,0.449-0.205
			c0.356-0.215,0.643-0.533,0.814-0.92c0.012-0.025,0.021-0.053,0.031-0.08c0.206-0.52,0.191-1.102-0.045-1.613
			c-0.012-0.027-0.027-0.051-0.041-0.078c-0.122-0.242-0.278-0.457-0.475-0.646c-0.05-0.049-0.104-0.096-0.16-0.143
			c-0.04-0.031-0.081-0.064-0.123-0.096c-0.1-0.072-0.203-0.139-0.311-0.199c-0.257-0.148-0.536-0.266-0.834-0.35
			c-1.375-0.379-3.546-0.303-4.778,0.111c-0.949,0.318-2.218,0.861-2.97,1.555c-1.008,0.93-2.451,2.602-2.089,5.031
			c0.046,0.314,0.087,0.629,0.178,0.936c0.156,0.525,0.406,1.039,0.752,1.547c0.599,0.875,1.362,1.557,2.279,2.043L41.701,38.218z"
			/>
		<path fill="#FFFFFF" d="M18.41,23.845c0.196-0.148,0.354-0.316,0.472-0.502c0.214-0.338,0.295-0.742,0.224-1.24
			c-0.002-0.012-0.005-0.023-0.007-0.037c-0.026-0.168-0.068-0.34-0.128-0.516c-0.126-0.373-0.329-0.762-0.58-1.156
			c-0.062-0.1-0.125-0.197-0.194-0.297c-0.223-0.326-0.462-0.66-0.691-1.004c-0.119-0.176-0.232-0.354-0.342-0.533
			c-0.271-0.441-0.566-0.924-0.708-1.439c-0.064-0.232-0.046-0.469,0.017-0.668c0.057-0.18,0.158-0.346,0.316-0.502
			c0.139-0.139,0.288-0.279,0.447-0.426c0.27-0.246,0.527-0.531,0.734-0.832c0.293-0.426,0.45-0.869,0.459-1.289
			c0.017-0.832-0.55-1.6-1.376-1.936c-0.094-0.039-0.192-0.07-0.291-0.096c-0.251-0.068-0.517-0.1-0.802-0.094
			c-0.154,0.004-0.308,0.018-0.463,0.039c-0.133,0.018-0.268,0.043-0.404,0.076c-0.104,0.023-0.208,0.051-0.314,0.082
			c-0.204,0.059-0.404,0.123-0.607,0.193c-0.646,0.221-1.305,0.475-1.985,0.883c-0.059,0.037-0.118,0.072-0.18,0.111
			c-0.037,0.023-0.073,0.045-0.11,0.066c-0.035,0.021-0.07,0.043-0.105,0.066c-0.638,0.398-1.258,0.912-1.781,1.43
			C9.9,14.337,9.795,14.448,9.695,14.56c-0.354,0.4-0.643,0.811-0.854,1.232c-0.001,0-0.001,0.002-0.002,0.004
			c-0.127,0.256-0.218,0.502-0.268,0.746c-0.035,0.168-0.05,0.338-0.047,0.512c0.001,0.08,0.01,0.162,0.021,0.24
			c0.069,0.504,0.325,1.025,0.705,1.377c0.263,0.246,0.575,0.41,0.913,0.492c0.389,0.096,0.789,0.076,1.204-0.037
			c0.151-0.041,0.306-0.09,0.474-0.145c0.147-0.049,0.286-0.057,0.418-0.02c0.231,0.063,0.441,0.262,0.631,0.615
			c0.163,0.303,0.34,0.637,0.545,1.035c0.169,0.328,0.331,0.656,0.494,0.977c0.217,0.434,0.43,0.844,0.63,1.164
			c0.077,0.123,0.153,0.242,0.23,0.354c0.132,0.191,0.263,0.355,0.396,0.5c0.231,0.252,0.469,0.432,0.72,0.557
			c0.045,0.023,0.091,0.047,0.137,0.064c0.292,0.119,0.587,0.166,0.879,0.156c0.409-0.012,0.813-0.131,1.182-0.336
			C18.227,23.966,18.289,23.927,18.41,23.845"/>
		<path fill="#FFFFFF" d="M21.492,10.468c0.061,0.078,0.13,0.15,0.208,0.217c0.143,0.115,0.314,0.207,0.521,0.266
			c0.005,0.002,0.01,0.004,0.016,0.004c0.069,0.02,0.14,0.035,0.211,0.045c0.153,0.02,0.309,0.018,0.467-0.008
			c0.039-0.008,0.079-0.014,0.117-0.023c0.128-0.031,0.262-0.07,0.395-0.117c0.07-0.023,0.14-0.051,0.209-0.078
			c0.172-0.07,0.352-0.158,0.558-0.277c0.094-0.055,0.188-0.08,0.287-0.078c0.089,0.002,0.182,0.027,0.278,0.078
			c0.084,0.043,0.168,0.086,0.25,0.133c0.141,0.078,0.286,0.135,0.432,0.17c0.207,0.049,0.409,0.041,0.593-0.008
			c0.367-0.104,0.672-0.381,0.729-0.783c0.006-0.047,0.009-0.094,0.008-0.141c0-0.123-0.023-0.256-0.068-0.398
			c-0.025-0.076-0.056-0.154-0.092-0.232c-0.031-0.068-0.067-0.137-0.107-0.205c-0.03-0.055-0.064-0.107-0.099-0.162
			c-0.069-0.105-0.142-0.207-0.218-0.309c-0.246-0.326-0.561-0.645-0.835-0.936c-0.989-1.045-2.295-0.24-3.014,0.576
			c-0.071,0.08-0.154,0.166-0.239,0.268c-0.071,0.08-0.137,0.156-0.199,0.23c-0.083,0.1-0.159,0.195-0.229,0.287
			c-0.027,0.035-0.053,0.07-0.078,0.105c-0.042,0.059-0.081,0.117-0.115,0.176c-0.06,0.098-0.105,0.193-0.138,0.291
			c-0.006,0.016-0.012,0.035-0.017,0.051c-0.032,0.111-0.046,0.215-0.042,0.318c0.006,0.143,0.048,0.279,0.13,0.42
			C21.442,10.396,21.458,10.419,21.492,10.468"/>
		<path fill="#FFFFFF" d="M29.293,13.938c-0.196-0.363-0.436-0.711-0.719-1.043c-0.146-0.172-0.305-0.328-0.473-0.475
			c-0.388-0.334-0.831-0.598-1.327-0.783c-0.012-0.004-0.022-0.008-0.034-0.014c-0.088-0.031-0.176-0.063-0.264-0.09
			c-0.313-0.098-0.627-0.166-0.941-0.205c-0.116-0.014-0.232-0.023-0.348-0.031c-0.252-0.014-0.502-0.014-0.749-0.004
			c-0.983,0.039-1.914,0.26-2.727,0.654c-0.07,0.033-0.141,0.068-0.21,0.102c0,0.002-0.001,0.002-0.002,0.002
			c-0.854,0.432-1.498,0.967-1.984,1.502c-0.249,0.277-0.458,0.553-0.629,0.818c-0.181,0.277-0.322,0.541-0.431,0.775
			c-0.057,0.119-0.104,0.232-0.144,0.332c-0.047,0.121-0.088,0.238-0.125,0.355c-0.127,0.4-0.201,0.797-0.221,1.189
			c-0.03,0.605,0.065,1.207,0.288,1.814c0.032,0.086,0.066,0.172,0.102,0.256c0.271,0.637,0.642,1.182,1.11,1.629
			c0.324,0.307,0.694,0.568,1.109,0.783c0.096,0.049,0.192,0.096,0.292,0.141c0.235,0.104,0.475,0.191,0.719,0.266
			c0.313,0.096,0.633,0.164,0.957,0.207c0.085,0.012,0.172,0.023,0.259,0.031c0.282,0.027,0.56,0.037,0.834,0.033
			c0.884-0.014,1.729-0.189,2.524-0.525c0.111-0.047,0.22-0.098,0.33-0.15l0.286-0.148c0.15-0.082,0.3-0.168,0.446-0.262
			c0.224-0.143,0.43-0.293,0.623-0.447c0.3-0.24,0.565-0.498,0.795-0.773c0.104-0.125,0.203-0.254,0.294-0.387
			c0.113-0.164,0.218-0.332,0.313-0.502c0.151-0.27,0.278-0.543,0.379-0.818c0.184-0.5,0.286-1.012,0.308-1.529
			c0.013-0.311-0.002-0.627-0.05-0.945C29.795,15.083,29.596,14.495,29.293,13.938 M24.667,16.923
			c-0.014,0.039-0.032,0.076-0.053,0.109c-0.036,0.061-0.081,0.113-0.136,0.16c-0.03,0.025-0.063,0.049-0.1,0.072
			c-0.022,0.014-0.047,0.027-0.072,0.039c-0.02,0.012-0.041,0.02-0.062,0.029c-0.047,0.018-0.097,0.033-0.15,0.043
			c-0.035,0.008-0.07,0.012-0.108,0.016c-0.024,0.002-0.049,0.006-0.074,0.006h-0.046c-0.017,0.002-0.034,0-0.05,0
			c-0.123-0.006-0.243-0.033-0.356-0.082c-0.035-0.014-0.07-0.031-0.104-0.051c-0.011-0.006-0.021-0.01-0.031-0.018
			c-0.039-0.023-0.075-0.051-0.11-0.078c-0.026-0.021-0.051-0.045-0.075-0.07c-0.01-0.01-0.02-0.021-0.028-0.033
			c-0.04-0.047-0.071-0.098-0.093-0.152c-0.032-0.076-0.045-0.16-0.04-0.248c0.001-0.012,0.002-0.023,0.003-0.035
			c0.01-0.082,0.035-0.156,0.078-0.225c0.027-0.043,0.061-0.086,0.103-0.125c0.012-0.01,0.025-0.021,0.039-0.033
			c0.011-0.008,0.024-0.018,0.039-0.029c0.028-0.02,0.063-0.043,0.104-0.064c0.038-0.021,0.083-0.041,0.132-0.059
			c0.096-0.033,0.212-0.061,0.349-0.061l0,0c0.011,0,0.022-0.002,0.033-0.002c0.129,0.002,0.262,0.029,0.39,0.08
			c0.032,0.012,0.064,0.025,0.096,0.041c0.014,0.008,0.028,0.016,0.042,0.023c0.039,0.023,0.074,0.049,0.107,0.076
			c0.01,0.01,0.019,0.018,0.028,0.025c0.001,0.002,0.002,0.002,0.003,0.004c0.052,0.051,0.092,0.104,0.121,0.166
			c0.012,0.025,0.022,0.051,0.03,0.078c0.015,0.057,0.024,0.107,0.026,0.16C24.706,16.769,24.695,16.847,24.667,16.923"/>
		<path fill="#FFFFFF" d="M43.851,23.394c-0.103-0.381-0.259-0.752-0.466-1.107c-0.63-1.08-1.475-1.975-2.517-2.672
			c-0.211-0.141-0.43-0.273-0.658-0.398c-0.296-0.162-0.619-0.289-0.933-0.41c-0.004-0.002-0.007-0.004-0.01-0.004
			c-0.319-0.125-0.672-0.203-1.081-0.244c-0.412-0.039-0.809-0.012-1.183,0.084c-0.014,0.004-0.029,0.008-0.044,0.012
			c-0.257,0.07-0.507,0.174-0.746,0.307c-0.375,0.213-0.704,0.512-1.002,0.912c-0.218,0.293-0.409,0.635-0.581,1.047
			c-0.117,0.275-0.218,0.557-0.309,0.84c-0.244,0.768-0.397,1.561-0.452,2.369c-0.045,0.656-0.001,1.242,0.134,1.787
			c0.021,0.061,0.042,0.119,0.063,0.18c0.025,0.076,0.054,0.154,0.082,0.23c0.02,0.053,0.04,0.105,0.062,0.154
			c0.062,0.139,0.13,0.266,0.204,0.381c0.079,0.123,0.166,0.236,0.259,0.336c0.145,0.156,0.309,0.285,0.491,0.389
			c0.024,0.014,0.048,0.023,0.072,0.037c0.115,0.059,0.233,0.104,0.352,0.135c0.226,0.059,0.457,0.072,0.681,0.035
			c0.1-0.016,0.169-0.035,0.237-0.059c0.083-0.025,0.166-0.059,0.243-0.1c0.083-0.043,0.162-0.092,0.237-0.148
			c0.113-0.088,0.218-0.191,0.311-0.309c0.004-0.006,0.01-0.014,0.014-0.018c0.086-0.113,0.157-0.24,0.225-0.367
			c0.031-0.063,0.061-0.121,0.091-0.182c0.013-0.027,0.027-0.055,0.041-0.084c0.049-0.098,0.089-0.205,0.13-0.309
			c0.026-0.07,0.052-0.139,0.082-0.207c0.071-0.166,0.164-0.311,0.276-0.438c0.193-0.219,0.45-0.381,0.773-0.49
			c0.006-0.002,0.012-0.004,0.018-0.006c0.023-0.008,0.046-0.014,0.069-0.021c0.249-0.066,0.493-0.055,0.725,0.035
			c0.001,0.002,0.003,0.002,0.004,0.002c0.183,0.074,0.359,0.164,0.506,0.244c0.11,0.059,0.22,0.123,0.327,0.184
			c0.106,0.063,0.215,0.125,0.326,0.184c0.021,0.012,0.042,0.025,0.063,0.035c0.143,0.074,0.282,0.137,0.416,0.184
			c0.14,0.049,0.276,0.086,0.412,0.107c0.089,0.016,0.176,0.023,0.265,0.025c0.039,0.002,0.077,0,0.115,0.002
			c0.163-0.004,0.322-0.025,0.472-0.066c0.165-0.045,0.318-0.111,0.458-0.197c0.217-0.133,0.401-0.314,0.543-0.535
			c0.059-0.092,0.112-0.188,0.155-0.293c0.04-0.096,0.074-0.191,0.099-0.291c0.054-0.201,0.075-0.408,0.065-0.619
			c-0.005-0.098-0.015-0.195-0.031-0.293C43.911,23.638,43.883,23.517,43.851,23.394 M39.218,22.964
			c0,0.027-0.004,0.053-0.014,0.078c-0.005,0.012-0.01,0.025-0.017,0.035c-0.006,0.014-0.014,0.025-0.023,0.039
			c-0.024,0.029-0.052,0.053-0.085,0.074c-0.022,0.014-0.046,0.025-0.071,0.033c-0.024,0.01-0.048,0.016-0.073,0.021
			c-0.006,0-0.011,0.002-0.017,0.004c-0.013,0-0.026,0.004-0.039,0.004c-0.02,0.004-0.038,0.004-0.057,0.004
			c-0.018,0.002-0.035,0.002-0.052,0c-0.002,0-0.005,0-0.007,0c-0.013,0-0.025-0.002-0.036-0.002c-0.011,0-0.023,0-0.033-0.002
			c-0.015,0-0.032,0-0.048,0c0,0,0,0,0,0c-0.021,0.002-0.044,0.006-0.07,0.008c-0.003,0-0.005,0-0.008,0c0,0-0.001,0-0.002,0.002
			c-0.037,0.006-0.082,0.008-0.125,0.016c-0.024,0.006-0.05,0.014-0.073,0.023c-0.009,0.004-0.019,0.01-0.028,0.012
			c-0.014,0.008-0.028,0.016-0.043,0.021c-0.003,0.002-0.007,0.004-0.012,0.006c-0.008,0.006-0.018,0.008-0.027,0.014
			c-0.02,0.01-0.04,0.02-0.061,0.027c-0.001,0-0.002,0.002-0.003,0.002c-0.022,0.008-0.045,0.018-0.068,0.025
			c-0.015,0.004-0.03,0.008-0.045,0.012c-0.014,0.002-0.028,0.006-0.042,0.006c-0.012,0.002-0.022,0.004-0.038,0.006
			c-0.035,0.002-0.069-0.002-0.101-0.014c-0.017-0.006-0.034-0.014-0.049-0.021c-0.003-0.004-0.007-0.004-0.011-0.008
			c-0.025-0.014-0.048-0.035-0.066-0.057c-0.012-0.016-0.024-0.031-0.034-0.051c-0.009-0.014-0.017-0.033-0.024-0.051
			c-0.002-0.008-0.004-0.016-0.006-0.023c-0.003-0.008-0.006-0.02-0.008-0.031c-0.002-0.006-0.003-0.016-0.004-0.025
			c-0.008-0.074,0-0.154,0.029-0.246c0.035-0.111,0.088-0.203,0.14-0.303c0.019-0.035,0.039-0.072,0.058-0.109
			c0.028-0.059,0.056-0.107,0.086-0.148c0.042-0.055,0.084-0.098,0.135-0.125c0.032-0.016,0.065-0.029,0.1-0.035
			c0.002,0,0.004,0,0.006,0c0.051-0.01,0.108-0.012,0.164,0c0.055,0.008,0.103,0.027,0.146,0.055c0.001,0,0.001,0,0.001,0
			c0.043,0.025,0.088,0.055,0.128,0.088c0.031,0.025,0.063,0.049,0.092,0.072c0.146,0.123,0.257,0.217,0.354,0.342
			c0.031,0.043,0.058,0.09,0.071,0.139c0.003,0.016,0.007,0.031,0.01,0.047C39.218,22.94,39.218,22.952,39.218,22.964"/>
		<path fill="#FFFFFF" d="M27.61,23.655c-0.271-0.197-0.621-0.414-0.691-0.455c-0.469-0.271-0.963-0.406-1.471-0.41
			c-0.079,0-0.159,0.002-0.239,0.008c-0.285,0.023-0.533,0.082-0.759,0.18c-0.077,0.031-0.165,0.078-0.209,0.104
			c-0.035,0.021-0.07,0.041-0.104,0.063c-0.031,0.021-0.061,0.043-0.091,0.064c-0.169,0.127-0.316,0.268-0.443,0.426
			c-0.142,0.176-0.257,0.375-0.347,0.594c-0.052,0.129-0.095,0.266-0.13,0.408c-0.054,0.223-0.083,0.453-0.087,0.699
			c-0.004,0.221,0.01,0.451,0.046,0.693c0.063,0.441,0.186,0.859,0.308,1.244c0.077,0.242,0.161,0.475,0.25,0.701
			c0.278,0.703,0.62,1.332,1.036,1.908c0.152,0.213,0.309,0.404,0.47,0.58c0.239,0.262,0.489,0.484,0.754,0.676
			c0.11,0.078,0.219,0.148,0.329,0.209c0.135,0.076,0.27,0.141,0.405,0.189c0.108,0.039,0.217,0.07,0.327,0.094
			c0.119,0.023,0.238,0.035,0.357,0.037c0.166,0,0.329-0.021,0.488-0.068c0.076-0.021,0.152-0.047,0.227-0.08
			c0.374-0.164,0.68-0.459,0.864-0.832c0.123-0.246,0.162-0.506,0.232-0.744c0.092-0.316,0-1.045,0.008-1.137
			c0.024-0.299,0.456-0.066,0.636,0.029c0.335,0.182,0.672,0.336,0.994,0.475c0.395,0.17,0.845,0.453,1.527,0.229
			c0.076-0.025,0.163-0.064,0.208-0.086c0.034-0.018,0.07-0.033,0.104-0.053c0.031-0.018,0.061-0.035,0.092-0.055
			c0.169-0.109,0.321-0.232,0.452-0.375c0.148-0.16,0.272-0.34,0.374-0.543c0.059-0.117,0.109-0.242,0.153-0.377
			c0.067-0.205,0.11-0.424,0.132-0.656c0.019-0.209,0.021-0.426,0.005-0.662c-0.029-0.42-0.116-0.822-0.206-1.195
			c-0.056-0.234-0.12-0.463-0.189-0.682c-0.217-0.684-0.498-1.303-0.855-1.873c-0.131-0.211-0.267-0.404-0.408-0.582
			c-0.209-0.262-0.432-0.492-0.671-0.688c-0.1-0.082-0.199-0.154-0.299-0.219c-0.124-0.08-0.247-0.148-0.374-0.203
			c-0.101-0.045-0.202-0.082-0.305-0.111c-0.111-0.031-0.225-0.049-0.338-0.057c-0.158-0.012-0.316-0.002-0.47,0.029
			c-0.076,0.016-0.15,0.037-0.223,0.064c-0.368,0.131-0.682,0.391-0.884,0.732c-0.133,0.227-0.189,0.469-0.273,0.689
			c-0.111,0.295-0.074,0.992-0.087,1.076c-0.044,0.283-0.445,0.053-0.612-0.051"/>
		<path fill="#FFFFFF" d="M36.925,32.899c-0.281-0.469-0.583-0.857-0.923-1.188c-0.035-0.033-0.068-0.064-0.104-0.096
			c-0.125-0.115-0.25-0.217-0.377-0.309c-0.103-0.074-0.206-0.143-0.311-0.201c-0.095-0.055-0.189-0.102-0.288-0.145
			c-0.155-0.066-0.311-0.121-0.466-0.16c-0.448-0.117-0.893-0.123-1.33-0.018c-0.042,0.01-0.085,0.021-0.128,0.035
			c-0.258,0.076-0.496,0.188-0.716,0.33c-0.272,0.176-0.518,0.4-0.729,0.678c-0.19,0.248-0.342,0.51-0.457,0.779
			c-0.105,0.252-0.18,0.512-0.219,0.781c-0.022,0.152-0.032,0.309-0.034,0.467c0,0.107,0.003,0.219,0.013,0.328
			c0.014,0.156,0.032,0.314,0.065,0.475c0.064,0.322,0.17,0.637,0.274,0.928c0.1,0.279,0.168,0.553,0.206,0.826
			c0.023,0.17,0.035,0.338,0.035,0.51c0,0.246-0.026,0.564-0.225,0.85c-0.07,0.102-0.168,0.17-0.277,0.197
			c-0.028,0.006-0.056,0.01-0.083,0.01c-0.142,0.006-0.275-0.064-0.358-0.193c-0.125-0.193-0.229-0.408-0.299-0.613
			c-0.088-0.262-0.166-0.531-0.241-0.791c-0.048-0.166-0.097-0.332-0.147-0.498c-0.084-0.271-0.193-0.529-0.325-0.775
			c-0.309-0.574-0.751-1.082-1.336-1.537c-0.015-0.012-0.03-0.023-0.044-0.035c-0.088-0.066-0.178-0.129-0.27-0.188
			c-0.104-0.064-0.209-0.123-0.316-0.176c-0.118-0.057-0.237-0.105-0.358-0.146c-0.134-0.045-0.267-0.08-0.398-0.105
			c-0.373-0.072-0.735-0.066-1.083,0.018c-0.024,0.006-0.048,0.014-0.072,0.021c-0.213,0.059-0.424,0.146-0.629,0.264
			c-0.411,0.234-0.742,0.541-1.002,0.924c-0.171,0.252-0.312,0.535-0.422,0.857c-0.015,0.041-0.028,0.084-0.042,0.127
			c-0.038,0.125-0.069,0.258-0.096,0.396c-0.031,0.16-0.054,0.33-0.071,0.514c-0.004,0.047-0.01,0.092-0.014,0.143
			c-0.102,1.404,0.188,2.807,0.886,4.283c0.383,0.809,0.933,1.521,1.643,2.127c0.316,0.271,0.663,0.52,1.042,0.746
			c0.108,0.066,0.218,0.127,0.329,0.186c0.081,0.041,0.192,0.094,0.253,0.123c0.728,0.344,1.49,0.533,2.275,0.564
			c1.003,0.039,1.935-0.043,2.844-0.256c0.035-0.008,0.07-0.016,0.104-0.023c0.027-0.008,0.053-0.014,0.08-0.02
			c0.033-0.008,0.066-0.016,0.099-0.025c1.243-0.301,2.331-0.836,3.234-1.584c1.015-0.844,1.695-1.83,2.038-2.947
			c0.172-0.559,0.261-1.152,0.262-1.775c0-0.504-0.053-0.988-0.158-1.438C37.997,35.026,37.548,33.937,36.925,32.899"/>
		<path fill="#FFFFFF" d="M22.498,36.509c-0.073-0.266-0.168-0.529-0.29-0.789c-0.083-0.178-0.173-0.344-0.271-0.5
			c-0.204-0.328-0.439-0.605-0.709-0.832c-0.21-0.178-0.44-0.326-0.691-0.445c-0.011-0.006-0.022-0.01-0.034-0.016
			c-0.281-0.131-0.575-0.221-0.878-0.273c-0.332-0.059-0.676-0.072-1.035-0.051c-0.613,0.039-1.211,0.148-1.809,0.301
			c-0.48,0.123-0.962,0.301-1.437,0.557c-0.277,0.148-0.556,0.322-0.824,0.512c-0.346,0.242-0.661,0.5-0.942,0.766
			c-0.307,0.289-0.575,0.59-0.802,0.904c-0.083,0.115-0.157,0.23-0.226,0.344c-0.228,0.379-0.381,0.758-0.466,1.139
			c-0.112,0.506-0.103,1.018-0.006,1.549c0.045,0.248,0.108,0.498,0.189,0.754c0.09,0.289,0.188,0.576,0.286,0.867
			c0.163,0.48,0.324,0.977,0.503,1.535c0.043,0.098,0.084,0.195,0.125,0.295c0.087,0.211,0.176,0.438,0.274,0.65
			c0.067,0.146,0.139,0.289,0.214,0.436c0.299,0.574,0.67,1.148,1.154,1.746c0.001,0.002,0.002,0.002,0.002,0.004
			c0.095,0.115,0.193,0.229,0.294,0.336c0.121,0.129,0.245,0.25,0.374,0.365c0.125,0.109,0.254,0.213,0.387,0.309
			c0.008,0.004,0.015,0.012,0.021,0.016c0.152,0.107,0.303,0.199,0.456,0.279c0.292,0.154,0.59,0.26,0.911,0.313
			c0.329,0.053,0.668,0.033,1.019-0.053c0,0.004,0.235-0.063,0.436-0.143c0.21-0.088,0.424-0.199,0.631-0.342
			c0.215-0.148,0.414-0.314,0.589-0.494c0.084-0.086,0.117-0.166,0.142-0.252c0.052-0.18,0.079-0.379,0.08-0.596
			c0.001-0.195-0.018-0.404-0.055-0.627c-0.021-0.127-0.049-0.26-0.083-0.395c-0.088-0.354-0.218-0.734-0.387-1.141
			c-0.104-0.252-0.229-0.512-0.349-0.762c-0.02-0.041-0.04-0.082-0.059-0.123c-0.175-0.367-0.24-0.668-0.188-0.896
			c0.033-0.146,0.113-0.262,0.243-0.348c0.28-0.182,0.594-0.34,0.958-0.482c1.181-0.465,1.985-1.035,2.301-2.27
			C22.715,37.987,22.697,37.241,22.498,36.509 M18.324,38.601c0,0,0,0,0,0.002c-0.014,0.051-0.031,0.096-0.053,0.133
			c-0.018,0.025-0.036,0.051-0.054,0.07c-0.088,0.102-0.143,0.152-0.268,0.205c-0.041,0.02-0.081,0.039-0.123,0.051
			c-0.013,0.004-0.027,0.006-0.04,0.008c-0.011,0.004-0.021,0.004-0.032,0.004c-0.022,0.002-0.044,0-0.066-0.004
			c-0.011-0.002-0.021-0.006-0.032-0.01c-0.012-0.004-0.024-0.01-0.035-0.016c-0.027-0.014-0.054-0.033-0.076-0.057
			c-0.015-0.016-0.029-0.031-0.041-0.051c-0.012-0.018-0.021-0.037-0.03-0.055c-0.002-0.004-0.004-0.01-0.006-0.014
			c-0.005-0.01-0.216-0.516-0.223-0.531c0,0,0,0-0.001-0.002c-0.008-0.014-0.015-0.029-0.021-0.045
			c-0.004-0.012-0.009-0.021-0.012-0.031c-0.004-0.012-0.007-0.021-0.01-0.031c-0.003-0.01-0.005-0.018-0.008-0.029
			c-0.006-0.027-0.01-0.053-0.007-0.08c0.001-0.014,0.004-0.029,0.009-0.043c0.001-0.002,0.002-0.006,0.003-0.008
			c0.009-0.023,0.022-0.045,0.042-0.066c0.012-0.014,0.027-0.025,0.044-0.039c0.016-0.012,0.034-0.023,0.054-0.035
			c0.008-0.004,0.015-0.008,0.023-0.012c0.011-0.006,0.023-0.014,0.035-0.018c0.009-0.006,0.018-0.01,0.027-0.016
			c0.083-0.035,0.174-0.064,0.25-0.074c0.095-0.014,0.114-0.008,0.136-0.01c0.008,0,0.02,0,0.036,0.002
			c0.026,0.002,0.063,0.004,0.105,0.018c0.058,0.02,0.123,0.051,0.181,0.109c0.037,0.037,0.071,0.082,0.1,0.139
			c0.002,0.002,0.003,0.006,0.005,0.008c0.042,0.082,0.074,0.189,0.093,0.309S18.337,38.548,18.324,38.601"/>
	</g>
</g>
</svg>
