<?xml version="1.0" encoding="utf-8"?>
<!-- Generator: Adobe Illustrator 16.0.0, SVG Export Plug-In . SVG Version: 6.00 Build 0)  -->
<!DOCTYPE svg PUBLIC "-//W3C//DTD SVG 1.1//EN" "http://www.w3.org/Graphics/SVG/1.1/DTD/svg11.dtd">
<svg version="1.1" id="Modo_de_isolamento" xmlns="http://www.w3.org/2000/svg" xmlns:xlink="http://www.w3.org/1999/xlink" x="0px"
	 y="0px" width="80px" height="124.5px" viewBox="0 0 80 124.5" enable-background="new 0 0 80 124.5" xml:space="preserve">
<g>
	<g>
		<path fill="#D6378C" d="M68.665,57.549c8.845-15.798,8.388-35.656-7.421-47.046s-39.239-8.888-49.823,5.8
			C0.837,30.991,4.2,50.04,16.672,62.768c6.157,6.283,21.007,17.996,28.78,17.42C52.265,79.682,62.806,68.02,68.665,57.549"/>
		<path fill="#FFFFFF" d="M56.11,51.778c0.698,0.379,1.468,0.675,2.307,0.89c0.725,0.188,1.46,0.296,2.189,0.334
			c0.801,0.038,1.603-0.014,2.396-0.16c0.707-0.13,1.42-0.333,2.121-0.607c1.073-0.42,1.97-0.938,2.74-1.583
			c0.293-0.246,0.546-0.497,0.765-0.762c0.169-0.197,0.313-0.402,0.44-0.614c0.076-0.129,0.147-0.262,0.211-0.396
			c0.206-0.438,0.33-0.877,0.368-1.313c0.039-0.429-0.004-0.855-0.123-1.278c-0.134-0.467-0.363-0.847-0.647-1.145
			c-0.62-0.651-1.505-0.91-2.25-0.795c-0.083,0.014-0.171,0.029-0.257,0.044c-0.012,0.002-0.021,0.003-0.033,0.004
			c-0.271,0.052-0.508,0.109-0.722,0.179c-0.124,0.041-0.245,0.085-0.356,0.135c-0.058,0.023-0.113,0.047-0.171,0.073
			c-0.171,0.074-0.336,0.145-0.494,0.213c-0.487,0.206-0.923,0.383-1.335,0.539c-0.292,0.111-0.584,0.193-0.87,0.247
			c-0.048,0.008-0.1,0.017-0.148,0.024c-0.2,0.028-0.396,0.033-0.589,0.015c-0.271-0.028-0.535-0.099-0.789-0.217
			c-0.415-0.195-0.67-0.473-0.783-0.849c-0.008-0.028-0.017-0.054-0.024-0.081c-0.119-0.507,0.044-0.953,0.472-1.293
			c0.223-0.174,0.452-0.313,0.688-0.413c0.165-0.068,0.337-0.121,0.509-0.154c0.158-0.028,0.321-0.043,0.483-0.037
			c0.62,0.014,1.274,0.046,2.002,0.104c0.016,0.001,0.031,0.002,0.049,0.003c0.21,0.017,0.433,0.025,0.668,0.028
			c0.184,0,0.372-0.005,0.565-0.023c0.137-0.013,0.279-0.031,0.419-0.056c0.088-0.017,0.175-0.036,0.261-0.057
			c0.22-0.056,0.428-0.14,0.625-0.243c0.5-0.264,0.913-0.671,1.177-1.182c0.018-0.035,0.032-0.071,0.049-0.106
			c0.319-0.688,0.346-1.479,0.065-2.192c-0.015-0.036-0.032-0.071-0.05-0.108c-0.145-0.338-0.34-0.643-0.593-0.914
			c-0.064-0.07-0.136-0.138-0.205-0.205c-0.053-0.047-0.104-0.095-0.159-0.14c-0.129-0.106-0.266-0.203-0.407-0.295
			c-0.336-0.222-0.706-0.401-1.104-0.538c-1.835-0.622-4.783-0.69-6.486-0.225c-1.313,0.356-3.075,0.992-4.149,1.874
			c-1.439,1.18-3.526,3.335-3.226,6.656c0.037,0.432,0.067,0.858,0.166,1.283c0.172,0.726,0.47,1.44,0.898,2.155
			c0.744,1.233,1.727,2.219,2.931,2.95L56.11,51.778z"/>
		<path fill="#FFFFFF" d="M25.661,30.462c0.275-0.186,0.503-0.4,0.679-0.643c0.316-0.443,0.458-0.982,0.4-1.664
			c-0.002-0.017-0.004-0.032-0.005-0.052c-0.023-0.23-0.065-0.467-0.135-0.708c-0.143-0.518-0.385-1.059-0.696-1.613
			c-0.075-0.14-0.153-0.278-0.237-0.419c-0.278-0.459-0.576-0.932-0.859-1.413c-0.147-0.25-0.287-0.5-0.422-0.751
			c-0.333-0.621-0.695-1.297-0.848-2.009c-0.068-0.32-0.025-0.638,0.075-0.903c0.092-0.239,0.24-0.456,0.467-0.656
			c0.198-0.176,0.414-0.356,0.641-0.542c0.384-0.313,0.756-0.679,1.061-1.07c0.43-0.555,0.679-1.144,0.723-1.711
			c0.09-1.128-0.619-2.213-1.714-2.733c-0.124-0.061-0.255-0.109-0.385-0.152c-0.336-0.112-0.693-0.177-1.081-0.19
			c-0.21-0.006-0.418-0.001-0.631,0.016c-0.181,0.015-0.366,0.039-0.554,0.073c-0.144,0.022-0.285,0.054-0.432,0.087
			c-0.281,0.063-0.558,0.135-0.838,0.213c-0.893,0.248-1.808,0.542-2.762,1.043c-0.081,0.044-0.165,0.088-0.252,0.136
			c-0.051,0.027-0.104,0.056-0.154,0.082c-0.048,0.026-0.099,0.052-0.146,0.081c-0.897,0.49-1.778,1.137-2.528,1.8
			c-0.158,0.141-0.311,0.284-0.453,0.428c-0.515,0.513-0.935,1.048-1.257,1.603c0,0.001-0.002,0.002-0.003,0.005
			c-0.192,0.336-0.337,0.663-0.422,0.99c-0.062,0.227-0.096,0.456-0.104,0.69c-0.006,0.11,0.001,0.22,0.008,0.328
			c0.055,0.689,0.361,1.417,0.848,1.923c0.339,0.353,0.749,0.6,1.199,0.739c0.521,0.159,1.063,0.163,1.637,0.044
			c0.205-0.044,0.421-0.098,0.65-0.16c0.204-0.054,0.395-0.053,0.569,0.007c0.31,0.104,0.577,0.388,0.807,0.884
			c0.197,0.423,0.411,0.892,0.657,1.445c0.204,0.46,0.399,0.916,0.594,1.365c0.26,0.604,0.517,1.176,0.763,1.628
			c0.095,0.173,0.188,0.34,0.284,0.496c0.164,0.27,0.328,0.503,0.497,0.71c0.295,0.357,0.603,0.62,0.933,0.81
			c0.06,0.035,0.119,0.07,0.181,0.101c0.386,0.184,0.782,0.269,1.181,0.278c0.554,0.018,1.112-0.113,1.628-0.362
			C25.401,30.612,25.488,30.563,25.661,30.462"/>
		<path fill="#FFFFFF" d="M30.889,12.566c0.075,0.112,0.165,0.216,0.265,0.31c0.185,0.169,0.41,0.307,0.687,0.403
			c0.005,0.002,0.013,0.005,0.02,0.007c0.095,0.03,0.188,0.058,0.283,0.077c0.205,0.038,0.417,0.047,0.634,0.025
			c0.053-0.008,0.107-0.013,0.161-0.022c0.178-0.033,0.36-0.074,0.544-0.128c0.098-0.027,0.195-0.058,0.29-0.09
			c0.239-0.082,0.489-0.186,0.779-0.333c0.131-0.065,0.261-0.093,0.393-0.082c0.121,0.01,0.245,0.051,0.371,0.129
			c0.111,0.064,0.222,0.129,0.33,0.199c0.184,0.115,0.377,0.203,0.571,0.263c0.277,0.082,0.55,0.09,0.806,0.036
			c0.506-0.11,0.941-0.462,1.05-1.003c0.012-0.063,0.018-0.127,0.021-0.192c0.009-0.166-0.012-0.347-0.062-0.544
			c-0.028-0.105-0.064-0.214-0.105-0.323c-0.038-0.095-0.082-0.19-0.131-0.286c-0.038-0.076-0.079-0.15-0.122-0.227
			c-0.085-0.147-0.176-0.294-0.271-0.436c-0.308-0.462-0.711-0.92-1.059-1.335c-1.259-1.495-3.092-0.507-4.131,0.544
			c-0.102,0.104-0.222,0.214-0.346,0.343c-0.103,0.104-0.198,0.203-0.289,0.299c-0.119,0.129-0.23,0.251-0.333,0.372
			c-0.04,0.045-0.076,0.09-0.113,0.137c-0.064,0.076-0.119,0.152-0.17,0.228c-0.09,0.13-0.158,0.256-0.212,0.386
			c-0.009,0.021-0.019,0.045-0.025,0.066c-0.052,0.148-0.079,0.287-0.081,0.427c-0.002,0.196,0.044,0.386,0.143,0.582
			C30.826,12.464,30.848,12.498,30.889,12.566"/>
		<path fill="#FFFFFF" d="M41.194,17.886c-0.237-0.507-0.536-0.999-0.893-1.472c-0.185-0.242-0.387-0.469-0.604-0.68
			c-0.5-0.482-1.08-0.874-1.738-1.167c-0.016-0.005-0.028-0.012-0.045-0.019c-0.115-0.051-0.233-0.099-0.351-0.144
			c-0.416-0.158-0.838-0.275-1.259-0.353c-0.157-0.027-0.313-0.051-0.472-0.07c-0.339-0.038-0.68-0.058-1.015-0.064
			c-1.335-0.024-2.614,0.204-3.747,0.674c-0.1,0.041-0.196,0.081-0.294,0.122c-0.001,0.001-0.001,0.001-0.003,0.001
			c-1.192,0.518-2.106,1.192-2.807,1.882c-0.361,0.355-0.665,0.714-0.918,1.059c-0.268,0.363-0.479,0.709-0.646,1.019
			c-0.085,0.157-0.158,0.307-0.22,0.439c-0.072,0.16-0.137,0.316-0.197,0.472c-0.203,0.533-0.334,1.063-0.393,1.596
			c-0.088,0.819-0.007,1.642,0.247,2.48c0.037,0.121,0.077,0.24,0.118,0.356c0.316,0.886,0.778,1.653,1.376,2.295
			c0.416,0.443,0.897,0.826,1.444,1.149c0.126,0.073,0.253,0.146,0.384,0.215c0.313,0.157,0.629,0.296,0.954,0.415
			c0.419,0.154,0.846,0.272,1.282,0.358c0.115,0.022,0.23,0.044,0.35,0.061c0.378,0.061,0.755,0.096,1.127,0.111
			c1.199,0.051,2.358-0.12,3.462-0.514c0.155-0.056,0.308-0.115,0.461-0.178l0.397-0.181c0.211-0.099,0.421-0.204,0.627-0.32
			c0.314-0.175,0.605-0.36,0.878-0.556c0.426-0.303,0.806-0.632,1.141-0.987c0.15-0.161,0.296-0.326,0.429-0.5
			c0.166-0.215,0.322-0.435,0.466-0.656c0.224-0.353,0.418-0.714,0.577-1.08c0.288-0.664,0.466-1.348,0.537-2.049
			c0.041-0.421,0.045-0.851,0.006-1.285C41.784,19.478,41.562,18.664,41.194,17.886 M34.687,21.568
			c-0.021,0.053-0.048,0.102-0.08,0.146c-0.053,0.078-0.118,0.146-0.195,0.206c-0.045,0.032-0.091,0.061-0.143,0.089
			c-0.031,0.019-0.065,0.035-0.1,0.049c-0.028,0.013-0.058,0.023-0.086,0.034c-0.066,0.021-0.136,0.037-0.208,0.046
			c-0.049,0.008-0.096,0.012-0.146,0.015c-0.035,0-0.068,0.003-0.103,0.002l-0.063-0.004c-0.021,0-0.045-0.003-0.067-0.005
			c-0.167-0.018-0.327-0.065-0.478-0.14c-0.046-0.021-0.093-0.049-0.137-0.077c-0.015-0.008-0.027-0.015-0.04-0.025
			c-0.051-0.035-0.101-0.074-0.145-0.116c-0.033-0.03-0.066-0.064-0.096-0.1c-0.013-0.016-0.024-0.031-0.035-0.047
			c-0.051-0.067-0.088-0.14-0.114-0.214c-0.036-0.107-0.049-0.22-0.034-0.341c0.002-0.017,0.005-0.03,0.008-0.046
			c0.021-0.112,0.062-0.211,0.123-0.299c0.04-0.058,0.09-0.111,0.148-0.161c0.017-0.014,0.037-0.028,0.057-0.044
			c0.015-0.009,0.032-0.021,0.055-0.036c0.039-0.024,0.089-0.053,0.146-0.078c0.054-0.025,0.117-0.049,0.185-0.068
			c0.133-0.039,0.29-0.065,0.476-0.057l0,0c0.016,0.001,0.031,0.001,0.045,0.001c0.176,0.014,0.354,0.06,0.523,0.139
			c0.042,0.019,0.087,0.041,0.126,0.064c0.02,0.011,0.038,0.023,0.056,0.035c0.051,0.033,0.095,0.069,0.141,0.111
			c0.012,0.013,0.023,0.025,0.036,0.036c0.003,0.004,0.003,0.004,0.005,0.005c0.064,0.073,0.115,0.149,0.15,0.235
			c0.014,0.034,0.026,0.071,0.035,0.109c0.016,0.075,0.023,0.147,0.021,0.219C34.751,21.364,34.73,21.467,34.687,21.568"/>
		<path fill="#FFFFFF" d="M60.188,31.849c-0.109-0.524-0.293-1.041-0.544-1.539c-0.771-1.513-1.845-2.792-3.203-3.818
			c-0.276-0.207-0.561-0.406-0.86-0.594c-0.389-0.243-0.816-0.439-1.231-0.629c-0.005-0.003-0.011-0.004-0.013-0.007
			c-0.426-0.193-0.896-0.327-1.449-0.415c-0.554-0.085-1.095-0.078-1.608,0.021c-0.02,0.004-0.041,0.007-0.063,0.012
			c-0.353,0.075-0.701,0.197-1.035,0.358c-0.524,0.26-0.994,0.64-1.43,1.157c-0.319,0.379-0.604,0.827-0.872,1.373
			c-0.179,0.365-0.338,0.739-0.484,1.116c-0.391,1.021-0.659,2.084-0.797,3.177c-0.113,0.886-0.102,1.683,0.041,2.433
			c0.022,0.083,0.047,0.166,0.07,0.248c0.028,0.107,0.061,0.214,0.091,0.32c0.024,0.073,0.047,0.145,0.073,0.214
			c0.073,0.191,0.154,0.369,0.246,0.531c0.098,0.174,0.205,0.334,0.324,0.477c0.186,0.224,0.396,0.409,0.636,0.564
			c0.031,0.021,0.064,0.037,0.095,0.057c0.152,0.088,0.307,0.159,0.467,0.212c0.303,0.097,0.613,0.132,0.921,0.1
			c0.137-0.015,0.232-0.033,0.326-0.061c0.115-0.029,0.229-0.067,0.337-0.117c0.115-0.05,0.228-0.11,0.333-0.182
			c0.16-0.11,0.312-0.241,0.446-0.396c0.007-0.007,0.015-0.016,0.021-0.021c0.125-0.147,0.23-0.312,0.333-0.48
			c0.047-0.081,0.092-0.159,0.136-0.238c0.021-0.037,0.042-0.073,0.063-0.11c0.074-0.129,0.138-0.271,0.202-0.409
			c0.039-0.094,0.082-0.184,0.127-0.274c0.107-0.218,0.247-0.408,0.408-0.571c0.279-0.28,0.639-0.48,1.087-0.603
			c0.008-0.002,0.017-0.007,0.025-0.008c0.031-0.008,0.063-0.016,0.094-0.022c0.343-0.072,0.673-0.037,0.979,0.104
			c0.002,0.003,0.006,0.004,0.006,0.004c0.242,0.114,0.474,0.249,0.667,0.369c0.146,0.089,0.288,0.184,0.429,0.275
			c0.139,0.092,0.282,0.188,0.428,0.275c0.026,0.017,0.055,0.036,0.083,0.053c0.187,0.111,0.37,0.205,0.549,0.281
			c0.186,0.077,0.366,0.138,0.549,0.177c0.12,0.028,0.237,0.047,0.357,0.057c0.054,0.004,0.104,0.006,0.155,0.01
			c0.221,0.009,0.439-0.009,0.645-0.054c0.229-0.046,0.44-0.124,0.636-0.23c0.307-0.163,0.57-0.394,0.778-0.683
			c0.088-0.119,0.168-0.245,0.233-0.384c0.063-0.127,0.116-0.256,0.158-0.387c0.088-0.27,0.133-0.55,0.136-0.836
			c0.002-0.132-0.003-0.265-0.018-0.4C60.251,32.186,60.224,32.02,60.188,31.849 M53.941,30.903
			c-0.002,0.036-0.011,0.069-0.023,0.104c-0.008,0.017-0.017,0.033-0.027,0.047c-0.01,0.019-0.021,0.034-0.034,0.05
			c-0.035,0.038-0.075,0.07-0.122,0.095c-0.03,0.017-0.064,0.03-0.098,0.04c-0.034,0.012-0.068,0.018-0.102,0.022
			c-0.008,0.001-0.015,0.001-0.022,0.005c-0.019,0-0.036,0.002-0.053,0.003c-0.027,0.002-0.053,0.002-0.078,0
			c-0.024,0.001-0.048-0.001-0.07-0.005c-0.004,0.001-0.007,0-0.011-0.001c-0.017-0.001-0.033-0.003-0.048-0.004
			c-0.016-0.001-0.031-0.002-0.045-0.005c-0.021-0.001-0.043-0.005-0.067-0.004l0,0c-0.028,0-0.06,0.003-0.095,0.004
			c-0.006,0-0.008,0.001-0.01,0.001c-0.003,0-0.004-0.001-0.004,0.001c-0.051,0.005-0.111,0.005-0.171,0.012
			c-0.034,0.007-0.069,0.014-0.103,0.026c-0.012,0.006-0.025,0.012-0.038,0.014c-0.019,0.008-0.039,0.019-0.061,0.026
			c-0.005,0.002-0.01,0.003-0.016,0.007c-0.014,0.006-0.027,0.009-0.039,0.015c-0.027,0.013-0.056,0.023-0.085,0.033
			c-0.001,0-0.004,0.001-0.004,0.002c-0.031,0.01-0.063,0.022-0.095,0.03c-0.022,0.004-0.041,0.008-0.062,0.011
			c-0.019,0.003-0.036,0.006-0.057,0.007c-0.018,0.001-0.031,0.003-0.053,0.003c-0.048,0-0.093-0.008-0.136-0.024
			c-0.022-0.01-0.045-0.022-0.065-0.034c-0.003-0.006-0.009-0.007-0.013-0.01c-0.034-0.022-0.063-0.053-0.085-0.082
			c-0.017-0.023-0.032-0.046-0.043-0.072c-0.01-0.021-0.02-0.046-0.028-0.073c-0.003-0.009-0.005-0.019-0.007-0.03
			c-0.003-0.013-0.006-0.028-0.009-0.043c-0.001-0.009-0.002-0.022-0.003-0.035c-0.005-0.102,0.013-0.21,0.059-0.33
			c0.055-0.149,0.135-0.27,0.212-0.4c0.03-0.048,0.059-0.097,0.089-0.145c0.044-0.078,0.085-0.141,0.129-0.194
			c0.063-0.07,0.122-0.125,0.191-0.158c0.045-0.02,0.092-0.035,0.138-0.041c0.005,0,0.006,0,0.01,0.001
			c0.071-0.009,0.148-0.007,0.221,0.013c0.074,0.015,0.139,0.046,0.194,0.085c0.003,0.002,0.003,0.002,0.003,0.002
			c0.057,0.038,0.114,0.08,0.167,0.128c0.039,0.036,0.08,0.072,0.118,0.106c0.188,0.178,0.331,0.313,0.452,0.491
			c0.04,0.059,0.071,0.126,0.087,0.193c0.003,0.021,0.006,0.043,0.009,0.065C53.942,30.87,53.942,30.887,53.941,30.903"/>
		<path fill="#FFFFFF" d="M38.147,30.928c-0.352-0.29-0.81-0.609-0.901-0.67c-0.613-0.405-1.273-0.629-1.962-0.671
			c-0.108-0.009-0.217-0.011-0.326-0.01c-0.387,0.008-0.729,0.069-1.042,0.183c-0.106,0.037-0.229,0.094-0.292,0.126
			c-0.048,0.025-0.1,0.05-0.146,0.076c-0.044,0.026-0.087,0.052-0.127,0.08c-0.241,0.158-0.45,0.339-0.635,0.542
			c-0.207,0.228-0.379,0.489-0.517,0.779c-0.081,0.17-0.149,0.352-0.208,0.542c-0.092,0.297-0.148,0.608-0.175,0.942
			c-0.022,0.298-0.021,0.61,0.009,0.942c0.051,0.603,0.186,1.179,0.32,1.71c0.085,0.334,0.181,0.658,0.284,0.972
			c0.321,0.976,0.736,1.855,1.254,2.669c0.19,0.299,0.387,0.571,0.593,0.823c0.303,0.374,0.625,0.695,0.97,0.976
			c0.142,0.114,0.285,0.217,0.429,0.309c0.177,0.112,0.354,0.212,0.535,0.289c0.144,0.061,0.288,0.111,0.436,0.152
			c0.158,0.041,0.32,0.067,0.482,0.078c0.223,0.015,0.446-0.003,0.666-0.054c0.106-0.022,0.211-0.053,0.313-0.091
			c0.519-0.194,0.957-0.57,1.237-1.06c0.184-0.326,0.26-0.673,0.372-0.99c0.151-0.425,0.083-1.418,0.101-1.542
			c0.056-0.402,0.623-0.055,0.861,0.091c0.438,0.272,0.884,0.508,1.31,0.722c0.521,0.262,1.109,0.68,2.052,0.43
			c0.104-0.03,0.226-0.074,0.29-0.102c0.046-0.021,0.097-0.04,0.144-0.064c0.043-0.021,0.086-0.042,0.129-0.064
			c0.238-0.136,0.453-0.291,0.641-0.474c0.215-0.206,0.396-0.439,0.55-0.707c0.089-0.156,0.167-0.321,0.237-0.499
			c0.106-0.273,0.183-0.565,0.229-0.882c0.043-0.279,0.064-0.574,0.06-0.895c-0.007-0.572-0.093-1.125-0.184-1.638
			c-0.059-0.323-0.126-0.637-0.203-0.938c-0.241-0.945-0.574-1.807-1.014-2.608c-0.161-0.296-0.328-0.568-0.507-0.82
			c-0.264-0.372-0.547-0.701-0.855-0.984c-0.127-0.121-0.257-0.225-0.388-0.32c-0.163-0.119-0.323-0.222-0.492-0.306
			c-0.131-0.069-0.267-0.128-0.404-0.174c-0.147-0.051-0.301-0.084-0.453-0.104c-0.214-0.028-0.43-0.028-0.642,0.004
			c-0.103,0.015-0.205,0.038-0.307,0.068c-0.509,0.147-0.954,0.478-1.257,0.924c-0.197,0.297-0.294,0.622-0.424,0.915
			c-0.173,0.39-0.179,1.339-0.202,1.452c-0.083,0.38-0.608,0.036-0.826-0.119"/>
		<path fill="#FFFFFF" d="M50.051,44.193c-0.345-0.658-0.723-1.208-1.156-1.684c-0.045-0.048-0.088-0.092-0.133-0.138
			c-0.161-0.165-0.321-0.313-0.489-0.446c-0.132-0.11-0.267-0.212-0.404-0.3c-0.125-0.08-0.25-0.152-0.379-0.216
			c-0.204-0.104-0.412-0.189-0.62-0.254c-0.599-0.195-1.2-0.238-1.802-0.13c-0.057,0.011-0.116,0.022-0.176,0.037
			c-0.356,0.083-0.688,0.218-0.998,0.393c-0.382,0.218-0.732,0.503-1.041,0.861c-0.277,0.322-0.503,0.664-0.682,1.021
			c-0.162,0.332-0.282,0.679-0.356,1.043c-0.041,0.205-0.067,0.413-0.082,0.628c-0.01,0.147-0.014,0.298-0.01,0.445
			c0.006,0.214,0.021,0.431,0.051,0.65c0.063,0.441,0.18,0.875,0.3,1.278c0.113,0.389,0.185,0.764,0.213,1.136
			c0.019,0.233,0.021,0.463,0.009,0.695c-0.02,0.334-0.08,0.765-0.372,1.134c-0.104,0.132-0.242,0.218-0.391,0.246
			c-0.039,0.006-0.076,0.009-0.113,0.008c-0.193-0.005-0.367-0.109-0.471-0.291c-0.155-0.273-0.277-0.571-0.357-0.855
			c-0.1-0.362-0.183-0.732-0.265-1.091c-0.053-0.229-0.104-0.46-0.161-0.687c-0.093-0.374-0.219-0.733-0.379-1.078
			c-0.374-0.803-0.934-1.527-1.691-2.189c-0.019-0.017-0.038-0.032-0.056-0.05c-0.115-0.098-0.233-0.188-0.354-0.274
			c-0.134-0.096-0.272-0.186-0.414-0.265c-0.155-0.085-0.313-0.162-0.474-0.229c-0.179-0.07-0.356-0.129-0.532-0.174
			c-0.5-0.126-0.991-0.146-1.469-0.06c-0.034,0.006-0.067,0.016-0.099,0.023c-0.294,0.063-0.588,0.165-0.875,0.307
			c-0.576,0.288-1.049,0.677-1.433,1.176c-0.251,0.327-0.464,0.701-0.639,1.129c-0.024,0.055-0.045,0.111-0.066,0.169
			c-0.063,0.166-0.114,0.345-0.163,0.53c-0.052,0.213-0.098,0.441-0.136,0.69c-0.009,0.063-0.021,0.124-0.03,0.191
			c-0.248,1.897,0.034,3.819,0.866,5.877c0.455,1.127,1.144,2.137,2.059,3.013c0.41,0.394,0.858,0.758,1.354,1.095
			c0.143,0.099,0.286,0.188,0.432,0.277c0.106,0.063,0.253,0.143,0.334,0.186c0.959,0.523,1.977,0.842,3.04,0.945
			c1.356,0.132,2.626,0.093,3.875-0.124c0.049-0.007,0.098-0.016,0.144-0.022c0.037-0.009,0.073-0.016,0.108-0.022
			c0.047-0.008,0.092-0.015,0.138-0.025c1.708-0.311,3.226-0.95,4.51-1.895c1.442-1.063,2.442-2.347,2.993-3.834
			c0.278-0.745,0.446-1.542,0.496-2.389c0.039-0.684,0.005-1.343-0.102-1.961C51.338,47.162,50.815,45.648,50.051,44.193"/>
		<path fill="#FFFFFF" d="M30.208,47.953c-0.079-0.364-0.188-0.731-0.332-1.092c-0.098-0.248-0.207-0.479-0.328-0.7
			c-0.251-0.459-0.548-0.854-0.896-1.185c-0.27-0.256-0.571-0.474-0.902-0.656c-0.013-0.008-0.029-0.015-0.044-0.023
			c-0.371-0.199-0.762-0.345-1.171-0.44c-0.444-0.105-0.91-0.151-1.398-0.149c-0.834,0.005-1.653,0.104-2.478,0.265
			c-0.659,0.13-1.327,0.334-1.989,0.643c-0.388,0.18-0.78,0.393-1.157,0.628c-0.487,0.302-0.936,0.626-1.34,0.965
			c-0.438,0.369-0.825,0.756-1.157,1.163c-0.122,0.15-0.232,0.3-0.334,0.449c-0.338,0.496-0.575,0.996-0.719,1.508
			c-0.192,0.677-0.222,1.371-0.13,2.1c0.041,0.338,0.106,0.684,0.196,1.036c0.101,0.398,0.208,0.796,0.32,1.197
			c0.182,0.665,0.361,1.35,0.559,2.122c0.051,0.134,0.099,0.271,0.147,0.409c0.103,0.293,0.204,0.606,0.32,0.904
			c0.08,0.202,0.168,0.402,0.257,0.605c0.359,0.803,0.819,1.61,1.428,2.46c0,0.001,0.001,0.002,0.001,0.003
			c0.121,0.166,0.245,0.326,0.375,0.479c0.152,0.186,0.312,0.357,0.477,0.523c0.161,0.16,0.328,0.31,0.5,0.45
			c0.01,0.007,0.02,0.017,0.028,0.023c0.197,0.156,0.395,0.294,0.595,0.414c0.386,0.232,0.78,0.397,1.213,0.494
			c0.44,0.098,0.902,0.1,1.384,0.009c0,0.006,0.324-0.064,0.604-0.157c0.291-0.103,0.591-0.239,0.883-0.416
			c0.303-0.184,0.586-0.392,0.837-0.621c0.121-0.11,0.171-0.217,0.212-0.33c0.084-0.241,0.137-0.51,0.155-0.803
			c0.018-0.267,0.008-0.549-0.025-0.854c-0.02-0.175-0.046-0.356-0.083-0.542c-0.091-0.486-0.236-1.014-0.435-1.577
			c-0.122-0.351-0.269-0.711-0.413-1.059c-0.024-0.058-0.048-0.114-0.07-0.173c-0.208-0.511-0.274-0.925-0.184-1.229
			c0.055-0.197,0.175-0.348,0.354-0.452c0.396-0.224,0.834-0.414,1.339-0.578c1.636-0.539,2.771-1.248,3.298-2.899
			C30.386,49.976,30.42,48.963,30.208,47.953 M24.383,50.463c-0.001,0-0.001,0-0.001,0.003c-0.021,0.067-0.048,0.127-0.082,0.175
			c-0.025,0.034-0.051,0.064-0.078,0.092c-0.128,0.131-0.206,0.194-0.379,0.257c-0.057,0.022-0.112,0.045-0.171,0.06
			c-0.017,0.003-0.035,0.006-0.055,0.007c-0.016,0.004-0.029,0.004-0.043,0.003c-0.03,0.001-0.06-0.004-0.089-0.01
			c-0.014-0.005-0.028-0.01-0.042-0.018c-0.016-0.007-0.033-0.014-0.047-0.023c-0.036-0.021-0.069-0.05-0.098-0.082
			c-0.021-0.023-0.039-0.045-0.053-0.073c-0.015-0.023-0.025-0.05-0.037-0.076c-0.002-0.005-0.006-0.013-0.007-0.019
			c-0.006-0.015-0.252-0.717-0.26-0.738c0,0,0,0-0.003-0.001c-0.009-0.021-0.017-0.043-0.022-0.064
			c-0.006-0.015-0.013-0.03-0.017-0.044c-0.004-0.015-0.007-0.029-0.01-0.043c-0.004-0.012-0.006-0.022-0.009-0.039
			c-0.007-0.038-0.009-0.073-0.002-0.109c0.001-0.019,0.007-0.039,0.013-0.057c0.003-0.005,0.003-0.01,0.007-0.012
			c0.014-0.032,0.032-0.061,0.062-0.086c0.018-0.018,0.038-0.032,0.063-0.05c0.022-0.015,0.047-0.028,0.075-0.043
			c0.011-0.006,0.021-0.011,0.031-0.016c0.018-0.007,0.033-0.015,0.05-0.021c0.013-0.006,0.024-0.012,0.038-0.018
			c0.114-0.042,0.241-0.074,0.345-0.083c0.13-0.01,0.154-0.002,0.186-0.001c0.012,0.001,0.026,0.001,0.048,0.004
			c0.035,0.004,0.085,0.012,0.142,0.034c0.079,0.03,0.164,0.077,0.237,0.16c0.048,0.054,0.09,0.118,0.124,0.196
			c0.002,0.005,0.003,0.009,0.007,0.013c0.05,0.114,0.085,0.262,0.102,0.425C24.423,50.328,24.406,50.392,24.383,50.463"/>
	</g>
	<g>
		<path fill="#FFFFFF" d="M44.914,99.96v0.812h-1.402c-0.246,0-0.443,0.068-0.592,0.207c-0.145,0.14-0.238,0.295-0.279,0.462
			c-0.041,0.17-0.072,0.325-0.094,0.469c-0.018,0.142-0.025,0.284-0.025,0.424v0.086v0.074c0,0.062,0.002,0.128,0.004,0.201
			c0.004,0.071,0.014,0.159,0.021,0.262c0.012,0.105,0.039,0.217,0.078,0.334c0.039,0.119,0.094,0.229,0.166,0.33
			c0.094,0.114,0.195,0.187,0.303,0.214c0.111,0.028,0.25,0.043,0.422,0.043h1.398v0.824h-1.43c-0.27,0-0.498-0.027-0.689-0.082
			c-0.188-0.056-0.377-0.166-0.57-0.334c-0.227-0.228-0.391-0.503-0.484-0.824c-0.096-0.32-0.145-0.668-0.145-1.042v-0.282
			c0-0.172,0.014-0.339,0.045-0.501c0.029-0.163,0.068-0.318,0.111-0.463c0.047-0.145,0.1-0.272,0.158-0.382
			c0.063-0.11,0.148-0.232,0.266-0.369c0.117-0.135,0.26-0.237,0.426-0.3c0.164-0.063,0.318-0.105,0.463-0.129
			c0.146-0.021,0.291-0.033,0.438-0.033H44.914z"/>
		<path fill="#FFFFFF" d="M45.617,101.285c0.088-0.348,0.205-0.604,0.352-0.771s0.281-0.288,0.406-0.366
			c0.123-0.074,0.252-0.136,0.393-0.177c0.135-0.043,0.26-0.07,0.369-0.081c0.107-0.015,0.234-0.022,0.377-0.022
			c0.271,0,0.486,0.024,0.641,0.071c0.156,0.045,0.264,0.079,0.324,0.102c0.057,0.021,0.141,0.066,0.246,0.136
			c0.109,0.067,0.203,0.154,0.285,0.26c0.191,0.214,0.33,0.494,0.418,0.841c0.086,0.344,0.129,0.698,0.129,1.057
			c0,0.356-0.043,0.712-0.129,1.066c-0.088,0.354-0.229,0.638-0.426,0.854c-0.197,0.217-0.43,0.36-0.697,0.435
			c-0.268,0.075-0.527,0.112-0.777,0.112c-0.252,0-0.496-0.033-0.73-0.099c-0.078-0.018-0.15-0.042-0.215-0.07
			c-0.068-0.028-0.148-0.071-0.246-0.133c-0.1-0.063-0.197-0.147-0.297-0.256c-0.098-0.106-0.184-0.233-0.254-0.378
			c-0.07-0.146-0.135-0.346-0.197-0.6c-0.061-0.255-0.094-0.57-0.094-0.943C45.494,101.955,45.535,101.611,45.617,101.285
			 M46.488,101.626c-0.045,0.211-0.068,0.444-0.068,0.697c0,0.25,0.037,0.546,0.109,0.885c0.072,0.34,0.219,0.556,0.438,0.647
			c0.219,0.089,0.402,0.134,0.555,0.134c0.146,0,0.287-0.023,0.422-0.072c0.322-0.136,0.525-0.424,0.604-0.862
			c0.053-0.224,0.078-0.461,0.078-0.711c0-0.254-0.016-0.461-0.053-0.621c-0.035-0.16-0.059-0.263-0.074-0.306
			c-0.014-0.045-0.041-0.109-0.082-0.201c-0.045-0.091-0.105-0.177-0.186-0.26c-0.08-0.085-0.162-0.143-0.25-0.176
			c-0.088-0.031-0.17-0.056-0.24-0.068c-0.07-0.015-0.146-0.019-0.219-0.019c-0.141,0-0.279,0.023-0.414,0.071
			C46.814,100.887,46.609,101.174,46.488,101.626"/>
		<polygon fill="#FFFFFF" points="51.205,104.701 50.33,104.701 50.33,99.96 51.588,99.96 52.615,103.593 53.648,99.96 
			54.895,99.96 54.895,104.701 54.055,104.701 54.123,101.016 53.09,104.701 52.18,104.701 51.115,100.982 		"/>
		<path fill="#FFFFFF" d="M56.791,104.702h-0.854V99.96h1.852c0.283,0,0.516,0.015,0.701,0.044c0.182,0.028,0.348,0.096,0.49,0.2
			c0.188,0.125,0.33,0.306,0.424,0.545c0.094,0.238,0.141,0.495,0.141,0.767c0,0.244-0.037,0.473-0.111,0.689
			c-0.072,0.217-0.178,0.385-0.314,0.508c-0.137,0.122-0.26,0.197-0.365,0.231c-0.109,0.033-0.193,0.058-0.26,0.071
			c-0.064,0.017-0.127,0.023-0.189,0.023h-0.48h-1.033V104.702z M57.777,100.81h-0.986v1.393h1.033c0.514,0,0.771-0.23,0.771-0.692
			c0-0.277-0.072-0.463-0.217-0.558C58.234,100.858,58.033,100.81,57.777,100.81"/>
		<path fill="#FFFFFF" d="M63.027,103.917v0.784h-1.084h-0.074h-0.061c-0.158,0-0.301-0.009-0.422-0.025
			c-0.123-0.019-0.254-0.064-0.398-0.14c-0.143-0.074-0.268-0.178-0.377-0.31s-0.189-0.274-0.24-0.426s-0.084-0.313-0.104-0.484
			s-0.031-0.349-0.031-0.534V99.96h0.848v2.604v0.294c0,0.082,0.006,0.193,0.018,0.333c0.016,0.142,0.055,0.269,0.119,0.383
			c0.057,0.113,0.148,0.2,0.281,0.257c0.131,0.058,0.301,0.086,0.506,0.086H63.027z"/>
		<path fill="#FFFFFF" d="M66.75,99.96v0.825h-1.398c-0.307,0-0.541,0.094-0.709,0.279c-0.168,0.188-0.252,0.465-0.252,0.827h2.359
			v0.825h-2.359c0,0.396,0.064,0.674,0.188,0.835c0.121,0.158,0.238,0.255,0.346,0.282c0.107,0.028,0.25,0.043,0.428,0.043h1.398
			v0.824h-1.434c-0.271,0-0.502-0.027-0.689-0.082c-0.191-0.056-0.383-0.166-0.574-0.334c-0.229-0.228-0.393-0.503-0.488-0.824
			c-0.098-0.32-0.145-0.668-0.145-1.042l0.012-0.282c0-0.172,0.018-0.339,0.047-0.501c0.029-0.163,0.066-0.318,0.113-0.463
			c0.043-0.145,0.096-0.272,0.154-0.382c0.063-0.11,0.15-0.232,0.27-0.369c0.113-0.135,0.256-0.237,0.42-0.3
			c0.166-0.063,0.322-0.105,0.467-0.129c0.145-0.021,0.289-0.033,0.436-0.033H66.75z"/>
		<polygon fill="#FFFFFF" points="68.217,104.701 67.211,104.701 68.625,102.333 67.258,99.96 68.25,99.96 69.086,101.471 
			69.916,99.96 70.896,99.96 69.594,102.268 70.992,104.701 69.973,104.701 69.119,103.053 		"/>
		<path fill="#FFFFFF" d="M71.42,101.285c0.088-0.348,0.205-0.604,0.352-0.771c0.148-0.167,0.281-0.288,0.406-0.366
			c0.125-0.074,0.254-0.136,0.393-0.177c0.137-0.043,0.262-0.07,0.371-0.081c0.109-0.015,0.232-0.022,0.375-0.022
			c0.271,0,0.486,0.024,0.643,0.071c0.156,0.045,0.262,0.079,0.322,0.102c0.057,0.021,0.141,0.066,0.246,0.136
			c0.109,0.067,0.203,0.154,0.285,0.26c0.193,0.214,0.332,0.494,0.418,0.841c0.086,0.344,0.131,0.698,0.131,1.057
			c0,0.356-0.045,0.712-0.131,1.066c-0.086,0.354-0.229,0.638-0.426,0.854c-0.197,0.217-0.43,0.36-0.695,0.435
			c-0.268,0.075-0.529,0.112-0.779,0.112c-0.252,0-0.494-0.033-0.729-0.099c-0.08-0.018-0.152-0.042-0.217-0.07
			c-0.066-0.028-0.15-0.071-0.246-0.133c-0.1-0.063-0.197-0.147-0.295-0.256c-0.1-0.106-0.186-0.233-0.256-0.378
			c-0.068-0.146-0.135-0.346-0.197-0.6c-0.061-0.255-0.092-0.57-0.092-0.943C71.299,101.955,71.338,101.611,71.42,101.285
			 M72.291,101.626c-0.045,0.211-0.068,0.444-0.068,0.697c0,0.25,0.039,0.546,0.111,0.885c0.074,0.34,0.217,0.556,0.438,0.647
			c0.217,0.089,0.4,0.134,0.553,0.134c0.146,0,0.289-0.023,0.422-0.072c0.324-0.136,0.525-0.424,0.604-0.862
			c0.055-0.224,0.078-0.461,0.078-0.711c0-0.254-0.016-0.461-0.053-0.621c-0.035-0.16-0.059-0.263-0.074-0.306
			c-0.012-0.045-0.039-0.109-0.082-0.201c-0.043-0.091-0.104-0.177-0.186-0.26c-0.078-0.085-0.16-0.143-0.248-0.176
			c-0.09-0.031-0.17-0.056-0.24-0.068c-0.072-0.015-0.148-0.019-0.221-0.019c-0.139,0-0.277,0.023-0.412,0.071
			C72.619,100.887,72.412,101.174,72.291,101.626"/>
		<path fill="#FFFFFF" d="M44.924,107.415v0.824h-1.398c-0.305,0-0.541,0.093-0.709,0.281c-0.168,0.187-0.25,0.463-0.25,0.826h2.357
			v0.824h-2.357c0,0.396,0.061,0.676,0.184,0.835c0.127,0.16,0.242,0.255,0.35,0.283s0.25,0.042,0.426,0.042h1.398v0.826h-1.432
			c-0.271,0-0.502-0.028-0.693-0.083c-0.189-0.056-0.381-0.167-0.572-0.333c-0.229-0.229-0.393-0.504-0.486-0.824
			c-0.096-0.321-0.145-0.67-0.145-1.042l0.01-0.283c0-0.173,0.018-0.341,0.047-0.501c0.029-0.163,0.066-0.319,0.111-0.463
			c0.045-0.145,0.098-0.272,0.16-0.383c0.061-0.109,0.148-0.231,0.266-0.368c0.115-0.137,0.258-0.237,0.42-0.3
			c0.168-0.063,0.324-0.105,0.469-0.129c0.145-0.021,0.289-0.033,0.436-0.033H44.924z"/>
		<path fill="#FFFFFF" d="M46.828,107.415h2.238v0.851h-2.107c-0.441,0-0.664,0.207-0.664,0.62c0,0.177,0.051,0.304,0.152,0.382
			c0.1,0.088,0.227,0.133,0.389,0.133h1.123c0.219,0,0.414,0.018,0.582,0.052c0.154,0.041,0.313,0.146,0.477,0.32
			s0.246,0.495,0.246,0.967c0,0.126-0.008,0.243-0.025,0.351c-0.018,0.109-0.051,0.235-0.102,0.38s-0.135,0.273-0.26,0.383
			c-0.121,0.11-0.268,0.188-0.438,0.23c-0.152,0.049-0.354,0.074-0.596,0.074h-2.271v-0.853h2.135c0.211,0,0.373-0.036,0.488-0.108
			s0.172-0.211,0.172-0.412v-0.097c-0.012-0.139-0.043-0.237-0.09-0.298c-0.066-0.066-0.137-0.11-0.219-0.134
			c-0.082-0.021-0.178-0.031-0.293-0.031h-1.004c-0.434,0-0.768-0.105-1.004-0.316c-0.236-0.213-0.354-0.566-0.354-1.063
			c0-0.25,0.035-0.475,0.105-0.672c0.072-0.199,0.17-0.351,0.295-0.459s0.268-0.182,0.428-0.228
			C46.383,107.439,46.576,107.415,46.828,107.415"/>
		<path fill="#FFFFFF" d="M50.715,112.157h-0.852v-4.742h1.85c0.279,0,0.516,0.015,0.699,0.044c0.186,0.028,0.35,0.095,0.492,0.201
			c0.188,0.124,0.328,0.305,0.422,0.544c0.094,0.237,0.141,0.494,0.141,0.768c0,0.243-0.035,0.473-0.109,0.688
			c-0.076,0.217-0.178,0.385-0.316,0.506c-0.137,0.123-0.26,0.198-0.365,0.232c-0.107,0.033-0.191,0.058-0.258,0.072
			c-0.064,0.017-0.127,0.024-0.191,0.024h-0.479h-1.033V112.157z M51.701,108.266h-0.986v1.392h1.033
			c0.514,0,0.771-0.231,0.771-0.693c0-0.276-0.074-0.463-0.219-0.556C52.158,108.314,51.957,108.266,51.701,108.266"/>
		<path fill="#FFFFFF" d="M53.867,108.74c0.088-0.347,0.203-0.604,0.352-0.771c0.145-0.168,0.281-0.289,0.406-0.366
			c0.123-0.076,0.254-0.136,0.391-0.177c0.139-0.042,0.262-0.07,0.371-0.082c0.107-0.014,0.232-0.021,0.379-0.021
			c0.268,0,0.482,0.023,0.639,0.07c0.154,0.046,0.264,0.079,0.322,0.102c0.059,0.021,0.141,0.067,0.246,0.137
			c0.109,0.067,0.203,0.154,0.287,0.258c0.191,0.217,0.33,0.496,0.416,0.842c0.086,0.345,0.131,0.699,0.131,1.059
			c0,0.355-0.045,0.711-0.131,1.064s-0.227,0.639-0.424,0.854c-0.199,0.215-0.43,0.36-0.697,0.435
			c-0.268,0.075-0.527,0.112-0.779,0.112s-0.494-0.033-0.729-0.098c-0.078-0.019-0.152-0.042-0.215-0.069
			c-0.066-0.029-0.148-0.074-0.248-0.137c-0.096-0.062-0.195-0.146-0.295-0.254c-0.102-0.107-0.186-0.233-0.252-0.379
			c-0.074-0.146-0.137-0.345-0.201-0.599c-0.061-0.255-0.094-0.569-0.094-0.944C53.742,109.409,53.783,109.066,53.867,108.74
			 M54.736,109.081c-0.045,0.211-0.068,0.443-0.068,0.698c0,0.249,0.039,0.545,0.109,0.884c0.076,0.34,0.221,0.555,0.438,0.646
			c0.219,0.089,0.404,0.134,0.555,0.134c0.146,0,0.287-0.023,0.424-0.071c0.322-0.136,0.523-0.425,0.604-0.862
			c0.051-0.225,0.08-0.461,0.08-0.71c0-0.255-0.02-0.463-0.053-0.622c-0.039-0.16-0.063-0.264-0.076-0.306
			c-0.012-0.045-0.043-0.111-0.084-0.202c-0.043-0.09-0.105-0.177-0.184-0.26c-0.078-0.084-0.162-0.142-0.252-0.174
			c-0.088-0.032-0.168-0.057-0.238-0.07c-0.072-0.013-0.148-0.018-0.221-0.018c-0.139,0-0.277,0.023-0.412,0.07
			C55.064,108.342,54.857,108.629,54.736,109.081"/>
		<path fill="#FFFFFF" d="M59.184,112.157H58.33v-4.742h2.094c0.105,0,0.215,0.007,0.326,0.02c0.111,0.014,0.234,0.038,0.373,0.076
			c0.135,0.036,0.264,0.125,0.385,0.265c0.121,0.137,0.211,0.297,0.266,0.478c0.049,0.192,0.074,0.39,0.074,0.593
			c0,0.225-0.029,0.428-0.086,0.606c-0.063,0.185-0.154,0.337-0.271,0.459c-0.115,0.119-0.266,0.208-0.455,0.26l0.998,1.986H61.08
			l-0.898-1.854h-0.998V112.157z M60.227,108.266h-1.043v1.2h1.043c0.156,0,0.283-0.012,0.389-0.033
			c0.102-0.023,0.193-0.079,0.271-0.171c0.068-0.095,0.102-0.227,0.102-0.403c0-0.255-0.066-0.417-0.199-0.487
			C60.654,108.301,60.467,108.266,60.227,108.266"/>
		<polygon fill="#FFFFFF" points="64.291,112.157 63.404,112.157 63.404,108.253 62.105,108.253 62.105,107.428 65.6,107.428 
			65.6,108.253 64.291,108.253 		"/>
		<rect x="65.977" y="107.415" fill="#FFFFFF" width="0.891" height="4.742"/>
		<polygon fill="#FFFFFF" points="71.416,107.415 69.734,112.157 68.85,112.157 67.088,107.415 68.047,107.415 69.268,110.942 
			70.512,107.415 		"/>
		<path fill="#FFFFFF" d="M71.455,108.74c0.086-0.347,0.203-0.604,0.35-0.771c0.148-0.168,0.283-0.289,0.408-0.366
			c0.123-0.076,0.254-0.136,0.393-0.177c0.135-0.042,0.258-0.07,0.369-0.082c0.109-0.014,0.234-0.021,0.377-0.021
			c0.271,0,0.484,0.023,0.641,0.07c0.156,0.046,0.262,0.079,0.322,0.102c0.057,0.021,0.141,0.067,0.248,0.137
			c0.107,0.067,0.201,0.154,0.287,0.258c0.189,0.217,0.328,0.496,0.414,0.842c0.088,0.345,0.133,0.699,0.133,1.059
			c0,0.355-0.045,0.711-0.133,1.064c-0.086,0.354-0.227,0.639-0.424,0.854c-0.199,0.215-0.43,0.36-0.697,0.435
			c-0.268,0.075-0.525,0.112-0.779,0.112c-0.252,0-0.496-0.033-0.729-0.098c-0.078-0.019-0.15-0.042-0.217-0.069
			c-0.064-0.029-0.148-0.074-0.246-0.137c-0.098-0.062-0.195-0.146-0.297-0.254c-0.098-0.107-0.182-0.233-0.252-0.379
			s-0.137-0.345-0.197-0.599c-0.063-0.255-0.094-0.569-0.094-0.944C71.332,109.409,71.371,109.066,71.455,108.74 M72.324,109.081
			c-0.045,0.211-0.066,0.443-0.066,0.698c0,0.249,0.035,0.545,0.109,0.884c0.072,0.34,0.219,0.555,0.438,0.646
			c0.219,0.089,0.402,0.134,0.553,0.134c0.146,0,0.287-0.023,0.422-0.071c0.326-0.136,0.525-0.425,0.605-0.862
			c0.053-0.225,0.078-0.461,0.078-0.71c0-0.255-0.018-0.463-0.053-0.622c-0.037-0.16-0.061-0.264-0.074-0.306
			c-0.014-0.045-0.041-0.111-0.086-0.202c-0.043-0.09-0.104-0.177-0.182-0.26c-0.078-0.084-0.162-0.142-0.252-0.174
			c-0.088-0.032-0.168-0.057-0.238-0.07c-0.072-0.013-0.146-0.018-0.221-0.018c-0.139,0-0.275,0.023-0.412,0.07
			C72.652,108.342,72.445,108.629,72.324,109.081"/>
		<path fill="#FFFFFF" d="M42.42,119.521h-0.852v-4.74h1.85c0.285,0,0.52,0.017,0.703,0.044c0.184,0.029,0.348,0.096,0.49,0.201
			c0.189,0.124,0.33,0.304,0.424,0.543c0.096,0.238,0.141,0.494,0.141,0.769c0,0.243-0.037,0.472-0.109,0.688
			c-0.074,0.217-0.178,0.387-0.314,0.506c-0.139,0.121-0.26,0.199-0.367,0.232c-0.109,0.033-0.193,0.058-0.26,0.074
			c-0.064,0.013-0.127,0.022-0.191,0.022h-0.48H42.42V119.521z M43.408,115.632H42.42v1.389h1.033c0.518,0,0.773-0.229,0.773-0.69
			c0-0.276-0.072-0.462-0.217-0.557C43.865,115.678,43.666,115.632,43.408,115.632"/>
		<path fill="#FFFFFF" d="M45.832,117.654v-2.874h0.852v2.85c0,0.086,0.002,0.178,0.012,0.266c0.008,0.091,0.021,0.193,0.045,0.31
			c0.02,0.117,0.061,0.224,0.127,0.318c0.066,0.094,0.162,0.166,0.279,0.216c0.121,0.051,0.271,0.077,0.455,0.077
			c0.24,0,0.424-0.046,0.555-0.133c0.131-0.088,0.221-0.213,0.27-0.378c0.055-0.164,0.078-0.391,0.078-0.676v-2.85h0.848v2.874
			c0,0.125-0.006,0.248-0.012,0.371c-0.01,0.122-0.018,0.243-0.029,0.362c-0.029,0.198-0.139,0.445-0.326,0.741
			c-0.186,0.297-0.648,0.445-1.391,0.445c-0.752,0-1.217-0.137-1.391-0.412c-0.176-0.274-0.275-0.464-0.301-0.566
			c-0.023-0.104-0.043-0.188-0.053-0.247c-0.012-0.062-0.018-0.134-0.018-0.212v-0.175V117.8V117.654z"/>
		<path fill="#FFFFFF" d="M53.322,114.78v0.812h-1.4c-0.248,0-0.447,0.07-0.594,0.208c-0.146,0.139-0.244,0.292-0.283,0.461
			c-0.041,0.169-0.068,0.325-0.088,0.47c-0.021,0.141-0.029,0.284-0.029,0.424v0.086v0.072c0,0.061,0.002,0.129,0.004,0.2
			c0.004,0.073,0.012,0.161,0.025,0.266c0.008,0.102,0.035,0.213,0.074,0.333c0.041,0.117,0.096,0.228,0.168,0.328
			c0.092,0.115,0.195,0.186,0.303,0.215c0.107,0.028,0.25,0.044,0.422,0.044h1.398v0.822h-1.432c-0.268,0-0.498-0.025-0.688-0.082
			c-0.189-0.055-0.381-0.165-0.572-0.333c-0.23-0.228-0.393-0.503-0.486-0.824C50.049,117.96,50,117.615,50,117.24v-0.283
			c0-0.173,0.016-0.339,0.047-0.503c0.029-0.162,0.068-0.314,0.111-0.459c0.045-0.146,0.098-0.274,0.16-0.384
			c0.057-0.11,0.145-0.233,0.264-0.368c0.117-0.138,0.258-0.237,0.426-0.302c0.164-0.063,0.32-0.106,0.465-0.128
			c0.146-0.022,0.289-0.033,0.436-0.033H53.322z"/>
		<polygon fill="#FFFFFF" points="56.678,119.521 55.803,119.521 55.803,114.78 57.061,114.78 58.088,118.414 59.121,114.78 
			60.371,114.78 60.371,119.521 59.529,119.521 59.6,115.835 58.564,119.521 57.654,119.521 56.588,115.803 		"/>
		<rect x="61.291" y="114.781" fill="#FFFFFF" width="0.893" height="4.739"/>
		<polygon fill="#FFFFFF" points="63.998,119.521 63.121,119.521 63.121,114.78 64.207,114.78 65.861,118.196 65.828,114.78 
			66.688,114.78 66.688,119.521 65.703,119.521 63.965,115.942 		"/>
		<path fill="#FFFFFF" d="M67.951,119.521h-0.902l1.707-4.74h0.904l1.73,4.74h-0.947l-0.373-1.133h-1.766L67.951,119.521z
			 M68.58,117.551h1.213l-0.617-1.814L68.58,117.551z"/>
		<path fill="#FFFFFF" d="M72.957,114.78h2.242v0.852h-2.107c-0.443,0-0.666,0.205-0.666,0.619c0,0.175,0.053,0.304,0.154,0.382
			c0.096,0.088,0.227,0.132,0.387,0.132h1.127c0.219,0,0.412,0.019,0.582,0.053c0.154,0.04,0.313,0.146,0.477,0.32
			c0.162,0.174,0.246,0.497,0.246,0.965c0,0.128-0.01,0.247-0.027,0.354c-0.016,0.107-0.051,0.234-0.102,0.38
			c-0.049,0.146-0.137,0.273-0.26,0.382c-0.123,0.109-0.268,0.187-0.438,0.23c-0.154,0.049-0.354,0.072-0.598,0.072h-2.271v-0.85
			h2.137c0.209,0,0.369-0.036,0.488-0.109c0.113-0.072,0.174-0.21,0.174-0.412v-0.1c-0.014-0.135-0.043-0.235-0.092-0.296
			c-0.066-0.066-0.139-0.11-0.219-0.131c-0.08-0.023-0.178-0.033-0.291-0.033h-1.01c-0.434,0-0.768-0.106-1.002-0.316
			c-0.236-0.211-0.355-0.565-0.355-1.061c0-0.252,0.037-0.477,0.107-0.674c0.072-0.197,0.17-0.351,0.295-0.457
			c0.123-0.108,0.266-0.185,0.43-0.229C72.512,114.806,72.709,114.78,72.957,114.78"/>
		<path fill="#FFFFFF" d="M17.457,111.147v-1.468v-1.468c0,0,0.002-0.157,0.016-0.412h-3.428c0,0-2.205-0.039-3.383-0.846
			c-0.951-0.653-1.172-0.997-1.74-1.784c-0.838-1.155-0.871-3.233-0.871-3.233v-0.968v-0.967c0,0,0.033-2.078,0.871-3.233
			c0.568-0.785,0.789-1.131,1.74-1.782c1.178-0.808,3.383-0.847,3.383-0.847h7.939V90.61H11.82c0,0-2.824,0.06-4.332,1.283
			c-1.219,0.989-1.502,1.513-2.23,2.703c-1.072,1.755-1.113,4.905-1.113,4.905v1.467v1.47c0,0,0.041,3.151,1.113,4.903
			c0.729,1.191,1.012,1.714,2.23,2.703c1.508,1.225,4.332,1.284,4.332,1.284h5.641C17.457,111.217,17.457,111.147,17.457,111.147"/>
		<path fill="#FFFFFF" d="M37.146,116.511H36.18h-7.957c0,0-2.203-0.038-3.383-0.846c-0.953-0.653-1.17-0.996-1.742-1.783
			c-0.762-1.052-0.82-2.553-0.82-2.553v0.001c-0.045-0.406-0.049-0.682-0.049-0.682s-0.031-0.726-0.031-0.969
			c0-0.241,0.031-0.966,0.031-0.966s0.006-0.386,0.078-0.914c0.098-0.702,0.314-1.661,0.791-2.32
			c0.572-0.785,0.789-1.13,1.742-1.783c1.18-0.807,3.383-0.847,3.383-0.847h5.844h0.016c-0.102,0.702-0.316,1.669-0.789,2.32
			c-0.57,0.787-0.789,1.131-1.74,1.784c-1.066,0.729-2.963,0.831-3.32,0.844v0.002h-1.277h-0.23h-0.004h-1.277h-0.229h-0.004h-1.279
			h-0.229h-0.004h-0.525c-0.076,0.528-0.082,0.914-0.082,0.914s-0.031,0.725-0.031,0.966c0,0.243,0.031,0.969,0.031,0.969
			s0.006,0.275,0.051,0.681h0.557h0.006h0.293h1.213h0.004h0.295h1.211h0.006h0.293h1.213h2.162c0,0,2.826-0.06,4.334-1.284
			c1.221-0.989,1.5-1.512,2.229-2.703c0.42-0.685,0.682-1.588,0.846-2.435c0,0,0.041-0.177,0.051-0.27
			c0.041-0.328,0.037-0.342,0.037-0.661c0-2.487-1.148-4.562-4.393-4.655h-7.502c0,0-2.822,0.061-4.332,1.284
			c-1.219,0.989-1.498,1.512-2.229,2.703c-1.072,1.753-1.115,4.903-1.115,4.903v1.468v1.468c0,0,0.043,3.152,1.115,4.906
			c0.73,1.191,1.01,1.712,2.229,2.703c1.51,1.224,4.332,1.284,4.332,1.284h10.189h1.238h0.629v-3.53H37.146z"/>
	</g>
</g>
</svg>
